<?xml version="1.0" encoding="utf-8" ?>
<svg baseProfile="full" height="300mm" version="1.1" viewBox="0,0,200,300" width="200mm" xmlns="http://www.w3.org/2000/svg" xmlns:ev="http://www.w3.org/2001/xml-events" xmlns:xlink="http://www.w3.org/1999/xlink"><defs /><rect fill="#222222" height="300" width="200" x="0" y="0" /><text fill="#FFFFFF" style="font-size:12px; font-family:Arial; font-weight:bold;" x="10" y="20">Over 4km Runs</text><text fill="#FFFFFF" style="font-size:4px; font-family:Arial" x="10" y="280">ATHLETE</text><text fill="#FFFFFF" style="font-size:9px; font-family:Arial" x="10" y="290">Fake David</text><text fill="#FFFFFF" style="font-size:4px; font-family:Arial" x="65" y="280">SPECIAL TRACKS</text><rect fill="yellow" height="2.6" width="2.6" x="65" y="283" /><text fill="#FFFFFF" style="font-size:3px; font-family:Arial" x="70" y="285.5">Over 10.0 km</text><rect fill="red" height="2.6" width="2.6" x="65" y="287" /><text fill="#FFFFFF" style="font-size:3px; font-family:Arial" x="70" y="289.5">Over 15.0 km</text><text fill="#FFFFFF" style="font-size:4px; font-family:Arial" x="120" y="280">STATISTICS</text><text fill="#FFFFFF" style="font-size:3px; font-family:Arial" x="120" y="285">Number: 7</text><text fill="#FFFFFF" style="font-size:3px; font-family:Arial" x="120" y="290">Weekly: 2.3</text><text fill="#FFFFFF" style="font-size:3px; font-family:Arial" x="141" y="285">Total: 34.7 km</text><text fill="#FFFFFF" style="font-size:3px; font-family:Arial" x="141" y="290">Avg: 5.0 km</text><text fill="#FFFFFF" style="font-size:3px; font-family:Arial" x="167" y="285">Min: 4.0 km</text><text fill="#FFFFFF" style="font-size:3px; font-family:Arial" x="167" y="290">Max: 6.3 km</text><polyline fill="none" points="18.478260869393125,55.12777287789504 25.345021037734114,55.9512597786088 26.80925666191615,56.85709324339405 27.61711079941597,56.69239641542663 37.03366058901884,61.962658392993035 45.26367461425252,65.61336858742288 46.09677419345826,65.36632918898249 46.980364656308666,63.005722139496356 47.93969144462608,62.621435839595506 54.75596072920598,62.9508241211588 58.59326788212638,64.40561884266208 67.0,64.68010776862502 58.69424964929931,64.40561884266208 54.70546984556131,63.033171145565575 47.8134642355144,62.59398680279264 46.929873772663996,63.142967149440665 45.66760168294422,65.66826620904612 36.35203366051428,61.71561654686229 34.231416549766436,60.260811204178026 27.642356241121888,56.9119921696838 26.910238429089077,56.96689108776627 25.067321178037673,56.08850741639617 13.0,54.33173379092477 25.067321178037673,56.06105789291905 28.854137447313406,57.653126873861765 27.743338008294813,56.9119921696838 18.50350631121546,55.155222470959416" stroke="#4DD2FF" stroke-linecap="round" stroke-linejoin="round" stroke-width="0.5"><title>2024-12-03 5.6km</title><desc>1733220329000</desc></polyline><polyline fill="none" points="140.04895104910247,55.40143937780522 145.15944055945147,55.94889529052307 146.89650349656586,56.961686578491936 149.11188811191823,57.235413474350935 151.50349650357384,58.795652886503376 154.77622377616353,60.027416163211456 156.86573426576797,61.64238842498162 165.85314685327467,65.58398583540111 166.98601398605388,63.14786464892677 167.89230769244023,62.545674899592996 174.76503496512305,62.928886672481894 178.99440559453797,64.48910190720926 184.9104895106284,64.43435762517038 187.0,64.59859044689802 186.37062937067822,64.76282319513848 178.74265734269284,64.54384618109907 174.76503496512305,63.03837567704613 167.8671328672208,62.65516401833156 167.11188811203465,63.011003428924596 165.953846154036,65.61135789181571 165.40000000002328,65.66610199850402 156.0853146853624,61.669760775053874 151.05034965032246,58.795652886503376 144.9328671329422,56.058386375167174 133.0,54.38864378858125 145.36083916097414,56.00364083691966 148.93566433573142,57.646003435744205 144.88251748250332,56.140504667244386 133.05034965032246,54.333898001525085 140.35104895115364,55.34669374162331" stroke="#4DD2FF" stroke-linecap="round" stroke-linejoin="round" stroke-width="0.5"><title>2024-12-02 6.1km</title><desc>1733112856000</desc></polyline><polyline fill="none" points="13.0,112.5628748673771 14.599999999976717,113.22976375810686 18.28000000002794,118.15890707424842 17.959999999962747,117.83996439597104 18.653333333320916,117.81096959405113 19.56000000005588,116.70916552116978 22.86666666669771,117.20207825518446 24.093333333265036,118.01393316197209 26.546666666632518,118.50684424329665 29.186666666530073,120.1595415485499 32.38666666659992,121.37731401930796 34.066666666651145,122.8560326109291 43.66666666662786,127.23416647891281 44.440000000060536,127.23416647891281 45.61333333328366,124.5377057500009 46.38666666659992,124.16077964368742 53.77333333331626,124.5377057500009 58.33333333325572,126.16138326528016 67.0,126.2483657981793 58.38666666671634,126.21937162271934 53.79999999993015,124.5956943492638 46.46666666667443,124.21876829920802 45.66666666662786,124.56670005069464 44.22666666668374,127.4371251326229 35.05333333322778,123.58089261359419 28.839999999967404,120.07255765487207 22.62666666659061,117.23107310241903 15.080000000074506,116.33223183269729" stroke="#4DD2FF" stroke-linecap="round" stroke-linejoin="round" stroke-width="0.5"><title>2024-11-29 4.6km</title><desc>1732853630000</desc></polyline><polyline fill="none" points="137.57320574158803,118.2582868123427 137.18564593303017,118.48303018006845 138.83923444978427,118.51112309156451 137.41818181832787,118.3425655909814 138.71004784689285,118.4549372663896 138.55502392339986,118.84823786682682 140.62200956931338,116.17940431079478 145.47942583728582,115.84228714942583 147.02966507175006,116.68507948771003 149.225837320555,117.13456796453102 157.82966507179663,122.0508132003306 166.4593301435234,125.78711671297788 167.75119617232122,123.06214712839574 168.52631578943692,122.6969435228093 175.86411483259872,123.06214712839574 179.58468899514992,124.57914293507929 187.0,124.66342030098895 179.7397129186429,124.52295801404398 175.32153110043146,122.97786940468359 168.42296650726348,122.58457311146776 167.80287081340794,122.94977682587341 166.4593301435234,125.75902434345335 157.31291866023093,122.0508132003306 147.85645933018532,116.76935861792299 145.01435406703968,115.89847336389357 133.0,114.21288328705123 145.2727272727061,115.84228714942583 146.84880382788833,116.65698644009535 148.50239234452602,116.88173076222301 155.16842105274554,120.42143616641988 145.19521531101782,115.95465957000852 138.71004784689285,115.08377243427094" stroke="#4DD2FF" stroke-linecap="round" stroke-linejoin="round" stroke-width="0.5"><title>2024-11-28 6.3km</title><desc>1732767063000</desc></polyline><polyline fill="none" points="13.362416107440367,173.5473841097555 21.33557046984788,174.89374909971957 23.147651006816886,175.84605356040993 23.99328859068919,175.78037745677284 32.298657718114555,179.85227737706737 35.16778523486573,181.75686281439266 45.67785234900657,186.35410410168697 47.15771812084131,183.16887774001225 48.244966443045996,182.57780227501644 56.24832214752678,183.00469019034063 59.93288590607699,184.5480507426255 63.13422818784602,185.07344884666963 67.0,184.97493674984435 61.171140939579345,184.87642463104567 56.79194630868733,183.16887774001225 48.546979865874164,182.7419899837987 47.30872483213898,183.23455274273874 45.67785234900657,186.4526158902736 34.231543624191545,181.62551235870342 23.99328859068919,175.78037745677284 23.23825503361877,175.94456769755925 20.64093959738966,174.79523472770234 13.0,173.77725159437978" stroke="#4DD2FF" stroke-linecap="round" stroke-linejoin="round" stroke-width="0.5"><title>2024-11-25 4.0km</title><desc>1732507947000</desc></polyline><polyline fill="none" points="133.0,170.7641078986344 144.00802568229847,172.1777839162387 146.99839486368,173.92131331947166 148.64526484790258,173.73282388597727 151.67897271271795,174.72239278507186 154.84269662946463,176.9842587406165 160.8234349922277,179.57597020384856 165.46067415736616,182.78025333129335 175.94863563403487,186.87982719257707 179.45906902104616,189.00028600537917 180.3691813806072,188.62331606925 182.31942215096205,184.05253771785647 187.0,183.95829451770987 182.49277688609436,184.1939024918247 179.97913322644308,189.2358921013656 166.15409309812821,183.4870783064398 148.5585874801036,174.0626803576597 147.3884430178441,174.29829201789107 151.54895666148514,175.09937100607203 153.58587479940616,176.9842587406165 157.1829855539836,177.97382255253615 165.3739967898,182.87449670693604 178.50561797781847,188.7175585743389 180.3691813806072,188.9060435424326 182.31942215096205,184.00541611970402 180.23916532914154,189.2358921013656 166.37078651692718,183.39283502212493" stroke="#4DD2FF" stroke-linecap="round" stroke-linejoin="round" stroke-width="0.5"><title>2024-11-20 4.0km</title><desc>1732095798000</desc></polyline><polyline fill="none" points="16.15454062668141,234.12237866804935 24.126925119548105,235.2760918092099 26.0483271375997,236.24271388424677 27.367498672218062,236.36743915060651 34.737652681884356,240.0156367488089 36.68773234204855,241.51232400009758 47.18374933616724,246.15825658352696 47.67126925115008,246.0958954138623 48.847052575671114,243.35199474732508 49.707381837419234,242.6971976115601 57.67976633028593,243.1337291492673 61.866702071158215,244.81748938682722 67.0,245.00457343948074 61.78066914493684,244.84867006810964 57.22092405729927,243.10254834021907 49.87944768986199,242.72837845078902 48.67498672322836,243.53907945507672 47.5565586828161,246.2206177440239 36.88847583648749,241.82413317044848 28.686670207069255,237.240514974721 24.069569835439324,235.40081736372667 13.0,233.7793822560052" stroke="#4DD2FF" stroke-linecap="round" stroke-linejoin="round" stroke-width="0.5"><title>2024-11-19 4.1km</title><desc>1731989484000</desc></polyline></svg>