<?xml version="1.0" encoding="utf-8" ?>
<svg baseProfile="full" height="300mm" version="1.1" viewBox="0,0,200,300" width="200mm" xmlns="http://www.w3.org/2000/svg" xmlns:ev="http://www.w3.org/2001/xml-events" xmlns:xlink="http://www.w3.org/1999/xlink"><defs /><rect fill="#222222" height="300" width="200" x="0" y="0" /><text fill="#FFFFFF" style="font-size:12px; font-family:Arial; font-weight:bold;" x="10" y="20">Over 4km Runs</text><text fill="#FFFFFF" style="font-size:4px; font-family:Arial" x="10" y="280">ATHLETE</text><text fill="#FFFFFF" style="font-size:9px; font-family:Arial" x="10" y="290">Fake David</text><text fill="#FFFFFF" style="font-size:4px; font-family:Arial" x="65" y="280">SPECIAL TRACKS</text><rect fill="yellow" height="2.6" width="2.6" x="65" y="283" /><text fill="#FFFFFF" style="font-size:3px; font-family:Arial" x="70" y="285.5">Over 10.0 km</text><rect fill="red" height="2.6" width="2.6" x="65" y="287" /><text fill="#FFFFFF" style="font-size:3px; font-family:Arial" x="70" y="289.5">Over 15.0 km</text><text fill="#FFFFFF" style="font-size:4px; font-family:Arial" x="120" y="280">STATISTICS</text><text fill="#FFFFFF" style="font-size:3px; font-family:Arial" x="120" y="285">Number: 35</text><text fill="#FFFFFF" style="font-size:3px; font-family:Arial" x="120" y="290">Weekly: 2.5</text><text fill="#FFFFFF" style="font-size:3px; font-family:Arial" x="141" y="285">Total: 287.4 km</text><text fill="#FFFFFF" style="font-size:3px; font-family:Arial" x="141" y="290">Avg: 8.2 km</text><text fill="#FFFFFF" style="font-size:3px; font-family:Arial" x="167" y="285">Min: 4.0 km</text><text fill="#FFFFFF" style="font-size:3px; font-family:Arial" x="167" y="290">Max: 13.0 km</text><polyline fill="none" points="13.871122353884857,44.69613008738088 14.173079483385663,44.35217521725281 13.81360671017319,44.68049578733917 14.129942750616465,44.47724978068436 13.943016908538993,44.39907818727079 11.84369591268478,43.976951079501305 12.807082945015281,43.945682371093426 18.630541871883906,44.7430329805502 19.56517108238768,45.19642707388266 20.125948608736508,45.13389001577161 25.7481027826434,48.182549905686756 30.248701903910842,50.26186688695452 30.636932499008253,50.121161876479164 30.780721608316526,48.620302561233984 31.06829982693307,48.432694392075064 35.56889894820051,48.71410658286186 37.78325123153627,49.558340891075204 42.49953401676612,49.65214449347695 37.75449340970954,49.636510562631884 35.45386766077718,48.71410658286186 32.8081480495166,48.72974058240652 30.982026361336466,48.46396243193885 30.75196378643159,48.604668553496595 30.636932499008253,50.15242966472579 30.27745972573757,50.48074116022326 24.511516442580614,47.86986887839157 20.399147916352376,45.4622093627986 18.069764345593285,44.8212044458196 16.229263746528886,44.75866727592074 11.728664625203237,43.93004801511415 18.702436426538043,44.83683873539849 19.464518705906812,45.290232626051875 20.125948608736508,45.290232626051875 25.762481693469454,48.27635412300879 30.334975369507447,50.32440241688164 30.651311409950722,50.05862628594332 30.852616162970662,48.46396243193885 35.43948874983471,48.68283858030918 37.308747170784045,49.41763540888496 38.6891226201551,49.636510562631884 42.571428571420256,49.636510562631884 37.8551457861322,49.65214449347695 35.45386766077718,48.839178546521 32.82252696045907,48.82354455513996 30.8813739848556,48.49523046708782 30.665690320834983,49.980456771634636 30.234322992910165,50.38693792824051 25.072293968813028,48.13564778128057 20.010917321313173,45.30586688067706 13.224071361939423,44.21146624421817 11.714285714260768,43.80497312550142 13.971774730365723,44.148928892594995 14.949540673638694,44.35217521725281 17.595260284957476,44.58668996258348 20.701105045969598,45.71235709187749 20.0828118759091,45.290232626051875 19.780854746350087,45.36840388750716 18.400479297037236,44.8212044458196 15.122087604831904,44.58668996258348 12.893356410553679,44.02385413342563" stroke="yellow" stroke-linecap="round" stroke-linejoin="round" stroke-width="0.5"><title>2025-02-26 11.1km</title><desc>1740566027000</desc></polyline><polyline fill="none" points="50.776652452070266,44.2869757010194 48.200426439289004,43.97399728075834 49.35181236680364,43.9583483475144 55.180703624733724,44.75644245685544 56.0010660981643,45.21025932340126 56.490405117336195,45.194610482256394 60.549040511774365,47.19765267219918 61.41257995739579,47.94878856881405 65.65831556502962,49.670131534468965 66.6226012793486,50.32736785482848 67.09754797443748,50.04569539788645 67.22707889130106,48.60603027498291 67.45735607680399,48.41824714021641 69.25639658852015,48.699921779407305 71.84701492538443,48.715570359432604 73.80437100213021,49.48234935097571 75.21481876331381,49.685780042171245 78.91364605544368,49.63883451557194 75.17164179100655,49.63883451557194 73.90511727076955,49.46670082808123 72.0341151386383,48.762516092392616 67.57249466952635,48.46519293966412 67.25586353940889,48.66862461595156 66.99680170579813,50.23347707782523 66.57942430709954,50.34301631357812 64.59328358207131,49.263269924689666 61.599680170591455,48.08962625042477 56.54797441361006,45.27285467629554 56.0730277185794,45.31980117876083 54.87846481875749,44.75644245685544 53.280916844378226,44.7720913306548 48.14285714284051,43.895752602868015 54.90724946698174,44.7720913306548 56.0010660981643,45.28850351164874 56.54797441361006,45.21025932340126 60.80810234544333,47.604518282954814 65.65831556502962,49.717077054127 66.72334754792973,50.38996168284211 67.14072494668653,49.9361560070829 67.21268656721804,48.65297603244835 67.3997867804137,48.41824714021641 69.5730277185794,48.699921779407305 71.74626865674509,48.65297603244835 73.77558635396417,49.41975525248563 75.28678038378712,49.623186004318995 79.0,49.63883451557194 74.5671641791123,49.63883451557194 72.07729211088736,48.746867515917984 70.62366737739649,48.79381324186397 67.47174840088701,48.4025985381013 67.21268656721804,48.699921779407305 67.1119402985205,50.03004691700335 66.96801705757389,50.311719394871034 66.65138592751464,50.35866477114905 60.92324093816569,47.69841023506888 56.619936034141574,45.304152345779585 56.11620469088666,45.31980117876083 54.99360341153806,44.850335682116565 53.165778251655865,44.75644245685544 48.301172707928345,43.97399728075834 51.726545842248015,44.396518037930946 52.460554371005856,44.44346473623591 54.89285714289872,44.83468681416707 57.46908315567998,45.71102162437455 60.678571428579744,47.36978821908997 56.64872068236582,45.31980117876083 52.460554371005856,44.506060317653464" stroke="yellow" stroke-linecap="round" stroke-linejoin="round" stroke-width="0.5"><title>2025-02-21 11.3km</title><desc>1740135343000</desc></polyline><polyline fill="none" points="87.09976057463791,44.40163144652615 84.65762170794187,43.91741818777518 88.16280925780302,44.30791283858707 91.46687948924955,44.854604127729544 92.38627294491744,45.32319552658009 93.29130087787053,45.37005460886576 97.32801276940154,47.68175633130886 101.996807661606,49.71228411422635 103.0454908219981,50.35267725912854 103.51955307257595,50.009051912333234 103.67757382278796,48.618925443981425 103.878691141319,48.46273088277667 105.87549880286679,48.72826156755036 108.46129289706005,48.743881009097095 110.11332801275421,49.44675467563502 111.52114924177295,49.68104537419276 115.35674381477293,49.66542600246612 114.20750199520262,49.82161966768035 110.77414205903187,49.63418725543306 108.37509976059664,48.82197819952853 103.9505187550094,48.50958926335443 103.64884277730016,48.75950044952333 103.43335993611254,50.16524532157928 102.9880287310225,50.337057937387726 97.54349561047275,47.900429498942685 92.9896249002195,45.35443491596379 92.32881085400004,45.32319552658009 91.25139664806193,44.854604127729544 89.44134078209754,44.74526598396187 84.57142857142026,43.901798386636074 91.32322426175233,44.807744930221816 92.8747007183265,45.24509703286458 96.65283320029266,47.11945285294496 97.91699920187239,47.97852700353542 103.20351157221012,50.27458063887025 103.49082202708814,50.024671258521266 103.59138068632456,48.71264212481037 103.79249800479738,48.46273088277667 108.31763766956283,48.72826156755036 110.127693535469,49.44675467563502 111.57861133274855,49.68104537419276 115.42857142857974,49.71228411422635 113.83399840380298,49.83723902779457 110.78850758180488,49.64980662953167 108.46129289706005,48.82197819952853 103.90742218674859,48.49396980430174 103.60574620903935,48.79073932686879 103.53391859534895,49.993432565024705 103.24660814047093,50.383915899088606 98.44852354348404,48.306536205185694 93.0039904229925,45.32319552658009 92.51556264964165,45.35443491596379 91.33758978452533,44.87022385788441 87.55945730250096,44.38601168144669 88.79489225859288,44.526589525310555 91.25139664806193,44.807744930221816 93.67916999204317,45.729307225046796 93.0470869911951,45.32319552658009 92.27134876296623,45.30757583017112 90.87789305666229,44.79212519539578 89.62809257779736,44.77650545942015 85.27533918595873,43.964277584294905" stroke="yellow" stroke-linecap="round" stroke-linejoin="round" stroke-width="0.5"><title>2025-02-19 10.6km</title><desc>1739962218000</desc></polyline><polyline fill="none" points="123.23916532908333,44.14276506616443 121.0,43.922859547426924 124.79935794544872,44.33125532824488 127.83306581061333,44.86531015561195 128.6709470305359,45.28941155473876 129.27768860355718,45.25799666551757 134.5794542536023,48.17956133559346 139.66452648479026,50.36285473826865 139.91011235961923,50.04871319506492 140.06902086682385,48.68219203586341 140.31460674159462,48.50941286784655 144.89406099525513,48.792142341830186 146.95987158908974,49.64032848921488 151.8571428571595,49.73457118382794 147.2199036917882,49.67174272541888 144.83627608348615,48.80784952372778 140.60353130020667,48.50941286784655 140.3579454253777,48.77643515878299 140.09791332262103,48.71360641489446 139.91011235961923,50.14295570716786 139.46227929380257,50.31573353661224 133.61155698238872,47.724051228462486 129.30658105935436,45.32082643925969 127.67415730340872,44.83389520320634 122.11235955054872,44.04851987192524" stroke="#4DD2FF" stroke-linecap="round" stroke-linejoin="round" stroke-width="0.5"><title>2025-02-18 4.9km</title><desc>1739836925000</desc></polyline><polyline fill="none" points="160.76526294578798,44.16161831950012 160.7217408824945,44.540193852910306 162.3175498690689,44.492871948255925 164.4356236147578,44.85567294700013 167.20652830949984,46.33841839211527 168.7007858150173,46.82740663430013 170.09349183965242,47.836927174648736 174.77936731814407,49.76131237165828 175.85291154542938,50.40802806057036 176.2446101148962,50.10833079180156 176.34616159583675,48.70448004330683 176.57827926659957,48.49942241336976 181.1480959096807,48.86221654662222 183.2661696554278,49.69821805234824 188.28571428573923,49.79285952428472 183.4257505540736,49.60357653815299 181.17711061856244,48.767574658748345 176.69433810195187,48.483648741283105 176.43320572230732,48.767574658748345 176.3606689502485,50.01368946087314 176.1285512795439,50.34493393394223 170.80435220635263,48.12085395933536 166.5101752972114,45.69169027269527 164.31956477934727,44.80835111284978 157.42857142857974,43.87768622516887 164.36308684264077,44.824125058730715 166.36510175303556,45.72323803170002 164.36308684264077,44.824125058730715" stroke="#4DD2FF" stroke-linecap="round" stroke-linejoin="round" stroke-width="0.5"><title>2025-02-14 5.4km</title><desc>1739506837000</desc></polyline><polyline fill="none" points="15.086808567401022,78.6627122186328 17.681056915957015,78.97612867499993 20.015880429709796,79.55594788801682 25.78087675984716,82.64306651733932 30.20551144320052,84.66455619872431 30.565823713841382,84.60187464000774 31.127910856099334,83.19153463029943 31.545873090042733,82.86245393415447 35.6390204844065,83.09751162680914 37.945019016449805,84.02206933619163 42.57142857136205,84.06908063657465 37.844131580670364,84.02206933619163 35.5957830119296,83.12885263262433 31.617935544112697,82.92513601118117 31.228798291878775,83.11318213028426 30.43611129646888,84.66455619872431 25.478214452508837,82.65873705467675 20.05911790212849,79.61863095042645 18.747581237053964,79.19551991655317 11.714285714260768,78.19258665843518 18.545806365495082,79.10149512674252 20.13118035631487,79.61863095042645 25.507039434218314,82.5490432686347 30.162273970781825,84.63321542170888 30.59464869555086,84.5235226653167 31.185560819343664,83.1445231337857 31.646760525822174,82.92513601118117 35.65343297529034,83.1445231337857 37.844131580670364,83.97505802527303 42.57142857136205,84.0534102042875 40.596917328366544,84.16310320582124 37.82971908990294,83.94371714553563 35.56695803027833,83.12885263262433 31.603523053287063,82.84678341193649 31.228798291878775,83.09751162680914 30.580236204667017,84.57053385364998 30.349636351515073,84.61754503141856 25.218789617705625,82.45501997791871 20.563555081083905,79.85369226815237 19.09348101686919,79.24253229568421 11.743110695970245,78.22392839513486 15.40388336556498,78.53734550534864 18.747581237053964,79.10149512674252 20.750917461817153,80.13576550265134 20.00146793888416,79.60296018657391 19.814105558092706,79.6969847521832 18.531393874727655,79.13283672802208" stroke="yellow" stroke-linecap="round" stroke-linejoin="round" stroke-width="0.5"><title>2025-02-12 10.1km</title><desc>1739334019000</desc></polyline><polyline fill="none" points="72.95217657880858,83.58050985132286 74.2470876762527,84.02848897858348 79.0,84.06048745193402 74.4089515634696,84.09248592048243 72.20171673822915,83.10053117800271 67.8755364806857,82.81254345910565 66.93378295522416,84.620459963553 66.65419987740461,84.66845753947564 60.88595953397453,82.14057061325002 59.340895156317856,81.1486068550148 55.250153280212544,79.22866398375481 48.14285714284051,78.10868938165368 54.98528510116739,79.05266836166265 57.26609442057088,79.93264502960665 60.16492949111853,81.34060019809112 61.62170447577955,82.36456179548986 66.55119558545994,84.58846157367225 66.94849785405677,84.4444687600917 67.55180870631011,83.00453531464154 67.91968117718352,82.79654413010576 70.56836296746042,83.08453187045234 71.89270386262797,83.00453531464154 74.26180257508531,83.98049125963007 78.80870631511789,84.04448821583355 72.58430410787696,83.59650912194047 72.65787860209821,84.04448821583355 72.52544451254653,83.51651275686163 71.99570815451443,83.27652348276752 67.91968117718352,82.86054143907677 67.62538320053136,83.02053462814365 66.8160637645633,84.74845347550581 61.268546903680544,82.36456179548986 60.253218884114176,81.54859279269294 58.38442673208192,80.65262325767253" stroke="#4DD2FF" stroke-linecap="round" stroke-linejoin="round" stroke-width="0.5"><title>2025-02-10 6.3km</title><desc>1739162078000</desc></polyline><polyline fill="none" points="84.79195790464291,80.18416733530466 86.65797533967998,80.23947446333477 95.07201759208692,81.47466377829551 97.65051441139076,81.36405006030691 97.87104374461342,82.21208730510261 98.83798005181598,82.26739398129575 99.97455430764239,82.69141142285662 100.75488887139363,81.56684183895413 107.7100447654957,81.43779254447145 108.08324825251475,82.08303834604158 108.52430691901827,82.1936517436261 108.81269143166719,82.02773162875383 109.10107594437432,81.25343629311828 110.42425194371026,81.16125811608799 115.42857142857974,81.78806904483645 110.72960025130305,81.14282247655501 109.05018455983372,81.23500066043925 108.72787245735526,82.02773162875383 108.43948794464814,82.17521618075261 107.7100447654957,81.41935692545667 100.83970784576377,81.52997061879432 100.34775779466145,81.86181140302506 100.00848189747194,82.70984694737126 97.95586271886714,82.23052286524035 97.95586271886714,81.5115350066626 97.73533338570269,81.32717881006829 95.24165554065257,81.45622816206014 87.35349092900287,80.2947815789812 84.57142857142026,80.16573162321583 86.98028744204203,80.25791016989388 94.69881410506787,81.41935692545667 97.61658682161942,81.32717881006829 97.85407994966954,82.1936517436261 99.99151810252806,82.69141142285662 100.50043194845784,81.7327622618468 100.94149061484495,81.52997061879432 107.64218958612764,81.41935692545667 108.11717584228609,82.10147391571081 108.4564517395338,82.17521618075261 108.81269143166719,81.95398931989621 108.94840179063613,81.34561443587882 109.37249666219577,81.1796937542531 115.07233173638815,81.7327622618468 110.96709337935317,81.14282247655501 109.3046414827113,81.14282247655501 108.84661902143853,81.38248568342533 108.5582345087314,82.17521618075261 108.21895861148369,82.10147391571081 107.69308097066823,81.38248568342533 100.7718526662793,81.5115350066626 100.36472158948891,81.82494022665196 100.02544569224119,82.69141142285662 97.93889892403968,82.21208730510261 97.73533338570269,81.25343629311828 94.97023482288932,81.36405006030691 86.45440980128478,80.14729590977367 84.96159585332498,80.20260304601106 86.48833739099791,80.18416733530466 95.7336055917549,81.4930993931921 97.70140579587314,81.32717881006829 97.88800753944088,82.21208730510261 99.21118353877682,82.37800729674927 97.95586271886714,82.1936517436261 97.61658682161942,81.27187192440033 95.05505379720125,81.38248568342533 87.23474436503602,80.23947446333477 85.1481975967763,80.20260304601106 87.38741851883242,80.2947815789812" stroke="#4DD2FF" stroke-linecap="round" stroke-linejoin="round" stroke-width="0.5"><title>2025-01-25 9.9km</title><desc>1737761473000</desc></polyline><polyline fill="none" points="121.41142857138766,79.9195225485164 131.47428571427008,81.37268526187108 134.3885714285425,81.24227356730262 134.37142857140861,82.43460653677175 135.50285714288475,82.49049700566684 136.47999999998137,82.93762030861399 137.3028571428731,81.72665951962699 144.31428571423749,81.55898756504757 144.96571428567404,82.37871605542023 145.39428571425378,82.2483048838476 145.51428571430733,81.55898756504757 145.78857142850757,81.35405502394133 151.8571428571595,81.93159175637993 147.12571428570664,81.29816430184292 145.63428571424447,81.42857596733666 145.17142857145518,82.3600858922 144.79428571427707,82.2483048838476 144.64000000001397,81.68939909496112 144.31428571423749,81.54035734095669 137.33714285708265,81.67076888056181 136.9942857142305,81.85707096237456 136.58285714284284,82.90036006379523 134.49142857134575,82.39734621722891 134.33714285714086,81.46583643078338 131.95428571425145,81.63350844757224 122.6114285713993,80.27349885678268 121.0,80.29212917493714 123.09142857143888,80.34802012116415 131.42285714281024,81.5962480090966 134.09714285715017,81.44720619975124 134.32000000000698,81.65213866478007 134.32000000000698,82.3041953942593 136.47999999998137,82.90036006379523 137.28571428568102,81.68939909496112 144.2971428571036,81.54035734095669 144.72571428568335,82.2483048838476 145.11999999999534,82.3600858922 145.8571428571595,81.33542478464369 150.82857142854482,81.72665951962699 145.9942857142887,81.27953405839799 145.51428571430733,81.42857596733666 145.42857142857974,82.15515400553704 145.11999999999534,82.32282556161226 144.2971428571036,81.48446666038944 137.37142857140861,81.67076888056181 136.9257142857532,81.95022195141064 136.5314285714412,82.86309981344675 134.4742857143283,82.3600858922 134.21714285714552,81.40994573359785 131.9371428571758,81.61487822899653 122.78285714285448,80.25486853721668 121.37714285717811,80.31075949170918 122.95428571425145,80.27349885678268 125.1485714285518,80.62747466555447" stroke="#4DD2FF" stroke-linecap="round" stroke-linejoin="round" stroke-width="0.5"><title>2025-01-19 8.1km</title><desc>1737283232000</desc></polyline><polyline fill="none" points="161.50730633211788,78.62353779278055 164.08714218990644,78.9839665429754 165.18249149259645,79.54811465121747 165.98959097883198,79.5637854104134 169.82331353833433,81.5696329469065 170.29892573563848,82.00840954572777 174.98298525385326,84.0142337703146 176.03509708412457,84.67239067645278 176.32334690063726,84.50001644765143 176.94308400613954,83.04266505004489 177.3466337491991,82.80760742741404 181.13711883634096,82.99565354651713 183.55841729498934,83.8575294415059 188.28571428568102,83.98289291388937 183.4575298591517,83.8575294415059 181.26683125371346,82.96431253835908 177.40428371255985,82.77626639121445 176.95749649690697,82.94864203252655 176.30893440975342,84.50001644765143 176.10715953819454,84.59403877178556 170.90425035031512,82.41584413932287 165.81664108892437,79.5951269252837 165.4130913458066,79.62646843548282 164.2024421164533,79.09366212700843 160.8875692266738,78.78024602093501 157.42857142857974,78.1220706779859 164.41862947889604,79.14067450260336 165.88870354305254,79.57945616841607 171.16367518511834,82.46285577242088 174.96857276302762,84.02990419679554 175.90538466669386,84.70373143011238 176.294521918986,84.57836838735966 176.9286715152557,83.13668802555185 177.40428371255985,82.88595999748213 181.3677186894929,83.0740060465323 183.60165476746624,83.8888703166158 188.28571428568102,84.0142337703146 183.57282978575677,83.98289291388937 181.20918129041092,83.08967654305161 177.389871221676,82.88595999748213 176.98632147861645,83.0740060465323 176.30893440975342,84.62537953714491 175.7900847400888,84.6410499180638 170.03950090077706,82.00840954572777 165.94635350635508,79.67348069202853 165.42750383663224,79.70482219052792 164.30332955229096,79.17201608054165 157.48622139182407,78.16908327079727 164.57716687797802,79.15634529215458 165.3698538733297,79.6107976809435 165.8310535796918,79.5637854104134 171.1492626942927,82.47852631445858 176.12157202907838,84.73507217915903 177.04397144186078,83.0113240488572 178.58610796020366,83.0113240488572 177.23133382265223,82.99565354651713 176.30893440975342,84.65672029781854 175.8765596850426,84.59403877178556 169.99626342830015,82.00840954572777 165.90311603387818,79.65780994099623 165.48515379993478,79.68915144186758 164.33215453394223,79.15634529215458 161.1037565890001,78.78024602093501" stroke="yellow" stroke-linecap="round" stroke-linejoin="round" stroke-width="0.5"><title>2025-01-17 12.3km</title><desc>1737088953000</desc></polyline><polyline fill="none" points="14.834670946933329,112.76917074373341 15.036918138037436,112.4236048770399 15.91813804168487,113.00478350986668 20.020866773673333,113.82157239383378 22.332263242278714,115.01533507040585 23.227929373970255,115.72216504815151 30.306581059412565,118.9892594890116 30.58105938998051,118.8007746473304 31.18780096300179,117.3714257809479 31.563402889179997,117.12011069292203 35.59390048147179,117.3714257809479 37.80417335469974,118.18819774825533 42.556982343434356,118.2667333475838 37.90529695019359,118.18819774825533 35.420545746339485,117.3714257809479 31.678972712659743,117.1829394930246 31.245585874770768,117.34001141136105 30.566613162052818,118.91072415877716 30.37881219899282,118.97355242531921 25.105939004803076,116.71172303598723 20.064205457398202,113.86869473291154 18.40288924559718,113.44459330216341 11.714285714260768,112.5021426237654 18.272873194189742,113.3817633879953 19.645264847495127,113.86869473291154 20.035313001542818,113.82157239383378 25.683788121968973,116.93162418031716 29.12199036910897,118.28244046392501 30.147672552149743,118.94213829439832 30.537720706197433,118.84789587355044 31.158908507204615,117.355718596722 31.59229534509359,117.13581789469754 35.44943820219487,117.3714257809479 37.77528089878615,118.17249062485644 42.57142857136205,118.2353191113798 37.84751203848282,118.17249062485644 35.5794542535441,117.43425450613722 31.693418940587435,117.15152509535255 31.245585874770768,117.3714257809479 30.422150882775895,119.00496655153984 25.337078651587944,116.82167363681947 20.10754414118128,113.94723194125982 19.399678972666152,113.9158170614246 18.634028892440256,113.47600825221161 13.505617977527436,112.7377556883439" stroke="#4DD2FF" stroke-linecap="round" stroke-linejoin="round" stroke-width="0.5"><title>2025-01-15 9.1km</title><desc>1736916504000</desc></polyline><polyline fill="none" points="50.832967032969464,112.30445632622286 51.03436563437572,112.64857285592007 51.739260739297606,113.07089691683359 55.263736263732426,113.64963591679407 57.17702297703363,114.2752979058132 59.449950049922336,115.76123765681405 66.62837162829237,119.04590926189849 66.9448551448877,118.9677033922635 67.54905094904825,117.55999275807699 68.03816183813615,117.29409080070036 72.00859140855027,117.54435147577897 74.18081918073585,118.4046202711761 79.0,118.51410877410672 74.12327672331594,118.45154392228869 71.96543456538348,117.59127531912236 68.02377622370841,117.29409080070036 67.54905094904825,117.55999275807699 66.87292707286542,119.06155043232138 66.42697302694432,119.06155043232138 61.70849150844151,116.96562321200327 56.48651348653948,114.05631642174558 56.1844155844301,114.15016565717815 54.35744255746249,113.57142803703027 48.14285714284051,112.69549779350928 53.35044955043122,113.32116262610361 56.45774225774221,114.00939178830595 61.10429570428096,116.57458969826985 66.71468531462597,119.12411510235688 67.04555444553262,118.93642103626917 67.72167832171544,117.35665599742788 69.18901098897913,117.387938588814 67.76483516482404,117.41922117552895 66.82977022975683,119.10847393660515 61.34885114885401,116.87177523513674 56.57282717281487,114.08759950487001 54.889710289717186,113.60271119244862 50.3582417582511,112.97704719893227" stroke="#4DD2FF" stroke-linecap="round" stroke-linejoin="round" stroke-width="0.5"><title>2025-01-14 7.8km</title><desc>1736829619000</desc></polyline><polyline fill="none" points="88.79096345516155,113.11605686509574 88.54697674419731,112.77274162961112 89.12106312287506,112.83516262336343 93.94338870432694,114.38007629103959 96.91428571427241,115.846953469445 98.2346843854175,116.76764772765455 103.01395348837832,118.95232977336855 103.32970099663362,118.858701010191 103.97554817277705,117.39184492290951 104.39176079729805,117.14216626800771 108.28119601326762,117.39184492290951 110.14697674423223,118.15648395215976 111.48172757477732,118.32813722814899 115.42857142857974,118.32813722814899 110.4196677741129,118.2032984959369 108.29554817278404,117.39184492290951 104.4348172757891,117.12656134217104 104.01860465115169,117.29821546218591 103.34405315615004,118.858701010191 102.94219269102905,118.87430580696673 98.13421926903538,116.79885763159837 93.74245847179554,114.39568142146163 91.532225913601,113.47497673686303 84.57142857142026,112.49184692748531 91.61833887040848,113.50618713142467 93.74245847179554,114.30205062140885 97.58883720927406,116.47115340833261 102.97089700994547,118.90551539698208 103.31534883723361,118.81188661287888 103.88943521591136,117.40744982892647 104.30564784060698,117.14216626800771 108.41036544850795,117.40744982892647 110.56318936875323,118.21890334151976 115.2850498338812,118.34374206447683 110.46272425248753,118.17208880123508 108.30990033224225,117.36063510732492 104.29129568109056,117.12656134217104 103.94684385380242,117.32942528705462 103.27229235885898,118.90551539698208 102.72691029898124,118.858701010191 101.99495016608853,118.35934689961141 97.933289036504,116.73643781908322 92.82392026577145,113.84950116468826 91.28823920263676,113.4281611362967 84.62883720931131,112.4762416552112 92.85262458468787,113.83389599357906 97.96199335547863,116.64280806540046 102.03800664452137,118.32813722814899 102.9852491694619,118.93672498242813 103.31534883723361,118.84309621222201 103.94684385380242,117.31382037521689 104.34870431892341,117.12656134217104 108.20943521591835,117.32942528705462 110.20438538200688,118.12527425051667 111.40996677742805,118.25011302926578 110.14697674423223,118.12527425051667 108.16637873754371,117.32942528705462 104.37740863783984,117.07974655779253 103.97554817277705,117.26700563266058 103.32970099663362,118.78067700886459 102.81302325578872,118.79628181143198 101.47827242524363,118.06285483323154 97.96199335547863,116.70522790582618 92.80956810625503,113.84950116468826 90.82897009968292,113.350135112094" stroke="yellow" stroke-linecap="round" stroke-linejoin="round" stroke-width="0.5"><title>2025-01-10 13.0km</title><desc>1736482744000</desc></polyline><polyline fill="none" points="123.95594125502976,112.24161591223674 125.36902536719572,113.19798553914006 127.82029372494435,113.66832966278889 130.2283044058713,114.59333670571505 132.83818424568744,116.14545803207147 139.58638184249867,119.186955516343 139.90360480640084,118.93611202614557 140.03337783715688,117.55646748564322 140.2208277703612,117.32129990040266 144.76288384519285,117.61917879733664 147.14205607480835,118.49713519887882 151.78504672902636,118.60687949151907 146.94018691591918,118.45010191306937 144.76288384519285,117.63485662234598 140.30734312423738,117.30562205205206 140.01895861153025,117.63485662234598 139.90360480640084,118.99882292671828 139.58638184249867,119.186955516343 134.42429906543111,116.99206483953458 129.34873164223973,114.15435081941541 127.76261682243785,113.66832966278889 121.0,112.72764036417357 128.13751668896293,113.69968590031203 128.8440587450168,114.09163847519085 129.3343124165549,114.09163847519085 134.51081441924907,116.92935334093636 139.37009345798288,119.12424467178062 139.86034712952096,118.99882292671828 140.00453938590363,117.57214531535283 140.2640854472993,117.33697774756001 144.76288384519285,117.63485662234598 147.25740987987956,118.49713519887882 151.8571428571595,118.55984623024415 146.86809078778606,118.43442414877063 144.748464619508,117.57214531535283 140.3217623498058,117.33697774756001 140.07663551403675,117.4937561552506 140.06221628841013,118.60687949151907 139.68731642194325,119.17127780693409 134.32336448604474,116.94503121735761 129.37757009343477,114.1386727351346 127.66168224299327,113.66832966278889 121.0,112.68060578887525 126.04672897193814,113.32341074159194 129.2766355140484,114.06028229606454 134.020560747711,116.70986294880277 139.39893190923613,119.12424467178062 139.80267022707267,119.01450064891833 140.11989319097484,118.23061310699268 139.80267022707267,119.09288924255816 139.1682242990937,118.99882292671828 134.4098798398627,116.9607090925565 129.34873164223973,114.04460420475516 129.01708945259452,114.12299464961688 127.90680907876231,113.58993904851377 126.0755674233078,113.38612331474724" stroke="yellow" stroke-linecap="round" stroke-linejoin="round" stroke-width="0.5"><title>2025-01-08 12.0km</title><desc>1736310892000</desc></polyline><polyline fill="none" points="160.71769184537698,113.81638505739102 161.15047084755497,113.12622455586097 161.20817471452756,112.4517473342712 161.48226808256004,112.21646407415392 161.79963935090927,112.2792063025554 161.6553796834196,112.38900515728164 163.05469845724292,112.9223130656028 163.77599679428386,113.51836148201255 166.7333199760178,114.55359945753298 171.63814866764005,117.20441288615984 176.0524944900535,119.16505223438435 176.34101382485824,118.88272129345569 176.38429172511678,117.58085705722624 176.7882187938667,117.31420917225478 181.20256461633835,117.62791253130126 183.5107192947762,118.50627945001179 188.28571428573923,118.60038997400261 183.48186736128991,118.47490926604951 181.26026848325273,117.6592828414723 176.7305149268941,117.36126470589079 176.42756962531712,117.6749679948116 176.38429172511678,118.88272129345569 176.1390502905124,119.21210735441127 170.72931276302552,116.90639410671429 165.78120617114473,114.13009362829325 165.23301943496335,114.13009362829325 164.2232017632341,113.64384514412086 157.42857142857974,112.7811434566247 164.42516529757995,113.78501417455846" stroke="#4DD2FF" stroke-linecap="round" stroke-linejoin="round" stroke-width="0.5"><title>2025-01-06 5.2km</title><desc>1736137119000</desc></polyline><polyline fill="none" points="15.708411214931402,147.63264301241725 15.780507343064528,147.03687205794267 16.256341789092403,146.33135164083797 16.60240320424782,147.55425219374592 16.112149532709736,147.88349343597656 17.02056074765278,147.8364590043493 20.019759679562412,148.55765246751253 24.085981308366172,150.47037098620785 24.850200266984757,151.14452173032623 30.32950600795448,153.57458207134914 30.66114819754148,153.37077163686627 30.718825100106187,152.0538379175414 30.99279038712848,151.802992465251 35.73671562084928,152.132227060094 38.014953270961996,152.9945057008299 42.571428571420256,153.0728944930015 37.82750333775766,152.9631501758122 35.57810413883999,152.08519357809564 31.050467289693188,151.802992465251 30.776502002670895,152.03816008557624 30.675567423226312,153.37077163686627 30.387182910519186,153.6529706474539 25.210680907883216,151.52079097398382 20.97142857144354,149.12206301892002 18.837383177597076,148.25976851060113 11.714285714260768,147.14661946578417 16.559145527309738,147.74239010951715 19.990921228309162,148.51061818657035 24.345527369820047,150.9250310274947 29.37783711607335,153.11992775426188 30.15647530037677,153.66864835916203 30.646728971914854,153.32373843164532 30.776502002670895,151.9597709079826 30.978371161443647,151.75595890964905 34.179439252300654,152.132227060094 35.57810413883999,152.0538379175414 37.89959946589079,152.947472411528 42.55700934579363,153.025861221191 37.510280373797286,152.86908357267384 35.49158878508024,152.08519357809564 31.09372496663127,151.75595890964905 30.776502002670895,151.9911265825358 30.733244325674605,153.276705215947 30.416021361772437,153.59025978892168 25.28277703601634,151.50511310229194 21.00026702263858,149.02799469878664 19.226702269690577,148.3538371741597 11.90173564752331,147.22501043631928" stroke="#4DD2FF" stroke-linecap="round" stroke-linejoin="round" stroke-width="0.5"><title>2025-01-03 9.5km</title><desc>1735878536000</desc></polyline><polyline fill="none" points="51.22134493145859,147.0063588594785 53.02796922047855,147.50923487484397 55.094747407129034,147.69781307148514 56.09200401476119,148.20068743826414 56.467781866842415,148.15354301730986 60.760321177658625,150.52646578938584 66.52706590830348,153.18222187079664 66.96065573772648,153.1036496856541 67.55322850449011,151.67363080236828 67.9868183339131,151.42219790874515 71.86022080964176,151.65791625528072 74.15824690536829,152.522214605895 78.99999999994179,152.6636449079233 74.51957176311407,152.53792908859032 72.03365674131783,151.73648897896055 68.01572432252578,151.50077072015847 67.55322850449011,151.75220352018368 66.78721980599221,153.2450795978366 61.17945801274618,150.88790201455413 56.45332887250697,148.2478318486974 56.077551020425744,148.27926144975936 54.92131147545297,147.7292427545326 53.28812311810907,147.65066853811732 48.14285714284051,146.7549204021634 55.03693542990368,147.71352791356912 57.07480762794148,148.67213106823328 55.16701237874804,147.7606724328798 50.93228504515719,147.1163630902738" stroke="#4DD2FF" stroke-linecap="round" stroke-linejoin="round" stroke-width="0.5"><title>2025-01-02 5.6km</title><desc>1735817809000</desc></polyline><polyline fill="none" points="88.1329773030593,147.13093990024936 91.56475300400052,147.69535322708543 92.57409879838815,148.22840886792983 93.5401869158959,148.40086775674718 98.78878504678141,151.28561366915528 103.21548731642542,153.19830383110093 103.59038718283409,152.80636054188653 104.00854472623905,151.75594892726804 104.51321762352018,151.50510358707106 108.21895861148369,151.63052629455342 110.92977303068619,152.61822750381543 115.42857142857974,152.64958302181913 113.66942590114195,152.75932729811757 110.67022696923232,152.57119421799143 108.42082777037285,151.69323762027489 104.5276368491468,151.47374789853347 104.08064085448859,151.64620412775548 103.41735647531459,153.13559295385494 103.17222963954555,153.24533697671723 96.10680907877395,150.14112681659753 92.86248331103707,148.22840886792983 92.40106809081044,148.25976504007122 91.40614152204944,147.75806572551664 84.57142857142026,146.7389853103523 90.8870493991999,147.61696257778385 92.51642189588165,148.19705269114638 92.86248331103707,148.1029841327545 97.49105473968666,150.70553206972545 103.17222963954555,153.26101468963316 104.12389853136847,151.59917062471504 104.51321762352018,151.44239220533927 105.60907877166755,151.58349278800597 104.09506008005701,151.56781495016185 103.41735647531459,153.10423750824702 103.15781041386072,153.18262611352839 97.92363150871824,150.97205624639173 93.07877169555286,148.27544312435202 92.42990654206369,148.22840886792983 91.2763684912934,147.71103135345038 90.03631508676335,147.75806572551664 85.00400534045184,146.78601989970775 88.17623497999739,147.3817904546304" stroke="#4DD2FF" stroke-linecap="round" stroke-linejoin="round" stroke-width="0.5"><title>2024-12-31 8.0km</title><desc>1735619151000</desc></polyline><polyline fill="none" points="125.29692923900438,147.35043434910767 126.3495327103301,147.38179064968426 129.36315086786635,148.0873061780876 131.12229639524594,149.02798986976268 131.62696929241065,149.54536410771834 139.70173564756988,153.19830359282787 140.46595460618846,151.70891532146197 140.89853137522005,151.47374778875383 144.89265687589068,151.69323749410978 146.88251001335448,152.49280519923195 151.84272363153286,152.6182273087179 147.06995994667523,152.57119402644457 144.86381842457922,151.70891532146197 140.91295060090488,151.47374778875383 140.4947930574417,151.66188183591294 139.62963951943675,153.26101444668893 134.75594125501812,151.1758685366949 130.34365821100073,148.7457852037769 127.77703604806447,147.7267096479918 121.0,146.73898555329652 126.45046728971647,147.4445032368676 129.31989319098648,148.1029842740827 134.75594125501812,151.05044556762732 139.4998664886807,153.24533673496626 139.86034712952096,153.104237276988 140.46595460618846,151.69323749410978 140.95620827772655,151.42671425067238 144.80614152207272,151.66188183591294 147.14205607480835,152.5241607336211 151.8571428571595,152.53983849904034 147.31508678244427,152.5555162633391 144.7917222963879,151.69323749410978 140.8841121495352,151.44239209782972 140.46595460618846,151.66188183591294 139.8315086782677,153.08855955358013 139.6008010681253,153.19830359282787 134.38104138855124,151.00341193492932 129.43524699605769,148.2284089998866 127.27236315089976,147.69535339878348 121.23070761014242,146.81737652383163 127.58958611486014,147.67967527241854 128.91615487320814,148.21273091326293 129.47850467293756,148.15001855502487 134.06381842459086,150.68985411505855 129.40640854474623,148.18137473647948 125.05180240323534,147.3661124999635" stroke="yellow" stroke-linecap="round" stroke-linejoin="round" stroke-width="0.5"><title>2024-12-30 10.8km</title><desc>1735533491000</desc></polyline><polyline fill="none" points="161.7606609808281,147.2927817528107 164.58155650325352,147.76224843872478 165.37313432840165,148.2160652376333 165.77611940301722,148.16911871770571 166.5964818763896,148.51339295350772 170.1226012793486,150.5164318603638 175.85074626863934,153.14539143860748 176.26812366739614,153.1610399090132 176.8726012792904,151.67443001485663 177.34754797449568,151.4084039766458 181.13272921106545,151.65878143369628 183.39232409378747,152.53510018327506 188.28571428573923,152.61334275102126 183.57942430709954,152.53510018327506 181.27665245207027,151.69007859488192 177.2899786780472,151.43970117511344 176.90138592751464,151.67443001485663 176.39765458425973,152.94196121716232 176.00906183366897,153.2236337790091 170.6263326226035,150.95459407499584 166.79797441366827,148.76377386153035 164.61034115141956,147.87179051445855 157.42857142857974,146.74506929298514 164.36567164183361,147.74659956610412 167.12899786781054,148.76377386153035 170.03624733479228,150.5164318603638 175.9658848613617,153.25493070701486 176.2537313432549,153.17668837824021 176.91577825159766,151.69007859488192 177.31876332621323,151.50229555800615 181.24786780384602,151.7213757513673 183.4067164179287,152.55074869914097 188.24253731343197,152.59769423976832 186.7745202559163,152.7228822968318 183.4786780383438,152.55074869914097 181.233475479763,151.65878143369628 177.33315565035446,151.43970117511344 176.93017057573888,151.6118356832303 176.26812366739614,153.1297429670085 175.83635394455632,153.1923368463613 171.1732409381657,151.1580262211064 169.64765458420152,150.21910697990097 164.58155650325352,147.8091950496164 158.16257995733758,146.9015587129834" stroke="#4DD2FF" stroke-linecap="round" stroke-linejoin="round" stroke-width="0.5"><title>2024-12-27 9.1km</title><desc>1735273142000</desc></polyline><polyline fill="none" points="36.5297730306047,186.1435690351791 35.405073431145865,185.83001257014985 34.208277703495696,185.97111303723068 31.396528704848606,185.70458985338337 30.40160213614581,187.49185651130392 25.167423230886925,185.359676996668 19.97650200256612,182.50628531746042 19.55834445921937,182.55331955986912 18.433644859760534,182.0516204322339 11.714285714260768,180.98550581435848 16.41495327098528,181.73805787005404 16.876368491270114,181.6596671564912 20.178371161513496,182.49060723431467 23.855273698165547,184.34061298127926 24.403204272326548,184.84230665171344 30.084379172185436,187.444823372658 30.502536715532187,187.41346794106357 31.07930574088823,185.97111303723068 31.540720961231273,185.68891200849612 35.520427236217074,185.93975738609151 37.95727636839729,186.8490693733329 42.57142857136205,186.9744914080802 37.48144192248583,186.7550027982361 35.69345794385299,185.9867908610613 31.52630173554644,185.70458985338337 31.223497997270897,185.7986568979686 30.57463284378173,187.46050108667987 30.286248331016395,187.58592275706178 29.04619492654456,186.8490693733329 24.99439252325101,185.2499318782793 20.25046728970483,182.47492915003386 16.991722296341322,181.73805787005404 13.574365821026731,181.28339132489054" stroke="#4DD2FF" stroke-linecap="round" stroke-linejoin="round" stroke-width="0.5"><title>2024-12-25 6.6km</title><desc>1735101299000</desc></polyline><polyline fill="none" points="51.34691968461266,181.25704167709046 51.23145797132747,181.53951275268628 51.41908325534314,181.4767414352973 51.69330482423538,181.0216488246515 52.5737003874965,181.6336696937069 53.5551249498385,181.68074814841384 56.57156220765319,182.44969475269318 61.911666443920694,185.3685277390614 66.8187892556889,187.48701022047317 67.02084725379245,187.4713178359816 67.62702124816133,185.98053597768012 68.07443538692314,185.74514840403572 71.94240277959034,185.9648434809351 74.43926232797094,186.90639121536515 79.0,186.9848533366312 74.22277161566308,186.85931392860948 71.79807563812938,185.94915098306956 67.94454095955007,185.760840917108 67.62702124816133,185.91776598374418 66.97754911129596,187.392855895916 66.71776025654981,187.43993306346238 61.392088734486606,185.24298736773198 57.39422691432992,182.92047700239345 55.128290792461485,182.01029703686072 48.14285714284051,181.03734168969095 50.50982226373162,181.3982772622403 51.635573967651,181.36689158482477 55.604570359457284,182.15153211692814 57.408659628476016,182.8577060965763 62.3590805826243,185.5882232087897 66.58786582923494,187.4713178359816 67.03527996793855,187.4242406754638 67.7569156755344,185.8236109577847 69.2290525190183,185.8236109577847 67.80021381797269,185.77653342904523 66.96311639714986,187.54977974676876 61.767339302401524,185.3999128201831 58.9673927568947,183.75218973870506 55.272617933980655,182.12014655175153 48.1861552852788,181.0530345535226 54.118000801769085,181.90044746467902" stroke="#4DD2FF" stroke-linecap="round" stroke-linejoin="round" stroke-width="0.5"><title>2024-12-18 8.3km</title><desc>1734495982000</desc></polyline><polyline fill="none" points="87.82409381668549,179.9744743022311 87.29157782514812,180.09966715346673 87.478678038402,179.94317607772246 87.29157782514812,180.0683689476573 87.17643923236756,179.89622873225017 87.23400852881605,180.0527198429918 88.3997867803555,180.86647173912206 90.94722814497072,181.99319992848905 91.55170575698139,182.9477843591303 92.22814498929074,183.47984592923603 92.97654584224802,183.5893878498755 98.25852878461592,186.43745773467526 103.03678038384533,188.58130904119753 103.3821961620124,188.59695751042455 104.05863539449638,187.09469914704096 104.47601279319497,186.85997030728322 108.47707889124285,187.11034772706626 110.99573560775025,187.98666634605615 115.42857142857974,188.06490890210262 110.60714285715949,187.98666634605615 108.47707889124285,187.1259963058692 104.40405117277987,186.8756189047417 103.98667377402307,187.11034772706626 103.26705756929005,188.65955137573474 96.2004264392308,185.70197085873224 95.7110874200007,185.21686108420545 93.94083155656699,184.21534058619 91.81076759065036,183.3703039514512 84.57142857142026,182.19663631847652 91.45095948828384,183.10427319612063 92.65991471218877,183.63633436980308 92.91897654585773,183.55809016407875 98.31609808106441,186.5000522434857 102.02931769721908,187.9710178313253 103.05117270792834,188.59695751042455 103.4397654584609,188.50306667745463 104.15938166307751,187.000807642602 105.65618336887565,186.9538618746883 104.24573560763383,187.047753400082 103.49733475479297,188.67519983918464 102.84968017053325,188.62825444544433 97.97068230278092,186.5313494909351 96.63219616207061,185.6550248004787 91.76759061834309,183.29205964662833 84.68656716414262,182.3061789083731 91.55170575698139,183.13557094952557" stroke="#4DD2FF" stroke-linecap="round" stroke-linejoin="round" stroke-width="0.5"><title>2024-12-17 8.6km</title><desc>1734409492000</desc></polyline><polyline fill="none" points="124.80489757790929,181.44933765468886 127.88917061453685,181.93513299914775 129.01334489893634,182.46793950611027 129.38806966040283,182.3582441591425 134.735103756655,185.30432789964834 139.5921131647774,187.4041709111334 139.85153799958061,187.37283012477565 140.5145125775598,185.82145536289318 140.87482484825887,185.61773863520648 145.05444718757644,185.91547840140993 147.14425835729344,186.71467253222363 151.8571428571595,186.79302473457938 151.39594315073919,186.94972905168834 147.1298458664096,186.79302473457938 144.6653099352843,185.88413739325188 140.96129979321267,185.72743228230684 140.39921265101293,186.07218337227823 139.77947554551065,187.4041709111334 139.53446320147486,187.4825228566624 135.16747848130763,185.63340915969457 129.30159471544903,182.49928102330887 128.5377327017486,182.40525645769958 127.73063321551308,181.93513299914775 121.0,181.0105537984782 127.83152065129252,181.9194621991046 128.79715753649361,182.4365979842696 129.35924467875157,182.38958569268289 134.6918662841199,185.28865735064028 139.49122572899796,187.38850051854388 139.89477547205752,187.3571597297996 140.3848001601291,186.025171893285 140.87482484825887,185.64907968306215 145.09768466011155,185.91547840140993 147.10102088481653,186.71467253222363 151.77066791220568,186.8400360419182 147.36044571961975,186.79302473457938 144.83825982519193,185.88413739325188 140.86041235743323,185.69609124610724 140.50010008673416,185.86846688741934 139.75065056385938,187.4825228566624 134.59097884834046,185.36701008411183 129.31600720627466,182.49928102330887 128.0332955227932,182.04482856680988 121.17294988990761,181.0418955328787 127.80269566958304,181.93513299914775 128.81157002737746,182.4365979842696 129.43130713287974,182.45226874576474 135.29719089879654,185.57072705462633 139.49122572899796,187.43551169283455 139.89477547205752,187.37283012477565 140.3848001601291,185.77444382786052 142.0566490959609,185.80578485237493 140.52892506844364,185.83712587220361 139.8083005271037,187.5608747729566 134.54774137586355,185.35133953976037 129.373657169519,182.4836102653062 128.9124574631569,182.49928102330887 127.77387068793178,181.95080379802675 121.17294988990761,181.1045789875934 127.67298325215233,181.9194621991046" stroke="yellow" stroke-linecap="round" stroke-linejoin="round" stroke-width="0.5"><title>2024-12-15 13.0km</title><desc>1734235831000</desc></polyline><polyline fill="none" points="160.47974413644988,181.1325014763861 160.47974413644988,181.30463975500606 161.77505330491113,181.69586259081552 163.516524520237,182.05578695615986 164.4232409381657,181.99319145864865 165.30117270787014,182.49395491625182 165.80490405112505,182.50960375506838 171.76332622603513,185.6862938931008 176.03784648195142,187.50152383072418 176.3113006396452,187.48587536379637 176.88699360343162,186.09315713960677 177.31876332627144,185.81148266825767 181.2910447762115,186.01491426881694 183.57942430709954,186.89123275721795 188.28571428573923,186.98512380702596 183.49307036254322,186.89123275721795 181.40618336893385,186.03056284527702 177.24680170585634,185.74888829000702 176.84381663112435,185.9366713688505 176.15298507467378,187.5328207610146 171.13006396591663,185.48286197432026 166.45255863538478,182.86952672594634 164.32249466952635,182.0401380835392 157.42857142857974,181.03860781042022 161.08422174834413,181.41418222249195 164.32249466952635,181.94624482330983 165.776119402959,182.41571070472128 170.1945628997637,184.82561904408794 174.6130063966266,186.76604462556134 175.70682302775094,187.45457842646283 176.29690831562039,187.39198453781137 176.82942430704134,186.09315713960677 177.27558635402238,185.7801854815043 181.21908315567998,185.95231995113136 183.36353944573784,186.8442872165906 185.00426439236617,186.85993573132146 183.24840085289907,186.79734166547132 181.19029850745574,185.98361711233156 177.433901919052,185.74888829000702 176.84381663112435,185.9210227853473 176.12420042650774,187.47022689568985 170.85660980810644,185.3263757488894 165.80490405112505,182.54090142917994 164.2937100213021,182.0401380835392 162.01972281449707,181.75845817690424" stroke="#4DD2FF" stroke-linecap="round" stroke-linejoin="round" stroke-width="0.5"><title>2024-12-13 8.5km</title><desc>1734064159000</desc></polyline><polyline fill="none" points="15.052162763953675,215.76628869494016 18.229705108271446,216.22589452234388 20.416087455232628,216.9073771971889 24.963762736995704,219.47480394698505 30.050745664339047,221.72523894747428 30.45887036906788,221.74108699685894 31.114785073208623,220.23551703320118 31.522909777937457,220.029490840956 35.53127741412027,220.23551703320118 37.54274917335715,221.05961980692518 42.571428571420256,221.15470838309557 38.02375328965718,221.1230121957342 35.38551859097788,220.2196688716358 31.42087860184256,220.01364266403834 30.998178014648147,220.15627621366002 30.51717389834812,221.51921419793507 30.167352722899523,221.83617526841408 29.132465078611858,221.2497969167307 24.94918685464654,219.61743785787257 20.722180983866565,217.1926483662828 18.477495107625145,216.4160759535589 20.7076051015174,217.12925480621925 23.389567447185982,218.7457846867328 29.161616843251977,221.23394883071887 30.007018017407972,221.78863113795524 30.429718604427762,221.69354284513975 31.085633308568504,219.96609812628594 30.40056683984585,221.6459986827831 30.03616978204809,221.74108699685894 25.109521560079884,219.64913426950807 19.862203927419614,216.70134778156353 19.35204804642126,216.71719620522344 18.069370402838103,216.1941976006201 11.714285714260768,215.30668187442643" stroke="#4DD2FF" stroke-linecap="round" stroke-linejoin="round" stroke-width="0.5"><title>2024-12-11 6.6km</title><desc>1733890893000</desc></polyline><polyline fill="none" points="51.884430176520254,215.91690202437167 55.19261637242744,216.2938818744151 55.91492776881205,216.71798339993984 56.507223113963846,216.70227595124743 61.93900481541641,219.7023774177651 66.79293739964487,221.80713516489777 67.58747993584257,220.17359366414894 68.00642054574564,219.9851072919846 72.15248796145897,220.23642241748166 74.27608346706256,221.06890163097705 78.95666131627513,221.17885147004563 74.44943820231128,221.06890163097705 72.19582664530026,220.3149583327322 67.7030497592059,220.1264720869076 66.90850722306641,221.85425636655418 61.837881219922565,219.73379186696548 60.378812199051026,218.74423446893343 56.46388443018077,216.79652062586683 56.14606741577154,216.87505782252993 54.903691813815385,216.37241925831768 48.287319422117434,215.42996872034564 53.77688603528077,216.05826954713848 56.46388443018077,216.68656850139087 60.24879614764359,218.55574681889266 61.82343499199487,219.60813404210785 66.67736757628154,221.77572102463455 66.98073836276308,221.66577149680234 67.61637239163974,220.26783678706852 68.00642054574564,219.9851072919846 70.53451043338282,220.23642241748166 71.82022471912205,220.1264720869076 74.34831460675923,221.08460875437595 79.0,221.1631443537044 74.10272873193026,221.05319450642855 72.1235955056618,220.26783678706852 67.97752808989026,220.00081449613208 67.61637239163974,220.14217928051949 67.1107544140541,221.55582191163558 66.83627608348615,221.79142809537007 62.32905296952231,219.90657125384314 59.627608346694615,218.28872235957533 56.434991974325385,216.71798339993984 54.1235955056618,216.13680701881822 48.14285714284051,215.28860077630088 55.52487961476436,216.35671178389748 66.44622792938026,221.69718565345102 66.98073836276308,221.60294316940417 67.61637239163974,219.96940008668753 67.00963081861846,221.66577149680234 66.70626003207872,221.72859980545763 61.99678972712718,219.73379186696548 56.47833065816667,216.6708610503556 51.436597110761795,215.8226569565304" stroke="yellow" stroke-linecap="round" stroke-linejoin="round" stroke-width="0.5"><title>2024-12-09 12.1km</title><desc>1733738831000</desc></polyline><polyline fill="none" points="97.41160630132072,219.16436274653825 103.2136798168649,221.7889546990191 103.88259054790251,220.27112234676315 104.40608590270858,219.9865275722259 108.15780261199689,220.14463582741155 110.44082402042113,221.04585063282866 115.42857142852154,221.21976883898606 110.920694762317,221.12490438057284 108.40500875178259,220.25531153594784 104.449710515677,220.04977088845044 103.95529823610559,220.2078790965461 103.24276289215777,221.82057609096228 98.64763700007461,219.90747340051166 92.80193887167843,216.7452823826461 92.27844351687236,216.76109345495934 91.60953278577654,216.3183829853515 87.46519456041278,215.76499359957234 86.94169920560671,215.51201511399995 86.694493065821,215.7175601564959 84.8768008617335,215.43295927539293 89.18109600106254,215.8756715921627 92.80193887167843,216.6820380816789 96.61182173155248,218.5635479750781 97.68789551634109,219.35409337362216 102.99555675237207,221.7889546990191 103.3445536554791,221.64665837713983 103.95529823610559,220.17625746435078 104.28975360171171,219.92328423721483 105.58395045099314,220.14463582741155 108.37592567654792,220.16044664646324 110.70257169782417,221.06166138475237 115.32678066508379,221.15652587141085 110.58623939676909,221.01422912550333 108.37592567654792,220.19206828101596 104.39154436509125,220.01814923273923 103.79534132219851,220.52409515927138 103.22822135448223,221.82057609096228 97.81876935507171,219.48058036410657 92.78739733400289,216.7452823826461 92.45294196845498,216.80852666476858 90.57708361378172,216.19189411011757 84.57142857142026,215.3222810518928 90.85337282891851,216.19189411011757 92.32206812972436,216.72947130918328 92.8746465598233,216.71366023454175 94.75050491449656,217.74137763673207" stroke="#4DD2FF" stroke-linecap="round" stroke-linejoin="round" stroke-width="0.5"><title>2024-12-06 9.2km</title><desc>1733479157000</desc></polyline><polyline fill="none" points="124.13043478259351,215.78729878737067 128.0542977359146,216.25786273063568 128.8910038068425,216.77548185337218 129.352634742565,216.68136938023963 134.73352033662377,219.69294765315135 139.43638549390016,221.77906776424788 139.9124423963367,221.63790239371883 140.41735123220133,220.28898407972883 140.9655379683827,220.06939190834237 144.86054898815928,220.25761378352763 147.05329593265196,221.08892505295807 151.8571428571595,221.24577586779196 147.11099979968276,221.08892505295807 144.831697054673,220.30466922603955 140.89340813463787,220.05370674445294 140.38849929871503,220.3674097996991 139.6672009617323,221.8104378337448 134.3440192346461,219.55178088393586 133.1322380285128,218.72046354525082 129.36706070922082,216.80685266839282 128.94870767381508,216.83822347872774 127.89561210176907,216.33628995224717 121.0,215.33241930911026 127.89561210176907,216.32060451024154 130.05950711283367,217.23035821365193 129.42476457625162,216.80685266839282 124.14486074930755,215.80298426913214" stroke="#4DD2FF" stroke-linecap="round" stroke-linejoin="round" stroke-width="0.5"><title>2024-12-03 5.6km</title><desc>1733220329000</desc></polyline><polyline fill="none" points="161.4565434565884,215.94367964444973 164.37682317680446,216.2565115945763 165.369430569408,216.83524947341357 166.63536463538185,216.99166484248417 168.00199800205883,217.8832302208466 169.87212787213502,218.5870949504024 171.0661338661448,219.50993624283 176.20179820182966,221.7622776202188 176.849150849157,220.3702083708049 177.36703296710039,220.02609994262457 181.29430569440592,220.24507809853822 183.71108891116455,221.13662966125412 187.09170829178765,221.10534721436852 188.28571428573923,221.19919454107003 187.92607392615173,221.29304182578926 183.56723276723642,221.16791210346855 181.29430569440592,220.3076432440139 177.35264735267265,220.08866515332193 176.92107892112108,220.292001959373 176.2593406594242,221.77791879529832 175.94285714288708,221.80920114199398 170.6201798202237,219.52557758573676 167.74305694305804,217.8832302208466 164.24735264736228,216.3190779286524 157.42857142857974,215.36493930775032 164.49190809199354,216.28779476393538 166.53466533473693,217.2262876775494 164.218581418565,216.3660026669968 157.4573426573188,215.33365600086108 161.6291708291974,215.9123964237806" stroke="#4DD2FF" stroke-linecap="round" stroke-linejoin="round" stroke-width="0.5"><title>2024-12-02 6.1km</title><desc>1733112856000</desc></polyline><polyline fill="none" points="11.714285714260768,248.60735706707055 12.628571428533178,248.98843643321015 14.731428571452852,251.80508975671546 14.548571428575087,251.6228367977019 14.94476190477144,251.6062683394557 15.462857142847497,250.97666601209494 17.352380952390376,251.25833043153398 18.05333333328599,251.72224752113107 19.455238095193636,252.0039109961799 20.96380952373147,252.94830945631838 22.792380952334497,253.6441794396087 23.752380952355452,254.48916149196157 29.238095238106325,256.99095227365615 29.679999999993015,256.99095227365615 30.3504761903896,255.45011757142493 30.792380952334497,255.2347312249767 35.013333333306946,255.45011757142493 37.619047618994955,256.3779332944541 42.571428571420256,256.42763759897207 37.649523809493985,256.41106949868845 35.02857142855646,255.48325391387334 30.838095238083042,255.2678675995412 30.38095238088863,255.46668574324576 29.558095238055103,257.1069286472193 24.316190476121847,254.90336720776395 20.765714285720605,252.89860437421885 17.21523809520295,251.27489891566802 12.902857142849825,250.76127533297404" stroke="#4DD2FF" stroke-linecap="round" stroke-linejoin="round" stroke-width="0.5"><title>2024-11-29 4.6km</title><desc>1732853630000</desc></polyline><polyline fill="none" points="50.756117566663306,251.8618781784753 50.5346548188827,251.99030296003912 51.4795625427505,252.00635605231219 50.66753246757435,251.9100374805421 51.40574162680423,251.97424986650003 51.31715652765706,252.1989930667478 52.498291182506364,250.67394532045 55.27395762130618,250.48130694252905 56.159808612428606,250.9629025644099 57.41476418316597,251.21975312258292 62.331237183883786,254.029036114458 67.26247436768608,256.1640666931198 68.00068352703238,254.60694121623237 68.44360902253538,254.39825344159908 72.63663704722421,254.60694121623237 74.7626794258249,255.4737959628983 79.0,255.52195445769757 74.85126452497207,255.4416902937228 72.32658920029644,254.55878251694958 68.38455228984822,254.33404177798366 68.03021189337596,254.54272961476818 67.26247436768608,256.14801391052606 62.03595352015691,254.029036114458 56.63226247439161,251.0110620673804 55.0082023240393,250.51341335079633 48.14285714284051,249.5502190211555 55.15584415587364,250.48130694252905 56.05645933019696,250.94684939434228 57.00136705400655,251.07527472126822 60.810526315821335,253.09796352367266 55.11155160632916,250.54551975429058 51.40574162680423,250.04786996243638" stroke="#4DD2FF" stroke-linecap="round" stroke-linejoin="round" stroke-width="0.5"><title>2024-11-28 6.3km</title><desc>1732767063000</desc></polyline><polyline fill="none" points="84.7785234899493,249.16993377698236 89.33461169706425,249.93928519982728 90.37008628959302,250.48345917735423 90.85330776608316,250.44592997529253 95.59923298179638,252.7727299297403 97.23873441992328,253.86106446535268 103.24448705656687,256.4880594866554 104.09012464049738,254.66793013713323 104.71140939602628,254.3301727285725 109.28475551289739,254.57410868017178 111.39022051775828,255.45602899577352 113.21955896448344,255.75625648380083 115.42857142857974,255.6999638570269 112.09779482259182,255.6436712177092 109.59539789072005,254.66793013713323 104.88398849475197,254.42399427643977 104.17641418980202,254.70545871011564 103.24448705656687,256.54435193729296 96.70373921381542,253.78600706209545 90.85330776608316,250.44592997529253 90.42186001921073,250.53975297001307 88.93767976993695,249.88299127295613 84.57142857142026,249.30128662534116" stroke="#4DD2FF" stroke-linecap="round" stroke-linejoin="round" stroke-width="0.5"><title>2024-11-25 4.0km</title><desc>1732507947000</desc></polyline><polyline fill="none" points="121.0,247.5794902277994 127.29030038986821,248.387305095006 128.99908277927898,249.38360761111835 129.94015134160873,249.27589936341974 131.6736986930482,249.8413673057512 133.4815409310395,251.13386213750346 136.89910570974462,252.61484011646826 139.54895666136872,254.4458590464492 145.54207750514615,256.7884726814809 147.54803944053128,258.0001634316577 148.06810364604462,257.78475203958806 149.18252694339026,255.17287869594293 151.8571428571595,255.11902543870383 149.28158679208718,255.25365856674034 147.84521898650564,258.1347954864905 139.94519605604,254.8497590322513 129.89062141708564,249.46438877581386 129.22196743881796,249.5990240102401 131.5994038064964,250.05678343205363 132.76335702824872,251.13386213750346 134.8188488879241,251.69932717288611 139.49942673696205,254.49971240395098 147.00321027298924,257.8386048996181 148.06810364604462,257.94631059566746 149.18252694339026,255.14595206838567 147.99380875949282,258.1347954864905 140.06902086676564,254.7959057269327" stroke="#4DD2FF" stroke-linecap="round" stroke-linejoin="round" stroke-width="0.5"><title>2024-11-20 4.0km</title><desc>1732095798000</desc></polyline><polyline fill="none" points="159.23116607236443,249.49850209601573 163.78681435401086,250.1577667481033 164.8847583642928,250.71012221956335 165.63857066986384,250.78139380033826 169.85008724674117,252.86607814216404 170.96441848116228,253.7213280000433 176.96214247780154,256.37614661914995 177.24072528642137,256.3405116650538 177.91260147182038,254.77256842702627 178.40421819285257,254.3983986351668 182.9598664744408,254.64784522814443 185.35240118351066,255.6099939353153 188.28571428568102,255.71689910827263 185.30323951138416,255.62781146747875 182.69767088990193,254.630027622974 178.50254153704736,254.41621625758125 177.81427812756738,254.87947397431708 177.1751763902139,256.4117815680074 171.07912904937984,253.89950466882146 166.39238297543488,251.2802942712442 163.75403990596533,250.2290384935477 157.42857142857974,249.30250414628244" stroke="#4DD2FF" stroke-linecap="round" stroke-linejoin="round" stroke-width="0.5"><title>2024-11-19 4.1km</title><desc>1731989484000</desc></polyline></svg>