<?xml version="1.0" encoding="utf-8" ?>
<svg baseProfile="full" height="300mm" version="1.1" viewBox="0,0,200,300" width="200mm" xmlns="http://www.w3.org/2000/svg" xmlns:ev="http://www.w3.org/2001/xml-events" xmlns:xlink="http://www.w3.org/1999/xlink"><defs /><rect fill="#222222" height="300" width="200" x="0" y="0" /><text fill="#FFFFFF" style="font-size:12px; font-family:Arial; font-weight:bold;" x="10" y="20">Over 4km Runs</text><text fill="#FFFFFF" style="font-size:4px; font-family:Arial" x="10" y="280">ATHLETE</text><text fill="#FFFFFF" style="font-size:9px; font-family:Arial" x="10" y="290">Fake David</text><text fill="#FFFFFF" style="font-size:4px; font-family:Arial" x="65" y="280">SPECIAL TRACKS</text><rect fill="yellow" height="2.6" width="2.6" x="65" y="283" /><text fill="#FFFFFF" style="font-size:3px; font-family:Arial" x="70" y="285.5">Over 10.0 km</text><rect fill="red" height="2.6" width="2.6" x="65" y="287" /><text fill="#FFFFFF" style="font-size:3px; font-family:Arial" x="70" y="289.5">Over 15.0 km</text><text fill="#FFFFFF" style="font-size:4px; font-family:Arial" x="120" y="280">STATISTICS</text><text fill="#FFFFFF" style="font-size:3px; font-family:Arial" x="120" y="285">Number: 38</text><text fill="#FFFFFF" style="font-size:3px; font-family:Arial" x="120" y="290">Weekly: 2.5</text><text fill="#FFFFFF" style="font-size:3px; font-family:Arial" x="141" y="285">Total: 306.8 km</text><text fill="#FFFFFF" style="font-size:3px; font-family:Arial" x="141" y="290">Avg: 8.1 km</text><text fill="#FFFFFF" style="font-size:3px; font-family:Arial" x="167" y="285">Min: 4.0 km</text><text fill="#FFFFFF" style="font-size:3px; font-family:Arial" x="167" y="290">Max: 13.0 km</text><polyline fill="none" points="13.586651053861715,42.421817670663586 17.646135831309948,42.944336540676886 18.303747072583064,43.32934949826449 18.847540983580984,43.343099946156144 22.337939110060688,45.06189786802861 23.969320843054447,46.14816989985411 27.737939110025764,47.81194125014008 28.016159250575583,47.55068889017275 28.332318501139525,46.189420610506204 30.02693208429264,46.39567402549437 32.60679156903643,46.340673137354315 33.959953161596786,46.91818164524739 35.24988290393958,47.13818441105832 38.5,47.12443424586672 37.804449648654554,47.26193585158035 34.415222482406534,47.151934575202176 32.44238875876181,46.436924680834636 28.433489461313002,46.24442154371354 28.19320843089372,46.423174463401665 27.940281030430924,47.68819017834903 27.53559718967881,47.78444101911737 23.374941451998893,45.90066544232832 18.847540983580984,43.45310349261854 17.216159250529017,42.985587967414176 13.991334894613829,42.80683171830606 11.5,42.18805874985992 12.992271662689745,42.27056193219323" stroke="#4DD2FF" stroke-linecap="round" stroke-linejoin="round" stroke-width="0.5"><title>2025-03-05 4.7km</title><desc>1741177738000</desc></polyline><polyline fill="none" points="50.2319884726312,42.3632351905253 54.4726224783808,42.87085468955047 55.665706051921006,43.20926693250658 60.4639769452624,45.83194129835465 63.95244956767419,47.28426684465376 64.743515850103,47.80597330094315 65.1325648415368,47.70727218975662 65.3270893371664,46.32545122914598 65.6123919308302,46.170348246683716 69.5028818443534,46.36775202046556 71.6426512968028,47.185565461433725 76.0,47.24196625816694 74.35302593652159,47.39706836245023 71.61671469733119,47.25606645469088 69.7233429394546,46.48055408448272 65.6253602305078,46.18444852308312 65.43083573482,46.36775202046556 65.2233429394546,47.74957267228456 64.9380403457908,47.86237391277973 59.7636887608096,45.66273759727483 55.613832852977794,43.293869898683624 55.341498559049796,43.39257331144472 54.096541786741,42.92725677207636 49.0,42.13762608722027" stroke="#4DD2FF" stroke-linecap="round" stroke-linejoin="round" stroke-width="0.5"><title>2025-03-03 4.6km</title><desc>1740978130000</desc></polyline><polyline fill="none" points="88.79518916393863,42.470175997848855 88.59341429243796,42.59358391602291 86.5,42.16851184946427 89.79145259223878,42.5113119797752 93.76389537600335,43.361453547520796 97.30756655771984,45.116572103404906 98.48038299864857,45.91185468871845 102.54110228869831,47.76293015736155 102.96987389074638,47.73550695292943 103.18425969174132,46.41918833577074 103.37342363380594,46.18608926619345 107.24497898179106,46.44661173633358 109.16184026160045,47.214465292636305 113.43694535264513,47.2693118526513 111.93624474544777,47.37900492364133 109.11139654368162,47.187042006480624 107.21975712286076,46.474035132778226 103.42386735166656,46.22722441756923 103.23470340960193,46.364341522421455 103.04553946753731,47.58467925559671 102.66721158334985,47.81777655395854 98.40471742179943,45.98041337142058 93.73867351707304,43.40258933024597 93.51167678658385,43.47114894763217 92.6793554413598,43.08721476120991 86.5,42.182223866926506 92.85590845398838,43.046078908009804 102.5158804297098,47.83148815053573 102.98248482018244,47.74921855563298 103.10859411489218,46.52888191344391 103.33559084543958,46.22722441756923 107.56025221856544,46.501458525133785 109.1996730499668,47.22817693416437 113.5,47.33787002970348 109.22489490895532,47.214465292636305 107.30803362914594,46.48774682948715 103.41125642228872,46.18608926619345 103.18425969174132,46.41918833577074 102.98248482018244,47.68066053185612 102.59154600655893,47.790353357675485 97.9381130313268,45.733601994259516 94.01611396542285,43.47114894763217 93.42340028024046,43.44372510374524 92.30102755723055,42.96380717403372 88.66907986922888,42.53873596260382 90.11933675856562,42.662143834808376 92.66674451192375,43.03236695489613 94.36921999062179,43.786522858732496 94.43227463803487,43.64940383336216 93.67561886971816,43.38887740368955" stroke="yellow" stroke-linecap="round" stroke-linejoin="round" stroke-width="0.5"><title>2025-02-28 10.0km</title><desc>1740736874000</desc></polyline><polyline fill="none" points="125.88723205967108,42.85911382646009 126.15144454798428,42.55815331508347 125.83690587140154,42.84543381391268 126.11369990679668,42.667593558100634 125.95013979502255,42.59919341384375 124.11323392362101,42.229832194556366 124.95619757688837,42.20247207469947 130.05172413791297,42.900153857975965 130.86952469713287,43.29687368964369 131.3602050326299,43.24215376380016 136.27958993479842,45.9097311674559 140.2176141659147,47.72913352608157 140.55731593666133,47.606016641904716 140.68313140730606,46.29276474106882 140.93476234859554,46.12860759305477 144.87278657971183,46.37484325999685 146.81034482759424,47.11354827968171 150.93709226470673,47.195626431770506 146.78518173348857,47.181946742290165 144.77213420323096,46.37484325999685 142.45712954335613,46.388523009605706 140.85927306616213,46.15596712793922 140.6579683131422,46.279084984300425 140.55731593666133,47.63337595661869 140.24277726002038,47.92064851519535 135.1975768872653,45.636135268592625 131.59925442683743,43.529433192437864 129.56104380241595,42.96855389008124 127.95060577819822,42.913833866419736 124.01258154702373,42.18879201321397 130.11463187326444,42.98223389346094 130.78145386767574,43.37895354778448 131.3602050326299,43.37895354778448 136.29217148182215,45.99180985763087 140.2931034482899,47.78385211476416 140.56989748368505,47.55129800019495 140.74603914259933,46.15596712793922 144.75955265609082,46.347483757766895 146.39515377447242,46.990430982768885 147.60298229265027,47.181946742290165 151.0,47.181946742290165 146.8732525628875,47.195626431770506 144.77213420323096,46.484281228200416 142.46971109043807,46.47060148573655 140.7712022367632,46.18332665869093 140.582479030767,47.48289967517485 140.20503261883277,47.83857068720681 135.68825722276233,45.86869180860231 131.25955265614903,43.392633520576055 125.32106244174065,42.43503296367999 124.0,42.07935148480465 125.97530288912822,42.38031278100971 126.83084808947751,42.55815331508347 129.14585274935234,42.76335371725145 131.86346691520885,43.74831245538371 131.3224603914423,43.37895354778448 131.05824790307088,43.44735340155603 129.85041938489303,42.96855389008124 126.98182665428612,42.76335371725145 125.03168685926357,42.270872366731055" stroke="yellow" stroke-linecap="round" stroke-linejoin="round" stroke-width="0.5"><title>2025-02-26 11.1km</title><desc>1740566027000</desc></polyline><polyline fill="none" points="163.80457089556148,42.501103738395614 161.55037313437788,42.22724762067082 162.5578358209459,42.21355480408238 167.65811567165656,42.91188714974851 168.3759328359156,43.30897690798156 168.804104477691,43.29528417198162 172.35541044780985,45.047946088190656 173.11100746272132,45.70518999772321 176.8260261194082,47.211365092676715 177.6697761194664,47.7864468729822 178.0853544776328,47.53998347315064 178.19869402988115,46.28027649060823 178.40018656721804,46.11596624768572 179.97434701496968,46.36243155699049 182.2411380597623,46.376124064510805 183.95382462686393,47.0470556821092 185.1879664179287,47.225057536910754 188.4244402985205,47.18398020112363 185.15018656715984,47.18398020112363 184.04197761195246,47.033363224574714 182.40485074633034,46.41720158084354 178.50093283585738,46.15704382221156 178.223880597041,46.33504653896671 177.99720149260247,47.70429244310071 177.63199626869755,47.80013927438995 175.89412313431967,46.85536118410528 173.27472014928935,45.82842296913441 168.85447761195246,43.36374784176587 168.43889925378608,43.40482603141572 167.3936567164492,42.91188714974851 165.9958022388746,42.92557991432841 161.5,42.15878352751315 167.41884328360902,42.92557991432841 168.3759328359156,43.377440572701744 168.85447761195246,43.30897690798156 172.58208955224836,45.4039534975891 176.8260261194082,47.252442422366585 177.75792910449672,47.84121647248685 178.12313432840165,47.4441365061939 178.18610074633034,46.32135402840504 178.34981343289837,46.11596624768572 180.25139925378608,46.36243155699049 182.15298507467378,46.32135402840504 183.9286380597623,46.9922858459322 185.25093283585738,47.170287753790035 188.5,47.18398020112363 184.6212686567451,47.18398020112363 182.442630597041,46.40350907643733 181.17070895520737,46.44458658664371 178.41277985076886,46.10227372084046 178.18610074633034,46.36243155699049 178.0979477612418,47.52629105238884 177.97201492538443,47.772754470526706 177.69496268656803,47.813831674764515 172.6828358208877,45.48610895569436 168.91744402988115,43.391133302560775 168.47667910455493,43.40482603141572 167.49440298508853,42.99404372186109 165.89505597023526,42.91188714974851 161.6385261194664,42.22724762067082 164.63572761201067,42.596953283195035 165.27798507467378,42.63803164420824 167.4062500000582,42.98035096240346 169.6604477612418,43.74714392134047 172.46875,45.198564691716456 168.942630597041,43.40482603141572 165.27798507467378,42.69280277795042" stroke="yellow" stroke-linecap="round" stroke-linejoin="round" stroke-width="0.5"><title>2025-02-21 11.3km</title><desc>1740135343000</desc></polyline><polyline fill="none" points="13.712290502793621,72.60142751570675 11.575418994412757,72.17774091429601 14.642458100570366,72.51942373375641 17.533519553078804,72.99777861175244 18.33798882679548,73.40779608575394 19.129888268129434,73.44879778275208 22.66201117320452,75.4715367898898 26.747206703876145,77.24824859993532 27.664804469270166,77.80859260172292 28.079608938482124,77.50792042328976 28.217877094924916,76.29155976347101 28.393854748632293,76.15488952242595 30.14106145250844,76.38722887160839 32.40363128489116,76.40089588295086 33.84916201111628,77.0159103411861 35.08100558654405,77.22091470241139 38.43715083791176,77.2072477521433 37.431564245780464,77.34391720921849 34.42737430159468,77.17991384849302 32.328212290478405,76.46923092457291 28.45670391060412,76.19589060542057 28.19273743010126,76.41456289331836 28.004189944127575,77.64458965638187 27.614525139622856,77.79492569521244 22.850558659178205,75.66287581156939 18.865921787684783,73.4351305514574 18.28770949720638,73.40779608575394 17.34497206704691,72.99777861175244 15.761173184320796,72.90210773595027 11.5,72.16407358829747 17.407821229018737,72.95677681393863 18.76536312850658,73.3394599037565 22.071229050226975,74.97952124632138 23.17737430165289,75.73121112809167 27.80307262565475,77.74025805899873 28.054469273716677,77.52158735120611 28.142458100512158,76.37356185920362 28.318435754161328,76.15488952242595 32.277932960831095,76.38722887160839 33.86173184355721,77.0159103411861 35.131284916133154,77.22091470241139 38.5,77.24824859993532 37.10474860330578,77.35758414931479 34.43994413403561,77.19358080084203 32.40363128489116,76.46923092457291 28.41899441339774,76.18222357875493 28.155027932894882,76.44189691099746 28.092178770923056,77.49425349438388 27.84078212286113,77.83592641170253 23.642458100512158,76.01821917953203 18.878491620067507,73.40779608575394 18.451117318414617,73.4351305514574 17.420391061459668,73.0114458756434 14.114525139622856,72.58776022125676 15.195530726283323,72.71076583463582 17.34497206704691,72.95677681393863 19.46927374304505,73.76314382191049 18.916201117273886,73.40779608575394 18.23743016755907,73.39412885138881 17.018156424572226,72.94310954595858 15.924581005587243,72.929442276989 12.115921787742991,72.21874288625258" stroke="yellow" stroke-linecap="round" stroke-linejoin="round" stroke-width="0.5"><title>2025-02-19 10.6km</title><desc>1739962218000</desc></polyline><polyline fill="none" points="50.95926966291154,72.37491943289933 49.0,72.18250210399856 52.32443820225308,72.53984841221245 54.97893258422846,73.00714638616773 55.71207865170436,73.37823511040187 56.24297752807615,73.35074708233878 60.88202247186564,75.90711616864428 65.33146067417692,77.81749789598689 65.5463483146159,77.54262404567271 65.68539325840538,76.34691803138412 65.90028089884436,76.19573625936755 69.9073033707682,76.4431245490996 71.71488764043897,77.18528742805938 76.0,77.26774978585308 71.94241573027102,77.21277488474152 69.85674157302128,76.45686833326181 66.15308988763718,76.19573625936755 65.9382022471982,76.4293807639333 65.71067415724974,76.37440561302355 65.5463483146159,77.6250862437737 65.15449438203359,77.77626684453571 60.035112359561026,75.50854482490104 56.26825842692051,73.40572313434677 54.839887640438974,72.97965830280737 49.973314606701024,72.29245488793822" stroke="#4DD2FF" stroke-linecap="round" stroke-linejoin="round" stroke-width="0.5"><title>2025-02-18 4.9km</title><desc>1739836925000</desc></polyline><polyline fill="none" points="89.41960507759359,72.39141602956806 89.38152327219723,72.72266962128924 90.77785613544984,72.6812629547203 92.63117066293489,72.99871382860874 95.05571227084147,74.29611609308631 96.36318758811103,74.72398080500716 97.58180535968859,75.60731127781037 101.68194640334696,77.29114832519554 102.6212976022507,77.85702455299906 102.9640338505269,77.59478944282455 103.05289139633533,76.36642003789893 103.25599435827462,76.18699461169308 107.25458392099245,76.50443947828899 109.1078984485357,77.23594079579925 113.5,77.31875208373822 109.2475317348144,77.15312947086932 107.27997179125668,76.42162782640662 103.35754583921516,76.17319264860998 103.12905500701163,76.42162782640662 103.06558533146745,77.51197827825672 102.86248236958636,77.80181719218672 98.20380818052217,75.85574721441662 94.44640338502359,73.73022898859926 92.52961918193614,72.95730722373992 86.5,72.14297544701549 92.56770098727429,72.9711094263912 94.31946403387701,73.75783327773388 92.56770098727429,72.9711094263912" stroke="#4DD2FF" stroke-linecap="round" stroke-linejoin="round" stroke-width="0.5"><title>2025-02-14 5.4km</title><desc>1739506837000</desc></polyline><polyline fill="none" points="126.9509574964759,72.57987319130916 129.22092480148422,72.85411259061948 131.26389537606155,73.36145440200926 136.3082671649172,76.06268320267554 140.1798225128441,77.83148667388014 140.4950957496767,77.77664030999586 140.98692199907964,76.5425928015029 141.35263895383105,76.25464719238516 144.9341429239139,76.46032267346163 146.9518916394445,77.26931066915859 151.0,77.31044555701374 146.86361513310112,77.26931066915859 144.89631013548933,76.48774605354993 141.4156936011277,76.30949400977988 141.07519850542303,76.47403436400054 140.3815973844612,77.83148667388014 136.04343764600344,76.07639492284216 131.3017281644279,73.4163020816195 130.1541335824295,73.04607992697856 124.0,72.16851332611986 129.97758056985913,72.96380823590152 131.3647828117828,73.4163020816195 136.06865950499196,75.98041286005173 140.14198972447775,77.80406349399709 140.520317608607,77.70808233214484 141.03736571699847,76.50145774206612 141.44091546011623,76.30949400977988 144.94675385340815,76.50145774206612 146.86361513310112,77.22817577212118 151.0,77.29673392875702 149.27230266231345,77.39271530508995 146.85100420366507,77.20075250235095 144.87108827655902,76.48774605354993 141.40308267163346,76.24093548544624 141.07519850542303,76.46032267346163 140.50770667911274,77.74921712193463 140.30593180761207,77.79035190248396 135.81644091551425,75.89814248066978 131.74311069597024,73.62198073463514 130.45679588982603,73.08721575871459 124.02522185898852,72.19593734575028 127.22839794488391,72.4701773171837 130.1541335824295,72.96380823590152 131.90705277910456,73.86879481481446 131.2512844465673,73.40259016325581 131.08734236337477,73.48486165815848 129.96496964042308,72.99123213702114" stroke="yellow" stroke-linecap="round" stroke-linejoin="round" stroke-width="0.5"><title>2025-02-12 10.1km</title><desc>1739334019000</desc></polyline><polyline fill="none" points="183.2081545064575,76.88294611990568 184.34120171674294,77.27492785625509 188.5,77.30292652043863 184.48283261799952,77.33092518041667 182.55150214594323,76.4629647807451 178.7660944206291,76.21097552671563 177.94206008582842,77.79290246810706 177.69742489268538,77.83490034703573 172.6502145922277,75.62299928659922 171.29828326177085,74.75503099813068 167.71888412017142,73.07508098578546 161.5,72.09510320893605 167.4871244634851,72.92108481645118 169.48283261799952,73.691064400904 172.01931330468506,74.92302517332428 173.2939914163435,75.81899157105363 177.60729613731382,77.76490387695958 177.95493562234333,77.63891016508569 178.48283261799952,76.37896840029862 178.8047210299992,76.19697611383162 181.12231759657152,76.44896538663306 182.28111587982858,76.37896840029862 184.35407725319965,77.23292985217995 188.3326180257136,77.28892718885618 182.88626609439962,76.89694548169791 182.95064377685776,77.28892718885618 182.8347639485146,76.82694866225938 182.37124463520013,76.6169580474234 178.8047210299992,76.25297375918308 178.54721030045766,76.39296779962024 177.83905579400016,77.90489679106395 172.9849785407423,75.81899157105363 172.0965665235999,75.1050186936045 170.46137339057168,74.32104535045801" stroke="#4DD2FF" stroke-linecap="round" stroke-linejoin="round" stroke-width="0.5"><title>2025-02-10 6.3km</title><desc>1739162078000</desc></polyline><polyline fill="none" points="11.692963166569825,103.91114641839522 13.32572842220543,103.95954015541065 20.688015393039677,105.04033080600493 22.94420010992326,104.94354380277218 23.137163276493084,105.68557639195933 23.98323254531715,105.73396973362833 24.977735019172542,106.10498499500682 25.66052776243305,105.12098660909396 31.746289169765078,105.0080684764107 32.072842220950406,105.5726585527882 32.45876855409006,105.6694452756783 32.71110500267241,105.52426517516142 32.963441451312974,104.84675675648032 34.121220450731926,104.76610085157154 38.5,105.31456041423371 34.38840021984652,104.74996966698382 32.91891148983268,104.83062557787343 32.636888400127646,105.52426517516142 32.38455195154529,105.65331415816036 31.746289169765078,104.99193730978004 25.734744364977814,105.08872429144685 25.304288070299663,105.37908497764147 25.007421660237014,106.12111607895349 23.211379878979642,105.70170750709076 23.211379878979642,105.07259313082614 23.018416712468024,104.91128145880066 20.836448598071,105.02419964180444 13.934304562862962,104.00793388161401 11.5,103.89501517031749 13.60775151179405,103.97567139865714 20.361462341912556,104.99193730978004 22.914513468858786,104.91128145880066 23.122319955960847,105.6694452756783 24.992578339704778,106.10498499500682 25.43787795485696,105.26616697912687 25.82380428799661,105.08872429144685 31.686915887810756,104.99193730978004 32.10252886195667,105.58878967624332 32.39939527207753,105.65331415816036 32.71110500267241,105.45974065490009 32.82985156675568,104.9274126313976 33.2009345794213,104.782232034966 38.1882902692887,105.26616697912687 34.59620670694858,104.74996966698382 33.14156129735056,104.74996966698382 32.740791643736884,104.95967497299716 32.48845519515453,105.65331415816036 32.19158878503367,105.58878967624332 31.73144584929105,104.95967497299716 25.675371082965285,105.07259313082614 25.31913139077369,105.3468226983241 25.022264980711043,106.10498499500682 23.196536558505613,105.68557639195933 23.018416712468024,104.84675675648032 20.598955470020883,104.94354380277218 13.147608576109633,103.87888392106106 11.84139637160115,103.92727766525059 13.177295217115898,103.91114641839522 21.266904892749153,105.05646196904127 22.988730071403552,104.91128145880066 23.152006596967112,105.68557639195933 24.30978559644427,105.83075638464652 23.211379878979642,105.6694452756783 22.914513468858786,104.86288793385029 20.67317207250744,104.95967497299716 13.83040131937014,103.95954015541065 12.00467289716471,103.92727766525059 13.963991203985643,104.00793388161401" stroke="#4DD2FF" stroke-linecap="round" stroke-linejoin="round" stroke-width="0.5"><title>2025-01-25 9.9km</title><desc>1737761473000</desc></polyline><polyline fill="none" points="49.35999999998603,103.67958222994639 58.164999999979045,104.95109960414993 60.71500000002561,104.83698937139707 60.70000000001164,105.8802807196771 61.690000000060536,105.92918487996212 62.5449999999837,106.32041777003906 63.26500000001397,105.26082707967726 69.39999999996508,105.11411411940935 69.97000000003027,105.83137654850725 70.34499999997206,105.71726677336846 70.45000000001164,105.11411411940935 70.69000000000233,104.9347981459432 76.0,105.4401427868288 71.86000000004424,104.88589376410528 70.55499999999302,105.00000397142139 70.15000000002328,105.81507515568228 69.82000000000698,105.71726677336846 69.68500000005588,105.22822420809825 69.39999999996508,105.09781267333892 63.2949999999837,105.21192277049704 62.99499999999534,105.37493709207047 62.63500000000931,106.28781505582447 60.80499999993481,105.84767794008076 60.6699999999837,105.03260687693546 58.58499999996275,105.17931989162753 50.410000000032596,103.98931149968121 49.0,104.00561302807182 50.8300000000163,104.05451760602591 58.11999999999534,105.14671700797044 60.460000000020955,105.01630542478233 60.65500000002794,105.19562133168802 60.65500000002794,105.76617096997506 62.5449999999837,106.28781505582447 63.25,105.22822420809825 69.38500000000931,105.09781267333892 69.76000000000931,105.71726677336846 70.10500000003958,105.81507515568228 70.75000000005821,104.91849668655777 75.09999999997672,105.26082707967726 70.86999999999534,104.86959230109642 70.45000000001164,105.00000397142139 70.375,105.63575975484855 70.10500000003958,105.78247236640891 69.38500000000931,105.04890832783713 63.32500000001164,105.21192277049704 62.93500000005588,105.45644420747703 62.59000000002561,106.25521233676409 60.79000000003725,105.81507515568228 60.56500000000233,104.9837025168963 58.57000000006519,105.16301845037378 50.55999999999767,103.97300997006823 49.3300000000163,104.02191455524007 50.710000000020955,103.98931149968121 52.63000000000466,104.2990403323638" stroke="#4DD2FF" stroke-linecap="round" stroke-linejoin="round" stroke-width="0.5"><title>2025-01-19 8.1km</title><desc>1737283232000</desc></polyline><polyline fill="none" points="90.0688930406468,102.54559556867753 92.32624941616086,102.86097072510165 93.28468005603645,103.35460031981347 93.99089210649254,103.36831223411718 97.3453993460862,105.12342882853409 97.76156001875643,105.50735835250816 101.86011209717253,107.26245454901073 102.78070994862355,107.83834184188163 103.03292853810126,107.68751439168409 103.57519850536482,106.41233191877836 103.92830453056376,106.20665649898001 107.24497898179106,106.37119685320067 109.36361513315933,107.1253382613213 113.5,107.23503129964229 109.27533862675773,107.1253382613213 107.35847734700656,106.34377347106056 103.9787482485408,106.17923309230537 103.58780943485908,106.33006177845527 103.0203176085488,107.68751439168409 102.84376459597843,107.76978392529418 98.29121905652573,105.8638636218966 93.83956095285248,103.3957360596105 93.48645492759533,103.42315988104383 92.4271368519403,102.95695436111419 89.52662307338323,102.68271526831086 86.5,102.10681184323039 92.61630079406314,102.99809018976521 93.90261560020735,103.3820241473586 98.51821578701492,105.90499880086281 101.84750116767827,107.27616617218882 102.66721158334985,107.86576500133378 103.00770667917095,107.75607233893243 103.56258757587057,106.49460202235787 103.9787482485408,106.27521499778959 107.44675385334995,106.43975529070303 109.40144792152569,107.15276152703154 113.5,107.26245454901073 109.37622606259538,107.23503129964229 107.30803362914594,106.45346697515924 103.96613731898833,106.27521499778959 103.61303129378939,106.43975529070303 103.0203176085488,107.79720709499088 102.56632414762862,107.81091867831128 97.53456328820903,105.50735835250816 93.95305931806797,103.46429560551769 93.49906585708959,103.49171941670647 92.5154133582837,103.02551407046849 86.55044371786062,102.14794786194398 92.75502101820894,103.01180213062617 93.44862213917077,103.4094479708292 93.85217188228853,103.36831223411718 98.50560485757887,105.91871052514762 102.85637552547269,107.89318815675506 103.66347501165001,106.38490854275005 105.01284446520731,106.38490854275005 103.82741709484253,106.37119685320067 103.0203176085488,107.82463026058394 102.64198972447775,107.76978392529418 97.49673049978446,105.50735835250816 93.9152265296434,103.45058369837352 93.54950957500841,103.47800751162868 92.540635217214,103.01180213062617 89.71578701538965,102.68271526831086" stroke="yellow" stroke-linecap="round" stroke-linejoin="round" stroke-width="0.5"><title>2025-01-17 12.3km</title><desc>1737088953000</desc></polyline><polyline fill="none" points="126.73033707862487,102.42302440077765 126.9073033707682,102.12065426741901 127.67837078648154,102.62918557113153 131.26825842697872,103.34387584461365 133.29073033703025,104.38841818661604 134.07443820219487,105.00689441713621 140.26825842697872,107.86560205288697 140.50842696626205,107.70067781642138 141.03932584263384,106.44999755834579 141.36797752801795,106.23009685630677 144.8946629212587,106.44999755834579 146.8286516853259,107.1646730297216 150.9873595504905,107.23339167913946 146.91713483142667,107.1646730297216 144.74297752807615,106.44999755834579 141.46910112357,106.28507205640199 141.08988764043897,106.42250998494274 140.49578651681077,107.79688363893365 140.33146067411872,107.85185837215977 135.7176966291736,105.87275765649974 131.30617977521615,103.38510789129941 129.85252808989026,103.01401913940208 124.0,102.18937479579472 129.73876404494513,102.95904296450317 130.9396067415364,103.38510789129941 131.2808988763718,103.34387584461365 136.22331460670102,106.06517115778115 139.23174157296307,107.24713540593802 140.12921348313102,107.8243710076058 140.4705056179664,107.74190888936573 141.0140449437895,106.4362537721463 141.3932584269205,106.24384065787308 144.76825842697872,106.44999755834579 146.80337078642333,107.15092929675302 151.0,107.20590422245732 146.86657303367974,107.15092929675302 144.88202247186564,106.50497269288462 141.48174157302128,106.2575844584353 141.08988764043897,106.44999755834579 140.36938202247256,107.87934573259554 135.91994382016128,105.96896443222067 131.34410112357,103.45382794861507 130.72471910109743,103.42633992875926 130.05477528087795,103.04150722068152 125.56741573038744,102.39553622729727" stroke="#4DD2FF" stroke-linecap="round" stroke-linejoin="round" stroke-width="0.5"><title>2025-01-15 9.1km</title><desc>1736916504000</desc></polyline><polyline fill="none" points="163.85384615382645,102.01639928543591 164.03006993007148,102.31750124892278 164.64685314684175,102.6870348022203 167.73076923075132,103.19343142719299 169.40489510493353,103.74088566757564 171.39370629366022,105.04108294971229 177.6748251747922,107.91517060415936 177.95174825174036,107.84674046823056 178.48041958041722,106.61499366331554 178.90839160839096,106.38232945061463 182.38251748250332,106.6013075413066 184.2832167831948,107.35404273727909 188.5,107.44984517733974 184.23286713287234,107.39510093200079 182.34475524473237,106.64236590423388 178.89580419572303,106.38232945061463 178.48041958041722,106.61499366331554 177.88881118874997,107.92885662827757 177.49860139854718,107.92885662827757 173.3699300698936,106.09492031051195 168.80069930071477,103.54927686903102 168.53636363637634,103.6313949500327 166.93776223773602,103.12499953240331 161.5,102.35856056932244 166.05664335662732,102.9060172978352 168.77552447555354,103.50821781477134 172.84125874121673,105.75276598599157 177.7503496503341,107.98360071456409 178.03986013983376,107.81936840673734 178.631468531501,106.43707399776031 179.91538461536402,106.46444626520679 178.66923076921375,106.49181852857873 177.85104895103723,107.96991469453496 173.0552447552327,106.01280333074101 168.87622377619846,103.57664956674853 167.4034965034807,103.152372293378 163.43846153846243,102.60491629906755" stroke="#4DD2FF" stroke-linecap="round" stroke-linejoin="round" stroke-width="0.5"><title>2025-01-14 7.8km</title><desc>1736829619000</desc></polyline><polyline fill="none" points="15.192093023273628,132.72654975694604 14.978604651172645,132.4261489259079 15.48093023255933,132.4807672954339 19.70046511630062,133.83256675465964 22.29999999998836,135.11608428576437 23.455348837247584,135.92169176170137 27.637209302338306,137.83328855168656 27.913488372054417,137.75136338391167 28.478604651172645,136.46786430753127 28.842790697643068,136.24939548449765 32.24604651163099,136.46786430753127 33.87860465119593,137.13692345813615 35.04651162790833,137.28712007463037 38.5,137.28712007463037 34.11720930231968,137.17788618394115 32.258604651200585,136.46786430753127 28.880465116293635,136.23574117440148 28.516279069765005,136.3859385294054 27.92604651162401,137.75136338391167 27.57441860466497,137.76501758108498 23.367441860435065,135.94900042764493 19.524651162850205,133.84622124377347 17.590697674429975,133.0406046447606 11.5,132.18036606154055 17.666046511614695,133.06791374000022 19.524651162850205,133.7642942937382 22.890232558129355,135.66225923228194 27.599534883745946,137.79232597236114 27.90093023260124,137.71040078626538 28.403255813929718,136.48151860031066 28.767441860516556,136.24939548449765 32.35906976746628,136.48151860031066 34.24279069766635,137.19154042382434 38.37441860465333,137.30077430640813 34.15488372097025,137.15057770107524 32.27116279071197,136.44055571890203 28.754883720946964,136.23574117440148 28.45348837209167,136.4132471261546 27.86325581400888,137.79232597236114 27.386046511644963,137.75136338391167 26.745581395342015,137.3144285371527 23.19162790698465,135.89438309169782 18.720930232550018,133.36831351909495 17.377209302328993,132.99964099425415 11.550232558161952,132.16671144829888 18.746046511630993,133.35465899437258 23.216744186065625,135.8124570572254 26.783255813992582,137.28712007463037 27.612093023315538,137.81963435962098 27.90093023260124,137.73770918569062 28.45348837209167,136.39959282831114 28.805116279108915,136.23574117440148 32.18325581395766,136.4132471261546 33.92883720929967,137.10961496920208 34.9837209302932,137.218848900593 33.87860465119593,137.10961496920208 32.1455813953653,136.4132471261546 28.830232558131684,136.19477823805937 28.478604651172645,136.3586299285671 27.913488372054417,137.68309238275106 27.461395348829683,137.69674658500298 26.29348837211728,137.05499797906668 23.216744186065625,135.86707441759063 18.708372092980426,133.36831351909495 16.975348837208003,132.93136822307133" stroke="yellow" stroke-linecap="round" stroke-linejoin="round" stroke-width="0.5"><title>2025-01-10 13.0km</title><desc>1736482744000</desc></polyline><polyline fill="none" points="51.58644859812921,131.96141392319987 52.8228971962817,132.798237346753 54.96775700937724,133.20978845492937 57.07476635515923,134.01916961750248 59.358411214954685,135.37727577805344 65.26308411220089,138.03858607680013 65.54065420560073,137.81909802286827 65.65420560748316,136.61190904994146 65.81822429905878,136.4061374128505 69.79252336453646,136.66678144766774 71.87429906544276,137.43499329901533 75.93691588786896,137.5310195550701 71.69766355142929,137.39383917392115 69.79252336453646,136.68049954454182 65.89392523368588,136.39241929554555 65.64158878510352,136.68049954454182 65.54065420560073,137.87397006087122 65.26308411220089,138.03858607680013 60.74626168224495,136.1180567345873 56.305140186916105,133.6350569669885 54.91728971962584,133.20978845492937 49.0,132.38668531864823 55.24532710283529,133.23722516276757 55.86355140188243,133.58018366577744 56.29252336447826,133.58018366577744 60.82196261687204,136.06318417331204 65.07383177569136,137.98371408780804 65.50280373834539,137.87397006087122 65.62897196266567,136.62562715091917 65.85607476637233,136.41985552910774 69.79252336453646,136.68049954454182 71.97523364488734,137.43499329901533 76.0,137.4898654514691 71.63457943929825,137.38012113017612 69.77990654204041,136.62562715091917 65.90654205612373,136.41985552910774 65.69205607479671,136.55703663584427 65.67943925235886,137.5310195550701 65.35140186920762,138.02486808106187 60.65794392529642,136.07690231518063 56.3303738317918,133.6213386432355 54.82897196261911,133.20978845492937 49.0,132.34553006525675 53.415887850453146,132.9079843988875 56.242056074843276,133.5527470090601 60.39299065427622,135.87113008019514 65.09906542062527,137.98371408780804 65.4523364486522,137.8876880677999 65.72990654211026,137.20178646860586 65.4523364486522,137.95627808723657 64.8971962617361,137.87397006087122 60.73364485986531,136.09062045598694 56.305140186916105,133.53902867915167 56.014953271020204,133.60762031842023 55.04345794394612,133.14119666744955 53.44112149538705,132.9628579003911" stroke="yellow" stroke-linecap="round" stroke-linejoin="round" stroke-width="0.5"><title>2025-01-08 12.0km</title><desc>1736310892000</desc></polyline><polyline fill="none" points="89.3779803646612,133.33933692522987 89.75666199158877,132.73544648638926 89.80715287517523,132.14527891749458 90.04698457225459,131.93940606489195 90.32468443200924,131.99430551474507 90.19845722295577,132.09037951262144 91.42286115005845,132.55702393241518 92.05399719497655,133.07856629676826 94.64165497897193,133.98439952534682 98.9333800841705,136.3038612754026 102.79593267879682,138.0194207050954 103.04838709672913,137.77238113178464 103.08625525946263,136.63324992507114 103.43969144462608,136.39993302573566 107.3022440392524,136.67442346489406 109.32187938288553,137.44299451877305 113.5,137.52534122725774 109.2966339411214,137.4155456078006 107.35273492283886,136.701872486301 103.38920056103962,136.44110661765444 103.12412342213793,136.71559699546196 103.08625525946263,137.77238113178464 102.87166900420561,138.06059393510805 98.13814866764005,136.04309484337864 93.80855539970798,133.61383192476933 93.32889200560749,133.61383192476933 92.44530154281529,133.1883645011112 86.5,132.43350052455207 92.6220196353388,133.3118874027423" stroke="#4DD2FF" stroke-linecap="round" stroke-linejoin="round" stroke-width="0.5"><title>2025-01-06 5.2km</title><desc>1736137119000</desc></polyline><polyline fill="none" points="127.49485981307225,132.928562635876 127.55794392520329,132.4072630507144 127.97429906547768,131.78993268574413 128.27710280369502,132.8599706695386 127.84813084109919,133.14805675648677 128.642990654218,133.10690162880928 131.26728971960256,133.73794590907346 134.82523364486406,135.41157461293915 135.4939252336626,136.00145651404455 140.28831775696017,138.12775931242504 140.57850467285607,137.94942518226162 140.62897196260747,136.79710817785235 140.86869158875197,136.5776184071001 145.01962616824312,136.86569867758953 147.01308411208447,137.62019248823344 151.0,137.68878268137632 146.84906542056706,137.59275640384294 144.880841121485,136.82454438084096 140.91915887850337,136.5776184071001 140.67943925235886,136.78339007488103 140.59112149535213,137.94942518226162 140.33878504676977,138.196349316524 135.8093457944342,136.33069210224494 132.10000000003492,134.2318051415641 130.23271028039744,133.47729744679236 124.0,132.5032920325757 128.23925233643968,133.02459134583478 131.24205607478507,133.69679091326543 135.05233644862892,135.80940214906877 139.455607476586,137.72993678499188 140.1369158878806,138.21006731427042 140.56588785047643,137.90827112768602 140.67943925235886,136.7147995444975 140.85607476631412,136.53646404594474 143.65700934577035,136.86569867758953 144.880841121485,136.79710817785235 146.9121495326981,137.5790383600979 150.98738317756215,137.6476285685494 146.571495327109,137.51044812609325 144.8051401869161,136.82454438084096 140.9570093458169,136.53646404594474 140.67943925235886,136.74223575972428 140.6415887849871,137.86711706395727 140.36401869158726,138.1414773153083 135.87242990656523,136.3169739645091 132.12523364485241,134.1494953614456 130.57336448598653,133.55960752739338 124.16401869157562,132.57188413178665" stroke="#4DD2FF" stroke-linecap="round" stroke-linejoin="round" stroke-width="0.5"><title>2025-01-03 9.5km</title><desc>1735878536000</desc></polyline><polyline fill="none" points="164.193676815019,132.38056400204368 165.7744730679551,132.8205805155012 167.582903981267,132.98558643754222 168.4555035129306,133.42560150848294 168.78430913347984,133.38435014015704 172.54028103046585,135.46065756570897 177.58618266979465,137.78444413695252 177.96557377051795,137.71569347495097 178.48407494142884,136.46442695207952 178.86346604221035,136.244423170152 182.25269320845837,136.45067672338337 184.26346604217542,137.2069377801672 188.5,137.33068929443834 184.57962529273937,137.22068795251835 182.40444964868948,136.51942785659048 178.88875878223917,136.31317438014958 178.48407494142884,136.53317808016436 177.81381733022863,137.83944464811066 172.90702576114563,135.77691426275123 168.77166276349453,133.46685286761203 168.44285714288708,133.49435376854672 167.4311475410359,133.01308741021785 166.00210772833088,132.94433497085993 161.5,132.1605553519039 167.53231850120937,132.9993369243748 169.31545667449245,133.83811468470958 167.64613583142636,133.04058837877528 163.940749414498,132.47681770399504" stroke="#4DD2FF" stroke-linecap="round" stroke-linejoin="round" stroke-width="0.5"><title>2025-01-02 5.6km</title><desc>1735817809000</desc></polyline><polyline fill="none" points="14.616355140169617,162.48957241272728 17.61915887851501,162.9834340737143 18.502336448582355,163.44985775944951 19.347663551394362,163.60075928716105 23.940186915919185,166.12491196051997 27.813551401835866,167.7985158522206 28.141588784987107,167.45556547415617 28.507476635510102,166.5364553113759 28.949065420543775,166.31696563870355 32.19158878503367,166.42671050774516 34.563551401894074,167.29094906584942 38.5,167.318385144099 36.96074766351376,167.4144113858638 34.33644859812921,167.24979494075524 32.36822429904714,166.48158291775326 28.96168224303983,166.28952941122407 28.57056074764114,166.44042861179332 27.990186915907543,167.74364383463399 27.775700934638735,167.83966985462757 21.59345794393448,165.12348596453376 18.75467289716471,163.44985775944951 18.35093457950279,163.4772944100696 17.480373831815086,163.03830750983616 11.5,162.1466121465637 17.026168224285357,162.9148422555736 18.451869158889167,163.4224211047549 18.75467289716471,163.34011111616564 22.804672897211276,165.61734056101704 27.775700934638735,167.8533878534363 28.608411214954685,166.39927429663658 28.949065420543775,166.26209317967005 29.907943925180007,166.38555618951796 28.583177570078988,166.3718380814098 27.990186915907543,167.71620781972888 27.76308411214268,167.78479784933734 23.183177570113912,165.8505492155964 18.943925233616028,163.49101273382257 18.37616822432028,163.44985775944951 17.366822429932654,162.99715243428363 16.281775700917933,163.03830750983616 11.878504672902636,162.1877674122661 14.654205607483163,162.70906664781796" stroke="#4DD2FF" stroke-linecap="round" stroke-linejoin="round" stroke-width="0.5"><title>2024-12-31 8.0km</title><desc>1735619151000</desc></polyline><polyline fill="none" points="52.759813084150665,162.68163005549286 53.68084112153156,162.70906681849738 56.31775700941216,163.32639290584484 57.8570093458402,164.14949113606417 58.29859813087387,164.60219359426992 65.36401869158726,167.79851564374985 66.0327102803858,166.49530090630287 66.41121495328844,166.28952931518143 69.9060747664189,166.48158280736243 71.64719626167789,167.1812045493425 75.98738317762036,167.2909488951409 71.81121495331172,167.24979477316083 69.8808411215432,166.49530090630287 66.42383177578449,166.28952931518143 66.0579439252615,166.45414660645474 65.30093457951443,167.8533876408619 61.03644859814085,166.02888496963715 57.17570093460381,163.9025620533357 54.92990654206369,163.01087094201648 49.0,162.14661235915264 53.76915887853829,162.7639403322828 56.279906542098615,163.34011123984237 61.03644859814085,165.91913987169391 65.187383177632,167.83966964311549 65.50280373834539,167.7162076173845 66.0327102803858,166.48158280736243 66.46168224303983,166.2483749693638 69.83037383185001,166.45414660645474 71.87429906544276,167.2086406419403 76.0,167.2223586866894 72.02570093463873,167.23607673043443 69.81775700935395,166.48158280736243 66.39859813085059,166.26209308562102 66.0327102803858,166.45414660645474 65.4775700934697,167.70248960940808 65.27570093458053,167.79851564374985 60.70841121498961,165.87798544309044 56.3808411215432,163.4498578749335 54.48831775703002,162.98343422396283 49.20186915888917,162.21520445837814 54.76588785048807,162.96971586337895 55.92663551407168,163.4361395491287 56.418691588856746,163.38126623566495 60.43084112147335,165.60362235069624 56.3556074766675,163.4087028944341 52.54532710282365,162.6953484374826" stroke="yellow" stroke-linecap="round" stroke-linejoin="round" stroke-width="0.5"><title>2024-12-30 10.8km</title><desc>1735533491000</desc></polyline><polyline fill="none" points="90.2905783582246,162.63118403371482 92.75886194035411,163.04196738389146 93.45149253733689,163.43905708294187 93.80410447763279,163.39797887799796 94.52192164183361,163.69921883432835 97.6072761194664,165.4518778778147 102.61940298508853,167.75221750879427 102.98460820899345,167.76590992040292 103.5135261194082,166.46512626300682 103.92910447763279,166.23235347957234 107.24113805964589,166.45143375448242 109.21828358207131,167.21821266037296 113.5,167.28667490713997 109.38199626869755,167.21821266037296 107.36707089556148,166.47881877052714 103.87873134331312,166.2597385282279 103.53871268656803,166.46512626300682 103.09794776124181,167.57421606502612 102.75792910443852,167.8206795566366 98.04804104479263,165.83526981562318 94.69822761195246,163.9183021288336 92.78404850745574,163.13781670015305 86.5,162.15193563136563 92.56996268656803,163.02827462034475 94.98787313431967,163.9183021288336 97.53171641792869,165.4518778778147 102.72014925372787,167.84806436863437 102.97201492532622,167.77960233097838 103.55130597011885,166.47881877052714 103.90391791041475,166.3145086132572 107.34188432834344,166.50620378245367 109.23087686568033,167.23190511175198 113.46222014923114,167.27298245980637 112.17770522390492,167.3825220097351 109.29384328355081,167.23190511175198 107.32929104479263,166.45143375448242 103.91651119402377,166.2597385282279 103.56389925378608,166.41035622282652 102.98460820899345,167.7385250961379 102.6068097014795,167.7932947405643 98.5265858208877,166.01327294346993 97.1916977611836,165.19171860741335 92.75886194035411,163.0830456684198 87.14225746266311,162.28886387386592" stroke="#4DD2FF" stroke-linecap="round" stroke-linejoin="round" stroke-width="0.5"><title>2024-12-27 9.1km</title><desc>1735273142000</desc></polyline><polyline fill="none" points="145.71355140185915,166.6256229057908 144.72943925234722,166.3512609988975 143.68224299064605,166.47472390759503 141.22196261683712,166.24151612172136 140.35140186920762,167.80537444740185 135.77149532712065,165.93971737210813 131.229439252289,163.4429996527906 130.86355140188243,163.4841546148964 129.8794392523705,163.0451678782265 124.0,162.11231758758368 128.1130841121776,162.77080063631 128.51682242995594,162.7022087619407 131.4060747663607,163.4292813300417 134.6233644859749,165.04803635863937 135.10280373838032,165.4870183202729 140.07383177569136,167.76422045107756 140.43971962615615,167.73678444843972 140.94439252332086,166.47472390759503 141.3481308410992,166.2277980074432 144.8303738317336,166.4472877128428 146.9626168224495,167.24293570168084 151.0,167.35267998208292 146.5462616822333,167.16062744848023 144.98177570092957,166.48844200343592 141.33551401866134,166.24151612172136 141.07056074769935,166.3238247857371 140.5028037383454,167.7779384508467 140.25046728970483,167.88768241243088 139.16542056074832,167.24293570168084 135.62009345792467,165.84369039350713 131.46915887854993,163.41556300628872 128.6177570093423,162.77080063631 125.62757009343477,162.37296740929014" stroke="#4DD2FF" stroke-linecap="round" stroke-linejoin="round" stroke-width="0.5"><title>2024-12-25 6.6km</title><desc>1735101299000</desc></polyline><polyline fill="none" points="164.3035547240288,162.3499114674487 164.20252572494792,162.59707365858776 164.36669784842525,162.54214875587786 164.60664172121324,162.14394272156642 165.37698783905944,162.67946098199172 166.23573433113052,162.72065462985483 168.875116931682,163.39348290860653 173.54770813841606,165.9474617716769 177.84144059871323,167.80113394290674 178.01824134704657,167.78740310648573 178.54864359210478,166.482968980461 178.9401309635141,166.27700485353125 182.32460243214155,166.46923804581456 184.50935453694547,167.29309231344087 188.5,167.3617466695432 184.31992516369792,167.25189968752966 182.19831618334865,166.4555071101786 178.8264733396354,166.29073580245313 178.54864359210478,166.42804523576342 177.98035547242034,167.71874890891195 177.75304022448836,167.75994143051503 173.0930776426685,165.8376139467582 169.59494855004596,163.80541737709427 167.6122544434038,163.0090099072404 161.5,162.15767397846503 163.57109448075062,162.47349260444753 164.5561272216728,162.44603013670712 168.02899906452512,163.13259060231212 169.60757717490196,163.75049283450062 173.93919550976716,166.139695307691 177.63938260055147,167.78740310648573 178.03086997190258,167.74621059102356 178.66230121609988,166.34565958805615 179.95042095414829,166.34565958805615 178.7001870907261,166.30446675040002 177.96772684750613,167.85605727841903 173.42142188962316,165.97492371764383 170.97146866226103,164.533166021356 167.7385406921967,163.1051282327826 161.53788587456802,162.17140523433045 166.7282507015625,162.9128915315814" stroke="#4DD2FF" stroke-linecap="round" stroke-linejoin="round" stroke-width="0.5"><title>2024-12-18 8.3km</title><desc>1734495982000</desc></polyline><polyline fill="none" points="14.346082089585252,191.22766501444858 13.88013059698278,191.33720875928702 14.043843283609021,191.2002790680126 13.88013059698278,191.30982282919285 13.77938432834344,191.15920014071162 13.82975746266311,191.29612986261782 14.849813432840165,192.00816277172999 17.078824626863934,192.9940499374352 17.60774253733689,193.82931131424266 18.19962686568033,194.294865188087 18.85447761195246,194.39071436863742 23.476212686568033,196.8827755178354 27.657182835857384,198.75864541104238 27.959421641775407,198.77233782161784 28.551305970177054,197.45786175366084 28.91651119402377,197.25247401886736 32.41744402988115,197.47155426118115 34.62126865674509,198.2383330527955 38.5,198.3067952893325 34.28125,198.2383330527955 32.41744402988115,197.48524676763918 28.853544776211493,197.26616654163809 28.488339552248362,197.47155426118115 27.858675373136066,198.827107453777 21.67537313431967,196.23922450137616 21.247201492486056,195.81475344867795 19.69822761201067,194.9384230129217 17.834421641833615,194.19901595752162 11.5,193.17205677866878 17.519589552248362,193.966239046611 18.577425373194274,194.43179257358133 18.80410447763279,194.3633288935671 23.52658582094591,196.9375457130518 26.77565298503032,198.224640602406 27.669776119408198,198.77233782161784 28.009794776153285,198.69018334276916 28.639458955207374,197.37570668727858 29.949160447809845,197.33462914035772 28.71501865668688,197.4167842250754 28.060167910472956,198.84079985928838 27.493470149231143,198.79972263977106 23.224347014911473,196.96493080456275 22.053171641833615,196.1981467004225 17.796641791064758,194.1305521907925 11.600746268639341,193.26790654481738 17.60774253733689,193.99362458083488" stroke="#4DD2FF" stroke-linecap="round" stroke-linejoin="round" stroke-width="0.5"><title>2024-12-17 8.6km</title><desc>1734409492000</desc></polyline><polyline fill="none" points="52.32928538066335,192.51817044784548 55.028024287719745,192.943241374247 56.01167678658385,193.4094470678392 56.33956095285248,193.31346363923512 61.01821578707313,195.89128691218502 65.2680990191875,197.72864954722172 65.49509574961849,197.7012263591605 66.07519850536482,196.34377344252425 66.3904717421974,196.16552130579657 70.04764128912939,196.4260436012264 71.87622606259538,197.1253384656884 76.0,197.19389664274058 75.59645025688224,197.33101292021456 71.86361513310112,197.19389664274058 69.7071461933665,196.3986202190863 66.46613731904654,196.26150324700575 65.97431106958538,196.56316045073618 65.43204110232182,197.72864954722172 65.21765530126868,197.79720749956323 61.39654367114417,196.1792330147291 56.26389537600335,193.43687089538435 55.59551611403003,193.35459940048167 54.889304063573945,192.943241374247 49.0,192.13423457366298 54.97758056985913,192.9295294242038 55.822512844461016,193.38202323621954 56.31433909392217,193.3408874810848 60.980382998648565,195.87757518180297 65.17982251284411,197.71493795371498 65.53292853804305,197.68751476357284 65.96170014009112,196.522025406608 66.3904717421974,196.1929447226721 70.08547407761216,196.4260436012264 71.83839327422902,197.1253384656884 75.92433442315087,197.23503153667843 72.06539000466,197.19389664274058 69.85847734706476,196.3986202190863 66.37786081276136,196.2340798403311 66.06258757592877,196.384908526481 65.40681924339151,197.79720749956323 60.892106492305174,195.94613382358511 56.276506305497605,193.43687089538435 55.1541335824877,193.03922499594046 49.151331153698266,192.16165859125613 54.95235871087061,192.943241374247 55.835123773955274,193.38202323621954 56.37739374127705,193.39573515253142 61.51004203641787,196.1243861727853 65.17982251284411,197.75607273122296 65.53292853804305,197.7012263591605 65.96170014009112,196.30263834937068 67.42456795898033,196.33006174581533 66.08780943485908,196.3574851381709 65.45726296119392,197.86576542633702 60.85427370388061,195.9324220972776 56.32695002335822,193.42315898214292 55.92340028024046,193.43687089538435 54.927136851940304,192.95695332325704 49.151331153698266,192.2165066141315 54.83886034565512,192.9295294242038" stroke="yellow" stroke-linecap="round" stroke-linejoin="round" stroke-width="0.5"><title>2024-12-15 13.0km</title><desc>1734235831000</desc></polyline><polyline fill="none" points="89.16977611934999,192.24093879183056 89.16977611934999,192.39155978562485 90.3031716417172,192.7338797669654 91.82695895514917,193.0488135866326 92.6203358208295,192.9940425263194 93.38852611934999,193.43221055172035 93.82929104473442,193.44590328568302 99.04291044775164,196.22550715645775 102.78311567165656,197.81383335187274 103.02238805964589,197.80014094332 103.52611940295901,196.58151249715593 103.90391791041475,196.33504733472364 107.3796641791123,196.51304998520936 109.38199626863934,197.27982866256207 113.5,197.36198333113862 109.30643656715984,197.27982866256207 107.48041044775164,196.52674248961557 103.84095149260247,196.28027725375432 103.48833955219015,196.44458744773874 102.8838619402959,197.84121816587867 98.48880597011885,196.04750422752113 94.39598880591802,193.76083588520123 92.53218283579918,193.0351208230859 86.5,192.15878183410678 89.69869402976474,192.48740944467136 92.53218283579918,192.95296422039974 93.80410447757458,193.36374686662748 97.67024253727868,195.4724166635715 101.53638059698278,197.170289047368 102.49347014923114,197.77275612315862 103.00979477609508,197.71798647058313 103.47574626863934,196.58151249715593 103.8661380597041,196.30766229631263 107.3166977611836,196.45827995723812 109.19309701496968,197.23875131450768 110.62873134325491,197.25244376489718 109.09235074627213,197.1976739572856 107.29151119402377,196.48566497328284 104.0046641791123,196.28027725375432 103.48833955219015,196.43089493717707 102.85867537313607,197.78644853373407 98.24953358207131,195.91057878026913 93.82929104473442,193.47328875052335 92.50699626858113,193.0351208230859 90.5172574626049,192.78865090479667" stroke="#4DD2FF" stroke-linecap="round" stroke-linejoin="round" stroke-width="0.5"><title>2024-12-13 8.5km</title><desc>1734064159000</desc></polyline><polyline fill="none" points="126.92064241843764,192.54550260807446 129.70099196978845,192.94765770706 131.6140765233431,193.5439550475421 135.5932923948858,195.79045345360646 140.0444024563185,197.75958407904545 140.40151157299988,197.77345112225157 140.9754369391012,196.45607740404375 141.33254605572438,196.27580448583467 144.83986773737706,196.45607740404375 146.59990552667296,197.17716733105772 151.0,197.26036983520316 147.02078412851552,197.23263567127287 144.71232876711292,196.44221026268497 141.2432687766268,196.26193733104446 140.8734057628899,196.3867416869616 140.45252716104733,197.57931242320046 140.1464336325298,197.85665335986414 139.24090694379993,197.34357230215392 135.58053849783028,195.91525812564942 131.8819083608687,193.79356732050655 129.91780821915017,193.1140664593695 131.86915446381317,193.73809795544366 134.2158715163241,195.15256160090212 139.26641473785276,197.32970522687538 140.00614076526836,197.81505224571447 140.37600377888884,197.73184998950455 140.94992914499016,196.22033586050384 140.35049598489422,197.6902488474443 140.03164855932118,197.77345112225157 135.72083136509173,195.94299248582684 131.129428436514,193.36367930888082 130.6830420406186,193.3775466795778 129.560699102527,192.91992290054623 124.0,192.14334664013586" stroke="#4DD2FF" stroke-linecap="round" stroke-linejoin="round" stroke-width="0.5"><title>2024-12-11 6.6km</title><desc>1733890893000</desc></polyline><polyline fill="none" points="164.77387640444795,192.67728927131975 167.66853932582308,193.00714664009865 168.30056179768872,193.3782354749419 168.81882022472564,193.3644914573233 173.57162921346026,195.98958024053718 177.81882022466743,197.83124326927646 178.5140449438477,196.40189445612486 178.88061797746923,196.23696888047562 182.50842696626205,196.45686961528554 184.36657303367974,197.18528892709583 188.46207865170436,197.28149503628083 184.51825842697872,197.18528892709583 182.5463483146159,196.52558854113158 178.61516853928333,196.36066307603323 177.91994382016128,197.87247432072763 173.4831460674177,196.0170678835857 172.20646067417692,195.15120516030584 168.7808988763718,193.44695554762438 168.50280898879282,193.51567559471005 167.41573033708846,193.07586685102433 161.6264044943382,192.25122263029334 166.42977528087795,192.80098585372616 168.7808988763718,193.35074743870064 172.0926966291736,194.98627846651652 173.4705056179664,195.90711728684255 177.7176966292318,197.80375589654432 177.9831460674177,197.7075500596984 178.53932584269205,196.48435718867404 178.88061797746923,196.23696888047562 181.0926966291736,196.45686961528554 182.2176966291736,196.36066307603323 184.42977528087795,197.1990326600644 188.5,197.26775130948226 184.21488764043897,197.17154519312317 182.4831460674177,196.48435718867404 178.85533707862487,196.2507126841083 178.53932584269205,196.37440687044 178.0969101123046,197.6113441726775 177.85674157302128,197.81749958344153 173.91292134829564,196.16824984710547 171.5491573033505,194.75263206461386 168.75561797752744,193.3782354749419 166.7331460674177,192.86970614145685 161.5,192.12752567925781 167.95926966291154,193.06212281090848 177.5154494381859,197.73503744676418 177.9831460674177,197.65257527322683 178.53932584269205,196.22322507583885 178.00842696626205,197.7075500596984 177.74297752807615,197.76252482976997 173.62219101120718,196.0170678835857 168.79353932588128,193.33700341904478 164.38202247186564,192.5948248369532" stroke="yellow" stroke-linecap="round" stroke-linejoin="round" stroke-width="0.5"><title>2024-12-09 12.1km</title><desc>1733738831000</desc></polyline><polyline fill="none" points="22.73515551368473,225.51881740322278 27.811969839734957,227.8153353616508 28.3972667294438,226.48723205341958 28.855325164913666,226.23821162570675 32.138077285548206,226.37655634898692 34.13572101783939,227.16511930373963 38.5,227.31729773411644 34.5556079170201,227.23429133299214 32.35438265779521,226.47339759395982 28.89349670126103,226.2935495273996 28.460885956592392,226.43189420946874 27.8374175306526,227.8430040795938 23.816682375094388,226.16903922545316 18.701696512755007,223.40212208482262 18.243638077226933,223.4159567730967 17.658341187576298,223.028585112188 14.032045240339357,222.5443693996349 13.573986804869492,222.3230132247554 13.357681432622485,222.50286513693572 11.767200754024088,222.2538393659779 15.533459000929724,222.64121264315327 18.701696512755007,223.34678332146723 22.03534401510842,224.9931044781988 22.976908576849382,225.68483170191757 27.621112158347387,227.8153353616508 27.926484448602423,227.69082607999735 28.460885956592392,226.40422528130875 28.753534401475918,226.1828737075557 29.88595664460445,226.37655634898692 32.328934966993984,226.39039081564988 34.36475023563253,227.17895371167106 38.41093308193376,227.26196013748995 34.26295947219478,227.13745048482087 32.328934966993984,226.4180597458908 28.842601319483947,226.26588057864865 28.320923656923696,226.70858326436428 27.824693685164675,227.8430040795938 23.09142318571685,225.79550781860598 18.68897266726708,223.40212208482262 18.396324222441763,223.4574608316616 16.754948162066285,222.9179073463456 11.5,222.1569959204062 16.996701225289144,222.9179073463456 18.28180961351609,223.38828739552991 18.76531573984539,223.37445270523313 20.40669180022087,224.27370543213328" stroke="#4DD2FF" stroke-linecap="round" stroke-linejoin="round" stroke-width="0.5"><title>2024-12-06 9.2km</title><desc>1733479157000</desc></polyline><polyline fill="none" points="51.73913043469656,222.56388643894752 55.17251051886706,222.9756298893044 55.904628330958076,223.42854662169702 56.308555399707984,223.34619820771331 61.01683029450942,225.98132919649652 65.13183730712626,227.80668429371144 65.54838709672913,227.68316459449125 65.99018232815433,226.50286106974818 66.46984572231304,226.31071791979775 69.87798036460299,226.4754120605794 71.79663394106319,227.20280942133104 76.0,227.3400538843125 71.84712482464965,227.20280942133104 69.85273492278066,226.5165855727828 66.4067321177572,226.29699340139632 65.964936886332,226.57148357472033 65.33380084147211,227.83413310452306 60.67601683025714,225.85780827343115 59.61570827488322,225.130405602089 56.321178120560944,223.4559960848419 55.95511921454454,223.48344554388314 55.03366058901884,223.04425370819808 49.0,222.1658668954624 55.03366058901884,223.03052894645953 56.9270687236567,223.82656343693088 56.37166900414741,223.4559960848419 51.75175315560773,222.5776112354797" stroke="#4DD2FF" stroke-linecap="round" stroke-linejoin="round" stroke-width="0.5"><title>2024-12-03 5.6km</title><desc>1733220329000</desc></polyline><polyline fill="none" points="90.02447552455124,222.7007196889026 92.57972027972573,222.97444764526153 93.44825174828293,223.48084328924597 94.55594405595912,223.61770673717547 95.75174825178692,224.3978264432517 97.38811188808177,225.01370808160573 98.43286713288398,225.8211942124908 102.92657342663733,227.79199291770055 103.49300699302694,226.57393232446339 103.94615384622011,226.2728374497965 107.38251748256152,226.46444333624095 109.49720279726898,227.24455095360463 112.4552447553142,227.2171788125852 113.5,227.299295223449 113.18531468533911,227.38141159756924 109.37132867134642,227.27192309054954 107.38251748256152,226.51918783852307 103.9335664336104,226.32758200916578 103.55594405601732,226.5055017144623 102.976923077018,227.80567894590786 102.70000000001164,227.833050999252 98.0426573426812,225.83488038752694 95.52517482516123,224.3978264432517 92.4664335664711,223.0291931875836 86.5,222.19432189429062 92.68041958048707,223.00182041845983 94.46783216786571,223.8230017178721 92.44125874125166,223.0702523336222 86.52517482516123,222.16694900076254 90.17552447557682,222.67334687081166" stroke="#4DD2FF" stroke-linecap="round" stroke-linejoin="round" stroke-width="0.5"><title>2024-12-02 6.1km</title><desc>1733112856000</desc></polyline><polyline fill="none" points="124.0,221.28143743368855 124.79999999998836,221.61488187905343 126.64000000001397,224.0794535371242 126.47999999998137,223.91998219798552 126.82666666666046,223.90548479702557 127.28000000002794,223.3545827605849 128.93333333334886,223.60103912759223 129.54666666663252,224.00696658098605 130.77333333331626,224.25342212164833 132.09333333326504,225.07977077427495 133.69333333329996,225.68865700965398 134.53333333332557,226.42801630546455 139.33333333331393,228.6170832394564 139.72000000003027,228.6170832394564 140.30666666664183,227.26885287500045 140.69333333329996,227.0803898218437 144.38666666665813,227.26885287500045 146.66666666662786,228.08069163264008 151.0,228.12418289908965 146.69333333335817,228.10968581135967 144.39999999996508,227.2978471746319 140.7333333333372,227.109384149604 140.33333333331393,227.28335002534732 139.61333333334187,228.71856256631145 135.0266666666139,226.7904463067971 131.9199999999837,225.03627882743604 128.8133333332953,223.61553655120952 125.04000000003725,223.16611591634864" stroke="#4DD2FF" stroke-linecap="round" stroke-linejoin="round" stroke-width="0.5"><title>2024-11-29 4.6km</title><desc>1732853630000</desc></polyline><polyline fill="none" points="163.786602870794,224.12914340617135 163.5928229665151,224.24151509003423 164.41961722489214,224.25556154578226 163.70909090916393,224.1712827954907 164.35502392344642,224.2274686331948 164.27751196169993,224.4241189334134 165.3110047846567,223.0897021553974 167.7397129186429,222.92114357471291 168.51483253587503,223.342539743855 169.6129186602775,223.5672839822655 173.9148325358983,226.0254066001653 178.2296650717617,227.89355835648894 178.8755980861606,226.53107356419787 179.26315789471846,226.34847176140465 182.93205741629936,226.53107356419787 184.79234449757496,227.28957146753964 188.5,227.33171015049447 184.86985645932145,227.261479007022 182.66076555021573,226.4889347023418 179.21148325363174,226.29228655573388 178.90143540670397,226.4748884129367 178.2296650717617,227.87951217172667 173.65645933011547,226.0254066001653 168.92822966509266,223.3846793089615 167.50717703351984,222.9492366819468 161.5,222.1064416435256 167.63636363635305,222.92114357471291 168.42440191394417,223.32849322004768 169.251196172263,223.4408653811115 172.58421052637277,225.21071808320994 167.5976076555089,222.97732978500426 164.35502392344642,222.54188621713547" stroke="#4DD2FF" stroke-linecap="round" stroke-linejoin="round" stroke-width="0.5"><title>2024-11-28 6.3km</title><desc>1732767063000</desc></polyline><polyline fill="none" points="11.681208053720184,251.77369205487776 15.66778523492394,252.44687454985979 16.573825503408443,252.92302678020496 16.996644295344595,252.89018872838642 21.149328859057277,254.92613868853368 22.583892617432866,255.87843140719633 27.838926174503285,258.1770520508435 28.578859060420655,256.5844388700061 29.122483221522998,256.2889011375082 33.12416107376339,256.5023450951703 34.966442953038495,257.27402537131275 36.56711409392301,257.5367244233348 38.5,257.4874683749222 35.58557046978967,257.43821231552283 33.395973154343665,256.5844388700061 29.273489932937082,256.37099499189935 28.65436241606949,256.61727637136937 27.838926174503285,258.2263079451368 22.115771812095772,255.8127561793517 16.996644295344595,252.89018872838642 16.619127516809385,252.97228384877963 15.32046979869483,252.39761736385117 11.5,251.8886257971899" stroke="#4DD2FF" stroke-linecap="round" stroke-linejoin="round" stroke-width="0.5"><title>2024-11-25 4.0km</title><desc>1732507947000</desc></polyline><polyline fill="none" points="49.0,250.3820539493172 54.50401284114923,251.08889195811935 55.99919743184,251.96065665973583 56.82263242395129,251.86641194298863 58.339486356358975,252.36119639253593 59.92134831473231,253.49212937030825 62.91171749611385,254.78798510192428 65.23033707868308,256.3901266656467 70.47431781701744,258.43991359628853 72.22953451052308,259.5001430026896 72.6845906903036,259.311658034625 73.65971107548103,257.02626885892823 76.0,256.97914725885494 73.74638844304718,257.09695124591235 72.48956661322154,259.6179460506828 65.57704654906411,256.7435391532199 56.7792937400518,252.03134017882985 56.194221508922055,252.14914600894554 58.27447833074257,252.54968550303602 59.29293739970308,253.49212937030825 61.0914927769918,253.98691127626807 65.1869983949,256.437248353468 71.75280898890924,259.35877928716945 72.6845906903036,259.4530217712163 73.65971107548103,257.002708059852 72.61958266457077,259.6179460506828 65.68539325846359,256.69641751106246" stroke="#4DD2FF" stroke-linecap="round" stroke-linejoin="round" stroke-width="0.5"><title>2024-11-20 4.0km</title><desc>1732095798000</desc></polyline><polyline fill="none" points="88.0772703133407,252.06118933402468 92.06346255977405,252.63804590460495 93.02416356879985,253.12135694212338 93.68374933610903,253.18371957530326 97.36882634094218,255.00781837440445 98.34386617102427,255.7561620000488 103.59187466808362,258.0791282917635 103.83563462557504,258.04794770693115 104.42352628783556,256.67599737366254 104.85369091870962,256.34859880578006 108.83988316514296,256.56686457463366 110.93335103557911,257.4087446934136 113.5,257.50228671974037 110.89033457246842,257.4243350340548 108.61046202864964,256.55127417010954 104.939723844931,256.3641892253945 104.33749336161418,256.76953972753836 103.77827934140805,258.11030887201196 98.44423791824374,255.91206658522424 94.34333510353463,253.6202574873605 92.03478491771966,252.70040868186334 86.5,251.8896911280026" stroke="#4DD2FF" stroke-linecap="round" stroke-linejoin="round" stroke-width="0.5"><title>2024-11-19 4.1km</title><desc>1731989484000</desc></polyline></svg>