<?xml version="1.0" encoding="utf-8" ?>
<svg baseProfile="full" height="300mm" version="1.1" viewBox="0,0,200,300" width="200mm" xmlns="http://www.w3.org/2000/svg" xmlns:ev="http://www.w3.org/2001/xml-events" xmlns:xlink="http://www.w3.org/1999/xlink"><defs /><rect fill="#222222" height="300" width="200" x="0" y="0" /><text fill="#FFFFFF" style="font-size:12px; font-family:Arial; font-weight:bold;" x="10" y="20">Over 4km Runs</text><text fill="#FFFFFF" style="font-size:4px; font-family:Arial" x="10" y="280">ATHLETE</text><text fill="#FFFFFF" style="font-size:9px; font-family:Arial" x="10" y="290">Fake David</text><text fill="#FFFFFF" style="font-size:4px; font-family:Arial" x="65" y="280">SPECIAL TRACKS</text><rect fill="yellow" height="2.6" width="2.6" x="65" y="283" /><text fill="#FFFFFF" style="font-size:3px; font-family:Arial" x="70" y="285.5">Over 10.0 km</text><rect fill="red" height="2.6" width="2.6" x="65" y="287" /><text fill="#FFFFFF" style="font-size:3px; font-family:Arial" x="70" y="289.5">Over 15.0 km</text><text fill="#FFFFFF" style="font-size:4px; font-family:Arial" x="120" y="280">STATISTICS</text><text fill="#FFFFFF" style="font-size:3px; font-family:Arial" x="120" y="285">Number: 34</text><text fill="#FFFFFF" style="font-size:3px; font-family:Arial" x="120" y="290">Weekly: 2.6</text><text fill="#FFFFFF" style="font-size:3px; font-family:Arial" x="141" y="285">Total: 276.4 km</text><text fill="#FFFFFF" style="font-size:3px; font-family:Arial" x="141" y="290">Avg: 8.1 km</text><text fill="#FFFFFF" style="font-size:3px; font-family:Arial" x="167" y="285">Min: 4.0 km</text><text fill="#FFFFFF" style="font-size:3px; font-family:Arial" x="167" y="290">Max: 13.0 km</text><polyline fill="none" points="14.348081023490522,44.2869757010194 11.77185501070926,43.97399728075834 12.923240938223898,43.9583483475144 18.75213219615398,44.75644245685544 19.572494669584557,45.21025932340126 20.06183368875645,45.194610482256394 24.12046908319462,47.19765267219918 24.984008528816048,47.94878856881405 29.22974413644988,49.670131534468965 30.194029850768857,50.32736785482848 30.66897654585773,50.04569539788645 30.798507462721318,48.60603027498291 31.028784648224246,48.41824714021641 32.8278251599404,48.699921779407305 35.418443496804684,48.715570359432604 37.37579957355047,49.48234935097571 38.78624733473407,49.685780042171245 42.485074626863934,49.63883451557194 38.743070362426806,49.63883451557194 37.47654584218981,49.46670082808123 35.605543710058555,48.762516092392616 31.143923240946606,48.46519293966412 30.82729211082915,48.66862461595156 30.56823027721839,50.23347707782523 30.1508528785198,50.34301631357812 28.164712153491564,49.263269924689666 25.17110874201171,48.08962625042477 20.11940298503032,45.27285467629554 19.644456289999653,45.31980117876083 18.44989339017775,44.75644245685544 16.85234541579848,44.7720913306548 11.714285714260768,43.895752602868015 18.478678038401995,44.7720913306548 19.572494669584557,45.28850351164874 20.11940298503032,45.21025932340126 24.379530916863587,47.604518282954814 29.22974413644988,49.717077054127 30.29477611934999,50.38996168284211 30.71215351810679,49.9361560070829 30.7841151386383,48.65297603244835 30.971215351833962,48.41824714021641 33.14445628999965,48.699921779407305 35.31769722816534,48.65297603244835 37.34701492538443,49.41975525248563 38.858208955207374,49.623186004318995 42.571428571420256,49.63883451557194 38.13859275053255,49.63883451557194 35.64872068230761,48.746867515917984 34.19509594881674,48.79381324186397 31.043176972307265,48.4025985381013 30.7841151386383,48.699921779407305 30.68336886994075,50.03004691700335 30.539445628994144,50.311719394871034 30.222814498934895,50.35866477114905 24.494669509585947,47.69841023506888 20.19136460556183,45.304152345779585 19.687633262306917,45.31980117876083 18.565031982958317,44.850335682116565 16.73720682307612,44.75644245685544 11.8726012793486,43.97399728075834 15.297974413668271,44.396518037930946 16.03198294242611,44.44346473623591 18.464285714318976,44.83468681416707 21.040511727100238,45.71102162437455 24.25,47.36978821908997 20.220149253786076,45.31980117876083 16.03198294242611,44.506060317653464" stroke="yellow" stroke-linecap="round" stroke-linejoin="round" stroke-width="0.5"><title>2025-02-21 11.3km</title><desc>1740135343000</desc></polyline><polyline fill="none" points="50.67118914605817,44.40163144652615 48.22905027936213,43.91741818777518 51.734237829223275,44.30791283858707 55.038308060669806,44.854604127729544 55.95770151633769,45.32319552658009 56.86272944929078,45.37005460886576 60.899441340821795,47.68175633130886 65.56823623302625,49.71228411422635 66.61691939341836,50.35267725912854 67.0909816439962,50.009051912333234 67.24900239420822,48.618925443981425 67.45011971273925,48.46273088277667 69.44692737428704,48.72826156755036 72.0327214684803,48.743881009097095 73.68475658417447,49.44675467563502 75.0925778131932,49.68104537419276 78.92817238619318,49.66542600246612 77.77893056662288,49.82161966768035 74.34557063045213,49.63418725543306 71.9465283320169,48.82197819952853 67.52194732642965,48.50958926335443 67.22027134872042,48.75950044952333 67.0047885075328,50.16524532157928 66.55945730244275,50.337057937387726 61.114924181893,47.900429498942685 56.56105347163975,45.35443491596379 55.900239425420295,45.32319552658009 54.82282521948218,44.854604127729544 53.0127693535178,44.74526598396187 48.14285714284051,43.901798386636074 54.894652833172586,44.807744930221816 56.44612928974675,45.24509703286458 60.22426177171292,47.11945285294496 61.48842777329264,47.97852700353542 66.77494014363037,50.27458063887025 67.0622505985084,50.024671258521266 67.16280925774481,48.71264212481037 67.36392657621764,48.46273088277667 71.88906624098308,48.72826156755036 73.69912210688926,49.44675467563502 75.1500399041688,49.68104537419276 79.0,49.71228411422635 77.40542697522324,49.83723902779457 74.35993615322514,49.64980662953167 72.0327214684803,48.82197819952853 67.47885075816885,48.49396980430174 67.17717478045961,48.79073932686879 67.1053471667692,49.993432565024705 66.81803671189118,50.383915899088606 62.0199521149043,48.306536205185694 56.57541899441276,45.32319552658009 56.08699122106191,45.35443491596379 54.90901835594559,44.87022385788441 51.130885873921216,44.38601168144669 52.36632083001314,44.526589525310555 54.82282521948218,44.807744930221816 57.25059856346343,45.729307225046796 56.61851556261536,45.32319552658009 55.84277733438648,45.30757583017112 54.449321628082544,44.79212519539578 53.19952114921762,44.77650545942015 48.846767757378984,43.964277584294905" stroke="yellow" stroke-linecap="round" stroke-linejoin="round" stroke-width="0.5"><title>2025-02-19 10.6km</title><desc>1739962218000</desc></polyline><polyline fill="none" points="86.81059390050359,44.14276506616443 84.57142857142026,43.922859547426924 88.37078651686898,44.33125532824488 91.40449438203359,44.86531015561195 92.24237560195616,45.28941155473876 92.84911717497744,45.25799666551757 98.15088282502256,48.17956133559346 103.23595505621051,50.36285473826865 103.48154093103949,50.04871319506492 103.6404494382441,48.68219203586341 103.88603531301487,48.50941286784655 108.46548956667539,48.792142341830186 110.53130016051,49.64032848921488 115.42857142857974,49.73457118382794 110.79133226320846,49.67174272541888 108.40770465490641,48.80784952372778 104.17495987162692,48.50941286784655 103.92937399679795,48.77643515878299 103.66934189404128,48.71360641489446 103.48154093103949,50.14295570716786 103.03370786522282,50.31573353661224 97.18298555380898,47.724051228462486 92.87800963077461,45.32082643925969 91.24558587482898,44.83389520320634 85.68378812196897,44.04851987192524" stroke="#4DD2FF" stroke-linecap="round" stroke-linejoin="round" stroke-width="0.5"><title>2025-02-18 4.9km</title><desc>1739836925000</desc></polyline><polyline fill="none" points="124.33669151720824,44.16161831950012 124.29316945391474,44.540193852910306 125.88897844048915,44.492871948255925 128.00705218617804,44.85567294700013 130.7779568809201,46.33841839211527 132.27221438643755,46.82740663430013 133.66492041107267,47.836927174648736 138.35079588956432,49.76131237165828 139.42434011684963,50.40802806057036 139.81603868631646,50.10833079180156 139.917590167257,48.70448004330683 140.14970783801982,48.49942241336976 144.71952448110096,48.86221654662222 146.83759822684806,49.69821805234824 151.8571428571595,49.79285952428472 146.99717912549386,49.60357653815299 144.7485391899827,48.767574658748345 140.26576667337213,48.483648741283105 140.00463429372758,48.767574658748345 139.93209752166877,50.01368946087314 139.69997985096416,50.34493393394223 134.3757807777729,48.12085395933536 130.08160386863165,45.69169027269527 127.89099335076753,44.80835111284978 121.0,43.87768622516887 127.93451541406102,44.824125058730715 129.93653032445582,45.72323803170002 127.93451541406102,44.824125058730715" stroke="#4DD2FF" stroke-linecap="round" stroke-linejoin="round" stroke-width="0.5"><title>2025-02-14 5.4km</title><desc>1739506837000</desc></polyline><polyline fill="none" points="160.80109428172,44.37699793292268 163.395342630276,44.6904143892898 165.73016614402877,45.27023360230669 171.49516247416614,48.35735223162919 175.9197971575195,50.378841913014185 176.28010942816036,50.31616035429761 176.8421965704183,48.9058203445893 177.2601588043617,48.576739648444345 181.35330619872548,48.81179734109901 183.65930473076878,49.73635505048151 188.28571428568102,49.783366350864526 183.55841729498934,49.73635505048151 181.31006872624857,48.8431383469142 177.33222125843167,48.63942172547104 176.94308400619775,48.82746784457413 176.15039701078786,50.378841913014185 171.1925001668278,48.37302276896662 165.77340361644747,45.33291666471632 164.46186695137294,44.90980563084304 157.42857142857974,43.90687237272505 164.26009207981406,44.81578084103239 165.84546607063385,45.33291666471632 171.2213251485373,48.26332898292458 175.8765596851008,50.347501135998755 176.30893440986983,50.23780837960658 176.89984653366264,48.85880884807557 177.36104624014115,48.63942172547104 181.36771868960932,48.85880884807557 183.55841729498934,49.6893437395629 188.28571428568102,49.767695918577374 186.31120304268552,49.877388920111116 183.5440048042219,49.6580028598255 181.2812437445973,48.8431383469142 177.31780876760604,48.56106912622636 176.94308400619775,48.81179734109901 176.294521918986,50.28481956793985 176.06392206583405,50.33183074570843 170.9330753320246,48.16930569220858 166.27784079540288,45.567977982442244 164.80776673118817,44.956818009974086 157.45739641028922,43.938214109424734 161.11816907988396,44.25163121963851 164.46186695137294,44.81578084103239 166.46520317613613,45.85005121694121 165.71575365320314,45.31724590086378 165.52839127241168,45.41127046647307 164.24567958904663,44.84712244231196" stroke="yellow" stroke-linecap="round" stroke-linejoin="round" stroke-width="0.5"><title>2025-02-12 10.1km</title><desc>1739334019000</desc></polyline><polyline fill="none" points="36.52360515022883,83.58050985132286 37.81851624767296,84.02848897858348 42.571428571420256,84.06048745193402 37.980380134889856,84.09248592048243 35.77314530964941,83.10053117800271 31.446965052105952,82.81254345910565 30.505211526644416,84.620459963553 30.225628448824864,84.66845753947564 24.457388105394784,82.14057061325002 22.912323727738112,81.1486068550148 18.8215818516328,79.22866398375481 11.714285714260768,78.10868938165368 18.556713672587648,79.05266836166265 20.837522991991136,79.93264502960665 23.736358062538784,81.34060019809112 25.193133047199808,82.36456179548986 30.122624156880192,84.58846157367225 30.519926425477024,84.4444687600917 31.123237277730368,83.00453531464154 31.491109748603776,82.79654413010576 34.13979153888067,83.08453187045234 35.464132434048224,83.00453531464154 37.83323114650557,83.98049125963007 42.380134886538144,84.04448821583355 36.155732679297216,83.59650912194047 36.229307173518464,84.04448821583355 36.096873083966784,83.51651275686163 35.56713672593469,83.27652348276752 31.491109748603776,82.86054143907677 31.196811771951616,83.02053462814365 30.387492335983552,84.74845347550581 24.8399754751008,82.36456179548986 23.824647455534432,81.54859279269294 21.955855303502176,80.65262325767253" stroke="#4DD2FF" stroke-linecap="round" stroke-linejoin="round" stroke-width="0.5"><title>2025-02-10 6.3km</title><desc>1739162078000</desc></polyline><polyline fill="none" points="48.36338647606317,80.18416733530466 50.229403911100235,80.23947446333477 58.64344616350718,81.47466377829551 61.221942982811015,81.36405006030691 61.44247231603367,82.21208730510261 62.40940862323623,82.26739398129575 63.54598287906265,82.69141142285662 64.32631744281389,81.56684183895413 71.28147333691595,81.43779254447145 71.654676823935,82.08303834604158 72.09573549043853,82.1936517436261 72.38412000308745,82.02773162875383 72.67250451579457,81.25343629311828 73.99568051513052,81.16125811608799 79.0,81.78806904483645 74.30102882272331,81.14282247655501 72.62161313125398,81.23500066043925 72.29930102877552,82.02773162875383 72.01091651606839,82.17521618075261 71.28147333691595,81.41935692545667 64.41113641718403,81.52997061879432 63.9191863660817,81.86181140302506 63.579910468892194,82.70984694737126 61.527291290287394,82.23052286524035 61.527291290287394,81.5115350066626 61.306761957122944,81.32717881006829 58.81308411207283,81.45622816206014 50.92491950042313,80.2947815789812 48.14285714284051,80.16573162321583 50.55171601346228,80.25791016989388 58.270242676488124,81.41935692545667 61.18801539303968,81.32717881006829 61.425508521089796,82.1936517436261 63.56294667394832,82.69141142285662 64.0718605198781,81.7327622618468 64.51291918626521,81.52997061879432 71.2136181575479,81.41935692545667 71.68860441370634,82.10147391571081 72.02788031095406,82.17521618075261 72.38412000308745,81.95398931989621 72.51983036205638,81.34561443587882 72.94392523361603,81.1796937542531 78.6437603078084,81.7327622618468 74.53852195077343,81.14282247655501 72.87607005413156,81.14282247655501 72.41804759285878,81.38248568342533 72.12966308015166,82.17521618075261 71.79038718290394,82.10147391571081 71.26450954208849,81.38248568342533 64.34328123769956,81.5115350066626 63.936150160909165,81.82494022665196 63.59687426366145,82.69141142285662 61.51032749545993,82.21208730510261 61.306761957122944,81.25343629311828 58.54166339430958,81.36405006030691 50.02583837270504,80.14729590977367 48.533024424745236,80.20260304601106 50.05976596241817,80.18416733530466 59.30503416317515,81.4930993931921 61.2728343672934,81.32717881006829 61.459436110861134,82.21208730510261 62.78261211019708,82.37800729674927 61.527291290287394,82.1936517436261 61.18801539303968,81.27187192440033 58.62648236862151,81.38248568342533 50.80617293645628,80.23947446333477 48.719626168196555,80.20260304601106 50.958847090252675,80.2947815789812" stroke="#4DD2FF" stroke-linecap="round" stroke-linejoin="round" stroke-width="0.5"><title>2025-01-25 9.9km</title><desc>1737761473000</desc></polyline><polyline fill="none" points="84.98285714280792,79.9195225485164 95.04571428569034,81.37268526187108 97.95999999996275,81.24227356730262 97.94285714282887,82.43460653677175 99.074285714305,82.49049700566684 100.05142857140163,82.93762030861399 100.87428571429336,81.72665951962699 107.88571428565774,81.55898756504757 108.5371428570943,82.37871605542023 108.96571428567404,82.2483048838476 109.08571428572759,81.55898756504757 109.35999999992782,81.35405502394133 115.42857142857974,81.93159175637993 110.69714285712689,81.29816430184292 109.20571428566473,81.42857596733666 108.74285714287544,82.3600858922 108.36571428569732,82.2483048838476 108.21142857143423,81.68939909496112 107.88571428565774,81.54035734095669 100.90857142850291,81.67076888056181 100.56571428565076,81.85707096237456 100.1542857142631,82.90036006379523 98.062857142766,82.39734621722891 97.90857142856112,81.46583643078338 95.52571428567171,81.63350844757224 86.18285714281956,80.27349885678268 84.57142857142026,80.29212917493714 86.66285714285914,80.34802012116415 94.9942857142305,81.5962480090966 97.66857142857043,81.44720619975124 97.89142857142724,81.65213866478007 97.89142857142724,82.3041953942593 100.05142857140163,82.90036006379523 100.85714285710128,81.68939909496112 107.86857142852386,81.54035734095669 108.29714285710361,82.2483048838476 108.6914285714156,82.3600858922 109.42857142857974,81.33542478464369 114.39999999996508,81.72665951962699 109.56571428570896,81.27953405839799 109.08571428572759,81.42857596733666 109.0,82.15515400553704 108.6914285714156,82.32282556161226 107.86857142852386,81.48446666038944 100.94285714282887,81.67076888056181 100.49714285717346,81.95022195141064 100.10285714286147,82.86309981344675 98.04571428574855,82.3600858922 97.78857142856577,81.40994573359785 95.50857142859604,81.61487822899653 86.35428571427474,80.25486853721668 84.94857142859837,80.31075949170918 86.52571428567171,80.27349885678268 88.71999999997206,80.62747466555447" stroke="#4DD2FF" stroke-linecap="round" stroke-linejoin="round" stroke-width="0.5"><title>2025-01-19 8.1km</title><desc>1737283232000</desc></polyline><polyline fill="none" points="125.07873490353813,78.62353779278055 127.6585707613267,78.9839665429754 128.7539200640167,79.54811465121747 129.56101955025224,79.5637854104134 133.3947421097546,81.5696329469065 133.87035430705873,82.00840954572777 138.5544138252735,84.0142337703146 139.60652565554483,84.67239067645278 139.89477547205752,84.50001644765143 140.5145125775598,83.04266505004489 140.91806232061936,82.80760742741404 144.70854740776122,82.99565354651713 147.1298458664096,83.8575294415059 151.85714285710128,83.98289291388937 147.02895843057195,83.8575294415059 144.83825982513372,82.96431253835908 140.9757122839801,82.77626639121445 140.52892506832723,82.94864203252655 139.88036298117368,84.50001644765143 139.6785881096148,84.59403877178556 134.47567892173538,82.41584413932287 129.38806966034463,79.5951269252837 128.98451991722686,79.62646843548282 127.77387068787357,79.09366212700843 124.45899779809406,78.78024602093501 121.0,78.1220706779859 127.99005805031629,79.14067450260336 129.4601321144728,79.57945616841607 134.7351037565386,82.46285577242088 138.54000133444788,84.02990419679554 139.47681323811412,84.70373143011238 139.86595049040625,84.57836838735966 140.50010008667596,83.13668802555185 140.9757122839801,82.88595999748213 144.93914726091316,83.0740060465323 147.1730833388865,83.8888703166158 151.85714285710128,84.0142337703146 147.14425835717702,83.98289291388937 144.78060986183118,83.08967654305161 140.96129979309626,82.88595999748213 140.5577500500367,83.0740060465323 139.88036298117368,84.62537953714491 139.36151331150904,84.6410499180638 133.6109294721973,82.00840954572777 129.51778207777534,79.67348069202853 128.9989324080525,79.70482219052792 127.87475812371122,79.17201608054165 121.05764996324433,78.16908327079727 128.14859544939827,79.15634529215458 128.94128244474996,79.6107976809435 129.40248215111205,79.5637854104134 134.72069126571296,82.47852631445858 139.69300060049864,84.73507217915903 140.61540001328103,83.0113240488572 142.15753653162392,83.0113240488572 140.8027623940725,82.99565354651713 139.88036298117368,84.65672029781854 139.44798825646285,84.59403877178556 133.5676919997204,82.00840954572777 129.47454460529843,79.65780994099623 129.05658237135503,79.68915144186758 127.90358310536249,79.15634529215458 124.67518516042037,78.78024602093501" stroke="yellow" stroke-linecap="round" stroke-linejoin="round" stroke-width="0.5"><title>2025-01-17 12.3km</title><desc>1737088953000</desc></polyline><polyline fill="none" points="160.5489566612523,78.48345645800873 160.7512038523564,78.13789059131523 161.63242375600385,78.719069224142 165.7351524879923,79.5358581081091 168.0465489565977,80.72962078468117 168.94221508828923,81.43645076242683 176.02086677373154,84.70354520328692 176.29534510429949,84.51506036160572 176.90208667732077,83.08571149522322 177.27768860349897,82.83439640719735 181.30818619579077,83.08571149522322 183.51845906901872,83.90248346253065 188.27126805775333,83.98101906185912 183.61958266451256,83.90248346253065 181.13483146065846,83.08571149522322 177.39325842697872,82.89722520729993 176.95987158908974,83.05429712563637 176.2808988763718,84.62500987305248 176.0930979133118,84.68783813959453 170.82022471912205,82.42600875026255 165.77849117171718,79.58298044718686 164.11717495991616,79.15887901643873 157.42857142857974,78.21642833804071 163.98715890850872,79.09604910227063 165.3595505618141,79.58298044718686 165.7495987158618,79.5358581081091 171.39807383628795,82.64590989459248 174.83627608342795,83.99672617820033 175.86195826646872,84.65642400867364 176.2520064205164,84.56218158782576 176.8731942215236,83.07000431099732 177.30658105941257,82.85010360897286 181.16372391651385,83.08571149522322 183.48956661310513,83.88677633913176 188.28571428568102,83.94960482565511 183.5617977528018,83.88677633913176 181.29373996786308,83.14854022041254 177.4077046549064,82.86581080962787 176.95987158908974,83.08571149522322 176.13643659709487,84.71925226581516 171.05136436590692,82.53595935109479 165.82182985550025,79.66151765553514 165.11396468698513,79.63010277569992 164.34831460675923,79.19029396648693 159.2199036918464,78.45204140261922" stroke="#4DD2FF" stroke-linecap="round" stroke-linejoin="round" stroke-width="0.5"><title>2025-01-15 9.1km</title><desc>1736916504000</desc></polyline><polyline fill="none" points="14.40439560438972,112.30445632622286 14.605794205795974,112.64857285592007 15.310689310717862,113.07089691683359 18.835164835152682,113.64963591679407 20.748451548453886,114.2752979058132 23.021378621342592,115.76123765681405 30.199800199712627,119.04590926189849 30.516283716307953,118.9677033922635 31.120479520468507,117.55999275807699 31.609590409556404,117.29409080070036 35.58001997997053,117.54435147577897 37.75224775215611,118.4046202711761 42.571428571420256,118.51410877410672 37.694705294736195,118.45154392228869 35.53686313680373,117.59127531912236 31.595204795128666,117.29409080070036 31.120479520468507,117.55999275807699 30.44435564428568,119.06155043232138 29.99840159836458,119.06155043232138 25.279920079861768,116.96562321200327 20.057942057959735,114.05631642174558 19.755844155850355,114.15016565717815 17.928871128882747,113.57142803703027 11.714285714260768,112.69549779350928 16.921878121851478,113.32116262610361 20.029170829162467,114.00939178830595 24.675724275701214,116.57458969826985 30.286113886046223,119.12411510235688 30.616983016952872,118.93642103626917 31.2931068931357,117.35665599742788 32.76043956039939,117.387938588814 31.33626373624429,117.41922117552895 30.401198801177088,119.10847393660515 24.920279720274266,116.87177523513674 20.144255744235124,114.08759950487001 18.461138861137442,113.60271119244862 13.929670329671353,112.97704719893227" stroke="#4DD2FF" stroke-linecap="round" stroke-linejoin="round" stroke-width="0.5"><title>2025-01-14 7.8km</title><desc>1736829619000</desc></polyline><polyline fill="none" points="52.3623920265818,113.11605686509574 52.118405315617565,112.77274162961112 52.69249169429531,112.83516262336343 57.51481727574719,114.38007629103959 60.485714285692666,115.846953469445 61.80611295683775,116.76764772765455 66.58538205979858,118.95232977336855 66.90112956805388,118.858701010191 67.54697674419731,117.39184492290951 67.9631893687183,117.14216626800771 71.85262458468787,117.39184492290951 73.71840531565249,118.15648395215976 75.05315614619758,118.32813722814899 79.0,118.32813722814899 73.99109634553315,118.2032984959369 71.8669767442043,117.39184492290951 68.00624584720936,117.12656134217104 67.59003322257195,117.29821546218591 66.9154817275703,118.858701010191 66.5136212624493,118.87430580696673 61.70564784045564,116.79885763159837 57.3138870432158,114.39568142146163 55.10365448502125,113.47497673686303 48.14285714284051,112.49184692748531 55.189767441828735,113.50618713142467 57.3138870432158,114.30205062140885 61.16026578069432,116.47115340833261 66.54232558136573,118.90551539698208 66.88677740865387,118.81188661287888 67.46086378733162,117.40744982892647 67.87707641202724,117.14216626800771 71.9817940199282,117.40744982892647 74.13461794017348,118.21890334151976 78.85647840530146,118.34374206447683 74.03415282390779,118.17208880123508 71.8813289036625,117.36063510732492 67.86272425251082,117.12656134217104 67.51827242522268,117.32942528705462 66.84372093027923,118.90551539698208 66.2983388704015,118.858701010191 65.56637873750878,118.35934689961141 61.50471760792425,116.73643781908322 56.395348837191705,113.84950116468826 54.859667774057016,113.4281611362967 48.20026578073157,112.4762416552112 56.42405315610813,113.83389599357906 61.53342192689888,116.64280806540046 65.60943521594163,118.32813722814899 66.55667774088215,118.93672498242813 66.88677740865387,118.84309621222201 67.51827242522268,117.31382037521689 67.92013289034367,117.12656134217104 71.7808637873386,117.32942528705462 73.77581395342713,118.12527425051667 74.98139534884831,118.25011302926578 73.71840531565249,118.12527425051667 71.73780730896397,117.32942528705462 67.94883720926009,117.07974655779253 67.54697674419731,117.26700563266058 66.90112956805388,118.78067700886459 66.38445182720898,118.79628181143198 65.04970099666389,118.06285483323154 61.53342192689888,116.70522790582618 56.380996677675284,113.84950116468826 54.400398671103176,113.350135112094" stroke="yellow" stroke-linecap="round" stroke-linejoin="round" stroke-width="0.5"><title>2025-01-10 13.0km</title><desc>1736482744000</desc></polyline><polyline fill="none" points="87.52736982645001,112.24161591223674 88.94045393861597,113.19798553914006 91.3917222963646,113.66832966278889 93.79973297729157,114.59333670571505 96.4096128171077,116.14545803207147 103.15781041391892,119.186955516343 103.47503337782109,118.93611202614557 103.60480640857713,117.55646748564322 103.79225634178147,117.32129990040266 108.3343124166131,117.61917879733664 110.71348464622861,118.49713519887882 115.35647530044662,118.60687949151907 110.51161548733944,118.45010191306937 108.3343124166131,117.63485662234598 103.87877169565763,117.30562205205206 103.59038718295051,117.63485662234598 103.47503337782109,118.99882292671828 103.15781041391892,119.186955516343 97.99572763685137,116.99206483953458 92.92016021365998,114.15435081941541 91.3340453938581,113.66832966278889 84.57142857142026,112.72764036417357 91.70894526038319,113.69968590031203 92.41548731643707,114.09163847519085 92.90574098797515,114.09163847519085 98.08224299066933,116.92935334093636 102.94152202940313,119.12424467178062 103.43177570094122,118.99882292671828 103.57596795732388,117.57214531535283 103.83551401871955,117.33697774756001 108.3343124166131,117.63485662234598 110.82883845129982,118.49713519887882 115.42857142857974,118.55984623024415 110.43951935920632,118.43442414877063 108.31989319092827,117.57214531535283 103.89319092122605,117.33697774756001 103.64806408545701,117.4937561552506 103.63364485983038,118.60687949151907 103.2587449933635,119.17127780693409 97.894793057465,116.94503121735761 92.94899866485503,114.1386727351346 91.23311081441352,113.66832966278889 84.57142857142026,112.68060578887525 89.6181575433584,113.32341074159194 92.84806408546865,114.06028229606454 97.59198931913124,116.70986294880277 102.97036048065638,119.12424467178062 103.37409879849292,119.01450064891833 103.69132176239509,118.23061310699268 103.37409879849292,119.09288924255816 102.73965287051396,118.99882292671828 97.98130841128295,116.9607090925565 92.92016021365998,114.04460420475516 92.58851802401477,114.12299464961688 91.47823765018256,113.58993904851377 89.64699599472806,113.38612331474724" stroke="yellow" stroke-linecap="round" stroke-linejoin="round" stroke-width="0.5"><title>2025-01-08 12.0km</title><desc>1736310892000</desc></polyline><polyline fill="none" points="124.28912041679723,113.81638505739102 124.72189941897523,113.12622455586097 124.77960328594781,112.4517473342712 125.0536966539803,112.21646407415392 125.37106792232953,112.2792063025554 125.22680825483985,112.38900515728164 126.62612702866318,112.9223130656028 127.34742536570411,113.51836148201255 130.30474854743807,114.55359945753298 135.2095772390603,117.20441288615984 139.62392306147376,119.16505223438435 139.9124423962785,118.88272129345569 139.95572029653704,117.58085705722624 140.35964736528695,117.31420917225478 144.7739931877586,117.62791253130126 147.08214786619646,118.50627945001179 151.8571428571595,118.60038997400261 147.05329593271017,118.47490926604951 144.831697054673,117.6592828414723 140.30194349831436,117.36126470589079 139.99899819673738,117.6749679948116 139.95572029653704,118.88272129345569 139.71047886193264,119.21210735441127 134.30074133444577,116.90639410671429 129.352634742565,114.13009362829325 128.8044480063836,114.13009362829325 127.79463033465436,113.64384514412086 121.0,112.7811434566247 127.99659386900021,113.78501417455846" stroke="#4DD2FF" stroke-linecap="round" stroke-linejoin="round" stroke-width="0.5"><title>2025-01-06 5.2km</title><desc>1736137119000</desc></polyline><polyline fill="none" points="161.42269692925038,113.34692872670712 161.4947930573835,112.75115777223255 161.97062750341138,112.04563735512784 162.3166889185668,113.2685379080358 161.8264352470287,113.59777915026643 162.73484646197176,113.55074471863918 165.7340453938814,114.2719381818024 169.80026702268515,116.18465670049773 170.56448598130373,116.8588074446161 176.04379172227345,119.28886778563901 176.37543391186045,119.08505735115614 176.43311081442516,117.76812363183126 176.70707610144746,117.51727817954088 181.45100133516826,117.84651277438388 183.72923898528097,118.70879141511978 188.28571428573923,118.78718020729139 183.54178905207664,118.67743589010206 181.29238985315897,117.79947929238551 176.76475300401216,117.51727817954088 176.49078771698987,117.75244579986611 176.3898531375453,119.08505735115614 176.10146862483816,119.36725636174378 170.9249666222022,117.2350766882737 166.68571428576251,114.83634873320989 164.55166889191605,113.974054224891 157.42857142857974,112.86090518007404 162.2734312416287,113.45667582380702 165.70520694262814,114.22490390086023 170.05981308413902,116.63931674178457 175.09212283039233,118.83421346855175 175.87076101469574,119.3829340734519 176.36101468623383,119.0380241459352 176.49078771698987,117.67405662227247 176.69265687576262,117.47024462393892 179.89372496661963,117.84651277438388 181.29238985315897,117.76812363183126 183.61388518020976,118.66175812581787 188.2712950601126,118.74014693548088 183.22456608811626,118.58336928696372 181.20587449939921,117.79947929238551 176.80801068095025,117.47024462393892 176.49078771698987,117.70541229682567 176.44753003999358,118.99099093023688 176.1303070760914,119.30454550321156 170.99706275033532,117.21939881658182 166.71455273695756,114.74228041307651 164.94098798400955,114.06812288844958 157.6160213618423,112.93929615060915" stroke="#4DD2FF" stroke-linecap="round" stroke-linejoin="round" stroke-width="0.5"><title>2025-01-03 9.5km</title><desc>1735878536000</desc></polyline><polyline fill="none" points="14.792773502878845,147.0063588594785 16.59939779189881,147.50923487484397 18.66617597854929,147.69781307148514 19.663432586181443,148.20068743826414 20.03921043826267,148.15354301730986 24.33174974907888,150.52646578938584 30.09849447972374,153.18222187079664 30.53208430914674,153.1036496856541 31.124657075910363,151.67363080236828 31.558246905333363,151.42219790874515 35.431649381062016,151.65791625528072 37.72967547678854,152.522214605895 42.57142857136205,152.6636449079233 38.09100033453433,152.53792908859032 35.60508531273808,151.73648897896055 31.58715289394604,151.50077072015847 31.124657075910363,151.75220352018368 30.358648377412464,153.2450795978366 24.750886584166437,150.88790201455413 20.02475744392723,148.2478318486974 19.648979591846,148.27926144975936 18.492740046873223,147.7292427545326 16.859551689529326,147.65066853811732 11.714285714260768,146.7549204021634 18.608364001323935,147.71352791356912 20.646236199361738,148.67213106823328 18.738440950168297,147.7606724328798 14.503713616577443,147.1163630902738" stroke="#4DD2FF" stroke-linecap="round" stroke-linejoin="round" stroke-width="0.5"><title>2025-01-02 5.6km</title><desc>1735817809000</desc></polyline><polyline fill="none" points="51.70440587447956,147.13093990024936 55.13618157542078,147.69535322708543 56.145527369808406,148.22840886792983 57.11161548731616,148.40086775674718 62.36021361820167,151.28561366915528 66.78691588784568,153.19830383110093 67.16181575425435,152.80636054188653 67.57997329765931,151.75594892726804 68.08464619494043,151.50510358707106 71.79038718290394,151.63052629455342 74.50120160210645,152.61822750381543 79.0,152.64958302181913 77.2408544725622,152.75932729811757 74.24165554065257,152.57119421799143 71.99225634179311,151.69323762027489 68.09906542056706,151.47374789853347 67.65206942590885,151.64620412775548 66.98878504673485,153.13559295385494 66.7436582109658,153.24533697671723 59.678237650194205,150.14112681659753 56.43391188245732,148.22840886792983 55.9724966622307,148.25976504007122 54.977570093469694,147.75806572551664 48.14285714284051,146.7389853103523 54.45847797062015,147.61696257778385 56.087850467301905,148.19705269114638 56.43391188245732,148.1029841327545 61.06248331110692,150.70553206972545 66.7436582109658,153.26101468963316 67.69532710278872,151.59917062471504 68.08464619494043,151.44239220533927 69.18050734308781,151.58349278800597 67.66648865147727,151.56781495016185 66.98878504673485,153.10423750824702 66.72923898528097,153.18262611352839 61.4950600801385,150.97205624639173 56.650200266973116,148.27544312435202 56.00133511348395,148.22840886792983 54.84779706271365,147.71103135345038 53.60774365818361,147.75806572551664 48.575433911872096,146.78601989970775 51.747663551417645,147.3817904546304" stroke="#4DD2FF" stroke-linecap="round" stroke-linejoin="round" stroke-width="0.5"><title>2024-12-31 8.0km</title><desc>1735619151000</desc></polyline><polyline fill="none" points="88.86835781042464,147.35043434910767 89.92096128175035,147.38179064968426 92.93457943928661,148.0873061780876 94.6937249666662,149.02798986976268 95.1983978638309,149.54536410771834 103.27316421899013,153.19830359282787 104.03738317760872,151.70891532146197 104.4699599466403,151.47374778875383 108.46408544731094,151.69323749410978 110.45393858477473,152.49280519923195 115.41415220295312,152.6182273087179 110.64138851809548,152.57119402644457 108.43524699599948,151.70891532146197 104.48437917232513,151.47374778875383 104.06622162886197,151.66188183591294 103.201068090857,153.26101444668893 98.32736982643837,151.1758685366949 93.91508678242099,148.7457852037769 91.34846461948473,147.7267096479918 84.57142857142026,146.73898555329652 90.02189586113673,147.4445032368676 92.89132176240673,148.1029842740827 98.32736982643837,151.05044556762732 103.07129506010097,153.24533673496626 103.43177570094122,153.104237276988 104.03738317760872,151.69323749410978 104.5276368491468,151.42671425067238 108.37757009349298,151.66188183591294 110.71348464622861,152.5241607336211 115.42857142857974,152.53983849904034 110.88651535386452,152.5555162633391 108.36315086780814,151.69323749410978 104.45554072095547,151.44239209782972 104.03738317760872,151.66188183591294 103.40293724968797,153.08855955358013 103.17222963954555,153.19830359282787 97.9524699599715,151.00341193492932 93.00667556747794,148.2284089998866 90.84379172232002,147.69535339878348 84.80213618156267,146.81737652383163 91.1610146862804,147.67967527241854 92.4875834446284,148.21273091326293 93.04993324435782,148.15001855502487 97.63524699601112,150.68985411505855 92.97783711616648,148.18137473647948 88.6232309746556,147.3661124999635" stroke="yellow" stroke-linecap="round" stroke-linejoin="round" stroke-width="0.5"><title>2024-12-30 10.8km</title><desc>1735533491000</desc></polyline><polyline fill="none" points="125.33208955224836,147.2927817528107 128.15298507467378,147.76224843872478 128.9445628998219,148.2160652376333 129.34754797443748,148.16911871770571 130.16791044780985,148.51339295350772 133.69402985076886,150.5164318603638 139.4221748400596,153.14539143860748 139.8395522388164,153.1610399090132 140.44402985071065,151.67443001485663 140.91897654591594,151.4084039766458 144.7041577824857,151.65878143369628 146.96375266520772,152.53510018327506 151.8571428571595,152.61334275102126 147.1508528785198,152.53510018327506 144.84808102349052,151.69007859488192 140.86140724946745,151.43970117511344 140.4728144989349,151.67443001485663 139.96908315567998,152.94196121716232 139.58049040508922,153.2236337790091 134.19776119402377,150.95459407499584 130.36940298508853,148.76377386153035 128.18176972283982,147.87179051445855 121.0,146.74506929298514 127.93710021325387,147.74659956610412 130.7004264392308,148.76377386153035 133.60767590621253,150.5164318603638 139.53731343278196,153.25493070701486 139.82515991467517,153.17668837824021 140.4872068230179,151.69007859488192 140.89019189763349,151.50229555800615 144.81929637526628,151.7213757513673 146.97814498934895,152.55074869914097 151.81396588485222,152.59769423976832 150.34594882733654,152.7228822968318 147.05010660976404,152.55074869914097 144.80490405118326,151.65878143369628 140.9045842217747,151.43970117511344 140.50159914715914,151.6118356832303 139.8395522388164,153.1297429670085 139.40778251597658,153.1923368463613 134.74466950958595,151.1580262211064 133.21908315562177,150.21910697990097 128.15298507467378,147.8091950496164 121.73400852875784,146.9015587129834" stroke="#4DD2FF" stroke-linecap="round" stroke-linejoin="round" stroke-width="0.5"><title>2024-12-27 9.1km</title><desc>1735273142000</desc></polyline><polyline fill="none" points="182.24405874492368,151.85785474946897 181.11935914546484,151.54429828443972 179.92256341781467,151.68539875152055 177.11081441916758,151.41887556767324 176.1158878504648,153.2061422255938 170.8817089452059,151.07396271095786 165.6907877168851,148.2205710317503 165.27263017353835,148.267605274159 164.1479305740795,147.76590614652378 157.42857142857974,146.69979152864835 162.12923898530426,147.4523435843439 162.5906542055891,147.37395287078107 165.89265687583247,148.20489294860454 169.56955941248452,150.05489869556914 170.11748998664552,150.55659236600331 175.7986648865044,153.15910908694786 176.21682242985116,153.12775365535344 176.7935914552072,151.68539875152055 177.25500667555025,151.403197722786 181.23471295053605,151.6540431003814 183.67156208271626,152.56335508762277 188.28571428568102,152.68877712237008 183.1957276368048,152.46928851252596 181.40774365817197,151.70107657535118 177.24058744986542,151.41887556767324 176.93778371158987,151.51294261225848 176.2889185581007,153.17478680096974 176.00053404533537,153.30020847135165 174.76048064086353,152.56335508762277 170.70867823756998,150.96421759256918 165.9647530040238,148.18921486432373 162.7060080106603,147.4523435843439 159.2886515353457,146.99767703918042" stroke="#4DD2FF" stroke-linecap="round" stroke-linejoin="round" stroke-width="0.5"><title>2024-12-25 6.6km</title><desc>1735101299000</desc></polyline><polyline fill="none" points="14.918348256032914,181.25704167709046 14.802886542747729,181.53951275268628 14.990511826763395,181.4767414352973 15.26473339565564,181.0216488246515 16.145128958916757,181.6336696937069 17.126553521258757,181.68074814841384 20.142990779073443,182.44969475269318 25.48309501534095,185.3685277390614 30.390217827109154,187.48701022047317 30.59227582521271,187.4713178359816 31.198449819581583,185.98053597768012 31.645863958343398,185.74514840403572 35.513831351010595,185.9648434809351 38.01069089939119,186.90639121536515 42.571428571420256,186.9848533366312 37.794200187083334,186.85931392860948 35.36950420954963,185.94915098306956 31.515969530970324,185.760840917108 31.198449819581583,185.91776598374418 30.548977682716213,187.392855895916 30.289188827970065,187.43993306346238 24.963517305906862,185.24298736773198 20.965655485750176,182.92047700239345 18.69971936388174,182.01029703686072 11.714285714260768,181.03734168969095 14.081250835151877,181.3982772622403 15.207002539071254,181.36689158482477 19.17599893087754,182.15153211692814 20.980088199896272,182.8577060965763 25.930509154044557,185.5882232087897 30.1592944006552,187.4713178359816 30.606708539358806,187.4242406754638 31.328344246954657,185.8236109577847 32.80048109043855,185.8236109577847 31.371642389392946,185.77653342904523 30.534544968570117,187.54977974676876 25.33876787382178,185.3999128201831 22.538821328314953,183.75218973870506 18.84404650540091,182.12014655175153 11.757583856699057,181.0530345535226 17.68942937318934,181.90044746467902" stroke="#4DD2FF" stroke-linecap="round" stroke-linejoin="round" stroke-width="0.5"><title>2024-12-18 8.3km</title><desc>1734495982000</desc></polyline><polyline fill="none" points="51.395522388105746,179.9744743022311 50.86300639656838,180.09966715346673 51.05010660982225,179.94317607772246 50.86300639656838,180.0683689476573 50.74786780378781,179.89622873225017 50.805437100236304,180.0527198429918 51.971215351775754,180.86647173912206 54.51865671639098,181.99319992848905 55.12313432840165,182.9477843591303 55.799573560710996,183.47984592923603 56.54797441366827,183.5893878498755 61.829957356036175,186.43745773467526 66.60820895526558,188.58130904119753 66.95362473343266,188.59695751042455 67.63006396591663,187.09469914704096 68.04744136461522,186.85997030728322 72.04850746266311,187.11034772706626 74.5671641791705,187.98666634605615 79.0,188.06490890210262 74.17857142857974,187.98666634605615 72.04850746266311,187.1259963058692 67.97547974420013,186.8756189047417 67.55810234544333,187.11034772706626 66.8384861407103,188.65955137573474 59.77185501065105,185.70197085873224 59.28251599142095,185.21686108420545 57.51226012798725,184.21534058619 55.38219616207061,183.3703039514512 48.14285714284051,182.19663631847652 55.0223880597041,183.10427319612063 56.23134328360902,183.63633436980308 56.49040511727799,183.55809016407875 61.88752665248467,186.5000522434857 65.60074626863934,187.9710178313253 66.6226012793486,188.59695751042455 67.01119402988115,188.50306667745463 67.73081023449777,187.000807642602 69.2276119402959,186.9538618746883 67.81716417905409,187.047753400082 67.06876332621323,188.67519983918464 66.4211087419535,188.62825444544433 61.54211087420117,186.5313494909351 60.20362473349087,185.6550248004787 55.33901918976335,183.29205964662833 48.25799573556287,182.3061789083731 55.12313432840165,183.13557094952557" stroke="#4DD2FF" stroke-linecap="round" stroke-linejoin="round" stroke-width="0.5"><title>2024-12-17 8.6km</title><desc>1734409492000</desc></polyline><polyline fill="none" points="88.37632614932954,181.44933765468886 91.46059918595711,181.93513299914775 92.5847734703566,182.46793950611027 92.95949823182309,182.3582441591425 98.30653232807526,185.30432789964834 103.16354173619766,187.4041709111334 103.42296657100087,187.37283012477565 104.08594114898006,185.82145536289318 104.44625341967912,185.61773863520648 108.6258757589967,185.91547840140993 110.7156869287137,186.71467253222363 115.42857142857974,186.79302473457938 114.96737172215944,186.94972905168834 110.70127443782985,186.79302473457938 108.23673850670457,185.88413739325188 104.53272836463293,185.72743228230684 103.97064122243319,186.07218337227823 103.3509041169309,187.4041709111334 103.10589177289512,187.4825228566624 98.73890705272788,185.63340915969457 92.87302328686928,182.49928102330887 92.10916127316887,182.40525645769958 91.30206178693334,181.93513299914775 84.57142857142026,181.0105537984782 91.40294922271278,181.9194621991046 92.36858610791387,182.4365979842696 92.93067325017182,182.38958569268289 98.26329485554015,185.28865735064028 103.06265430041822,187.38850051854388 103.46620404347777,187.3571597297996 103.95622873154934,186.025171893285 104.44625341967912,185.64907968306215 108.66911323153181,185.91547840140993 110.67244945623679,186.71467253222363 115.34209648362594,186.8400360419182 110.93187429104,186.79302473457938 108.40968839661218,185.88413739325188 104.43184092885349,185.69609124610724 104.07152865815442,185.86846688741934 103.32207913527964,187.4825228566624 98.16240741976071,185.36701008411183 92.88743577769492,182.49928102330887 91.60472409421345,182.04482856680988 84.74437846132787,181.0418955328787 91.3741242410033,181.93513299914775 92.38299859879771,182.4365979842696 93.0027357043,182.45226874576474 98.8686194702168,185.57072705462633 103.06265430041822,187.43551169283455 103.46620404347777,187.37283012477565 103.95622873154934,185.77444382786052 105.62807766738115,185.80578485237493 104.1003536398639,185.83712587220361 103.37972909852397,187.5608747729566 98.11916994728381,185.35133953976037 92.94508574093925,182.4836102653062 92.48388603457715,182.49928102330887 91.34529925935203,181.95080379802675 84.74437846132787,181.1045789875934 91.24441182357259,181.9194621991046" stroke="yellow" stroke-linecap="round" stroke-linejoin="round" stroke-width="0.5"><title>2024-12-15 13.0km</title><desc>1734235831000</desc></polyline><polyline fill="none" points="124.05117270787014,181.1325014763861 124.05117270787014,181.30463975500606 125.34648187633138,181.69586259081552 127.08795309165725,182.05578695615986 127.99466950958595,181.99319145864865 128.8726012792904,182.49395491625182 129.3763326225453,182.50960375506838 135.3347547974554,185.6862938931008 139.60927505337168,187.50152383072418 139.88272921106545,187.48587536379637 140.45842217485188,186.09315713960677 140.8901918976917,185.81148266825767 144.86247334763175,186.01491426881694 147.1508528785198,186.89123275721795 151.8571428571595,186.98512380702596 147.06449893396348,186.89123275721795 144.9776119403541,186.03056284527702 140.8182302772766,185.74888829000702 140.4152452025446,185.9366713688505 139.72441364609404,187.5328207610146 134.7014925373369,185.48286197432026 130.02398720680503,182.86952672594634 127.8939232409466,182.0401380835392 121.0,181.03860781042022 124.65565031976439,181.41418222249195 127.8939232409466,181.94624482330983 129.34754797437927,182.41571070472128 133.76599147118395,184.82561904408794 138.18443496804684,186.76604462556134 139.2782515991712,187.45457842646283 139.86833688704064,187.39198453781137 140.4008528784616,186.09315713960677 140.84701492544264,185.7801854815043 144.79051172710024,185.95231995113136 146.9349680171581,186.8442872165906 148.57569296378642,186.85993573132146 146.81982942431932,186.79734166547132 144.761727078876,185.98361711233156 141.00533049047226,185.74888829000702 140.4152452025446,185.9210227853473 139.695628997928,187.47022689568985 134.4280383795267,185.3263757488894 129.3763326225453,182.54090142917994 127.86513859272236,182.0401380835392 125.59115138591733,181.75845817690424" stroke="#4DD2FF" stroke-linecap="round" stroke-linejoin="round" stroke-width="0.5"><title>2024-12-13 8.5km</title><desc>1734064159000</desc></polyline><polyline fill="none" points="160.76644847827265,181.48057440923003 163.94399082259042,181.94018023663375 166.1303731695516,182.62166291147878 170.67804845131468,185.18908966127492 175.76503137865802,187.43952466176415 176.17315608338686,187.4553727111488 176.8290707875276,185.94980274749105 177.23719549225643,185.74377655524586 181.24556312843924,185.94980274749105 183.25703488767613,186.77390552121506 188.28571428573923,186.86899409738544 183.73803900397616,186.83729791002406 181.09980430529686,185.93395458592568 177.13516431616154,185.72792837832822 176.71246372896712,185.8705619279499 176.2314596126671,187.23349991222494 175.8816384372185,187.55046098270395 174.84675079293083,186.96408263102057 170.66347256896552,185.33172357216245 166.43646669818554,182.90693408057268 164.19178082194412,182.13036166784877 166.42189081583638,182.84354052050912 169.10385316150496,184.46007040102268 174.87590255757095,186.94823454500875 175.72130373172695,187.5029168522451 176.14400431874674,187.40782855942962 176.79991902288748,185.68038384057581 176.11485255416483,187.36028439707297 175.75045549636707,187.4553727111488 170.82380727439886,185.36341998379794 165.5764896417386,182.4156334958534 165.06633376074024,182.43148191951332 163.78365611715708,181.90848331490997 157.42857142857974,181.0209675887163" stroke="#4DD2FF" stroke-linecap="round" stroke-linejoin="round" stroke-width="0.5"><title>2024-12-11 6.6km</title><desc>1733890893000</desc></polyline><polyline fill="none" points="15.45585874794051,215.91690202437167 18.764044943847694,216.2938818744151 19.486356340232305,216.71798339993984 20.078651685384102,216.70227595124743 25.510433386836667,219.7023774177651 30.364365971065126,221.80713516489777 31.158908507262822,220.17359366414894 31.577849117165897,219.9851072919846 35.72391653287923,220.23642241748166 37.84751203848282,221.06890163097705 42.52808988769539,221.17885147004563 38.02086677373154,221.06890163097705 35.767255216720514,220.3149583327322 31.274478330626152,220.1264720869076 30.479935794486664,221.85425636655418 25.40930979134282,219.73379186696548 23.950240770471282,218.74423446893343 20.035313001601025,216.79652062586683 19.717495987191796,216.87505782252993 18.47512038523564,216.37241925831768 11.85874799353769,215.42996872034564 17.348314606701024,216.05826954713848 20.035313001601025,216.68656850139087 23.820224719063845,218.55574681889266 25.39486356341513,219.60813404210785 30.248796147701796,221.77572102463455 30.552166934183333,221.66577149680234 31.18780096306,220.26783678706852 31.577849117165897,219.9851072919846 34.105939004803076,220.23642241748166 35.39165329054231,220.1264720869076 37.91974317817949,221.08460875437595 42.571428571420256,221.1631443537044 37.67415730335051,221.05319450642855 35.69502407708205,220.26783678706852 31.548956661310513,220.00081449613208 31.18780096306,220.14217928051949 30.682182985474356,221.55582191163558 30.40770465490641,221.79142809537007 25.900481540942565,219.90657125384314 23.19903691811487,218.28872235957533 20.00642054574564,216.71798339993984 17.695024077082053,216.13680701881822 11.714285714260768,215.28860077630088 19.096308186184615,216.35671178389748 30.017656500800513,221.69718565345102 30.552166934183333,221.60294316940417 31.18780096306,219.96940008668753 30.581059390038718,221.66577149680234 30.277688603498973,221.72859980545763 25.568218298547436,219.73379186696548 20.049759229586925,216.6708610503556 15.008025682182051,215.8226569565304" stroke="yellow" stroke-linecap="round" stroke-linejoin="round" stroke-width="0.5"><title>2024-12-09 12.1km</title><desc>1733738831000</desc></polyline><polyline fill="none" points="60.98303487274097,219.16436274653825 66.78510838828515,221.7889546990191 67.45401911932277,220.27112234676315 67.97751447412884,219.9865275722259 71.72923118341714,220.14463582741155 74.01225259184139,221.04585063282866 78.99999999994179,221.21976883898606 74.49212333373725,221.12490438057284 71.97643732320284,220.25531153594784 68.02113908709725,220.04977088845044 67.52672680752585,220.2078790965461 66.81419146357803,221.82057609096228 62.219065571494866,219.90747340051166 56.37336744309869,216.7452823826461 55.849872088292614,216.76109345495934 55.18096135719679,216.3183829853515 51.03662313183304,215.76499359957234 50.513127777026966,215.51201511399995 50.26592163724126,215.7175601564959 48.448229433153756,215.43295927539293 52.7525245724828,215.8756715921627 56.37336744309869,216.6820380816789 60.18325030297274,218.5635479750781 61.25932408776134,219.35409337362216 66.56698532379232,221.7889546990191 66.91598222689936,221.64665837713983 67.52672680752585,220.17625746435078 67.86118217313197,219.92328423721483 69.1553790224134,220.14463582741155 71.94735424796818,220.16044664646324 74.27400026924442,221.06166138475237 78.89820923650404,221.15652587141085 74.15766796818934,221.01422912550333 71.94735424796818,220.19206828101596 67.9629729365115,220.01814923273923 67.36676989361877,220.52409515927138 66.79964992590249,221.82057609096228 61.390197926491965,219.48058036410657 56.358825905423146,216.7452823826461 56.024370539875235,216.80852666476858 54.14851218520198,216.19189411011757 48.14285714284051,215.3222810518928 54.424801400338765,216.19189411011757 55.89349670114461,216.72947130918328 56.44607513124356,216.71366023454175 58.321933485916816,217.74137763673207" stroke="#4DD2FF" stroke-linecap="round" stroke-linejoin="round" stroke-width="0.5"><title>2024-12-06 9.2km</title><desc>1733479157000</desc></polyline><polyline fill="none" points="87.70186335401377,215.78729878737067 91.62572630733484,216.25786273063568 92.46243237826275,216.77548185337218 92.92406331398524,216.68136938023963 98.30494890804403,219.69294765315135 103.00781406532042,221.77906776424788 103.48387096775696,221.63790239371883 103.98877980362158,220.28898407972883 104.53696653980296,220.06939190834237 108.43197755957954,220.25761378352763 110.62472450407222,221.08892505295807 115.42857142857974,221.24577586779196 110.68242837110301,221.08892505295807 108.40312562609324,220.30466922603955 104.46483670605812,220.05370674445294 103.95992787013529,220.3674097996991 103.23862953315256,221.8104378337448 97.91544780606637,219.55178088393586 96.70366659993306,218.72046354525082 92.93848928064108,216.80685266839282 92.52013624523534,216.83822347872774 91.46704067318933,216.33628995224717 84.57142857142026,215.33241930911026 91.46704067318933,216.32060451024154 93.63093568425393,217.23035821365193 92.99619314767187,216.80685266839282 87.71628932072781,215.80298426913214" stroke="#4DD2FF" stroke-linecap="round" stroke-linejoin="round" stroke-width="0.5"><title>2024-12-03 5.6km</title><desc>1733220329000</desc></polyline><polyline fill="none" points="125.02797202800866,215.94367964444973 127.94825174822472,216.2565115945763 128.94085914082825,216.83524947341357 130.2067932068021,216.99166484248417 131.57342657347908,217.8832302208466 133.44355644355528,218.5870949504024 134.63756243756507,219.50993624283 139.77322677324992,221.7622776202188 140.42057942057727,220.3702083708049 140.93846153852064,220.02609994262457 144.86573426582618,220.24507809853822 147.2825174825848,221.13662966125412 150.6631368632079,221.10534721436852 151.8571428571595,221.19919454107003 151.497502497572,221.29304182578926 147.13866133865668,221.16791210346855 144.86573426582618,220.3076432440139 140.9240759240929,220.08866515332193 140.49250749254134,220.292001959373 139.83076923084445,221.77791879529832 139.51428571430733,221.80920114199398 134.19160839164397,219.52557758573676 131.3144855144783,217.8832302208466 127.81878121878253,216.3190779286524 121.0,215.36493930775032 128.0633366634138,216.28779476393538 130.10609390615718,217.2262876775494 127.79000998998526,216.3660026669968 121.02877122873906,215.33365600086108 125.20059940061765,215.9123964237806" stroke="#4DD2FF" stroke-linecap="round" stroke-linejoin="round" stroke-width="0.5"><title>2024-12-02 6.1km</title><desc>1733112856000</desc></polyline><polyline fill="none" points="157.42857142857974,214.32164278136042 158.34285714285215,214.70272214750003 160.44571428577183,217.51937547100533 160.26285714289406,217.33712251199177 160.65904761909042,217.32055405374558 161.17714285716647,216.6909517263848 163.06666666670935,216.97261614582385 163.76761904760497,217.43653323542094 165.1695238095126,217.71819671046978 166.67809523805045,218.66259517060826 168.50666666665347,219.35846515389858 169.46666666667443,220.20344720625144 174.9523809524253,222.70523798794602 175.394285714312,222.70523798794602 176.06476190470858,221.1644032857148 176.50666666665347,220.94901693926658 180.72761904762592,221.1644032857148 183.33333333331393,222.092219008744 188.28571428573923,222.14192331326194 183.36380952381296,222.12535521297832 180.74285714287544,221.1975396281632 176.55238095240202,220.98215331383108 176.0952380952076,221.18097145753563 175.27238095237408,222.8212143615092 170.03047619044082,220.61765292205382 166.48000000003958,218.61289008850872 162.92952380952192,216.9891846299579 158.6171428571688,216.4755610472639" stroke="#4DD2FF" stroke-linecap="round" stroke-linejoin="round" stroke-width="0.5"><title>2024-11-29 4.6km</title><desc>1732853630000</desc></polyline><polyline fill="none" points="14.327546138083562,251.8618781784753 14.106083390302956,251.99030296003912 15.050991114170756,252.00635605231219 14.238961038994603,251.9100374805421 14.977170198224485,251.97424986650003 14.888585099077318,252.1989930667478 16.06971975392662,250.67394532045 18.845386192726437,250.48130694252905 19.73123718384886,250.9629025644099 20.986192754586227,251.21975312258292 25.902665755304042,254.029036114458 30.833902939106338,256.1640666931198 31.572112098452635,254.60694121623237 32.01503759395564,254.39825344159908 36.20806561864447,254.60694121623237 38.334107997245155,255.4737959628983 42.571428571420256,255.52195445769757 38.42269309639232,255.4416902937228 35.898017771716695,254.55878251694958 31.955980861268472,254.33404177798366 31.60164046479622,254.54272961476818 30.833902939106338,256.14801391052606 25.607382091577165,254.029036114458 20.203691045811865,251.0110620673804 18.57963089545956,250.51341335079633 11.714285714260768,249.5502190211555 18.727272727293894,250.48130694252905 19.627887901617214,250.94684939434228 20.572795625426807,251.07527472126822 24.38195488724159,253.09796352367266 18.682980177749414,250.54551975429058 14.977170198224485,250.04786996243638" stroke="#4DD2FF" stroke-linecap="round" stroke-linejoin="round" stroke-width="0.5"><title>2024-11-28 6.3km</title><desc>1732767063000</desc></polyline><polyline fill="none" points="48.34995206136955,249.16993377698236 52.9060402684845,249.93928519982728 53.941514861013275,250.48345917735423 54.42473633750342,250.44592997529253 59.17066155321663,252.7727299297403 60.81016299134353,253.86106446535268 66.81591562798712,256.4880594866554 67.66155321191764,254.66793013713323 68.28283796744654,254.3301727285725 72.85618408431765,254.57410868017178 74.96164908917854,255.45602899577352 76.7909875359037,255.75625648380083 79.0,255.6999638570269 75.66922339401208,255.6436712177092 73.1668264621403,254.66793013713323 68.45541706617223,254.42399427643977 67.74784276122227,254.70545871011564 66.81591562798712,256.54435193729296 60.27516778523568,253.78600706209545 54.42473633750342,250.44592997529253 53.99328859063098,250.53975297001307 52.509108341357205,249.88299127295613 48.14285714284051,249.30128662534116" stroke="#4DD2FF" stroke-linecap="round" stroke-linejoin="round" stroke-width="0.5"><title>2024-11-25 4.0km</title><desc>1732507947000</desc></polyline><polyline fill="none" points="84.57142857147846,247.5794902277994 90.86172896134667,248.387305095006 92.57051135075744,249.38360761111835 93.51157991308719,249.27589936341974 95.24512726452667,249.8413673057512 97.05296950251795,251.13386213750346 100.47053428122308,252.61484011646826 103.12038523284718,254.4458590464492 109.11350607662462,256.7884726814809 111.11946801200975,258.0001634316577 111.63953221752308,257.78475203958806 112.75395551486872,255.17287869594293 115.42857142863795,255.11902543870383 112.85301536356565,255.25365856674034 111.4166475579841,258.1347954864905 103.51662462751847,254.8497590322513 93.4620499885641,249.46438877581386 92.79339601029642,249.5990240102401 95.17083237797488,250.05678343205363 96.33478559972718,251.13386213750346 98.39027745940257,251.69932717288611 103.07085530844051,254.49971240395098 110.5746388444677,257.8386048996181 111.63953221752308,257.94631059566746 112.75395551486872,255.14595206838567 111.56523733097129,258.1347954864905 103.6404494382441,254.7959057269327" stroke="#4DD2FF" stroke-linecap="round" stroke-linejoin="round" stroke-width="0.5"><title>2024-11-20 4.0km</title><desc>1732095798000</desc></polyline><polyline fill="none" points="122.80259464378469,249.49850209601573 127.35824292543111,250.1577667481033 128.45618693571305,250.71012221956335 129.2099992412841,250.78139380033826 133.42151581816142,252.86607814216404 134.53584705258254,253.7213280000433 140.5335710492218,256.37614661914995 140.81215385784162,256.3405116650538 141.48403004324064,254.77256842702627 141.97564676427282,254.3983986351668 146.53129504586104,254.64784522814443 148.92382975493092,255.6099939353153 151.85714285710128,255.71689910827263 148.87466808280442,255.62781146747875 146.26909946132218,254.630027622974 142.07397010846762,254.41621625758125 141.38570669898763,254.87947397431708 140.74660496163415,256.4117815680074 134.6505576208001,253.89950466882146 129.96381154685514,251.2802942712442 127.32546847738558,250.2290384935477 121.0,249.30250414628244" stroke="#4DD2FF" stroke-linecap="round" stroke-linejoin="round" stroke-width="0.5"><title>2024-11-19 4.1km</title><desc>1731989484000</desc></polyline></svg>