<?xml version="1.0" encoding="utf-8" ?>
<svg baseProfile="full" height="300mm" version="1.1" viewBox="0,0,200,300" width="200mm" xmlns="http://www.w3.org/2000/svg" xmlns:ev="http://www.w3.org/2001/xml-events" xmlns:xlink="http://www.w3.org/1999/xlink"><defs /><rect fill="#222222" height="300" width="200" x="0" y="0" /><text fill="#FFFFFF" style="font-size:12px; font-family:Arial; font-weight:bold;" x="10" y="20">Over 4km Runs</text><text fill="#FFFFFF" style="font-size:4px; font-family:Arial" x="10" y="280">ATHLETE</text><text fill="#FFFFFF" style="font-size:9px; font-family:Arial" x="10" y="290">Fake David</text><text fill="#FFFFFF" style="font-size:4px; font-family:Arial" x="65" y="280">SPECIAL TRACKS</text><rect fill="yellow" height="2.6" width="2.6" x="65" y="283" /><text fill="#FFFFFF" style="font-size:3px; font-family:Arial" x="70" y="285.5">Over 10.0 km</text><rect fill="red" height="2.6" width="2.6" x="65" y="287" /><text fill="#FFFFFF" style="font-size:3px; font-family:Arial" x="70" y="289.5">Over 15.0 km</text><text fill="#FFFFFF" style="font-size:4px; font-family:Arial" x="120" y="280">STATISTICS</text><text fill="#FFFFFF" style="font-size:3px; font-family:Arial" x="120" y="285">Number: 39</text><text fill="#FFFFFF" style="font-size:3px; font-family:Arial" x="120" y="290">Weekly: 2.6</text><text fill="#FFFFFF" style="font-size:3px; font-family:Arial" x="141" y="285">Total: 317.5 km</text><text fill="#FFFFFF" style="font-size:3px; font-family:Arial" x="141" y="290">Avg: 8.1 km</text><text fill="#FFFFFF" style="font-size:3px; font-family:Arial" x="167" y="285">Min: 4.0 km</text><text fill="#FFFFFF" style="font-size:3px; font-family:Arial" x="167" y="290">Max: 13.0 km</text><polyline fill="none" points="13.571094480808824,42.439165039686486 17.246024321822915,42.8922950651322 18.38260056125,43.38661745861464 19.784377923293505,43.64750929840375 23.926566884911153,46.10536692352616 27.765668849402573,47.78053601975262 28.06875584658701,47.5608425794926 28.14452759589767,46.43490958800248 28.397100093541667,46.174021693863324 32.43826005619485,46.379985851512174 34.01683816657169,46.99787694346742 35.229186155309435,47.19010930520017 38.5,47.231301928070025 34.40832553792279,47.2450328002742 32.43826005619485,46.46237145010673 28.52338634239277,46.20148359486484 28.23292797006434,46.39371678714815 28.043498596874997,47.643227650245535 27.61412535083946,47.75307435407012 22.764733395713847,45.63851380687265 18.78671655751532,43.37288629892282 18.458372310560662,43.482735547819175 17.271281571534928,42.96095103240805 11.5,42.178271489348845 16.77876520116115,42.837370272914995 18.559401309583336,43.38661745861464 18.78671655751532,43.30423048509692 23.459307764249388,45.830747586340294 27.727782974776346,47.76680518743524 28.06875584658701,47.46472661702137 28.157156220753677,46.33879303840513 28.4349859682261,46.174021693863324 32.33723105711397,46.33879303840513 34.534611786773894,47.10772403187002 38.5,47.231301928070025 34.433582787634805,47.203840180518455 32.349859681969974,46.35252397709701 28.422357343311887,46.09163596635335 28.19504209543811,46.46237145010673 28.182413470582105,47.46472661702137 27.790926099172793,47.82172851066571 25.858746492071077,46.81937528523849 23.080449017812498,45.775823669784586 18.875116931740195,43.4415420871519 18.559401309583336,43.49646669931826 17.460710944840685,42.98841341215302 14.025724976614583,42.713789430534234 11.5,42.23319647801691 13.39429373247549,42.384240112427506 14.290926099172793,42.54901484513539 17.675397567858454,43.00214460051211 19.468662301194854,43.81228290166473 18.950888681050856,43.4690043952869 17.511225444322918,43.05706934364571 15.036014967248775,42.768714259625995 13.457436856871936,42.85110147250816 11.575771749252453,42.23319647801691" stroke="yellow" stroke-linecap="round" stroke-linejoin="round" stroke-width="0.5"><title>2025-03-07 10.7km</title><desc>1741342581000</desc></polyline><polyline fill="none" points="51.086651053861715,42.421817670663586 55.14613583130995,42.944336540676886 55.803747072583064,43.32934949826449 56.347540983580984,43.343099946156144 59.83793911006069,45.06189786802861 61.46932084305445,46.14816989985411 65.23793911002576,47.81194125014008 65.51615925057558,47.55068889017275 65.83231850113953,46.189420610506204 67.52693208429264,46.39567402549437 70.10679156903643,46.340673137354315 71.45995316159679,46.91818164524739 72.74988290393958,47.13818441105832 76.0,47.12443424586672 75.30444964865455,47.26193585158035 71.91522248240653,47.151934575202176 69.94238875876181,46.436924680834636 65.933489461313,46.24442154371354 65.69320843089372,46.423174463401665 65.44028103043092,47.68819017834903 65.03559718967881,47.78444101911737 60.87494145199889,45.90066544232832 56.347540983580984,43.45310349261854 54.71615925052902,42.985587967414176 51.49133489461383,42.80683171830606 49.0,42.18805874985992 50.492271662689745,42.27056193219323" stroke="#4DD2FF" stroke-linecap="round" stroke-linejoin="round" stroke-width="0.5"><title>2025-03-05 4.7km</title><desc>1741177738000</desc></polyline><polyline fill="none" points="87.7319884726312,42.3632351905253 91.9726224783808,42.87085468955047 93.165706051921,43.20926693250658 97.9639769452624,45.83194129835465 101.4524495676742,47.28426684465376 102.243515850103,47.80597330094315 102.6325648415368,47.70727218975662 102.8270893371664,46.32545122914598 103.1123919308302,46.170348246683716 107.0028818443534,46.36775202046556 109.1426512968028,47.185565461433725 113.5,47.24196625816694 111.85302593652159,47.39706836245023 109.11671469733119,47.25606645469088 107.2233429394546,46.48055408448272 103.1253602305078,46.18444852308312 102.93083573482,46.36775202046556 102.7233429394546,47.74957267228456 102.4380403457908,47.86237391277973 97.2636887608096,45.66273759727483 93.1138328529778,43.293869898683624 92.8414985590498,43.39257331144472 91.596541786741,42.92725677207636 86.5,42.13762608722027" stroke="#4DD2FF" stroke-linecap="round" stroke-linejoin="round" stroke-width="0.5"><title>2025-03-03 4.6km</title><desc>1740978130000</desc></polyline><polyline fill="none" points="126.29518916393863,42.470175997848855 126.09341429243796,42.59358391602291 124.0,42.16851184946427 127.29145259223878,42.5113119797752 131.26389537600335,43.361453547520796 134.80756655771984,45.116572103404906 135.98038299864857,45.91185468871845 140.0411022886983,47.76293015736155 140.46987389074638,47.73550695292943 140.68425969174132,46.41918833577074 140.87342363380594,46.18608926619345 144.74497898179106,46.44661173633358 146.66184026160045,47.214465292636305 150.93694535264513,47.2693118526513 149.43624474544777,47.37900492364133 146.61139654368162,47.187042006480624 144.71975712286076,46.474035132778226 140.92386735166656,46.22722441756923 140.73470340960193,46.364341522421455 140.5455394675373,47.58467925559671 140.16721158334985,47.81777655395854 135.90471742179943,45.98041337142058 131.23867351707304,43.40258933024597 131.01167678658385,43.47114894763217 130.1793554413598,43.08721476120991 124.0,42.182223866926506 130.35590845398838,43.046078908009804 140.0158804297098,47.83148815053573 140.48248482018244,47.74921855563298 140.60859411489218,46.52888191344391 140.83559084543958,46.22722441756923 145.06025221856544,46.501458525133785 146.6996730499668,47.22817693416437 151.0,47.33787002970348 146.72489490895532,47.214465292636305 144.80803362914594,46.48774682948715 140.91125642228872,46.18608926619345 140.68425969174132,46.41918833577074 140.48248482018244,47.68066053185612 140.09154600655893,47.790353357675485 135.4381130313268,45.733601994259516 131.51611396542285,43.47114894763217 130.92340028024046,43.44372510374524 129.80102755723055,42.96380717403372 126.16907986922888,42.53873596260382 127.61933675856562,42.662143834808376 130.16674451192375,43.03236695489613 131.8692199906218,43.786522858732496 131.93227463803487,43.64940383336216 131.17561886971816,43.38887740368955" stroke="yellow" stroke-linecap="round" stroke-linejoin="round" stroke-width="0.5"><title>2025-02-28 10.0km</title><desc>1740736874000</desc></polyline><polyline fill="none" points="163.38723205967108,42.85911382646009 163.65144454798428,42.55815331508347 163.33690587140154,42.84543381391268 163.61369990679668,42.667593558100634 163.45013979502255,42.59919341384375 161.613233923621,42.229832194556366 162.45619757688837,42.20247207469947 167.55172413791297,42.900153857975965 168.36952469713287,43.29687368964369 168.8602050326299,43.24215376380016 173.77958993479842,45.9097311674559 177.7176141659147,47.72913352608157 178.05731593666133,47.606016641904716 178.18313140730606,46.29276474106882 178.43476234859554,46.12860759305477 182.37278657971183,46.37484325999685 184.31034482759424,47.11354827968171 188.43709226470673,47.195626431770506 184.28518173348857,47.181946742290165 182.27213420323096,46.37484325999685 179.95712954335613,46.388523009605706 178.35927306616213,46.15596712793922 178.1579683131422,46.279084984300425 178.05731593666133,47.63337595661869 177.74277726002038,47.92064851519535 172.6975768872653,45.636135268592625 169.09925442683743,43.529433192437864 167.06104380241595,42.96855389008124 165.45060577819822,42.913833866419736 161.51258154702373,42.18879201321397 167.61463187326444,42.98223389346094 168.28145386767574,43.37895354778448 168.8602050326299,43.37895354778448 173.79217148182215,45.99180985763087 177.7931034482899,47.78385211476416 178.06989748368505,47.55129800019495 178.24603914259933,46.15596712793922 182.25955265609082,46.347483757766895 183.89515377447242,46.990430982768885 185.10298229265027,47.181946742290165 188.5,47.181946742290165 184.3732525628875,47.195626431770506 182.27213420323096,46.484281228200416 179.96971109043807,46.47060148573655 178.2712022367632,46.18332665869093 178.082479030767,47.48289967517485 177.70503261883277,47.83857068720681 173.18825722276233,45.86869180860231 168.75955265614903,43.392633520576055 162.82106244174065,42.43503296367999 161.5,42.07935148480465 163.47530288912822,42.38031278100971 164.3308480894775,42.55815331508347 166.64585274935234,42.76335371725145 169.36346691520885,43.74831245538371 168.8224603914423,43.37895354778448 168.55824790307088,43.44735340155603 167.35041938489303,42.96855389008124 164.48182665428612,42.76335371725145 162.53168685926357,42.270872366731055" stroke="yellow" stroke-linecap="round" stroke-linejoin="round" stroke-width="0.5"><title>2025-02-26 11.1km</title><desc>1740566027000</desc></polyline><polyline fill="none" points="13.804570895561483,72.50110373839561 11.550373134377878,72.22724762067082 12.557835820945911,72.21355480408238 17.65811567165656,72.91188714974851 18.37593283591559,73.30897690798156 18.804104477691,73.29528417198162 22.355410447809845,75.04794608819066 23.111007462721318,75.70518999772321 26.826026119408198,77.21136509267671 27.669776119466405,77.7864468729822 28.08535447763279,77.53998347315064 28.198694029881153,76.28027649060823 28.400186567218043,76.11596624768572 29.97434701496968,76.36243155699049 32.24113805976231,76.3761240645108 33.953824626863934,77.0470556821092 35.18796641792869,77.22505753691075 38.424440298520494,77.18398020112363 35.150186567159835,77.18398020112363 34.04197761195246,77.03336322457471 32.40485074633034,76.41720158084354 28.500932835857384,76.15704382221156 28.22388059704099,76.33504653896671 27.99720149260247,77.70429244310071 27.63199626869755,77.80013927438995 25.89412313431967,76.85536118410528 23.27472014928935,75.82842296913441 18.85447761195246,73.36374784176587 18.438899253786076,73.40482603141572 17.393656716449186,72.91188714974851 15.995802238874603,72.92557991432841 11.5,72.15878352751315 17.41884328360902,72.92557991432841 18.37593283591559,73.37744057270174 18.85447761195246,73.30897690798156 22.582089552248362,75.4039534975891 26.826026119408198,77.25244242236658 27.757929104496725,77.84121647248685 28.123134328401648,77.4441365061939 28.18610074633034,76.32135402840504 28.349813432898372,76.11596624768572 30.251399253786076,76.36243155699049 32.15298507467378,76.32135402840504 33.92863805976231,76.9922858459322 35.250932835857384,77.17028775379003 38.5,77.18398020112363 34.62126865674509,77.18398020112363 32.44263059704099,76.40350907643733 31.170708955207374,76.44458658664371 28.412779850768857,76.10227372084046 28.18610074633034,76.36243155699049 28.097947761241812,77.52629105238884 27.97201492538443,77.7727544705267 27.694962686568033,77.81383167476451 22.682835820887703,75.48610895569436 18.917444029881153,73.39113330256077 18.476679104554933,73.40482603141572 17.494402985088527,72.99404372186109 15.895055970235262,72.91188714974851 11.638526119466405,72.22724762067082 14.635727612010669,72.59695328319503 15.27798507467378,72.63803164420824 17.406250000058208,72.98035096240346 19.660447761241812,73.74714392134047 22.46875,75.19856469171646 18.94263059704099,73.40482603141572 15.27798507467378,72.69280277795042" stroke="yellow" stroke-linecap="round" stroke-linejoin="round" stroke-width="0.5"><title>2025-02-21 11.3km</title><desc>1740135343000</desc></polyline><polyline fill="none" points="51.21229050279362,72.60142751570675 49.07541899441276,72.17774091429601 52.142458100570366,72.51942373375641 55.033519553078804,72.99777861175244 55.83798882679548,73.40779608575394 56.629888268129434,73.44879778275208 60.16201117320452,75.4715367898898 64.24720670387615,77.24824859993532 65.16480446927017,77.80859260172292 65.57960893848212,77.50792042328976 65.71787709492492,76.29155976347101 65.8938547486323,76.15488952242595 67.64106145250844,76.38722887160839 69.90363128489116,76.40089588295086 71.34916201111628,77.0159103411861 72.58100558654405,77.22091470241139 75.93715083791176,77.2072477521433 74.93156424578046,77.34391720921849 71.92737430159468,77.17991384849302 69.8282122904784,76.46923092457291 65.95670391060412,76.19589060542057 65.69273743010126,76.41456289331836 65.50418994412757,77.64458965638187 65.11452513962286,77.79492569521244 60.350558659178205,75.66287581156939 56.36592178768478,73.4351305514574 55.78770949720638,73.40779608575394 54.84497206704691,72.99777861175244 53.261173184320796,72.90210773595027 49.0,72.16407358829747 54.90782122901874,72.95677681393863 56.26536312850658,73.3394599037565 59.571229050226975,74.97952124632138 60.67737430165289,75.73121112809167 65.30307262565475,77.74025805899873 65.55446927371668,77.52158735120611 65.64245810051216,76.37356185920362 65.81843575416133,76.15488952242595 69.7779329608311,76.38722887160839 71.36173184355721,77.0159103411861 72.63128491613315,77.22091470241139 76.0,77.24824859993532 74.60474860330578,77.35758414931479 71.93994413403561,77.19358080084203 69.90363128489116,76.46923092457291 65.91899441339774,76.18222357875493 65.65502793289488,76.44189691099746 65.59217877092306,77.49425349438388 65.34078212286113,77.83592641170253 61.14245810051216,76.01821917953203 56.37849162006751,73.40779608575394 55.95111731841462,73.4351305514574 54.92039106145967,73.0114458756434 51.614525139622856,72.58776022125676 52.69553072628332,72.71076583463582 54.84497206704691,72.95677681393863 56.96927374304505,73.76314382191049 56.416201117273886,73.40779608575394 55.73743016755907,73.39412885138881 54.518156424572226,72.94310954595858 53.42458100558724,72.929442276989 49.61592178774299,72.21874288625258" stroke="yellow" stroke-linecap="round" stroke-linejoin="round" stroke-width="0.5"><title>2025-02-19 10.6km</title><desc>1739962218000</desc></polyline><polyline fill="none" points="88.45926966291154,72.37491943289933 86.5,72.18250210399856 89.82443820225308,72.53984841221245 92.47893258422846,73.00714638616773 93.21207865170436,73.37823511040187 93.74297752807615,73.35074708233878 98.38202247186564,75.90711616864428 102.83146067417692,77.81749789598689 103.0463483146159,77.54262404567271 103.18539325840538,76.34691803138412 103.40028089884436,76.19573625936755 107.4073033707682,76.4431245490996 109.21488764043897,77.18528742805938 113.5,77.26774978585308 109.44241573027102,77.21277488474152 107.35674157302128,76.45686833326181 103.65308988763718,76.19573625936755 103.4382022471982,76.4293807639333 103.21067415724974,76.37440561302355 103.0463483146159,77.6250862437737 102.65449438203359,77.77626684453571 97.53511235956103,75.50854482490104 93.76825842692051,73.40572313434677 92.33988764043897,72.97965830280737 87.47331460670102,72.29245488793822" stroke="#4DD2FF" stroke-linecap="round" stroke-linejoin="round" stroke-width="0.5"><title>2025-02-18 4.9km</title><desc>1739836925000</desc></polyline><polyline fill="none" points="126.91960507759359,72.39141602956806 126.88152327219723,72.72266962128924 128.27785613544984,72.6812629547203 130.1311706629349,72.99871382860874 132.55571227084147,74.29611609308631 133.86318758811103,74.72398080500716 135.0818053596886,75.60731127781037 139.18194640334696,77.29114832519554 140.1212976022507,77.85702455299906 140.4640338505269,77.59478944282455 140.55289139633533,76.36642003789893 140.75599435827462,76.18699461169308 144.75458392099245,76.50443947828899 146.6078984485357,77.23594079579925 151.0,77.31875208373822 146.7475317348144,77.15312947086932 144.77997179125668,76.42162782640662 140.85754583921516,76.17319264860998 140.62905500701163,76.42162782640662 140.56558533146745,77.51197827825672 140.36248236958636,77.80181719218672 135.70380818052217,75.85574721441662 131.9464033850236,73.73022898859926 130.02961918193614,72.95730722373992 124.0,72.14297544701549 130.0677009872743,72.9711094263912 131.819464033877,73.75783327773388 130.0677009872743,72.9711094263912" stroke="#4DD2FF" stroke-linecap="round" stroke-linejoin="round" stroke-width="0.5"><title>2025-02-14 5.4km</title><desc>1739506837000</desc></polyline><polyline fill="none" points="164.4509574964759,72.57987319130916 166.72092480148422,72.85411259061948 168.76389537606155,73.36145440200926 173.8082671649172,76.06268320267554 177.6798225128441,77.83148667388014 177.9950957496767,77.77664030999586 178.48692199907964,76.5425928015029 178.85263895383105,76.25464719238516 182.4341429239139,76.46032267346163 184.4518916394445,77.26931066915859 188.5,77.31044555701374 184.36361513310112,77.26931066915859 182.39631013548933,76.48774605354993 178.9156936011277,76.30949400977988 178.57519850542303,76.47403436400054 177.8815973844612,77.83148667388014 173.54343764600344,76.07639492284216 168.8017281644279,73.4163020816195 167.6541335824295,73.04607992697856 161.5,72.16851332611986 167.47758056985913,72.96380823590152 168.8647828117828,73.4163020816195 173.56865950499196,75.98041286005173 177.64198972447775,77.80406349399709 178.020317608607,77.70808233214484 178.53736571699847,76.50145774206612 178.94091546011623,76.30949400977988 182.44675385340815,76.50145774206612 184.36361513310112,77.22817577212118 188.5,77.29673392875702 186.77230266231345,77.39271530508995 184.35100420366507,77.20075250235095 182.37108827655902,76.48774605354993 178.90308267163346,76.24093548544624 178.57519850542303,76.46032267346163 178.00770667911274,77.74921712193463 177.80593180761207,77.79035190248396 173.31644091551425,75.89814248066978 169.24311069597024,73.62198073463514 167.95679588982603,73.08721575871459 161.52522185898852,72.19593734575028 164.7283979448839,72.4701773171837 167.6541335824295,72.96380823590152 169.40705277910456,73.86879481481446 168.7512844465673,73.40259016325581 168.58734236337477,73.48486165815848 167.46496964042308,72.99123213702114" stroke="yellow" stroke-linecap="round" stroke-linejoin="round" stroke-width="0.5"><title>2025-02-12 10.1km</title><desc>1739334019000</desc></polyline><polyline fill="none" points="33.208154506457504,106.88294611990568 34.341201716742944,107.27492785625509 38.5,107.30292652043863 34.48283261799952,107.33092518041667 32.55150214594323,106.4629647807451 28.766094420629088,106.21097552671563 27.942060085828416,107.79290246810706 27.697424892685376,107.83490034703573 22.650214592227712,105.62299928659922 21.298283261770848,104.75503099813068 17.718884120171424,103.07508098578546 11.5,102.09510320893605 17.487124463485088,102.92108481645118 19.48283261799952,103.691064400904 22.019313304685056,104.92302517332428 23.293991416343488,105.81899157105363 27.607296137313824,107.76490387695958 27.954935622343328,107.63891016508569 28.48283261799952,106.37896840029862 28.8047210299992,106.19697611383162 31.12231759657152,106.44896538663306 32.281115879828576,106.37896840029862 34.35407725319965,107.23292985217995 38.3326180257136,107.28892718885618 32.886266094399616,106.89694548169791 32.95064377685776,107.28892718885618 32.83476394851459,106.82694866225938 32.37124463520013,106.6169580474234 28.8047210299992,106.25297375918308 28.547210300457664,106.39296779962024 27.83905579400016,107.90489679106395 22.984978540742304,105.81899157105363 22.096566523599904,105.1050186936045 20.46137339057168,104.32104535045801" stroke="#4DD2FF" stroke-linecap="round" stroke-linejoin="round" stroke-width="0.5"><title>2025-02-10 6.3km</title><desc>1739162078000</desc></polyline><polyline fill="none" points="49.192963166569825,103.91114641839522 50.82572842220543,103.95954015541065 58.18801539303968,105.04033080600493 60.44420010992326,104.94354380277218 60.637163276493084,105.68557639195933 61.48323254531715,105.73396973362833 62.47773501917254,106.10498499500682 63.16052776243305,105.12098660909396 69.24628916976508,105.0080684764107 69.5728422209504,105.5726585527882 69.95876855409006,105.6694452756783 70.21110500267241,105.52426517516142 70.46344145131297,104.84675675648032 71.62122045073193,104.76610085157154 76.0,105.31456041423371 71.88840021984652,104.74996966698382 70.41891148983268,104.83062557787343 70.13688840012765,105.52426517516142 69.88455195154529,105.65331415816036 69.24628916976508,104.99193730978004 63.234744364977814,105.08872429144685 62.80428807029966,105.37908497764147 62.507421660237014,106.12111607895349 60.71137987897964,105.70170750709076 60.71137987897964,105.07259313082614 60.518416712468024,104.91128145880066 58.336448598071,105.02419964180444 51.43430456286296,104.00793388161401 49.0,103.89501517031749 51.10775151179405,103.97567139865714 57.861462341912556,104.99193730978004 60.414513468858786,104.91128145880066 60.62231995596085,105.6694452756783 62.49257833970478,106.10498499500682 62.93787795485696,105.26616697912687 63.32380428799661,105.08872429144685 69.18691588781076,104.99193730978004 69.60252886195667,105.58878967624332 69.89939527207753,105.65331415816036 70.21110500267241,105.45974065490009 70.32985156675568,104.9274126313976 70.7009345794213,104.782232034966 75.6882902692887,105.26616697912687 72.09620670694858,104.74996966698382 70.64156129735056,104.74996966698382 70.24079164373688,104.95967497299716 69.98845519515453,105.65331415816036 69.69158878503367,105.58878967624332 69.23144584929105,104.95967497299716 63.175371082965285,105.07259313082614 62.81913139077369,105.3468226983241 62.52226498071104,106.10498499500682 60.69653655850561,105.68557639195933 60.518416712468024,104.84675675648032 58.09895547002088,104.94354380277218 50.64760857610963,103.87888392106106 49.34139637160115,103.92727766525059 50.6772952171159,103.91114641839522 58.76690489274915,105.05646196904127 60.48873007140355,104.91128145880066 60.65200659696711,105.68557639195933 61.80978559644427,105.83075638464652 60.71137987897964,105.6694452756783 60.414513468858786,104.86288793385029 58.17317207250744,104.95967497299716 51.33040131937014,103.95954015541065 49.50467289716471,103.92727766525059 51.46399120398564,104.00793388161401" stroke="#4DD2FF" stroke-linecap="round" stroke-linejoin="round" stroke-width="0.5"><title>2025-01-25 9.9km</title><desc>1737761473000</desc></polyline><polyline fill="none" points="86.85999999998603,103.67958222994639 95.66499999997905,104.95109960414993 98.21500000002561,104.83698937139707 98.20000000001164,105.8802807196771 99.19000000006054,105.92918487996212 100.0449999999837,106.32041777003906 100.76500000001397,105.26082707967726 106.89999999996508,105.11411411940935 107.47000000003027,105.83137654850725 107.84499999997206,105.71726677336846 107.95000000001164,105.11411411940935 108.19000000000233,104.9347981459432 113.5,105.4401427868288 109.36000000004424,104.88589376410528 108.05499999999302,105.00000397142139 107.65000000002328,105.81507515568228 107.32000000000698,105.71726677336846 107.18500000005588,105.22822420809825 106.89999999996508,105.09781267333892 100.7949999999837,105.21192277049704 100.49499999999534,105.37493709207047 100.13500000000931,106.28781505582447 98.30499999993481,105.84767794008076 98.1699999999837,105.03260687693546 96.08499999996275,105.17931989162753 87.9100000000326,103.98931149968121 86.5,104.00561302807182 88.3300000000163,104.05451760602591 95.61999999999534,105.14671700797044 97.96000000002095,105.01630542478233 98.15500000002794,105.19562133168802 98.15500000002794,105.76617096997506 100.0449999999837,106.28781505582447 100.75,105.22822420809825 106.88500000000931,105.09781267333892 107.26000000000931,105.71726677336846 107.60500000003958,105.81507515568228 108.25000000005821,104.91849668655777 112.59999999997672,105.26082707967726 108.36999999999534,104.86959230109642 107.95000000001164,105.00000397142139 107.875,105.63575975484855 107.60500000003958,105.78247236640891 106.88500000000931,105.04890832783713 100.82500000001164,105.21192277049704 100.43500000005588,105.45644420747703 100.09000000002561,106.25521233676409 98.29000000003725,105.81507515568228 98.06500000000233,104.9837025168963 96.07000000006519,105.16301845037378 88.05999999999767,103.97300997006823 86.8300000000163,104.02191455524007 88.21000000002095,103.98931149968121 90.13000000000466,104.2990403323638" stroke="#4DD2FF" stroke-linecap="round" stroke-linejoin="round" stroke-width="0.5"><title>2025-01-19 8.1km</title><desc>1737283232000</desc></polyline><polyline fill="none" points="127.5688930406468,102.54559556867753 129.82624941616086,102.86097072510165 130.78468005603645,103.35460031981347 131.49089210649254,103.36831223411718 134.8453993460862,105.12342882853409 135.26156001875643,105.50735835250816 139.36011209717253,107.26245454901073 140.28070994862355,107.83834184188163 140.53292853810126,107.68751439168409 141.07519850536482,106.41233191877836 141.42830453056376,106.20665649898001 144.74497898179106,106.37119685320067 146.86361513315933,107.1253382613213 151.0,107.23503129964229 146.77533862675773,107.1253382613213 144.85847734700656,106.34377347106056 141.4787482485408,106.17923309230537 141.08780943485908,106.33006177845527 140.5203176085488,107.68751439168409 140.34376459597843,107.76978392529418 135.79121905652573,105.8638636218966 131.33956095285248,103.3957360596105 130.98645492759533,103.42315988104383 129.9271368519403,102.95695436111419 127.02662307338323,102.68271526831086 124.0,102.10681184323039 130.11630079406314,102.99809018976521 131.40261560020735,103.3820241473586 136.01821578701492,105.90499880086281 139.34750116767827,107.27616617218882 140.16721158334985,107.86576500133378 140.50770667917095,107.75607233893243 141.06258757587057,106.49460202235787 141.4787482485408,106.27521499778959 144.94675385334995,106.43975529070303 146.9014479215257,107.15276152703154 151.0,107.26245454901073 146.87622606259538,107.23503129964229 144.80803362914594,106.45346697515924 141.46613731898833,106.27521499778959 141.1130312937894,106.43975529070303 140.5203176085488,107.79720709499088 140.06632414762862,107.81091867831128 135.03456328820903,105.50735835250816 131.45305931806797,103.46429560551769 130.9990658570896,103.49171941670647 130.0154133582837,103.02551407046849 124.05044371786062,102.14794786194398 130.25502101820894,103.01180213062617 130.94862213917077,103.4094479708292 131.35217188228853,103.36831223411718 136.00560485757887,105.91871052514762 140.35637552547269,107.89318815675506 141.16347501165,106.38490854275005 142.5128444652073,106.38490854275005 141.32741709484253,106.37119685320067 140.5203176085488,107.82463026058394 140.14198972447775,107.76978392529418 134.99673049978446,105.50735835250816 131.4152265296434,103.45058369837352 131.04950957500841,103.47800751162868 130.040635217214,103.01180213062617 127.21578701538965,102.68271526831086" stroke="yellow" stroke-linecap="round" stroke-linejoin="round" stroke-width="0.5"><title>2025-01-17 12.3km</title><desc>1737088953000</desc></polyline><polyline fill="none" points="164.23033707862487,102.42302440077765 164.4073033707682,102.12065426741901 165.17837078648154,102.62918557113153 168.76825842697872,103.34387584461365 170.79073033703025,104.38841818661604 171.57443820219487,105.00689441713621 177.76825842697872,107.86560205288697 178.00842696626205,107.70067781642138 178.53932584263384,106.44999755834579 178.86797752801795,106.23009685630677 182.3946629212587,106.44999755834579 184.3286516853259,107.1646730297216 188.4873595504905,107.23339167913946 184.41713483142667,107.1646730297216 182.24297752807615,106.44999755834579 178.96910112357,106.28507205640199 178.58988764043897,106.42250998494274 177.99578651681077,107.79688363893365 177.83146067411872,107.85185837215977 173.2176966291736,105.87275765649974 168.80617977521615,103.38510789129941 167.35252808989026,103.01401913940208 161.5,102.18937479579472 167.23876404494513,102.95904296450317 168.4396067415364,103.38510789129941 168.7808988763718,103.34387584461365 173.72331460670102,106.06517115778115 176.73174157296307,107.24713540593802 177.62921348313102,107.8243710076058 177.9705056179664,107.74190888936573 178.5140449437895,106.4362537721463 178.8932584269205,106.24384065787308 182.26825842697872,106.44999755834579 184.30337078642333,107.15092929675302 188.5,107.20590422245732 184.36657303367974,107.15092929675302 182.38202247186564,106.50497269288462 178.98174157302128,106.2575844584353 178.58988764043897,106.44999755834579 177.86938202247256,107.87934573259554 173.41994382016128,105.96896443222067 168.84410112357,103.45382794861507 168.22471910109743,103.42633992875926 167.55477528087795,103.04150722068152 163.06741573038744,102.39553622729727" stroke="#4DD2FF" stroke-linecap="round" stroke-linejoin="round" stroke-width="0.5"><title>2025-01-15 9.1km</title><desc>1736916504000</desc></polyline><polyline fill="none" points="13.853846153826453,132.0163992854359 14.030069930071477,132.31750124892278 14.64685314684175,132.6870348022203 17.73076923075132,133.193431427193 19.40489510493353,133.74088566757564 21.393706293660216,135.0410829497123 27.674825174792204,137.91517060415936 27.951748251740355,137.84674046823056 28.48041958041722,136.61499366331554 28.908391608390957,136.38232945061463 32.38251748250332,136.6013075413066 34.2832167831948,137.3540427372791 38.5,137.44984517733974 34.23286713287234,137.3951009320008 32.34475524473237,136.64236590423388 28.89580419572303,136.38232945061463 28.48041958041722,136.61499366331554 27.88881118874997,137.92885662827757 27.49860139854718,137.92885662827757 23.3699300698936,136.09492031051195 18.80069930071477,133.54927686903102 18.536363636376336,133.6313949500327 16.937762237736024,133.1249995324033 11.5,132.35856056932244 16.05664335662732,132.9060172978352 18.77552447555354,133.50821781477134 22.841258741216734,135.75276598599157 27.7503496503341,137.9836007145641 28.039860139833763,137.81936840673734 28.631468531501014,136.4370739977603 29.91538461536402,136.4644462652068 28.669230769213755,136.49181852857873 27.851048951037228,137.96991469453496 23.055244755232707,136.012803330741 18.876223776198458,133.57664956674853 17.40349650348071,133.152372293378 13.438461538462434,132.60491629906755" stroke="#4DD2FF" stroke-linecap="round" stroke-linejoin="round" stroke-width="0.5"><title>2025-01-14 7.8km</title><desc>1736829619000</desc></polyline><polyline fill="none" points="52.69209302327363,132.72654975694604 52.478604651172645,132.4261489259079 52.98093023255933,132.4807672954339 57.20046511630062,133.83256675465964 59.79999999998836,135.11608428576437 60.955348837247584,135.92169176170137 65.1372093023383,137.83328855168656 65.41348837205442,137.75136338391167 65.97860465117265,136.46786430753127 66.34279069764307,136.24939548449765 69.746046511631,136.46786430753127 71.37860465119593,137.13692345813615 72.54651162790833,137.28712007463037 76.0,137.28712007463037 71.61720930231968,137.17788618394115 69.75860465120059,136.46786430753127 66.38046511629364,136.23574117440148 66.016279069765,136.3859385294054 65.42604651162401,137.75136338391167 65.07441860466497,137.76501758108498 60.867441860435065,135.94900042764493 57.024651162850205,133.84622124377347 55.090697674429975,133.0406046447606 49.0,132.18036606154055 55.166046511614695,133.06791374000022 57.024651162850205,133.7642942937382 60.390232558129355,135.66225923228194 65.09953488374595,137.79232597236114 65.40093023260124,137.71040078626538 65.90325581392972,136.48151860031066 66.26744186051656,136.24939548449765 69.85906976746628,136.48151860031066 71.74279069766635,137.19154042382434 75.87441860465333,137.30077430640813 71.65488372097025,137.15057770107524 69.77116279071197,136.44055571890203 66.25488372094696,136.23574117440148 65.95348837209167,136.4132471261546 65.36325581400888,137.79232597236114 64.88604651164496,137.75136338391167 64.24558139534201,137.3144285371527 60.69162790698465,135.89438309169782 56.22093023255002,133.36831351909495 54.87720930232899,132.99964099425415 49.05023255816195,132.16671144829888 56.24604651163099,133.35465899437258 60.716744186065625,135.8124570572254 64.28325581399258,137.28712007463037 65.11209302331554,137.81963435962098 65.40093023260124,137.73770918569062 65.95348837209167,136.39959282831114 66.30511627910892,136.23574117440148 69.68325581395766,136.4132471261546 71.42883720929967,137.10961496920208 72.4837209302932,137.218848900593 71.37860465119593,137.10961496920208 69.6455813953653,136.4132471261546 66.33023255813168,136.19477823805937 65.97860465117265,136.3586299285671 65.41348837205442,137.68309238275106 64.96139534882968,137.69674658500298 63.79348837211728,137.05499797906668 60.716744186065625,135.86707441759063 56.208372092980426,133.36831351909495 54.475348837208,132.93136822307133" stroke="yellow" stroke-linecap="round" stroke-linejoin="round" stroke-width="0.5"><title>2025-01-10 13.0km</title><desc>1736482744000</desc></polyline><polyline fill="none" points="89.08644859812921,131.96141392319987 90.3228971962817,132.798237346753 92.46775700937724,133.20978845492937 94.57476635515923,134.01916961750248 96.85841121495469,135.37727577805344 102.76308411220089,138.03858607680013 103.04065420560073,137.81909802286827 103.15420560748316,136.61190904994146 103.31822429905878,136.4061374128505 107.29252336453646,136.66678144766774 109.37429906544276,137.43499329901533 113.43691588786896,137.5310195550701 109.19766355142929,137.39383917392115 107.29252336453646,136.68049954454182 103.39392523368588,136.39241929554555 103.14158878510352,136.68049954454182 103.04065420560073,137.87397006087122 102.76308411220089,138.03858607680013 98.24626168224495,136.1180567345873 93.8051401869161,133.6350569669885 92.41728971962584,133.20978845492937 86.5,132.38668531864823 92.74532710283529,133.23722516276757 93.36355140188243,133.58018366577744 93.79252336447826,133.58018366577744 98.32196261687204,136.06318417331204 102.57383177569136,137.98371408780804 103.00280373834539,137.87397006087122 103.12897196266567,136.62562715091917 103.35607476637233,136.41985552910774 107.29252336453646,136.68049954454182 109.47523364488734,137.43499329901533 113.5,137.4898654514691 109.13457943929825,137.38012113017612 107.27990654204041,136.62562715091917 103.40654205612373,136.41985552910774 103.19205607479671,136.55703663584427 103.17943925235886,137.5310195550701 102.85140186920762,138.02486808106187 98.15794392529642,136.07690231518063 93.8303738317918,133.6213386432355 92.32897196261911,133.20978845492937 86.5,132.34553006525675 90.91588785045315,132.9079843988875 93.74205607484328,133.5527470090601 97.89299065427622,135.87113008019514 102.59906542062527,137.98371408780804 102.9523364486522,137.8876880677999 103.22990654211026,137.20178646860586 102.9523364486522,137.95627808723657 102.3971962617361,137.87397006087122 98.23364485986531,136.09062045598694 93.8051401869161,133.53902867915167 93.5149532710202,133.60762031842023 92.54345794394612,133.14119666744955 90.94112149538705,132.9628579003911" stroke="yellow" stroke-linecap="round" stroke-linejoin="round" stroke-width="0.5"><title>2025-01-08 12.0km</title><desc>1736310892000</desc></polyline><polyline fill="none" points="126.8779803646612,133.33933692522987 127.25666199158877,132.73544648638926 127.30715287517523,132.14527891749458 127.54698457225459,131.93940606489195 127.82468443200924,131.99430551474507 127.69845722295577,132.09037951262144 128.92286115005845,132.55702393241518 129.55399719497655,133.07856629676826 132.14165497897193,133.98439952534682 136.4333800841705,136.3038612754026 140.29593267879682,138.0194207050954 140.54838709672913,137.77238113178464 140.58625525946263,136.63324992507114 140.93969144462608,136.39993302573566 144.8022440392524,136.67442346489406 146.82187938288553,137.44299451877305 151.0,137.52534122725774 146.7966339411214,137.4155456078006 144.85273492283886,136.701872486301 140.88920056103962,136.44110661765444 140.62412342213793,136.71559699546196 140.58625525946263,137.77238113178464 140.37166900420561,138.06059393510805 135.63814866764005,136.04309484337864 131.30855539970798,133.61383192476933 130.82889200560749,133.61383192476933 129.9453015428153,133.1883645011112 124.0,132.43350052455207 130.1220196353388,133.3118874027423" stroke="#4DD2FF" stroke-linecap="round" stroke-linejoin="round" stroke-width="0.5"><title>2025-01-06 5.2km</title><desc>1736137119000</desc></polyline><polyline fill="none" points="164.99485981307225,132.928562635876 165.0579439252033,132.4072630507144 165.47429906547768,131.78993268574413 165.77710280369502,132.8599706695386 165.3481308410992,133.14805675648677 166.142990654218,133.10690162880928 168.76728971960256,133.73794590907346 172.32523364486406,135.41157461293915 172.9939252336626,136.00145651404455 177.78831775696017,138.12775931242504 178.07850467285607,137.94942518226162 178.12897196260747,136.79710817785235 178.36869158875197,136.5776184071001 182.51962616824312,136.86569867758953 184.51308411208447,137.62019248823344 188.5,137.68878268137632 184.34906542056706,137.59275640384294 182.380841121485,136.82454438084096 178.41915887850337,136.5776184071001 178.17943925235886,136.78339007488103 178.09112149535213,137.94942518226162 177.83878504676977,138.196349316524 173.3093457944342,136.33069210224494 169.60000000003492,134.2318051415641 167.73271028039744,133.47729744679236 161.5,132.5032920325757 165.73925233643968,133.02459134583478 168.74205607478507,133.69679091326543 172.55233644862892,135.80940214906877 176.955607476586,137.72993678499188 177.6369158878806,138.21006731427042 178.06588785047643,137.90827112768602 178.17943925235886,136.7147995444975 178.35607476631412,136.53646404594474 181.15700934577035,136.86569867758953 182.380841121485,136.79710817785235 184.4121495326981,137.5790383600979 188.48738317756215,137.6476285685494 184.071495327109,137.51044812609325 182.3051401869161,136.82454438084096 178.4570093458169,136.53646404594474 178.17943925235886,136.74223575972428 178.1415887849871,137.86711706395727 177.86401869158726,138.1414773153083 173.37242990656523,136.3169739645091 169.62523364485241,134.1494953614456 168.07336448598653,133.55960752739338 161.66401869157562,132.57188413178665" stroke="#4DD2FF" stroke-linecap="round" stroke-linejoin="round" stroke-width="0.5"><title>2025-01-03 9.5km</title><desc>1735878536000</desc></polyline><polyline fill="none" points="14.19367681501899,162.38056400204368 15.774473067955114,162.8205805155012 17.58290398126701,162.98558643754222 18.45550351293059,163.42560150848294 18.784309133479837,163.38435014015704 22.54028103046585,165.46065756570897 27.586182669794653,167.78444413695252 27.96557377051795,167.71569347495097 28.484074941428844,166.46442695207952 28.863466042210348,166.244423170152 32.25269320845837,166.45067672338337 34.26346604217542,167.2069377801672 38.5,167.33068929443834 34.579625292739365,167.22068795251835 32.40444964868948,166.51942785659048 28.888758782239165,166.31317438014958 28.484074941428844,166.53317808016436 27.81381733022863,167.83944464811066 22.907025761145633,165.77691426275123 18.771662763494533,163.46685286761203 18.44285714288708,163.49435376854672 17.431147541035898,163.01308741021785 16.002107728330884,162.94433497085993 11.5,162.1605553519039 17.532318501209375,162.9993369243748 19.315456674492452,163.83811468470958 17.646135831426363,163.04058837877528 13.940749414497986,162.47681770399504" stroke="#4DD2FF" stroke-linecap="round" stroke-linejoin="round" stroke-width="0.5"><title>2025-01-02 5.6km</title><desc>1735817809000</desc></polyline><polyline fill="none" points="52.11635514016962,162.48957241272728 55.11915887851501,162.9834340737143 56.002336448582355,163.44985775944951 56.84766355139436,163.60075928716105 61.440186915919185,166.12491196051997 65.31355140183587,167.7985158522206 65.6415887849871,167.45556547415617 66.0074766355101,166.5364553113759 66.44906542054377,166.31696563870355 69.69158878503367,166.42671050774516 72.06355140189407,167.29094906584942 76.0,167.318385144099 74.46074766351376,167.4144113858638 71.83644859812921,167.24979494075524 69.86822429904714,166.48158291775326 66.46168224303983,166.28952941122407 66.07056074764114,166.44042861179332 65.49018691590754,167.74364383463399 65.27570093463873,167.83966985462757 59.09345794393448,165.12348596453376 56.25467289716471,163.44985775944951 55.85093457950279,163.4772944100696 54.980373831815086,163.03830750983616 49.0,162.1466121465637 54.52616822428536,162.9148422555736 55.95186915888917,163.4224211047549 56.25467289716471,163.34011111616564 60.304672897211276,165.61734056101704 65.27570093463873,167.8533878534363 66.10841121495469,166.39927429663658 66.44906542054377,166.26209317967005 67.40794392518,166.38555618951796 66.08317757007899,166.3718380814098 65.49018691590754,167.71620781972888 65.26308411214268,167.78479784933734 60.68317757011391,165.8505492155964 56.44392523361603,163.49101273382257 55.87616822432028,163.44985775944951 54.866822429932654,162.99715243428363 53.78177570091793,163.03830750983616 49.378504672902636,162.1877674122661 52.15420560748316,162.70906664781796" stroke="#4DD2FF" stroke-linecap="round" stroke-linejoin="round" stroke-width="0.5"><title>2024-12-31 8.0km</title><desc>1735619151000</desc></polyline><polyline fill="none" points="90.25981308415066,162.68163005549286 91.18084112153156,162.70906681849738 93.81775700941216,163.32639290584484 95.3570093458402,164.14949113606417 95.79859813087387,164.60219359426992 102.86401869158726,167.79851564374985 103.5327102803858,166.49530090630287 103.91121495328844,166.28952931518143 107.4060747664189,166.48158280736243 109.14719626167789,167.1812045493425 113.48738317762036,167.2909488951409 109.31121495331172,167.24979477316083 107.3808411215432,166.49530090630287 103.92383177578449,166.28952931518143 103.5579439252615,166.45414660645474 102.80093457951443,167.8533876408619 98.53644859814085,166.02888496963715 94.67570093460381,163.9025620533357 92.42990654206369,163.01087094201648 86.5,162.14661235915264 91.26915887853829,162.7639403322828 93.77990654209862,163.34011123984237 98.53644859814085,165.91913987169391 102.687383177632,167.83966964311549 103.00280373834539,167.7162076173845 103.5327102803858,166.48158280736243 103.96168224303983,166.2483749693638 107.33037383185001,166.45414660645474 109.37429906544276,167.2086406419403 113.5,167.2223586866894 109.52570093463873,167.23607673043443 107.31775700935395,166.48158280736243 103.89859813085059,166.26209308562102 103.5327102803858,166.45414660645474 102.9775700934697,167.70248960940808 102.77570093458053,167.79851564374985 98.20841121498961,165.87798544309044 93.8808411215432,163.4498578749335 91.98831775703002,162.98343422396283 86.70186915888917,162.21520445837814 92.26588785048807,162.96971586337895 93.42663551407168,163.4361395491287 93.91869158885675,163.38126623566495 97.93084112147335,165.60362235069624 93.8556074766675,163.4087028944341 90.04532710282365,162.6953484374826" stroke="yellow" stroke-linecap="round" stroke-linejoin="round" stroke-width="0.5"><title>2024-12-30 10.8km</title><desc>1735533491000</desc></polyline><polyline fill="none" points="127.7905783582246,162.63118403371482 130.2588619403541,163.04196738389146 130.9514925373369,163.43905708294187 131.3041044776328,163.39797887799796 132.02192164183361,163.69921883432835 135.1072761194664,165.4518778778147 140.11940298508853,167.75221750879427 140.48460820899345,167.76590992040292 141.0135261194082,166.46512626300682 141.4291044776328,166.23235347957234 144.7411380596459,166.45143375448242 146.7182835820713,167.21821266037296 151.0,167.28667490713997 146.88199626869755,167.21821266037296 144.86707089556148,166.47881877052714 141.37873134331312,166.2597385282279 141.03871268656803,166.46512626300682 140.5979477612418,167.57421606502612 140.25792910443852,167.8206795566366 135.54804104479263,165.83526981562318 132.19822761195246,163.9183021288336 130.28404850745574,163.13781670015305 124.0,162.15193563136563 130.06996268656803,163.02827462034475 132.48787313431967,163.9183021288336 135.0317164179287,165.4518778778147 140.22014925372787,167.84806436863437 140.47201492532622,167.77960233097838 141.05130597011885,166.47881877052714 141.40391791041475,166.3145086132572 144.84188432834344,166.50620378245367 146.73087686568033,167.23190511175198 150.96222014923114,167.27298245980637 149.67770522390492,167.3825220097351 146.7938432835508,167.23190511175198 144.82929104479263,166.45143375448242 141.41651119402377,166.2597385282279 141.06389925378608,166.41035622282652 140.48460820899345,167.7385250961379 140.1068097014795,167.7932947405643 136.0265858208877,166.01327294346993 134.6916977611836,165.19171860741335 130.2588619403541,163.0830456684198 124.64225746266311,162.28886387386592" stroke="#4DD2FF" stroke-linecap="round" stroke-linejoin="round" stroke-width="0.5"><title>2024-12-27 9.1km</title><desc>1735273142000</desc></polyline><polyline fill="none" points="183.21355140185915,166.6256229057908 182.22943925234722,166.3512609988975 181.18224299064605,166.47472390759503 178.72196261683712,166.24151612172136 177.85140186920762,167.80537444740185 173.27149532712065,165.93971737210813 168.729439252289,163.4429996527906 168.36355140188243,163.4841546148964 167.3794392523705,163.0451678782265 161.5,162.11231758758368 165.6130841121776,162.77080063631 166.01682242995594,162.7022087619407 168.9060747663607,163.4292813300417 172.1233644859749,165.04803635863937 172.60280373838032,165.4870183202729 177.57383177569136,167.76422045107756 177.93971962615615,167.73678444843972 178.44439252332086,166.47472390759503 178.8481308410992,166.2277980074432 182.3303738317336,166.4472877128428 184.4626168224495,167.24293570168084 188.5,167.35267998208292 184.0462616822333,167.16062744848023 182.48177570092957,166.48844200343592 178.83551401866134,166.24151612172136 178.57056074769935,166.3238247857371 178.0028037383454,167.7779384508467 177.75046728970483,167.88768241243088 176.66542056074832,167.24293570168084 173.12009345792467,165.84369039350713 168.96915887854993,163.41556300628872 166.1177570093423,162.77080063631 163.12757009343477,162.37296740929014" stroke="#4DD2FF" stroke-linecap="round" stroke-linejoin="round" stroke-width="0.5"><title>2024-12-25 6.6km</title><desc>1735101299000</desc></polyline><polyline fill="none" points="14.3035547240288,192.3499114674487 14.202525724947918,192.59707365858776 14.366697848425247,192.54214875587786 14.606641721213236,192.14394272156642 15.376987839059439,192.67946098199172 16.235734331130516,192.72065462985483 18.875116931681987,193.39348290860653 23.547708138416056,195.9474617716769 27.841440598713234,197.80113394290674 28.01824134704657,197.78740310648573 28.54864359210478,196.482968980461 28.940130963514093,196.27700485353125 32.324602432141546,196.46923804581456 34.509354536945466,197.29309231344087 38.5,197.3617466695432 34.31992516369792,197.25189968752966 32.19831618334865,196.4555071101786 28.826473339635413,196.29073580245313 28.54864359210478,196.42804523576342 27.980355472420342,197.71874890891195 27.75304022448836,197.75994143051503 23.093077642668504,195.8376139467582 19.594948550045956,193.80541737709427 17.6122544434038,193.0090099072404 11.5,192.15767397846503 13.571094480750617,192.47349260444753 14.556127221672796,192.44603013670712 18.028999064525124,193.13259060231212 19.607577174901962,193.75049283450062 23.93919550976716,196.139695307691 27.63938260055147,197.78740310648573 28.030869971902575,197.74621059102356 28.662301216099877,196.34565958805615 29.950420954148285,196.34565958805615 28.700187090726104,196.30446675040002 27.96772684750613,197.85605727841903 23.42142188962316,195.97492371764383 20.97146866226103,194.533166021356 17.738540692196693,193.1051282327826 11.537885874568019,192.17140523433045 16.7282507015625,192.9128915315814" stroke="#4DD2FF" stroke-linecap="round" stroke-linejoin="round" stroke-width="0.5"><title>2024-12-18 8.3km</title><desc>1734495982000</desc></polyline><polyline fill="none" points="51.84608208958525,191.22766501444858 51.38013059698278,191.33720875928702 51.54384328360902,191.2002790680126 51.38013059698278,191.30982282919285 51.27938432834344,191.15920014071162 51.32975746266311,191.29612986261782 52.349813432840165,192.00816277172999 54.578824626863934,192.9940499374352 55.10774253733689,193.82931131424266 55.69962686568033,194.294865188087 56.35447761195246,194.39071436863742 60.97621268656803,196.8827755178354 65.15718283585738,198.75864541104238 65.4594216417754,198.77233782161784 66.05130597017705,197.45786175366084 66.41651119402377,197.25247401886736 69.91744402988115,197.47155426118115 72.12126865674509,198.2383330527955 76.0,198.3067952893325 71.78125,198.2383330527955 69.91744402988115,197.48524676763918 66.35354477621149,197.26616654163809 65.98833955224836,197.47155426118115 65.35867537313607,198.827107453777 59.17537313431967,196.23922450137616 58.747201492486056,195.81475344867795 57.19822761201067,194.9384230129217 55.334421641833615,194.19901595752162 49.0,193.17205677866878 55.01958955224836,193.966239046611 56.077425373194274,194.43179257358133 56.30410447763279,194.3633288935671 61.02658582094591,196.9375457130518 64.27565298503032,198.224640602406 65.1697761194082,198.77233782161784 65.50979477615329,198.69018334276916 66.13945895520737,197.37570668727858 67.44916044780985,197.33462914035772 66.21501865668688,197.4167842250754 65.56016791047296,198.84079985928838 64.99347014923114,198.79972263977106 60.72434701491147,196.96493080456275 59.553171641833615,196.1981467004225 55.29664179106476,194.1305521907925 49.10074626863934,193.26790654481738 55.10774253733689,193.99362458083488" stroke="#4DD2FF" stroke-linecap="round" stroke-linejoin="round" stroke-width="0.5"><title>2024-12-17 8.6km</title><desc>1734409492000</desc></polyline><polyline fill="none" points="89.82928538066335,192.51817044784548 92.52802428771975,192.943241374247 93.51167678658385,193.4094470678392 93.83956095285248,193.31346363923512 98.51821578707313,195.89128691218502 102.7680990191875,197.72864954722172 102.99509574961849,197.7012263591605 103.57519850536482,196.34377344252425 103.8904717421974,196.16552130579657 107.54764128912939,196.4260436012264 109.37622606259538,197.1253384656884 113.5,197.19389664274058 113.09645025688224,197.33101292021456 109.36361513310112,197.19389664274058 107.2071461933665,196.3986202190863 103.96613731904654,196.26150324700575 103.47431106958538,196.56316045073618 102.93204110232182,197.72864954722172 102.71765530126868,197.79720749956323 98.89654367114417,196.1792330147291 93.76389537600335,193.43687089538435 93.09551611403003,193.35459940048167 92.38930406357395,192.943241374247 86.5,192.13423457366298 92.47758056985913,192.9295294242038 93.32251284446102,193.38202323621954 93.81433909392217,193.3408874810848 98.48038299864857,195.87757518180297 102.67982251284411,197.71493795371498 103.03292853804305,197.68751476357284 103.46170014009112,196.522025406608 103.8904717421974,196.1929447226721 107.58547407761216,196.4260436012264 109.33839327422902,197.1253384656884 113.42433442315087,197.23503153667843 109.56539000466,197.19389664274058 107.35847734706476,196.3986202190863 103.87786081276136,196.2340798403311 103.56258757592877,196.384908526481 102.90681924339151,197.79720749956323 98.39210649230517,195.94613382358511 93.7765063054976,193.43687089538435 92.6541335824877,193.03922499594046 86.65133115369827,192.16165859125613 92.45235871087061,192.943241374247 93.33512377395527,193.38202323621954 93.87739374127705,193.39573515253142 99.01004203641787,196.1243861727853 102.67982251284411,197.75607273122296 103.03292853804305,197.7012263591605 103.46170014009112,196.30263834937068 104.92456795898033,196.33006174581533 103.58780943485908,196.3574851381709 102.95726296119392,197.86576542633702 98.35427370388061,195.9324220972776 93.82695002335822,193.42315898214292 93.42340028024046,193.43687089538435 92.4271368519403,192.95695332325704 86.65133115369827,192.2165066141315 92.33886034565512,192.9295294242038" stroke="yellow" stroke-linecap="round" stroke-linejoin="round" stroke-width="0.5"><title>2024-12-15 13.0km</title><desc>1734235831000</desc></polyline><polyline fill="none" points="126.66977611934999,192.24093879183056 126.66977611934999,192.39155978562485 127.8031716417172,192.7338797669654 129.32695895514917,193.0488135866326 130.1203358208295,192.9940425263194 130.88852611935,193.43221055172035 131.32929104473442,193.44590328568302 136.54291044775164,196.22550715645775 140.28311567165656,197.81383335187274 140.5223880596459,197.80014094332 141.026119402959,196.58151249715593 141.40391791041475,196.33504733472364 144.8796641791123,196.51304998520936 146.88199626863934,197.27982866256207 151.0,197.36198333113862 146.80643656715984,197.27982866256207 144.98041044775164,196.52674248961557 141.34095149260247,196.28027725375432 140.98833955219015,196.44458744773874 140.3838619402959,197.84121816587867 135.98880597011885,196.04750422752113 131.89598880591802,193.76083588520123 130.03218283579918,193.0351208230859 124.0,192.15878183410678 127.19869402976474,192.48740944467136 130.03218283579918,192.95296422039974 131.30410447757458,193.36374686662748 135.17024253727868,195.4724166635715 139.03638059698278,197.170289047368 139.99347014923114,197.77275612315862 140.50979477609508,197.71798647058313 140.97574626863934,196.58151249715593 141.3661380597041,196.30766229631263 144.8166977611836,196.45827995723812 146.69309701496968,197.23875131450768 148.1287313432549,197.25244376489718 146.59235074627213,197.1976739572856 144.79151119402377,196.48566497328284 141.5046641791123,196.28027725375432 140.98833955219015,196.43089493717707 140.35867537313607,197.78644853373407 135.7495335820713,195.91057878026913 131.32929104473442,193.47328875052335 130.00699626858113,193.0351208230859 128.0172574626049,192.78865090479667" stroke="#4DD2FF" stroke-linecap="round" stroke-linejoin="round" stroke-width="0.5"><title>2024-12-13 8.5km</title><desc>1734064159000</desc></polyline><polyline fill="none" points="164.42064241843764,192.54550260807446 167.20099196978845,192.94765770706 169.1140765233431,193.5439550475421 173.0932923948858,195.79045345360646 177.5444024563185,197.75958407904545 177.90151157299988,197.77345112225157 178.4754369391012,196.45607740404375 178.83254605572438,196.27580448583467 182.33986773737706,196.45607740404375 184.09990552667296,197.17716733105772 188.5,197.26036983520316 184.52078412851552,197.23263567127287 182.21232876711292,196.44221026268497 178.7432687766268,196.26193733104446 178.3734057628899,196.3867416869616 177.95252716104733,197.57931242320046 177.6464336325298,197.85665335986414 176.74090694379993,197.34357230215392 173.08053849783028,195.91525812564942 169.3819083608687,193.79356732050655 167.41780821915017,193.1140664593695 169.36915446381317,193.73809795544366 171.7158715163241,195.15256160090212 176.76641473785276,197.32970522687538 177.50614076526836,197.81505224571447 177.87600377888884,197.73184998950455 178.44992914499016,196.22033586050384 177.85049598489422,197.6902488474443 177.53164855932118,197.77345112225157 173.22083136509173,195.94299248582684 168.629428436514,193.36367930888082 168.1830420406186,193.3775466795778 167.060699102527,192.91992290054623 161.5,192.14334664013586" stroke="#4DD2FF" stroke-linecap="round" stroke-linejoin="round" stroke-width="0.5"><title>2024-12-11 6.6km</title><desc>1733890893000</desc></polyline><polyline fill="none" points="14.773876404447947,222.67728927131975 17.668539325823076,223.00714664009865 18.300561797688715,223.3782354749419 18.81882022472564,223.3644914573233 23.571629213460255,225.98958024053718 27.818820224667434,227.83124326927646 28.514044943847694,226.40189445612486 28.880617977469228,226.23696888047562 32.50842696626205,226.45686961528554 34.36657303367974,227.18528892709583 38.46207865170436,227.28149503628083 34.51825842697872,227.18528892709583 32.5463483146159,226.52558854113158 28.61516853928333,226.36066307603323 27.91994382016128,227.87247432072763 23.483146067417692,226.0170678835857 22.206460674176924,225.15120516030584 18.780898876371793,223.44695554762438 18.50280898879282,223.51567559471005 17.415730337088462,223.07586685102433 11.626404494338203,222.25122263029334 16.429775280877948,222.80098585372616 18.780898876371793,223.35074743870064 22.092696629173588,224.98627846651652 23.47050561796641,225.90711728684255 27.717696629231796,227.80375589654432 27.983146067417692,227.7075500596984 28.53932584269205,226.48435718867404 28.880617977469228,226.23696888047562 31.092696629173588,226.45686961528554 32.21769662917359,226.36066307603323 34.42977528087795,227.1990326600644 38.5,227.26775130948226 34.214887640438974,227.17154519312317 32.48314606741769,226.48435718867404 28.85533707862487,226.2507126841083 28.53932584269205,226.37440687044 28.096910112304613,227.6113441726775 27.85674157302128,227.81749958344153 23.91292134829564,226.16824984710547 21.549157303350512,224.75263206461386 18.755617977527436,223.3782354749419 16.733146067417692,222.86970614145685 11.5,222.12752567925781 17.959269662911538,223.06212281090848 27.515449438185897,227.73503744676418 27.983146067417692,227.65257527322683 28.53932584269205,226.22322507583885 28.00842696626205,227.7075500596984 27.742977528076153,227.76252482976997 23.62219101120718,226.0170678835857 18.793539325881284,223.33700341904478 14.382022471865639,222.5948248369532" stroke="yellow" stroke-linecap="round" stroke-linejoin="round" stroke-width="0.5"><title>2024-12-09 12.1km</title><desc>1733738831000</desc></polyline><polyline fill="none" points="60.23515551368473,225.51881740322278 65.31196983973496,227.8153353616508 65.8972667294438,226.48723205341958 66.35532516491367,226.23821162570675 69.6380772855482,226.37655634898692 71.63572101783939,227.16511930373963 76.0,227.31729773411644 72.0556079170201,227.23429133299214 69.85438265779521,226.47339759395982 66.39349670126103,226.2935495273996 65.96088595659239,226.43189420946874 65.3374175306526,227.8430040795938 61.31668237509439,226.16903922545316 56.20169651275501,223.40212208482262 55.74363807722693,223.4159567730967 55.1583411875763,223.028585112188 51.53204524033936,222.5443693996349 51.07398680486949,222.3230132247554 50.857681432622485,222.50286513693572 49.26720075402409,222.2538393659779 53.033459000929724,222.64121264315327 56.20169651275501,223.34678332146723 59.53534401510842,224.9931044781988 60.47690857684938,225.68483170191757 65.12111215834739,227.8153353616508 65.42648444860242,227.69082607999735 65.96088595659239,226.40422528130875 66.25353440147592,226.1828737075557 67.38595664460445,226.37655634898692 69.82893496699398,226.39039081564988 71.86475023563253,227.17895371167106 75.91093308193376,227.26196013748995 71.76295947219478,227.13745048482087 69.82893496699398,226.4180597458908 66.34260131948395,226.26588057864865 65.8209236569237,226.70858326436428 65.32469368516468,227.8430040795938 60.59142318571685,225.79550781860598 56.18897266726708,223.40212208482262 55.89632422244176,223.4574608316616 54.254948162066285,222.9179073463456 49.0,222.1569959204062 54.496701225289144,222.9179073463456 55.78180961351609,223.38828739552991 56.26531573984539,223.37445270523313 57.90669180022087,224.27370543213328" stroke="#4DD2FF" stroke-linecap="round" stroke-linejoin="round" stroke-width="0.5"><title>2024-12-06 9.2km</title><desc>1733479157000</desc></polyline><polyline fill="none" points="89.23913043469656,222.56388643894752 92.67251051886706,222.9756298893044 93.40462833095808,223.42854662169702 93.80855539970798,223.34619820771331 98.51683029450942,225.98132919649652 102.63183730712626,227.80668429371144 103.04838709672913,227.68316459449125 103.49018232815433,226.50286106974818 103.96984572231304,226.31071791979775 107.37798036460299,226.4754120605794 109.29663394106319,227.20280942133104 113.5,227.3400538843125 109.34712482464965,227.20280942133104 107.35273492278066,226.5165855727828 103.9067321177572,226.29699340139632 103.464936886332,226.57148357472033 102.83380084147211,227.83413310452306 98.17601683025714,225.85780827343115 97.11570827488322,225.130405602089 93.82117812056094,223.4559960848419 93.45511921454454,223.48344554388314 92.53366058901884,223.04425370819808 86.5,222.1658668954624 92.53366058901884,223.03052894645953 94.4270687236567,223.82656343693088 93.8716690041474,223.4559960848419 89.25175315560773,222.5776112354797" stroke="#4DD2FF" stroke-linecap="round" stroke-linejoin="round" stroke-width="0.5"><title>2024-12-03 5.6km</title><desc>1733220329000</desc></polyline><polyline fill="none" points="127.52447552455124,222.7007196889026 130.07972027972573,222.97444764526153 130.94825174828293,223.48084328924597 132.05594405595912,223.61770673717547 133.25174825178692,224.3978264432517 134.88811188808177,225.01370808160573 135.93286713288398,225.8211942124908 140.42657342663733,227.79199291770055 140.99300699302694,226.57393232446339 141.4461538462201,226.2728374497965 144.88251748256152,226.46444333624095 146.99720279726898,227.24455095360463 149.9552447553142,227.2171788125852 151.0,227.299295223449 150.6853146853391,227.38141159756924 146.87132867134642,227.27192309054954 144.88251748256152,226.51918783852307 141.4335664336104,226.32758200916578 141.05594405601732,226.5055017144623 140.476923077018,227.80567894590786 140.20000000001164,227.833050999252 135.5426573426812,225.83488038752694 133.02517482516123,224.3978264432517 129.9664335664711,223.0291931875836 124.0,222.19432189429062 130.18041958048707,223.00182041845983 131.9678321678657,223.8230017178721 129.94125874125166,223.0702523336222 124.02517482516123,222.16694900076254 127.67552447557682,222.67334687081166" stroke="#4DD2FF" stroke-linecap="round" stroke-linejoin="round" stroke-width="0.5"><title>2024-12-02 6.1km</title><desc>1733112856000</desc></polyline><polyline fill="none" points="161.5,221.28143743368855 162.29999999998836,221.61488187905343 164.14000000001397,224.0794535371242 163.97999999998137,223.91998219798552 164.32666666666046,223.90548479702557 164.78000000002794,223.3545827605849 166.43333333334886,223.60103912759223 167.04666666663252,224.00696658098605 168.27333333331626,224.25342212164833 169.59333333326504,225.07977077427495 171.19333333329996,225.68865700965398 172.03333333332557,226.42801630546455 176.83333333331393,228.6170832394564 177.22000000003027,228.6170832394564 177.80666666664183,227.26885287500045 178.19333333329996,227.0803898218437 181.88666666665813,227.26885287500045 184.16666666662786,228.08069163264008 188.5,228.12418289908965 184.19333333335817,228.10968581135967 181.89999999996508,227.2978471746319 178.2333333333372,227.109384149604 177.83333333331393,227.28335002534732 177.11333333334187,228.71856256631145 172.5266666666139,226.7904463067971 169.4199999999837,225.03627882743604 166.3133333332953,223.61553655120952 162.54000000003725,223.16611591634864" stroke="#4DD2FF" stroke-linecap="round" stroke-linejoin="round" stroke-width="0.5"><title>2024-11-29 4.6km</title><desc>1732853630000</desc></polyline><polyline fill="none" points="13.786602870794013,254.12914340617135 13.592822966515087,254.24151509003423 14.419617224892136,254.25556154578226 13.709090909163933,254.1712827954907 14.355023923446424,254.2274686331948 14.277511961699929,254.4241189334134 15.311004784656689,253.0897021553974 17.73971291864291,252.92114357471291 18.51483253587503,253.342539743855 19.6129186602775,253.5672839822655 23.914832535898313,256.0254066001653 28.2296650717617,257.89355835648894 28.875598086160608,256.53107356419787 29.26315789471846,256.34847176140465 32.93205741629936,256.53107356419787 34.79234449757496,257.28957146753964 38.5,257.3317101504945 34.869856459321454,257.261479007022 32.66076555021573,256.4889347023418 29.21148325363174,256.2922865557339 28.901435406703968,256.4748884129367 28.2296650717617,257.8795121717267 23.656459330115467,256.0254066001653 18.92822966509266,253.3846793089615 17.507177033519838,252.9492366819468 11.5,252.1064416435256 17.636363636353053,252.92114357471291 18.424401913944166,253.32849322004768 19.251196172263008,253.4408653811115 22.58421052637277,255.21071808320994 17.59760765550891,252.97732978500426 14.355023923446424,252.54188621713547" stroke="#4DD2FF" stroke-linecap="round" stroke-linejoin="round" stroke-width="0.5"><title>2024-11-28 6.3km</title><desc>1732767063000</desc></polyline><polyline fill="none" points="49.181208053720184,251.77369205487776 53.16778523492394,252.44687454985979 54.07382550340844,252.92302678020496 54.496644295344595,252.89018872838642 58.64932885905728,254.92613868853368 60.083892617432866,255.87843140719633 65.33892617450329,258.1770520508435 66.07885906042065,256.5844388700061 66.622483221523,256.2889011375082 70.62416107376339,256.5023450951703 72.4664429530385,257.27402537131275 74.06711409392301,257.5367244233348 76.0,257.4874683749222 73.08557046978967,257.43821231552283 70.89597315434366,256.5844388700061 66.77348993293708,256.37099499189935 66.15436241606949,256.61727637136937 65.33892617450329,258.2263079451368 59.61577181209577,255.8127561793517 54.496644295344595,252.89018872838642 54.119127516809385,252.97228384877963 52.82046979869483,252.39761736385117 49.0,251.8886257971899" stroke="#4DD2FF" stroke-linecap="round" stroke-linejoin="round" stroke-width="0.5"><title>2024-11-25 4.0km</title><desc>1732507947000</desc></polyline><polyline fill="none" points="86.5,250.3820539493172 92.00401284114923,251.08889195811935 93.49919743184,251.96065665973583 94.32263242395129,251.86641194298863 95.83948635635898,252.36119639253593 97.42134831473231,253.49212937030825 100.41171749611385,254.78798510192428 102.73033707868308,256.3901266656467 107.97431781701744,258.43991359628853 109.72953451052308,259.5001430026896 110.1845906903036,259.311658034625 111.15971107548103,257.02626885892823 113.5,256.97914725885494 111.24638844304718,257.09695124591235 109.98956661322154,259.6179460506828 103.07704654906411,256.7435391532199 94.2792937400518,252.03134017882985 93.69422150892206,252.14914600894554 95.77447833074257,252.54968550303602 96.79293739970308,253.49212937030825 98.5914927769918,253.98691127626807 102.6869983949,256.437248353468 109.25280898890924,259.35877928716945 110.1845906903036,259.4530217712163 111.15971107548103,257.002708059852 110.11958266457077,259.6179460506828 103.18539325846359,256.69641751106246" stroke="#4DD2FF" stroke-linecap="round" stroke-linejoin="round" stroke-width="0.5"><title>2024-11-20 4.0km</title><desc>1732095798000</desc></polyline><polyline fill="none" points="125.5772703133407,252.06118933402468 129.56346255977405,252.63804590460495 130.52416356879985,253.12135694212338 131.18374933610903,253.18371957530326 134.86882634094218,255.00781837440445 135.84386617102427,255.7561620000488 141.09187466808362,258.0791282917635 141.33563462557504,258.04794770693115 141.92352628783556,256.67599737366254 142.35369091870962,256.34859880578006 146.33988316514296,256.56686457463366 148.4333510355791,257.4087446934136 151.0,257.50228671974037 148.39033457246842,257.4243350340548 146.11046202864964,256.55127417010954 142.439723844931,256.3641892253945 141.83749336161418,256.76953972753836 141.27827934140805,258.11030887201196 135.94423791824374,255.91206658522424 131.84333510353463,253.6202574873605 129.53478491771966,252.70040868186334 124.0,251.8896911280026" stroke="#4DD2FF" stroke-linecap="round" stroke-linejoin="round" stroke-width="0.5"><title>2024-11-19 4.1km</title><desc>1731989484000</desc></polyline></svg>