<?xml version="1.0" encoding="utf-8" ?>
<svg baseProfile="full" height="300mm" version="1.1" viewBox="0,0,200,300" width="200mm" xmlns="http://www.w3.org/2000/svg" xmlns:ev="http://www.w3.org/2001/xml-events" xmlns:xlink="http://www.w3.org/1999/xlink"><defs /><rect fill="#222222" height="300" width="200" x="0" y="0" /><text fill="#FFFFFF" style="font-size:12px; font-family:Arial; font-weight:bold;" x="10" y="20">Over 4km Runs</text><text fill="#FFFFFF" style="font-size:4px; font-family:Arial" x="10" y="280">ATHLETE</text><text fill="#FFFFFF" style="font-size:9px; font-family:Arial" x="10" y="290">Fake David</text><text fill="#FFFFFF" style="font-size:4px; font-family:Arial" x="65" y="280">SPECIAL TRACKS</text><rect fill="yellow" height="2.6" width="2.6" x="65" y="283" /><text fill="#FFFFFF" style="font-size:3px; font-family:Arial" x="70" y="285.5">Over 10.0 km</text><rect fill="red" height="2.6" width="2.6" x="65" y="287" /><text fill="#FFFFFF" style="font-size:3px; font-family:Arial" x="70" y="289.5">Over 15.0 km</text><text fill="#FFFFFF" style="font-size:4px; font-family:Arial" x="120" y="280">STATISTICS</text><text fill="#FFFFFF" style="font-size:3px; font-family:Arial" x="120" y="285">Number: 17</text><text fill="#FFFFFF" style="font-size:3px; font-family:Arial" x="120" y="290">Weekly: 2.4</text><text fill="#FFFFFF" style="font-size:3px; font-family:Arial" x="141" y="285">Total: 127.4 km</text><text fill="#FFFFFF" style="font-size:3px; font-family:Arial" x="141" y="290">Avg: 7.5 km</text><text fill="#FFFFFF" style="font-size:3px; font-family:Arial" x="167" y="285">Min: 4.0 km</text><text fill="#FFFFFF" style="font-size:3px; font-family:Arial" x="167" y="290">Max: 13.0 km</text><polyline fill="none" points="17.88971962616779,49.02244508321746 19.271261682268232,49.06360022771696 23.22663551417645,49.98958935875271 25.53551401873119,51.22423670407443 26.1978971962817,51.90329039139033 36.7960280374391,56.697773465595674 37.79906542063691,54.742951359425206 38.366822429932654,54.43429397275031 43.60911214968655,54.722374211021815 46.22079439251684,55.77180682399194 52.73107476637233,55.93642334268952 46.466822430025786,55.874692159719416 43.5712616823148,54.742951359425206 38.38574766367674,54.43429397275031 37.83691588800866,54.68121990964573 36.70140186930075,56.78008146128559 30.30467289732769,54.04332745443389 24.51355140202213,50.85384307996719 21.144859813153744,49.516306413002894 12.25,48.21991853869986 19.403738317778334,49.14591049840965 23.169859813177027,50.010166859749006 30.30467289732769,53.87870980751177 36.5310747664189,56.759504464644124 37.00420560745988,56.57431142605492 37.79906542063691,54.722374211021815 38.44252336455975,54.37256245400931 43.49556074780412,54.68121990964573 46.561448598164134,55.812960962881334 52.75,55.83353803001228 46.788551401929,55.854115095644374 43.476635514060035,54.722374211021815 38.347897196304984,54.393139628416975 37.79906542063691,54.68121990964573 36.96635514032096,56.553734414090286 36.663551401929,56.697773465595674 29.812616822542623,53.81697816461383 23.3212616823148,50.17478681236389 20.482476635603234,49.47515133590787 12.552803738391958,48.32280668753083 20.89883177576121,49.454573795053875 22.63995327113662,50.15420932366396 23.378037383314222,50.07189935348288 29.396261682268232,53.40543352601526 23.28341121505946,50.1130543416366 17.567990654264577,49.04302265620208" stroke="yellow" stroke-linecap="round" stroke-linejoin="round" stroke-width="0.5"><title>2024-12-30 10.8km</title><desc>1735533491000</desc></polyline><polyline fill="none" points="62.93586753727868,48.94677605056495 66.63829291041475,49.562951075829915 67.67723880591802,50.15858562439098 68.20615671644919,50.096968316982384 69.28288246272132,50.548828251470695 73.9109141791705,53.17781681672204 81.42910447751638,56.62832626316231 81.97691231337376,56.64886488058255 82.77028917905409,54.69768939449568 83.39365671644919,54.34853021934396 88.36170708946884,54.67715063171636 91.32742537301965,55.82731899054488 97.75,55.9300123606954 91.57299440295901,55.82731899054488 88.55060634331312,54.71822815577616 83.31809701491147,54.3896077923273 82.80806902982295,54.69768939449568 82.1469216417754,56.36132409752463 81.63689365668688,56.731019334940356 74.57206156710163,53.75290472342749 69.54734141787048,50.87745319324313 66.6760727611836,49.70672505021503 57.25,48.22790344704117 66.35494402982295,49.54241193050984 69.9818097014213,50.87745319324313 73.79757462686393,53.17781681672204 81.58022388047539,56.77209655294428 81.95802238804754,56.66940349644574 82.82695895514917,54.71822815577616 83.35587686556391,54.47176291987125 88.51282649254426,54.75930567366595 91.34631529846229,55.847857667613425 97.69333022378851,55.90947368968045 95.76655783585738,56.07378301458084 91.44076492532622,55.847857667613425 88.49393656710163,54.67715063171636 83.37476679100655,54.3896077923273 82.8458488805918,54.61553433422523 81.97691231337376,56.60778764418501 81.41021455219015,56.68994211083918 75.28987873136066,54.01990941520489 73.2875466417754,52.78757791110547 66.63829291041475,49.624568502622424 58.21338619396556,48.43329581076978" stroke="#4DD2FF" stroke-linecap="round" stroke-linejoin="round" stroke-width="0.5"><title>2024-12-27 9.1km</title><desc>1735273142000</desc></polyline><polyline fill="none" points="134.82032710278872,54.93843435867166 133.34415887854993,54.52689149833168 131.77336448593996,54.712085861378 128.08294392528478,54.36227418256749 126.77710280381143,56.70806167108822 119.90724299068097,53.909576058140374 113.09415887843352,50.1644994791568 112.54532710276544,50.22623192232277 111.06915887852665,49.56775181731791 102.25,48.168476381353685 108.4196261682082,49.15620095444319 109.0252336448757,49.05331314289651 113.35911214957014,50.14392199505528 118.18504672893323,52.572054537944496 118.90420560748316,53.23052748038026 126.36074766353704,56.64633067660907 126.90957943920512,56.60517667265958 127.66658878501039,54.712085861378 128.2721962616779,54.34169701115752 133.4955607476877,54.670931569242384 136.69392523367424,55.8644035525067 142.75,56.02901997312438 136.06939252337907,55.74094117269851 133.72266355145257,54.73266300513933 128.2532710279338,54.36227418256749 127.85584112151992,54.48573717859108 127.0042056075763,56.66690767626278 126.62570093455724,56.831523618646315 124.99813084118068,55.8644035525067 119.6801401869161,53.76553559023887 113.4537383178249,50.123344509425806 109.17663551401347,49.15620095444319 104.69135514018126,48.55945111393521" stroke="#4DD2FF" stroke-linecap="round" stroke-linejoin="round" stroke-width="0.5"><title>2024-12-25 6.6km</title><desc>1735101299000</desc></polyline><polyline fill="none" points="151.4553320860723,48.524867201180314 151.30378858745098,48.89561048790347 151.55004677257966,48.81322313382407 151.90996258181985,48.21591408236418 153.06548175856005,49.01919147299486 154.35360149666667,49.08098194478953 158.3126753976103,50.090224362909794 165.3215622076532,53.921192657522624 171.76216089806985,56.70170091437467 172.02736202056985,56.68110465972859 172.82296538818628,54.72445347069879 173.41019644530024,54.41550728029688 178.48690364824142,54.70385706872912 181.7640318054473,55.939638470168575 187.75,56.042620004329365 181.47988774557598,55.87784953130176 178.2974742751103,54.68326066527516 173.23971000942402,54.43610370370152 172.82296538818628,54.64206785365241 171.9705332085723,56.57812336338975 171.62956033670343,56.63991214577982 164.63961646403186,53.75642092015187 159.39242282509804,50.70812606564141 156.4183816651348,49.51351486086787 147.25,48.23651096770482 150.35664172121324,48.710238906685845 151.8341908325674,48.66904520508251 157.04349859675858,49.69888590347546 159.41136576235294,50.625739251758205 165.90879326465074,54.209542961543775 171.4590739008272,56.68110465972859 172.04630495794117,56.619315886549884 172.99345182417892,54.51848938209878 174.92563143116422,54.51848938209878 173.05028063617647,54.456700125621865 171.95159027120098,56.78408591763582 165.13213283440564,53.9623855764803 161.45720299344976,51.79974903205584 156.60781103838235,49.65769234918116 147.30682881188113,48.25710785150295 155.09237605240196,49.36933729737939" stroke="#4DD2FF" stroke-linecap="round" stroke-linejoin="round" stroke-width="0.5"><title>2024-12-18 8.3km</title><desc>1734495982000</desc></polyline><polyline fill="none" points="16.51912313431967,95.59149752168742 15.820195895503275,95.75581313892326 16.06576492532622,95.55041860202618 15.820195895503275,95.71473424379656 15.669076492427848,95.48880021108198 15.744636193965562,95.694194793934 17.274720149231143,96.76224415759498 20.618236940237693,98.24107490615279 21.41161380603444,99.49396697136399 22.299440298462287,100.19229778213776 23.281716417870484,100.33607155297068 30.214319029822946,104.07416327677493 36.48577425372787,106.88796811657085 36.9391324626049,106.90850673244859 37.82695895526558,104.93679263049853 38.37476679100655,104.62871102831559 43.62616604473442,104.95733139176446 46.93190298508853,106.10749957920052 52.75,106.21019293401332 46.421875,106.10749957920052 43.62616604473442,104.97787015145877 38.28031716425903,104.64924981247168 37.73250932828523,104.95733139176446 36.78801305964589,106.99066118066548 27.513059701537713,103.10883675208606 26.87080223869998,102.47213017303147 24.5473414179869,101.15763451938983 21.751632462721318,100.04852393628971 12.25,98.50808516799589 21.279384328285232,99.69935856990924 22.866138059762307,100.39768886037928 23.206156716449186,100.2949933403579 30.28987873136066,104.15631856958498 35.163479477516375,106.08696090361627 36.504664179170504,106.90850673244859 37.014692164142616,106.78527501416102 37.95918843278196,104.81356003093242 39.92374067159835,104.75194371053658 38.07252798497211,104.87517633760581 37.09025186568033,107.01119978893257 36.24020522378851,106.94958395966387 29.83652052236721,104.19739620685868 28.079757462721318,103.04722005063377 21.694962686509825,99.94582828620332 12.401119402959011,98.65185981724062 21.41161380603444,99.74043687125959" stroke="#4DD2FF" stroke-linecap="round" stroke-linejoin="round" stroke-width="0.5"><title>2024-12-17 8.6km</title><desc>1734409492000</desc></polyline><polyline fill="none" points="62.24392807111144,97.52725567176822 66.29203643160872,98.16486206138507 67.76751517993398,98.86417060176609 68.25934142933693,98.72019545886724 75.2773236805806,102.58693036828481 81.65214852883946,105.34297432085441 81.99264362454414,105.30183953874803 82.86279775807634,103.26566016378638 83.33570761338342,102.99828195870214 88.82146193366498,103.38906540184689 91.56433909398038,104.43800769853988 97.75,104.54084496412543 97.14467538532335,104.7465193803364 91.5454226997681,104.54084496412543 88.31071929004975,103.34793032862945 83.44920597865712,103.1422548705159 82.71146660449449,103.59474067611154 81.89806165348273,105.34297432085441 81.57648295199033,105.4458112493594 75.84481550683267,103.01884952209366 68.14584306406323,98.90530634309107 67.14327417104505,98.78189910072251 66.08395609539002,98.16486206138507 57.25,96.95135186050902 66.216370854876,98.14429413630569 67.48376926674973,98.82303485434386 68.22150864091236,98.76133122164174 75.22057449794374,102.56636277270445 81.51973376935348,105.32240693057247 82.049392807181,105.28127214536653 82.69255021016579,103.53303810993384 83.33570761338342,103.03941708401544 88.87821111641824,103.38906540184689 91.50758991134353,104.43800769853988 97.6365016347263,104.60254730502493 91.84808500704821,104.54084496412543 88.53771602059714,103.34793032862945 83.31679121917114,103.10111976049666 82.84388136386406,103.32736278974335 81.86022886517458,105.4458112493594 75.08815973845776,102.6692007353995 68.16475945827551,98.90530634309107 66.48120037373155,98.30883749392524 57.4769967305474,96.99248788689147 66.17853806633502,98.16486206138507 67.50268566096202,98.82303485434386 68.31609061197378,98.84360272881167 76.01506305474322,102.93657925919979 81.51973376935348,105.38410909684899 82.049392807181,105.30183953874803 82.69255021016579,103.2039575240633 84.8868519384414,103.24509261873027 82.88171415240504,103.28622770725633 81.9358944419073,105.54864813950553 75.03141055593733,102.64863314591639 68.24042503500823,98.88473847322166 67.635100420448,98.90530634309107 66.14070527791046,98.18542998489283 57.4769967305474,97.07475992120453 66.00829051854089,98.14429413630569" stroke="yellow" stroke-linecap="round" stroke-linejoin="round" stroke-width="0.5"><title>2024-12-15 13.0km</title><desc>1734235831000</desc></polyline><polyline fill="none" points="106.25466417905409,97.11140818776039 106.25466417905409,97.3373396784591 107.9547574626049,97.85081965045538 110.24043843278196,98.32322037997073 111.43050373136066,98.24106378949364 112.58278917905409,98.89831582759507 113.24393656710163,98.9188549285318 121.06436567159835,103.08826073470118 126.67467350745574,105.47075002783095 127.03358208958525,105.45021141500911 127.78917910449672,103.62226874574844 128.35587686568033,103.25257100210001 133.56949626875576,103.51957497782132 136.57299440307543,104.66974299385038 142.75,104.79297499672975 136.45965485076886,104.66974299385038 133.72061567171477,103.54011373444519 128.2614272389328,103.17041588063876 127.73250932828523,103.41688117162266 126.82579291041475,105.51182724883256 120.23320895526558,102.8212563413108 114.09398320887703,99.39125382780912 111.29827425372787,98.30268123465066 102.25,96.98817275118199 107.048041044618,97.48111416703614 111.29827425372787,98.17944633061416 113.20615671633277,98.79562029996305 119.00536380591802,101.95862499537179 124.80457089550328,104.50543357105926 126.24020522390492,105.40913418475247 127.01469216414262,105.32697970588924 127.71361940295901,103.62226874574844 128.29920708958525,103.2114934444835 133.4750466417754,103.43741993587173 136.28964552248362,104.60812697178335 138.44309701491147,104.6286656473676 136.1385261194082,104.54651093593566 133.43726679100655,103.47849745993153 128.50699626875576,103.17041588063876 127.73250932828523,103.39634240577288 126.7880130597623,105.42967280061566 119.87430037313607,102.61586817042553 113.24393656710163,98.95993312580686 111.26049440295901,98.30268123465066 108.27588619396556,97.93297635720228" stroke="#4DD2FF" stroke-linecap="round" stroke-linejoin="round" stroke-width="0.5"><title>2024-12-13 8.5km</title><desc>1734064159000</desc></polyline><polyline fill="none" points="151.63096362771466,97.56825391210441 155.80148795468267,98.17148656057543 158.67111478501465,99.06593257132045 164.6399385923287,102.43568018040969 171.31660368444864,105.3893761185609 171.8522673593834,105.41017668337736 172.7131554086227,103.4341161060729 173.24881908355746,103.163706728752 178.5098016060656,103.4341161060729 181.14985828998033,104.51575099659385 187.75,104.64055475281202 181.78117619268596,104.59895350690931 178.31849315064028,103.41331539402017 173.11490316491108,103.14290599655942 172.56010864430573,103.33011253042787 171.9287907416001,105.11896863479342 171.4696504487656,105.53498003979621 170.1113604156999,104.76535845320905 164.62080774677452,102.62288718846685 159.07286254130304,99.44035098075983 156.12671232875437,98.42109968904697 159.05373169574887,99.3571469331655 162.57380727445707,101.47884240133862 170.14962210680824,104.74455784031306 171.25921114778612,105.4725783685717 171.81400566839147,105.34777498424228 172.67489371751435,103.0805037907412 171.77574397728313,105.28537327115191 171.29747283889446,105.41017668337736 164.8312470476376,102.66448872874025 157.94414265477099,98.79551896330668 157.274563060957,98.81632001936669 155.59104865370318,98.12988435081206 147.25,96.96501996018924" stroke="#4DD2FF" stroke-linecap="round" stroke-linejoin="round" stroke-width="0.5"><title>2024-12-11 6.6km</title><desc>1733890893000</desc></polyline><polyline fill="none" points="17.160814606701024,146.51593390700873 21.50280898879282,147.01071996017708 22.45084269659128,147.56735321243468 23.22823033714667,147.54673718601407 30.357443820219487,151.48437036082032 36.728230337030254,154.2468649039365 37.77106741571333,152.1028416842164 38.32092696626205,151.8554533207498 43.76264044945128,152.18530442295014 46.54985955054872,153.27793339066557 52.69311797758564,153.42224255444307 46.77738764055539,153.27793339066557 43.819522471982054,152.28838281173375 37.92275280901231,152.04099461407168 36.87991573032923,154.308711481106 30.224719101097435,151.52560182540037 28.30969101120718,150.2268077404733 23.171348314615898,147.6704333214584 22.754213483189233,147.77351339207962 21.12359550560359,147.11380027655105 12.439606741536409,145.87683394546912 19.64466292131692,146.70147878062562 23.171348314615898,147.52612115808006 28.139044943847694,149.9794176997966 30.205758427036926,151.36067593027838 36.57654494384769,154.20563384484558 36.974719101097435,154.06132508956944 37.80898876406718,152.22653578304744 38.32092696626205,151.8554533207498 41.63904494373128,152.18530442295014 43.32654494384769,152.04099461407168 46.64466292131692,153.29854899011843 52.75,153.40162696424522 46.32233146065846,153.2573177896993 43.72471910121385,152.22653578304744 38.28300561802462,151.87606902618427 37.80898876406718,152.06161030568182 37.14536516845692,153.9170162590308 36.785112359561026,154.22624937517685 30.869382022414356,151.75237477067276 27.32373595505487,149.62894809694262 23.133426966378465,147.56735321243468 20.099719101097435,146.8045592122071 12.25,145.69128851890855 21.93890449439641,147.09318421637 36.27317415724974,154.10255617015355 36.974719101097435,153.97886290986207 37.80898876406718,151.83483761378739 37.01264044945128,154.06132508956944 36.614466292085126,154.1437872446695 30.433286516810767,151.52560182540037 23.19030898879282,147.505505128589 16.57303370779846,146.39223725545162" stroke="yellow" stroke-linecap="round" stroke-linejoin="round" stroke-width="0.5"><title>2024-12-09 12.1km</title><desc>1733738831000</desc></polyline><polyline fill="none" points="74.10273327049799,150.7782261048269 81.71795475971885,154.22300304246892 82.59590009425301,152.23084808012936 83.2829877473414,151.85731743855285 88.2071159282932,152.06483452346583 91.2035815268755,153.2476789555949 97.75,153.47594660117466 91.83341187553015,153.3514369994955 88.53157398675103,152.21009639093245 83.34024505189154,151.9403242910921 82.6913289349759,152.1478413142031 81.756126296008,154.26450611939072 75.72502356267069,151.75355883817247 68.05254476913251,147.60318312722666 67.36545711592771,147.6239351596305 66.48751178139355,147.04287766826747 61.04806786053814,146.31655409943778 60.36098020733334,145.98451983711857 60.036522148991935,146.2542977053963 57.65080113103613,145.8807590489596 63.3001885014819,146.46181896471535 68.05254476913251,147.52017498220084 73.05301602266263,149.9896567172982 74.46536286524497,151.02724755287636 81.43166823755018,154.22300304246892 81.88972667290363,154.0362391200033 82.6913289349759,152.10633792195586 83.13030160230119,151.77431056133355 84.82893496693578,152.06483452346583 88.49340245046187,152.08558622347482 91.5471253534779,153.26843056749203 97.61639962298796,153.39294020622037 91.39443920832127,153.20617572721676 88.49340245046187,152.12708961883618 83.26390197919682,151.8988208679657 82.48138548538554,152.56287489653914 81.73704052774701,154.26450611939072 74.63713477854617,151.19326172789442 68.03345900098793,147.60318312722666 67.59448633366264,147.68619124749966 65.13242224312853,146.87686101952568 57.25,145.73549388059473 65.49505183799192,146.87686101952568 67.42271442036144,147.58243109329487 68.1479736098554,147.56167905783514 70.61003770038951,148.91055814819993" stroke="#4DD2FF" stroke-linecap="round" stroke-linejoin="round" stroke-width="0.5"><title>2024-12-06 9.2km</title><desc>1733479157000</desc></polyline><polyline fill="none" points="106.35869565210305,146.34582965842856 111.50876577827148,146.96344483396388 112.6069424963789,147.6428199325601 113.21283309953287,147.51929731157725 120.27524544170592,151.47199379475205 126.44775596063118,154.21002644057444 127.0725806450937,154.02474689175142 127.73527349217329,152.25429160463682 128.45476858341135,151.9660768797039 133.5669705469627,152.21311809087638 136.44495091156568,153.30421413200384 142.75,153.51008082648332 136.5206872370327,153.30421413200384 133.5291023842292,152.27487835918146 128.3600981766358,151.94549010209448 127.69740532943979,152.35722536209505 126.75070126226638,154.25119965679187 119.76402524544392,151.28671241016127 118.17356241226662,150.1956084031408 113.23176718084142,147.6839941272774 112.68267882184591,147.72516831583926 111.30049088352825,147.06638056231895 102.25,145.74880034320813 111.30049088352825,147.0457934196893 114.14060308551416,148.2398451554036 113.30750350630842,147.6839941272774 106.3776297334116,146.36641685322684" stroke="#4DD2FF" stroke-linecap="round" stroke-linejoin="round" stroke-width="0.5"><title>2024-12-03 5.6km</title><desc>1733220329000</desc></polyline><polyline fill="none" points="152.53671328676865,146.5510795333248 156.3695804196177,146.96167146788503 157.67237762233708,147.72126493384712 159.33391608390957,147.92656010575593 161.12762237770949,149.09673966484843 163.58216783218086,150.02056212238676 165.14930069935508,151.2317913187144 171.8898601399269,154.18798937654356 172.7395104895113,152.36089848667325 173.41923076938838,151.9092561746802 178.5737762239296,152.19666500433232 181.74580419587437,153.36682643038512 186.1828671329422,153.3257682188705 187.75,153.44894283515168 187.27797202800866,153.5721173963393 181.55699300696142,153.40788463580247 178.5737762239296,152.27878175776277 173.4003496504156,151.99137301373412 172.833916084026,152.25825257167162 171.9653846154688,154.20851841883268 171.55000000004657,154.24957649887074 164.5639860139927,151.25232058127585 160.78776223771274,149.09673966484843 156.19965034967754,147.04378978135355 147.25,145.79148284142138 156.5206293707015,147.0027306276752 159.20174825179856,148.23450257678633 156.16188811184838,147.10537850041874 147.28776223771274,145.75042350112926 152.76328671327792,146.51002030620293" stroke="#4DD2FF" stroke-linecap="round" stroke-linejoin="round" stroke-width="0.5"><title>2024-12-02 6.1km</title><desc>1733112856000</desc></polyline><polyline fill="none" points="12.25,193.172156150511 13.449999999953434,193.67232281857287 16.209999999962747,197.3691803056863 15.96999999997206,197.12997329697828 16.489999999990687,197.10822719553835 17.17000000004191,196.28187414087006 19.650000000023283,196.6515586913738 20.569999999948777,197.26044987147907 22.40999999991618,197.63013318247977 24.389999999897555,198.86965616140515 26.789999999920838,199.78298551446642 28.04999999993015,200.89202445818228 35.25,204.17562485917006 35.82999999995809,204.17562485917006 36.70999999996275,202.15327931247884 37.28999999992084,201.87058473276556 42.82999999995809,202.15327931247884 46.25,203.37103744896012 52.75,203.43627434864175 46.29000000003725,203.41452871702495 42.84999999997672,202.19677076194785 37.34999999997672,201.91407622440602 36.75,202.1750250380137 35.669999999925494,204.3278438494599 28.789999999920838,201.43566946018836 24.130000000004657,198.8044182411395 19.46999999997206,196.673304826807 13.81000000005588,195.99917387450114" stroke="#4DD2FF" stroke-linecap="round" stroke-linejoin="round" stroke-width="0.5"><title>2024-11-29 4.6km</title><desc>1732853630000</desc></polyline><polyline fill="none" points="60.679904306307435,197.44371510925703 60.38923444983084,197.61227263504406 61.629425837425515,197.63334231865883 60.563636363716796,197.5069241932215 61.532535885227844,197.59120294978493 61.416267942637205,197.88617840012012 62.96650717710145,195.88455323310336 66.60956937796436,195.6317153620621 67.77224880387075,196.2638096157898 69.41937799041625,196.60092597339826 75.87224880384747,200.28810990024067 82.34449760767166,203.09033753472613 83.31339712929912,201.0466103462968 83.8947368421359,200.7727076420997 89.39808612444904,201.0466103462968 92.18851674639154,202.1843572013022 97.75,202.24756522572716 92.30478468898218,202.14221851051843 88.9911483253818,200.98340205350542 83.81722488044761,200.6884298336081 83.35215311008506,200.96233261939778 82.34449760767166,203.06926825757546 75.48468899528962,200.28810990024067 68.39234449760988,196.32701896343497 66.26076555030886,195.67385502292018 57.25,194.40966246527387 66.45454545458779,195.6317153620621 67.63660287088715,196.2427398300788 68.87679425836541,196.41129807165998 73.87631578953005,199.0660771248222 66.39641148329247,195.7159946775064 61.532535885227844,195.0628293257032" stroke="#4DD2FF" stroke-linecap="round" stroke-linejoin="round" stroke-width="0.5"><title>2024-11-28 6.3km</title><desc>1732767063000</desc></polyline><polyline fill="none" points="102.52181208063848,193.91053808230208 108.50167785247322,194.92031182476785 109.86073825519998,195.6345401702565 110.494966443046,195.58528309257235 116.72399328870233,198.6392080327787 118.8758389261784,200.06764711075812 126.75838926178403,203.5155780762434 127.86828859068919,201.1266583049728 128.6837248322554,200.68335170624778 134.6862416106742,201.00351764273364 137.44966442952864,202.1610380569473 139.85067114094272,202.55508663496585 142.75,202.4812025623396 138.3783557047136,202.4073184732406 135.0939597316319,201.1266583049728 128.91023489937652,200.80649248781265 127.98154362419154,201.1759145570104 126.75838926178403,203.58946191769792 118.17365771823097,199.96913426899118 110.494966443046,195.58528309257235 109.92869127530139,195.70842577313306 107.98070469812956,194.84642604575492 102.25,194.082938695763" stroke="#4DD2FF" stroke-linecap="round" stroke-linejoin="round" stroke-width="0.5"><title>2024-11-25 4.0km</title><desc>1732507947000</desc></polyline><polyline fill="none" points="147.25,191.82308092399035 155.50601926166564,192.88333793717902 157.74879614776,194.19098498957464 158.98394863586873,194.04961791448295 161.25922953453846,194.79179458881845 163.63202247198205,196.48819405544782 168.11757624405436,198.43197765288642 171.59550561802462,200.83518999847 179.46147672552615,203.90987039441825 182.0943017656682,205.50021450404893 182.7768860354554,205.2174870519375 184.23956661322154,201.78940328842145 187.75,201.7187208883115 184.36958266457077,201.89542686886853 182.4843499198323,205.67691907600965 172.11556982353795,201.3653087298444 158.91894060990307,194.29701026825933 158.04133226338308,194.4737190134474 161.16171749599744,195.07452825453947 162.68940609961282,196.48819405544782 165.38723916537128,197.23036691441666 171.5304975922918,200.90587253018748 181.37921348318923,205.28816893073963 182.7768860354554,205.42953265682445 184.23956661322154,201.75406208977802 182.67937399691436,205.67691907600965 172.2780898876954,201.29462626660825" stroke="#4DD2FF" stroke-linecap="round" stroke-linejoin="round" stroke-width="0.5"><title>2024-11-20 4.0km</title><desc>1732095798000</desc></polyline><polyline fill="none" points="14.615905469981954,243.091784001037 20.595193839631975,243.95706885689287 22.03624535317067,244.68203541319235 23.02562400419265,244.77557936296216 28.55323951144237,247.51172756162123 30.015799256507307,248.6342430000659 37.887812002096325,252.1186924376525 38.25345193839166,252.07192156041856 39.13528943178244,250.01399606050109 39.78053637815174,249.52289820867009 45.75982474780176,249.85029686195776 48.90002655342687,251.11311704010586 52.75,251.25343007961055 48.83550185873173,251.1365025510895 45.41569304303266,249.8269112551643 39.9095857674256,249.54628383807722 39.00624004250858,250.15430959130754 38.167419012170285,252.16546330801793 30.166356877307408,248.86809987784363 24.015002655331045,245.43038623104803 20.552177376579493,244.05061302278773 12.25,242.83453669201117" stroke="#4DD2FF" stroke-linecap="round" stroke-linejoin="round" stroke-width="0.5"><title>2024-11-19 4.1km</title><desc>1731989484000</desc></polyline></svg>