<?xml version="1.0" encoding="utf-8" ?>
<svg baseProfile="full" height="300mm" version="1.1" viewBox="0,0,200,300" width="200mm" xmlns="http://www.w3.org/2000/svg" xmlns:ev="http://www.w3.org/2001/xml-events" xmlns:xlink="http://www.w3.org/1999/xlink"><defs /><rect fill="#222222" height="300" width="200" x="0" y="0" /><text fill="#FFFFFF" style="font-size:12px; font-family:Arial; font-weight:bold;" x="10" y="20">Over 4km Runs</text><text fill="#FFFFFF" style="font-size:4px; font-family:Arial" x="10" y="280">ATHLETE</text><text fill="#FFFFFF" style="font-size:9px; font-family:Arial" x="10" y="290">Fake David</text><text fill="#FFFFFF" style="font-size:4px; font-family:Arial" x="65" y="280">SPECIAL TRACKS</text><rect fill="yellow" height="2.6" width="2.6" x="65" y="283" /><text fill="#FFFFFF" style="font-size:3px; font-family:Arial" x="70" y="285.5">Over 10.0 km</text><rect fill="red" height="2.6" width="2.6" x="65" y="287" /><text fill="#FFFFFF" style="font-size:3px; font-family:Arial" x="70" y="289.5">Over 15.0 km</text><text fill="#FFFFFF" style="font-size:4px; font-family:Arial" x="120" y="280">STATISTICS</text><text fill="#FFFFFF" style="font-size:3px; font-family:Arial" x="120" y="285">Number: 36</text><text fill="#FFFFFF" style="font-size:3px; font-family:Arial" x="120" y="290">Weekly: 2.6</text><text fill="#FFFFFF" style="font-size:3px; font-family:Arial" x="141" y="285">Total: 297.5 km</text><text fill="#FFFFFF" style="font-size:3px; font-family:Arial" x="141" y="290">Avg: 8.3 km</text><text fill="#FFFFFF" style="font-size:3px; font-family:Arial" x="167" y="285">Min: 4.0 km</text><text fill="#FFFFFF" style="font-size:3px; font-family:Arial" x="167" y="290">Max: 13.0 km</text><polyline fill="none" points="13.79518916393863,42.470175997848855 13.593414292437956,42.59358391602291 11.5,42.16851184946427 14.791452592238784,42.5113119797752 18.763895376003347,43.361453547520796 22.307566557719838,45.116572103404906 23.480382998648565,45.91185468871845 27.541102288698312,47.76293015736155 27.969873890746385,47.73550695292943 28.184259691741318,46.41918833577074 28.373423633805942,46.18608926619345 32.244978981791064,46.44661173633358 34.161840261600446,47.214465292636305 38.436945352645125,47.2693118526513 36.936244745447766,47.37900492364133 34.11139654368162,47.187042006480624 32.219757122860756,46.474035132778226 28.42386735166656,46.22722441756923 28.234703409601934,46.364341522421455 28.04553946753731,47.58467925559671 27.667211583349854,47.81777655395854 23.404717421799432,45.98041337142058 18.73867351707304,43.40258933024597 18.51167678658385,43.47114894763217 17.679355441359803,43.08721476120991 11.5,42.182223866926506 17.855908453988377,43.046078908009804 27.515880429709796,47.83148815053573 27.982484820182435,47.74921855563298 28.108594114892185,46.52888191344391 28.335590845439583,46.22722441756923 32.56025221856544,46.501458525133785 34.199673049966805,47.22817693416437 38.5,47.33787002970348 34.22489490895532,47.214465292636305 32.30803362914594,46.48774682948715 28.411256422288716,46.18608926619345 28.184259691741318,46.41918833577074 27.982484820182435,47.68066053185612 27.59154600655893,47.790353357675485 22.938113031326793,45.733601994259516 19.016113965422846,43.47114894763217 18.423400280240458,43.44372510374524 17.301027557230555,42.96380717403372 13.66907986922888,42.53873596260382 15.119336758565623,42.662143834808376 17.666744511923753,43.03236695489613 19.369219990621787,43.786522858732496 19.43227463803487,43.64940383336216 18.675618869718164,43.38887740368955" stroke="yellow" stroke-linecap="round" stroke-linejoin="round" stroke-width="0.5"><title>2025-02-28 10.0km</title><desc>1740736874000</desc></polyline><polyline fill="none" points="50.88723205967108,42.85911382646009 51.15144454798428,42.55815331508347 50.83690587140154,42.84543381391268 51.11369990679668,42.667593558100634 50.95013979502255,42.59919341384375 49.11323392362101,42.229832194556366 49.95619757688837,42.20247207469947 55.05172413791297,42.900153857975965 55.869524697132874,43.29687368964369 56.36020503262989,43.24215376380016 61.27958993479842,45.9097311674559 65.21761416591471,47.72913352608157 65.55731593666133,47.606016641904716 65.68313140730606,46.29276474106882 65.93476234859554,46.12860759305477 69.87278657971183,46.37484325999685 71.81034482759424,47.11354827968171 75.93709226470673,47.195626431770506 71.78518173348857,47.181946742290165 69.77213420323096,46.37484325999685 67.45712954335613,46.388523009605706 65.85927306616213,46.15596712793922 65.65796831314219,46.279084984300425 65.55731593666133,47.63337595661869 65.24277726002038,47.92064851519535 60.19757688726531,45.636135268592625 56.59925442683743,43.529433192437864 54.56104380241595,42.96855389008124 52.950605778198224,42.913833866419736 49.01258154702373,42.18879201321397 55.11463187326444,42.98223389346094 55.78145386767574,43.37895354778448 56.36020503262989,43.37895354778448 61.29217148182215,45.99180985763087 65.29310344828991,47.78385211476416 65.56989748368505,47.55129800019495 65.74603914259933,46.15596712793922 69.75955265609082,46.347483757766895 71.39515377447242,46.990430982768885 72.60298229265027,47.181946742290165 76.0,47.181946742290165 71.8732525628875,47.195626431770506 69.77213420323096,46.484281228200416 67.46971109043807,46.47060148573655 65.7712022367632,46.18332665869093 65.58247903076699,47.48289967517485 65.20503261883277,47.83857068720681 60.68825722276233,45.86869180860231 56.259552656149026,43.392633520576055 50.32106244174065,42.43503296367999 49.0,42.07935148480465 50.975302889128216,42.38031278100971 51.83084808947751,42.55815331508347 54.14585274935234,42.76335371725145 56.863466915208846,43.74831245538371 56.32246039144229,43.37895354778448 56.05824790307088,43.44735340155603 54.85041938489303,42.96855389008124 51.981826654286124,42.76335371725145 50.03168685926357,42.270872366731055" stroke="yellow" stroke-linecap="round" stroke-linejoin="round" stroke-width="0.5"><title>2025-02-26 11.1km</title><desc>1740566027000</desc></polyline><polyline fill="none" points="88.80457089556148,42.501103738395614 86.55037313437788,42.22724762067082 87.55783582094591,42.21355480408238 92.65811567165656,42.91188714974851 93.37593283591559,43.30897690798156 93.804104477691,43.29528417198162 97.35541044780985,45.047946088190656 98.11100746272132,45.70518999772321 101.8260261194082,47.211365092676715 102.6697761194664,47.7864468729822 103.08535447763279,47.53998347315064 103.19869402988115,46.28027649060823 103.40018656721804,46.11596624768572 104.97434701496968,46.36243155699049 107.2411380597623,46.376124064510805 108.95382462686393,47.0470556821092 110.18796641792869,47.225057536910754 113.4244402985205,47.18398020112363 110.15018656715984,47.18398020112363 109.04197761195246,47.033363224574714 107.40485074633034,46.41720158084354 103.50093283585738,46.15704382221156 103.22388059704099,46.33504653896671 102.99720149260247,47.70429244310071 102.63199626869755,47.80013927438995 100.89412313431967,46.85536118410528 98.27472014928935,45.82842296913441 93.85447761195246,43.36374784176587 93.43889925378608,43.40482603141572 92.39365671644919,42.91188714974851 90.9958022388746,42.92557991432841 86.5,42.15878352751315 92.41884328360902,42.92557991432841 93.37593283591559,43.377440572701744 93.85447761195246,43.30897690798156 97.58208955224836,45.4039534975891 101.8260261194082,47.252442422366585 102.75792910449672,47.84121647248685 103.12313432840165,47.4441365061939 103.18610074633034,46.32135402840504 103.34981343289837,46.11596624768572 105.25139925378608,46.36243155699049 107.15298507467378,46.32135402840504 108.9286380597623,46.9922858459322 110.25093283585738,47.170287753790035 113.5,47.18398020112363 109.62126865674509,47.18398020112363 107.44263059704099,46.40350907643733 106.17070895520737,46.44458658664371 103.41277985076886,46.10227372084046 103.18610074633034,46.36243155699049 103.09794776124181,47.52629105238884 102.97201492538443,47.772754470526706 102.69496268656803,47.813831674764515 97.6828358208877,45.48610895569436 93.91744402988115,43.391133302560775 93.47667910455493,43.40482603141572 92.49440298508853,42.99404372186109 90.89505597023526,42.91188714974851 86.6385261194664,42.22724762067082 89.63572761201067,42.596953283195035 90.27798507467378,42.63803164420824 92.40625000005821,42.98035096240346 94.66044776124181,43.74714392134047 97.46875,45.198564691716456 93.94263059704099,43.40482603141572 90.27798507467378,42.69280277795042" stroke="yellow" stroke-linecap="round" stroke-linejoin="round" stroke-width="0.5"><title>2025-02-21 11.3km</title><desc>1740135343000</desc></polyline><polyline fill="none" points="126.21229050279362,42.601427515706746 124.07541899441276,42.17774091429601 127.14245810057037,42.51942373375641 130.0335195530788,42.99777861175244 130.83798882679548,43.407796085753944 131.62988826812943,43.44879778275208 135.16201117320452,45.4715367898898 139.24720670387615,47.24824859993532 140.16480446927017,47.80859260172292 140.57960893848212,47.50792042328976 140.71787709492492,46.291559763471014 140.8938547486323,46.15488952242595 142.64106145250844,46.387228871608386 144.90363128489116,46.40089588295086 146.34916201111628,47.0159103411861 147.58100558654405,47.22091470241139 150.93715083791176,47.2072477521433 149.93156424578046,47.34391720921849 146.92737430159468,47.179913848493015 144.8282122904784,46.46923092457291 140.95670391060412,46.19589060542057 140.69273743010126,46.41456289331836 140.50418994412757,47.64458965638187 140.11452513962286,47.79492569521244 135.3505586591782,45.66287581156939 131.36592178768478,43.435130551457405 130.78770949720638,43.407796085753944 129.8449720670469,42.99777861175244 128.2611731843208,42.90210773595027 124.0,42.16407358829747 129.90782122901874,42.95677681393863 131.26536312850658,43.339459903756506 134.57122905022698,44.97952124632138 135.6773743016529,45.73121112809167 140.30307262565475,47.740258058998734 140.55446927371668,47.52158735120611 140.64245810051216,46.37356185920362 140.81843575416133,46.15488952242595 144.7779329608311,46.387228871608386 146.3617318435572,47.0159103411861 147.63128491613315,47.22091470241139 151.0,47.24824859993532 149.60474860330578,47.35758414931479 146.9399441340356,47.19358080084203 144.90363128489116,46.46923092457291 140.91899441339774,46.18222357875493 140.65502793289488,46.44189691099746 140.59217877092306,47.494253494383884 140.34078212286113,47.83592641170253 136.14245810051216,46.018219179532025 131.3784916200675,43.407796085753944 130.95111731841462,43.435130551457405 129.92039106145967,43.0114458756434 126.61452513962286,42.58776022125676 127.69553072628332,42.71076583463582 129.8449720670469,42.95677681393863 131.96927374304505,43.76314382191049 131.41620111727389,43.407796085753944 130.73743016755907,43.394128851388814 129.51815642457223,42.94310954595858 128.42458100558724,42.92944227698899 124.61592178774299,42.218742886252585" stroke="yellow" stroke-linecap="round" stroke-linejoin="round" stroke-width="0.5"><title>2025-02-19 10.6km</title><desc>1739962218000</desc></polyline><polyline fill="none" points="163.45926966291154,42.37491943289933 161.5,42.18250210399856 164.82443820225308,42.53984841221245 167.47893258422846,43.00714638616773 168.21207865170436,43.378235110401874 168.74297752807615,43.350747082338785 173.38202247186564,45.90711616864428 177.83146067417692,47.81749789598689 178.0463483146159,47.54262404567271 178.18539325840538,46.34691803138412 178.40028089884436,46.19573625936755 182.4073033707682,46.44312454909959 184.21488764043897,47.18528742805938 188.5,47.267749785853084 184.44241573027102,47.21277488474152 182.35674157302128,46.45686833326181 178.65308988763718,46.19573625936755 178.4382022471982,46.429380763933295 178.21067415724974,46.374405613023555 178.0463483146159,47.625086243773694 177.6544943820336,47.77626684453571 172.53511235956103,45.50854482490104 168.7682584269205,43.40572313434677 167.33988764043897,42.979658302807366 162.47331460670102,42.29245488793822" stroke="#4DD2FF" stroke-linecap="round" stroke-linejoin="round" stroke-width="0.5"><title>2025-02-18 4.9km</title><desc>1739836925000</desc></polyline><polyline fill="none" points="14.419605077593587,72.39141602956806 14.381523272197228,72.72266962128924 15.777856135449838,72.6812629547203 17.631170662934892,72.99871382860874 20.055712270841468,74.29611609308631 21.363187588111032,74.72398080500716 22.581805359688587,75.60731127781037 26.681946403346956,77.29114832519554 27.621297602250706,77.85702455299906 27.964033850526903,77.59478944282455 28.052891396335326,76.36642003789893 28.25599435827462,76.18699461169308 32.254583920992445,76.50443947828899 34.10789844853571,77.23594079579925 38.5,77.31875208373822 34.2475317348144,77.15312947086932 32.279971791256685,76.42162782640662 28.357545839215163,76.17319264860998 28.12905500701163,76.42162782640662 28.065585331467446,77.51197827825672 27.86248236958636,77.80181719218672 23.203808180522174,75.85574721441662 19.446403385023586,73.73022898859926 17.52961918193614,72.95730722373992 11.5,72.14297544701549 17.567700987274293,72.9711094263912 19.31946403387701,73.75783327773388 17.567700987274293,72.9711094263912" stroke="#4DD2FF" stroke-linecap="round" stroke-linejoin="round" stroke-width="0.5"><title>2025-02-14 5.4km</title><desc>1739506837000</desc></polyline><polyline fill="none" points="51.950957496475894,72.57987319130916 54.220924801484216,72.85411259061948 56.263895376061555,73.36145440200926 61.3082671649172,76.06268320267554 65.17982251284411,77.83148667388014 65.4950957496767,77.77664030999586 65.98692199907964,76.5425928015029 66.35263895383105,76.25464719238516 69.9341429239139,76.46032267346163 71.95189163944451,77.26931066915859 76.0,77.31044555701374 71.86361513310112,77.26931066915859 69.89631013548933,76.48774605354993 66.41569360112771,76.30949400977988 66.07519850542303,76.47403436400054 65.3815973844612,77.83148667388014 61.04343764600344,76.07639492284216 56.301728164427914,73.4163020816195 55.154133582429495,73.04607992697856 49.0,72.16851332611986 54.97758056985913,72.96380823590152 56.36478281178279,73.4163020816195 61.068659504991956,75.98041286005173 65.14198972447775,77.80406349399709 65.520317608607,77.70808233214484 66.03736571699847,76.50145774206612 66.44091546011623,76.30949400977988 69.94675385340815,76.50145774206612 71.86361513310112,77.22817577212118 76.0,77.29673392875702 74.27230266231345,77.39271530508995 71.85100420366507,77.20075250235095 69.87108827655902,76.48774605354993 66.40308267163346,76.24093548544624 66.07519850542303,76.46032267346163 65.50770667911274,77.74921712193463 65.30593180761207,77.79035190248396 60.81644091551425,75.89814248066978 56.743110695970245,73.62198073463514 55.456795889826026,73.08721575871459 49.025221858988516,72.19593734575028 52.22839794488391,72.4701773171837 55.154133582429495,72.96380823590152 56.90705277910456,73.86879481481446 56.2512844465673,73.40259016325581 56.08734236337477,73.48486165815848 54.96496964042308,72.99123213702114" stroke="yellow" stroke-linecap="round" stroke-linejoin="round" stroke-width="0.5"><title>2025-02-12 10.1km</title><desc>1739334019000</desc></polyline><polyline fill="none" points="108.2081545064575,76.88294611990568 109.34120171674294,77.27492785625509 113.5,77.30292652043863 109.48283261799952,77.33092518041667 107.55150214594323,76.4629647807451 103.76609442062909,76.21097552671563 102.94206008582842,77.79290246810706 102.69742489268538,77.83490034703573 97.65021459222771,75.62299928659922 96.29828326177085,74.75503099813068 92.71888412017142,73.07508098578546 86.5,72.09510320893605 92.48712446348509,72.92108481645118 94.48283261799952,73.691064400904 97.01931330468506,74.92302517332428 98.29399141634349,75.81899157105363 102.60729613731382,77.76490387695958 102.95493562234333,77.63891016508569 103.48283261799952,76.37896840029862 103.8047210299992,76.19697611383162 106.12231759657152,76.44896538663306 107.28111587982858,76.37896840029862 109.35407725319965,77.23292985217995 113.3326180257136,77.28892718885618 107.88626609439962,76.89694548169791 107.95064377685776,77.28892718885618 107.83476394851459,76.82694866225938 107.37124463520013,76.6169580474234 103.8047210299992,76.25297375918308 103.54721030045766,76.39296779962024 102.83905579400016,77.90489679106395 97.9849785407423,75.81899157105363 97.0965665235999,75.1050186936045 95.46137339057168,74.32104535045801" stroke="#4DD2FF" stroke-linecap="round" stroke-linejoin="round" stroke-width="0.5"><title>2025-02-10 6.3km</title><desc>1739162078000</desc></polyline><polyline fill="none" points="124.19296316656983,73.91114641839522 125.82572842220543,73.95954015541065 133.18801539303968,75.04033080600493 135.44420010992326,74.94354380277218 135.63716327649308,75.68557639195933 136.48323254531715,75.73396973362833 137.47773501917254,76.10498499500682 138.16052776243305,75.12098660909396 144.24628916976508,75.0080684764107 144.5728422209504,75.5726585527882 144.95876855409006,75.6694452756783 145.2111050026724,75.52426517516142 145.46344145131297,74.84675675648032 146.62122045073193,74.76610085157154 151.0,75.31456041423371 146.88840021984652,74.74996966698382 145.41891148983268,74.83062557787343 145.13688840012765,75.52426517516142 144.8845519515453,75.65331415816036 144.24628916976508,74.99193730978004 138.23474436497781,75.08872429144685 137.80428807029966,75.37908497764147 137.50742166023701,76.12111607895349 135.71137987897964,75.70170750709076 135.71137987897964,75.07259313082614 135.51841671246802,74.91128145880066 133.336448598071,75.02419964180444 126.43430456286296,74.00793388161401 124.0,73.89501517031749 126.10775151179405,73.97567139865714 132.86146234191256,74.99193730978004 135.4145134688588,74.91128145880066 135.62231995596085,75.6694452756783 137.49257833970478,76.10498499500682 137.93787795485696,75.26616697912687 138.3238042879966,75.08872429144685 144.18691588781076,74.99193730978004 144.60252886195667,75.58878967624332 144.89939527207753,75.65331415816036 145.2111050026724,75.45974065490009 145.32985156675568,74.9274126313976 145.7009345794213,74.782232034966 150.6882902692887,75.26616697912687 147.09620670694858,74.74996966698382 145.64156129735056,74.74996966698382 145.24079164373688,74.95967497299716 144.98845519515453,75.65331415816036 144.69158878503367,75.58878967624332 144.23144584929105,74.95967497299716 138.17537108296528,75.07259313082614 137.8191313907737,75.3468226983241 137.52226498071104,76.10498499500682 135.6965365585056,75.68557639195933 135.51841671246802,74.84675675648032 133.09895547002088,74.94354380277218 125.64760857610963,73.87888392106106 124.34139637160115,73.92727766525059 125.6772952171159,73.91114641839522 133.76690489274915,75.05646196904127 135.48873007140355,74.91128145880066 135.6520065969671,75.68557639195933 136.80978559644427,75.83075638464652 135.71137987897964,75.6694452756783 135.4145134688588,74.86288793385029 133.17317207250744,74.95967497299716 126.33040131937014,73.95954015541065 124.50467289716471,73.92727766525059 126.46399120398564,74.00793388161401" stroke="#4DD2FF" stroke-linecap="round" stroke-linejoin="round" stroke-width="0.5"><title>2025-01-25 9.9km</title><desc>1737761473000</desc></polyline><polyline fill="none" points="161.85999999998603,73.67958222994639 170.66499999997905,74.95109960414993 173.2150000000256,74.83698937139707 173.20000000001164,75.8802807196771 174.19000000006054,75.92918487996212 175.0449999999837,76.32041777003906 175.76500000001397,75.26082707967726 181.89999999996508,75.11411411940935 182.47000000003027,75.83137654850725 182.84499999997206,75.71726677336846 182.95000000001164,75.11411411940935 183.19000000000233,74.9347981459432 188.5,75.4401427868288 184.36000000004424,74.88589376410528 183.05499999999302,75.00000397142139 182.65000000002328,75.81507515568228 182.32000000000698,75.71726677336846 182.18500000005588,75.22822420809825 181.89999999996508,75.09781267333892 175.7949999999837,75.21192277049704 175.49499999999534,75.37493709207047 175.1350000000093,76.28781505582447 173.3049999999348,75.84767794008076 173.1699999999837,75.03260687693546 171.08499999996275,75.17931989162753 162.9100000000326,73.98931149968121 161.5,74.00561302807182 163.3300000000163,74.05451760602591 170.61999999999534,75.14671700797044 172.96000000002095,75.01630542478233 173.15500000002794,75.19562133168802 173.15500000002794,75.76617096997506 175.0449999999837,76.28781505582447 175.75,75.22822420809825 181.8850000000093,75.09781267333892 182.2600000000093,75.71726677336846 182.60500000003958,75.81507515568228 183.2500000000582,74.91849668655777 187.59999999997672,75.26082707967726 183.36999999999534,74.86959230109642 182.95000000001164,75.00000397142139 182.875,75.63575975484855 182.60500000003958,75.78247236640891 181.8850000000093,75.04890832783713 175.82500000001164,75.21192277049704 175.43500000005588,75.45644420747703 175.0900000000256,76.25521233676409 173.29000000003725,75.81507515568228 173.06500000000233,74.9837025168963 171.0700000000652,75.16301845037378 163.05999999999767,73.97300997006823 161.8300000000163,74.02191455524007 163.21000000002095,73.98931149968121 165.13000000000466,74.2990403323638" stroke="#4DD2FF" stroke-linecap="round" stroke-linejoin="round" stroke-width="0.5"><title>2025-01-19 8.1km</title><desc>1737283232000</desc></polyline><polyline fill="none" points="15.068893040646799,102.54559556867753 17.326249416160863,102.86097072510165 18.28468005603645,103.35460031981347 18.990892106492538,103.36831223411718 22.345399346086197,105.12342882853409 22.761560018756427,105.50735835250816 26.860112097172532,107.26245454901073 27.780709948623553,107.83834184188163 28.03292853810126,107.68751439168409 28.575198505364824,106.41233191877836 28.928304530563764,106.20665649898001 32.244978981791064,106.37119685320067 34.36361513315933,107.1253382613213 38.5,107.23503129964229 34.27533862675773,107.1253382613213 32.358477347006556,106.34377347106056 28.978748248540796,106.17923309230537 28.587809434859082,106.33006177845527 28.020317608548794,107.68751439168409 27.843764595978428,107.76978392529418 23.291219056525733,105.8638636218966 18.83956095285248,103.3957360596105 18.486454927595332,103.42315988104383 17.427136851940304,102.95695436111419 14.526623073383234,102.68271526831086 11.5,102.10681184323039 17.616300794063136,102.99809018976521 18.902615600207355,103.3820241473586 23.518215787014924,105.90499880086281 26.847501167678274,107.27616617218882 27.667211583349854,107.86576500133378 28.00770667917095,107.75607233893243 28.562587575870566,106.49460202235787 28.978748248540796,106.27521499778959 32.446753853349946,106.43975529070303 34.40144792152569,107.15276152703154 38.5,107.26245454901073 34.37622606259538,107.23503129964229 32.30803362914594,106.45346697515924 28.96613731898833,106.27521499778959 28.61303129378939,106.43975529070303 28.020317608548794,107.79720709499088 27.56632414762862,107.81091867831128 22.53456328820903,105.50735835250816 18.95305931806797,103.46429560551769 18.49906585708959,103.49171941670647 17.515413358283695,103.02551407046849 11.550443717860617,102.14794786194398 17.755021018208936,103.01180213062617 18.448622139170766,103.4094479708292 18.85217188228853,103.36831223411718 23.505604857578874,105.91871052514762 27.856375525472686,107.89318815675506 28.663475011650007,106.38490854275005 30.01284446520731,106.38490854275005 28.82741709484253,106.37119685320067 28.020317608548794,107.82463026058394 27.641989724477753,107.76978392529418 22.496730499784462,105.50735835250816 18.915226529643405,103.45058369837352 18.549509575008415,103.47800751162868 17.540635217214003,103.01180213062617 14.715787015389651,102.68271526831086" stroke="yellow" stroke-linecap="round" stroke-linejoin="round" stroke-width="0.5"><title>2025-01-17 12.3km</title><desc>1737088953000</desc></polyline><polyline fill="none" points="51.73033707862487,102.42302440077765 51.907303370768204,102.12065426741901 52.67837078648154,102.62918557113153 56.26825842697872,103.34387584461365 58.290730337030254,104.38841818661604 59.07443820219487,105.00689441713621 65.26825842697872,107.86560205288697 65.50842696626205,107.70067781642138 66.03932584263384,106.44999755834579 66.36797752801795,106.23009685630677 69.89466292125871,106.44999755834579 71.8286516853259,107.1646730297216 75.98735955049051,107.23339167913946 71.91713483142667,107.1646730297216 69.74297752807615,106.44999755834579 66.46910112357,106.28507205640199 66.08988764043897,106.42250998494274 65.49578651681077,107.79688363893365 65.33146067411872,107.85185837215977 60.71769662917359,105.87275765649974 56.30617977521615,103.38510789129941 54.85252808989026,103.01401913940208 49.0,102.18937479579472 54.73876404494513,102.95904296450317 55.93960674153641,103.38510789129941 56.28089887637179,103.34387584461365 61.223314606701024,106.06517115778115 64.23174157296307,107.24713540593802 65.12921348313102,107.8243710076058 65.47050561796641,107.74190888936573 66.01404494378949,106.4362537721463 66.39325842692051,106.24384065787308 69.76825842697872,106.44999755834579 71.80337078642333,107.15092929675302 76.0,107.20590422245732 71.86657303367974,107.15092929675302 69.88202247186564,106.50497269288462 66.48174157302128,106.2575844584353 66.08988764043897,106.44999755834579 65.36938202247256,107.87934573259554 60.91994382016128,105.96896443222067 56.34410112357,103.45382794861507 55.724719101097435,103.42633992875926 55.05477528087795,103.04150722068152 50.56741573038744,102.39553622729727" stroke="#4DD2FF" stroke-linecap="round" stroke-linejoin="round" stroke-width="0.5"><title>2025-01-15 9.1km</title><desc>1736916504000</desc></polyline><polyline fill="none" points="88.85384615382645,102.01639928543591 89.03006993007148,102.31750124892278 89.64685314684175,102.6870348022203 92.73076923075132,103.19343142719299 94.40489510493353,103.74088566757564 96.39370629366022,105.04108294971229 102.6748251747922,107.91517060415936 102.95174825174036,107.84674046823056 103.48041958041722,106.61499366331554 103.90839160839096,106.38232945061463 107.38251748250332,106.6013075413066 109.2832167831948,107.35404273727909 113.5,107.44984517733974 109.23286713287234,107.39510093200079 107.34475524473237,106.64236590423388 103.89580419572303,106.38232945061463 103.48041958041722,106.61499366331554 102.88881118874997,107.92885662827757 102.49860139854718,107.92885662827757 98.3699300698936,106.09492031051195 93.80069930071477,103.54927686903102 93.53636363637634,103.6313949500327 91.93776223773602,103.12499953240331 86.5,102.35856056932244 91.05664335662732,102.9060172978352 93.77552447555354,103.50821781477134 97.84125874121673,105.75276598599157 102.7503496503341,107.98360071456409 103.03986013983376,107.81936840673734 103.63146853150101,106.43707399776031 104.91538461536402,106.46444626520679 103.66923076921375,106.49181852857873 102.85104895103723,107.96991469453496 98.0552447552327,106.01280333074101 93.87622377619846,103.57664956674853 92.40349650348071,103.152372293378 88.43846153846243,102.60491629906755" stroke="#4DD2FF" stroke-linecap="round" stroke-linejoin="round" stroke-width="0.5"><title>2025-01-14 7.8km</title><desc>1736829619000</desc></polyline><polyline fill="none" points="127.69209302327363,102.72654975694604 127.47860465117265,102.42614892590791 127.98093023255933,102.4807672954339 132.20046511630062,103.83256675465964 134.79999999998836,105.11608428576437 135.95534883724758,105.92169176170137 140.1372093023383,107.83328855168656 140.41348837205442,107.75136338391167 140.97860465117265,106.46786430753127 141.34279069764307,106.24939548449765 144.746046511631,106.46786430753127 146.37860465119593,107.13692345813615 147.54651162790833,107.28712007463037 151.0,107.28712007463037 146.61720930231968,107.17788618394115 144.75860465120059,106.46786430753127 141.38046511629364,106.23574117440148 141.016279069765,106.3859385294054 140.426046511624,107.75136338391167 140.07441860466497,107.76501758108498 135.86744186043506,105.94900042764493 132.0246511628502,103.84622124377347 130.09069767442998,103.0406046447606 124.0,102.18036606154055 130.1660465116147,103.06791374000022 132.0246511628502,103.7642942937382 135.39023255812936,105.66225923228194 140.09953488374595,107.79232597236114 140.40093023260124,107.71040078626538 140.90325581392972,106.48151860031066 141.26744186051656,106.24939548449765 144.85906976746628,106.48151860031066 146.74279069766635,107.19154042382434 150.87441860465333,107.30077430640813 146.65488372097025,107.15057770107524 144.77116279071197,106.44055571890203 141.25488372094696,106.23574117440148 140.95348837209167,106.4132471261546 140.36325581400888,107.79232597236114 139.88604651164496,107.75136338391167 139.24558139534201,107.31442853715271 135.69162790698465,105.89438309169782 131.22093023255002,103.36831351909495 129.877209302329,102.99964099425415 124.05023255816195,102.16671144829888 131.246046511631,103.35465899437258 135.71674418606563,105.8124570572254 139.28325581399258,107.28712007463037 140.11209302331554,107.81963435962098 140.40093023260124,107.73770918569062 140.95348837209167,106.39959282831114 141.30511627910892,106.23574117440148 144.68325581395766,106.4132471261546 146.42883720929967,107.10961496920208 147.4837209302932,107.218848900593 146.37860465119593,107.10961496920208 144.6455813953653,106.4132471261546 141.33023255813168,106.19477823805937 140.97860465117265,106.3586299285671 140.41348837205442,107.68309238275106 139.96139534882968,107.69674658500298 138.79348837211728,107.05499797906668 135.71674418606563,105.86707441759063 131.20837209298043,103.36831351909495 129.475348837208,102.93136822307133" stroke="yellow" stroke-linecap="round" stroke-linejoin="round" stroke-width="0.5"><title>2025-01-10 13.0km</title><desc>1736482744000</desc></polyline><polyline fill="none" points="164.0864485981292,101.96141392319987 165.3228971962817,102.79823734675301 167.46775700937724,103.20978845492937 169.57476635515923,104.01916961750248 171.85841121495469,105.37727577805344 177.7630841122009,108.03858607680013 178.04065420560073,107.81909802286827 178.15420560748316,106.61190904994146 178.31822429905878,106.40613741285051 182.29252336453646,106.66678144766774 184.37429906544276,107.43499329901533 188.43691588786896,107.53101955507009 184.1976635514293,107.39383917392115 182.29252336453646,106.68049954454182 178.39392523368588,106.39241929554555 178.14158878510352,106.68049954454182 178.04065420560073,107.87397006087122 177.7630841122009,108.03858607680013 173.24626168224495,106.1180567345873 168.8051401869161,103.63505696698849 167.41728971962584,103.20978845492937 161.5,102.38668531864823 167.7453271028353,103.23722516276757 168.36355140188243,103.58018366577744 168.79252336447826,103.58018366577744 173.32196261687204,106.06318417331204 177.57383177569136,107.98371408780804 178.0028037383454,107.87397006087122 178.12897196266567,106.62562715091917 178.35607476637233,106.41985552910774 182.29252336453646,106.68049954454182 184.47523364488734,107.43499329901533 188.5,107.48986545146909 184.13457943929825,107.38012113017612 182.2799065420404,106.62562715091917 178.40654205612373,106.41985552910774 178.1920560747967,106.55703663584427 178.17943925235886,107.53101955507009 177.85140186920762,108.02486808106187 173.15794392529642,106.07690231518063 168.8303738317918,103.6213386432355 167.3289719626191,103.20978845492937 161.5,102.34553006525675 165.91588785045315,102.90798439888749 168.74205607484328,103.55274700906011 172.89299065427622,105.87113008019514 177.59906542062527,107.98371408780804 177.9523364486522,107.8876880677999 178.22990654211026,107.20178646860586 177.9523364486522,107.95627808723657 177.3971962617361,107.87397006087122 173.2336448598653,106.09062045598694 168.8051401869161,103.53902867915167 168.5149532710202,103.60762031842023 167.54345794394612,103.14119666744955 165.94112149538705,102.9628579003911" stroke="yellow" stroke-linecap="round" stroke-linejoin="round" stroke-width="0.5"><title>2025-01-08 12.0km</title><desc>1736310892000</desc></polyline><polyline fill="none" points="14.377980364661198,133.33933692522987 14.756661991588771,132.73544648638926 14.807152875175234,132.14527891749458 15.046984572254587,131.93940606489195 15.324684432009235,131.99430551474507 15.198457222955767,132.09037951262144 16.422861150058452,132.55702393241518 17.053997194976546,133.07856629676826 19.64165497897193,133.98439952534682 23.933380084170494,136.3038612754026 27.795932678796817,138.0194207050954 28.04838709672913,137.77238113178464 28.086255259462632,136.63324992507114 28.439691444626078,136.39993302573566 32.3022440392524,136.67442346489406 34.32187938288553,137.44299451877305 38.5,137.52534122725774 34.2966339411214,137.4155456078006 32.35273492283886,136.701872486301 28.389200561039615,136.44110661765444 28.124123422137927,136.71559699546196 28.086255259462632,137.77238113178464 27.871669004205614,138.06059393510805 23.138148667640053,136.04309484337864 18.808555399707984,133.61383192476933 18.328892005607486,133.61383192476933 17.445301542815287,133.1883645011112 11.5,132.43350052455207 17.622019635338802,133.3118874027423" stroke="#4DD2FF" stroke-linecap="round" stroke-linejoin="round" stroke-width="0.5"><title>2025-01-06 5.2km</title><desc>1736137119000</desc></polyline><polyline fill="none" points="52.49485981307225,132.928562635876 52.55794392520329,132.4072630507144 52.97429906547768,131.78993268574413 53.277102803695016,132.8599706695386 52.84813084109919,133.14805675648677 53.64299065421801,133.10690162880928 56.26728971960256,133.73794590907346 59.825233644864056,135.41157461293915 60.493925233662594,136.00145651404455 65.28831775696017,138.12775931242504 65.57850467285607,137.94942518226162 65.62897196260747,136.79710817785235 65.86869158875197,136.5776184071001 70.01962616824312,136.86569867758953 72.01308411208447,137.62019248823344 76.0,137.68878268137632 71.84906542056706,137.59275640384294 69.88084112148499,136.82454438084096 65.91915887850337,136.5776184071001 65.67943925235886,136.78339007488103 65.59112149535213,137.94942518226162 65.33878504676977,138.196349316524 60.80934579443419,136.33069210224494 57.100000000034925,134.2318051415641 55.23271028039744,133.47729744679236 49.0,132.5032920325757 53.23925233643968,133.02459134583478 56.24205607478507,133.69679091326543 60.05233644862892,135.80940214906877 64.45560747658601,137.72993678499188 65.1369158878806,138.21006731427042 65.56588785047643,137.90827112768602 65.67943925235886,136.7147995444975 65.85607476631412,136.53646404594474 68.65700934577035,136.86569867758953 69.88084112148499,136.79710817785235 71.9121495326981,137.5790383600979 75.98738317756215,137.6476285685494 71.571495327109,137.51044812609325 69.8051401869161,136.82454438084096 65.95700934581691,136.53646404594474 65.67943925235886,136.74223575972428 65.6415887849871,137.86711706395727 65.36401869158726,138.1414773153083 60.87242990656523,136.3169739645091 57.125233644852415,134.1494953614456 55.57336448598653,133.55960752739338 49.16401869157562,132.57188413178665" stroke="#4DD2FF" stroke-linecap="round" stroke-linejoin="round" stroke-width="0.5"><title>2025-01-03 9.5km</title><desc>1735878536000</desc></polyline><polyline fill="none" points="89.19367681501899,132.38056400204368 90.77447306795511,132.8205805155012 92.58290398126701,132.98558643754222 93.45550351293059,133.42560150848294 93.78430913347984,133.38435014015704 97.54028103046585,135.46065756570897 102.58618266979465,137.78444413695252 102.96557377051795,137.71569347495097 103.48407494142884,136.46442695207952 103.86346604221035,136.244423170152 107.25269320845837,136.45067672338337 109.26346604217542,137.2069377801672 113.5,137.33068929443834 109.57962529273937,137.22068795251835 107.40444964868948,136.51942785659048 103.88875878223917,136.31317438014958 103.48407494142884,136.53317808016436 102.81381733022863,137.83944464811066 97.90702576114563,135.77691426275123 93.77166276349453,133.46685286761203 93.44285714288708,133.49435376854672 92.4311475410359,133.01308741021785 91.00210772833088,132.94433497085993 86.5,132.1605553519039 92.53231850120937,132.9993369243748 94.31545667449245,133.83811468470958 92.64613583142636,133.04058837877528 88.94074941449799,132.47681770399504" stroke="#4DD2FF" stroke-linecap="round" stroke-linejoin="round" stroke-width="0.5"><title>2025-01-02 5.6km</title><desc>1735817809000</desc></polyline><polyline fill="none" points="127.11635514016962,132.48957241272728 130.119158878515,132.9834340737143 131.00233644858235,133.44985775944951 131.84766355139436,133.60075928716105 136.44018691591918,136.12491196051997 140.31355140183587,137.7985158522206 140.6415887849871,137.45556547415617 141.0074766355101,136.5364553113759 141.44906542054377,136.31696563870355 144.69158878503367,136.42671050774516 147.06355140189407,137.29094906584942 151.0,137.318385144099 149.46074766351376,137.4144113858638 146.8364485981292,137.24979494075524 144.86822429904714,136.48158291775326 141.46168224303983,136.28952941122407 141.07056074764114,136.44042861179332 140.49018691590754,137.74364383463399 140.27570093463873,137.83966985462757 134.09345794393448,135.12348596453376 131.2546728971647,133.44985775944951 130.8509345795028,133.4772944100696 129.9803738318151,133.03830750983616 124.0,132.1466121465637 129.52616822428536,132.9148422555736 130.95186915888917,133.4224211047549 131.2546728971647,133.34011111616564 135.30467289721128,135.61734056101704 140.27570093463873,137.8533878534363 141.10841121495469,136.39927429663658 141.44906542054377,136.26209317967005 142.40794392518,136.38555618951796 141.083177570079,136.3718380814098 140.49018691590754,137.71620781972888 140.26308411214268,137.78479784933734 135.6831775701139,135.8505492155964 131.44392523361603,133.49101273382257 130.87616822432028,133.44985775944951 129.86682242993265,132.99715243428363 128.78177570091793,133.03830750983616 124.37850467290264,132.1877674122661 127.15420560748316,132.70906664781796" stroke="#4DD2FF" stroke-linecap="round" stroke-linejoin="round" stroke-width="0.5"><title>2024-12-31 8.0km</title><desc>1735619151000</desc></polyline><polyline fill="none" points="165.25981308415066,132.68163005549286 166.18084112153156,132.70906681849738 168.81775700941216,133.32639290584484 170.3570093458402,134.14949113606417 170.79859813087387,134.60219359426992 177.86401869158726,137.79851564374985 178.5327102803858,136.49530090630287 178.91121495328844,136.28952931518143 182.4060747664189,136.48158280736243 184.1471962616779,137.1812045493425 188.48738317762036,137.2909488951409 184.31121495331172,137.24979477316083 182.3808411215432,136.49530090630287 178.9238317757845,136.28952931518143 178.5579439252615,136.45414660645474 177.80093457951443,137.8533876408619 173.53644859814085,136.02888496963715 169.6757009346038,133.9025620533357 167.4299065420637,133.01087094201648 161.5,132.14661235915264 166.2691588785383,132.7639403322828 168.77990654209862,133.34011123984237 173.53644859814085,135.91913987169391 177.687383177632,137.83966964311549 178.0028037383454,137.7162076173845 178.5327102803858,136.48158280736243 178.96168224303983,136.2483749693638 182.33037383185,136.45414660645474 184.37429906544276,137.2086406419403 188.5,137.2223586866894 184.52570093463873,137.23607673043443 182.31775700935395,136.48158280736243 178.8985981308506,136.26209308562102 178.5327102803858,136.45414660645474 177.9775700934697,137.70248960940808 177.77570093458053,137.79851564374985 173.2084112149896,135.87798544309044 168.8808411215432,133.4498578749335 166.98831775703002,132.98343422396283 161.70186915888917,132.21520445837814 167.26588785048807,132.96971586337895 168.42663551407168,133.4361395491287 168.91869158885675,133.38126623566495 172.93084112147335,135.60362235069624 168.8556074766675,133.4087028944341 165.04532710282365,132.6953484374826" stroke="yellow" stroke-linecap="round" stroke-linejoin="round" stroke-width="0.5"><title>2024-12-30 10.8km</title><desc>1735533491000</desc></polyline><polyline fill="none" points="15.290578358224593,162.63118403371482 17.75886194035411,163.04196738389146 18.45149253733689,163.43905708294187 18.80410447763279,163.39797887799796 19.521921641833615,163.69921883432835 22.607276119466405,165.4518778778147 27.619402985088527,167.75221750879427 27.98460820899345,167.76590992040292 28.513526119408198,166.46512626300682 28.92910447763279,166.23235347957234 32.24113805964589,166.45143375448242 34.21828358207131,167.21821266037296 38.5,167.28667490713997 34.38199626869755,167.21821266037296 32.36707089556148,166.47881877052714 28.87873134331312,166.2597385282279 28.538712686568033,166.46512626300682 28.097947761241812,167.57421606502612 27.757929104438517,167.8206795566366 23.048041044792626,165.83526981562318 19.69822761195246,163.9183021288336 17.784048507455736,163.13781670015305 11.5,162.15193563136563 17.569962686568033,163.02827462034475 19.98787313431967,163.9183021288336 22.531716417928692,165.4518778778147 27.720149253727868,167.84806436863437 27.97201492532622,167.77960233097838 28.551305970118847,166.47881877052714 28.903917910414748,166.3145086132572 32.34188432834344,166.50620378245367 34.23087686568033,167.23190511175198 38.46222014923114,167.27298245980637 37.17770522390492,167.3825220097351 34.293843283550814,167.23190511175198 32.329291044792626,166.45143375448242 28.91651119402377,166.2597385282279 28.563899253786076,166.41035622282652 27.98460820899345,167.7385250961379 27.606809701479506,167.7932947405643 23.526585820887703,166.01327294346993 22.191697761183605,165.19171860741335 17.75886194035411,163.0830456684198 12.14225746266311,162.28886387386592" stroke="#4DD2FF" stroke-linecap="round" stroke-linejoin="round" stroke-width="0.5"><title>2024-12-27 9.1km</title><desc>1735273142000</desc></polyline><polyline fill="none" points="70.71355140185915,166.6256229057908 69.72943925234722,166.3512609988975 68.68224299064605,166.47472390759503 66.22196261683712,166.24151612172136 65.35140186920762,167.80537444740185 60.77149532712065,165.93971737210813 56.22943925228901,163.4429996527906 55.86355140188243,163.4841546148964 54.8794392523705,163.0451678782265 49.0,162.11231758758368 53.1130841121776,162.77080063631 53.51682242995594,162.7022087619407 56.40607476636069,163.4292813300417 59.62336448597489,165.04803635863937 60.10280373838032,165.4870183202729 65.07383177569136,167.76422045107756 65.43971962615615,167.73678444843972 65.94439252332086,166.47472390759503 66.34813084109919,166.2277980074432 69.8303738317336,166.4472877128428 71.96261682244949,167.24293570168084 76.0,167.35267998208292 71.54626168223331,167.16062744848023 69.98177570092957,166.48844200343592 66.33551401866134,166.24151612172136 66.07056074769935,166.3238247857371 65.50280373834539,167.7779384508467 65.25046728970483,167.88768241243088 64.16542056074832,167.24293570168084 60.62009345792467,165.84369039350713 56.46915887854993,163.41556300628872 53.61775700934231,162.77080063631 50.62757009343477,162.37296740929014" stroke="#4DD2FF" stroke-linecap="round" stroke-linejoin="round" stroke-width="0.5"><title>2024-12-25 6.6km</title><desc>1735101299000</desc></polyline><polyline fill="none" points="89.3035547240288,162.3499114674487 89.20252572494792,162.59707365858776 89.36669784842525,162.54214875587786 89.60664172121324,162.14394272156642 90.37698783905944,162.67946098199172 91.23573433113052,162.72065462985483 93.87511693168199,163.39348290860653 98.54770813841606,165.9474617716769 102.84144059871323,167.80113394290674 103.01824134704657,167.78740310648573 103.54864359210478,166.482968980461 103.9401309635141,166.27700485353125 107.32460243214155,166.46923804581456 109.50935453694547,167.29309231344087 113.5,167.3617466695432 109.31992516369792,167.25189968752966 107.19831618334865,166.4555071101786 103.82647333963541,166.29073580245313 103.54864359210478,166.42804523576342 102.98035547242034,167.71874890891195 102.75304022448836,167.75994143051503 98.0930776426685,165.8376139467582 94.59494855004596,163.80541737709427 92.6122544434038,163.0090099072404 86.5,162.15767397846503 88.57109448075062,162.47349260444753 89.5561272216728,162.44603013670712 93.02899906452512,163.13259060231212 94.60757717490196,163.75049283450062 98.93919550976716,166.139695307691 102.63938260055147,167.78740310648573 103.03086997190258,167.74621059102356 103.66230121609988,166.34565958805615 104.95042095414829,166.34565958805615 103.7001870907261,166.30446675040002 102.96772684750613,167.85605727841903 98.42142188962316,165.97492371764383 95.97146866226103,164.533166021356 92.7385406921967,163.1051282327826 86.53788587456802,162.17140523433045 91.7282507015625,162.9128915315814" stroke="#4DD2FF" stroke-linecap="round" stroke-linejoin="round" stroke-width="0.5"><title>2024-12-18 8.3km</title><desc>1734495982000</desc></polyline><polyline fill="none" points="126.84608208958525,161.22766501444858 126.38013059698278,161.33720875928702 126.54384328360902,161.2002790680126 126.38013059698278,161.30982282919285 126.27938432834344,161.15920014071162 126.32975746266311,161.29612986261782 127.34981343284016,162.00816277172999 129.57882462686393,162.9940499374352 130.1077425373369,163.82931131424266 130.69962686568033,164.294865188087 131.35447761195246,164.39071436863742 135.97621268656803,166.8827755178354 140.15718283585738,168.75864541104238 140.4594216417754,168.77233782161784 141.05130597017705,167.45786175366084 141.41651119402377,167.25247401886736 144.91744402988115,167.47155426118115 147.1212686567451,168.2383330527955 151.0,168.3067952893325 146.78125,168.2383330527955 144.91744402988115,167.48524676763918 141.3535447762115,167.26616654163809 140.98833955224836,167.47155426118115 140.35867537313607,168.827107453777 134.17537313431967,166.23922450137616 133.74720149248606,165.81475344867795 132.19822761201067,164.9384230129217 130.33442164183361,164.19901595752162 124.0,163.17205677866878 130.01958955224836,163.966239046611 131.07742537319427,164.43179257358133 131.3041044776328,164.3633288935671 136.0265858209459,166.9375457130518 139.27565298503032,168.224640602406 140.1697761194082,168.77233782161784 140.50979477615329,168.69018334276916 141.13945895520737,167.37570668727858 142.44916044780985,167.33462914035772 141.21501865668688,167.4167842250754 140.56016791047296,168.84079985928838 139.99347014923114,168.79972263977106 135.72434701491147,166.96493080456275 134.55317164183361,166.1981467004225 130.29664179106476,164.1305521907925 124.10074626863934,163.26790654481738 130.1077425373369,163.99362458083488" stroke="#4DD2FF" stroke-linecap="round" stroke-linejoin="round" stroke-width="0.5"><title>2024-12-17 8.6km</title><desc>1734409492000</desc></polyline><polyline fill="none" points="164.82928538066335,162.51817044784548 167.52802428771975,162.943241374247 168.51167678658385,163.4094470678392 168.83956095285248,163.31346363923512 173.51821578707313,165.89128691218502 177.7680990191875,167.72864954722172 177.99509574961849,167.7012263591605 178.57519850536482,166.34377344252425 178.8904717421974,166.16552130579657 182.5476412891294,166.4260436012264 184.37622606259538,167.1253384656884 188.5,167.19389664274058 188.09645025688224,167.33101292021456 184.36361513310112,167.19389664274058 182.2071461933665,166.3986202190863 178.96613731904654,166.26150324700575 178.47431106958538,166.56316045073618 177.93204110232182,167.72864954722172 177.71765530126868,167.79720749956323 173.89654367114417,166.1792330147291 168.76389537600335,163.43687089538435 168.09551611403003,163.35459940048167 167.38930406357395,162.943241374247 161.5,162.13423457366298 167.47758056985913,162.9295294242038 168.32251284446102,163.38202323621954 168.81433909392217,163.3408874810848 173.48038299864857,165.87757518180297 177.6798225128441,167.71493795371498 178.03292853804305,167.68751476357284 178.46170014009112,166.522025406608 178.8904717421974,166.1929447226721 182.58547407761216,166.4260436012264 184.33839327422902,167.1253384656884 188.42433442315087,167.23503153667843 184.56539000466,167.19389664274058 182.35847734706476,166.3986202190863 178.87786081276136,166.2340798403311 178.56258757592877,166.384908526481 177.9068192433915,167.79720749956323 173.39210649230517,165.94613382358511 168.7765063054976,163.43687089538435 167.6541335824877,163.03922499594046 161.65133115369827,162.16165859125613 167.4523587108706,162.943241374247 168.33512377395527,163.38202323621954 168.87739374127705,163.39573515253142 174.01004203641787,166.1243861727853 177.6798225128441,167.75607273122296 178.03292853804305,167.7012263591605 178.46170014009112,166.30263834937068 179.92456795898033,166.33006174581533 178.58780943485908,166.3574851381709 177.95726296119392,167.86576542633702 173.3542737038806,165.9324220972776 168.82695002335822,163.42315898214292 168.42340028024046,163.43687089538435 167.4271368519403,162.95695332325704 161.65133115369827,162.2165066141315 167.33886034565512,162.9295294242038" stroke="yellow" stroke-linecap="round" stroke-linejoin="round" stroke-width="0.5"><title>2024-12-15 13.0km</title><desc>1734235831000</desc></polyline><polyline fill="none" points="14.16977611934999,192.24093879183056 14.16977611934999,192.39155978562485 15.3031716417172,192.7338797669654 16.826958955149166,193.0488135866326 17.620335820829496,192.9940425263194 18.38852611934999,193.43221055172035 18.82929104473442,193.44590328568302 24.042910447751638,196.22550715645775 27.78311567165656,197.81383335187274 28.02238805964589,197.80014094332 28.52611940295901,196.58151249715593 28.903917910414748,196.33504733472364 32.3796641791123,196.51304998520936 34.38199626863934,197.27982866256207 38.5,197.36198333113862 34.306436567159835,197.27982866256207 32.48041044775164,196.52674248961557 28.84095149260247,196.28027725375432 28.488339552190155,196.44458744773874 27.8838619402959,197.84121816587867 23.488805970118847,196.04750422752113 19.395988805918023,193.76083588520123 17.532182835799176,193.0351208230859 11.5,192.15878183410678 14.698694029764738,192.48740944467136 17.532182835799176,192.95296422039974 18.804104477574583,193.36374686662748 22.670242537278682,195.4724166635715 26.53638059698278,197.170289047368 27.493470149231143,197.77275612315862 28.009794776095077,197.71798647058313 28.47574626863934,196.58151249715593 28.8661380597041,196.30766229631263 32.316697761183605,196.45827995723812 34.19309701496968,197.23875131450768 35.62873134325491,197.25244376489718 34.09235074627213,197.1976739572856 32.29151119402377,196.48566497328284 29.004664179112297,196.28027725375432 28.488339552190155,196.43089493717707 27.858675373136066,197.78644853373407 23.249533582071308,195.91057878026913 18.82929104473442,193.47328875052335 17.506996268581133,193.0351208230859 15.517257462604903,192.78865090479667" stroke="#4DD2FF" stroke-linecap="round" stroke-linejoin="round" stroke-width="0.5"><title>2024-12-13 8.5km</title><desc>1734064159000</desc></polyline><polyline fill="none" points="51.92064241843764,192.54550260807446 54.70099196978845,192.94765770706 56.6140765233431,193.5439550475421 60.59329239488579,195.79045345360646 65.0444024563185,197.75958407904545 65.40151157299988,197.77345112225157 65.9754369391012,196.45607740404375 66.33254605572438,196.27580448583467 69.83986773737706,196.45607740404375 71.59990552667296,197.17716733105772 76.0,197.26036983520316 72.02078412851552,197.23263567127287 69.71232876711292,196.44221026268497 66.24326877662679,196.26193733104446 65.87340576288989,196.3867416869616 65.45252716104733,197.57931242320046 65.1464336325298,197.85665335986414 64.24090694379993,197.34357230215392 60.580538497830275,195.91525812564942 56.88190836086869,193.79356732050655 54.917808219150174,193.1140664593695 56.869154463813175,193.73809795544366 59.215871516324114,195.15256160090212 64.26641473785276,197.32970522687538 65.00614076526836,197.81505224571447 65.37600377888884,197.73184998950455 65.94992914499016,196.22033586050384 65.35049598489422,197.6902488474443 65.03164855932118,197.77345112225157 60.720831365091726,195.94299248582684 56.12942843651399,193.36367930888082 55.6830420406186,193.3775466795778 54.560699102526996,192.91992290054623 49.0,192.14334664013586" stroke="#4DD2FF" stroke-linecap="round" stroke-linejoin="round" stroke-width="0.5"><title>2024-12-11 6.6km</title><desc>1733890893000</desc></polyline><polyline fill="none" points="89.77387640444795,192.67728927131975 92.66853932582308,193.00714664009865 93.30056179768872,193.3782354749419 93.81882022472564,193.3644914573233 98.57162921346026,195.98958024053718 102.81882022466743,197.83124326927646 103.5140449438477,196.40189445612486 103.88061797746923,196.23696888047562 107.50842696626205,196.45686961528554 109.36657303367974,197.18528892709583 113.46207865170436,197.28149503628083 109.51825842697872,197.18528892709583 107.5463483146159,196.52558854113158 103.61516853928333,196.36066307603323 102.91994382016128,197.87247432072763 98.48314606741769,196.0170678835857 97.20646067417692,195.15120516030584 93.7808988763718,193.44695554762438 93.50280898879282,193.51567559471005 92.41573033708846,193.07586685102433 86.6264044943382,192.25122263029334 91.42977528087795,192.80098585372616 93.7808988763718,193.35074743870064 97.09269662917359,194.98627846651652 98.47050561796641,195.90711728684255 102.7176966292318,197.80375589654432 102.98314606741769,197.7075500596984 103.53932584269205,196.48435718867404 103.88061797746923,196.23696888047562 106.09269662917359,196.45686961528554 107.21769662917359,196.36066307603323 109.42977528087795,197.1990326600644 113.5,197.26775130948226 109.21488764043897,197.17154519312317 107.48314606741769,196.48435718867404 103.85533707862487,196.2507126841083 103.53932584269205,196.37440687044 103.09691011230461,197.6113441726775 102.85674157302128,197.81749958344153 98.91292134829564,196.16824984710547 96.54915730335051,194.75263206461386 93.75561797752744,193.3782354749419 91.73314606741769,192.86970614145685 86.5,192.12752567925781 92.95926966291154,193.06212281090848 102.5154494381859,197.73503744676418 102.98314606741769,197.65257527322683 103.53932584269205,196.22322507583885 103.00842696626205,197.7075500596984 102.74297752807615,197.76252482976997 98.62219101120718,196.0170678835857 93.79353932588128,193.33700341904478 89.38202247186564,192.5948248369532" stroke="yellow" stroke-linecap="round" stroke-linejoin="round" stroke-width="0.5"><title>2024-12-09 12.1km</title><desc>1733738831000</desc></polyline><polyline fill="none" points="135.23515551368473,195.51881740322278 140.31196983973496,197.8153353616508 140.8972667294438,196.48723205341958 141.35532516491367,196.23821162570675 144.6380772855482,196.37655634898692 146.6357210178394,197.16511930373963 151.0,197.31729773411644 147.0556079170201,197.23429133299214 144.8543826577952,196.47339759395982 141.39349670126103,196.2935495273996 140.9608859565924,196.43189420946874 140.3374175306526,197.8430040795938 136.3166823750944,196.16903922545316 131.201696512755,193.40212208482262 130.74363807722693,193.4159567730967 130.1583411875763,193.028585112188 126.53204524033936,192.5443693996349 126.07398680486949,192.3230132247554 125.85768143262248,192.50286513693572 124.26720075402409,192.2538393659779 128.03345900092972,192.64121264315327 131.201696512755,193.34678332146723 134.53534401510842,194.9931044781988 135.47690857684938,195.68483170191757 140.1211121583474,197.8153353616508 140.42648444860242,197.69082607999735 140.9608859565924,196.40422528130875 141.25353440147592,196.1828737075557 142.38595664460445,196.37655634898692 144.82893496699398,196.39039081564988 146.86475023563253,197.17895371167106 150.91093308193376,197.26196013748995 146.76295947219478,197.13745048482087 144.82893496699398,196.4180597458908 141.34260131948395,196.26588057864865 140.8209236569237,196.70858326436428 140.32469368516468,197.8430040795938 135.59142318571685,195.79550781860598 131.18897266726708,193.40212208482262 130.89632422244176,193.4574608316616 129.25494816206628,192.9179073463456 124.0,192.1569959204062 129.49670122528914,192.9179073463456 130.7818096135161,193.38828739552991 131.2653157398454,193.37445270523313 132.90669180022087,194.27370543213328" stroke="#4DD2FF" stroke-linecap="round" stroke-linejoin="round" stroke-width="0.5"><title>2024-12-06 9.2km</title><desc>1733479157000</desc></polyline><polyline fill="none" points="164.23913043469656,192.56388643894752 167.67251051886706,192.9756298893044 168.40462833095808,193.42854662169702 168.80855539970798,193.34619820771331 173.51683029450942,195.98132919649652 177.63183730712626,197.80668429371144 178.04838709672913,197.68316459449125 178.49018232815433,196.50286106974818 178.96984572231304,196.31071791979775 182.377980364603,196.4754120605794 184.2966339410632,197.20280942133104 188.5,197.3400538843125 184.34712482464965,197.20280942133104 182.35273492278066,196.5165855727828 178.9067321177572,196.29699340139632 178.464936886332,196.57148357472033 177.8338008414721,197.83413310452306 173.17601683025714,195.85780827343115 172.11570827488322,195.130405602089 168.82117812056094,193.4559960848419 168.45511921454454,193.48344554388314 167.53366058901884,193.04425370819808 161.5,192.1658668954624 167.53366058901884,193.03052894645953 169.4270687236567,193.82656343693088 168.8716690041474,193.4559960848419 164.25175315560773,192.5776112354797" stroke="#4DD2FF" stroke-linecap="round" stroke-linejoin="round" stroke-width="0.5"><title>2024-12-03 5.6km</title><desc>1733220329000</desc></polyline><polyline fill="none" points="15.024475524551235,222.7007196889026 17.579720279725734,222.97444764526153 18.448251748282928,223.48084328924597 19.555944055959117,223.61770673717547 20.75174825178692,224.3978264432517 22.388111888081767,225.01370808160573 23.432867132883985,225.8211942124908 27.926573426637333,227.79199291770055 28.49300699302694,226.57393232446339 28.946153846220113,226.2728374497965 32.382517482561525,226.46444333624095 34.49720279726898,227.24455095360463 37.4552447553142,227.2171788125852 38.5,227.299295223449 38.18531468533911,227.38141159756924 34.37132867134642,227.27192309054954 32.382517482561525,226.51918783852307 28.933566433610395,226.32758200916578 28.555944056017324,226.5055017144623 27.976923077018,227.80567894590786 27.70000000001164,227.833050999252 23.042657342681196,225.83488038752694 20.52517482516123,224.3978264432517 17.466433566471096,223.0291931875836 11.5,222.19432189429062 17.68041958048707,223.00182041845983 19.46783216786571,223.8230017178721 17.44125874125166,223.0702523336222 11.52517482516123,222.16694900076254 15.175524475576822,222.67334687081166" stroke="#4DD2FF" stroke-linecap="round" stroke-linejoin="round" stroke-width="0.5"><title>2024-12-02 6.1km</title><desc>1733112856000</desc></polyline><polyline fill="none" points="49.0,221.28143743368855 49.79999999998836,221.61488187905343 51.64000000001397,224.0794535371242 51.47999999998137,223.91998219798552 51.82666666666046,223.90548479702557 52.28000000002794,223.3545827605849 53.933333333348855,223.60103912759223 54.54666666663252,224.00696658098605 55.77333333331626,224.25342212164833 57.093333333265036,225.07977077427495 58.69333333329996,225.68865700965398 59.53333333332557,226.42801630546455 64.33333333331393,228.6170832394564 64.72000000003027,228.6170832394564 65.30666666664183,227.26885287500045 65.69333333329996,227.0803898218437 69.38666666665813,227.26885287500045 71.66666666662786,228.08069163264008 76.0,228.12418289908965 71.69333333335817,228.10968581135967 69.39999999996508,227.2978471746319 65.73333333333721,227.109384149604 65.33333333331393,227.28335002534732 64.61333333334187,228.71856256631145 60.02666666661389,226.7904463067971 56.9199999999837,225.03627882743604 53.813333333295304,223.61553655120952 50.04000000003725,223.16611591634864" stroke="#4DD2FF" stroke-linecap="round" stroke-linejoin="round" stroke-width="0.5"><title>2024-11-29 4.6km</title><desc>1732853630000</desc></polyline><polyline fill="none" points="88.78660287079401,224.12914340617135 88.59282296651509,224.24151509003423 89.41961722489214,224.25556154578226 88.70909090916393,224.1712827954907 89.35502392344642,224.2274686331948 89.27751196169993,224.4241189334134 90.31100478465669,223.0897021553974 92.73971291864291,222.92114357471291 93.51483253587503,223.342539743855 94.6129186602775,223.5672839822655 98.91483253589831,226.0254066001653 103.2296650717617,227.89355835648894 103.87559808616061,226.53107356419787 104.26315789471846,226.34847176140465 107.93205741629936,226.53107356419787 109.79234449757496,227.28957146753964 113.5,227.33171015049447 109.86985645932145,227.261479007022 107.66076555021573,226.4889347023418 104.21148325363174,226.29228655573388 103.90143540670397,226.4748884129367 103.2296650717617,227.87951217172667 98.65645933011547,226.0254066001653 93.92822966509266,223.3846793089615 92.50717703351984,222.9492366819468 86.5,222.1064416435256 92.63636363635305,222.92114357471291 93.42440191394417,223.32849322004768 94.25119617226301,223.4408653811115 97.58421052637277,225.21071808320994 92.59760765550891,222.97732978500426 89.35502392344642,222.54188621713547" stroke="#4DD2FF" stroke-linecap="round" stroke-linejoin="round" stroke-width="0.5"><title>2024-11-28 6.3km</title><desc>1732767063000</desc></polyline><polyline fill="none" points="124.18120805372018,221.77369205487776 128.16778523492394,222.44687454985979 129.07382550340844,222.92302678020496 129.4966442953446,222.89018872838642 133.64932885905728,224.92613868853368 135.08389261743287,225.87843140719633 140.33892617450329,228.17705205084349 141.07885906042065,226.58443887000612 141.622483221523,226.28890113750822 145.6241610737634,226.5023450951703 147.4664429530385,227.27402537131275 149.067114093923,227.53672442333482 151.0,227.48746837492217 148.08557046978967,227.43821231552283 145.89597315434366,226.58443887000612 141.77348993293708,226.37099499189935 141.1543624160695,226.61727637136937 140.33892617450329,228.2263079451368 134.61577181209577,225.8127561793517 129.4966442953446,222.89018872838642 129.11912751680939,222.97228384877963 127.82046979869483,222.39761736385117 124.0,221.8886257971899" stroke="#4DD2FF" stroke-linecap="round" stroke-linejoin="round" stroke-width="0.5"><title>2024-11-25 4.0km</title><desc>1732507947000</desc></polyline><polyline fill="none" points="161.5,220.3820539493172 167.00401284114923,221.08889195811935 168.49919743184,221.96065665973583 169.3226324239513,221.86641194298863 170.83948635635898,222.36119639253593 172.4213483147323,223.49212937030825 175.41171749611385,224.78798510192428 177.73033707868308,226.39012666564668 182.97431781701744,228.43991359628853 184.72953451052308,229.50014300268958 185.1845906903036,229.311658034625 186.15971107548103,227.02626885892823 188.5,226.97914725885494 186.24638844304718,227.09695124591235 184.98956661322154,229.6179460506828 178.0770465490641,226.7435391532199 169.2792937400518,222.03134017882985 168.69422150892206,222.14914600894554 170.77447833074257,222.54968550303602 171.79293739970308,223.49212937030825 173.5914927769918,223.98691127626807 177.6869983949,226.43724835346802 184.25280898890924,229.35877928716945 185.1845906903036,229.4530217712163 186.15971107548103,227.002708059852 185.11958266457077,229.6179460506828 178.1853932584636,226.69641751106246" stroke="#4DD2FF" stroke-linecap="round" stroke-linejoin="round" stroke-width="0.5"><title>2024-11-20 4.0km</title><desc>1732095798000</desc></polyline><polyline fill="none" points="13.077270313340705,252.06118933402468 17.063462559774052,252.63804590460495 18.02416356879985,253.12135694212338 18.68374933610903,253.18371957530326 22.368826340942178,255.00781837440445 23.343866171024274,255.7561620000488 28.59187466808362,258.0791282917635 28.83563462557504,258.04794770693115 29.423526287835557,256.67599737366254 29.853690918709617,256.34859880578006 33.839883165142965,256.56686457463366 35.93335103557911,257.4087446934136 38.5,257.50228671974037 35.89033457246842,257.4243350340548 33.610462028649636,256.55127417010954 29.939723844930995,256.3641892253945 29.33749336161418,256.76953972753836 28.77827934140805,258.11030887201196 23.444237918243743,255.91206658522424 19.343335103534628,253.6202574873605 17.034784917719662,252.70040868186334 11.5,251.8896911280026" stroke="#4DD2FF" stroke-linecap="round" stroke-linejoin="round" stroke-width="0.5"><title>2024-11-19 4.1km</title><desc>1731989484000</desc></polyline></svg>