<?xml version="1.0" encoding="utf-8" ?>
<svg baseProfile="full" height="300mm" version="1.1" viewBox="0,0,200,300" width="200mm" xmlns="http://www.w3.org/2000/svg" xmlns:ev="http://www.w3.org/2001/xml-events" xmlns:xlink="http://www.w3.org/1999/xlink"><defs /><rect fill="#222222" height="300" width="200" x="0" y="0" /><text fill="#FFFFFF" style="font-size:12px; font-family:Arial; font-weight:bold;" x="10" y="20">Over 4km Runs</text><text fill="#FFFFFF" style="font-size:4px; font-family:Arial" x="10" y="280">ATHLETE</text><text fill="#FFFFFF" style="font-size:9px; font-family:Arial" x="10" y="290">Fake David</text><text fill="#FFFFFF" style="font-size:4px; font-family:Arial" x="65" y="280">SPECIAL TRACKS</text><rect fill="yellow" height="2.6" width="2.6" x="65" y="283" /><text fill="#FFFFFF" style="font-size:3px; font-family:Arial" x="70" y="285.5">Over 10.0 km</text><rect fill="red" height="2.6" width="2.6" x="65" y="287" /><text fill="#FFFFFF" style="font-size:3px; font-family:Arial" x="70" y="289.5">Over 15.0 km</text><text fill="#FFFFFF" style="font-size:4px; font-family:Arial" x="120" y="280">STATISTICS</text><text fill="#FFFFFF" style="font-size:3px; font-family:Arial" x="120" y="285">Number: 33</text><text fill="#FFFFFF" style="font-size:3px; font-family:Arial" x="120" y="290">Weekly: 2.5</text><text fill="#FFFFFF" style="font-size:3px; font-family:Arial" x="141" y="285">Total: 265.1 km</text><text fill="#FFFFFF" style="font-size:3px; font-family:Arial" x="141" y="290">Avg: 8.0 km</text><text fill="#FFFFFF" style="font-size:3px; font-family:Arial" x="167" y="285">Min: 4.0 km</text><text fill="#FFFFFF" style="font-size:3px; font-family:Arial" x="167" y="290">Max: 13.0 km</text><polyline fill="none" points="14.242617717478424,44.40163144652615 11.800478850782383,43.91741818777518 15.305666400643531,44.30791283858707 18.609736632090062,44.854604127729544 19.52913008775795,45.32319552658009 20.43415802071104,45.37005460886576 24.47086991224205,47.68175633130886 29.13966480444651,49.71228411422635 30.188347964838613,50.35267725912854 30.662410215416458,50.009051912333234 30.820430965628475,48.618925443981425 31.021548284159508,48.46273088277667 33.0183559457073,48.72826156755036 35.60415003990056,48.743881009097095 37.25618515559472,49.44675467563502 38.66400638461346,49.68104537419276 42.49960095761344,49.66542600246612 41.35035913804313,49.82161966768035 37.916999201872386,49.63418725543306 35.51795690343715,48.82197819952853 31.09337589784991,48.50958926335443 30.791699920140672,48.75950044952333 30.57621707895305,50.16524532157928 30.130885873863008,50.337057937387726 24.68635275331326,47.900429498942685 20.13248204306001,45.35443491596379 19.47166799684055,45.32319552658009 18.39425379090244,44.854604127729544 16.584197924938053,44.74526598396187 11.714285714260768,43.901798386636074 18.466081404592842,44.807744930221816 20.017557861167006,45.24509703286458 23.795690343133174,47.11945285294496 25.059856344712898,47.97852700353542 30.34636871505063,50.27458063887025 30.633679169928655,50.024671258521266 30.734237829165068,48.71264212481037 30.935355147637893,48.46273088277667 35.46049481240334,48.72826156755036 37.27055067830952,49.44675467563502 38.72146847558906,49.68104537419276 42.571428571420256,49.71228411422635 40.97685554664349,49.83723902779457 37.93136472464539,49.64980662953167 35.60415003990056,48.82197819952853 31.050279329589102,48.49396980430174 30.748603351879865,48.79073932686879 30.676775738189463,49.993432565024705 30.389465283311438,50.383915899088606 25.591380686324555,48.306536205185694 20.146847565833014,45.32319552658009 19.658419792482164,45.35443491596379 18.480446927365847,44.87022385788441 14.702314445341472,44.38601168144669 15.937749401433393,44.526589525310555 18.39425379090244,44.807744930221816 20.822027134883683,45.729307225046796 20.189944134035613,45.32319552658009 19.41420590580674,45.30757583017112 18.0207501995028,44.79212519539578 16.770949720637873,44.77650545942015 12.41819632879924,43.964277584294905" stroke="yellow" stroke-linecap="round" stroke-linejoin="round" stroke-width="0.5"><title>2025-02-19 10.6km</title><desc>1739962218000</desc></polyline><polyline fill="none" points="50.38202247192385,44.14276506616443 48.14285714284051,43.922859547426924 51.94221508828923,44.33125532824488 54.975922953453846,44.86531015561195 55.81380417337641,45.28941155473876 56.42054574639769,45.25799666551757 61.72231139644282,48.17956133559346 66.80738362763077,50.36285473826865 67.05296950245975,50.04871319506492 67.21187800966436,48.68219203586341 67.45746388443513,48.50941286784655 72.03691813809564,48.792142341830186 74.10272873193026,49.64032848921488 79.0,49.73457118382794 74.36276083462872,49.67174272541888 71.97913322632667,48.80784952372778 67.74638844304718,48.50941286784655 67.5008025682182,48.77643515878299 67.24077046546154,48.71360641489446 67.05296950245975,50.14295570716786 66.60513643664308,50.31573353661224 60.75441412522923,47.724051228462486 56.44943820219487,45.32082643925969 54.81701444624923,44.83389520320634 49.25521669338923,44.04851987192524" stroke="#4DD2FF" stroke-linecap="round" stroke-linejoin="round" stroke-width="0.5"><title>2025-02-18 4.9km</title><desc>1739836925000</desc></polyline><polyline fill="none" points="87.9081200886285,44.16161831950012 87.864598025335,44.540193852910306 89.46040701190941,44.492871948255925 91.5784807575983,44.85567294700013 94.34938545234036,46.33841839211527 95.84364295785781,46.82740663430013 97.23634898249293,47.836927174648736 101.92222446098458,49.76131237165828 102.99576868826989,50.40802806057036 103.38746725773672,50.10833079180156 103.48901873867726,48.70448004330683 103.72113640944008,48.49942241336976 108.29095305252122,48.86221654662222 110.40902679826831,49.69821805234824 115.42857142857974,49.79285952428472 110.56860769691411,49.60357653815299 108.31996776140295,48.767574658748345 103.83719524479238,48.483648741283105 103.57606286514783,48.767574658748345 103.50352609308902,50.01368946087314 103.27140842238441,50.34493393394223 97.94720934919314,48.12085395933536 93.6530324400519,45.69169027269527 91.46242192218779,44.80835111284978 84.57142857142026,43.87768622516887 91.50594398548128,44.824125058730715 93.50795889587607,45.72323803170002 91.50594398548128,44.824125058730715" stroke="#4DD2FF" stroke-linecap="round" stroke-linejoin="round" stroke-width="0.5"><title>2025-02-14 5.4km</title><desc>1739506837000</desc></polyline><polyline fill="none" points="124.37252285314025,44.37699793292268 126.96677120169625,44.6904143892898 129.30159471544903,45.27023360230669 135.0665910455864,48.35735223162919 139.49122572893975,50.378841913014185 139.85153799958061,50.31616035429761 140.41362514183857,48.9058203445893 140.83158737578196,48.576739648444345 144.92473477014573,48.81179734109901 147.23073330218904,49.73635505048151 151.85714285710128,49.783366350864526 147.1298458664096,49.73635505048151 144.88149729766883,48.8431383469142 140.90364982985193,48.63942172547104 140.514512577618,48.82746784457413 139.7218255822081,50.378841913014185 134.76392873824807,48.37302276896662 129.34483218786772,45.33291666471632 128.0332955227932,44.90980563084304 121.0,43.90687237272505 127.83152065123431,44.81578084103239 129.4168946420541,45.33291666471632 134.79275371995755,48.26332898292458 139.44798825652106,50.347501135998755 139.8803629812901,50.23780837960658 140.4712751050829,48.85880884807557 140.9324748115614,48.63942172547104 144.93914726102958,48.85880884807557 147.1298458664096,49.6893437395629 151.85714285710128,49.767695918577374 149.88263161410578,49.877388920111116 147.11543337564217,49.6580028598255 144.85267231601756,48.8431383469142 140.8892373390263,48.56106912622636 140.514512577618,48.81179734109901 139.86595049040625,50.28481956793985 139.6353506372543,50.33183074570843 134.50450390344486,48.16930569220858 129.84926936682314,45.567977982442244 128.37919530260842,44.956818009974086 121.02882498170948,43.938214109424734 124.68959765130421,44.25163121963851 128.0332955227932,44.81578084103239 130.03663174755638,45.85005121694121 129.2871822246234,45.31724590086378 129.09981984383194,45.41127046647307 127.81710816046689,44.84712244231196" stroke="yellow" stroke-linecap="round" stroke-linejoin="round" stroke-width="0.5"><title>2025-02-12 10.1km</title><desc>1739334019000</desc></polyline><polyline fill="none" points="182.2378908645478,49.29479556559818 183.53280196199194,49.7427746928588 188.28571428573923,49.77477316620934 183.69466584920883,49.80677163475775 181.48743102396838,48.81481689227803 177.16125076642493,48.526829173380975 176.2194972409634,50.33474567782832 175.93991416314384,50.38274325375096 170.17167381971376,47.85485632752534 168.6266094420571,46.862892569290125 164.53586756595178,44.942949698030134 157.42857142857974,43.822975095928996 164.27099938690662,44.766954075937974 166.5518087063101,45.64693074388197 169.45064377685776,47.054885912366444 170.90741876151878,48.07884750976518 175.83690987119917,50.30274728794757 176.234212139796,50.158754474367015 176.83752299204934,48.718821028916864 177.20539546292275,48.51082984438108 179.85407725319965,48.79881758472766 181.1784181483672,48.718821028916864 183.54751686082454,49.69477697390539 188.09442060085712,49.75877393010887 181.8700183936162,49.31079483621579 181.94359288783744,49.75877393010887 181.81115879828576,49.23079847113695 181.28142244025366,48.990809197042836 177.20539546292275,48.57482715335209 176.9110974862706,48.73482034241897 176.10177805030253,50.46273918978113 170.55426118941978,48.07884750976518 169.5389331698534,47.26287850696826 167.67014101782115,46.36690897194785" stroke="#4DD2FF" stroke-linecap="round" stroke-linejoin="round" stroke-width="0.5"><title>2025-02-10 6.3km</title><desc>1739162078000</desc></polyline><polyline fill="none" points="11.934815047483426,80.18416733530466 13.80083248252049,80.23947446333477 22.214874734927434,81.47466377829551 24.79337155423127,81.36405006030691 25.01390088745393,82.21208730510261 25.980837194656488,82.26739398129575 27.117411450482905,82.69141142285662 27.897746014234144,81.56684183895413 34.85290190833621,81.43779254447145 35.22610539535526,82.08303834604158 35.667164061858784,82.1936517436261 35.9555485745077,82.02773162875383 36.24393308721483,81.25343629311828 37.56710908655077,81.16125811608799 42.571428571420256,81.78806904483645 37.87245739414357,81.14282247655501 36.193041702674236,81.23500066043925 35.87072960019577,82.02773162875383 35.58234508748865,82.17521618075261 34.85290190833621,81.41935692545667 27.98256498860428,81.52997061879432 27.49061493750196,81.86181140302506 27.15133904031245,82.70984694737126 25.09871986170765,82.23052286524035 25.09871986170765,81.5115350066626 24.8781905285432,81.32717881006829 22.384512683493085,81.45622816206014 14.496348071843386,80.2947815789812 11.714285714260768,80.16573162321583 14.123144584882539,80.25791016989388 21.84167124790838,81.41935692545667 24.759443964459933,81.32717881006829 24.996937092510052,82.1936517436261 27.134375245368574,82.69141142285662 27.643289091298357,81.7327622618468 28.084347757685464,81.52997061879432 34.785046728968155,81.41935692545667 35.2600329851266,82.10147391571081 35.59930888237432,82.17521618075261 35.9555485745077,81.95398931989621 36.09125893347664,81.34561443587882 36.515353805036284,81.1796937542531 42.21518887922866,81.7327622618468 38.109950522193685,81.14282247655501 36.447498625551816,81.14282247655501 35.98947616427904,81.38248568342533 35.701091651571915,82.17521618075261 35.3618157543242,82.10147391571081 34.835938113508746,81.38248568342533 27.914709809119813,81.5115350066626 27.50757873232942,81.82494022665196 27.168302835081704,82.69141142285662 25.08175606688019,82.21208730510261 24.8781905285432,81.25343629311828 22.113091965729836,81.36405006030691 13.597266944125295,80.14729590977367 12.104452996165492,80.20260304601106 13.631194533838425,80.18416733530466 22.876462734595407,81.4930993931921 24.844262938713655,81.32717881006829 25.03086468228139,82.21208730510261 26.354040681617334,82.37800729674927 25.09871986170765,82.1936517436261 24.759443964459933,81.27187192440033 22.197910940041766,81.38248568342533 14.377601507876534,80.23947446333477 12.291054739616811,80.20260304601106 14.530275661672931,80.2947815789812" stroke="#4DD2FF" stroke-linecap="round" stroke-linejoin="round" stroke-width="0.5"><title>2025-01-25 9.9km</title><desc>1737761473000</desc></polyline><polyline fill="none" points="48.55428571422817,79.9195225485164 58.61714285711059,81.37268526187108 61.531428571383,81.24227356730262 61.51428571424913,82.43460653677175 62.64571428572526,82.49049700566684 63.622857142821886,82.93762030861399 64.44571428571362,81.72665951962699 71.457142857078,81.55898756504757 72.10857142851455,82.37871605542023 72.5371428570943,82.2483048838476 72.65714285714785,81.55898756504757 72.93142857134808,81.35405502394133 79.0,81.93159175637993 74.26857142854715,81.29816430184292 72.77714285708498,81.42857596733666 72.31428571429569,82.3600858922 71.93714285711758,82.2483048838476 71.78285714285448,81.68939909496112 71.457142857078,81.54035734095669 64.47999999992317,81.67076888056181 64.13714285707101,81.85707096237456 63.72571428568335,82.90036006379523 61.63428571418626,82.39734621722891 61.47999999998137,81.46583643078338 59.09714285709197,81.63350844757224 49.75428571423981,80.27349885678268 48.14285714284051,80.29212917493714 50.234285714279395,80.34802012116415 58.565714285650756,81.5962480090966 61.23999999999069,81.44720619975124 61.4628571428475,81.65213866478007 61.4628571428475,82.3041953942593 63.622857142821886,82.90036006379523 64.42857142852154,81.68939909496112 71.43999999994412,81.54035734095669 71.86857142852386,82.2483048838476 72.26285714283586,82.3600858922 73.0,81.33542478464369 77.97142857138533,81.72665951962699 73.13714285712922,81.27953405839799 72.65714285714785,81.42857596733666 72.57142857142026,82.15515400553704 72.26285714283586,82.32282556161226 71.43999999994412,81.48446666038944 64.51428571424913,81.67076888056181 64.06857142859371,81.95022195141064 63.67428571428172,82.86309981344675 61.6171428571688,82.3600858922 61.35999999998603,81.40994573359785 59.0800000000163,81.61487822899653 49.925714285694994,80.25486853721668 48.52000000001863,80.31075949170918 50.09714285709197,80.27349885678268 52.291428571392316,80.62747466555447" stroke="#4DD2FF" stroke-linecap="round" stroke-linejoin="round" stroke-width="0.5"><title>2025-01-19 8.1km</title><desc>1737283232000</desc></polyline><polyline fill="none" points="88.65016347495839,78.62353779278055 91.22999933274696,78.9839665429754 92.32534863543697,79.54811465121747 93.1324481216725,79.5637854104134 96.96617068117484,81.5696329469065 97.44178287847899,82.00840954572777 102.12584239669377,84.0142337703146 103.17795422696508,84.67239067645278 103.46620404347777,84.50001644765143 104.08594114898006,83.04266505004489 104.48949089203961,82.80760742741404 108.27997597918147,82.99565354651713 110.70127443782985,83.8575294415059 115.42857142852154,83.98289291388937 110.6003870019922,83.8575294415059 108.40968839655397,82.96431253835908 104.54714085540036,82.77626639121445 104.10035363974748,82.94864203252655 103.45179155259393,84.50001644765143 103.25001668103505,84.59403877178556 98.04710749315564,82.41584413932287 92.95949823176488,79.5951269252837 92.55594848864712,79.62646843548282 91.34529925929382,79.09366212700843 88.03042636951432,78.78024602093501 84.57142857142026,78.1220706779859 91.56148662173655,79.14067450260336 93.03156068589306,79.57945616841607 98.30653232795885,82.46285577242088 102.11142990586814,84.02990419679554 103.04824180953437,84.70373143011238 103.4373790618265,84.57836838735966 104.07152865809621,83.13668802555185 104.54714085540036,82.88595999748213 108.51057583233342,83.0740060465323 110.74451191030676,83.8888703166158 115.42857142852154,84.0142337703146 110.71568692859728,83.98289291388937 108.35203843325144,83.08967654305161 104.53272836451652,82.88595999748213 104.12917862145696,83.0740060465323 103.45179155259393,84.62537953714491 102.9329418829293,84.6410499180638 97.18235804361757,82.00840954572777 93.08921064919559,79.67348069202853 92.57036097947275,79.70482219052792 91.44618669513147,79.17201608054165 84.62907853466459,78.16908327079727 91.72002402081853,79.15634529215458 92.51271101617021,79.6107976809435 92.97391072253231,79.5637854104134 98.29211983713321,82.47852631445858 103.26442917191889,84.73507217915903 104.18682858470129,83.0113240488572 105.72896510304417,83.0113240488572 104.37419096549274,82.99565354651713 103.45179155259393,84.65672029781854 103.0194168278831,84.59403877178556 97.13912057114067,82.00840954572777 93.04597317671869,79.65780994099623 92.62801094277529,79.68915144186758 91.47501167678274,79.15634529215458 88.24661373184063,78.78024602093501" stroke="yellow" stroke-linecap="round" stroke-linejoin="round" stroke-width="0.5"><title>2025-01-17 12.3km</title><desc>1737088953000</desc></polyline><polyline fill="none" points="124.12038523267256,78.48345645800873 124.32263242377667,78.13789059131523 125.2038523274241,78.719069224142 129.30658105941257,79.5358581081091 131.61797752801795,80.72962078468117 132.5136436597095,81.43645076242683 139.5922953451518,84.70354520328692 139.86677367571974,84.51506036160572 140.47351524874102,83.08571149522322 140.84911717491923,82.83439640719735 144.87961476721102,83.08571149522322 147.08988764043897,83.90248346253065 151.8426966291736,83.98101906185912 147.19101123593282,83.90248346253065 144.70626003207872,83.08571149522322 140.96468699839897,82.89722520729993 140.53130016051,83.05429712563637 139.85232744779205,84.62500987305248 139.66452648473205,84.68783813959453 134.3916532905423,82.42600875026255 129.34991974313743,79.58298044718686 127.68860353133641,79.15887901643873 121.0,78.21642833804071 127.55858747992897,79.09604910227063 128.93097913323436,79.58298044718686 129.32102728728205,79.5358581081091 134.9695024077082,82.64590989459248 138.4077046548482,83.99672617820033 139.43338683788897,84.65642400867364 139.82343499193667,84.56218158782576 140.44462279294385,83.07000431099732 140.87800963083282,82.85010360897286 144.7351524879341,83.08571149522322 147.06099518452538,83.88677633913176 151.85714285710128,83.94960482565511 147.13322632422205,83.88677633913176 144.86516853928333,83.14854022041254 140.97913322632667,82.86581080962787 140.53130016051,83.08571149522322 139.70786516851513,84.71925226581516 134.62279293732718,82.53595935109479 129.3932584269205,79.66151765553514 128.68539325840538,79.63010277569992 127.91974317817949,79.19029396648693 122.79133226326667,78.45204140261922" stroke="#4DD2FF" stroke-linecap="round" stroke-linejoin="round" stroke-width="0.5"><title>2025-01-15 9.1km</title><desc>1736916504000</desc></polyline><polyline fill="none" points="160.1186813187087,78.01874204051273 160.32007992011495,78.36285857020994 161.02497502503684,78.78518263112346 164.54945054947166,79.36392163108394 166.46273726277286,79.98958362010308 168.73566433566157,81.47552337110392 175.9140859140316,84.76019497618836 176.23056943062693,84.68198910655337 176.83476523478748,83.27427847236686 177.32387612387538,83.00837651499023 181.2943056942895,83.25863719006884 183.46653346647508,84.11890598546597 188.28571428573923,84.22839448839659 183.40899100905517,84.16582963657856 181.2511488511227,83.30556103341223 177.30949050944764,83.00837651499023 176.83476523478748,83.27427847236686 176.15864135860465,84.77583614661125 175.71268731268356,84.77583614661125 170.99420579418074,82.67990892629314 165.7722277722787,79.77060213603545 165.47012987016933,79.86445137146802 163.64315684320172,79.28571375132015 157.42857142857974,78.40978350779915 162.63616383617045,79.03544834039349 165.74345654348144,79.72367750259582 170.3900099900202,82.28887541255972 176.0003996003652,84.83840081664675 176.33126873127185,84.65070675055904 177.00739260745468,83.07094171171775 178.47472527471837,83.10222430310387 177.05054945056327,83.13350688981882 176.11548451549606,84.82275965089502 170.63456543459324,82.58606094942661 165.8585414585541,79.80188521915989 164.17542457545642,79.3169969067385 159.64395604399033,78.69133291322214" stroke="#4DD2FF" stroke-linecap="round" stroke-linejoin="round" stroke-width="0.5"><title>2025-01-14 7.8km</title><desc>1736829619000</desc></polyline><polyline fill="none" points="15.933820598002058,113.11605686509574 15.689833887037821,112.77274162961112 16.26392026571557,112.83516262336343 21.086245847167447,114.38007629103959 24.05714285711292,115.846953469445 25.377541528258007,116.76764772765455 30.156810631218832,118.95232977336855 30.47255813947413,118.858701010191 31.118405315617565,117.39184492290951 31.53461794013856,117.14216626800771 35.42405315610813,117.39184492290951 37.289833887072746,118.15648395215976 38.624584717617836,118.32813722814899 42.571428571420256,118.32813722814899 37.56252491695341,118.2032984959369 35.43840531562455,117.39184492290951 31.577674418629613,117.12656134217104 31.161461793992203,117.29821546218591 30.48691029899055,118.858701010191 30.08504983386956,118.87430580696673 25.277076411875896,116.79885763159837 20.885315614636056,114.39568142146163 18.67508305644151,113.47497673686303 11.714285714260768,112.49184692748531 18.76119601324899,113.50618713142467 20.885315614636056,114.30205062140885 24.731694352114573,116.47115340833261 30.113754152785987,118.90551539698208 30.458205980074126,118.81188661287888 31.032292358751874,117.40744982892647 31.448504983447492,117.14216626800771 35.55322259134846,117.40744982892647 37.70604651159374,118.21890334151976 42.427906976721715,118.34374206447683 37.605581395328045,118.17208880123508 35.45275747508276,117.36063510732492 31.434152823931072,117.12656134217104 31.089700996642932,117.32942528705462 30.41514950169949,118.90551539698208 29.86976744182175,118.858701010191 29.13780730892904,118.35934689961141 25.076146179344505,116.73643781908322 19.96677740861196,113.84950116468826 18.431096345477272,113.4281611362967 11.771694352151826,112.4762416552112 19.995481727528386,113.83389599357906 25.104850498319138,116.64280806540046 29.180863787361886,118.32813722814899 30.128106312302407,118.93672498242813 30.458205980074126,118.84309621222201 31.089700996642932,117.31382037521689 31.491561461763922,117.12656134217104 35.35229235875886,117.32942528705462 37.34724252484739,118.12527425051667 38.552823920268565,118.25011302926578 37.289833887072746,118.12527425051667 35.30923588038422,117.32942528705462 31.520265780680347,117.07974655779253 31.118405315617565,117.26700563266058 30.47255813947413,118.78067700886459 29.955880398629233,118.79628181143198 28.621129568084143,118.06285483323154 25.104850498319138,116.70522790582618 19.95242524909554,113.84950116468826 17.971827242523432,113.350135112094" stroke="yellow" stroke-linecap="round" stroke-linejoin="round" stroke-width="0.5"><title>2025-01-10 13.0km</title><desc>1736482744000</desc></polyline><polyline fill="none" points="51.09879839787027,112.24161591223674 52.51188251003623,113.19798553914006 54.96315086778486,113.66832966278889 57.371161548711825,114.59333670571505 59.981041388527956,116.14545803207147 66.72923898533918,119.186955516343 67.04646194924135,118.93611202614557 67.17623497999739,117.55646748564322 67.36368491320172,117.32129990040266 71.90574098803336,117.61917879733664 74.28491321764886,118.49713519887882 78.92790387186687,118.60687949151907 74.0830440587597,118.45010191306937 71.90574098803336,117.63485662234598 67.45020026707789,117.30562205205206 67.16181575437076,117.63485662234598 67.04646194924135,118.99882292671828 66.72923898533918,119.186955516343 61.567156208271626,116.99206483953458 56.49158878508024,114.15435081941541 54.90547396527836,113.66832966278889 48.14285714284051,112.72764036417357 55.280373831803445,113.69968590031203 55.98691588785732,114.09163847519085 56.477169559395406,114.09163847519085 61.653671562089585,116.92935334093636 66.51295060082339,119.12424467178062 67.00320427236147,118.99882292671828 67.14739652874414,117.57214531535283 67.4069425901398,117.33697774756001 71.90574098803336,117.63485662234598 74.40026702272007,118.49713519887882 79.0,118.55984623024415 74.01094793062657,118.43442414877063 71.89132176234853,117.57214531535283 67.4646194926463,117.33697774756001 67.21949265687726,117.4937561552506 67.20507343125064,118.60687949151907 66.83017356478376,119.17127780693409 61.46622162888525,116.94503121735761 56.52042723627528,114.1386727351346 54.80453938583378,113.66832966278889 48.14285714284051,112.68060578887525 53.18958611477865,113.32341074159194 56.419492656888906,114.06028229606454 61.1634178905515,116.70986294880277 66.54178905207664,119.12424467178062 66.94552736991318,119.01450064891833 67.26275033381535,118.23061310699268 66.94552736991318,119.09288924255816 66.31108144193422,118.99882292671828 61.55273698270321,116.9607090925565 56.49158878508024,114.04460420475516 56.15994659543503,114.12299464961688 55.04966622160282,113.58993904851377 53.218424566148315,113.38612331474724" stroke="yellow" stroke-linecap="round" stroke-linejoin="round" stroke-width="0.5"><title>2025-01-08 12.0km</title><desc>1736310892000</desc></polyline><polyline fill="none" points="87.86054898821749,113.81638505739102 88.29332799039548,113.12622455586097 88.35103185736807,112.4517473342712 88.62512522540055,112.21646407415392 88.94249649374979,112.2792063025554 88.79823682626011,112.38900515728164 90.19755560008343,112.9223130656028 90.91885393712437,113.51836148201255 93.87617711885832,114.55359945753298 98.78100581048056,117.20441288615984 103.19535163289402,119.16505223438435 103.48387096769875,118.88272129345569 103.5271488679573,117.58085705722624 103.9310759367072,117.31420917225478 108.34542175917886,117.62791253130126 110.65357643761672,118.50627945001179 115.42857142857974,118.60038997400261 110.62472450413043,118.47490926604951 108.40312562609324,117.6592828414723 103.87337206973461,117.36126470589079 103.57042676815763,117.6749679948116 103.5271488679573,118.88272129345569 103.2819074333529,119.21210735441127 97.87216990586603,116.90639410671429 92.92406331398524,114.13009362829325 92.37587657780387,114.13009362829325 91.36605890607461,113.64384514412086 84.57142857142026,112.7811434566247 91.56802244042046,113.78501417455846" stroke="#4DD2FF" stroke-linecap="round" stroke-linejoin="round" stroke-width="0.5"><title>2025-01-06 5.2km</title><desc>1736137119000</desc></polyline><polyline fill="none" points="124.99412550067063,113.34692872670712 125.06622162880376,112.75115777223255 125.54205607483163,112.04563735512784 125.88811748998705,113.2685379080358 125.39786381844897,113.59777915026643 126.30627503339201,113.55074471863918 129.30547396530164,114.2719381818024 133.3716955941054,116.18465670049773 134.135914552724,116.8588074446161 139.6152202936937,119.28886778563901 139.9468624832807,119.08505735115614 140.00453938584542,117.76812363183126 140.2785046728677,117.51727817954088 145.0224299065885,117.84651277438388 147.30066755670123,118.70879141511978 151.8571428571595,118.78718020729139 147.1132176234969,118.67743589010206 144.86381842457922,117.79947929238551 140.33618157543242,117.51727817954088 140.06221628841013,117.75244579986611 139.96128170896554,119.08505735115614 139.67289719625842,119.36725636174378 134.49639519362245,117.2350766882737 130.25714285718277,114.83634873320989 128.1230974633363,113.974054224891 121.0,112.86090518007404 125.84485981304897,113.45667582380702 129.2766355140484,114.22490390086023 133.63124165555928,116.63931674178457 138.66355140181258,118.83421346855175 139.442189586116,119.3829340734519 139.93244325765409,119.0380241459352 140.06221628841013,117.67405662227247 140.26408544718288,117.47024462393892 143.46515353803989,117.84651277438388 144.86381842457922,117.76812363183126 147.18531375163002,118.66175812581787 151.84272363153286,118.74014693548088 146.79599465953652,118.58336928696372 144.77730307081947,117.79947929238551 140.3794392523705,117.47024462393892 140.06221628841013,117.70541229682567 140.01895861141384,118.99099093023688 139.70173564751167,119.30454550321156 134.56849132175557,117.21939881658182 130.2859813083778,114.74228041307651 128.5124165554298,114.06812288844958 121.18744993326254,112.93929615060915" stroke="#4DD2FF" stroke-linecap="round" stroke-linejoin="round" stroke-width="0.5"><title>2025-01-03 9.5km</title><desc>1735878536000</desc></polyline><polyline fill="none" points="160.50705921719782,112.72064457376837 162.31368350621779,113.22352058913384 164.38046169286827,113.41209878577502 165.37771830050042,113.91497315255401 165.75349615258165,113.86782873159973 170.04603546339786,116.24075150367571 175.81278019404272,118.89650758508651 176.24637002346572,118.81793539994396 176.83894279022934,117.38791651665815 177.27253261965234,117.13648362303502 181.145935095381,117.3722019695706 183.44396119110752,118.23650032018486 188.28571428568102,118.37793062221317 183.8052860488533,118.25221480288019 181.31937102705706,117.45077469325042 177.30143860826502,117.21505643444834 176.83894279022934,117.46648923447356 176.07293409173144,118.95936531212647 170.4651722984854,116.602187728844 165.7390431582462,113.96211756298726 165.36326530616498,113.99354716404923 164.2070257611922,113.44352846882248 162.5738374038483,113.36495425240719 157.42857142857974,112.46920611645328 164.3226497156429,113.427813627859 166.3605219136807,114.38641678252316 164.45272666448727,113.47495814716967 160.21799933089642,112.83064880456368" stroke="#4DD2FF" stroke-linecap="round" stroke-linejoin="round" stroke-width="0.5"><title>2025-01-02 5.6km</title><desc>1735817809000</desc></polyline><polyline fill="none" points="15.275834445899818,147.13093990024936 18.707610146841034,147.69535322708543 19.71695594122866,148.22840886792983 20.683044058736414,148.40086775674718 25.931642189621925,151.28561366915528 30.358344459265936,153.19830383110093 30.733244325674605,152.80636054188653 31.151401869079564,151.75594892726804 31.65607476636069,151.50510358707106 35.3618157543242,151.63052629455342 38.072630173526704,152.61822750381543 42.571428571420256,152.64958302181913 40.81228304398246,152.75932729811757 37.81308411207283,152.57119421799143 35.563684913213365,151.69323762027489 31.670493991987314,151.47374789853347 31.223497997329105,151.64620412775548 30.560213618155103,153.13559295385494 30.31508678238606,153.24533697671723 23.24966622161446,150.14112681659753 20.00534045387758,148.22840886792983 19.543925233650953,148.25976504007122 18.54899866488995,147.75806572551664 11.714285714260768,146.7389853103523 18.029906542040408,147.61696257778385 19.65927903872216,148.19705269114638 20.00534045387758,148.1029841327545 24.633911882527173,150.70553206972545 30.31508678238606,153.26101468963316 31.26675567420898,151.59917062471504 31.65607476636069,151.44239220533927 32.75193591450807,151.58349278800597 31.237917222897522,151.56781495016185 30.560213618155103,153.10423750824702 30.300667556701228,153.18262611352839 25.066488651558757,150.97205624639173 20.22162883839337,148.27544312435202 19.572763684904203,148.22840886792983 18.41922563413391,147.71103135345038 17.179172229603864,147.75806572551664 12.146862483292352,146.78601989970775 15.319092122837901,147.3817904546304" stroke="#4DD2FF" stroke-linecap="round" stroke-linejoin="round" stroke-width="0.5"><title>2024-12-31 8.0km</title><desc>1735619151000</desc></polyline><polyline fill="none" points="52.4397863818449,147.35043434910767 53.49238985317061,147.38179064968426 56.506008010706864,148.0873061780876 58.26515353808645,149.02798986976268 58.76982643525116,149.54536410771834 66.84459279041039,153.19830359282787 67.60881174902897,151.70891532146197 68.04138851806056,151.47374778875383 72.03551401873119,151.69323749410978 74.02536715619499,152.49280519923195 78.98558077437337,152.6182273087179 74.21281708951574,152.57119402644457 72.00667556741973,151.70891532146197 68.05580774374539,151.47374778875383 67.63765020028222,151.66188183591294 66.77249666227726,153.26101444668893 61.89879839785863,151.1758685366949 57.48651535384124,148.7457852037769 54.919893190904986,147.7267096479918 48.14285714284051,146.73898555329652 53.59332443255698,147.4445032368676 56.46275033382699,148.1029842740827 61.89879839785863,151.05044556762732 66.64272363152122,153.24533673496626 67.00320427236147,153.104237276988 67.60881174902897,151.69323749410978 68.09906542056706,151.42671425067238 71.94899866491323,151.66188183591294 74.28491321764886,152.5241607336211 79.0,152.53983849904034 74.45794392528478,152.5555162633391 71.9345794392284,151.69323749410978 68.02696929237572,151.44239209782972 67.60881174902897,151.66188183591294 66.97436582110822,153.08855955358013 66.7436582109658,153.19830359282787 61.52389853139175,151.00341193492932 56.5781041388982,148.2284089998866 54.415220293740276,147.69535339878348 48.37356475298293,146.81737652383163 54.73244325770065,147.67967527241854 56.059012016048655,148.21273091326293 56.62136181577807,148.15001855502487 61.206675567431375,150.68985411505855 56.54926568758674,148.18137473647948 52.194659546075854,147.3661124999635" stroke="yellow" stroke-linecap="round" stroke-linejoin="round" stroke-width="0.5"><title>2024-12-30 10.8km</title><desc>1735533491000</desc></polyline><polyline fill="none" points="88.90351812366862,147.2927817528107 91.72441364609404,147.76224843872478 92.51599147124216,148.2160652376333 92.91897654585773,148.16911871770571 93.7393390192301,148.51339295350772 97.26545842218911,150.5164318603638 102.99360341147985,153.14539143860748 103.41098081023665,153.1610399090132 104.0154584221309,151.67443001485663 104.4904051173362,151.4084039766458 108.27558635390596,151.65878143369628 110.53518123662798,152.53510018327506 115.42857142857974,152.61334275102126 110.72228144994006,152.53510018327506 108.41950959491078,151.69007859488192 104.4328358208877,151.43970117511344 104.04424307035515,151.67443001485663 103.54051172710024,152.94196121716232 103.15191897650948,153.2236337790091 97.76918976544403,150.95459407499584 93.94083155650878,148.76377386153035 91.75319829426007,147.87179051445855 84.57142857142026,146.74506929298514 91.50852878467413,147.74659956610412 94.27185501065105,148.76377386153035 97.17910447763279,150.5164318603638 103.10874200420221,153.25493070701486 103.39658848609542,153.17668837824021 104.05863539443817,151.69007859488192 104.46162046905374,151.50229555800615 108.39072494668653,151.7213757513673 110.5495735607692,152.55074869914097 115.38539445627248,152.59769423976832 113.9173773987568,152.7228822968318 110.6215351811843,152.55074869914097 108.37633262260351,151.65878143369628 104.47601279319497,151.43970117511344 104.0730277185794,151.6118356832303 103.41098081023665,153.1297429670085 102.97921108739683,153.1923368463613 98.3160980810062,151.1580262211064 96.79051172704203,150.21910697990097 91.72441364609404,147.8091950496164 85.3054371001781,146.9015587129834" stroke="#4DD2FF" stroke-linecap="round" stroke-linejoin="round" stroke-width="0.5"><title>2024-12-27 9.1km</title><desc>1735273142000</desc></polyline><polyline fill="none" points="145.81548731634393,151.85785474946897 144.6907877168851,151.54429828443972 143.49399198923493,151.68539875152055 140.68224299058784,151.41887556767324 139.68731642188504,153.2061422255938 134.45313751662616,151.07396271095786 129.26221628830535,148.2205710317503 128.8440587449586,148.267605274159 127.71935914549977,147.76590614652378 121.0,146.69979152864835 125.70066755672451,147.4523435843439 126.16208277700935,147.37395287078107 129.46408544725273,148.20489294860454 133.14098798390478,150.05489869556914 133.68891855806578,150.55659236600331 139.37009345792467,153.15910908694786 139.78825100127142,153.12775365535344 140.36502002662746,151.68539875152055 140.8264352469705,151.403197722786 144.8061415219563,151.6540431003814 147.24299065413652,152.56335508762277 151.85714285710128,152.68877712237008 146.76715620822506,152.46928851252596 144.97917222959222,151.70107657535118 140.81201602128567,151.41887556767324 140.50921228301013,151.51294261225848 139.86034712952096,153.17478680096974 139.57196261675563,153.30020847135165 138.3319092122838,152.56335508762277 134.28010680899024,150.96421759256918 129.53618157544406,148.18921486432373 126.27743658208055,147.4523435843439 122.86008010676596,146.99767703918042" stroke="#4DD2FF" stroke-linecap="round" stroke-linejoin="round" stroke-width="0.5"><title>2024-12-25 6.6km</title><desc>1735101299000</desc></polyline><polyline fill="none" points="160.6326339703519,146.97132739138033 160.5171722570667,147.25379846697615 160.70479754108237,147.19102714958717 160.97901910997462,146.73593453894136 161.85941467323573,147.34795540799678 162.84083923557773,147.3950338627037 165.85727649339242,148.16398046698305 171.19738072965993,151.08281345335126 176.10450354142813,153.20129593476304 176.30656153953169,153.18560355027148 176.91273553390056,151.69482169197 177.36014967266237,151.4594341183256 181.22811706532957,151.67912919522496 183.72497661371017,152.62067692965502 188.28571428573923,152.69913905092108 183.5084859014023,152.57359964289935 181.0837899238686,151.66343669735943 177.2302552452893,151.47512663139787 176.91273553390056,151.63205169803405 176.2632633970352,153.10714161020587 176.00347454228904,153.15421877775225 170.67780302022584,150.95727308202186 166.67994120006915,148.63476271668333 164.41400507820072,147.7245827511506 157.42857142857974,146.75162740398082 159.79553654947085,147.11256297653017 160.92128825339023,147.08117729911464 164.89028464519652,147.865817831218 166.69437391421525,148.57199181086617 171.64479486836353,151.30250892307959 175.87358011497417,153.18560355027148 176.32099425367778,153.13852638975368 177.04262996127363,151.53789667207457 178.51476680475753,151.53789667207457 177.08592810371192,151.4908191433351 176.2488306828891,153.26406546105864 171.05305358814076,151.11419853447296 168.25310704263393,149.46647545299493 164.5583322197199,147.8344322660414 157.47186957101803,146.76732026781247 163.40371508750832,147.6147331789689" stroke="#4DD2FF" stroke-linecap="round" stroke-linejoin="round" stroke-width="0.5"><title>2024-12-18 8.3km</title><desc>1734495982000</desc></polyline><polyline fill="none" points="14.966950959526002,179.9744743022311 14.434434967988636,180.09966715346673 14.621535181242507,179.94317607772246 14.434434967988636,180.0683689476573 14.319296375208069,179.89622873225017 14.37686567165656,180.0527198429918 15.54264392319601,180.86647173912206 18.090085287811235,181.99319992848905 18.694562899821904,182.9477843591303 19.371002132131252,183.47984592923603 20.119402985088527,183.5893878498755 25.40138592745643,186.43745773467526 30.179637526685838,188.58130904119753 30.525053304852918,188.59695751042455 31.20149253733689,187.09469914704096 31.61886993603548,186.85997030728322 35.619936034083366,187.11034772706626 38.13859275059076,187.98666634605615 42.571428571420256,188.06490890210262 37.75,187.98666634605615 35.619936034083366,187.1259963058692 31.546908315620385,186.8756189047417 31.129530916863587,187.11034772706626 30.409914712130558,188.65955137573474 23.343283582071308,185.70197085873224 22.853944562841207,185.21686108420545 21.083688699407503,184.21534058619 18.95362473349087,183.3703039514512 11.714285714260768,182.19663631847652 18.593816631124355,183.10427319612063 19.802771855029278,183.63633436980308 20.061833688698243,183.55809016407875 25.458955223904923,186.5000522434857 29.172174840059597,187.9710178313253 30.194029850768857,188.59695751042455 30.58262260130141,188.50306667745463 31.302238805918023,187.000807642602 32.79904051171616,186.9538618746883 31.388592750474345,187.047753400082 30.640191897633485,188.67519983918464 29.99253731337376,188.62825444544433 25.113539445621427,186.5313494909351 23.775053304911125,185.6550248004787 18.910447761183605,183.29205964662833 11.829424306983128,182.3061789083731 18.694562899821904,183.13557094952557" stroke="#4DD2FF" stroke-linecap="round" stroke-linejoin="round" stroke-width="0.5"><title>2024-12-17 8.6km</title><desc>1734409492000</desc></polyline><polyline fill="none" points="51.9477547207498,181.44933765468886 55.032027757377364,181.93513299914775 56.15620204177685,182.46793950611027 56.53092680324335,182.3582441591425 61.87796089949552,185.30432789964834 66.73497030761791,187.4041709111334 66.99439514242113,187.37283012477565 67.65736972040031,185.82145536289318 68.01768199109938,185.61773863520648 72.19730433041696,185.91547840140993 74.28711550013395,186.71467253222363 79.0,186.79302473457938 78.5388002935797,186.94972905168834 74.27270300925011,186.79302473457938 71.80816707812482,185.88413739325188 68.10415693605319,185.72743228230684 67.54206979385344,186.07218337227823 66.92233268835116,187.4041709111334 66.67732034431538,187.4825228566624 62.31033562414814,185.63340915969457 56.44445185828954,182.49928102330887 55.68058984458912,182.40525645769958 54.87349035835359,181.93513299914775 48.14285714284051,181.0105537984782 54.974377794133034,181.9194621991046 55.940014679334126,182.4365979842696 56.50210182159208,182.38958569268289 61.83472342696041,185.28865735064028 66.63408287183847,187.38850051854388 67.03763261489803,187.3571597297996 67.5276573029696,186.025171893285 68.01768199109938,185.64907968306215 72.24054180295207,185.91547840140993 74.24387802765705,186.71467253222363 78.9135250550462,186.8400360419182 74.50330286246026,186.79302473457938 71.98111696803244,185.88413739325188 68.00326950027375,185.69609124610724 67.64295722957468,185.86846688741934 66.89350770669989,187.4825228566624 61.73383599118097,185.36701008411183 56.458864349115174,182.49928102330887 55.17615266563371,182.04482856680988 48.315807032748125,181.0418955328787 54.94555281242356,181.93513299914775 55.95442717021797,182.4365979842696 56.57416427572025,182.45226874576474 62.440048041637056,185.57072705462633 66.63408287183847,187.43551169283455 67.03763261489803,187.37283012477565 67.5276573029696,185.77444382786052 69.1995062388014,185.80578485237493 67.67178221128415,185.83712587220361 66.95115766994422,187.5608747729566 61.690598518704064,185.35133953976037 56.516514312359504,182.4836102653062 56.05531460599741,182.49928102330887 54.91672783077229,181.95080379802675 48.315807032748125,181.1045789875934 54.81584039499285,181.9194621991046" stroke="yellow" stroke-linecap="round" stroke-linejoin="round" stroke-width="0.5"><title>2024-12-15 13.0km</title><desc>1734235831000</desc></polyline><polyline fill="none" points="87.6226012792904,181.1325014763861 87.6226012792904,181.30463975500606 88.91791044775164,181.69586259081552 90.65938166307751,182.05578695615986 91.5660980810062,181.99319145864865 92.44402985071065,182.49395491625182 92.94776119396556,182.50960375506838 98.90618336887565,185.6862938931008 103.18070362479193,187.50152383072418 103.45415778248571,187.48587536379637 104.02985074627213,186.09315713960677 104.46162046911195,185.81148266825767 108.433901919052,186.01491426881694 110.72228144994006,186.89123275721795 115.42857142857974,186.98512380702596 110.63592750538373,186.89123275721795 108.54904051177436,186.03056284527702 104.38965884869685,185.74888829000702 103.98667377396487,185.9366713688505 103.29584221751429,187.5328207610146 98.27292110875715,185.48286197432026 93.59541577822529,182.86952672594634 91.46535181236686,182.0401380835392 84.57142857142026,181.03860781042022 88.22707889118465,181.41418222249195 91.46535181236686,181.94624482330983 92.91897654579952,182.41571070472128 97.33742004260421,184.82561904408794 101.7558635394671,186.76604462556134 102.84968017059145,187.45457842646283 103.4397654584609,187.39198453781137 103.97228144988185,186.09315713960677 104.41844349686289,185.7801854815043 108.3619402985205,185.95231995113136 110.50639658857835,186.8442872165906 112.14712153520668,186.85993573132146 110.39125799573958,186.79734166547132 108.33315565029625,185.98361711233156 104.57675906189252,185.74888829000702 103.98667377396487,185.9210227853473 103.26705756934825,187.47022689568985 97.99946695094695,185.3263757488894 92.94776119396556,182.54090142917994 91.43656716414262,182.0401380835392 89.16257995733758,181.75845817690424" stroke="#4DD2FF" stroke-linecap="round" stroke-linejoin="round" stroke-width="0.5"><title>2024-12-13 8.5km</title><desc>1734064159000</desc></polyline><polyline fill="none" points="124.3378770496929,181.48057440923003 127.51541939401068,181.94018023663375 129.70180174097186,182.62166291147878 134.24947702273494,185.18908966127492 139.33645995007828,187.43952466176415 139.7445846548071,187.4553727111488 140.40049935894785,185.94980274749105 140.8086240636767,185.74377655524586 144.8169916998595,185.94980274749105 146.82846345909638,186.77390552121506 151.8571428571595,186.86899409738544 147.3094675753964,186.83729791002406 144.6712328767171,185.93395458592568 140.7065928875818,185.72792837832822 140.28389230038738,185.8705619279499 139.80288818408735,187.23349991222494 139.45306700863875,187.55046098270395 138.4181793643511,186.96408263102057 134.23490114038577,185.33172357216245 130.0078952696058,182.90693408057268 127.76320939336438,182.13036166784877 129.99331938725663,182.84354052050912 132.6752817329252,184.46007040102268 138.4473311289912,186.94823454500875 139.2927323031472,187.5029168522451 139.715432890167,187.40782855942962 140.37134759430774,185.68038384057581 139.68628112558508,187.36028439707297 139.32188406778732,187.4553727111488 134.39523584581912,185.36341998379794 129.14791821315885,182.4156334958534 128.6377623321605,182.43148191951332 127.35508468857734,181.90848331490997 121.0,181.0209675887163" stroke="#4DD2FF" stroke-linecap="round" stroke-linejoin="round" stroke-width="0.5"><title>2024-12-11 6.6km</title><desc>1733890893000</desc></polyline><polyline fill="none" points="161.1701444622595,181.63118773866154 164.47833065816667,182.00816758870496 165.20064205455128,182.4322691142297 165.79293739970308,182.4165616655373 171.22471910115564,185.41666313205496 176.0786516853841,187.52142087918764 176.8731942215818,185.8878793784388 177.29213483148487,185.69939300627448 181.4382022471982,185.95070813177153 183.5617977528018,186.78318734526692 188.24237560201436,186.8931371843355 183.73515248805052,186.78318734526692 181.4815409310395,186.02924404702208 176.98876404494513,185.84075780119747 176.19422150880564,187.56854208084405 171.1235955056618,185.44807758125535 169.66452648479026,184.4585201832233 165.74959871592,182.5108063401567 165.43178170151077,182.5893435368198 164.18940609955462,182.08670497260755 157.57303370785667,181.1442544346355 163.06260032102,181.77255526142835 165.74959871592,182.40085421568074 169.53451043338282,184.27003253318253 171.1091492777341,185.32241975639772 175.96308186202077,187.49000673892442 176.2664526485023,187.3800572110922 176.90208667737897,185.9821225013584 177.29213483148487,185.69939300627448 179.82022471912205,185.95070813177153 181.10593900486128,185.84075780119747 183.63402889249846,186.79889446866582 188.28571428573923,186.87743006799428 183.3884430176695,186.76748022071843 181.40930979140103,185.9821225013584 177.2632423756295,185.71510021042195 176.90208667737897,185.85646499480936 176.39646869979333,187.27010762592545 176.1219903692254,187.50571380965994 171.61476725526154,185.620856968133 168.91332263243385,184.0030080738652 165.72070626006462,182.4322691142297 163.40930979140103,181.8510927331081 157.42857142857974,181.00288649059075 164.8105939005036,182.07099749818735 175.7319422151195,187.4114713677409 176.2664526485023,187.31722888369404 176.90208667737897,185.6836858009774 176.2953451043577,187.3800572110922 175.99197431781795,187.4428855197475 171.2825040128664,185.44807758125535 165.7640449439059,182.38514676464547 160.72231139650103,181.53694267082028" stroke="yellow" stroke-linecap="round" stroke-linejoin="round" stroke-width="0.5"><title>2024-12-09 12.1km</title><desc>1733738831000</desc></polyline><polyline fill="none" points="24.55446344416123,219.16436274653825 30.35653695970541,221.7889546990191 31.02544769074302,220.27112234676315 31.548943045549095,219.9865275722259 35.3006597548374,220.14463582741155 37.583681163261645,221.04585063282866 42.57142857136205,221.21976883898606 38.06355190515751,221.12490438057284 35.5478658946231,220.25531153594784 31.59256765851751,220.04977088845044 31.098155378946103,220.2078790965461 30.385620034998283,221.82057609096228 25.790494142915122,219.90747340051166 19.944796014518943,216.7452823826461 19.42130065971287,216.76109345495934 18.75238992861705,216.3183829853515 14.608051703253295,215.76499359957234 14.084556348447222,215.51201511399995 13.837350208661519,215.7175601564959 12.019658004574012,215.43295927539293 16.323953143903054,215.8756715921627 19.944796014518943,216.6820380816789 23.754678874392994,218.5635479750781 24.8307526591816,219.35409337362216 30.13841389521258,221.7889546990191 30.487410798319615,221.64665837713983 31.098155378946103,220.17625746435078 31.43261074455222,219.92328423721483 32.726807593833655,220.14463582741155 35.518782819388434,220.16044664646324 37.84542884066468,221.06166138475237 42.4696378079243,221.15652587141085 37.7290965396096,221.01422912550333 35.518782819388434,220.19206828101596 31.53440150793176,220.01814923273923 30.938198465039022,220.52409515927138 30.371078497322742,221.82057609096228 24.96162649791222,219.48058036410657 19.930254476843402,216.7452823826461 19.59579911129549,216.80852666476858 17.719940756622236,216.19189411011757 11.714285714260768,215.3222810518928 17.99622997175902,216.19189411011757 19.46492527256487,216.72947130918328 20.017503702663817,216.71366023454175 21.89336205733707,217.74137763673207" stroke="#4DD2FF" stroke-linecap="round" stroke-linejoin="round" stroke-width="0.5"><title>2024-12-06 9.2km</title><desc>1733479157000</desc></polyline><polyline fill="none" points="51.27329192543402,215.78729878737067 55.1971548787551,216.25786273063568 56.033860949683,216.77548185337218 56.4954918854055,216.68136938023963 61.87637747946428,219.69294765315135 66.57924263674067,221.77906776424788 67.05529953917721,221.63790239371883 67.56020837504184,220.28898407972883 68.10839511122322,220.06939190834237 72.00340613099979,220.25761378352763 74.19615307549248,221.08892505295807 79.0,221.24577586779196 74.25385694252327,221.08892505295807 71.9745541975135,220.30466922603955 68.03626527747838,220.05370674445294 67.53135644155554,220.3674097996991 66.81005810457282,221.8104378337448 61.486876377486624,219.55178088393586 60.275095171353314,218.72046354525082 56.509917852061335,216.80685266839282 56.09156481665559,216.83822347872774 55.03846924460959,216.33628995224717 48.14285714284051,215.33241930911026 55.03846924460959,216.32060451024154 57.20236425567418,217.23035821365193 56.56762171909213,216.80685266839282 51.287717892148066,215.80298426913214" stroke="#4DD2FF" stroke-linecap="round" stroke-linejoin="round" stroke-width="0.5"><title>2024-12-03 5.6km</title><desc>1733220329000</desc></polyline><polyline fill="none" points="88.59940059942892,215.94367964444973 91.51968031964498,216.2565115945763 92.51228771224851,216.83524947341357 93.77822177822236,216.99166484248417 95.14485514489934,217.8832302208466 97.01498501497554,218.5870949504024 98.20899100898532,219.50993624283 103.34465534467017,221.7622776202188 103.99200799199753,220.3702083708049 104.5098901099409,220.02609994262457 108.43716283724643,220.24507809853822 110.85394605400506,221.13662966125412 114.23456543462817,221.10534721436852 115.42857142857974,221.19919454107003 115.06893106899224,221.29304182578926 110.71008991007693,221.16791210346855 108.43716283724643,220.3076432440139 104.49550449551316,220.08866515332193 104.06393606396159,220.292001959373 103.40219780226471,221.77791879529832 103.08571428572759,221.80920114199398 97.76303696306422,219.52557758573676 94.88591408589855,217.8832302208466 91.39020979020279,216.3190779286524 84.57142857142026,215.36493930775032 91.63476523483405,216.28779476393538 93.67752247757744,217.2262876775494 91.36143856140552,216.3660026669968 84.60019980015932,215.33365600086108 88.7720279720379,215.9123964237806" stroke="#4DD2FF" stroke-linecap="round" stroke-linejoin="round" stroke-width="0.5"><title>2024-12-02 6.1km</title><desc>1733112856000</desc></polyline><polyline fill="none" points="121.0,214.32164278136042 121.91428571427241,214.70272214750003 124.01714285719208,217.51937547100533 123.83428571431432,217.33712251199177 124.23047619051067,217.32055405374558 124.74857142858673,216.6909517263848 126.63809523812961,216.97261614582385 127.33904761902522,217.43653323542094 128.74095238093287,217.71819671046978 130.2495238094707,218.66259517060826 132.07809523807373,219.35846515389858 133.03809523809468,220.20344720625144 138.52380952384556,222.70523798794602 138.96571428573225,222.70523798794602 139.63619047612883,221.1644032857148 140.07809523807373,220.94901693926658 144.29904761904618,221.1644032857148 146.9047619047342,222.092219008744 151.8571428571595,222.14192331326194 146.93523809523322,222.12535521297832 144.3142857142957,221.1975396281632 140.12380952382227,220.98215331383108 139.66666666662786,221.18097145753563 138.84380952379433,222.8212143615092 133.60190476186108,220.61765292205382 130.05142857145984,218.61289008850872 126.50095238094218,216.9891846299579 122.18857142858906,216.4755610472639" stroke="#4DD2FF" stroke-linecap="round" stroke-linejoin="round" stroke-width="0.5"><title>2024-11-29 4.6km</title><desc>1732853630000</desc></polyline><polyline fill="none" points="160.04183185240254,217.57616389276518 159.82036910462193,217.704588674329 160.76527682848973,217.72064176660206 159.95324675331358,217.62432319483196 160.69145591254346,217.6885355807899 160.6028708133963,217.91327878103766 161.7840054682456,216.38823103473987 164.5596719070454,216.19559265681892 165.44552289816784,216.67718827869976 166.7004784689052,216.9340388368728 171.61695146962302,219.74332182874787 176.5481886534253,221.8783524074097 177.2863978127716,220.32122693052224 177.72932330827462,220.11253915588895 181.92235133296344,220.32122693052224 184.04839371156413,221.18808167718817 188.28571428573923,221.23624017198745 184.1369788107113,221.15597600801266 181.61230348603567,220.27306823123945 177.67026657558745,220.04832749227353 177.3159261791152,220.25701532905805 176.5481886534253,221.86229962481593 171.32166780589614,219.74332182874787 165.91797676013084,216.72534778167028 164.29391660977853,216.2276990650862 157.42857142857974,215.26450473544537 164.44155844161287,216.19559265681892 165.3421736159362,216.66113510863215 166.28708133974578,216.7895604355581 170.09624060156057,218.81224923796253 164.3972658920684,216.25980546858045 160.69145591254346,215.76215567672625" stroke="#4DD2FF" stroke-linecap="round" stroke-linejoin="round" stroke-width="0.5"><title>2024-11-28 6.3km</title><desc>1732767063000</desc></polyline><polyline fill="none" points="11.921380632789806,249.16993377698236 16.47746883990476,249.93928519982728 17.51294343243353,250.48345917735423 17.996164908923674,250.44592997529253 22.74209012463689,252.7727299297403 24.381591562763788,253.86106446535268 30.38734419940738,256.4880594866554 31.23298178333789,254.66793013713323 31.854266538866796,254.3301727285725 36.4276126557379,254.57410868017178 38.53307766059879,255.45602899577352 40.36241610732395,255.75625648380083 42.571428571420256,255.6999638570269 39.240651965432335,255.6436712177092 36.73825503356056,254.66793013713323 32.02684563759249,254.42399427643977 31.31927133264253,254.70545871011564 30.38734419940738,256.54435193729296 23.846596356655937,253.78600706209545 17.996164908923674,250.44592997529253 17.564717162051238,250.53975297001307 16.08053691277746,249.88299127295613 11.714285714260768,249.30128662534116" stroke="#4DD2FF" stroke-linecap="round" stroke-linejoin="round" stroke-width="0.5"><title>2024-11-25 4.0km</title><desc>1732507947000</desc></polyline><polyline fill="none" points="48.14285714284051,247.5794902277994 54.43315753270872,248.387305095006 56.14193992211949,249.38360761111835 57.08300848444924,249.27589936341974 58.81655583588872,249.8413673057512 60.62439807388,251.13386213750346 64.04196285258513,252.61484011646826 66.69181380420923,254.4458590464492 72.68493464798667,256.7884726814809 74.6908965833718,258.0001634316577 75.21096078888513,257.78475203958806 76.32538408623077,255.17287869594293 79.0,255.11902543870383 76.4244439349277,255.25365856674034 74.98807612934615,258.1347954864905 67.08805319888052,254.8497590322513 57.03347855992615,249.46438877581386 56.36482458165847,249.5990240102401 58.742260949336924,250.05678343205363 59.90621417108923,251.13386213750346 61.96170603076462,251.69932717288611 66.64228387980256,254.49971240395098 74.14606741582975,257.8386048996181 75.21096078888513,257.94631059566746 76.32538408623077,255.14595206838567 75.13666590233333,258.1347954864905 67.21187800960615,254.7959057269327" stroke="#4DD2FF" stroke-linecap="round" stroke-linejoin="round" stroke-width="0.5"><title>2024-11-20 4.0km</title><desc>1732095798000</desc></polyline><polyline fill="none" points="86.37402321520494,249.49850209601573 90.92967149685137,250.1577667481033 92.0276155071333,250.71012221956335 92.78142781270435,250.78139380033826 96.99294438958168,252.86607814216404 98.1072756240028,253.7213280000433 104.10499962064205,256.37614661914995 104.38358242926188,256.3405116650538 105.05545861466089,254.77256842702627 105.54707533569308,254.3983986351668 110.1027236172813,254.64784522814443 112.49525832635118,255.6099939353153 115.42857142852154,255.71689910827263 112.44609665422468,255.62781146747875 109.84052803274244,254.630027622974 105.64539867988788,254.41621625758125 104.95713527040789,254.87947397431708 104.3180335330544,256.4117815680074 98.22198619222036,253.89950466882146 93.5352401182754,251.2802942712442 90.89689704880584,250.2290384935477 84.57142857142026,249.30250414628244" stroke="#4DD2FF" stroke-linecap="round" stroke-linejoin="round" stroke-width="0.5"><title>2024-11-19 4.1km</title><desc>1731989484000</desc></polyline></svg>