<?xml version="1.0" encoding="utf-8" ?>
<svg baseProfile="full" height="300mm" version="1.1" viewBox="0,0,200,300" width="200mm" xmlns="http://www.w3.org/2000/svg" xmlns:ev="http://www.w3.org/2001/xml-events" xmlns:xlink="http://www.w3.org/1999/xlink"><defs /><rect fill="#222222" height="300" width="200" x="0" y="0" /><text fill="#FFFFFF" style="font-size:12px; font-family:Arial; font-weight:bold;" x="10" y="20">Over 4km Runs</text><text fill="#FFFFFF" style="font-size:4px; font-family:Arial" x="10" y="280">ATHLETE</text><text fill="#FFFFFF" style="font-size:9px; font-family:Arial" x="10" y="290">Fake David</text><text fill="#FFFFFF" style="font-size:4px; font-family:Arial" x="65" y="280">SPECIAL TRACKS</text><rect fill="yellow" height="2.6" width="2.6" x="65" y="283" /><text fill="#FFFFFF" style="font-size:3px; font-family:Arial" x="70" y="285.5">Over 10.0 km</text><rect fill="red" height="2.6" width="2.6" x="65" y="287" /><text fill="#FFFFFF" style="font-size:3px; font-family:Arial" x="70" y="289.5">Over 15.0 km</text><text fill="#FFFFFF" style="font-size:4px; font-family:Arial" x="120" y="280">STATISTICS</text><text fill="#FFFFFF" style="font-size:3px; font-family:Arial" x="120" y="285">Number: 3</text><text fill="#FFFFFF" style="font-size:3px; font-family:Arial" x="120" y="290">Weekly: 1.5</text><text fill="#FFFFFF" style="font-size:3px; font-family:Arial" x="141" y="285">Total: 12.1 km</text><text fill="#FFFFFF" style="font-size:3px; font-family:Arial" x="141" y="290">Avg: 4.0 km</text><text fill="#FFFFFF" style="font-size:3px; font-family:Arial" x="167" y="285">Min: 4.0 km</text><text fill="#FFFFFF" style="font-size:3px; font-family:Arial" x="167" y="290">Max: 4.1 km</text><polyline fill="none" points="15.043624161276966,65.32107616460416 27.003355704946443,67.3406236495357 29.721476510399953,68.76908034051303 30.989932886091992,68.67056618514471 43.44798657740466,74.7784160655574 47.751677852356806,77.63529422151623 63.516778523568064,84.5311561524868 65.73657718137838,79.75331660994561 67.36744966451079,78.86670341249555 79.37248322134838,79.50703528546728 84.89932885905728,81.82207611389458 89.70134228188545,82.61017326993169 95.5,82.46240512467921 86.75671140942723,82.31463694648119 80.18791946326382,79.75331660994561 67.82046979875304,79.1129849756253 65.96308724838309,79.8518291140208 63.516778523568064,84.67892383539584 46.34731543646194,77.43826853798237 30.989932886091992,68.67056618514471 29.85738255060278,68.91685154626612 25.961409396259114,67.19285209150985 14.5,65.66587739152601" stroke="#4DD2FF" stroke-linecap="round" stroke-linejoin="round" stroke-width="0.5"><title>2024-11-25 4.0km</title><desc>1732507947000</desc></polyline><polyline fill="none" points="104.5,61.14616184798069 121.01203852333128,63.26667587435804 125.49759229552001,65.88196997914929 127.96789727173746,65.5992358289659 132.51845906907693,67.0835891776369 137.2640449439641,70.47638811089564 146.23515248810872,74.36395530577283 153.19101123604923,79.17037999694003 168.9229534510523,85.3197407888365 174.1886035313364,88.50042900809785 175.55377207091078,87.93497410387499 178.47913322644308,81.07880657684291 185.5,80.93744177662302 178.73916532914154,81.29085373773705 174.96869983966462,88.8538381520193 154.2311396470759,80.2306174596888 127.83788121980615,66.09402053651866 126.08266452676617,66.44743802689482 132.32343499199487,67.64905650907895 135.37881219922565,70.47638811089564 140.77447833074257,71.96073382883333 153.0609951845836,79.31174506037496 172.75842696637847,88.07633786147926 175.55377207091078,88.3590653136489 178.47913322644308,81.00812417955603 175.35874799382873,88.8538381520193 154.55617977539077,80.0892525332165" stroke="#4DD2FF" stroke-linecap="round" stroke-linejoin="round" stroke-width="0.5"><title>2024-11-20 4.0km</title><desc>1732095798000</desc></polyline><polyline fill="none" points="19.231810939963907,216.18356800207403 31.19038767926395,217.91413771378575 34.07249070634134,219.3640708263847 36.0512480083853,219.55115872592432 47.10647902288474,225.02345512324246 50.031598513014615,227.26848600013182 65.77562400419265,234.237384875305 66.50690387678333,234.14384312083712 68.27057886356488,230.02799212100217 69.56107275630347,229.04579641734017 81.51964949560352,229.70059372391552 87.80005310685374,232.22623408021173 95.5,232.5068601592211 87.67100371746346,232.273005102179 80.83138608606532,229.6538225103286 69.8191715348512,229.09256767615443 68.01248008501716,230.30861918261508 66.33483802434057,234.33092661603587 50.332713754614815,227.73619975568727 38.03000531066209,220.86077246209607 31.104354753158987,218.10122604557546 14.5,215.66907338402234" stroke="#4DD2FF" stroke-linecap="round" stroke-linejoin="round" stroke-width="0.5"><title>2024-11-19 4.1km</title><desc>1731989484000</desc></polyline></svg>