<?xml version="1.0" encoding="utf-8" ?>
<svg baseProfile="full" height="300mm" version="1.1" viewBox="0,0,200,300" width="200mm" xmlns="http://www.w3.org/2000/svg" xmlns:ev="http://www.w3.org/2001/xml-events" xmlns:xlink="http://www.w3.org/1999/xlink"><defs /><rect fill="#222222" height="300" width="200" x="0" y="0" /><text fill="#FFFFFF" style="font-size:12px; font-family:Arial; font-weight:bold;" x="10" y="20">Over 4km Runs</text><text fill="#FFFFFF" style="font-size:4px; font-family:Arial" x="10" y="280">ATHLETE</text><text fill="#FFFFFF" style="font-size:9px; font-family:Arial" x="10" y="290">Fake David</text><text fill="#FFFFFF" style="font-size:4px; font-family:Arial" x="65" y="280">SPECIAL TRACKS</text><rect fill="yellow" height="2.6" width="2.6" x="65" y="283" /><text fill="#FFFFFF" style="font-size:3px; font-family:Arial" x="70" y="285.5">Over 10.0 km</text><rect fill="red" height="2.6" width="2.6" x="65" y="287" /><text fill="#FFFFFF" style="font-size:3px; font-family:Arial" x="70" y="289.5">Over 15.0 km</text><text fill="#FFFFFF" style="font-size:4px; font-family:Arial" x="120" y="280">STATISTICS</text><text fill="#FFFFFF" style="font-size:3px; font-family:Arial" x="120" y="285">Number: 18</text><text fill="#FFFFFF" style="font-size:3px; font-family:Arial" x="120" y="290">Weekly: 2.6</text><text fill="#FFFFFF" style="font-size:3px; font-family:Arial" x="141" y="285">Total: 135.4 km</text><text fill="#FFFFFF" style="font-size:3px; font-family:Arial" x="141" y="290">Avg: 7.5 km</text><text fill="#FFFFFF" style="font-size:3px; font-family:Arial" x="167" y="285">Min: 4.0 km</text><text fill="#FFFFFF" style="font-size:3px; font-family:Arial" x="167" y="290">Max: 13.0 km</text><polyline fill="none" points="16.92453271022532,48.7343586190982 21.428738317801617,49.47515111057146 22.753504672902636,50.174786639166996 24.021495327120647,50.40113893074158 30.910280373878777,54.187367940772674 36.72032710281201,56.697773778345436 37.21238317748066,56.18334821124154 37.76121495326515,54.804682967063854 38.42359813081566,54.47544845804805 43.28738317755051,54.640065761632286 46.84532710281201,55.93642359877413 52.75,55.97757771615579 50.44112149521243,56.12161707881023 46.50467289716471,55.874692411132855 43.55233644857071,54.72237437663716 38.44252336455975,54.434294116843375 37.855841121519916,54.660642917689984 36.98528037383221,56.61546575195098 36.663551401929,56.759504781948635 27.39018691587262,52.68522894680791 23.132009345688857,50.174786639166996 22.526401869254187,50.21594161511166 21.220560747664422,49.557461264761514 12.25,48.21991821985284 20.539252336486243,49.37226338336768 22.677803738275543,50.13363165713963 23.132009345688857,50.01016667425574 29.207009345758706,53.42601084151829 36.663551401929,56.78008178014716 37.912616822402924,54.59891144494759 38.42359813081566,54.393139769512345 39.861915887799114,54.578334284276934 37.874766355147585,54.55775712210743 36.98528037383221,56.57431172957877 36.644626168184914,56.67719677402056 29.77476635517087,53.775823823409155 23.415887850453146,50.236519100741134 22.56425233639311,50.174786639166996 21.05023364489898,49.49572865142545 19.422663551406004,49.557461264761514 12.817757009295747,48.28165111839189 16.981308411224745,49.06359997171967" stroke="#4DD2FF" stroke-linecap="round" stroke-linejoin="round" stroke-width="0.5"><title>2024-12-31 8.0km</title><desc>1735619151000</desc></polyline><polyline fill="none" points="62.88971962616779,49.02244508321746 64.27126168226823,49.06360022771696 68.22663551417645,49.98958935875271 70.53551401873119,51.22423670407443 71.1978971962817,51.90329039139033 81.7960280374391,56.697773465595674 82.79906542063691,54.742951359425206 83.36682242993265,54.43429397275031 88.60911214968655,54.722374211021815 91.22079439251684,55.77180682399194 97.73107476637233,55.93642334268952 91.46682243002579,55.874692159719416 88.5712616823148,54.742951359425206 83.38574766367674,54.43429397275031 82.83691588800866,54.68121990964573 81.70140186930075,56.78008146128559 75.30467289732769,54.04332745443389 69.51355140202213,50.85384307996719 66.14485981315374,49.516306413002894 57.25,48.21991853869986 64.40373831777833,49.14591049840965 68.16985981317703,50.010166859749006 75.30467289732769,53.87870980751177 81.5310747664189,56.759504464644124 82.00420560745988,56.57431142605492 82.79906542063691,54.722374211021815 83.44252336455975,54.37256245400931 88.49556074780412,54.68121990964573 91.56144859816413,55.812960962881334 97.75,55.83353803001228 91.788551401929,55.854115095644374 88.47663551406004,54.722374211021815 83.34789719630498,54.393139628416975 82.79906542063691,54.68121990964573 81.96635514032096,56.553734414090286 81.663551401929,56.697773465595674 74.81261682254262,53.81697816461383 68.3212616823148,50.17478681236389 65.48247663560323,49.47515133590787 57.55280373839196,48.32280668753083 65.89883177576121,49.454573795053875 67.63995327113662,50.15420932366396 68.37803738331422,50.07189935348288 74.39626168226823,53.40543352601526 68.28341121505946,50.1130543416366 62.56799065426458,49.04302265620208" stroke="yellow" stroke-linecap="round" stroke-linejoin="round" stroke-width="0.5"><title>2024-12-30 10.8km</title><desc>1735533491000</desc></polyline><polyline fill="none" points="107.93586753727868,48.94677605056495 111.63829291041475,49.562951075829915 112.67723880591802,50.15858562439098 113.20615671644919,50.096968316982384 114.28288246272132,50.548828251470695 118.9109141791705,53.17781681672204 126.42910447751638,56.62832626316231 126.97691231337376,56.64886488058255 127.77028917905409,54.69768939449568 128.3936567164492,54.34853021934396 133.36170708946884,54.67715063171636 136.32742537301965,55.82731899054488 142.75,55.9300123606954 136.572994402959,55.82731899054488 133.55060634331312,54.71822815577616 128.31809701491147,54.3896077923273 127.80806902982295,54.69768939449568 127.1469216417754,56.36132409752463 126.63689365668688,56.731019334940356 119.57206156710163,53.75290472342749 114.54734141787048,50.87745319324313 111.6760727611836,49.70672505021503 102.25,48.22790344704117 111.35494402982295,49.54241193050984 114.9818097014213,50.87745319324313 118.79757462686393,53.17781681672204 126.58022388047539,56.77209655294428 126.95802238804754,56.66940349644574 127.82695895514917,54.71822815577616 128.3558768655639,54.47176291987125 133.51282649254426,54.75930567366595 136.3463152984623,55.847857667613425 142.6933302237885,55.90947368968045 140.76655783585738,56.07378301458084 136.44076492532622,55.847857667613425 133.49393656710163,54.67715063171636 128.37476679100655,54.3896077923273 127.8458488805918,54.61553433422523 126.97691231337376,56.60778764418501 126.41021455219015,56.68994211083918 120.28987873136066,54.01990941520489 118.2875466417754,52.78757791110547 111.63829291041475,49.624568502622424 103.21338619396556,48.43329581076978" stroke="#4DD2FF" stroke-linecap="round" stroke-linejoin="round" stroke-width="0.5"><title>2024-12-27 9.1km</title><desc>1735273142000</desc></polyline><polyline fill="none" points="179.82032710278872,54.93843435867166 178.34415887854993,54.52689149833168 176.77336448593996,54.712085861378 173.08294392528478,54.36227418256749 171.77710280381143,56.70806167108822 164.90724299068097,53.909576058140374 158.09415887843352,50.1644994791568 157.54532710276544,50.22623192232277 156.06915887852665,49.56775181731791 147.25,48.168476381353685 153.4196261682082,49.15620095444319 154.0252336448757,49.05331314289651 158.35911214957014,50.14392199505528 163.18504672893323,52.572054537944496 163.90420560748316,53.23052748038026 171.36074766353704,56.64633067660907 171.90957943920512,56.60517667265958 172.6665887850104,54.712085861378 173.2721962616779,54.34169701115752 178.4955607476877,54.670931569242384 181.69392523367424,55.8644035525067 187.75,56.02901997312438 181.06939252337907,55.74094117269851 178.72266355145257,54.73266300513933 173.2532710279338,54.36227418256749 172.85584112151992,54.48573717859108 172.0042056075763,56.66690767626278 171.62570093455724,56.831523618646315 169.99813084118068,55.8644035525067 164.6801401869161,53.76553559023887 158.4537383178249,50.123344509425806 154.17663551401347,49.15620095444319 149.69135514018126,48.55945111393521" stroke="#4DD2FF" stroke-linecap="round" stroke-linejoin="round" stroke-width="0.5"><title>2024-12-25 6.6km</title><desc>1735101299000</desc></polyline><polyline fill="none" points="16.455332086072303,97.27486720118031 16.30378858745098,97.64561048790347 16.550046772579663,97.56322313382407 16.909962581819855,96.96591408236418 18.065481758560054,97.76919147299486 19.35360149666667,97.83098194478953 23.312675397610292,98.8402243629098 30.321562207653187,102.67119265752262 36.76216089806985,105.45170091437467 37.02736202056985,105.43110465972859 37.822965388186276,103.47445347069879 38.410196445300244,103.16550728029688 43.48690364824142,103.45385706872912 46.7640318054473,104.68963847016857 52.75,104.79262000432936 46.47988774557598,104.62784953130176 43.29747427511029,103.43326066527516 38.239710009424016,103.18610370370152 37.822965388186276,103.3920678536524 36.970533208572306,105.32812336338975 36.629560336703435,105.38991214577982 29.63961646403186,102.50642092015187 24.392422825098038,99.45812606564141 21.418381665134802,98.26351486086787 12.25,96.98651096770482 15.356641721213236,97.46023890668584 16.8341908325674,97.41904520508251 22.04349859675858,98.44888590347546 24.411365762352943,99.3757392517582 30.90879326465074,102.95954296154378 36.45907390082721,105.43110465972859 37.046304957941175,105.36931588654988 37.99345182417892,103.26848938209878 39.92563143116422,103.26848938209878 38.05028063617647,103.20670012562186 36.951590271200985,105.53408591763582 30.13213283440564,102.7123855764803 26.457202993449755,100.54974903205584 21.60781103838235,98.40769234918116 12.306828811881132,97.00710785150295 20.09237605240196,98.11933729737939" stroke="#4DD2FF" stroke-linecap="round" stroke-linejoin="round" stroke-width="0.5"><title>2024-12-18 8.3km</title><desc>1734495982000</desc></polyline><polyline fill="none" points="61.51912313431967,95.59149752168742 60.820195895503275,95.75581313892326 61.06576492532622,95.55041860202618 60.820195895503275,95.71473424379656 60.66907649242785,95.48880021108198 60.74463619396556,95.694194793934 62.27472014923114,96.76224415759498 65.6182369402377,98.24107490615279 66.41161380603444,99.49396697136399 67.29944029846229,100.19229778213776 68.28171641787048,100.33607155297068 75.21431902982295,104.07416327677493 81.48577425372787,106.88796811657085 81.9391324626049,106.90850673244859 82.82695895526558,104.93679263049853 83.37476679100655,104.62871102831559 88.62616604473442,104.95733139176446 91.93190298508853,106.10749957920052 97.75,106.21019293401332 91.421875,106.10749957920052 88.62616604473442,104.97787015145877 83.28031716425903,104.64924981247168 82.73250932828523,104.95733139176446 81.78801305964589,106.99066118066548 72.51305970153771,103.10883675208606 71.87080223869998,102.47213017303147 69.5473414179869,101.15763451938983 66.75163246272132,100.04852393628971 57.25,98.50808516799589 66.27938432828523,99.69935856990924 67.8661380597623,100.39768886037928 68.20615671644919,100.2949933403579 75.28987873136066,104.15631856958498 80.16347947751638,106.08696090361627 81.5046641791705,106.90850673244859 82.01469216414262,106.78527501416102 82.95918843278196,104.81356003093242 84.92374067159835,104.75194371053658 83.07252798497211,104.87517633760581 82.09025186568033,107.01119978893257 81.24020522378851,106.94958395966387 74.83652052236721,104.19739620685868 73.07975746272132,103.04722005063377 66.69496268650983,99.94582828620332 57.40111940295901,98.65185981724062 66.41161380603444,99.74043687125959" stroke="#4DD2FF" stroke-linecap="round" stroke-linejoin="round" stroke-width="0.5"><title>2024-12-17 8.6km</title><desc>1734409492000</desc></polyline><polyline fill="none" points="107.24392807111144,97.52725567176822 111.29203643160872,98.16486206138507 112.76751517993398,98.86417060176609 113.25934142933693,98.72019545886724 120.2773236805806,102.58693036828481 126.65214852883946,105.34297432085441 126.99264362454414,105.30183953874803 127.86279775807634,103.26566016378638 128.33570761338342,102.99828195870214 133.82146193366498,103.38906540184689 136.56433909398038,104.43800769853988 142.75,104.54084496412543 142.14467538532335,104.7465193803364 136.5454226997681,104.54084496412543 133.31071929004975,103.34793032862945 128.44920597865712,103.1422548705159 127.71146660449449,103.59474067611154 126.89806165348273,105.34297432085441 126.57648295199033,105.4458112493594 120.84481550683267,103.01884952209366 113.14584306406323,98.90530634309107 112.14327417104505,98.78189910072251 111.08395609539002,98.16486206138507 102.25,96.95135186050902 111.216370854876,98.14429413630569 112.48376926674973,98.82303485434386 113.22150864091236,98.76133122164174 120.22057449794374,102.56636277270445 126.51973376935348,105.32240693057247 127.049392807181,105.28127214536653 127.69255021016579,103.53303810993384 128.33570761338342,103.03941708401544 133.87821111641824,103.38906540184689 136.50758991134353,104.43800769853988 142.6365016347263,104.60254730502493 136.8480850070482,104.54084496412543 133.53771602059714,103.34793032862945 128.31679121917114,103.10111976049666 127.84388136386406,103.32736278974335 126.86022886517458,105.4458112493594 120.08815973845776,102.6692007353995 113.16475945827551,98.90530634309107 111.48120037373155,98.30883749392524 102.4769967305474,96.99248788689147 111.17853806633502,98.16486206138507 112.50268566096202,98.82303485434386 113.31609061197378,98.84360272881167 121.01506305474322,102.93657925919979 126.51973376935348,105.38410909684899 127.049392807181,105.30183953874803 127.69255021016579,103.2039575240633 129.8868519384414,103.24509261873027 127.88171415240504,103.28622770725633 126.9358944419073,105.54864813950553 120.03141055593733,102.64863314591639 113.24042503500823,98.88473847322166 112.635100420448,98.90530634309107 111.14070527791046,98.18542998489283 102.4769967305474,97.07475992120453 111.00829051854089,98.14429413630569" stroke="yellow" stroke-linecap="round" stroke-linejoin="round" stroke-width="0.5"><title>2024-12-15 13.0km</title><desc>1734235831000</desc></polyline><polyline fill="none" points="151.2546641790541,97.11140818776039 151.2546641790541,97.3373396784591 152.9547574626049,97.85081965045538 155.24043843278196,98.32322037997073 156.43050373136066,98.24106378949364 157.5827891790541,98.89831582759507 158.24393656710163,98.9188549285318 166.06436567159835,103.08826073470118 171.67467350745574,105.47075002783095 172.03358208958525,105.45021141500911 172.78917910449672,103.62226874574844 173.35587686568033,103.25257100210001 178.56949626875576,103.51957497782132 181.57299440307543,104.66974299385038 187.75,104.79297499672975 181.45965485076886,104.66974299385038 178.72061567171477,103.54011373444519 173.2614272389328,103.17041588063876 172.73250932828523,103.41688117162266 171.82579291041475,105.51182724883256 165.23320895526558,102.8212563413108 159.09398320887703,99.39125382780912 156.29827425372787,98.30268123465066 147.25,96.98817275118199 152.048041044618,97.48111416703614 156.29827425372787,98.17944633061416 158.20615671633277,98.79562029996305 164.00536380591802,101.95862499537179 169.80457089550328,104.50543357105926 171.24020522390492,105.40913418475247 172.01469216414262,105.32697970588924 172.713619402959,103.62226874574844 173.29920708958525,103.2114934444835 178.4750466417754,103.43741993587173 181.28964552248362,104.60812697178335 183.44309701491147,104.6286656473676 181.1385261194082,104.54651093593566 178.43726679100655,103.47849745993153 173.50699626875576,103.17041588063876 172.73250932828523,103.39634240577288 171.7880130597623,105.42967280061566 164.87430037313607,102.61586817042553 158.24393656710163,98.95993312580686 156.260494402959,98.30268123465066 153.27588619396556,97.93297635720228" stroke="#4DD2FF" stroke-linecap="round" stroke-linejoin="round" stroke-width="0.5"><title>2024-12-13 8.5km</title><desc>1734064159000</desc></polyline><polyline fill="none" points="16.630963627714664,146.3182539121044 20.80148795468267,146.92148656057543 23.67111478501465,147.81593257132045 29.63993859232869,151.1856801804097 36.31660368444864,154.1393761185609 36.852267359383404,154.16017668337736 37.7131554086227,152.1841161060729 38.248819083557464,151.913706728752 43.509801606065594,152.1841161060729 46.14985828998033,153.26575099659385 52.75,153.39055475281202 46.78117619268596,153.3489535069093 43.31849315064028,152.16331539402017 38.114903164911084,151.89290599655942 37.56010864430573,152.08011253042787 36.928790741600096,153.86896863479342 36.469650448765606,154.2849800397962 35.11136041569989,153.51535845320905 29.620807746774517,151.37288718846685 24.07286254130304,148.19035098075983 21.126712328754365,147.17109968904697 24.053731695748866,148.1071469331655 27.573807274457067,150.22884240133862 35.14962210680824,153.49455784031306 36.25921114778612,154.2225783685717 36.814005668391474,154.09777498424228 37.67489371751435,151.8305037907412 36.77574397728313,154.0353732711519 36.297472838894464,154.16017668337736 29.83124704763759,151.41448872874025 22.944142654770985,147.54551896330668 22.274563060957007,147.56632001936669 20.591048653703183,146.87988435081206 12.25,145.71501996018924" stroke="#4DD2FF" stroke-linecap="round" stroke-linejoin="round" stroke-width="0.5"><title>2024-12-11 6.6km</title><desc>1733890893000</desc></polyline><polyline fill="none" points="62.160814606701024,146.51593390700873 66.50280898879282,147.01071996017708 67.45084269659128,147.56735321243468 68.22823033714667,147.54673718601407 75.35744382021949,151.48437036082032 81.72823033703025,154.2468649039365 82.77106741571333,152.1028416842164 83.32092696626205,151.8554533207498 88.76264044945128,152.18530442295014 91.54985955054872,153.27793339066557 97.69311797758564,153.42224255444307 91.77738764055539,153.27793339066557 88.81952247198205,152.28838281173375 82.92275280901231,152.04099461407168 81.87991573032923,154.308711481106 75.22471910109743,151.52560182540037 73.30969101120718,150.2268077404733 68.1713483146159,147.6704333214584 67.75421348318923,147.77351339207962 66.12359550560359,147.11380027655105 57.43960674153641,145.87683394546912 64.64466292131692,146.70147878062562 68.1713483146159,147.52612115808006 73.1390449438477,149.9794176997966 75.20575842703693,151.36067593027838 81.5765449438477,154.20563384484558 81.97471910109743,154.06132508956944 82.80898876406718,152.22653578304744 83.32092696626205,151.8554533207498 86.63904494373128,152.18530442295014 88.3265449438477,152.04099461407168 91.64466292131692,153.29854899011843 97.75,153.40162696424522 91.32233146065846,153.2573177896993 88.72471910121385,152.22653578304744 83.28300561802462,151.87606902618427 82.80898876406718,152.06161030568182 82.14536516845692,153.9170162590308 81.78511235956103,154.22624937517685 75.86938202241436,151.75237477067276 72.32373595505487,149.62894809694262 68.13342696637847,147.56735321243468 65.09971910109743,146.8045592122071 57.25,145.69128851890855 66.93890449439641,147.09318421637 81.27317415724974,154.10255617015355 81.97471910109743,153.97886290986207 82.80898876406718,151.83483761378739 82.01264044945128,154.06132508956944 81.61446629208513,154.1437872446695 75.43328651681077,151.52560182540037 68.19030898879282,147.505505128589 61.57303370779846,146.39223725545162" stroke="yellow" stroke-linecap="round" stroke-linejoin="round" stroke-width="0.5"><title>2024-12-09 12.1km</title><desc>1733738831000</desc></polyline><polyline fill="none" points="119.10273327049799,150.7782261048269 126.71795475971885,154.22300304246892 127.59590009425301,152.23084808012936 128.2829877473414,151.85731743855285 133.2071159282932,152.06483452346583 136.2035815268755,153.2476789555949 142.75,153.47594660117466 136.83341187553015,153.3514369994955 133.53157398675103,152.21009639093245 128.34024505189154,151.9403242910921 127.6913289349759,152.1478413142031 126.756126296008,154.26450611939072 120.72502356267069,151.75355883817247 113.05254476913251,147.60318312722666 112.36545711592771,147.6239351596305 111.48751178139355,147.04287766826747 106.04806786053814,146.31655409943778 105.36098020733334,145.98451983711857 105.03652214899193,146.2542977053963 102.65080113103613,145.8807590489596 108.3001885014819,146.46181896471535 113.05254476913251,147.52017498220084 118.05301602266263,149.9896567172982 119.46536286524497,151.02724755287636 126.43166823755018,154.22300304246892 126.88972667290363,154.0362391200033 127.6913289349759,152.10633792195586 128.1303016023012,151.77431056133355 129.82893496693578,152.06483452346583 133.49340245046187,152.08558622347482 136.5471253534779,153.26843056749203 142.61639962298796,153.39294020622037 136.39443920832127,153.20617572721676 133.49340245046187,152.12708961883618 128.26390197919682,151.8988208679657 127.48138548538554,152.56287489653914 126.73704052774701,154.26450611939072 119.63713477854617,151.19326172789442 113.03345900098793,147.60318312722666 112.59448633366264,147.68619124749966 110.13242224312853,146.87686101952568 102.25,145.73549388059473 110.49505183799192,146.87686101952568 112.42271442036144,147.58243109329487 113.1479736098554,147.56167905783514 115.61003770038951,148.91055814819993" stroke="#4DD2FF" stroke-linecap="round" stroke-linejoin="round" stroke-width="0.5"><title>2024-12-06 9.2km</title><desc>1733479157000</desc></polyline><polyline fill="none" points="151.35869565210305,146.34582965842856 156.50876577827148,146.96344483396388 157.6069424963789,147.6428199325601 158.21283309953287,147.51929731157725 165.27524544170592,151.47199379475205 171.44775596063118,154.21002644057444 172.0725806450937,154.02474689175142 172.7352734921733,152.25429160463682 173.45476858341135,151.9660768797039 178.5669705469627,152.21311809087638 181.44495091156568,153.30421413200384 187.75,153.51008082648332 181.5206872370327,153.30421413200384 178.5291023842292,152.27487835918146 173.3600981766358,151.94549010209448 172.6974053294398,152.35722536209505 171.75070126226638,154.25119965679187 164.76402524544392,151.28671241016127 163.17356241226662,150.1956084031408 158.23176718084142,147.6839941272774 157.6826788218459,147.72516831583926 156.30049088352825,147.06638056231895 147.25,145.74880034320813 156.30049088352825,147.0457934196893 159.14060308551416,148.2398451554036 158.30750350630842,147.6839941272774 151.3776297334116,146.36641685322684" stroke="#4DD2FF" stroke-linecap="round" stroke-linejoin="round" stroke-width="0.5"><title>2024-12-03 5.6km</title><desc>1733220329000</desc></polyline><polyline fill="none" points="17.536713286768645,195.3010795333248 21.369580419617705,195.71167146788503 22.67237762233708,196.47126493384712 24.33391608390957,196.67656010575593 26.127622377709486,197.84673966484843 28.582167832180858,198.77056212238676 30.14930069935508,199.9817913187144 36.889860139926895,202.93798937654356 37.739510489511304,201.11089848667325 38.41923076938838,200.6592561746802 43.5737762239296,200.94666500433232 46.74580419587437,202.11682643038512 51.18286713294219,202.0757682188705 52.75,202.19894283515168 52.27797202800866,202.3221173963393 46.55699300696142,202.15788463580247 43.5737762239296,201.02878175776277 38.40034965041559,200.74137301373412 37.83391608402599,201.00825257167162 36.96538461546879,202.95851841883268 36.550000000046566,202.99957649887074 29.56398601399269,200.00232058127585 25.78776223771274,197.84673966484843 21.19965034967754,195.79378978135355 12.25,194.54148284142138 21.5206293707015,195.7527306276752 24.201748251798563,196.98450257678633 21.161888111848384,195.85537850041874 12.287762237712741,194.50042350112926 17.76328671327792,195.26002030620293" stroke="#4DD2FF" stroke-linecap="round" stroke-linejoin="round" stroke-width="0.5"><title>2024-12-02 6.1km</title><desc>1733112856000</desc></polyline><polyline fill="none" points="57.25,193.172156150511 58.449999999953434,193.67232281857287 61.20999999996275,197.3691803056863 60.96999999997206,197.12997329697828 61.48999999999069,197.10822719553835 62.17000000004191,196.28187414087006 64.65000000002328,196.6515586913738 65.56999999994878,197.26044987147907 67.40999999991618,197.63013318247977 69.38999999989755,198.86965616140515 71.78999999992084,199.78298551446642 73.04999999993015,200.89202445818228 80.25,204.17562485917006 80.82999999995809,204.17562485917006 81.70999999996275,202.15327931247884 82.28999999992084,201.87058473276556 87.82999999995809,202.15327931247884 91.25,203.37103744896012 97.75,203.43627434864175 91.29000000003725,203.41452871702495 87.84999999997672,202.19677076194785 82.34999999997672,201.91407622440602 81.75,202.1750250380137 80.6699999999255,204.3278438494599 73.78999999992084,201.43566946018836 69.13000000000466,198.8044182411395 64.46999999997206,196.673304826807 58.81000000005588,195.99917387450114" stroke="#4DD2FF" stroke-linecap="round" stroke-linejoin="round" stroke-width="0.5"><title>2024-11-29 4.6km</title><desc>1732853630000</desc></polyline><polyline fill="none" points="105.67990430630744,197.44371510925703 105.38923444983084,197.61227263504406 106.62942583742552,197.63334231865883 105.5636363637168,197.5069241932215 106.53253588522784,197.59120294978493 106.4162679426372,197.88617840012012 107.96650717710145,195.88455323310336 111.60956937796436,195.6317153620621 112.77224880387075,196.2638096157898 114.41937799041625,196.60092597339826 120.87224880384747,200.28810990024067 127.34449760767166,203.09033753472613 128.31339712929912,201.0466103462968 128.8947368421359,200.7727076420997 134.39808612444904,201.0466103462968 137.18851674639154,202.1843572013022 142.75,202.24756522572716 137.30478468898218,202.14221851051843 133.9911483253818,200.98340205350542 128.8172248804476,200.6884298336081 128.35215311008506,200.96233261939778 127.34449760767166,203.06926825757546 120.48468899528962,200.28810990024067 113.39234449760988,196.32701896343497 111.26076555030886,195.67385502292018 102.25,194.40966246527387 111.45454545458779,195.6317153620621 112.63660287088715,196.2427398300788 113.87679425836541,196.41129807165998 118.87631578953005,199.0660771248222 111.39641148329247,195.7159946775064 106.53253588522784,195.0628293257032" stroke="#4DD2FF" stroke-linecap="round" stroke-linejoin="round" stroke-width="0.5"><title>2024-11-28 6.3km</title><desc>1732767063000</desc></polyline><polyline fill="none" points="147.52181208063848,193.91053808230208 153.50167785247322,194.92031182476785 154.86073825519998,195.6345401702565 155.494966443046,195.58528309257235 161.72399328870233,198.6392080327787 163.8758389261784,200.06764711075812 171.75838926178403,203.5155780762434 172.8682885906892,201.1266583049728 173.6837248322554,200.68335170624778 179.6862416106742,201.00351764273364 182.44966442952864,202.1610380569473 184.85067114094272,202.55508663496585 187.75,202.4812025623396 183.3783557047136,202.4073184732406 180.0939597316319,201.1266583049728 173.91023489937652,200.80649248781265 172.98154362419154,201.1759145570104 171.75838926178403,203.58946191769792 163.17365771823097,199.96913426899118 155.494966443046,195.58528309257235 154.9286912753014,195.70842577313306 152.98070469812956,194.84642604575492 147.25,194.082938695763" stroke="#4DD2FF" stroke-linecap="round" stroke-linejoin="round" stroke-width="0.5"><title>2024-11-25 4.0km</title><desc>1732507947000</desc></polyline><polyline fill="none" points="12.25,240.57308092399035 20.506019261665642,241.63333793717902 22.748796147760004,242.94098498957464 23.983948635868728,242.79961791448295 26.259229534538463,243.54179458881845 28.632022471982054,245.23819405544782 33.11757624405436,247.18197765288642 36.59550561802462,249.58518999847 44.461476725526154,252.65987039441825 47.094301765668206,254.25021450404893 47.77688603545539,253.9674870519375 49.23956661322154,250.53940328842145 52.75,250.4687208883115 49.36958266457077,250.64542686886853 47.48434991983231,254.42691907600965 37.11556982353795,250.1153087298444 23.918940609903075,243.04701026825933 23.041332263383083,243.2237190134474 26.161717495997436,243.82452825453947 27.689406099612825,245.23819405544782 30.387239165371284,245.98036691441666 36.530497592291795,249.65587253018748 46.37921348318923,254.03816893073963 47.77688603545539,254.17953265682445 49.23956661322154,250.50406208977802 47.679373996914364,254.42691907600965 37.27808988769539,250.04462626660825" stroke="#4DD2FF" stroke-linecap="round" stroke-linejoin="round" stroke-width="0.5"><title>2024-11-20 4.0km</title><desc>1732095798000</desc></polyline><polyline fill="none" points="59.61590546998195,243.091784001037 65.59519383963197,243.95706885689287 67.03624535317067,244.68203541319235 68.02562400419265,244.77557936296216 73.55323951144237,247.51172756162123 75.01579925650731,248.6342430000659 82.88781200209633,252.1186924376525 83.25345193839166,252.07192156041856 84.13528943178244,250.01399606050109 84.78053637815174,249.52289820867009 90.75982474780176,249.85029686195776 93.90002655342687,251.11311704010586 97.75,251.25343007961055 93.83550185873173,251.1365025510895 90.41569304303266,249.8269112551643 84.9095857674256,249.54628383807722 84.00624004250858,250.15430959130754 83.16741901217028,252.16546330801793 75.16635687730741,248.86809987784363 69.01500265533105,245.43038623104803 65.5521773765795,244.05061302278773 57.25,242.83453669201117" stroke="#4DD2FF" stroke-linecap="round" stroke-linejoin="round" stroke-width="0.5"><title>2024-11-19 4.1km</title><desc>1731989484000</desc></polyline></svg>