<?xml version="1.0" encoding="utf-8" ?>
<svg baseProfile="full" height="300mm" version="1.1" viewBox="0,0,200,300" width="200mm" xmlns="http://www.w3.org/2000/svg" xmlns:ev="http://www.w3.org/2001/xml-events" xmlns:xlink="http://www.w3.org/1999/xlink"><defs /><rect fill="#222222" height="300" width="200" x="0" y="0" /><text fill="#FFFFFF" style="font-size:12px; font-family:Arial; font-weight:bold;" x="10" y="20">Over 4km Runs</text><text fill="#FFFFFF" style="font-size:4px; font-family:Arial" x="10" y="280">ATHLETE</text><text fill="#FFFFFF" style="font-size:9px; font-family:Arial" x="10" y="290">Fake David</text><text fill="#FFFFFF" style="font-size:4px; font-family:Arial" x="65" y="280">SPECIAL TRACKS</text><rect fill="yellow" height="2.6" width="2.6" x="65" y="283" /><text fill="#FFFFFF" style="font-size:3px; font-family:Arial" x="70" y="285.5">Over 10.0 km</text><rect fill="red" height="2.6" width="2.6" x="65" y="287" /><text fill="#FFFFFF" style="font-size:3px; font-family:Arial" x="70" y="289.5">Over 15.0 km</text><text fill="#FFFFFF" style="font-size:4px; font-family:Arial" x="120" y="280">STATISTICS</text><text fill="#FFFFFF" style="font-size:3px; font-family:Arial" x="120" y="285">Number: 9</text><text fill="#FFFFFF" style="font-size:3px; font-family:Arial" x="120" y="290">Weekly: 2.2</text><text fill="#FFFFFF" style="font-size:3px; font-family:Arial" x="141" y="285">Total: 55.9 km</text><text fill="#FFFFFF" style="font-size:3px; font-family:Arial" x="141" y="290">Avg: 6.2 km</text><text fill="#FFFFFF" style="font-size:3px; font-family:Arial" x="167" y="285">Min: 4.0 km</text><text fill="#FFFFFF" style="font-size:3px; font-family:Arial" x="167" y="290">Max: 12.1 km</text><polyline fill="none" points="19.547752808895893,55.3545785426395 25.337078651646152,56.01429328019731 26.60112359537743,56.756470949883806 27.637640449451283,56.72898291464662 37.14325842692051,61.97916048107436 45.63764044933487,65.66248653855291 47.02808988769539,62.80378891224973 47.761235954938456,62.47393776095123 55.0168539325241,62.91373923057108 58.733146067359485,64.37057785419165 66.92415730340872,64.56299007256166 59.03651685395744,64.37057785419165 55.092696629231796,63.051177082263166 47.23033707856666,62.72132615206647 45.83988764032256,65.74494864145527 36.966292134835385,62.03413576717139 34.41292134835385,60.30241032061167 27.561797752743587,56.89391109524877 27.005617977585644,57.03135118942009 24.831460674176924,56.15173370204866 13.252808988676406,54.50244526058668 22.859550561755896,55.60197170745232 27.561797752743587,56.701494877401274 34.185393258347176,59.97255693303305 36.94101123593282,61.8142345736851 45.43539325846359,65.60751179308863 45.966292134835385,65.41510011939681 47.0786516853841,62.96871437734808 47.761235954938456,62.47393776095123 52.185393258347176,62.91373923057108 54.435393258347176,62.72132615206647 58.859550561755896,64.39806532012881 67.0,64.53550261896453 58.42977528087795,64.34309038624633 54.966292134835385,62.96871437734808 47.71067415724974,62.50142536821659 47.0786516853841,62.748813740879996 46.193820224609226,65.22268834535498 45.71348314604256,65.63499916688306 37.82584269659128,62.33649969421094 33.098314606701024,59.505264129227726 27.51123595505487,56.756470949883806 23.466292134835385,55.73941228291369 13.0,54.25505135851563 25.918539325823076,56.124245621816954 45.03089887637179,65.47007489352836 45.966292134835385,65.30515054645366 47.0786516853841,62.44645015167771 46.0168539325241,65.41510011939681 45.48595505615231,65.52504965953995 37.24438202241436,62.03413576717139 27.587078651762567,56.674006838089554 18.764044943731278,55.18964967390639" stroke="yellow" stroke-linecap="round" stroke-linejoin="round" stroke-width="0.5"><title>2024-12-09 12.1km</title><desc>1733738831000</desc></polyline><polyline fill="none" points="95.47031102736946,61.03763480644557 105.62393967946991,65.63067072330159 106.7945334588876,62.97446410683915 107.71065032982733,62.47642325141351 114.27615457109641,62.75311269797385 118.27144203567877,64.33023860747926 127.0,64.63459546823287 119.1112158340402,64.46858266598429 114.70876531559043,62.94679518791963 107.78699340252206,62.58709905479918 106.92177191318478,62.863788418937474 105.6748350613052,65.68600815918762 97.63336475018878,62.33807845090632 87.40339302551001,56.804244169645244 86.48727615445387,56.83191354619339 85.3166823751526,56.05717022437602 78.06409048067871,55.08873879926978 77.14797360973898,54.64602644951083 76.71536286524497,55.00573027387145 73.53440150804818,54.50767873195582 81.06691800185945,55.282425286306534 87.40339302551001,56.69356664293446 94.07068803021684,59.986208956397604 95.95381715369876,61.36966340383515 105.24222431669477,65.63067072330159 105.85296889720485,65.3816521599947 106.92177191318478,62.80845056261751 107.50706880295184,62.3657474151114 109.7719132892089,62.75311269797385 114.65786993398797,62.78078163129976 118.72950047126506,64.35790742334211 126.82186616386753,64.5239202749799 118.52591894438956,64.27490096964175 114.65786993398797,62.836119491781574 107.6852026389679,62.5317611572973 106.64184731384739,63.41716652872856 105.64938737032935,65.68600815918762 96.1828463714337,61.59101563721197 87.37794533453416,56.804244169645244 86.79264844488353,56.914921663323184 83.50989632413257,55.8358146926912 73.0,54.31399184081238 83.99340245057829,55.8358146926912 86.56361922703218,56.77657479105983 87.53063147969078,56.74890541046625 90.81338360044174,58.54741086426657" stroke="#4DD2FF" stroke-linecap="round" stroke-linejoin="round" stroke-width="0.5"><title>2024-12-06 9.2km</title><desc>1733479157000</desc></polyline><polyline fill="none" points="138.47826086939313,55.12777287789504 145.3450210377341,55.9512597786088 146.80925666191615,56.85709324339405 147.61711079941597,56.69239641542663 157.03366058901884,61.962658392993035 165.26367461425252,65.61336858742288 166.09677419345826,65.36632918898249 166.98036465630867,63.005722139496356 167.93969144462608,62.621435839595506 174.75596072920598,62.9508241211588 178.59326788212638,64.40561884266208 187.0,64.68010776862502 178.6942496492993,64.40561884266208 174.7054698455613,63.033171145565575 167.8134642355144,62.59398680279264 166.929873772664,63.142967149440665 165.66760168294422,65.66826620904612 156.35203366051428,61.71561654686229 154.23141654976644,60.260811204178026 147.6423562411219,56.9119921696838 146.91023842908908,56.96689108776627 145.06732117803767,56.08850741639617 133.0,54.33173379092477 145.06732117803767,56.06105789291905 148.8541374473134,57.653126873861765 147.7433380082948,56.9119921696838 138.50350631121546,55.155222470959416" stroke="#4DD2FF" stroke-linecap="round" stroke-linejoin="round" stroke-width="0.5"><title>2024-12-03 5.6km</title><desc>1733220329000</desc></polyline><polyline fill="none" points="20.04895104910247,145.40143937780522 25.15944055945147,145.94889529052307 26.896503496565856,146.96168657849194 29.111888111918233,147.23541347435093 31.503496503573842,148.79565288650338 34.77622377616353,150.02741616321146 36.86573426576797,151.64238842498162 45.853146853274666,155.5839858354011 46.98601398605388,153.14786464892677 47.89230769244023,152.545674899593 54.76503496512305,152.9288866724819 58.994405594537966,154.48910190720926 64.9104895106284,154.43435762517038 67.0,154.59859044689802 66.37062937067822,154.76282319513848 58.74265734269284,154.54384618109907 54.76503496512305,153.03837567704613 47.86713286722079,152.65516401833156 47.11188811203465,153.0110034289246 45.953846154036,155.61135789181571 45.40000000002328,155.66610199850402 36.08531468536239,151.66976077505387 31.05034965032246,148.79565288650338 24.932867132942192,146.05838637516717 13.0,144.38864378858125 25.360839160974137,146.00364083691966 28.935664335731417,147.6460034357442 24.882517482503317,146.1405046672444 13.05034965032246,144.33389800152509 20.351048951153643,145.3466937416233" stroke="#4DD2FF" stroke-linecap="round" stroke-linejoin="round" stroke-width="0.5"><title>2024-12-02 6.1km</title><desc>1733112856000</desc></polyline><polyline fill="none" points="73.0,142.5628748673771 74.59999999997672,143.22976375810686 78.28000000002794,148.15890707424842 77.95999999996275,147.83996439597104 78.65333333332092,147.81096959405113 79.56000000005588,146.70916552116978 82.86666666669771,147.20207825518446 84.09333333326504,148.0139331619721 86.54666666663252,148.50684424329665 89.18666666653007,150.1595415485499 92.38666666659992,151.37731401930796 94.06666666665114,152.8560326109291 103.66666666662786,157.2341664789128 104.44000000006054,157.2341664789128 105.61333333328366,154.5377057500009 106.38666666659992,154.16077964368742 113.77333333331626,154.5377057500009 118.33333333325572,156.16138326528016 127.0,156.2483657981793 118.38666666671634,156.21937162271934 113.79999999993015,154.5956943492638 106.46666666667443,154.21876829920802 105.66666666662786,154.56670005069464 104.22666666668374,157.4371251326229 95.05333333322778,153.5808926135942 88.8399999999674,150.07255765487207 82.62666666659061,147.23107310241903 75.0800000000745,146.3322318326973" stroke="#4DD2FF" stroke-linecap="round" stroke-linejoin="round" stroke-width="0.5"><title>2024-11-29 4.6km</title><desc>1732853630000</desc></polyline><polyline fill="none" points="137.57320574158803,148.2582868123427 137.18564593303017,148.48303018006845 138.83923444978427,148.5111230915645 137.41818181832787,148.3425655909814 138.71004784689285,148.4549372663896 138.55502392339986,148.84823786682682 140.62200956931338,146.17940431079478 145.47942583728582,145.84228714942583 147.02966507175006,146.68507948771003 149.225837320555,147.13456796453102 157.82966507179663,152.0508132003306 166.4593301435234,155.78711671297788 167.75119617232122,153.06214712839574 168.52631578943692,152.6969435228093 175.86411483259872,153.06214712839574 179.58468899514992,154.5791429350793 187.0,154.66342030098895 179.7397129186429,154.52295801404398 175.32153110043146,152.9778694046836 168.42296650726348,152.58457311146776 167.80287081340794,152.9497768258734 166.4593301435234,155.75902434345335 157.31291866023093,152.0508132003306 147.85645933018532,146.769358617923 145.01435406703968,145.89847336389357 133.0,144.21288328705123 145.2727272727061,145.84228714942583 146.84880382788833,146.65698644009535 148.50239234452602,146.88173076222301 155.16842105274554,150.42143616641988 145.19521531101782,145.95465957000852 138.71004784689285,145.08377243427094" stroke="#4DD2FF" stroke-linecap="round" stroke-linejoin="round" stroke-width="0.5"><title>2024-11-28 6.3km</title><desc>1732767063000</desc></polyline><polyline fill="none" points="13.362416107440367,233.5473841097555 21.33557046984788,234.89374909971957 23.147651006816886,235.84605356040993 23.99328859068919,235.78037745677284 32.298657718114555,239.85227737706737 35.16778523486573,241.75686281439266 45.67785234900657,246.35410410168697 47.15771812084131,243.16887774001225 48.244966443045996,242.57780227501644 56.24832214752678,243.00469019034063 59.93288590607699,244.5480507426255 63.13422818784602,245.07344884666963 67.0,244.97493674984435 61.171140939579345,244.87642463104567 56.79194630868733,243.16887774001225 48.546979865874164,242.7419899837987 47.30872483213898,243.23455274273874 45.67785234900657,246.4526158902736 34.231543624191545,241.62551235870342 23.99328859068919,235.78037745677284 23.23825503361877,235.94456769755925 20.64093959738966,234.79523472770234 13.0,233.77725159437978" stroke="#4DD2FF" stroke-linecap="round" stroke-linejoin="round" stroke-width="0.5"><title>2024-11-25 4.0km</title><desc>1732507947000</desc></polyline><polyline fill="none" points="73.0,230.7641078986344 84.00802568229847,232.1777839162387 86.99839486368,233.92131331947166 88.64526484790258,233.73282388597727 91.67897271271795,234.72239278507186 94.84269662946463,236.9842587406165 100.8234349922277,239.57597020384856 105.46067415736616,242.78025333129335 115.94863563403487,246.87982719257707 119.45906902104616,249.00028600537917 120.36918138060719,248.62331606925 122.31942215096205,244.05253771785647 127.0,243.95829451770987 122.49277688609436,244.1939024918247 119.97913322644308,249.2358921013656 106.15409309812821,243.4870783064398 88.5585874801036,234.0626803576597 87.38844301784411,234.29829201789107 91.54895666148514,235.09937100607203 93.58587479940616,236.9842587406165 97.1829855539836,237.97382255253615 105.3739967898,242.87449670693604 118.50561797781847,248.7175585743389 120.36918138060719,248.9060435424326 122.31942215096205,244.00541611970402 120.23916532914154,249.2358921013656 106.37078651692718,243.39283502212493" stroke="#4DD2FF" stroke-linecap="round" stroke-linejoin="round" stroke-width="0.5"><title>2024-11-20 4.0km</title><desc>1732095798000</desc></polyline><polyline fill="none" points="136.1545406266814,234.12237866804935 144.1269251195481,235.2760918092099 146.0483271375997,236.24271388424677 147.36749867221806,236.36743915060651 154.73765268188436,240.0156367488089 156.68773234204855,241.51232400009758 167.18374933616724,246.15825658352696 167.67126925115008,246.0958954138623 168.8470525756711,243.35199474732508 169.70738183741923,242.6971976115601 177.67976633028593,243.1337291492673 181.86670207115822,244.81748938682722 187.0,245.00457343948074 181.78066914493684,244.84867006810964 177.22092405729927,243.10254834021907 169.879447689862,242.72837845078902 168.67498672322836,243.53907945507672 167.5565586828161,246.2206177440239 156.8884758364875,241.82413317044848 148.68667020706926,237.240514974721 144.06956983543932,235.40081736372667 133.0,233.7793822560052" stroke="#4DD2FF" stroke-linecap="round" stroke-linejoin="round" stroke-width="0.5"><title>2024-11-19 4.1km</title><desc>1731989484000</desc></polyline></svg>