<?xml version="1.0" encoding="utf-8" ?>
<svg baseProfile="full" height="300mm" version="1.1" viewBox="0,0,200,300" width="200mm" xmlns="http://www.w3.org/2000/svg" xmlns:ev="http://www.w3.org/2001/xml-events" xmlns:xlink="http://www.w3.org/1999/xlink"><defs /><rect fill="#222222" height="300" width="200" x="0" y="0" /><text fill="#FFFFFF" style="font-size:12px; font-family:Arial; font-weight:bold;" x="10" y="20">Over 4km Runs</text><text fill="#FFFFFF" style="font-size:4px; font-family:Arial" x="10" y="280">ATHLETE</text><text fill="#FFFFFF" style="font-size:9px; font-family:Arial" x="10" y="290">Fake David</text><text fill="#FFFFFF" style="font-size:4px; font-family:Arial" x="65" y="280">SPECIAL TRACKS</text><rect fill="yellow" height="2.6" width="2.6" x="65" y="283" /><text fill="#FFFFFF" style="font-size:3px; font-family:Arial" x="70" y="285.5">Over 10.0 km</text><rect fill="red" height="2.6" width="2.6" x="65" y="287" /><text fill="#FFFFFF" style="font-size:3px; font-family:Arial" x="70" y="289.5">Over 15.0 km</text><text fill="#FFFFFF" style="font-size:4px; font-family:Arial" x="120" y="280">STATISTICS</text><text fill="#FFFFFF" style="font-size:3px; font-family:Arial" x="120" y="285">Number: 19</text><text fill="#FFFFFF" style="font-size:3px; font-family:Arial" x="120" y="290">Weekly: 2.4</text><text fill="#FFFFFF" style="font-size:3px; font-family:Arial" x="141" y="285">Total: 141.0 km</text><text fill="#FFFFFF" style="font-size:3px; font-family:Arial" x="141" y="290">Avg: 7.4 km</text><text fill="#FFFFFF" style="font-size:3px; font-family:Arial" x="167" y="285">Min: 4.0 km</text><text fill="#FFFFFF" style="font-size:3px; font-family:Arial" x="167" y="290">Max: 13.0 km</text><polyline fill="none" points="16.29051522258669,48.5708460030437 18.66170960199088,49.23087077322998 21.374355971929617,49.47837965631334 22.68325526942499,50.138402262702584 23.17646370024886,50.07652521021373 28.81042154575698,53.190986348548904 36.37927400472108,56.67666620541422 36.94836065580603,56.5735402124119 37.72611241217237,54.69664042809745 38.29519906337373,54.36663475522073 43.379039812716655,54.67601508504595 46.39519906335045,55.81040667023626 52.75,55.99603394164296 46.86943793913815,55.831031928770244 43.60667447303422,54.77914178487845 38.333138173329644,54.469761570202536 37.72611241217237,54.79976712023199 36.72072599537205,56.75916697215871 29.36053864180576,53.66537139410502 23.157494145212695,50.200279301410774 22.664285714388825,50.24153065279825 21.14672131149564,49.51963111531222 19.00316159252543,49.41650245626806 12.25,48.24083302784129 21.298477751784958,49.4990053865622 23.973185011767782,50.75717202703527 21.46920374711044,49.56088256815565 15.911124121863395,48.71522655598528" stroke="#4DD2FF" stroke-linecap="round" stroke-linejoin="round" stroke-width="0.5"><title>2025-01-02 5.6km</title><desc>1735817809000</desc></polyline><polyline fill="none" points="61.92453271022532,48.7343586190982 66.42873831780162,49.47515111057146 67.75350467290264,50.174786639166996 69.02149532712065,50.40113893074158 75.91028037387878,54.187367940772674 81.720327102812,56.697773778345436 82.21238317748066,56.18334821124154 82.76121495326515,54.804682967063854 83.42359813081566,54.47544845804805 88.28738317755051,54.640065761632286 91.845327102812,55.93642359877413 97.75,55.97757771615579 95.44112149521243,56.12161707881023 91.50467289716471,55.874692411132855 88.55233644857071,54.72237437663716 83.44252336455975,54.434294116843375 82.85584112151992,54.660642917689984 81.98528037383221,56.61546575195098 81.663551401929,56.759504781948635 72.39018691587262,52.68522894680791 68.13200934568886,50.174786639166996 67.52640186925419,50.21594161511166 66.22056074766442,49.557461264761514 57.25,48.21991821985284 65.53925233648624,49.37226338336768 67.67780373827554,50.13363165713963 68.13200934568886,50.01016667425574 74.2070093457587,53.42601084151829 81.663551401929,56.78008178014716 82.91261682240292,54.59891144494759 83.42359813081566,54.393139769512345 84.86191588779911,54.578334284276934 82.87476635514759,54.55775712210743 81.98528037383221,56.57431172957877 81.64462616818491,56.67719677402056 74.77476635517087,53.775823823409155 68.41588785045315,50.236519100741134 67.56425233639311,50.174786639166996 66.05023364489898,49.49572865142545 64.422663551406,49.557461264761514 57.81775700929575,48.28165111839189 61.981308411224745,49.06359997171967" stroke="#4DD2FF" stroke-linecap="round" stroke-linejoin="round" stroke-width="0.5"><title>2024-12-31 8.0km</title><desc>1735619151000</desc></polyline><polyline fill="none" points="107.88971962616779,49.02244508321746 109.27126168226823,49.06360022771696 113.22663551417645,49.98958935875271 115.53551401873119,51.22423670407443 116.1978971962817,51.90329039139033 126.7960280374391,56.697773465595674 127.79906542063691,54.742951359425206 128.36682242993265,54.43429397275031 133.60911214968655,54.722374211021815 136.22079439251684,55.77180682399194 142.73107476637233,55.93642334268952 136.4668224300258,55.874692159719416 133.5712616823148,54.742951359425206 128.38574766367674,54.43429397275031 127.83691588800866,54.68121990964573 126.70140186930075,56.78008146128559 120.30467289732769,54.04332745443389 114.51355140202213,50.85384307996719 111.14485981315374,49.516306413002894 102.25,48.21991853869986 109.40373831777833,49.14591049840965 113.16985981317703,50.010166859749006 120.30467289732769,53.87870980751177 126.5310747664189,56.759504464644124 127.00420560745988,56.57431142605492 127.79906542063691,54.722374211021815 128.44252336455975,54.37256245400931 133.49556074780412,54.68121990964573 136.56144859816413,55.812960962881334 142.75,55.83353803001228 136.788551401929,55.854115095644374 133.47663551406004,54.722374211021815 128.34789719630498,54.393139628416975 127.79906542063691,54.68121990964573 126.96635514032096,56.553734414090286 126.663551401929,56.697773465595674 119.81261682254262,53.81697816461383 113.3212616823148,50.17478681236389 110.48247663560323,49.47515133590787 102.55280373839196,48.32280668753083 110.89883177576121,49.454573795053875 112.63995327113662,50.15420932366396 113.37803738331422,50.07189935348288 119.39626168226823,53.40543352601526 113.28341121505946,50.1130543416366 107.56799065426458,49.04302265620208" stroke="yellow" stroke-linecap="round" stroke-linejoin="round" stroke-width="0.5"><title>2024-12-30 10.8km</title><desc>1735533491000</desc></polyline><polyline fill="none" points="152.93586753727868,48.94677605056495 156.63829291041475,49.562951075829915 157.67723880591802,50.15858562439098 158.2061567164492,50.096968316982384 159.28288246272132,50.548828251470695 163.9109141791705,53.17781681672204 171.42910447751638,56.62832626316231 171.97691231337376,56.64886488058255 172.7702891790541,54.69768939449568 173.3936567164492,54.34853021934396 178.36170708946884,54.67715063171636 181.32742537301965,55.82731899054488 187.75,55.9300123606954 181.572994402959,55.82731899054488 178.55060634331312,54.71822815577616 173.31809701491147,54.3896077923273 172.80806902982295,54.69768939449568 172.1469216417754,56.36132409752463 171.63689365668688,56.731019334940356 164.57206156710163,53.75290472342749 159.54734141787048,50.87745319324313 156.6760727611836,49.70672505021503 147.25,48.22790344704117 156.35494402982295,49.54241193050984 159.9818097014213,50.87745319324313 163.79757462686393,53.17781681672204 171.5802238804754,56.77209655294428 171.95802238804754,56.66940349644574 172.82695895514917,54.71822815577616 173.3558768655639,54.47176291987125 178.51282649254426,54.75930567366595 181.3463152984623,55.847857667613425 187.6933302237885,55.90947368968045 185.76655783585738,56.07378301458084 181.44076492532622,55.847857667613425 178.49393656710163,54.67715063171636 173.37476679100655,54.3896077923273 172.8458488805918,54.61553433422523 171.97691231337376,56.60778764418501 171.41021455219015,56.68994211083918 165.28987873136066,54.01990941520489 163.2875466417754,52.78757791110547 156.63829291041475,49.624568502622424 148.21338619396556,48.43329581076978" stroke="#4DD2FF" stroke-linecap="round" stroke-linejoin="round" stroke-width="0.5"><title>2024-12-27 9.1km</title><desc>1735273142000</desc></polyline><polyline fill="none" points="44.820327102788724,103.68843435867166 43.34415887854993,103.27689149833168 41.773364485939965,103.462085861378 38.08294392528478,103.11227418256749 36.77710280381143,105.45806167108822 29.90724299068097,102.65957605814037 23.094158878433518,98.9144994791568 22.54532710276544,98.97623192232277 21.06915887852665,98.31775181731791 12.25,96.91847638135368 18.419626168208197,97.9062009544432 19.025233644875698,97.80331314289651 23.359112149570137,98.89392199505528 28.18504672893323,101.3220545379445 28.904205607483163,101.98052748038026 36.36074766353704,105.39633067660907 36.90957943920512,105.35517667265958 37.66658878501039,103.462085861378 38.27219626167789,103.09169701115752 43.495560747687705,103.42093156924238 46.693925233674236,104.6144035525067 52.75,104.77901997312438 46.069392523379065,104.49094117269851 43.72266355145257,103.48266300513933 38.253271027933806,103.11227418256749 37.855841121519916,103.23573717859108 37.004205607576296,105.41690767626278 36.625700934557244,105.58152361864632 34.99813084118068,104.6144035525067 29.680140186916105,102.51553559023887 23.4537383178249,98.8733445094258 19.17663551401347,97.9062009544432 14.691355140181258,97.30945111393521" stroke="#4DD2FF" stroke-linecap="round" stroke-linejoin="round" stroke-width="0.5"><title>2024-12-25 6.6km</title><desc>1735101299000</desc></polyline><polyline fill="none" points="61.4553320860723,97.27486720118031 61.30378858745098,97.64561048790347 61.55004677257966,97.56322313382407 61.909962581819855,96.96591408236418 63.065481758560054,97.76919147299486 64.35360149666667,97.83098194478953 68.31267539761029,98.8402243629098 75.32156220765319,102.67119265752262 81.76216089806985,105.45170091437467 82.02736202056985,105.43110465972859 82.82296538818628,103.47445347069879 83.41019644530024,103.16550728029688 88.48690364824142,103.45385706872912 91.7640318054473,104.68963847016857 97.75,104.79262000432936 91.47988774557598,104.62784953130176 88.29747427511029,103.43326066527516 83.23971000942402,103.18610370370152 82.82296538818628,103.3920678536524 81.9705332085723,105.32812336338975 81.62956033670343,105.38991214577982 74.63961646403186,102.50642092015187 69.39242282509804,99.45812606564141 66.4183816651348,98.26351486086787 57.25,96.98651096770482 60.35664172121324,97.46023890668584 61.8341908325674,97.41904520508251 67.04349859675858,98.44888590347546 69.41136576235294,99.3757392517582 75.90879326465074,102.95954296154378 81.4590739008272,105.43110465972859 82.04630495794117,105.36931588654988 82.99345182417892,103.26848938209878 84.92563143116422,103.26848938209878 83.05028063617647,103.20670012562186 81.95159027120098,105.53408591763582 75.13213283440564,102.7123855764803 71.45720299344976,100.54974903205584 66.60781103838235,98.40769234918116 57.30682881188113,97.00710785150295 65.09237605240196,98.11933729737939" stroke="#4DD2FF" stroke-linecap="round" stroke-linejoin="round" stroke-width="0.5"><title>2024-12-18 8.3km</title><desc>1734495982000</desc></polyline><polyline fill="none" points="106.51912313431967,95.59149752168742 105.82019589550328,95.75581313892326 106.06576492532622,95.55041860202618 105.82019589550328,95.71473424379656 105.66907649242785,95.48880021108198 105.74463619396556,95.694194793934 107.27472014923114,96.76224415759498 110.6182369402377,98.24107490615279 111.41161380603444,99.49396697136399 112.29944029846229,100.19229778213776 113.28171641787048,100.33607155297068 120.21431902982295,104.07416327677493 126.48577425372787,106.88796811657085 126.9391324626049,106.90850673244859 127.82695895526558,104.93679263049853 128.37476679100655,104.62871102831559 133.62616604473442,104.95733139176446 136.93190298508853,106.10749957920052 142.75,106.21019293401332 136.421875,106.10749957920052 133.62616604473442,104.97787015145877 128.28031716425903,104.64924981247168 127.73250932828523,104.95733139176446 126.78801305964589,106.99066118066548 117.51305970153771,103.10883675208606 116.87080223869998,102.47213017303147 114.5473414179869,101.15763451938983 111.75163246272132,100.04852393628971 102.25,98.50808516799589 111.27938432828523,99.69935856990924 112.8661380597623,100.39768886037928 113.20615671644919,100.2949933403579 120.28987873136066,104.15631856958498 125.16347947751638,106.08696090361627 126.5046641791705,106.90850673244859 127.01469216414262,106.78527501416102 127.95918843278196,104.81356003093242 129.92374067159835,104.75194371053658 128.0725279849721,104.87517633760581 127.09025186568033,107.01119978893257 126.24020522378851,106.94958395966387 119.83652052236721,104.19739620685868 118.07975746272132,103.04722005063377 111.69496268650983,99.94582828620332 102.40111940295901,98.65185981724062 111.41161380603444,99.74043687125959" stroke="#4DD2FF" stroke-linecap="round" stroke-linejoin="round" stroke-width="0.5"><title>2024-12-17 8.6km</title><desc>1734409492000</desc></polyline><polyline fill="none" points="152.24392807111144,97.52725567176822 156.29203643160872,98.16486206138507 157.76751517993398,98.86417060176609 158.25934142933693,98.72019545886724 165.2773236805806,102.58693036828481 171.65214852883946,105.34297432085441 171.99264362454414,105.30183953874803 172.86279775807634,103.26566016378638 173.33570761338342,102.99828195870214 178.82146193366498,103.38906540184689 181.56433909398038,104.43800769853988 187.75,104.54084496412543 187.14467538532335,104.7465193803364 181.5454226997681,104.54084496412543 178.31071929004975,103.34793032862945 173.44920597865712,103.1422548705159 172.7114666044945,103.59474067611154 171.89806165348273,105.34297432085441 171.57648295199033,105.4458112493594 165.84481550683267,103.01884952209366 158.14584306406323,98.90530634309107 157.14327417104505,98.78189910072251 156.08395609539002,98.16486206138507 147.25,96.95135186050902 156.216370854876,98.14429413630569 157.48376926674973,98.82303485434386 158.22150864091236,98.76133122164174 165.22057449794374,102.56636277270445 171.51973376935348,105.32240693057247 172.049392807181,105.28127214536653 172.6925502101658,103.53303810993384 173.33570761338342,103.03941708401544 178.87821111641824,103.38906540184689 181.50758991134353,104.43800769853988 187.6365016347263,104.60254730502493 181.8480850070482,104.54084496412543 178.53771602059714,103.34793032862945 173.31679121917114,103.10111976049666 172.84388136386406,103.32736278974335 171.86022886517458,105.4458112493594 165.08815973845776,102.6692007353995 158.1647594582755,98.90530634309107 156.48120037373155,98.30883749392524 147.4769967305474,96.99248788689147 156.17853806633502,98.16486206138507 157.50268566096202,98.82303485434386 158.31609061197378,98.84360272881167 166.01506305474322,102.93657925919979 171.51973376935348,105.38410909684899 172.049392807181,105.30183953874803 172.6925502101658,103.2039575240633 174.8868519384414,103.24509261873027 172.88171415240504,103.28622770725633 171.9358944419073,105.54864813950553 165.03141055593733,102.64863314591639 158.24042503500823,98.88473847322166 157.635100420448,98.90530634309107 156.14070527791046,98.18542998489283 147.4769967305474,97.07475992120453 156.0082905185409,98.14429413630569" stroke="yellow" stroke-linecap="round" stroke-linejoin="round" stroke-width="0.5"><title>2024-12-15 13.0km</title><desc>1734235831000</desc></polyline><polyline fill="none" points="16.25466417905409,145.8614081877604 16.25466417905409,146.0873396784591 17.954757462604903,146.60081965045538 20.240438432781957,147.07322037997073 21.43050373136066,146.99106378949364 22.58278917905409,147.64831582759507 23.243936567101628,147.6688549285318 31.064365671598352,151.83826073470118 36.674673507455736,154.22075002783095 37.03358208958525,154.2002114150091 37.789179104496725,152.37226874574844 38.35587686568033,152.0025710021 43.569496268755756,152.26957497782132 46.57299440307543,153.41974299385038 52.75,153.54297499672975 46.45965485076886,153.41974299385038 43.72061567171477,152.29011373444519 38.26142723893281,151.92041588063876 37.73250932828523,152.16688117162266 36.82579291041475,154.26182724883256 30.23320895526558,151.5712563413108 24.093983208877034,148.14125382780912 21.298274253727868,147.05268123465066 12.25,145.738172751182 17.048041044618003,146.23111416703614 21.298274253727868,146.92944633061416 23.20615671633277,147.54562029996305 29.005363805918023,150.7086249953718 34.804570895503275,153.25543357105926 36.24020522390492,154.15913418475247 37.014692164142616,154.07697970588924 37.71361940295901,152.37226874574844 38.29920708958525,151.9614934444835 43.47504664177541,152.18741993587173 46.289645522483625,153.35812697178335 48.44309701491147,153.3786656473676 46.1385261194082,153.29651093593566 43.43726679100655,152.22849745993153 38.506996268755756,151.92041588063876 37.73250932828523,152.14634240577288 36.78801305976231,154.17967280061566 29.874300373136066,151.36586817042553 23.243936567101628,147.70993312580686 21.26049440295901,147.05268123465066 18.27588619396556,146.68297635720228" stroke="#4DD2FF" stroke-linecap="round" stroke-linejoin="round" stroke-width="0.5"><title>2024-12-13 8.5km</title><desc>1734064159000</desc></polyline><polyline fill="none" points="61.630963627714664,146.3182539121044 65.80148795468267,146.92148656057543 68.67111478501465,147.81593257132045 74.63993859232869,151.1856801804097 81.31660368444864,154.1393761185609 81.8522673593834,154.16017668337736 82.7131554086227,152.1841161060729 83.24881908355746,151.913706728752 88.5098016060656,152.1841161060729 91.14985828998033,153.26575099659385 97.75,153.39055475281202 91.78117619268596,153.3489535069093 88.31849315064028,152.16331539402017 83.11490316491108,151.89290599655942 82.56010864430573,152.08011253042787 81.9287907416001,153.86896863479342 81.4696504487656,154.2849800397962 80.11136041569989,153.51535845320905 74.62080774677452,151.37288718846685 69.07286254130304,148.19035098075983 66.12671232875437,147.17109968904697 69.05373169574887,148.1071469331655 72.57380727445707,150.22884240133862 80.14962210680824,153.49455784031306 81.25921114778612,154.2225783685717 81.81400566839147,154.09777498424228 82.67489371751435,151.8305037907412 81.77574397728313,154.0353732711519 81.29747283889446,154.16017668337736 74.83124704763759,151.41448872874025 67.94414265477099,147.54551896330668 67.27456306095701,147.56632001936669 65.59104865370318,146.87988435081206 57.25,145.71501996018924" stroke="#4DD2FF" stroke-linecap="round" stroke-linejoin="round" stroke-width="0.5"><title>2024-12-11 6.6km</title><desc>1733890893000</desc></polyline><polyline fill="none" points="107.16081460670102,146.51593390700873 111.50280898879282,147.01071996017708 112.45084269659128,147.56735321243468 113.22823033714667,147.54673718601407 120.35744382021949,151.48437036082032 126.72823033703025,154.2468649039365 127.77106741571333,152.1028416842164 128.32092696626205,151.8554533207498 133.76264044945128,152.18530442295014 136.54985955054872,153.27793339066557 142.69311797758564,153.42224255444307 136.7773876405554,153.27793339066557 133.81952247198205,152.28838281173375 127.92275280901231,152.04099461407168 126.87991573032923,154.308711481106 120.22471910109743,151.52560182540037 118.30969101120718,150.2268077404733 113.1713483146159,147.6704333214584 112.75421348318923,147.77351339207962 111.12359550560359,147.11380027655105 102.43960674153641,145.87683394546912 109.64466292131692,146.70147878062562 113.1713483146159,147.52612115808006 118.1390449438477,149.9794176997966 120.20575842703693,151.36067593027838 126.5765449438477,154.20563384484558 126.97471910109743,154.06132508956944 127.80898876406718,152.22653578304744 128.32092696626205,151.8554533207498 131.63904494373128,152.18530442295014 133.3265449438477,152.04099461407168 136.64466292131692,153.29854899011843 142.75,153.40162696424522 136.32233146065846,153.2573177896993 133.72471910121385,152.22653578304744 128.28300561802462,151.87606902618427 127.80898876406718,152.06161030568182 127.14536516845692,153.9170162590308 126.78511235956103,154.22624937517685 120.86938202241436,151.75237477067276 117.32373595505487,149.62894809694262 113.13342696637847,147.56735321243468 110.09971910109743,146.8045592122071 102.25,145.69128851890855 111.93890449439641,147.09318421637 126.27317415724974,154.10255617015355 126.97471910109743,153.97886290986207 127.80898876406718,151.83483761378739 127.01264044945128,154.06132508956944 126.61446629208513,154.1437872446695 120.43328651681077,151.52560182540037 113.19030898879282,147.505505128589 106.57303370779846,146.39223725545162" stroke="yellow" stroke-linecap="round" stroke-linejoin="round" stroke-width="0.5"><title>2024-12-09 12.1km</title><desc>1733738831000</desc></polyline><polyline fill="none" points="164.102733270498,150.7782261048269 171.71795475971885,154.22300304246892 172.595900094253,152.23084808012936 173.2829877473414,151.85731743855285 178.2071159282932,152.06483452346583 181.2035815268755,153.2476789555949 187.75,153.47594660117466 181.83341187553015,153.3514369994955 178.53157398675103,152.21009639093245 173.34024505189154,151.9403242910921 172.6913289349759,152.1478413142031 171.756126296008,154.26450611939072 165.72502356267069,151.75355883817247 158.0525447691325,147.60318312722666 157.3654571159277,147.6239351596305 156.48751178139355,147.04287766826747 151.04806786053814,146.31655409943778 150.36098020733334,145.98451983711857 150.03652214899193,146.2542977053963 147.65080113103613,145.8807590489596 153.3001885014819,146.46181896471535 158.0525447691325,147.52017498220084 163.05301602266263,149.9896567172982 164.46536286524497,151.02724755287636 171.43166823755018,154.22300304246892 171.88972667290363,154.0362391200033 172.6913289349759,152.10633792195586 173.1303016023012,151.77431056133355 174.82893496693578,152.06483452346583 178.49340245046187,152.08558622347482 181.5471253534779,153.26843056749203 187.61639962298796,153.39294020622037 181.39443920832127,153.20617572721676 178.49340245046187,152.12708961883618 173.26390197919682,151.8988208679657 172.48138548538554,152.56287489653914 171.737040527747,154.26450611939072 164.63713477854617,151.19326172789442 158.03345900098793,147.60318312722666 157.59448633366264,147.68619124749966 155.13242224312853,146.87686101952568 147.25,145.73549388059473 155.49505183799192,146.87686101952568 157.42271442036144,147.58243109329487 158.1479736098554,147.56167905783514 160.6100377003895,148.91055814819993" stroke="#4DD2FF" stroke-linecap="round" stroke-linejoin="round" stroke-width="0.5"><title>2024-12-06 9.2km</title><desc>1733479157000</desc></polyline><polyline fill="none" points="16.35869565210305,195.09582965842856 21.50876577827148,195.71344483396388 22.606942496378906,196.3928199325601 23.212833099532872,196.26929731157725 30.27524544170592,200.22199379475205 36.447755960631184,202.96002644057444 37.072580645093694,202.77474689175142 37.73527349217329,201.00429160463682 38.45476858341135,200.7160768797039 43.56697054696269,200.96311809087638 46.444950911565684,202.05421413200384 52.75,202.26008082648332 46.52068723703269,202.05421413200384 43.52910238422919,201.02487835918146 38.3600981766358,200.69549010209448 37.69740532943979,201.10722536209505 36.750701262266375,203.00119965679187 29.764025245443918,200.03671241016127 28.17356241226662,198.9456084031408 23.231767180841416,196.4339941272774 22.68267882184591,196.47516831583926 21.300490883528255,195.81638056231895 12.25,194.49880034320813 21.300490883528255,195.7957934196893 24.140603085514158,196.9898451554036 23.30750350630842,196.4339941272774 16.377629733411595,195.11641685322684" stroke="#4DD2FF" stroke-linecap="round" stroke-linejoin="round" stroke-width="0.5"><title>2024-12-03 5.6km</title><desc>1733220329000</desc></polyline><polyline fill="none" points="62.536713286768645,195.3010795333248 66.3695804196177,195.71167146788503 67.67237762233708,196.47126493384712 69.33391608390957,196.67656010575593 71.12762237770949,197.84673966484843 73.58216783218086,198.77056212238676 75.14930069935508,199.9817913187144 81.8898601399269,202.93798937654356 82.7395104895113,201.11089848667325 83.41923076938838,200.6592561746802 88.5737762239296,200.94666500433232 91.74580419587437,202.11682643038512 96.18286713294219,202.0757682188705 97.75,202.19894283515168 97.27797202800866,202.3221173963393 91.55699300696142,202.15788463580247 88.5737762239296,201.02878175776277 83.40034965041559,200.74137301373412 82.83391608402599,201.00825257167162 81.96538461546879,202.95851841883268 81.55000000004657,202.99957649887074 74.56398601399269,200.00232058127585 70.78776223771274,197.84673966484843 66.19965034967754,195.79378978135355 57.25,194.54148284142138 66.5206293707015,195.7527306276752 69.20174825179856,196.98450257678633 66.16188811184838,195.85537850041874 57.28776223771274,194.50042350112926 62.76328671327792,195.26002030620293" stroke="#4DD2FF" stroke-linecap="round" stroke-linejoin="round" stroke-width="0.5"><title>2024-12-02 6.1km</title><desc>1733112856000</desc></polyline><polyline fill="none" points="102.25,193.172156150511 103.44999999995343,193.67232281857287 106.20999999996275,197.3691803056863 105.96999999997206,197.12997329697828 106.48999999999069,197.10822719553835 107.17000000004191,196.28187414087006 109.65000000002328,196.6515586913738 110.56999999994878,197.26044987147907 112.40999999991618,197.63013318247977 114.38999999989755,198.86965616140515 116.78999999992084,199.78298551446642 118.04999999993015,200.89202445818228 125.25,204.17562485917006 125.82999999995809,204.17562485917006 126.70999999996275,202.15327931247884 127.28999999992084,201.87058473276556 132.8299999999581,202.15327931247884 136.25,203.37103744896012 142.75,203.43627434864175 136.29000000003725,203.41452871702495 132.84999999997672,202.19677076194785 127.34999999997672,201.91407622440602 126.75,202.1750250380137 125.6699999999255,204.3278438494599 118.78999999992084,201.43566946018836 114.13000000000466,198.8044182411395 109.46999999997206,196.673304826807 103.81000000005588,195.99917387450114" stroke="#4DD2FF" stroke-linecap="round" stroke-linejoin="round" stroke-width="0.5"><title>2024-11-29 4.6km</title><desc>1732853630000</desc></polyline><polyline fill="none" points="150.67990430630744,197.44371510925703 150.38923444983084,197.61227263504406 151.62942583742552,197.63334231865883 150.5636363637168,197.5069241932215 151.53253588522784,197.59120294978493 151.4162679426372,197.88617840012012 152.96650717710145,195.88455323310336 156.60956937796436,195.6317153620621 157.77224880387075,196.2638096157898 159.41937799041625,196.60092597339826 165.87224880384747,200.28810990024067 172.34449760767166,203.09033753472613 173.31339712929912,201.0466103462968 173.8947368421359,200.7727076420997 179.39808612444904,201.0466103462968 182.18851674639154,202.1843572013022 187.75,202.24756522572716 182.30478468898218,202.14221851051843 178.9911483253818,200.98340205350542 173.8172248804476,200.6884298336081 173.35215311008506,200.96233261939778 172.34449760767166,203.06926825757546 165.48468899528962,200.28810990024067 158.39234449760988,196.32701896343497 156.26076555030886,195.67385502292018 147.25,194.40966246527387 156.4545454545878,195.6317153620621 157.63660287088715,196.2427398300788 158.8767942583654,196.41129807165998 163.87631578953005,199.0660771248222 156.39641148329247,195.7159946775064 151.53253588522784,195.0628293257032" stroke="#4DD2FF" stroke-linecap="round" stroke-linejoin="round" stroke-width="0.5"><title>2024-11-28 6.3km</title><desc>1732767063000</desc></polyline><polyline fill="none" points="12.521812080638483,242.66053808230208 18.50167785247322,243.67031182476785 19.860738255199976,244.3845401702565 20.494966443045996,244.33528309257235 26.72399328870233,247.3892080327787 28.875838926178403,248.81764711075812 36.75838926178403,252.2655780762434 37.86828859068919,249.8766583049728 38.68372483225539,249.43335170624778 44.68624161067419,249.75351764273364 47.44966442952864,250.9110380569473 49.85067114094272,251.30508663496585 52.75,251.2312025623396 48.37835570471361,251.1573184732406 45.09395973163191,249.8766583049728 38.91023489937652,249.55649248781265 37.981543624191545,249.9259145570104 36.75838926178403,252.33946191769792 28.17365771823097,248.71913426899118 20.494966443045996,244.33528309257235 19.92869127530139,244.45842577313306 17.980704698129557,243.59642604575492 12.25,242.832938695763" stroke="#4DD2FF" stroke-linecap="round" stroke-linejoin="round" stroke-width="0.5"><title>2024-11-25 4.0km</title><desc>1732507947000</desc></polyline><polyline fill="none" points="57.25,240.57308092399035 65.50601926166564,241.63333793717902 67.74879614776,242.94098498957464 68.98394863586873,242.79961791448295 71.25922953453846,243.54179458881845 73.63202247198205,245.23819405544782 78.11757624405436,247.18197765288642 81.59550561802462,249.58518999847 89.46147672552615,252.65987039441825 92.0943017656682,254.25021450404893 92.77688603545539,253.9674870519375 94.23956661322154,250.53940328842145 97.75,250.4687208883115 94.36958266457077,250.64542686886853 92.48434991983231,254.42691907600965 82.11556982353795,250.1153087298444 68.91894060990307,243.04701026825933 68.04133226338308,243.2237190134474 71.16171749599744,243.82452825453947 72.68940609961282,245.23819405544782 75.38723916537128,245.98036691441666 81.5304975922918,249.65587253018748 91.37921348318923,254.03816893073963 92.77688603545539,254.17953265682445 94.23956661322154,250.50406208977802 92.67937399691436,254.42691907600965 82.27808988769539,250.04462626660825" stroke="#4DD2FF" stroke-linecap="round" stroke-linejoin="round" stroke-width="0.5"><title>2024-11-20 4.0km</title><desc>1732095798000</desc></polyline><polyline fill="none" points="104.61590546998195,243.091784001037 110.59519383963197,243.95706885689287 112.03624535317067,244.68203541319235 113.02562400419265,244.77557936296216 118.55323951144237,247.51172756162123 120.01579925650731,248.6342430000659 127.88781200209633,252.1186924376525 128.25345193839166,252.07192156041856 129.13528943178244,250.01399606050109 129.78053637815174,249.52289820867009 135.75982474780176,249.85029686195776 138.90002655342687,251.11311704010586 142.75,251.25343007961055 138.83550185873173,251.1365025510895 135.41569304303266,249.8269112551643 129.9095857674256,249.54628383807722 129.00624004250858,250.15430959130754 128.16741901217028,252.16546330801793 120.16635687730741,248.86809987784363 114.01500265533105,245.43038623104803 110.5521773765795,244.05061302278773 102.25,242.83453669201117" stroke="#4DD2FF" stroke-linecap="round" stroke-linejoin="round" stroke-width="0.5"><title>2024-11-19 4.1km</title><desc>1731989484000</desc></polyline></svg>