<?xml version="1.0" encoding="utf-8" ?>
<svg baseProfile="full" height="300mm" version="1.1" viewBox="0,0,200,300" width="200mm" xmlns="http://www.w3.org/2000/svg" xmlns:ev="http://www.w3.org/2001/xml-events" xmlns:xlink="http://www.w3.org/1999/xlink"><defs /><rect fill="#222222" height="300" width="200" x="0" y="0" /><text fill="#FFFFFF" style="font-size:12px; font-family:Arial; font-weight:bold;" x="10" y="20">Over 4km Runs</text><text fill="#FFFFFF" style="font-size:4px; font-family:Arial" x="10" y="280">ATHLETE</text><text fill="#FFFFFF" style="font-size:9px; font-family:Arial" x="10" y="290">Fake David</text><text fill="#FFFFFF" style="font-size:4px; font-family:Arial" x="65" y="280">SPECIAL TRACKS</text><rect fill="yellow" height="2.6" width="2.6" x="65" y="283" /><text fill="#FFFFFF" style="font-size:3px; font-family:Arial" x="70" y="285.5">Over 10.0 km</text><rect fill="red" height="2.6" width="2.6" x="65" y="287" /><text fill="#FFFFFF" style="font-size:3px; font-family:Arial" x="70" y="289.5">Over 15.0 km</text><text fill="#FFFFFF" style="font-size:4px; font-family:Arial" x="120" y="280">STATISTICS</text><text fill="#FFFFFF" style="font-size:3px; font-family:Arial" x="120" y="285">Number: 14</text><text fill="#FFFFFF" style="font-size:3px; font-family:Arial" x="120" y="290">Weekly: 2.8</text><text fill="#FFFFFF" style="font-size:3px; font-family:Arial" x="141" y="285">Total: 100.9 km</text><text fill="#FFFFFF" style="font-size:3px; font-family:Arial" x="141" y="290">Avg: 7.2 km</text><text fill="#FFFFFF" style="font-size:3px; font-family:Arial" x="167" y="285">Min: 4.0 km</text><text fill="#FFFFFF" style="font-size:3px; font-family:Arial" x="167" y="290">Max: 13.0 km</text><polyline fill="none" points="16.88568755844608,49.759858347912086 16.72404115984682,50.155317853728775 16.986716557410546,50.06743800939876 17.370626753894612,49.43030835449463 18.60318054247182,50.287137571169296 19.977174929808825,50.353047407756094 24.200187090667896,51.429572653752984 31.676333021488972,55.515938834665576 38.546304957941175,58.48181430864497 38.829186155227944,58.45984497037716 39.677829747321084,56.372750368725974 40.30420954164583,56.04320776564418 45.71936389140319,56.35078087329748 49.21496725908946,57.66894770148792 55.59999999997672,57.77879467126331 48.91188026196323,57.60303950004163 45.51730589335784,56.32881137626828 40.12235734332353,56.06517728391918 39.677829747321084,56.28487237720401 38.76856875582598,58.34999825427076 38.404864359181374,58.41590628880658 30.948924228316173,55.340182314801496 25.35191768000368,52.08866780332755 22.179607109399512,50.814415851578815 12.400000000023283,49.45227836552658 15.713751169270836,49.95758816713351 17.28980355465319,49.913648218731396 22.846398503286764,51.01214496369357 25.37212347984314,52.00078853519517 32.302712815697305,55.82351249229396 38.22301216085907,58.45984497037716 38.849391955067404,58.39393694564933 39.8596819457598,56.15305534089566 41.92067352659069,56.15305534089566 39.920299345161766,56.08714680065168 38.74836295598652,58.56969164547627 31.47427502332721,55.55987794822431 27.554349859594367,53.253065634169616 22.381665107561275,50.968205172452144 12.46061739930883,49.47424837492872 20.765201122500002,50.66062645052443" stroke="#4DD2FF" stroke-linecap="round" stroke-linejoin="round" stroke-width="0.5"><title>2024-12-18 8.3km</title><desc>1734495982000</desc></polyline><polyline fill="none" points="82.95373134326655,47.96426402311772 82.20820895512588,48.13953401483013 82.47014925372787,47.920446508796886 82.20820895512588,48.095716526702745 82.04701492527965,47.85472022515023 82.12761194026098,48.073807780165225 83.7597014924977,49.213060434762156 87.32611940300558,50.79047989987885 88.17238805966917,52.126898102782434 89.11940298497211,52.87178430092172 90.1671641790308,53.02514298981987 97.56194029841572,57.01244082854828 104.25149253732525,60.01383265765617 104.73507462674752,60.0357405145769 105.68208955228329,57.932578805834055 106.26641791046131,57.603958430176135 111.86791044776328,57.954486817878205 115.3940298508387,59.18133288444369 121.59999999997672,59.29087246293784 114.84999999997672,59.18133288444369 111.86791044776328,57.97639482820523 106.16567164182197,57.625866466609295 105.58134328352753,57.954486817878205 104.5738805970177,60.1233719260199 94.68059701495804,55.98275920219021 93.99552238802426,55.303605517867254 91.51716417912394,53.901476820668904 88.53507462679408,52.718425532017136 78.40000000002328,51.07529084585258 88.03134328348096,52.34598247456597 89.72388059704099,53.09086811772431 90.0865671641659,52.981326229695696 97.64253731339704,57.100073140871245 102.84104477602523,59.159424963843776 104.27164179109968,60.0357405145769 104.81567164172884,59.90429334840155 105.82313432823867,57.801130699634086 107.91865671647247,57.73540662456071 105.94402985065244,57.86685476009734 104.89626865671016,60.14527977484977 103.98955223872326,60.07955622361624 97.15895522385836,57.143889287282946 95.2850746269105,55.91703472065274 88.4746268655872,52.60888350525056 78.5611940297531,51.228650471690344 88.17238805966917,52.3897993293358" stroke="#4DD2FF" stroke-linecap="round" stroke-linejoin="round" stroke-width="0.5"><title>2024-12-17 8.6km</title><desc>1734409492000</desc></polyline><polyline fill="none" points="149.72685660910793,50.02907271654112 154.04483886039816,50.709186198801035 155.61868285853416,51.45511530854856 156.14329752454069,51.30154182278784 163.62914525927044,55.42605905950768 170.42895843076985,58.365839275560575 170.79215319943614,58.32196217466844 171.72031760867685,56.150037508050445 172.22475478751585,55.8648340892687 178.07622606260702,56.28166976195644 181.00196170026902,57.40054154509562 187.60000000009313,57.510234628396574 186.95432041108143,57.72962067235494 180.98178421298508,57.510234628396574 177.53143390943296,56.23779235052643 172.34581971052103,56.0184051952092 171.55889771145303,56.50105672117206 170.6912657637149,58.365839275560575 170.34824848209973,58.47553199931281 164.2344698739471,55.88677282357821 156.02223260165192,51.49899343261495 154.95282578247134,51.36735904077068 153.82288650167175,50.709186198801035 144.40000000002328,49.41477531785495 153.96412891184445,50.68724707872025 155.31602055113763,51.4112371779629 156.10294255032204,51.34541996975895 163.56861279788427,55.40412029088475 170.28771602059714,58.34390072594397 170.85268566093873,58.300023621704895 171.53872022416908,56.435240650578635 172.22475478751585,55.90871155628702 178.13675852422602,56.28166976195644 180.94142923876643,57.40054154509562 187.47893507708795,57.576050458679674 181.30462400754914,57.510234628396574 177.7735637553269,56.23779235052643 172.20457730046473,55.97452774451813 171.70014012150932,56.21585364238126 170.65091078949627,58.47553199931281 163.42737038771156,55.513814117759466 156.04241008881945,51.49899343261495 154.24661373195704,50.862759993528016 144.64212984591722,49.45865374602727 153.9237739375094,50.709186198801035 155.33619803830516,51.4112371779629 156.20382998604327,51.433176244056085 164.41606725833844,55.799017876473954 170.28771602059714,58.40971636996255 170.85268566093873,58.32196217466844 171.53872022416908,56.08422135899309 173.87930873432197,56.128098793298705 171.74049509584438,56.17197622108506 170.73162073793355,58.58522468214505 163.3668379263254,55.49187535565579 156.12312003737316,51.47705437144032 155.47744044847786,51.49899343261495 153.88341896317434,50.731125317222904 144.64212984591722,49.546410582610406 153.74217655300163,50.68724707872025" stroke="yellow" stroke-linecap="round" stroke-linejoin="round" stroke-width="0.5"><title>2024-12-15 13.0km</title><desc>1734235831000</desc></polyline><polyline fill="none" points="16.671641790890135,97.58550206694053 16.671641790890135,97.82649565700558 18.48507462674752,98.37420762714464 20.9231343283318,98.87810173860635 22.192537313327193,98.7904680421052 23.42164179100655,99.49153688273509 24.126865671481937,99.51344525709283 32.46865671640262,103.96081145034987 38.45298507460393,106.50213336301385 38.835820895503275,106.48022550932365 39.64179104473442,104.5304199954553 40.24626865668688,104.13607573555782 45.80746268655639,104.42087997632916 49.011194029822946,105.64772586009349 55.59999999997672,105.77917332982179 48.89029850740917,105.64772586009349 45.96865671640262,104.44278798339656 40.145522388163954,104.04844360600691 39.58134328352753,104.31133991637034 38.61417910445016,106.54594906541752 31.582089552190155,103.67600676405709 25.033582089468837,100.01733741632779 22.0514925372554,98.85619331695489 12.400000000023283,97.45405093458248 17.517910447670147,97.97985511147999 22.0514925372554,98.7247427526454 24.0865671641659,99.38199498661561 30.27238805964589,102.75586666172603 36.4582089552423,105.4724624757946 37.98955223883968,106.43640979705378 38.81567164172884,106.34877835292718 39.56119402986951,104.5304199954553 40.18582089559641,104.0922596741002 45.70671641791705,104.33324793158681 48.70895522390492,105.58200210321229 51.00597014918458,105.60391002384131 48.547761194058694,105.51627833163366 45.66641791036818,104.37706395724672 40.40746268653311,104.04844360600691 39.58134328352753,104.28943189949496 38.573880597017705,106.45831765397452 31.19925373129081,103.45692604844226 24.126865671481937,99.55726200083154 22.01119402970653,98.85619331695489 18.82761194021441,98.4618414476572" stroke="#4DD2FF" stroke-linecap="round" stroke-linejoin="round" stroke-width="0.5"><title>2024-12-13 8.5km</title><desc>1734064159000</desc></polyline><polyline fill="none" points="83.07302786957007,98.07280417290167 87.5215871516848,98.7162523313018 90.58252243732568,99.67032807608484 96.94926783186384,103.26472552577616 104.07104393013287,106.41533452644944 104.64241851679981,106.4375217955967 105.5606991025852,104.32972384648747 106.13207368925214,104.04128717732965 111.74378837982658,104.32972384648747 114.55984884267673,105.48346772970399 121.59999999997672,105.61659173632506 115.23325460555498,105.57221707401914 111.53972602740396,104.30753642029595 105.98923004267272,104.0190997296595 105.3974492206471,104.2187866991153 104.72404345765244,106.12689987709746 104.23429381207097,106.57064537578844 102.78545111010317,105.7497156834288 96.92886159662157,103.46441300102742 91.01105337741319,100.06970771279885 87.86849315068685,98.98250633498537 90.99064714217093,99.98095672871568 94.74539442616515,102.24409856143757 102.82626358058769,105.7275283630006 104.00982522440609,106.50408359314315 104.60160604631528,106.37095998320729 105.51988663198426,103.95253737678286 104.56079357583076,106.30439815591672 104.05063769489061,106.4375217955967 97.15333018417004,103.50878797730547 89.80708549835254,99.38188689420349 89.09286726498976,99.404074687307 87.29711856401991,98.67187664087396 78.40000000002328,97.42935462421156" stroke="#4DD2FF" stroke-linecap="round" stroke-linejoin="round" stroke-width="0.5"><title>2024-12-11 6.6km</title><desc>1733890893000</desc></polyline><polyline fill="none" points="149.63820224720985,98.28366283414653 154.26966292143334,98.81143462419277 155.2808988763718,99.40517675993033 156.11011235963088,99.3831863317755 163.7146067415597,103.58332838487695 170.51011235953774,106.52998923088307 171.62247191020288,104.24303112982307 172.20898876409046,103.97915020879009 178.01348314608913,104.33099138448597 180.98651685391087,105.49646228339407 187.53932584275026,105.65039205807261 181.22921348328236,105.49646228339407 178.074157303432,104.44094166584546 171.78426966292318,104.17706092167646 170.67191011237446,106.59595891318168 163.57303370791487,103.62730861376622 161.53033707872964,102.24192825652426 156.049438202288,99.51512887622812 155.60449438204523,99.62508095157682 153.86516853934154,98.92138696167967 144.60224719101097,97.60195620849845 152.28764044947457,98.48157736600842 156.049438202288,99.36119590196176 161.34831460670102,101.97804554644972 163.5528089888394,103.45138765897718 170.34831460681744,106.48600943450583 170.7730337078683,106.33208009554073 171.66292134835385,104.37497150190757 172.20898876409046,103.97915020879009 175.7483146067243,104.33099138448597 177.54831460677087,104.17706092167646 181.08764044940472,105.51845225613215 187.59999999997672,105.62840209520073 180.7438202247722,105.47447230902617 177.97303370793816,104.37497150190757 172.1685393259395,104.00114029459655 171.66292134835385,104.19905099272728 170.9550561797805,106.17815067630727 170.57078651688062,106.50799933352391 164.2606741572963,103.86919975539786 160.47865168540739,101.60421130343457 156.00898876413703,99.40517675993033 152.7730337078683,98.5915298263717 144.40000000002328,97.40404108684743 154.7348314607516,98.8993964974652 170.024719101144,106.3760599148518 170.7730337078683,106.24412043718621 171.66292134835385,103.95716012138291 170.8134831461357,106.33208009554073 170.3887640449684,106.4200397276436 163.79550561797805,103.62730861376622 156.0696629214799,99.33920547051821 149.01123595505487,98.15171973916586" stroke="yellow" stroke-linecap="round" stroke-linejoin="round" stroke-width="0.5"><title>2024-12-09 12.1km</title><desc>1733738831000</desc></polyline><polyline fill="none" points="30.376248821849003,150.83010784519138 38.499151743599214,154.50453657866456 39.43562676711008,152.37957128550624 40.168520263861865,151.98113860114245 45.42092365690041,152.20249015840818 48.61715362861287,153.4641908860067 55.59999999997672,153.7076763746154 49.288972667302005,153.5748661328107 45.767012252588756,152.35743615037063 40.22959472204093,152.06967924386845 39.53741753066424,152.2910307351849 38.53986804909073,154.54880652736756 32.1066918001743,151.8704627607658 23.92271442047786,147.44339533572202 23.18982092360966,147.4655308369547 22.253345900098793,146.84573617952992 16.45127238461282,146.07099103942164 15.718378887861036,145.71682115961448 15.372290292172693,146.00458421910298 12.827521206461824,145.6061429855763 18.853534401510842,146.22594022905105 23.92271442047786,147.35485331437667 29.25655042415019,149.9889671651472 30.763053722912446,151.09573072308558 38.193779453402385,154.50453657866456 38.68237511778716,154.30532172802486 39.53741753066424,152.24676045012893 40.00565504247788,151.89259793210658 41.817530631436966,152.20249015840818 45.72629594721366,152.2246253050689 48.98360037698876,153.48632593869115 55.45749293116387,153.61913621998974 48.82073515560478,153.41992077571922 45.72629594721366,152.26889559344272 40.148162111174315,152.02540892586694 39.3134778511012,152.7337332229945 38.51950989628676,154.54880652736756 30.946277097216807,151.27281250979286 23.902356267673895,147.44339533572202 23.434118755860254,147.5319373306993 20.807917059399188,146.66865175418206 12.400000000023283,145.45119347266154 21.19472196046263,146.66865175418206 23.250895381672308,147.4212598328886 24.024505183799192,147.39912432839628 26.650706880376674,148.83792869144236" stroke="#4DD2FF" stroke-linecap="round" stroke-linejoin="round" stroke-width="0.5"><title>2024-12-06 9.2km</title><desc>1733479157000</desc></polyline><polyline fill="none" points="82.78260869567748,146.10221830234514 88.27601683035027,146.7610078229045 89.44740532967262,147.4856745947327 90.09368863969576,147.3539171323646 97.62692847137805,151.5701267144177 104.21093969151843,154.49069486994995 104.87741935485974,154.2930633512151 105.58429172518663,152.4045777116262 106.35175315581728,152.09714867168805 111.80476858350448,152.3606592969445 114.87461430579424,153.52449507414713 121.60000000009313,153.7440862149233 114.95539971953258,153.52449507414713 111.76437587663531,152.4265369164641 106.25077138852794,152.0751894422574 105.54389901820105,152.51437371957581 104.5340813464718,154.53461296725436 97.08162692852784,151.37249323751894 95.38513323990628,150.2086489633657 90.11388499301393,147.52959373575868 89.52819074341096,147.5735128702363 88.05385694256984,146.87080593314022 78.40000000002328,145.46538703277474 88.05385694256984,146.84884631435852 91.08330995799042,148.12250149910687 90.19467040675227,147.52959373575868 82.80280504911207,146.12417797680246" stroke="#4DD2FF" stroke-linecap="round" stroke-linejoin="round" stroke-width="0.5"><title>2024-12-03 5.6km</title><desc>1733220329000</desc></polyline><polyline fill="none" points="150.03916083928198,146.32115150225582 154.12755244749133,146.75911623242428 155.5172027972294,147.5693492628052 157.28951048944145,147.7883307794982 159.20279720285907,149.03652230920852 161.82097902090754,150.02193293056916 163.4925874125911,151.31391073999112 170.68251748254988,154.4671886683209 171.58881118881982,152.51829171914142 172.31384615390562,152.0365399196744 177.81202797207516,152.34310933799134 181.19552447565366,153.5912815257907 185.92839160840958,153.54748610014212 187.59999999997672,153.67887235750095 187.0965034965193,153.81025855612825 180.994125874131,153.6350769448909 177.81202797207516,152.43070054164855 172.29370629379991,152.12413121468853 171.68951048958115,152.40880274315714 170.76307692320552,154.4890863134642 170.31999999994878,154.53288159880321 162.86825174826663,151.33580862006056 158.84027972025797,149.03652230920852 153.9462937063072,146.8467091001221 144.40000000002328,145.51091503087082 154.2886713288026,146.80291266954737 157.14853146858513,148.11680274858372 153.90601398597937,146.9124037338188 144.44027972023468,145.4671184012259 150.28083916089963,146.27735499330447" stroke="#4DD2FF" stroke-linecap="round" stroke-linejoin="round" stroke-width="0.5"><title>2024-12-02 6.1km</title><desc>1733112856000</desc></polyline><polyline fill="none" points="12.400000000023283,192.05029989391915 13.680000000051223,192.58381100650877 16.624000000068918,196.52712565942784 16.36800000013318,196.27197151680593 16.92266666679643,196.24877567525255 17.648000000044703,195.36733241693582 20.2933333334513,195.76166260417085 21.274666666635312,196.41114652960096 23.23733333335258,196.80547539467807 25.34933333331719,198.12763323885156 27.90933333337307,199.10185121546965 29.253333333414048,200.28482608875493 36.93333333346527,203.78733318313607 37.55200000014156,203.78733318313607 38.49066666665021,201.63016460000654 39.109333333326504,201.32862371497322 45.01866666669957,201.63016460000654 48.66666666674428,202.92910661225324 55.60000000009313,202.9986926385609 48.709333333419636,202.97549729817547 45.04000000003725,201.67655547944014 39.17333333333954,201.37501463937224 38.53333333344199,201.65336004056735 37.381333333440125,203.94970010610996 30.04266666667536,200.864714090887 25.072000000043772,198.05804612391512 20.101333333412185,195.7848584819585 14.064000000129454,195.06578546616947" stroke="#4DD2FF" stroke-linecap="round" stroke-linejoin="round" stroke-width="0.5"><title>2024-11-29 4.6km</title><desc>1732853630000</desc></polyline><polyline fill="none" points="82.05856459331699,196.60662944984506 81.74851674644742,196.78642414402566 83.07138755987398,196.8088984732167 81.93454545468558,196.6740524727502 82.96803827758413,196.7639498130884 82.84401913871989,197.078590293444 84.49760765547398,194.94352344863 88.38354066980537,194.67382971951156 89.62373205740005,195.34806359015056 91.380669856444,195.7076543715957 98.26373205741402,199.64065056023537 105.167464114842,202.62969337037066 106.20095693785697,200.4497177026933 106.8210526315961,200.15755481822998 112.69129186612554,200.4497177026933 115.66775119618978,201.6633143480285 121.59999999997672,201.7307362407737 115.79177033493761,201.61836641121772 112.25722488039173,200.38229552371195 106.73837320576422,200.06765848916257 106.24229665077291,200.35982146067545 105.167464114842,202.6072194747394 97.8503349282546,199.64065056023537 90.28516746417154,195.4154868943151 88.0114832536783,194.71877869110904 78.40000000002328,193.37030662960024 88.21818181825802,194.67382971951156 89.47904306231067,195.325589152053 90.80191387562081,195.5053846097435 96.134736842243,198.33714893311844 88.1561722488841,194.76372765598353 82.96803827758413,194.06701794741093" stroke="#4DD2FF" stroke-linecap="round" stroke-linejoin="round" stroke-width="0.5"><title>2024-11-28 6.3km</title><desc>1732767063000</desc></polyline><polyline fill="none" points="144.689932885929,192.83790728778695 151.06845637585502,193.91499927974655 152.51812080538366,194.67684284830466 153.19463087257463,194.62430196540663 159.8389261745615,197.8818219016248 162.13422818796244,199.40549025149085 170.54228187922854,203.08328328133211 171.72617449669633,200.53510219199234 172.5959731544135,200.06224182000733 178.998657718068,200.40375215225504 181.94630872481503,201.6384405940771 184.50738255027682,202.0587590773066 187.59999999997672,201.97994939985801 182.9369127516402,201.9011397048016 179.43355704692658,200.53510219199234 172.83758389262948,200.19359198701568 171.84697986580431,200.58764219417935 170.54228187922854,203.16209271221305 161.38523489935324,199.3004098869569 153.19463087257463,194.62430196540663 152.5906040269183,194.75565415801248 150.51275167788845,193.8361877821444 144.40000000002328,193.02180127549218" stroke="#4DD2FF" stroke-linecap="round" stroke-linejoin="round" stroke-width="0.5"><title>2024-11-25 4.0km</title><desc>1732507947000</desc></polyline><polyline fill="none" points="12.400000000023283,238.61128631889005 21.20642054581549,239.74222713298514 23.598715890897438,241.13705065555405 24.916211878182366,240.98625910878764 27.343178170151077,241.7779142280633 29.87415730347857,243.58740699247574 34.658747993642464,245.66077616307302 38.368539325892925,248.22420266503468 46.75890850729775,251.50386175405583 49.567255216650665,253.20022880431497 50.2953451044159,252.89865285539418 51.85553772072308,249.24203017429681 55.59999999997672,249.16663561417954 51.994221508852206,249.35512199345976 49.983306581154466,253.38871368108084 38.92327447840944,248.7896626451402 24.84686998394318,241.2501442861103 23.91075441427529,241.43863361433614 27.239165329141542,242.07949680485763 28.86869983957149,243.58740699247574 31.74638844304718,244.37905804204638 38.29919743177015,248.29959736551973 48.80449438211508,252.97404685945367 50.2953451044159,253.12483483392862 51.85553772072308,249.20433289575158 50.19133226328995,253.38871368108084 39.096629213541746,248.71426801770576" stroke="#4DD2FF" stroke-linecap="round" stroke-linejoin="round" stroke-width="0.5"><title>2024-11-20 4.0km</title><desc>1732095798000</desc></polyline><polyline fill="none" points="80.9236325013917,241.29790293442784 87.30154009570833,242.22087344733882 88.83866171014961,242.9941711073916 89.89399893791415,243.0939513204794 95.79012214555405,246.01250939903548 97.3501858736854,247.20985920005478 105.74699946900364,250.92660526680993 106.13701540103648,250.87671633108403 107.07764206058346,248.68159579785424 107.76590547012165,248.157758089219 114.14381306432188,248.50698331941385 117.4933616570197,249.8539915094443 121.60000000009313,250.00365875157877 117.42453531594947,249.87893605447607 113.77673924597912,248.48203867216944 107.90355815202929,248.18270276061958 106.93998937867582,248.83126356403227 106.04524694639258,250.97649419520167 97.51078066928312,247.45930653635878 90.9493361657951,243.79241197975352 87.25565586844459,242.32065389095806 78.40000000002328,241.02350580479833" stroke="#4DD2FF" stroke-linecap="round" stroke-linejoin="round" stroke-width="0.5"><title>2024-11-19 4.1km</title><desc>1731989484000</desc></polyline></svg>