<?xml version="1.0" encoding="utf-8" ?>
<svg baseProfile="full" height="300mm" version="1.1" viewBox="0,0,200,300" width="200mm" xmlns="http://www.w3.org/2000/svg" xmlns:ev="http://www.w3.org/2001/xml-events" xmlns:xlink="http://www.w3.org/1999/xlink"><defs /><rect fill="#222222" height="300" width="200" x="0" y="0" /><text fill="#FFFFFF" style="font-size:12px; font-family:Arial; font-weight:bold;" x="10" y="20">Over 4km Runs</text><text fill="#FFFFFF" style="font-size:4px; font-family:Arial" x="10" y="280">ATHLETE</text><text fill="#FFFFFF" style="font-size:9px; font-family:Arial" x="10" y="290">Fake David</text><text fill="#FFFFFF" style="font-size:4px; font-family:Arial" x="65" y="280">SPECIAL TRACKS</text><rect fill="yellow" height="2.6" width="2.6" x="65" y="283" /><text fill="#FFFFFF" style="font-size:3px; font-family:Arial" x="70" y="285.5">Over 10.0 km</text><rect fill="red" height="2.6" width="2.6" x="65" y="287" /><text fill="#FFFFFF" style="font-size:3px; font-family:Arial" x="70" y="289.5">Over 15.0 km</text><text fill="#FFFFFF" style="font-size:4px; font-family:Arial" x="120" y="280">STATISTICS</text><text fill="#FFFFFF" style="font-size:3px; font-family:Arial" x="120" y="285">Number: 29</text><text fill="#FFFFFF" style="font-size:3px; font-family:Arial" x="120" y="290">Weekly: 2.4</text><text fill="#FFFFFF" style="font-size:3px; font-family:Arial" x="141" y="285">Total: 234.2 km</text><text fill="#FFFFFF" style="font-size:3px; font-family:Arial" x="141" y="290">Avg: 8.1 km</text><text fill="#FFFFFF" style="font-size:3px; font-family:Arial" x="167" y="285">Min: 4.0 km</text><text fill="#FFFFFF" style="font-size:3px; font-family:Arial" x="167" y="290">Max: 13.0 km</text><polyline fill="none" points="37.84978540777229,50.25953534389555 39.20944206009153,50.72991342752357 44.20000000001164,50.763511824538 39.37939914164599,50.79711021651747 37.06180257513188,49.75555773690576 32.519313304743264,49.453170632070396 31.530472102982458,51.35148296173429 31.23690987128066,51.401880416451604 25.180257510684896,48.7475991439278 23.557939914113376,47.706037197771366 19.262660944252275,45.690097182945465 11.799999999988358,44.514123850734904 18.98454935621703,45.50530177974724 21.379399141587783,46.42927728108771 24.423175965668634,47.90763020799204 25.952789699600544,48.98278988528182 31.128755364741664,51.317884652351495 31.545922746823635,51.16669219810865 32.17939914163435,49.654762080375804 32.565665236033965,49.43637133661832 35.34678111586254,49.738758463965496 36.73733905580593,49.654762080375804 39.2248927038745,50.67951582261594 43.999141630891245,50.746712626627414 37.463519313314464,50.276334578040405 37.54077253222931,50.746712626627414 37.401716738182586,50.19233839471417 36.84549356222851,49.940349656913895 32.565665236033965,49.503568511034246 32.2566523605492,49.67156135955884 31.40686695277691,51.48587614927965 25.58197424892569,48.98278988528182 24.515879828308243,48.12602243233414 22.553648068686016,47.18525442056125" stroke="#4DD2FF" stroke-linecap="round" stroke-linejoin="round" stroke-width="0.5"><title>2025-02-10 6.3km</title><desc>1739162078000</desc></polyline><polyline fill="none" points="48.03155579988379,46.69337570207426 49.990874106646515,46.75144818649278 58.825618471659254,48.04839696720592 61.53304013190791,47.93225256333244 61.76459593180334,48.82269167035702 62.779879054403864,48.88076368035399 63.97328202298377,49.32598199399945 64.79263331490802,48.14518393090111 72.09554700372973,48.00968217168702 72.48741066514049,48.68719026334293 72.95052226493135,48.80333433080523 73.2533260032069,48.62911821018497 73.55612974154064,47.81610810778511 74.94546454085503,47.719321021882934 80.19999999995343,48.37747249707172 75.26608026382746,47.69996360038931 73.50269378779922,47.79675069345103 73.16426608012989,48.62911821018497 72.86146234185435,48.783976989783696 72.09554700372973,47.99032477173023 64.88169323798502,48.1064691497304 64.36514568433631,48.454901973178494 64.00890599231934,49.34533929474128 61.85365585482214,48.84204900849727 61.85365585482214,48.08711175699136 61.62210005498491,47.89353775056952 59.00373831769684,48.02903957015951 50.721165475435555,46.80952065793099 47.79999999998836,46.67401820438681 50.32930181414122,46.77080567838857 58.43375481030671,47.99032477173023 61.49741616263054,47.89353775056952 61.74678394716466,48.80333433080523 63.99109400762245,49.32598199399945 64.52545354585163,48.319400374937686 64.98856514558429,48.1064691497304 72.02429906540783,47.99032477173023 72.52303463435965,48.7065476114949 72.87927432649303,48.783976989783696 73.2533260032069,48.551688785883016 73.39582188014174,47.9128951576713 73.84112149523571,47.73867844196502 79.82594832318136,48.319400374937686 75.51544804830337,47.69996360038931 73.76987355679739,47.69996360038931 73.28894997248426,47.951609967596596 72.98614623415051,48.783976989783696 72.62990654201712,48.7065476114949 72.07773501914926,47.951609967596596 64.81044529960491,48.08711175699136 64.382957668975,48.416187237991835 64.0267179767834,49.32598199399945 61.83584387018345,48.82269167035702 61.62210005498491,47.81610810778511 58.718746564001776,47.93225256333244 49.77713029133156,46.65466070525872 48.20967564592138,46.71273319830652 49.81275426049251,46.69337570207426 59.52028587128734,48.06775436285534 61.58647608564934,47.89353775056952 61.78240791638382,48.82269167035702 63.1717427156982,48.996907661581645 61.85365585482214,48.80333433080523 61.49741616263054,47.835465520605794 58.80780648702057,47.951609967596596 50.59648158325581,46.75144818649278 48.40560747659765,46.71273319830652 50.75678944477113,46.80952065793099" stroke="#4DD2FF" stroke-linecap="round" stroke-linejoin="round" stroke-width="0.5"><title>2025-01-25 9.9km</title><desc>1737761473000</desc></polyline><polyline fill="none" points="84.23200000007637,46.41549867593858 94.79800000006799,47.941319524965365 97.85800000012387,47.80438724567648 97.84000000008382,49.0563368636067 99.02800000016578,49.115021855948726 100.05400000000373,49.58450132404687 100.91800000006333,48.31299249561562 108.28000000002794,48.13693694329413 108.96400000003632,48.99765185819706 109.41399999998976,48.86072012803925 109.54000000015367,48.13693694329413 109.82800000009593,47.92175777514058 116.20000000006985,48.52817134419456 111.23200000007637,47.86307251693506 109.66600000008475,48.00000476570858 109.18000000005122,48.978090186821646 108.78400000010151,48.86072012803925 108.62200000009034,48.273869049720815 108.28000000002794,48.117375208006706 100.95400000002701,48.25430732459063 100.59400000004098,48.4499245104962 100.16200000001118,49.54537806699227 97.9660000000149,49.01721352808818 97.80400000012014,48.039128252334194 95.30200000002515,48.215183869950124 85.49200000008568,46.78717379961745 83.80000000004657,46.806735633683275 85.99600000015926,46.86542112722236 94.74400000006426,48.176060409561615 97.55200000014156,48.01956650974171 97.7860000000801,48.23474559803435 97.7860000000801,48.91940516397881 100.05400000000373,49.54537806699227 100.90000000002328,48.273869049720815 108.26200000010431,48.117375208006706 108.71200000005774,48.86072012803925 109.1260000000475,48.978090186821646 109.9000000001397,47.90219602387515 115.12000000011176,48.31299249561562 110.04400000011083,47.84351076131861 109.54000000015367,48.00000476570858 109.45000000006985,48.76291170580953 109.1260000000475,48.93896683969069 108.26200000010431,48.05868999341328 100.9900000001071,48.25430732459063 100.52200000011362,48.54773304898117 100.10800000012387,49.50625480411691 97.94800000009127,48.978090186821646 97.67800000007264,47.98044302027847 95.28400000010151,48.19562214045436 85.6720000001369,46.76761196408188 84.19600000011269,46.82629746629391 85.85200000007171,46.78717379961745 88.15600000007544,47.15884839883074" stroke="#4DD2FF" stroke-linecap="round" stroke-linejoin="round" stroke-width="0.5"><title>2025-01-19 8.1km</title><desc>1737283232000</desc></polyline><polyline fill="none" points="124.08267164870631,45.054714682424674 126.79149929940468,45.43316487013362 127.94161606719717,46.02552038378781 128.78907052776776,46.04197468094935 132.81447921530344,48.14811459425255 133.31387202243786,48.60883002301853 138.23213451652555,50.714945458836155 139.33685193833662,51.40601021028124 139.63951424567495,51.22501727004419 140.29023820644943,49.69479830254568 140.71396543667652,49.447987798790564 144.69397477817256,49.64543622385827 147.2363381597097,50.550405913600116 152.20000000001164,50.6820375595853 147.13040635210928,50.550405913600116 144.83017281640787,49.61252816527849 140.7744978981791,49.41507971077226 140.30537132179597,49.59607413416961 139.6243811302702,51.22501727004419 139.41251751512755,51.323740710373386 133.9494628678076,49.03663634629629 128.60747314343462,46.0748832715617 128.18374591309112,46.107791857255506 126.91256422229344,45.548345233357395 123.43194768804824,45.21925832198758 119.79999999998836,44.52817421189684 127.13956095284084,45.59770822773862 128.68313872022554,46.05842897684488 134.22185894439463,49.08599856104411 138.217001401179,50.73139940664987 139.2006538999849,51.43891800161509 139.60924801498186,51.30728680672473 140.27510509104468,49.79352242684399 140.7744978981791,49.53025799736497 144.9361046239501,49.72770634885819 147.28173750586575,50.583313832452404 152.20000000001164,50.714945458836155 147.25147127505625,50.6820375595853 144.76964035496349,49.744160370202735 140.75936478277436,49.53025799736497 140.33563755254727,49.72770634885819 139.6243811302702,51.35664851400361 139.07958897709614,51.37310241398518 133.04147594579263,48.60883002301853 128.74367118166992,46.15715472663578 128.19887902843766,46.19006330006232 127.01849602995208,45.63061688457674 119.86053246137453,44.57753743433568 127.30602522188565,45.61416255676886 128.13834656699328,46.09133756501251 128.62260625872295,46.04197468094935 134.20672582904808,49.10245263019169 139.4276506305323,51.47182578811771 140.39617001393344,49.66189025131462 142.0154133582255,49.66189025131462 140.59290051378775,49.64543622385827 139.6243811302702,51.389556312715285 139.1703876692918,51.323740710373386 132.9960765996948,48.60883002301853 128.6982718355721,46.140700438059866 128.25941148994025,46.17360901396023 127.04876226064516,45.61416255676886 123.65894441842102,45.21925832198758" stroke="yellow" stroke-linecap="round" stroke-linejoin="round" stroke-width="0.5"><title>2025-01-17 12.3km</title><desc>1737088953000</desc></polyline><polyline fill="none" points="159.07640449434984,44.90762928091863 159.2887640449335,44.544785120888264 160.21404494380113,45.155022685357835 164.52191011235118,46.012651013516006 166.9488764044363,47.26610182391596 167.88932584266877,48.00827330055472 175.32191011239775,51.43872246345563 175.61011235951446,51.24081337968528 176.24719101120718,49.73999706999166 176.64157303364482,49.47611622756813 180.87359550554538,49.73999706999166 183.194382022426,50.5976076356601 188.1848314605886,50.68007001494698 183.30056179768872,50.5976076356601 180.69157303369138,49.73999706999166 176.76292134833056,49.54208646767074 176.30786516855005,49.70701198192546 175.59494382014964,51.35626036670874 175.39775280898903,51.42223004657717 169.8612359550316,49.04730918777932 164.56741573027102,46.062129469559295 162.82303370791487,45.616822967262124 155.79999999998836,44.62724975495075 162.6865168539225,45.55085155738925 164.12752808985533,46.062129469559295 164.5370786516578,46.012651013516006 170.46797752811108,49.27820538933156 174.07808988756733,50.69656248710817 175.15505617973395,51.389245209109504 175.5646067415364,51.290290667224326 176.21685393259395,49.72350452655519 176.67191011231625,49.49260878942732 180.72191011236282,49.73999706999166 183.16404494375456,50.58111515609198 188.20000000001164,50.647085066942964 183.23988764040405,50.58111515609198 180.85842696623877,49.80596723144117 176.77808988763718,49.509101350122364 176.30786516855005,49.73999706999166 175.44325842696708,51.455214879111736 170.10393258422846,49.16275731865608 164.61292134824907,46.144593538323534 163.86966292135185,46.11160791449947 163.06573033705354,45.64980866480619 157.68089887645328,44.874643472750904" stroke="#4DD2FF" stroke-linecap="round" stroke-linejoin="round" stroke-width="0.5"><title>2025-01-15 9.1km</title><desc>1736916504000</desc></polyline><polyline fill="none" points="14.624615384615026,85.21967914252309 14.83608391607413,85.58100149870734 15.5762237762101,86.02444176266727 19.276923076889943,86.63211771263741 21.285874125838745,87.28906280109368 23.672447552380618,88.84929953966639 31.20979020971572,92.29820472499705 31.542097902100068,92.21608856186504 32.17650349647738,90.73799239598156 32.690069930045865,90.45879534073174 36.859020978969056,90.721569049565 39.13986013975227,91.62485128473782 44.199999999953434,91.73981421280769 39.07944055943517,91.67412111839803 36.81370629364392,90.77083908508939 32.67496503487928,90.45879534073174 32.17650349647738,90.73799239598156 31.466573426499963,92.314627953936 30.998321678256616,92.314627953936 26.04391608381411,90.11390437259979 20.560839160869364,87.05913224283722 20.243636363593396,87.15767394003342 18.32531468529487,86.54999943888106 11.799999999988358,85.63027268317819 17.26797202794114,86.28722075741098 20.530629370594397,87.0098613777227 25.409510489436798,89.70331918318698 31.300419580365997,92.38032085746818 31.64783216774231,92.1832420880819 32.357762237719726,90.52448879730946 33.89846153842518,90.55733551825688 32.403076922986656,90.5901822343003 31.421258741233032,92.36389763344778 25.66629370622104,90.01536399689212 20.651468531403225,87.09197948010114 18.884195804130286,86.58284675206232 14.126153846096713,85.92589955887524" stroke="#4DD2FF" stroke-linecap="round" stroke-linejoin="round" stroke-width="0.5"><title>2025-01-14 7.8km</title><desc>1736829619000</desc></polyline><polyline fill="none" points="52.23051162791671,86.07185970834689 51.97432558139553,85.71137871110113 52.577116278989706,85.77692075453524 57.64055813953746,87.39908010559157 60.759999999951106,88.93930114292016 62.146418604650535,89.90603011404164 67.16465116274776,92.1999462620297 67.49618604645366,92.10163606070273 68.17432558134897,90.56143716904626 68.6113488371484,90.29927458139719 72.69525581388734,90.56143716904626 74.65432558138855,91.36430814977211 76.05581395345507,91.54454408955644 80.19999999995343,91.54454408955644 74.94065116276033,91.41346342072939 72.71032558137085,90.56143716904626 68.65655813954072,90.28288940928178 68.21953488368308,90.4631262352923 67.51125581393717,92.10163606070273 67.08930232556304,92.1180210973107 62.040930232498795,89.93880051317683 57.4295813953504,87.41546549252234 55.10883720923448,86.448725573704 47.79999999998836,85.4164392738603 55.19925581390271,86.48149648800609 57.4295813953504,87.31715315248584 61.46827906969702,89.59471107875288 67.11944186041364,92.15079116683046 67.48111627908656,92.0524809435301 68.08390697668074,90.57782232036698 68.52093023259658,90.29927458139719 72.83088372088969,90.57782232036698 75.09134883718798,91.42984850860375 80.04930232552579,91.56092916771013 74.98586046509445,91.38069324129901 72.72539534879616,90.52866686269408 68.50586046511307,90.28288940928178 68.14418604644015,90.49589655139425 67.43590697675245,92.15079116683046 66.86325581389247,92.10163606070273 66.09469767438713,91.5773142445978 61.82995348831173,89.87325971004611 56.465116279025096,86.84197622291686 54.8526511627133,86.39956919310498 47.860279069747776,85.40005373797612 56.49525581393391,86.8255907932471 61.86009302322054,89.77494846866466 66.13990697672125,91.54454408955644 67.13451162789715,92.18356123154808 67.48111627908656,92.08525102282874 68.14418604644015,90.47951139397628 68.56613953487249,90.28288940928178 72.61990697670262,90.49589655139425 74.71460465108976,91.33153796305123 75.98046511627035,91.46261868072907 74.65432558138855,91.33153796305123 72.57469767436851,90.49589655139425 68.5962790697231,90.23373388567416 68.17432558134897,90.43035591430089 67.49618604645366,92.01971085931291 66.9536744185607,92.03609590200358 65.55218604649417,91.26599757488293 61.86009302322054,89.84048930111749 56.450046511541586,86.84197622291686 54.37041860463796,86.31764186768851" stroke="yellow" stroke-linecap="round" stroke-linejoin="round" stroke-width="0.5"><title>2025-01-10 13.0km</title><desc>1736482744000</desc></polyline><polyline fill="none" points="86.90373831772013,85.15369670784276 88.38747663551476,86.1578848161007 90.96130841120612,86.65174614592979 93.4897196261445,87.62300354099716 96.2300934579107,89.25273093365831 103.31570093455957,92.44630329216307 103.64878504670924,92.18291762744775 103.78504672896815,90.73429085992393 103.98186915880069,90.48736489540897 108.75102803739719,90.80013773719838 111.24915887851967,91.72199195882422 116.12429906544276,91.83722346607829 111.03719626169186,91.67260700871702 108.75102803739719,90.81659945345018 104.07271028036484,90.47090315465175 103.7699065420893,90.81659945345018 103.64878504670924,92.24876407303964 103.31570093455957,92.44630329216307 97.89551401865901,90.14166808150185 92.5661682242644,87.16206836038327 90.90074766351609,86.65174614592979 83.79999999998836,85.66402238237788 91.29439252335578,86.68467019533273 92.036261682224,87.09622039894748 92.55102803732734,87.09622039894748 97.98635514016496,90.07582100796571 103.08859813079471,92.38045690537547 103.60336448595626,92.24876407303964 103.75476635515224,90.75075258110883 104.02728971961187,90.50382663494383 108.75102803739719,90.81659945345018 111.37028037378332,91.72199195882422 116.19999999995343,91.78783854175708 110.96149532712298,91.65614535621717 108.73588785040192,90.75075258110883 104.0878504673019,90.50382663494383 103.83046728972113,90.66844396301894 103.81532710278407,91.83722346607829 103.42168224300258,92.42984169727424 97.78953271027422,90.09228277821967 92.59644859808031,87.1456063718797 90.79476635513129,86.65174614592979 83.79999999998836,85.61463607831683 89.09906542050885,86.28958127865917 92.49046728975372,87.06329641086631 97.47158878506161,89.84535609625163 103.11887850466883,92.38045690537547 103.54280373838264,92.26522568135988 103.8758878504741,91.44214376233867 103.54280373838264,92.34753370468388 102.87663551402511,92.24876407303964 97.88037383178016,90.1087445471785 92.5661682242644,87.04683441498491 92.21794392523589,87.12914438209555 91.05214953271206,86.56943600093655 89.12934579444118,86.35542948047805" stroke="yellow" stroke-linecap="round" stroke-linejoin="round" stroke-width="0.5"><title>2025-01-08 12.0km</title><desc>1736310892000</desc></polyline><polyline fill="none" points="123.25357643759344,86.80720431025838 123.7079943898716,86.08253578365839 123.76858345017536,85.37433470097312 124.0563814866473,85.12728727786453 124.38962131837616,85.19316661768244 124.23814866755856,85.30845541514282 125.70743338007014,85.86842871888075 126.4647966339835,86.49427955610736 129.56998597475467,87.58127943040745 134.7200561009813,90.36463353046565 139.35511921456782,92.42330484610284 139.6580645160866,92.12685735813284 139.70350631134352,90.75989991008828 140.127629733528,90.47991963087406 144.76269284711452,90.80930815786996 147.18625525943935,91.73159342251893 152.20000000001164,91.83040947269183 147.15596072934568,91.69865472934907 144.82328190741828,90.84224698354956 140.06704067322426,90.52932794118533 139.74894810654223,90.85871639454854 139.70350631134352,92.12685735813284 139.44600280502345,92.47271272212674 133.76577840116806,90.05171381204855 128.5702664796845,87.13659830970573 127.99467040668242,87.13659830970573 126.9343618513667,86.62603740132181 119.79999999998836,85.72020062945376 127.14642356242985,86.77426488329365" stroke="#4DD2FF" stroke-linecap="round" stroke-linejoin="round" stroke-width="0.5"><title>2025-01-06 5.2km</title><desc>1736137119000</desc></polyline><polyline fill="none" points="159.99383177573327,86.31427516303665 160.06953271024395,85.68871566084272 160.56915887858486,84.9479192228755 160.93252336449223,86.23196480341721 160.41775700933067,86.57766810776957 161.3715887850267,86.52828195455368 164.52074766356964,87.28553509087942 168.79028037382523,89.29388953551825 169.59271028038347,90.00174781683017 175.34598130837549,92.5533111748955 175.6942056074622,92.33931021869648 175.75476635515224,90.95652981341118 176.04242990654893,90.69314208850847 181.02355140191503,91.03883841309289 183.4157009345363,91.94423098585685 188.20000000001164,92.02653921763704 183.21887850470375,91.91130768459698 180.857009345782,90.98945325700333 176.10299065418076,90.69314208850847 175.81532710284228,90.94006808983977 175.70934579439927,92.33931021869648 175.40654205606552,92.63561917981133 169.9712149532861,90.39683052267355 165.52000000001863,87.87816616985947 163.27925233647693,86.97275693612755 155.79999999998836,85.80395043906174 160.88710280373925,86.42950961498718 164.49046728975372,87.23614909590106 169.06280373834306,89.77128257886216 174.3467289719265,92.07592414197279 175.1642990654218,92.65208077711577 175.67906542058336,92.28992535320867 175.81532710284228,90.85775945337082 176.02728971955366,90.64375685511914 179.38841121492442,91.03883841309289 180.857009345782,90.95652981341118 183.29457943921443,91.89484603209712 188.18485981307458,91.97715428224183 182.88579439249588,91.81253775129153 180.76616822433425,90.98945325700333 176.14841121499194,90.64375685511914 175.81532710284228,90.89068291164585 175.7699065420311,92.24054047673417 175.43682242988143,92.5697727783554 170.046915887855,90.38036875739635 165.55028037383454,87.77939443371724 163.68803738319548,87.07152903285169 155.9968224299373,85.88626095812651" stroke="#4DD2FF" stroke-linecap="round" stroke-linejoin="round" stroke-width="0.5"><title>2025-01-03 9.5km</title><desc>1735878536000</desc></polyline><polyline fill="none" points="15.03241217811592,126.45667680245242 16.92936768155778,126.9846966185869 19.099484777543694,127.18270372504776 20.146604215551633,127.71072181017371 20.541170960234012,127.66122016817098 25.04833723657066,130.15278907885659 31.103419203776866,132.94133296434302 31.558688524644822,132.85883216993534 32.18088992976118,131.3573123424867 32.63615925068734,131.09330780418532 36.703231850173324,131.34081206805422 39.116159250668716,132.24832533620065 44.20000000001164,132.3968271533231 39.495550351333804,132.26482554302493 36.885339578439016,131.42331342790567 32.66651053872192,131.1758092561795 32.18088992976118,131.43981369619723 31.376580796320923,133.00733357772697 25.488430913421325,130.53229711529275 20.525995316216722,127.76022344113153 20.131428571534343,127.79322452224733 18.917377049278002,127.21570489225269 17.202529274043627,127.133201965029 11.799999999988358,126.19266642228467 19.038782201474532,127.1992043092614 21.178548009425867,128.20573762163986 19.17536299774656,127.24870605452452 14.728899297479074,126.57218124480278" stroke="#4DD2FF" stroke-linecap="round" stroke-linejoin="round" stroke-width="0.5"><title>2025-01-02 5.6km</title><desc>1735817809000</desc></polyline><polyline fill="none" points="51.53962616826175,126.58748689528147 55.14299065421801,127.18012088845717 56.202803738357034,127.7398293113365 57.217196261684876,127.92091114459618 62.72822429909138,130.94989435262687 67.3762616822496,132.9582190226647 67.7699065420311,132.54667856899323 68.20897196256556,131.443746373654 68.73887850466417,131.18035876643262 72.62990654207533,131.3120526092971 75.47626168222632,132.34913887901348 80.20000000001164,132.38206217292463 78.35289719625143,132.49729366303654 75.20373831770848,132.29975392890628 72.84186915890314,131.37789950131264 68.75401869165944,131.1474352934747 68.28467289719265,131.32851433414908 67.58822429913562,132.89237260154914 67.33084112155484,133.00760382556473 59.912149532698095,129.7481831574405 56.50560747657437,127.7398293113365 56.02112149540335,127.77275329208351 54.97644859814318,127.24596901181212 47.79999999998836,126.17593457587645 54.43140186916571,127.09781070669123 56.142242990667,127.70690532571462 56.50560747657437,127.60813333941041 61.365607476676814,130.34080867322336 67.33084112155484,133.02406542412064 68.33009345794562,131.27912915595516 68.73887850466417,131.1145118156128 69.88953271025093,131.26266742742155 68.2998130840715,131.24620569768013 67.58822429913562,132.85944938367174 67.31570093455957,132.9417574192048 61.819813084148336,130.6206590587244 56.732710280339234,127.78921528058709 56.051401869161054,127.7398293113365 54.84018691588426,127.19658292114036 53.53813084110152,127.24596901181212 48.25420560745988,126.22532089470769 51.58504672901472,126.85087997736991" stroke="#4DD2FF" stroke-linecap="round" stroke-linejoin="round" stroke-width="0.5"><title>2024-12-31 8.0km</title><desc>1735619151000</desc></polyline><polyline fill="none" points="88.31177570088767,126.81795606657397 89.41700934577966,126.85088018217357 92.58130841125967,127.59167148699635 94.42841121496167,128.5793893632508 94.95831775700208,129.12263231311226 103.43682242988143,132.95821877247363 104.23925233643968,131.39436108754307 104.6934579439112,131.14743517819443 108.88728971965611,131.37789936881745 110.97663551400183,132.21744545918773 116.18485981307458,132.34913867415162 111.17345794395078,132.2997537277697 108.85700934578199,131.39436108754307 104.70859813090647,131.14743517819443 104.2695327103138,131.34497592771368 103.36112149531255,133.02406516902556 98.24373831774574,130.8346619635413 93.61084112152457,128.28307446397957 90.91588785039494,127.2130451303965 83.79999999998836,126.17593483095698 89.52299065416446,126.91672839871899 92.5358878505067,127.6081334877963 98.24373831774574,130.70296784600941 103.22485981305363,133.00760357172112 103.60336448595626,132.85944914082938 104.23925233643968,131.37789936881745 104.75401869160123,131.09804996319872 108.79644859815016,131.34497592771368 111.24915887851967,132.25036877029925 116.19999999995343,132.2668304240069 111.43084112153156,132.28329207650677 108.7813084111549,131.37789936881745 104.67831775697414,131.11451170273358 104.23925233643968,131.34497592771368 103.57308411214035,132.84298753125768 103.33084112149663,132.95821877247363 97.85009345790604,130.65358253168233 92.65700934577035,127.73982944988529 90.38598130841274,127.1801210687263 84.04224299063208,126.25824535002175 90.7190654205624,127.1636590360431 92.11196261679288,127.72336745892244 92.70242990652332,127.65751948277466 97.51700934575638,130.3243468208093 92.62672897195444,127.69044347330055 88.0543925233651,126.83441812495585" stroke="yellow" stroke-linecap="round" stroke-linejoin="round" stroke-width="0.5"><title>2024-12-30 10.8km</title><desc>1735533491000</desc></polyline><polyline fill="none" points="124.34869402984623,126.75742084045487 127.31063432834344,127.25036086066393 128.14179104473442,127.72686849952152 128.56492537318263,127.67757465360046 129.42630597017705,128.03906260119402 133.12873134331312,130.14225345337763 139.14328358205967,132.90266101053567 139.5815298507223,132.91909190447768 140.21623134322,131.3581515156111 140.7149253731477,131.07882417547808 144.68936567159835,131.34172050538473 147.06194029841572,132.26185519243882 152.19999999995343,132.34400988856214 147.2583955223672,132.26185519243882 144.84048507461557,131.37458252462966 140.6544776118826,131.11168623386766 140.24645522388164,131.3581515156111 139.71753731340868,132.68905927802552 139.3095149252913,132.98481546794937 133.65764925372787,130.6023237787449 129.63787313434295,128.30196255460032 127.34085820894688,127.36538004018075 119.79999999998836,126.18232275763876 127.08395522384671,127.23392954441078 129.98544776113704,128.30196255460032 133.0380597015028,130.14225345337763 139.26417910441523,133.01767724235833 139.56641791039146,132.93552279716823 140.26156716415426,131.37458252462966 140.68470149248606,131.17741033590573 144.81026119401213,131.4074445389415 147.07705223880475,132.27828613409656 152.15466417907737,132.32757895175018 150.61324626865098,132.45902641168504 147.15261194022605,132.27828613409656 144.7951492537395,131.34172050538473 140.69981343281688,131.11168623386766 140.27667910448508,131.292427467386 139.5815298507223,132.88623011535674 139.12817164178705,132.95195368868008 134.23190298501868,130.81592753216682 132.6300373133854,129.83006232889602 127.31063432834344,127.29965480210376 120.57070895517245,126.34663664862455" stroke="#4DD2FF" stroke-linecap="round" stroke-linejoin="round" stroke-width="0.5"><title>2024-12-27 9.1km</title><desc>1735273142000</desc></polyline><polyline fill="none" points="181.85626168217277,131.55074748693733 180.6753271027701,131.22151319865952 179.41869158874033,131.3696686891053 176.46635514014633,131.0898193460598 175.42168224300258,132.9664493368764 169.92579439247493,130.72766084651812 164.47532710270025,127.73159958333417 164.036261682224,127.78098553785821 162.8553271027631,127.25420145384851 155.79999999998836,126.13478110508004 160.73570093454327,126.92496076355746 161.22018691588892,126.8426505143143 164.68728971958626,127.7151375960384 168.5480373831233,129.65764363034396 169.1233644859749,130.1844219843042 175.0885981307947,132.91706454129599 175.52766355132917,132.88414133811602 176.13327102793846,131.3696686891053 176.6177570092841,131.07335760892602 180.79644859803375,131.3367452553939 183.35514018684626,132.29152284200245 188.20000000001164,132.42321597848786 182.85551401862176,132.19275293815008 180.97813084104564,131.3861304041202 176.60261682234704,131.0898193460598 176.28467289719265,131.18858974287286 175.60336448601447,132.93352614101605 175.3005607476225,133.06521889491705 173.99850467289798,132.29152284200245 169.74411214946304,130.61242847218818 164.76299065421335,127.69867560753482 161.34130841115257,126.92496076355746 157.75308411207516,126.44756089114526" stroke="#4DD2FF" stroke-linecap="round" stroke-linejoin="round" stroke-width="0.5"><title>2024-12-25 6.6km</title><desc>1735101299000</desc></polyline><polyline fill="none" points="15.16426566883456,167.21989376095007 15.043030869914219,167.51648839031986 15.240037418087013,167.45057850706507 15.527970065479167,166.97273126589425 16.452385406882968,167.61535317839298 17.48288119735662,167.66478555584035 20.650140318030026,168.47217949033075 26.257249766145833,171.5369541260152 31.40972871845588,173.76136073149974 31.621889616479166,173.7448837277916 32.25837231054902,172.1795627765532 32.72815715626348,171.93240582424914 36.7895229185815,172.16308565498912 39.4112254443462,173.1517107761465 44.20000000001164,173.2340960034635 39.183910196472425,173.10227962504723 36.63797942007659,172.14660853223177 32.591768007550854,171.9488829629554 32.25837231054902,172.11365428293357 31.576426566869486,173.6624986907118 31.30364826938603,173.7119297166355 25.71169317123713,171.4051367361244 21.513938260031864,168.96650085251895 19.134705332049634,168.01081188870012 11.799999999988358,166.9892087741755 14.285313376924023,167.3681911253516 15.467352666018996,167.33523616407183 19.634798877465073,168.1591087227862 21.529092609882355,168.90059140141238 26.727034611743875,171.76763436924375 31.167259120673407,173.7448837277916 31.637043966329657,173.69545270924573 32.39476145931985,172.01479150568775 33.940505145001225,172.01479150568775 32.440224508871324,171.9653601004975 31.561272217018995,173.82726873410866 26.10570626752451,171.5699084611988 23.16576239472488,169.8397992256505 19.286248830670957,168.12615387934784 11.84546304953983,167.00568628120527 18.073900841875002,167.89546983790933" stroke="#4DD2FF" stroke-linecap="round" stroke-linejoin="round" stroke-width="0.5"><title>2024-12-18 8.3km</title><desc>1734495982000</desc></polyline><polyline fill="none" points="51.21529850747902,165.87319801734702 50.65615671634441,166.0046505111386 50.85261194023769,165.8403348816064 50.65615671634441,165.9717873950285 50.53526119393064,165.79104016885685 50.59570895519573,165.95535583513265 51.81977611937327,166.80979532607307 54.49458955222508,167.9928599249106 55.129291044780985,168.99517357708828 55.83955223875819,169.55383822569274 56.625373134273104,169.66885724237363 62.17145522381179,172.6593306214054 67.18861940299394,174.91037449325086 67.55130597006064,174.9268053859414 68.26156716415426,173.34943410438427 68.69981343281688,173.10296882264083 72.90093283576425,173.36586511340283 75.54552238807082,174.28599966334878 80.19999999995343,174.36815434720484 75.13749999995343,174.28599966334878 72.90093283576425,173.38229612115538 68.62425373139558,173.1193998499657 68.18600746267475,173.36586511340283 67.43041044770507,174.99252894452366 60.01044776116032,171.8870694016514 59.496641790959984,171.37770413841645 57.637873134342954,170.32610761550313 55.401305970095564,169.4388191490143 47.79999999998836,168.2064681343909 55.02350746263983,169.15948685591866 56.29291044775164,169.7181510882947 56.564925373124424,169.6359946722805 62.231902985076886,172.72505485566217 66.13078358204802,174.2695687228843 67.20373134326655,174.9268053859414 67.61175373132573,174.82822001131717 68.367350746179,173.2508480247343 69.93899253732525,173.20155496842926 68.45802238798933,173.30014107008174 67.67220149253262,175.00895983114606 66.99216417904245,174.95966716771363 61.86921641783556,172.75791696547822 60.46380597015377,171.83777604049828 55.3559701492195,169.35666262895393 47.920895522343926,168.32148785378376 55.129291044780985,169.19234949699603" stroke="#4DD2FF" stroke-linecap="round" stroke-linejoin="round" stroke-width="0.5"><title>2024-12-17 8.6km</title><desc>1734409492000</desc></polyline><polyline fill="none" points="87.79514245683094,167.42180453740002 91.03362914529862,167.93188964908768 92.21401214384241,168.49133648139832 92.60747314343462,168.37615636708506 98.22185894445283,171.46954429462494 103.32171882304829,173.6743794566719 103.59411489957711,173.6414716309955 104.29023820644943,172.01252813101746 104.66856609063689,171.79862556695298 109.05716954695527,172.11125232146878 111.25147127517266,172.95040615880862 116.20000000001164,173.03267597127706 115.71574030822376,173.19721550426038 111.2363381597097,173.03267597127706 108.64857543201651,172.078344262889 104.75936478283256,171.91380389640108 104.16917328356067,172.27579254086595 103.51844932278618,173.6743794566719 103.2611863615457,173.75664899946423 98.675852405373,171.8150796176633 92.51667445118073,168.5242450744554 91.7146193368244,168.42551928055764 90.86716487625381,167.93188964908768 83.79999999998836,166.96108148839267 90.97309668385424,167.91543530904164 91.98701541335322,168.45842788346636 92.57720691274153,168.40906497729884 98.176459598355,171.45309021815774 103.21578701544786,173.65792554445216 103.63951424567495,173.62501771627285 104.15404016809771,172.22643048792088 104.66856609063689,171.8315336671949 109.10256889311131,172.11125232146878 111.20607192901662,172.95040615880862 116.10920130781597,173.08203784399666 111.47846800560364,173.03267597127706 108.83017281646607,172.078344262889 104.65343297529034,171.88089580838277 104.27510509110289,172.06189023178013 103.48818309203489,173.75664899946423 98.07052779075457,171.53536058829923 92.53180756658548,168.5242450744554 91.18496029893868,168.04706999512564 83.98159738443792,166.99399030950735 90.94283045304473,167.93188964908768 92.00214852875797,168.45842788346636 92.65287248953246,168.47488218304352 98.81205044372473,171.74926340734237 103.21578701544786,173.70728727745882 103.63951424567495,173.6414716309955 104.15404016809771,171.963166019239 105.90948155074148,171.99607409497548 104.30537132185418,172.02898216579342 103.54871555347927,173.8389185115957 98.02512844465673,171.51890651672147 92.59234002802987,168.50779077855987 92.10808033630019,168.5242450744554 90.91256422229344,167.9483439878968 83.98159738443792,167.05980793695198 90.80663241475122,167.91543530904164" stroke="yellow" stroke-linecap="round" stroke-linejoin="round" stroke-width="0.5"><title>2024-12-15 13.0km</title><desc>1734235831000</desc></polyline><polyline fill="none" points="123.0037313431967,167.08912655019958 123.0037313431967,167.26987174275564 124.36380597006064,167.68065572035266 126.19235074619064,168.05857630395622 127.1444029850536,167.99285103158036 128.0662313432549,168.51865266205277 128.59514925366966,168.5350839428138 134.85149253730197,171.8706085877493 139.33973880595295,173.7766000222473 139.62686567159835,173.7601691319869 140.2313432835508,172.29781499659293 140.68470149248606,172.00205680166255 144.8555970149464,172.21565998224833 147.25839552242542,173.13579439505702 152.20000000001164,173.23437999736052 147.16772388061509,173.13579439505702 144.97649253730197,172.2320909875416 140.60914179112297,171.93633270449936 140.18600746267475,172.13350493727194 139.46063432836672,173.80946179905732 134.18656716414262,171.65700507302245 129.27518656710163,168.91300306223275 127.03861940297065,168.04214498770307 119.79999999998836,166.99053820093104 123.6384328356944,167.38489133361145 127.03861940297065,167.94355706447095 128.56492537306622,168.4364962399559 133.20429104473442,170.9668999962887 137.84365671640262,173.00434685683285 138.99216417910066,173.72730734778452 139.61175373132573,173.66158376469684 140.17089552234393,172.29781499659293 140.6393656716682,171.96919475556933 144.78003731340868,172.14993594869156 147.0317164179287,173.0865015774034 148.75447761191754,173.10293251788244 146.91082089551492,173.03720874873397 144.74981343280524,172.1827979679365 140.80559701495804,171.93633270449936 140.18600746267475,172.11707392460085 139.43041044776328,173.74373824047507 133.899440298439,171.49269453632587 128.59514925366966,168.5679465006251 127.008395522309,168.04214498770307 124.62070895516081,167.74638108574436" stroke="#4DD2FF" stroke-linecap="round" stroke-linejoin="round" stroke-width="0.5"><title>2024-12-13 8.5km</title><desc>1734064159000</desc></polyline><polyline fill="none" points="159.30477090214845,167.4546031296777 162.6411903636763,167.93718924846326 164.93689182802336,168.65274605705054 169.71195087389788,171.34854414433357 175.05328294757055,173.7115008948458 175.48181388754165,173.72814134669898 176.1705243269098,172.1472928848525 176.5990552668809,171.9309653829987 180.80784128484083,172.1472928848525 182.91988663200755,173.01260079727217 188.20000000001164,173.11244380223798 183.42494095419534,173.0791628055158 180.65479452052386,172.13065231521614 176.49192253191723,171.9143247972388 176.04808691539802,172.0640900243452 175.54303259326844,173.49517490783182 175.17572035902413,173.8279840318428 174.08908833254827,173.21228676257306 169.69664619740797,171.49830975076475 165.2582900330308,168.95228078460786 162.90136986301513,168.13687975122593 165.2429853565991,168.88571754652367 168.05904581956565,170.58307392106508 174.11969768541167,173.19564627224463 175.00736891827546,173.77806269485154 175.45120453467825,173.67821998739964 176.1399149739882,171.86440303259587 175.42059518187307,173.62829861692444 175.03797827113885,173.72814134669898 169.86499763809843,171.53159098298056 164.3553141237935,168.43641517063952 163.81965044874232,168.4530560154817 162.47283892298583,167.90390748064965 155.79999999998836,166.97201596814557" stroke="#4DD2FF" stroke-linecap="round" stroke-linejoin="round" stroke-width="0.5"><title>2024-12-11 6.6km</title><desc>1733890893000</desc></polyline><polyline fill="none" points="15.728651685349178,208.41274712559243 19.2022471910459,208.80857596812712 19.96067415724974,209.25388256994484 20.582584269694053,209.23738974879961 26.285955056198873,212.38749628864753 31.38258426968241,214.59749192313757 32.21685393259395,212.8822733473644 32.65674157300964,212.68436265658238 37.01011235959595,212.9482435383543 39.23988764040405,213.8223467125208 44.1544943820918,213.937794043537 39.42191011243267,213.8223467125208 37.055617977574,213.03070624938118 32.33820224722149,212.83279569125443 31.503932584251743,214.64696918487607 26.179775280936155,212.42048146031448 24.647752808989026,211.38144619237573 20.537078651716,209.33634665714635 20.203370786563028,209.41881071365788 18.898876404506154,208.89104022123502 11.951685393229127,207.90146715636365 17.71573033707682,208.56118302448886 20.537078651716,209.22089692646114 24.51123595505487,211.18353415983438 26.16460674162954,212.28854074420815 31.26123595505487,214.5645070758619 31.57977528090123,214.4490600716381 32.24719101120718,212.9812286264205 32.65674157300964,212.68436265658238 35.31123595504323,212.9482435383543 36.661235955078155,212.83279569125443 39.31573033705354,213.83883919208893 44.20000000001164,213.92130157139036 39.05786516855005,213.8058542317449 36.97977528098272,212.9812286264205 32.62640449439641,212.7008552209445 32.24719101120718,212.84928824454255 31.716292134777177,214.33361300722754 31.428089887660462,214.58099950013275 26.695505618001334,212.6018998165382 23.85898876405554,210.9031584775512 20.506741573102772,209.25388256994484 18.07977528090123,208.64364736975404 11.799999999988358,207.7530308151181 19.551123595563695,208.874547373096 31.018539325858,214.4820449361141 31.57977528090123,214.3830903278722 32.24719101120718,212.66787009101245 31.610112359572668,214.4490600716381 31.2915730336681,214.5150297957298 26.34662921348354,212.42048146031448 20.552247191080824,209.2044041028712 15.25842696626205,208.3137898043642" stroke="yellow" stroke-linecap="round" stroke-linejoin="round" stroke-width="0.5"><title>2024-12-09 12.1km</title><desc>1733738831000</desc></polyline><polyline fill="none" points="61.28218661644496,211.82258088386152 67.37436380772851,214.57840243398095 68.07672007539077,212.98467846411222 68.6263901978964,212.68585395085393 72.5656927426462,212.8518676187814 74.96286522148876,213.79814316448756 80.20000000001164,213.9807572809368 75.4667295004474,213.88114959960512 72.82525918941246,212.9680771127605 68.67219604150159,212.7522594328766 68.15306314796908,212.91827305137122 67.40490103681805,214.61160489551548 62.58001885015983,212.60284707054961 56.44203581532929,209.28254650178133 55.892365692707244,209.29914812771312 55.1900094251032,208.8343021346227 50.83845428843051,208.25324327955605 50.28878416592488,207.98761586970068 50.02921771915862,208.20343816431705 48.12064090487547,207.9046072391793 52.640150801162235,208.3694551717781 56.44203581532929,209.21613998575776 60.44241281814175,211.19172537383565 61.57229029224254,212.021798042304 67.14533459005179,214.57840243398095 67.51178133831127,214.42899129600846 68.15306314796908,212.88507033756468 68.50424128182931,212.61944844906975 69.86314797354862,212.8518676187814 72.79472196043935,212.8684689787915 75.23770028277067,213.81474445399363 80.0931196983438,213.91435216498212 75.11555136664538,213.76494058177923 72.79472196043935,212.90167169507185 68.61112158338074,212.71905669437547 67.9851083882968,213.2502999172284 67.38963242224418,214.61160489551548 61.7097078228835,212.15460938232718 56.42676720075542,209.28254650178133 56.0755890669534,209.34895299799973 54.10593779449118,208.70148881562636 47.79999999998836,207.7883951044787 54.39604147040518,208.70148881562636 55.93817153625423,209.26594487464172 56.518378887849394,209.24934324627975 58.48803016031161,210.32844651857158" stroke="#4DD2FF" stroke-linecap="round" stroke-linejoin="round" stroke-width="0.5"><title>2024-12-06 9.2km</title><desc>1733479157000</desc></polyline><polyline fill="none" points="87.0869565216708,208.27666372674867 91.20701262261719,208.7707558671682 92.08555399713805,209.3142559460539 92.5702664796845,209.21543784925598 98.22019635338802,212.37759503581037 103.15820476855151,214.56802115245955 103.6580645160866,214.41979751340114 104.18821879377356,213.003433283724 104.76381486677565,212.77286150376312 108.85357643757015,212.9704944726982 111.15596072922926,213.8433713056147 116.19999999995343,214.00806466118956 111.21654978959123,213.8433713056147 108.82328190736007,213.01990268734517 104.68807854130864,212.75639208169014 104.15792426362168,213.08578028967895 103.40056100982474,214.60095972543058 97.81122019630857,212.22936992814357 96.5388499298715,211.35648672250682 92.58541374467313,209.3471953018161 92.1461430574418,209.38013465267431 91.04039270681096,208.85310444985225 83.79999999998836,207.7990402745636 91.04039270681096,208.83663473576598 93.3124824683764,209.79187612433452 92.6460028050351,209.3471953018161 87.10210378671763,208.29313348258438" stroke="#4DD2FF" stroke-linecap="round" stroke-linejoin="round" stroke-width="0.5"><title>2024-12-03 5.6km</title><desc>1733220329000</desc></polyline><polyline fill="none" points="124.02937062940327,208.44086362665985 127.09566433558939,208.76933717430802 128.13790209789295,209.37701194707188 129.4671328670811,209.54124808459892 130.9020979020861,210.47739173188165 132.86573426570976,211.2164496979094 134.11944055941422,212.1854330549686 139.5118881118833,214.5503915012232 140.19160839158576,213.0887187893386 140.7353846154292,212.7274049397529 144.85902097908547,212.95733200346876 147.39664335671114,213.893461144311 150.9462937063654,213.8606145750964 152.20000000001164,213.95915426811553 151.82237762241857,214.05769391707145 147.24559440556914,213.9263077086507 144.85902097908547,213.02302540621895 140.72027972032083,212.79309841098438 140.26713286712766,213.00660205734312 139.57230769237503,214.56681473506615 139.2399999999907,214.5996611990995 133.65118881117087,212.20185646502068 130.63020979019348,210.47739173188165 126.95972027973039,208.8350318250741 119.79999999998836,207.83318627314293 127.21650349657284,208.80218450214306 129.36139860143885,209.78760206142033 126.92951048945542,208.88430280033208 119.83020979014691,207.80033880089468 124.21062937064562,208.40801624496817" stroke="#4DD2FF" stroke-linecap="round" stroke-linejoin="round" stroke-width="0.5"><title>2024-12-02 6.1km</title><desc>1733112856000</desc></polyline><polyline fill="none" points="155.79999999998836,206.73772492041462 156.7600000000093,207.1378582548641 158.9680000000517,210.0953442445607 158.77600000001257,209.9039786375797 159.19200000003912,209.88658175642195 159.73600000003353,209.22549931269896 161.72000000003027,209.52124695311068 162.45599999994738,210.00835989718325 163.92800000001444,210.3041065459838 165.5119999999879,211.29572492913576 167.4319999999716,212.02638841158478 168.44000000000233,212.91361956656328 174.20000000001164,215.54049988734187 174.66400000004796,215.54049988734187 175.36799999995856,213.92262344999472 175.83199999999488,213.69646778621245 180.26400000002468,213.92262344999472 183.0,214.8968299591652 188.20000000001164,214.9490194789105 183.03200000000652,214.9316229736287 180.27999999996973,213.95741660956992 175.88000000000466,213.731260979519 175.39999999996508,213.94002003040805 174.5360000000219,215.66227507957956 169.03200000000652,213.34853556816233 165.30400000000373,211.24353459292615 161.57600000000093,209.53864386145142 157.04800000000978,208.99933909960964" stroke="#4DD2FF" stroke-linecap="round" stroke-linejoin="round" stroke-width="0.5"><title>2024-11-29 4.6km</title><desc>1732853630000</desc></polyline><polyline fill="none" points="14.54392344498774,250.95497208739107 14.31138755986467,251.08981810802652 15.303540669905487,251.10667385491251 14.450909090985078,251.00553935456264 15.226028708100785,251.0729623598163 15.133014354039915,251.30894272007572 16.373205741634592,249.70764258646523 19.28765550238313,249.50537228964095 20.217799043050036,250.0110476926202 21.535502392333,250.28074077870406 26.69779904303141,253.2304879201838 31.8755980861024,255.472270027778 32.65071770339273,253.83728827703453 33.11578947363887,253.6181661136652 37.51846889953595,253.83728827703453 39.750813397113234,254.74748576103593 44.20000000001164,254.798052180573 39.8438277511741,254.71377480840601 37.1929186602938,253.7867216427985 33.053779904323164,253.55074386687193 32.68172248802148,253.7698660955066 31.8755980861024,255.45541460605455 26.387751196161844,253.2304879201838 20.71387559809955,250.06161517073633 19.008612440200523,249.5390840183245 11.799999999988358,248.52772997220745 19.163636363635305,249.50537228964095 20.10928229667479,249.9941918640543 21.1014354066574,250.12903845732217 25.101052631624043,252.2528616998461 19.117129186575767,249.5727957420022 15.226028708100785,249.05026346055092" stroke="#4DD2FF" stroke-linecap="round" stroke-linejoin="round" stroke-width="0.5"><title>2024-11-28 6.3km</title><desc>1732767063000</desc></polyline><polyline fill="none" points="48.01744966453407,248.1284304658475 52.80134228197858,248.9362494598172 53.88859060406685,249.5076321362285 54.395973154343665,249.46822647405497 59.379194630892016,251.91136642622587 61.10067114094272,253.05411768861813 67.40671140945051,255.8124624609918 68.29463087255135,253.90132664400153 68.94697986578103,253.54668136501277 73.7489932886092,253.80281411419855 75.95973154366948,254.72883044557238 77.88053691270761,255.04406930798723 80.20000000006985,254.98496204988624 76.70268456370104,254.92585477861576 74.07516778528225,253.90132664400153 69.12818791950122,253.6451939902763 68.38523489935324,253.94073164563451 67.40671140945051,255.8715695341525 60.53892617451493,252.9753074152104 54.395973154343665,249.46822647405497 53.94295302021783,249.56674061850936 52.38456375838723,248.87714083661558 47.800000000046566,248.26635095661914" stroke="#4DD2FF" stroke-linecap="round" stroke-linejoin="round" stroke-width="0.5"><title>2024-11-25 4.0km</title><desc>1732507947000</desc></polyline><polyline fill="none" points="83.80000000004657,246.45846473917481 90.40481540933251,247.30667034976068 92.19903691823129,248.35278799166554 93.18715890869498,248.239694331598 95.00738362770062,248.83343567105476 96.90561797760893,250.19055524436408 100.49406099529006,251.7455821222975 103.27640449453611,253.668151998776 109.5691813804442,256.1278963155346 111.67544141260441,257.4001716032508 112.22150882834103,257.17398964156746 113.39165329060052,254.43152263073716 116.20000000006985,254.3749767106492 113.49566613172647,254.51634149509482 111.98747993586585,257.5415352608252 103.6924558589235,254.0922469838697 93.13515248801559,248.43760821459 92.43306581070647,248.5789752107521 94.92937399691436,249.05962260364322 96.15152487973683,250.19055524436408 98.3097913323436,250.7842935315275 103.22439807385672,253.72469802416163 111.10337078664452,257.2305351445975 112.22150882834103,257.34362612545374 113.39165329060052,254.40324967182823 112.14349919755477,257.5415352608252 103.82247191015631,254.0357010132866" stroke="#4DD2FF" stroke-linecap="round" stroke-linejoin="round" stroke-width="0.5"><title>2024-11-20 4.0km</title><desc>1732095798000</desc></polyline><polyline fill="none" points="121.69272437598556,248.47342720082088 126.47615507169394,249.1656550855114 127.6289962825249,249.74562833053642 128.4204992033774,249.82046349035227 132.84259160910733,252.0093820492766 134.01263940520585,252.90739440004108 140.31024960172363,255.69495395010745 140.60276155074826,255.6575372483203 141.30823154537939,254.0111968483834 141.82442910247482,253.61831856692152 146.6078597981832,253.88023748954583 149.12002124270657,254.89049363207596 152.20000000001164,255.00274406369135 149.0684014869621,254.9092020408425 146.33255443436792,253.8615290041198 141.92766861390555,253.63702707046468 141.20499203394866,254.12344767303148 140.53393520973623,255.73237064640853 134.13308550190413,253.09447990225453 129.2120021242299,250.34430898481514 126.44174190127524,249.2404904182331 119.79999999998836,248.26762935359147" stroke="#4DD2FF" stroke-linecap="round" stroke-linejoin="round" stroke-width="0.5"><title>2024-11-19 4.1km</title><desc>1731989484000</desc></polyline></svg>