<?xml version="1.0" encoding="utf-8" ?>
<svg baseProfile="full" height="300mm" version="1.1" viewBox="0,0,200,300" width="200mm" xmlns="http://www.w3.org/2000/svg" xmlns:ev="http://www.w3.org/2001/xml-events" xmlns:xlink="http://www.w3.org/1999/xlink"><defs /><rect fill="#222222" height="300" width="200" x="0" y="0" /><text fill="#FFFFFF" style="font-size:12px; font-family:Arial; font-weight:bold;" x="10" y="20">Over 4km Runs</text><text fill="#FFFFFF" style="font-size:4px; font-family:Arial" x="10" y="280">ATHLETE</text><text fill="#FFFFFF" style="font-size:9px; font-family:Arial" x="10" y="290">Fake David</text><text fill="#FFFFFF" style="font-size:4px; font-family:Arial" x="65" y="280">SPECIAL TRACKS</text><rect fill="yellow" height="2.6" width="2.6" x="65" y="283" /><text fill="#FFFFFF" style="font-size:3px; font-family:Arial" x="70" y="285.5">Over 10.0 km</text><rect fill="red" height="2.6" width="2.6" x="65" y="287" /><text fill="#FFFFFF" style="font-size:3px; font-family:Arial" x="70" y="289.5">Over 15.0 km</text><text fill="#FFFFFF" style="font-size:4px; font-family:Arial" x="120" y="280">STATISTICS</text><text fill="#FFFFFF" style="font-size:3px; font-family:Arial" x="120" y="285">Number: 50</text><text fill="#FFFFFF" style="font-size:3px; font-family:Arial" x="120" y="290">Weekly: 2.6</text><text fill="#FFFFFF" style="font-size:3px; font-family:Arial" x="141" y="285">Total: 417.8 km</text><text fill="#FFFFFF" style="font-size:3px; font-family:Arial" x="141" y="290">Avg: 8.4 km</text><text fill="#FFFFFF" style="font-size:3px; font-family:Arial" x="167" y="285">Min: 4.0 km</text><text fill="#FFFFFF" style="font-size:3px; font-family:Arial" x="167" y="290">Max: 13.0 km</text><polyline fill="none" points="12.974263565905858,41.172907564396155 11.556589147308841,40.86947196324763 16.032868217036594,41.464205209733336 18.14263565890724,42.010386890760856 20.911007751943544,43.454725178860826 21.212403100798838,43.78243040315283 25.711007751931902,45.821470321010565 25.934263565926813,45.772922048097826 26.057054263539612,44.59562200111395 26.280310077534523,44.3892901888903 29.897054263565224,44.65630777849583 31.817054263548926,45.34812404308468 35.33333333331393,45.38453534405562 31.48217054264387,45.29957562913478 29.84124031011015,44.65630777849583 26.391937984502874,44.449976043149945 26.157519379805308,44.547073362919036 26.023565891489852,45.5059062885266 25.733333333337214,45.84574445204635 22.0942635659012,44.32860431203153 17.84124031011015,41.9375627724512 16.546356589184143,41.57344169243879 13.65519379847683,41.2942816465802 11.44496124034049,40.833059653130476 17.004031007760204,41.609853837042465 20.788217054272536,43.418313446614775 21.971472868230194,44.182958115357906 25.711007751931902,45.80933325414662 25.94542635657126,45.68796253571054 26.068217054242268,44.66844493125973 26.29147286817897,44.42570170415274 29.729612403083593,44.632033470261376 31.716589147341438,45.3602611443348 35.32217054266948,45.445220827605226 33.81519379845122,45.5059062885266 31.549147286859807,45.33598694096145 29.61798449617345,44.632033470261376 26.336124031047802,44.42570170415274 26.079379845003132,44.632033470261376 26.057054263539612,45.5059062885266 25.77798449608963,45.83360738695774 21.915658914775122,44.25578122997831 19.79472868220182,42.993509302061284 16.892403100791853,41.63412859562959 11.33333333331393,40.82092221462517 16.836589147278573,41.58557907487557 18.444031007762533,42.228859050461324 18.99100775195984,42.70221439130546 17.830077519349288,41.94970012776321 17.461705426394474,41.94970012776321 16.836589147278573,41.561304309085244 15.262635658902582,41.391380847242544" stroke="yellow" stroke-linecap="round" stroke-linejoin="round" stroke-width="0.5"><title>2025-04-03 10.8km</title><desc>1743675722000</desc></polyline><polyline fill="none" points="43.649025069666095,41.049715003580786 42.12256267410703,40.88010666168702 44.0724233983201,41.0739447522792 44.774373259046115,41.35258660269028 47.15877437329618,41.54642413002148 49.086350974976085,42.17639449809212 49.95543175493367,42.648870672433986 50.01114206132479,42.854821395725594 53.130919220042415,44.46607393369777 56.32869080785895,45.859249348548474 56.58495821733959,45.750218659610255 56.76323119777953,44.55087625660235 56.95264623960247,44.39338619314367 59.169916434562765,44.69625156445545 60.41782729810802,44.59933470701799 62.47910863510333,45.32620972991572 66.0,45.374667949276045 62.41225626744563,45.32620972991572 60.484679665765725,44.62356392676884 57.019498607260175,44.417615443628165 56.79665738163749,44.62356392676884 56.64066852373071,45.665416962103336 56.33983286906732,45.847134831157746 52.93036211706931,44.39338619314367 48.76323119777953,42.10370573401451 47.49303621170111,41.643342807059526 42.0,40.80741731810849 47.704735376057215,41.619113143213326 48.75208913651295,42.17639449809212 49.45403899723897,42.34600148786558 52.607242339872755,44.1268641998322 56.35097493039211,45.79867675260175 56.540389972156845,45.71387508038606 56.74094707524637,44.49030317332654 56.94150417833589,44.34492768139171 58.44568245130358,44.58722009576741 60.662952646263875,44.64779314293992 62.30083565460518,45.31409517284192 65.98885793873342,45.362553395782015 62.02228412259137,45.25352237385232 60.50696378829889,44.659907749679405 57.075208913651295,44.417615443628165 56.774373259046115,44.57510548362916 56.596100278547965,45.81079127357225 56.239554317551665,45.81079127357225 52.29526462400099,44.09052025779965 51.32590529246954,43.41209851561871 48.5738161560148,42.00678733139648 46.60167130921036,41.48584992754331 42.022284122533165,40.88010666168702 45.66573816159507,41.34047174954321" stroke="yellow" stroke-linecap="round" stroke-linejoin="round" stroke-width="0.5"><title>2025-04-01 10.1km</title><desc>1743481138000</desc></polyline><polyline fill="none" points="74.14290152228205,41.035121268287185 76.43553898733808,41.278321917081485 79.0748679714743,41.86200199558516 83.80552966770483,44.39125821548805 86.9816713265609,45.81394761578122 87.3507300405181,45.582913428283064 87.44019881956046,44.549335427887854 87.61913637781981,44.354778837034246 91.00776638713432,44.622294089669595 93.5017086052103,45.388358069438254 96.6219322772231,45.33971919349278 92.8306927618105,45.254601125678164 91.15315315319458,44.64661363634514 87.65268717001891,44.41557779660798 87.45138241694076,44.683092949548154 87.40664802741958,45.59507313053473 86.95930413180031,45.78962824304472 83.2016154085868,44.17238182251458 79.08605156891281,41.9349618586275 78.63870767329354,41.910641907918034 77.85585585591616,41.55800221518439 76.3572538056178,41.47288217519235 72.70021745888516,40.804080316243926 79.1196023610537,41.86200199558516 83.99565082334448,44.48853651813988 87.00403852132149,45.82610730078886 87.29481205350021,45.6558716280997 87.46256601437926,44.48853651813988 87.61913637781981,44.33045924686303 88.74867971427739,44.53717564773979 90.95184840017464,44.59797453934152 92.8083255669917,45.30324002701673 96.66666666668607,45.31539975007763 95.69369369378546,45.412677501968574 92.8195091644302,45.254601125678164 91.23143833497306,44.65877340831503 87.71978875435889,44.39125821548805 87.51848400128074,44.549335427887854 87.36191363784019,45.692350715762586 86.9928549239994,45.86258635041304 82.96675986336777,44.06294351594988 79.16433675057488,41.910641907918034 78.70580925763352,41.9349618586275 77.92295744025614,41.58232221844082 72.66666666668607,40.8284004318848 78.01242621935671,41.59448221873026 79.68996582797263,42.2632808387134 79.1084187636734,41.898481931202696 78.84001242625527,41.9349618586275 77.97887542721583,41.533682208289974 73.47188567882404,40.92568085808307" stroke="yellow" stroke-linecap="round" stroke-linejoin="round" stroke-width="0.5"><title>2025-03-30 10.7km</title><desc>1743316730000</desc></polyline><polyline fill="none" points="104.92140416271286,41.09592150976823 103.47872009931598,40.77976019520429 105.8496427461505,41.30264203813567 108.66790928854607,41.5944823383179 109.77508543024305,41.922802052256884 115.13202858029399,44.69525330043689 116.86548617575318,45.36403931454697 117.57005281135207,45.85042742184305 117.8272755513317,45.80178867634095 117.99502951221075,45.53427531696798 118.07331469393102,44.597975106487866 118.26343584957067,44.366939163490315 121.75271823542425,44.62229466039571 123.78813296050066,45.31540042407869 127.29978254111484,45.376199034872116 123.56446101266192,45.327560148070916 121.92047219630331,44.683093529369216 118.43118981044972,44.45205770684697 118.19633426523069,44.71957283988013 118.06213109655073,45.75314991634514 117.61478720093146,45.86258710597758 114.23734078905545,44.41557833654224 109.75271823536605,42.00792187025945 109.33892513200408,42.02008184065926 108.08636222424684,41.5944823383179 103.4116185150342,40.86488060936972 108.43305374332704,41.5944823383179 109.81981981970603,41.95928197968169 112.6828207517392,43.35767305140325 114.32680956815602,44.403418544650776 117.65952159051085,45.88690647146723 118.00621310959104,45.65587235285784 118.10686548613012,44.57365554894204 118.26343584957067,44.439897917662165 121.73035104066366,44.63445443600358 123.24013668834232,45.242442061251495 124.21310966135934,45.388358754324145 127.33333333331393,45.35187959327595 123.62037899962161,45.33971987113182 121.75271823542425,44.683093529369216 118.36408822605154,44.48853706900263 118.12923268089071,44.75605214224197 118.08449829131132,45.72883053087571 117.93911152530927,45.88690647146723 117.69307238265174,45.85042742184305 113.43212177691748,44.01430472519132 109.86455420934362,41.99576189898653 109.64088226150488,42.06872171310533 108.42187014594674,41.63096233915712 106.07331469393102,41.424242226654314 103.33333333331393,40.87704066491278 106.02858030435164,41.29048201433034" stroke="#4DD2FF" stroke-linecap="round" stroke-linejoin="round" stroke-width="0.5"><title>2025-03-28 10.0km</title><desc>1743136214000</desc></polyline><polyline fill="none" points="135.62011173187057,41.1344501767162 134.0,40.81858328661474 136.65921787708066,41.09800402833207 139.66480446927017,41.65684407524532 140.1675977653358,41.99700664432021 141.24022346368292,42.30072262417525 142.31284916203003,43.017490093785455 143.37430167599814,43.35764982442197 144.73743016761728,44.28093694493873 148.30167597770924,45.82378665104625 148.62569832406007,45.73874807092943 148.73743016761728,44.66968785281642 148.9944134078687,44.46316404841491 152.31284916208824,44.64539094820793 154.0000000000582,45.27710929105524 154.8938547486323,45.386444909643615 158.0,45.435038494397304 154.27932960895123,45.37429651123239 152.43575418996625,44.681836303760065 148.9273743017111,44.42671864399745 148.74860335193807,44.64539094820793 148.69273743015947,45.59296754481329 148.44692737428704,45.84808338005678 144.8938547486323,44.41457017407811 140.44692737428704,41.9605606887053 138.58100558660226,41.486762524582446 134.17877094971482,40.927921894719475 135.9776536313002,41.122301461495226" stroke="#4DD2FF" stroke-linecap="round" stroke-linejoin="round" stroke-width="0.5"><title>2025-03-25 5.1km</title><desc>1742904051000</desc></polyline><polyline fill="none" points="166.2875329918461,41.20027455952368 164.7113802205422,40.85995182998886 168.89209750044392,41.35828129973379 170.2670392796863,41.60136829355906 171.4743052321719,42.05107827717438 174.2130104021635,43.48528021396487 174.61543238634476,43.849905814786325 178.97500388143817,45.84317802837177 179.37742586561944,45.64871351857437 179.45567458472215,44.60346280732483 179.6233504114789,44.433305080994614 183.33457537658978,44.664233380855876 184.9554417016916,45.332708195841406 188.6443098898162,45.36917037972307 187.63825492939213,45.47855688240088 185.02251203235937,45.308400068752235 183.1557211613399,44.67638749285834 179.72395590750966,44.4576133384835 179.4333178078523,44.70069571414206 179.34389070025645,45.70948370281258 178.91911193920532,45.806715950442594 175.09610308962874,44.14160570866079 171.15013196715154,41.92953516059788 170.82595870213117,41.965998105093604 169.97640118002892,41.56490526757261 164.66666666668607,40.8234886382852 170.33410961035406,41.62567697300983 172.32386275427416,42.4521699193574 174.7048594939406,43.87421415920835 179.0197174352361,45.84317802837177 179.33271231182152,45.73379177015158 179.44449619628722,44.60346280732483 179.66806396533502,44.42115095088957 183.0774724422372,44.627771039449726 185.0001552554313,45.332708195841406 188.66666666668607,45.405632555441116 187.2917248874437,45.515019033671706 184.93308492470533,45.308400068752235 183.0774724422372,44.6399251541734 179.63452879991382,44.42115095088957 179.44449619628722,44.70069571414206 179.3997826424893,45.60009735493804 179.25446359271882,45.806715950442594 179.0197174352361,45.79456192266662 174.99549759359797,44.10514325044642 171.18366713251453,41.91738084399549 170.9489209750318,42.00246104141115 169.87579568399815,41.552750923787244 165.59447290800745,40.95718696800759" stroke="#4DD2FF" stroke-linecap="round" stroke-linejoin="round" stroke-width="0.5"><title>2025-03-23 9.7km</title><desc>1742722238000</desc></polyline><polyline fill="none" points="12.930355203978252,67.75964105737512 16.76097409654176,68.18464753188891 17.498061113699805,68.60965289811429 17.743756786105223,68.56108091233182 18.637195594841614,68.93751342337055 22.501318442635238,71.0503765437461 24.076004343107343,71.6575160525972 25.673026213713456,72.54393567440275 25.941057856369298,72.37393776436511 26.03040173719637,71.22037583417841 26.231425469217356,71.08680497804016 29.70466883823974,71.22037583417841 31.670234217424877,71.91251397195447 35.33333333331393,71.96108495896624 31.73724212811794,71.97322770347819 29.83868465956766,71.24466143264726 26.30960136500653,71.0503765437461 26.108577632985543,71.22037583417841 25.974561811657622,72.32536690034613 25.65069024352124,72.44679403322516 21.708391499880236,70.71037743096531 18.60369163955329,68.99822826306627 16.77214208157966,68.25750567339128 11.378005273756571,67.45606432559725 16.76097409654176,68.22107660671463 17.922444547817577,68.57322391014895 20.792616720951628,70.04251996599487 21.87591127655469,70.78323444341368 25.673026213713456,72.44679403322516 25.98572979681194,72.26465329997882 26.06390569260111,71.17180462642864 26.231425469217356,71.0018052853411 29.76050876372028,71.22037583417841 31.614394291944336,71.88822847300617 35.32216534821782,71.94894221359573 34.29471071821172,72.08251236322394 31.446874515269883,71.93679946726479 29.76050876372028,71.26894702746358 26.32076935004443,71.02609091637714 26.07507367769722,71.37823215941899 26.01923375215847,72.25251057722198 25.851713975484017,72.49536486105353 25.606018303136807,72.48322215546796 21.652551574399695,70.69823459236068 18.559019699052442,68.98608529692865 16.749806111387443,68.3060777496139 11.33333333331393,67.51677971718891 14.884752598125488,67.94178682503116" stroke="#4DD2FF" stroke-linecap="round" stroke-linejoin="round" stroke-width="0.5"><title>2025-03-21 9.8km</title><desc>1742551156000</desc></polyline><polyline fill="none" points="43.50210182153387,67.65376142659807 43.221858944394626,67.86096481389541 42.0,67.59281920389913 42.77347034093691,67.58063075665268 47.403082671633456,68.22661721007898 48.53526389528997,68.51913853855513 52.79495562816737,70.8592903365934 56.303596450190526,72.39499676282867 56.69593647826696,72.2974920214765 56.81924334418727,71.22493603127077 57.02101821574615,71.06648966392095 60.65296590374783,71.3102532424673 61.986921998963226,71.8952843491279 63.063054647354875,72.05372991383774 66.0,72.09029425312474 62.31200373650063,71.968413090377 60.608127043407876,71.29806507215835 57.110695936426055,71.05430147545121 56.85287248942768,71.27368872881925 56.92013077996671,71.71246235299623 56.72956562350737,72.46812528072041 56.348435310588684,72.541253765914 55.63101354497485,72.11467047479528 52.69406819238793,70.9933605195256 48.759458197047934,68.81165934396267 47.246146660414524,68.28755919665855 45.93460999534,68.23880560920225 42.02241943014087,67.458746234086 47.52638953755377,68.26318240475666 49.49929939274443,69.00667292368598 52.33535730961012,70.6277143072657 56.438113031268585,72.48031336384884 56.74077533860691,72.24873962896527 56.81924334418727,71.20055967706139 57.043437645887025,71.04211328610836 60.5857076132088,71.3102532424673 62.33442316669971,71.95622496909346 65.93274170946097,71.99278933016467 65.01354507240467,72.11467047479528 62.177487155480776,71.93184872381971 60.64175618864829,71.29806507215835 57.07706679118564,71.06648966392095 56.86408220452722,71.24931238188583 56.84166277438635,72.02935368310136 56.63988790282747,72.41937293908268 56.46053246140946,72.45593719667522 52.50350303592859,70.81053751555737 48.49042503500823,68.543515292331 48.075665576790925,68.55570366785105 47.212517515115906,68.19005200723768 45.710415693582036,68.1169215770351 42.06725829048082,67.5196885067271 44.780009341426194,67.87315324025985" stroke="#4DD2FF" stroke-linecap="round" stroke-linejoin="round" stroke-width="0.5"><title>2025-03-19 10.0km</title><desc>1742357906000</desc></polyline><polyline fill="none" points="73.68342644325458,67.5702916423179 77.35940409684554,68.08053747279337 79.25884543760912,68.56648439831042 82.90130353817949,70.5952971677616 86.9795158287161,72.47830439789686 87.37057728122454,72.3568207165954 87.47113594040275,71.4213933393039 87.71694599627517,71.05693966185208 91.44878957170295,71.32420577162702 92.74487895722268,71.89518190232047 93.69459962757537,72.02881432505092 96.66666666668607,72.05311111742049 93.0689013035153,71.91947871458251 91.23649906890932,71.23916660240502 87.73929236503318,71.00834577665955 87.50465549353976,71.3120573216147 87.48230912478175,72.23533694479556 87.0018621974159,72.51474948464602 82.46554934821324,70.44951505599602 79.918063314748,68.9795381463191 78.21973929239903,68.29921376850689 72.66666666668607,67.48525051535398 75.19180633150972,67.76467119457084 77.91806331468979,68.20202433994564 78.75605214154348,68.57863305287901 79.14711359405192,68.55433574282506 83.44878957176115,70.8868610002828 87.08007448795252,72.49045276103425 87.35940409684554,72.33252396948228 87.51582867786055,71.62791672830645 87.35940409684554,72.39326583049842 86.90130353817949,72.45400766888633 83.10242085665232,70.78967311402084 79.14711359405192,68.6272276621894 78.74487895722268,68.61507901118603 77.71694599627517,68.18987565729185" stroke="#4DD2FF" stroke-linecap="round" stroke-linejoin="round" stroke-width="0.5"><title>2025-03-17 7.0km</title><desc>1742185263000</desc></polyline><polyline fill="none" points="104.64609630662017,67.57226886994613 104.5899953249027,67.71866693385527 104.46657316503115,67.5600690253923 104.56755493220408,67.74306659844297 103.55773726035841,67.57226886994613 107.37260402052198,68.02366247992904 109.81860682560364,68.58485280035529 114.00374006538186,70.86619364938815 117.78494623646839,72.54972961662861 118.06545114534674,72.34233843944094 118.15521271619946,71.29317904736672 118.37961664324393,71.07358669606037 121.77933613833738,71.28097948002687 123.69798971473938,71.98855288392224 127.29967274423689,72.049550448035 123.65310892934212,71.96415385194996 122.05984104715753,71.31757817932521 118.50303880311549,71.07358669606037 118.17765310889808,71.26877991174115 118.05423094902653,72.39113638710114 117.7064048620523,72.46433328135754 113.35296867694706,70.54900377591548 109.85226741462247,68.57265303123859 107.1482000934775,67.96266341616865 103.33333333331393,67.47467008797685 107.17064048617613,67.91386414880981 109.82982702192385,68.51165417199081 113.95885927998461,70.79299604083644 117.7064048620523,72.45213380125642 118.07667134166695,72.24474250043568 118.16643291251967,71.25658034256776 118.3459560542251,71.07358669606037 121.91397849452915,71.26877991174115 123.73165030381642,71.95195433456684 127.33333333331393,72.049550448035 123.54090696584899,71.9153557770187 121.90275829820894,71.26877991174115 118.36839644686552,71.04918752770755 118.16643291251967,71.35417687047448 118.02057035994949,72.37893690154306 117.78494623646839,72.43993432022398 113.76811594201718,70.75639722426422 109.87470780737931,68.58485280035529 108.5170640485594,68.18225993937813 103.33333333331393,67.45027038335684 106.8340345955803,67.93826378429367" stroke="yellow" stroke-linecap="round" stroke-linejoin="round" stroke-width="0.5"><title>2025-03-15 10.0km</title><desc>1742012101000</desc></polyline><polyline fill="none" points="135.51483749412,67.83668271501665 134.0,67.48022113322804 137.3914272255497,67.86126624397002 140.39849269896513,68.47585327774868 144.7282147903461,70.84813775357907 148.45878473855555,72.4829046130908 148.74140367400832,72.12645306967897 148.79792746109888,71.14313447484164 149.0353273669025,71.00792770972475 152.6867640131386,71.2906326376542 154.42769665567903,71.97895565403451 158.0,72.0035385657975 154.54074422980193,72.0035385657975 152.63024022604804,71.31521565194998 149.09185115399305,71.09396839122928 148.83184173336485,71.35209016657609 148.6622703720932,72.40915608110663 148.3909561940236,72.5197788667574 144.4795101271011,70.83584621208138 142.87423457368277,69.80335345717322 140.4324069712311,68.58647870070126 140.1723975506029,68.63564553152537 139.1775788977975,68.19314352657238 137.70796043332666,68.1193930770387 134.35044747992652,67.5416800815583 136.1365991521161,67.75064033475064 138.47668393776985,68.1193930770387 139.4149788035429,68.20543526497204 140.71502590668388,68.64793723693583 144.43429109751014,70.7006391951727 147.5091851153411,72.0035385657975 148.15355628822,72.43373892876843 148.61705134238582,72.40915608110663 148.85445124818943,71.59792005336203 148.69618464435916,72.38457322977774 148.3909561940236,72.45832177279226 144.53603391424986,70.81126312636479 140.4437117286725,68.53731185520883 139.91238812997472,68.51272842698381" stroke="#4DD2FF" stroke-linecap="round" stroke-linejoin="round" stroke-width="0.5"><title>2025-03-12 7.1km</title><desc>1741778255000</desc></polyline><polyline fill="none" points="166.50763953855494,67.7237022574991 169.77424384164624,68.12648450233974 170.78453383228043,68.56588218543038 172.03055815404514,68.79778604302555 175.71250389772467,70.982548376458 179.12503897730494,72.47158757310535 179.39444964146242,72.27630451509322 179.46180230751634,71.27547518933716 179.68631119432393,71.04357483898639 183.2784533833037,71.22665409023466 184.6816339258803,71.77589061642357 185.7592765825102,71.94676382683974 188.66666666668607,71.98337949161942 185.02962270041462,71.9955847113597 183.2784533833037,71.29988573341689 179.79856563772773,71.06798541764147 179.54038041789318,71.23885936634906 179.37199875281658,72.34953568910714 178.9903336451971,72.4471772036195 174.67976301844465,70.56756782831508 171.14374805119587,68.55367671014392 170.85188649833435,68.65132048695523 169.79669473029207,68.1875120288023 164.66666666668607,67.49179687941796 169.358902401058,68.07766246481333 170.9416900530341,68.56588218543038 171.14374805119587,68.492649320091 175.29716245713644,70.73844229897077 179.09136264427798,72.45938238882809 179.39444964146242,72.19086810400768 179.47302775183925,71.19003825634718 179.7199875273509,71.04357483898639 183.18864982854575,71.19003825634718 185.14187714381842,71.87353247277497 188.66666666668607,71.98337949161942 185.05207358906046,71.95896904934489 183.19987527286867,71.20224353519734 179.70876208296977,70.97034308119328 179.50670408486621,71.29988573341689 179.4954786405433,72.19086810400768 179.14748986595077,72.50820312058204 177.42999688186683,71.61722247576108 174.96039912698325,70.6896210397972 171.2223261615727,68.61470407746674 170.9416900530341,68.66352595495118 169.96507639542688,68.21192303301359 166.91175553476205,67.96781282713346 164.66666666668607,67.54061909156735 166.35048331780126,67.67488009991939 167.14748986595077,67.82134652901732 170.15590894920751,68.22412853378046 171.74992204556474,68.9442514681432 171.28967882762663,68.63911501802795 170.00997817271855,68.27295052768022 167.80979108199244,68.01663489743078 166.40661053947406,68.08986797554826 164.73401933268178,67.54061909156735" stroke="yellow" stroke-linecap="round" stroke-linejoin="round" stroke-width="0.5"><title>2025-03-07 10.7km</title><desc>1741342581000</desc></polyline><polyline fill="none" points="13.1881342700799,94.3749490406044 16.796565183380153,94.83941025839886 17.381108508910984,95.18164399846864 17.864480874268338,95.19386661882163 20.967056986643,96.72168699381291 22.417174082715064,97.68726213321497 25.76705698663136,99.16617000012775 26.014363778289407,98.93394568016811 26.2953942232416,97.72392943158047 27.801717408234254,97.90726580045884 30.09492583910469,97.8583761221089 31.29773614363512,98.37171701800253 32.44434035907034,98.56727503206639 35.33333333331393,98.55505266301043 34.71506635437254,98.67727631253365 31.702419984329026,98.57949740019103 29.94879000779474,97.94393304965342 26.385323965572752,97.7728191499773 26.17174082744168,97.9317106341623 25.946916471468285,99.05616904744238 25.58719750191085,99.1417253503314 21.88883684616303,97.46725817097467 17.864480874268338,95.29164754900557 16.414363778196275,94.87607819326513 13.547853239637334,94.71718374962802 11.33333333331393,94.16716333321529 12.659797033469658,94.24049949529581" stroke="#4DD2FF" stroke-linecap="round" stroke-linejoin="round" stroke-width="0.5"><title>2025-03-05 4.7km</title><desc>1741177738000</desc></polyline><polyline fill="none" points="43.095100864593405,94.32287572490168 46.8645533141098,94.77409305736364 47.92507204617141,95.07490393999615 52.1902017291286,97.40617004295927 55.2910662824288,98.69712608412374 55.994236311235,99.16086515637289 56.3400576369022,99.0731308353279 56.5129682997358,97.84484553700895 56.766570605221204,97.70697621926956 60.2247838616604,97.8824462404009 62.1268011527136,98.60939152126957 66.0,98.65952556280536 64.5360230547376,98.7973940999509 62.103746397653595,98.67205907082825 60.420749279554,97.98271474175272 56.778097982693,97.7195097982767 56.6051873198594,97.8824462404009 56.420749279495794,99.11073126424162 56.1671469740686,99.2109990335739 51.567723342974205,97.25576675312186 47.878962536051404,95.1501065765915 47.636887608096,95.23784294349025 46.5302593659726,94.82422824183595 42.0,94.12233429974003" stroke="#4DD2FF" stroke-linecap="round" stroke-linejoin="round" stroke-width="0.5"><title>2025-03-03 4.6km</title><desc>1740978130000</desc></polyline><polyline fill="none" points="74.70683481241576,94.41793422031333 74.52747937105596,94.52763014758239 72.66666666668607,94.1497883106349 75.59240230423165,94.45449953757634 79.12346255645389,95.21018093114253 82.27339249575743,96.77028631413123 83.31589599879226,97.47720416774973 86.92542425659485,99.12260458432138 87.30655456957174,99.0982284026104 87.49711972603109,97.9281674095837 87.66526545229135,97.72096823662287 91.10664798383368,97.95254376562661 92.81052467698464,98.63508026012278 96.61061809130479,98.68383275791712 95.27666199597297,98.78133770990826 92.76568581658648,98.61070400576864 91.08422855369281,97.97692011803156 87.7101043126313,97.75753281562356 87.54195858637104,97.87941468659847 87.37381286005257,98.96415933831304 87.03752140741562,99.17135693684395 83.24863770825323,97.53814521903405 79.10104312631302,95.24674607133784 78.89926825475413,95.3076879534492 78.15942705899943,94.96641312107386 72.66666666668607,94.16197677059972 78.31636307021836,94.92984791823255 86.90300482639577,99.18354502269358 87.31776428461308,99.11041649390245 87.42986143549206,98.02567281195661 87.63163630705094,97.75753281562356 91.38689086097293,98.00129646678397 92.84415382222505,98.64726838593197 96.66666666668607,98.74477335973643 92.86657325242413,98.63508026012278 91.16269655921496,97.9891082928807 87.69889459758997,97.72096823662287 87.49711972603109,97.9281674095837 87.31776428461308,99.04947602831817 86.9702631169348,99.14698076239438 82.83387825009413,97.31875732823391 79.34765685821185,95.3076879534492 78.82080024911556,95.28331120332587 77.82313560642069,94.85671748802997 74.59473766159499,94.47887641120178 75.88385489652865,94.58857229760906 78.1482173439581,94.91765951545676 79.6615288805915,95.58802031887171 79.717577456031,95.46613674076798 79.04499455087353,95.23455769216525" stroke="yellow" stroke-linecap="round" stroke-linejoin="round" stroke-width="0.5"><title>2025-02-28 10.0km</title><desc>1740736874000</desc></polyline><polyline fill="none" points="105.01087294192985,94.76365673461987 105.24572848709067,94.49613628008228 104.96613855235046,94.7514967234747 105.21217769489158,94.59341649609269 105.06679092888953,94.5326163678692 103.433985709853,94.20429528404202 104.18328673503129,94.17997517751064 108.71264367812546,94.80013676264207 109.43957750854315,95.15277661301661 109.87573780678213,95.10413667892863 114.24852438649395,97.47531659330707 117.74899036966963,99.09256313429796 118.05094749922864,98.98312590392015 118.16278347314801,97.81579088095168 118.38645542092854,97.66987341604545 121.88692140416242,97.88874956444488 123.60919540229952,98.54537624861405 127.27741534641245,98.61833460602793 123.58682820753893,98.6061748820357 121.79745262506185,97.88874956444488 119.73967070516665,97.90090934187174 118.31935383658856,97.69419300260779 118.14041627832921,97.80363109715108 118.05094749922864,99.00744529477379 117.77135756443022,99.26279868016718 113.28673501085723,97.2321202387393 110.08822615718236,95.35949617106235 108.2764833799447,94.86093679118494 106.8449829139281,94.81229677014926 103.34451693069423,94.1678151228698 108.76856166508514,94.87309679419559 109.36129232682288,95.22573648692924 109.87573780678213,95.22573648692924 114.25970798381604,97.54827542899875 117.81609195406782,99.14120187980006 118.06213109660894,98.9344871112844 118.21870146004949,97.69419300260779 121.78626902762335,97.86443000689906 123.24013668840053,98.43593865135335 124.31376203789841,98.6061748820357 127.33333333331393,98.6061748820357 123.665113389201,98.61833460602793 121.79745262506185,97.9860277583939 119.75085430254694,97.97386798732623 118.24106865486829,97.71851258550305 118.07331469398923,98.87368860015704 117.73780677228933,99.18984061085212 113.7228953090962,97.43883716320852 109.78626902768156,95.23789646274236 104.50761105929269,94.38669596772525 103.33333333331393,94.0705346531613 105.08915812365012,94.33805580534681 105.8496427461505,94.49613628008228 107.9074246661039,94.67853663755523 110.3230817024014,95.55405551589502 109.84218701458303,95.22573648692924 109.607331469364,95.28653635694354 108.53370611992432,94.86093679118494 105.98384591488866,94.67853663755523 104.25038831931306,94.24077543709427" stroke="yellow" stroke-linecap="round" stroke-linejoin="round" stroke-width="0.5"><title>2025-02-26 11.1km</title><desc>1740566027000</desc></polyline><polyline fill="none" points="136.0485074626631,94.44542554522923 134.0447761194082,94.20199788502941 134.94029850751394,94.1898264925112 139.47388059698278,94.81056635532877 140.1119402985205,95.16353502930724 140.49253731343197,95.15136370841356 143.64925373136066,96.70928541170724 144.32089552242542,97.29350222018547 147.62313432834344,98.63232452681405 148.37313432840165,99.14350833153003 148.74253731343197,98.92442975391168 148.8432835820713,97.80469021387398 149.0223880597041,97.65863666460791 150.42164179100655,97.8777169395471 152.43656716420082,97.8898880573397 153.95895522384671,98.48627171742555 155.05597014923114,98.64449558834895 157.9328358208877,98.60798240099393 155.0223880596459,98.60798240099393 154.03731343278196,98.47410064405994 152.58208955224836,97.92640140518779 149.1119402985205,97.6951500641735 148.8656716417754,97.85337470129889 148.66417910449672,99.07048217163538 148.3395522388164,99.15567935499712 146.7947761194082,98.31587660808873 144.46641791041475,97.4030426392128 140.53731343278196,95.21222030378703 140.16791044775164,95.24873425014084 139.23880597017705,94.81056635532877 137.9962686567451,94.82273770161555 134.0,94.14114091332885 139.26119402988115,94.82273770161555 140.1119402985205,95.22439162016963 140.53731343278196,95.16353502930724 143.85074626863934,97.02573644228687 147.62313432834344,98.66883770875575 148.45149253727868,99.19219241998508 148.776119402959,98.83923244994367 148.83208955224836,97.84120358079963 148.9776119402959,97.65863666460791 150.66791044775164,97.8777169395471 152.35820895520737,97.84120358079963 153.93656716420082,98.43758741859347 155.1119402985205,98.59581133667962 158.0,98.60798240099393 154.55223880597623,98.60798240099393 152.6156716417754,97.91423029016005 151.48507462686393,97.95074363256572 149.03358208952704,97.6464655296295 148.83208955224836,97.8777169395471 148.75373134331312,98.91225871322968 148.64179104473442,99.13133730711706 148.39552238804754,99.16785037756199 143.94029850745574,97.09876351615821 140.5932835820713,95.23656293560634 140.2014925373369,95.24873425014084 139.32835820893524,94.88359441942885 137.9067164179287,94.81056635532877 134.12313432840165,94.20199788502941 136.78731343284016,94.53062514060002 137.35820895520737,94.56713923928328 139.2500000000582,94.87142307768227 141.25373134331312,95.55301681895799 143.75,96.84316861483967 140.6156716417754,95.24873425014084 137.35820895520737,94.61582469150017" stroke="yellow" stroke-linecap="round" stroke-linejoin="round" stroke-width="0.5"><title>2025-02-21 11.3km</title><desc>1740135343000</desc></polyline><polyline fill="none" points="166.63314711366547,94.5346022361773 164.73370577284368,94.15799192381382 167.45996275608195,94.46170998555317 170.0297951583634,94.8869143215561 170.74487895716447,95.25137429844472 171.44878957170295,95.28782025133842 174.58845437620766,97.08581047989719 178.21973929234082,98.66510986660433 179.0353817504947,99.16319342375209 179.40409683424514,98.8959292651416 179.52700186218135,97.81471978974878 179.68342644325458,97.69323513103882 181.23649906890932,97.89975899698038 183.24767225328833,97.9119074515038 184.53258845437085,98.45858696993673 185.62756052141776,98.64081306880689 188.61080074484926,98.62866466857668 187.71694599627517,98.75014863040997 185.0465549348155,98.60436786532227 183.18063314713072,97.9726497107331 179.73929236503318,97.72968053814839 179.50465549348155,97.92405590516864 179.33705772814574,99.01741302789014 178.9906890130369,99.15104506240459 174.75605214154348,97.25588961027097 171.21415270020952,95.27567160129547 170.70018621982308,95.25137429844472 169.8621973929694,94.8869143215561 168.45437616389245,94.8018735430669 164.66666666668607,94.1458431896026 169.9180633146898,94.85046827905171 171.12476722535212,95.19063102554355 174.063314711384,96.64846333005698 175.0465549348155,97.31663211385603 179.1582867783727,99.1024516079924 179.38175046554534,98.90807764550846 179.45996275602374,97.8876105415111 179.61638733709697,97.69323513103882 183.1359404096729,97.89975899698038 184.54376163874986,98.45858696993673 185.67225325881736,98.64081306880689 188.66666666668607,98.66510986660433 187.42644320294494,98.76229702160344 185.0577281191945,98.61651626740058 183.24767225328833,97.9726497107331 179.70577281195438,97.71753207000438 179.47113594040275,97.94835280977713 179.41527001862414,98.88378088390164 179.19180633145152,99.18749014372588 175.45996275602374,97.5717503818014 171.22532588453032,95.25137429844472 170.8454376164009,95.27567160129547 169.929236499127,94.89906300055736 166.9906890130369,94.52245353000762 167.9515828678268,94.63179185301124 169.8621973929694,94.85046827905171 171.75046554941218,95.56723895280447 171.25884543760912,95.25137429844472 170.65549348230707,95.23922564568056 169.57169459963916,94.83831959639792 168.59962756052846,94.82617091287102 165.21415270020952,94.19443812110694" stroke="yellow" stroke-linecap="round" stroke-linejoin="round" stroke-width="0.5"><title>2025-02-19 10.6km</title><desc>1739962218000</desc></polyline><polyline fill="none" points="13.074906367110088,120.99992838480102 11.33333333331393,120.82889075911953 14.288389513152651,121.14653192197147 16.647940074908547,121.5619078988093 17.299625468207523,121.89176454258268 17.771535580512136,121.8673307398567 21.895131086115725,124.13965881658078 25.850187265954446,125.83777590755199 26.041198501887266,125.59344359616807 26.164794007490855,124.53059380568448 26.355805243481882,124.39621000832994 29.917602996283676,124.6161107103253 31.524344569304958,125.27581104717683 35.33333333331393,125.34911092075345 31.72659176029265,125.30024434199731 29.87265917606419,124.6283274073503 26.580524344579317,124.39621000832994 26.389513108646497,124.60389401239809 26.187265917600598,124.55502721159428 26.041198501887266,125.6667433278053 25.69288389518624,125.80112608404306 21.14232209743932,123.78537317769951 17.79400749062188,121.91619834165613 16.524344569304958,121.5374740469415 12.19850187265547,120.92662656705943" stroke="#4DD2FF" stroke-linecap="round" stroke-linejoin="round" stroke-width="0.5"><title>2025-02-18 4.9km</title><desc>1739836925000</desc></polyline><polyline fill="none" points="44.59520451340359,121.01459202628757 44.56135401973734,121.30903966337792 45.80253878707299,121.27223373753077 47.449929478170816,121.55441229209828 49.605077574029565,122.70765874942299 50.767277856124565,123.08798293778091 51.85049365303712,123.87316558028397 55.4950634696288,125.36990962240088 56.33004231308587,125.87291071377695 56.634696756023914,125.63981283806788 56.71368124120636,124.54792892257683 56.89421720732935,124.3884396548383 60.44851904088864,124.67061286959506 62.09590973198647,125.32083626293752 66.0,125.39444629666104 62.220028208743315,125.24722619634122 60.47108603664674,124.59700251235336 56.984485190419946,124.37617124321696 56.78138222848065,124.59700251235336 56.724964739056304,125.56620291400759 56.544428772933315,125.8238375041692 52.403385049372446,124.09399752393074 49.06346967560239,122.20464798987086 47.35966149502201,121.5176064210973 42.0,120.79375595290912 47.39351198868826,121.52987504568591 48.950634696753696,122.2291851357586 47.39351198868826,121.52987504568591" stroke="#4DD2FF" stroke-linecap="round" stroke-linejoin="round" stroke-width="0.5"><title>2025-02-14 5.4km</title><desc>1739506837000</desc></polyline><polyline fill="none" points="75.28973999689333,121.18210950338107 77.30748871248215,121.42587785831711 79.1234625565121,121.87684835733671 83.60734859103104,124.27794062459725 87.04873112251516,125.85021037678234 87.32897399971262,125.8014580533345 87.766152888129,124.70452693467087 88.0912346256082,124.4485752821056 91.27479371015215,124.63139793195296 93.06834812398301,125.35049837258703 96.66666666668607,125.38706271733099 92.98988011834444,125.35049837258703 91.24116456485353,124.65577426982054 88.14728320104768,124.49732800868514 87.84462089370936,124.64358610133058 87.22808656399138,125.85021037678234 83.37194457423175,124.29012882029929 79.1570917016943,121.92560185032198 78.13700762885856,121.59651549064438 72.66666666668607,120.81645628987462 77.98007161763962,121.52338509856781 79.213140277192,121.92560185032198 83.39436400443083,124.20481143114739 87.01510197733296,125.82583421688469 87.3513934299117,125.74051762856834 87.81099174846895,124.66796243737917 88.16970263124676,124.49732800868514 91.28600342525169,124.66796243737917 92.98988011834444,125.31393401965033 96.66666666668607,125.3748746033234 95.13093569985358,125.46019138229894 92.97867040330311,125.28955777986266 91.21874513471266,124.65577426982054 88.13607348588994,124.4363870981615 87.84462089370936,124.63139793195296 87.34018371481216,125.77708188616089 87.16082827345235,125.8136461355316 83.17016970267287,124.13168220504303 79.54943172977073,122.10842731966113 78.40604079095647,121.63308067440812 72.68908609688515,120.84083319621277 75.53635372879216,121.08460205970914 78.13700762885856,121.52338509856781 79.69515802589012,122.32781761317165 79.11225284141256,121.9134134784399 78.96652654523496,121.98654369614087 77.96886190259829,121.54776189956465" stroke="yellow" stroke-linecap="round" stroke-linejoin="round" stroke-width="0.5"><title>2025-02-12 10.1km</title><desc>1739334019000</desc></polyline><polyline fill="none" points="122.6294706724002,125.00706321769394 123.63662374822889,125.355491427792 127.33333333331393,125.38037912928849 123.76251788268564,125.40526682704512 122.04577968531521,124.63374647177989 118.68097281834343,124.40975602375693 117.94849785405677,125.81591330499214 117.731044349086,125.85324475292873 113.24463519308483,123.8871104769787 112.04291845491389,123.11558310945111 108.86123032908654,121.62229420959193 103.33333333331393,120.75120285239245 108.65522174537182,121.48540872574085 110.4291845493135,122.16983502302901 112.68383404862834,123.26491126518522 113.81688125897199,124.06132584094303 117.65092989982804,125.79102566841175 117.95994277542923,125.67903125785233 118.42918454937171,124.55908302249736 118.71530758222798,124.39731210119498 120.77539341914235,124.62130256590899 121.80543633759953,124.55908302249736 123.64806866954314,125.31815986860602 127.18454935622867,125.36793527899135 122.34334763948573,125.0195070948539 122.40057224605698,125.36793527899135 122.29756795422873,124.9572876997845 121.8855507868575,124.77062937548908 118.71530758222798,124.44708778595668 118.48640915594297,124.57152693301032 117.85693848354276,125.91546381427906 113.54220314731356,124.06132584094303 112.75250357651385,123.42668328320724 111.29899856937118,122.72981808929762" stroke="#4DD2FF" stroke-linecap="round" stroke-linejoin="round" stroke-width="0.5"><title>2025-02-10 6.3km</title><desc>1739162078000</desc></polyline><polyline fill="none" points="134.17152281472227,122.3654634830018 135.62286970863352,122.40848013813957 142.1671247938648,123.3691829386662 144.1726223199512,123.28315004690376 144.34414513467345,123.94273457062081 145.0962067070068,123.98575087432982 145.98020890593762,124.31554221776605 146.58713578886818,123.4408769858419 151.99670148425503,123.34050531235698 152.28697086306056,123.84236315802264 152.6300164925633,123.92839580058353 152.85431555798277,123.79934682235762 153.07861462340225,123.19711711685522 154.10775151179405,123.12542297916661 158.0,123.61294259042188 154.34524463990238,123.11108414841874 153.0390324353939,123.18277829143335 152.7883452445967,123.79934682235762 152.56404617917724,123.9140570294694 151.99670148425503,123.32616649757256 146.65310610225424,123.41219937015558 146.27047828474315,123.67029775789706 146.00659703137353,124.3298809590633 144.4101154480013,123.95707333962491 144.4101154480013,123.39786056072626 144.23859263333725,123.25447240781796 142.2990654205205,123.35484412603546 136.1638262781198,122.45149678364396 134.0,122.3511245958216 135.8735568993725,122.4228190210124 141.87685541505925,123.32616649757256 144.14623419457348,123.25447240781796 144.3309510719846,123.92839580058353 145.99340296862647,124.31554221776605 146.38922484882642,123.56992620365054 146.73227047821274,123.41219937015558 151.94392523361603,123.32616649757256 152.31335898843827,123.85670193443366 152.5772402418661,123.9140570294694 152.85431555798277,123.74199169324129 152.9598680593772,123.26881122788473 153.28971962613286,123.1397618088522 157.7229246838251,123.56992620365054 154.5299615173135,123.11108414841874 153.23694337543566,123.11108414841874 152.88070368336048,123.29748886487505 152.656404617941,123.9140570294694 152.39252336445497,123.85670193443366 151.98350742162438,123.29748886487505 146.60032985155703,123.39786056072626 146.2836723473738,123.64162017627677 146.01979109394597,124.31554221776605 144.39692138537066,123.94273457062081 144.23859263333725,123.19711711685522 142.08796041778987,123.28315004690376 135.4645409565419,122.33678570759366 134.30346344143618,122.37980236910516 135.4909290818614,122.3654634830018 142.68169323803158,123.3835217502492 144.21220450790133,123.25447240781796 144.3573391973623,123.94273457062081 145.3864760857541,124.07178345300781 144.4101154480013,123.92839580058353 144.14623419457348,123.2114559411857 142.15393073111773,123.29748886487505 136.07146783947246,122.40848013813957 134.44859813083895,122.37980236910516 136.19021440355573,122.45149678364396" stroke="#4DD2FF" stroke-linecap="round" stroke-linejoin="round" stroke-width="0.5"><title>2025-01-25 9.9km</title><desc>1737761473000</desc></polyline><polyline fill="none" points="164.98666666663485,122.15962864886387 172.8133333332953,123.28986631480802 175.0800000000163,123.1884349968168 175.06666666670935,124.11580508417683 175.946666666714,124.15927544886654 176.70666666666511,124.5070380178222 177.34666666667908,123.56517962639919 182.79999999993015,123.43476810616266 183.30666666664183,124.07233470979554 183.63999999995576,123.970903798574 183.7333333333372,123.43476810616266 183.9466666666558,123.27537612974993 188.66666666668607,123.72457136609592 184.98666666669305,123.2319055681146 183.82666666660225,123.3333368635067 183.46666666667443,124.05784458284325 183.17333333333954,123.970903798574 183.0533333333442,123.53619929611159 182.79999999993015,123.42027793187299 177.37333333329298,123.52170912934525 177.1066666666302,123.66661074853619 176.7866666666814,124.47805782742216 175.1599999999744,124.08682483564189 175.03999999997905,123.36231722396042 173.1866666666465,123.49272879258206 165.9199999999837,122.43494355530129 164.66666666668607,122.449433802758 166.29333333333489,122.49290453871072 172.77333333331626,123.4637484515406 174.85333333333256,123.34782704427198 175.0266666666721,123.50721896151663 175.0266666666721,124.01437419555441 176.70666666666511,124.47805782742216 177.33333333331393,123.53619929611159 182.7866666666232,123.42027793187299 183.11999999999534,123.970903798574 183.42666666669538,124.05784458284325 184.0,123.26088594362955 187.8666666666395,123.56517962639919 184.1066666666884,123.21741537877824 183.7333333333372,123.3333368635067 183.66666666668607,123.89845311544195 183.42666666669538,124.02886432572268 182.7866666666232,123.37680740254291 177.40000000002328,123.52170912934525 177.0533333334024,123.73906151778647 176.74666666670237,124.44907763270021 175.14666666666744,124.05784458284325 174.9466666666558,123.31884668170824 173.17333333333954,123.4782386225852 166.0533333333442,122.42045330675319 164.96000000002095,122.4639240491233 166.1866666666465,122.43494355530129 167.8933333333116,122.71025807323167" stroke="#4DD2FF" stroke-linecap="round" stroke-linejoin="round" stroke-width="0.5"><title>2025-01-19 8.1km</title><desc>1737283232000</desc></polyline><polyline fill="none" points="14.505682702700142,147.8183071721578 16.512221703189425,148.09864064452995 17.364160049764905,148.53742250650248 17.991904094582424,148.54961087476113 20.9736883075675,150.10971451425576 21.343608905444853,150.4509852022311 24.98676630848786,152.01107071024308 25.805075509822927,152.52297052612994 26.02926981158089,152.38890168149373 26.511287560279015,151.25540615002683 26.82515958265867,151.07258355464728 29.773314650403336,151.21884164729272 31.6565467849141,151.88918956561247 35.33333333331393,151.98669448857254 31.57807877927553,151.88918956561247 29.874202086182777,151.19446530760615 26.86999844305683,151.04820719316194 26.522497275378555,151.18227713640954 26.01806009642314,152.38890168149373 25.861124085262418,152.4620301558316 21.814416939101648,150.7678787750192 17.85738751356257,148.57398760854267 17.543515491124708,148.59836433870078 16.601899423869327,148.18395943210635 14.023664954060223,147.94019134961127 11.33333333331393,147.42827719399065 16.770045150187798,148.22052461313433 17.91343608900206,148.561799242103 22.016191810602322,150.80444337853987 24.975556593446527,152.02325881972502 25.704188074043486,152.54734666785225 26.00685038138181,152.4498420790478 26.500077845179476,151.32853513098962 26.86999844305683,151.1335244424845 29.95267009176314,151.279782480633 31.690175930212718,151.91356580180582 35.33333333331393,152.01107071024308 31.66775650001364,151.98669448857254 29.829363225842826,151.29197064458276 26.85878872795729,151.1335244424845 26.544916705519427,151.279782480633 26.01806009642314,152.4864063066634 25.614510353363585,152.49859438071144 21.14183403388597,150.4509852022311 17.958274949342012,148.63492942713492 17.554725206224248,148.65930614818353 16.680367429507896,148.24490139597037 11.378172193595674,147.46484254395182 16.893352016166318,148.23271300501074 17.509886345884297,148.58617597406555 17.868597228603903,148.54961087476113 22.00498209556099,150.816631577909 25.872333800361957,152.57172280600935 26.589755565859377,151.23102981578268 27.78919508011313,151.23102981578268 26.735481862036977,151.21884164729272 26.01806009642314,152.51078245385725 25.681768643902615,152.4620301558316 21.10820488864556,150.4509852022311 17.9246458041016,148.6227410652209 17.599564066622406,148.6471177881176 16.702786859706976,148.23271300501074 14.191810680262279,147.94019134961127" stroke="yellow" stroke-linecap="round" stroke-linejoin="round" stroke-width="0.5"><title>2025-01-17 12.3km</title><desc>1737088953000</desc></polyline><polyline fill="none" points="44.426966292085126,147.70935502290376 44.58426966291154,147.44058157101972 45.26966292131692,147.8926093965565 48.46067415730795,148.52788963963394 50.25842696626205,149.4563717214187 50.955056179722305,150.00612837077642 56.46067415730795,152.54720182478195 56.67415730335051,152.4006025034614 57.146067415655125,151.28888671851018 57.43820224714,151.0934194278234 60.57303370779846,151.28888671851018 62.292134831426665,151.92415380418242 65.98876404488692,151.9852370481094 62.37078651681077,151.92415380418242 60.43820224714,151.28888671851018 57.52808988763718,151.14228627234115 57.19101123593282,151.26445331993455 56.66292134823743,152.4861187901406 56.51685393258231,152.5349852196814 52.41573033708846,150.775784583544 48.49438202241436,148.564540347812 47.2022471910459,148.23468367944588 42.0,147.50166648514278 47.101123595493846,148.18581596843433 48.168539325823076,148.564540347812 48.47191011236282,148.52788963963394 52.86516853928333,150.9468188069004 55.53932584263384,151.99745369415905 56.33707865164615,152.51055200674455 56.6404494381859,152.43725234609155 57.12359550560359,151.2766700196662 57.46067415730795,151.10563614031707 60.46067415730795,151.28888671851018 62.26966292131692,151.91193715264671 66.0,151.96080375328893 62.32584269659128,151.91193715264671 60.56179775274359,151.33775350476208 57.53932584269205,151.11785285193764 57.19101123593282,151.28888671851018 56.55056179774692,152.55941842896573 52.5955056179082,150.86130171752302 48.52808988757897,148.62562484318914 47.97752808989026,148.60119104776822 47.38202247186564,148.25911752948014 43.39325842697872,147.68492109092767" stroke="#4DD2FF" stroke-linecap="round" stroke-linejoin="round" stroke-width="0.5"><title>2025-01-15 9.1km</title><desc>1736916504000</desc></polyline><polyline fill="none" points="74.75897435902152,147.34791047594626 74.91561771568377,147.61555666571076 75.46386946394341,147.94403093530855 78.20512820518343,148.3941612686176 79.69324009330012,148.8807872600737 81.46107226109598,150.0365181775269 87.04428904427914,152.59126275926246 87.29044289048761,152.53043597175565 87.76037296041613,151.43554992295685 88.14079254079843,151.22873728943523 91.22890442889184,151.42338448115333 92.91841491841478,152.09248243314505 96.66666666668607,152.17764015763532 92.87365967372898,152.12897860622616 91.19533799536293,151.45988080376992 88.12960372958332,151.22873728943523 87.76037296041613,151.43554992295685 87.23449883447029,152.60342811403098 86.8876456876751,152.60342811403098 83.21771561773494,150.973262498228 79.15617715625558,148.7104683280195 78.92121212126222,148.783462177802 77.50023310026154,148.33333291769668 72.66666666668607,147.6520538393961 76.71701631706674,148.13868204252503 79.13379953388358,148.67397139090463 82.74778554780642,150.66912532088463 87.11142191145336,152.65208952405374 87.36876456876053,152.50610525043157 87.89463869470637,151.2773991091235 89.03589743591147,151.30173001352523 87.92820512823528,151.32606091430353 87.20093240094138,152.6399241729232 82.93799533799756,150.90026962732372 79.2233100233716,148.7347996148892 77.91421911423095,148.357664260795 74.38974358979613,147.87103671029035" stroke="#4DD2FF" stroke-linecap="round" stroke-linejoin="round" stroke-width="0.5"><title>2025-01-14 7.8km</title><desc>1736829619000</desc></polyline><polyline fill="none" points="106.61519379843958,147.9791553395189 106.42542635661084,147.71213237859774 106.87193798448425,147.76068204040348 110.62263565888861,148.9622815597104 112.93333333329065,150.1031860318035 113.96031007752754,150.81928156597132 117.67751937982393,152.51847871261998 117.92310077516595,152.44565634126775 118.42542635655263,151.30476827337407 118.74914728675503,151.11057376401732 121.77426356583601,151.30476827337407 123.2254263565992,151.89948751835618 124.26356589148054,152.0329956219066 127.33333333331393,152.0329956219066 123.43751937983325,151.93589883018285 121.78542635659687,151.30476827337407 118.78263565892121,151.09843659948092 118.4589147286606,151.23194535948278 117.9342635658686,152.44565634126775 117.62170542636886,152.45779340542504 113.88217054260895,150.84355593568762 110.46635658916784,148.97441888335743 108.74728682165733,148.25831523980014 103.33333333331393,147.49365872138878 108.81426356587326,148.28258999112586 110.46635658916784,148.90159492778184 113.45798449608264,150.5886748731573 117.64403100771597,152.4820675309893 117.9119379845215,152.40924514336803 118.3584496123949,151.31690542251454 118.68217054265551,151.11057376401732 121.87472868215991,151.31690542251454 123.5491472868016,151.94803593230608 127.22170542634558,152.04513271682663 123.47100775194122,151.91162462320062 121.79658914724132,151.28049397237191 118.67100775195286,151.09843659948092 118.40310077514732,151.25621966771723 117.87844961241353,152.4820675309893 117.45426356588723,152.44565634126775 116.88496124028461,152.05726981081534 113.72589147282997,150.7950071926316 109.7519379844889,148.5496120169846 108.55751937982859,148.22190310600854 103.37798449612455,147.48152128739457 109.77426356589422,148.5374746616726 113.74821705423528,150.72218405087187 116.91844961239258,152.0329956219066 117.65519379847683,152.5063416530029 117.9119379845215,152.43351927617914 118.40310077514732,151.24408251406567 118.71565891470527,151.09843659948092 121.71844961238094,151.25621966771723 123.27007751935162,151.8752133059752 124.20775193796726,151.972310133875 123.2254263565992,151.8752133059752 121.68496124027297,151.25621966771723 118.73798449611058,151.06202510051662 118.42542635655263,151.20767104763945 117.92310077516595,152.38497100690438 117.52124031004496,152.39710807557276 116.48310077516362,151.82666487029928 113.74821705423528,150.7707328156539 109.74077519372804,148.5496120169846 108.20031007751822,148.16121619830665" stroke="yellow" stroke-linecap="round" stroke-linejoin="round" stroke-width="0.5"><title>2025-01-10 13.0km</title><desc>1736482744000</desc></polyline><polyline fill="none" points="136.2990654205787,147.29903459839988 137.39813084114576,148.04287764155015 139.30467289721128,148.40870084882772 141.17757009348134,149.12815077111009 143.20747663552174,150.33535624716023 148.45607476640726,152.70096540160012 148.70280373835703,152.50586490922433 148.80373831780162,151.4328080443811 148.9495327103068,151.24989992252085 152.4822429906926,151.48158350902668 154.33271028043237,152.16443848800554 157.94392523367424,152.2497951600526 154.1757009346038,152.12785704349517 152.4822429906926,151.49377737291798 149.01682242995594,151.23770604048332 148.79252336453646,151.49377737291798 148.70280373835703,152.55464005410613 148.45607476640726,152.70096540160012 144.44112149538705,150.99382820852043 140.49345794395776,148.78671730398491 139.25981308415066,148.40870084882772 134.0,147.67705361657136 139.55140186921926,148.43308903356956 140.10093457944458,148.73794103624823 140.4822429906344,148.73794103624823 144.50841121497797,150.94505259848665 148.28785046731355,152.6521903002722 148.66915887850337,152.55464005410613 148.7813084112713,151.44500191192492 148.98317757016048,151.26209380365617 152.4822429906926,151.49377737291798 154.4224299065536,152.16443848800554 158.0,152.21321373463434 154.11962616827805,152.11566322682484 152.47102803742746,151.44500191192492 149.0280373832211,151.26209380365617 148.83738317759708,151.38403256519814 148.82616822433192,152.2497951600526 148.53457943932153,152.68877162761055 144.36261682247277,150.95724650238117 140.51588785048807,148.77452323843318 139.1813084112364,148.40870084882772 134.0,147.64047116911388 137.92523364484077,148.14043057677918 140.437383177632,148.71355289693747 144.12710280378815,150.77433784907043 148.31028037390206,152.6521903002722 148.62429906550096,152.56683383803465 148.87102803745074,151.9571435276448 148.62429906550096,152.6278027442022 148.1308411215432,152.55464005410613 144.4299065421219,150.96944040531525 140.49345794395776,148.7013588259142 140.23551401874283,148.762329171921 139.3719626168604,148.34773037105333 137.9476635514875,148.1892070225731" stroke="yellow" stroke-linecap="round" stroke-linejoin="round" stroke-width="0.5"><title>2025-01-08 12.0km</title><desc>1736310892000</desc></polyline><polyline fill="none" points="167.22487143526087,148.523855044652 167.56147732585669,147.9870635434636 167.60635811125394,147.46247014887922 167.8195418419782,147.27947205769306 168.06638616177952,147.3282715686655 167.95418419816997,147.41367067789542 169.04254324448993,147.82846571769915 169.60355306218844,148.29205893045582 171.9036933146417,149.0972440225305 175.71856007480528,151.15898780035786 179.15194015891757,152.68392951563874 179.37634408596205,152.46433878381504 179.4100046750391,151.45177771117596 179.7241701729945,151.24438491176988 183.15755025710678,151.48837641325372 184.95278167369543,152.17155068335705 188.66666666668607,152.24474775756244 184.9303412809968,152.14715165138477 183.20243104250403,151.51277554337867 179.67928938759724,151.28098366015183 179.44366526411613,151.52497510708054 179.4100046750391,152.46433878381504 179.21926133707166,152.7205279423215 175.0116877045366,150.92719541634142 171.163160355296,148.7678505997901 170.73679289384745,148.7678505997901 169.95137914916268,148.3896573343227 164.66666666668607,147.71866713294003 170.10846189811127,148.4994554691075" stroke="#4DD2FF" stroke-linecap="round" stroke-linejoin="round" stroke-width="0.5"><title>2025-01-06 5.2km</title><desc>1736137119000</desc></polyline><polyline fill="none" points="14.43987538939109,174.825389009653 14.495950155775063,174.36201160062046 14.866043613757938,173.81327349842468 15.135202492179815,174.76441837289894 14.753894080989994,175.02049489464844 15.460436137043871,174.98391255893512 17.79314641741803,175.5448408080556 20.95576323987916,177.03251076705055 21.5501557632233,177.55685023468686 25.811838006193284,179.44689716659195 26.069781931466423,179.28837793978164 26.114641744585242,178.26409615809098 26.327725856681354,178.0689941396413 30.01744548289571,178.32506549116806 31.789408099662978,178.9957266561978 35.33333333331393,179.05669571677572 31.643613707157783,178.97133902563655 29.894080996862613,178.2884838940663 26.372585669741966,178.0689941396413 26.159501557645854,178.25190228877182 26.080996884731576,179.28837793978164 25.856697819312103,179.50786605912435 21.830529595026746,177.8495040908747 18.533333333325572,175.9838267924788 16.873520249209832,175.31315328602795 11.33333333331393,174.44737069560506 15.101557632384356,174.91074786294485 17.77071651094593,175.50825858955795 21.157632398768328,177.386135243607 25.07165109028574,179.09327714219398 25.677258566953242,179.5200598349038 26.05856697820127,179.2517965579318 26.159501557645854,178.19093292842444 26.316510903357994,178.03241248527775 28.806230529560708,178.32506549116806 29.894080996862613,178.26409615809098 31.699688473483548,178.95914520896622 35.32211838004878,179.02011428315018 31.396884735208005,178.89817611206672 29.826791277271695,178.2884838940663 26.406230529595632,178.03241248527775 26.159501557645854,178.21532067529915 26.125856697792187,179.21521516794746 25.87912772584241,179.4590909469407 21.88660436135251,177.8373101906618 18.555763239855878,175.91066254349425 17.176323987543583,175.3863178021129 11.479127725877333,174.50834145046247" stroke="#4DD2FF" stroke-linecap="round" stroke-linejoin="round" stroke-width="0.5"><title>2025-01-03 9.5km</title><desc>1735878536000</desc></polyline><polyline fill="none" points="44.394379391218536,174.33827911291155 45.799531615979504,174.72940490263863 47.40702576114563,174.87607683335955 48.182669789297506,175.26720134085917 48.47494145203382,175.23053345788503 51.8135831382242,177.07614005838695 56.29882903984981,179.14172812171455 56.636065573839005,179.08061642215762 57.096955503569916,177.96837951293855 57.434192037559114,177.77282059568097 60.44683840754442,177.9561570874357 62.23419203754747,178.62838913789892 66.0,178.73839048392256 62.51522248249967,178.64061151332862 60.58173302107025,178.01726920584042 57.45667447312735,177.83393278233416 57.096955503569916,178.0294916267885 56.50117096025497,179.19061746497755 52.139578454371076,177.3572571224213 48.4637002342497,175.3038692156406 48.17142857151339,175.32831446091586 47.2721311476198,174.90052214240131 46.001873536384664,174.8394088629575 42.0,174.14271586833638 47.36206089000916,174.888299488317 48.947072599607054,175.63387971972406 47.46323185018264,174.92496744779055 44.16955503518693,174.423837959097" stroke="#4DD2FF" stroke-linecap="round" stroke-linejoin="round" stroke-width="0.5"><title>2025-01-02 5.6km</title><desc>1735817809000</desc></polyline><polyline fill="none" points="75.43676012463402,174.4351754779782 78.10591900313739,174.8741636210616 78.89096573210554,175.28876245283755 79.64236760127824,175.42289714413346 83.72461059194757,177.66658840933815 87.16760124615394,179.15423631308659 87.45919003116433,178.8493915325671 87.78442367602838,178.03240472120524 88.17694704054156,177.83730278995063 91.05919003119925,177.93485378465266 93.16760124615394,178.7030658362928 96.66666666668607,178.72745346141164 95.29844236758072,178.81281012076943 92.96573208726477,178.66648439178243 91.2161993769696,177.98362926021218 88.18816199380672,177.81291503219109 87.84049844241235,177.9470476549177 87.32461059198249,179.10546118632192 87.13395638635848,179.19081764855946 81.63862928352319,176.77643196846475 79.11526479752501,175.28876245283755 78.75638629292371,175.31315058672044 77.9825545171625,174.92294000873517 72.66666666668607,174.1303219080437 77.57881619944237,174.81319311606057 78.84610591904493,175.26437431533122 79.11526479752501,175.19120988102804 82.71526479755994,177.21541383200383 87.13395638635848,179.20301142527023 87.87414330220781,177.91046604144503 88.17694704054156,177.78852727080812 89.02928348910064,177.89827216844424 87.8517133956775,177.88607829457032 87.32461059198249,179.081073617519 87.12274143303512,179.14204253273783 83.05171339568915,177.42271041385538 79.28348909661872,175.32534465227218 78.7788161993958,175.28876245283755 77.88161993771791,174.88635771935515 76.9171339563909,174.92294000873517 73.00311526481528,174.16690436644421 75.47040498448769,174.63028146470606" stroke="#4DD2FF" stroke-linecap="round" stroke-linejoin="round" stroke-width="0.5"><title>2024-12-31 8.0km</title><desc>1735619151000</desc></polyline><polyline fill="none" points="106.67538940813392,174.60589338264253 107.49408099689754,174.63028161642433 109.83800623059506,175.17901591629197 111.2062305296422,175.91065878758673 111.59875389409717,176.31306097266497 117.87912772590062,179.1542361277534 118.47352024924476,177.9958230277989 118.80996884737397,177.812914946815 121.91651090345113,177.98362916208862 123.46417445479892,178.60551515495172 127.32211838010699,178.70306568456 123.60996884742053,178.66648424278537 121.89408099692082,177.9958230277989 118.82118380069733,177.812914946815 118.49595015583327,177.95924142793228 117.82305295951664,179.2030112363136 114.03239875391591,177.58123108409927 110.6006230529747,175.6911662696075 108.60436137072975,174.8985519484413 103.33333333331393,174.13032209700032 107.57258566981182,174.67905807311763 109.80436137074139,175.1912099909532 114.03239875391591,177.48367988593236 117.72211838007206,179.19081746053416 118.0024922118173,179.08107343765732 118.47352024924476,177.98362916208862 118.85482866043458,177.77633330607205 121.84922118386021,177.95924142793228 123.6660436137463,178.62990279281803 127.33333333331393,178.64209661037603 123.80062305298634,178.65429042704636 121.83800623053685,177.98362916208862 118.7987538940506,177.78852718720736 118.47352024924476,177.95924142793228 117.9800623053452,179.06887965278293 117.80062305298634,179.1542361277534 113.74080996884732,177.44709817161493 109.89408099692082,175.2887625554722 108.21183800627477,174.87416375460452 103.51277258567279,174.19129285187228 108.45856697822455,174.86196965632553 109.49034267914249,175.27656848808692 109.92772585671628,175.2277922094654 113.49408099689754,177.20321986726776 109.8716510903323,175.25218035059515 106.48473520250991,174.61808749997" stroke="yellow" stroke-linecap="round" stroke-linejoin="round" stroke-width="0.5"><title>2024-12-30 10.8km</title><desc>1735533491000</desc></polyline><polyline fill="none" points="137.36940298508853,174.56105247441155 139.56343283585738,174.92619323011604 140.1791044776328,175.27916185148933 140.49253731349017,175.24264789154404 141.13059701496968,175.51041674161388 143.87313432840165,177.0683358913957 148.32835820899345,179.1130822300329 148.65298507467378,179.12525326256582 149.12313432834344,177.96900112267758 149.49253731349017,177.76209198182914 152.43656716414262,177.95683000398276 154.19402985076886,178.63841125366162 158.0,178.69926658412442 154.3395522388746,178.63841125366162 152.54850746272132,177.9811722404702 149.44776119402377,177.786434247304 149.14552238810575,177.96900112267758 148.75373134331312,178.95485872446443 148.4514925373369,179.17393738367537 144.26492537313607,177.4091287249903 141.28731343289837,175.7051574478537 139.58582089556148,175.01139262235665 134.0,174.13505389454076 139.39552238810575,174.91402188474603 141.5447761194082,175.7051574478537 143.80597014928935,177.0683358913957 148.41791044775164,179.19827943878772 148.64179104479263,179.13742429419653 149.1567164179287,177.9811722404702 149.47014925372787,177.83511876733974 152.52611940301722,178.00551447329053 154.20522388065,178.6505823215557 157.96641791047296,178.6870955198101 156.82462686568033,178.78446400865505 154.26119402988115,178.6505823215557 152.51492537313607,177.95683000398276 149.48134328360902,177.786434247304 149.16791044780985,177.92031664251408 148.65298507467378,179.10091119655408 148.3171641791123,179.14959532493958 144.69029850745574,177.56735372752883 143.5037313432549,176.8370832065848 139.56343283585738,174.96270726081275 134.5708955223672,174.2567678878695" stroke="#4DD2FF" stroke-linecap="round" stroke-linejoin="round" stroke-width="0.5"><title>2024-12-27 9.1km</title><desc>1735273142000</desc></polyline><polyline fill="none" points="183.9676012460841,178.1116648051393 183.0928348909947,177.86778755456908 182.16199376946315,177.9775323622889 179.9750778816524,177.77023655263474 179.2012461059494,179.16033284213336 175.13021806854522,177.5019709974149 171.0928348909365,175.28266635801992 170.76760124613065,175.31924854655517 169.89283489098307,174.9290381139581 164.66666666668607,174.09983785561053 168.32274143304676,174.68515612115152 168.68161993776448,174.62418556616467 171.24984423682326,175.27047229335585 174.10965732089244,176.7093656521174 174.53582554520108,177.09957184022642 178.95451713399962,179.12375151205924 179.27975077880546,179.09936395417026 179.7283489096444,177.9775323622889 180.08722741436213,177.75804267327476 183.18255451711593,177.95314463361865 185.0778816199745,178.66038729037973 188.66666666668607,178.7579377618531 184.70778816199163,178.58722439863777 183.31713395641418,177.98972622526344 180.07601246103877,177.77023655263474 179.84049844241235,177.8433998095279 179.33582554524764,179.13594528964313 179.11152647976996,179.23349547771795 178.14704049850116,178.66038729037973 174.99563862930518,177.41661368310452 171.30591900314903,175.2582782278041 168.7713395638857,174.68515612115152 166.1133956386475,174.3315265860292" stroke="#4DD2FF" stroke-linecap="round" stroke-linejoin="round" stroke-width="0.5"><title>2024-12-25 6.6km</title><desc>1735101299000</desc></polyline><polyline fill="none" points="13.825381976901554,200.9776990821847 13.73557842214359,201.19739880764973 13.88150919857435,201.1485766718979 14.09479264105903,200.7946157525148 14.77954474586295,201.27063198399264 15.5428749609855,201.30724855988228 17.88899282820057,201.90531814098358 22.042407234141137,204.17552157482714 25.859058309928514,205.82323017148883 26.0162145307404,205.81102498354448 26.48768319300143,204.6515279826417 26.835671967593953,204.46844875869283 29.844091050792485,204.63932270740042 31.786092921742238,205.37163761195552 35.33333333331393,205.4326637062768 31.617711256665643,205.3350219444692 29.731836607446894,204.62711743128602 26.73464296857128,204.48065404663794 26.48768319300143,204.6027068762487 25.98253819771344,205.7499990301585 25.780480199551675,205.78661460492003 21.638291237934027,204.07787906379963 18.528843155596405,202.27148211297754 16.766448394104373,201.5635643620044 11.33333333331393,200.806821314196 13.174306205124594,201.08754898174084 14.049890863709152,201.063137899313 17.13688805734273,201.6734138687316 18.540068599919323,202.22266029733873 22.390396008675452,204.34639582906675 25.679451200470794,205.81102498354448 26.027439975063317,205.77440941425448 26.588712192082312,204.52947518939618 27.733707514766138,204.52947518939618 26.622388525109272,204.49285933369538 25.971312753332313,205.87205091415672 21.93015279073734,204.1999321934709 19.75241658865707,202.91836979678192 16.878702837508172,201.64900287358614 11.367009666282684,200.81902687497495 15.980667290277779,201.4781258058647" stroke="#4DD2FF" stroke-linecap="round" stroke-linejoin="round" stroke-width="0.5"><title>2024-12-18 8.3km</title><desc>1734495982000</desc></polyline><polyline fill="none" points="44.52985074633034,199.98014667951793 44.115671641833615,200.07751889714564 44.26119402988115,199.95580361601606 44.115671641833615,200.05317584818113 44.02611940295901,199.91928901398205 44.07089552242542,200.04100432233827 44.9776119402959,200.6739224637713 46.95895522390492,201.55026661105512 47.42910447763279,202.2927211682254 47.9552238805918,202.7065468338551 48.537313432840165,202.79174610547489 52.64552238804754,205.00691157142865 56.3619402985787,206.67435147649667 56.63059701491147,206.68652250811283 57.1567164179869,205.51809933659388 57.48134328360902,205.33553246123483 60.593283582129516,205.53027045438648 62.55223880603444,206.21185160249297 66.0,206.27270692386082 62.25,206.21185160249297 60.593283582129516,205.54244157124776 57.425373134436086,205.34770359257527 57.10074626869755,205.53027045438648 56.541044776153285,206.7352066255844 51.044776119466405,204.43486622345517 50.664179104496725,204.05755862106162 49.28731343289837,203.27859823372273 47.63059701496968,202.62134751780832 42.0,201.70849491437548 47.35074626863934,202.4144347081019 48.291044776153285,202.82826006542018 48.492537313490175,202.76740346095175 52.690298507513944,205.05559618938423 55.57835820893524,206.19968053548655 56.37313432840165,206.68652250811283 56.67537313437788,206.6134963046934 57.235074626863934,205.44507261092076 58.39925373136066,205.40855923587515 57.30223880597623,205.4815859778464 56.720149253786076,206.74737765270402 56.216417910472956,206.7108645686967 52.42164179106476,205.079938492956 51.38059701496968,204.3983526226075 47.59701492538443,202.56049083627295 42.089552238816395,201.79369470651727 47.42910447763279,202.4387774052011" stroke="#4DD2FF" stroke-linecap="round" stroke-linejoin="round" stroke-width="0.5"><title>2024-12-17 8.6km</title><desc>1734409492000</desc></polyline><polyline fill="none" points="75.62603144947207,201.12726262031356 78.02491047797957,201.50510344377835 78.89926825469593,201.91950850475405 79.19072084699292,201.83418990155042 83.34952514403267,204.125588366398 87.12719912815373,205.7587995975482 87.32897399965441,205.7344234303746 87.84462089365115,204.5277986155852 88.1248637708486,204.36935227182403 91.37568114587339,204.6009276455443 93.00108983344398,205.2225230806216 96.66666666668607,205.28346368244092 96.30795578385005,205.40534481797658 92.98988011834444,205.28346368244092 91.07301883853506,204.57655130585772 88.19212206138764,204.45466955289885 87.75494317297125,204.72280928955297 87.27292542427313,205.7587995975482 87.08236026781378,205.81973999961338 83.6858165966114,204.38154045754345 79.12346255645389,201.94388524035458 78.52934765687678,201.8707550226536 77.90160361205926,201.50510344377835 72.66666666668607,200.7859862877085 77.98007161763962,201.49291504373832 78.73112252837745,201.89513176554465 79.16830141679384,201.85856664986932 83.31589599879226,204.11340016160102 87.04873112251516,205.74661151441978 87.36260314495303,205.72223534539808 87.74373345787171,204.68624480588187 88.1248637708486,204.3937286423752 91.409310291172,204.6009276455443 92.96746068814537,205.2225230806216 96.59940837614704,205.32002803261275 93.16923555970425,205.28346368244092 91.20753541961312,204.57655130585772 88.11365405574907,204.4302931914135 87.83341117860982,204.5643631346611 87.25050599413225,205.81973999961338 83.23742799315369,204.17434117653465 79.13467227155343,201.94388524035458 78.13700762885856,201.59042221862182 72.80118324770592,200.81036319224222 77.95765218744054,201.50510344377835 78.7423322435352,201.89513176554465 79.22434999223333,201.90732013559318 83.78670403239084,204.33278770915058 87.04873112251516,205.7831757610984 87.36260314495303,205.7344234303746 87.74373345787171,204.4912340883311 89.04406040796312,204.51561044073605 87.8558306087507,204.53998678948847 87.295344854414,205.880680378963 83.20379884791328,204.1621529753611 79.17951113183517,201.9316968730127 78.82080024911556,201.94388524035458 77.93523275724147,201.5172918429016 72.80118324770592,200.85911699035205 77.8567647516611,201.49291504373832" stroke="yellow" stroke-linecap="round" stroke-linejoin="round" stroke-width="0.5"><title>2024-12-15 13.0km</title><desc>1734235831000</desc></polyline><polyline fill="none" points="105.70646766165737,200.8808344816207 105.70646766165737,201.01471980944916 106.7139303482254,201.31900423728803 108.06840796017786,201.5989454103401 108.77363184076967,201.55026002338855 109.45646766165737,201.9397427126387 109.84825870639179,201.9519140317134 114.48258706467459,204.42267302796245 117.80721393035492,205.8345185349899 118.01990049751475,205.8223475051782 118.46766169153852,204.7391222196893 118.8034825870418,204.5200420753099 121.8930348259164,204.67826665351458 123.67288557213033,205.3598477000487 127.33333333331393,205.43287407212483 123.60572139301803,205.3598477000487 121.98258706467459,204.69043776854232 118.74751243786886,204.47135755888303 118.43407960195327,204.61741106465342 117.8967661691131,205.85886059189215 113.99004975124262,204.26444820224424 110.35199004970491,202.23185412016755 108.69527363183443,201.58677406495553 103.33333333331393,200.8078060747648 106.17661691532703,201.09991950637777 108.69527363183443,201.51374597368704 109.8258706467459,201.87888610367372 113.26243781088851,203.75325925651123 116.69900497508934,205.26247915321437 117.54975124378689,205.79800544280442 118.0087064676336,205.74932130718662 118.42288557213033,204.7391222196893 118.76990049751475,204.49569981894456 121.83706467662705,204.6295821842068 123.50497512437869,205.32333450177975 124.7810945273377,205.33550556880073 123.4154228855623,205.28682129534718 121.81467661692295,204.65392442069424 118.8930348258582,204.47135755888303 118.43407960195327,204.60523994415416 117.87437810946722,205.8101764744206 113.77736318402458,204.1427366935677 109.84825870639179,201.97625666712702 108.67288557207212,201.58677406495553 106.90422885568114,201.3676896931429" stroke="#4DD2FF" stroke-linecap="round" stroke-linejoin="round" stroke-width="0.5"><title>2024-12-13 8.5km</title><desc>1734064159000</desc></polyline><polyline fill="none" points="136.59612659417326,201.1515578738472 139.06754841754446,201.5090290729422 140.7680680207559,202.0390711533837 144.3051487954799,204.03595862543443 148.26169107225724,205.7862969591515 148.57912139815744,205.79862321978726 149.0892772791558,204.62762435915647 149.4067076051142,204.46738176519284 152.5243268776685,204.62762435915647 154.08880491257878,205.26859318316565 158.0,205.34255096463312 154.4629192253342,205.31789837447286 152.4109589040745,204.615298011282 149.32735002366826,204.45505540537124 148.99858290032716,204.56599261063093 148.62446858757176,205.62605548728607 148.35238545114407,205.872580764335 147.54747283889446,205.4165087130241 144.29381199809723,204.1468961116916 141.00614076521015,202.26094872933754 139.2602739725844,201.6569479638856 140.99480396782747,202.21164262706588 143.080774681177,203.46894364524633 147.57014643360162,205.4041824238957 148.2276806801674,205.83560199619387 148.55644780345028,205.76164443511516 149.06660368444864,204.41807632044947 148.53377420874313,205.72466564217757 148.25035427493276,205.79862321978726 144.4185167689575,204.17154887628567 140.3372697213199,201.8788260523288 139.94048181385733,201.89115260407561 138.9428436466842,201.48437591160473 134.0,200.79408590233652" stroke="#4DD2FF" stroke-linecap="round" stroke-linejoin="round" stroke-width="0.5"><title>2024-12-11 6.6km</title><desc>1733890893000</desc></polyline><polyline fill="none" points="167.5767790262471,201.26870157451776 170.14981273416197,201.5619081245386 170.71161048690556,201.89176486662473 171.1722846442717,201.87954796207487 175.39700374536915,204.21296021381568 179.1722846442717,205.84999401714595 179.79026217234787,204.57946173878736 180.11610486893915,204.4328612271056 183.3408239700948,204.62832854692533 184.99250936333556,205.2758123796375 188.63295880157966,205.36132892114983 185.12734082405223,205.2758123796375 183.3745318352594,204.68941203657596 179.88014981278684,204.54281162314874 179.26217228465248,205.88664384065487 175.31835205998505,204.23739367430971 174.18352059932658,203.4677379202767 171.1385767791071,201.95284937566612 170.89138576789992,202.01393386196287 169.92509363300633,201.62299275647092 164.779026217293,200.88997567137994 169.04868913860992,201.37865409221558 171.1385767791071,201.86733105663734 174.08239700377453,203.3211364146846 175.30711610493017,204.1396598105348 179.08239700383274,205.82556079693313 179.31835205998505,205.740044497521 179.8127340824576,204.65276194550097 180.11610486893915,204.4328612271056 182.08239700377453,204.62832854692533 183.08239700377453,204.54281162314874 185.04868913860992,205.2880290311732 188.66666666668607,205.3491122751002 184.8576779026771,205.26359572722868 183.31835206004325,204.65276194550097 180.0936329588876,204.44507794143283 179.8127340824576,204.55502832928323 179.4194756554789,205.65452815349272 179.20599250943633,205.8377774075052 175.7003745319089,204.371777641878 173.59925093635684,203.11345072410768 171.11610486899735,201.89176486662473 169.31835205998505,201.43973879241094 164.66666666668607,200.78002282601665 170.40823970042402,201.61077583191218 178.90262172289658,205.7644777304522 179.31835205998505,205.69117802064284 179.8127340824576,204.4206445118616 179.3408239700948,205.740044497521 179.10486891388427,205.78891095978906 175.44194756558863,204.23739367430971 171.14981273416197,201.8551141502685 167.22846441954607,201.19539985507436" stroke="yellow" stroke-linecap="round" stroke-linejoin="round" stroke-width="0.5"><title>2024-12-09 12.1km</title><desc>1733738831000</desc></polyline><polyline fill="none" points="21.32013823435409,230.4611710250756 25.83286207978381,232.5025203214609 26.353125981753692,231.3219840474776 26.760289035446476,231.1006325561757 29.67829092044849,231.22360564353585 31.453974238131195,231.92455049220007 35.33333333331393,232.05982020810188 31.827207037364133,231.9860367404326 29.870562362484634,231.30968675017357 26.79421928996453,231.14982180212974 26.40967640589224,231.27279485286272 25.85548224946251,232.5271147374151 22.281495444534812,231.0391459781822 17.734841344645247,228.57966407538333 17.327678290894255,228.59196157607948 16.80741438892437,228.24763121081924 13.584040213667322,227.81721724411182 13.17687715991633,227.6204561997729 12.984605717880186,227.78032456614892 11.570845114707481,227.5589683253056 14.918630223080982,227.9033001272328 17.734841344645247,228.53047406351834 20.69808356894646,229.99387064728944 21.535029846068937,230.60873929059017 25.663210807426367,232.5025203214609 25.93465284316335,232.3918454044324 26.40967640589224,231.24820025004738 26.66980835684808,231.05144329559698 27.676405906328,231.22360564353585 29.84794219286414,231.23590294724272 31.65755576500669,231.93684774369467 35.25416273949668,232.01063123330823 31.567075086408295,231.89995598648966 29.84794219286414,231.2604975518916 26.748978950665332,231.12522718102264 26.285265472834,231.51874067942845 25.84417216462316,232.5271147374151 21.636820609506685,230.7071180609637 17.723531259805895,228.57966407538333 17.46339930879185,228.62885407258 16.00439836626174,228.14925097452942 11.33333333331393,227.47288526257034 16.219289978034794,228.14925097452942 17.361608545354102,228.56736657379952 17.791391768783797,228.55506907131348 19.250392711313907,229.35440482855483" stroke="#4DD2FF" stroke-linecap="round" stroke-linejoin="round" stroke-width="0.5"><title>2024-12-06 9.2km</title><desc>1733479157000</desc></polyline><polyline fill="none" points="44.434782608703244,227.8345657235186 47.48667601682246,228.200559901612 48.13744740531547,228.60315255263413 48.496493688668124,228.52995396241022 52.681626928504556,230.87229261911125 56.33941093971953,232.49483048330876 56.70967741939239,232.3850351951114 57.102384291705675,231.33587650646223 57.52875175315421,231.16508259538386 60.5582047685748,231.311477387193 62.26367461431073,231.958052818969 66.0,232.0800478971796 62.30855539976619,231.958052818969 60.53576437587617,231.34807606470713 57.47265077137854,231.15288302347471 57.07994389900705,231.39687428865 56.51893408136675,232.51922942625242 52.37868162692757,230.76249624307093 51.436185133235995,230.1159160907555 48.507713884988334,228.62755207542796 48.18232819077093,228.65195159456925 47.363253856950905,228.26155885175103 42.0,227.48077057374758 47.363253856950905,228.24935906352766 49.04628330998821,228.95694527728483 48.552594670443796,228.62755207542796 44.446002805023454,227.8467655426648" stroke="#4DD2FF" stroke-linecap="round" stroke-linejoin="round" stroke-width="0.5"><title>2024-12-03 5.6km</title><desc>1733220329000</desc></polyline><polyline fill="none" points="75.7995337995817,227.95619527901 78.07086247083498,228.19950901799893 78.84289044287289,228.64963847931358 79.82750582747394,228.77129487748607 80.89044289046433,229.46473461620917 82.3449883449357,230.01218496142246 83.27365967363585,230.72995041108516 87.2680652680574,232.48177148238756 87.77156177157303,231.399050955064 88.17435897438554,231.13141106648254 91.22890442895005,231.30172740996932 93.10862470866414,231.99515640319441 95.73799533804413,231.97082561117713 96.66666666668607,232.0438179763878 96.3869463869487,232.11681030894397 92.9967365967459,232.01948719158827 91.22890442895005,231.35038918978535 88.16317016317043,231.18007289702655 87.82750582753215,231.3382237461774 87.31282051285962,232.49393684079405 87.06666666665114,232.51826755488582 82.92680652678246,230.74211590000778 80.68904428899987,229.46473461620917 77.97016317013185,228.2481717222836 72.66666666668607,227.5060639060248 78.16037296038121,228.22384037195297 79.74918414920103,228.95377930476388 77.94778554775985,228.28466874099104 72.68904428899987,227.48173244511418 75.93379953381373,227.9318638851546" stroke="#4DD2FF" stroke-linecap="round" stroke-linejoin="round" stroke-width="0.5"><title>2024-12-02 6.1km</title><desc>1733112856000</desc></polyline><polyline fill="none" points="103.33333333331393,226.69461105215305 104.0444444444147,226.9910061147093 105.67999999999302,229.18173647744698 105.53777777776122,229.03998417597904 105.84592592593981,229.02709759735444 106.24888888886198,228.53740689829283 107.71851851849351,228.75647922451026 108.26370370364748,229.11730362754315 109.35407407407183,229.3363752192381 110.52740740735317,230.07090735490783 111.9496296296129,230.6121395641385 112.69629629625706,231.26934782708122 116.96296296297805,233.2151851017261 117.30666666670004,233.2151851017261 117.8281481480808,232.0167581111018 118.17185185180278,231.84923539719603 121.45481481478782,232.0167581111018 123.48148148145992,232.7383925623435 127.33333333331393,232.77705146586231 123.50518518517492,232.76416516564495 121.46666666661622,232.04253082189825 118.20740740740439,231.8750081329781 117.85185185185401,232.0296444669657 117.21185185184004,233.3053889478324 113.13481481478084,231.591507828256 110.37333333335118,230.03224784659687 107.61185185186332,228.76936582328926 104.25777777779149,228.36988081452728" stroke="#4DD2FF" stroke-linecap="round" stroke-linejoin="round" stroke-width="0.5"><title>2024-11-29 4.6km</title><desc>1732853630000</desc></polyline><polyline fill="none" points="136.03253588516964,229.22590524991392 135.86028708139202,229.32579119112052 136.5952153110411,229.3382769295713 135.96363636368187,229.26336248486768 136.53779904305702,229.3133054517093 136.46889952151105,229.4881057185703 137.38755980861606,228.30195747145626 139.54641148325754,228.15212762195733 140.23540669860085,228.52670199453132 141.21148325357353,228.72647465088812 145.0354066985892,230.9114725334657 148.87081339710858,232.57205187242653 149.44497607660014,231.36095427928376 149.7894736842136,231.198641565672 153.050717703416,231.36095427928376 154.7043062201119,232.03517463780008 158.0,232.0726312448678 154.77320574165788,232.0102035617747 152.809569377976,231.32349751317815 149.74354066990782,231.14869916063617 149.46794258372393,231.3110119225894 148.87081339710858,232.5595663748536 144.8057416268275,230.9114725334657 140.6028708134545,228.564159385729 139.33971291867783,228.17709927282704 134.0,227.42794812755892 139.4545454545878,228.15212762195733 140.155023923493,228.51421619558823 140.88995215314208,228.6141025609686 143.85263157897862,230.18730496284843 139.4200956937857,228.202070919986 136.53779904305702,227.81500997077092" stroke="#4DD2FF" stroke-linecap="round" stroke-linejoin="round" stroke-width="0.5"><title>2024-11-28 6.3km</title><desc>1732767063000</desc></polyline><polyline fill="none" points="164.82774049218278,227.13217071544204 168.37136465328513,227.73055515543092 169.1767337807687,228.15380158238986 169.5525727069471,228.12461220301338 173.24384787474992,229.9343455009075 174.5190156599274,230.78082791750785 179.19015659956494,232.82404626740026 179.84787472034805,231.4083901066624 180.3310961968964,231.14568990000407 183.88814317667857,231.33541786237038 185.52572706935462,232.02135588560486 186.94854586123256,232.25486615406408 188.66666666668607,232.21108299991465 186.07606263982598,232.16729983601545 184.12975391495274,231.4083901066624 180.46532438480062,231.2186622150184 179.91498881427106,231.43757899675984 179.19015659956494,232.86782928455796 174.10290827741846,230.72244993719505 169.5525727069471,228.12461220301338 169.21700223715743,228.19758564334188 168.06263982102973,227.68677099008346 164.66666666668607,227.23433404193202" stroke="#4DD2FF" stroke-linecap="round" stroke-linejoin="round" stroke-width="0.5"><title>2024-11-25 4.0km</title><desc>1732507947000</desc></polyline><polyline fill="none" points="11.333333333372138,252.56182573272963 16.225789192132652,253.19012618499983 17.554842161713168,253.96502814197447 18.286784376832657,253.88125506043434 19.63509898353368,254.32106346002547 21.041198501945473,255.32633721805178 23.69930444099009,256.4782089794753 25.76029962557368,257.9023348139017 30.421615837374702,259.72436764114536 31.981808453798294,260.66679378018307 32.38630283589009,260.4992515863414 33.253076511551626,258.4677945412841 35.33333333337214,258.4259086745442 33.33012306049932,258.5306233297015 32.21294810064137,260.77150760059885 26.068485821364447,258.21647924730496 18.248261102242395,254.02785793672956 17.728196896845475,254.13257423018513 19.57731407182291,254.48860933602555 20.48261102195829,255.32633721805178 22.08132691285573,255.76614335668273 25.721776351099834,257.9442207586253 31.55805243458599,260.54113714414416 32.38630283589009,260.624908241065 33.253076511551626,258.4468516087509 32.32851792417932,260.77150760059885 26.164794007549062,258.1745933431812" stroke="#4DD2FF" stroke-linecap="round" stroke-linejoin="round" stroke-width="0.5"><title>2024-11-20 4.0km</title><desc>1732095798000</desc></polyline><polyline fill="none" points="43.40201805625111,254.0543905191298 46.94530005310662,254.5671519151947 47.79925650556106,254.9967617263319 48.38555496541085,255.05219517803926 51.661178969661705,256.67361633280234 52.52788104087813,257.3388106666971 57.19277748273453,259.4036695926625 57.40945300052408,259.37595351727214 57.9320233669132,258.1564421099174 58.314391927735414,257.8654211606772 61.85767392453272,258.0594351774489 63.71853425382869,258.80777306080563 66.0,258.89092152865487 63.68029739771737,258.82163114137074 61.65374402544694,258.04557704008766 58.39086563989986,257.8792793114553 57.855549654748756,258.2395908689068 57.35847052570898,259.4313856640074 52.617100371746346,257.477392520188 48.97185342531884,255.44022887764731 46.91980881575728,254.62258549498802 42.0,253.90194766933564" stroke="#4DD2FF" stroke-linecap="round" stroke-linejoin="round" stroke-width="0.5"><title>2024-11-19 4.1km</title><desc>1731989484000</desc></polyline></svg>