<?xml version="1.0" encoding="utf-8" ?>
<svg baseProfile="full" height="300mm" version="1.1" viewBox="0,0,200,300" width="200mm" xmlns="http://www.w3.org/2000/svg" xmlns:ev="http://www.w3.org/2001/xml-events" xmlns:xlink="http://www.w3.org/1999/xlink"><defs /><rect fill="#222222" height="300" width="200" x="0" y="0" /><text fill="#FFFFFF" style="font-size:12px; font-family:Arial; font-weight:bold;" x="10" y="20">Over 4km Runs</text><text fill="#FFFFFF" style="font-size:4px; font-family:Arial" x="10" y="280">ATHLETE</text><text fill="#FFFFFF" style="font-size:9px; font-family:Arial" x="10" y="290">Fake David</text><text fill="#FFFFFF" style="font-size:4px; font-family:Arial" x="65" y="280">SPECIAL TRACKS</text><rect fill="yellow" height="2.6" width="2.6" x="65" y="283" /><text fill="#FFFFFF" style="font-size:3px; font-family:Arial" x="70" y="285.5">Over 10.0 km</text><rect fill="red" height="2.6" width="2.6" x="65" y="287" /><text fill="#FFFFFF" style="font-size:3px; font-family:Arial" x="70" y="289.5">Over 15.0 km</text><text fill="#FFFFFF" style="font-size:4px; font-family:Arial" x="120" y="280">STATISTICS</text><text fill="#FFFFFF" style="font-size:3px; font-family:Arial" x="120" y="285">Number: 22</text><text fill="#FFFFFF" style="font-size:3px; font-family:Arial" x="120" y="290">Weekly: 2.4</text><text fill="#FFFFFF" style="font-size:3px; font-family:Arial" x="141" y="285">Total: 167.7 km</text><text fill="#FFFFFF" style="font-size:3px; font-family:Arial" x="141" y="290">Avg: 7.6 km</text><text fill="#FFFFFF" style="font-size:3px; font-family:Arial" x="167" y="285">Min: 4.0 km</text><text fill="#FFFFFF" style="font-size:3px; font-family:Arial" x="167" y="290">Max: 13.0 km</text><polyline fill="none" points="15.448598130838946,45.94855189759983 17.09719626174774,47.0643164623325 19.957009345816914,47.61305127324886 22.766355140251108,48.69222615666513 25.81121495331172,50.50303437074763 33.68411214958178,54.05144810240017 34.05420560750645,53.75879736384377 34.205607476702426,52.14921206659346 34.424299065431114,51.87484988379583 39.72336448606802,52.222375263561844 42.49906542059034,53.246657732030144 47.91588785051135,53.37469274009345 42.26355140196392,53.19178556524275 39.72336448606802,52.24066605939879 34.525233644933905,51.85655906073225 34.188785046804696,52.24066605939879 34.05420560750645,53.83196008116647 33.68411214958178,54.05144810240017 27.661682243051473,51.490742312787916 21.74018691596575,48.18007595598465 19.889719626225997,47.61305127324886 12.0,46.51558042486431 20.32710280379979,47.649633550361614 21.15140186919598,48.10691155437962 21.723364486009814,48.10691155437962 27.762616822496057,51.417578897744534 33.431775700941216,53.97828545041557 34.00373831775505,53.83196008116647 34.17196261690697,52.16750286790193 34.47476635518251,51.89314070549153 39.72336448606802,52.24066605939879 42.63364485983038,53.246657732030144 48.0,53.31982060195878 42.17943925241707,53.17349484024453 39.706542056112085,52.16750286790193 34.542056074831635,51.89314070549153 34.25607476639561,52.07604884779721 34.23925233643968,53.37469274009345 33.80186915892409,54.033157441415824 27.54392523370916,51.43586975357903 21.773831775703,48.16178485765704 19.771962616883684,47.61305127324886 12.0,46.46070675368537 17.887850467290264,47.210645865183324 21.656074766418897,48.070329345413484 27.190654205682222,51.16150677361293 33.46542056079488,53.97828545041557 33.93644859822234,53.85025075706653 34.30654205614701,52.93571529148903 33.93644859822234,53.941704116310575 33.1962616823148,53.83196008116647 27.644859813153744,51.45416060798743 21.74018691596575,48.052038238878595 21.353271028085146,48.14349375788879 20.057943925261497,47.52159555659455 17.921495327202138,47.28381053385965" stroke="yellow" stroke-linecap="round" stroke-linejoin="round" stroke-width="0.5"><title>2025-01-08 12.0km</title><desc>1736310892000</desc></polyline><polyline fill="none" points="62.503973819548264,47.78578256696346 63.00888265541289,46.980595315180835 63.07620383356698,46.193705223326106 63.39597942965338,45.91920808653231 63.766245909326244,45.99240735299827 63.59794296394102,46.12050601684314 65.23048153339187,46.74269857654872 66.07199625996873,47.43808839569101 69.52220663864864,48.645866033795755 75.24450677883578,51.738481700536795 80.39457690506242,54.02589427346538 80.73118279565824,53.696508175722556 80.7816736792447,52.17766656677122 81.2529219261487,51.86657736764755 86.40299205231713,52.2325646198733 89.0958391772001,53.25732602503558 94.66666666668607,53.367121636343654 89.06217858818127,53.22072747706261 86.47031323047122,52.269163315068 81.18560074805282,51.92147549022047 80.83216456283117,52.287462660620804 80.7816736792447,53.696508175722556 80.49555867223535,54.080791913482244 74.18419822352007,51.39079312450485 68.41140719963005,48.15177589969244 67.77185600745725,48.15177589969244 66.59373539040098,47.58448600147676 58.66666666668607,46.578000699402764 66.82935951382387,47.74918320366123" stroke="#4DD2FF" stroke-linecap="round" stroke-linejoin="round" stroke-width="0.5"><title>2025-01-06 5.2km</title><desc>1736137119000</desc></polyline><polyline fill="none" points="109.99314641742967,47.23808351450134 110.07725856691832,46.54301740095252 110.63239875395084,45.719910247658845 111.03613707161276,47.146627559370245 110.46417445479892,47.530742341972655 111.52398753893794,47.47586883841723 115.02305295947008,48.31726121209795 119.76697819307446,50.54876615059038 120.65856697817799,51.335275352044846 127.05109034263296,54.17034574990976 127.43800623045536,53.93256690968701 127.50529595016269,52.39614423713647 127.82492211833596,52.103491209461936 133.3595015576575,52.487598236781196 136.0174454827793,53.493589984296705 141.33333333331393,53.58504357517813 135.7987538940506,53.457008538462105 133.17445482860785,52.43272584112128 127.89221183792688,52.103491209461936 127.57258566975361,52.377853433165 127.4548286604113,53.93256690968701 127.11838006228209,54.261799088693806 121.07912772585405,51.774256136326585 116.13333333330229,48.975740188747295 113.64361370715778,47.96972992904193 105.33333333331393,46.67105604342942 110.98566978186136,47.36612179443182 114.98940809967462,48.26238788434421 120.06978193146642,51.07920286542503 125.94080996874254,53.6399157133128 126.849221183802,54.28008975235571 127.42118380061584,53.877694836919545 127.57258566975361,52.286399392658495 127.80809968838003,52.04861872791662 131.542679127655,52.487598236781196 133.17445482860785,52.39614423713647 135.88286604353925,53.43871781344933 141.3165109034162,53.53017142473254 135.42866043606773,53.347264168114634 133.07352024922147,52.43272584112128 127.94267912773648,52.04861872791662 127.57258566975361,52.32298101295601 127.52211838000221,53.82282275194302 127.15202492207754,54.18863642041106 121.1632398753427,51.75596528600727 116.16697819309775,48.86599381525593 114.0978193146293,48.079476703191176 105.55202492210083,46.76251217571553" stroke="#4DD2FF" stroke-linecap="round" stroke-linejoin="round" stroke-width="0.5"><title>2025-01-03 9.5km</title><desc>1735878536000</desc></polyline><polyline fill="none" points="155.5915690867114,46.50741866938188 157.69929742394015,47.094107353987056 160.11053864168935,47.31411525006115 161.27400468388805,47.90080201129604 161.71241217799252,47.84580018685665 166.720374707249,50.61421008761681 173.4482435597456,53.71259218259365 173.9540983606712,53.620924633258255 174.64543325529667,51.95256926942966 175.15128805628046,51.659230893536005 179.67025761125842,51.93423563116812 182.3512880562339,52.94258370688476 188.0,53.10758572591294 182.7728337236913,52.96091727001476 179.87259953160537,52.02590380878246 175.18501170963282,51.75089917352307 174.64543325529667,52.0442374402046 173.75175644032424,53.785926197480876 167.2093676815275,51.03588568365376 161.69555035128724,47.95580382348271 161.25714285718277,47.99247169139562 159.9081967213424,47.35078321360925 158.00281030446058,47.25911329446535 152.0,46.214073802533676 160.04309133492643,47.33244923250459 162.42060889932327,48.45081957959337 160.19484777521575,47.38745117170038 155.2543325527222,46.63575693866005" stroke="#4DD2FF" stroke-linecap="round" stroke-linejoin="round" stroke-width="0.5"><title>2025-01-02 5.6km</title><desc>1735817809000</desc></polyline><polyline fill="none" points="16.155140186892822,86.65276321697456 20.158878504647873,87.31124543159967 21.33644859812921,87.93314367925632 22.46355140185915,88.13434571621474 28.586915887892246,91.49988261402177 33.75140186911449,93.7313544696226 34.18878504668828,93.2740872988652 34.67663551395526,92.04860708182969 35.26542056072503,91.75595418491866 39.588785046711564,91.90228067699354 42.751401869172696,93.05459875444649 48.0,93.09118019211746 45.94766355137108,93.21921518114686 42.44859813078074,92.99972658767365 39.82429906539619,91.97544389033283 35.28224299068097,91.7193725482939 34.76074766356032,91.92057148237654 33.98691588791553,93.65819177949743 33.70093457947951,93.78622647283191 25.457943925226573,90.16464795271168 21.67289719620021,87.93314367925632 21.13457943929825,87.96972588008794 19.973831775714643,87.38441001311003 12.0,86.1954828620801 19.368224299047142,87.21978967408359 21.269158878538292,87.89656147301139 21.67289719620021,87.78681482154934 27.0728971962817,90.82312074801303 33.70093457947951,93.80451713790535 34.81121495325351,91.86569906216755 35.26542056072503,91.68279090622673 36.543925233592745,91.8474082526809 34.777570093399845,91.82911744187004 33.98691588791553,93.62161042628577 33.68411214952357,93.7130637991213 27.57757009350462,91.13406562079035 21.925233644840773,87.9880169784301 21.16822429909371,87.93314367925632 19.822429906518664,87.32953657904 18.375700934557244,87.38441001311003 12.50467289716471,86.2503565496736 16.205607476644218,86.94542219708092" stroke="#4DD2FF" stroke-linecap="round" stroke-linejoin="round" stroke-width="0.5"><title>2024-12-31 8.0km</title><desc>1735619151000</desc></polyline><polyline fill="none" points="63.679750778886955,86.90884007397108 64.90778816206148,86.94542242464377 68.42367601254955,87.76852387444524 70.47601246117847,88.86598818139464 71.06479750783183,89.46959145901201 80.48535825550789,93.73135419163737 81.3769470405532,91.99373454171291 81.88161993777612,91.71937242023705 86.54143302189186,91.9754437431402 88.86292834894266,92.90827273244213 94.64984423684655,93.05459852683998 89.08161993778776,92.99972636419989 86.5077881620964,91.99373454171291 81.89844236773206,91.71937242023705 81.41059190040687,91.93886214192025 80.40124610601924,93.8045168544777 74.71526479761815,91.37184662616346 69.56760124617722,88.53674940441852 66.57320872275159,87.34782792266924 58.66666666668607,86.1954831455223 65.02554517140379,87.018587109691 68.37320872285636,87.78681498645165 74.71526479761815,91.22551982890582 80.24984423682326,93.78622619080124 80.67040498444112,93.62161015649326 81.3769470405532,91.9754437431402 81.94890965736704,91.66449995912262 86.44049844244728,91.93886214192025 89.16573208727641,92.94485418923432 94.66666666668607,92.96314491557132 89.36760124622378,92.98143564056954 86.42367601249134,91.9754437431402 81.86479750782019,91.68279078081832 81.3769470405532,91.93886214192025 80.63676012470387,93.60331947919622 80.36760124616558,93.73135419163737 74.27788161998615,91.17064725742966 68.5077881620964,87.93314383321558 65.98442367609823,87.31124563192134 58.93582554522436,86.28693927780841 66.3545171340229,87.29295448449557 67.9021806854289,87.91485273215221 68.55825545178959,87.84168831420538 73.90778816200327,90.80482980090892 68.47414330224274,87.87827052589273 63.393769470450934,86.92713124996226" stroke="yellow" stroke-linecap="round" stroke-linejoin="round" stroke-width="0.5"><title>2024-12-30 10.8km</title><desc>1735533491000</desc></polyline><polyline fill="none" points="110.38743781094672,86.84157871161005 113.6784825871,87.38928984517406 114.60199004976312,87.91874277724128 115.07213930354919,87.86397183731606 116.02922885579756,88.2656251124281 120.1430348259164,90.60250383708626 126.8258706467459,93.66962334503478 127.31281094526639,93.687879893856 128.0180348258582,91.9535016840091 128.5721393035492,91.64313797274372 132.98818407952785,91.93524500596686 135.624378109409,92.95761688047787 141.33333333331393,93.04889987618662 135.84266169159673,92.95761688047787 133.1560945273959,91.971758360698 128.5049751243787,91.67965137095598 128.05161691544345,91.9535016840091 127.46393034828361,93.43228808669664 127.01057213929016,93.76090607550577 120.73072139301803,91.11369308749272 116.26430348260328,88.55773617177329 113.71206467662705,87.5170889335277 105.33333333331393,86.20258084181114 113.42661691544345,87.37103282711178 116.65049751242623,88.55773617177329 120.04228855721885,90.60250383708626 126.96019900491228,93.7974191581743 127.29601990047377,93.70613644128025 128.06840796017786,91.971758360698 128.53855721390573,91.75267815099505 133.12251243781066,92.00827170992852 135.64116915425984,92.97587348232628 141.28296019899426,93.03064327972243 139.57027363183443,93.1766960129753 135.72512437810656,92.97587348232628 133.10572139301803,91.93524500596686 128.55534825869836,91.67965137095598 128.0851990050287,91.8804749637493 127.31281094526639,93.65136679483112 126.80907960201148,93.72439298740937 121.36878109449754,91.35103059129324 119.5889303482254,90.25562480986991 113.6784825871,87.44406089121185 106.18967661692295,86.38515183179697" stroke="#4DD2FF" stroke-linecap="round" stroke-linejoin="round" stroke-width="0.5"><title>2024-12-27 9.1km</title><desc>1735273142000</desc></polyline><polyline fill="none" points="180.95140186906792,92.16749720771622 179.63925233640475,91.80168133185362 178.24299065413652,91.9662985434552 174.96261682239128,91.65535482895211 173.80186915886588,93.74049926319276 167.69532710273052,91.25295649612963 161.63925233634654,87.92399953704444 161.15140186913777,87.97887281984731 159.8392523364164,87.39355717095896 152.0,86.14975678343035 157.48411214951193,87.02773418172728 158.0224299065303,86.93627834925428 161.87476635508938,87.9057084400556 166.16448598128045,90.06404847817612 166.8037383177434,90.64935776035418 173.431775700883,93.68562726810342 173.91962616815,93.64904593124811 174.5925233644084,91.9662985434552 175.13084112142678,91.63706400991941 179.7738317756448,91.92971695044253 182.61682242987445,92.9905809355696 188.0,93.13690664277237 182.06168224295834,92.88083659796393 179.97570093453396,91.98458933790971 175.11401869147085,91.65535482895211 174.76074766356032,91.76509971430642 174.00373831775505,93.70391793445742 173.66728971956763,93.85024321656965 172.22056074766442,92.9905809355696 167.49345794384135,91.12492052467132 161.95887850469444,87.88741734171344 158.15700934577035,87.02773418172728 154.17009345791303,86.49728987905837" stroke="#4DD2FF" stroke-linecap="round" stroke-linejoin="round" stroke-width="0.5"><title>2024-12-25 6.6km</title><desc>1735101299000</desc></polyline><polyline fill="none" points="15.738072965410538,126.46654862328433 15.603367633244488,126.7960982114746 15.822263797919732,126.72286500784685 16.14218896161765,126.19192362877948 17.16931711876532,126.90594797600352 18.314312441507354,126.96087283981615 21.833489242300857,127.85797721148992 28.06361085124081,131.26328236225527 33.78858746495098,133.7348452572187 34.024321796081495,133.716537475324 34.73152478953125,131.97729197396256 35.25350795139093,131.70267313804652 39.766136576246936,131.95898406110064 42.67913938261336,133.05745641794056 48.0,133.1489955594152 42.42656688496936,133.00253291671106 39.59775491117034,131.94067614692904 35.101964452827815,131.7209810699569 34.73152478953125,131.90406031436578 33.973807296541054,133.62499854524503 33.67072029935662,133.67992190737277 27.457436856930144,131.11681859569217 22.793264733394608,128.40722316947358 20.149672591185663,127.3453465430066 12.0,126.21023197130125 14.761459307745099,126.63132347262581 16.074836295621935,126.59470684896223 20.705332086072303,127.51012080309738 22.810102899908088,128.33399044601538 28.58559401310049,131.5195937436074 33.5191768007935,133.716537475324 34.041159962594975,133.661614121389 34.88306828815257,131.79421278409427 36.60056127223652,131.79421278409427 34.93358278769301,131.73928900055762 33.956969130027574,133.80807637123507 27.895229186164215,131.29989829022088 24.628624883072916,129.3775546951656 20.318054256320465,127.47350431038649 12.050514499482233,126.22854031245515 18.97100093541667,127.21718870878976" stroke="#4DD2FF" stroke-linecap="round" stroke-linejoin="round" stroke-width="0.5"><title>2024-12-18 8.3km</title><desc>1734495982000</desc></polyline><polyline fill="none" points="62.461442786152475,124.97022001925507 61.84017412934918,125.11627834569663 62.058457711478695,124.93370542400226 61.84017412934918,125.07976377224259 61.70584577112459,124.87893352094397 61.77300995029509,125.06150648347102 63.13308457710082,126.01088369562058 66.10509950254345,127.32539991656085 66.81032338313526,128.439081752309 67.59950248757377,129.0598202507681 68.47263681597542,129.18761915816867 74.63495024875738,132.51036735711386 80.20957711449591,135.01152721470862 80.61256218905328,135.02978376214742 81.40174129360821,133.2771490048617 81.8886815920705,133.00329869182315 86.55659203982214,133.29540568155062 89.49502487573773,134.31777740370308 94.66666666668607,134.40906038576213 89.04166666668607,134.31777740370308 86.55659203982214,133.313662356828 81.80472636828199,133.02155538884108 81.31778606970329,133.29540568155062 80.4782338308869,135.10280993834022 72.23383084579837,131.6522993351682 71.66293532337295,131.08633793155605 69.59763681603363,129.91789735054772 67.11256218911149,128.9320212766761 58.66666666668607,127.56274237153411 66.69278606964508,128.62165206212376 68.1032338308869,129.2423900980939 68.40547263686312,129.15110519141308 74.70211442792788,132.58339428405452 79.03420398011804,134.29952080319345 80.22636815923033,135.02978376214742 80.67972636822378,134.920244457011 81.51927860698197,133.16760891635204 83.26554726372706,133.1128388537909 81.62002487562131,133.22237896674778 80.74689054727787,135.12106647904147 79.99129353230819,135.06629685300868 74.2991293532541,132.61990773941216 72.73756218911149,131.59752893386758 67.06218905473361,128.84073625438032 58.80099502491066,127.6905420597468 66.81032338313526,128.65816610776528" stroke="#4DD2FF" stroke-linecap="round" stroke-linejoin="round" stroke-width="0.5"><title>2024-12-17 8.6km</title><desc>1734409492000</desc></polyline><polyline fill="none" points="109.77238050755113,126.69089393045579 113.3706990503124,127.25765516565298 114.68223571538692,127.8792627571238 115.1194146037451,127.75128485231835 121.35762104939204,131.18838254957518 127.02413202560274,133.63819939630048 127.32679433282465,133.60163514554733 128.10026467381977,131.79169792335597 128.52062898955774,131.55402840772877 133.39685505215311,131.90139146830188 135.8349680834799,132.83378462090332 141.33333333331393,132.9251955236541 140.7952670091181,133.1080172269576 135.8181535108015,132.9251955236541 132.94286159111653,131.86482695877203 128.62151642533718,131.682004329341 127.96574809279991,132.08421393430035 127.24272146972362,133.63819939630048 126.9568737350055,133.7296099994128 121.86205822817283,131.57231068630063 115.01852716796566,127.91582786051731 114.12735481868731,127.80613253396587 113.18573875137372,127.25765516565298 105.33333333331393,126.17897943154094 113.30344075977337,127.2393725656002 114.43001712590922,127.84269764830242 115.0857854585629,127.78784997477487 121.30717733147321,131.17010024239426 126.90643001708668,133.61991727161512 127.37723805068526,133.58335301808256 127.9489335201215,132.02936720881553 128.52062898955774,131.5905929635628 133.44729877007194,131.90139146830188 135.78452436556108,132.83378462090332 141.2324458975345,132.98004204889003 136.0871866728994,132.9251955236541 133.14463646273362,131.86482695877203 128.50381441693753,131.64543978709844 128.08345010119956,131.84654470196983 127.20909232448321,133.7296099994128 121.18947532301536,131.26151176478015 115.03534174064407,127.91582786051731 113.53884477657266,127.38563332792546 105.53510820487281,126.2155447883415 113.26981161447475,127.25765516565298 114.44683169858763,127.84269764830242 115.16985832166392,127.86098020337522 122.0133893818711,131.4991815637186 126.90643001708668,133.67476364162576 127.37723805068526,133.60163514554733 127.9489335201215,131.7368511324894 129.8994239452295,131.77341566108225 128.11707924649818,131.80998018421815 127.27635061490582,133.8210205684445 121.13903160515474,131.2432294630271 115.10260003106669,127.89754530951905 114.56453370698728,127.91582786051731 113.23618246923434,127.27593776433787 105.53510820487281,126.28867548549897 113.11848046083469,127.2393725656002" stroke="yellow" stroke-linecap="round" stroke-linejoin="round" stroke-width="0.5"><title>2024-12-15 13.0km</title><desc>1734235831000</desc></polyline><polyline fill="none" points="155.55970149248606,126.32125172246015 155.55970149248606,126.52207971418102 157.0708955223672,126.97850635595387 159.1026119402377,127.39841811552469 160.1604477611836,127.32539003509737 161.18470149248606,127.90961406896531 161.7723880596459,127.9278710475919 168.72388059698278,131.63400954195822 173.71082089556148,133.7517778025067 174.02985074627213,133.73352125777456 174.70149253727868,132.1086833295558 175.2052238805918,131.7800631129794 179.8395522388746,132.0173999802937 182.5093283582246,133.0397715500876 188.0,133.14931110820908 182.40858208958525,133.0397715500876 179.973880597041,132.0356566528353 175.1212686568033,131.7070363383391 174.651119402959,131.9261165969947 173.84514925372787,133.78829088785278 167.98507462686393,131.3966723033809 162.52798507461557,128.34778118027316 160.04291044775164,127.3801610974624 152.0,126.21170911216177 156.26492537301965,126.64987925958121 160.04291044775164,127.27061896053783 161.73880597011885,127.81832915551786 166.89365671639098,130.6298888847814 172.0485074626631,132.89371872982883 173.32462686568033,133.6970081642212 174.0130597014795,133.6239819607872 174.6343283582246,132.1086833295558 175.15485074633034,131.7435497284314 179.75559701496968,131.94437327633204 182.25746268662624,132.98500175269146 184.17164179106476,133.00325835321564 182.12313432840165,132.9302319430426 179.72201492538443,131.98088663104863 175.3395522388164,131.7070363383391 174.651119402959,131.9078599162458 173.81156716420082,133.71526471164543 167.66604477609508,131.2141050403734 161.7723880596459,127.96438500071235 160.00932835816639,127.3801610974624 157.3563432835508,127.05153453972889" stroke="#4DD2FF" stroke-linecap="round" stroke-linejoin="round" stroke-width="0.5"><title>2024-12-13 8.5km</title><desc>1734064159000</desc></polyline><polyline fill="none" points="15.89418989123078,166.7273368107708 19.60132262634579,167.26354360941332 22.152102031104732,168.058606730061 27.457723193161655,171.05393793815165 33.39253660838585,173.67944543872727 33.86868209729437,173.6979348296736 34.633915918762796,171.9414365387347 35.1100614076131,171.70107264778926 39.78649031644454,171.9414365387347 42.133207368897274,172.90288977474847 48.0,173.0138264469424 42.69437883794308,172.97684756170202 39.616438356169965,171.92294701690844 34.99102503550239,171.68258310804958 34.49787435046164,171.84898891593912 33.93670288135763,173.4390832309291 33.528578176687006,173.80887114649522 32.321209258341696,173.12476306952885 27.44071799708763,171.2203441675374 22.509211147844326,168.3914230940136 19.890410958847497,167.48542194582114 22.492205951712094,168.3174639406061 25.621162021707278,170.2034154678695 32.355219650431536,173.10627363584354 33.3415210202802,173.7534029942908 33.83467170514632,173.64246665267274 34.599905526672956,171.62711448066693 33.800661313172895,173.58699846325908 33.37553141237004,173.6979348296736 27.627775153436232,171.25732331443578 21.50590458197985,167.81823907850776 20.910722720785998,167.83672890611342 19.41426546999719,167.22656386739982 12.0,166.19112885351933" stroke="#4DD2FF" stroke-linecap="round" stroke-linejoin="round" stroke-width="0.5"><title>2024-12-11 6.6km</title><desc>1733890893000</desc></polyline><polyline fill="none" points="63.03183520602761,166.90305236176937 66.89138576784171,167.3428621868079 67.7340823970153,167.83764729992254 68.42509363300633,167.8193219431123 74.76217228471069,171.31944032071624 80.42509363300633,173.7749910256971 81.35205992514966,171.8691926081665 81.84082397009479,171.64929184064385 86.67790262179915,171.94249282038072 89.1554307116312,172.91371856945625 94.61610486899735,173.04199338171748 89.3576779027353,172.91371856945625 86.72846441954607,172.03411805485666 81.48689138580812,171.81421743471583 80.55992509366479,173.82996576097503 74.64419475663453,171.3560905114573 72.94194756558863,170.20160688040778 68.3745318352594,167.92927406349918 68.00374531844864,168.02090079295158 66.55430711619556,167.4344891346991 58.83520599256735,166.33496350706264 65.23970037454274,167.0679811383161 68.3745318352594,167.80099658494873 72.79026217234787,169.98170462202688 74.62734082405223,171.20948971578036 80.29026217234787,173.73834119540697 80.64419475657633,173.61006674627424 81.38576779031428,171.9791429182369 81.84082397009479,171.64929184064385 84.79026217228966,171.94249282038072 86.29026217234787,171.81421743471583 89.23970037460094,172.9320435467671 94.66666666668607,173.02366841264302 88.9531835206435,172.89539359083574 86.64419475663453,171.9791429182369 81.80711610493017,171.66761691214924 81.38576779031428,171.83254249392485 80.7958801498171,173.48179223024636 80.47565543075325,173.75666611125052 75.2172284644912,171.557666462817 72.06554307119222,169.67017608616152 68.340823970153,167.83764729992254 65.64419475663453,167.15960818860913 58.66666666668607,166.17003423901042 67.279026217293,167.41616374786827 80.02059925097274,173.64671659568558 80.64419475657633,173.53676703096426 81.38576779031428,171.6309667677997 80.67790262179915,173.61006674627424 80.32397003745427,173.6833664396836 74.82958801503992,171.3560905114573 68.39138576789992,167.78267122540274 62.509363295917865,166.7930997826188" stroke="yellow" stroke-linecap="round" stroke-linejoin="round" stroke-width="0.5"><title>2024-12-09 12.1km</title><desc>1733738831000</desc></polyline><polyline fill="none" points="120.31354068487417,170.69175653763523 127.08262645301875,173.7537804822059 127.86302230594447,171.98297607123095 128.47376688651275,171.65094883427082 132.85076971404487,171.83540846531105 135.51429469051072,172.88682573831466 141.33333333331393,173.0897303121601 136.07414388936013,172.97905511067074 133.1391768770991,171.9645301252749 128.52466226828983,171.7247327031946 127.9478479421814,171.90919227930135 127.1165567075368,173.79067210612993 121.75557650014525,171.55871896728058 114.93559535034001,167.86949611309683 114.32485076965531,167.88794236411923 113.54445491672959,167.37144681625068 108.70939365378581,166.725825866175 108.09864907321753,166.43068429967389 107.81024191016331,166.67048684923793 105.68960100534605,166.3384524879657 110.7112786679063,166.85495019085647 114.93559535034001,167.7957110952848 119.38045868679183,169.99080597094144 120.63587810244644,170.9131089358998 126.82814954448259,173.7537804822059 127.23531259811716,173.58776810666313 127.9478479421814,171.87230037507834 128.33804586867336,171.5771649434173 129.84794219280593,171.83540846531105 133.10524662263924,171.85385442087136 135.81966698082397,172.90527161555656 141.21457744255895,173.0159468499769 135.68394596292637,172.84993397975632 133.10524662263924,171.89074632785923 128.45680175931193,171.68784077154123 127.76123154256493,172.27811101914267 127.09959158021957,173.79067210612993 120.78856424760306,171.0606770914601 114.91863022308098,167.86949611309683 114.52843229653081,167.94328110889182 112.33993088279385,167.22387646179413 105.33333333331393,166.20932789387007 112.66226830036612,167.22387646179413 114.37574615137419,167.85104986070655 115.02042098651873,167.8326036069775 117.2089224003139,169.03160724285408" stroke="#4DD2FF" stroke-linecap="round" stroke-linejoin="round" stroke-width="0.5"><title>2024-12-06 9.2km</title><desc>1733479157000</desc></polyline><polyline fill="none" points="155.65217391302576,166.7518485852779 160.2300140252337,167.30083985241072 161.2061711080023,167.90472882894392 161.7447405330022,167.7949309436226 168.02244039275683,171.30843892868143 173.5091164095793,173.74224572496314 174.06451612903038,173.5775527926744 174.6535764375585,172.00381475969334 175.29312762978952,171.74762389306852 179.8373071528622,171.96721608078224 182.395511921437,172.9370792284608 188.0,173.12007184576942 182.46283309959108,172.9370792284608 179.80364656378515,172.02211409705342 175.2089761570678,171.7293245352048 174.61991584848147,172.095311432975 173.77840112202102,173.77884413936408 167.56802244042046,171.14374436459912 166.1542776998831,170.17387413613324 161.7615708274534,167.94132811314194 161.2734922860982,167.97792739186843 160.04488078539725,167.392338277612 152.0,166.22115586063592 160.04488078539725,167.37403859528422 162.5694249649532,168.43541791592725 161.82889200560749,167.94132811314194 155.66900420753518,166.77014831398265" stroke="#4DD2FF" stroke-linecap="round" stroke-linejoin="round" stroke-width="0.5"><title>2024-12-03 5.6km</title><desc>1733220329000</desc></polyline><polyline fill="none" points="16.69930069934344,206.93429291852226 20.10629370622337,207.29926352700568 21.264335664280225,207.97445771898492 22.741258741240017,208.1569423162291 24.335664335638285,209.19710192432103 26.517482517461758,210.01827744214097 27.910489510453772,211.09492561664956 33.9020979020861,213.7226572235959 34.657342657330446,212.09857643261785 35.261538461607415,211.6971165997238 39.843356643395964,211.95259111496853 42.6629370629671,212.99273460480617 46.606993007066194,212.95623841678025 48.0,213.06572696458898 47.580419580452144,213.17521546341595 42.49510489508975,213.02923078738968 39.843356643395964,212.02558378469257 35.24475524475565,211.77010934555437 34.741258741298225,212.00733561927336 33.96923076931853,213.74090526119107 33.59999999997672,213.777401332336 27.39020979020279,211.11317385002621 24.033566433528904,209.19710192432103 19.95524475525599,207.37225758342538 12.0,206.25909585904446 20.240559440630022,207.33576055793674 22.623776223801542,208.4306689571531 19.92167832161067,207.4270031115011 12.033566433528904,206.22259866767854 16.900699300691485,206.89779582775373" stroke="#4DD2FF" stroke-linecap="round" stroke-linejoin="round" stroke-width="0.5"><title>2024-12-02 6.1km</title><desc>1733112856000</desc></polyline><polyline fill="none" points="58.66666666668607,205.04191657823685 59.733333333337214,205.48650917207124 62.1866666667629,208.77260471617046 61.97333333338611,208.55997626397584 62.43555555562489,208.54064639602439 63.04000000003725,207.80611034743197 65.24444444448454,208.13471883677994 66.0622222222155,208.67595544130018 67.69777777779382,209.00456282886444 69.45777777774492,210.10636103236175 71.59111111110542,210.91820934620046 72.71111111110076,211.90402174061455 79.11111111118225,214.82277765258914 79.62666666676523,214.82277765258914 80.40888888889458,213.0251371666527 80.92444444447756,212.77385309578676 85.84888888889691,213.0251371666527 88.88888888893416,214.10758884351526 94.66666666668607,214.1655771987862 88.92444444447756,214.14624774846015 85.86666666669771,213.06379623284738 80.97777777782176,212.8125121994526 80.44444444443798,213.04446670044854 79.48444444447523,214.9580834217486 73.36888888891554,212.38726174239127 69.22666666674195,210.04837176990986 65.08444444445195,208.15404873494117 60.053333333402406,207.55482122178364" stroke="#4DD2FF" stroke-linecap="round" stroke-linejoin="round" stroke-width="0.5"><title>2024-11-29 4.6km</title><desc>1732853630000</desc></polyline><polyline fill="none" points="108.38213716109749,208.83885787488543 108.12376395537285,208.9886867867026 109.22615629987558,209.00741539435694 108.27878787886584,208.89504372730153 109.14003189792857,208.96995817759307 109.0366826155805,209.23215857787 110.41467304620892,207.45293620719167 113.65295055817114,207.22819143295055 114.68644338118611,207.79005299181154 116.15055821364513,208.08971197633946 121.88644338119775,211.36720880020584 127.6395534289768,213.85807780864707 128.50079744815594,212.04143141892564 129.0175438596052,211.79796234852984 133.90940988837974,212.04143141892564 136.38979266345268,213.05276195670012 141.33333333331393,213.10894686731626 136.49314194574254,213.01530534267658 133.54768740030704,211.9852462697745 128.94864433817565,211.72304874098336 128.53524720889982,211.9665178839059 127.6395534289768,213.83934956228768 121.5419457735261,211.36720880020584 115.23763955343748,207.84623907860077 113.34290271130158,207.26564890926238 105.33333333331393,206.14192219135293 113.5151515151374,207.22819143295055 114.56586921855342,207.7713242933969 115.66826156299794,207.92115384146746 120.11228070181096,210.28095744427992 113.46347687399248,207.30310638000083 109.14003189792857,206.72251495618548" stroke="#4DD2FF" stroke-linecap="round" stroke-linejoin="round" stroke-width="0.5"><title>2024-11-28 6.3km</title><desc>1732767063000</desc></polyline><polyline fill="none" points="152.24161073833238,205.69825607314124 157.557046980015,206.59583273311728 158.76510067121126,207.23070237357751 159.32885906042065,207.18691830450553 164.86577181215398,209.90151825133944 166.7785234899493,211.17124187623267 173.78523489937652,214.23606940108584 174.77181208063848,212.11258515997906 175.4966442954028,211.71853484999156 180.83221476513427,212.003126793541 183.28859060409013,213.0320338284073 185.42281879193615,213.3822992311034 188.0,213.31662449985743 184.11409395979717,213.25094975400134 181.19463087257463,212.11258515997906 175.69798657728825,211.82799332251307 174.8724832214648,212.15636849513976 173.78523489937652,214.30174392682966 166.1543624161277,211.08367490579258 159.32885906042065,207.18691830450553 158.82550335582346,207.296378464991 157.0939597316319,206.5301564851252 152.0,205.85150106289075" stroke="#4DD2FF" stroke-linecap="round" stroke-linejoin="round" stroke-width="0.5"><title>2024-11-25 4.0km</title><desc>1732507947000</desc></polyline><polyline fill="none" points="12.0,243.842738599109 19.338683788198978,244.78518927752157 21.332263242453337,245.9475422129908 22.430176565190777,245.82188259068062 24.452648475184105,246.4815951900673 26.561797752976418,247.98950582710677 30.54895666136872,249.71731346924207 33.640449438244104,251.85350222088164 40.63242375606205,254.58655146174715 42.972712680581026,256.0001906702819 43.57945425377693,255.7488773795194 44.87961476738565,252.70169181196252 48.0,252.6388630118454 44.99518459069077,252.7959349945595 43.319422150962055,256.1572614009201 34.10272873204667,252.32471887097927 22.372391653363593,246.04178690514527 21.592295345268212,246.19886134529952 24.365971107617952,246.73291400406742 25.723916532937437,247.98950582710677 28.121990369283594,248.6492150350532 33.582664526533335,251.91633113796706 42.33707865176257,255.81170571624534 43.57945425377693,255.93736236164114 44.87961476738565,252.67027741315542 43.49277688609436,256.1572614009201 34.247191011323594,252.26189001477906" stroke="#4DD2FF" stroke-linecap="round" stroke-linejoin="round" stroke-width="0.5"><title>2024-11-20 4.0km</title><desc>1732095798000</desc></polyline><polyline fill="none" points="60.76969375112094,246.08158577869472 66.0846167462878,246.85072787279205 67.36555142502766,247.49514258949785 68.24499911477324,247.57829276706616 73.15843512117863,250.01042449921079 74.45848822803237,251.0082160000602 81.45583289070055,254.10550438900827 81.78084616747219,254.0639302759082 82.56470171711408,252.2346631648834 83.1382545583183,251.79813174103037 88.45317755348515,252.08915276617336 91.2444680474,253.21165959120844 94.66666666662786,253.33638229299686 91.18711276317481,253.2324467120634 88.14728270482738,252.06836556014605 83.25296512653586,251.81891896718298 82.4499911487801,252.35938630337478 81.70437245524954,254.1470784960111 74.59231722424738,251.21608878028928 69.12444680463523,248.16034331647097 66.04637989029288,246.93387824247475 58.66666666662786,245.85292150400346" stroke="#4DD2FF" stroke-linecap="round" stroke-linejoin="round" stroke-width="0.5"><title>2024-11-19 4.1km</title><desc>1731989484000</desc></polyline></svg>