<?xml version="1.0" encoding="utf-8" ?>
<svg baseProfile="full" height="300mm" version="1.1" viewBox="0,0,200,300" width="200mm" xmlns="http://www.w3.org/2000/svg" xmlns:ev="http://www.w3.org/2001/xml-events" xmlns:xlink="http://www.w3.org/1999/xlink"><defs /><rect fill="#222222" height="300" width="200" x="0" y="0" /><text fill="#FFFFFF" style="font-size:12px; font-family:Arial; font-weight:bold;" x="10" y="20">Over 4km Runs</text><text fill="#FFFFFF" style="font-size:4px; font-family:Arial" x="10" y="280">ATHLETE</text><text fill="#FFFFFF" style="font-size:9px; font-family:Arial" x="10" y="290">Fake David</text><text fill="#FFFFFF" style="font-size:4px; font-family:Arial" x="65" y="280">SPECIAL TRACKS</text><rect fill="yellow" height="2.6" width="2.6" x="65" y="283" /><text fill="#FFFFFF" style="font-size:3px; font-family:Arial" x="70" y="285.5">Over 10.0 km</text><rect fill="red" height="2.6" width="2.6" x="65" y="287" /><text fill="#FFFFFF" style="font-size:3px; font-family:Arial" x="70" y="289.5">Over 15.0 km</text><text fill="#FFFFFF" style="font-size:4px; font-family:Arial" x="120" y="280">STATISTICS</text><text fill="#FFFFFF" style="font-size:3px; font-family:Arial" x="120" y="285">Number: 45</text><text fill="#FFFFFF" style="font-size:3px; font-family:Arial" x="120" y="290">Weekly: 2.6</text><text fill="#FFFFFF" style="font-size:3px; font-family:Arial" x="141" y="285">Total: 371.0 km</text><text fill="#FFFFFF" style="font-size:3px; font-family:Arial" x="141" y="290">Avg: 8.2 km</text><text fill="#FFFFFF" style="font-size:3px; font-family:Arial" x="167" y="285">Min: 4.0 km</text><text fill="#FFFFFF" style="font-size:3px; font-family:Arial" x="167" y="290">Max: 13.0 km</text><polyline fill="none" points="13.323474615754094,42.600308879467775 11.550302748044487,42.21744580875384 16.253609687963035,42.77806646221143 17.80041918961797,43.05153933026304 19.158593386178836,43.55746306182118 22.239636702404823,45.17094024071412 22.692361434572376,45.58114404162916 27.596879366610665,47.82357528191642 28.049604098778218,47.60480270840344 28.13763390778331,46.42889565824589 28.326269212877378,46.23746821611712 32.501397298590746,46.497262553471955 34.32487191434484,47.24929672032886 38.47484862600686,47.29031667718664 37.343036795558874,47.413376492695534 34.40032603638247,47.2219500773499 32.300186306471005,46.51093592947291 28.439450395933818,46.264815005793935 28.11248253379017,46.53828267840436 28.011877037759405,47.67316916567506 27.534000931540504,47.782555444253376 23.23311597580323,45.90930642223975 18.793898463016376,43.42072705567989 18.429203539853916,43.46174786823394 17.473451327474322,43.01051842601737 11.5,42.17642471808358 17.87587331159739,43.07888659465243 20.114345598500222,44.008691159280716 22.792966930603143,45.608490929109394 27.647182114596944,47.82357528191642 27.99930135073373,47.70051574142417 28.125058220757637,46.42889565824589 28.376571960921865,46.22379481975804 32.21215649746591,46.4562424193864 34.37517466227291,47.24929672032886 38.5,47.33133662487671 36.953190498345066,47.45439641288249 34.299720540235285,47.2219500773499 32.21215649746591,46.469915798457805 28.338844899844844,46.22379481975804 28.125058220757637,46.53828267840436 28.074755472771358,47.55010952430894 27.911271541728638,47.782555444253376 27.647182114596944,47.768882162999944 23.11993479274679,45.8682861567504 18.83162552403519,43.40705344949674 18.567536096845288,43.502768671591184 17.360270144417882,42.99684478926065 12.543782021442894,42.32683533900126" stroke="#4DD2FF" stroke-linecap="round" stroke-linejoin="round" stroke-width="0.5"><title>2025-03-23 9.7km</title><desc>1742722238000</desc></polyline><polyline fill="none" points="43.29664960451191,42.479596189557924 47.606095858616754,42.9577284733823 48.43531875294866,43.43585951036948 48.71172638441203,43.38121602636238 49.71684504422592,43.80470260127913 54.06398324802285,46.181673611703445 55.83550488605397,46.86470555917185 57.632154490449466,47.86192763369763 57.93369008839363,47.67067998490529 58.03420195437502,46.37292281346163 58.2603536528768,46.22265560030064 62.16775244305609,46.37292281346163 64.37901349464664,47.15157821845787 68.5,47.20622057883884 64.45439739414724,47.21988116641296 62.31852024199907,46.400244111719076 58.3483015356469,46.181673611703445 58.122149837145116,46.37292281346163 57.97138203814393,47.616037762883934 57.60702652396867,47.75264328738558 53.171940437401645,45.79917460982688 49.67915309453383,43.87300679595501 47.61865984176984,43.039693882572465 41.5502559330198,42.138072366287815 47.606095858616754,42.99871118256124 48.91275011637481,43.39487689892121 52.14169381110696,45.047834961733315 53.36040018615313,45.881138748838566 57.632154490449466,47.75264328738558 57.98394602147164,47.547734962485265 58.071893904183526,46.31828020472312 58.2603536528768,46.127030946008745 62.23057235922897,46.37292281346163 64.31619357841555,47.124257032133755 68.4874360167887,47.19255999028974 67.33154955797363,47.342826408625115 64.12773382966407,47.178899400663795 62.23057235922897,46.427565405887435 58.36086551885819,46.15435228092247 58.08445788739482,46.55051117934636 58.021637971221935,47.53407439937291 57.83317822247045,47.80728546869068 57.55677059100708,47.79362492488872 53.10912052122876,45.785513916416676 49.62889716151403,43.85934595904837 47.59353187534725,43.09433746832656 41.5,42.206377181835705 45.49534667289117,42.68451017816551" stroke="#4DD2FF" stroke-linecap="round" stroke-linejoin="round" stroke-width="0.5"><title>2025-03-21 9.8km</title><desc>1742551156000</desc></polyline><polyline fill="none" points="73.18986454932019,42.36048160491919 72.87459131248761,42.593585415626876 71.5,42.29192160438106 72.37015413364861,42.27820960122335 77.57846800563857,43.00494436133886 78.85217188228853,43.33403085586906 83.64432508172467,45.966701628654846 87.59154600650072,47.69437135817134 88.03292853810126,47.584678524159244 88.17164876224706,46.37805303516507 88.39864549279446,46.19980087190925 92.48458664177451,46.47403489777935 93.98528724891366,47.132194892765256 95.19593647832517,47.310446153074736 98.5,47.351581034759874 94.35100420360686,47.214464726668666 92.43414292385569,46.460323206178145 88.49953292851569,46.186089159877156 88.20948155067163,46.43289981991984 88.28514712752076,46.92652014711348 88.07076132646762,47.77664094080683 87.64198972447775,47.85891048665508 86.83489023818402,47.379004284128314 83.53082671645097,46.11753058445174 79.10439047170803,43.663116761963465 77.40191499301,43.07350409623177 75.92643624480115,43.01865631034889 71.52522185893031,42.14108951334492 77.71718822984258,43.04608020534215 79.93671181687387,43.88250703913218 83.12727697333321,45.70617859567574 87.74287716019899,47.79035253431357 88.08337225596188,47.52983208258229 88.17164876224706,46.35062963668315 88.42386735172477,46.17237744687009 92.40892106492538,46.47403489777935 94.37622606259538,47.20075309021922 98.42433442315087,47.24188799643889 97.39023820648436,47.379004284128314 94.1996730499086,47.17332981429354 92.47197571228025,46.460323206178145 88.46170014014933,46.19980087190925 88.22209248010768,46.4054764296161 88.19687062123558,47.2830228934763 87.96987389074638,47.721794556462555 87.7680990191293,47.76292934625235 83.31644091545604,45.91185470498749 78.80172816442791,43.36145470387419 78.33512377395527,43.37516662632697 77.36408220458543,42.963808508138754 75.67421765532345,42.88153677416267 71.57566557684913,42.209649570067995 74.62751050910447,42.60729739529779" stroke="#4DD2FF" stroke-linecap="round" stroke-linejoin="round" stroke-width="0.5"><title>2025-03-19 10.0km</title><desc>1742357906000</desc></polyline><polyline fill="none" points="102.6438547486323,42.266578097609454 106.77932960900944,42.840604656899814 108.9162011173321,43.387294948101044 113.01396648050286,45.66970931373362 117.60195530729834,47.78809244764852 118.04189944139216,47.651423306175275 118.15502793295309,46.599067506729625 118.43156424583867,46.189057119583595 122.62988826818764,46.489731493085856 124.08798882685369,47.13207964011235 125.15642458101502,47.28241611568956 128.5,47.309750007116236 124.45251396647654,47.159413553919876 122.39106145250844,46.39406242770201 118.45670391066233,46.134388998747454 118.19273743021768,46.476064486822 118.16759776539402,47.51475406289683 117.62709497206379,47.829093170235865 112.52374301676173,45.5057044379937 109.65782122907694,43.8519804146199 107.74720670393435,43.086615489577525 101.5,42.17090682977869 104.34078212291934,42.48525509389583 107.40782122907694,42.97727738243702 108.35055865923641,43.40096218450344 108.79050279333023,43.37362771068001 113.62988826824585,45.997718625323614 117.71508379897568,47.80175935616717 118.02932960895123,47.6240894656803 118.2053072626004,46.831406319339294 118.02932960895123,47.692424059307086 117.51396648044465,47.76075862751168 113.24022346374113,45.88838225326617 108.79050279333023,43.4556311199558 108.33798882685369,43.44196388759883 107.18156424583867,42.96361011445697" stroke="#4DD2FF" stroke-linecap="round" stroke-linejoin="round" stroke-width="0.5"><title>2025-03-17 7.0km</title><desc>1742185263000</desc></polyline><polyline fill="none" points="132.976858345035,42.268802478691214 132.91374474053737,42.4335003005981 132.77489481068915,42.255077653579065 132.88849929877324,42.46094992324652 131.7524544179323,42.268802478691214 136.0441795231891,42.77662028992199 138.79593267885502,43.407959400414256 143.50420757365646,45.974467855572584 147.75806451612152,47.86844581870537 148.07363253855146,47.63513074438379 148.1746143057826,46.45482642829302 148.4270687236567,46.20778503306792 152.25175315566594,46.44110191502841 154.41023842908908,47.237121994417976 158.4621318373247,47.30574425404484 154.35974754556082,47.20967308344552 152.56732117809588,46.48227545173722 148.56591865356313,46.20778503306792 148.19985974754672,46.42737740071607 148.0610098176985,47.69002843549242 147.66970546985976,47.77237494153087 142.77208976156544,45.617629247921286 138.8338008414721,43.394234660154325 135.79172510519857,42.707996343189734 131.5,42.15900384896668 135.8169705469627,42.65309716742195 138.80855539970798,43.325610943487845 143.45371669007,45.89212054594827 147.66970546985976,47.75865052641893 148.08625525946263,47.525335312995594 148.18723702663556,46.41365288539964 148.38920056103962,46.20778503306792 152.40322580642533,46.42737740071607 154.4481065918808,47.195948626394966 158.5,47.30574425404484 154.23352033662377,47.15477524916059 152.39060308551416,46.42737740071607 148.41444600280374,46.180335968674626 148.18723702663556,46.52344897927833 148.023141654965,47.67630401423958 147.75806451612152,47.74492611025926 143.23913043481298,45.85094687729725 138.85904628335265,43.407959400414256 137.3316970547312,42.95504243180039 131.5,42.13155418129463 135.43828892009333,42.68054675732856" stroke="yellow" stroke-linecap="round" stroke-linejoin="round" stroke-width="0.5"><title>2025-03-15 10.0km</title><desc>1742012101000</desc></polyline><polyline fill="none" points="163.204192180885,42.566268054404645 161.5,42.16524877489428 165.31535562878707,42.59392452449538 168.69830428640125,43.28533493747818 173.56924163916847,45.954154972787364 177.766132830875,47.793267689747154 178.08407913328847,47.39225970339612 178.14766839373624,46.28602628421504 178.41474328777986,46.13391867344035 182.52260951482458,46.45196171737916 184.4811587376753,47.22632511079428 188.5,47.253980886540376 184.60833725857083,47.253980886540376 182.4590202543186,46.47961760846374 178.47833254822763,46.23071444015659 178.18582195002818,46.5211014374072 177.99505416862667,47.71030059126497 177.6898257182911,47.83475122510572 173.28944889304694,45.94032698860974 171.48351389542222,44.77877263932896 168.7364578426932,43.40978853829438 168.44394724443555,43.46510122297332 167.32477626000764,42.967286467406666 165.6714554874925,42.88431721167581 161.89425341493916,42.23439009177673 163.90367404615972,42.46947037661448 166.5362694300129,42.88431721167581 167.59185115399305,42.981114673108095 169.05440414504847,43.47892939156736 173.23857748467708,45.78821909458202 176.69783325475873,47.253980886540376 177.4227508242475,47.73795629487722 177.9441827602568,47.71030059126497 178.21125765424222,46.797660060052294 178.03320772497682,47.68264488350542 177.6898257182911,47.76561199440039 173.35303815355292,45.91267101716949 168.7491756947711,43.35447583712812 168.1514366462361,43.3268194803677" stroke="#4DD2FF" stroke-linecap="round" stroke-linejoin="round" stroke-width="0.5"><title>2025-03-12 7.1km</title><desc>1741778255000</desc></polyline><polyline fill="none" points="13.571094480808824,72.43916503968649 17.246024321822915,72.8922950651322 18.38260056125,73.38661745861464 19.784377923293505,73.64750929840375 23.926566884911153,76.10536692352616 27.765668849402573,77.78053601975262 28.06875584658701,77.5608425794926 28.14452759589767,76.43490958800248 28.397100093541667,76.17402169386332 32.43826005619485,76.37998585151217 34.01683816657169,76.99787694346742 35.229186155309435,77.19010930520017 38.5,77.23130192807002 34.40832553792279,77.2450328002742 32.43826005619485,76.46237145010673 28.52338634239277,76.20148359486484 28.23292797006434,76.39371678714815 28.043498596874997,77.64322765024554 27.61412535083946,77.75307435407012 22.764733395713847,75.63851380687265 18.78671655751532,73.37288629892282 18.458372310560662,73.48273554781917 17.271281571534928,72.96095103240805 11.5,72.17827148934884 16.77876520116115,72.837370272915 18.559401309583336,73.38661745861464 18.78671655751532,73.30423048509692 23.459307764249388,75.8307475863403 27.727782974776346,77.76680518743524 28.06875584658701,77.46472661702137 28.157156220753677,76.33879303840513 28.4349859682261,76.17402169386332 32.33723105711397,76.33879303840513 34.534611786773894,77.10772403187002 38.5,77.23130192807002 34.433582787634805,77.20384018051845 32.349859681969974,76.35252397709701 28.422357343311887,76.09163596635335 28.19504209543811,76.46237145010673 28.182413470582105,77.46472661702137 27.790926099172793,77.82172851066571 25.858746492071077,76.8193752852385 23.080449017812498,75.77582366978459 18.875116931740195,73.4415420871519 18.559401309583336,73.49646669931826 17.460710944840685,72.98841341215302 14.025724976614583,72.71378943053423 11.5,72.23319647801691 13.39429373247549,72.3842401124275 14.290926099172793,72.54901484513539 17.675397567858454,73.00214460051211 19.468662301194854,73.81228290166473 18.950888681050856,73.4690043952869 17.511225444322918,73.05706934364571 15.036014967248775,72.768714259626 13.457436856871936,72.85110147250816 11.575771749252453,72.23319647801691" stroke="yellow" stroke-linecap="round" stroke-linejoin="round" stroke-width="0.5"><title>2025-03-07 10.7km</title><desc>1741342581000</desc></polyline><polyline fill="none" points="43.586651053861715,72.42181767066359 47.64613583130995,72.94433654067689 48.303747072583064,73.32934949826449 48.847540983580984,73.34309994615614 52.33793911006069,75.06189786802861 53.96932084305445,76.14816989985411 57.73793911002576,77.81194125014008 58.01615925057558,77.55068889017275 58.332318501139525,76.1894206105062 60.02693208429264,76.39567402549437 62.60679156903643,76.34067313735432 63.959953161596786,76.91818164524739 65.24988290393958,77.13818441105832 68.5,77.12443424586672 67.80444964865455,77.26193585158035 64.41522248240653,77.15193457520218 62.44238875876181,76.43692468083464 58.433489461313,76.24442154371354 58.19320843089372,76.42317446340166 57.940281030430924,77.68819017834903 57.53559718967881,77.78444101911737 53.37494145199889,75.90066544232832 48.847540983580984,73.45310349261854 47.21615925052902,72.98558796741418 43.99133489461383,72.80683171830606 41.5,72.18805874985992 42.992271662689745,72.27056193219323" stroke="#4DD2FF" stroke-linecap="round" stroke-linejoin="round" stroke-width="0.5"><title>2025-03-05 4.7km</title><desc>1741177738000</desc></polyline><polyline fill="none" points="72.7319884726312,72.3632351905253 76.9726224783808,72.87085468955047 78.165706051921,73.20926693250658 82.9639769452624,75.83194129835465 86.4524495676742,77.28426684465376 87.243515850103,77.80597330094315 87.6325648415368,77.70727218975662 87.8270893371664,76.32545122914598 88.1123919308302,76.17034824668372 92.0028818443534,76.36775202046556 94.1426512968028,77.18556546143373 98.5,77.24196625816694 96.85302593652159,77.39706836245023 94.11671469733119,77.25606645469088 92.2233429394546,76.48055408448272 88.1253602305078,76.18444852308312 87.93083573482,76.36775202046556 87.7233429394546,77.74957267228456 87.4380403457908,77.86237391277973 82.2636887608096,75.66273759727483 78.1138328529778,73.29386989868362 77.8414985590498,73.39257331144472 76.596541786741,72.92725677207636 71.5,72.13762608722027" stroke="#4DD2FF" stroke-linecap="round" stroke-linejoin="round" stroke-width="0.5"><title>2025-03-03 4.6km</title><desc>1740978130000</desc></polyline><polyline fill="none" points="103.79518916393863,72.47017599784886 103.59341429243796,72.59358391602291 101.5,72.16851184946427 104.79145259223878,72.5113119797752 108.76389537600335,73.3614535475208 112.30756655771984,75.1165721034049 113.48038299864857,75.91185468871845 117.54110228869831,77.76293015736155 117.96987389074638,77.73550695292943 118.18425969174132,76.41918833577074 118.37342363380594,76.18608926619345 122.24497898179106,76.44661173633358 124.16184026160045,77.2144652926363 128.43694535264513,77.2693118526513 126.93624474544777,77.37900492364133 124.11139654368162,77.18704200648062 122.21975712286076,76.47403513277823 118.42386735166656,76.22722441756923 118.23470340960193,76.36434152242146 118.04553946753731,77.58467925559671 117.66721158334985,77.81777655395854 113.40471742179943,75.98041337142058 108.73867351707304,73.40258933024597 108.51167678658385,73.47114894763217 107.6793554413598,73.0872147612099 101.5,72.1822238669265 107.85590845398838,73.0460789080098 117.5158804297098,77.83148815053573 117.98248482018244,77.74921855563298 118.10859411489218,76.52888191344391 118.33559084543958,76.22722441756923 122.56025221856544,76.50145852513378 124.1996730499668,77.22817693416437 128.5,77.33787002970348 124.22489490895532,77.2144652926363 122.30803362914594,76.48774682948715 118.41125642228872,76.18608926619345 118.18425969174132,76.41918833577074 117.98248482018244,77.68066053185612 117.59154600655893,77.79035335767549 112.9381130313268,75.73360199425952 109.01611396542285,73.47114894763217 108.42340028024046,73.44372510374524 107.30102755723055,72.96380717403372 103.66907986922888,72.53873596260382 105.11933675856562,72.66214383480838 107.66674451192375,73.03236695489613 109.36921999062179,73.7865228587325 109.43227463803487,73.64940383336216 108.67561886971816,73.38887740368955" stroke="yellow" stroke-linecap="round" stroke-linejoin="round" stroke-width="0.5"><title>2025-02-28 10.0km</title><desc>1740736874000</desc></polyline><polyline fill="none" points="133.38723205967108,72.85911382646009 133.65144454798428,72.55815331508347 133.33690587140154,72.84543381391268 133.61369990679668,72.66759355810063 133.45013979502255,72.59919341384375 131.613233923621,72.22983219455637 132.45619757688837,72.20247207469947 137.55172413791297,72.90015385797597 138.36952469713287,73.29687368964369 138.8602050326299,73.24215376380016 143.77958993479842,75.9097311674559 147.7176141659147,77.72913352608157 148.05731593666133,77.60601664190472 148.18313140730606,76.29276474106882 148.43476234859554,76.12860759305477 152.37278657971183,76.37484325999685 154.31034482759424,77.11354827968171 158.43709226470673,77.1956264317705 154.28518173348857,77.18194674229017 152.27213420323096,76.37484325999685 149.95712954335613,76.3885230096057 148.35927306616213,76.15596712793922 148.1579683131422,76.27908498430043 148.05731593666133,77.63337595661869 147.74277726002038,77.92064851519535 142.6975768872653,75.63613526859262 139.09925442683743,73.52943319243786 137.06104380241595,72.96855389008124 135.45060577819822,72.91383386641974 131.51258154702373,72.18879201321397 137.61463187326444,72.98223389346094 138.28145386767574,73.37895354778448 138.8602050326299,73.37895354778448 143.79217148182215,75.99180985763087 147.7931034482899,77.78385211476416 148.06989748368505,77.55129800019495 148.24603914259933,76.15596712793922 152.25955265609082,76.3474837577669 153.89515377447242,76.99043098276888 155.10298229265027,77.18194674229017 158.5,77.18194674229017 154.3732525628875,77.1956264317705 152.27213420323096,76.48428122820042 149.96971109043807,76.47060148573655 148.2712022367632,76.18332665869093 148.082479030767,77.48289967517485 147.70503261883277,77.83857068720681 143.18825722276233,75.8686918086023 138.75955265614903,73.39263352057606 132.82106244174065,72.43503296367999 131.5,72.07935148480465 133.47530288912822,72.3803127810097 134.3308480894775,72.55815331508347 136.64585274935234,72.76335371725145 139.36346691520885,73.74831245538371 138.8224603914423,73.37895354778448 138.55824790307088,73.44735340155603 137.35041938489303,72.96855389008124 134.48182665428612,72.76335371725145 132.53168685926357,72.27087236673106" stroke="yellow" stroke-linecap="round" stroke-linejoin="round" stroke-width="0.5"><title>2025-02-26 11.1km</title><desc>1740566027000</desc></polyline><polyline fill="none" points="163.80457089556148,72.50110373839561 161.55037313437788,72.22724762067082 162.5578358209459,72.21355480408238 167.65811567165656,72.91188714974851 168.3759328359156,73.30897690798156 168.804104477691,73.29528417198162 172.35541044780985,75.04794608819066 173.11100746272132,75.70518999772321 176.8260261194082,77.21136509267671 177.6697761194664,77.7864468729822 178.0853544776328,77.53998347315064 178.19869402988115,76.28027649060823 178.40018656721804,76.11596624768572 179.97434701496968,76.36243155699049 182.2411380597623,76.3761240645108 183.95382462686393,77.0470556821092 185.1879664179287,77.22505753691075 188.4244402985205,77.18398020112363 185.15018656715984,77.18398020112363 184.04197761195246,77.03336322457471 182.40485074633034,76.41720158084354 178.50093283585738,76.15704382221156 178.223880597041,76.33504653896671 177.99720149260247,77.70429244310071 177.63199626869755,77.80013927438995 175.89412313431967,76.85536118410528 173.27472014928935,75.82842296913441 168.85447761195246,73.36374784176587 168.43889925378608,73.40482603141572 167.3936567164492,72.91188714974851 165.9958022388746,72.92557991432841 161.5,72.15878352751315 167.41884328360902,72.92557991432841 168.3759328359156,73.37744057270174 168.85447761195246,73.30897690798156 172.58208955224836,75.4039534975891 176.8260261194082,77.25244242236658 177.75792910449672,77.84121647248685 178.12313432840165,77.4441365061939 178.18610074633034,76.32135402840504 178.34981343289837,76.11596624768572 180.25139925378608,76.36243155699049 182.15298507467378,76.32135402840504 183.9286380597623,76.9922858459322 185.25093283585738,77.17028775379003 188.5,77.18398020112363 184.6212686567451,77.18398020112363 182.442630597041,76.40350907643733 181.17070895520737,76.44458658664371 178.41277985076886,76.10227372084046 178.18610074633034,76.36243155699049 178.0979477612418,77.52629105238884 177.97201492538443,77.7727544705267 177.69496268656803,77.81383167476451 172.6828358208877,75.48610895569436 168.91744402988115,73.39113330256077 168.47667910455493,73.40482603141572 167.49440298508853,72.99404372186109 165.89505597023526,72.91188714974851 161.6385261194664,72.22724762067082 164.63572761201067,72.59695328319503 165.27798507467378,72.63803164420824 167.4062500000582,72.98035096240346 169.6604477612418,73.74714392134047 172.46875,75.19856469171646 168.942630597041,73.40482603141572 165.27798507467378,72.69280277795042" stroke="yellow" stroke-linecap="round" stroke-linejoin="round" stroke-width="0.5"><title>2025-02-21 11.3km</title><desc>1740135343000</desc></polyline><polyline fill="none" points="13.712290502793621,102.60142751570675 11.575418994412757,102.17774091429601 14.642458100570366,102.51942373375641 17.533519553078804,102.99777861175244 18.33798882679548,103.40779608575394 19.129888268129434,103.44879778275208 22.66201117320452,105.4715367898898 26.747206703876145,107.24824859993532 27.664804469270166,107.80859260172292 28.079608938482124,107.50792042328976 28.217877094924916,106.29155976347101 28.393854748632293,106.15488952242595 30.14106145250844,106.38722887160839 32.40363128489116,106.40089588295086 33.84916201111628,107.0159103411861 35.08100558654405,107.22091470241139 38.43715083791176,107.2072477521433 37.431564245780464,107.34391720921849 34.42737430159468,107.17991384849302 32.328212290478405,106.46923092457291 28.45670391060412,106.19589060542057 28.19273743010126,106.41456289331836 28.004189944127575,107.64458965638187 27.614525139622856,107.79492569521244 22.850558659178205,105.66287581156939 18.865921787684783,103.4351305514574 18.28770949720638,103.40779608575394 17.34497206704691,102.99777861175244 15.761173184320796,102.90210773595027 11.5,102.16407358829747 17.407821229018737,102.95677681393863 18.76536312850658,103.3394599037565 22.071229050226975,104.97952124632138 23.17737430165289,105.73121112809167 27.80307262565475,107.74025805899873 28.054469273716677,107.52158735120611 28.142458100512158,106.37356185920362 28.318435754161328,106.15488952242595 32.277932960831095,106.38722887160839 33.86173184355721,107.0159103411861 35.131284916133154,107.22091470241139 38.5,107.24824859993532 37.10474860330578,107.35758414931479 34.43994413403561,107.19358080084203 32.40363128489116,106.46923092457291 28.41899441339774,106.18222357875493 28.155027932894882,106.44189691099746 28.092178770923056,107.49425349438388 27.84078212286113,107.83592641170253 23.642458100512158,106.01821917953203 18.878491620067507,103.40779608575394 18.451117318414617,103.4351305514574 17.420391061459668,103.0114458756434 14.114525139622856,102.58776022125676 15.195530726283323,102.71076583463582 17.34497206704691,102.95677681393863 19.46927374304505,103.76314382191049 18.916201117273886,103.40779608575394 18.23743016755907,103.39412885138881 17.018156424572226,102.94310954595858 15.924581005587243,102.929442276989 12.115921787742991,102.21874288625258" stroke="yellow" stroke-linecap="round" stroke-linejoin="round" stroke-width="0.5"><title>2025-02-19 10.6km</title><desc>1739962218000</desc></polyline><polyline fill="none" points="43.45926966291154,102.37491943289933 41.5,102.18250210399856 44.82443820225308,102.53984841221245 47.47893258422846,103.00714638616773 48.21207865170436,103.37823511040187 48.74297752807615,103.35074708233878 53.38202247186564,105.90711616864428 57.831460674176924,107.81749789598689 58.0463483146159,107.54262404567271 58.185393258405384,106.34691803138412 58.40028089884436,106.19573625936755 62.407303370768204,106.4431245490996 64.21488764043897,107.18528742805938 68.5,107.26774978585308 64.44241573027102,107.21277488474152 62.35674157302128,106.45686833326181 58.65308988763718,106.19573625936755 58.438202247198205,106.4293807639333 58.21067415724974,106.37440561302355 58.0463483146159,107.6250862437737 57.65449438203359,107.77626684453571 52.535112359561026,105.50854482490104 48.76825842692051,103.40572313434677 47.339887640438974,102.97965830280737 42.473314606701024,102.29245488793822" stroke="#4DD2FF" stroke-linecap="round" stroke-linejoin="round" stroke-width="0.5"><title>2025-02-18 4.9km</title><desc>1739836925000</desc></polyline><polyline fill="none" points="74.41960507759359,102.39141602956806 74.38152327219723,102.72266962128924 75.77785613544984,102.6812629547203 77.63117066293489,102.99871382860874 80.05571227084147,104.29611609308631 81.36318758811103,104.72398080500716 82.58180535968859,105.60731127781037 86.68194640334696,107.29114832519554 87.6212976022507,107.85702455299906 87.9640338505269,107.59478944282455 88.05289139633533,106.36642003789893 88.25599435827462,106.18699461169308 92.25458392099245,106.50443947828899 94.1078984485357,107.23594079579925 98.5,107.31875208373822 94.2475317348144,107.15312947086932 92.27997179125668,106.42162782640662 88.35754583921516,106.17319264860998 88.12905500701163,106.42162782640662 88.06558533146745,107.51197827825672 87.86248236958636,107.80181719218672 83.20380818052217,105.85574721441662 79.44640338502359,103.73022898859926 77.52961918193614,102.95730722373992 71.5,102.14297544701549 77.56770098727429,102.9711094263912 79.31946403387701,103.75783327773388 77.56770098727429,102.9711094263912" stroke="#4DD2FF" stroke-linecap="round" stroke-linejoin="round" stroke-width="0.5"><title>2025-02-14 5.4km</title><desc>1739506837000</desc></polyline><polyline fill="none" points="104.4509574964759,102.57987319130916 106.72092480148422,102.85411259061948 108.76389537606155,103.36145440200926 113.8082671649172,106.06268320267554 117.67982251284411,107.83148667388014 117.9950957496767,107.77664030999586 118.48692199907964,106.5425928015029 118.85263895383105,106.25464719238516 122.4341429239139,106.46032267346163 124.45189163944451,107.26931066915859 128.5,107.31044555701374 124.36361513310112,107.26931066915859 122.39631013548933,106.48774605354993 118.91569360112771,106.30949400977988 118.57519850542303,106.47403436400054 117.8815973844612,107.83148667388014 113.54343764600344,106.07639492284216 108.80172816442791,103.4163020816195 107.6541335824295,103.04607992697856 101.5,102.16851332611986 107.47758056985913,102.96380823590152 108.86478281178279,103.4163020816195 113.56865950499196,105.98041286005173 117.64198972447775,107.80406349399709 118.020317608607,107.70808233214484 118.53736571699847,106.50145774206612 118.94091546011623,106.30949400977988 122.44675385340815,106.50145774206612 124.36361513310112,107.22817577212118 128.5,107.29673392875702 126.77230266231345,107.39271530508995 124.35100420366507,107.20075250235095 122.37108827655902,106.48774605354993 118.90308267163346,106.24093548544624 118.57519850542303,106.46032267346163 118.00770667911274,107.74921712193463 117.80593180761207,107.79035190248396 113.31644091551425,105.89814248066978 109.24311069597024,103.62198073463514 107.95679588982603,103.08721575871459 101.52522185898852,102.19593734575028 104.72839794488391,102.4701773171837 107.6541335824295,102.96380823590152 109.40705277910456,103.86879481481446 108.7512844465673,103.40259016325581 108.58734236337477,103.48486165815848 107.46496964042308,102.99123213702114" stroke="yellow" stroke-linecap="round" stroke-linejoin="round" stroke-width="0.5"><title>2025-02-12 10.1km</title><desc>1739334019000</desc></polyline><polyline fill="none" points="153.2081545064575,106.88294611990568 154.34120171674294,107.27492785625509 158.5,107.30292652043863 154.48283261799952,107.33092518041667 152.55150214594323,106.4629647807451 148.7660944206291,106.21097552671563 147.94206008582842,107.79290246810706 147.69742489268538,107.83490034703573 142.6502145922277,105.62299928659922 141.29828326177085,104.75503099813068 137.71888412017142,103.07508098578546 131.5,102.09510320893605 137.4871244634851,102.92108481645118 139.48283261799952,103.691064400904 142.01931330468506,104.92302517332428 143.2939914163435,105.81899157105363 147.60729613731382,107.76490387695958 147.95493562234333,107.63891016508569 148.48283261799952,106.37896840029862 148.8047210299992,106.19697611383162 151.12231759657152,106.44896538663306 152.28111587982858,106.37896840029862 154.35407725319965,107.23292985217995 158.3326180257136,107.28892718885618 152.88626609439962,106.89694548169791 152.95064377685776,107.28892718885618 152.8347639485146,106.82694866225938 152.37124463520013,106.6169580474234 148.8047210299992,106.25297375918308 148.54721030045766,106.39296779962024 147.83905579400016,107.90489679106395 142.9849785407423,105.81899157105363 142.0965665235999,105.1050186936045 140.46137339057168,104.32104535045801" stroke="#4DD2FF" stroke-linecap="round" stroke-linejoin="round" stroke-width="0.5"><title>2025-02-10 6.3km</title><desc>1739162078000</desc></polyline><polyline fill="none" points="161.69296316656983,103.91114641839522 163.32572842220543,103.95954015541065 170.68801539303968,105.04033080600493 172.94420010992326,104.94354380277218 173.13716327649308,105.68557639195933 173.98323254531715,105.73396973362833 174.97773501917254,106.10498499500682 175.66052776243305,105.12098660909396 181.74628916976508,105.0080684764107 182.0728422209504,105.5726585527882 182.45876855409006,105.6694452756783 182.7111050026724,105.52426517516142 182.96344145131297,104.84675675648032 184.12122045073193,104.76610085157154 188.5,105.31456041423371 184.38840021984652,104.74996966698382 182.91891148983268,104.83062557787343 182.63688840012765,105.52426517516142 182.3845519515453,105.65331415816036 181.74628916976508,104.99193730978004 175.73474436497781,105.08872429144685 175.30428807029966,105.37908497764147 175.00742166023701,106.12111607895349 173.21137987897964,105.70170750709076 173.21137987897964,105.07259313082614 173.01841671246802,104.91128145880066 170.836448598071,105.02419964180444 163.93430456286296,104.00793388161401 161.5,103.89501517031749 163.60775151179405,103.97567139865714 170.36146234191256,104.99193730978004 172.9145134688588,104.91128145880066 173.12231995596085,105.6694452756783 174.99257833970478,106.10498499500682 175.43787795485696,105.26616697912687 175.8238042879966,105.08872429144685 181.68691588781076,104.99193730978004 182.10252886195667,105.58878967624332 182.39939527207753,105.65331415816036 182.7111050026724,105.45974065490009 182.82985156675568,104.9274126313976 183.2009345794213,104.782232034966 188.1882902692887,105.26616697912687 184.59620670694858,104.74996966698382 183.14156129735056,104.74996966698382 182.74079164373688,104.95967497299716 182.48845519515453,105.65331415816036 182.19158878503367,105.58878967624332 181.73144584929105,104.95967497299716 175.67537108296528,105.07259313082614 175.3191313907737,105.3468226983241 175.02226498071104,106.10498499500682 173.1965365585056,105.68557639195933 173.01841671246802,104.84675675648032 170.59895547002088,104.94354380277218 163.14760857610963,103.87888392106106 161.84139637160115,103.92727766525059 163.1772952171159,103.91114641839522 171.26690489274915,105.05646196904127 172.98873007140355,104.91128145880066 173.1520065969671,105.68557639195933 174.30978559644427,105.83075638464652 173.21137987897964,105.6694452756783 172.9145134688588,104.86288793385029 170.67317207250744,104.95967497299716 163.83040131937014,103.95954015541065 162.0046728971647,103.92727766525059 163.96399120398564,104.00793388161401" stroke="#4DD2FF" stroke-linecap="round" stroke-linejoin="round" stroke-width="0.5"><title>2025-01-25 9.9km</title><desc>1737761473000</desc></polyline><polyline fill="none" points="11.85999999998603,133.6795822299464 20.664999999979045,134.95109960414993 23.21500000002561,134.83698937139707 23.20000000001164,135.8802807196771 24.190000000060536,135.92918487996212 25.044999999983702,136.32041777003906 25.76500000001397,135.26082707967726 31.899999999965075,135.11411411940935 32.47000000003027,135.83137654850725 32.84499999997206,135.71726677336846 32.95000000001164,135.11411411940935 33.19000000000233,134.9347981459432 38.5,135.4401427868288 34.36000000004424,134.88589376410528 33.054999999993015,135.0000039714214 32.65000000002328,135.81507515568228 32.320000000006985,135.71726677336846 32.18500000005588,135.22822420809825 31.899999999965075,135.09781267333892 25.794999999983702,135.21192277049704 25.494999999995343,135.37493709207047 25.135000000009313,136.28781505582447 23.304999999934807,135.84767794008076 23.169999999983702,135.03260687693546 21.084999999962747,135.17931989162753 12.910000000032596,133.9893114996812 11.5,134.00561302807182 13.330000000016298,134.0545176060259 20.619999999995343,135.14671700797044 22.960000000020955,135.01630542478233 23.15500000002794,135.19562133168802 23.15500000002794,135.76617096997506 25.044999999983702,136.28781505582447 25.75,135.22822420809825 31.885000000009313,135.09781267333892 32.26000000000931,135.71726677336846 32.60500000003958,135.81507515568228 33.25000000005821,134.91849668655777 37.59999999997672,135.26082707967726 33.36999999999534,134.86959230109642 32.95000000001164,135.0000039714214 32.875,135.63575975484855 32.60500000003958,135.7824723664089 31.885000000009313,135.04890832783713 25.82500000001164,135.21192277049704 25.43500000005588,135.45644420747703 25.09000000002561,136.2552123367641 23.290000000037253,135.81507515568228 23.06500000000233,134.9837025168963 21.070000000065193,135.16301845037378 13.059999999997672,133.97300997006823 11.830000000016298,134.02191455524007 13.210000000020955,133.9893114996812 15.130000000004657,134.2990403323638" stroke="#4DD2FF" stroke-linecap="round" stroke-linejoin="round" stroke-width="0.5"><title>2025-01-19 8.1km</title><desc>1737283232000</desc></polyline><polyline fill="none" points="45.0688930406468,132.54559556867753 47.32624941616086,132.86097072510165 48.28468005603645,133.35460031981347 48.99089210649254,133.36831223411718 52.3453993460862,135.1234288285341 52.76156001875643,135.50735835250816 56.86011209717253,137.26245454901073 57.78070994862355,137.83834184188163 58.03292853810126,137.6875143916841 58.575198505364824,136.41233191877836 58.928304530563764,136.20665649898 62.244978981791064,136.37119685320067 64.36361513315933,137.1253382613213 68.5,137.2350312996423 64.27533862675773,137.1253382613213 62.358477347006556,136.34377347106056 58.978748248540796,136.17923309230537 58.58780943485908,136.33006177845527 58.020317608548794,137.6875143916841 57.84376459597843,137.76978392529418 53.29121905652573,135.8638636218966 48.83956095285248,133.3957360596105 48.48645492759533,133.42315988104383 47.427136851940304,132.95695436111419 44.526623073383234,132.68271526831086 41.5,132.1068118432304 47.616300794063136,132.9980901897652 48.902615600207355,133.3820241473586 53.518215787014924,135.9049988008628 56.847501167678274,137.27616617218882 57.667211583349854,137.86576500133378 58.00770667917095,137.75607233893243 58.562587575870566,136.49460202235787 58.978748248540796,136.2752149977896 62.446753853349946,136.43975529070303 64.40144792152569,137.15276152703154 68.5,137.26245454901073 64.37622606259538,137.2350312996423 62.30803362914594,136.45346697515924 58.96613731898833,136.2752149977896 58.61303129378939,136.43975529070303 58.020317608548794,137.79720709499088 57.56632414762862,137.81091867831128 52.53456328820903,135.50735835250816 48.95305931806797,133.4642956055177 48.49906585708959,133.49171941670647 47.515413358283695,133.0255140704685 41.55044371786062,132.14794786194398 47.755021018208936,133.01180213062617 48.448622139170766,133.4094479708292 48.85217188228853,133.36831223411718 53.505604857578874,135.91871052514762 57.856375525472686,137.89318815675506 58.66347501165001,136.38490854275005 60.01284446520731,136.38490854275005 58.82741709484253,136.37119685320067 58.020317608548794,137.82463026058394 57.64198972447775,137.76978392529418 52.49673049978446,135.50735835250816 48.915226529643405,133.45058369837352 48.549509575008415,133.47800751162868 47.540635217214,133.01180213062617 44.71578701538965,132.68271526831086" stroke="yellow" stroke-linecap="round" stroke-linejoin="round" stroke-width="0.5"><title>2025-01-17 12.3km</title><desc>1737088953000</desc></polyline><polyline fill="none" points="74.23033707862487,132.42302440077765 74.4073033707682,132.120654267419 75.17837078648154,132.62918557113153 78.76825842697872,133.34387584461365 80.79073033703025,134.38841818661604 81.57443820219487,135.0068944171362 87.76825842697872,137.86560205288697 88.00842696626205,137.70067781642138 88.53932584263384,136.44999755834579 88.86797752801795,136.23009685630677 92.39466292125871,136.44999755834579 94.3286516853259,137.1646730297216 98.48735955049051,137.23339167913946 94.41713483142667,137.1646730297216 92.24297752807615,136.44999755834579 88.96910112357,136.285072056402 88.58988764043897,136.42250998494274 87.99578651681077,137.79688363893365 87.83146067411872,137.85185837215977 83.21769662917359,135.87275765649974 78.80617977521615,133.3851078912994 77.35252808989026,133.01401913940208 71.5,132.18937479579472 77.23876404494513,132.95904296450317 78.43960674153641,133.3851078912994 78.7808988763718,133.34387584461365 83.72331460670102,136.06517115778115 86.73174157296307,137.24713540593802 87.62921348313102,137.8243710076058 87.97050561796641,137.74190888936573 88.51404494378949,136.4362537721463 88.89325842692051,136.24384065787308 92.26825842697872,136.44999755834579 94.30337078642333,137.15092929675302 98.5,137.20590422245732 94.36657303367974,137.15092929675302 92.38202247186564,136.50497269288462 88.98174157302128,136.2575844584353 88.58988764043897,136.44999755834579 87.86938202247256,137.87934573259554 83.41994382016128,135.96896443222067 78.84410112357,133.45382794861507 78.22471910109743,133.42633992875926 77.55477528087795,133.04150722068152 73.06741573038744,132.39553622729727" stroke="#4DD2FF" stroke-linecap="round" stroke-linejoin="round" stroke-width="0.5"><title>2025-01-15 9.1km</title><desc>1736916504000</desc></polyline><polyline fill="none" points="103.85384615382645,132.0163992854359 104.03006993007148,132.31750124892278 104.64685314684175,132.6870348022203 107.73076923075132,133.193431427193 109.40489510493353,133.74088566757564 111.39370629366022,135.0410829497123 117.6748251747922,137.91517060415936 117.95174825174036,137.84674046823056 118.48041958041722,136.61499366331554 118.90839160839096,136.38232945061463 122.38251748250332,136.6013075413066 124.2832167831948,137.3540427372791 128.5,137.44984517733974 124.23286713287234,137.3951009320008 122.34475524473237,136.64236590423388 118.89580419572303,136.38232945061463 118.48041958041722,136.61499366331554 117.88881118874997,137.92885662827757 117.49860139854718,137.92885662827757 113.3699300698936,136.09492031051195 108.80069930071477,133.54927686903102 108.53636363637634,133.6313949500327 106.93776223773602,133.1249995324033 101.5,132.35856056932244 106.05664335662732,132.9060172978352 108.77552447555354,133.50821781477134 112.84125874121673,135.75276598599157 117.7503496503341,137.9836007145641 118.03986013983376,137.81936840673734 118.63146853150101,136.4370739977603 119.91538461536402,136.4644462652068 118.66923076921375,136.49181852857873 117.85104895103723,137.96991469453496 113.0552447552327,136.012803330741 108.87622377619846,133.57664956674853 107.40349650348071,133.152372293378 103.43846153846243,132.60491629906755" stroke="#4DD2FF" stroke-linecap="round" stroke-linejoin="round" stroke-width="0.5"><title>2025-01-14 7.8km</title><desc>1736829619000</desc></polyline><polyline fill="none" points="135.19209302327363,132.72654975694604 134.97860465117265,132.4261489259079 135.48093023255933,132.4807672954339 139.70046511630062,133.83256675465964 142.29999999998836,135.11608428576437 143.45534883724758,135.92169176170137 147.6372093023383,137.83328855168656 147.91348837205442,137.75136338391167 148.47860465117265,136.46786430753127 148.84279069764307,136.24939548449765 152.246046511631,136.46786430753127 153.87860465119593,137.13692345813615 155.04651162790833,137.28712007463037 158.5,137.28712007463037 154.11720930231968,137.17788618394115 152.25860465120059,136.46786430753127 148.88046511629364,136.23574117440148 148.516279069765,136.3859385294054 147.926046511624,137.75136338391167 147.57441860466497,137.76501758108498 143.36744186043506,135.94900042764493 139.5246511628502,133.84622124377347 137.59069767442998,133.0406046447606 131.5,132.18036606154055 137.6660465116147,133.06791374000022 139.5246511628502,133.7642942937382 142.89023255812936,135.66225923228194 147.59953488374595,137.79232597236114 147.90093023260124,137.71040078626538 148.40325581392972,136.48151860031066 148.76744186051656,136.24939548449765 152.35906976746628,136.48151860031066 154.24279069766635,137.19154042382434 158.37441860465333,137.30077430640813 154.15488372097025,137.15057770107524 152.27116279071197,136.44055571890203 148.75488372094696,136.23574117440148 148.45348837209167,136.4132471261546 147.86325581400888,137.79232597236114 147.38604651164496,137.75136338391167 146.74558139534201,137.3144285371527 143.19162790698465,135.89438309169782 138.72093023255002,133.36831351909495 137.377209302329,132.99964099425415 131.55023255816195,132.16671144829888 138.746046511631,133.35465899437258 143.21674418606563,135.8124570572254 146.78325581399258,137.28712007463037 147.61209302331554,137.81963435962098 147.90093023260124,137.73770918569062 148.45348837209167,136.39959282831114 148.80511627910892,136.23574117440148 152.18325581395766,136.4132471261546 153.92883720929967,137.10961496920208 154.9837209302932,137.218848900593 153.87860465119593,137.10961496920208 152.1455813953653,136.4132471261546 148.83023255813168,136.19477823805937 148.47860465117265,136.3586299285671 147.91348837205442,137.68309238275106 147.46139534882968,137.69674658500298 146.29348837211728,137.05499797906668 143.21674418606563,135.86707441759063 138.70837209298043,133.36831351909495 136.975348837208,132.93136822307133" stroke="yellow" stroke-linecap="round" stroke-linejoin="round" stroke-width="0.5"><title>2025-01-10 13.0km</title><desc>1736482744000</desc></polyline><polyline fill="none" points="164.0864485981292,131.96141392319987 165.3228971962817,132.798237346753 167.46775700937724,133.20978845492937 169.57476635515923,134.01916961750248 171.85841121495469,135.37727577805344 177.7630841122009,138.03858607680013 178.04065420560073,137.81909802286827 178.15420560748316,136.61190904994146 178.31822429905878,136.4061374128505 182.29252336453646,136.66678144766774 184.37429906544276,137.43499329901533 188.43691588786896,137.5310195550701 184.1976635514293,137.39383917392115 182.29252336453646,136.68049954454182 178.39392523368588,136.39241929554555 178.14158878510352,136.68049954454182 178.04065420560073,137.87397006087122 177.7630841122009,138.03858607680013 173.24626168224495,136.1180567345873 168.8051401869161,133.6350569669885 167.41728971962584,133.20978845492937 161.5,132.38668531864823 167.7453271028353,133.23722516276757 168.36355140188243,133.58018366577744 168.79252336447826,133.58018366577744 173.32196261687204,136.06318417331204 177.57383177569136,137.98371408780804 178.0028037383454,137.87397006087122 178.12897196266567,136.62562715091917 178.35607476637233,136.41985552910774 182.29252336453646,136.68049954454182 184.47523364488734,137.43499329901533 188.5,137.4898654514691 184.13457943929825,137.38012113017612 182.2799065420404,136.62562715091917 178.40654205612373,136.41985552910774 178.1920560747967,136.55703663584427 178.17943925235886,137.5310195550701 177.85140186920762,138.02486808106187 173.15794392529642,136.07690231518063 168.8303738317918,133.6213386432355 167.3289719626191,133.20978845492937 161.5,132.34553006525675 165.91588785045315,132.9079843988875 168.74205607484328,133.5527470090601 172.89299065427622,135.87113008019514 177.59906542062527,137.98371408780804 177.9523364486522,137.8876880677999 178.22990654211026,137.20178646860586 177.9523364486522,137.95627808723657 177.3971962617361,137.87397006087122 173.2336448598653,136.09062045598694 168.8051401869161,133.53902867915167 168.5149532710202,133.60762031842023 167.54345794394612,133.14119666744955 165.94112149538705,132.9628579003911" stroke="yellow" stroke-linecap="round" stroke-linejoin="round" stroke-width="0.5"><title>2025-01-08 12.0km</title><desc>1736310892000</desc></polyline><polyline fill="none" points="14.377980364661198,163.33933692522987 14.756661991588771,162.73544648638926 14.807152875175234,162.14527891749458 15.046984572254587,161.93940606489195 15.324684432009235,161.99430551474507 15.198457222955767,162.09037951262144 16.422861150058452,162.55702393241518 17.053997194976546,163.07856629676826 19.64165497897193,163.98439952534682 23.933380084170494,166.3038612754026 27.795932678796817,168.0194207050954 28.04838709672913,167.77238113178464 28.086255259462632,166.63324992507114 28.439691444626078,166.39993302573566 32.3022440392524,166.67442346489406 34.32187938288553,167.44299451877305 38.5,167.52534122725774 34.2966339411214,167.4155456078006 32.35273492283886,166.701872486301 28.389200561039615,166.44110661765444 28.124123422137927,166.71559699546196 28.086255259462632,167.77238113178464 27.871669004205614,168.06059393510805 23.138148667640053,166.04309484337864 18.808555399707984,163.61383192476933 18.328892005607486,163.61383192476933 17.445301542815287,163.1883645011112 11.5,162.43350052455207 17.622019635338802,163.3118874027423" stroke="#4DD2FF" stroke-linecap="round" stroke-linejoin="round" stroke-width="0.5"><title>2025-01-06 5.2km</title><desc>1736137119000</desc></polyline><polyline fill="none" points="44.99485981307225,162.928562635876 45.05794392520329,162.4072630507144 45.47429906547768,161.78993268574413 45.777102803695016,162.8599706695386 45.34813084109919,163.14805675648677 46.14299065421801,163.10690162880928 48.76728971960256,163.73794590907346 52.325233644864056,165.41157461293915 52.993925233662594,166.00145651404455 57.78831775696017,168.12775931242504 58.07850467285607,167.94942518226162 58.128971962607466,166.79710817785235 58.36869158875197,166.5776184071001 62.51962616824312,166.86569867758953 64.51308411208447,167.62019248823344 68.5,167.68878268137632 64.34906542056706,167.59275640384294 62.38084112148499,166.82454438084096 58.41915887850337,166.5776184071001 58.17943925235886,166.78339007488103 58.09112149535213,167.94942518226162 57.83878504676977,168.196349316524 53.30934579443419,166.33069210224494 49.600000000034925,164.2318051415641 47.73271028039744,163.47729744679236 41.5,162.5032920325757 45.73925233643968,163.02459134583478 48.74205607478507,163.69679091326543 52.55233644862892,165.80940214906877 56.95560747658601,167.72993678499188 57.636915887880605,168.21006731427042 58.06588785047643,167.90827112768602 58.17943925235886,166.7147995444975 58.35607476631412,166.53646404594474 61.15700934577035,166.86569867758953 62.38084112148499,166.79710817785235 64.4121495326981,167.5790383600979 68.48738317756215,167.6476285685494 64.071495327109,167.51044812609325 62.305140186916105,166.82454438084096 58.457009345816914,166.53646404594474 58.17943925235886,166.74223575972428 58.14158878498711,167.86711706395727 57.86401869158726,168.1414773153083 53.37242990656523,166.3169739645091 49.625233644852415,164.1494953614456 48.07336448598653,163.55960752739338 41.66401869157562,162.57188413178665" stroke="#4DD2FF" stroke-linecap="round" stroke-linejoin="round" stroke-width="0.5"><title>2025-01-03 9.5km</title><desc>1735878536000</desc></polyline><polyline fill="none" points="74.19367681501899,162.38056400204368 75.77447306795511,162.8205805155012 77.58290398126701,162.98558643754222 78.45550351293059,163.42560150848294 78.78430913347984,163.38435014015704 82.54028103046585,165.46065756570897 87.58618266979465,167.78444413695252 87.96557377051795,167.71569347495097 88.48407494142884,166.46442695207952 88.86346604221035,166.244423170152 92.25269320845837,166.45067672338337 94.26346604217542,167.2069377801672 98.5,167.33068929443834 94.57962529273937,167.22068795251835 92.40444964868948,166.51942785659048 88.88875878223917,166.31317438014958 88.48407494142884,166.53317808016436 87.81381733022863,167.83944464811066 82.90702576114563,165.77691426275123 78.77166276349453,163.46685286761203 78.44285714288708,163.49435376854672 77.4311475410359,163.01308741021785 76.00210772833088,162.94433497085993 71.5,162.1605553519039 77.53231850120937,162.9993369243748 79.31545667449245,163.83811468470958 77.64613583142636,163.04058837877528 73.94074941449799,162.47681770399504" stroke="#4DD2FF" stroke-linecap="round" stroke-linejoin="round" stroke-width="0.5"><title>2025-01-02 5.6km</title><desc>1735817809000</desc></polyline><polyline fill="none" points="104.61635514016962,162.48957241272728 107.61915887851501,162.9834340737143 108.50233644858235,163.44985775944951 109.34766355139436,163.60075928716105 113.94018691591918,166.12491196051997 117.81355140183587,167.7985158522206 118.1415887849871,167.45556547415617 118.5074766355101,166.5364553113759 118.94906542054377,166.31696563870355 122.19158878503367,166.42671050774516 124.56355140189407,167.29094906584942 128.5,167.318385144099 126.96074766351376,167.4144113858638 124.33644859812921,167.24979494075524 122.36822429904714,166.48158291775326 118.96168224303983,166.28952941122407 118.57056074764114,166.44042861179332 117.99018691590754,167.74364383463399 117.77570093463873,167.83966985462757 111.59345794393448,165.12348596453376 108.75467289716471,163.44985775944951 108.35093457950279,163.4772944100696 107.48037383181509,163.03830750983616 101.5,162.1466121465637 107.02616822428536,162.9148422555736 108.45186915888917,163.4224211047549 108.75467289716471,163.34011111616564 112.80467289721128,165.61734056101704 117.77570093463873,167.8533878534363 118.60841121495469,166.39927429663658 118.94906542054377,166.26209317967005 119.90794392518,166.38555618951796 118.58317757007899,166.3718380814098 117.99018691590754,167.71620781972888 117.76308411214268,167.78479784933734 113.18317757011391,165.8505492155964 108.94392523361603,163.49101273382257 108.37616822432028,163.44985775944951 107.36682242993265,162.99715243428363 106.28177570091793,163.03830750983616 101.87850467290264,162.1877674122661 104.65420560748316,162.70906664781796" stroke="#4DD2FF" stroke-linecap="round" stroke-linejoin="round" stroke-width="0.5"><title>2024-12-31 8.0km</title><desc>1735619151000</desc></polyline><polyline fill="none" points="135.25981308415066,162.68163005549286 136.18084112153156,162.70906681849738 138.81775700941216,163.32639290584484 140.3570093458402,164.14949113606417 140.79859813087387,164.60219359426992 147.86401869158726,167.79851564374985 148.5327102803858,166.49530090630287 148.91121495328844,166.28952931518143 152.4060747664189,166.48158280736243 154.1471962616779,167.1812045493425 158.48738317762036,167.2909488951409 154.31121495331172,167.24979477316083 152.3808411215432,166.49530090630287 148.9238317757845,166.28952931518143 148.5579439252615,166.45414660645474 147.80093457951443,167.8533876408619 143.53644859814085,166.02888496963715 139.6757009346038,163.9025620533357 137.4299065420637,163.01087094201648 131.5,162.14661235915264 136.2691588785383,162.7639403322828 138.77990654209862,163.34011123984237 143.53644859814085,165.91913987169391 147.687383177632,167.83966964311549 148.0028037383454,167.7162076173845 148.5327102803858,166.48158280736243 148.96168224303983,166.2483749693638 152.33037383185,166.45414660645474 154.37429906544276,167.2086406419403 158.5,167.2223586866894 154.52570093463873,167.23607673043443 152.31775700935395,166.48158280736243 148.8985981308506,166.26209308562102 148.5327102803858,166.45414660645474 147.9775700934697,167.70248960940808 147.77570093458053,167.79851564374985 143.2084112149896,165.87798544309044 138.8808411215432,163.4498578749335 136.98831775703002,162.98343422396283 131.70186915888917,162.21520445837814 137.26588785048807,162.96971586337895 138.42663551407168,163.4361395491287 138.91869158885675,163.38126623566495 142.93084112147335,165.60362235069624 138.8556074766675,163.4087028944341 135.04532710282365,162.6953484374826" stroke="yellow" stroke-linecap="round" stroke-linejoin="round" stroke-width="0.5"><title>2024-12-30 10.8km</title><desc>1735533491000</desc></polyline><polyline fill="none" points="165.2905783582246,162.63118403371482 167.7588619403541,163.04196738389146 168.4514925373369,163.43905708294187 168.8041044776328,163.39797887799796 169.52192164183361,163.69921883432835 172.6072761194664,165.4518778778147 177.61940298508853,167.75221750879427 177.98460820899345,167.76590992040292 178.5135261194082,166.46512626300682 178.9291044776328,166.23235347957234 182.2411380596459,166.45143375448242 184.2182835820713,167.21821266037296 188.5,167.28667490713997 184.38199626869755,167.21821266037296 182.36707089556148,166.47881877052714 178.87873134331312,166.2597385282279 178.53871268656803,166.46512626300682 178.0979477612418,167.57421606502612 177.75792910443852,167.8206795566366 173.04804104479263,165.83526981562318 169.69822761195246,163.9183021288336 167.78404850745574,163.13781670015305 161.5,162.15193563136563 167.56996268656803,163.02827462034475 169.98787313431967,163.9183021288336 172.5317164179287,165.4518778778147 177.72014925372787,167.84806436863437 177.97201492532622,167.77960233097838 178.55130597011885,166.47881877052714 178.90391791041475,166.3145086132572 182.34188432834344,166.50620378245367 184.23087686568033,167.23190511175198 188.46222014923114,167.27298245980637 187.17770522390492,167.3825220097351 184.2938432835508,167.23190511175198 182.32929104479263,166.45143375448242 178.91651119402377,166.2597385282279 178.56389925378608,166.41035622282652 177.98460820899345,167.7385250961379 177.6068097014795,167.7932947405643 173.5265858208877,166.01327294346993 172.1916977611836,165.19171860741335 167.7588619403541,163.0830456684198 162.1422574626631,162.28886387386592" stroke="#4DD2FF" stroke-linecap="round" stroke-linejoin="round" stroke-width="0.5"><title>2024-12-27 9.1km</title><desc>1735273142000</desc></polyline><polyline fill="none" points="33.21355140185915,196.6256229057908 32.22943925234722,196.3512609988975 31.182242990646046,196.47472390759503 28.721962616837118,196.24151612172136 27.85140186920762,197.80537444740185 23.271495327120647,195.93971737210813 18.729439252289012,193.4429996527906 18.363551401882432,193.4841546148964 17.379439252370503,193.0451678782265 11.5,192.11231758758368 15.613084112177603,192.77080063631 16.016822429955937,192.7022087619407 18.90607476636069,193.4292813300417 22.12336448597489,195.04803635863937 22.602803738380317,195.4870183202729 27.57383177569136,197.76422045107756 27.939719626156148,197.73678444843972 28.444392523320857,196.47472390759503 28.84813084109919,196.2277980074432 32.330373831733596,196.4472877128428 34.46261682244949,197.24293570168084 38.5,197.35267998208292 34.04626168223331,197.16062744848023 32.481775700929575,196.48844200343592 28.835514018661343,196.24151612172136 28.570560747699346,196.3238247857371 28.002803738345392,197.7779384508467 27.75046728970483,197.88768241243088 26.665420560748316,197.24293570168084 23.120093457924668,195.84369039350713 18.969158878549933,193.41556300628872 16.117757009342313,192.77080063631 13.12757009343477,192.37296740929014" stroke="#4DD2FF" stroke-linecap="round" stroke-linejoin="round" stroke-width="0.5"><title>2024-12-25 6.6km</title><desc>1735101299000</desc></polyline><polyline fill="none" points="44.3035547240288,192.3499114674487 44.20252572494792,192.59707365858776 44.36669784842525,192.54214875587786 44.60664172121324,192.14394272156642 45.37698783905944,192.67946098199172 46.235734331130516,192.72065462985483 48.87511693168199,193.39348290860653 53.547708138416056,195.9474617716769 57.841440598713234,197.80113394290674 58.01824134704657,197.78740310648573 58.54864359210478,196.482968980461 58.94013096351409,196.27700485353125 62.324602432141546,196.46923804581456 64.50935453694547,197.29309231344087 68.5,197.3617466695432 64.31992516369792,197.25189968752966 62.19831618334865,196.4555071101786 58.82647333963541,196.29073580245313 58.54864359210478,196.42804523576342 57.98035547242034,197.71874890891195 57.75304022448836,197.75994143051503 53.093077642668504,195.8376139467582 49.594948550045956,193.80541737709427 47.6122544434038,193.0090099072404 41.5,192.15767397846503 43.57109448075062,192.47349260444753 44.556127221672796,192.44603013670712 48.028999064525124,193.13259060231212 49.60757717490196,193.75049283450062 53.93919550976716,196.139695307691 57.63938260055147,197.78740310648573 58.030869971902575,197.74621059102356 58.66230121609988,196.34565958805615 59.950420954148285,196.34565958805615 58.700187090726104,196.30446675040002 57.96772684750613,197.85605727841903 53.42142188962316,195.97492371764383 50.97146866226103,194.533166021356 47.73854069219669,193.1051282327826 41.53788587456802,192.17140523433045 46.7282507015625,192.9128915315814" stroke="#4DD2FF" stroke-linecap="round" stroke-linejoin="round" stroke-width="0.5"><title>2024-12-18 8.3km</title><desc>1734495982000</desc></polyline><polyline fill="none" points="74.34608208958525,191.22766501444858 73.88013059698278,191.33720875928702 74.04384328360902,191.2002790680126 73.88013059698278,191.30982282919285 73.77938432834344,191.15920014071162 73.82975746266311,191.29612986261782 74.84981343284016,192.00816277172999 77.07882462686393,192.9940499374352 77.60774253733689,193.82931131424266 78.19962686568033,194.294865188087 78.85447761195246,194.39071436863742 83.47621268656803,196.8827755178354 87.65718283585738,198.75864541104238 87.9594216417754,198.77233782161784 88.55130597017705,197.45786175366084 88.91651119402377,197.25247401886736 92.41744402988115,197.47155426118115 94.62126865674509,198.2383330527955 98.5,198.3067952893325 94.28125,198.2383330527955 92.41744402988115,197.48524676763918 88.85354477621149,197.26616654163809 88.48833955224836,197.47155426118115 87.85867537313607,198.827107453777 81.67537313431967,196.23922450137616 81.24720149248606,195.81475344867795 79.69822761201067,194.9384230129217 77.83442164183361,194.19901595752162 71.5,193.17205677866878 77.51958955224836,193.966239046611 78.57742537319427,194.43179257358133 78.80410447763279,194.3633288935671 83.52658582094591,196.9375457130518 86.77565298503032,198.224640602406 87.6697761194082,198.77233782161784 88.00979477615329,198.69018334276916 88.63945895520737,197.37570668727858 89.94916044780985,197.33462914035772 88.71501865668688,197.4167842250754 88.06016791047296,198.84079985928838 87.49347014923114,198.79972263977106 83.22434701491147,196.96493080456275 82.05317164183361,196.1981467004225 77.79664179106476,194.1305521907925 71.60074626863934,193.26790654481738 77.60774253733689,193.99362458083488" stroke="#4DD2FF" stroke-linecap="round" stroke-linejoin="round" stroke-width="0.5"><title>2024-12-17 8.6km</title><desc>1734409492000</desc></polyline><polyline fill="none" points="104.82928538066335,192.51817044784548 107.52802428771975,192.943241374247 108.51167678658385,193.4094470678392 108.83956095285248,193.31346363923512 113.51821578707313,195.89128691218502 117.7680990191875,197.72864954722172 117.99509574961849,197.7012263591605 118.57519850536482,196.34377344252425 118.8904717421974,196.16552130579657 122.54764128912939,196.4260436012264 124.37622606259538,197.1253384656884 128.5,197.19389664274058 128.09645025688224,197.33101292021456 124.36361513310112,197.19389664274058 122.2071461933665,196.3986202190863 118.96613731904654,196.26150324700575 118.47431106958538,196.56316045073618 117.93204110232182,197.72864954722172 117.71765530126868,197.79720749956323 113.89654367114417,196.1792330147291 108.76389537600335,193.43687089538435 108.09551611403003,193.35459940048167 107.38930406357395,192.943241374247 101.5,192.13423457366298 107.47758056985913,192.9295294242038 108.32251284446102,193.38202323621954 108.81433909392217,193.3408874810848 113.48038299864857,195.87757518180297 117.67982251284411,197.71493795371498 118.03292853804305,197.68751476357284 118.46170014009112,196.522025406608 118.8904717421974,196.1929447226721 122.58547407761216,196.4260436012264 124.33839327422902,197.1253384656884 128.42433442315087,197.23503153667843 124.56539000466,197.19389664274058 122.35847734706476,196.3986202190863 118.87786081276136,196.2340798403311 118.56258757592877,196.384908526481 117.90681924339151,197.79720749956323 113.39210649230517,195.94613382358511 108.7765063054976,193.43687089538435 107.6541335824877,193.03922499594046 101.65133115369827,192.16165859125613 107.45235871087061,192.943241374247 108.33512377395527,193.38202323621954 108.87739374127705,193.39573515253142 114.01004203641787,196.1243861727853 117.67982251284411,197.75607273122296 118.03292853804305,197.7012263591605 118.46170014009112,196.30263834937068 119.92456795898033,196.33006174581533 118.58780943485908,196.3574851381709 117.95726296119392,197.86576542633702 113.35427370388061,195.9324220972776 108.82695002335822,193.42315898214292 108.42340028024046,193.43687089538435 107.4271368519403,192.95695332325704 101.65133115369827,192.2165066141315 107.33886034565512,192.9295294242038" stroke="yellow" stroke-linecap="round" stroke-linejoin="round" stroke-width="0.5"><title>2024-12-15 13.0km</title><desc>1734235831000</desc></polyline><polyline fill="none" points="134.16977611935,192.24093879183056 134.16977611935,192.39155978562485 135.3031716417172,192.7338797669654 136.82695895514917,193.0488135866326 137.6203358208295,192.9940425263194 138.38852611935,193.43221055172035 138.82929104473442,193.44590328568302 144.04291044775164,196.22550715645775 147.78311567165656,197.81383335187274 148.0223880596459,197.80014094332 148.526119402959,196.58151249715593 148.90391791041475,196.33504733472364 152.3796641791123,196.51304998520936 154.38199626863934,197.27982866256207 158.5,197.36198333113862 154.30643656715984,197.27982866256207 152.48041044775164,196.52674248961557 148.84095149260247,196.28027725375432 148.48833955219015,196.44458744773874 147.8838619402959,197.84121816587867 143.48880597011885,196.04750422752113 139.39598880591802,193.76083588520123 137.53218283579918,193.0351208230859 131.5,192.15878183410678 134.69869402976474,192.48740944467136 137.53218283579918,192.95296422039974 138.80410447757458,193.36374686662748 142.67024253727868,195.4724166635715 146.53638059698278,197.170289047368 147.49347014923114,197.77275612315862 148.00979477609508,197.71798647058313 148.47574626863934,196.58151249715593 148.8661380597041,196.30766229631263 152.3166977611836,196.45827995723812 154.19309701496968,197.23875131450768 155.6287313432549,197.25244376489718 154.09235074627213,197.1976739572856 152.29151119402377,196.48566497328284 149.0046641791123,196.28027725375432 148.48833955219015,196.43089493717707 147.85867537313607,197.78644853373407 143.2495335820713,195.91057878026913 138.82929104473442,193.47328875052335 137.50699626858113,193.0351208230859 135.5172574626049,192.78865090479667" stroke="#4DD2FF" stroke-linecap="round" stroke-linejoin="round" stroke-width="0.5"><title>2024-12-13 8.5km</title><desc>1734064159000</desc></polyline><polyline fill="none" points="164.42064241843764,192.54550260807446 167.20099196978845,192.94765770706 169.1140765233431,193.5439550475421 173.0932923948858,195.79045345360646 177.5444024563185,197.75958407904545 177.90151157299988,197.77345112225157 178.4754369391012,196.45607740404375 178.83254605572438,196.27580448583467 182.33986773737706,196.45607740404375 184.09990552667296,197.17716733105772 188.5,197.26036983520316 184.52078412851552,197.23263567127287 182.21232876711292,196.44221026268497 178.7432687766268,196.26193733104446 178.3734057628899,196.3867416869616 177.95252716104733,197.57931242320046 177.6464336325298,197.85665335986414 176.74090694379993,197.34357230215392 173.08053849783028,195.91525812564942 169.3819083608687,193.79356732050655 167.41780821915017,193.1140664593695 169.36915446381317,193.73809795544366 171.7158715163241,195.15256160090212 176.76641473785276,197.32970522687538 177.50614076526836,197.81505224571447 177.87600377888884,197.73184998950455 178.44992914499016,196.22033586050384 177.85049598489422,197.6902488474443 177.53164855932118,197.77345112225157 173.22083136509173,195.94299248582684 168.629428436514,193.36367930888082 168.1830420406186,193.3775466795778 167.060699102527,192.91992290054623 161.5,192.14334664013586" stroke="#4DD2FF" stroke-linecap="round" stroke-linejoin="round" stroke-width="0.5"><title>2024-12-11 6.6km</title><desc>1733890893000</desc></polyline><polyline fill="none" points="14.773876404447947,222.67728927131975 17.668539325823076,223.00714664009865 18.300561797688715,223.3782354749419 18.81882022472564,223.3644914573233 23.571629213460255,225.98958024053718 27.818820224667434,227.83124326927646 28.514044943847694,226.40189445612486 28.880617977469228,226.23696888047562 32.50842696626205,226.45686961528554 34.36657303367974,227.18528892709583 38.46207865170436,227.28149503628083 34.51825842697872,227.18528892709583 32.5463483146159,226.52558854113158 28.61516853928333,226.36066307603323 27.91994382016128,227.87247432072763 23.483146067417692,226.0170678835857 22.206460674176924,225.15120516030584 18.780898876371793,223.44695554762438 18.50280898879282,223.51567559471005 17.415730337088462,223.07586685102433 11.626404494338203,222.25122263029334 16.429775280877948,222.80098585372616 18.780898876371793,223.35074743870064 22.092696629173588,224.98627846651652 23.47050561796641,225.90711728684255 27.717696629231796,227.80375589654432 27.983146067417692,227.7075500596984 28.53932584269205,226.48435718867404 28.880617977469228,226.23696888047562 31.092696629173588,226.45686961528554 32.21769662917359,226.36066307603323 34.42977528087795,227.1990326600644 38.5,227.26775130948226 34.214887640438974,227.17154519312317 32.48314606741769,226.48435718867404 28.85533707862487,226.2507126841083 28.53932584269205,226.37440687044 28.096910112304613,227.6113441726775 27.85674157302128,227.81749958344153 23.91292134829564,226.16824984710547 21.549157303350512,224.75263206461386 18.755617977527436,223.3782354749419 16.733146067417692,222.86970614145685 11.5,222.12752567925781 17.959269662911538,223.06212281090848 27.515449438185897,227.73503744676418 27.983146067417692,227.65257527322683 28.53932584269205,226.22322507583885 28.00842696626205,227.7075500596984 27.742977528076153,227.76252482976997 23.62219101120718,226.0170678835857 18.793539325881284,223.33700341904478 14.382022471865639,222.5948248369532" stroke="yellow" stroke-linecap="round" stroke-linejoin="round" stroke-width="0.5"><title>2024-12-09 12.1km</title><desc>1733738831000</desc></polyline><polyline fill="none" points="52.73515551368473,225.51881740322278 57.81196983973496,227.8153353616508 58.3972667294438,226.48723205341958 58.855325164913666,226.23821162570675 62.138077285548206,226.37655634898692 64.13572101783939,227.16511930373963 68.5,227.31729773411644 64.5556079170201,227.23429133299214 62.35438265779521,226.47339759395982 58.89349670126103,226.2935495273996 58.46088595659239,226.43189420946874 57.8374175306526,227.8430040795938 53.81668237509439,226.16903922545316 48.70169651275501,223.40212208482262 48.24363807722693,223.4159567730967 47.6583411875763,223.028585112188 44.03204524033936,222.5443693996349 43.57398680486949,222.3230132247554 43.357681432622485,222.50286513693572 41.76720075402409,222.2538393659779 45.533459000929724,222.64121264315327 48.70169651275501,223.34678332146723 52.03534401510842,224.9931044781988 52.97690857684938,225.68483170191757 57.62111215834739,227.8153353616508 57.92648444860242,227.69082607999735 58.46088595659239,226.40422528130875 58.75353440147592,226.1828737075557 59.88595664460445,226.37655634898692 62.328934966993984,226.39039081564988 64.36475023563253,227.17895371167106 68.41093308193376,227.26196013748995 64.26295947219478,227.13745048482087 62.328934966993984,226.4180597458908 58.84260131948395,226.26588057864865 58.320923656923696,226.70858326436428 57.824693685164675,227.8430040795938 53.09142318571685,225.79550781860598 48.68897266726708,223.40212208482262 48.39632422244176,223.4574608316616 46.754948162066285,222.9179073463456 41.5,222.1569959204062 46.996701225289144,222.9179073463456 48.28180961351609,223.38828739552991 48.76531573984539,223.37445270523313 50.40669180022087,224.27370543213328" stroke="#4DD2FF" stroke-linecap="round" stroke-linejoin="round" stroke-width="0.5"><title>2024-12-06 9.2km</title><desc>1733479157000</desc></polyline><polyline fill="none" points="74.23913043469656,222.56388643894752 77.67251051886706,222.9756298893044 78.40462833095808,223.42854662169702 78.80855539970798,223.34619820771331 83.51683029450942,225.98132919649652 87.63183730712626,227.80668429371144 88.04838709672913,227.68316459449125 88.49018232815433,226.50286106974818 88.96984572231304,226.31071791979775 92.37798036460299,226.4754120605794 94.29663394106319,227.20280942133104 98.5,227.3400538843125 94.34712482464965,227.20280942133104 92.35273492278066,226.5165855727828 88.9067321177572,226.29699340139632 88.464936886332,226.57148357472033 87.83380084147211,227.83413310452306 83.17601683025714,225.85780827343115 82.11570827488322,225.130405602089 78.82117812056094,223.4559960848419 78.45511921454454,223.48344554388314 77.53366058901884,223.04425370819808 71.5,222.1658668954624 77.53366058901884,223.03052894645953 79.4270687236567,223.82656343693088 78.8716690041474,223.4559960848419 74.25175315560773,222.5776112354797" stroke="#4DD2FF" stroke-linecap="round" stroke-linejoin="round" stroke-width="0.5"><title>2024-12-03 5.6km</title><desc>1733220329000</desc></polyline><polyline fill="none" points="105.02447552455124,222.7007196889026 107.57972027972573,222.97444764526153 108.44825174828293,223.48084328924597 109.55594405595912,223.61770673717547 110.75174825178692,224.3978264432517 112.38811188808177,225.01370808160573 113.43286713288398,225.8211942124908 117.92657342663733,227.79199291770055 118.49300699302694,226.57393232446339 118.94615384622011,226.2728374497965 122.38251748256152,226.46444333624095 124.49720279726898,227.24455095360463 127.4552447553142,227.2171788125852 128.5,227.299295223449 128.1853146853391,227.38141159756924 124.37132867134642,227.27192309054954 122.38251748256152,226.51918783852307 118.9335664336104,226.32758200916578 118.55594405601732,226.5055017144623 117.976923077018,227.80567894590786 117.70000000001164,227.833050999252 113.0426573426812,225.83488038752694 110.52517482516123,224.3978264432517 107.4664335664711,223.0291931875836 101.5,222.19432189429062 107.68041958048707,223.00182041845983 109.46783216786571,223.8230017178721 107.44125874125166,223.0702523336222 101.52517482516123,222.16694900076254 105.17552447557682,222.67334687081166" stroke="#4DD2FF" stroke-linecap="round" stroke-linejoin="round" stroke-width="0.5"><title>2024-12-02 6.1km</title><desc>1733112856000</desc></polyline><polyline fill="none" points="131.5,221.28143743368855 132.29999999998836,221.61488187905343 134.14000000001397,224.0794535371242 133.97999999998137,223.91998219798552 134.32666666666046,223.90548479702557 134.78000000002794,223.3545827605849 136.43333333334886,223.60103912759223 137.04666666663252,224.00696658098605 138.27333333331626,224.25342212164833 139.59333333326504,225.07977077427495 141.19333333329996,225.68865700965398 142.03333333332557,226.42801630546455 146.83333333331393,228.6170832394564 147.22000000003027,228.6170832394564 147.80666666664183,227.26885287500045 148.19333333329996,227.0803898218437 151.88666666665813,227.26885287500045 154.16666666662786,228.08069163264008 158.5,228.12418289908965 154.19333333335817,228.10968581135967 151.89999999996508,227.2978471746319 148.2333333333372,227.109384149604 147.83333333331393,227.28335002534732 147.11333333334187,228.71856256631145 142.5266666666139,226.7904463067971 139.4199999999837,225.03627882743604 136.3133333332953,223.61553655120952 132.54000000003725,223.16611591634864" stroke="#4DD2FF" stroke-linecap="round" stroke-linejoin="round" stroke-width="0.5"><title>2024-11-29 4.6km</title><desc>1732853630000</desc></polyline><polyline fill="none" points="163.786602870794,224.12914340617135 163.5928229665151,224.24151509003423 164.41961722489214,224.25556154578226 163.70909090916393,224.1712827954907 164.35502392344642,224.2274686331948 164.27751196169993,224.4241189334134 165.3110047846567,223.0897021553974 167.7397129186429,222.92114357471291 168.51483253587503,223.342539743855 169.6129186602775,223.5672839822655 173.9148325358983,226.0254066001653 178.2296650717617,227.89355835648894 178.8755980861606,226.53107356419787 179.26315789471846,226.34847176140465 182.93205741629936,226.53107356419787 184.79234449757496,227.28957146753964 188.5,227.33171015049447 184.86985645932145,227.261479007022 182.66076555021573,226.4889347023418 179.21148325363174,226.29228655573388 178.90143540670397,226.4748884129367 178.2296650717617,227.87951217172667 173.65645933011547,226.0254066001653 168.92822966509266,223.3846793089615 167.50717703351984,222.9492366819468 161.5,222.1064416435256 167.63636363635305,222.92114357471291 168.42440191394417,223.32849322004768 169.251196172263,223.4408653811115 172.58421052637277,225.21071808320994 167.5976076555089,222.97732978500426 164.35502392344642,222.54188621713547" stroke="#4DD2FF" stroke-linecap="round" stroke-linejoin="round" stroke-width="0.5"><title>2024-11-28 6.3km</title><desc>1732767063000</desc></polyline><polyline fill="none" points="11.681208053720184,251.77369205487776 15.66778523492394,252.44687454985979 16.573825503408443,252.92302678020496 16.996644295344595,252.89018872838642 21.149328859057277,254.92613868853368 22.583892617432866,255.87843140719633 27.838926174503285,258.1770520508435 28.578859060420655,256.5844388700061 29.122483221522998,256.2889011375082 33.12416107376339,256.5023450951703 34.966442953038495,257.27402537131275 36.56711409392301,257.5367244233348 38.5,257.4874683749222 35.58557046978967,257.43821231552283 33.395973154343665,256.5844388700061 29.273489932937082,256.37099499189935 28.65436241606949,256.61727637136937 27.838926174503285,258.2263079451368 22.115771812095772,255.8127561793517 16.996644295344595,252.89018872838642 16.619127516809385,252.97228384877963 15.32046979869483,252.39761736385117 11.5,251.8886257971899" stroke="#4DD2FF" stroke-linecap="round" stroke-linejoin="round" stroke-width="0.5"><title>2024-11-25 4.0km</title><desc>1732507947000</desc></polyline><polyline fill="none" points="41.5,250.3820539493172 47.00401284114923,251.08889195811935 48.49919743184,251.96065665973583 49.32263242395129,251.86641194298863 50.839486356358975,252.36119639253593 52.42134831473231,253.49212937030825 55.41171749611385,254.78798510192428 57.73033707868308,256.3901266656467 62.974317817017436,258.43991359628853 64.72953451052308,259.5001430026896 65.1845906903036,259.311658034625 66.15971107548103,257.02626885892823 68.5,256.97914725885494 66.24638844304718,257.09695124591235 64.98956661322154,259.6179460506828 58.07704654906411,256.7435391532199 49.2792937400518,252.03134017882985 48.694221508922055,252.14914600894554 50.77447833074257,252.54968550303602 51.79293739970308,253.49212937030825 53.5914927769918,253.98691127626807 57.6869983949,256.437248353468 64.25280898890924,259.35877928716945 65.1845906903036,259.4530217712163 66.15971107548103,257.002708059852 65.11958266457077,259.6179460506828 58.18539325846359,256.69641751106246" stroke="#4DD2FF" stroke-linecap="round" stroke-linejoin="round" stroke-width="0.5"><title>2024-11-20 4.0km</title><desc>1732095798000</desc></polyline><polyline fill="none" points="73.0772703133407,252.06118933402468 77.06346255977405,252.63804590460495 78.02416356879985,253.12135694212338 78.68374933610903,253.18371957530326 82.36882634094218,255.00781837440445 83.34386617102427,255.7561620000488 88.59187466808362,258.0791282917635 88.83563462557504,258.04794770693115 89.42352628783556,256.67599737366254 89.85369091870962,256.34859880578006 93.83988316514296,256.56686457463366 95.93335103557911,257.4087446934136 98.5,257.50228671974037 95.89033457246842,257.4243350340548 93.61046202864964,256.55127417010954 89.939723844931,256.3641892253945 89.33749336161418,256.76953972753836 88.77827934140805,258.11030887201196 83.44423791824374,255.91206658522424 79.34333510353463,253.6202574873605 77.03478491771966,252.70040868186334 71.5,251.8896911280026" stroke="#4DD2FF" stroke-linecap="round" stroke-linejoin="round" stroke-width="0.5"><title>2024-11-19 4.1km</title><desc>1731989484000</desc></polyline></svg>