<?xml version="1.0" encoding="utf-8" ?>
<svg baseProfile="full" height="300mm" version="1.1" viewBox="0,0,200,300" width="200mm" xmlns="http://www.w3.org/2000/svg" xmlns:ev="http://www.w3.org/2001/xml-events" xmlns:xlink="http://www.w3.org/1999/xlink"><defs /><rect fill="#222222" height="300" width="200" x="0" y="0" /><text fill="#FFFFFF" style="font-size:12px; font-family:Arial; font-weight:bold;" x="10" y="20">Over 4km Runs</text><text fill="#FFFFFF" style="font-size:4px; font-family:Arial" x="10" y="280">ATHLETE</text><text fill="#FFFFFF" style="font-size:9px; font-family:Arial" x="10" y="290">Fake David</text><text fill="#FFFFFF" style="font-size:4px; font-family:Arial" x="65" y="280">SPECIAL TRACKS</text><rect fill="yellow" height="2.6" width="2.6" x="65" y="283" /><text fill="#FFFFFF" style="font-size:3px; font-family:Arial" x="70" y="285.5">Over 10.0 km</text><rect fill="red" height="2.6" width="2.6" x="65" y="287" /><text fill="#FFFFFF" style="font-size:3px; font-family:Arial" x="70" y="289.5">Over 15.0 km</text><text fill="#FFFFFF" style="font-size:4px; font-family:Arial" x="120" y="280">STATISTICS</text><text fill="#FFFFFF" style="font-size:3px; font-family:Arial" x="120" y="285">Number: 42</text><text fill="#FFFFFF" style="font-size:3px; font-family:Arial" x="120" y="290">Weekly: 2.5</text><text fill="#FFFFFF" style="font-size:3px; font-family:Arial" x="141" y="285">Total: 341.6 km</text><text fill="#FFFFFF" style="font-size:3px; font-family:Arial" x="141" y="290">Avg: 8.1 km</text><text fill="#FFFFFF" style="font-size:3px; font-family:Arial" x="167" y="285">Min: 4.0 km</text><text fill="#FFFFFF" style="font-size:3px; font-family:Arial" x="167" y="290">Max: 13.0 km</text><polyline fill="none" points="12.643854748632293,42.266578097609454 16.779329609009437,42.840604656899814 18.916201117332093,43.387294948101044 23.01396648050286,45.66970931373362 27.60195530729834,47.78809244764852 28.04189944139216,47.651423306175275 28.15502793295309,46.599067506729625 28.431564245838672,46.189057119583595 32.62988826818764,46.489731493085856 34.08798882685369,47.13207964011235 35.15642458101502,47.28241611568956 38.5,47.309750007116236 34.452513966476545,47.159413553919876 32.39106145250844,46.39406242770201 28.456703910662327,46.134388998747454 28.192737430217676,46.476064486822 28.16759776539402,47.51475406289683 27.627094972063787,47.829093170235865 22.523743016761728,45.5057044379937 19.657821229076944,43.8519804146199 17.747206703934353,43.086615489577525 11.5,42.17090682977869 14.340782122919336,42.48525509389583 17.407821229076944,42.97727738243702 18.350558659236412,43.40096218450344 18.790502793330234,43.37362771068001 23.62988826824585,45.997718625323614 27.715083798975684,47.80175935616717 28.02932960895123,47.6240894656803 28.2053072626004,46.831406319339294 28.02932960895123,47.692424059307086 27.51396648044465,47.76075862751168 23.24022346374113,45.88838225326617 18.790502793330234,43.4556311199558 18.33798882685369,43.44196388759883 17.181564245838672,42.96361011445697" stroke="#4DD2FF" stroke-linecap="round" stroke-linejoin="round" stroke-width="0.5"><title>2025-03-17 7.0km</title><desc>1742185263000</desc></polyline><polyline fill="none" points="42.976858345035,42.268802478691214 42.91374474053737,42.4335003005981 42.77489481068915,42.255077653579065 42.88849929877324,42.46094992324652 41.75245441793231,42.268802478691214 46.04417952318909,42.77662028992199 48.795932678855024,43.407959400414256 53.50420757365646,45.974467855572584 57.75806451612152,47.86844581870537 58.073632538551465,47.63513074438379 58.1746143057826,46.45482642829302 58.4270687236567,46.20778503306792 62.25175315566594,46.44110191502841 64.41023842908908,47.237121994417976 68.4621318373247,47.30574425404484 64.35974754556082,47.20967308344552 62.56732117809588,46.48227545173722 58.56591865356313,46.20778503306792 58.199859747546725,46.42737740071607 58.061009817698505,47.69002843549242 57.669705469859764,47.77237494153087 52.77208976156544,45.617629247921286 48.83380084147211,43.394234660154325 45.791725105198566,42.707996343189734 41.5,42.15900384896668 45.81697054696269,42.65309716742195 48.808555399707984,43.325610943487845 53.453716690069996,45.89212054594827 57.669705469859764,47.75865052641893 58.08625525946263,47.525335312995594 58.18723702663556,46.41365288539964 58.389200561039615,46.20778503306792 62.403225806425326,46.42737740071607 64.44810659188079,47.195948626394966 68.5,47.30574425404484 64.23352033662377,47.15477524916059 62.39060308551416,46.42737740071607 58.41444600280374,46.180335968674626 58.18723702663556,46.52344897927833 58.023141654965,47.67630401423958 57.75806451612152,47.74492611025926 53.23913043481298,45.85094687729725 48.859046283352654,43.407959400414256 47.331697054731194,42.95504243180039 41.5,42.13155418129463 45.43828892009333,42.68054675732856" stroke="yellow" stroke-linecap="round" stroke-linejoin="round" stroke-width="0.5"><title>2025-03-15 10.0km</title><desc>1742012101000</desc></polyline><polyline fill="none" points="73.204192180885,42.566268054404645 71.5,42.16524877489428 75.31535562878707,42.59392452449538 78.69830428640125,43.28533493747818 83.56924163916847,45.954154972787364 87.766132830875,47.793267689747154 88.08407913328847,47.39225970339612 88.14766839373624,46.28602628421504 88.41474328777986,46.13391867344035 92.52260951482458,46.45196171737916 94.48115873767529,47.22632511079428 98.5,47.253980886540376 94.60833725857083,47.253980886540376 92.4590202543186,46.47961760846374 88.47833254822763,46.23071444015659 88.18582195002818,46.5211014374072 87.99505416862667,47.71030059126497 87.6898257182911,47.83475122510572 83.28944889304694,45.94032698860974 81.48351389542222,44.77877263932896 78.7364578426932,43.40978853829438 78.44394724443555,43.46510122297332 77.32477626000764,42.967286467406666 75.6714554874925,42.88431721167581 71.89425341493916,42.23439009177673 73.90367404615972,42.46947037661448 76.53626943001291,42.88431721167581 77.59185115399305,42.981114673108095 79.05440414504847,43.47892939156736 83.23857748467708,45.78821909458202 86.69783325475873,47.253980886540376 87.42275082424749,47.73795629487722 87.94418276025681,47.71030059126497 88.21125765424222,46.797660060052294 88.03320772497682,47.68264488350542 87.6898257182911,47.76561199440039 83.35303815355292,45.91267101716949 78.74917569477111,43.35447583712812 78.1514366462361,43.3268194803677" stroke="#4DD2FF" stroke-linecap="round" stroke-linejoin="round" stroke-width="0.5"><title>2025-03-12 7.1km</title><desc>1741778255000</desc></polyline><polyline fill="none" points="103.57109448080882,42.439165039686486 107.24602432182292,42.8922950651322 108.38260056125,43.38661745861464 109.7843779232935,43.64750929840375 113.92656688491115,46.10536692352616 117.76566884940257,47.78053601975262 118.06875584658701,47.5608425794926 118.14452759589767,46.43490958800248 118.39710009354167,46.174021693863324 122.43826005619485,46.379985851512174 124.01683816657169,46.99787694346742 125.22918615530943,47.19010930520017 128.5,47.231301928070025 124.40832553792279,47.2450328002742 122.43826005619485,46.46237145010673 118.52338634239277,46.20148359486484 118.23292797006434,46.39371678714815 118.043498596875,47.643227650245535 117.61412535083946,47.75307435407012 112.76473339571385,45.63851380687265 108.78671655751532,43.37288629892282 108.45837231056066,43.482735547819175 107.27128157153493,42.96095103240805 101.5,42.178271489348845 106.77876520116115,42.837370272914995 108.55940130958334,43.38661745861464 108.78671655751532,43.30423048509692 113.45930776424939,45.830747586340294 117.72778297477635,47.76680518743524 118.06875584658701,47.46472661702137 118.15715622075368,46.33879303840513 118.4349859682261,46.174021693863324 122.33723105711397,46.33879303840513 124.5346117867739,47.10772403187002 128.5,47.231301928070025 124.4335827876348,47.203840180518455 122.34985968196997,46.35252397709701 118.42235734331189,46.09163596635335 118.19504209543811,46.46237145010673 118.1824134705821,47.46472661702137 117.7909260991728,47.82172851066571 115.85874649207108,46.81937528523849 113.0804490178125,45.775823669784586 108.8751169317402,43.4415420871519 108.55940130958334,43.49646669931826 107.46071094484068,42.98841341215302 104.02572497661458,42.713789430534234 101.5,42.23319647801691 103.39429373247549,42.384240112427506 104.2909260991728,42.54901484513539 107.67539756785845,43.00214460051211 109.46866230119485,43.81228290166473 108.95088868105086,43.4690043952869 107.51122544432292,43.05706934364571 105.03601496724878,42.768714259625995 103.45743685687194,42.85110147250816 101.57577174925245,42.23319647801691" stroke="yellow" stroke-linecap="round" stroke-linejoin="round" stroke-width="0.5"><title>2025-03-07 10.7km</title><desc>1741342581000</desc></polyline><polyline fill="none" points="133.58665105386171,42.421817670663586 137.64613583130995,42.944336540676886 138.30374707258306,43.32934949826449 138.84754098358098,43.343099946156144 142.3379391100607,45.06189786802861 143.96932084305445,46.14816989985411 147.73793911002576,47.81194125014008 148.01615925057558,47.55068889017275 148.33231850113953,46.189420610506204 150.02693208429264,46.39567402549437 152.60679156903643,46.340673137354315 153.9599531615968,46.91818164524739 155.24988290393958,47.13818441105832 158.5,47.12443424586672 157.80444964865455,47.26193585158035 154.41522248240653,47.151934575202176 152.4423887587618,46.436924680834636 148.433489461313,46.24442154371354 148.19320843089372,46.423174463401665 147.94028103043092,47.68819017834903 147.5355971896788,47.78444101911737 143.3749414519989,45.90066544232832 138.84754098358098,43.45310349261854 137.21615925052902,42.985587967414176 133.99133489461383,42.80683171830606 131.5,42.18805874985992 132.99227166268975,42.27056193219323" stroke="#4DD2FF" stroke-linecap="round" stroke-linejoin="round" stroke-width="0.5"><title>2025-03-05 4.7km</title><desc>1741177738000</desc></polyline><polyline fill="none" points="162.7319884726312,42.3632351905253 166.9726224783808,42.87085468955047 168.165706051921,43.20926693250658 172.9639769452624,45.83194129835465 176.4524495676742,47.28426684465376 177.243515850103,47.80597330094315 177.6325648415368,47.70727218975662 177.8270893371664,46.32545122914598 178.1123919308302,46.170348246683716 182.0028818443534,46.36775202046556 184.1426512968028,47.185565461433725 188.5,47.24196625816694 186.8530259365216,47.39706836245023 184.1167146973312,47.25606645469088 182.2233429394546,46.48055408448272 178.1253602305078,46.18444852308312 177.93083573482,46.36775202046556 177.7233429394546,47.74957267228456 177.4380403457908,47.86237391277973 172.2636887608096,45.66273759727483 168.1138328529778,43.293869898683624 167.8414985590498,43.39257331144472 166.596541786741,42.92725677207636 161.5,42.13762608722027" stroke="#4DD2FF" stroke-linecap="round" stroke-linejoin="round" stroke-width="0.5"><title>2025-03-03 4.6km</title><desc>1740978130000</desc></polyline><polyline fill="none" points="13.79518916393863,77.47017599784886 13.593414292437956,77.59358391602291 11.5,77.16851184946427 14.791452592238784,77.5113119797752 18.763895376003347,78.3614535475208 22.307566557719838,80.1165721034049 23.480382998648565,80.91185468871845 27.541102288698312,82.76293015736155 27.969873890746385,82.73550695292943 28.184259691741318,81.41918833577074 28.373423633805942,81.18608926619345 32.244978981791064,81.44661173633358 34.161840261600446,82.2144652926363 38.436945352645125,82.2693118526513 36.936244745447766,82.37900492364133 34.11139654368162,82.18704200648062 32.219757122860756,81.47403513277823 28.42386735166656,81.22722441756923 28.234703409601934,81.36434152242146 28.04553946753731,82.58467925559671 27.667211583349854,82.81777655395854 23.404717421799432,80.98041337142058 18.73867351707304,78.40258933024597 18.51167678658385,78.47114894763217 17.679355441359803,78.0872147612099 11.5,77.1822238669265 17.855908453988377,78.0460789080098 27.515880429709796,82.83148815053573 27.982484820182435,82.74921855563298 28.108594114892185,81.52888191344391 28.335590845439583,81.22722441756923 32.56025221856544,81.50145852513378 34.199673049966805,82.22817693416437 38.5,82.33787002970348 34.22489490895532,82.2144652926363 32.30803362914594,81.48774682948715 28.411256422288716,81.18608926619345 28.184259691741318,81.41918833577074 27.982484820182435,82.68066053185612 27.59154600655893,82.79035335767549 22.938113031326793,80.73360199425952 19.016113965422846,78.47114894763217 18.423400280240458,78.44372510374524 17.301027557230555,77.96380717403372 13.66907986922888,77.53873596260382 15.119336758565623,77.66214383480838 17.666744511923753,78.03236695489613 19.369219990621787,78.7865228587325 19.43227463803487,78.64940383336216 18.675618869718164,78.38887740368955" stroke="yellow" stroke-linecap="round" stroke-linejoin="round" stroke-width="0.5"><title>2025-02-28 10.0km</title><desc>1740736874000</desc></polyline><polyline fill="none" points="43.38723205967108,77.85911382646009 43.65144454798428,77.55815331508347 43.33690587140154,77.84543381391268 43.61369990679668,77.66759355810063 43.45013979502255,77.59919341384375 41.61323392362101,77.22983219455637 42.45619757688837,77.20247207469947 47.55172413791297,77.90015385797597 48.369524697132874,78.29687368964369 48.86020503262989,78.24215376380016 53.77958993479842,80.9097311674559 57.71761416591471,82.72913352608157 58.057315936661325,82.60601664190472 58.183131407306064,81.29276474106882 58.43476234859554,81.12860759305477 62.37278657971183,81.37484325999685 64.31034482759424,82.11354827968171 68.43709226470673,82.1956264317705 64.28518173348857,82.18194674229017 62.27213420323096,81.37484325999685 59.95712954335613,81.3885230096057 58.35927306616213,81.15596712793922 58.15796831314219,81.27908498430043 58.057315936661325,82.63337595661869 57.742777260020375,82.92064851519535 52.69757688726531,80.63613526859262 49.09925442683743,78.52943319243786 47.06104380241595,77.96855389008124 45.450605778198224,77.91383386641974 41.51258154702373,77.18879201321397 47.61463187326444,77.98223389346094 48.28145386767574,78.37895354778448 48.86020503262989,78.37895354778448 53.79217148182215,80.99180985763087 57.79310344828991,82.78385211476416 58.069897483685054,82.55129800019495 58.24603914259933,81.15596712793922 62.25955265609082,81.3474837577669 63.89515377447242,81.99043098276888 65.10298229265027,82.18194674229017 68.5,82.18194674229017 64.3732525628875,82.1956264317705 62.27213420323096,81.48428122820042 59.96971109043807,81.47060148573655 58.2712022367632,81.18332665869093 58.08247903076699,82.48289967517485 57.705032618832774,82.83857068720681 53.18825722276233,80.8686918086023 48.759552656149026,78.39263352057606 42.82106244174065,77.43503296367999 41.5,77.07935148480465 43.475302889128216,77.3803127810097 44.33084808947751,77.55815331508347 46.64585274935234,77.76335371725145 49.363466915208846,78.74831245538371 48.82246039144229,78.37895354778448 48.55824790307088,78.44735340155603 47.35041938489303,77.96855389008124 44.481826654286124,77.76335371725145 42.53168685926357,77.27087236673106" stroke="yellow" stroke-linecap="round" stroke-linejoin="round" stroke-width="0.5"><title>2025-02-26 11.1km</title><desc>1740566027000</desc></polyline><polyline fill="none" points="73.80457089556148,77.50110373839561 71.55037313437788,77.22724762067082 72.55783582094591,77.21355480408238 77.65811567165656,77.91188714974851 78.37593283591559,78.30897690798156 78.804104477691,78.29528417198162 82.35541044780985,80.04794608819066 83.11100746272132,80.70518999772321 86.8260261194082,82.21136509267671 87.6697761194664,82.7864468729822 88.08535447763279,82.53998347315064 88.19869402988115,81.28027649060823 88.40018656721804,81.11596624768572 89.97434701496968,81.36243155699049 92.2411380597623,81.3761240645108 93.95382462686393,82.0470556821092 95.18796641792869,82.22505753691075 98.4244402985205,82.18398020112363 95.15018656715984,82.18398020112363 94.04197761195246,82.03336322457471 92.40485074633034,81.41720158084354 88.50093283585738,81.15704382221156 88.22388059704099,81.33504653896671 87.99720149260247,82.70429244310071 87.63199626869755,82.80013927438995 85.89412313431967,81.85536118410528 83.27472014928935,80.82842296913441 78.85447761195246,78.36374784176587 78.43889925378608,78.40482603141572 77.39365671644919,77.91188714974851 75.9958022388746,77.92557991432841 71.5,77.15878352751315 77.41884328360902,77.92557991432841 78.37593283591559,78.37744057270174 78.85447761195246,78.30897690798156 82.58208955224836,80.4039534975891 86.8260261194082,82.25244242236658 87.75792910449672,82.84121647248685 88.12313432840165,82.4441365061939 88.18610074633034,81.32135402840504 88.34981343289837,81.11596624768572 90.25139925378608,81.36243155699049 92.15298507467378,81.32135402840504 93.9286380597623,81.9922858459322 95.25093283585738,82.17028775379003 98.5,82.18398020112363 94.62126865674509,82.18398020112363 92.44263059704099,81.40350907643733 91.17070895520737,81.44458658664371 88.41277985076886,81.10227372084046 88.18610074633034,81.36243155699049 88.09794776124181,82.52629105238884 87.97201492538443,82.7727544705267 87.69496268656803,82.81383167476451 82.6828358208877,80.48610895569436 78.91744402988115,78.39113330256077 78.47667910455493,78.40482603141572 77.49440298508853,77.99404372186109 75.89505597023526,77.91188714974851 71.6385261194664,77.22724762067082 74.63572761201067,77.59695328319503 75.27798507467378,77.63803164420824 77.40625000005821,77.98035096240346 79.66044776124181,78.74714392134047 82.46875,80.19856469171646 78.94263059704099,78.40482603141572 75.27798507467378,77.69280277795042" stroke="yellow" stroke-linecap="round" stroke-linejoin="round" stroke-width="0.5"><title>2025-02-21 11.3km</title><desc>1740135343000</desc></polyline><polyline fill="none" points="103.71229050279362,77.60142751570675 101.57541899441276,77.17774091429601 104.64245810057037,77.51942373375641 107.5335195530788,77.99777861175244 108.33798882679548,78.40779608575394 109.12988826812943,78.44879778275208 112.66201117320452,80.4715367898898 116.74720670387615,82.24824859993532 117.66480446927017,82.80859260172292 118.07960893848212,82.50792042328976 118.21787709492492,81.29155976347101 118.3938547486323,81.15488952242595 120.14106145250844,81.38722887160839 122.40363128489116,81.40089588295086 123.84916201111628,82.0159103411861 125.08100558654405,82.22091470241139 128.43715083791176,82.2072477521433 127.43156424578046,82.34391720921849 124.42737430159468,82.17991384849302 122.3282122904784,81.46923092457291 118.45670391060412,81.19589060542057 118.19273743010126,81.41456289331836 118.00418994412757,82.64458965638187 117.61452513962286,82.79492569521244 112.8505586591782,80.66287581156939 108.86592178768478,78.4351305514574 108.28770949720638,78.40779608575394 107.34497206704691,77.99777861175244 105.7611731843208,77.90210773595027 101.5,77.16407358829747 107.40782122901874,77.95677681393863 108.76536312850658,78.3394599037565 112.07122905022698,79.97952124632138 113.17737430165289,80.73121112809167 117.80307262565475,82.74025805899873 118.05446927371668,82.52158735120611 118.14245810051216,81.37356185920362 118.31843575416133,81.15488952242595 122.2779329608311,81.38722887160839 123.86173184355721,82.0159103411861 125.13128491613315,82.22091470241139 128.5,82.24824859993532 127.10474860330578,82.35758414931479 124.43994413403561,82.19358080084203 122.40363128489116,81.46923092457291 118.41899441339774,81.18222357875493 118.15502793289488,81.44189691099746 118.09217877092306,82.49425349438388 117.84078212286113,82.83592641170253 113.64245810051216,81.01821917953203 108.8784916200675,78.40779608575394 108.45111731841462,78.4351305514574 107.42039106145967,78.0114458756434 104.11452513962286,77.58776022125676 105.19553072628332,77.71076583463582 107.34497206704691,77.95677681393863 109.46927374304505,78.76314382191049 108.91620111727389,78.40779608575394 108.23743016755907,78.39412885138881 107.01815642457223,77.94310954595858 105.92458100558724,77.929442276989 102.11592178774299,77.21874288625258" stroke="yellow" stroke-linecap="round" stroke-linejoin="round" stroke-width="0.5"><title>2025-02-19 10.6km</title><desc>1739962218000</desc></polyline><polyline fill="none" points="133.45926966291154,77.37491943289933 131.5,77.18250210399856 134.82443820225308,77.53984841221245 137.47893258422846,78.00714638616773 138.21207865170436,78.37823511040187 138.74297752807615,78.35074708233878 143.38202247186564,80.90711616864428 147.83146067417692,82.81749789598689 148.0463483146159,82.54262404567271 148.18539325840538,81.34691803138412 148.40028089884436,81.19573625936755 152.4073033707682,81.4431245490996 154.21488764043897,82.18528742805938 158.5,82.26774978585308 154.44241573027102,82.21277488474152 152.35674157302128,81.45686833326181 148.65308988763718,81.19573625936755 148.4382022471982,81.4293807639333 148.21067415724974,81.37440561302355 148.0463483146159,82.6250862437737 147.6544943820336,82.77626684453571 142.53511235956103,80.50854482490104 138.7682584269205,78.40572313434677 137.33988764043897,77.97965830280737 132.47331460670102,77.29245488793822" stroke="#4DD2FF" stroke-linecap="round" stroke-linejoin="round" stroke-width="0.5"><title>2025-02-18 4.9km</title><desc>1739836925000</desc></polyline><polyline fill="none" points="164.4196050775936,77.39141602956806 164.38152327219723,77.72266962128924 165.77785613544984,77.6812629547203 167.6311706629349,77.99871382860874 170.05571227084147,79.29611609308631 171.36318758811103,79.72398080500716 172.5818053596886,80.60731127781037 176.68194640334696,82.29114832519554 177.6212976022507,82.85702455299906 177.9640338505269,82.59478944282455 178.05289139633533,81.36642003789893 178.25599435827462,81.18699461169308 182.25458392099245,81.50443947828899 184.1078984485357,82.23594079579925 188.5,82.31875208373822 184.2475317348144,82.15312947086932 182.27997179125668,81.42162782640662 178.35754583921516,81.17319264860998 178.12905500701163,81.42162782640662 178.06558533146745,82.51197827825672 177.86248236958636,82.80181719218672 173.20380818052217,80.85574721441662 169.4464033850236,78.73022898859926 167.52961918193614,77.95730722373992 161.5,77.14297544701549 167.5677009872743,77.9711094263912 169.319464033877,78.75783327773388 167.5677009872743,77.9711094263912" stroke="#4DD2FF" stroke-linecap="round" stroke-linejoin="round" stroke-width="0.5"><title>2025-02-14 5.4km</title><desc>1739506837000</desc></polyline><polyline fill="none" points="14.450957496475894,112.57987319130916 16.720924801484216,112.85411259061948 18.763895376061555,113.36145440200926 23.808267164917197,116.06268320267554 27.67982251284411,117.83148667388014 27.995095749676693,117.77664030999586 28.48692199907964,116.5425928015029 28.852638953831047,116.25464719238516 32.434142923913896,116.46032267346163 34.45189163944451,117.26931066915859 38.5,117.31044555701374 34.36361513310112,117.26931066915859 32.39631013548933,116.48774605354993 28.915693601127714,116.30949400977988 28.57519850542303,116.47403436400054 27.8815973844612,117.83148667388014 23.54343764600344,116.07639492284216 18.801728164427914,113.4163020816195 17.654133582429495,113.04607992697856 11.5,112.16851332611986 17.47758056985913,112.96380823590152 18.86478281178279,113.4163020816195 23.568659504991956,115.98041286005173 27.641989724477753,117.80406349399709 28.020317608607,117.70808233214484 28.537365716998465,116.50145774206612 28.94091546011623,116.30949400977988 32.446753853408154,116.50145774206612 34.36361513310112,117.22817577212118 38.5,117.29673392875702 36.77230266231345,117.39271530508995 34.35100420366507,117.20075250235095 32.37108827655902,116.48774605354993 28.903082671633456,116.24093548544624 28.57519850542303,116.46032267346163 28.007706679112744,117.74921712193463 27.80593180761207,117.79035190248396 23.31644091551425,115.89814248066978 19.243110695970245,113.62198073463514 17.956795889826026,113.08721575871459 11.525221858988516,112.19593734575028 14.728397944883909,112.4701773171837 17.654133582429495,112.96380823590152 19.40705277910456,113.86879481481446 18.751284446567297,113.40259016325581 18.587342363374773,113.48486165815848 17.464969640423078,112.99123213702114" stroke="yellow" stroke-linecap="round" stroke-linejoin="round" stroke-width="0.5"><title>2025-02-12 10.1km</title><desc>1739334019000</desc></polyline><polyline fill="none" points="63.208154506457504,116.88294611990568 64.34120171674294,117.27492785625509 68.5,117.30292652043863 64.48283261799952,117.33092518041667 62.55150214594323,116.4629647807451 58.76609442062909,116.21097552671563 57.942060085828416,117.79290246810706 57.697424892685376,117.83490034703573 52.65021459222771,115.62299928659922 51.29828326177085,114.75503099813068 47.718884120171424,113.07508098578546 41.5,112.09510320893605 47.48712446348509,112.92108481645118 49.48283261799952,113.691064400904 52.019313304685056,114.92302517332428 53.29399141634349,115.81899157105363 57.607296137313824,117.76490387695958 57.95493562234333,117.63891016508569 58.48283261799952,116.37896840029862 58.8047210299992,116.19697611383162 61.12231759657152,116.44896538663306 62.281115879828576,116.37896840029862 64.35407725319965,117.23292985217995 68.3326180257136,117.28892718885618 62.886266094399616,116.89694548169791 62.95064377685776,117.28892718885618 62.83476394851459,116.82694866225938 62.37124463520013,116.6169580474234 58.8047210299992,116.25297375918308 58.547210300457664,116.39296779962024 57.83905579400016,117.90489679106395 52.984978540742304,115.81899157105363 52.096566523599904,115.1050186936045 50.46137339057168,114.32104535045801" stroke="#4DD2FF" stroke-linecap="round" stroke-linejoin="round" stroke-width="0.5"><title>2025-02-10 6.3km</title><desc>1739162078000</desc></polyline><polyline fill="none" points="71.69296316656983,113.91114641839522 73.32572842220543,113.95954015541065 80.68801539303968,115.04033080600493 82.94420010992326,114.94354380277218 83.13716327649308,115.68557639195933 83.98323254531715,115.73396973362833 84.97773501917254,116.10498499500682 85.66052776243305,115.12098660909396 91.74628916976508,115.0080684764107 92.0728422209504,115.5726585527882 92.45876855409006,115.6694452756783 92.71110500267241,115.52426517516142 92.96344145131297,114.84675675648032 94.12122045073193,114.76610085157154 98.5,115.31456041423371 94.38840021984652,114.74996966698382 92.91891148983268,114.83062557787343 92.63688840012765,115.52426517516142 92.38455195154529,115.65331415816036 91.74628916976508,114.99193730978004 85.73474436497781,115.08872429144685 85.30428807029966,115.37908497764147 85.00742166023701,116.12111607895349 83.21137987897964,115.70170750709076 83.21137987897964,115.07259313082614 83.01841671246802,114.91128145880066 80.836448598071,115.02419964180444 73.93430456286296,114.00793388161401 71.5,113.89501517031749 73.60775151179405,113.97567139865714 80.36146234191256,114.99193730978004 82.91451346885879,114.91128145880066 83.12231995596085,115.6694452756783 84.99257833970478,116.10498499500682 85.43787795485696,115.26616697912687 85.82380428799661,115.08872429144685 91.68691588781076,114.99193730978004 92.10252886195667,115.58878967624332 92.39939527207753,115.65331415816036 92.71110500267241,115.45974065490009 92.82985156675568,114.9274126313976 93.2009345794213,114.782232034966 98.1882902692887,115.26616697912687 94.59620670694858,114.74996966698382 93.14156129735056,114.74996966698382 92.74079164373688,114.95967497299716 92.48845519515453,115.65331415816036 92.19158878503367,115.58878967624332 91.73144584929105,114.95967497299716 85.67537108296528,115.07259313082614 85.31913139077369,115.3468226983241 85.02226498071104,116.10498499500682 83.19653655850561,115.68557639195933 83.01841671246802,114.84675675648032 80.59895547002088,114.94354380277218 73.14760857610963,113.87888392106106 71.84139637160115,113.92727766525059 73.1772952171159,113.91114641839522 81.26690489274915,115.05646196904127 82.98873007140355,114.91128145880066 83.15200659696711,115.68557639195933 84.30978559644427,115.83075638464652 83.21137987897964,115.6694452756783 82.91451346885879,114.86288793385029 80.67317207250744,114.95967497299716 73.83040131937014,113.95954015541065 72.00467289716471,113.92727766525059 73.96399120398564,114.00793388161401" stroke="#4DD2FF" stroke-linecap="round" stroke-linejoin="round" stroke-width="0.5"><title>2025-01-25 9.9km</title><desc>1737761473000</desc></polyline><polyline fill="none" points="101.85999999998603,113.67958222994639 110.66499999997905,114.95109960414993 113.21500000002561,114.83698937139707 113.20000000001164,115.8802807196771 114.19000000006054,115.92918487996212 115.0449999999837,116.32041777003906 115.76500000001397,115.26082707967726 121.89999999996508,115.11411411940935 122.47000000003027,115.83137654850725 122.84499999997206,115.71726677336846 122.95000000001164,115.11411411940935 123.19000000000233,114.9347981459432 128.5,115.4401427868288 124.36000000004424,114.88589376410528 123.05499999999302,115.00000397142139 122.65000000002328,115.81507515568228 122.32000000000698,115.71726677336846 122.18500000005588,115.22822420809825 121.89999999996508,115.09781267333892 115.7949999999837,115.21192277049704 115.49499999999534,115.37493709207047 115.13500000000931,116.28781505582447 113.30499999993481,115.84767794008076 113.1699999999837,115.03260687693546 111.08499999996275,115.17931989162753 102.9100000000326,113.98931149968121 101.5,114.00561302807182 103.3300000000163,114.05451760602591 110.61999999999534,115.14671700797044 112.96000000002095,115.01630542478233 113.15500000002794,115.19562133168802 113.15500000002794,115.76617096997506 115.0449999999837,116.28781505582447 115.75,115.22822420809825 121.88500000000931,115.09781267333892 122.26000000000931,115.71726677336846 122.60500000003958,115.81507515568228 123.25000000005821,114.91849668655777 127.59999999997672,115.26082707967726 123.36999999999534,114.86959230109642 122.95000000001164,115.00000397142139 122.875,115.63575975484855 122.60500000003958,115.78247236640891 121.88500000000931,115.04890832783713 115.82500000001164,115.21192277049704 115.43500000005588,115.45644420747703 115.09000000002561,116.25521233676409 113.29000000003725,115.81507515568228 113.06500000000233,114.9837025168963 111.07000000006519,115.16301845037378 103.05999999999767,113.97300997006823 101.8300000000163,114.02191455524007 103.21000000002095,113.98931149968121 105.13000000000466,114.2990403323638" stroke="#4DD2FF" stroke-linecap="round" stroke-linejoin="round" stroke-width="0.5"><title>2025-01-19 8.1km</title><desc>1737283232000</desc></polyline><polyline fill="none" points="135.0688930406468,112.54559556867753 137.32624941616086,112.86097072510165 138.28468005603645,113.35460031981347 138.99089210649254,113.36831223411718 142.3453993460862,115.12342882853409 142.76156001875643,115.50735835250816 146.86011209717253,117.26245454901073 147.78070994862355,117.83834184188163 148.03292853810126,117.68751439168409 148.57519850536482,116.41233191877836 148.92830453056376,116.20665649898001 152.24497898179106,116.37119685320067 154.36361513315933,117.1253382613213 158.5,117.23503129964229 154.27533862675773,117.1253382613213 152.35847734700656,116.34377347106056 148.9787482485408,116.17923309230537 148.58780943485908,116.33006177845527 148.0203176085488,117.68751439168409 147.84376459597843,117.76978392529418 143.29121905652573,115.8638636218966 138.83956095285248,113.3957360596105 138.48645492759533,113.42315988104383 137.4271368519403,112.95695436111419 134.52662307338323,112.68271526831086 131.5,112.10681184323039 137.61630079406314,112.99809018976521 138.90261560020735,113.3820241473586 143.51821578701492,115.90499880086281 146.84750116767827,117.27616617218882 147.66721158334985,117.86576500133378 148.00770667917095,117.75607233893243 148.56258757587057,116.49460202235787 148.9787482485408,116.27521499778959 152.44675385334995,116.43975529070303 154.4014479215257,117.15276152703154 158.5,117.26245454901073 154.37622606259538,117.23503129964229 152.30803362914594,116.45346697515924 148.96613731898833,116.27521499778959 148.6130312937894,116.43975529070303 148.0203176085488,117.79720709499088 147.56632414762862,117.81091867831128 142.53456328820903,115.50735835250816 138.95305931806797,113.46429560551769 138.4990658570896,113.49171941670647 137.5154133582837,113.02551407046849 131.55044371786062,112.14794786194398 137.75502101820894,113.01180213062617 138.44862213917077,113.4094479708292 138.85217188228853,113.36831223411718 143.50560485757887,115.91871052514762 147.85637552547269,117.89318815675506 148.66347501165,116.38490854275005 150.0128444652073,116.38490854275005 148.82741709484253,116.37119685320067 148.0203176085488,117.82463026058394 147.64198972447775,117.76978392529418 142.49673049978446,115.50735835250816 138.9152265296434,113.45058369837352 138.54950957500841,113.47800751162868 137.540635217214,113.01180213062617 134.71578701538965,112.68271526831086" stroke="yellow" stroke-linecap="round" stroke-linejoin="round" stroke-width="0.5"><title>2025-01-17 12.3km</title><desc>1737088953000</desc></polyline><polyline fill="none" points="164.23033707862487,112.42302440077765 164.4073033707682,112.12065426741901 165.17837078648154,112.62918557113153 168.76825842697872,113.34387584461365 170.79073033703025,114.38841818661604 171.57443820219487,115.00689441713621 177.76825842697872,117.86560205288697 178.00842696626205,117.70067781642138 178.53932584263384,116.44999755834579 178.86797752801795,116.23009685630677 182.3946629212587,116.44999755834579 184.3286516853259,117.1646730297216 188.4873595504905,117.23339167913946 184.41713483142667,117.1646730297216 182.24297752807615,116.44999755834579 178.96910112357,116.28507205640199 178.58988764043897,116.42250998494274 177.99578651681077,117.79688363893365 177.83146067411872,117.85185837215977 173.2176966291736,115.87275765649974 168.80617977521615,113.38510789129941 167.35252808989026,113.01401913940208 161.5,112.18937479579472 167.23876404494513,112.95904296450317 168.4396067415364,113.38510789129941 168.7808988763718,113.34387584461365 173.72331460670102,116.06517115778115 176.73174157296307,117.24713540593802 177.62921348313102,117.8243710076058 177.9705056179664,117.74190888936573 178.5140449437895,116.4362537721463 178.8932584269205,116.24384065787308 182.26825842697872,116.44999755834579 184.30337078642333,117.15092929675302 188.5,117.20590422245732 184.36657303367974,117.15092929675302 182.38202247186564,116.50497269288462 178.98174157302128,116.2575844584353 178.58988764043897,116.44999755834579 177.86938202247256,117.87934573259554 173.41994382016128,115.96896443222067 168.84410112357,113.45382794861507 168.22471910109743,113.42633992875926 167.55477528087795,113.04150722068152 163.06741573038744,112.39553622729727" stroke="#4DD2FF" stroke-linecap="round" stroke-linejoin="round" stroke-width="0.5"><title>2025-01-15 9.1km</title><desc>1736916504000</desc></polyline><polyline fill="none" points="13.853846153826453,147.0163992854359 14.030069930071477,147.31750124892278 14.64685314684175,147.6870348022203 17.73076923075132,148.193431427193 19.40489510493353,148.74088566757564 21.393706293660216,150.0410829497123 27.674825174792204,152.91517060415936 27.951748251740355,152.84674046823056 28.48041958041722,151.61499366331554 28.908391608390957,151.38232945061463 32.38251748250332,151.6013075413066 34.2832167831948,152.3540427372791 38.5,152.44984517733974 34.23286713287234,152.3951009320008 32.34475524473237,151.64236590423388 28.89580419572303,151.38232945061463 28.48041958041722,151.61499366331554 27.88881118874997,152.92885662827757 27.49860139854718,152.92885662827757 23.3699300698936,151.09492031051195 18.80069930071477,148.54927686903102 18.536363636376336,148.6313949500327 16.937762237736024,148.1249995324033 11.5,147.35856056932244 16.05664335662732,147.9060172978352 18.77552447555354,148.50821781477134 22.841258741216734,150.75276598599157 27.7503496503341,152.9836007145641 28.039860139833763,152.81936840673734 28.631468531501014,151.4370739977603 29.91538461536402,151.4644462652068 28.669230769213755,151.49181852857873 27.851048951037228,152.96991469453496 23.055244755232707,151.012803330741 18.876223776198458,148.57664956674853 17.40349650348071,148.152372293378 13.438461538462434,147.60491629906755" stroke="#4DD2FF" stroke-linecap="round" stroke-linejoin="round" stroke-width="0.5"><title>2025-01-14 7.8km</title><desc>1736829619000</desc></polyline><polyline fill="none" points="45.19209302327363,147.72654975694604 44.978604651172645,147.4261489259079 45.48093023255933,147.4807672954339 49.70046511630062,148.83256675465964 52.29999999998836,150.11608428576437 53.455348837247584,150.92169176170137 57.637209302338306,152.83328855168656 57.91348837205442,152.75136338391167 58.478604651172645,151.46786430753127 58.84279069764307,151.24939548449765 62.24604651163099,151.46786430753127 63.87860465119593,152.13692345813615 65.04651162790833,152.28712007463037 68.5,152.28712007463037 64.11720930231968,152.17788618394115 62.258604651200585,151.46786430753127 58.880465116293635,151.23574117440148 58.516279069765005,151.3859385294054 57.92604651162401,152.75136338391167 57.57441860466497,152.76501758108498 53.367441860435065,150.94900042764493 49.524651162850205,148.84622124377347 47.590697674429975,148.0406046447606 41.5,147.18036606154055 47.666046511614695,148.06791374000022 49.524651162850205,148.7642942937382 52.890232558129355,150.66225923228194 57.599534883745946,152.79232597236114 57.90093023260124,152.71040078626538 58.40325581392972,151.48151860031066 58.767441860516556,151.24939548449765 62.35906976746628,151.48151860031066 64.24279069766635,152.19154042382434 68.37441860465333,152.30077430640813 64.15488372097025,152.15057770107524 62.27116279071197,151.44055571890203 58.754883720946964,151.23574117440148 58.45348837209167,151.4132471261546 57.86325581400888,152.79232597236114 57.38604651164496,152.75136338391167 56.745581395342015,152.3144285371527 53.19162790698465,150.89438309169782 48.72093023255002,148.36831351909495 47.37720930232899,147.99964099425415 41.55023255816195,147.16671144829888 48.74604651163099,148.35465899437258 53.216744186065625,150.8124570572254 56.78325581399258,152.28712007463037 57.61209302331554,152.81963435962098 57.90093023260124,152.73770918569062 58.45348837209167,151.39959282831114 58.805116279108915,151.23574117440148 62.18325581395766,151.4132471261546 63.92883720929967,152.10961496920208 64.9837209302932,152.218848900593 63.87860465119593,152.10961496920208 62.1455813953653,151.4132471261546 58.830232558131684,151.19477823805937 58.478604651172645,151.3586299285671 57.91348837205442,152.68309238275106 57.46139534882968,152.69674658500298 56.29348837211728,152.05499797906668 53.216744186065625,150.86707441759063 48.708372092980426,148.36831351909495 46.975348837208,147.93136822307133" stroke="yellow" stroke-linecap="round" stroke-linejoin="round" stroke-width="0.5"><title>2025-01-10 13.0km</title><desc>1736482744000</desc></polyline><polyline fill="none" points="74.08644859812921,146.96141392319987 75.3228971962817,147.798237346753 77.46775700937724,148.20978845492937 79.57476635515923,149.01916961750248 81.85841121495469,150.37727577805344 87.76308411220089,153.03858607680013 88.04065420560073,152.81909802286827 88.15420560748316,151.61190904994146 88.31822429905878,151.4061374128505 92.29252336453646,151.66678144766774 94.37429906544276,152.43499329901533 98.43691588786896,152.5310195550701 94.19766355142929,152.39383917392115 92.29252336453646,151.68049954454182 88.39392523368588,151.39241929554555 88.14158878510352,151.68049954454182 88.04065420560073,152.87397006087122 87.76308411220089,153.03858607680013 83.24626168224495,151.1180567345873 78.8051401869161,148.6350569669885 77.41728971962584,148.20978845492937 71.5,147.38668531864823 77.74532710283529,148.23722516276757 78.36355140188243,148.58018366577744 78.79252336447826,148.58018366577744 83.32196261687204,151.06318417331204 87.57383177569136,152.98371408780804 88.00280373834539,152.87397006087122 88.12897196266567,151.62562715091917 88.35607476637233,151.41985552910774 92.29252336453646,151.68049954454182 94.47523364488734,152.43499329901533 98.5,152.4898654514691 94.13457943929825,152.38012113017612 92.27990654204041,151.62562715091917 88.40654205612373,151.41985552910774 88.19205607479671,151.55703663584427 88.17943925235886,152.5310195550701 87.85140186920762,153.02486808106187 83.15794392529642,151.07690231518063 78.8303738317918,148.6213386432355 77.32897196261911,148.20978845492937 71.5,147.34553006525675 75.91588785045315,147.9079843988875 78.74205607484328,148.5527470090601 82.89299065427622,150.87113008019514 87.59906542062527,152.98371408780804 87.9523364486522,152.8876880677999 88.22990654211026,152.20178646860586 87.9523364486522,152.95627808723657 87.3971962617361,152.87397006087122 83.23364485986531,151.09062045598694 78.8051401869161,148.53902867915167 78.5149532710202,148.60762031842023 77.54345794394612,148.14119666744955 75.94112149538705,147.9628579003911" stroke="yellow" stroke-linecap="round" stroke-linejoin="round" stroke-width="0.5"><title>2025-01-08 12.0km</title><desc>1736310892000</desc></polyline><polyline fill="none" points="104.3779803646612,148.33933692522987 104.75666199158877,147.73544648638926 104.80715287517523,147.14527891749458 105.04698457225459,146.93940606489195 105.32468443200924,146.99430551474507 105.19845722295577,147.09037951262144 106.42286115005845,147.55702393241518 107.05399719497655,148.07856629676826 109.64165497897193,148.98439952534682 113.9333800841705,151.3038612754026 117.79593267879682,153.0194207050954 118.04838709672913,152.77238113178464 118.08625525946263,151.63324992507114 118.43969144462608,151.39993302573566 122.3022440392524,151.67442346489406 124.32187938288553,152.44299451877305 128.5,152.52534122725774 124.2966339411214,152.4155456078006 122.35273492283886,151.701872486301 118.38920056103962,151.44110661765444 118.12412342213793,151.71559699546196 118.08625525946263,152.77238113178464 117.87166900420561,153.06059393510805 113.13814866764005,151.04309484337864 108.80855539970798,148.61383192476933 108.32889200560749,148.61383192476933 107.44530154281529,148.1883645011112 101.5,147.43350052455207 107.6220196353388,148.3118874027423" stroke="#4DD2FF" stroke-linecap="round" stroke-linejoin="round" stroke-width="0.5"><title>2025-01-06 5.2km</title><desc>1736137119000</desc></polyline><polyline fill="none" points="134.99485981307225,147.928562635876 135.0579439252033,147.4072630507144 135.47429906547768,146.78993268574413 135.77710280369502,147.8599706695386 135.3481308410992,148.14805675648677 136.142990654218,148.10690162880928 138.76728971960256,148.73794590907346 142.32523364486406,150.41157461293915 142.9939252336626,151.00145651404455 147.78831775696017,153.12775931242504 148.07850467285607,152.94942518226162 148.12897196260747,151.79710817785235 148.36869158875197,151.5776184071001 152.51962616824312,151.86569867758953 154.51308411208447,152.62019248823344 158.5,152.68878268137632 154.34906542056706,152.59275640384294 152.380841121485,151.82454438084096 148.41915887850337,151.5776184071001 148.17943925235886,151.78339007488103 148.09112149535213,152.94942518226162 147.83878504676977,153.196349316524 143.3093457944342,151.33069210224494 139.60000000003492,149.2318051415641 137.73271028039744,148.47729744679236 131.5,147.5032920325757 135.73925233643968,148.02459134583478 138.74205607478507,148.69679091326543 142.55233644862892,150.80940214906877 146.955607476586,152.72993678499188 147.6369158878806,153.21006731427042 148.06588785047643,152.90827112768602 148.17943925235886,151.7147995444975 148.35607476631412,151.53646404594474 151.15700934577035,151.86569867758953 152.380841121485,151.79710817785235 154.4121495326981,152.5790383600979 158.48738317756215,152.6476285685494 154.071495327109,152.51044812609325 152.3051401869161,151.82454438084096 148.4570093458169,151.53646404594474 148.17943925235886,151.74223575972428 148.1415887849871,152.86711706395727 147.86401869158726,153.1414773153083 143.37242990656523,151.3169739645091 139.62523364485241,149.1494953614456 138.07336448598653,148.55960752739338 131.66401869157562,147.57188413178665" stroke="#4DD2FF" stroke-linecap="round" stroke-linejoin="round" stroke-width="0.5"><title>2025-01-03 9.5km</title><desc>1735878536000</desc></polyline><polyline fill="none" points="164.193676815019,147.38056400204368 165.7744730679551,147.8205805155012 167.582903981267,147.98558643754222 168.4555035129306,148.42560150848294 168.78430913347984,148.38435014015704 172.54028103046585,150.46065756570897 177.58618266979465,152.78444413695252 177.96557377051795,152.71569347495097 178.48407494142884,151.46442695207952 178.86346604221035,151.244423170152 182.25269320845837,151.45067672338337 184.26346604217542,152.2069377801672 188.5,152.33068929443834 184.57962529273937,152.22068795251835 182.40444964868948,151.51942785659048 178.88875878223917,151.31317438014958 178.48407494142884,151.53317808016436 177.81381733022863,152.83944464811066 172.90702576114563,150.77691426275123 168.77166276349453,148.46685286761203 168.44285714288708,148.49435376854672 167.4311475410359,148.01308741021785 166.00210772833088,147.94433497085993 161.5,147.1605553519039 167.53231850120937,147.9993369243748 169.31545667449245,148.83811468470958 167.64613583142636,148.04058837877528 163.940749414498,147.47681770399504" stroke="#4DD2FF" stroke-linecap="round" stroke-linejoin="round" stroke-width="0.5"><title>2025-01-02 5.6km</title><desc>1735817809000</desc></polyline><polyline fill="none" points="14.616355140169617,182.48957241272728 17.61915887851501,182.9834340737143 18.502336448582355,183.44985775944951 19.347663551394362,183.60075928716105 23.940186915919185,186.12491196051997 27.813551401835866,187.7985158522206 28.141588784987107,187.45556547415617 28.507476635510102,186.5364553113759 28.949065420543775,186.31696563870355 32.19158878503367,186.42671050774516 34.563551401894074,187.29094906584942 38.5,187.318385144099 36.96074766351376,187.4144113858638 34.33644859812921,187.24979494075524 32.36822429904714,186.48158291775326 28.96168224303983,186.28952941122407 28.57056074764114,186.44042861179332 27.990186915907543,187.74364383463399 27.775700934638735,187.83966985462757 21.59345794393448,185.12348596453376 18.75467289716471,183.44985775944951 18.35093457950279,183.4772944100696 17.480373831815086,183.03830750983616 11.5,182.1466121465637 17.026168224285357,182.9148422555736 18.451869158889167,183.4224211047549 18.75467289716471,183.34011111616564 22.804672897211276,185.61734056101704 27.775700934638735,187.8533878534363 28.608411214954685,186.39927429663658 28.949065420543775,186.26209317967005 29.907943925180007,186.38555618951796 28.583177570078988,186.3718380814098 27.990186915907543,187.71620781972888 27.76308411214268,187.78479784933734 23.183177570113912,185.8505492155964 18.943925233616028,183.49101273382257 18.37616822432028,183.44985775944951 17.366822429932654,182.99715243428363 16.281775700917933,183.03830750983616 11.878504672902636,182.1877674122661 14.654205607483163,182.70906664781796" stroke="#4DD2FF" stroke-linecap="round" stroke-linejoin="round" stroke-width="0.5"><title>2024-12-31 8.0km</title><desc>1735619151000</desc></polyline><polyline fill="none" points="45.259813084150665,182.68163005549286 46.18084112153156,182.70906681849738 48.81775700941216,183.32639290584484 50.3570093458402,184.14949113606417 50.79859813087387,184.60219359426992 57.86401869158726,187.79851564374985 58.5327102803858,186.49530090630287 58.911214953288436,186.28952931518143 62.4060747664189,186.48158280736243 64.14719626167789,187.1812045493425 68.48738317762036,187.2909488951409 64.31121495331172,187.24979477316083 62.3808411215432,186.49530090630287 58.92383177578449,186.28952931518143 58.5579439252615,186.45414660645474 57.80093457951443,187.8533876408619 53.53644859814085,186.02888496963715 49.67570093460381,183.9025620533357 47.42990654206369,183.01087094201648 41.5,182.14661235915264 46.26915887853829,182.7639403322828 48.779906542098615,183.34011123984237 53.53644859814085,185.91913987169391 57.687383177632,187.83966964311549 58.00280373834539,187.7162076173845 58.5327102803858,186.48158280736243 58.96168224303983,186.2483749693638 62.33037383185001,186.45414660645474 64.37429906544276,187.2086406419403 68.5,187.2223586866894 64.52570093463873,187.23607673043443 62.317757009353954,186.48158280736243 58.89859813085059,186.26209308562102 58.5327102803858,186.45414660645474 57.977570093469694,187.70248960940808 57.77570093458053,187.79851564374985 53.20841121498961,185.87798544309044 48.8808411215432,183.4498578749335 46.98831775703002,182.98343422396283 41.70186915888917,182.21520445837814 47.26588785048807,182.96971586337895 48.42663551407168,183.4361395491287 48.918691588856746,183.38126623566495 52.93084112147335,185.60362235069624 48.8556074766675,183.4087028944341 45.04532710282365,182.6953484374826" stroke="yellow" stroke-linecap="round" stroke-linejoin="round" stroke-width="0.5"><title>2024-12-30 10.8km</title><desc>1735533491000</desc></polyline><polyline fill="none" points="75.2905783582246,182.63118403371482 77.75886194035411,183.04196738389146 78.45149253733689,183.43905708294187 78.80410447763279,183.39797887799796 79.52192164183361,183.69921883432835 82.6072761194664,185.4518778778147 87.61940298508853,187.75221750879427 87.98460820899345,187.76590992040292 88.5135261194082,186.46512626300682 88.92910447763279,186.23235347957234 92.24113805964589,186.45143375448242 94.21828358207131,187.21821266037296 98.5,187.28667490713997 94.38199626869755,187.21821266037296 92.36707089556148,186.47881877052714 88.87873134331312,186.2597385282279 88.53871268656803,186.46512626300682 88.09794776124181,187.57421606502612 87.75792910443852,187.8206795566366 83.04804104479263,185.83526981562318 79.69822761195246,183.9183021288336 77.78404850745574,183.13781670015305 71.5,182.15193563136563 77.56996268656803,183.02827462034475 79.98787313431967,183.9183021288336 82.53171641792869,185.4518778778147 87.72014925372787,187.84806436863437 87.97201492532622,187.77960233097838 88.55130597011885,186.47881877052714 88.90391791041475,186.3145086132572 92.34188432834344,186.50620378245367 94.23087686568033,187.23190511175198 98.46222014923114,187.27298245980637 97.17770522390492,187.3825220097351 94.29384328355081,187.23190511175198 92.32929104479263,186.45143375448242 88.91651119402377,186.2597385282279 88.56389925378608,186.41035622282652 87.98460820899345,187.7385250961379 87.6068097014795,187.7932947405643 83.5265858208877,186.01327294346993 82.1916977611836,185.19171860741335 77.75886194035411,183.0830456684198 72.14225746266311,182.28886387386592" stroke="#4DD2FF" stroke-linecap="round" stroke-linejoin="round" stroke-width="0.5"><title>2024-12-27 9.1km</title><desc>1735273142000</desc></polyline><polyline fill="none" points="123.21355140185915,186.6256229057908 122.22943925234722,186.3512609988975 121.18224299064605,186.47472390759503 118.72196261683712,186.24151612172136 117.85140186920762,187.80537444740185 113.27149532712065,185.93971737210813 108.72943925228901,183.4429996527906 108.36355140188243,183.4841546148964 107.3794392523705,183.0451678782265 101.5,182.11231758758368 105.6130841121776,182.77080063631 106.01682242995594,182.7022087619407 108.90607476636069,183.4292813300417 112.12336448597489,185.04803635863937 112.60280373838032,185.4870183202729 117.57383177569136,187.76422045107756 117.93971962615615,187.73678444843972 118.44439252332086,186.47472390759503 118.84813084109919,186.2277980074432 122.3303738317336,186.4472877128428 124.46261682244949,187.24293570168084 128.5,187.35267998208292 124.04626168223331,187.16062744848023 122.48177570092957,186.48844200343592 118.83551401866134,186.24151612172136 118.57056074769935,186.3238247857371 118.00280373834539,187.7779384508467 117.75046728970483,187.88768241243088 116.66542056074832,187.24293570168084 113.12009345792467,185.84369039350713 108.96915887854993,183.41556300628872 106.11775700934231,182.77080063631 103.12757009343477,182.37296740929014" stroke="#4DD2FF" stroke-linecap="round" stroke-linejoin="round" stroke-width="0.5"><title>2024-12-25 6.6km</title><desc>1735101299000</desc></polyline><polyline fill="none" points="134.3035547240288,182.3499114674487 134.20252572494792,182.59707365858776 134.36669784842525,182.54214875587786 134.60664172121324,182.14394272156642 135.37698783905944,182.67946098199172 136.23573433113052,182.72065462985483 138.875116931682,183.39348290860653 143.54770813841606,185.9474617716769 147.84144059871323,187.80113394290674 148.01824134704657,187.78740310648573 148.54864359210478,186.482968980461 148.9401309635141,186.27700485353125 152.32460243214155,186.46923804581456 154.50935453694547,187.29309231344087 158.5,187.3617466695432 154.31992516369792,187.25189968752966 152.19831618334865,186.4555071101786 148.8264733396354,186.29073580245313 148.54864359210478,186.42804523576342 147.98035547242034,187.71874890891195 147.75304022448836,187.75994143051503 143.0930776426685,185.8376139467582 139.59494855004596,183.80541737709427 137.6122544434038,183.0090099072404 131.5,182.15767397846503 133.57109448075062,182.47349260444753 134.5561272216728,182.44603013670712 138.02899906452512,183.13259060231212 139.60757717490196,183.75049283450062 143.93919550976716,186.139695307691 147.63938260055147,187.78740310648573 148.03086997190258,187.74621059102356 148.66230121609988,186.34565958805615 149.95042095414829,186.34565958805615 148.7001870907261,186.30446675040002 147.96772684750613,187.85605727841903 143.42142188962316,185.97492371764383 140.97146866226103,184.533166021356 137.7385406921967,183.1051282327826 131.53788587456802,182.17140523433045 136.7282507015625,182.9128915315814" stroke="#4DD2FF" stroke-linecap="round" stroke-linejoin="round" stroke-width="0.5"><title>2024-12-18 8.3km</title><desc>1734495982000</desc></polyline><polyline fill="none" points="164.34608208958525,181.22766501444858 163.88013059698278,181.33720875928702 164.04384328360902,181.2002790680126 163.88013059698278,181.30982282919285 163.77938432834344,181.15920014071162 163.8297574626631,181.29612986261782 164.84981343284016,182.00816277172999 167.07882462686393,182.9940499374352 167.6077425373369,183.82931131424266 168.19962686568033,184.294865188087 168.85447761195246,184.39071436863742 173.47621268656803,186.8827755178354 177.65718283585738,188.75864541104238 177.9594216417754,188.77233782161784 178.55130597017705,187.45786175366084 178.91651119402377,187.25247401886736 182.41744402988115,187.47155426118115 184.6212686567451,188.2383330527955 188.5,188.3067952893325 184.28125,188.2383330527955 182.41744402988115,187.48524676763918 178.8535447762115,187.26616654163809 178.48833955224836,187.47155426118115 177.85867537313607,188.827107453777 171.67537313431967,186.23922450137616 171.24720149248606,185.81475344867795 169.69822761201067,184.9384230129217 167.83442164183361,184.19901595752162 161.5,183.17205677866878 167.51958955224836,183.966239046611 168.57742537319427,184.43179257358133 168.8041044776328,184.3633288935671 173.5265858209459,186.9375457130518 176.77565298503032,188.224640602406 177.6697761194082,188.77233782161784 178.00979477615329,188.69018334276916 178.63945895520737,187.37570668727858 179.94916044780985,187.33462914035772 178.71501865668688,187.4167842250754 178.06016791047296,188.84079985928838 177.49347014923114,188.79972263977106 173.22434701491147,186.96493080456275 172.05317164183361,186.1981467004225 167.79664179106476,184.1305521907925 161.60074626863934,183.26790654481738 167.6077425373369,183.99362458083488" stroke="#4DD2FF" stroke-linecap="round" stroke-linejoin="round" stroke-width="0.5"><title>2024-12-17 8.6km</title><desc>1734409492000</desc></polyline><polyline fill="none" points="14.82928538066335,217.51817044784548 17.528024287719745,217.943241374247 18.51167678658385,218.4094470678392 18.83956095285248,218.31346363923512 23.51821578707313,220.89128691218502 27.768099019187503,222.72864954722172 27.995095749618486,222.7012263591605 28.575198505364824,221.34377344252425 28.890471742197406,221.16552130579657 32.54764128912939,221.4260436012264 34.37622606259538,222.1253384656884 38.5,222.19389664274058 38.096450256882235,222.33101292021456 34.36361513310112,222.19389664274058 32.2071461933665,221.3986202190863 28.96613731904654,221.26150324700575 28.474311069585383,221.56316045073618 27.93204110232182,222.72864954722172 27.717655301268678,222.79720749956323 23.896543671144173,221.1792330147291 18.763895376003347,218.43687089538435 18.095516114030033,218.35459940048167 17.389304063573945,217.943241374247 11.5,217.13423457366298 17.47758056985913,217.9295294242038 18.322512844461016,218.38202323621954 18.81433909392217,218.3408874810848 23.480382998648565,220.87757518180297 27.67982251284411,222.71493795371498 28.032928538043052,222.68751476357284 28.461700140091125,221.522025406608 28.890471742197406,221.1929447226721 32.58547407761216,221.4260436012264 34.33839327422902,222.1253384656884 38.42433442315087,222.23503153667843 34.56539000466,222.19389664274058 32.35847734706476,221.3986202190863 28.877860812761355,221.2340798403311 28.562587575928774,221.384908526481 27.90681924339151,222.79720749956323 23.392106492305174,220.94613382358511 18.776506305497605,218.43687089538435 17.654133582487702,218.03922499594046 11.651331153698266,217.16165859125613 17.452358710870612,217.943241374247 18.335123773955274,218.38202323621954 18.877393741277047,218.39573515253142 24.01004203641787,221.1243861727853 27.67982251284411,222.75607273122296 28.032928538043052,222.7012263591605 28.461700140091125,221.30263834937068 29.924567958980333,221.33006174581533 28.587809434859082,221.3574851381709 27.95726296119392,222.86576542633702 23.354273703880608,220.9324220972776 18.826950023358222,218.42315898214292 18.423400280240458,218.43687089538435 17.427136851940304,217.95695332325704 11.651331153698266,217.2165066141315 17.33886034565512,217.9295294242038" stroke="yellow" stroke-linecap="round" stroke-linejoin="round" stroke-width="0.5"><title>2024-12-15 13.0km</title><desc>1734235831000</desc></polyline><polyline fill="none" points="44.16977611934999,217.24093879183056 44.16977611934999,217.39155978562485 45.3031716417172,217.7338797669654 46.826958955149166,218.0488135866326 47.620335820829496,217.9940425263194 48.38852611934999,218.43221055172035 48.82929104473442,218.44590328568302 54.04291044775164,221.22550715645775 57.78311567165656,222.81383335187274 58.02238805964589,222.80014094332 58.52611940295901,221.58151249715593 58.90391791041475,221.33504733472364 62.3796641791123,221.51304998520936 64.38199626863934,222.27982866256207 68.5,222.36198333113862 64.30643656715984,222.27982866256207 62.48041044775164,221.52674248961557 58.84095149260247,221.28027725375432 58.488339552190155,221.44458744773874 57.8838619402959,222.84121816587867 53.48880597011885,221.04750422752113 49.39598880591802,218.76083588520123 47.532182835799176,218.0351208230859 41.5,217.15878183410678 44.69869402976474,217.48740944467136 47.532182835799176,217.95296422039974 48.80410447757458,218.36374686662748 52.67024253727868,220.4724166635715 56.53638059698278,222.170289047368 57.49347014923114,222.77275612315862 58.00979477609508,222.71798647058313 58.47574626863934,221.58151249715593 58.8661380597041,221.30766229631263 62.316697761183605,221.45827995723812 64.19309701496968,222.23875131450768 65.62873134325491,222.25244376489718 64.09235074627213,222.1976739572856 62.29151119402377,221.48566497328284 59.0046641791123,221.28027725375432 58.488339552190155,221.43089493717707 57.858675373136066,222.78644853373407 53.24953358207131,220.91057878026913 48.82929104473442,218.47328875052335 47.50699626858113,218.0351208230859 45.5172574626049,217.78865090479667" stroke="#4DD2FF" stroke-linecap="round" stroke-linejoin="round" stroke-width="0.5"><title>2024-12-13 8.5km</title><desc>1734064159000</desc></polyline><polyline fill="none" points="74.42064241843764,217.54550260807446 77.20099196978845,217.94765770706 79.1140765233431,218.5439550475421 83.0932923948858,220.79045345360646 87.5444024563185,222.75958407904545 87.90151157299988,222.77345112225157 88.4754369391012,221.45607740404375 88.83254605572438,221.27580448583467 92.33986773737706,221.45607740404375 94.09990552667296,222.17716733105772 98.5,222.26036983520316 94.52078412851552,222.23263567127287 92.21232876711292,221.44221026268497 88.74326877662679,221.26193733104446 88.37340576288989,221.3867416869616 87.95252716104733,222.57931242320046 87.6464336325298,222.85665335986414 86.74090694379993,222.34357230215392 83.08053849783028,220.91525812564942 79.38190836086869,218.79356732050655 77.41780821915017,218.1140664593695 79.36915446381317,218.73809795544366 81.71587151632411,220.15256160090212 86.76641473785276,222.32970522687538 87.50614076526836,222.81505224571447 87.87600377888884,222.73184998950455 88.44992914499016,221.22033586050384 87.85049598489422,222.6902488474443 87.53164855932118,222.77345112225157 83.22083136509173,220.94299248582684 78.62942843651399,218.36367930888082 78.1830420406186,218.3775466795778 77.060699102527,217.91992290054623 71.5,217.14334664013586" stroke="#4DD2FF" stroke-linecap="round" stroke-linejoin="round" stroke-width="0.5"><title>2024-12-11 6.6km</title><desc>1733890893000</desc></polyline><polyline fill="none" points="104.77387640444795,217.67728927131975 107.66853932582308,218.00714664009865 108.30056179768872,218.3782354749419 108.81882022472564,218.3644914573233 113.57162921346026,220.98958024053718 117.81882022466743,222.83124326927646 118.5140449438477,221.40189445612486 118.88061797746923,221.23696888047562 122.50842696626205,221.45686961528554 124.36657303367974,222.18528892709583 128.46207865170436,222.28149503628083 124.51825842697872,222.18528892709583 122.5463483146159,221.52558854113158 118.61516853928333,221.36066307603323 117.91994382016128,222.87247432072763 113.48314606741769,221.0170678835857 112.20646067417692,220.15120516030584 108.7808988763718,218.44695554762438 108.50280898879282,218.51567559471005 107.41573033708846,218.07586685102433 101.6264044943382,217.25122263029334 106.42977528087795,217.80098585372616 108.7808988763718,218.35074743870064 112.09269662917359,219.98627846651652 113.47050561796641,220.90711728684255 117.7176966292318,222.80375589654432 117.98314606741769,222.7075500596984 118.53932584269205,221.48435718867404 118.88061797746923,221.23696888047562 121.09269662917359,221.45686961528554 122.21769662917359,221.36066307603323 124.42977528087795,222.1990326600644 128.5,222.26775130948226 124.21488764043897,222.17154519312317 122.48314606741769,221.48435718867404 118.85533707862487,221.2507126841083 118.53932584269205,221.37440687044 118.09691011230461,222.6113441726775 117.85674157302128,222.81749958344153 113.91292134829564,221.16824984710547 111.54915730335051,219.75263206461386 108.75561797752744,218.3782354749419 106.73314606741769,217.86970614145685 101.5,217.12752567925781 107.95926966291154,218.06212281090848 117.5154494381859,222.73503744676418 117.98314606741769,222.65257527322683 118.53932584269205,221.22322507583885 118.00842696626205,222.7075500596984 117.74297752807615,222.76252482976997 113.62219101120718,221.0170678835857 108.79353932588128,218.33700341904478 104.38202247186564,217.5948248369532" stroke="yellow" stroke-linecap="round" stroke-linejoin="round" stroke-width="0.5"><title>2024-12-09 12.1km</title><desc>1733738831000</desc></polyline><polyline fill="none" points="142.73515551368473,220.51881740322278 147.81196983973496,222.8153353616508 148.3972667294438,221.48723205341958 148.85532516491367,221.23821162570675 152.1380772855482,221.37655634898692 154.1357210178394,222.16511930373963 158.5,222.31729773411644 154.5556079170201,222.23429133299214 152.3543826577952,221.47339759395982 148.89349670126103,221.2935495273996 148.4608859565924,221.43189420946874 147.8374175306526,222.8430040795938 143.8166823750944,221.16903922545316 138.701696512755,218.40212208482262 138.24363807722693,218.4159567730967 137.6583411875763,218.028585112188 134.03204524033936,217.5443693996349 133.5739868048695,217.3230132247554 133.35768143262248,217.50286513693572 131.7672007540241,217.2538393659779 135.53345900092972,217.64121264315327 138.701696512755,218.34678332146723 142.03534401510842,219.9931044781988 142.97690857684938,220.68483170191757 147.6211121583474,222.8153353616508 147.92648444860242,222.69082607999735 148.4608859565924,221.40422528130875 148.75353440147592,221.1828737075557 149.88595664460445,221.37655634898692 152.32893496699398,221.39039081564988 154.36475023563253,222.17895371167106 158.41093308193376,222.26196013748995 154.26295947219478,222.13745048482087 152.32893496699398,221.4180597458908 148.84260131948395,221.26588057864865 148.3209236569237,221.70858326436428 147.82469368516468,222.8430040795938 143.09142318571685,220.79550781860598 138.68897266726708,218.40212208482262 138.39632422244176,218.4574608316616 136.75494816206628,217.9179073463456 131.5,217.1569959204062 136.99670122528914,217.9179073463456 138.2818096135161,218.38828739552991 138.7653157398454,218.37445270523313 140.40669180022087,219.27370543213328" stroke="#4DD2FF" stroke-linecap="round" stroke-linejoin="round" stroke-width="0.5"><title>2024-12-06 9.2km</title><desc>1733479157000</desc></polyline><polyline fill="none" points="164.23913043469656,217.56388643894752 167.67251051886706,217.9756298893044 168.40462833095808,218.42854662169702 168.80855539970798,218.34619820771331 173.51683029450942,220.98132919649652 177.63183730712626,222.80668429371144 178.04838709672913,222.68316459449125 178.49018232815433,221.50286106974818 178.96984572231304,221.31071791979775 182.377980364603,221.4754120605794 184.2966339410632,222.20280942133104 188.5,222.3400538843125 184.34712482464965,222.20280942133104 182.35273492278066,221.5165855727828 178.9067321177572,221.29699340139632 178.464936886332,221.57148357472033 177.8338008414721,222.83413310452306 173.17601683025714,220.85780827343115 172.11570827488322,220.130405602089 168.82117812056094,218.4559960848419 168.45511921454454,218.48344554388314 167.53366058901884,218.04425370819808 161.5,217.1658668954624 167.53366058901884,218.03052894645953 169.4270687236567,218.82656343693088 168.8716690041474,218.4559960848419 164.25175315560773,217.5776112354797" stroke="#4DD2FF" stroke-linecap="round" stroke-linejoin="round" stroke-width="0.5"><title>2024-12-03 5.6km</title><desc>1733220329000</desc></polyline><polyline fill="none" points="15.024475524551235,252.7007196889026 17.579720279725734,252.97444764526153 18.448251748282928,253.48084328924597 19.555944055959117,253.61770673717547 20.75174825178692,254.3978264432517 22.388111888081767,255.01370808160573 23.432867132883985,255.8211942124908 27.926573426637333,257.79199291770055 28.49300699302694,256.5739323244634 28.946153846220113,256.2728374497965 32.382517482561525,256.46444333624095 34.49720279726898,257.24455095360463 37.4552447553142,257.2171788125852 38.5,257.299295223449 38.18531468533911,257.38141159756924 34.37132867134642,257.27192309054954 32.382517482561525,256.51918783852307 28.933566433610395,256.3275820091658 28.555944056017324,256.5055017144623 27.976923077018,257.80567894590786 27.70000000001164,257.833050999252 23.042657342681196,255.83488038752694 20.52517482516123,254.3978264432517 17.466433566471096,253.0291931875836 11.5,252.19432189429062 17.68041958048707,253.00182041845983 19.46783216786571,253.8230017178721 17.44125874125166,253.0702523336222 11.52517482516123,252.16694900076254 15.175524475576822,252.67334687081166" stroke="#4DD2FF" stroke-linecap="round" stroke-linejoin="round" stroke-width="0.5"><title>2024-12-02 6.1km</title><desc>1733112856000</desc></polyline><polyline fill="none" points="41.5,251.28143743368855 42.29999999998836,251.61488187905343 44.14000000001397,254.0794535371242 43.97999999998137,253.91998219798552 44.32666666666046,253.90548479702557 44.78000000002794,253.3545827605849 46.433333333348855,253.60103912759223 47.04666666663252,254.00696658098605 48.27333333331626,254.25342212164833 49.593333333265036,255.07977077427495 51.19333333329996,255.68865700965398 52.03333333332557,256.42801630546455 56.83333333331393,258.6170832394564 57.22000000003027,258.6170832394564 57.80666666664183,257.26885287500045 58.19333333329996,257.0803898218437 61.88666666665813,257.26885287500045 64.16666666662786,258.0806916326401 68.5,258.12418289908965 64.19333333335817,258.10968581135967 61.899999999965075,257.2978471746319 58.233333333337214,257.109384149604 57.83333333331393,257.2833500253473 57.11333333334187,258.71856256631145 52.52666666661389,256.7904463067971 49.4199999999837,255.03627882743604 46.313333333295304,253.61553655120952 42.54000000003725,253.16611591634864" stroke="#4DD2FF" stroke-linecap="round" stroke-linejoin="round" stroke-width="0.5"><title>2024-11-29 4.6km</title><desc>1732853630000</desc></polyline><polyline fill="none" points="73.78660287079401,254.12914340617135 73.59282296651509,254.24151509003423 74.41961722489214,254.25556154578226 73.70909090916393,254.1712827954907 74.35502392344642,254.2274686331948 74.27751196169993,254.4241189334134 75.31100478465669,253.0897021553974 77.73971291864291,252.92114357471291 78.51483253587503,253.342539743855 79.6129186602775,253.5672839822655 83.91483253589831,256.0254066001653 88.2296650717617,257.89355835648894 88.87559808616061,256.53107356419787 89.26315789471846,256.34847176140465 92.93205741629936,256.53107356419787 94.79234449757496,257.28957146753964 98.5,257.3317101504945 94.86985645932145,257.261479007022 92.66076555021573,256.4889347023418 89.21148325363174,256.2922865557339 88.90143540670397,256.4748884129367 88.2296650717617,257.8795121717267 83.65645933011547,256.0254066001653 78.92822966509266,253.3846793089615 77.50717703351984,252.9492366819468 71.5,252.1064416435256 77.63636363635305,252.92114357471291 78.42440191394417,253.32849322004768 79.25119617226301,253.4408653811115 82.58421052637277,255.21071808320994 77.59760765550891,252.97732978500426 74.35502392344642,252.54188621713547" stroke="#4DD2FF" stroke-linecap="round" stroke-linejoin="round" stroke-width="0.5"><title>2024-11-28 6.3km</title><desc>1732767063000</desc></polyline><polyline fill="none" points="101.68120805372018,251.77369205487776 105.66778523492394,252.44687454985979 106.57382550340844,252.92302678020496 106.9966442953446,252.89018872838642 111.14932885905728,254.92613868853368 112.58389261743287,255.87843140719633 117.83892617450329,258.1770520508435 118.57885906042065,256.5844388700061 119.122483221523,256.2889011375082 123.12416107376339,256.5023450951703 124.9664429530385,257.27402537131275 126.56711409392301,257.5367244233348 128.5,257.4874683749222 125.58557046978967,257.43821231552283 123.39597315434366,256.5844388700061 119.27348993293708,256.37099499189935 118.65436241606949,256.61727637136937 117.83892617450329,258.2263079451368 112.11577181209577,255.8127561793517 106.9966442953446,252.89018872838642 106.61912751680939,252.97228384877963 105.32046979869483,252.39761736385117 101.5,251.8886257971899" stroke="#4DD2FF" stroke-linecap="round" stroke-linejoin="round" stroke-width="0.5"><title>2024-11-25 4.0km</title><desc>1732507947000</desc></polyline><polyline fill="none" points="131.5,250.3820539493172 137.00401284114923,251.08889195811935 138.49919743184,251.96065665973583 139.3226324239513,251.86641194298863 140.83948635635898,252.36119639253593 142.4213483147323,253.49212937030825 145.41171749611385,254.78798510192428 147.73033707868308,256.3901266656467 152.97431781701744,258.43991359628853 154.72953451052308,259.5001430026896 155.1845906903036,259.311658034625 156.15971107548103,257.02626885892823 158.5,256.97914725885494 156.24638844304718,257.09695124591235 154.98956661322154,259.6179460506828 148.0770465490641,256.7435391532199 139.2792937400518,252.03134017882985 138.69422150892206,252.14914600894554 140.77447833074257,252.54968550303602 141.79293739970308,253.49212937030825 143.5914927769918,253.98691127626807 147.6869983949,256.437248353468 154.25280898890924,259.35877928716945 155.1845906903036,259.4530217712163 156.15971107548103,257.002708059852 155.11958266457077,259.6179460506828 148.1853932584636,256.69641751106246" stroke="#4DD2FF" stroke-linecap="round" stroke-linejoin="round" stroke-width="0.5"><title>2024-11-20 4.0km</title><desc>1732095798000</desc></polyline><polyline fill="none" points="163.0772703133407,252.06118933402468 167.06346255977405,252.63804590460495 168.02416356879985,253.12135694212338 168.68374933610903,253.18371957530326 172.36882634094218,255.00781837440445 173.34386617102427,255.7561620000488 178.59187466808362,258.0791282917635 178.83563462557504,258.04794770693115 179.42352628783556,256.67599737366254 179.85369091870962,256.34859880578006 183.83988316514296,256.56686457463366 185.9333510355791,257.4087446934136 188.5,257.50228671974037 185.89033457246842,257.4243350340548 183.61046202864964,256.55127417010954 179.939723844931,256.3641892253945 179.33749336161418,256.76953972753836 178.77827934140805,258.11030887201196 173.44423791824374,255.91206658522424 169.34333510353463,253.6202574873605 167.03478491771966,252.70040868186334 161.5,251.8896911280026" stroke="#4DD2FF" stroke-linecap="round" stroke-linejoin="round" stroke-width="0.5"><title>2024-11-19 4.1km</title><desc>1731989484000</desc></polyline></svg>