<?xml version="1.0" encoding="utf-8" ?>
<svg baseProfile="full" height="300mm" version="1.1" viewBox="0,0,200,300" width="200mm" xmlns="http://www.w3.org/2000/svg" xmlns:ev="http://www.w3.org/2001/xml-events" xmlns:xlink="http://www.w3.org/1999/xlink"><defs /><rect fill="#222222" height="300" width="200" x="0" y="0" /><text fill="#FFFFFF" style="font-size:12px; font-family:Arial; font-weight:bold;" x="10" y="20">Over 4km Runs</text><text fill="#FFFFFF" style="font-size:4px; font-family:Arial" x="10" y="280">ATHLETE</text><text fill="#FFFFFF" style="font-size:9px; font-family:Arial" x="10" y="290">Fake David</text><text fill="#FFFFFF" style="font-size:4px; font-family:Arial" x="65" y="280">SPECIAL TRACKS</text><rect fill="yellow" height="2.6" width="2.6" x="65" y="283" /><text fill="#FFFFFF" style="font-size:3px; font-family:Arial" x="70" y="285.5">Over 10.0 km</text><rect fill="red" height="2.6" width="2.6" x="65" y="287" /><text fill="#FFFFFF" style="font-size:3px; font-family:Arial" x="70" y="289.5">Over 15.0 km</text><text fill="#FFFFFF" style="font-size:4px; font-family:Arial" x="120" y="280">STATISTICS</text><text fill="#FFFFFF" style="font-size:3px; font-family:Arial" x="120" y="285">Number: 40</text><text fill="#FFFFFF" style="font-size:3px; font-family:Arial" x="120" y="290">Weekly: 2.5</text><text fill="#FFFFFF" style="font-size:3px; font-family:Arial" x="141" y="285">Total: 324.5 km</text><text fill="#FFFFFF" style="font-size:3px; font-family:Arial" x="141" y="290">Avg: 8.1 km</text><text fill="#FFFFFF" style="font-size:3px; font-family:Arial" x="167" y="285">Min: 4.0 km</text><text fill="#FFFFFF" style="font-size:3px; font-family:Arial" x="167" y="290">Max: 13.0 km</text><polyline fill="none" points="13.204192180885002,42.566268054404645 11.5,42.16524877489428 15.315355628787074,42.59392452449538 18.698304286401253,43.28533493747818 23.569241639168467,45.954154972787364 27.766132830874994,47.793267689747154 28.08407913328847,47.39225970339612 28.14766839373624,46.28602628421504 28.414743287779856,46.13391867344035 32.52260951482458,46.45196171737916 34.48115873767529,47.22632511079428 38.5,47.253980886540376 34.60833725857083,47.253980886540376 32.4590202543186,46.47961760846374 28.478332548227627,46.23071444015659 28.185821950028185,46.5211014374072 27.995054168626666,47.71030059126497 27.689825718291104,47.83475122510572 23.289448893046938,45.94032698860974 21.48351389542222,44.77877263932896 18.7364578426932,43.40978853829438 18.44394724443555,43.46510122297332 17.32477626000764,42.967286467406666 15.671455487492494,42.88431721167581 11.894253414939158,42.23439009177673 13.903674046159722,42.46947037661448 16.536269430012908,42.88431721167581 17.591851153993048,42.981114673108095 19.054404145048466,43.47892939156736 23.23857748467708,45.78821909458202 26.697833254758734,47.253980886540376 27.422750824247487,47.73795629487722 27.94418276025681,47.71030059126497 28.211257654242218,46.797660060052294 28.03320772497682,47.68264488350542 27.689825718291104,47.76561199440039 23.353038153552916,45.91267101716949 18.74917569477111,43.35447583712812 18.151436646236107,43.3268194803677" stroke="#4DD2FF" stroke-linecap="round" stroke-linejoin="round" stroke-width="0.5"><title>2025-03-12 7.1km</title><desc>1741778255000</desc></polyline><polyline fill="none" points="51.071094480808824,42.439165039686486 54.746024321822915,42.8922950651322 55.88260056125,43.38661745861464 57.284377923293505,43.64750929840375 61.42656688491115,46.10536692352616 65.26566884940257,47.78053601975262 65.56875584658701,47.5608425794926 65.64452759589767,46.43490958800248 65.89710009354167,46.174021693863324 69.93826005619485,46.379985851512174 71.51683816657169,46.99787694346742 72.72918615530943,47.19010930520017 76.0,47.231301928070025 71.90832553792279,47.2450328002742 69.93826005619485,46.46237145010673 66.02338634239277,46.20148359486484 65.73292797006434,46.39371678714815 65.543498596875,47.643227650245535 65.11412535083946,47.75307435407012 60.26473339571385,45.63851380687265 56.28671655751532,43.37288629892282 55.95837231056066,43.482735547819175 54.77128157153493,42.96095103240805 49.0,42.178271489348845 54.27876520116115,42.837370272914995 56.059401309583336,43.38661745861464 56.28671655751532,43.30423048509692 60.95930776424939,45.830747586340294 65.22778297477635,47.76680518743524 65.56875584658701,47.46472661702137 65.65715622075368,46.33879303840513 65.9349859682261,46.174021693863324 69.83723105711397,46.33879303840513 72.0346117867739,47.10772403187002 76.0,47.231301928070025 71.9335827876348,47.203840180518455 69.84985968196997,46.35252397709701 65.92235734331189,46.09163596635335 65.69504209543811,46.46237145010673 65.6824134705821,47.46472661702137 65.2909260991728,47.82172851066571 63.35874649207108,46.81937528523849 60.5804490178125,45.775823669784586 56.375116931740195,43.4415420871519 56.059401309583336,43.49646669931826 54.960710944840685,42.98841341215302 51.52572497661458,42.713789430534234 49.0,42.23319647801691 50.89429373247549,42.384240112427506 51.79092609917279,42.54901484513539 55.175397567858454,43.00214460051211 56.968662301194854,43.81228290166473 56.450888681050856,43.4690043952869 55.01122544432292,43.05706934364571 52.536014967248775,42.768714259625995 50.95743685687194,42.85110147250816 49.07577174925245,42.23319647801691" stroke="yellow" stroke-linecap="round" stroke-linejoin="round" stroke-width="0.5"><title>2025-03-07 10.7km</title><desc>1741342581000</desc></polyline><polyline fill="none" points="88.58665105386171,42.421817670663586 92.64613583130995,42.944336540676886 93.30374707258306,43.32934949826449 93.84754098358098,43.343099946156144 97.33793911006069,45.06189786802861 98.96932084305445,46.14816989985411 102.73793911002576,47.81194125014008 103.01615925057558,47.55068889017275 103.33231850113953,46.189420610506204 105.02693208429264,46.39567402549437 107.60679156903643,46.340673137354315 108.95995316159679,46.91818164524739 110.24988290393958,47.13818441105832 113.5,47.12443424586672 112.80444964865455,47.26193585158035 109.41522248240653,47.151934575202176 107.44238875876181,46.436924680834636 103.433489461313,46.24442154371354 103.19320843089372,46.423174463401665 102.94028103043092,47.68819017834903 102.53559718967881,47.78444101911737 98.3749414519989,45.90066544232832 93.84754098358098,43.45310349261854 92.21615925052902,42.985587967414176 88.99133489461383,42.80683171830606 86.5,42.18805874985992 87.99227166268975,42.27056193219323" stroke="#4DD2FF" stroke-linecap="round" stroke-linejoin="round" stroke-width="0.5"><title>2025-03-05 4.7km</title><desc>1741177738000</desc></polyline><polyline fill="none" points="125.2319884726312,42.3632351905253 129.4726224783808,42.87085468955047 130.665706051921,43.20926693250658 135.4639769452624,45.83194129835465 138.9524495676742,47.28426684465376 139.743515850103,47.80597330094315 140.1325648415368,47.70727218975662 140.3270893371664,46.32545122914598 140.6123919308302,46.170348246683716 144.5028818443534,46.36775202046556 146.6426512968028,47.185565461433725 151.0,47.24196625816694 149.3530259365216,47.39706836245023 146.6167146973312,47.25606645469088 144.7233429394546,46.48055408448272 140.6253602305078,46.18444852308312 140.43083573482,46.36775202046556 140.2233429394546,47.74957267228456 139.9380403457908,47.86237391277973 134.7636887608096,45.66273759727483 130.6138328529778,43.293869898683624 130.3414985590498,43.39257331144472 129.096541786741,42.92725677207636 124.0,42.13762608722027" stroke="#4DD2FF" stroke-linecap="round" stroke-linejoin="round" stroke-width="0.5"><title>2025-03-03 4.6km</title><desc>1740978130000</desc></polyline><polyline fill="none" points="163.79518916393863,42.470175997848855 163.59341429243796,42.59358391602291 161.5,42.16851184946427 164.79145259223878,42.5113119797752 168.76389537600335,43.361453547520796 172.30756655771984,45.116572103404906 173.48038299864857,45.91185468871845 177.5411022886983,47.76293015736155 177.96987389074638,47.73550695292943 178.18425969174132,46.41918833577074 178.37342363380594,46.18608926619345 182.24497898179106,46.44661173633358 184.16184026160045,47.214465292636305 188.43694535264513,47.2693118526513 186.93624474544777,47.37900492364133 184.11139654368162,47.187042006480624 182.21975712286076,46.474035132778226 178.42386735166656,46.22722441756923 178.23470340960193,46.364341522421455 178.0455394675373,47.58467925559671 177.66721158334985,47.81777655395854 173.40471742179943,45.98041337142058 168.73867351707304,43.40258933024597 168.51167678658385,43.47114894763217 167.6793554413598,43.08721476120991 161.5,42.182223866926506 167.85590845398838,43.046078908009804 177.5158804297098,47.83148815053573 177.98248482018244,47.74921855563298 178.10859411489218,46.52888191344391 178.33559084543958,46.22722441756923 182.56025221856544,46.501458525133785 184.1996730499668,47.22817693416437 188.5,47.33787002970348 184.22489490895532,47.214465292636305 182.30803362914594,46.48774682948715 178.41125642228872,46.18608926619345 178.18425969174132,46.41918833577074 177.98248482018244,47.68066053185612 177.59154600655893,47.790353357675485 172.9381130313268,45.733601994259516 169.01611396542285,43.47114894763217 168.42340028024046,43.44372510374524 167.30102755723055,42.96380717403372 163.66907986922888,42.53873596260382 165.11933675856562,42.662143834808376 167.66674451192375,43.03236695489613 169.3692199906218,43.786522858732496 169.43227463803487,43.64940383336216 168.67561886971816,43.38887740368955" stroke="yellow" stroke-linecap="round" stroke-linejoin="round" stroke-width="0.5"><title>2025-02-28 10.0km</title><desc>1740736874000</desc></polyline><polyline fill="none" points="13.387232059671078,72.85911382646009 13.651444547984283,72.55815331508347 13.336905871401541,72.84543381391268 13.613699906796683,72.66759355810063 13.450139795022551,72.59919341384375 11.61323392362101,72.22983219455637 12.456197576888371,72.20247207469947 17.55172413791297,72.90015385797597 18.369524697132874,73.29687368964369 18.860205032629892,73.24215376380016 23.779589934798423,75.9097311674559 27.71761416591471,77.72913352608157 28.057315936661325,77.60601664190472 28.183131407306064,76.29276474106882 28.43476234859554,76.12860759305477 32.37278657971183,76.37484325999685 34.310344827594236,77.11354827968171 38.437092264706735,77.1956264317705 34.28518173348857,77.18194674229017 32.27213420323096,76.37484325999685 29.95712954335613,76.3885230096057 28.35927306616213,76.15596712793922 28.15796831314219,76.27908498430043 28.057315936661325,77.63337595661869 27.742777260020375,77.92064851519535 22.697576887265313,75.63613526859262 19.099254426837433,73.52943319243786 17.061043802415952,72.96855389008124 15.450605778198224,72.91383386641974 11.512581547023728,72.18879201321397 17.614631873264443,72.98223389346094 18.281453867675737,73.37895354778448 18.860205032629892,73.37895354778448 23.79217148182215,75.99180985763087 27.793103448289912,77.78385211476416 28.069897483685054,77.55129800019495 28.24603914259933,76.15596712793922 32.25955265609082,76.3474837577669 33.89515377447242,76.99043098276888 35.10298229265027,77.18194674229017 38.5,77.18194674229017 34.3732525628875,77.1956264317705 32.27213420323096,76.48428122820042 29.969711090438068,76.47060148573655 28.2712022367632,76.18332665869093 28.08247903076699,77.48289967517485 27.705032618832774,77.83857068720681 23.18825722276233,75.8686918086023 18.759552656149026,73.39263352057606 12.82106244174065,72.43503296367999 11.5,72.07935148480465 13.475302889128216,72.3803127810097 14.330848089477513,72.55815331508347 16.645852749352343,72.76335371725145 19.363466915208846,73.74831245538371 18.82246039144229,73.37895354778448 18.55824790307088,73.44735340155603 17.35041938489303,72.96855389008124 14.481826654286124,72.76335371725145 12.531686859263573,72.27087236673106" stroke="yellow" stroke-linecap="round" stroke-linejoin="round" stroke-width="0.5"><title>2025-02-26 11.1km</title><desc>1740566027000</desc></polyline><polyline fill="none" points="51.30457089556148,72.50110373839561 49.05037313437788,72.22724762067082 50.05783582094591,72.21355480408238 55.15811567165656,72.91188714974851 55.87593283591559,73.30897690798156 56.304104477691,73.29528417198162 59.855410447809845,75.04794608819066 60.61100746272132,75.70518999772321 64.3260261194082,77.21136509267671 65.1697761194664,77.7864468729822 65.58535447763279,77.53998347315064 65.69869402988115,76.28027649060823 65.90018656721804,76.11596624768572 67.47434701496968,76.36243155699049 69.7411380597623,76.3761240645108 71.45382462686393,77.0470556821092 72.68796641792869,77.22505753691075 75.9244402985205,77.18398020112363 72.65018656715984,77.18398020112363 71.54197761195246,77.03336322457471 69.90485074633034,76.41720158084354 66.00093283585738,76.15704382221156 65.72388059704099,76.33504653896671 65.49720149260247,77.70429244310071 65.13199626869755,77.80013927438995 63.39412313431967,76.85536118410528 60.77472014928935,75.82842296913441 56.35447761195246,73.36374784176587 55.938899253786076,73.40482603141572 54.893656716449186,72.91188714974851 53.4958022388746,72.92557991432841 49.0,72.15878352751315 54.91884328360902,72.92557991432841 55.87593283591559,73.37744057270174 56.35447761195246,73.30897690798156 60.08208955224836,75.4039534975891 64.3260261194082,77.25244242236658 65.25792910449672,77.84121647248685 65.62313432840165,77.4441365061939 65.68610074633034,76.32135402840504 65.84981343289837,76.11596624768572 67.75139925378608,76.36243155699049 69.65298507467378,76.32135402840504 71.4286380597623,76.9922858459322 72.75093283585738,77.17028775379003 76.0,77.18398020112363 72.12126865674509,77.18398020112363 69.94263059704099,76.40350907643733 68.67070895520737,76.44458658664371 65.91277985076886,76.10227372084046 65.68610074633034,76.36243155699049 65.59794776124181,77.52629105238884 65.47201492538443,77.7727544705267 65.19496268656803,77.81383167476451 60.1828358208877,75.48610895569436 56.41744402988115,73.39113330256077 55.97667910455493,73.40482603141572 54.99440298508853,72.99404372186109 53.39505597023526,72.91188714974851 49.138526119466405,72.22724762067082 52.13572761201067,72.59695328319503 52.77798507467378,72.63803164420824 54.90625000005821,72.98035096240346 57.16044776124181,73.74714392134047 59.96875,75.19856469171646 56.44263059704099,73.40482603141572 52.77798507467378,72.69280277795042" stroke="yellow" stroke-linecap="round" stroke-linejoin="round" stroke-width="0.5"><title>2025-02-21 11.3km</title><desc>1740135343000</desc></polyline><polyline fill="none" points="88.71229050279362,72.60142751570675 86.57541899441276,72.17774091429601 89.64245810057037,72.51942373375641 92.5335195530788,72.99777861175244 93.33798882679548,73.40779608575394 94.12988826812943,73.44879778275208 97.66201117320452,75.4715367898898 101.74720670387615,77.24824859993532 102.66480446927017,77.80859260172292 103.07960893848212,77.50792042328976 103.21787709492492,76.29155976347101 103.3938547486323,76.15488952242595 105.14106145250844,76.38722887160839 107.40363128489116,76.40089588295086 108.84916201111628,77.0159103411861 110.08100558654405,77.22091470241139 113.43715083791176,77.2072477521433 112.43156424578046,77.34391720921849 109.42737430159468,77.17991384849302 107.3282122904784,76.46923092457291 103.45670391060412,76.19589060542057 103.19273743010126,76.41456289331836 103.00418994412757,77.64458965638187 102.61452513962286,77.79492569521244 97.8505586591782,75.66287581156939 93.86592178768478,73.4351305514574 93.28770949720638,73.40779608575394 92.34497206704691,72.99777861175244 90.7611731843208,72.90210773595027 86.5,72.16407358829747 92.40782122901874,72.95677681393863 93.76536312850658,73.3394599037565 97.07122905022698,74.97952124632138 98.17737430165289,75.73121112809167 102.80307262565475,77.74025805899873 103.05446927371668,77.52158735120611 103.14245810051216,76.37356185920362 103.31843575416133,76.15488952242595 107.2779329608311,76.38722887160839 108.86173184355721,77.0159103411861 110.13128491613315,77.22091470241139 113.5,77.24824859993532 112.10474860330578,77.35758414931479 109.43994413403561,77.19358080084203 107.40363128489116,76.46923092457291 103.41899441339774,76.18222357875493 103.15502793289488,76.44189691099746 103.09217877092306,77.49425349438388 102.84078212286113,77.83592641170253 98.64245810051216,76.01821917953203 93.8784916200675,73.40779608575394 93.45111731841462,73.4351305514574 92.42039106145967,73.0114458756434 89.11452513962286,72.58776022125676 90.19553072628332,72.71076583463582 92.34497206704691,72.95677681393863 94.46927374304505,73.76314382191049 93.91620111727389,73.40779608575394 93.23743016755907,73.39412885138881 92.01815642457223,72.94310954595858 90.92458100558724,72.929442276989 87.11592178774299,72.21874288625258" stroke="yellow" stroke-linecap="round" stroke-linejoin="round" stroke-width="0.5"><title>2025-02-19 10.6km</title><desc>1739962218000</desc></polyline><polyline fill="none" points="125.95926966291154,72.37491943289933 124.0,72.18250210399856 127.32443820225308,72.53984841221245 129.97893258422846,73.00714638616773 130.71207865170436,73.37823511040187 131.24297752807615,73.35074708233878 135.88202247186564,75.90711616864428 140.33146067417692,77.81749789598689 140.5463483146159,77.54262404567271 140.68539325840538,76.34691803138412 140.90028089884436,76.19573625936755 144.9073033707682,76.4431245490996 146.71488764043897,77.18528742805938 151.0,77.26774978585308 146.94241573027102,77.21277488474152 144.85674157302128,76.45686833326181 141.15308988763718,76.19573625936755 140.9382022471982,76.4293807639333 140.71067415724974,76.37440561302355 140.5463483146159,77.6250862437737 140.1544943820336,77.77626684453571 135.03511235956103,75.50854482490104 131.2682584269205,73.40572313434677 129.83988764043897,72.97965830280737 124.97331460670102,72.29245488793822" stroke="#4DD2FF" stroke-linecap="round" stroke-linejoin="round" stroke-width="0.5"><title>2025-02-18 4.9km</title><desc>1739836925000</desc></polyline><polyline fill="none" points="164.4196050775936,72.39141602956806 164.38152327219723,72.72266962128924 165.77785613544984,72.6812629547203 167.6311706629349,72.99871382860874 170.05571227084147,74.29611609308631 171.36318758811103,74.72398080500716 172.5818053596886,75.60731127781037 176.68194640334696,77.29114832519554 177.6212976022507,77.85702455299906 177.9640338505269,77.59478944282455 178.05289139633533,76.36642003789893 178.25599435827462,76.18699461169308 182.25458392099245,76.50443947828899 184.1078984485357,77.23594079579925 188.5,77.31875208373822 184.2475317348144,77.15312947086932 182.27997179125668,76.42162782640662 178.35754583921516,76.17319264860998 178.12905500701163,76.42162782640662 178.06558533146745,77.51197827825672 177.86248236958636,77.80181719218672 173.20380818052217,75.85574721441662 169.4464033850236,73.73022898859926 167.52961918193614,72.95730722373992 161.5,72.14297544701549 167.5677009872743,72.9711094263912 169.319464033877,73.75783327773388 167.5677009872743,72.9711094263912" stroke="#4DD2FF" stroke-linecap="round" stroke-linejoin="round" stroke-width="0.5"><title>2025-02-14 5.4km</title><desc>1739506837000</desc></polyline><polyline fill="none" points="14.450957496475894,102.57987319130916 16.720924801484216,102.85411259061948 18.763895376061555,103.36145440200926 23.808267164917197,106.06268320267554 27.67982251284411,107.83148667388014 27.995095749676693,107.77664030999586 28.48692199907964,106.5425928015029 28.852638953831047,106.25464719238516 32.434142923913896,106.46032267346163 34.45189163944451,107.26931066915859 38.5,107.31044555701374 34.36361513310112,107.26931066915859 32.39631013548933,106.48774605354993 28.915693601127714,106.30949400977988 28.57519850542303,106.47403436400054 27.8815973844612,107.83148667388014 23.54343764600344,106.07639492284216 18.801728164427914,103.4163020816195 17.654133582429495,103.04607992697856 11.5,102.16851332611986 17.47758056985913,102.96380823590152 18.86478281178279,103.4163020816195 23.568659504991956,105.98041286005173 27.641989724477753,107.80406349399709 28.020317608607,107.70808233214484 28.537365716998465,106.50145774206612 28.94091546011623,106.30949400977988 32.446753853408154,106.50145774206612 34.36361513310112,107.22817577212118 38.5,107.29673392875702 36.77230266231345,107.39271530508995 34.35100420366507,107.20075250235095 32.37108827655902,106.48774605354993 28.903082671633456,106.24093548544624 28.57519850542303,106.46032267346163 28.007706679112744,107.74921712193463 27.80593180761207,107.79035190248396 23.31644091551425,105.89814248066978 19.243110695970245,103.62198073463514 17.956795889826026,103.08721575871459 11.525221858988516,102.19593734575028 14.728397944883909,102.4701773171837 17.654133582429495,102.96380823590152 19.40705277910456,103.86879481481446 18.751284446567297,103.40259016325581 18.587342363374773,103.48486165815848 17.464969640423078,102.99123213702114" stroke="yellow" stroke-linecap="round" stroke-linejoin="round" stroke-width="0.5"><title>2025-02-12 10.1km</title><desc>1739334019000</desc></polyline><polyline fill="none" points="70.7081545064575,106.88294611990568 71.84120171674294,107.27492785625509 76.0,107.30292652043863 71.98283261799952,107.33092518041667 70.05150214594323,106.4629647807451 66.26609442062909,106.21097552671563 65.44206008582842,107.79290246810706 65.19742489268538,107.83490034703573 60.15021459222771,105.62299928659922 58.79828326177085,104.75503099813068 55.218884120171424,103.07508098578546 49.0,102.09510320893605 54.98712446348509,102.92108481645118 56.98283261799952,103.691064400904 59.519313304685056,104.92302517332428 60.79399141634349,105.81899157105363 65.10729613731382,107.76490387695958 65.45493562234333,107.63891016508569 65.98283261799952,106.37896840029862 66.3047210299992,106.19697611383162 68.62231759657152,106.44896538663306 69.78111587982858,106.37896840029862 71.85407725319965,107.23292985217995 75.8326180257136,107.28892718885618 70.38626609439962,106.89694548169791 70.45064377685776,107.28892718885618 70.33476394851459,106.82694866225938 69.87124463520013,106.6169580474234 66.3047210299992,106.25297375918308 66.04721030045766,106.39296779962024 65.33905579400016,107.90489679106395 60.484978540742304,105.81899157105363 59.596566523599904,105.1050186936045 57.96137339057168,104.32104535045801" stroke="#4DD2FF" stroke-linecap="round" stroke-linejoin="round" stroke-width="0.5"><title>2025-02-10 6.3km</title><desc>1739162078000</desc></polyline><polyline fill="none" points="86.69296316656983,103.91114641839522 88.32572842220543,103.95954015541065 95.68801539303968,105.04033080600493 97.94420010992326,104.94354380277218 98.13716327649308,105.68557639195933 98.98323254531715,105.73396973362833 99.97773501917254,106.10498499500682 100.66052776243305,105.12098660909396 106.74628916976508,105.0080684764107 107.0728422209504,105.5726585527882 107.45876855409006,105.6694452756783 107.71110500267241,105.52426517516142 107.96344145131297,104.84675675648032 109.12122045073193,104.76610085157154 113.5,105.31456041423371 109.38840021984652,104.74996966698382 107.91891148983268,104.83062557787343 107.63688840012765,105.52426517516142 107.38455195154529,105.65331415816036 106.74628916976508,104.99193730978004 100.73474436497781,105.08872429144685 100.30428807029966,105.37908497764147 100.00742166023701,106.12111607895349 98.21137987897964,105.70170750709076 98.21137987897964,105.07259313082614 98.01841671246802,104.91128145880066 95.836448598071,105.02419964180444 88.93430456286296,104.00793388161401 86.5,103.89501517031749 88.60775151179405,103.97567139865714 95.36146234191256,104.99193730978004 97.91451346885879,104.91128145880066 98.12231995596085,105.6694452756783 99.99257833970478,106.10498499500682 100.43787795485696,105.26616697912687 100.82380428799661,105.08872429144685 106.68691588781076,104.99193730978004 107.10252886195667,105.58878967624332 107.39939527207753,105.65331415816036 107.71110500267241,105.45974065490009 107.82985156675568,104.9274126313976 108.2009345794213,104.782232034966 113.1882902692887,105.26616697912687 109.59620670694858,104.74996966698382 108.14156129735056,104.74996966698382 107.74079164373688,104.95967497299716 107.48845519515453,105.65331415816036 107.19158878503367,105.58878967624332 106.73144584929105,104.95967497299716 100.67537108296528,105.07259313082614 100.31913139077369,105.3468226983241 100.02226498071104,106.10498499500682 98.19653655850561,105.68557639195933 98.01841671246802,104.84675675648032 95.59895547002088,104.94354380277218 88.14760857610963,103.87888392106106 86.84139637160115,103.92727766525059 88.1772952171159,103.91114641839522 96.26690489274915,105.05646196904127 97.98873007140355,104.91128145880066 98.15200659696711,105.68557639195933 99.30978559644427,105.83075638464652 98.21137987897964,105.6694452756783 97.91451346885879,104.86288793385029 95.67317207250744,104.95967497299716 88.83040131937014,103.95954015541065 87.00467289716471,103.92727766525059 88.96399120398564,104.00793388161401" stroke="#4DD2FF" stroke-linecap="round" stroke-linejoin="round" stroke-width="0.5"><title>2025-01-25 9.9km</title><desc>1737761473000</desc></polyline><polyline fill="none" points="124.35999999998603,103.67958222994639 133.16499999997905,104.95109960414993 135.7150000000256,104.83698937139707 135.70000000001164,105.8802807196771 136.69000000006054,105.92918487996212 137.5449999999837,106.32041777003906 138.26500000001397,105.26082707967726 144.39999999996508,105.11411411940935 144.97000000003027,105.83137654850725 145.34499999997206,105.71726677336846 145.45000000001164,105.11411411940935 145.69000000000233,104.9347981459432 151.0,105.4401427868288 146.86000000004424,104.88589376410528 145.55499999999302,105.00000397142139 145.15000000002328,105.81507515568228 144.82000000000698,105.71726677336846 144.68500000005588,105.22822420809825 144.39999999996508,105.09781267333892 138.2949999999837,105.21192277049704 137.99499999999534,105.37493709207047 137.6350000000093,106.28781505582447 135.8049999999348,105.84767794008076 135.6699999999837,105.03260687693546 133.58499999996275,105.17931989162753 125.4100000000326,103.98931149968121 124.0,104.00561302807182 125.8300000000163,104.05451760602591 133.11999999999534,105.14671700797044 135.46000000002095,105.01630542478233 135.65500000002794,105.19562133168802 135.65500000002794,105.76617096997506 137.5449999999837,106.28781505582447 138.25,105.22822420809825 144.3850000000093,105.09781267333892 144.7600000000093,105.71726677336846 145.10500000003958,105.81507515568228 145.7500000000582,104.91849668655777 150.09999999997672,105.26082707967726 145.86999999999534,104.86959230109642 145.45000000001164,105.00000397142139 145.375,105.63575975484855 145.10500000003958,105.78247236640891 144.3850000000093,105.04890832783713 138.32500000001164,105.21192277049704 137.93500000005588,105.45644420747703 137.5900000000256,106.25521233676409 135.79000000003725,105.81507515568228 135.56500000000233,104.9837025168963 133.5700000000652,105.16301845037378 125.55999999999767,103.97300997006823 124.3300000000163,104.02191455524007 125.71000000002095,103.98931149968121 127.63000000000466,104.2990403323638" stroke="#4DD2FF" stroke-linecap="round" stroke-linejoin="round" stroke-width="0.5"><title>2025-01-19 8.1km</title><desc>1737283232000</desc></polyline><polyline fill="none" points="165.0688930406468,102.54559556867753 167.32624941616086,102.86097072510165 168.28468005603645,103.35460031981347 168.99089210649254,103.36831223411718 172.3453993460862,105.12342882853409 172.76156001875643,105.50735835250816 176.86011209717253,107.26245454901073 177.78070994862355,107.83834184188163 178.03292853810126,107.68751439168409 178.57519850536482,106.41233191877836 178.92830453056376,106.20665649898001 182.24497898179106,106.37119685320067 184.36361513315933,107.1253382613213 188.5,107.23503129964229 184.27533862675773,107.1253382613213 182.35847734700656,106.34377347106056 178.9787482485408,106.17923309230537 178.58780943485908,106.33006177845527 178.0203176085488,107.68751439168409 177.84376459597843,107.76978392529418 173.29121905652573,105.8638636218966 168.83956095285248,103.3957360596105 168.48645492759533,103.42315988104383 167.4271368519403,102.95695436111419 164.52662307338323,102.68271526831086 161.5,102.10681184323039 167.61630079406314,102.99809018976521 168.90261560020735,103.3820241473586 173.51821578701492,105.90499880086281 176.84750116767827,107.27616617218882 177.66721158334985,107.86576500133378 178.00770667917095,107.75607233893243 178.56258757587057,106.49460202235787 178.9787482485408,106.27521499778959 182.44675385334995,106.43975529070303 184.4014479215257,107.15276152703154 188.5,107.26245454901073 184.37622606259538,107.23503129964229 182.30803362914594,106.45346697515924 178.96613731898833,106.27521499778959 178.6130312937894,106.43975529070303 178.0203176085488,107.79720709499088 177.56632414762862,107.81091867831128 172.53456328820903,105.50735835250816 168.95305931806797,103.46429560551769 168.4990658570896,103.49171941670647 167.5154133582837,103.02551407046849 161.55044371786062,102.14794786194398 167.75502101820894,103.01180213062617 168.44862213917077,103.4094479708292 168.85217188228853,103.36831223411718 173.50560485757887,105.91871052514762 177.85637552547269,107.89318815675506 178.66347501165,106.38490854275005 180.0128444652073,106.38490854275005 178.82741709484253,106.37119685320067 178.0203176085488,107.82463026058394 177.64198972447775,107.76978392529418 172.49673049978446,105.50735835250816 168.9152265296434,103.45058369837352 168.54950957500841,103.47800751162868 167.540635217214,103.01180213062617 164.71578701538965,102.68271526831086" stroke="yellow" stroke-linecap="round" stroke-linejoin="round" stroke-width="0.5"><title>2025-01-17 12.3km</title><desc>1737088953000</desc></polyline><polyline fill="none" points="14.23033707862487,132.42302440077765 14.407303370768204,132.120654267419 15.178370786481537,132.62918557113153 18.76825842697872,133.34387584461365 20.790730337030254,134.38841818661604 21.57443820219487,135.0068944171362 27.76825842697872,137.86560205288697 28.00842696626205,137.70067781642138 28.539325842633843,136.44999755834579 28.867977528017946,136.23009685630677 32.394662921258714,136.44999755834579 34.328651685325895,137.1646730297216 38.48735955049051,137.23339167913946 34.417134831426665,137.1646730297216 32.24297752807615,136.44999755834579 28.96910112357,136.285072056402 28.589887640438974,136.42250998494274 27.995786516810767,137.79688363893365 27.831460674118716,137.85185837215977 23.217696629173588,135.87275765649974 18.80617977521615,133.3851078912994 17.352528089890257,133.01401913940208 11.5,132.18937479579472 17.23876404494513,132.95904296450317 18.43960674153641,133.3851078912994 18.780898876371793,133.34387584461365 23.723314606701024,136.06517115778115 26.731741572963074,137.24713540593802 27.629213483131025,137.8243710076058 27.97050561796641,137.74190888936573 28.514044943789486,136.4362537721463 28.89325842692051,136.24384065787308 32.26825842697872,136.44999755834579 34.30337078642333,137.15092929675302 38.5,137.20590422245732 34.36657303367974,137.15092929675302 32.38202247186564,136.50497269288462 28.98174157302128,136.2575844584353 28.589887640438974,136.44999755834579 27.869382022472564,137.87934573259554 23.41994382016128,135.96896443222067 18.84410112357,133.45382794861507 18.224719101097435,133.42633992875926 17.554775280877948,133.04150722068152 13.067415730387438,132.39553622729727" stroke="#4DD2FF" stroke-linecap="round" stroke-linejoin="round" stroke-width="0.5"><title>2025-01-15 9.1km</title><desc>1736916504000</desc></polyline><polyline fill="none" points="51.35384615382645,132.0163992854359 51.53006993007148,132.31750124892278 52.14685314684175,132.6870348022203 55.23076923075132,133.193431427193 56.90489510493353,133.74088566757564 58.893706293660216,135.0410829497123 65.1748251747922,137.91517060415936 65.45174825174036,137.84674046823056 65.98041958041722,136.61499366331554 66.40839160839096,136.38232945061463 69.88251748250332,136.6013075413066 71.7832167831948,137.3540427372791 76.0,137.44984517733974 71.73286713287234,137.3951009320008 69.84475524473237,136.64236590423388 66.39580419572303,136.38232945061463 65.98041958041722,136.61499366331554 65.38881118874997,137.92885662827757 64.99860139854718,137.92885662827757 60.8699300698936,136.09492031051195 56.30069930071477,133.54927686903102 56.036363636376336,133.6313949500327 54.437762237736024,133.1249995324033 49.0,132.35856056932244 53.55664335662732,132.9060172978352 56.27552447555354,133.50821781477134 60.341258741216734,135.75276598599157 65.2503496503341,137.9836007145641 65.53986013983376,137.81936840673734 66.13146853150101,136.4370739977603 67.41538461536402,136.4644462652068 66.16923076921375,136.49181852857873 65.35104895103723,137.96991469453496 60.55524475523271,136.012803330741 56.37622377619846,133.57664956674853 54.90349650348071,133.152372293378 50.938461538462434,132.60491629906755" stroke="#4DD2FF" stroke-linecap="round" stroke-linejoin="round" stroke-width="0.5"><title>2025-01-14 7.8km</title><desc>1736829619000</desc></polyline><polyline fill="none" points="90.19209302327363,132.72654975694604 89.97860465117265,132.4261489259079 90.48093023255933,132.4807672954339 94.70046511630062,133.83256675465964 97.29999999998836,135.11608428576437 98.45534883724758,135.92169176170137 102.6372093023383,137.83328855168656 102.91348837205442,137.75136338391167 103.47860465117265,136.46786430753127 103.84279069764307,136.24939548449765 107.246046511631,136.46786430753127 108.87860465119593,137.13692345813615 110.04651162790833,137.28712007463037 113.5,137.28712007463037 109.11720930231968,137.17788618394115 107.25860465120059,136.46786430753127 103.88046511629364,136.23574117440148 103.516279069765,136.3859385294054 102.92604651162401,137.75136338391167 102.57441860466497,137.76501758108498 98.36744186043506,135.94900042764493 94.5246511628502,133.84622124377347 92.59069767442998,133.0406046447606 86.5,132.18036606154055 92.6660465116147,133.06791374000022 94.5246511628502,133.7642942937382 97.89023255812936,135.66225923228194 102.59953488374595,137.79232597236114 102.90093023260124,137.71040078626538 103.40325581392972,136.48151860031066 103.76744186051656,136.24939548449765 107.35906976746628,136.48151860031066 109.24279069766635,137.19154042382434 113.37441860465333,137.30077430640813 109.15488372097025,137.15057770107524 107.27116279071197,136.44055571890203 103.75488372094696,136.23574117440148 103.45348837209167,136.4132471261546 102.86325581400888,137.79232597236114 102.38604651164496,137.75136338391167 101.74558139534201,137.3144285371527 98.19162790698465,135.89438309169782 93.72093023255002,133.36831351909495 92.37720930232899,132.99964099425415 86.55023255816195,132.16671144829888 93.746046511631,133.35465899437258 98.21674418606563,135.8124570572254 101.78325581399258,137.28712007463037 102.61209302331554,137.81963435962098 102.90093023260124,137.73770918569062 103.45348837209167,136.39959282831114 103.80511627910892,136.23574117440148 107.18325581395766,136.4132471261546 108.92883720929967,137.10961496920208 109.9837209302932,137.218848900593 108.87860465119593,137.10961496920208 107.1455813953653,136.4132471261546 103.83023255813168,136.19477823805937 103.47860465117265,136.3586299285671 102.91348837205442,137.68309238275106 102.46139534882968,137.69674658500298 101.29348837211728,137.05499797906668 98.21674418606563,135.86707441759063 93.70837209298043,133.36831351909495 91.975348837208,132.93136822307133" stroke="yellow" stroke-linecap="round" stroke-linejoin="round" stroke-width="0.5"><title>2025-01-10 13.0km</title><desc>1736482744000</desc></polyline><polyline fill="none" points="126.58644859812921,131.96141392319987 127.8228971962817,132.798237346753 129.96775700937724,133.20978845492937 132.07476635515923,134.01916961750248 134.35841121495469,135.37727577805344 140.2630841122009,138.03858607680013 140.54065420560073,137.81909802286827 140.65420560748316,136.61190904994146 140.81822429905878,136.4061374128505 144.79252336453646,136.66678144766774 146.87429906544276,137.43499329901533 150.93691588786896,137.5310195550701 146.6976635514293,137.39383917392115 144.79252336453646,136.68049954454182 140.89392523368588,136.39241929554555 140.64158878510352,136.68049954454182 140.54065420560073,137.87397006087122 140.2630841122009,138.03858607680013 135.74626168224495,136.1180567345873 131.3051401869161,133.6350569669885 129.91728971962584,133.20978845492937 124.0,132.38668531864823 130.2453271028353,133.23722516276757 130.86355140188243,133.58018366577744 131.29252336447826,133.58018366577744 135.82196261687204,136.06318417331204 140.07383177569136,137.98371408780804 140.5028037383454,137.87397006087122 140.62897196266567,136.62562715091917 140.85607476637233,136.41985552910774 144.79252336453646,136.68049954454182 146.97523364488734,137.43499329901533 151.0,137.4898654514691 146.63457943929825,137.38012113017612 144.7799065420404,136.62562715091917 140.90654205612373,136.41985552910774 140.6920560747967,136.55703663584427 140.67943925235886,137.5310195550701 140.35140186920762,138.02486808106187 135.65794392529642,136.07690231518063 131.3303738317918,133.6213386432355 129.8289719626191,133.20978845492937 124.0,132.34553006525675 128.41588785045315,132.9079843988875 131.24205607484328,133.5527470090601 135.39299065427622,135.87113008019514 140.09906542062527,137.98371408780804 140.4523364486522,137.8876880677999 140.72990654211026,137.20178646860586 140.4523364486522,137.95627808723657 139.8971962617361,137.87397006087122 135.7336448598653,136.09062045598694 131.3051401869161,133.53902867915167 131.0149532710202,133.60762031842023 130.04345794394612,133.14119666744955 128.44112149538705,132.9628579003911" stroke="yellow" stroke-linecap="round" stroke-linejoin="round" stroke-width="0.5"><title>2025-01-08 12.0km</title><desc>1736310892000</desc></polyline><polyline fill="none" points="164.3779803646612,133.33933692522987 164.75666199158877,132.73544648638926 164.80715287517523,132.14527891749458 165.0469845722546,131.93940606489195 165.32468443200924,131.99430551474507 165.19845722295577,132.09037951262144 166.42286115005845,132.55702393241518 167.05399719497655,133.07856629676826 169.64165497897193,133.98439952534682 173.9333800841705,136.3038612754026 177.79593267879682,138.0194207050954 178.04838709672913,137.77238113178464 178.08625525946263,136.63324992507114 178.43969144462608,136.39993302573566 182.3022440392524,136.67442346489406 184.32187938288553,137.44299451877305 188.5,137.52534122725774 184.2966339411214,137.4155456078006 182.35273492283886,136.701872486301 178.38920056103962,136.44110661765444 178.12412342213793,136.71559699546196 178.08625525946263,137.77238113178464 177.87166900420561,138.06059393510805 173.13814866764005,136.04309484337864 168.80855539970798,133.61383192476933 168.32889200560749,133.61383192476933 167.4453015428153,133.1883645011112 161.5,132.43350052455207 167.6220196353388,133.3118874027423" stroke="#4DD2FF" stroke-linecap="round" stroke-linejoin="round" stroke-width="0.5"><title>2025-01-06 5.2km</title><desc>1736137119000</desc></polyline><polyline fill="none" points="14.994859813072253,162.928562635876 15.05794392520329,162.4072630507144 15.47429906547768,161.78993268574413 15.777102803695016,162.8599706695386 15.348130841099191,163.14805675648677 16.14299065421801,163.10690162880928 18.76728971960256,163.73794590907346 22.325233644864056,165.41157461293915 22.993925233662594,166.00145651404455 27.78831775696017,168.12775931242504 28.07850467285607,167.94942518226162 28.128971962607466,166.79710817785235 28.36869158875197,166.5776184071001 32.51962616824312,166.86569867758953 34.51308411208447,167.62019248823344 38.5,167.68878268137632 34.34906542056706,167.59275640384294 32.38084112148499,166.82454438084096 28.419158878503367,166.5776184071001 28.17943925235886,166.78339007488103 28.091121495352127,167.94942518226162 27.83878504676977,168.196349316524 23.309345794434194,166.33069210224494 19.600000000034925,164.2318051415641 17.73271028039744,163.47729744679236 11.5,162.5032920325757 15.739252336439677,163.02459134583478 18.74205607478507,163.69679091326543 22.55233644862892,165.80940214906877 26.95560747658601,167.72993678499188 27.636915887880605,168.21006731427042 28.06588785047643,167.90827112768602 28.17943925235886,166.7147995444975 28.356074766314123,166.53646404594474 31.157009345770348,166.86569867758953 32.38084112148499,166.79710817785235 34.412149532698095,167.5790383600979 38.48738317756215,167.6476285685494 34.071495327109005,167.51044812609325 32.305140186916105,166.82454438084096 28.457009345816914,166.53646404594474 28.17943925235886,166.74223575972428 28.141588784987107,167.86711706395727 27.864018691587262,168.1414773153083 23.37242990656523,166.3169739645091 19.625233644852415,164.1494953614456 18.07336448598653,163.55960752739338 11.66401869157562,162.57188413178665" stroke="#4DD2FF" stroke-linecap="round" stroke-linejoin="round" stroke-width="0.5"><title>2025-01-03 9.5km</title><desc>1735878536000</desc></polyline><polyline fill="none" points="51.69367681501899,162.38056400204368 53.274473067955114,162.8205805155012 55.08290398126701,162.98558643754222 55.95550351293059,163.42560150848294 56.28430913347984,163.38435014015704 60.04028103046585,165.46065756570897 65.08618266979465,167.78444413695252 65.46557377051795,167.71569347495097 65.98407494142884,166.46442695207952 66.36346604221035,166.244423170152 69.75269320845837,166.45067672338337 71.76346604217542,167.2069377801672 76.0,167.33068929443834 72.07962529273937,167.22068795251835 69.90444964868948,166.51942785659048 66.38875878223917,166.31317438014958 65.98407494142884,166.53317808016436 65.31381733022863,167.83944464811066 60.40702576114563,165.77691426275123 56.27166276349453,163.46685286761203 55.94285714288708,163.49435376854672 54.9311475410359,163.01308741021785 53.502107728330884,162.94433497085993 49.0,162.1605553519039 55.032318501209375,162.9993369243748 56.81545667449245,163.83811468470958 55.14613583142636,163.04058837877528 51.440749414497986,162.47681770399504" stroke="#4DD2FF" stroke-linecap="round" stroke-linejoin="round" stroke-width="0.5"><title>2025-01-02 5.6km</title><desc>1735817809000</desc></polyline><polyline fill="none" points="89.61635514016962,162.48957241272728 92.61915887851501,162.9834340737143 93.50233644858235,163.44985775944951 94.34766355139436,163.60075928716105 98.94018691591918,166.12491196051997 102.81355140183587,167.7985158522206 103.1415887849871,167.45556547415617 103.5074766355101,166.5364553113759 103.94906542054377,166.31696563870355 107.19158878503367,166.42671050774516 109.56355140189407,167.29094906584942 113.5,167.318385144099 111.96074766351376,167.4144113858638 109.33644859812921,167.24979494075524 107.36822429904714,166.48158291775326 103.96168224303983,166.28952941122407 103.57056074764114,166.44042861179332 102.99018691590754,167.74364383463399 102.77570093463873,167.83966985462757 96.59345794393448,165.12348596453376 93.75467289716471,163.44985775944951 93.35093457950279,163.4772944100696 92.48037383181509,163.03830750983616 86.5,162.1466121465637 92.02616822428536,162.9148422555736 93.45186915888917,163.4224211047549 93.75467289716471,163.34011111616564 97.80467289721128,165.61734056101704 102.77570093463873,167.8533878534363 103.60841121495469,166.39927429663658 103.94906542054377,166.26209317967005 104.90794392518,166.38555618951796 103.58317757007899,166.3718380814098 102.99018691590754,167.71620781972888 102.76308411214268,167.78479784933734 98.18317757011391,165.8505492155964 93.94392523361603,163.49101273382257 93.37616822432028,163.44985775944951 92.36682242993265,162.99715243428363 91.28177570091793,163.03830750983616 86.87850467290264,162.1877674122661 89.65420560748316,162.70906664781796" stroke="#4DD2FF" stroke-linecap="round" stroke-linejoin="round" stroke-width="0.5"><title>2024-12-31 8.0km</title><desc>1735619151000</desc></polyline><polyline fill="none" points="127.75981308415066,162.68163005549286 128.68084112153156,162.70906681849738 131.31775700941216,163.32639290584484 132.8570093458402,164.14949113606417 133.29859813087387,164.60219359426992 140.36401869158726,167.79851564374985 141.0327102803858,166.49530090630287 141.41121495328844,166.28952931518143 144.9060747664189,166.48158280736243 146.6471962616779,167.1812045493425 150.98738317762036,167.2909488951409 146.81121495331172,167.24979477316083 144.8808411215432,166.49530090630287 141.4238317757845,166.28952931518143 141.0579439252615,166.45414660645474 140.30093457951443,167.8533876408619 136.03644859814085,166.02888496963715 132.1757009346038,163.9025620533357 129.9299065420637,163.01087094201648 124.0,162.14661235915264 128.7691588785383,162.7639403322828 131.27990654209862,163.34011123984237 136.03644859814085,165.91913987169391 140.187383177632,167.83966964311549 140.5028037383454,167.7162076173845 141.0327102803858,166.48158280736243 141.46168224303983,166.2483749693638 144.83037383185,166.45414660645474 146.87429906544276,167.2086406419403 151.0,167.2223586866894 147.02570093463873,167.23607673043443 144.81775700935395,166.48158280736243 141.3985981308506,166.26209308562102 141.0327102803858,166.45414660645474 140.4775700934697,167.70248960940808 140.27570093458053,167.79851564374985 135.7084112149896,165.87798544309044 131.3808411215432,163.4498578749335 129.48831775703002,162.98343422396283 124.20186915888917,162.21520445837814 129.76588785048807,162.96971586337895 130.92663551407168,163.4361395491287 131.41869158885675,163.38126623566495 135.43084112147335,165.60362235069624 131.3556074766675,163.4087028944341 127.54532710282365,162.6953484374826" stroke="yellow" stroke-linecap="round" stroke-linejoin="round" stroke-width="0.5"><title>2024-12-30 10.8km</title><desc>1735533491000</desc></polyline><polyline fill="none" points="165.2905783582246,162.63118403371482 167.7588619403541,163.04196738389146 168.4514925373369,163.43905708294187 168.8041044776328,163.39797887799796 169.52192164183361,163.69921883432835 172.6072761194664,165.4518778778147 177.61940298508853,167.75221750879427 177.98460820899345,167.76590992040292 178.5135261194082,166.46512626300682 178.9291044776328,166.23235347957234 182.2411380596459,166.45143375448242 184.2182835820713,167.21821266037296 188.5,167.28667490713997 184.38199626869755,167.21821266037296 182.36707089556148,166.47881877052714 178.87873134331312,166.2597385282279 178.53871268656803,166.46512626300682 178.0979477612418,167.57421606502612 177.75792910443852,167.8206795566366 173.04804104479263,165.83526981562318 169.69822761195246,163.9183021288336 167.78404850745574,163.13781670015305 161.5,162.15193563136563 167.56996268656803,163.02827462034475 169.98787313431967,163.9183021288336 172.5317164179287,165.4518778778147 177.72014925372787,167.84806436863437 177.97201492532622,167.77960233097838 178.55130597011885,166.47881877052714 178.90391791041475,166.3145086132572 182.34188432834344,166.50620378245367 184.23087686568033,167.23190511175198 188.46222014923114,167.27298245980637 187.17770522390492,167.3825220097351 184.2938432835508,167.23190511175198 182.32929104479263,166.45143375448242 178.91651119402377,166.2597385282279 178.56389925378608,166.41035622282652 177.98460820899345,167.7385250961379 177.6068097014795,167.7932947405643 173.5265858208877,166.01327294346993 172.1916977611836,165.19171860741335 167.7588619403541,163.0830456684198 162.1422574626631,162.28886387386592" stroke="#4DD2FF" stroke-linecap="round" stroke-linejoin="round" stroke-width="0.5"><title>2024-12-27 9.1km</title><desc>1735273142000</desc></polyline><polyline fill="none" points="33.21355140185915,196.6256229057908 32.22943925234722,196.3512609988975 31.182242990646046,196.47472390759503 28.721962616837118,196.24151612172136 27.85140186920762,197.80537444740185 23.271495327120647,195.93971737210813 18.729439252289012,193.4429996527906 18.363551401882432,193.4841546148964 17.379439252370503,193.0451678782265 11.5,192.11231758758368 15.613084112177603,192.77080063631 16.016822429955937,192.7022087619407 18.90607476636069,193.4292813300417 22.12336448597489,195.04803635863937 22.602803738380317,195.4870183202729 27.57383177569136,197.76422045107756 27.939719626156148,197.73678444843972 28.444392523320857,196.47472390759503 28.84813084109919,196.2277980074432 32.330373831733596,196.4472877128428 34.46261682244949,197.24293570168084 38.5,197.35267998208292 34.04626168223331,197.16062744848023 32.481775700929575,196.48844200343592 28.835514018661343,196.24151612172136 28.570560747699346,196.3238247857371 28.002803738345392,197.7779384508467 27.75046728970483,197.88768241243088 26.665420560748316,197.24293570168084 23.120093457924668,195.84369039350713 18.969158878549933,193.41556300628872 16.117757009342313,192.77080063631 13.12757009343477,192.37296740929014" stroke="#4DD2FF" stroke-linecap="round" stroke-linejoin="round" stroke-width="0.5"><title>2024-12-25 6.6km</title><desc>1735101299000</desc></polyline><polyline fill="none" points="51.8035547240288,192.3499114674487 51.70252572494792,192.59707365858776 51.86669784842525,192.54214875587786 52.10664172121324,192.14394272156642 52.87698783905944,192.67946098199172 53.735734331130516,192.72065462985483 56.37511693168199,193.39348290860653 61.047708138416056,195.9474617716769 65.34144059871323,197.80113394290674 65.51824134704657,197.78740310648573 66.04864359210478,196.482968980461 66.4401309635141,196.27700485353125 69.82460243214155,196.46923804581456 72.00935453694547,197.29309231344087 76.0,197.3617466695432 71.81992516369792,197.25189968752966 69.69831618334865,196.4555071101786 66.32647333963541,196.29073580245313 66.04864359210478,196.42804523576342 65.48035547242034,197.71874890891195 65.25304022448836,197.75994143051503 60.593077642668504,195.8376139467582 57.094948550045956,193.80541737709427 55.1122544434038,193.0090099072404 49.0,192.15767397846503 51.07109448075062,192.47349260444753 52.056127221672796,192.44603013670712 55.528999064525124,193.13259060231212 57.10757717490196,193.75049283450062 61.43919550976716,196.139695307691 65.13938260055147,197.78740310648573 65.53086997190258,197.74621059102356 66.16230121609988,196.34565958805615 67.45042095414829,196.34565958805615 66.2001870907261,196.30446675040002 65.46772684750613,197.85605727841903 60.92142188962316,195.97492371764383 58.47146866226103,194.533166021356 55.23854069219669,193.1051282327826 49.03788587456802,192.17140523433045 54.2282507015625,192.9128915315814" stroke="#4DD2FF" stroke-linecap="round" stroke-linejoin="round" stroke-width="0.5"><title>2024-12-18 8.3km</title><desc>1734495982000</desc></polyline><polyline fill="none" points="89.34608208958525,191.22766501444858 88.88013059698278,191.33720875928702 89.04384328360902,191.2002790680126 88.88013059698278,191.30982282919285 88.77938432834344,191.15920014071162 88.82975746266311,191.29612986261782 89.84981343284016,192.00816277172999 92.07882462686393,192.9940499374352 92.60774253733689,193.82931131424266 93.19962686568033,194.294865188087 93.85447761195246,194.39071436863742 98.47621268656803,196.8827755178354 102.65718283585738,198.75864541104238 102.9594216417754,198.77233782161784 103.55130597017705,197.45786175366084 103.91651119402377,197.25247401886736 107.41744402988115,197.47155426118115 109.62126865674509,198.2383330527955 113.5,198.3067952893325 109.28125,198.2383330527955 107.41744402988115,197.48524676763918 103.85354477621149,197.26616654163809 103.48833955224836,197.47155426118115 102.85867537313607,198.827107453777 96.67537313431967,196.23922450137616 96.24720149248606,195.81475344867795 94.69822761201067,194.9384230129217 92.83442164183361,194.19901595752162 86.5,193.17205677866878 92.51958955224836,193.966239046611 93.57742537319427,194.43179257358133 93.80410447763279,194.3633288935671 98.52658582094591,196.9375457130518 101.77565298503032,198.224640602406 102.6697761194082,198.77233782161784 103.00979477615329,198.69018334276916 103.63945895520737,197.37570668727858 104.94916044780985,197.33462914035772 103.71501865668688,197.4167842250754 103.06016791047296,198.84079985928838 102.49347014923114,198.79972263977106 98.22434701491147,196.96493080456275 97.05317164183361,196.1981467004225 92.79664179106476,194.1305521907925 86.60074626863934,193.26790654481738 92.60774253733689,193.99362458083488" stroke="#4DD2FF" stroke-linecap="round" stroke-linejoin="round" stroke-width="0.5"><title>2024-12-17 8.6km</title><desc>1734409492000</desc></polyline><polyline fill="none" points="127.32928538066335,192.51817044784548 130.02802428771975,192.943241374247 131.01167678658385,193.4094470678392 131.33956095285248,193.31346363923512 136.01821578707313,195.89128691218502 140.2680990191875,197.72864954722172 140.49509574961849,197.7012263591605 141.07519850536482,196.34377344252425 141.3904717421974,196.16552130579657 145.0476412891294,196.4260436012264 146.87622606259538,197.1253384656884 151.0,197.19389664274058 150.59645025688224,197.33101292021456 146.86361513310112,197.19389664274058 144.7071461933665,196.3986202190863 141.46613731904654,196.26150324700575 140.97431106958538,196.56316045073618 140.43204110232182,197.72864954722172 140.21765530126868,197.79720749956323 136.39654367114417,196.1792330147291 131.26389537600335,193.43687089538435 130.59551611403003,193.35459940048167 129.88930406357395,192.943241374247 124.0,192.13423457366298 129.97758056985913,192.9295294242038 130.82251284446102,193.38202323621954 131.31433909392217,193.3408874810848 135.98038299864857,195.87757518180297 140.1798225128441,197.71493795371498 140.53292853804305,197.68751476357284 140.96170014009112,196.522025406608 141.3904717421974,196.1929447226721 145.08547407761216,196.4260436012264 146.83839327422902,197.1253384656884 150.92433442315087,197.23503153667843 147.06539000466,197.19389664274058 144.85847734706476,196.3986202190863 141.37786081276136,196.2340798403311 141.06258757592877,196.384908526481 140.4068192433915,197.79720749956323 135.89210649230517,195.94613382358511 131.2765063054976,193.43687089538435 130.1541335824877,193.03922499594046 124.15133115369827,192.16165859125613 129.9523587108706,192.943241374247 130.83512377395527,193.38202323621954 131.37739374127705,193.39573515253142 136.51004203641787,196.1243861727853 140.1798225128441,197.75607273122296 140.53292853804305,197.7012263591605 140.96170014009112,196.30263834937068 142.42456795898033,196.33006174581533 141.08780943485908,196.3574851381709 140.45726296119392,197.86576542633702 135.8542737038806,195.9324220972776 131.32695002335822,193.42315898214292 130.92340028024046,193.43687089538435 129.9271368519403,192.95695332325704 124.15133115369827,192.2165066141315 129.83886034565512,192.9295294242038" stroke="yellow" stroke-linecap="round" stroke-linejoin="round" stroke-width="0.5"><title>2024-12-15 13.0km</title><desc>1734235831000</desc></polyline><polyline fill="none" points="164.16977611935,192.24093879183056 164.16977611935,192.39155978562485 165.3031716417172,192.7338797669654 166.82695895514917,193.0488135866326 167.6203358208295,192.9940425263194 168.38852611935,193.43221055172035 168.82929104473442,193.44590328568302 174.04291044775164,196.22550715645775 177.78311567165656,197.81383335187274 178.0223880596459,197.80014094332 178.526119402959,196.58151249715593 178.90391791041475,196.33504733472364 182.3796641791123,196.51304998520936 184.38199626863934,197.27982866256207 188.5,197.36198333113862 184.30643656715984,197.27982866256207 182.48041044775164,196.52674248961557 178.84095149260247,196.28027725375432 178.48833955219015,196.44458744773874 177.8838619402959,197.84121816587867 173.48880597011885,196.04750422752113 169.39598880591802,193.76083588520123 167.53218283579918,193.0351208230859 161.5,192.15878183410678 164.69869402976474,192.48740944467136 167.53218283579918,192.95296422039974 168.80410447757458,193.36374686662748 172.67024253727868,195.4724166635715 176.53638059698278,197.170289047368 177.49347014923114,197.77275612315862 178.00979477609508,197.71798647058313 178.47574626863934,196.58151249715593 178.8661380597041,196.30766229631263 182.3166977611836,196.45827995723812 184.19309701496968,197.23875131450768 185.6287313432549,197.25244376489718 184.09235074627213,197.1976739572856 182.29151119402377,196.48566497328284 179.0046641791123,196.28027725375432 178.48833955219015,196.43089493717707 177.85867537313607,197.78644853373407 173.2495335820713,195.91057878026913 168.82929104473442,193.47328875052335 167.50699626858113,193.0351208230859 165.5172574626049,192.78865090479667" stroke="#4DD2FF" stroke-linecap="round" stroke-linejoin="round" stroke-width="0.5"><title>2024-12-13 8.5km</title><desc>1734064159000</desc></polyline><polyline fill="none" points="14.420642418437637,222.54550260807446 17.200991969788447,222.94765770706 19.1140765233431,223.5439550475421 23.093292394885793,225.79045345360646 27.544402456318494,227.75958407904545 27.90151157299988,227.77345112225157 28.4754369391012,226.45607740404375 28.83254605572438,226.27580448583467 32.33986773737706,226.45607740404375 34.099905526672956,227.17716733105772 38.5,227.26036983520316 34.520784128515515,227.23263567127287 32.21232876711292,226.44221026268497 28.743268776626792,226.26193733104446 28.373405762889888,226.3867416869616 27.95252716104733,227.57931242320046 27.646433632529806,227.85665335986414 26.740906943799928,227.34357230215392 23.080538497830275,225.91525812564942 19.381908360868692,223.79356732050655 17.417808219150174,223.1140664593695 19.369154463813175,223.73809795544366 21.715871516324114,225.15256160090212 26.766414737852756,227.32970522687538 27.506140765268356,227.81505224571447 27.876003778888844,227.73184998950455 28.449929144990165,226.22033586050384 27.850495984894224,227.6902488474443 27.531648559321184,227.77345112225157 23.220831365091726,225.94299248582684 18.62942843651399,223.36367930888082 18.183042040618602,223.3775466795778 17.060699102526996,222.91992290054623 11.5,222.14334664013586" stroke="#4DD2FF" stroke-linecap="round" stroke-linejoin="round" stroke-width="0.5"><title>2024-12-11 6.6km</title><desc>1733890893000</desc></polyline><polyline fill="none" points="52.27387640444795,222.67728927131975 55.168539325823076,223.00714664009865 55.800561797688715,223.3782354749419 56.31882022472564,223.3644914573233 61.071629213460255,225.98958024053718 65.31882022466743,227.83124326927646 66.0140449438477,226.40189445612486 66.38061797746923,226.23696888047562 70.00842696626205,226.45686961528554 71.86657303367974,227.18528892709583 75.96207865170436,227.28149503628083 72.01825842697872,227.18528892709583 70.0463483146159,226.52558854113158 66.11516853928333,226.36066307603323 65.41994382016128,227.87247432072763 60.98314606741769,226.0170678835857 59.706460674176924,225.15120516030584 56.28089887637179,223.44695554762438 56.00280898879282,223.51567559471005 54.91573033708846,223.07586685102433 49.1264044943382,222.25122263029334 53.92977528087795,222.80098585372616 56.28089887637179,223.35074743870064 59.59269662917359,224.98627846651652 60.97050561796641,225.90711728684255 65.2176966292318,227.80375589654432 65.48314606741769,227.7075500596984 66.03932584269205,226.48435718867404 66.38061797746923,226.23696888047562 68.59269662917359,226.45686961528554 69.71769662917359,226.36066307603323 71.92977528087795,227.1990326600644 76.0,227.26775130948226 71.71488764043897,227.17154519312317 69.98314606741769,226.48435718867404 66.35533707862487,226.2507126841083 66.03932584269205,226.37440687044 65.59691011230461,227.6113441726775 65.35674157302128,227.81749958344153 61.41292134829564,226.16824984710547 59.04915730335051,224.75263206461386 56.255617977527436,223.3782354749419 54.23314606741769,222.86970614145685 49.0,222.12752567925781 55.45926966291154,223.06212281090848 65.0154494381859,227.73503744676418 65.48314606741769,227.65257527322683 66.03932584269205,226.22322507583885 65.50842696626205,227.7075500596984 65.24297752807615,227.76252482976997 61.12219101120718,226.0170678835857 56.293539325881284,223.33700341904478 51.88202247186564,222.5948248369532" stroke="yellow" stroke-linecap="round" stroke-linejoin="round" stroke-width="0.5"><title>2024-12-09 12.1km</title><desc>1733738831000</desc></polyline><polyline fill="none" points="97.73515551368473,225.51881740322278 102.81196983973496,227.8153353616508 103.3972667294438,226.48723205341958 103.85532516491367,226.23821162570675 107.1380772855482,226.37655634898692 109.13572101783939,227.16511930373963 113.5,227.31729773411644 109.5556079170201,227.23429133299214 107.35438265779521,226.47339759395982 103.89349670126103,226.2935495273996 103.46088595659239,226.43189420946874 102.8374175306526,227.8430040795938 98.81668237509439,226.16903922545316 93.701696512755,223.40212208482262 93.24363807722693,223.4159567730967 92.6583411875763,223.028585112188 89.03204524033936,222.5443693996349 88.57398680486949,222.3230132247554 88.35768143262248,222.50286513693572 86.76720075402409,222.2538393659779 90.53345900092972,222.64121264315327 93.701696512755,223.34678332146723 97.03534401510842,224.9931044781988 97.97690857684938,225.68483170191757 102.62111215834739,227.8153353616508 102.92648444860242,227.69082607999735 103.46088595659239,226.40422528130875 103.75353440147592,226.1828737075557 104.88595664460445,226.37655634898692 107.32893496699398,226.39039081564988 109.36475023563253,227.17895371167106 113.41093308193376,227.26196013748995 109.26295947219478,227.13745048482087 107.32893496699398,226.4180597458908 103.84260131948395,226.26588057864865 103.3209236569237,226.70858326436428 102.82469368516468,227.8430040795938 98.09142318571685,225.79550781860598 93.68897266726708,223.40212208482262 93.39632422244176,223.4574608316616 91.75494816206628,222.9179073463456 86.5,222.1569959204062 91.99670122528914,222.9179073463456 93.28180961351609,223.38828739552991 93.76531573984539,223.37445270523313 95.40669180022087,224.27370543213328" stroke="#4DD2FF" stroke-linecap="round" stroke-linejoin="round" stroke-width="0.5"><title>2024-12-06 9.2km</title><desc>1733479157000</desc></polyline><polyline fill="none" points="126.73913043469656,222.56388643894752 130.17251051886706,222.9756298893044 130.90462833095808,223.42854662169702 131.30855539970798,223.34619820771331 136.01683029450942,225.98132919649652 140.13183730712626,227.80668429371144 140.54838709672913,227.68316459449125 140.99018232815433,226.50286106974818 141.46984572231304,226.31071791979775 144.877980364603,226.4754120605794 146.7966339410632,227.20280942133104 151.0,227.3400538843125 146.84712482464965,227.20280942133104 144.85273492278066,226.5165855727828 141.4067321177572,226.29699340139632 140.964936886332,226.57148357472033 140.3338008414721,227.83413310452306 135.67601683025714,225.85780827343115 134.61570827488322,225.130405602089 131.32117812056094,223.4559960848419 130.95511921454454,223.48344554388314 130.03366058901884,223.04425370819808 124.0,222.1658668954624 130.03366058901884,223.03052894645953 131.9270687236567,223.82656343693088 131.3716690041474,223.4559960848419 126.75175315560773,222.5776112354797" stroke="#4DD2FF" stroke-linecap="round" stroke-linejoin="round" stroke-width="0.5"><title>2024-12-03 5.6km</title><desc>1733220329000</desc></polyline><polyline fill="none" points="165.02447552455124,222.7007196889026 167.57972027972573,222.97444764526153 168.44825174828293,223.48084328924597 169.55594405595912,223.61770673717547 170.75174825178692,224.3978264432517 172.38811188808177,225.01370808160573 173.43286713288398,225.8211942124908 177.92657342663733,227.79199291770055 178.49300699302694,226.57393232446339 178.9461538462201,226.2728374497965 182.38251748256152,226.46444333624095 184.49720279726898,227.24455095360463 187.4552447553142,227.2171788125852 188.5,227.299295223449 188.1853146853391,227.38141159756924 184.37132867134642,227.27192309054954 182.38251748256152,226.51918783852307 178.9335664336104,226.32758200916578 178.55594405601732,226.5055017144623 177.976923077018,227.80567894590786 177.70000000001164,227.833050999252 173.0426573426812,225.83488038752694 170.52517482516123,224.3978264432517 167.4664335664711,223.0291931875836 161.5,222.19432189429062 167.68041958048707,223.00182041845983 169.4678321678657,223.8230017178721 167.44125874125166,223.0702523336222 161.52517482516123,222.16694900076254 165.17552447557682,222.67334687081166" stroke="#4DD2FF" stroke-linecap="round" stroke-linejoin="round" stroke-width="0.5"><title>2024-12-02 6.1km</title><desc>1733112856000</desc></polyline><polyline fill="none" points="11.5,251.28143743368855 12.299999999988358,251.61488187905343 14.14000000001397,254.0794535371242 13.979999999981374,253.91998219798552 14.326666666660458,253.90548479702557 14.78000000002794,253.3545827605849 16.433333333348855,253.60103912759223 17.046666666632518,254.00696658098605 18.27333333331626,254.25342212164833 19.593333333265036,255.07977077427495 21.19333333329996,255.68865700965398 22.033333333325572,256.42801630546455 26.83333333331393,258.6170832394564 27.220000000030268,258.6170832394564 27.80666666664183,257.26885287500045 28.19333333329996,257.0803898218437 31.88666666665813,257.26885287500045 34.16666666662786,258.0806916326401 38.5,258.12418289908965 34.19333333335817,258.10968581135967 31.899999999965075,257.2978471746319 28.233333333337214,257.109384149604 27.83333333331393,257.2833500253473 27.11333333334187,258.71856256631145 22.52666666661389,256.7904463067971 19.419999999983702,255.03627882743604 16.313333333295304,253.61553655120952 12.540000000037253,253.16611591634864" stroke="#4DD2FF" stroke-linecap="round" stroke-linejoin="round" stroke-width="0.5"><title>2024-11-29 4.6km</title><desc>1732853630000</desc></polyline><polyline fill="none" points="51.28660287079401,254.12914340617135 51.09282296651509,254.24151509003423 51.919617224892136,254.25556154578226 51.20909090916393,254.1712827954907 51.855023923446424,254.2274686331948 51.77751196169993,254.4241189334134 52.81100478465669,253.0897021553974 55.23971291864291,252.92114357471291 56.01483253587503,253.342539743855 57.1129186602775,253.5672839822655 61.41483253589831,256.0254066001653 65.7296650717617,257.89355835648894 66.37559808616061,256.53107356419787 66.76315789471846,256.34847176140465 70.43205741629936,256.53107356419787 72.29234449757496,257.28957146753964 76.0,257.3317101504945 72.36985645932145,257.261479007022 70.16076555021573,256.4889347023418 66.71148325363174,256.2922865557339 66.40143540670397,256.4748884129367 65.7296650717617,257.8795121717267 61.15645933011547,256.0254066001653 56.42822966509266,253.3846793089615 55.00717703351984,252.9492366819468 49.0,252.1064416435256 55.13636363635305,252.92114357471291 55.924401913944166,253.32849322004768 56.75119617226301,253.4408653811115 60.08421052637277,255.21071808320994 55.09760765550891,252.97732978500426 51.855023923446424,252.54188621713547" stroke="#4DD2FF" stroke-linecap="round" stroke-linejoin="round" stroke-width="0.5"><title>2024-11-28 6.3km</title><desc>1732767063000</desc></polyline><polyline fill="none" points="86.68120805372018,251.77369205487776 90.66778523492394,252.44687454985979 91.57382550340844,252.92302678020496 91.9966442953446,252.89018872838642 96.14932885905728,254.92613868853368 97.58389261743287,255.87843140719633 102.83892617450329,258.1770520508435 103.57885906042065,256.5844388700061 104.122483221523,256.2889011375082 108.12416107376339,256.5023450951703 109.9664429530385,257.27402537131275 111.56711409392301,257.5367244233348 113.5,257.4874683749222 110.58557046978967,257.43821231552283 108.39597315434366,256.5844388700061 104.27348993293708,256.37099499189935 103.65436241606949,256.61727637136937 102.83892617450329,258.2263079451368 97.11577181209577,255.8127561793517 91.9966442953446,252.89018872838642 91.61912751680939,252.97228384877963 90.32046979869483,252.39761736385117 86.5,251.8886257971899" stroke="#4DD2FF" stroke-linecap="round" stroke-linejoin="round" stroke-width="0.5"><title>2024-11-25 4.0km</title><desc>1732507947000</desc></polyline><polyline fill="none" points="124.0,250.3820539493172 129.50401284114923,251.08889195811935 130.99919743184,251.96065665973583 131.8226324239513,251.86641194298863 133.33948635635898,252.36119639253593 134.9213483147323,253.49212937030825 137.91171749611385,254.78798510192428 140.23033707868308,256.3901266656467 145.47431781701744,258.43991359628853 147.22953451052308,259.5001430026896 147.6845906903036,259.311658034625 148.65971107548103,257.02626885892823 151.0,256.97914725885494 148.74638844304718,257.09695124591235 147.48956661322154,259.6179460506828 140.5770465490641,256.7435391532199 131.7792937400518,252.03134017882985 131.19422150892206,252.14914600894554 133.27447833074257,252.54968550303602 134.29293739970308,253.49212937030825 136.0914927769918,253.98691127626807 140.1869983949,256.437248353468 146.75280898890924,259.35877928716945 147.6845906903036,259.4530217712163 148.65971107548103,257.002708059852 147.61958266457077,259.6179460506828 140.6853932584636,256.69641751106246" stroke="#4DD2FF" stroke-linecap="round" stroke-linejoin="round" stroke-width="0.5"><title>2024-11-20 4.0km</title><desc>1732095798000</desc></polyline><polyline fill="none" points="163.0772703133407,252.06118933402468 167.06346255977405,252.63804590460495 168.02416356879985,253.12135694212338 168.68374933610903,253.18371957530326 172.36882634094218,255.00781837440445 173.34386617102427,255.7561620000488 178.59187466808362,258.0791282917635 178.83563462557504,258.04794770693115 179.42352628783556,256.67599737366254 179.85369091870962,256.34859880578006 183.83988316514296,256.56686457463366 185.9333510355791,257.4087446934136 188.5,257.50228671974037 185.89033457246842,257.4243350340548 183.61046202864964,256.55127417010954 179.939723844931,256.3641892253945 179.33749336161418,256.76953972753836 178.77827934140805,258.11030887201196 173.44423791824374,255.91206658522424 169.34333510353463,253.6202574873605 167.03478491771966,252.70040868186334 161.5,251.8896911280026" stroke="#4DD2FF" stroke-linecap="round" stroke-linejoin="round" stroke-width="0.5"><title>2024-11-19 4.1km</title><desc>1731989484000</desc></polyline></svg>