<?xml version="1.0" encoding="utf-8" ?>
<svg baseProfile="full" height="300mm" version="1.1" viewBox="0,0,200,300" width="200mm" xmlns="http://www.w3.org/2000/svg" xmlns:ev="http://www.w3.org/2001/xml-events" xmlns:xlink="http://www.w3.org/1999/xlink"><defs /><rect fill="#222222" height="300" width="200" x="0" y="0" /><text fill="#FFFFFF" style="font-size:12px; font-family:Arial; font-weight:bold;" x="10" y="20">Over 4km Runs</text><text fill="#FFFFFF" style="font-size:4px; font-family:Arial" x="10" y="280">ATHLETE</text><text fill="#FFFFFF" style="font-size:9px; font-family:Arial" x="10" y="290">Fake David</text><text fill="#FFFFFF" style="font-size:4px; font-family:Arial" x="65" y="280">SPECIAL TRACKS</text><rect fill="yellow" height="2.6" width="2.6" x="65" y="283" /><text fill="#FFFFFF" style="font-size:3px; font-family:Arial" x="70" y="285.5">Over 10.0 km</text><rect fill="red" height="2.6" width="2.6" x="65" y="287" /><text fill="#FFFFFF" style="font-size:3px; font-family:Arial" x="70" y="289.5">Over 15.0 km</text><text fill="#FFFFFF" style="font-size:4px; font-family:Arial" x="120" y="280">STATISTICS</text><text fill="#FFFFFF" style="font-size:3px; font-family:Arial" x="120" y="285">Number: 21</text><text fill="#FFFFFF" style="font-size:3px; font-family:Arial" x="120" y="290">Weekly: 2.3</text><text fill="#FFFFFF" style="font-size:3px; font-family:Arial" x="141" y="285">Total: 155.7 km</text><text fill="#FFFFFF" style="font-size:3px; font-family:Arial" x="141" y="290">Avg: 7.4 km</text><text fill="#FFFFFF" style="font-size:3px; font-family:Arial" x="167" y="285">Min: 4.0 km</text><text fill="#FFFFFF" style="font-size:3px; font-family:Arial" x="167" y="290">Max: 13.0 km</text><polyline fill="none" points="15.837307152862195,47.78578256696346 16.34221598872682,46.980595315180835 16.40953716688091,46.193705223326106 16.72931276296731,45.91920808653231 17.099579242640175,45.99240735299827 16.931276297254954,46.12050601684314 18.563814866705798,46.74269857654872 19.40532959328266,47.43808839569101 22.85553997196257,48.645866033795755 28.577840112149715,51.738481700536795 33.72791023837635,54.02589427346538 34.06451612897217,53.696508175722556 34.115007012558635,52.17766656677122 34.58625525946263,51.86657736764755 39.73632538563106,52.2325646198733 42.429172510514036,53.25732602503558 48.0,53.367121636343654 42.3955119214952,53.22072747706261 39.80364656378515,52.269163315068 34.51893408136675,51.92147549022047 34.1654978961451,52.287462660620804 34.115007012558635,53.696508175722556 33.82889200554928,54.080791913482244 27.517531556834,51.39079312450485 21.74474053294398,48.15177589969244 21.105189340771176,48.15177589969244 19.92706872371491,47.58448600147676 12.0,46.578000699402764 20.162692847137805,47.74918320366123" stroke="#4DD2FF" stroke-linecap="round" stroke-linejoin="round" stroke-width="0.5"><title>2025-01-06 5.2km</title><desc>1736137119000</desc></polyline><polyline fill="none" points="63.32647975080181,47.23808351450134 63.410591900290456,46.54301740095252 63.965732087322976,45.719910247658845 64.3694704049849,47.146627559370245 63.79750778817106,47.530742341972655 64.85732087231008,47.47586883841723 68.35638629284222,48.31726121209795 73.1003115264466,50.54876615059038 73.99190031155013,51.335275352044846 80.3844236760051,54.17034574990976 80.7713395638275,53.93256690968701 80.83862928353483,52.39614423713647 81.1582554517081,52.103491209461936 86.69283489102963,52.487598236781196 89.35077881615143,53.493589984296705 94.66666666668607,53.58504357517813 89.13208722742274,53.457008538462105 86.50778816197999,52.43272584112128 81.22554517129902,52.103491209461936 80.90591900312575,52.377853433165 80.78816199378343,53.93256690968701 80.45171339565422,54.261799088693806 74.41246105922619,51.774256136326585 69.46666666667443,48.975740188747295 66.97694704052992,47.96972992904193 58.66666666668607,46.67105604342942 64.3190031152335,47.36612179443182 68.32274143304676,48.26238788434421 73.40311526483856,51.07920286542503 79.27414330211468,53.6399157133128 80.18255451717414,54.28008975235571 80.75451713398797,53.877694836919545 80.90591900312575,52.286399392658495 81.14143302175216,52.04861872791662 84.87601246102713,52.487598236781196 86.50778816197999,52.39614423713647 89.21619937691139,53.43871781344933 94.64984423678834,53.53017142473254 88.76199376943987,53.347264168114634 86.40685358259361,52.43272584112128 81.27601246110862,52.04861872791662 80.90591900312575,52.32298101295601 80.85545171337435,53.82282275194302 80.48535825544968,54.18863642041106 74.49657320871484,51.75596528600727 69.50031152646989,48.86599381525593 67.43115264800144,48.079476703191176 58.885358255472966,46.76251217571553" stroke="#4DD2FF" stroke-linecap="round" stroke-linejoin="round" stroke-width="0.5"><title>2025-01-03 9.5km</title><desc>1735878536000</desc></polyline><polyline fill="none" points="108.92490242002532,46.50741866938188 111.03263075725408,47.094107353987056 113.44387197500328,47.31411525006115 114.60733801720198,47.90080201129604 115.04574551130645,47.84580018685665 120.05370804056292,50.61421008761681 126.78157689305954,53.71259218259365 127.28743169398513,53.620924633258255 127.9787665886106,51.95256926942966 128.4846213895944,51.659230893536005 133.00359094457235,51.93423563116812 135.68462138954783,52.94258370688476 141.33333333331393,53.10758572591294 136.10616705700522,52.96091727001476 133.2059328649193,52.02590380878246 128.51834504294675,51.75089917352307 127.9787665886106,52.0442374402046 127.08508977363817,53.785926197480876 120.54270101484144,51.03588568365376 115.02888368460117,47.95580382348271 114.5904761904967,47.99247169139562 113.24153005465632,47.35078321360925 111.33614363777451,47.25911329446535 105.33333333331393,46.214073802533676 113.37642466824036,47.33244923250459 115.7539422326372,48.45081957959337 113.52818110852968,47.38745117170038 108.58766588603612,46.63575693866005" stroke="#4DD2FF" stroke-linecap="round" stroke-linejoin="round" stroke-width="0.5"><title>2025-01-02 5.6km</title><desc>1735817809000</desc></polyline><polyline fill="none" points="156.15514018689282,46.65276321697456 160.15887850464787,47.31124543159967 161.3364485981292,47.93314367925632 162.46355140185915,48.13434571621474 168.58691588789225,51.49988261402177 173.7514018691145,53.7313544696226 174.18878504668828,53.2740872988652 174.67663551395526,52.04860708182969 175.26542056072503,51.755954184918664 179.58878504671156,51.90228067699354 182.7514018691727,53.05459875444649 188.0,53.09118019211746 185.94766355137108,53.219215181146865 182.44859813078074,52.99972658767365 179.8242990653962,51.975443890332826 175.28224299068097,51.719372548293904 174.76074766356032,51.920571482376545 173.98691588791553,53.65819177949743 173.7009345794795,53.78622647283191 165.45794392522657,50.164647952711675 161.6728971962002,47.93314367925632 161.13457943929825,47.969725880087935 159.97383177571464,47.38441001311003 152.0,46.1954828620801 159.36822429904714,47.219789674083586 161.2691588785383,47.89656147301139 161.6728971962002,47.78681482154934 167.0728971962817,50.823120748013025 173.7009345794795,53.80451713790535 174.8112149532535,51.86569906216755 175.26542056072503,51.68279090622673 176.54392523359274,51.84740825268091 174.77757009339985,51.82911744187004 173.98691588791553,53.62161042628577 173.68411214952357,53.7130637991213 167.57757009350462,51.13406562079035 161.92523364484077,47.988016978430096 161.1682242990937,47.93314367925632 159.82242990651866,47.329536579039996 158.37570093455724,47.38441001311003 152.5046728971647,46.2503565496736 156.20560747664422,46.945422197080916" stroke="#4DD2FF" stroke-linecap="round" stroke-linejoin="round" stroke-width="0.5"><title>2024-12-31 8.0km</title><desc>1735619151000</desc></polyline><polyline fill="none" points="17.013084112200886,86.90884007397108 18.24112149537541,86.94542242464377 21.75700934586348,87.76852387444524 23.8093457944924,88.86598818139464 24.398130841145758,89.46959145901201 33.81869158882182,93.73135419163737 34.710280373867135,91.99373454171291 35.21495327109005,91.71937242023705 39.87476635520579,91.9754437431402 42.19626168225659,92.90827273244213 47.98317757016048,93.05459852683998 42.414953271101695,92.99972636419989 39.841121495410334,91.99373454171291 35.23177570104599,91.71937242023705 34.7439252337208,91.93886214192025 33.734579439333174,93.8045168544777 28.048598130932078,91.37184662616346 22.90093457949115,88.53674940441852 19.90654205606552,87.34782792266924 12.0,86.1954831455223 18.358878504717723,87.018587109691 21.706542056170292,87.78681498645165 28.048598130932078,91.22551982890582 33.583177570137195,93.78622619080124 34.00373831775505,93.62161015649326 34.710280373867135,91.9754437431402 35.28224299068097,91.66449995912262 39.77383177576121,91.93886214192025 42.49906542059034,92.94485418923432 48.0,92.96314491557132 42.700934579537716,92.98143564056954 39.75700934580527,91.9754437431402 35.198130841134116,91.68279078081832 34.710280373867135,91.93886214192025 33.9700934580178,93.60331947919622 33.70093457947951,93.73135419163737 27.611214953300077,91.17064725742966 21.841121495410334,87.93314383321558 19.317757009412162,87.31124563192134 12.269158878538292,86.28693927780841 19.68785046733683,87.29295448449557 21.235514018742833,87.91485273215221 21.891588785103522,87.84168831420538 27.241121495317202,90.80482980090892 21.807476635556668,87.87827052589273 16.727102803764865,86.92713124996226" stroke="yellow" stroke-linecap="round" stroke-linejoin="round" stroke-width="0.5"><title>2024-12-30 10.8km</title><desc>1735533491000</desc></polyline><polyline fill="none" points="63.72077114431886,86.84157871161005 67.01181592047215,87.38928984517406 67.93532338313526,87.91874277724128 68.40547263692133,87.86397183731606 69.3625621891697,88.2656251124281 73.47636815928854,90.60250383708626 80.15920398011804,93.66962334503478 80.64614427863853,93.687879893856 81.35136815923033,91.9535016840091 81.90547263692133,91.64313797274372 86.3215174129,91.93524500596686 88.95771144278115,92.95761688047787 94.66666666668607,93.04889987618662 89.17599502496887,92.95761688047787 86.48942786076805,91.971758360698 81.83830845775083,91.67965137095598 81.38495024881558,91.9535016840091 80.79726368165575,93.43228808669664 80.3439054726623,93.76090607550577 74.06405472639017,91.11369308749272 69.59763681597542,88.55773617177329 67.04539800999919,87.5170889335277 58.66666666668607,86.20258084181114 66.75995024881558,87.37103282711178 69.98383084579837,88.55773617177329 73.37562189059099,90.60250383708626 80.29353233828442,93.7974191581743 80.6293532338459,93.70613644128025 81.40174129355,91.971758360698 81.87189054727787,91.75267815099505 86.4558457711828,92.00827170992852 88.97450248763198,92.97587348232628 94.6162935323664,93.03064327972243 92.90360696520656,93.1766960129753 89.0584577114787,92.97587348232628 86.43905472639017,91.93524500596686 81.8886815920705,91.67965137095598 81.41853233840084,91.8804749637493 80.64614427863853,93.65136679483112 80.14241293538362,93.72439298740937 74.70211442786967,91.35103059129324 72.92226368159754,90.25562480986991 67.01181592047215,87.44406089121185 59.52300995029509,86.38515183179697" stroke="#4DD2FF" stroke-linecap="round" stroke-linejoin="round" stroke-width="0.5"><title>2024-12-27 9.1km</title><desc>1735273142000</desc></polyline><polyline fill="none" points="134.28473520238185,92.16749720771622 132.97258566971868,91.80168133185362 131.57632398745045,91.9662985434552 128.2959501557052,91.65535482895211 127.13520249217981,93.74049926319276 121.02866043604445,91.25295649612963 114.97258566966048,87.92399953704444 114.4847352024517,87.97887281984731 113.17258566973032,87.39355717095896 105.33333333331393,86.14975678343035 110.81744548282586,87.02773418172728 111.35576323984424,86.93627834925428 115.20809968840331,87.9057084400556 119.49781931459438,90.06404847817612 120.13707165105734,90.64935776035418 126.76510903419694,93.68562726810342 127.25295950146392,93.64904593124811 127.92585669772234,91.9662985434552 128.46417445474071,91.63706400991941 133.10716510895872,91.92971695044253 135.95015576318838,92.9905809355696 141.33333333331393,93.13690664277237 135.39501557627227,92.88083659796393 133.3090342678479,91.98458933790971 128.44735202478478,91.65535482895211 128.09408099687425,91.76509971430642 127.33707165106898,93.70391793445742 127.00062305288156,93.85024321656965 125.55389408097835,92.9905809355696 120.82679127715528,91.12492052467132 115.29221183800837,87.88741734171344 111.49034267908428,87.02773418172728 107.50342679122696,86.49728987905837" stroke="#4DD2FF" stroke-linecap="round" stroke-linejoin="round" stroke-width="0.5"><title>2024-12-25 6.6km</title><desc>1735101299000</desc></polyline><polyline fill="none" points="155.73807296541054,86.46654862328433 155.6033676332445,86.7960982114746 155.82226379791973,86.72286500784685 156.14218896161765,86.19192362877948 157.16931711876532,86.90594797600352 158.31431244150735,86.96087283981615 161.83348924230086,87.85797721148992 168.0636108512408,91.26328236225527 173.78858746495098,93.7348452572187 174.0243217960815,93.716537475324 174.73152478953125,91.97729197396256 175.25350795139093,91.70267313804652 179.76613657624694,91.95898406110064 182.67913938261336,93.05745641794056 188.0,93.1489955594152 182.42656688496936,93.00253291671106 179.59775491117034,91.94067614692904 175.10196445282781,91.7209810699569 174.73152478953125,91.90406031436578 173.97380729654105,93.62499854524503 173.67072029935662,93.67992190737277 167.45743685693014,91.11681859569217 162.7932647333946,88.40722316947358 160.14967259118566,87.3453465430066 152.0,86.21023197130125 154.7614593077451,86.63132347262581 156.07483629562194,86.59470684896223 160.7053320860723,87.51012080309738 162.8101028999081,88.33399044601538 168.5855940131005,91.5195937436074 173.5191768007935,93.716537475324 174.04115996259497,93.661614121389 174.88306828815257,91.79421278409427 176.60056127223652,91.79421278409427 174.933582787693,91.73928900055762 173.95696913002757,93.80807637123507 167.89522918616422,91.29989829022088 164.62862488307292,89.3775546951656 160.31805425632047,87.47350431038649 152.05051449948223,86.22854031245515 158.97100093541667,87.21718870878976" stroke="#4DD2FF" stroke-linecap="round" stroke-linejoin="round" stroke-width="0.5"><title>2024-12-18 8.3km</title><desc>1734495982000</desc></polyline><polyline fill="none" points="15.794776119466405,124.97022001925507 15.17350746266311,125.11627834569663 15.391791044792626,124.93370542400226 15.17350746266311,125.07976377224259 15.039179104438517,124.87893352094397 15.106343283609021,125.06150648347102 16.466417910414748,126.01088369562058 19.438432835857384,127.32539991656085 20.143656716449186,128.439081752309 20.932835820887703,129.0598202507681 21.80597014928935,129.18761915816867 27.968283582071308,132.51036735711386 33.542910447809845,135.01152721470862 33.94589552236721,135.02978376214742 34.73507462692214,133.2771490048617 35.22201492538443,133.00329869182315 39.889925373136066,133.29540568155062 42.82835820905166,134.31777740370308 48.0,134.40906038576213 42.375,134.31777740370308 39.889925373136066,133.313662356828 35.13805970159592,133.02155538884108 34.65111940301722,133.29540568155062 33.811567164200824,135.10280993834022 25.567164179112297,131.6522993351682 24.99626865668688,131.08633793155605 22.93097014934756,129.91789735054772 20.445895522425417,128.9320212766761 12.0,127.56274237153411 20.02611940295901,128.62165206212376 21.436567164200824,129.2423900980939 21.738805970177054,129.15110519141308 28.035447761241812,132.58339428405452 32.36753731343197,134.29952080319345 33.559701492544264,135.02978376214742 34.01305970153771,134.920244457011 34.8526119402959,133.16760891635204 36.59888059704099,133.1128388537909 34.95335820893524,133.22237896674778 34.0802238805918,135.12106647904147 33.32462686562212,135.06629685300868 27.632462686568033,132.61990773941216 26.070895522425417,131.59752893386758 20.39552238804754,128.84073625438032 12.134328358224593,127.6905420597468 20.143656716449186,128.65816610776528" stroke="#4DD2FF" stroke-linecap="round" stroke-linejoin="round" stroke-width="0.5"><title>2024-12-17 8.6km</title><desc>1734409492000</desc></polyline><polyline fill="none" points="63.10571384092327,126.69089393045579 66.70403238368453,127.25765516565298 68.01556904875906,127.8792627571238 68.45274793711724,127.75128485231835 74.69095438276418,131.18838254957518 80.35746535897488,133.63819939630048 80.66012766619679,133.60163514554733 81.4335980071919,131.79169792335597 81.85396232292987,131.55402840772877 86.73018838552525,131.90139146830188 89.16830141685205,132.83378462090332 94.66666666668607,132.9251955236541 94.12860034249024,133.1080172269576 89.15148684417363,132.9251955236541 86.27619492448866,131.86482695877203 81.95484975870932,131.682004329341 81.29908142617205,132.08421393430035 80.57605480309576,133.63819939630048 80.29020706837764,133.7296099994128 75.19539156154497,131.57231068630063 68.3518605013378,127.91582786051731 67.46068815205945,127.80613253396587 66.51907208474586,127.25765516565298 58.66666666668607,126.17897943154094 66.6367740931455,127.2393725656002 67.76335045928136,127.84269764830242 68.41911879193503,127.78784997477487 74.64051066484535,131.17010024239426 80.23976335045882,133.61991727161512 80.7105713840574,133.58335301808256 81.28226685349364,132.02936720881553 81.85396232292987,131.5905929635628 86.78063210344408,131.90139146830188 89.11785769893322,132.83378462090332 94.56577923090663,132.98004204889003 89.42052000627154,132.9251955236541 86.47796979610575,131.86482695877203 81.83714775030967,131.64543978709844 81.4167834345717,131.84654470196983 80.54242565785535,133.7296099994128 74.5228086563875,131.26151176478015 68.36867507401621,127.91582786051731 66.8721781099448,127.38563332792546 58.86844153824495,126.2155447883415 66.60314494784689,127.25765516565298 67.78016503195977,127.84269764830242 68.50319165503606,127.86098020337522 75.34672271524323,131.4991815637186 80.23976335045882,133.67476364162576 80.7105713840574,133.60163514554733 81.28226685349364,131.7368511324894 83.23275727860164,131.77341566108225 81.45041257987032,131.80998018421815 80.60968394827796,133.8210205684445 74.47236493852688,131.2432294630271 68.43593336443882,127.89754530951905 67.89786704035942,127.91582786051731 66.56951580260647,127.27593776433787 58.86844153824495,126.28867548549897 66.45181379420683,127.2393725656002" stroke="yellow" stroke-linecap="round" stroke-linejoin="round" stroke-width="0.5"><title>2024-12-15 13.0km</title><desc>1734235831000</desc></polyline><polyline fill="none" points="108.89303482579999,126.32125172246015 108.89303482579999,126.52207971418102 110.40422885568114,126.97850635595387 112.43594527355162,127.39841811552469 113.49378109449754,127.32539003509737 114.51803482579999,127.90961406896531 115.10572139295982,127.9278710475919 122.05721393029671,131.63400954195822 127.04415422887541,133.7517778025067 127.36318407958606,133.73352125777456 128.0348258705926,132.1086833295558 128.53855721390573,131.7800631129794 133.17288557218853,132.0173999802937 135.84266169153852,133.0397715500876 141.33333333331393,133.14931110820908 135.74191542289918,133.0397715500876 133.30721393035492,132.0356566528353 128.45460199011723,131.7070363383391 127.98445273627294,131.9261165969947 127.1784825870418,133.78829088785278 121.31840796017786,131.3966723033809 115.8613184079295,128.34778118027316 113.37624378106557,127.3801610974624 105.33333333331393,126.21170911216177 109.59825870633358,126.64987925958121 113.37624378106557,127.27061896053783 115.07213930343278,127.81832915551786 120.22699004970491,130.6298888847814 125.38184079597704,132.89371872982883 126.65796019899426,133.6970081642212 127.34639303479344,133.6239819607872 127.96766169153852,132.1086833295558 128.48818407964427,131.7435497284314 133.0889303482836,131.94437327633204 135.59079601994017,132.98500175269146 137.5049751243787,133.00325835321564 135.45646766171558,132.9302319430426 133.05534825869836,131.98088663104863 128.67288557213033,131.7070363383391 127.98445273627294,131.9078599162458 127.14490049751475,133.71526471164543 120.99937810940901,131.2141050403734 115.10572139295982,127.96438500071235 113.34266169148032,127.3801610974624 110.68967661686474,127.05153453972889" stroke="#4DD2FF" stroke-linecap="round" stroke-linejoin="round" stroke-width="0.5"><title>2024-12-13 8.5km</title><desc>1734064159000</desc></polyline><polyline fill="none" points="155.89418989123078,126.7273368107708 159.6013226263458,127.26354360941332 162.15210203110473,128.058606730061 167.45772319316166,131.05393793815165 173.39253660838585,133.67944543872727 173.86868209729437,133.6979348296736 174.6339159187628,131.9414365387347 175.1100614076131,131.70107264778926 179.78649031644454,131.9414365387347 182.13320736889727,132.90288977474847 188.0,133.0138264469424 182.69437883794308,132.97684756170202 179.61643835616997,131.92294701690844 174.9910250355024,131.68258310804958 174.49787435046164,131.84898891593912 173.93670288135763,133.4390832309291 173.528578176687,133.80887114649522 172.3212092583417,133.12476306952885 167.44071799708763,131.2203441675374 162.50921114784433,128.3914230940136 159.8904109588475,127.48542194582114 162.4922059517121,128.3174639406061 165.62116202170728,130.2034154678695 172.35521965043154,133.10627363584354 173.3415210202802,133.7534029942908 173.83467170514632,133.64246665267274 174.59990552667296,131.62711448066693 173.8006613131729,133.58699846325908 173.37553141237004,133.6979348296736 167.62777515343623,131.25732331443578 161.50590458197985,127.81823907850776 160.910722720786,127.83672890611342 159.4142654699972,127.22656386739982 152.0,126.19112885351933" stroke="#4DD2FF" stroke-linecap="round" stroke-linejoin="round" stroke-width="0.5"><title>2024-12-11 6.6km</title><desc>1733890893000</desc></polyline><polyline fill="none" points="16.36516853934154,166.90305236176937 20.224719101155642,167.3428621868079 21.06741573032923,167.83764729992254 21.758426966320258,167.8193219431123 28.095505618024617,171.31944032071624 33.75842696632026,173.7749910256971 34.68539325846359,171.8691926081665 35.17415730340872,171.64929184064385 40.01123595511308,171.94249282038072 42.48876404494513,172.91371856945625 47.949438202311285,173.04199338171748 42.691011236049235,172.91371856945625 40.06179775286,172.03411805485666 34.82022471912205,171.81421743471583 33.89325842697872,173.82996576097503 27.977528089948464,171.3560905114573 26.275280898902565,170.20160688040778 21.707865168573335,167.92927406349918 21.337078651762567,168.02090079295158 19.88764044950949,167.4344891346991 12.168539325881284,166.33496350706264 18.573033707856666,167.0679811383161 21.707865168573335,167.80099658494873 26.123595505661797,169.98170462202688 27.960674157366157,171.20948971578036 33.6235955056618,173.73834119540697 33.97752808989026,173.61006674627424 34.71910112362821,171.9791429182369 35.17415730340872,171.64929184064385 38.12359550560359,171.94249282038072 39.6235955056618,171.81421743471583 42.573033707914874,172.9320435467671 48.0,173.02366841264302 42.28651685395744,172.89539359083574 39.977528089948464,171.9791429182369 35.140449438244104,171.66761691214924 34.71910112362821,171.83254249392485 34.129213483131025,173.48179223024636 33.80898876406718,173.75666611125052 28.55056179780513,171.557666462817 25.398876404506154,169.67017608616152 21.674157303466927,167.83764729992254 18.977528089948464,167.15960818860913 12.0,166.17003423901042 20.612359550606925,167.41616374786827 33.35393258428667,173.64671659568558 33.97752808989026,173.53676703096426 34.71910112362821,171.6309667677997 34.01123595511308,173.61006674627424 33.657303370768204,173.6833664396836 28.162921348353848,171.3560905114573 21.72471910121385,167.78267122540274 15.842696629231796,166.7930997826188" stroke="yellow" stroke-linecap="round" stroke-linejoin="round" stroke-width="0.5"><title>2024-12-09 12.1km</title><desc>1733738831000</desc></polyline><polyline fill="none" points="73.64687401824631,170.69175653763523 80.41595978639089,173.7537804822059 81.19635563931661,171.98297607123095 81.80710021988489,171.65094883427082 86.18410304741701,171.83540846531105 88.84762802388286,172.88682573831466 94.66666666668607,173.0897303121601 89.40747722273227,172.97905511067074 86.47251021047123,171.9645301252749 81.85799560166197,171.7247327031946 81.28118127555354,171.90919227930135 80.44989004090894,173.79067210612993 75.08890983351739,171.55871896728058 68.26892868371215,167.86949611309683 67.65818410302745,167.88794236411923 66.87778825010173,167.37144681625068 62.04272698715795,166.725825866175 61.43198240658967,166.43068429967389 61.14357524353545,166.67048684923793 59.02293433871819,166.3384524879657 64.04461200127844,166.85495019085647 68.26892868371215,167.7957110952848 72.71379202016396,169.99080597094144 73.96921143581858,170.9131089358998 80.16148287785472,173.7537804822059 80.5686459314893,173.58776810666313 81.28118127555354,171.87230037507834 81.6713792020455,171.5771649434173 83.18127552617807,171.83540846531105 86.43857995601138,171.85385442087136 89.1530003141961,172.90527161555656 94.54791077593109,173.0159468499769 89.01727929629851,172.84993397975632 86.43857995601138,171.89074632785923 81.79013509268407,171.68784077154123 81.09456487593707,172.27811101914267 80.4329249135917,173.79067210612993 74.1218975809752,171.0606770914601 68.25196355645312,167.86949611309683 67.86176562990295,167.94328110889182 65.67326421616599,167.22387646179413 58.66666666668607,166.20932789387007 65.99560163373826,167.22387646179413 67.70907948474633,167.85104986070655 68.35375431989087,167.8326036069775 70.54225573368603,169.03160724285408" stroke="#4DD2FF" stroke-linecap="round" stroke-linejoin="round" stroke-width="0.5"><title>2024-12-06 9.2km</title><desc>1733479157000</desc></polyline><polyline fill="none" points="108.9855072463397,166.7518485852779 113.56334735854762,167.30083985241072 114.53950444131624,167.90472882894392 115.07807386631612,167.7949309436226 121.35577372607077,171.30843892868143 126.84244974289322,173.74224572496314 127.39784946234431,173.5775527926744 127.98690977087244,172.00381475969334 128.62646096310345,171.74762389306852 133.17064048617613,171.96721608078224 135.72884525475092,172.9370792284608 141.33333333331393,173.12007184576942 135.796166432905,172.9370792284608 133.13697989709908,172.02211409705342 128.54230949038174,171.7293245352048 127.9532491817954,172.095311432975 127.11173445533495,173.77884413936408 120.9013557737344,171.14374436459912 119.48761103319703,170.17387413613324 115.09490416076733,167.94132811314194 114.60682561941212,167.97792739186843 113.37821411871118,167.392338277612 105.33333333331393,166.22115586063592 113.37821411871118,167.37403859528422 115.90275829826714,168.43541791592725 115.16222533892142,167.94132811314194 109.00233754084911,166.77014831398265" stroke="#4DD2FF" stroke-linecap="round" stroke-linejoin="round" stroke-width="0.5"><title>2024-12-03 5.6km</title><desc>1733220329000</desc></polyline><polyline fill="none" points="156.69930069934344,166.93429291852226 160.10629370622337,167.29926352700568 161.26433566428022,167.97445771898492 162.74125874124002,168.1569423162291 164.33566433563828,169.19710192432103 166.51748251746176,170.01827744214097 167.91048951045377,171.09492561664956 173.9020979020861,173.7226572235959 174.65734265733045,172.09857643261785 175.26153846160742,171.6971165997238 179.84335664339596,171.95259111496853 182.6629370629671,172.99273460480617 186.6069930070662,172.95623841678025 188.0,173.06572696458898 187.58041958045214,173.17521546341595 182.49510489508975,173.02923078738968 179.84335664339596,172.02558378469257 175.24475524475565,171.77010934555437 174.74125874129822,172.00733561927336 173.96923076931853,173.74090526119107 173.59999999997672,173.777401332336 167.3902097902028,171.11317385002621 164.0335664335289,169.19710192432103 159.955244755256,167.37225758342538 152.0,166.25909585904446 160.24055944063002,167.33576055793674 162.62377622380154,168.4306689571531 159.92167832161067,167.4270031115011 152.0335664335289,166.22259866767854 156.90069930069149,166.89779582775373" stroke="#4DD2FF" stroke-linecap="round" stroke-linejoin="round" stroke-width="0.5"><title>2024-12-02 6.1km</title><desc>1733112856000</desc></polyline><polyline fill="none" points="12.0,205.04191657823685 13.066666666651145,205.48650917207124 15.520000000076834,208.77260471617046 15.306666666700039,208.55997626397584 15.768888888938818,208.54064639602439 16.373333333351184,207.80611034743197 18.577777777798474,208.13471883677994 19.395555555529427,208.67595544130018 21.031111111107748,209.00456282886444 22.791111111058854,210.10636103236175 24.92444444441935,210.91820934620046 26.044444444414694,211.90402174061455 32.444444444496185,214.82277765258914 32.96000000007916,214.82277765258914 33.74222222220851,213.0251371666527 34.25777777779149,212.77385309578676 39.18222222221084,213.0251371666527 42.22222222224809,214.10758884351526 48.0,214.1655771987862 42.25777777779149,214.14624774846015 39.20000000001164,213.06379623284738 34.31111111113569,212.8125121994526 33.77777777775191,213.04446670044854 32.81777777778916,214.9580834217486 26.702222222229466,212.38726174239127 22.56000000005588,210.04837176990986 18.417777777765878,208.15404873494117 13.386666666716337,207.55482122178364" stroke="#4DD2FF" stroke-linecap="round" stroke-linejoin="round" stroke-width="0.5"><title>2024-11-29 4.6km</title><desc>1732853630000</desc></polyline><polyline fill="none" points="61.71547049446963,208.83885787488543 61.45709728874499,208.9886867867026 62.55948963324772,209.00741539435694 61.61212121223798,208.89504372730153 62.473365231300704,208.96995817759307 62.37001594895264,209.23215857787 63.74800637958106,207.45293620719167 66.98628389154328,207.22819143295055 68.01977671455825,207.79005299181154 69.48389154701727,208.08971197633946 75.21977671456989,211.36720880020584 80.97288676234894,213.85807780864707 81.83413078152807,212.04143141892564 82.35087719297735,211.79796234852984 87.24274322175188,212.04143141892564 89.72312599682482,213.05276195670012 94.66666666668607,213.10894686731626 89.82647527911467,213.01530534267658 86.88102073367918,211.9852462697745 82.28197767154779,211.72304874098336 81.86858054227196,211.9665178839059 80.97288676234894,213.83934956228768 74.87527910689823,211.36720880020584 68.57097288680961,207.84623907860077 66.67623604467371,207.26564890926238 58.66666666668607,206.14192219135293 66.84848484850954,207.22819143295055 67.89920255192555,207.7713242933969 69.00159489637008,207.92115384146746 73.4456140351831,210.28095744427992 66.79681020736462,207.30310638000083 62.473365231300704,206.72251495618548" stroke="#4DD2FF" stroke-linecap="round" stroke-linejoin="round" stroke-width="0.5"><title>2024-11-28 6.3km</title><desc>1732767063000</desc></polyline><polyline fill="none" points="105.57494407170452,205.69825607314124 110.89038031338714,206.59583273311728 112.0984340045834,207.23070237357751 112.6621923937928,207.18691830450553 118.19910514552612,209.90151825133944 120.11185682332143,211.17124187623267 127.11856823274866,214.23606940108584 128.10514541401062,212.11258515997906 128.82997762877494,211.71853484999156 134.1655480985064,212.003126793541 136.62192393746227,213.0320338284073 138.7561521253083,213.3822992311034 141.33333333337214,213.31662449985743 137.4474272931693,213.25094975400134 134.52796420594677,212.11258515997906 129.0313199106604,211.82799332251307 128.20581655483693,212.15636849513976 127.11856823274866,214.30174392682966 119.48769574949984,211.08367490579258 112.6621923937928,207.18691830450553 112.1588366891956,207.296378464991 110.42729306500405,206.5301564851252 105.33333333337214,205.85150106289075" stroke="#4DD2FF" stroke-linecap="round" stroke-linejoin="round" stroke-width="0.5"><title>2024-11-25 4.0km</title><desc>1732507947000</desc></polyline><polyline fill="none" points="152.0,203.842738599109 159.33868378819898,204.78518927752157 161.33226324245334,205.9475422129908 162.43017656519078,205.82188259068062 164.4526484751841,206.4815951900673 166.56179775297642,207.98950582710677 170.54895666136872,209.71731346924207 173.6404494382441,211.85350222088164 180.63242375606205,214.58655146174715 182.97271268058103,216.00019067028188 183.57945425377693,215.7488773795194 184.87961476738565,212.70169181196252 188.0,212.6388630118454 184.99518459069077,212.7959349945595 183.31942215096205,216.1572614009201 174.10272873204667,212.32471887097927 162.3723916533636,206.04178690514527 161.5922953452682,206.19886134529952 164.36597110761795,206.73291400406742 165.72391653293744,207.98950582710677 168.1219903692836,208.6492150350532 173.58266452653334,211.91633113796706 182.33707865176257,215.81170571624534 183.57945425377693,215.93736236164114 184.87961476738565,212.67027741315542 183.49277688609436,216.1572614009201 174.2471910113236,212.26189001477906" stroke="#4DD2FF" stroke-linecap="round" stroke-linejoin="round" stroke-width="0.5"><title>2024-11-20 4.0km</title><desc>1732095798000</desc></polyline><polyline fill="none" points="14.103027084493078,246.08158577869472 19.41795007965993,246.85072787279205 20.6988847583998,247.49514258949785 21.578332448145375,247.57829276706616 26.491768454550765,250.01042449921079 27.791821561404504,251.0082160000602 34.78916622407269,254.10550438900827 35.11417950084433,254.0639302759082 35.898035050486214,252.2346631648834 36.47158789169043,251.79813174103037 41.786510886857286,252.08915276617336 44.577801380772144,253.21165959120844 48.0,253.33638229299686 44.52044609654695,253.2324467120634 41.480616038199514,252.06836556014605 36.586298459907994,251.81891896718298 35.78332448215224,252.35938630337478 35.03770578862168,254.1470784960111 27.92565055761952,251.21608878028928 22.457780138007365,248.16034331647097 19.37971322366502,246.93387824247475 12.0,245.85292150400346" stroke="#4DD2FF" stroke-linecap="round" stroke-linejoin="round" stroke-width="0.5"><title>2024-11-19 4.1km</title><desc>1731989484000</desc></polyline></svg>