<?xml version="1.0" encoding="utf-8" ?>
<svg baseProfile="full" height="300mm" version="1.1" viewBox="0,0,200,300" width="200mm" xmlns="http://www.w3.org/2000/svg" xmlns:ev="http://www.w3.org/2001/xml-events" xmlns:xlink="http://www.w3.org/1999/xlink"><defs /><rect fill="#222222" height="300" width="200" x="0" y="0" /><text fill="#FFFFFF" style="font-size:12px; font-family:Arial; font-weight:bold;" x="10" y="20">Over 4km Runs</text><text fill="#FFFFFF" style="font-size:4px; font-family:Arial" x="10" y="280">ATHLETE</text><text fill="#FFFFFF" style="font-size:9px; font-family:Arial" x="10" y="290">Fake David</text><text fill="#FFFFFF" style="font-size:4px; font-family:Arial" x="65" y="280">SPECIAL TRACKS</text><rect fill="yellow" height="2.6" width="2.6" x="65" y="283" /><text fill="#FFFFFF" style="font-size:3px; font-family:Arial" x="70" y="285.5">Over 10.0 km</text><rect fill="red" height="2.6" width="2.6" x="65" y="287" /><text fill="#FFFFFF" style="font-size:3px; font-family:Arial" x="70" y="289.5">Over 15.0 km</text><text fill="#FFFFFF" style="font-size:4px; font-family:Arial" x="120" y="280">STATISTICS</text><text fill="#FFFFFF" style="font-size:3px; font-family:Arial" x="120" y="285">Number: 11</text><text fill="#FFFFFF" style="font-size:3px; font-family:Arial" x="120" y="290">Weekly: 2.8</text><text fill="#FFFFFF" style="font-size:3px; font-family:Arial" x="141" y="285">Total: 71.0 km</text><text fill="#FFFFFF" style="font-size:3px; font-family:Arial" x="141" y="290">Avg: 6.5 km</text><text fill="#FFFFFF" style="font-size:3px; font-family:Arial" x="167" y="285">Min: 4.0 km</text><text fill="#FFFFFF" style="font-size:3px; font-family:Arial" x="167" y="290">Max: 12.1 km</text><polyline fill="none" points="18.33955223869998,54.48187758366112 18.33955223869998,54.7831195712497 20.6063432834344,55.4677595339308 23.653917910298333,56.09762717326521 25.24067164165899,55.98808505263878 26.77705223869998,56.86442110344069 27.658582089468837,56.89180657136603 38.085820895503275,62.451014312915504 45.56623134331312,65.62766670374549 46.04477611929178,65.60028188664 47.05223880591802,63.163024994311854 47.807835820829496,62.67009466944728 54.75932835822459,63.02609997041873 58.76399253727868,64.55965732512414 67.0,64.72396666227723 58.61287313431967,64.55965732512414 54.960820895503275,63.05348497923114 47.68190298520494,62.56055450750864 46.97667910438031,62.88917489547748 45.7677238805918,65.68243633175734 36.97761194023769,62.09500845504226 28.791977611836046,57.52167177040246 25.064365671598352,56.07024164617178 13.0,54.31756366821355 19.397388059529476,54.974818889342714 25.064365671598352,55.90592844079947 27.608208955149166,56.72749373325496 35.340485074557364,60.94483332714299 43.07276119396556,64.34057809473597 44.98694029846229,65.54551224631723 46.019589552190155,65.43597294116626 46.95149253727868,63.163024994311854 47.7322761194082,62.61532459262526 54.63339552236721,62.91655991447624 58.38619402993936,64.47750262901536 61.257462686509825,64.50488752979436 58.184701492544264,64.39534791457118 54.58302238804754,62.971329946565675 48.00932835822459,62.56055450750864 46.97667910438031,62.861789874354145 45.71735074627213,65.57289706746815 36.499067164142616,61.82115756053827 27.658582089468837,56.946577501046704 25.013992537162267,56.07024164617178 21.034514925209805,55.57730180959334" stroke="#4DD2FF" stroke-linecap="round" stroke-linejoin="round" stroke-width="0.5"><title>2024-12-13 8.5km</title><desc>1734064159000</desc></polyline><polyline fill="none" points="78.84128483687527,55.091005216148915 84.4019839395769,55.89531541411998 88.2281530466862,57.087910095084226 96.18658478977159,61.58090690721292 105.08880491263699,65.5191681580909 105.80302314599976,65.54690224450314 106.9508738782024,62.91215480808751 107.66509211144876,62.55160897166934 114.67973547475412,62.91215480808751 118.19981105334591,64.35433466211543 127.0,64.52073967040633 119.04156825703103,64.46527134254575 114.42465753422584,62.88442052536993 107.48653755325358,62.52387466208893 106.74681152577978,62.77348337392323 105.90505432209466,65.15862484640093 105.29286726505961,65.71330671972828 103.48181388759986,64.68714460430783 96.16107699566055,61.83051625129883 88.76381672173738,57.58713464101311 84.83561643830035,56.22813291873899 88.73830892762635,57.47619591088733 93.43174303264823,60.305123201804236 103.53282947570551,64.65941045375075 105.01228153053671,65.63010449142894 105.75200755777769,65.4636999790091 106.89985828998033,62.440671721007675 105.70099196978845,65.38049769488862 105.06329711864237,65.54690224450314 96.44166273018345,61.88598497165367 87.25885687302798,56.72735861776164 86.3660840812372,56.75509335915558 84.12139820505399,55.83984580109245 73.0,54.28669328027172" stroke="#4DD2FF" stroke-linecap="round" stroke-linejoin="round" stroke-width="0.5"><title>2024-12-11 6.6km</title><desc>1733890893000</desc></polyline><polyline fill="none" points="139.5477528088959,55.3545785426395 145.33707865164615,56.01429328019731 146.60112359537743,56.756470949883806 147.63764044945128,56.72898291464662 157.1432584269205,61.97916048107436 165.63764044933487,65.66248653855291 167.0280898876954,62.80378891224973 167.76123595493846,62.47393776095123 175.0168539325241,62.91373923057108 178.73314606735948,64.37057785419165 186.92415730340872,64.56299007256166 179.03651685395744,64.37057785419165 175.0926966292318,63.051177082263166 167.23033707856666,62.72132615206647 165.83988764032256,65.74494864145527 156.96629213483538,62.03413576717139 154.41292134835385,60.30241032061167 147.5617977527436,56.89391109524877 147.00561797758564,57.03135118942009 144.83146067417692,56.15173370204866 133.2528089886764,54.50244526058668 142.8595505617559,55.60197170745232 147.5617977527436,56.701494877401274 154.18539325834718,59.97255693303305 156.94101123593282,61.8142345736851 165.4353932584636,65.60751179308863 165.96629213483538,65.41510011939681 167.0786516853841,62.96871437734808 167.76123595493846,62.47393776095123 172.18539325834718,62.91373923057108 174.43539325834718,62.72132615206647 178.8595505617559,64.39806532012881 187.0,64.53550261896453 178.42977528087795,64.34309038624633 174.96629213483538,62.96871437734808 167.71067415724974,62.50142536821659 167.0786516853841,62.748813740879996 166.19382022460923,65.22268834535498 165.71348314604256,65.63499916688306 157.82584269659128,62.33649969421094 153.09831460670102,59.505264129227726 147.51123595505487,56.756470949883806 143.46629213483538,55.73941228291369 133.0,54.25505135851563 145.91853932582308,56.124245621816954 165.0308988763718,65.47007489352836 165.96629213483538,65.30515054645366 167.0786516853841,62.44645015167771 166.0168539325241,65.41510011939681 165.4859550561523,65.52504965953995 157.24438202241436,62.03413576717139 147.58707865176257,56.674006838089554 138.76404494373128,55.18964967390639" stroke="yellow" stroke-linecap="round" stroke-linejoin="round" stroke-width="0.5"><title>2024-12-09 12.1km</title><desc>1733738831000</desc></polyline><polyline fill="none" points="35.47031102736946,121.03763480644557 45.62393967946991,125.63067072330159 46.7945334588876,122.97446410683915 47.71065032982733,122.47642325141351 54.27615457109641,122.75311269797385 58.271442035678774,124.33023860747926 67.0,124.63459546823287 59.111215834040195,124.46858266598429 54.708765315590426,122.94679518791963 47.78699340252206,122.58709905479918 46.921771913184784,122.86378841893747 45.6748350613052,125.68600815918762 37.633364750188775,122.33807845090632 27.403393025510013,116.80424416964524 26.487276154453866,116.83191354619339 25.316682375152595,116.05717022437602 18.064090480678715,115.08873879926978 17.147973609738983,114.64602644951083 16.71536286524497,115.00573027387145 13.534401508048177,114.50767873195582 21.06691800185945,115.28242528630653 27.403393025510013,116.69356664293446 34.07068803021684,119.9862089563976 35.953817153698765,121.36966340383515 45.242224316694774,125.63067072330159 45.852968897204846,125.3816521599947 46.921771913184784,122.80845056261751 47.507068802951835,122.3657474151114 49.7719132892089,122.75311269797385 54.65786993398797,122.78078163129976 58.729500471265055,124.35790742334211 66.82186616386753,124.5239202749799 58.52591894438956,124.27490096964175 54.65786993398797,122.83611949178157 47.685202638967894,122.5317611572973 46.64184731384739,123.41716652872856 45.64938737032935,125.68600815918762 36.1828463714337,121.59101563721197 27.37794533453416,116.80424416964524 26.792648444883525,116.91492166332318 23.50989632413257,115.8358146926912 13.0,114.31399184081238 23.993402450578287,115.8358146926912 26.563619227032177,116.77657479105983 27.530631479690783,116.74890541046625 30.81338360044174,118.54741086426657" stroke="#4DD2FF" stroke-linecap="round" stroke-linejoin="round" stroke-width="0.5"><title>2024-12-06 9.2km</title><desc>1733479157000</desc></polyline><polyline fill="none" points="78.47826086939313,115.12777287789504 85.34502103773411,115.9512597786088 86.80925666191615,116.85709324339405 87.61711079941597,116.69239641542663 97.03366058901884,121.96265839299303 105.26367461425252,125.61336858742288 106.09677419345826,125.36632918898249 106.98036465630867,123.00572213949636 107.93969144462608,122.6214358395955 114.75596072920598,122.9508241211588 118.59326788212638,124.40561884266208 127.0,124.68010776862502 118.69424964929931,124.40561884266208 114.70546984556131,123.03317114556557 107.8134642355144,122.59398680279264 106.929873772664,123.14296714944066 105.66760168294422,125.66826620904612 96.35203366051428,121.7156165468623 94.23141654976644,120.26081120417803 87.64235624112189,116.9119921696838 86.91023842908908,116.96689108776627 85.06732117803767,116.08850741639617 73.0,114.33173379092477 85.06732117803767,116.06105789291905 88.8541374473134,117.65312687386177 87.74333800829481,116.9119921696838 78.50350631121546,115.15522247095942" stroke="#4DD2FF" stroke-linecap="round" stroke-linejoin="round" stroke-width="0.5"><title>2024-12-03 5.6km</title><desc>1733220329000</desc></polyline><polyline fill="none" points="140.04895104910247,115.40143937780522 145.15944055945147,115.94889529052307 146.89650349656586,116.96168657849194 149.11188811191823,117.23541347435093 151.50349650357384,118.79565288650338 154.77622377616353,120.02741616321146 156.86573426576797,121.64238842498162 165.85314685327467,125.58398583540111 166.98601398605388,123.14786464892677 167.89230769244023,122.545674899593 174.76503496512305,122.9288866724819 178.99440559453797,124.48910190720926 184.9104895106284,124.43435762517038 187.0,124.59859044689802 186.37062937067822,124.76282319513848 178.74265734269284,124.54384618109907 174.76503496512305,123.03837567704613 167.8671328672208,122.65516401833156 167.11188811203465,123.0110034289246 165.953846154036,125.61135789181571 165.40000000002328,125.66610199850402 156.0853146853624,121.66976077505387 151.05034965032246,118.79565288650338 144.9328671329422,116.05838637516717 133.0,114.38864378858125 145.36083916097414,116.00364083691966 148.93566433573142,117.6460034357442 144.88251748250332,116.14050466724439 133.05034965032246,114.33389800152509 140.35104895115364,115.34669374162331" stroke="#4DD2FF" stroke-linecap="round" stroke-linejoin="round" stroke-width="0.5"><title>2024-12-02 6.1km</title><desc>1733112856000</desc></polyline><polyline fill="none" points="13.0,172.5628748673771 14.599999999976717,173.22976375810686 18.28000000002794,178.15890707424842 17.959999999962747,177.83996439597104 18.653333333320916,177.81096959405113 19.56000000005588,176.70916552116978 22.86666666669771,177.20207825518446 24.093333333265036,178.0139331619721 26.546666666632518,178.50684424329665 29.186666666530073,180.1595415485499 32.38666666659992,181.37731401930796 34.066666666651145,182.8560326109291 43.66666666662786,187.2341664789128 44.440000000060536,187.2341664789128 45.61333333328366,184.5377057500009 46.38666666659992,184.16077964368742 53.77333333331626,184.5377057500009 58.33333333325572,186.16138326528016 67.0,186.2483657981793 58.38666666671634,186.21937162271934 53.79999999993015,184.5956943492638 46.46666666667443,184.21876829920802 45.66666666662786,184.56670005069464 44.22666666668374,187.4371251326229 35.05333333322778,183.5808926135942 28.839999999967404,180.07255765487207 22.62666666659061,177.23107310241903 15.080000000074506,176.3322318326973" stroke="#4DD2FF" stroke-linecap="round" stroke-linejoin="round" stroke-width="0.5"><title>2024-11-29 4.6km</title><desc>1732853630000</desc></polyline><polyline fill="none" points="77.57320574158803,178.2582868123427 77.18564593303017,178.48303018006845 78.83923444978427,178.5111230915645 77.41818181832787,178.3425655909814 78.71004784689285,178.4549372663896 78.55502392339986,178.84823786682682 80.62200956931338,176.17940431079478 85.47942583728582,175.84228714942583 87.02966507175006,176.68507948771003 89.225837320555,177.13456796453102 97.82966507179663,182.0508132003306 106.4593301435234,185.78711671297788 107.75119617232122,183.06214712839574 108.52631578943692,182.6969435228093 115.86411483259872,183.06214712839574 119.58468899514992,184.5791429350793 127.0,184.66342030098895 119.73971291864291,184.52295801404398 115.32153110043146,182.9778694046836 108.42296650726348,182.58457311146776 107.80287081340794,182.9497768258734 106.4593301435234,185.75902434345335 97.31291866023093,182.0508132003306 87.85645933018532,176.769358617923 85.01435406703968,175.89847336389357 73.0,174.21288328705123 85.2727272727061,175.84228714942583 86.84880382788833,176.65698644009535 88.50239234452602,176.88173076222301 95.16842105274554,180.42143616641988 85.19521531101782,175.95465957000852 78.71004784689285,175.08377243427094" stroke="#4DD2FF" stroke-linecap="round" stroke-linejoin="round" stroke-width="0.5"><title>2024-11-28 6.3km</title><desc>1732767063000</desc></polyline><polyline fill="none" points="133.36241610744037,173.5473841097555 141.33557046984788,174.89374909971957 143.1476510068169,175.84605356040993 143.9932885906892,175.78037745677284 152.29865771811455,179.85227737706737 155.16778523486573,181.75686281439266 165.67785234900657,186.35410410168697 167.1577181208413,183.16887774001225 168.244966443046,182.57780227501644 176.24832214752678,183.00469019034063 179.932885906077,184.5480507426255 183.13422818784602,185.07344884666963 187.0,184.97493674984435 181.17114093957935,184.87642463104567 176.79194630868733,183.16887774001225 168.54697986587416,182.7419899837987 167.30872483213898,183.23455274273874 165.67785234900657,186.4526158902736 154.23154362419154,181.62551235870342 143.9932885906892,175.78037745677284 143.23825503361877,175.94456769755925 140.64093959738966,174.79523472770234 133.0,173.77725159437978" stroke="#4DD2FF" stroke-linecap="round" stroke-linejoin="round" stroke-width="0.5"><title>2024-11-25 4.0km</title><desc>1732507947000</desc></polyline><polyline fill="none" points="13.0,230.7641078986344 24.008025682298467,232.1777839162387 26.998394863680005,233.92131331947166 28.64526484790258,233.73282388597727 31.67897271271795,234.72239278507186 34.842696629464626,236.9842587406165 40.8234349922277,239.57597020384856 45.46067415736616,242.78025333129335 55.94863563403487,246.87982719257707 59.45906902104616,249.00028600537917 60.36918138060719,248.62331606925 62.319422150962055,244.05253771785647 67.0,243.95829451770987 62.49277688609436,244.1939024918247 59.97913322644308,249.2358921013656 46.154093098128214,243.4870783064398 28.558587480103597,234.0626803576597 27.38844301784411,234.29829201789107 31.548956661485136,235.09937100607203 33.585874799406156,236.9842587406165 37.1829855539836,237.97382255253615 45.3739967898,242.87449670693604 58.505617977818474,248.7175585743389 60.36918138060719,248.9060435424326 62.319422150962055,244.00541611970402 60.23916532914154,249.2358921013656 46.37078651692718,243.39283502212493" stroke="#4DD2FF" stroke-linecap="round" stroke-linejoin="round" stroke-width="0.5"><title>2024-11-20 4.0km</title><desc>1732095798000</desc></polyline><polyline fill="none" points="76.15454062668141,234.12237866804935 84.1269251195481,235.2760918092099 86.0483271375997,236.24271388424677 87.36749867221806,236.36743915060651 94.73765268188436,240.0156367488089 96.68773234204855,241.51232400009758 107.18374933616724,246.15825658352696 107.67126925115008,246.0958954138623 108.84705257567111,243.35199474732508 109.70738183741923,242.6971976115601 117.67976633028593,243.1337291492673 121.86670207115822,244.81748938682722 127.0,245.00457343948074 121.78066914493684,244.84867006810964 117.22092405729927,243.10254834021907 109.87944768986199,242.72837845078902 108.67498672322836,243.53907945507672 107.5565586828161,246.2206177440239 96.88847583648749,241.82413317044848 88.68667020706926,237.240514974721 84.06956983543932,235.40081736372667 73.0,233.7793822560052" stroke="#4DD2FF" stroke-linecap="round" stroke-linejoin="round" stroke-width="0.5"><title>2024-11-19 4.1km</title><desc>1731989484000</desc></polyline></svg>