<?xml version="1.0" encoding="utf-8" ?>
<svg baseProfile="full" height="300mm" version="1.1" viewBox="0,0,200,300" width="200mm" xmlns="http://www.w3.org/2000/svg" xmlns:ev="http://www.w3.org/2001/xml-events" xmlns:xlink="http://www.w3.org/1999/xlink"><defs /><rect fill="#222222" height="300" width="200" x="0" y="0" /><text fill="#FFFFFF" style="font-size:12px; font-family:Arial; font-weight:bold;" x="10" y="20">Over 4km Runs</text><text fill="#FFFFFF" style="font-size:4px; font-family:Arial" x="10" y="280">ATHLETE</text><text fill="#FFFFFF" style="font-size:9px; font-family:Arial" x="10" y="290">Fake David</text><text fill="#FFFFFF" style="font-size:4px; font-family:Arial" x="65" y="280">SPECIAL TRACKS</text><rect fill="yellow" height="2.6" width="2.6" x="65" y="283" /><text fill="#FFFFFF" style="font-size:3px; font-family:Arial" x="70" y="285.5">Over 10.0 km</text><rect fill="red" height="2.6" width="2.6" x="65" y="287" /><text fill="#FFFFFF" style="font-size:3px; font-family:Arial" x="70" y="289.5">Over 15.0 km</text><text fill="#FFFFFF" style="font-size:4px; font-family:Arial" x="120" y="280">STATISTICS</text><text fill="#FFFFFF" style="font-size:3px; font-family:Arial" x="120" y="285">Number: 52</text><text fill="#FFFFFF" style="font-size:3px; font-family:Arial" x="120" y="290">Weekly: 2.6</text><text fill="#FFFFFF" style="font-size:3px; font-family:Arial" x="141" y="285">Total: 433.5 km</text><text fill="#FFFFFF" style="font-size:3px; font-family:Arial" x="141" y="290">Avg: 8.3 km</text><text fill="#FFFFFF" style="font-size:3px; font-family:Arial" x="167" y="285">Min: 4.0 km</text><text fill="#FFFFFF" style="font-size:3px; font-family:Arial" x="167" y="290">Max: 13.0 km</text><polyline fill="none" points="12.995815899572335,41.082925164329936 16.62203626218252,41.543931739535765 18.753138075291645,42.247570837891544 22.133891213394236,44.21289152330428 25.53695955366129,45.802114979422186 25.804741980449762,45.77785214246251 25.97210599720711,45.45030348988075 26.105997210543137,44.98930797385401 26.00557880057022,44.54044266481651 26.18410041835159,44.3463383641938 27.801952580164652,44.56470568611985 29.76569037651643,44.576837195432745 31.662482566258404,45.26833173158229 35.25523012550548,45.244068815081846 31.51743375172373,45.26833173158229 29.78800557879731,44.58896870381432 26.396094839612488,44.406995982993976 26.139470013906248,44.66175773521536 25.98326359828934,45.74145788028545 25.603905160387512,45.78998356140801 21.12970711296657,43.812550344489864 17.737796373781748,41.89575166879513 16.566248256596737,41.56819520735007 11.377963737817481,40.816026024200255 16.967921896779444,41.616722132093855 25.637377963750623,45.85064064247126 25.871687587175984,45.76572072264389 26.027894002734683,45.438172045658575 25.99442119942978,44.52831115281151 26.2175732217147,44.33420683773875 29.77684797765687,44.576837195432745 31.171548117126804,45.183411508085555 32.22036262199981,45.328989006913616 35.33333333331393,45.147017113049515 31.5397489539464,45.26833173158229 29.74337517429376,44.58896870381432 26.340306833968498,44.3706014144409 26.094839609460905,44.67388923726685 26.00557880057022,45.6080121826235 25.615062761469744,45.802114979422186 20.962343096209224,43.72762936184881 17.79358437936753,41.93214679051016 15.874476987402886,41.483273054196616 13.921896792191546,41.34982386697084 11.33333333331393,40.87668495811522 13.721059972071089,41.15571576297225" stroke="#4DD2FF" stroke-linecap="round" stroke-linejoin="round" stroke-width="0.5"><title>2025-04-08 9.7km</title><desc>1744085781000</desc></polyline><polyline fill="none" points="43.87099767982727,41.03261072785244 42.0,40.923627442345605 46.09837587008951,41.250577079641516 48.537354988395236,41.83181925529789 49.305800464062486,42.15876706561539 49.78468677494675,42.61891472149 51.009744779614266,43.03062467777636 52.52436194900656,43.975131813349435 56.2997679815162,45.7793673677661 56.51136890955968,45.79147626357735 56.667285382864065,45.53718926238071 56.80092807428446,44.47160131212149 56.956844547588844,44.35051133031084 60.498375870112795,44.52003727958072 61.823665893345606,45.11337670973444 62.61438515083864,45.28290186340746 66.0,45.24657505964569 62.18004640378058,45.22235718597949 60.53178654296789,44.592691203724826 57.12389791186433,44.374729333867435 56.84547563805245,44.53214626920817 56.656148491892964,45.73093177555711 56.40000000002328,45.76725847106718 51.900696055730805,43.817714338583755 48.581902552221436,41.940801931821625 47.29002320190193,41.54119842732325 45.28538283071248,41.43221548284055 42.10023201856529,40.875190403094166 45.75313225062564,41.28690477654163 46.43248259864049,41.589635268072016 47.557308584684506,41.66229050212132 49.0719257540768,42.31618614711624 47.37911832949612,41.56541684948024 45.006960556900594,41.1658124220412" stroke="#4DD2FF" stroke-linecap="round" stroke-linejoin="round" stroke-width="0.5"><title>2025-04-07 6.0km</title><desc>1743999676000</desc></polyline><polyline fill="none" points="74.307596899278,41.172907564396155 72.88992248068098,40.86947196324763 77.36620155040873,41.464205209733336 79.47596899227938,42.010386890760856 82.24434108531568,43.454725178860826 82.54573643417098,43.78243040315283 87.04434108530404,45.821470321010565 87.26759689929895,45.772922048097826 87.39038759691175,44.59562200111395 87.61364341090666,44.3892901888903 91.23038759693736,44.65630777849583 93.15038759692106,45.34812404308468 96.66666666668607,45.38453534405562 92.81550387601601,45.29957562913478 91.17457364348229,44.65630777849583 87.72527131787501,44.449976043149945 87.49085271317745,44.547073362919036 87.35689922486199,45.5059062885266 87.06666666670935,45.84574445204635 83.42759689927334,44.32860431203153 79.17457364348229,41.9375627724512 77.87968992255628,41.57344169243879 74.98852713184897,41.2942816465802 72.77829457371263,40.833059653130476 78.33736434113234,41.609853837042465 82.12155038764467,43.418313446614775 83.30480620160233,44.182958115357906 87.04434108530404,45.80933325414662 87.2787596899434,45.68796253571054 87.4015503876144,44.66844493125973 87.62480620155111,44.42570170415274 91.06294573645573,44.632033470261376 93.04992248071358,45.3602611443348 96.65550387604162,45.445220827605226 95.14852713182336,45.5059062885266 92.88248062023195,45.33598694096145 90.95131782954559,44.632033470261376 87.66945736441994,44.42570170415274 87.41271317837527,44.632033470261376 87.39038759691175,45.5059062885266 87.11131782946177,45.83360738695774 83.24899224814726,44.25578122997831 81.12806201557396,42.993509302061284 78.22573643416399,41.63412859562959 72.66666666668607,40.82092221462517 78.16992248065071,41.58557907487557 79.77736434113467,42.228859050461324 80.32434108533198,42.70221439130546 79.16341085272143,41.94970012776321 78.79503875976661,41.94970012776321 78.16992248065071,41.561304309085244 76.59596899227472,41.391380847242544" stroke="yellow" stroke-linecap="round" stroke-linejoin="round" stroke-width="0.5"><title>2025-04-03 10.8km</title><desc>1743675722000</desc></polyline><polyline fill="none" points="104.98235840298003,41.049715003580786 103.45589600742096,40.88010666168702 105.40575673163403,41.0739447522792 106.10770659236005,41.35258660269028 108.49210770661011,41.54642413002148 110.41968430829002,42.17639449809212 111.2887650882476,42.648870672433986 111.34447539463872,42.854821395725594 114.46425255335635,44.46607393369777 117.66202414117288,45.859249348548474 117.91829155065352,45.750218659610255 118.09656453109346,44.55087625660235 118.2859795729164,44.39338619314367 120.5032497678767,44.69625156445545 121.75116063142195,44.59933470701799 123.81244196841726,45.32620972991572 127.33333333331393,45.374667949276045 123.74558960075956,45.32620972991572 121.81801299907966,44.62356392676884 118.3528319405741,44.417615443628165 118.12999071495142,44.62356392676884 117.97400185704464,45.665416962103336 117.67316620238125,45.847134831157746 114.26369545038324,44.39338619314367 110.09656453109346,42.10370573401451 108.82636954501504,41.643342807059526 103.33333333331393,40.80741731810849 109.03806870937115,41.619113143213326 110.08542246982688,42.17639449809212 110.7873723305529,42.34600148786558 113.94057567318669,44.1268641998322 117.68430826370604,45.79867675260175 117.87372330547078,45.71387508038606 118.0742804085603,44.49030317332654 118.27483751164982,44.34492768139171 119.77901578461751,44.58722009576741 121.9962859795778,44.64779314293992 123.63416898791911,45.31409517284192 127.32219127204735,45.362553395782015 123.3556174559053,45.25352237385232 121.84029712161282,44.659907749679405 118.40854224696523,44.417615443628165 118.10770659236005,44.57510548362916 117.9294336118619,45.81079127357225 117.5728876508656,45.81079127357225 113.62859795731492,44.09052025779965 112.65923862578347,43.41209851561871 109.90714948932873,42.00678733139648 107.93500464252429,41.48584992754331 103.3556174558471,40.88010666168702 106.999071494909,41.34047174954321" stroke="yellow" stroke-linecap="round" stroke-linejoin="round" stroke-width="0.5"><title>2025-04-01 10.1km</title><desc>1743481138000</desc></polyline><polyline fill="none" points="135.47623485559598,41.035121268287185 137.768872320652,41.278321917081485 140.40820130478824,41.86200199558516 145.13886300101876,44.39125821548805 148.31500465987483,45.81394761578122 148.68406337383203,45.582913428283064 148.7735321528744,44.549335427887854 148.95246971113374,44.354778837034246 152.34109972044826,44.622294089669595 154.83504193852423,45.388358069438254 157.95526561053703,45.33971919349278 154.16402609512443,45.254601125678164 152.4864864865085,44.64661363634514 148.98602050333284,44.41557779660798 148.7847157502547,44.683092949548154 148.7399813607335,45.59507313053473 148.29263746511424,45.78962824304472 144.53494874190073,44.17238182251458 140.41938490222674,41.9349618586275 139.97204100660747,41.910641907918034 139.1891891892301,41.55800221518439 137.69058713893173,41.47288217519235 134.0335507921991,40.804080316243926 140.45293569436762,41.86200199558516 145.3289841566584,44.48853651813988 148.33737185463542,45.82610730078886 148.62814538681414,45.6558716280997 148.7958993476932,44.48853651813988 148.95246971113374,44.33045924686303 150.08201304759132,44.53717564773979 152.28518173348857,44.59797453934152 154.14165890030563,45.30324002701673 158.0,45.31539975007763 157.0270270270994,45.412677501968574 154.15284249774413,45.254601125678164 152.564771668287,44.65877340831503 149.05312208767282,44.39125821548805 148.85181733459467,44.549335427887854 148.69524697115412,45.692350715762586 148.32618825731333,45.86258635041304 144.3000931966817,44.06294351594988 140.4976700838888,41.910641907918034 140.03914259094745,41.9349618586275 139.25629077357007,41.58232221844082 134.0,40.8284004318848 139.34575955267064,41.59448221873026 141.02329916128656,42.2632808387134 140.44175209698733,41.898481931202696 140.1733457595692,41.9349618586275 139.31220876052976,41.533682208289974 134.80521901213797,40.92568085808307" stroke="yellow" stroke-linecap="round" stroke-linejoin="round" stroke-width="0.5"><title>2025-03-30 10.7km</title><desc>1743316730000</desc></polyline><polyline fill="none" points="166.254737496085,41.09592150976823 164.81205343268812,40.77976019520429 167.18297607952263,41.30264203813567 170.0012426219182,41.5944823383179 171.1084187636152,41.922802052256884 176.46536191366613,44.69525330043689 178.19881950912531,45.36403931454697 178.9033861447242,45.85042742184305 179.16060888470383,45.80178867634095 179.3283628455829,45.53427531696798 179.40664802730316,44.597975106487866 179.5967691829428,44.366939163490315 183.0860515687964,44.62229466039571 185.1214662938728,45.31540042407869 188.63311587448698,45.376199034872116 184.89779434603406,45.327560148070916 183.25380552967545,44.683093529369216 179.76452314382186,44.45205770684697 179.52966759860283,44.71957283988013 179.39546442992287,45.75314991634514 178.9481205343036,45.86258710597758 175.5706741224276,44.41557833654224 171.08605156873818,42.00792187025945 170.67225846537622,42.02008184065926 169.41969555761898,41.5944823383179 164.74495184840634,40.86488060936972 169.76638707669917,41.5944823383179 171.15315315307816,41.95928197968169 174.01615408511134,43.35767305140325 175.66014290152816,44.403418544650776 178.992854923883,45.88690647146723 179.33954644296318,45.65587235285784 179.44019881950226,44.57365554894204 179.5967691829428,44.439897917662165 183.0636843740358,44.63445443600358 184.57347002171446,45.242442061251495 185.54644299473148,45.388358754324145 188.66666666668607,45.35187959327595 184.95371233299375,45.33971987113182 183.0860515687964,44.683093529369216 179.69742155942367,44.48853706900263 179.46256601426285,44.75605214224197 179.41783162468346,45.72883053087571 179.2724448586814,45.88690647146723 179.02640571602387,45.85042742184305 174.76545511028962,44.01430472519132 171.19788754271576,41.99576189898653 170.97421559487702,42.06872171310533 169.75520347931888,41.63096233915712 167.40664802730316,41.424242226654314 164.66666666668607,40.87704066491278 167.36191363772377,41.29048201433034" stroke="#4DD2FF" stroke-linecap="round" stroke-linejoin="round" stroke-width="0.5"><title>2025-03-28 10.0km</title><desc>1743136214000</desc></polyline><polyline fill="none" points="12.953445065184496,67.80111684337317 11.33333333331393,67.4852499532717 13.992551210394595,67.76467069498904 16.998137802584097,68.32351074190228 17.500931098649744,68.66367331097717 18.573556796996854,68.96738929083222 19.646182495343965,69.68415676044242 20.70763500931207,70.02431649107893 22.070763500931207,70.9476036115957 25.63500931102317,72.49045331770321 25.959031657374,72.4054147375864 26.070763500931207,71.33635451947339 26.327746741182636,71.12983071507188 29.646182495402172,71.3120576148649 31.33333333337214,71.9437759577122 32.227188081946224,72.05311157630058 35.33333333331393,72.10170516105427 31.61266294226516,72.04096317788935 29.769087523280177,71.34850297041703 26.260707635025028,71.09338531065441 26.081936685252003,71.3120576148649 26.0260707634734,72.25963421147026 25.780260707600974,72.51475004671374 22.227188081946224,71.08123684073507 17.780260707600974,68.62722735536227 15.91433891991619,68.15342919123941 11.512104283028748,67.59458856137644 13.31098696461413,67.78896812815219" stroke="#4DD2FF" stroke-linecap="round" stroke-linejoin="round" stroke-width="0.5"><title>2025-03-25 5.1km</title><desc>1742904051000</desc></polyline><polyline fill="none" points="43.62086632516002,67.8669412261952 42.04471355385613,67.52661849666038 46.225430833757855,68.0249479664053 47.60037261300022,68.26803496023058 48.80763856548583,68.7177449438459 51.54634373547742,70.15194688063639 51.948765719658695,70.51657248145784 56.3083372147521,72.50984469504328 56.710759198933374,72.31538018524589 56.78900791803608,71.27012947399635 56.95668374479283,71.09997174766613 60.66790870990371,71.3309000475274 62.28877503500553,71.99937486251292 65.97764322313014,72.03583704639459 64.97158826270606,72.1452235490724 62.355845365673304,71.97506673542375 60.48905449465383,71.34305415952986 57.05728924082359,71.12428000515501 56.76665114116622,71.36736238081357 56.67722403357038,72.3761503694841 56.25244527251925,72.47338261711411 52.42943642294267,70.80827237533231 48.48346530046547,68.5962018272694 48.159292035445105,68.63266477176512 47.309734513342846,68.23157193424413 42.0,67.49015530495672 47.66744294366799,68.29234363968135 49.65719608758809,69.11883658602892 52.038192827254534,70.54088082587987 56.35305076855002,72.50984469504328 56.666045645135455,72.4004584368231 56.77782952960115,71.27012947399635 57.00139729864895,71.08781761756109 60.410805775551125,71.29443770612124 62.33348858874524,71.99937486251292 66.0,72.07229922211263 64.62505822075764,72.18168570034322 62.26641825801926,71.97506673542375 60.410805775551125,71.30659182084491 56.967862133227754,71.08781761756109 56.77782952960115,71.36736238081357 56.73311597580323,72.26676402160956 56.58779692603275,72.47338261711411 56.35305076855002,72.46122858933813 52.328830926911905,70.77180991711793 48.51700046582846,68.584047510667 48.28225430834573,68.66912770808267 47.20912901731208,68.21941759045876 42.92780624132138,67.62385363467911" stroke="#4DD2FF" stroke-linecap="round" stroke-linejoin="round" stroke-width="0.5"><title>2025-03-23 9.7km</title><desc>1742722238000</desc></polyline><polyline fill="none" points="74.26368853735039,67.75964105737512 78.0943074299139,68.18464753188891 78.83139444707194,68.60965289811429 79.07709011947736,68.56108091233182 79.97052892821375,68.93751342337055 83.83465177600738,71.0503765437461 85.40933767647948,71.6575160525972 87.0063595470856,72.54393567440275 87.27439118974144,72.37393776436511 87.36373507056851,71.22037583417841 87.5647588025895,71.08680497804016 91.03800217161188,71.22037583417841 93.00356755079702,71.91251397195447 96.66666666668607,71.96108495896624 93.07057546149008,71.97322770347819 91.1720179929398,71.24466143264726 87.64293469837867,71.0503765437461 87.44191096635768,71.22037583417841 87.30789514502976,72.32536690034613 86.98402357689338,72.44679403322516 83.04172483325237,70.71037743096531 79.93702497292543,68.99822826306627 78.1054754149518,68.25750567339128 72.71133860712871,67.45606432559725 78.0943074299139,68.22107660671463 79.25577788118972,68.57322391014895 82.12595005432377,70.04251996599487 83.20924460992683,70.78323444341368 87.0063595470856,72.44679403322516 87.31906313018408,72.26465329997882 87.39723902597325,71.17180462642864 87.5647588025895,71.0018052853411 91.09384209709242,71.22037583417841 92.94772762531647,71.88822847300617 96.65549868158996,71.94894221359573 95.62804405158386,72.08251236322394 92.78020784864202,71.93679946726479 91.09384209709242,71.26894702746358 87.65410268341657,71.02609091637714 87.40840701106936,71.37823215941899 87.35256708553061,72.25251057722198 87.18504730885616,72.49536486105353 86.93935163650895,72.48322215546796 82.98588490777183,70.69823459236068 79.89235303242458,68.98608529692865 78.08313944475958,68.3060777496139 72.66666666668607,67.51677971718891 76.21808593149763,67.94178682503116" stroke="#4DD2FF" stroke-linecap="round" stroke-linejoin="round" stroke-width="0.5"><title>2025-03-21 9.8km</title><desc>1742551156000</desc></polyline><polyline fill="none" points="104.8354351548478,67.65376142659807 104.55519227770856,67.86096481389541 103.33333333331393,67.59281920389913 104.10680367425084,67.58063075665268 108.73641600494739,68.22661721007898 109.8685972286039,68.51913853855513 114.1282889614813,70.8592903365934 117.63692978350446,72.39499676282867 118.02926981158089,72.2974920214765 118.1525766775012,71.22493603127077 118.35435154906008,71.06648966392095 121.98629923706176,71.3102532424673 123.32025533227716,71.8952843491279 124.3963879806688,72.05372991383774 127.33333333331393,72.09029425312474 123.64533706981456,71.968413090377 121.9414603767218,71.29806507215835 118.44402926973999,71.05430147545121 118.18620582274161,71.27368872881925 118.25346411328064,71.71246235299623 118.0628989568213,72.46812528072041 117.68176864390261,72.541253765914 116.96434687828878,72.11467047479528 114.02740152570186,70.9933605195256 110.09279153036186,68.81165934396267 108.57947999372846,68.28755919665855 107.26794332865393,68.23880560920225 103.3557527634548,67.458746234086 108.8597228708677,68.26318240475666 110.83263272605836,69.00667292368598 113.66869064292405,70.6277143072657 117.77144636458252,72.48031336384884 118.07410867192084,72.24873962896527 118.1525766775012,71.20055967706139 118.37677097920096,71.04211328610836 121.91904094652273,71.3102532424673 123.66775650001364,71.95622496909346 127.2660750427749,71.99278933016467 126.3468784057186,72.11467047479528 123.5108204887947,71.93184872381971 121.97508952196222,71.29806507215835 118.41040012449957,71.06648966392095 118.19741553784115,71.24931238188583 118.17499610770028,72.02935368310136 117.9732212361414,72.41937293908268 117.79386579472339,72.45593719667522 113.83683636924252,70.81053751555737 109.82375836832216,68.543515292331 109.40899891010486,68.55570366785105 108.54585084842984,68.19005200723768 107.04374902689597,68.1169215770351 103.40059162379475,67.5196885067271 106.11334267474012,67.87315324025985" stroke="#4DD2FF" stroke-linecap="round" stroke-linejoin="round" stroke-width="0.5"><title>2025-03-19 10.0km</title><desc>1742357906000</desc></polyline><polyline fill="none" points="135.0167597765685,67.5702916423179 138.69273743015947,68.08053747279337 140.59217877092306,68.56648439831042 144.23463687149342,70.5952971677616 148.31284916203003,72.47830439789686 148.70391061453847,72.3568207165954 148.80446927371668,71.4213933393039 149.0502793295891,71.05693966185208 152.78212290501688,71.32420577162702 154.0782122905366,71.89518190232047 155.0279329608893,72.02881432505092 158.0,72.05311111742049 154.40223463682923,71.91947871458251 152.56983240222326,71.23916660240502 149.0726256983471,71.00834577665955 148.8379888268537,71.3120573216147 148.81564245809568,72.23533694479556 148.33519553072983,72.51474948464602 143.79888268152718,70.44951505599602 141.25139664806193,68.9795381463191 139.55307262571296,68.29921376850689 134.0,67.48525051535398 136.52513966482366,67.76467119457084 139.25139664800372,68.20202433994564 140.0893854748574,68.57863305287901 140.48044692736585,68.55433574282506 144.78212290507508,70.8868610002828 148.41340782126645,72.49045276103425 148.69273743015947,72.33252396948228 148.84916201117449,71.62791672830645 148.69273743015947,72.39326583049842 148.23463687149342,72.45400766888633 144.43575418996625,70.78967311402084 140.48044692736585,68.6272276621894 140.0782122905366,68.61507901118603 139.0502793295891,68.18987565729185" stroke="#4DD2FF" stroke-linecap="round" stroke-linejoin="round" stroke-width="0.5"><title>2025-03-17 7.0km</title><desc>1742185263000</desc></polyline><polyline fill="none" points="165.9794296399923,67.57226886994613 165.92332865827484,67.71866693385527 165.7999064984033,67.5600690253923 165.9008882655762,67.74306659844297 164.89107059373055,67.57226886994613 168.70593735389411,68.02366247992904 171.15194015897578,68.58485280035529 175.337073398754,70.86619364938815 179.11827956984052,72.54972961662861 179.39878447871888,72.34233843944094 179.4885460495716,71.29317904736672 179.71294997661607,71.07358669606037 183.11266947170952,71.28097948002687 185.03132304811152,71.98855288392224 188.63300607760902,72.049550448035 184.98644226271426,71.96415385194996 183.39317438052967,71.31757817932521 179.83637213648763,71.07358669606037 179.51098644227022,71.26877991174115 179.38756428239867,72.39113638710114 179.03973819542443,72.46433328135754 174.6863020103192,70.54900377591548 171.1856007479946,68.57265303123859 168.48153342684964,67.96266341616865 164.66666666668607,67.47467008797685 168.50397381954826,67.91386414880981 171.163160355296,68.51165417199081 175.29219261335675,70.79299604083644 179.03973819542443,72.45213380125642 179.4100046750391,72.24474250043568 179.4997662458918,71.25658034256776 179.67928938759724,71.07358669606037 183.24731182790129,71.26877991174115 185.06498363718856,71.95195433456684 188.66666666668607,72.049550448035 184.87424029922113,71.9153557770187 183.23609163158108,71.26877991174115 179.70172978023766,71.04918752770755 179.4997662458918,71.35417687047448 179.35390369332163,72.37893690154306 179.11827956984052,72.43993432022398 175.1014492753893,70.75639722426422 171.20804114075145,68.58485280035529 169.85039738193154,68.18225993937813 164.66666666668607,67.45027038335684 168.16736792895244,67.93826378429367" stroke="yellow" stroke-linecap="round" stroke-linejoin="round" stroke-width="0.5"><title>2025-03-15 10.0km</title><desc>1742012101000</desc></polyline><polyline fill="none" points="12.848170827433933,94.50334938168817 11.33333333331393,94.14688779989956 14.724760558863636,94.52793291064154 17.73182603227906,95.1425199444202 22.06154812366003,97.51480442025058 25.79211807186948,99.14957127976231 26.074737007322256,98.79311973635049 26.13126079441281,97.80980114151316 26.368660700216424,97.67459437639627 30.02009734645253,97.95729930432572 31.76102998899296,98.64562232070602 35.33333333331393,98.67020523246902 31.87407756311586,98.67020523246902 29.963573559361976,97.9818823186215 26.42518448730698,97.7606350579008 26.165175066678785,98.01875683324761 25.99560370540712,99.07582274777815 25.724289527337532,99.18644553342892 21.812843460415024,97.5025128787529 20.2075679069967,96.47002012384473 17.765740304545034,95.25314536737278 17.50573088391684,95.30231219819689 16.510912231111433,94.8598101932439 15.041293766640592,94.78605974371021 11.683780813240446,94.20834674822981 13.469932485430036,94.41730700142216 15.81001727108378,94.78605974371021 16.74831213685684,94.87210193164356 18.048359239997808,95.31460390360735 21.76762443082407,97.36730586184422 24.842518448655028,98.67020523246902 25.48688962153392,99.10040559543995 25.950384675699752,99.07582274777815 26.187784581503365,98.26458672003355 26.029517977673095,99.05123989644926 25.724289527337532,99.12498843946378 21.869367247563787,97.47792979303631 17.777045061986428,95.20397852188034 17.245721463288646,95.17939509365533" stroke="#4DD2FF" stroke-linecap="round" stroke-linejoin="round" stroke-width="0.5"><title>2025-03-12 7.1km</title><desc>1741778255000</desc></polyline><polyline fill="none" points="43.84097287186887,94.39036892417062 47.10757717496017,94.79315116901125 48.11786716559436,95.2325488521019 49.36389148735907,95.46445270969707 53.045837231038604,97.64921504312952 56.45837231061887,99.13825423977687 56.727782974776346,98.94297118176473 56.79513564083027,97.94214185600867 57.019644527637865,97.7102415056579 60.611786716617644,97.89332075690618 62.014967259194236,98.44255728309508 63.09260991582414,98.61343049351126 66.0,98.65004615829093 62.36295603372855,98.66225137803121 60.611786716617644,97.9665524000884 57.131898971041664,97.73465208431298 56.873713751207106,97.90552603302058 56.70533208613051,99.01620235577866 56.32366697851103,99.11384387029102 52.01309635175858,97.2342344949866 48.4770813845098,95.22034337681544 48.18521983164828,95.31798715362675 47.130028063606005,94.85417869547382 42.0,94.15846354608948 46.692235734371934,94.74432913148485 48.27502338634804,95.2325488521019 48.4770813845098,95.15931598676252 52.63049579045037,97.40510896564228 56.42469597759191,99.1260490554996 56.727782974776346,98.8575347706792 56.806361085153185,97.8567049230187 57.053320860664826,97.7102415056579 60.52198316185968,97.8567049230187 62.47521047713235,98.54019913944649 66.0,98.65004615829093 62.385406922374386,98.6256357160164 60.5332086061826,97.86891020186886 57.0420954162837,97.6370097478648 56.840037418180145,97.9665524000884 56.82881197385723,98.8575347706792 56.480823199264705,99.17486978725356 54.76333021518076,98.2838891424326 52.29373246029718,97.35628770646872 48.55565949488664,95.28137074413826 48.27502338634804,95.3301926216227 47.29840972874081,94.87858969968511 44.24508886807598,94.63447949380497 42.0,94.20728575823887 43.683816651115194,94.34154676659091 44.480823199264705,94.48801319568884 47.489242282521445,94.89079520045198 49.083255378878675,95.61091813481471 48.62301216094056,95.30578168469947 47.34331150603248,94.93961719435174 45.143124415306374,94.6833015641023 43.73994387278799,94.75653464221978 42.06735266599571,94.20728575823887" stroke="yellow" stroke-linecap="round" stroke-linejoin="round" stroke-width="0.5"><title>2025-03-07 10.7km</title><desc>1741342581000</desc></polyline><polyline fill="none" points="74.52146760345204,94.3749490406044 78.12989851675229,94.83941025839886 78.71444184228312,95.18164399846864 79.19781420764048,95.19386661882163 82.30039032001514,96.72168699381291 83.7505074160872,97.68726213321497 87.1003903200035,99.16617000012775 87.34769711166155,98.93394568016811 87.62872755661374,97.72392943158047 89.13505074160639,97.90726580045884 91.42825917247683,97.8583761221089 92.63106947700726,98.37171701800253 93.77767369244248,98.56727503206639 96.66666666668607,98.55505266301043 96.04839968774468,98.67727631253365 93.03575331770116,98.57949740019103 91.28212334116688,97.94393304965342 87.71865729894489,97.7728191499773 87.50507416081382,97.9317106341623 87.28024980484042,99.05616904744238 86.92053083528299,99.1417253503314 83.22217017953517,97.46725817097467 79.19781420764048,95.29164754900557 77.74769711156841,94.87607819326513 74.88118657300947,94.71718374962802 72.66666666668607,94.16716333321529 73.9931303668418,94.24049949529581" stroke="#4DD2FF" stroke-linecap="round" stroke-linejoin="round" stroke-width="0.5"><title>2025-03-05 4.7km</title><desc>1741177738000</desc></polyline><polyline fill="none" points="104.42843419790734,94.32287572490168 108.19788664742373,94.77409305736364 109.25840537948534,95.07490393999615 113.52353506244253,97.40617004295927 116.62439961574273,98.69712608412374 117.32756964454893,99.16086515637289 117.67339097021613,99.0731308353279 117.84630163304973,97.84484553700895 118.09990393853514,97.70697621926956 121.55811719497433,97.8824462404009 123.46013448602753,98.60939152126957 127.33333333331393,98.65952556280536 125.86935638805153,98.7973940999509 123.43707973096753,98.67205907082825 121.75408261286793,97.98271474175272 118.11143131600693,97.7195097982767 117.93852065317333,97.8824462404009 117.75408261280973,99.11073126424162 117.50048030738253,99.2109990335739 112.90105667628814,97.25576675312186 109.21229586936533,95.1501065765915 108.97022094140993,95.23784294349025 107.86359269928653,94.82422824183595 103.33333333331393,94.12233429974003" stroke="#4DD2FF" stroke-linecap="round" stroke-linejoin="round" stroke-width="0.5"><title>2025-03-03 4.6km</title><desc>1740978130000</desc></polyline><polyline fill="none" points="136.0401681457297,94.41793422031333 135.8608127043699,94.52763014758239 134.0,94.1497883106349 136.92573563754559,94.45449953757634 140.45679588976782,95.21018093114253 143.60672582907137,96.77028631413123 144.6492293321062,97.47720416774973 148.25875758990878,99.12260458432138 148.63988790288568,99.0982284026104 148.83045305934502,97.9281674095837 148.99859878560528,97.72096823662287 152.4399813171476,97.95254376562661 154.14385801029857,98.63508026012278 157.94395142461872,98.68383275791712 156.6099953292869,98.78133770990826 154.0990191499004,98.61070400576864 152.41756188700674,97.97692011803156 149.04343764594523,97.75753281562356 148.87529191968497,97.87941468659847 148.7071461933665,98.96415933831304 148.37085474072956,99.17135693684395 144.58197104156716,97.53814521903405 140.43437645962695,95.24674607133784 140.23260158806806,95.3076879534492 139.49276039231336,94.96641312107386 134.0,94.16197677059972 139.6496964035323,94.92984791823255 148.2363381597097,99.18354502269358 148.651097617927,99.11041649390245 148.763194768806,98.02567281195661 148.96496964036487,97.75753281562356 152.72022419428686,98.00129646678397 154.17748715553898,98.64726838593197 158.0,98.74477335973643 154.19990658573806,98.63508026012278 152.4960298925289,97.9891082928807 149.0322279309039,97.72096823662287 148.83045305934502,97.9281674095837 148.651097617927,99.04947602831817 148.30359645024873,99.14698076239438 144.16721158340806,97.31875732823391 140.68099019152578,95.3076879534492 140.1541335824295,95.28331120332587 139.15646893973462,94.85671748802997 135.92807099490892,94.47887641120178 137.21718822984258,94.58857229760906 139.48155067727203,94.91765951545676 140.99486221390544,95.58802031887171 141.05091078934493,95.46613674076798 140.37832788418746,95.23455769216525" stroke="yellow" stroke-linecap="round" stroke-linejoin="round" stroke-width="0.5"><title>2025-02-28 10.0km</title><desc>1740736874000</desc></polyline><polyline fill="none" points="166.34420627530199,94.76365673461987 166.5790618204628,94.49613628008228 166.2994718857226,94.7514967234747 166.54551102826372,94.59341649609269 166.40012426226167,94.5326163678692 164.76731904322514,94.20429528404202 165.51662006840343,94.17997517751064 170.0459770114976,94.80013676264207 170.7729108419153,95.15277661301661 171.20907114015426,95.10413667892863 175.5818577198661,97.47531659330707 179.08232370304177,99.09256313429796 179.38428083260078,98.98312590392015 179.49611680652015,97.81579088095168 179.71978875430068,97.66987341604545 183.22025473753456,97.88874956444488 184.94252873567166,98.54537624861405 188.6107486797846,98.61833460602793 184.92016154091107,98.6061748820357 183.130785958434,97.88874956444488 181.07300403853878,97.90090934187174 179.6526871699607,97.69419300260779 179.47374961170135,97.80363109715108 179.38428083260078,99.00744529477379 179.10469089780236,99.26279868016718 174.62006834422937,97.2321202387393 171.4215594905545,95.35949617106235 169.60981671331683,94.86093679118494 168.17831624730024,94.81229677014926 164.67785026406636,94.1678151228698 170.10189499845728,94.87309679419559 170.69462566019502,95.22573648692924 171.20907114015426,95.22573648692924 175.59304131718818,97.54827542899875 179.14942528743995,99.14120187980006 179.39546442998108,98.9344871112844 179.55203479342163,97.69419300260779 183.1196023609955,97.86443000689906 184.57347002177266,98.43593865135335 185.64709537127055,98.6061748820357 188.66666666668607,98.6061748820357 184.99844672257314,98.61833460602793 183.130785958434,97.9860277583939 181.08418763591908,97.97386798732623 179.57440198824042,97.71851258550305 179.40664802736137,98.87368860015704 179.07114010566147,99.18984061085212 175.05622864246834,97.43883716320852 171.1196023610537,95.23789646274236 165.84094439266482,94.38669596772525 164.66666666668607,94.0705346531613 166.42249145702226,94.33805580534681 167.18297607952263,94.49613628008228 169.24075799947605,94.67853663755523 171.65641503577353,95.55405551589502 171.17552034795517,95.22573648692924 170.94066480273614,95.28653635694354 169.86703945329646,94.86093679118494 167.3171792482608,94.67853663755523 165.5837216526852,94.24077543709427" stroke="yellow" stroke-linecap="round" stroke-linejoin="round" stroke-width="0.5"><title>2025-02-26 11.1km</title><desc>1740566027000</desc></polyline><polyline fill="none" points="13.381840795977041,121.11209221190074 11.378109452722128,120.86866455170093 12.273631840827875,120.85649315918272 16.80721393029671,121.47723302200029 17.445273631834425,121.83020169597876 17.825870646745898,121.81803037508507 20.98258706467459,123.37595207837876 21.654228855739348,123.96016888685699 24.95646766165737,125.29899119348556 25.70646766171558,125.81017499820155 26.075870646745898,125.5910964205832 26.17661691538524,124.4713568805455 26.35572139301803,124.32530333127943 27.75497512432048,124.54438360621862 29.769900497514755,124.55655472401122 31.292288557160646,125.15293838409707 32.389303482545074,125.31116225502046 35.266169154201634,125.27464906766545 32.35572139295982,125.27464906766545 31.370646766095888,125.14076731073146 29.915422885562293,124.5930680718593 26.445273631834425,124.36181673084502 26.199004975089338,124.5200413679704 25.997512437810656,125.7371488383069 25.672885572130326,125.82234602166864 24.12810945272213,124.98254327476025 21.79975124372868,124.06970930588432 17.870646766095888,121.87888697045855 17.50124378106557,121.91540091681236 16.572139303490985,121.47723302200029 15.329601990059018,121.48940436828707 11.33333333331393,120.80780758000037 16.594527363195084,121.48940436828707 17.445273631834425,121.89105828684114 17.870646766095888,121.83020169597876 21.184079601953272,123.69240310895839 24.95646766165737,125.33550437542726 25.784825870592613,125.8588590866566 26.109452736272942,125.50589911661518 26.165422885562293,124.50787024747115 26.310945273609832,124.32530333127943 28.00124378106557,124.54438360621862 29.691542288521305,124.50787024747115 31.269900497514755,125.10425408526498 32.445273631834425,125.26247800335113 35.33333333331393,125.27464906766545 31.88557213929016,125.27464906766545 29.949004975089338,124.58089695683157 28.818407960177865,124.61741029923724 26.366915422840975,124.31313219630101 26.165422885562293,124.54438360621862 26.08706467662705,125.5789253799012 25.97512437804835,125.79800397378858 25.72885572136147,125.83451704423351 21.273631840769667,123.76543018282973 17.92661691538524,121.90322960227786 17.53482587065082,121.91540091681236 16.661691542249173,121.55026108610036 15.240049751242623,121.47723302200029 11.456467661715578,120.86866455170093 14.120646766154096,121.19729180727154 14.691542288521305,121.2338059059548 16.58333333337214,121.53808974435378 18.58706467662705,122.2196834856295 21.08333333331393,123.50983528151119 17.949004975089338,121.91540091681236 14.691542288521305,121.28249135817168" stroke="yellow" stroke-linecap="round" stroke-linejoin="round" stroke-width="0.5"><title>2025-02-21 11.3km</title><desc>1740135343000</desc></polyline><polyline fill="none" points="43.9664804469794,121.20126890284882 42.06703910615761,120.82465859048534 44.79329608939588,121.12837665222469 47.363128491677344,121.55358098822762 48.078212290478405,121.91804096511623 48.78212290501688,121.95448691800993 51.921787709521595,123.75247714656871 55.55307262565475,125.33177653327584 56.36871508380864,125.82986009042361 56.73743016755907,125.56259593181312 56.86033519549528,124.4813864564203 57.016759776568506,124.35990179771034 58.569832402223255,124.5664256636519 60.58100558660226,124.57857411817531 61.86592178768478,125.12525363660825 62.960893854731694,125.30747973547841 65.94413407816319,125.29533133524819 65.0502793295891,125.41681529708148 62.379888268129434,125.27103453199379 60.51396648044465,124.63931637740461 57.07262569834711,124.3963472048199 56.83798882679548,124.59072257184016 56.67039106145967,125.68407969456166 56.32402234635083,125.81771172907611 52.08938547485741,123.92255627694249 48.547486033523455,121.94233826796699 48.03351955313701,121.91804096511623 47.19553072628332,121.55358098822762 45.78770949720638,121.46854020973842 42.0,120.81250985627412 47.25139664800372,121.51713494572323 48.45810055866605,121.85729769221507 51.39664804469794,123.3151299967285 52.379888268129434,123.98329878052755 56.49162011168664,125.76911827466392 56.71508379885927,125.57474431217997 56.79329608933767,124.55427720818261 56.9497206704109,124.35990179771034 60.46927374298684,124.5664256636519 61.87709497206379,125.12525363660825 63.005586592131294,125.30747973547841 66.0,125.33177653327584 64.75977653625887,125.42896368827496 62.39106145250844,125.2831829340721 60.58100558660226,124.63931637740461 57.039106145268306,124.3841987366759 56.80446927371668,124.61501947644865 56.74860335193807,125.55044755057315 56.52513966476545,125.8541568103974 52.79329608933767,124.23841704847291 48.55865921784425,121.91804096511623 48.17877094971482,121.94233826796699 47.26256983244093,121.56572966722888 44.32402234635083,121.18912019667914 45.28491620114073,121.29845851968275 47.19553072628332,121.51713494572323 49.083798882726114,122.23390561947599 48.592178770923056,121.91804096511623 47.988826815620996,121.90589231235208 46.90502793295309,121.50498626306944 45.93296089384239,121.49283757954254 42.547486033523455,120.86110478777846" stroke="yellow" stroke-linecap="round" stroke-linejoin="round" stroke-width="0.5"><title>2025-02-19 10.6km</title><desc>1739962218000</desc></polyline><polyline fill="none" points="74.40823970048223,120.99992838480102 72.66666666668607,120.82889075911953 75.62172284652479,121.14653192197147 77.98127340828069,121.5619078988093 78.63295880157966,121.89176454258268 79.10486891388427,121.8673307398567 83.22846441948786,124.13965881658078 87.18352059932658,125.83777590755199 87.3745318352594,125.59344359616807 87.498127340863,124.53059380568448 87.68913857685402,124.39621000832994 91.25093632965581,124.6161107103253 92.8576779026771,125.27581104717683 96.66666666668607,125.34911092075345 93.05992509366479,125.30024434199731 91.20599250943633,124.6283274073503 87.91385767795146,124.39621000832994 87.72284644201864,124.60389401239809 87.52059925097274,124.55502721159428 87.3745318352594,125.6667433278053 87.02621722855838,125.80112608404306 82.47565543081146,123.78537317769951 79.12734082399402,121.91619834165613 77.8576779026771,121.5374740469415 73.53183520602761,120.92662656705943" stroke="#4DD2FF" stroke-linecap="round" stroke-linejoin="round" stroke-width="0.5"><title>2025-02-18 4.9km</title><desc>1739836925000</desc></polyline><polyline fill="none" points="105.92853784671752,121.01459202628757 105.89468735305127,121.30903966337792 107.13587212038692,121.27223373753077 108.78326281148475,121.55441229209828 110.9384109073435,122.70765874942299 112.1006111894385,123.08798293778091 113.18382698635105,123.87316558028397 116.82839680294273,125.36990962240088 117.6633756463998,125.87291071377695 117.96803008933784,125.63981283806788 118.04701457452029,124.54792892257683 118.22755054064328,124.3884396548383 121.78185237420257,124.67061286959506 123.4292430653004,125.32083626293752 127.33333333331393,125.39444629666104 123.55336154205725,125.24722619634122 121.80441936996067,124.59700251235336 118.31781852373388,124.37617124321696 118.11471556179458,124.59700251235336 118.05829807237023,125.56620291400759 117.87776210624725,125.8238375041692 113.73671838268638,124.09399752393074 110.39680300891632,122.20464798987086 108.69299482833594,121.5176064210973 103.33333333331393,120.79375595290912 108.72684532200219,121.52987504568591 110.28396803006763,122.2291851357586 108.72684532200219,121.52987504568591" stroke="#4DD2FF" stroke-linecap="round" stroke-linejoin="round" stroke-width="0.5"><title>2025-02-14 5.4km</title><desc>1739506837000</desc></polyline><polyline fill="none" points="136.62307333020726,121.18210950338107 138.64082204579609,121.42587785831711 140.45679588982603,121.87684835733671 144.94068192434497,124.27794062459725 148.3820644558291,125.85021037678234 148.66230733302655,125.8014580533345 149.09948622144293,124.70452693467087 149.42456795892213,124.4485752821056 152.60812704346608,124.63139793195296 154.40168145729695,125.35049837258703 158.0,125.38706271733099 154.32321345165838,125.35049837258703 152.57449789816746,124.65577426982054 149.48061653436162,124.49732800868514 149.1779542270233,124.64358610133058 148.5614198973053,125.85021037678234 144.70527790754568,124.29012882029929 140.49042503500823,121.92560185032198 139.4703409621725,121.59651549064438 134.0,120.81645628987462 139.31340495095355,121.52338509856781 140.54647361050593,121.92560185032198 144.72769733774476,124.20481143114739 148.3484353106469,125.82583421688469 148.68472676322563,125.74051762856834 149.14432508178288,124.66796243737917 149.5030359645607,124.49732800868514 152.61933675856562,124.66796243737917 154.32321345165838,125.31393401965033 158.0,125.3748746033234 156.4642690331675,125.46019138229894 154.31200373661704,125.28955777986266 152.5520784680266,124.65577426982054 149.46940681920387,124.4363870981615 149.1779542270233,124.63139793195296 148.6735170481261,125.77708188616089 148.49416160676628,125.8136461355316 144.5035030359868,124.13168220504303 140.88276506308466,122.10842731966113 139.7393741242704,121.63308067440812 134.02241943019908,120.84083319621277 136.8696870621061,121.08460205970914 139.4703409621725,121.52338509856781 141.02849135920405,122.32781761317165 140.4455861747265,121.9134134784399 140.2998598785489,121.98654369614087 139.30219523591222,121.54776189956465" stroke="yellow" stroke-linecap="round" stroke-linejoin="round" stroke-width="0.5"><title>2025-02-12 10.1km</title><desc>1739334019000</desc></polyline><polyline fill="none" points="183.96280400577234,125.00706321769394 184.96995708160102,125.355491427792 188.66666666668607,125.38037912928849 185.09585121605778,125.40526682704512 183.37911301868735,124.63374647177989 180.01430615171557,124.40975602375693 179.2818311874289,125.81591330499214 179.06437768245814,125.85324475292873 174.57796852645697,123.8871104769787 173.37625178828603,123.11558310945111 170.19456366245868,121.62229420959193 164.66666666668607,120.75120285239245 169.98855507874396,121.48540872574085 171.76251788268564,122.16983502302901 174.01716738200048,123.26491126518522 175.15021459234413,124.06132584094303 178.98426323320018,125.79102566841175 179.29327610880136,125.67903125785233 179.76251788274385,124.55908302249736 180.04864091560012,124.39731210119498 182.10872675251449,124.62130256590899 183.13876967097167,124.55908302249736 184.98140200291527,125.31815986860602 188.5178826896008,125.36793527899135 183.67668097285787,125.0195070948539 183.73390557942912,125.36793527899135 183.63090128760086,124.9572876997845 183.21888412022963,124.77062937548908 180.04864091560012,124.44708778595668 179.8197424893151,124.57152693301032 179.1902718169149,125.91546381427906 174.8755364806857,124.06132584094303 174.08583690988598,123.42668328320724 172.63233190274332,122.72981808929762" stroke="#4DD2FF" stroke-linecap="round" stroke-linejoin="round" stroke-width="0.5"><title>2025-02-10 6.3km</title><desc>1739162078000</desc></polyline><polyline fill="none" points="11.504856148036197,149.03213014967332 12.956203041947447,149.07514680481108 19.500458127178717,150.03584960533772 21.50595565326512,149.94981671357527 21.677478467987385,150.60940123729233 22.429540040320717,150.65241754100134 23.313542239251547,150.98220888443757 23.920469122182112,150.1075436525134 29.330034817568958,150.0071719790285 29.62030419637449,150.50902982469415 29.96334982587723,150.59506246725505 30.187648891296703,150.46601348902914 30.411947956716176,149.86378378352674 31.44108484510798,149.79208964583813 35.33333333331393,150.2796092570934 31.678577973216306,149.77775081509026 30.372365768707823,149.84944495810487 30.121678577910643,150.46601348902914 29.89737951249117,150.58072369614092 29.330034817568958,149.99283316424408 23.986439435568172,150.0788660368271 23.60381161805708,150.33696442456858 23.33993036468746,150.99654762573482 21.743448781315237,150.62374000629643 21.743448781315237,150.06452722739778 21.57192596665118,149.92113907448947 19.632398753834423,150.02151079270698 13.497159611433744,149.11816345031548 11.33333333331393,149.01779126249312 13.206890232686419,149.08948568768392 19.210188748373184,149.99283316424408 21.47956752788741,149.92113907448947 21.66428440529853,150.59506246725505 23.3267363019404,150.98220888443757 23.722558182140347,150.23659287032206 24.06560381152667,150.0788660368271 29.27725856692996,149.99283316424408 29.646692321752198,150.52336860110518 29.910573575180024,150.58072369614092 30.187648891296703,150.4086583599128 30.293201392691117,149.93547789455624 30.623052959446795,149.80642847552372 35.056258017139044,150.23659287032206 31.863294850627426,149.77775081509026 30.57027670874959,149.77775081509026 30.21403701667441,149.96415553154657 29.989737951254938,150.58072369614092 29.725856697768904,150.52336860110518 29.316840754938312,149.96415553154657 23.933663184870966,150.06452722739778 23.617005680687726,150.3082868429483 23.3531244272599,150.98220888443757 21.73025471868459,150.60940123729233 21.57192596665118,149.86378378352674 19.421293751103804,149.94981671357527 12.797874289855827,149.00345237426518 11.63679677475011,149.04646903577668 12.824262415175326,149.03213014967332 20.015026571345516,150.05018841692072 21.545537841215264,149.92113907448947 21.69067253067624,150.60940123729233 22.719809419068042,150.73845011967933 21.743448781315237,150.59506246725505 21.47956752788741,149.87812260785722 19.487264064431656,149.96415553154657 13.404801172786392,149.07514680481108 11.781931464152876,149.04646903577668 13.52354773686966,149.11816345031548" stroke="#4DD2FF" stroke-linecap="round" stroke-linejoin="round" stroke-width="0.5"><title>2025-01-25 9.9km</title><desc>1737761473000</desc></polyline><polyline fill="none" points="42.31999999994878,148.82629531552084 50.146666666609235,149.956532981465 52.41333333333023,149.85510166347376 52.40000000002328,150.7824717508338 53.28000000002794,150.8259421155235 54.039999999979045,151.17370468447916 54.679999999993015,150.23184629305615 60.13333333324408,150.10143477281963 60.63999999995576,150.7390013764525 60.97333333326969,150.63757046523097 61.066666666651145,150.10143477281963 61.27999999996973,149.9420427964069 66.0,150.39123803275288 62.320000000006985,149.89857223477156 61.15999999991618,150.00000353016367 60.79999999998836,150.7245112495002 60.50666666665347,150.63757046523097 60.38666666665813,150.20286596276856 60.13333333324408,150.08694459852995 54.70666666660691,150.18837579600222 54.43999999994412,150.33327741519315 54.11999999999534,151.14472449407913 52.49333333328832,150.75349150229886 52.373333333292976,150.02898389061738 50.51999999996042,150.15939545923902 43.25333333329763,149.10161022195825 42.0,149.11610046941496 43.626666666648816,149.15957120536768 50.10666666663019,150.13041511819756 52.18666666664649,150.01449371092895 52.35999999998603,150.1738856281736 52.35999999998603,150.68104086221138 54.039999999979045,151.14472449407913 54.66666666662786,150.20286596276856 60.119999999937136,150.08694459852995 60.453333333309274,150.63757046523097 60.76000000000931,150.7245112495002 61.33333333331393,149.9275526102865 65.19999999995343,150.23184629305615 61.44000000000233,149.8840820454352 61.066666666651145,150.00000353016367 61.0,150.56511978209892 60.76000000000931,150.69553099237964 60.119999999937136,150.04347406919987 54.733333333337214,150.18837579600222 54.38666666671634,150.40572818444343 54.0800000000163,151.11574429935717 52.47999999998137,150.7245112495002 52.27999999996973,149.9855133483652 50.50666666665347,150.14490528924216 43.38666666665813,149.08711997341015 42.293333333334886,149.13059071578027 43.51999999996042,149.10161022195825 45.22666666662553,149.37692473988864" stroke="#4DD2FF" stroke-linecap="round" stroke-linejoin="round" stroke-width="0.5"><title>2025-01-19 8.1km</title><desc>1737283232000</desc></polyline><polyline fill="none" points="75.83901603607228,147.8183071721578 77.84555503656156,148.09864064452995 78.69749338313704,148.53742250650248 79.32523742795456,148.54961087476113 82.30702164093964,150.10971451425576 82.67694223881699,150.4509852022311 86.32009964186,152.01107071024308 87.13840884319507,152.52297052612994 87.36260314495303,152.38890168149373 87.84462089365115,151.25540615002683 88.15849291603081,151.07258355464728 91.10664798377547,151.21884164729272 92.98988011828624,151.88918956561247 96.66666666668607,151.98669448857254 92.91141211264767,151.88918956561247 91.20753541955492,151.19446530760615 88.20333177642897,151.04820719316194 87.8558306087507,151.18227713640954 87.35139342979528,152.38890168149373 87.19445741863456,152.4620301558316 83.14775027247379,150.7678787750192 79.19072084693471,148.57398760854267 78.87684882449685,148.59836433870078 77.93523275724147,148.18395943210635 75.35699828743236,147.94019134961127 72.66666666668607,147.42827719399065 78.10337848355994,148.22052461313433 79.2467694223742,148.561799242103 83.34952514397446,150.80444337853987 86.30888992681867,152.02325881972502 87.03752140741562,152.54734666785225 87.34018371475395,152.4498420790478 87.83341117855161,151.32853513098962 88.20333177642897,151.1335244424845 91.28600342513528,151.279782480633 93.02350926358486,151.91356580180582 96.66666666668607,152.01107071024308 93.00108983338578,151.98669448857254 91.16269655921496,151.29197064458276 88.19212206132943,151.1335244424845 87.87825003889157,151.279782480633 87.35139342979528,152.4864063066634 86.94784368673572,152.49859438071144 82.47516736725811,150.4509852022311 79.29160828271415,148.63492942713492 78.88805853959639,148.65930614818353 78.01370076288003,148.24490139597037 72.71150552696781,147.46484254395182 78.22668534953846,148.23271300501074 78.84321967925644,148.58617597406555 79.20193056197604,148.54961087476113 83.33831542893313,150.816631577909 87.2056671337341,152.57172280600935 87.92308889923152,151.23102981578268 89.12252841348527,151.23102981578268 88.06881519540912,151.21884164729272 87.35139342979528,152.51078245385725 87.01510197727475,152.4620301558316 82.4415382220177,150.4509852022311 79.25797913747374,148.6227410652209 78.93289739999454,148.6471177881176 78.03612019307911,148.23271300501074 75.52514401363442,147.94019134961127" stroke="yellow" stroke-linecap="round" stroke-linejoin="round" stroke-width="0.5"><title>2025-01-17 12.3km</title><desc>1737088953000</desc></polyline><polyline fill="none" points="105.76029962539906,147.70935502290376 105.91760299622547,147.44058157101972 106.60299625463085,147.8926093965565 109.79400749062188,148.52788963963394 111.59176029957598,149.4563717214187 112.28838951303624,150.00612837077642 117.79400749062188,152.54720182478195 118.00749063666444,152.4006025034614 118.47940074896906,151.28888671851018 118.77153558045393,151.0934194278234 121.90636704111239,151.28888671851018 123.6254681647406,151.92415380418242 127.32209737820085,151.9852370481094 123.7041198501247,151.92415380418242 121.77153558045393,151.28888671851018 118.86142322095111,151.14228627234115 118.52434456924675,151.26445331993455 117.99625468155136,152.4861187901406 117.85018726589624,152.5349852196814 113.74906367040239,150.775784583544 109.82771535572829,148.564540347812 108.53558052435983,148.23468367944588 103.33333333331393,147.50166648514278 108.43445692880778,148.18581596843433 109.501872659137,148.564540347812 109.80524344567675,148.52788963963394 114.19850187259726,150.9468188069004 116.87265917594777,151.99745369415905 117.67041198496008,152.51055200674455 117.97378277149983,152.43725234609155 118.45692883891752,151.2766700196662 118.79400749062188,151.10563614031707 121.79400749062188,151.28888671851018 123.60299625463085,151.91193715264671 127.33333333331393,151.96080375328893 123.65917602990521,151.91193715264671 121.89513108605752,151.33775350476208 118.87265917600598,151.11785285193764 118.52434456924675,151.28888671851018 117.88389513106085,152.55941842896573 113.92883895122213,150.86130171752302 109.8614232208929,148.62562484318914 109.31086142320419,148.60119104776822 108.71535580517957,148.25911752948014 104.72659176029265,147.68492109092767" stroke="#4DD2FF" stroke-linecap="round" stroke-linejoin="round" stroke-width="0.5"><title>2025-01-15 9.1km</title><desc>1736916504000</desc></polyline><polyline fill="none" points="136.09230769233545,147.34791047594626 136.2489510489977,147.61555666571076 136.79720279725734,147.94403093530855 139.53846153849736,148.3941612686176 141.02657342661405,148.8807872600737 142.7944055944099,150.0365181775269 148.37762237759307,152.59126275926246 148.62377622380154,152.53043597175565 149.09370629373007,151.43554992295685 149.47412587411236,151.22873728943523 152.56223776220577,151.42338448115333 154.2517482517287,152.09248243314505 158.0,152.17764015763532 154.2069930070429,152.12897860622616 152.52867132867686,151.45988080376992 149.46293706289725,151.22873728943523 149.09370629373007,151.43554992295685 148.56783216778422,152.60342811403098 148.22097902098903,152.60342811403098 144.55104895104887,150.973262498228 140.4895104895695,148.7104683280195 140.25454545457615,148.783462177802 138.83356643357547,148.33333291769668 134.0,147.6520538393961 138.05034965038067,148.13868204252503 140.4671328671975,148.67397139090463 144.08111888112035,150.66912532088463 148.4447552447673,152.65208952405374 148.70209790207446,152.50610525043157 149.2279720280203,151.2773991091235 150.3692307692254,151.30173001352523 149.2615384615492,151.32606091430353 148.5342657342553,152.6399241729232 144.2713286713115,150.90026962732372 140.55664335668553,148.7347996148892 139.24755244754488,148.357664260795 135.72307692311006,147.87103671029035" stroke="#4DD2FF" stroke-linecap="round" stroke-linejoin="round" stroke-width="0.5"><title>2025-01-14 7.8km</title><desc>1736829619000</desc></polyline><polyline fill="none" points="167.94852713181172,147.9791553395189 167.75875968998298,147.71213237859774 168.2052713178564,147.76068204040348 171.95596899226075,148.9622815597104 174.2666666666628,150.1031860318035 175.29364341089968,150.81928156597132 179.01085271319607,152.51847871261998 179.2564341085381,152.44565634126775 179.75875968992477,151.30476827337407 180.08248062012717,151.11057376401732 183.10759689920815,151.30476827337407 184.55875968997134,151.89948751835618 185.59689922485268,152.0329956219066 188.66666666668607,152.0329956219066 184.7708527132054,151.93589883018285 183.118759689969,151.30476827337407 180.11596899229335,151.09843659948092 179.79224806203274,151.23194535948278 179.26759689924074,152.44565634126775 178.955038759741,152.45779340542504 175.21550387598109,150.84355593568762 171.79968992253998,148.97441888335743 170.08062015502946,148.25831523980014 164.66666666668607,147.49365872138878 170.1475968992454,148.28258999112586 171.79968992253998,148.90159492778184 174.79131782945478,150.5886748731573 178.9773643410881,152.4820675309893 179.24527131789364,152.40924514336803 179.69178294576705,151.31690542251454 180.01550387602765,151.11057376401732 183.20806201553205,151.31690542251454 184.88248062017374,151.94803593230608 188.55503875971772,152.04513271682663 184.80434108531335,151.91162462320062 183.12992248061346,151.28049397237191 180.004341085325,151.09843659948092 179.73643410851946,151.25621966771723 179.21178294578567,152.4820675309893 178.78759689925937,152.44565634126775 178.21829457365675,152.05726981081534 175.0592248062021,150.7950071926316 171.08527131786104,148.5496120169846 169.89085271320073,148.22190310600854 164.7113178294967,147.48152128739457 171.10759689926635,148.5374746616726 175.08155038760742,150.72218405087187 178.25178294576472,152.0329956219066 178.98852713184897,152.5063416530029 179.24527131789364,152.43351927617914 179.73643410851946,151.24408251406567 180.0489922480774,151.09843659948092 183.05178294575308,151.25621966771723 184.60341085272375,151.8752133059752 185.5410852713394,151.972310133875 184.55875968997134,151.8752133059752 183.0182945736451,151.25621966771723 180.07131782948272,151.06202510051662 179.75875968992477,151.20767104763945 179.2564341085381,152.38497100690438 178.8545736434171,152.39710807557276 177.81643410853576,151.82666487029928 175.08155038760742,150.7707328156539 171.07410852710018,148.5496120169846 169.53364341089036,148.16121619830665" stroke="yellow" stroke-linecap="round" stroke-linejoin="round" stroke-width="0.5"><title>2025-01-10 13.0km</title><desc>1736482744000</desc></polyline><polyline fill="none" points="13.63239875389263,173.9657012650714 14.731464174459688,174.70954430822167 16.638006230525207,175.07536751549924 18.510903426795267,175.7948174377816 20.540809968835674,177.00202291383175 25.789408099721186,179.36763206827163 26.036137071670964,179.17253157589585 26.137071651115548,178.0994747110526 26.282866043620743,177.91656658919237 29.815576324006543,178.1482501756982 31.666043613746297,178.83110515467706 35.277258566988166,178.91646182672412 31.50903426791774,178.7945237101667 29.815576324006543,178.1604440395895 26.350155763269868,177.90437270715483 26.125856697850395,178.1604440395895 26.036137071670964,179.22130672077765 25.789408099721186,179.36763206827163 21.774454828700982,177.66049487519194 17.826791277271695,175.45338397065643 16.593146417464595,175.07536751549924 11.33333333331393,174.34372028324287 16.884735202533193,175.09975570024108 17.434267912758514,175.40460770291975 17.815576323948335,175.40460770291975 21.8417445482919,177.61171926515817 25.621183800627477,179.3188569669437 26.002492211817298,179.22130672077765 26.114641744585242,178.11166857859644 26.31651090347441,177.9287604703277 29.815576324006543,178.1604440395895 31.75576323986752,178.83110515467706 35.33333333331393,178.87988040130585 31.452959501591977,178.78232989349635 29.80436137074139,178.11166857859644 26.36137071653502,177.9287604703277 26.170716510911006,178.05069923186966 26.159501557645854,178.91646182672412 25.867912772635464,179.35543829428207 21.695950155786704,177.62391316905268 17.849221183802,175.4411899051047 16.514641744550318,175.07536751549924 11.33333333331393,174.3071378357854 15.258566978154704,174.8070972434507 17.77071651094593,175.380219563609 21.46043613710208,177.44100451574195 25.64361370721599,179.3188569669437 25.957632398814894,179.23350050470617 26.204361370764673,178.62381019431632 25.957632398814894,179.29446941087372 25.46417445485713,179.22130672077765 21.76323987543583,177.63610707198677 17.826791277271695,175.36802549258573 17.568847352056764,175.42899583859253 16.70529595017433,175.01439703772485 15.280996884801425,174.85587368924462" stroke="yellow" stroke-linecap="round" stroke-linejoin="round" stroke-width="0.5"><title>2025-01-08 12.0km</title><desc>1736310892000</desc></polyline><polyline fill="none" points="44.5582047685748,175.19052171132353 44.894810659170616,174.6537302101351 44.93969144456787,174.12913681555074 45.15287517529214,173.94613872436457 45.39971949509345,173.99493823533703 45.2875175314839,174.08033734456694 46.375876577803865,174.49513238437066 46.93688639550237,174.95872559712734 49.237026647955645,175.76391068920202 53.05189340811921,177.82565446702938 56.4852734922315,179.35059618231026 56.70967741927598,179.13100545048655 56.74333800835302,178.11844437784748 57.05750350630842,177.9110515784414 60.49088359042071,178.15504307992524 62.28611500700936,178.83821735002857 66.0,178.91141442423395 62.26367461431073,178.8138183180563 60.53576437581796,178.17944221005018 57.01262272091117,177.94765032682335 56.776998597430065,178.19164177375205 56.74333800835302,179.13100545048655 56.55259467038559,179.387194608993 52.34502103785053,177.59386208301294 48.49649368860992,175.43451726646163 48.07012622716138,175.43451726646163 47.28471248247661,175.0563240009942 42.0,174.38533379961154 47.4417952314252,175.166122135779" stroke="#4DD2FF" stroke-linecap="round" stroke-linejoin="round" stroke-width="0.5"><title>2025-01-06 5.2km</title><desc>1736137119000</desc></polyline><polyline fill="none" points="75.77320872276323,174.825389009653 75.8292834891472,174.36201160062046 76.19937694713008,173.81327349842468 76.46853582555195,174.76441837289894 76.08722741436213,175.02049489464844 76.79376947041601,174.98391255893512 79.12647975079017,175.5448408080556 82.2890965732513,177.03251076705055 82.88348909659544,177.55685023468686 87.14517133956542,179.44689716659195 87.40311526483856,179.28837793978164 87.44797507795738,178.26409615809098 87.66105919005349,178.0689941396413 91.35077881626785,178.32506549116806 93.12274143303512,178.9957266561978 96.66666666668607,179.05669571677572 92.97694704052992,178.97133902563655 91.22741433023475,178.2884838940663 87.7059190031141,178.0689941396413 87.49283489101799,178.25190228877182 87.41433021810371,179.28837793978164 87.19003115268424,179.50786605912435 83.16386292839888,177.8495040908747 79.86666666669771,175.9838267924788 78.20685358258197,175.31315328602795 72.66666666668607,174.44737069560506 76.4348909657565,174.91074786294485 79.10404984431807,175.50825858955795 82.49096573214047,177.386135243607 86.40498442365788,179.09327714219398 87.01059190032538,179.5200598349038 87.39190031157341,179.2517965579318 87.49283489101799,178.19093292842444 87.64984423673013,178.03241248527775 90.13956386293285,178.32506549116806 91.22741433023475,178.26409615809098 93.03302180685569,178.95914520896622 96.65545171342092,179.02011428315018 92.73021806858014,178.89817611206672 91.16012461064383,178.2884838940663 87.73956386296777,178.03241248527775 87.49283489101799,178.21532067529915 87.45919003116433,179.21521516794746 87.21246105921455,179.4590909469407 83.21993769472465,177.8373101906618 79.88909657322802,175.91066254349425 78.50965732091572,175.3863178021129 72.81246105924947,174.50834145046247" stroke="#4DD2FF" stroke-linecap="round" stroke-linejoin="round" stroke-width="0.5"><title>2025-01-03 9.5km</title><desc>1735878536000</desc></polyline><polyline fill="none" points="105.72771272453247,174.33827911291155 107.13286494929343,174.72940490263863 108.74035909445956,174.87607683335955 109.51600312261144,175.26720134085917 109.80827478534775,175.23053345788503 113.14691647153813,177.07614005838695 117.63216237316374,179.14172812171455 117.96939890715294,179.08061642215762 118.43028883688385,177.96837951293855 118.76752537087305,177.77282059568097 121.78017174085835,177.9561570874357 123.5675253708614,178.62838913789892 127.33333333331393,178.73839048392256 123.8485558158136,178.64061151332862 121.91506635438418,178.01726920584042 118.79000780644128,177.83393278233416 118.43028883688385,178.0294916267885 117.8345042935689,179.19061746497755 113.472911787685,177.3572571224213 109.79703356756363,175.3038692156406 109.50476190482732,175.32831446091586 108.60546448093373,174.90052214240131 107.3352068696986,174.8394088629575 103.33333333331393,174.14271586833638 108.69539422332309,174.888299488317 110.28040593292098,175.63387971972406 108.79656518349657,174.92496744779055 105.50288836850086,174.423837959097" stroke="#4DD2FF" stroke-linecap="round" stroke-linejoin="round" stroke-width="0.5"><title>2025-01-02 5.6km</title><desc>1735817809000</desc></polyline><polyline fill="none" points="136.77009345794795,174.4351754779782 139.43925233645132,174.8741636210616 140.22429906541947,175.28876245283755 140.97570093459217,175.42289714413346 145.0579439252615,177.66658840933815 148.50093457946787,179.15423631308659 148.79252336447826,178.8493915325671 149.1177570093423,178.03240472120524 149.5102803738555,177.83730278995063 152.39252336451318,177.93485378465266 154.50093457946787,178.7030658362928 158.0,178.72745346141164 156.63177570089465,178.81281012076943 154.2990654205787,178.66648439178243 152.54953271028353,177.98362926021218 149.52149532712065,177.81291503219109 149.17383177572628,177.9470476549177 148.65794392529642,179.10546118632192 148.4672897196724,179.19081764855946 142.97196261683712,176.77643196846475 140.44859813083895,175.28876245283755 140.08971962623764,175.31315058672044 139.31588785047643,174.92294000873517 134.0,174.1303219080437 138.9121495327563,174.81319311606057 140.17943925235886,175.26437431533122 140.44859813083895,175.19120988102804 144.04859813087387,177.21541383200383 148.4672897196724,179.20301142527023 149.20747663552174,177.91046604144503 149.5102803738555,177.78852727080812 150.36261682241457,177.89827216844424 149.18504672899144,177.88607829457032 148.65794392529642,179.081073617519 148.45607476634905,179.14204253273783 144.38504672900308,177.42271041385538 140.61682242993265,175.32534465227218 140.11214953270974,175.28876245283755 139.21495327103185,174.88635771935515 138.25046728970483,174.92294000873517 134.3364485981292,174.16690436644421 136.80373831780162,174.63028146470606" stroke="#4DD2FF" stroke-linecap="round" stroke-linejoin="round" stroke-width="0.5"><title>2024-12-31 8.0km</title><desc>1735619151000</desc></polyline><polyline fill="none" points="168.00872274150606,174.60589338264253 168.82741433026968,174.63028161642433 171.1713395639672,175.17901591629197 172.53956386301434,175.91065878758673 172.9320872274693,176.31306097266497 179.21246105927275,179.1542361277534 179.8068535826169,177.9958230277989 180.1433021807461,177.812914946815 183.24984423682326,177.98362916208862 184.79750778817106,178.60551515495172 188.65545171347912,178.70306568456 184.94330218079267,178.66648424278537 183.22741433029296,177.9958230277989 180.15451713406947,177.812914946815 179.8292834892054,177.95924142793228 179.15638629288878,179.2030112363136 175.36573208728805,177.58123108409927 171.93395638634684,175.6911662696075 169.9376947041019,174.8985519484413 164.66666666668607,174.13032209700032 168.90591900318395,174.67905807311763 171.13769470411353,175.1912099909532 175.36573208728805,177.48367988593236 179.0554517134442,179.19081746053416 179.33582554518944,179.08107343765732 179.8068535826169,177.98362916208862 180.18816199380672,177.77633330607205 183.18255451723235,177.95924142793228 184.99937694711844,178.62990279281803 188.66666666668607,178.64209661037603 185.13395638635848,178.65429042704636 183.171339563909,177.98362916208862 180.13208722742274,177.78852718720736 179.8068535826169,177.95924142793228 179.31339563871734,179.06887965278293 179.13395638635848,179.1542361277534 175.07414330221945,177.44709817161493 171.22741433029296,175.2887625554722 169.5451713396469,174.87416375460452 164.84610591904493,174.19129285187228 169.7919003115967,174.86196965632553 170.82367601251462,175.27656848808692 171.26105919008842,175.2277922094654 174.82741433026968,177.20321986726776 171.20498442370445,175.25218035059515 167.81806853588205,174.61808749997" stroke="yellow" stroke-linecap="round" stroke-linejoin="round" stroke-width="0.5"><title>2024-12-30 10.8km</title><desc>1735533491000</desc></polyline><polyline fill="none" points="14.702736318402458,201.22771914106852 16.896766169171315,201.592859896773 17.51243781094672,201.9458285181463 17.825870646804105,201.909314558201 18.46393034828361,202.17708340827085 21.20646766171558,203.73500255805266 25.66169154230738,205.77974889668985 25.98631840798771,205.7919199292228 26.45646766165737,204.63566778933455 26.825870646804105,204.4287586484861 29.769900497456547,204.62349667063972 31.527363184082787,205.30507792031858 35.33333333331393,205.36593325078138 31.672885572188534,205.30507792031858 29.88184079603525,204.64783890712715 26.7810945273377,204.45310091396095 26.478855721419677,204.63566778933455 26.08706467662705,205.6215253911214 25.78482587065082,205.84060405033233 21.598258706449997,204.07579539164726 18.620646766212303,202.37182411451067 16.919154228875414,201.67805928901362 11.33333333331393,200.80172056119773 16.728855721419677,201.580688551403 18.87810945272213,202.37182411451067 21.13930348260328,203.73500255805266 25.75124378106557,205.8649461054447 25.975124378106557,205.8040909608535 26.490049751242623,204.64783890712715 26.8034825870418,204.5017854339967 29.85945273633115,204.6721811399475 31.53855721396394,205.31724898821267 35.299751243786886,205.35376218646707 34.15796019899426,205.45113067531202 31.594527363195084,205.31724898821267 29.848258706449997,204.62349667063972 26.814676616922952,204.45310091396095 26.501243781123776,204.58698330917105 25.98631840798771,205.76757786321105 25.650497512426227,205.81626199159655 22.023631840769667,204.2340203941858 20.837064676568843,203.50374987324176 16.896766169171315,201.62937392746971 11.90422885568114,200.92343455452647" stroke="#4DD2FF" stroke-linecap="round" stroke-linejoin="round" stroke-width="0.5"><title>2024-12-27 9.1km</title><desc>1735273142000</desc></polyline><polyline fill="none" points="61.30093457939802,204.77833147179626 60.42616822430864,204.53445422122604 59.49532710277708,204.64419902894588 57.30841121496633,204.4369032192917 56.534579439263325,205.82699950879032 52.46355140185915,204.16863766407187 48.42616822425043,201.9493330246769 48.10093457944458,201.98591521321214 47.226168224297,201.59570478061505 42.0,200.7665045222675 45.65607476636069,201.3518227878085 46.01495327107841,201.29085223282163 48.583177570137195,201.93713896001282 51.44299065420637,203.37603231877438 51.86915887851501,203.76623850688338 56.28785046731355,205.7904181787162 56.613084112119395,205.76603062082722 57.06168224295834,204.64419902894588 57.42056074767606,204.42470933993172 60.51588785042986,204.61981130027561 62.411214953288436,205.3270539570367 66.0,205.42460442851007 62.04112149530556,205.25389106529474 60.65046728972811,204.6563928919204 57.4093457943527,204.4369032192917 57.173831775726285,204.51006647618487 56.669158878561575,205.8026119563001 56.444859813083895,205.90016214437492 55.480373831815086,205.3270539570367 52.32897196261911,204.08328034976148 48.63925233646296,201.92494489446108 46.104672897199634,201.3518227878085 43.44672897196142,200.99819325268618" stroke="#4DD2FF" stroke-linecap="round" stroke-linejoin="round" stroke-width="0.5"><title>2024-12-25 6.6km</title><desc>1735101299000</desc></polyline><polyline fill="none" points="75.15871531027369,200.9776990821847 75.06891175551573,201.19739880764973 75.21484253194649,201.1485766718979 75.42812597443117,200.7946157525148 76.11287807923509,201.27063198399264 76.87620829435764,201.30724855988228 79.22232616157271,201.90531814098358 83.37574056751328,204.17552157482714 87.19239164330065,205.82323017148883 87.34954786411254,205.81102498354448 87.82101652637357,204.6515279826417 88.16900530096609,204.46844875869283 91.17742438416462,204.63932270740042 93.11942625511438,205.37163761195552 96.66666666668607,205.4326637062768 92.95104459003778,205.3350219444692 91.06516994081903,204.62711743128602 88.06797630194342,204.48065404663794 87.82101652637357,204.6027068762487 87.31587153108558,205.7499990301585 87.11381353292381,205.78661460492003 82.97162457130617,204.07787906379963 79.86217648896854,202.27148211297754 78.09978172747651,201.5635643620044 72.66666666668607,200.806821314196 74.50763953849673,201.08754898174084 75.38322419708129,201.063137899313 78.47022139071487,201.6734138687316 79.87340193329146,202.22266029733873 83.72372934204759,204.34639582906675 87.01278453384293,205.81102498354448 87.36077330843545,205.77440941425448 87.92204552545445,204.52947518939618 89.06704084813828,204.52947518939618 87.95572185848141,204.49285933369538 87.30464608670445,205.87205091415672 83.26348612410948,204.1999321934709 81.08574992202921,202.91836979678192 78.21203617088031,201.64900287358614 72.70034299965482,200.81902687497495 77.31400062364992,201.4781258058647" stroke="#4DD2FF" stroke-linecap="round" stroke-linejoin="round" stroke-width="0.5"><title>2024-12-18 8.3km</title><desc>1734495982000</desc></polyline><polyline fill="none" points="105.86318407964427,199.98014667951793 105.44900497514755,200.07751889714564 105.59452736319508,199.95580361601606 105.44900497514755,200.05317584818113 105.35945273627294,199.91928901398205 105.40422885573935,200.04100432233827 106.31094527360983,200.6739224637713 108.29228855721885,201.55026661105512 108.76243781094672,202.2927211682254 109.28855721390573,202.7065468338551 109.8706467661541,202.79174610547489 113.97885572136147,205.00691157142865 117.69527363189263,206.67435147649667 117.9639303482254,206.68652250811283 118.49004975130083,205.51809933659388 118.81467661692295,205.33553246123483 121.92661691544345,205.53027045438648 123.88557213934837,206.21185160249297 127.33333333331393,206.27270692386082 123.58333333331393,206.21185160249297 121.92661691544345,205.54244157124776 118.75870646775002,205.34770359257527 118.43407960201148,205.53027045438648 117.87437810946722,206.7352066255844 112.37810945278034,204.43486622345517 111.99751243781066,204.05755862106162 110.6206467662123,203.27859823372273 108.96393034828361,202.62134751780832 103.33333333331393,201.70849491437548 108.68407960195327,202.4144347081019 109.62437810946722,202.82826006542018 109.8258706468041,202.76740346095175 114.02363184082787,205.05559618938423 116.91169154224917,206.19968053548655 117.70646766171558,206.68652250811283 118.00870646769181,206.6134963046934 118.56840796017786,205.44507261092076 119.73258706467459,205.40855923587515 118.63557213929016,205.4815859778464 118.0534825871,206.74737765270402 117.54975124378689,206.7108645686967 113.75497512437869,205.079938492956 112.71393034828361,204.3983526226075 108.93034825869836,202.56049083627295 103.42288557213033,201.79369470651727 108.76243781094672,202.4387774052011" stroke="#4DD2FF" stroke-linecap="round" stroke-linejoin="round" stroke-width="0.5"><title>2024-12-17 8.6km</title><desc>1734409492000</desc></polyline><polyline fill="none" points="136.959364782786,201.12726262031356 139.3582438112935,201.50510344377835 140.23260158800986,201.91950850475405 140.52405418030685,201.83418990155042 144.6828584773466,204.125588366398 148.46053246146766,205.7587995975482 148.66230733296834,205.7344234303746 149.17795422696508,204.5277986155852 149.45819710416254,204.36935227182403 152.70901447918732,204.6009276455443 154.33442316675792,205.2225230806216 158.0,205.28346368244092 157.64128911716398,205.40534481797658 154.32321345165838,205.28346368244092 152.406352171849,204.57655130585772 149.52545539470157,204.45466955289885 149.08827650628518,204.72280928955297 148.60625875758706,205.7587995975482 148.4156936011277,205.81973999961338 145.01914992992533,204.38154045754345 140.45679588976782,201.94388524035458 139.8626809901907,201.8707550226536 139.2349369453732,201.50510344377835 134.0,200.7859862877085 139.31340495095355,201.49291504373832 140.06445586169139,201.89513176554465 140.50163475010777,201.85856664986932 144.6492293321062,204.11340016160102 148.3820644558291,205.74661151441978 148.69593647826696,205.72223534539808 149.07706679118564,204.68624480588187 149.45819710416254,204.3937286423752 152.74264362448594,204.6009276455443 154.3007940214593,205.2225230806216 157.93274170946097,205.32002803261275 154.50256889301818,205.28346368244092 152.54086875292705,204.57655130585772 149.446987389063,204.4302931914135 149.16674451192375,204.5643631346611 148.58383932744619,205.81973999961338 144.57076132646762,204.17434117653465 140.46800560486736,201.94388524035458 139.4703409621725,201.59042221862182 134.13451658101985,200.81036319224222 139.29098552075448,201.50510344377835 140.07566557684913,201.89513176554465 140.55768332554726,201.90732013559318 145.12003736570477,204.33278770915058 148.3820644558291,205.7831757610984 148.69593647826696,205.7344234303746 149.07706679118564,204.4912340883311 150.37739374127705,204.51561044073605 149.18916394206462,204.53998678948847 148.62867818772793,205.880680378963 144.5371321812272,204.1621529753611 140.5128444651491,201.9316968730127 140.1541335824295,201.94388524035458 139.2685660905554,201.5172918429016 134.13451658101985,200.85911699035205 139.19009808497503,201.49291504373832" stroke="yellow" stroke-linecap="round" stroke-linejoin="round" stroke-width="0.5"><title>2024-12-15 13.0km</title><desc>1734235831000</desc></polyline><polyline fill="none" points="167.0398009950295,200.8808344816207 167.0398009950295,201.01471980944916 168.04726368159754,201.31900423728803 169.40174129355,201.5989454103401 170.1069651741418,201.55026002338855 170.7898009950295,201.9397427126387 171.18159203976393,201.9519140317134 175.81592039804673,204.42267302796245 179.14054726372706,205.8345185349899 179.3532338308869,205.8223475051782 179.80099502491066,204.7391222196893 180.13681592041394,204.5200420753099 183.22636815928854,204.67826665351458 185.00621890550246,205.3598477000487 188.66666666668607,205.43287407212483 184.93905472639017,205.3598477000487 183.31592039804673,204.69043776854232 180.080845771241,204.47135755888303 179.7674129353254,204.61741106465342 179.23009950248525,205.85886059189215 175.32338308461476,204.26444820224424 171.68532338307705,202.23185412016755 170.02860696520656,201.58677406495553 164.66666666668607,200.8078060747648 167.50995024869917,201.09991950637777 170.02860696520656,201.51374597368704 171.15920398011804,201.87888610367372 174.59577114426065,203.75325925651123 178.03233830846148,205.26247915321437 178.88308457715902,205.79800544280442 179.34203980100574,205.74932130718662 179.75621890550246,204.7391222196893 180.1032338308869,204.49569981894456 183.1703980099992,204.6295821842068 184.83830845775083,205.32333450177975 186.11442786070984,205.33550556880073 184.74875621893443,205.28682129534718 183.1480099502951,204.65392442069424 180.22636815923033,204.47135755888303 179.7674129353254,204.60523994415416 179.20771144283935,205.8101764744206 175.11069651739672,204.1427366935677 171.18159203976393,201.97625666712702 170.00621890544426,201.58677406495553 168.23756218905328,201.3676896931429" stroke="#4DD2FF" stroke-linecap="round" stroke-linejoin="round" stroke-width="0.5"><title>2024-12-13 8.5km</title><desc>1734064159000</desc></polyline><polyline fill="none" points="13.929459927487187,227.81822454050416 16.40088175085839,228.17569573959918 18.10140135406982,228.70573782004067 21.63848212879384,230.7026252920914 25.595024405571166,232.45296362580848 25.91245473147137,232.46528988644422 26.422610612469725,231.29429102581344 26.740040938428137,231.1340484318498 29.85766021098243,231.29429102581344 31.42213824589271,231.93525984982261 35.33333333331393,232.00921763129008 31.79625255864812,231.98456504112983 29.744292237388436,231.28196467793896 26.66068335698219,231.1217220720282 26.331916233641095,231.2326592772879 25.957801920885686,232.29272215394303 25.685718784458004,232.53924743099196 24.880806172208395,232.08317537968105 21.627145331411157,230.81356277834857 18.33947409852408,228.9276153959945 16.59360730589833,228.32361463054258 18.328137301141396,228.87830929372285 20.41410801449092,230.1356103119033 24.903479766915552,232.07084909055266 25.561014013481326,232.50226866285084 25.889781136764213,232.42831110177212 26.399937017762568,231.08474298710644 25.867107542057056,232.39133230883454 25.58368760824669,232.46528988644422 21.75185010227142,230.83821554294263 17.67060305463383,228.54549271898577 17.273815147171263,228.55781927073258 16.276176979998127,228.1510425782617 11.33333333331393,227.46075256899348" stroke="#4DD2FF" stroke-linecap="round" stroke-linejoin="round" stroke-width="0.5"><title>2024-12-11 6.6km</title><desc>1733890893000</desc></polyline><polyline fill="none" points="44.910112359561026,227.93536824117473 47.4831460674759,228.22857479119557 48.04494382021949,228.5584315332817 48.50561797758564,228.54621462873183 52.73033707868308,230.87962688047264 56.50561797758564,232.5166606838029 57.1235955056618,231.24612840544432 57.44943820225308,231.09952789376257 60.67415730340872,231.2949952135823 62.32584269664949,231.94247904629447 65.96629213489359,232.0279955878068 62.46067415736616,231.94247904629447 60.707865168573335,231.35607870323292 57.21348314610077,231.2094782898057 56.59550561796641,232.55331050731183 52.651685393298976,230.90406034096668 51.516853932640515,230.13440458693367 48.47191011242103,228.61951604232308 48.22471910121385,228.68060052861983 47.25842696632026,228.2896594231279 42.112359550606925,227.5566423380369 46.38202247192385,228.04532075887255 48.47191011242103,228.5339977232943 51.41573033708846,229.98780308134155 52.640449438244104,230.80632647719176 56.41573033714667,232.4922274635901 56.651685393298976,232.40671116417798 57.14606741577154,231.31942861215794 57.44943820225308,231.09952789376257 59.41573033708846,231.2949952135823 60.41573033708846,231.2094782898057 62.38202247192385,231.95469569783018 66.0,232.01577894175716 62.19101123599103,231.93026239388564 60.651685393357184,231.31942861215794 57.42696629220154,231.1117446080898 57.14606741577154,231.2216949959402 56.75280898879282,232.32119482014969 56.53932584275026,232.50444407416217 53.03370786522282,231.03844430853496 50.93258426967077,229.78011739076464 48.449438202311285,228.5584315332817 46.651685393298976,228.1064054590679 42.0,227.4466894926736 47.74157303373795,228.27744249856914 56.235955056210514,232.43114439710916 56.651685393298976,232.3578446872998 57.14606741577154,231.08731117851858 56.67415730340872,232.40671116417798 56.438202247198205,232.45557762644603 52.775280898902565,230.90406034096668 48.4831460674759,228.52178081692546 44.56179775286,227.86206652173132" stroke="yellow" stroke-linecap="round" stroke-linejoin="round" stroke-width="0.5"><title>2024-12-09 12.1km</title><desc>1733738831000</desc></polyline><polyline fill="none" points="82.65347156772623,230.4611710250756 87.16619541315595,232.5025203214609 87.68645931512583,231.3219840474776 88.09362236881861,231.1006325561757 91.01162425382063,231.22360564353585 92.78730757150333,231.92455049220007 96.66666666668607,232.05982020810188 93.16054037073627,231.9860367404326 91.20389569585677,231.30968675017357 88.12755262333667,231.14982180212974 87.74300973926438,231.27279485286272 87.18881558283465,232.5271147374151 83.61482877790695,231.0391459781822 79.06817467801739,228.57966407538333 78.6610116242664,228.59196157607948 78.14074772229651,228.24763121081924 74.91737354703946,227.81721724411182 74.51021049328847,227.6204561997729 74.31793905125232,227.78032456614892 72.90417844807962,227.5589683253056 76.25196355645312,227.9033001272328 79.06817467801739,228.53047406351834 82.0314169023186,229.99387064728944 82.86836317944108,230.60873929059017 86.9965441407985,232.5025203214609 87.26798617653549,232.3918454044324 87.74300973926438,231.24820025004738 88.00314169022022,231.05144329559698 89.00973923970014,231.22360564353585 91.18127552623628,231.23590294724272 92.99088909837883,231.93684774369467 96.58749607286882,232.01063123330823 92.90040841978043,231.89995598648966 91.18127552623628,231.2604975518916 88.08231228403747,231.12522718102264 87.61859880620614,231.51874067942845 87.1775054979953,232.5271147374151 82.97015394287882,230.7071180609637 79.05686459317803,228.57966407538333 78.79673264216399,228.62885407258 77.33773169963388,228.14925097452942 72.66666666668607,227.47288526257034 77.55262331140693,228.14925097452942 78.69494187872624,228.56736657379952 79.12472510215594,228.55506907131348 80.58372604468605,229.35440482855483" stroke="#4DD2FF" stroke-linecap="round" stroke-linejoin="round" stroke-width="0.5"><title>2024-12-06 9.2km</title><desc>1733479157000</desc></polyline><polyline fill="none" points="105.76811594201718,227.8345657235186 108.82000935013639,228.200559901612 109.4707807386294,228.60315255263413 109.82982702198206,228.52995396241022 114.01496026181849,230.87229261911125 117.67274427303346,232.49483048330876 118.04301075270632,232.3850351951114 118.4357176250196,231.33587650646223 118.86208508646814,231.16508259538386 121.89153810188873,231.311477387193 123.59700794762466,231.958052818969 127.33333333331393,232.0800478971796 123.64188873308012,231.958052818969 121.8690977091901,231.34807606470713 118.80598410469247,231.15288302347471 118.41327723232098,231.39687428865 117.85226741468068,232.51922942625242 113.7120149602415,230.76249624307093 112.76951846654993,230.1159160907555 109.84104721830226,228.62755207542796 109.51566152408486,228.65195159456925 108.69658719026484,228.26155885175103 103.33333333331393,227.48077057374758 108.69658719026484,228.24935906352766 110.37961664330214,228.95694527728483 109.88592800375773,228.62755207542796 105.77933613833738,227.8467655426648" stroke="#4DD2FF" stroke-linecap="round" stroke-linejoin="round" stroke-width="0.5"><title>2024-12-03 5.6km</title><desc>1733220329000</desc></polyline><polyline fill="none" points="137.13286713289563,227.95619527901 139.4041958041489,228.19950901799893 140.17622377618682,228.64963847931358 141.16083916078787,228.77129487748607 142.22377622377826,229.46473461620917 143.67832167824963,230.01218496142246 144.60699300694978,230.72995041108516 148.60139860137133,232.48177148238756 149.10489510488696,231.399050955064 149.50769230769947,231.13141106648254 152.56223776226398,231.30172740996932 154.44195804197807,231.99515640319441 157.07132867135806,231.97082561117713 158.0,232.0438179763878 157.72027972026262,232.11681030894397 154.33006993005984,232.01948719158827 152.56223776226398,231.35038918978535 149.49650349648437,231.18007289702655 149.16083916084608,231.3382237461774 148.64615384617355,232.49393684079405 148.39999999996508,232.51826755488582 144.2601398600964,230.74211590000778 142.0223776223138,229.46473461620917 139.30349650344579,228.2481717222836 134.0,227.5060639060248 139.49370629369514,228.22384037195297 141.08251748251496,228.95377930476388 139.28111888107378,228.28466874099104 134.0223776223138,227.48173244511418 137.26713286712766,227.9318638851546" stroke="#4DD2FF" stroke-linecap="round" stroke-linejoin="round" stroke-width="0.5"><title>2024-12-02 6.1km</title><desc>1733112856000</desc></polyline><polyline fill="none" points="164.66666666668607,226.69461105215305 165.37777777778683,226.9910061147093 167.01333333336515,229.18173647744698 166.87111111113336,229.03998417597904 167.17925925931195,229.02709759735444 167.58222222223412,228.53740689829283 169.05185185186565,228.75647922451026 169.59703703701962,229.11730362754315 170.68740740744397,229.3363752192381 171.8607407407253,230.07090735490783 173.28296296298504,230.6121395641385 174.0296296296292,231.26934782708122 178.2962962963502,233.2151851017261 178.64000000007218,233.2151851017261 179.16148148145294,232.0167581111018 179.50518518517492,231.84923539719603 182.78814814815996,232.0167581111018 184.81481481483206,232.7383925623435 188.66666666668607,232.77705146586231 184.83851851854706,232.76416516564495 182.79999999998836,232.04253082189825 179.54074074077653,231.8750081329781 179.18518518522615,232.0296444669657 178.54518518521218,233.3053889478324 174.46814814815298,231.591507828256 171.70666666672332,230.03224784659687 168.94518518523546,228.76936582328926 165.59111111116363,228.36988081452728" stroke="#4DD2FF" stroke-linecap="round" stroke-linejoin="round" stroke-width="0.5"><title>2024-11-29 4.6km</title><desc>1732853630000</desc></polyline><polyline fill="none" points="13.365869218483567,255.89257191658544 13.193620414705947,255.99245785779203 13.928548644355033,256.0049435962428 13.296969696995802,255.9300291515392 13.871132376370952,255.97997211838083 13.802232854824979,256.1547723852418 14.720893141929992,254.96862413812778 16.879744816571474,254.81879428862885 17.568740031914786,255.19336866120284 18.544816586887464,255.39314131755964 22.368740031903144,257.57813920013723 26.204146730422508,259.23871853909804 26.778309409914073,258.0276209459553 27.12280701752752,257.8653082323435 30.384051036729943,258.0276209459553 32.037639553425834,258.7018413044716 35.33333333331393,258.7392979115393 32.106539074971806,258.6768702284462 30.142902711289935,257.99016417984967 27.076874003221747,257.8153658273077 26.801275917037856,257.9776785892609 26.204146730422508,259.2262330415251 22.139074960141443,257.57813920013723 17.936204146768432,255.23082605240052 16.673046251991764,254.84376593949855 11.33333333331393,254.09461479423044 16.787878787901718,254.81879428862885 17.48835725680692,255.18088286225975 18.223285486456007,255.28076922764012 21.185964912292548,256.85397162951995 16.753429027099628,254.86873758665752 13.871132376370952,254.48167663744243" stroke="#4DD2FF" stroke-linecap="round" stroke-linejoin="round" stroke-width="0.5"><title>2024-11-28 6.3km</title><desc>1732767063000</desc></polyline><polyline fill="none" points="42.161073825496715,253.79883738211356 45.70469798659906,254.39722182210244 46.51006711408263,254.82046824906138 46.885906040261034,254.7912788696849 50.57718120806385,256.60101216757903 51.85234899324132,257.44749458417937 56.523489932878874,259.4907129340718 57.181208053661976,258.0750567733339 57.66442953021033,257.8123565666756 61.2214765099925,258.0020845290419 62.85906040266855,258.6880225522764 64.28187919454649,258.9215328207356 66.0,258.87774966658617 63.40939597313991,258.83396650268696 61.463087248266675,258.0750567733339 57.798657718114555,257.88532888168993 57.248322147584986,258.10424566343136 56.523489932878874,259.5344959512295 51.436241610732395,257.38911660386657 46.885906040261034,254.7912788696849 46.55033557047136,254.8642523100134 45.395973154343665,254.35343765675498 42.0,253.90100070860353" stroke="#4DD2FF" stroke-linecap="round" stroke-linejoin="round" stroke-width="0.5"><title>2024-11-25 4.0km</title><desc>1732507947000</desc></polyline><polyline fill="none" points="72.66666666662786,252.56182573272963 77.55912252538837,253.19012618499983 78.88817549496889,253.96502814197447 79.62011771008838,253.88125506043434 80.9684323167894,254.32106346002547 82.3745318352012,255.32633721805178 85.03263777424581,256.4782089794753 87.0936329588294,257.9023348139017 91.75494917063043,259.72436764114536 93.31514178705402,260.66679378018307 93.71963616914582,260.4992515863414 94.58640984480735,258.4677945412841 96.66666666662786,258.4259086745442 94.66345639375504,258.5306233297015 93.5462814338971,260.77150760059885 87.40181915462017,258.21647924730496 79.58159443549812,254.02785793672956 79.0615302301012,254.13257423018513 80.91064740507863,254.48860933602555 81.81594435521401,255.32633721805178 83.41466024611145,255.76614335668273 87.05510968435556,257.9442207586253 92.89138576784171,260.54113714414416 93.71963616914582,260.624908241065 94.58640984480735,258.4468516087509 93.66185125743505,260.77150760059885 87.49812734080479,258.1745933431812" stroke="#4DD2FF" stroke-linecap="round" stroke-linejoin="round" stroke-width="0.5"><title>2024-11-20 4.0km</title><desc>1732095798000</desc></polyline><polyline fill="none" points="104.73535138956504,254.0543905191298 108.27863338642055,254.5671519151947 109.13258983887499,254.9967617263319 109.71888829872478,255.05219517803926 112.99451230297564,256.67361633280234 113.86121437419206,257.3388106666971 118.52611081604846,259.4036695926625 118.74278633383801,259.37595351727214 119.26535670022713,258.1564421099174 119.64772526104935,257.8654211606772 123.19100725784665,258.0594351774489 125.05186758714262,258.80777306080563 127.33333333331393,258.89092152865487 125.0136307310313,258.82163114137074 122.98707735876087,258.04557704008766 119.72419897321379,257.8792793114553 119.18888298806269,258.2395908689068 118.69180385902291,259.4313856640074 113.95043370506028,257.477392520188 110.30518675863277,255.44022887764731 108.25314214907121,254.62258549498802 103.33333333331393,253.90194766933564" stroke="#4DD2FF" stroke-linecap="round" stroke-linejoin="round" stroke-width="0.5"><title>2024-11-19 4.1km</title><desc>1731989484000</desc></polyline></svg>