<?xml version="1.0" encoding="utf-8" ?>
<svg baseProfile="full" height="300mm" version="1.1" viewBox="0,0,200,300" width="200mm" xmlns="http://www.w3.org/2000/svg" xmlns:ev="http://www.w3.org/2001/xml-events" xmlns:xlink="http://www.w3.org/1999/xlink"><defs /><rect fill="#222222" height="300" width="200" x="0" y="0" /><text fill="#FFFFFF" style="font-size:12px; font-family:Arial; font-weight:bold;" x="10" y="20">Over 4km Runs</text><text fill="#FFFFFF" style="font-size:4px; font-family:Arial" x="10" y="280">ATHLETE</text><text fill="#FFFFFF" style="font-size:9px; font-family:Arial" x="10" y="290">Fake David</text><text fill="#FFFFFF" style="font-size:4px; font-family:Arial" x="65" y="280">SPECIAL TRACKS</text><rect fill="yellow" height="2.6" width="2.6" x="65" y="283" /><text fill="#FFFFFF" style="font-size:3px; font-family:Arial" x="70" y="285.5">Over 10.0 km</text><rect fill="red" height="2.6" width="2.6" x="65" y="287" /><text fill="#FFFFFF" style="font-size:3px; font-family:Arial" x="70" y="289.5">Over 15.0 km</text><text fill="#FFFFFF" style="font-size:4px; font-family:Arial" x="120" y="280">STATISTICS</text><text fill="#FFFFFF" style="font-size:3px; font-family:Arial" x="120" y="285">Number: 13</text><text fill="#FFFFFF" style="font-size:3px; font-family:Arial" x="120" y="290">Weekly: 2.6</text><text fill="#FFFFFF" style="font-size:3px; font-family:Arial" x="141" y="285">Total: 92.5 km</text><text fill="#FFFFFF" style="font-size:3px; font-family:Arial" x="141" y="290">Avg: 7.1 km</text><text fill="#FFFFFF" style="font-size:3px; font-family:Arial" x="167" y="285">Min: 4.0 km</text><text fill="#FFFFFF" style="font-size:3px; font-family:Arial" x="167" y="290">Max: 13.0 km</text><polyline fill="none" points="16.953731343266554,47.96426402311772 16.208208955125883,48.13953401483013 16.470149253727868,47.920446508796886 16.208208955125883,48.095716526702745 16.047014925279655,47.85472022515023 16.127611940260977,48.073807780165225 17.759701492497697,49.213060434762156 21.326119403005578,50.79047989987885 22.172388059669174,52.126898102782434 23.119402984972112,52.87178430092172 24.167164179030806,53.02514298981987 31.56194029841572,57.01244082854828 38.25149253732525,60.01383265765617 38.73507462674752,60.0357405145769 39.68208955228329,57.932578805834055 40.266417910461314,57.603958430176135 45.86791044776328,57.954486817878205 49.394029850838706,59.18133288444369 55.59999999997672,59.29087246293784 48.84999999997672,59.18133288444369 45.86791044776328,57.97639482820523 40.16567164182197,57.625866466609295 39.58134328352753,57.954486817878205 38.573880597017705,60.1233719260199 28.68059701495804,55.98275920219021 27.995522388024256,55.303605517867254 25.517164179123938,53.901476820668904 22.535074626794085,52.718425532017136 12.400000000023283,51.07529084585258 22.031343283480965,52.34598247456597 23.72388059704099,53.09086811772431 24.0865671641659,52.981326229695696 31.642537313397042,57.100073140871245 36.84104477602523,59.159424963843776 38.27164179109968,60.0357405145769 38.81567164172884,59.90429334840155 39.823134328238666,57.801130699634086 41.91865671647247,57.73540662456071 39.94402985065244,57.86685476009734 38.89626865671016,60.14527977484977 37.98955223872326,60.07955622361624 31.158955223858356,57.143889287282946 29.2850746269105,55.91703472065274 22.474626865587197,52.60888350525056 12.561194029753096,51.228650471690344 22.172388059669174,52.3897993293358" stroke="#4DD2FF" stroke-linecap="round" stroke-linejoin="round" stroke-width="0.5"><title>2024-12-17 8.6km</title><desc>1734409492000</desc></polyline><polyline fill="none" points="83.72685660910793,50.02907271654112 88.04483886039816,50.709186198801035 89.61868285853416,51.45511530854856 90.14329752454069,51.30154182278784 97.62914525927044,55.42605905950768 104.42895843076985,58.365839275560575 104.79215319943614,58.32196217466844 105.72031760867685,56.150037508050445 106.22475478751585,55.8648340892687 112.07622606260702,56.28166976195644 115.00196170026902,57.40054154509562 121.60000000009313,57.510234628396574 120.95432041108143,57.72962067235494 114.98178421298508,57.510234628396574 111.53143390943296,56.23779235052643 106.34581971052103,56.0184051952092 105.55889771145303,56.50105672117206 104.69126576371491,58.365839275560575 104.34824848209973,58.47553199931281 98.23446987394709,55.88677282357821 90.02223260165192,51.49899343261495 88.95282578247134,51.36735904077068 87.82288650167175,50.709186198801035 78.40000000002328,49.41477531785495 87.96412891184445,50.68724707872025 89.31602055113763,51.4112371779629 90.10294255032204,51.34541996975895 97.56861279788427,55.40412029088475 104.28771602059714,58.34390072594397 104.85268566093873,58.300023621704895 105.53872022416908,56.435240650578635 106.22475478751585,55.90871155628702 112.13675852422602,56.28166976195644 114.94142923876643,57.40054154509562 121.47893507708795,57.576050458679674 115.30462400754914,57.510234628396574 111.7735637553269,56.23779235052643 106.20457730046473,55.97452774451813 105.70014012150932,56.21585364238126 104.65091078949627,58.47553199931281 97.42737038771156,55.513814117759466 90.04241008881945,51.49899343261495 88.24661373195704,50.862759993528016 78.64212984591722,49.45865374602727 87.9237739375094,50.709186198801035 89.33619803830516,51.4112371779629 90.20382998604327,51.433176244056085 98.41606725833844,55.799017876473954 104.28771602059714,58.40971636996255 104.85268566093873,58.32196217466844 105.53872022416908,56.08422135899309 107.87930873432197,56.128098793298705 105.74049509584438,56.17197622108506 104.73162073793355,58.58522468214505 97.36683792632539,55.49187535565579 90.12312003737316,51.47705437144032 89.47744044847786,51.49899343261495 87.88341896317434,50.731125317222904 78.64212984591722,49.546410582610406 87.74217655300163,50.68724707872025" stroke="yellow" stroke-linecap="round" stroke-linejoin="round" stroke-width="0.5"><title>2024-12-15 13.0km</title><desc>1734235831000</desc></polyline><polyline fill="none" points="148.67164179089013,49.585502066940535 148.67164179089013,49.82649565700558 150.48507462674752,50.37420762714464 152.9231343283318,50.87810173860635 154.1925373133272,50.7904680421052 155.42164179100655,51.49153688273509 156.12686567148194,51.513445257092826 164.46865671640262,55.960811450349865 170.45298507460393,58.502133363013854 170.83582089550328,58.480225509323645 171.64179104473442,56.530419995455304 172.24626865668688,56.136075735557824 177.8074626865564,56.42087997632916 181.01119402982295,57.64772586009349 187.59999999997672,57.77917332982179 180.89029850740917,57.64772586009349 177.96865671640262,56.442787983396556 172.14552238816395,56.04844360600691 171.58134328352753,56.31133991637034 170.61417910445016,58.54594906541752 163.58208955219015,55.67600676405709 157.03358208946884,52.01733741632779 154.0514925372554,50.85619331695489 144.40000000002328,49.45405093458248 149.51791044767015,49.97985511147999 154.0514925372554,50.7247427526454 156.0865671641659,51.38199498661561 162.2723880596459,54.75586666172603 168.4582089552423,57.4724624757946 169.98955223883968,58.436409797053784 170.81567164172884,58.348778352927184 171.5611940298695,56.530419995455304 172.1858208955964,56.092259674100205 177.70671641791705,56.33324793158681 180.70895522390492,57.58200210321229 183.00597014918458,57.60391002384131 180.5477611940587,57.51627833163366 177.66641791036818,56.37706395724672 172.4074626865331,56.04844360600691 171.58134328352753,56.28943189949496 170.5738805970177,58.45831765397452 163.1992537312908,55.456926048442256 156.12686567148194,51.55726200083154 154.01119402970653,50.85619331695489 150.8276119402144,50.46184144765721" stroke="#4DD2FF" stroke-linecap="round" stroke-linejoin="round" stroke-width="0.5"><title>2024-12-13 8.5km</title><desc>1734064159000</desc></polyline><polyline fill="none" points="17.07302786957007,98.07280417290167 21.5215871516848,98.7162523313018 24.58252243732568,99.67032807608484 30.949267831863835,103.26472552577616 38.07104393013287,106.41533452644944 38.64241851679981,106.4375217955967 39.560699102585204,104.32972384648747 40.13207368925214,104.04128717732965 45.74378837982658,104.32972384648747 48.55984884267673,105.48346772970399 55.59999999997672,105.61659173632506 49.233254605554976,105.57221707401914 45.53972602740396,104.30753642029595 39.989230042672716,104.0190997296595 39.397449220647104,104.2187866991153 38.72404345765244,106.12689987709746 38.23429381207097,106.57064537578844 36.78545111010317,105.7497156834288 30.928861596621573,103.46441300102742 25.01105337741319,100.06970771279885 21.868493150686845,98.98250633498537 24.99064714217093,99.98095672871568 28.74539442616515,102.24409856143757 36.82626358058769,105.7275283630006 38.009825224406086,106.50408359314315 38.60160604631528,106.37095998320729 39.519886631984264,103.95253737678286 38.56079357583076,106.30439815591672 38.05063769489061,106.4375217955967 31.153330184170045,103.50878797730547 23.807085498352535,99.38188689420349 23.092867264989763,99.404074687307 21.29711856401991,98.67187664087396 12.400000000023283,97.42935462421156" stroke="#4DD2FF" stroke-linecap="round" stroke-linejoin="round" stroke-width="0.5"><title>2024-12-11 6.6km</title><desc>1733890893000</desc></polyline><polyline fill="none" points="83.63820224720985,98.28366283414653 88.26966292143334,98.81143462419277 89.2808988763718,99.40517675993033 90.11011235963088,99.3831863317755 97.71460674155969,103.58332838487695 104.51011235953774,106.52998923088307 105.62247191020288,104.24303112982307 106.20898876409046,103.97915020879009 112.01348314608913,104.33099138448597 114.98651685391087,105.49646228339407 121.53932584275026,105.65039205807261 115.22921348328236,105.49646228339407 112.074157303432,104.44094166584546 105.78426966292318,104.17706092167646 104.67191011237446,106.59595891318168 97.57303370791487,103.62730861376622 95.53033707872964,102.24192825652426 90.049438202288,99.51512887622812 89.60449438204523,99.62508095157682 87.86516853934154,98.92138696167967 78.60224719101097,97.60195620849845 86.28764044947457,98.48157736600842 90.049438202288,99.36119590196176 95.34831460670102,101.97804554644972 97.55280898883939,103.45138765897718 104.34831460681744,106.48600943450583 104.77303370786831,106.33208009554073 105.66292134835385,104.37497150190757 106.20898876409046,103.97915020879009 109.7483146067243,104.33099138448597 111.54831460677087,104.17706092167646 115.08764044940472,105.51845225613215 121.59999999997672,105.62840209520073 114.74382022477221,105.47447230902617 111.97303370793816,104.37497150190757 106.16853932593949,104.00114029459655 105.66292134835385,104.19905099272728 104.95505617978051,106.17815067630727 104.57078651688062,106.50799933352391 98.26067415729631,103.86919975539786 94.47865168540739,101.60421130343457 90.00898876413703,99.40517675993033 86.77303370786831,98.5915298263717 78.40000000002328,97.40404108684743 88.7348314607516,98.8993964974652 104.024719101144,106.3760599148518 104.77303370786831,106.24412043718621 105.66292134835385,103.95716012138291 104.8134831461357,106.33208009554073 104.38876404496841,106.4200397276436 97.79550561797805,103.62730861376622 90.0696629214799,99.33920547051821 83.01123595505487,98.15171973916586" stroke="yellow" stroke-linecap="round" stroke-linejoin="round" stroke-width="0.5"><title>2024-12-09 12.1km</title><desc>1733738831000</desc></polyline><polyline fill="none" points="162.376248821849,102.83010784519138 170.4991517435992,106.50453657866456 171.43562676711008,104.37957128550624 172.16852026386186,103.98113860114245 177.4209236569004,104.20249015840818 180.61715362861287,105.46419088600669 187.59999999997672,105.7076763746154 181.288972667302,105.57486613281071 177.76701225258876,104.35743615037063 172.22959472204093,104.06967924386845 171.53741753066424,104.2910307351849 170.53986804909073,106.54880652736756 164.1066918001743,103.8704627607658 155.92271442047786,99.44339533572202 155.18982092360966,99.46553083695471 154.2533459000988,98.84573617952992 148.45127238461282,98.07099103942164 147.71837888786104,97.71682115961448 147.3722902921727,98.00458421910298 144.82752120646182,97.6061429855763 150.85353440151084,98.22594022905105 155.92271442047786,99.35485331437667 161.2565504241502,101.98896716514719 162.76305372291245,103.09573072308558 170.19377945340239,106.50453657866456 170.68237511778716,106.30532172802486 171.53741753066424,104.24676045012893 172.00565504247788,103.89259793210658 173.81753063143697,104.20249015840818 177.72629594721366,104.22462530506891 180.98360037698876,105.48632593869115 187.45749293116387,105.61913621998974 180.82073515560478,105.41992077571922 177.72629594721366,104.26889559344272 172.14816211117432,104.02540892586694 171.3134778511012,104.73373322299449 170.51950989628676,106.54880652736756 162.9462770972168,103.27281250979286 155.9023562676739,99.44339533572202 155.43411875586025,99.5319373306993 152.8079170593992,98.66865175418206 144.40000000002328,97.45119347266154 153.19472196046263,98.66865175418206 155.2508953816723,99.42125983288861 156.0245051837992,99.39912432839628 158.65070688037667,100.83792869144236" stroke="#4DD2FF" stroke-linecap="round" stroke-linejoin="round" stroke-width="0.5"><title>2024-12-06 9.2km</title><desc>1733479157000</desc></polyline><polyline fill="none" points="16.78260869567748,146.10221830234514 22.276016830350272,146.7610078229045 23.44740532967262,147.4856745947327 24.093688639695756,147.3539171323646 31.62692847137805,151.5701267144177 38.21093969151843,154.49069486994995 38.87741935485974,154.2930633512151 39.58429172518663,152.4045777116262 40.35175315581728,152.09714867168805 45.80476858350448,152.3606592969445 48.87461430579424,153.52449507414713 55.60000000009313,153.7440862149233 48.95539971953258,153.52449507414713 45.76437587663531,152.4265369164641 40.25077138852794,152.0751894422574 39.543899018201046,152.51437371957581 38.534081346471794,154.53461296725436 31.08162692852784,151.37249323751894 29.38513323990628,150.2086489633657 24.113884993013926,147.52959373575868 23.52819074341096,147.5735128702363 22.053856942569837,146.87080593314022 12.400000000023283,145.46538703277474 22.053856942569837,146.84884631435852 25.083309957990423,148.12250149910687 24.194670406752266,147.52959373575868 16.802805049112067,146.12417797680246" stroke="#4DD2FF" stroke-linecap="round" stroke-linejoin="round" stroke-width="0.5"><title>2024-12-03 5.6km</title><desc>1733220329000</desc></polyline><polyline fill="none" points="84.03916083928198,146.32115150225582 88.12755244749133,146.75911623242428 89.5172027972294,147.5693492628052 91.28951048944145,147.7883307794982 93.20279720285907,149.03652230920852 95.82097902090754,150.02193293056916 97.49258741259109,151.31391073999112 104.68251748254988,154.4671886683209 105.58881118881982,152.51829171914142 106.31384615390562,152.0365399196744 111.81202797207516,152.34310933799134 115.19552447565366,153.5912815257907 119.92839160840958,153.54748610014212 121.59999999997672,153.67887235750095 121.09650349651929,153.81025855612825 114.99412587413099,153.6350769448909 111.81202797207516,152.43070054164855 106.29370629379991,152.12413121468853 105.68951048958115,152.40880274315714 104.76307692320552,154.4890863134642 104.31999999994878,154.53288159880321 96.86825174826663,151.33580862006056 92.84027972025797,149.03652230920852 87.94629370630719,146.8467091001221 78.40000000002328,145.51091503087082 88.2886713288026,146.80291266954737 91.14853146858513,148.11680274858372 87.90601398597937,146.9124037338188 78.44027972023468,145.4671184012259 84.28083916089963,146.27735499330447" stroke="#4DD2FF" stroke-linecap="round" stroke-linejoin="round" stroke-width="0.5"><title>2024-12-02 6.1km</title><desc>1733112856000</desc></polyline><polyline fill="none" points="144.40000000002328,144.05029989391915 145.68000000005122,144.58381100650877 148.62400000006892,148.52712565942784 148.36800000013318,148.27197151680593 148.92266666679643,148.24877567525255 149.6480000000447,147.36733241693582 152.2933333334513,147.76166260417085 153.2746666666353,148.41114652960096 155.23733333335258,148.80547539467807 157.3493333333172,150.12763323885156 159.90933333337307,151.10185121546965 161.25333333341405,152.28482608875493 168.93333333346527,155.78733318313607 169.55200000014156,155.78733318313607 170.4906666666502,153.63016460000654 171.1093333333265,153.32862371497322 177.01866666669957,153.63016460000654 180.66666666674428,154.92910661225324 187.60000000009313,154.9986926385609 180.70933333341964,154.97549729817547 177.04000000003725,153.67655547944014 171.17333333333954,153.37501463937224 170.533333333442,153.65336004056735 169.38133333344012,155.94970010610996 162.04266666667536,152.864714090887 157.07200000004377,150.05804612391512 152.10133333341219,147.7848584819585 146.06400000012945,147.06578546616947" stroke="#4DD2FF" stroke-linecap="round" stroke-linejoin="round" stroke-width="0.5"><title>2024-11-29 4.6km</title><desc>1732853630000</desc></polyline><polyline fill="none" points="16.058564593316987,196.60662944984506 15.748516746447422,196.78642414402566 17.071387559873983,196.8088984732167 15.934545454685576,196.6740524727502 16.968038277584128,196.7639498130884 16.844019138719887,197.078590293444 18.497607655473985,194.94352344863 22.38354066980537,194.67382971951156 23.623732057400048,195.34806359015056 25.380669856444,195.7076543715957 32.26373205741402,199.64065056023537 39.167464114842005,202.62969337037066 40.20095693785697,200.4497177026933 40.8210526315961,200.15755481822998 46.69129186612554,200.4497177026933 49.66775119618978,201.6633143480285 55.59999999997672,201.7307362407737 49.79177033493761,201.61836641121772 46.25722488039173,200.38229552371195 40.73837320576422,200.06765848916257 40.242296650772914,200.35982146067545 39.167464114842005,202.6072194747394 31.850334928254597,199.64065056023537 24.285167464171536,195.4154868943151 22.011483253678307,194.71877869110904 12.400000000023283,193.37030662960024 22.218181818258017,194.67382971951156 23.479043062310666,195.325589152053 24.801913875620812,195.5053846097435 30.134736842243,198.33714893311844 22.156172248884104,194.76372765598353 16.968038277584128,194.06701794741093" stroke="#4DD2FF" stroke-linecap="round" stroke-linejoin="round" stroke-width="0.5"><title>2024-11-28 6.3km</title><desc>1732767063000</desc></polyline><polyline fill="none" points="78.68993288592901,192.83790728778695 85.06845637585502,193.91499927974655 86.51812080538366,194.67684284830466 87.19463087257463,194.62430196540663 93.8389261745615,197.8818219016248 96.13422818796244,199.40549025149085 104.54228187922854,203.08328328133211 105.72617449669633,200.53510219199234 106.59597315441351,200.06224182000733 112.99865771806799,200.40375215225504 115.94630872481503,201.6384405940771 118.50738255027682,202.0587590773066 121.59999999997672,201.97994939985801 116.9369127516402,201.9011397048016 113.43355704692658,200.53510219199234 106.83758389262948,200.19359198701568 105.84697986580431,200.58764219417935 104.54228187922854,203.16209271221305 95.38523489935324,199.3004098869569 87.19463087257463,194.62430196540663 86.5906040269183,194.75565415801248 84.51275167788845,193.8361877821444 78.40000000002328,193.02180127549218" stroke="#4DD2FF" stroke-linecap="round" stroke-linejoin="round" stroke-width="0.5"><title>2024-11-25 4.0km</title><desc>1732507947000</desc></polyline><polyline fill="none" points="144.40000000002328,190.61128631889005 153.2064205458155,191.74222713298514 155.59871589089744,193.13705065555405 156.91621187818237,192.98625910878764 159.34317817015108,193.7779142280633 161.87415730347857,195.58740699247574 166.65874799364246,197.66077616307302 170.36853932589293,200.22420266503468 178.75890850729775,203.50386175405583 181.56725521665066,205.20022880431497 182.2953451044159,204.89865285539418 183.85553772072308,201.24203017429681 187.59999999997672,201.16663561417954 183.9942215088522,201.35512199345976 181.98330658115447,205.38871368108084 170.92327447840944,200.7896626451402 156.84686998394318,193.2501442861103 155.9107544142753,193.43863361433614 159.23916532914154,194.07949680485763 160.8686998395715,195.58740699247574 163.74638844304718,196.37905804204638 170.29919743177015,200.29959736551973 180.80449438211508,204.97404685945367 182.2953451044159,205.12483483392862 183.85553772072308,201.20433289575158 182.19133226328995,205.38871368108084 171.09662921354175,200.71426801770576" stroke="#4DD2FF" stroke-linecap="round" stroke-linejoin="round" stroke-width="0.5"><title>2024-11-20 4.0km</title><desc>1732095798000</desc></polyline><polyline fill="none" points="14.923632501391694,241.29790293442784 21.301540095708333,242.22087344733882 22.83866171014961,242.9941711073916 23.893998937914148,243.0939513204794 29.79012214555405,246.01250939903548 31.350185873685405,247.20985920005478 39.74699946900364,250.92660526680993 40.13701540103648,250.87671633108403 41.07764206058346,248.68159579785424 41.76590547012165,248.157758089219 48.143813064321876,248.50698331941385 51.493361657019705,249.8539915094443 55.60000000009313,250.00365875157877 51.42453531594947,249.87893605447607 47.776739245979115,248.48203867216944 41.90355815202929,248.18270276061958 40.93998937867582,248.83126356403227 40.04524694639258,250.97649419520167 31.510780669283122,247.45930653635878 24.949336165795103,243.79241197975352 21.25565586844459,242.32065389095806 12.400000000023283,241.02350580479833" stroke="#4DD2FF" stroke-linecap="round" stroke-linejoin="round" stroke-width="0.5"><title>2024-11-19 4.1km</title><desc>1731989484000</desc></polyline></svg>