<?xml version="1.0" encoding="utf-8" ?>
<svg baseProfile="full" height="300mm" version="1.1" viewBox="0,0,200,300" width="200mm" xmlns="http://www.w3.org/2000/svg" xmlns:ev="http://www.w3.org/2001/xml-events" xmlns:xlink="http://www.w3.org/1999/xlink"><defs /><rect fill="#222222" height="300" width="200" x="0" y="0" /><text fill="#FFFFFF" style="font-size:12px; font-family:Arial; font-weight:bold;" x="10" y="20">Over 4km Runs</text><text fill="#FFFFFF" style="font-size:4px; font-family:Arial" x="10" y="280">ATHLETE</text><text fill="#FFFFFF" style="font-size:9px; font-family:Arial" x="10" y="290">Fake David</text><text fill="#FFFFFF" style="font-size:4px; font-family:Arial" x="65" y="280">SPECIAL TRACKS</text><rect fill="yellow" height="2.6" width="2.6" x="65" y="283" /><text fill="#FFFFFF" style="font-size:3px; font-family:Arial" x="70" y="285.5">Over 10.0 km</text><rect fill="red" height="2.6" width="2.6" x="65" y="287" /><text fill="#FFFFFF" style="font-size:3px; font-family:Arial" x="70" y="289.5">Over 15.0 km</text><text fill="#FFFFFF" style="font-size:4px; font-family:Arial" x="120" y="280">STATISTICS</text><text fill="#FFFFFF" style="font-size:3px; font-family:Arial" x="120" y="285">Number: 26</text><text fill="#FFFFFF" style="font-size:3px; font-family:Arial" x="120" y="290">Weekly: 2.6</text><text fill="#FFFFFF" style="font-size:3px; font-family:Arial" x="141" y="285">Total: 209.9 km</text><text fill="#FFFFFF" style="font-size:3px; font-family:Arial" x="141" y="290">Avg: 8.1 km</text><text fill="#FFFFFF" style="font-size:3px; font-family:Arial" x="167" y="285">Min: 4.0 km</text><text fill="#FFFFFF" style="font-size:3px; font-family:Arial" x="167" y="290">Max: 13.0 km</text><polyline fill="none" points="16.08267164870631,45.054714682424674 18.791499299404677,45.43316487013362 19.941616067197174,46.02552038378781 20.789070527767763,46.04197468094935 24.814479215303436,48.14811459425255 25.313872022437863,48.60883002301853 30.232134516525548,50.714945458836155 31.336851938336622,51.40601021028124 31.639514245674945,51.22501727004419 32.29023820644943,49.69479830254568 32.71396543667652,49.447987798790564 36.69397477817256,49.64543622385827 39.2363381597097,50.550405913600116 44.20000000001164,50.6820375595853 39.130406352109276,50.550405913600116 36.83017281640787,49.61252816527849 32.774497898179106,49.41507971077226 32.305371321795974,49.59607413416961 31.624381130270194,51.22501727004419 31.412517515127547,51.323740710373386 25.949462867807597,49.03663634629629 20.607473143434618,46.0748832715617 20.183745913091116,46.107791857255506 18.91256422229344,45.548345233357395 15.43194768804824,45.21925832198758 11.799999999988358,44.52817421189684 19.13956095284084,45.59770822773862 20.683138720225543,46.05842897684488 26.221858944394626,49.08599856104411 30.217001401179004,50.73139940664987 31.2006538999849,51.43891800161509 31.60924801498186,51.30728680672473 32.27510509104468,49.79352242684399 32.774497898179106,49.53025799736497 36.93610462395009,49.72770634885819 39.28173750586575,50.583313832452404 44.20000000001164,50.714945458836155 39.25147127505625,50.6820375595853 36.769640354963485,49.744160370202735 32.759364782774355,49.53025799736497 32.33563755254727,49.72770634885819 31.624381130270194,51.35664851400361 31.079588977096137,51.37310241398518 25.041475945792627,48.60883002301853 20.743671181669924,46.15715472663578 20.19887902843766,46.19006330006232 19.018496029952075,45.63061688457674 11.860532461374532,44.57753743433568 19.306025221885648,45.61416255676886 20.138346566993278,46.09133756501251 20.622606258722953,46.04197468094935 26.206725829048082,49.10245263019169 31.4276506305323,51.47182578811771 32.39617001393344,49.66189025131462 34.01541335822549,49.66189025131462 32.592900513787754,49.64543622385827 31.624381130270194,51.389556312715285 31.170387669291813,51.323740710373386 24.99607659969479,48.60883002301853 20.698271835572086,46.140700438059866 20.25941148994025,46.17360901396023 19.048762260645162,45.61416255676886 15.658944418421015,45.21925832198758" stroke="yellow" stroke-linecap="round" stroke-linejoin="round" stroke-width="0.5"><title>2025-01-17 12.3km</title><desc>1737088953000</desc></polyline><polyline fill="none" points="51.076404494349845,44.90762928091863 51.28876404493349,44.544785120888264 52.21404494380113,45.155022685357835 56.52191011235118,46.012651013516006 58.948876404436305,47.26610182391596 59.88932584266877,48.00827330055472 67.32191011239775,51.43872246345563 67.61011235951446,51.24081337968528 68.24719101120718,49.73999706999166 68.64157303364482,49.47611622756813 72.87359550554538,49.73999706999166 75.194382022426,50.5976076356601 80.18483146058861,50.68007001494698 75.30056179768872,50.5976076356601 72.69157303369138,49.73999706999166 68.76292134833056,49.54208646767074 68.30786516855005,49.70701198192546 67.59494382014964,51.35626036670874 67.39775280898903,51.42223004657717 61.86123595503159,49.04730918777932 56.56741573027102,46.062129469559295 54.823033707914874,45.616822967262124 47.79999999998836,44.62724975495075 54.68651685392251,45.55085155738925 56.12752808985533,46.062129469559295 56.537078651657794,46.012651013516006 62.46797752811108,49.27820538933156 66.07808988756733,50.69656248710817 67.15505617973395,51.389245209109504 67.56460674153641,51.290290667224326 68.21685393259395,49.72350452655519 68.67191011231625,49.49260878942732 72.72191011236282,49.73999706999166 75.16404494375456,50.58111515609198 80.20000000001164,50.647085066942964 75.23988764040405,50.58111515609198 72.85842696623877,49.80596723144117 68.77808988763718,49.509101350122364 68.30786516855005,49.73999706999166 67.44325842696708,51.455214879111736 62.10393258422846,49.16275731865608 56.612921348249074,46.144593538323534 55.869662921351846,46.11160791449947 55.06573033705354,45.64980866480619 49.680898876453284,44.874643472750904" stroke="#4DD2FF" stroke-linecap="round" stroke-linejoin="round" stroke-width="0.5"><title>2025-01-15 9.1km</title><desc>1736916504000</desc></polyline><polyline fill="none" points="86.62461538461503,44.41967914252018 86.83608391607413,44.78100149870443 87.5762237762101,45.224441762664355 91.27692307688994,45.8321177126345 93.28587412583875,46.48906280109077 95.67244755238062,48.04929953966348 103.20979020971572,51.49820472499414 103.54209790210007,51.416088561862125 104.17650349647738,49.937992395978654 104.69006993004587,49.65879534072883 108.85902097896906,49.921569049562095 111.13986013975227,50.824851284734905 116.19999999995343,50.93981421280478 111.07944055943517,50.874121118395124 108.81370629364392,49.97083908508648 104.67496503487928,49.65879534072883 104.17650349647738,49.937992395978654 103.46657342649996,51.514627953933086 102.99832167825662,51.514627953933086 98.04391608381411,49.31390437259688 92.56083916086936,46.25913224283431 92.2436363635934,46.35767394003051 90.32531468529487,45.74999943887815 83.79999999998836,44.83027268317528 89.26797202794114,45.48722075740807 92.5306293705944,46.20986137771979 97.4095104894368,48.90331918318407 103.300419580366,51.58032085746527 103.64783216774231,51.38324208807899 104.35776223771973,49.72448879730655 105.89846153842518,49.75733551825397 104.40307692298666,49.79018223429739 103.42125874123303,51.56389763344487 97.66629370622104,49.21536399688921 92.65146853140322,46.291979480098234 90.88419580413029,45.78284675205941 86.12615384609671,45.125899558872334" stroke="#4DD2FF" stroke-linecap="round" stroke-linejoin="round" stroke-width="0.5"><title>2025-01-14 7.8km</title><desc>1736829619000</desc></polyline><polyline fill="none" points="124.23051162791671,45.27185970834398 123.97432558139553,44.91137871109822 124.5771162789897,44.97692075453233 129.64055813953746,46.599080105588655 132.7599999999511,48.13930114291725 134.14641860465053,49.10603011403873 139.16465116274776,51.39994626202679 139.49618604645366,51.30163606069982 140.17432558134897,49.76143716904335 140.6113488371484,49.499274581394275 144.69525581388734,49.76143716904335 146.65432558138855,50.564308149769204 148.05581395345507,50.74454408955353 152.19999999995343,50.74454408955353 146.94065116276033,50.613463420726475 144.71032558137085,49.76143716904335 140.65655813954072,49.48288940927887 140.21953488368308,49.66312623528938 139.51125581393717,51.30163606069982 139.08930232556304,51.31802109730779 134.0409302324988,49.13880051317392 129.4295813953504,46.615465492519434 127.10883720923448,45.648725573701086 119.79999999998836,44.616439273857395 127.19925581390271,45.68149648800318 129.4295813953504,46.51715315248293 133.46827906969702,48.79471107874997 139.11944186041364,51.35079116682755 139.48111627908656,51.25248094352719 140.08390697668074,49.777822320364066 140.52093023259658,49.499274581394275 144.8308837208897,49.777822320364066 147.09134883718798,50.629848508600844 152.0493023255258,50.76092916770722 146.98586046509445,50.5806932412961 144.72539534879616,49.72866686269117 140.50586046511307,49.48288940927887 140.14418604644015,49.69589655139134 139.43590697675245,51.35079116682755 138.86325581389247,51.30163606069982 138.09469767438713,50.77731424459489 133.82995348831173,49.0732597100432 128.4651162790251,46.041976222913945 126.8526511627133,45.59956919310207 119.86027906974778,44.60005373797321 128.4952558139339,46.02559079324419 133.86009302322054,48.97494846866175 138.13990697672125,50.74454408955353 139.13451162789715,51.38356123154517 139.48111627908656,51.28525102282583 140.14418604644015,49.67951139397337 140.5661395348725,49.48288940927887 144.61990697670262,49.69589655139134 146.71460465108976,50.53153796304832 147.98046511627035,50.662618680726155 146.65432558138855,50.53153796304832 144.5746976743685,49.69589655139134 140.5962790697231,49.433733885671245 140.17432558134897,49.63035591429798 139.49618604645366,51.21971085931 138.9536744185607,51.23609590200067 137.55218604649417,50.46599757488002 133.86009302322054,49.040489301114576 128.4500465115416,46.041976222913945 126.37041860463796,45.5176418676856" stroke="yellow" stroke-linecap="round" stroke-linejoin="round" stroke-width="0.5"><title>2025-01-10 13.0km</title><desc>1736482744000</desc></polyline><polyline fill="none" points="158.90373831772013,44.353696707839845 160.38747663551476,45.357884816097794 162.96130841120612,45.85174614592688 165.4897196261445,46.82300354099425 168.2300934579107,48.4527309336554 175.31570093455957,51.646303292160155 175.64878504670924,51.38291762744484 175.78504672896815,49.93429085992102 175.9818691588007,49.68736489540606 180.7510280373972,50.00013773719547 183.24915887851967,50.92199195882131 188.12429906544276,51.037223466075375 183.03719626169186,50.87260700871411 180.7510280373972,50.01659945344727 176.07271028036484,49.67090315464884 175.7699065420893,50.01659945344727 175.64878504670924,51.44876407303673 175.31570093455957,51.646303292160155 169.89551401865901,49.34166808149894 164.5661682242644,46.36206836038036 162.90074766351609,45.85174614592688 155.79999999998836,44.86402238237497 163.29439252335578,45.88467019532982 164.036261682224,46.29622039894457 164.55102803732734,46.29622039894457 169.98635514016496,49.275821007962804 175.0885981307947,51.58045690537256 175.60336448595626,51.44876407303673 175.75476635515224,49.95075258110592 176.02728971961187,49.703826634940924 180.7510280373972,50.01659945344727 183.37028037378332,50.92199195882131 188.19999999995343,50.98783854175417 182.96149532712298,50.856145356214256 180.73588785040192,49.95075258110592 176.0878504673019,49.703826634940924 175.83046728972113,49.868443963016034 175.81532710278407,51.037223466075375 175.42168224300258,51.62984169727133 169.78953271027422,49.29228277821676 164.59644859808031,46.345606371876784 162.7947663551313,45.85174614592688 155.79999999998836,44.814636078313924 161.09906542050885,45.48958127865626 164.49046728975372,46.263296410863404 169.4715887850616,49.045356096248724 175.11887850466883,51.58045690537256 175.54280373838264,51.46522568135697 175.8758878504741,50.64214376233576 175.54280373838264,51.54753370468097 174.8766355140251,51.44876407303673 169.88037383178016,49.30874454717559 164.5661682242644,46.246834414982004 164.2179439252359,46.329144382092636 163.05214953271206,45.76943600093364 161.12934579444118,45.55542948047514" stroke="yellow" stroke-linecap="round" stroke-linejoin="round" stroke-width="0.5"><title>2025-01-08 12.0km</title><desc>1736310892000</desc></polyline><polyline fill="none" points="15.253576437593438,86.80720431025838 15.707994389871601,86.08253578365839 15.768583450175356,85.37433470097312 16.056381486647297,85.12728727786453 16.389621318376157,85.19316661768244 16.238148667558562,85.30845541514282 17.707433380070142,85.86842871888075 18.464796633983497,86.49427955610736 21.569985974754672,87.58127943040745 26.72005610098131,90.36463353046565 31.35511921456782,92.42330484610284 31.658064516086597,92.12685735813284 31.703506311343517,90.75989991008828 32.12762973352801,90.47991963087406 36.76269284711452,90.80930815786996 39.18625525943935,91.73159342251893 44.20000000001164,91.83040947269183 39.15596072934568,91.69865472934907 36.82328190741828,90.84224698354956 32.067040673224255,90.52932794118533 31.74894810654223,90.85871639454854 31.703506311343517,92.12685735813284 31.446002805023454,92.47271272212674 25.765778401168063,90.05171381204855 20.570266479684506,87.13659830970573 19.994670406682417,87.13659830970573 18.934361851366702,86.62603740132181 11.799999999988358,85.72020062945376 19.146423562429845,86.77426488329365" stroke="#4DD2FF" stroke-linecap="round" stroke-linejoin="round" stroke-width="0.5"><title>2025-01-06 5.2km</title><desc>1736137119000</desc></polyline><polyline fill="none" points="51.99383177573327,86.31427516303665 52.06953271024395,85.68871566084272 52.56915887858486,84.9479192228755 52.932523364492226,86.23196480341721 52.41775700933067,86.57766810776957 53.37158878502669,86.52828195455368 56.52074766356964,87.28553509087942 60.790280373825226,89.29388953551825 61.59271028038347,90.00174781683017 67.34598130837549,92.5533111748955 67.69420560746221,92.33931021869648 67.75476635515224,90.95652981341118 68.04242990654893,90.69314208850847 73.02355140191503,91.03883841309289 75.41570093453629,91.94423098585685 80.20000000001164,92.02653921763704 75.21887850470375,91.91130768459698 72.85700934578199,90.98945325700333 68.10299065418076,90.69314208850847 67.81532710284228,90.94006808983977 67.70934579439927,92.33931021869648 67.40654205606552,92.63561917981133 61.97121495328611,90.39683052267355 57.52000000001863,87.87816616985947 55.27925233647693,86.97275693612755 47.79999999998836,85.80395043906174 52.88710280373925,86.42950961498718 56.490467289753724,87.23614909590106 61.062803738343064,89.77128257886216 66.3467289719265,92.07592414197279 67.1642990654218,92.65208077711577 67.67906542058336,92.28992535320867 67.81532710284228,90.85775945337082 68.02728971955366,90.64375685511914 71.38841121492442,91.03883841309289 72.85700934578199,90.95652981341118 75.29457943921443,91.89484603209712 80.18485981307458,91.97715428224183 74.88579439249588,91.81253775129153 72.76616822433425,90.98945325700333 68.14841121499194,90.64375685511914 67.81532710284228,90.89068291164585 67.7699065420311,92.24054047673417 67.43682242988143,92.5697727783554 62.04691588785499,90.38036875739635 57.55028037383454,87.77939443371724 55.68803738319548,87.07152903285169 47.99682242993731,85.88626095812651" stroke="#4DD2FF" stroke-linecap="round" stroke-linejoin="round" stroke-width="0.5"><title>2025-01-03 9.5km</title><desc>1735878536000</desc></polyline><polyline fill="none" points="87.03241217811592,85.65667680244951 88.92936768155778,86.18469661858398 91.0994847775437,86.38270372504485 92.14660421555163,86.9107218101708 92.54117096023401,86.86122016816807 97.04833723657066,89.35278907885368 103.10341920377687,92.14133296434011 103.55868852464482,92.05883216993243 104.18088992976118,90.55731234248378 104.63615925068734,90.2933078041824 108.70323185017332,90.54081206805131 111.11615925066872,91.44832533619774 116.20000000001164,91.59682715332019 111.4955503513338,91.46482554302202 108.88533957843902,90.62331342790276 104.66651053872192,90.37580925617658 104.18088992976118,90.63981369619432 103.37658079632092,92.20733357772406 97.48843091342133,89.73229711528984 92.52599531621672,86.96022344112862 92.13142857153434,86.99322452224442 90.917377049278,86.41570489224978 89.20252927404363,86.33320196502609 83.79999999998836,85.39266642228176 91.03878220147453,86.3992043092585 93.17854800942587,87.40573762163694 91.17536299774656,86.44870605452161 86.72889929747907,85.77218124479987" stroke="#4DD2FF" stroke-linecap="round" stroke-linejoin="round" stroke-width="0.5"><title>2025-01-02 5.6km</title><desc>1735817809000</desc></polyline><polyline fill="none" points="123.53962616826175,85.78748689527856 127.14299065421801,86.38012088845426 128.20280373835703,86.9398293113336 129.21719626168488,87.12091114459326 134.72822429909138,90.14989435262396 139.3762616822496,92.1582190226618 139.7699065420311,91.74667856899032 140.20897196256556,90.64374637365108 140.73887850466417,90.38035876642971 144.62990654207533,90.51205260929419 147.47626168222632,91.54913887901057 152.20000000001164,91.58206217292172 150.35289719625143,91.69729366303363 147.20373831770848,91.49975392890337 144.84186915890314,90.57789950130973 140.75401869165944,90.34743529347179 140.28467289719265,90.52851433414617 139.58822429913562,92.09237260154623 139.33084112155484,92.20760382556182 131.9121495326981,88.9481831574376 128.50560747657437,86.9398293113336 128.02112149540335,86.9727532920806 126.97644859814318,86.44596901180921 119.79999999998836,85.37593457587354 126.43140186916571,86.29781070668832 128.142242990667,86.9069053257117 128.50560747657437,86.8081333394075 133.36560747667681,89.54080867322045 139.33084112155484,92.22406542411773 140.33009345794562,90.47912915595225 140.73887850466417,90.31451181560988 141.88953271025093,90.46266742741864 140.2998130840715,90.44620569767721 139.58822429913562,92.05944938366883 139.31570093455957,92.1417574192019 133.81981308414834,89.8206590587215 128.73271028033923,86.98921528058418 128.05140186916105,86.9398293113336 126.84018691588426,86.39658292113745 125.53813084110152,86.44596901180921 120.25420560745988,85.42532089470478 123.58504672901472,86.050879977367" stroke="#4DD2FF" stroke-linecap="round" stroke-linejoin="round" stroke-width="0.5"><title>2024-12-31 8.0km</title><desc>1735619151000</desc></polyline><polyline fill="none" points="160.31177570088767,86.01795606657106 161.41700934577966,86.05088018217066 164.58130841125967,86.79167148699344 166.42841121496167,87.7793893632479 166.95831775700208,88.32263231310935 175.43682242988143,92.15821877247072 176.23925233643968,90.59436108754016 176.6934579439112,90.34743517819152 180.8872897196561,90.57789936881454 182.97663551400183,91.41744545918482 188.18485981307458,91.54913867414871 183.17345794395078,91.4997537277668 180.857009345782,90.59436108754016 176.70859813090647,90.34743517819152 176.2695327103138,90.54497592771077 175.36112149531255,92.22406516902265 170.24373831774574,90.03466196353838 165.61084112152457,87.48307446397666 162.91588785039494,86.41304513039358 155.79999999998836,85.37593483095407 161.52299065416446,86.11672839871608 164.5358878505067,86.80813348779338 170.24373831774574,89.9029678460065 175.22485981305363,92.20760357171821 175.60336448595626,92.05944914082647 176.23925233643968,90.57789936881454 176.75401869160123,90.29804996319581 180.79644859815016,90.54497592771077 183.24915887851967,91.45036877029634 188.19999999995343,91.466830424004 183.43084112153156,91.48329207650386 180.7813084111549,90.57789936881454 176.67831775697414,90.31451170273067 176.23925233643968,90.54497592771077 175.57308411214035,92.04298753125477 175.33084112149663,92.15821877247072 169.85009345790604,89.85358253167942 164.65700934577035,86.93982944988238 162.38598130841274,86.38012106872338 156.04224299063208,85.45824535001884 162.7190654205624,86.36365903604019 164.11196261679288,86.92336745891953 164.70242990652332,86.85751948277175 169.51700934575638,89.52434682080639 164.62672897195444,86.89044347329764 160.0543925233651,86.03441812495294" stroke="yellow" stroke-linecap="round" stroke-linejoin="round" stroke-width="0.5"><title>2024-12-30 10.8km</title><desc>1735533491000</desc></polyline><polyline fill="none" points="16.34869402984623,126.75742084045487 19.31063432834344,127.25036086066393 20.14179104473442,127.72686849952152 20.564925373182632,127.67757465360046 21.426305970177054,128.03906260119402 25.12873134331312,130.14225345337763 31.143283582059667,132.90266101053567 31.58152985072229,132.91909190447768 32.21623134321999,131.3581515156111 32.71492537314771,131.07882417547808 36.68936567159835,131.34172050538473 39.06194029841572,132.26185519243882 44.199999999953434,132.34400988856214 39.25839552236721,132.26185519243882 36.84048507461557,131.37458252462966 32.65447761188261,131.11168623386766 32.24645522388164,131.3581515156111 31.717537313408684,132.68905927802552 31.309514925291296,132.98481546794937 25.657649253727868,130.6023237787449 21.637873134342954,128.30196255460032 19.340858208946884,127.36538004018075 11.799999999988358,126.18232275763876 19.083955223846715,127.23392954441078 21.98544776113704,128.30196255460032 25.03805970150279,130.14225345337763 31.264179104415234,133.01767724235833 31.566417910391465,132.93552279716823 32.26156716415426,131.37458252462966 32.684701492486056,131.17741033590573 36.81026119401213,131.4074445389415 39.077052238804754,132.27828613409656 44.15466417907737,132.32757895175018 42.61324626865098,132.45902641168504 39.15261194022605,132.27828613409656 36.79514925373951,131.34172050538473 32.69981343281688,131.11168623386766 32.27667910448508,131.292427467386 31.58152985072229,132.88623011535674 31.12817164178705,132.95195368868008 26.231902985018678,130.81592753216682 24.6300373133854,129.83006232889602 19.31063432834344,127.29965480210376 12.57070895517245,126.34663664862455" stroke="#4DD2FF" stroke-linecap="round" stroke-linejoin="round" stroke-width="0.5"><title>2024-12-27 9.1km</title><desc>1735273142000</desc></polyline><polyline fill="none" points="73.85626168217277,131.55074748693733 72.6753271027701,131.22151319865952 71.41869158874033,131.3696686891053 68.46635514014633,131.0898193460598 67.42168224300258,132.9664493368764 61.92579439247493,130.72766084651812 56.47532710270025,127.73159958333417 56.036261682223994,127.78098553785821 54.85532710276311,127.25420145384851 47.79999999998836,126.13478110508004 52.735700934543274,126.92496076355746 53.22018691588892,126.8426505143143 56.68728971958626,127.7151375960384 60.5480373831233,129.65764363034396 61.12336448597489,130.1844219843042 67.08859813079471,132.91706454129599 67.52766355132917,132.88414133811602 68.13327102793846,131.3696686891053 68.6177570092841,131.07335760892602 72.79644859803375,131.3367452553939 75.35514018684626,132.29152284200245 80.20000000001164,132.42321597848786 74.85551401862176,132.19275293815008 72.97813084104564,131.3861304041202 68.60261682234704,131.0898193460598 68.28467289719265,131.18858974287286 67.60336448601447,132.93352614101605 67.30056074762251,133.06521889491705 65.99850467289798,132.29152284200245 61.744112149463035,130.61242847218818 56.762990654213354,127.69867560753482 53.34130841115257,126.92496076355746 49.75308411207516,126.44756089114526" stroke="#4DD2FF" stroke-linecap="round" stroke-linejoin="round" stroke-width="0.5"><title>2024-12-25 6.6km</title><desc>1735101299000</desc></polyline><polyline fill="none" points="87.16426566883456,126.41989376094716 87.04303086991422,126.71648839031695 87.24003741808701,126.65057850706216 87.52797006547917,126.17273126589134 88.45238540688297,126.81535317839007 89.48288119735662,126.86478555583744 92.65014031803003,127.67217949032784 98.25724976614583,130.73695412601228 103.40972871845588,132.96136073149682 103.62188961647917,132.9448837277887 104.25837231054902,131.3795627765503 104.72815715626348,131.13240582424623 108.7895229185815,131.3630856549862 111.4112254443462,132.3517107761436 116.20000000001164,132.43409600346058 111.18391019647243,132.30227962504432 108.63797942007659,131.34660853222886 104.59176800755085,131.14888296295248 104.25837231054902,131.31365428293066 103.57642656686949,132.8624986907089 103.30364826938603,132.91192971663259 97.71169317123713,130.6051367361215 93.51393826003186,128.16650085251604 91.13470533204963,127.21081188869721 83.79999999998836,126.18920877417258 86.28531337692402,126.56819112534868 87.467352666019,126.53523616406892 91.63479887746507,127.35910872278328 93.52909260988235,128.10059140140947 98.72703461174387,130.96763436924084 103.1672591206734,132.9448837277887 103.63704396632966,132.89545270924282 104.39476145931985,131.21479150568484 105.94050514500123,131.21479150568484 104.44022450887132,131.16536010049458 103.561272217019,133.02726873410575 98.10570626752451,130.76990846119588 95.16576239472488,129.03979922564758 91.28624883067096,127.32615387934493 83.84546304953983,126.20568628120236 90.073900841875,127.09546983790642" stroke="#4DD2FF" stroke-linecap="round" stroke-linejoin="round" stroke-width="0.5"><title>2024-12-18 8.3km</title><desc>1734495982000</desc></polyline><polyline fill="none" points="123.21529850747902,125.07319801734411 122.65615671634441,125.2046505111357 122.8526119402377,125.04033488160348 122.65615671634441,125.1717873950256 122.53526119393064,124.99104016885394 122.59570895519573,125.15535583512974 123.81977611937327,126.00979532607016 126.49458955222508,127.19285992490768 127.12929104478098,128.19517357708537 127.83955223875819,128.75383822568983 128.6253731342731,128.86885724237072 134.1714552238118,131.85933062140248 139.18861940299394,134.11037449324795 139.55130597006064,134.1268053859385 140.26156716415426,132.54943410438136 140.69981343281688,132.30296882263792 144.90093283576425,132.56586511339992 147.54552238807082,133.48599966334586 152.19999999995343,133.56815434720193 147.13749999995343,133.48599966334586 144.90093283576425,132.58229612115247 140.62425373139558,132.3193998499628 140.18600746267475,132.56586511339992 139.43041044770507,134.19252894452075 132.01044776116032,131.08706940164848 131.49664179095998,130.57770413841354 129.63787313434295,129.52610761550022 127.40130597009556,128.6388191490114 119.79999999998836,127.40646813438798 127.02350746263983,128.35948685591575 128.29291044775164,128.91815108829178 128.56492537312442,128.8359946722776 134.23190298507689,131.92505485565925 138.13078358204802,133.46956872288138 139.20373134326655,134.1268053859385 139.61175373132573,134.02822001131426 140.367350746179,132.45084802473139 141.93899253732525,132.40155496842635 140.45802238798933,132.50014107007883 139.67220149253262,134.20895983114315 138.99216417904245,134.15966716771072 133.86921641783556,131.9579169654753 132.46380597015377,131.03777604049537 127.3559701492195,128.55666262895102 119.92089552234393,127.52148785378085 127.12929104478098,128.39234949699312" stroke="#4DD2FF" stroke-linecap="round" stroke-linejoin="round" stroke-width="0.5"><title>2024-12-17 8.6km</title><desc>1734409492000</desc></polyline><polyline fill="none" points="159.79514245683094,126.62180453741166 163.03362914529862,127.13188964909932 164.2140121438424,127.69133648140996 164.60747314343462,127.5761563670967 170.22185894445283,130.66954429463658 175.3217188230483,132.87437945668353 175.5941148995771,132.84147163100715 176.29023820644943,131.2125281310291 176.6685660906369,130.99862556696462 181.05716954695527,131.31125232148042 183.25147127517266,132.15040615882026 188.20000000001164,132.2326759712887 187.71574030822376,132.39721550427203 183.2363381597097,132.2326759712887 180.64857543201651,131.27834426290065 176.75936478283256,131.11380389641272 176.16917328356067,131.4757925408776 175.51844932278618,132.87437945668353 175.2611863615457,132.95664899947587 170.675852405373,131.01507961767493 164.51667445118073,127.72424507446704 163.7146193368244,127.62551928056928 162.8671648762538,127.13188964909932 155.79999999998836,126.1610814884043 162.97309668385424,127.11543530905328 163.98701541335322,127.658427883478 164.57720691274153,127.60906497731048 170.176459598355,130.65309021816938 175.21578701544786,132.8579255444638 175.63951424567495,132.8250177162845 176.1540401680977,131.42643048793252 176.6685660906369,131.03153366720653 181.1025688931113,131.31125232148042 183.20607192901662,132.15040615882026 188.10920130781597,132.2820378440083 183.47846800560364,132.2326759712887 180.83017281646607,131.27834426290065 176.65343297529034,131.08089580839442 176.2751050911029,131.26189023179177 175.4881830920349,132.95664899947587 170.07052779075457,130.73536058831087 164.53180756658548,127.72424507446704 163.18496029893868,127.24706999513728 155.98159738443792,126.193990309519 162.94283045304473,127.13188964909932 164.00214852875797,127.658427883478 164.65287248953246,127.67488218305516 170.81205044372473,130.949263407354 175.21578701544786,132.90728727747046 175.63951424567495,132.84147163100715 176.1540401680977,131.16316601925064 177.90948155074148,131.19607409498713 176.30537132185418,131.22898216580506 175.54871555347927,133.03891851160733 170.02512844465673,130.7189065167331 164.59234002802987,127.7077907785715 164.1080803363002,127.72424507446704 162.91256422229344,127.14834398790845 155.98159738443792,126.25980793696363 162.80663241475122,127.11543530905328" stroke="yellow" stroke-linecap="round" stroke-linejoin="round" stroke-width="0.5"><title>2024-12-15 13.0km</title><desc>1734235831000</desc></polyline><polyline fill="none" points="15.003731343196705,167.08912655019958 15.003731343196705,167.26987174275564 16.36380597006064,167.68065572035266 18.19235074619064,168.05857630395622 19.144402985053603,167.99285103158036 20.066231343254913,168.51865266205277 20.59514925366966,168.5350839428138 26.851492537301965,171.8706085877493 31.339738805952948,173.7766000222473 31.626865671598352,173.7601691319869 32.231343283550814,172.29781499659293 32.684701492486056,172.00205680166255 36.8555970149464,172.21565998224833 39.25839552242542,173.13579439505702 44.20000000001164,173.23437999736052 39.167723880615085,173.13579439505702 36.976492537301965,172.2320909875416 32.609141791122966,171.93633270449936 32.18600746267475,172.13350493727194 31.460634328366723,173.80946179905732 26.186567164142616,171.65700507302245 21.275186567101628,168.91300306223275 19.038619402970653,168.04214498770307 11.799999999988358,166.99053820093104 15.638432835694402,167.38489133361145 19.038619402970653,167.94355706447095 20.564925373066217,168.4364962399559 25.20429104473442,170.9668999962887 29.84365671640262,173.00434685683285 30.992164179100655,173.72730734778452 31.611753731325734,173.66158376469684 32.170895522343926,172.29781499659293 32.6393656716682,171.96919475556933 36.780037313408684,172.14993594869156 39.03171641792869,173.0865015774034 40.75447761191754,173.10293251788244 38.91082089551492,173.03720874873397 36.74981343280524,172.1827979679365 32.80559701495804,171.93633270449936 32.18600746267475,172.11707392460085 31.43041044776328,173.74373824047507 25.899440298439004,171.49269453632587 20.59514925366966,168.5679465006251 19.008395522309,168.04214498770307 16.620708955160808,167.74638108574436" stroke="#4DD2FF" stroke-linecap="round" stroke-linejoin="round" stroke-width="0.5"><title>2024-12-13 8.5km</title><desc>1734064159000</desc></polyline><polyline fill="none" points="51.30477090214845,167.4546031296777 54.64119036367629,167.93718924846326 56.93689182802336,168.65274605705054 61.71195087389788,171.34854414433357 67.05328294757055,173.7115008948458 67.48181388754165,173.72814134669898 68.1705243269098,172.1472928848525 68.5990552668809,171.9309653829987 72.80784128484083,172.1472928848525 74.91988663200755,173.01260079727217 80.20000000001164,173.11244380223798 75.42494095419534,173.0791628055158 72.65479452052386,172.13065231521614 68.49192253191723,171.9143247972388 68.04808691539802,172.0640900243452 67.54303259326844,173.49517490783182 67.17572035902413,173.8279840318428 66.08908833254827,173.21228676257306 61.69664619740797,171.49830975076475 57.25829003303079,168.95228078460786 54.901369863015134,168.13687975122593 57.24298535659909,168.88571754652367 60.059045819565654,170.58307392106508 66.11969768541167,173.19564627224463 67.00736891827546,173.77806269485154 67.45120453467825,173.67821998739964 68.1399149739882,171.86440303259587 67.42059518187307,173.62829861692444 67.03797827113885,173.72814134669898 61.86499763809843,171.53159098298056 56.355314123793505,168.43641517063952 55.81965044874232,168.4530560154817 54.47283892298583,167.90390748064965 47.79999999998836,166.97201596814557" stroke="#4DD2FF" stroke-linecap="round" stroke-linejoin="round" stroke-width="0.5"><title>2024-12-11 6.6km</title><desc>1733890893000</desc></polyline><polyline fill="none" points="87.72865168534918,167.61274712558952 91.2022471910459,168.0085759681242 91.96067415724974,168.45388256994192 92.58258426969405,168.4373897487967 98.28595505619887,171.58749628864462 103.38258426968241,173.79749192313466 104.21685393259395,172.08227334736148 104.65674157300964,171.88436265657947 109.01011235959595,172.14824353835138 111.23988764040405,173.0223467125179 116.1544943820918,173.1377940435341 111.42191011243267,173.0223467125179 109.055617977574,172.23070624937827 104.33820224722149,172.03279569125152 103.50393258425174,173.84696918487316 98.17977528093616,171.62048146031157 96.64775280898903,170.58144619237282 92.537078651716,168.53634665714344 92.20337078656303,168.61881071365497 90.89887640450615,168.0910402212321 83.95168539322913,167.10146715636074 89.71573033707682,167.76118302448594 92.537078651716,168.42089692645823 96.51123595505487,170.38353415983147 98.16460674162954,171.48854074420524 103.26123595505487,173.764507075859 103.57977528090123,173.64906007163518 104.24719101120718,172.18122862641758 104.65674157300964,171.88436265657947 107.31123595504323,172.14824353835138 108.66123595507815,172.03279569125152 111.31573033705354,173.03883919208602 116.20000000001164,173.12130157138745 111.05786516855005,173.00585423174198 108.97977528098272,172.18122862641758 104.62640449439641,171.9008552209416 104.24719101120718,172.04928824453964 103.71629213477718,173.53361300722463 103.42808988766046,173.78099950012984 98.69550561800133,171.8018998165353 95.85898876405554,170.10315847754828 92.50674157310277,168.45388256994192 90.07977528090123,167.84364736975112 83.79999999998836,166.9530308151152 91.5511235955637,168.07454737309308 103.018539325858,173.6820449361112 103.57977528090123,173.5830903278693 104.24719101120718,171.86787009100954 103.61011235957267,173.64906007163518 103.2915730336681,173.71502979572688 98.34662921348354,171.62048146031157 92.55224719108082,168.40440410286828 87.25842696626205,167.5137898043613" stroke="yellow" stroke-linecap="round" stroke-linejoin="round" stroke-width="0.5"><title>2024-12-09 12.1km</title><desc>1733738831000</desc></polyline><polyline fill="none" points="133.28218661644496,171.0225808838586 139.3743638077285,173.77840243397804 140.07672007539077,172.1846784641093 140.6263901978964,171.88585395085101 144.5656927426462,172.0518676187785 146.96286522148876,172.99814316448465 152.20000000001164,173.1807572809339 147.4667295004474,173.0811495996022 144.82525918941246,172.1680771127576 140.6721960415016,171.9522594328737 140.15306314796908,172.1182730513683 139.40490103681805,173.81160489551257 134.58001885015983,171.8028470705467 128.4420358153293,168.48254650177842 127.89236569270724,168.4991481277102 127.1900094251032,168.0343021346198 122.83845428843051,167.45324327955313 122.28878416592488,167.18761586969777 122.02921771915862,167.40343816431414 120.12064090487547,167.1046072391764 124.64015080116224,167.5694551717752 128.4420358153293,168.41613998575485 132.44241281814175,170.39172537383274 133.57229029224254,171.2217980423011 139.1453345900518,173.77840243397804 139.51178133831127,173.62899129600555 140.15306314796908,172.08507033756177 140.5042412818293,171.81944844906684 141.86314797354862,172.0518676187785 144.79472196043935,172.0684689787886 147.23770028277067,173.01474445399072 152.0931196983438,173.1143521649792 147.11555136664538,172.96494058177632 144.79472196043935,172.10167169506894 140.61112158338074,171.91905669437256 139.9851083882968,172.4502999172255 139.38963242224418,173.81160489551257 133.7097078228835,171.35460938232427 128.42676720075542,168.48254650177842 128.0755890669534,168.54895299799682 126.10593779449118,167.90148881562345 119.79999999998836,166.98839510447579 126.39604147040518,167.90148881562345 127.93817153625423,168.4659448746388 128.5183788878494,168.44934324627684 130.4880301603116,169.52844651856867" stroke="#4DD2FF" stroke-linecap="round" stroke-linejoin="round" stroke-width="0.5"><title>2024-12-06 9.2km</title><desc>1733479157000</desc></polyline><polyline fill="none" points="159.0869565216708,167.47666372674576 163.20701262261719,167.97075586716528 164.08555399713805,168.51425594605098 164.5702664796845,168.41543784925307 170.22019635338802,171.57759503580746 175.1582047685515,173.76802115245664 175.6580645160866,173.61979751339823 176.18821879377356,172.2034332837211 176.76381486677565,171.9728615037602 180.85357643757015,172.17049447269528 183.15596072922926,173.0433713056118 188.19999999995343,173.20806466118665 183.21654978959123,173.0433713056118 180.82328190736007,172.21990268734226 176.68807854130864,171.95639208168723 176.15792426362168,172.28578028967604 175.40056100982474,173.80095972542767 169.81122019630857,171.42936992814066 168.5388499298715,170.5564867225039 164.58541374467313,168.5471953018132 164.1461430574418,168.5801346526714 163.04039270681096,168.05310444984934 155.79999999998836,166.99904027456068 163.04039270681096,168.03663473576307 165.3124824683764,168.9918761243316 164.6460028050351,168.5471953018132 159.10210378671763,167.49313348258147" stroke="#4DD2FF" stroke-linecap="round" stroke-linejoin="round" stroke-width="0.5"><title>2024-12-03 5.6km</title><desc>1733220329000</desc></polyline><polyline fill="none" points="16.029370629403275,208.44086362665985 19.09566433558939,208.76933717430802 20.137902097892947,209.37701194707188 21.46713286708109,209.54124808459892 22.902097902086098,210.47739173188165 24.86573426570976,211.2164496979094 26.119440559414215,212.1854330549686 31.51188811188331,214.5503915012232 32.19160839158576,213.0887187893386 32.73538461542921,212.7274049397529 36.85902097908547,212.95733200346876 39.39664335671114,213.893461144311 42.946293706365395,213.8606145750964 44.20000000001164,213.95915426811553 43.82237762241857,214.05769391707145 39.245594405569136,213.9263077086507 36.85902097908547,213.02302540621895 32.72027972032083,212.79309841098438 32.26713286712766,213.00660205734312 31.572307692375034,214.56681473506615 31.239999999990687,214.5996611990995 25.65118881117087,212.20185646502068 22.630209790193476,210.47739173188165 18.95972027973039,208.8350318250741 11.799999999988358,207.83318627314293 19.21650349657284,208.80218450214306 21.36139860143885,209.78760206142033 18.929510489455424,208.88430280033208 11.83020979014691,207.80033880089468 16.21062937064562,208.40801624496817" stroke="#4DD2FF" stroke-linecap="round" stroke-linejoin="round" stroke-width="0.5"><title>2024-12-02 6.1km</title><desc>1733112856000</desc></polyline><polyline fill="none" points="47.79999999998836,206.73772492041462 48.76000000000931,207.1378582548641 50.96800000005169,210.0953442445607 50.77600000001257,209.9039786375797 51.192000000039116,209.88658175642195 51.73600000003353,209.22549931269896 53.72000000003027,209.52124695311068 54.45599999994738,210.00835989718325 55.928000000014435,210.3041065459838 57.51199999998789,211.29572492913576 59.431999999971595,212.02638841158478 60.44000000000233,212.91361956656328 66.20000000001164,215.54049988734187 66.66400000004796,215.54049988734187 67.36799999995856,213.92262344999472 67.83199999999488,213.69646778621245 72.26400000002468,213.92262344999472 75.0,214.8968299591652 80.20000000001164,214.9490194789105 75.03200000000652,214.9316229736287 72.27999999996973,213.95741660956992 67.88000000000466,213.731260979519 67.39999999996508,213.94002003040805 66.53600000002189,215.66227507957956 61.03200000000652,213.34853556816233 57.304000000003725,211.24353459292615 53.57600000000093,209.53864386145142 49.04800000000978,208.99933909960964" stroke="#4DD2FF" stroke-linecap="round" stroke-linejoin="round" stroke-width="0.5"><title>2024-11-29 4.6km</title><desc>1732853630000</desc></polyline><polyline fill="none" points="86.54392344498774,210.1549720874027 86.31138755986467,210.28981810803816 87.30354066990549,210.30667385492416 86.45090909098508,210.20553935457428 87.22602870810078,210.27296235982794 87.13301435403991,210.50894272008736 88.37320574163459,208.90764258647687 91.28765550238313,208.7053722896526 92.21779904305004,209.21104769263184 93.535502392333,209.4807407787157 98.69779904303141,212.43048792019545 103.8755980861024,214.67227002778964 104.65071770339273,213.03728827704617 105.11578947363887,212.81816611367685 109.51846889953595,213.03728827704617 111.75081339711323,213.94748576104757 116.20000000001164,213.99805218058464 111.8438277511741,213.91377480841766 109.1929186602938,212.98672164281015 105.05377990432316,212.75074386688357 104.68172248802148,212.96986609551823 103.8755980861024,214.6554146060662 98.38775119616184,212.43048792019545 92.71387559809955,209.26161517074797 91.00861244020052,208.73908401833614 83.79999999998836,207.7277299722191 91.1636363636353,208.7053722896526 92.10928229667479,209.19419186406594 93.1014354066574,209.3290384573338 97.10105263162404,211.45286169985775 91.11712918657577,208.77279574201384 87.22602870810078,208.25026346056256" stroke="#4DD2FF" stroke-linecap="round" stroke-linejoin="round" stroke-width="0.5"><title>2024-11-28 6.3km</title><desc>1732767063000</desc></polyline><polyline fill="none" points="120.01744966453407,207.32843046585913 124.80134228197858,208.13624945982883 125.88859060406685,208.70763213624014 126.39597315434366,208.6682264740666 131.37919463089202,211.1113664262375 133.10067114094272,212.25411768862978 139.4067114094505,215.01246246100345 140.29463087255135,213.10132664401317 140.94697986578103,212.74668136502441 145.7489932886092,213.0028141142102 147.95973154366948,213.92883044558403 149.8805369127076,214.24406930799887 152.20000000006985,214.18496204989788 148.70268456370104,214.1258547786274 146.07516778528225,213.10132664401317 141.12818791950122,212.84519399028795 140.38523489935324,213.14073164564616 139.4067114094505,215.07156953416415 132.53892617451493,212.17530741522205 126.39597315434366,208.6682264740666 125.94295302021783,208.766740618521 124.38456375838723,208.07714083662722 119.80000000004657,207.46635095663078" stroke="#4DD2FF" stroke-linecap="round" stroke-linejoin="round" stroke-width="0.5"><title>2024-11-25 4.0km</title><desc>1732507947000</desc></polyline><polyline fill="none" points="155.80000000004657,205.65846473915735 162.4048154093325,206.50667034974322 164.1990369182313,207.55278799164807 165.18715890869498,207.43969433158054 167.00738362770062,208.0334356710373 168.90561797760893,209.39055524434661 172.49406099529006,210.94558212228003 175.2764044945361,212.86815199875855 181.5691813804442,215.32789631551714 183.6754414126044,216.60017160323332 184.22150882834103,216.37398964155 185.39165329060052,213.6315226307197 188.20000000006985,213.57497671063174 185.49566613172647,213.71634149507736 183.98747993586585,216.74153526080772 175.6924558589235,213.29224698385224 165.1351524880156,207.63760821457254 164.43306581070647,207.77897521073464 166.92937399691436,208.25962260362576 168.15152487973683,209.39055524434661 170.3097913323436,209.98429353151005 175.22439807385672,212.92469802414416 183.10337078664452,216.43053514458006 184.22150882834103,216.54362612543628 185.39165329060052,213.60324967181077 184.14349919755477,216.74153526080772 175.8224719101563,213.23570101326914" stroke="#4DD2FF" stroke-linecap="round" stroke-linejoin="round" stroke-width="0.5"><title>2024-11-20 4.0km</title><desc>1732095798000</desc></polyline><polyline fill="none" points="13.692724375985563,248.47342720082088 18.47615507169394,249.1656550855114 19.628996282524895,249.74562833053642 20.420499203377403,249.82046349035227 24.84259160910733,252.0093820492766 26.012639405205846,252.90739440004108 32.310249601723626,255.69495395010745 32.602761550748255,255.6575372483203 33.308231545379385,254.0111968483834 33.824429102474824,253.61831856692152 38.6078597981832,253.88023748954583 41.12002124270657,254.89049363207596 44.20000000001164,255.00274406369135 41.0684014869621,254.9092020408425 38.33255443436792,253.8615290041198 33.92766861390555,253.63702707046468 33.204992033948656,254.12344767303148 32.53393520973623,255.73237064640853 26.133085501904134,253.09447990225453 21.21200212422991,250.34430898481514 18.441741901275236,249.2404904182331 11.799999999988358,248.26762935359147" stroke="#4DD2FF" stroke-linecap="round" stroke-linejoin="round" stroke-width="0.5"><title>2024-11-19 4.1km</title><desc>1731989484000</desc></polyline></svg>