<?xml version="1.0" encoding="utf-8" ?>
<svg baseProfile="full" height="300mm" version="1.1" viewBox="0,0,200,300" width="200mm" xmlns="http://www.w3.org/2000/svg" xmlns:ev="http://www.w3.org/2001/xml-events" xmlns:xlink="http://www.w3.org/1999/xlink"><defs /><rect fill="#222222" height="300" width="200" x="0" y="0" /><text fill="#FFFFFF" style="font-size:12px; font-family:Arial; font-weight:bold;" x="10" y="20">Over 4km Runs</text><text fill="#FFFFFF" style="font-size:4px; font-family:Arial" x="10" y="280">ATHLETE</text><text fill="#FFFFFF" style="font-size:9px; font-family:Arial" x="10" y="290">Fake David</text><text fill="#FFFFFF" style="font-size:4px; font-family:Arial" x="65" y="280">SPECIAL TRACKS</text><rect fill="yellow" height="2.6" width="2.6" x="65" y="283" /><text fill="#FFFFFF" style="font-size:3px; font-family:Arial" x="70" y="285.5">Over 10.0 km</text><rect fill="red" height="2.6" width="2.6" x="65" y="287" /><text fill="#FFFFFF" style="font-size:3px; font-family:Arial" x="70" y="289.5">Over 15.0 km</text><text fill="#FFFFFF" style="font-size:4px; font-family:Arial" x="120" y="280">STATISTICS</text><text fill="#FFFFFF" style="font-size:3px; font-family:Arial" x="120" y="285">Number: 53</text><text fill="#FFFFFF" style="font-size:3px; font-family:Arial" x="120" y="290">Weekly: 2.6</text><text fill="#FFFFFF" style="font-size:3px; font-family:Arial" x="141" y="285">Total: 438.3 km</text><text fill="#FFFFFF" style="font-size:3px; font-family:Arial" x="141" y="290">Avg: 8.3 km</text><text fill="#FFFFFF" style="font-size:3px; font-family:Arial" x="167" y="285">Min: 4.0 km</text><text fill="#FFFFFF" style="font-size:3px; font-family:Arial" x="167" y="290">Max: 13.0 km</text><polyline fill="none" points="13.050805452279747,41.04152958896884 13.039653035928495,40.82325903924357 12.7831474597333,41.07790798548376 11.33333333331393,40.859637484536506 16.42998760845512,41.41743929401855 17.322180917020887,41.817600284019136 17.835192069469485,41.85397850703157 19.24039653042564,42.49665910650219 19.463444857508875,42.81193545390852 20.42255266418215,43.34547865051718 25.74225526646478,45.734275608861935 26.02106567536248,45.41900492194691 26.009913259069435,44.40043391405197 26.25526641885517,44.218545563315274 29.991325898387004,44.58232206151297 31.57496902102139,45.26136934950773 35.33333333331393,45.32199843390845 31.94299876090372,45.29774680285482 31.273853779479396,45.200740242536995 29.86864931846503,44.58232206151297 26.34448574972339,44.37618214567192 26.11028500617249,44.630825533153256 26.009913259069435,45.74640139230178 25.61957868654281,45.84340762742795 24.939281288709026,45.4068791141035 21.950433705060277,44.2064196660358 17.679058240435552,41.86610457957431 16.5972738537821,41.52657420703326 13.876084262679797,41.174917003067094" stroke="#4DD2FF" stroke-linecap="round" stroke-linejoin="round" stroke-width="0.5"><title>2025-04-10 4.8km</title><desc>1744258695000</desc></polyline><polyline fill="none" points="43.662482566258404,41.082925164329936 47.28870292886859,41.543931739535765 49.419804741977714,42.247570837891544 52.800557880080305,44.21289152330428 56.20362622034736,45.802114979422186 56.47140864713583,45.77785214246251 56.63877266389318,45.45030348988075 56.772663877229206,44.98930797385401 56.67224546725629,44.54044266481651 56.85076708503766,44.3463383641938 58.46861924685072,44.56470568611985 60.4323570432025,44.576837195432745 62.329149232944474,45.26833173158229 65.92189679219155,45.244068815081846 62.1841004184098,45.26833173158229 60.45467224548338,44.58896870381432 57.06276150629856,44.406995982993976 56.80613668059232,44.66175773521536 56.64993026497541,45.74145788028545 56.27057182707358,45.78998356140801 51.79637377965264,43.812550344489864 48.40446304046782,41.89575166879513 47.232914923282806,41.56819520735007 42.04463040450355,40.816026024200255 47.63458856346551,41.616722132093855 56.30404463043669,45.85064064247126 56.53835425386205,45.76572072264389 56.69456066942075,45.438172045658575 56.66108786611585,44.52831115281151 56.88423988840077,44.33420683773875 60.44351464434294,44.576837195432745 61.83821478381287,45.183411508085555 62.88702928868588,45.328989006913616 66.0,45.147017113049515 62.20641562063247,45.26833173158229 60.41004184097983,44.58896870381432 57.00697350065457,44.3706014144409 56.761506276146974,44.67388923726685 56.67224546725629,45.6080121826235 56.28172942815581,45.802114979422186 51.62900976289529,43.72762936184881 48.4602510460536,41.93214679051016 46.541143654088955,41.483273054196616 44.588563458877616,41.34982386697084 42.0,40.87668495811522 44.38772663875716,41.15571576297225" stroke="#4DD2FF" stroke-linecap="round" stroke-linejoin="round" stroke-width="0.5"><title>2025-04-08 9.7km</title><desc>1744085781000</desc></polyline><polyline fill="none" points="74.53766434651334,41.03261072785244 72.66666666668607,40.923627442345605 76.76504253677558,41.250577079641516 79.2040216550813,41.83181925529789 79.97246713074856,42.15876706561539 80.45135344163282,42.61891472149 81.67641144630034,43.03062467777636 83.19102861569263,43.975131813349435 86.96643464820227,45.7793673677661 87.17803557624575,45.79147626357735 87.33395204955013,45.53718926238071 87.46759474097053,44.47160131212149 87.62351121427491,44.35051133031084 91.16504253679886,44.52003727958072 92.49033256003167,45.11337670973444 93.28105181752471,45.28290186340746 96.66666666668607,45.24657505964569 92.84671307046665,45.22235718597949 91.19845320965396,44.592691203724826 87.7905645785504,44.374729333867435 87.51214230473852,44.53214626920817 87.32281515857903,45.73093177555711 87.06666666670935,45.76725847106718 82.56736272241687,43.817714338583755 79.2485692189075,41.940801931821625 77.956689868588,41.54119842732325 75.95204949739855,41.43221548284055 72.76689868525136,40.875190403094166 76.41979891731171,41.28690477654163 77.09914926532656,41.589635268072016 78.22397525137058,41.66229050212132 79.73859242076287,42.31618614711624 78.04578499618219,41.56541684948024 75.67362722358666,41.1658124220412" stroke="#4DD2FF" stroke-linecap="round" stroke-linejoin="round" stroke-width="0.5"><title>2025-04-07 6.0km</title><desc>1743999676000</desc></polyline><polyline fill="none" points="104.97426356590586,41.172907564396155 103.55658914730884,40.86947196324763 108.0328682170366,41.464205209733336 110.14263565890724,42.010386890760856 112.91100775194354,43.454725178860826 113.21240310079884,43.78243040315283 117.7110077519319,45.821470321010565 117.93426356592681,45.772922048097826 118.05705426353961,44.59562200111395 118.28031007753452,44.3892901888903 121.89705426356522,44.65630777849583 123.81705426354893,45.34812404308468 127.33333333331393,45.38453534405562 123.48217054264387,45.29957562913478 121.84124031011015,44.65630777849583 118.39193798450287,44.449976043149945 118.15751937980531,44.547073362919036 118.02356589148985,45.5059062885266 117.73333333333721,45.84574445204635 114.0942635659012,44.32860431203153 109.84124031011015,41.9375627724512 108.54635658918414,41.57344169243879 105.65519379847683,41.2942816465802 103.44496124034049,40.833059653130476 109.0040310077602,41.609853837042465 112.78821705427254,43.418313446614775 113.9714728682302,44.182958115357906 117.7110077519319,45.80933325414662 117.94542635657126,45.68796253571054 118.06821705424227,44.66844493125973 118.29147286817897,44.42570170415274 121.72961240308359,44.632033470261376 123.71658914734144,45.3602611443348 127.32217054266948,45.445220827605226 125.81519379845122,45.5059062885266 123.5491472868598,45.33598694096145 121.61798449617345,44.632033470261376 118.3361240310478,44.42570170415274 118.07937984500313,44.632033470261376 118.05705426353961,45.5059062885266 117.77798449608963,45.83360738695774 113.91565891477512,44.25578122997831 111.79472868220182,42.993509302061284 108.89240310079185,41.63412859562959 103.33333333331393,40.82092221462517 108.83658914727857,41.58557907487557 110.44403100776253,42.228859050461324 110.99100775195984,42.70221439130546 109.83007751934929,41.94970012776321 109.46170542639447,41.94970012776321 108.83658914727857,41.561304309085244 107.26263565890258,41.391380847242544" stroke="yellow" stroke-linecap="round" stroke-linejoin="round" stroke-width="0.5"><title>2025-04-03 10.8km</title><desc>1743675722000</desc></polyline><polyline fill="none" points="135.6490250696661,41.049715003580786 134.12256267410703,40.88010666168702 136.0724233983201,41.0739447522792 136.77437325904611,41.35258660269028 139.15877437329618,41.54642413002148 141.08635097497609,42.17639449809212 141.95543175493367,42.648870672433986 142.0111420613248,42.854821395725594 145.13091922004241,44.46607393369777 148.32869080785895,45.859249348548474 148.5849582173396,45.750218659610255 148.76323119777953,44.55087625660235 148.95264623960247,44.39338619314367 151.16991643456277,44.69625156445545 152.41782729810802,44.59933470701799 154.47910863510333,45.32620972991572 158.0,45.374667949276045 154.41225626744563,45.32620972991572 152.48467966576573,44.62356392676884 149.01949860726018,44.417615443628165 148.7966573816375,44.62356392676884 148.6406685237307,45.665416962103336 148.33983286906732,45.847134831157746 144.9303621170693,44.39338619314367 140.76323119777953,42.10370573401451 139.4930362117011,41.643342807059526 134.0,40.80741731810849 139.70473537605722,41.619113143213326 140.75208913651295,42.17639449809212 141.45403899723897,42.34600148786558 144.60724233987276,44.1268641998322 148.3509749303921,45.79867675260175 148.54038997215685,45.71387508038606 148.74094707524637,44.49030317332654 148.9415041783359,44.34492768139171 150.44568245130358,44.58722009576741 152.66295264626388,44.64779314293992 154.30083565460518,45.31409517284192 157.98885793873342,45.362553395782015 154.02228412259137,45.25352237385232 152.5069637882989,44.659907749679405 149.0752089136513,44.417615443628165 148.77437325904611,44.57510548362916 148.59610027854796,45.81079127357225 148.23955431755167,45.81079127357225 144.295264624001,44.09052025779965 143.32590529246954,43.41209851561871 140.5738161560148,42.00678733139648 138.60167130921036,41.48584992754331 134.02228412253316,40.88010666168702 137.66573816159507,41.34047174954321" stroke="yellow" stroke-linecap="round" stroke-linejoin="round" stroke-width="0.5"><title>2025-04-01 10.1km</title><desc>1743481138000</desc></polyline><polyline fill="none" points="166.14290152228205,41.035121268287185 168.43553898733808,41.278321917081485 171.0748679714743,41.86200199558516 175.80552966770483,44.39125821548805 178.9816713265609,45.81394761578122 179.3507300405181,45.582913428283064 179.44019881956046,44.549335427887854 179.6191363778198,44.354778837034246 183.00776638713432,44.622294089669595 185.5017086052103,45.388358069438254 188.6219322772231,45.33971919349278 184.8306927618105,45.254601125678164 183.15315315319458,44.64661363634514 179.6526871700189,44.41557779660798 179.45138241694076,44.683092949548154 179.40664802741958,45.59507313053473 178.9593041318003,45.78962824304472 175.2016154085868,44.17238182251458 171.0860515689128,41.9349618586275 170.63870767329354,41.910641907918034 169.85585585591616,41.55800221518439 168.3572538056178,41.47288217519235 164.70021745888516,40.804080316243926 171.1196023610537,41.86200199558516 175.99565082334448,44.48853651813988 179.0040385213215,45.82610730078886 179.2948120535002,45.6558716280997 179.46256601437926,44.48853651813988 179.6191363778198,44.33045924686303 180.7486797142774,44.53717564773979 182.95184840017464,44.59797453934152 184.8083255669917,45.30324002701673 188.66666666668607,45.31539975007763 187.69369369378546,45.412677501968574 184.8195091644302,45.254601125678164 183.23143833497306,44.65877340831503 179.7197887543589,44.39125821548805 179.51848400128074,44.549335427887854 179.3619136378402,45.692350715762586 178.9928549239994,45.86258635041304 174.96675986336777,44.06294351594988 171.16433675057488,41.910641907918034 170.70580925763352,41.9349618586275 169.92295744025614,41.58232221844082 164.66666666668607,40.8284004318848 170.0124262193567,41.59448221873026 171.68996582797263,42.2632808387134 171.1084187636734,41.898481931202696 170.84001242625527,41.9349618586275 169.97887542721583,41.533682208289974 165.47188567882404,40.92568085808307" stroke="yellow" stroke-linecap="round" stroke-linejoin="round" stroke-width="0.5"><title>2025-03-30 10.7km</title><desc>1743316730000</desc></polyline><polyline fill="none" points="12.92140416271286,67.76258817643975 11.478720099315979,67.4464268618758 13.849642746150494,67.96930870480719 16.66790928854607,68.26114900498942 17.775085430243053,68.5894687189284 23.13202858029399,71.3619199671084 24.865486175753176,72.03070598121849 25.57005281135207,72.51709408851457 25.827275551331695,72.46845534301247 25.99502951221075,72.2009419836395 26.073314693931025,71.26464177315938 26.26343584957067,71.03360583016183 29.752718235424254,71.28896132706723 31.78813296050066,71.9820670907502 35.29978254111484,72.04286570154363 31.564461012661923,71.99422681474243 29.920472196303308,71.34976019604073 26.431189810449723,71.11872437351849 26.19633426523069,71.38623950655165 26.06213109655073,72.41981658301665 25.61478720093146,72.5292537726491 22.23734078905545,71.08224500321376 17.752718235366046,68.67458853693097 17.33892513200408,68.68674850733078 16.08636222424684,68.26114900498942 11.411618515034206,67.53154727604124 16.433053743327036,68.26114900498942 17.819819819706026,68.62594864635321 20.6828207517392,70.02433971807477 22.326809568156023,71.0700852113223 25.65952159051085,72.55357313813874 26.006213109591044,72.32253901952936 26.10686548613012,71.24032221561356 26.26343584957067,71.10656458433368 29.730351040663663,71.3011211026751 31.240136688342318,71.90910872792301 32.21310966135934,72.05502542099566 35.33333333331393,72.01854625994747 31.620378999621607,72.00638653780334 29.752718235424254,71.34976019604073 26.364088226051535,71.15520373567415 26.12923268089071,71.42271880891349 26.08449829131132,72.39549719754723 25.939111525309272,72.55357313813874 25.693072382651735,72.51709408851457 21.432121776917484,70.68097139186284 17.864554209343623,68.66242856565805 17.640882261504885,68.73538837977685 16.42187014594674,68.29762900582864 14.073314693931025,68.09090889332583 11.33333333331393,67.5437073315843 14.028580304351635,67.95714868100185" stroke="#4DD2FF" stroke-linecap="round" stroke-linejoin="round" stroke-width="0.5"><title>2025-03-28 10.0km</title><desc>1743136214000</desc></polyline><polyline fill="none" points="43.620111731870566,67.80111684337317 42.0,67.4852499532717 44.659217877080664,67.76467069498904 47.664804469270166,68.32351074190228 48.16759776533581,68.66367331097717 49.24022346368292,68.96738929083222 50.312849162030034,69.68415676044242 51.37430167599814,70.02431649107893 52.737430167617276,70.9476036115957 56.30167597770924,72.49045331770321 56.62569832406007,72.4054147375864 56.737430167617276,71.33635451947339 56.994413407868706,71.12983071507188 60.31284916208824,71.3120576148649 62.00000000005821,71.9437759577122 62.89385474863229,72.05311157630058 66.0,72.10170516105427 62.27932960895123,72.04096317788935 60.43575418996625,71.34850297041703 56.9273743017111,71.09338531065441 56.74860335193807,71.3120576148649 56.69273743015947,72.25963421147026 56.44692737428704,72.51475004671374 52.89385474863229,71.08123684073507 48.44692737428704,68.62722735536227 46.58100558660226,68.15342919123941 42.17877094971482,67.59458856137644 43.9776536313002,67.78896812815219" stroke="#4DD2FF" stroke-linecap="round" stroke-linejoin="round" stroke-width="0.5"><title>2025-03-25 5.1km</title><desc>1742904051000</desc></polyline><polyline fill="none" points="74.28753299184609,67.8669412261952 72.7113802205422,67.52661849666038 76.89209750044392,68.0249479664053 78.26703927968629,68.26803496023058 79.4743052321719,68.7177449438459 82.21301040216349,70.15194688063639 82.61543238634476,70.51657248145784 86.97500388143817,72.50984469504328 87.37742586561944,72.31538018524589 87.45567458472215,71.27012947399635 87.6233504114789,71.09997174766613 91.33457537658978,71.3309000475274 92.9554417016916,71.99937486251292 96.64430988981621,72.03583704639459 95.63825492939213,72.1452235490724 93.02251203235937,71.97506673542375 91.1557211613399,71.34305415952986 87.72395590750966,71.12428000515501 87.43331780785229,71.36736238081357 87.34389070025645,72.3761503694841 86.91911193920532,72.47338261711411 83.09610308962874,70.80827237533231 79.15013196715154,68.5962018272694 78.82595870213117,68.63266477176512 77.97640118002892,68.23157193424413 72.66666666668607,67.49015530495672 78.33410961035406,68.29234363968135 80.32386275427416,69.11883658602892 82.7048594939406,70.54088082587987 87.01971743523609,72.50984469504328 87.33271231182152,72.4004584368231 87.44449619628722,71.27012947399635 87.66806396533502,71.08781761756109 91.0774724422372,71.29443770612124 93.00015525543131,71.99937486251292 96.66666666668607,72.07229922211263 95.2917248874437,72.18168570034322 92.93308492470533,71.97506673542375 91.0774724422372,71.30659182084491 87.63452879991382,71.08781761756109 87.44449619628722,71.36736238081357 87.3997826424893,72.26676402160956 87.25446359271882,72.47338261711411 87.01971743523609,72.46122858933813 82.99549759359797,70.77180991711793 79.18366713251453,68.584047510667 78.9489209750318,68.66912770808267 77.87579568399815,68.21941759045876 73.59447290800745,67.62385363467911" stroke="#4DD2FF" stroke-linecap="round" stroke-linejoin="round" stroke-width="0.5"><title>2025-03-23 9.7km</title><desc>1742722238000</desc></polyline><polyline fill="none" points="104.93035520397825,67.75964105737512 108.76097409654176,68.18464753188891 109.4980611136998,68.60965289811429 109.74375678610522,68.56108091233182 110.63719559484161,68.93751342337055 114.50131844263524,71.0503765437461 116.07600434310734,71.6575160525972 117.67302621371346,72.54393567440275 117.9410578563693,72.37393776436511 118.03040173719637,71.22037583417841 118.23142546921736,71.08680497804016 121.70466883823974,71.22037583417841 123.67023421742488,71.91251397195447 127.33333333331393,71.96108495896624 123.73724212811794,71.97322770347819 121.83868465956766,71.24466143264726 118.30960136500653,71.0503765437461 118.10857763298554,71.22037583417841 117.97456181165762,72.32536690034613 117.65069024352124,72.44679403322516 113.70839149988024,70.71037743096531 110.60369163955329,68.99822826306627 108.77214208157966,68.25750567339128 103.37800527375657,67.45606432559725 108.76097409654176,68.22107660671463 109.92244454781758,68.57322391014895 112.79261672095163,70.04251996599487 113.87591127655469,70.78323444341368 117.67302621371346,72.44679403322516 117.98572979681194,72.26465329997882 118.06390569260111,71.17180462642864 118.23142546921736,71.0018052853411 121.76050876372028,71.22037583417841 123.61439429194434,71.88822847300617 127.32216534821782,71.94894221359573 126.29471071821172,72.08251236322394 123.44687451526988,71.93679946726479 121.76050876372028,71.26894702746358 118.32076935004443,71.02609091637714 118.07507367769722,71.37823215941899 118.01923375215847,72.25251057722198 117.85171397548402,72.49536486105353 117.6060183031368,72.48322215546796 113.6525515743997,70.69823459236068 110.55901969905244,68.98608529692865 108.74980611138744,68.3060777496139 103.33333333331393,67.51677971718891 106.88475259812549,67.94178682503116" stroke="#4DD2FF" stroke-linecap="round" stroke-linejoin="round" stroke-width="0.5"><title>2025-03-21 9.8km</title><desc>1742551156000</desc></polyline><polyline fill="none" points="135.50210182153387,67.65376142659807 135.22185894439463,67.86096481389541 134.0,67.59281920389913 134.7734703409369,67.58063075665268 139.40308267163346,68.22661721007898 140.53526389528997,68.51913853855513 144.79495562816737,70.8592903365934 148.30359645019053,72.39499676282867 148.69593647826696,72.2974920214765 148.81924334418727,71.22493603127077 149.02101821574615,71.06648966392095 152.65296590374783,71.3102532424673 153.98692199896323,71.8952843491279 155.06305464735487,72.05372991383774 158.0,72.09029425312474 154.31200373650063,71.968413090377 152.60812704340788,71.29806507215835 149.11069593642605,71.05430147545121 148.85287248942768,71.27368872881925 148.9201307799667,71.71246235299623 148.72956562350737,72.46812528072041 148.34843531058868,72.541253765914 147.63101354497485,72.11467047479528 144.69406819238793,70.9933605195256 140.75945819704793,68.81165934396267 139.24614666041452,68.28755919665855 137.93460999534,68.23880560920225 134.02241943014087,67.458746234086 139.52638953755377,68.26318240475666 141.49929939274443,69.00667292368598 144.33535730961012,70.6277143072657 148.43811303126859,72.48031336384884 148.7407753386069,72.24873962896527 148.81924334418727,71.20055967706139 149.04343764588702,71.04211328610836 152.5857076132088,71.3102532424673 154.3344231666997,71.95622496909346 157.93274170946097,71.99278933016467 157.01354507240467,72.11467047479528 154.17748715548078,71.93184872381971 152.6417561886483,71.29806507215835 149.07706679118564,71.06648966392095 148.86408220452722,71.24931238188583 148.84166277438635,72.02935368310136 148.63988790282747,72.41937293908268 148.46053246140946,72.45593719667522 144.5035030359286,70.81053751555737 140.49042503500823,68.543515292331 140.07566557679093,68.55570366785105 139.2125175151159,68.19005200723768 137.71041569358204,68.1169215770351 134.06725829048082,67.5196885067271 136.7800093414262,67.87315324025985" stroke="#4DD2FF" stroke-linecap="round" stroke-linejoin="round" stroke-width="0.5"><title>2025-03-19 10.0km</title><desc>1742357906000</desc></polyline><polyline fill="none" points="165.68342644325458,67.5702916423179 169.35940409684554,68.08053747279337 171.25884543760912,68.56648439831042 174.9013035381795,70.5952971677616 178.9795158287161,72.47830439789686 179.37057728122454,72.3568207165954 179.47113594040275,71.4213933393039 179.71694599627517,71.05693966185208 183.44878957170295,71.32420577162702 184.74487895722268,71.89518190232047 185.69459962757537,72.02881432505092 188.66666666668607,72.05311111742049 185.0689013035153,71.91947871458251 183.23649906890932,71.23916660240502 179.73929236503318,71.00834577665955 179.50465549353976,71.3120573216147 179.48230912478175,72.23533694479556 179.0018621974159,72.51474948464602 174.46554934821324,70.44951505599602 171.918063314748,68.9795381463191 170.21973929239903,68.29921376850689 164.66666666668607,67.48525051535398 167.19180633150972,67.76467119457084 169.9180633146898,68.20202433994564 170.75605214154348,68.57863305287901 171.14711359405192,68.55433574282506 175.44878957176115,70.8868610002828 179.08007448795252,72.49045276103425 179.35940409684554,72.33252396948228 179.51582867786055,71.62791672830645 179.35940409684554,72.39326583049842 178.9013035381795,72.45400766888633 175.10242085665232,70.78967311402084 171.14711359405192,68.6272276621894 170.74487895722268,68.61507901118603 169.71694599627517,68.18987565729185" stroke="#4DD2FF" stroke-linecap="round" stroke-linejoin="round" stroke-width="0.5"><title>2025-03-17 7.0km</title><desc>1742185263000</desc></polyline><polyline fill="none" points="12.646096306620166,94.23893553661765 12.589995324902702,94.38533360052679 12.46657316503115,94.22673569206381 12.567554932204075,94.40973326511448 11.557737260358408,94.23893553661765 15.372604020521976,94.69032914660056 17.818606825603638,95.25151946702681 22.003740065381862,97.53286031605967 25.784946236468386,99.21639628330013 26.065451145346742,99.00900510611245 26.155212716199458,97.95984571403824 26.379616643243935,97.74025336273189 29.779336138337385,97.94764614669839 31.69798971473938,98.65521955059376 35.29967274423689,98.71621711470652 31.653108929342125,98.63082051862148 30.059841047157533,97.98424484599673 26.503038803115487,97.74025336273189 26.177653108898085,97.93544657841267 26.054230949026532,99.05780305377266 25.706404862052295,99.13099994802906 21.352968676947057,97.215670442587 17.852267414622474,95.2393196979101 15.148200093477499,94.62933008284017 11.33333333331393,94.14133675464836 15.170640486176126,94.58053081548132 17.829827021923847,95.17832083866233 21.95885927998461,97.45966270750796 25.706404862052295,99.11880046792794 26.07667134166695,98.9114091671072 26.166432912519667,97.92324700923928 26.3459560542251,97.74025336273189 29.913978494529147,97.93544657841267 31.731650303816423,98.61862100123835 35.33333333331393,98.71621711470652 31.54090696584899,98.58202244369022 29.902758298208937,97.93544657841267 26.368396446865518,97.71585419437906 26.166432912519667,98.02084353714599 26.020570359949488,99.04560356821457 25.784946236468386,99.1066009868955 21.768115942017175,97.42306389093574 17.87470780737931,95.25151946702681 16.517064048559405,94.84892660604964 11.33333333331393,94.11693705002835 14.834034595580306,94.60493045096518" stroke="yellow" stroke-linecap="round" stroke-linejoin="round" stroke-width="0.5"><title>2025-03-15 10.0km</title><desc>1742012101000</desc></polyline><polyline fill="none" points="43.51483749412,94.50334938168817 42.0,94.14688779989956 45.391427225549705,94.52793291064154 48.39849269896513,95.1425199444202 52.7282147903461,97.51480442025058 56.45878473855555,99.14957127976231 56.741403674008325,98.79311973635049 56.79792746109888,97.80980114151316 57.03532736690249,97.67459437639627 60.6867640131386,97.95729930432572 62.42769665567903,98.64562232070602 66.0,98.67020523246902 62.54074422980193,98.67020523246902 60.630240226048045,97.9818823186215 57.09185115399305,97.7606350579008 56.831841733364854,98.01875683324761 56.66227037209319,99.07582274777815 56.3909561940236,99.18644553342892 52.47951012710109,97.5025128787529 50.87423457368277,96.47002012384473 48.4324069712311,95.25314536737278 48.17239755060291,95.30231219819689 47.1775788977975,94.8598101932439 45.70796043332666,94.78605974371021 42.350447479926515,94.20834674822981 44.136599152116105,94.41730700142216 46.47668393776985,94.78605974371021 47.41497880354291,94.87210193164356 48.71502590668388,95.31460390360735 52.43429109751014,97.36730586184422 55.5091851153411,98.67020523246902 56.15355628821999,99.10040559543995 56.61705134238582,99.07582274777815 56.854451248189434,98.26458672003355 56.696184644359164,99.05123989644926 56.3909561940236,99.12498843946378 52.536033914249856,97.47792979303631 48.4437117286725,95.20397852188034 47.912388129974715,95.17939509365533" stroke="#4DD2FF" stroke-linecap="round" stroke-linejoin="round" stroke-width="0.5"><title>2025-03-12 7.1km</title><desc>1741778255000</desc></polyline><polyline fill="none" points="74.50763953855494,94.39036892417062 77.77424384164624,94.79315116901125 78.78453383228043,95.2325488521019 80.03055815404514,95.46445270969707 83.71250389772467,97.64921504312952 87.12503897730494,99.13825423977687 87.39444964146242,98.94297118176473 87.46180230751634,97.94214185600867 87.68631119432393,97.7102415056579 91.27845338330371,97.89332075690618 92.6816339258803,98.44255728309508 93.75927658251021,98.61343049351126 96.66666666668607,98.65004615829093 93.02962270041462,98.66225137803121 91.27845338330371,97.9665524000884 87.79856563772773,97.73465208431298 87.54038041789318,97.90552603302058 87.37199875281658,99.01620235577866 86.9903336451971,99.11384387029102 82.67976301844465,97.2342344949866 79.14374805119587,95.22034337681544 78.85188649833435,95.31798715362675 77.79669473029207,94.85417869547382 72.66666666668607,94.15846354608948 77.358902401058,94.74432913148485 78.94169005303411,95.2325488521019 79.14374805119587,95.15931598676252 83.29716245713644,97.40510896564228 87.09136264427798,99.1260490554996 87.39444964146242,98.8575347706792 87.47302775183925,97.8567049230187 87.7199875273509,97.7102415056579 91.18864982854575,97.8567049230187 93.14187714381842,98.54019913944649 96.66666666668607,98.65004615829093 93.05207358906046,98.6256357160164 91.19987527286867,97.86891020186886 87.70876208296977,97.6370097478648 87.50670408486621,97.9665524000884 87.4954786405433,98.8575347706792 87.14748986595077,99.17486978725356 85.42999688186683,98.2838891424326 82.96039912698325,97.35628770646872 79.22232616157271,95.28137074413826 78.94169005303411,95.3301926216227 77.96507639542688,94.87858969968511 74.91175553476205,94.63447949380497 72.66666666668607,94.20728575823887 74.35048331780126,94.34154676659091 75.14748986595077,94.48801319568884 78.15590894920751,94.89079520045198 79.74992204556474,95.61091813481471 79.28967882762663,95.30578168469947 78.00997817271855,94.93961719435174 75.80979108199244,94.6833015641023 74.40661053947406,94.75653464221978 72.73401933268178,94.20728575823887" stroke="yellow" stroke-linecap="round" stroke-linejoin="round" stroke-width="0.5"><title>2025-03-07 10.7km</title><desc>1741342581000</desc></polyline><polyline fill="none" points="105.1881342700799,94.3749490406044 108.79656518338015,94.83941025839886 109.38110850891098,95.18164399846864 109.86448087426834,95.19386661882163 112.967056986643,96.72168699381291 114.41717408271506,97.68726213321497 117.76705698663136,99.16617000012775 118.01436377828941,98.93394568016811 118.2953942232416,97.72392943158047 119.80171740823425,97.90726580045884 122.09492583910469,97.8583761221089 123.29773614363512,98.37171701800253 124.44434035907034,98.56727503206639 127.33333333331393,98.55505266301043 126.71506635437254,98.67727631253365 123.70241998432903,98.57949740019103 121.94879000779474,97.94393304965342 118.38532396557275,97.7728191499773 118.17174082744168,97.9317106341623 117.94691647146828,99.05616904744238 117.58719750191085,99.1417253503314 113.88883684616303,97.46725817097467 109.86448087426834,95.29164754900557 108.41436377819628,94.87607819326513 105.54785323963733,94.71718374962802 103.33333333331393,94.16716333321529 104.65979703346966,94.24049949529581" stroke="#4DD2FF" stroke-linecap="round" stroke-linejoin="round" stroke-width="0.5"><title>2025-03-05 4.7km</title><desc>1741177738000</desc></polyline><polyline fill="none" points="135.0951008645934,94.32287572490168 138.8645533141098,94.77409305736364 139.9250720461714,95.07490393999615 144.1902017291286,97.40617004295927 147.2910662824288,98.69712608412374 147.994236311235,99.16086515637289 148.3400576369022,99.0731308353279 148.5129682997358,97.84484553700895 148.7665706052212,97.70697621926956 152.2247838616604,97.8824462404009 154.1268011527136,98.60939152126957 158.0,98.65952556280536 156.5360230547376,98.7973940999509 154.1037463976536,98.67205907082825 152.420749279554,97.98271474175272 148.778097982693,97.7195097982767 148.6051873198594,97.8824462404009 148.4207492794958,99.11073126424162 148.1671469740686,99.2109990335739 143.5677233429742,97.25576675312186 139.8789625360514,95.1501065765915 139.636887608096,95.23784294349025 138.5302593659726,94.82422824183595 134.0,94.12233429974003" stroke="#4DD2FF" stroke-linecap="round" stroke-linejoin="round" stroke-width="0.5"><title>2025-03-03 4.6km</title><desc>1740978130000</desc></polyline><polyline fill="none" points="166.70683481241576,94.41793422031333 166.52747937105596,94.52763014758239 164.66666666668607,94.1497883106349 167.59240230423165,94.45449953757634 171.1234625564539,95.21018093114253 174.27339249575743,96.77028631413123 175.31589599879226,97.47720416774973 178.92542425659485,99.12260458432138 179.30655456957174,99.0982284026104 179.4971197260311,97.9281674095837 179.66526545229135,97.72096823662287 183.10664798383368,97.95254376562661 184.81052467698464,98.63508026012278 188.6106180913048,98.68383275791712 187.27666199597297,98.78133770990826 184.76568581658648,98.61070400576864 183.0842285536928,97.97692011803156 179.7101043126313,97.75753281562356 179.54195858637104,97.87941468659847 179.37381286005257,98.96415933831304 179.03752140741562,99.17135693684395 175.24863770825323,97.53814521903405 171.10104312631302,95.24674607133784 170.89926825475413,95.3076879534492 170.15942705899943,94.96641312107386 164.66666666668607,94.16197677059972 170.31636307021836,94.92984791823255 178.90300482639577,99.18354502269358 179.31776428461308,99.11041649390245 179.42986143549206,98.02567281195661 179.63163630705094,97.75753281562356 183.38689086097293,98.00129646678397 184.84415382222505,98.64726838593197 188.66666666668607,98.74477335973643 184.86657325242413,98.63508026012278 183.16269655921496,97.9891082928807 179.69889459758997,97.72096823662287 179.4971197260311,97.9281674095837 179.31776428461308,99.04947602831817 178.9702631169348,99.14698076239438 174.83387825009413,97.31875732823391 171.34765685821185,95.3076879534492 170.82080024911556,95.28331120332587 169.8231356064207,94.85671748802997 166.594737661595,94.47887641120178 167.88385489652865,94.58857229760906 170.1482173439581,94.91765951545676 171.6615288805915,95.58802031887171 171.717577456031,95.46613674076798 171.04499455087353,95.23455769216525" stroke="yellow" stroke-linecap="round" stroke-linejoin="round" stroke-width="0.5"><title>2025-02-28 10.0km</title><desc>1740736874000</desc></polyline><polyline fill="none" points="13.010872941929847,121.43032340129139 13.245728487090673,121.1628029467538 12.966138552350458,121.41816339014622 13.21217769489158,121.2600831627642 13.066790928889532,121.19928303454071 11.433985709853005,120.87096195071354 12.183286735031288,120.84664184418216 16.71264367812546,121.46680342931359 17.439577508543152,121.81944327968813 17.875737806782126,121.77080334560014 22.248524386493955,124.14198325997859 25.748990369669627,125.75922980096948 26.05094749922864,125.64979257059167 26.16278347314801,124.4824575476232 26.38645542092854,124.33654008271697 29.886921404162422,124.5554162311164 31.60919540229952,125.21204291528556 35.277415346412454,125.28500127269945 31.58682820753893,125.27284154870722 29.79745262506185,124.5554162311164 27.739670705166645,124.56757600854326 26.31935383658856,124.36085966927931 26.140416278329212,124.4702977638226 26.05094749922864,125.6741119614453 25.771357564430218,125.9294653468387 21.286735010857228,123.89878690541082 18.088226157182362,122.02616283773386 16.276483379944693,121.52760345785646 14.844982913928106,121.47896343682078 11.344516930694226,120.83448178954131 16.768561665085144,121.5397634608671 17.361292326822877,121.89240315360075 17.875737806782126,121.89240315360075 22.259707983816043,124.21494209567027 25.816091954067815,125.80786854647158 26.062131096608937,125.60115377795591 26.218701460049488,124.36085966927931 29.786269027623348,124.53109667357057 31.240136688400526,125.10260531802487 32.313762037898414,125.27284154870722 35.33333333331393,125.27284154870722 31.665113389200997,125.28500127269945 29.79745262506185,124.65269442506542 27.75085430254694,124.64053465399775 26.241068654868286,124.38517925217457 26.073314693989232,125.54035526682856 25.737806772289332,125.85650727752363 21.722895309096202,124.10550382988004 17.786269027681556,121.90456312941387 12.507611059292685,121.05336263439676 11.33333333331393,120.73720131983282 13.089158123650122,121.00472247201833 13.849642746150494,121.1628029467538 15.907424666103907,121.34520330422674 18.323081702401396,122.22072218256653 17.842187014583033,121.89240315360075 17.607331469364,121.95320302361506 16.533706119924318,121.52760345785646 13.983845914888661,121.34520330422674 12.25038831931306,120.90744210376579" stroke="yellow" stroke-linecap="round" stroke-linejoin="round" stroke-width="0.5"><title>2025-02-26 11.1km</title><desc>1740566027000</desc></polyline><polyline fill="none" points="44.04850746266311,121.11209221190074 42.0447761194082,120.86866455170093 42.940298507513944,120.85649315918272 47.47388059698278,121.47723302200029 48.111940298520494,121.83020169597876 48.49253731343197,121.81803037508507 51.64925373136066,123.37595207837876 52.32089552242542,123.96016888685699 55.62313432834344,125.29899119348556 56.37313432840165,125.81017499820155 56.74253731343197,125.5910964205832 56.84328358207131,124.4713568805455 57.0223880597041,124.32530333127943 58.42164179100655,124.54438360621862 60.436567164200824,124.55655472401122 61.958955223846715,125.15293838409707 63.05597014923114,125.31116225502046 65.9328358208877,125.27464906766545 63.02238805964589,125.27464906766545 62.03731343278196,125.14076731073146 60.58208955224836,124.5930680718593 57.111940298520494,124.36181673084502 56.86567164177541,124.5200413679704 56.664179104496725,125.7371488383069 56.339552238816395,125.82234602166864 54.7947761194082,124.98254327476025 52.46641791041475,124.06970930588432 48.53731343278196,121.87888697045855 48.16791044775164,121.91540091681236 47.238805970177054,121.47723302200029 45.99626865674509,121.48940436828707 42.0,120.80780758000037 47.26119402988115,121.48940436828707 48.111940298520494,121.89105828684114 48.53731343278196,121.83020169597876 51.85074626863934,123.69240310895839 55.62313432834344,125.33550437542726 56.45149253727868,125.8588590866566 56.77611940295901,125.50589911661518 56.83208955224836,124.50787024747115 56.9776119402959,124.32530333127943 58.66791044775164,124.54438360621862 60.358208955207374,124.50787024747115 61.936567164200824,125.10425408526498 63.111940298520494,125.26247800335113 66.0,125.27464906766545 62.55223880597623,125.27464906766545 60.61567164177541,124.58089695683157 59.485074626863934,124.61741029923724 57.033582089527044,124.31313219630101 56.83208955224836,124.54438360621862 56.75373134331312,125.5789253799012 56.64179104473442,125.79800397378858 56.39552238804754,125.83451704423351 51.940298507455736,123.76543018282973 48.59328358207131,121.90322960227786 48.20149253733689,121.91540091681236 47.32835820893524,121.55026108610036 45.90671641792869,121.47723302200029 42.12313432840165,120.86866455170093 44.787313432840165,121.19729180727154 45.358208955207374,121.2338059059548 47.25000000005821,121.53808974435378 49.25373134331312,122.2196834856295 51.75,123.50983528151119 48.61567164177541,121.91540091681236 45.358208955207374,121.28249135817168" stroke="yellow" stroke-linecap="round" stroke-linejoin="round" stroke-width="0.5"><title>2025-02-21 11.3km</title><desc>1740135343000</desc></polyline><polyline fill="none" points="74.63314711366547,121.20126890284882 72.73370577284368,120.82465859048534 75.45996275608195,121.12837665222469 78.02979515836341,121.55358098822762 78.74487895716447,121.91804096511623 79.44878957170295,121.95448691800993 82.58845437620766,123.75247714656871 86.21973929234082,125.33177653327584 87.03538175049471,125.82986009042361 87.40409683424514,125.56259593181312 87.52700186218135,124.4813864564203 87.68342644325458,124.35990179771034 89.23649906890932,124.5664256636519 91.24767225328833,124.57857411817531 92.53258845437085,125.12525363660825 93.62756052141776,125.30747973547841 96.61080074484926,125.29533133524819 95.71694599627517,125.41681529708148 93.0465549348155,125.27103453199379 91.18063314713072,124.63931637740461 87.73929236503318,124.3963472048199 87.50465549348155,124.59072257184016 87.33705772814574,125.68407969456166 86.9906890130369,125.81771172907611 82.75605214154348,123.92255627694249 79.21415270020952,121.94233826796699 78.70018621982308,121.91804096511623 77.86219739296939,121.55358098822762 76.45437616389245,121.46854020973842 72.66666666668607,120.81250985627412 77.91806331468979,121.51713494572323 79.12476722535212,121.85729769221507 82.06331471138401,123.3151299967285 83.0465549348155,123.98329878052755 87.15828677837271,125.76911827466392 87.38175046554534,125.57474431217997 87.45996275602374,124.55427720818261 87.61638733709697,124.35990179771034 91.13594040967291,124.5664256636519 92.54376163874986,125.12525363660825 93.67225325881736,125.30747973547841 96.66666666668607,125.33177653327584 95.42644320294494,125.42896368827496 93.05772811919451,125.2831829340721 91.24767225328833,124.63931637740461 87.70577281195438,124.3841987366759 87.47113594040275,124.61501947644865 87.41527001862414,125.55044755057315 87.19180633145152,125.8541568103974 83.45996275602374,124.23841704847291 79.22532588453032,121.91804096511623 78.84543761640089,121.94233826796699 77.929236499127,121.56572966722888 74.9906890130369,121.18912019667914 75.9515828678268,121.29845851968275 77.86219739296939,121.51713494572323 79.75046554941218,122.23390561947599 79.25884543760912,121.91804096511623 78.65549348230707,121.90589231235208 77.57169459963916,121.50498626306944 76.59962756052846,121.49283757954254 73.21415270020952,120.86110478777846" stroke="yellow" stroke-linecap="round" stroke-linejoin="round" stroke-width="0.5"><title>2025-02-19 10.6km</title><desc>1739962218000</desc></polyline><polyline fill="none" points="105.07490636711009,120.99992838480102 103.33333333331393,120.82889075911953 106.28838951315265,121.14653192197147 108.64794007490855,121.5619078988093 109.29962546820752,121.89176454258268 109.77153558051214,121.8673307398567 113.89513108611573,124.13965881658078 117.85018726595445,125.83777590755199 118.04119850188727,125.59344359616807 118.16479400749085,124.53059380568448 118.35580524348188,124.39621000832994 121.91760299628368,124.6161107103253 123.52434456930496,125.27581104717683 127.33333333331393,125.34911092075345 123.72659176029265,125.30024434199731 121.87265917606419,124.6283274073503 118.58052434457932,124.39621000832994 118.3895131086465,124.60389401239809 118.1872659176006,124.55502721159428 118.04119850188727,125.6667433278053 117.69288389518624,125.80112608404306 113.14232209743932,123.78537317769951 109.79400749062188,121.91619834165613 108.52434456930496,121.5374740469415 104.19850187265547,120.92662656705943" stroke="#4DD2FF" stroke-linecap="round" stroke-linejoin="round" stroke-width="0.5"><title>2025-02-18 4.9km</title><desc>1739836925000</desc></polyline><polyline fill="none" points="136.5952045134036,121.01459202628757 136.56135401973734,121.30903966337792 137.802538787073,121.27223373753077 139.44992947817082,121.55441229209828 141.60507757402956,122.70765874942299 142.76727785612457,123.08798293778091 143.85049365303712,123.87316558028397 147.4950634696288,125.36990962240088 148.33004231308587,125.87291071377695 148.6346967560239,125.63981283806788 148.71368124120636,124.54792892257683 148.89421720732935,124.3884396548383 152.44851904088864,124.67061286959506 154.09590973198647,125.32083626293752 158.0,125.39444629666104 154.22002820874332,125.24722619634122 152.47108603664674,124.59700251235336 148.98448519041995,124.37617124321696 148.78138222848065,124.59700251235336 148.7249647390563,125.56620291400759 148.54442877293332,125.8238375041692 144.40338504937245,124.09399752393074 141.0634696756024,122.20464798987086 139.359661495022,121.5176064210973 134.0,120.79375595290912 139.39351198868826,121.52987504568591 140.9506346967537,122.2291851357586 139.39351198868826,121.52987504568591" stroke="#4DD2FF" stroke-linecap="round" stroke-linejoin="round" stroke-width="0.5"><title>2025-02-14 5.4km</title><desc>1739506837000</desc></polyline><polyline fill="none" points="167.28973999689333,121.18210950338107 169.30748871248215,121.42587785831711 171.1234625565121,121.87684835733671 175.60734859103104,124.27794062459725 179.04873112251516,125.85021037678234 179.32897399971262,125.8014580533345 179.766152888129,124.70452693467087 180.0912346256082,124.4485752821056 183.27479371015215,124.63139793195296 185.06834812398301,125.35049837258703 188.66666666668607,125.38706271733099 184.98988011834444,125.35049837258703 183.24116456485353,124.65577426982054 180.14728320104768,124.49732800868514 179.84462089370936,124.64358610133058 179.22808656399138,125.85021037678234 175.37194457423175,124.29012882029929 171.1570917016943,121.92560185032198 170.13700762885856,121.59651549064438 164.66666666668607,120.81645628987462 169.98007161763962,121.52338509856781 171.213140277192,121.92560185032198 175.39436400443083,124.20481143114739 179.01510197733296,125.82583421688469 179.3513934299117,125.74051762856834 179.81099174846895,124.66796243737917 180.16970263124676,124.49732800868514 183.2860034252517,124.66796243737917 184.98988011834444,125.31393401965033 188.66666666668607,125.3748746033234 187.13093569985358,125.46019138229894 184.9786704033031,125.28955777986266 183.21874513471266,124.65577426982054 180.13607348588994,124.4363870981615 179.84462089370936,124.63139793195296 179.34018371481216,125.77708188616089 179.16082827345235,125.8136461355316 175.17016970267287,124.13168220504303 171.54943172977073,122.10842731966113 170.40604079095647,121.63308067440812 164.68908609688515,120.84083319621277 167.53635372879216,121.08460205970914 170.13700762885856,121.52338509856781 171.69515802589012,122.32781761317165 171.11225284141256,121.9134134784399 170.96652654523496,121.98654369614087 169.9688619025983,121.54776189956465" stroke="yellow" stroke-linecap="round" stroke-linejoin="round" stroke-width="0.5"><title>2025-02-12 10.1km</title><desc>1739334019000</desc></polyline><polyline fill="none" points="30.629470672400203,151.67372988436546 31.636623748228885,152.02215809446352 35.33333333331393,152.04704579596 31.762517882685643,152.07193349371664 30.04577968531521,151.3004131384514 26.680972818343434,151.07642269042844 25.948497854056768,152.48257997166365 25.731044349086005,152.51991141960025 21.244635193084832,150.55377714365022 20.042918454913888,149.78224977612263 16.86123032908654,148.28896087626345 11.33333333331393,147.41786951906397 16.65522174537182,148.15207539241237 18.429184549313504,148.83650168970053 20.68383404862834,149.93157793185674 21.81688125897199,150.72799250761454 25.650929899828043,152.45769233508327 25.959942775429226,152.34569792452385 26.429184549371712,151.22574968916888 26.71530758222798,151.0639787678665 28.775393419142347,151.2879692325805 29.80543633759953,151.22574968916888 31.648068669543136,151.98482653527753 35.18454935622867,152.03460194566287 30.343347639485728,151.68617376152542 30.40057224605698,152.03460194566287 30.297567954228725,151.62395436645602 29.885550786857493,151.4372960421606 26.71530758222798,151.1137544526282 26.486409155942965,151.23819359968184 25.856938483542763,152.58213048095058 21.542203147313558,150.72799250761454 20.752503576513845,150.09334994987876 19.29899856937118,149.39648475596914" stroke="#4DD2FF" stroke-linecap="round" stroke-linejoin="round" stroke-width="0.5"><title>2025-02-10 6.3km</title><desc>1739162078000</desc></polyline><polyline fill="none" points="42.171522814722266,149.03213014967332 43.622869708633516,149.07514680481108 50.16712479386479,150.03584960533772 52.17262231995119,149.94981671357527 52.344145134673454,150.60940123729233 53.096206707006786,150.65241754100134 53.980208905937616,150.98220888443757 54.58713578886818,150.1075436525134 59.99670148425503,150.0071719790285 60.28697086306056,150.50902982469415 60.6300164925633,150.59506246725505 60.85431555798277,150.46601348902914 61.078614623402245,149.86378378352674 62.10775151179405,149.79208964583813 66.0,150.2796092570934 62.345244639902376,149.77775081509026 61.03903243539389,149.84944495810487 60.78834524459671,150.46601348902914 60.56404617917724,150.58072369614092 59.99670148425503,149.99283316424408 54.65310610225424,150.0788660368271 54.27047828474315,150.33696442456858 54.00659703137353,150.99654762573482 52.41011544800131,150.62374000629643 52.41011544800131,150.06452722739778 52.23859263333725,149.92113907448947 50.29906542052049,150.02151079270698 44.163826278119814,149.11816345031548 42.0,149.01779126249312 43.87355689937249,149.08948568768392 49.876855415059254,149.99283316424408 52.14623419457348,149.92113907448947 52.3309510719846,150.59506246725505 53.99340296862647,150.98220888443757 54.389224848826416,150.23659287032206 54.73227047821274,150.0788660368271 59.94392523361603,149.99283316424408 60.31335898843827,150.52336860110518 60.57724024186609,150.58072369614092 60.85431555798277,150.4086583599128 60.959868059377186,149.93547789455624 61.289719626132865,149.80642847552372 65.72292468382511,150.23659287032206 62.529961517313495,149.77775081509026 61.23694337543566,149.77775081509026 60.88070368336048,149.96415553154657 60.65640461794101,150.58072369614092 60.39252336445497,150.52336860110518 59.98350742162438,149.96415553154657 54.600329851557035,150.06452722739778 54.283672347373795,150.3082868429483 54.01979109394597,150.98220888443757 52.39692138537066,150.60940123729233 52.23859263333725,149.86378378352674 50.08796041778987,149.94981671357527 43.464540956541896,149.00345237426518 42.30346344143618,149.04646903577668 43.490929081861395,149.03213014967332 50.681693238031585,150.05018841692072 52.21220450790133,149.92113907448947 52.35733919736231,150.60940123729233 53.38647608575411,150.73845011967933 52.41011544800131,150.59506246725505 52.14623419457348,149.87812260785722 50.153930731117725,149.96415553154657 44.07146783947246,149.07514680481108 42.448598130838946,149.04646903577668 44.19021440355573,149.11816345031548" stroke="#4DD2FF" stroke-linecap="round" stroke-linejoin="round" stroke-width="0.5"><title>2025-01-25 9.9km</title><desc>1737761473000</desc></polyline><polyline fill="none" points="72.98666666663485,148.82629531552084 80.8133333332953,149.956532981465 83.0800000000163,149.85510166347376 83.06666666670935,150.7824717508338 83.94666666671401,150.8259421155235 84.70666666666511,151.17370468447916 85.34666666667908,150.23184629305615 90.79999999993015,150.10143477281963 91.30666666664183,150.7390013764525 91.63999999995576,150.63757046523097 91.73333333333721,150.10143477281963 91.9466666666558,149.9420427964069 96.66666666668607,150.39123803275288 92.98666666669305,149.89857223477156 91.82666666660225,150.00000353016367 91.46666666667443,150.7245112495002 91.17333333333954,150.63757046523097 91.0533333333442,150.20286596276856 90.79999999993015,150.08694459852995 85.37333333329298,150.18837579600222 85.10666666663019,150.33327741519315 84.78666666668141,151.14472449407913 83.15999999997439,150.75349150229886 83.03999999997905,150.02898389061738 81.18666666664649,150.15939545923902 73.9199999999837,149.10161022195825 72.66666666668607,149.11610046941496 74.29333333333489,149.15957120536768 80.77333333331626,150.13041511819756 82.85333333333256,150.01449371092895 83.0266666666721,150.1738856281736 83.0266666666721,150.68104086221138 84.70666666666511,151.14472449407913 85.33333333331393,150.20286596276856 90.7866666666232,150.08694459852995 91.11999999999534,150.63757046523097 91.42666666669538,150.7245112495002 92.0,149.9275526102865 95.8666666666395,150.23184629305615 92.1066666666884,149.8840820454352 91.73333333333721,150.00000353016367 91.66666666668607,150.56511978209892 91.42666666669538,150.69553099237964 90.7866666666232,150.04347406919987 85.40000000002328,150.18837579600222 85.0533333334024,150.40572818444343 84.74666666670237,151.11574429935717 83.14666666666744,150.7245112495002 82.9466666666558,149.9855133483652 81.17333333333954,150.14490528924216 74.0533333333442,149.08711997341015 72.96000000002095,149.13059071578027 74.18666666664649,149.10161022195825 75.8933333333116,149.37692473988864" stroke="#4DD2FF" stroke-linecap="round" stroke-linejoin="round" stroke-width="0.5"><title>2025-01-19 8.1km</title><desc>1737283232000</desc></polyline><polyline fill="none" points="106.50568270270014,147.8183071721578 108.51222170318943,148.09864064452995 109.3641600497649,148.53742250650248 109.99190409458242,148.54961087476113 112.9736883075675,150.10971451425576 113.34360890544485,150.4509852022311 116.98676630848786,152.01107071024308 117.80507550982293,152.52297052612994 118.02926981158089,152.38890168149373 118.51128756027902,151.25540615002683 118.82515958265867,151.07258355464728 121.77331465040334,151.21884164729272 123.6565467849141,151.88918956561247 127.33333333331393,151.98669448857254 123.57807877927553,151.88918956561247 121.87420208618278,151.19446530760615 118.86999844305683,151.04820719316194 118.52249727537856,151.18227713640954 118.01806009642314,152.38890168149373 117.86112408526242,152.4620301558316 113.81441693910165,150.7678787750192 109.85738751356257,148.57398760854267 109.54351549112471,148.59836433870078 108.60189942386933,148.18395943210635 106.02366495406022,147.94019134961127 103.33333333331393,147.42827719399065 108.7700451501878,148.22052461313433 109.91343608900206,148.561799242103 114.01619181060232,150.80444337853987 116.97555659344653,152.02325881972502 117.70418807404349,152.54734666785225 118.00685038138181,152.4498420790478 118.50007784517948,151.32853513098962 118.86999844305683,151.1335244424845 121.95267009176314,151.279782480633 123.69017593021272,151.91356580180582 127.33333333331393,152.01107071024308 123.66775650001364,151.98669448857254 121.82936322584283,151.29197064458276 118.85878872795729,151.1335244424845 118.54491670551943,151.279782480633 118.01806009642314,152.4864063066634 117.61451035336358,152.49859438071144 113.14183403388597,150.4509852022311 109.95827494934201,148.63492942713492 109.55472520622425,148.65930614818353 108.6803674295079,148.24490139597037 103.37817219359567,147.46484254395182 108.89335201616632,148.23271300501074 109.5098863458843,148.58617597406555 109.8685972286039,148.54961087476113 114.00498209556099,150.816631577909 117.87233380036196,152.57172280600935 118.58975556585938,151.23102981578268 119.78919508011313,151.23102981578268 118.73548186203698,151.21884164729272 118.01806009642314,152.51078245385725 117.68176864390261,152.4620301558316 113.10820488864556,150.4509852022311 109.9246458041016,148.6227410652209 109.5995640666224,148.6471177881176 108.70278685970698,148.23271300501074 106.19181068026228,147.94019134961127" stroke="yellow" stroke-linecap="round" stroke-linejoin="round" stroke-width="0.5"><title>2025-01-17 12.3km</title><desc>1737088953000</desc></polyline><polyline fill="none" points="136.42696629208513,147.70935502290376 136.58426966291154,147.44058157101972 137.26966292131692,147.8926093965565 140.46067415730795,148.52788963963394 142.25842696626205,149.4563717214187 142.9550561797223,150.00612837077642 148.46067415730795,152.54720182478195 148.6741573033505,152.4006025034614 149.14606741565512,151.28888671851018 149.43820224714,151.0934194278234 152.57303370779846,151.28888671851018 154.29213483142667,151.92415380418242 157.98876404488692,151.9852370481094 154.37078651681077,151.92415380418242 152.43820224714,151.28888671851018 149.52808988763718,151.14228627234115 149.19101123593282,151.26445331993455 148.66292134823743,152.4861187901406 148.5168539325823,152.5349852196814 144.41573033708846,150.775784583544 140.49438202241436,148.564540347812 139.2022471910459,148.23468367944588 134.0,147.50166648514278 139.10112359549385,148.18581596843433 140.16853932582308,148.564540347812 140.47191011236282,148.52788963963394 144.86516853928333,150.9468188069004 147.53932584263384,151.99745369415905 148.33707865164615,152.51055200674455 148.6404494381859,152.43725234609155 149.1235955056036,151.2766700196662 149.46067415730795,151.10563614031707 152.46067415730795,151.28888671851018 154.26966292131692,151.91193715264671 158.0,151.96080375328893 154.32584269659128,151.91193715264671 152.5617977527436,151.33775350476208 149.53932584269205,151.11785285193764 149.19101123593282,151.28888671851018 148.55056179774692,152.55941842896573 144.5955056179082,150.86130171752302 140.52808988757897,148.62562484318914 139.97752808989026,148.60119104776822 139.38202247186564,148.25911752948014 135.39325842697872,147.68492109092767" stroke="#4DD2FF" stroke-linecap="round" stroke-linejoin="round" stroke-width="0.5"><title>2025-01-15 9.1km</title><desc>1736916504000</desc></polyline><polyline fill="none" points="166.75897435902152,147.34791047594626 166.91561771568377,147.61555666571076 167.4638694639434,147.94403093530855 170.20512820518343,148.3941612686176 171.69324009330012,148.8807872600737 173.46107226109598,150.0365181775269 179.04428904427914,152.59126275926246 179.2904428904876,152.53043597175565 179.76037296041613,151.43554992295685 180.14079254079843,151.22873728943523 183.22890442889184,151.42338448115333 184.91841491841478,152.09248243314505 188.66666666668607,152.17764015763532 184.87365967372898,152.12897860622616 183.19533799536293,151.45988080376992 180.12960372958332,151.22873728943523 179.76037296041613,151.43554992295685 179.2344988344703,152.60342811403098 178.8876456876751,152.60342811403098 175.21771561773494,150.973262498228 171.15617715625558,148.7104683280195 170.92121212126222,148.783462177802 169.50023310026154,148.33333291769668 164.66666666668607,147.6520538393961 168.71701631706674,148.13868204252503 171.13379953388358,148.67397139090463 174.74778554780642,150.66912532088463 179.11142191145336,152.65208952405374 179.36876456876053,152.50610525043157 179.89463869470637,151.2773991091235 181.03589743591147,151.30173001352523 179.92820512823528,151.32606091430353 179.20093240094138,152.6399241729232 174.93799533799756,150.90026962732372 171.2233100233716,148.7347996148892 169.91421911423095,148.357664260795 166.38974358979613,147.87103671029035" stroke="#4DD2FF" stroke-linecap="round" stroke-linejoin="round" stroke-width="0.5"><title>2025-01-14 7.8km</title><desc>1736829619000</desc></polyline><polyline fill="none" points="14.615193798439577,174.64582200617588 14.425426356610842,174.3787990452547 14.871937984484248,174.42734870706045 18.622635658888612,175.62894822636736 20.933333333290648,176.76985269846045 21.960310077527538,177.4859482326283 25.677519379823934,179.18514537927695 25.92310077516595,179.11232300792472 26.425426356552634,177.97143494003103 26.749147286755033,177.77724043067428 29.77426356583601,177.97143494003103 31.2254263565992,178.56615418501315 32.26356589148054,178.69966228856356 35.33333333331393,178.69966228856356 31.437519379833248,178.60256549683982 29.785426356596872,177.97143494003103 26.78263565892121,177.76510326613788 26.458914728660602,177.89861202613974 25.934263565868605,179.11232300792472 25.621705426368862,179.124460072082 21.882170542608947,177.51022260234458 18.466356589167845,175.6410855500144 16.747286821657326,174.9249819064571 11.33333333331393,174.16032538804575 16.81426356587326,174.94925665778283 18.466356589167845,175.5682615944388 21.457984496082645,177.25534153981425 25.644031007715967,179.14873419764626 25.9119379845215,179.075911810025 26.358449612394907,177.9835720891715 26.682170542655513,177.77724043067428 29.874728682159912,177.9835720891715 31.5491472868016,178.61470259896305 35.22170542634558,178.7117993834836 31.471007751941215,178.5782912898576 29.79658914724132,177.94716063902888 26.671007751952857,177.76510326613788 26.403100775147323,177.9228863343742 25.878449612413533,179.14873419764626 25.45426356588723,179.11232300792472 24.88496124028461,178.7239364774723 21.72589147282997,177.46167385928857 17.751937984488904,175.21627868364158 16.55751937982859,174.8885697726655 11.377984496124554,174.14818795405154 17.774263565894216,175.20414132832957 21.748217054235283,177.38885071752884 24.91844961239258,178.69966228856356 25.65519379847683,179.17300831965986 25.9119379845215,179.1001859428361 26.403100775147323,177.91074918072263 26.715658914705273,177.76510326613788 29.718449612380937,177.9228863343742 31.270077519351617,178.54187997263216 32.20775193796726,178.63897680053196 31.2254263565992,178.54187997263216 29.68496124027297,177.9228863343742 26.737984496110585,177.7286917671736 26.425426356552634,177.87433771429642 25.92310077516595,179.05163767356134 25.52124031004496,179.06377474222973 24.48310077516362,178.49333153695625 21.748217054235283,177.43739948231087 17.74077519372804,175.21627868364158 16.200310077518225,174.8278828649636" stroke="yellow" stroke-linecap="round" stroke-linejoin="round" stroke-width="0.5"><title>2025-01-10 13.0km</title><desc>1736482744000</desc></polyline><polyline fill="none" points="44.2990654205787,173.9657012650714 45.39813084114576,174.70954430822167 47.304672897211276,175.07536751549924 49.177570093481336,175.7948174377816 51.20747663552174,177.00202291383175 56.456074766407255,179.36763206827163 56.702803738357034,179.17253157589585 56.80373831780162,178.0994747110526 56.94953271030681,177.91656658919237 60.48224299069261,178.1482501756982 62.332710280432366,178.83110515467706 65.94392523367424,178.91646182672412 62.17570093460381,178.7945237101667 60.48224299069261,178.1604440395895 57.01682242995594,177.90437270715483 56.792523364536464,178.1604440395895 56.702803738357034,179.22130672077765 56.456074766407255,179.36763206827163 52.44112149538705,177.66049487519194 48.493457943957765,175.45338397065643 47.259813084150665,175.07536751549924 42.0,174.34372028324287 47.55140186921926,175.09975570024108 48.10093457944458,175.40460770291975 48.482242990634404,175.40460770291975 52.50841121497797,177.61171926515817 56.28785046731355,179.3188569669437 56.66915887850337,179.22130672077765 56.78130841127131,178.11166857859644 56.98317757016048,177.9287604703277 60.48224299069261,178.1604440395895 62.42242990655359,178.83110515467706 66.0,178.87988040130585 62.119626168278046,178.78232989349635 60.47102803742746,178.11166857859644 57.02803738322109,177.9287604703277 56.837383177597076,178.05069923186966 56.82616822433192,178.91646182672412 56.53457943932153,179.35543829428207 52.36261682247277,177.62391316905268 48.51588785048807,175.4411899051047 47.18130841123639,175.07536751549924 42.0,174.3071378357854 45.92523364484077,174.8070972434507 48.437383177632,175.380219563609 52.12710280378815,177.44100451574195 56.31028037390206,179.3188569669437 56.62429906550096,179.23350050470617 56.87102803745074,178.62381019431632 56.62429906550096,179.29446941087372 56.1308411215432,179.22130672077765 52.4299065421219,177.63610707198677 48.493457943957765,175.36802549258573 48.23551401874283,175.42899583859253 47.3719626168604,175.01439703772485 45.947663551487494,174.85587368924462" stroke="yellow" stroke-linecap="round" stroke-linejoin="round" stroke-width="0.5"><title>2025-01-08 12.0km</title><desc>1736310892000</desc></polyline><polyline fill="none" points="75.22487143526087,175.19052171132353 75.56147732585669,174.6537302101351 75.60635811125394,174.12913681555074 75.81954184197821,173.94613872436457 76.06638616177952,173.99493823533703 75.95418419816997,174.08033734456694 77.04254324448993,174.49513238437066 77.60355306218844,174.95872559712734 79.90369331464171,175.76391068920202 83.71856007480528,177.82565446702938 87.15194015891757,179.35059618231026 87.37634408596205,179.13100545048655 87.41000467503909,178.11844437784748 87.72417017299449,177.9110515784414 91.15755025710678,178.15504307992524 92.95278167369543,178.83821735002857 96.66666666668607,178.91141442423395 92.9303412809968,178.8138183180563 91.20243104250403,178.17944221005018 87.67928938759724,177.94765032682335 87.44366526411613,178.19164177375205 87.41000467503909,179.13100545048655 87.21926133707166,179.387194608993 83.0116877045366,177.59386208301294 79.16316035529599,175.43451726646163 78.73679289384745,175.43451726646163 77.95137914916268,175.0563240009942 72.66666666668607,174.38533379961154 78.10846189811127,175.166122135779" stroke="#4DD2FF" stroke-linecap="round" stroke-linejoin="round" stroke-width="0.5"><title>2025-01-06 5.2km</title><desc>1736137119000</desc></polyline><polyline fill="none" points="106.43987538939109,174.825389009653 106.49595015577506,174.36201160062046 106.86604361375794,173.81327349842468 107.13520249217981,174.76441837289894 106.75389408099,175.02049489464844 107.46043613704387,174.98391255893512 109.79314641741803,175.5448408080556 112.95576323987916,177.03251076705055 113.5501557632233,177.55685023468686 117.81183800619328,179.44689716659195 118.06978193146642,179.28837793978164 118.11464174458524,178.26409615809098 118.32772585668135,178.0689941396413 122.01744548289571,178.32506549116806 123.78940809966298,178.9957266561978 127.33333333331393,179.05669571677572 123.64361370715778,178.97133902563655 121.89408099686261,178.2884838940663 118.37258566974197,178.0689941396413 118.15950155764585,178.25190228877182 118.08099688473158,179.28837793978164 117.8566978193121,179.50786605912435 113.83052959502675,177.8495040908747 110.53333333332557,175.9838267924788 108.87352024920983,175.31315328602795 103.33333333331393,174.44737069560506 107.10155763238436,174.91074786294485 109.77071651094593,175.50825858955795 113.15763239876833,177.386135243607 117.07165109028574,179.09327714219398 117.67725856695324,179.5200598349038 118.05856697820127,179.2517965579318 118.15950155764585,178.19093292842444 118.316510903358,178.03241248527775 120.80623052956071,178.32506549116806 121.89408099686261,178.26409615809098 123.69968847348355,178.95914520896622 127.32211838004878,179.02011428315018 123.396884735208,178.89817611206672 121.8267912772717,178.2884838940663 118.40623052959563,178.03241248527775 118.15950155764585,178.21532067529915 118.12585669779219,179.21521516794746 117.87912772584241,179.4590909469407 113.88660436135251,177.8373101906618 110.55576323985588,175.91066254349425 109.17632398754358,175.3863178021129 103.47912772587733,174.50834145046247" stroke="#4DD2FF" stroke-linecap="round" stroke-linejoin="round" stroke-width="0.5"><title>2025-01-03 9.5km</title><desc>1735878536000</desc></polyline><polyline fill="none" points="136.39437939121854,174.33827911291155 137.7995316159795,174.72940490263863 139.40702576114563,174.87607683335955 140.1826697892975,175.26720134085917 140.47494145203382,175.23053345788503 143.8135831382242,177.07614005838695 148.2988290398498,179.14172812171455 148.636065573839,179.08061642215762 149.09695550356992,177.96837951293855 149.43419203755911,177.77282059568097 152.44683840754442,177.9561570874357 154.23419203754747,178.62838913789892 158.0,178.73839048392256 154.51522248249967,178.64061151332862 152.58173302107025,178.01726920584042 149.45667447312735,177.83393278233416 149.09695550356992,178.0294916267885 148.50117096025497,179.19061746497755 144.13957845437108,177.3572571224213 140.4637002342497,175.3038692156406 140.1714285715134,175.32831446091586 139.2721311476198,174.90052214240131 138.00187353638466,174.8394088629575 134.0,174.14271586833638 139.36206089000916,174.888299488317 140.94707259960705,175.63387971972406 139.46323185018264,174.92496744779055 136.16955503518693,174.423837959097" stroke="#4DD2FF" stroke-linecap="round" stroke-linejoin="round" stroke-width="0.5"><title>2025-01-02 5.6km</title><desc>1735817809000</desc></polyline><polyline fill="none" points="167.43676012463402,174.4351754779782 170.1059190031374,174.8741636210616 170.89096573210554,175.28876245283755 171.64236760127824,175.42289714413346 175.72461059194757,177.66658840933815 179.16760124615394,179.15423631308659 179.45919003116433,178.8493915325671 179.78442367602838,178.03240472120524 180.17694704054156,177.83730278995063 183.05919003119925,177.93485378465266 185.16760124615394,178.7030658362928 188.66666666668607,178.72745346141164 187.29844236758072,178.81281012076943 184.96573208726477,178.66648439178243 183.2161993769696,177.98362926021218 180.18816199380672,177.81291503219109 179.84049844241235,177.9470476549177 179.3246105919825,179.10546118632192 179.13395638635848,179.19081764855946 173.6386292835232,176.77643196846475 171.11526479752501,175.28876245283755 170.7563862929237,175.31315058672044 169.9825545171625,174.92294000873517 164.66666666668607,174.1303219080437 169.57881619944237,174.81319311606057 170.84610591904493,175.26437431533122 171.11526479752501,175.19120988102804 174.71526479755994,177.21541383200383 179.13395638635848,179.20301142527023 179.8741433022078,177.91046604144503 180.17694704054156,177.78852727080812 181.02928348910064,177.89827216844424 179.8517133956775,177.88607829457032 179.3246105919825,179.081073617519 179.12274143303512,179.14204253273783 175.05171339568915,177.42271041385538 171.28348909661872,175.32534465227218 170.7788161993958,175.28876245283755 169.88161993771791,174.88635771935515 168.9171339563909,174.92294000873517 165.00311526481528,174.16690436644421 167.4704049844877,174.63028146470606" stroke="#4DD2FF" stroke-linecap="round" stroke-linejoin="round" stroke-width="0.5"><title>2024-12-31 8.0km</title><desc>1735619151000</desc></polyline><polyline fill="none" points="14.675389408133924,201.27256004931405 15.494080996897537,201.29694828309584 17.838006230595056,201.8456825829635 19.2062305296422,202.57732545425824 19.59875389409717,202.9797276393365 25.879127725900616,205.8209027944249 26.473520249244757,204.66248969447042 26.809968847373966,204.47958161348652 29.916510903451126,204.65029582876014 31.464174454798922,205.27218182162324 35.322118380106986,205.3697323512315 31.609968847420532,205.3331509094569 29.89408099692082,204.66248969447042 26.821183800697327,204.47958161348652 26.49595015583327,204.6259080946038 25.823052959516644,205.86967790298513 22.032398753915913,204.2478977507708 18.600623052974697,202.357832936279 16.604361370729748,201.56521861511283 11.33333333331393,200.79698876367183 15.572585669811815,201.34572473978915 17.80436137074139,201.85787665762473 22.032398753915913,204.15034655260388 25.72211838007206,205.85748412720568 26.002492211817298,205.74774010432884 26.473520249244757,204.65029582876014 26.854828660434578,204.44299997274356 29.84922118386021,204.6259080946038 31.666043613746297,205.29656945948955 35.33333333331393,205.30876327704755 31.80062305298634,205.32095709371788 29.83800623053685,204.65029582876014 26.798753894050606,204.45519385387888 26.473520249244757,204.6259080946038 25.9800623053452,205.73554631945444 25.80062305298634,205.8209027944249 21.740809968847316,204.11376483828644 17.89408099692082,201.95542922214372 16.211838006274775,201.54083042127604 11.512772585672792,200.8579595185438 16.458566978224553,201.52863632299704 17.490342679142486,201.94323515475844 17.92772585671628,201.89445887613692 21.494080996897537,203.86988653393928 17.871651090332307,201.91884701726667 14.48473520250991,201.2847541666415" stroke="yellow" stroke-linecap="round" stroke-linejoin="round" stroke-width="0.5"><title>2024-12-30 10.8km</title><desc>1735533491000</desc></polyline><polyline fill="none" points="45.36940298508853,201.22771914106852 47.563432835857384,201.592859896773 48.17910447763279,201.9458285181463 48.492537313490175,201.909314558201 49.13059701496968,202.17708340827085 51.87313432840165,203.73500255805266 56.32835820899345,205.77974889668985 56.65298507467378,205.7919199292228 57.12313432834344,204.63566778933455 57.492537313490175,204.4287586484861 60.436567164142616,204.62349667063972 62.19402985076886,205.30507792031858 66.0,205.36593325078138 62.3395522388746,205.30507792031858 60.54850746272132,204.64783890712715 57.44776119402377,204.45310091396095 57.145522388105746,204.63566778933455 56.75373134331312,205.6215253911214 56.45149253733689,205.84060405033233 52.264925373136066,204.07579539164726 49.28731343289837,202.37182411451067 47.58582089556148,201.67805928901362 42.0,200.80172056119773 47.395522388105746,201.580688551403 49.5447761194082,202.37182411451067 51.80597014928935,203.73500255805266 56.41791044775164,205.8649461054447 56.641791044792626,205.8040909608535 57.15671641792869,204.64783890712715 57.47014925372787,204.5017854339967 60.52611940301722,204.6721811399475 62.20522388065001,205.31724898821267 65.96641791047296,205.35376218646707 64.82462686568033,205.45113067531202 62.26119402988115,205.31724898821267 60.514925373136066,204.62349667063972 57.48134328360902,204.45310091396095 57.167910447809845,204.58698330917105 56.65298507467378,205.76757786321105 56.3171641791123,205.81626199159655 52.690298507455736,204.2340203941858 51.50373134325491,203.50374987324176 47.563432835857384,201.62937392746971 42.57089552236721,200.92343455452647" stroke="#4DD2FF" stroke-linecap="round" stroke-linejoin="round" stroke-width="0.5"><title>2024-12-27 9.1km</title><desc>1735273142000</desc></polyline><polyline fill="none" points="91.96760124608409,204.77833147179626 91.09283489099471,204.53445422122604 90.16199376946315,204.64419902894588 87.9750778816524,204.4369032192917 87.2012461059494,205.82699950879032 83.13021806854522,204.16863766407187 79.0928348909365,201.9493330246769 78.76760124613065,201.98591521321214 77.89283489098307,201.59570478061505 72.66666666668607,200.7665045222675 76.32274143304676,201.3518227878085 76.68161993776448,201.29085223282163 79.24984423682326,201.93713896001282 82.10965732089244,203.37603231877438 82.53582554520108,203.76623850688338 86.95451713399962,205.7904181787162 87.27975077880546,205.76603062082722 87.72834890964441,204.64419902894588 88.08722741436213,204.42470933993172 91.18255451711593,204.61981130027561 93.0778816199745,205.3270539570367 96.66666666668607,205.42460442851007 92.70778816199163,205.25389106529474 91.31713395641418,204.6563928919204 88.07601246103877,204.4369032192917 87.84049844241235,204.51006647618487 87.33582554524764,205.8026119563001 87.11152647976996,205.90016214437492 86.14704049850116,205.3270539570367 82.99563862930518,204.08328034976148 79.30591900314903,201.92494489446108 76.7713395638857,201.3518227878085 74.11339563864749,200.99819325268618" stroke="#4DD2FF" stroke-linecap="round" stroke-linejoin="round" stroke-width="0.5"><title>2024-12-25 6.6km</title><desc>1735101299000</desc></polyline><polyline fill="none" points="105.82538197690155,200.9776990821847 105.73557842214359,201.19739880764973 105.88150919857435,201.1485766718979 106.09479264105903,200.7946157525148 106.77954474586295,201.27063198399264 107.5428749609855,201.30724855988228 109.88899282820057,201.90531814098358 114.04240723414114,204.17552157482714 117.85905830992851,205.82323017148883 118.0162145307404,205.81102498354448 118.48768319300143,204.6515279826417 118.83567196759395,204.46844875869283 121.84409105079249,204.63932270740042 123.78609292174224,205.37163761195552 127.33333333331393,205.4326637062768 123.61771125666564,205.3350219444692 121.7318366074469,204.62711743128602 118.73464296857128,204.48065404663794 118.48768319300143,204.6027068762487 117.98253819771344,205.7499990301585 117.78048019955168,205.78661460492003 113.63829123793403,204.07787906379963 110.5288431555964,202.27148211297754 108.76644839410437,201.5635643620044 103.33333333331393,200.806821314196 105.1743062051246,201.08754898174084 106.04989086370915,201.063137899313 109.13688805734273,201.6734138687316 110.54006859991932,202.22266029733873 114.39039600867545,204.34639582906675 117.6794512004708,205.81102498354448 118.02743997506332,205.77440941425448 118.58871219208231,204.52947518939618 119.73370751476614,204.52947518939618 118.62238852510927,204.49285933369538 117.97131275333231,205.87205091415672 113.93015279073734,204.1999321934709 111.75241658865707,202.91836979678192 108.87870283750817,201.64900287358614 103.36700966628268,200.81902687497495 107.98066729027778,201.4781258058647" stroke="#4DD2FF" stroke-linecap="round" stroke-linejoin="round" stroke-width="0.5"><title>2024-12-18 8.3km</title><desc>1734495982000</desc></polyline><polyline fill="none" points="136.52985074633034,199.98014667951793 136.11567164183361,200.07751889714564 136.26119402988115,199.95580361601606 136.11567164183361,200.05317584818113 136.026119402959,199.91928901398205 136.07089552242542,200.04100432233827 136.9776119402959,200.6739224637713 138.95895522390492,201.55026661105512 139.4291044776328,202.2927211682254 139.9552238805918,202.7065468338551 140.53731343284016,202.79174610547489 144.64552238804754,205.00691157142865 148.3619402985787,206.67435147649667 148.63059701491147,206.68652250811283 149.1567164179869,205.51809933659388 149.48134328360902,205.33553246123483 152.59328358212952,205.53027045438648 154.55223880603444,206.21185160249297 158.0,206.27270692386082 154.25,206.21185160249297 152.59328358212952,205.54244157124776 149.4253731344361,205.34770359257527 149.10074626869755,205.53027045438648 148.54104477615329,206.7352066255844 143.0447761194664,204.43486622345517 142.66417910449672,204.05755862106162 141.28731343289837,203.27859823372273 139.63059701496968,202.62134751780832 134.0,201.70849491437548 139.35074626863934,202.4144347081019 140.29104477615329,202.82826006542018 140.49253731349017,202.76740346095175 144.69029850751394,205.05559618938423 147.57835820893524,206.19968053548655 148.37313432840165,206.68652250811283 148.67537313437788,206.6134963046934 149.23507462686393,205.44507261092076 150.39925373136066,205.40855923587515 149.30223880597623,205.4815859778464 148.72014925378608,206.74737765270402 148.21641791047296,206.7108645686967 144.42164179106476,205.079938492956 143.38059701496968,204.3983526226075 139.59701492538443,202.56049083627295 134.0895522388164,201.79369470651727 139.4291044776328,202.4387774052011" stroke="#4DD2FF" stroke-linecap="round" stroke-linejoin="round" stroke-width="0.5"><title>2024-12-17 8.6km</title><desc>1734409492000</desc></polyline><polyline fill="none" points="167.62603144947207,201.12726262031356 170.02491047797957,201.50510344377835 170.89926825469593,201.91950850475405 171.19072084699292,201.83418990155042 175.34952514403267,204.125588366398 179.12719912815373,205.7587995975482 179.3289739996544,205.7344234303746 179.84462089365115,204.5277986155852 180.1248637708486,204.36935227182403 183.3756811458734,204.6009276455443 185.00108983344398,205.2225230806216 188.66666666668607,205.28346368244092 188.30795578385005,205.40534481797658 184.98988011834444,205.28346368244092 183.07301883853506,204.57655130585772 180.19212206138764,204.45466955289885 179.75494317297125,204.72280928955297 179.27292542427313,205.7587995975482 179.08236026781378,205.81973999961338 175.6858165966114,204.38154045754345 171.1234625564539,201.94388524035458 170.52934765687678,201.8707550226536 169.90160361205926,201.50510344377835 164.66666666668607,200.7859862877085 169.98007161763962,201.49291504373832 170.73112252837745,201.89513176554465 171.16830141679384,201.85856664986932 175.31589599879226,204.11340016160102 179.04873112251516,205.74661151441978 179.36260314495303,205.72223534539808 179.7437334578717,204.68624480588187 180.1248637708486,204.3937286423752 183.409310291172,204.6009276455443 184.96746068814537,205.2225230806216 188.59940837614704,205.32002803261275 185.16923555970425,205.28346368244092 183.20753541961312,204.57655130585772 180.11365405574907,204.4302931914135 179.83341117860982,204.5643631346611 179.25050599413225,205.81973999961338 175.2374279931537,204.17434117653465 171.13467227155343,201.94388524035458 170.13700762885856,201.59042221862182 164.80118324770592,200.81036319224222 169.95765218744054,201.50510344377835 170.7423322435352,201.89513176554465 171.22434999223333,201.90732013559318 175.78670403239084,204.33278770915058 179.04873112251516,205.7831757610984 179.36260314495303,205.7344234303746 179.7437334578717,204.4912340883311 181.04406040796312,204.51561044073605 179.8558306087507,204.53998678948847 179.295344854414,205.880680378963 175.20379884791328,204.1621529753611 171.17951113183517,201.9316968730127 170.82080024911556,201.94388524035458 169.93523275724147,201.5172918429016 164.80118324770592,200.85911699035205 169.8567647516611,201.49291504373832" stroke="yellow" stroke-linecap="round" stroke-linejoin="round" stroke-width="0.5"><title>2024-12-15 13.0km</title><desc>1734235831000</desc></polyline><polyline fill="none" points="13.70646766165737,227.5475011482922 13.70646766165737,227.68138647612068 14.713930348225404,227.98567090395954 16.068407960177865,228.2656120770116 16.773631840769667,228.21692669006006 17.45646766165737,228.6064093793102 17.84825870639179,228.6185806983849 22.48258706467459,231.08933969463396 25.80721393035492,232.50118520166143 26.019900497514755,232.4890141718497 26.467661691538524,231.40578888636082 26.8034825870418,231.18670874198142 29.893034825916402,231.3449333201861 31.672885572130326,232.02651436672022 35.33333333331393,232.09954073879635 31.60572139301803,232.02651436672022 29.98258706467459,231.35710443521384 26.747512437868863,231.13802422555455 26.434079601953272,231.28407773132494 25.896766169113107,232.52552725856367 21.990049751242623,230.93111486891576 18.35199004970491,228.89852078683907 16.695273631834425,228.25344073162705 11.33333333331393,227.47447274143633 14.176616915327031,227.7665861730493 16.695273631834425,228.18041264035855 17.825870646745898,228.54555277034524 21.262437810888514,230.41992592318275 24.699004975089338,231.9291458198859 25.549751243786886,232.46467210947594 26.0087064676336,232.41598797385814 26.422885572130326,231.40578888636082 26.769900497514755,231.16236648561608 29.83706467662705,231.29624885087833 31.50497512437869,231.99000116845127 32.7810945273377,232.00217223547224 31.415422885562293,231.9534879620187 29.814676616922952,231.32059108736576 26.893034825858194,231.13802422555455 26.434079601953272,231.27190661082568 25.874378109467216,232.4768431410921 21.77736318402458,230.80940336023923 17.84825870639179,228.64292333379854 16.67288557207212,228.25344073162705 14.90422885568114,228.0343563598144" stroke="#4DD2FF" stroke-linecap="round" stroke-linejoin="round" stroke-width="0.5"><title>2024-12-13 8.5km</title><desc>1734064159000</desc></polyline><polyline fill="none" points="44.596126594173256,227.81822454050416 47.06754841754446,228.17569573959918 48.76806802075589,228.70573782004067 52.30514879547991,230.7026252920914 56.261691072257236,232.45296362580848 56.57912139815744,232.46528988644422 57.089277279155795,231.29429102581344 57.40670760511421,231.1340484318498 60.5243268776685,231.29429102581344 62.08880491257878,231.93525984982261 66.0,232.00921763129008 62.46291922533419,231.98456504112983 60.410958904074505,231.28196467793896 57.32735002366826,231.1217220720282 56.998582900327165,231.2326592772879 56.624468587571755,232.29272215394303 56.35238545114407,232.53924743099196 55.547472838894464,232.08317537968105 52.293811998097226,230.81356277834857 49.00614076521015,228.9276153959945 47.2602739725844,228.32361463054258 48.994803967827465,228.87830929372285 51.08077468117699,230.1356103119033 55.57014643360162,232.07084909055266 56.227680680167396,232.50226866285084 56.55644780345028,232.42831110177212 57.06660368444864,231.08474298710644 56.533774208743125,232.39133230883454 56.25035427493276,232.46528988644422 52.41851676895749,230.83821554294263 48.3372697213199,228.54549271898577 47.94048181385733,228.55781927073258 46.942843646684196,228.1510425782617 42.0,227.46075256899348" stroke="#4DD2FF" stroke-linecap="round" stroke-linejoin="round" stroke-width="0.5"><title>2024-12-11 6.6km</title><desc>1733890893000</desc></polyline><polyline fill="none" points="75.5767790262471,227.93536824117473 78.14981273416197,228.22857479119557 78.71161048690556,228.5584315332817 79.17228464427171,228.54621462873183 83.39700374536915,230.87962688047264 87.17228464427171,232.5166606838029 87.79026217234787,231.24612840544432 88.11610486893915,231.09952789376257 91.34082397009479,231.2949952135823 92.99250936333556,231.94247904629447 96.63295880157966,232.0279955878068 93.12734082405223,231.94247904629447 91.3745318352594,231.35607870323292 87.88014981278684,231.2094782898057 87.26217228465248,232.55331050731183 83.31835205998505,230.90406034096668 82.18352059932658,230.13440458693367 79.1385767791071,228.61951604232308 78.89138576789992,228.68060052861983 77.92509363300633,228.2896594231279 72.779026217293,227.5566423380369 77.04868913860992,228.04532075887255 79.1385767791071,228.5339977232943 82.08239700377453,229.98780308134155 83.30711610493017,230.80632647719176 87.08239700383274,232.4922274635901 87.31835205998505,232.40671116417798 87.81273408245761,231.31942861215794 88.11610486893915,231.09952789376257 90.08239700377453,231.2949952135823 91.08239700377453,231.2094782898057 93.04868913860992,231.95469569783018 96.66666666668607,232.01577894175716 92.8576779026771,231.93026239388564 91.31835206004325,231.31942861215794 88.09363295888761,231.1117446080898 87.81273408245761,231.2216949959402 87.41947565547889,232.32119482014969 87.20599250943633,232.50444407416217 83.70037453190889,231.03844430853496 81.59925093635684,229.78011739076464 79.11610486899735,228.5584315332817 77.31835205998505,228.1064054590679 72.66666666668607,227.4466894926736 78.40823970042402,228.27744249856914 86.90262172289658,232.43114439710916 87.31835205998505,232.3578446872998 87.81273408245761,231.08731117851858 87.34082397009479,232.40671116417798 87.10486891388427,232.45557762644603 83.44194756558863,230.90406034096668 79.14981273416197,228.52178081692546 75.22846441954607,227.86206652173132" stroke="yellow" stroke-linecap="round" stroke-linejoin="round" stroke-width="0.5"><title>2024-12-09 12.1km</title><desc>1733738831000</desc></polyline><polyline fill="none" points="113.32013823435409,230.4611710250756 117.83286207978381,232.5025203214609 118.35312598175369,231.3219840474776 118.76028903544648,231.1006325561757 121.67829092044849,231.22360564353585 123.4539742381312,231.92455049220007 127.33333333331393,232.05982020810188 123.82720703736413,231.9860367404326 121.87056236248463,231.30968675017357 118.79421928996453,231.14982180212974 118.40967640589224,231.27279485286272 117.85548224946251,232.5271147374151 114.28149544453481,231.0391459781822 109.73484134464525,228.57966407538333 109.32767829089426,228.59196157607948 108.80741438892437,228.24763121081924 105.58404021366732,227.81721724411182 105.17687715991633,227.6204561997729 104.98460571788019,227.78032456614892 103.57084511470748,227.5589683253056 106.91863022308098,227.9033001272328 109.73484134464525,228.53047406351834 112.69808356894646,229.99387064728944 113.53502984606894,230.60873929059017 117.66321080742637,232.5025203214609 117.93465284316335,232.3918454044324 118.40967640589224,231.24820025004738 118.66980835684808,231.05144329559698 119.676405906328,231.22360564353585 121.84794219286414,231.23590294724272 123.65755576500669,231.93684774369467 127.25416273949668,232.01063123330823 123.5670750864083,231.89995598648966 121.84794219286414,231.2604975518916 118.74897895066533,231.12522718102264 118.285265472834,231.51874067942845 117.84417216462316,232.5271147374151 113.63682060950669,230.7071180609637 109.7235312598059,228.57966407538333 109.46339930879185,228.62885407258 108.00439836626174,228.14925097452942 103.33333333331393,227.47288526257034 108.2192899780348,228.14925097452942 109.3616085453541,228.56736657379952 109.7913917687838,228.55506907131348 111.2503927113139,229.35440482855483" stroke="#4DD2FF" stroke-linecap="round" stroke-linejoin="round" stroke-width="0.5"><title>2024-12-06 9.2km</title><desc>1733479157000</desc></polyline><polyline fill="none" points="136.43478260870324,227.8345657235186 139.48667601682246,228.200559901612 140.13744740531547,228.60315255263413 140.49649368866812,228.52995396241022 144.68162692850456,230.87229261911125 148.33941093971953,232.49483048330876 148.7096774193924,232.3850351951114 149.10238429170568,231.33587650646223 149.5287517531542,231.16508259538386 152.5582047685748,231.311477387193 154.26367461431073,231.958052818969 158.0,232.0800478971796 154.3085553997662,231.958052818969 152.53576437587617,231.34807606470713 149.47265077137854,231.15288302347471 149.07994389900705,231.39687428865 148.51893408136675,232.51922942625242 144.37868162692757,230.76249624307093 143.436185133236,230.1159160907555 140.50771388498833,228.62755207542796 140.18232819077093,228.65195159456925 139.3632538569509,228.26155885175103 134.0,227.48077057374758 139.3632538569509,228.24935906352766 141.0462833099882,228.95694527728483 140.5525946704438,228.62755207542796 136.44600280502345,227.8467655426648" stroke="#4DD2FF" stroke-linecap="round" stroke-linejoin="round" stroke-width="0.5"><title>2024-12-03 5.6km</title><desc>1733220329000</desc></polyline><polyline fill="none" points="167.7995337995817,227.95619527901 170.07086247083498,228.19950901799893 170.84289044287289,228.64963847931358 171.82750582747394,228.77129487748607 172.89044289046433,229.46473461620917 174.3449883449357,230.01218496142246 175.27365967363585,230.72995041108516 179.2680652680574,232.48177148238756 179.77156177157303,231.399050955064 180.17435897438554,231.13141106648254 183.22890442895005,231.30172740996932 185.10862470866414,231.99515640319441 187.73799533804413,231.97082561117713 188.66666666668607,232.0438179763878 188.3869463869487,232.11681030894397 184.9967365967459,232.01948719158827 183.22890442895005,231.35038918978535 180.16317016317043,231.18007289702655 179.82750582753215,231.3382237461774 179.31282051285962,232.49393684079405 179.06666666665114,232.51826755488582 174.92680652678246,230.74211590000778 172.68904428899987,229.46473461620917 169.97016317013185,228.2481717222836 164.66666666668607,227.5060639060248 170.1603729603812,228.22384037195297 171.74918414920103,228.95377930476388 169.94778554775985,228.28466874099104 164.68904428899987,227.48173244511418 167.93379953381373,227.9318638851546" stroke="#4DD2FF" stroke-linecap="round" stroke-linejoin="round" stroke-width="0.5"><title>2024-12-02 6.1km</title><desc>1733112856000</desc></polyline><polyline fill="none" points="11.33333333331393,253.36127771882457 12.044444444414694,253.65767278138082 13.679999999993015,255.8484031441185 13.537777777761221,255.70665084265056 13.84592592593981,255.69376426402596 14.248888888861984,255.20407356496435 15.71851851849351,255.42314589118178 16.26370370364748,255.78397029421467 17.354074074071832,256.0030418859096 18.527407407353166,256.73757402157935 19.9496296296129,257.27880623081 20.69629629625706,257.93601449375274 24.962962962978054,259.8818517683976 25.30666666670004,259.8818517683976 25.8281481480808,258.6834247777733 26.171851851802785,258.51590206386754 29.454814814787824,258.6834247777733 31.481481481459923,259.405059229015 35.33333333331393,259.44371813253383 31.505185185174923,259.43083183231647 29.46666666661622,258.70919748856977 26.20740740740439,258.5416747996496 25.851851851854008,258.6963111336372 25.211851851840038,259.9720556145039 21.13481481478084,258.2581744949275 18.373333333351184,256.6989145132684 15.611851851863321,255.43603248996078 12.257777777791489,255.0365474811988" stroke="#4DD2FF" stroke-linecap="round" stroke-linejoin="round" stroke-width="0.5"><title>2024-11-29 4.6km</title><desc>1732853630000</desc></polyline><polyline fill="none" points="44.03253588516964,255.89257191658544 43.860287081392016,255.99245785779203 44.5952153110411,256.0049435962428 43.96363636368187,255.9300291515392 44.53779904305702,255.97997211838083 44.46889952151105,256.1547723852418 45.38755980861606,254.96862413812778 47.54641148325754,254.81879428862885 48.235406698600855,255.19336866120284 49.21148325357353,255.39314131755964 53.03540669858921,257.57813920013723 56.87081339710858,259.23871853909804 57.44497607660014,258.0276209459553 57.78947368421359,257.8653082323435 61.05071770341601,258.0276209459553 62.7043062201119,258.7018413044716 66.0,258.7392979115393 62.773205741657875,258.6768702284462 60.809569377976004,257.99016417984967 57.743540669907816,257.8153658273077 57.467942583723925,257.9776785892609 56.87081339710858,259.2262330415251 52.80574162682751,257.57813920013723 48.6028708134545,255.23082605240052 47.33971291867783,254.84376593949855 42.0,254.09461479423044 47.45454545458779,254.81879428862885 48.15502392349299,255.18088286225975 48.889952153142076,255.28076922764012 51.85263157897862,256.85397162951995 47.4200956937857,254.86873758665752 44.53779904305702,254.48167663744243" stroke="#4DD2FF" stroke-linecap="round" stroke-linejoin="round" stroke-width="0.5"><title>2024-11-28 6.3km</title><desc>1732767063000</desc></polyline><polyline fill="none" points="72.82774049218278,253.79883738211356 76.37136465328513,254.39722182210244 77.1767337807687,254.82046824906138 77.5525727069471,254.7912788696849 81.24384787474992,256.60101216757903 82.51901565992739,257.44749458417937 87.19015659956494,259.4907129340718 87.84787472034805,258.0750567733339 88.3310961968964,257.8123565666756 91.88814317667857,258.0020845290419 93.52572706935462,258.6880225522764 94.94854586123256,258.9215328207356 96.66666666668607,258.87774966658617 94.07606263982598,258.83396650268696 92.12975391495274,258.0750567733339 88.46532438480062,257.88532888168993 87.91498881427106,258.10424566343136 87.19015659956494,259.5344959512295 82.10290827741846,257.38911660386657 77.5525727069471,254.7912788696849 77.21700223715743,254.8642523100134 76.06263982102973,254.35343765675498 72.66666666668607,253.90100070860353" stroke="#4DD2FF" stroke-linecap="round" stroke-linejoin="round" stroke-width="0.5"><title>2024-11-25 4.0km</title><desc>1732507947000</desc></polyline><polyline fill="none" points="103.33333333337214,252.56182573272963 108.22578919213265,253.19012618499983 109.55484216171317,253.96502814197447 110.28678437683266,253.88125506043434 111.63509898353368,254.32106346002547 113.04119850194547,255.32633721805178 115.69930444099009,256.4782089794753 117.76029962557368,257.9023348139017 122.4216158373747,259.72436764114536 123.9818084537983,260.66679378018307 124.38630283589009,260.4992515863414 125.25307651155163,258.4677945412841 127.33333333337214,258.4259086745442 125.33012306049932,258.5306233297015 124.21294810064137,260.77150760059885 118.06848582136445,258.21647924730496 110.2482611022424,254.02785793672956 109.72819689684547,254.13257423018513 111.57731407182291,254.48860933602555 112.48261102195829,255.32633721805178 114.08132691285573,255.76614335668273 117.72177635109983,257.9442207586253 123.55805243458599,260.54113714414416 124.38630283589009,260.624908241065 125.25307651155163,258.4468516087509 124.32851792417932,260.77150760059885 118.16479400754906,258.1745933431812" stroke="#4DD2FF" stroke-linecap="round" stroke-linejoin="round" stroke-width="0.5"><title>2024-11-20 4.0km</title><desc>1732095798000</desc></polyline><polyline fill="none" points="135.4020180562511,254.0543905191298 138.94530005310662,254.5671519151947 139.79925650556106,254.9967617263319 140.38555496541085,255.05219517803926 143.6611789696617,256.67361633280234 144.52788104087813,257.3388106666971 149.19277748273453,259.4036695926625 149.40945300052408,259.37595351727214 149.9320233669132,258.1564421099174 150.31439192773541,257.8654211606772 153.85767392453272,258.0594351774489 155.7185342538287,258.80777306080563 158.0,258.89092152865487 155.68029739771737,258.82163114137074 153.65374402544694,258.04557704008766 150.39086563989986,257.8792793114553 149.85554965474876,258.2395908689068 149.35847052570898,259.4313856640074 144.61710037174635,257.477392520188 140.97185342531884,255.44022887764731 138.91980881575728,254.62258549498802 134.0,253.90194766933564" stroke="#4DD2FF" stroke-linecap="round" stroke-linejoin="round" stroke-width="0.5"><title>2024-11-19 4.1km</title><desc>1731989484000</desc></polyline></svg>