<?xml version="1.0" encoding="utf-8" ?>
<svg baseProfile="full" height="300mm" version="1.1" viewBox="0,0,200,300" width="200mm" xmlns="http://www.w3.org/2000/svg" xmlns:ev="http://www.w3.org/2001/xml-events" xmlns:xlink="http://www.w3.org/1999/xlink"><defs /><rect fill="#222222" height="300" width="200" x="0" y="0" /><text fill="#FFFFFF" style="font-size:12px; font-family:Arial; font-weight:bold;" x="10" y="20">Over 4km Runs</text><text fill="#FFFFFF" style="font-size:4px; font-family:Arial" x="10" y="280">ATHLETE</text><text fill="#FFFFFF" style="font-size:9px; font-family:Arial" x="10" y="290">Fake David</text><text fill="#FFFFFF" style="font-size:4px; font-family:Arial" x="65" y="280">SPECIAL TRACKS</text><rect fill="yellow" height="2.6" width="2.6" x="65" y="283" /><text fill="#FFFFFF" style="font-size:3px; font-family:Arial" x="70" y="285.5">Over 10.0 km</text><rect fill="red" height="2.6" width="2.6" x="65" y="287" /><text fill="#FFFFFF" style="font-size:3px; font-family:Arial" x="70" y="289.5">Over 15.0 km</text><text fill="#FFFFFF" style="font-size:4px; font-family:Arial" x="120" y="280">STATISTICS</text><text fill="#FFFFFF" style="font-size:3px; font-family:Arial" x="120" y="285">Number: 8</text><text fill="#FFFFFF" style="font-size:3px; font-family:Arial" x="120" y="290">Weekly: 2.7</text><text fill="#FFFFFF" style="font-size:3px; font-family:Arial" x="141" y="285">Total: 43.9 km</text><text fill="#FFFFFF" style="font-size:3px; font-family:Arial" x="141" y="290">Avg: 5.5 km</text><text fill="#FFFFFF" style="font-size:3px; font-family:Arial" x="167" y="285">Min: 4.0 km</text><text fill="#FFFFFF" style="font-size:3px; font-family:Arial" x="167" y="290">Max: 9.2 km</text><polyline fill="none" points="35.47031102736946,61.03763480644557 45.62393967946991,65.63067072330159 46.7945334588876,62.97446410683915 47.71065032982733,62.47642325141351 54.27615457109641,62.75311269797385 58.271442035678774,64.33023860747926 67.0,64.63459546823287 59.111215834040195,64.46858266598429 54.708765315590426,62.94679518791963 47.78699340252206,62.58709905479918 46.921771913184784,62.863788418937474 45.6748350613052,65.68600815918762 37.633364750188775,62.33807845090632 27.403393025510013,56.804244169645244 26.487276154453866,56.83191354619339 25.316682375152595,56.05717022437602 18.064090480678715,55.08873879926978 17.147973609738983,54.64602644951083 16.71536286524497,55.00573027387145 13.534401508048177,54.50767873195582 21.06691800185945,55.282425286306534 27.403393025510013,56.69356664293446 34.07068803021684,59.986208956397604 35.953817153698765,61.36966340383515 45.242224316694774,65.63067072330159 45.852968897204846,65.3816521599947 46.921771913184784,62.80845056261751 47.507068802951835,62.3657474151114 49.7719132892089,62.75311269797385 54.65786993398797,62.78078163129976 58.729500471265055,64.35790742334211 66.82186616386753,64.5239202749799 58.52591894438956,64.27490096964175 54.65786993398797,62.836119491781574 47.685202638967894,62.5317611572973 46.64184731384739,63.41716652872856 45.64938737032935,65.68600815918762 36.1828463714337,61.59101563721197 27.37794533453416,56.804244169645244 26.792648444883525,56.914921663323184 23.50989632413257,55.8358146926912 13.0,54.31399184081238 23.993402450578287,55.8358146926912 26.563619227032177,56.77657479105983 27.530631479690783,56.74890541046625 30.81338360044174,58.54741086426657" stroke="#4DD2FF" stroke-linecap="round" stroke-linejoin="round" stroke-width="0.5"><title>2024-12-06 9.2km</title><desc>1733479157000</desc></polyline><polyline fill="none" points="138.47826086939313,55.12777287789504 145.3450210377341,55.9512597786088 146.80925666191615,56.85709324339405 147.61711079941597,56.69239641542663 157.03366058901884,61.962658392993035 165.26367461425252,65.61336858742288 166.09677419345826,65.36632918898249 166.98036465630867,63.005722139496356 167.93969144462608,62.621435839595506 174.75596072920598,62.9508241211588 178.59326788212638,64.40561884266208 187.0,64.68010776862502 178.6942496492993,64.40561884266208 174.7054698455613,63.033171145565575 167.8134642355144,62.59398680279264 166.929873772664,63.142967149440665 165.66760168294422,65.66826620904612 156.35203366051428,61.71561654686229 154.23141654976644,60.260811204178026 147.6423562411219,56.9119921696838 146.91023842908908,56.96689108776627 145.06732117803767,56.08850741639617 133.0,54.33173379092477 145.06732117803767,56.06105789291905 148.8541374473134,57.653126873861765 147.7433380082948,56.9119921696838 138.50350631121546,55.155222470959416" stroke="#4DD2FF" stroke-linecap="round" stroke-linejoin="round" stroke-width="0.5"><title>2024-12-03 5.6km</title><desc>1733220329000</desc></polyline><polyline fill="none" points="20.04895104910247,115.40143937780522 25.15944055945147,115.94889529052307 26.896503496565856,116.96168657849194 29.111888111918233,117.23541347435093 31.503496503573842,118.79565288650338 34.77622377616353,120.02741616321146 36.86573426576797,121.64238842498162 45.853146853274666,125.58398583540111 46.98601398605388,123.14786464892677 47.89230769244023,122.545674899593 54.76503496512305,122.9288866724819 58.994405594537966,124.48910190720926 64.9104895106284,124.43435762517038 67.0,124.59859044689802 66.37062937067822,124.76282319513848 58.74265734269284,124.54384618109907 54.76503496512305,123.03837567704613 47.86713286722079,122.65516401833156 47.11188811203465,123.0110034289246 45.953846154036,125.61135789181571 45.40000000002328,125.66610199850402 36.08531468536239,121.66976077505387 31.05034965032246,118.79565288650338 24.932867132942192,116.05838637516717 13.0,114.38864378858125 25.360839160974137,116.00364083691966 28.935664335731417,117.6460034357442 24.882517482503317,116.14050466724439 13.05034965032246,114.33389800152509 20.351048951153643,115.34669374162331" stroke="#4DD2FF" stroke-linecap="round" stroke-linejoin="round" stroke-width="0.5"><title>2024-12-02 6.1km</title><desc>1733112856000</desc></polyline><polyline fill="none" points="133.0,112.5628748673771 134.59999999997672,113.22976375810686 138.28000000002794,118.15890707424842 137.95999999996275,117.83996439597104 138.65333333332092,117.81096959405113 139.56000000005588,116.70916552116978 142.8666666666977,117.20207825518446 144.09333333326504,118.01393316197209 146.54666666663252,118.50684424329665 149.18666666653007,120.1595415485499 152.38666666659992,121.37731401930796 154.06666666665114,122.8560326109291 163.66666666662786,127.23416647891281 164.44000000006054,127.23416647891281 165.61333333328366,124.5377057500009 166.38666666659992,124.16077964368742 173.77333333331626,124.5377057500009 178.33333333325572,126.16138326528016 187.0,126.2483657981793 178.38666666671634,126.21937162271934 173.79999999993015,124.5956943492638 166.46666666667443,124.21876829920802 165.66666666662786,124.56670005069464 164.22666666668374,127.4371251326229 155.05333333322778,123.58089261359419 148.8399999999674,120.07255765487207 142.6266666665906,117.23107310241903 135.0800000000745,116.33223183269729" stroke="#4DD2FF" stroke-linecap="round" stroke-linejoin="round" stroke-width="0.5"><title>2024-11-29 4.6km</title><desc>1732853630000</desc></polyline><polyline fill="none" points="17.573205741588026,178.2582868123427 17.185645933030173,178.48303018006845 18.83923444978427,178.5111230915645 17.418181818327866,178.3425655909814 18.71004784689285,178.4549372663896 18.555023923399858,178.84823786682682 20.622009569313377,176.17940431079478 25.479425837285817,175.84228714942583 27.02966507175006,176.68507948771003 29.225837320555,177.13456796453102 37.829665071796626,182.0508132003306 46.4593301435234,185.78711671297788 47.751196172321215,183.06214712839574 48.52631578943692,182.6969435228093 55.864114832598716,183.06214712839574 59.58468899514992,184.5791429350793 67.0,184.66342030098895 59.73971291864291,184.52295801404398 55.32153110043146,182.9778694046836 48.42296650726348,182.58457311146776 47.802870813407935,182.9497768258734 46.4593301435234,185.75902434345335 37.312918660230935,182.0508132003306 27.856459330185317,176.769358617923 25.014354067039676,175.89847336389357 13.0,174.21288328705123 25.272727272706106,175.84228714942583 26.848803827888332,176.65698644009535 28.502392344526015,176.88173076222301 35.16842105274554,180.42143616641988 25.19521531101782,175.95465957000852 18.71004784689285,175.08377243427094" stroke="#4DD2FF" stroke-linecap="round" stroke-linejoin="round" stroke-width="0.5"><title>2024-11-28 6.3km</title><desc>1732767063000</desc></polyline><polyline fill="none" points="133.36241610744037,173.5473841097555 141.33557046984788,174.89374909971957 143.1476510068169,175.84605356040993 143.9932885906892,175.78037745677284 152.29865771811455,179.85227737706737 155.16778523486573,181.75686281439266 165.67785234900657,186.35410410168697 167.1577181208413,183.16887774001225 168.244966443046,182.57780227501644 176.24832214752678,183.00469019034063 179.932885906077,184.5480507426255 183.13422818784602,185.07344884666963 187.0,184.97493674984435 181.17114093957935,184.87642463104567 176.79194630868733,183.16887774001225 168.54697986587416,182.7419899837987 167.30872483213898,183.23455274273874 165.67785234900657,186.4526158902736 154.23154362419154,181.62551235870342 143.9932885906892,175.78037745677284 143.23825503361877,175.94456769755925 140.64093959738966,174.79523472770234 133.0,173.77725159437978" stroke="#4DD2FF" stroke-linecap="round" stroke-linejoin="round" stroke-width="0.5"><title>2024-11-25 4.0km</title><desc>1732507947000</desc></polyline><polyline fill="none" points="13.0,230.7641078986344 24.008025682298467,232.1777839162387 26.998394863680005,233.92131331947166 28.64526484790258,233.73282388597727 31.67897271271795,234.72239278507186 34.842696629464626,236.9842587406165 40.8234349922277,239.57597020384856 45.46067415736616,242.78025333129335 55.94863563403487,246.87982719257707 59.45906902104616,249.00028600537917 60.36918138060719,248.62331606925 62.319422150962055,244.05253771785647 67.0,243.95829451770987 62.49277688609436,244.1939024918247 59.97913322644308,249.2358921013656 46.154093098128214,243.4870783064398 28.558587480103597,234.0626803576597 27.38844301784411,234.29829201789107 31.548956661485136,235.09937100607203 33.585874799406156,236.9842587406165 37.1829855539836,237.97382255253615 45.3739967898,242.87449670693604 58.505617977818474,248.7175585743389 60.36918138060719,248.9060435424326 62.319422150962055,244.00541611970402 60.23916532914154,249.2358921013656 46.37078651692718,243.39283502212493" stroke="#4DD2FF" stroke-linecap="round" stroke-linejoin="round" stroke-width="0.5"><title>2024-11-20 4.0km</title><desc>1732095798000</desc></polyline><polyline fill="none" points="136.1545406266814,234.12237866804935 144.1269251195481,235.2760918092099 146.0483271375997,236.24271388424677 147.36749867221806,236.36743915060651 154.73765268188436,240.0156367488089 156.68773234204855,241.51232400009758 167.18374933616724,246.15825658352696 167.67126925115008,246.0958954138623 168.8470525756711,243.35199474732508 169.70738183741923,242.6971976115601 177.67976633028593,243.1337291492673 181.86670207115822,244.81748938682722 187.0,245.00457343948074 181.78066914493684,244.84867006810964 177.22092405729927,243.10254834021907 169.879447689862,242.72837845078902 168.67498672322836,243.53907945507672 167.5565586828161,246.2206177440239 156.8884758364875,241.82413317044848 148.68667020706926,237.240514974721 144.06956983543932,235.40081736372667 133.0,233.7793822560052" stroke="#4DD2FF" stroke-linecap="round" stroke-linejoin="round" stroke-width="0.5"><title>2024-11-19 4.1km</title><desc>1731989484000</desc></polyline></svg>