<?xml version="1.0" encoding="utf-8" ?>
<svg baseProfile="full" height="300mm" version="1.1" viewBox="0,0,200,300" width="200mm" xmlns="http://www.w3.org/2000/svg" xmlns:ev="http://www.w3.org/2001/xml-events" xmlns:xlink="http://www.w3.org/1999/xlink"><defs /><rect fill="#222222" height="300" width="200" x="0" y="0" /><text fill="#FFFFFF" style="font-size:12px; font-family:Arial; font-weight:bold;" x="10" y="20">Over 4km Runs</text><text fill="#FFFFFF" style="font-size:4px; font-family:Arial" x="10" y="280">ATHLETE</text><text fill="#FFFFFF" style="font-size:9px; font-family:Arial" x="10" y="290">Fake David</text><text fill="#FFFFFF" style="font-size:4px; font-family:Arial" x="65" y="280">SPECIAL TRACKS</text><rect fill="yellow" height="2.6" width="2.6" x="65" y="283" /><text fill="#FFFFFF" style="font-size:3px; font-family:Arial" x="70" y="285.5">Over 10.0 km</text><rect fill="red" height="2.6" width="2.6" x="65" y="287" /><text fill="#FFFFFF" style="font-size:3px; font-family:Arial" x="70" y="289.5">Over 15.0 km</text><text fill="#FFFFFF" style="font-size:4px; font-family:Arial" x="120" y="280">STATISTICS</text><text fill="#FFFFFF" style="font-size:3px; font-family:Arial" x="120" y="285">Number: 51</text><text fill="#FFFFFF" style="font-size:3px; font-family:Arial" x="120" y="290">Weekly: 2.5</text><text fill="#FFFFFF" style="font-size:3px; font-family:Arial" x="141" y="285">Total: 423.8 km</text><text fill="#FFFFFF" style="font-size:3px; font-family:Arial" x="141" y="290">Avg: 8.3 km</text><text fill="#FFFFFF" style="font-size:3px; font-family:Arial" x="167" y="285">Min: 4.0 km</text><text fill="#FFFFFF" style="font-size:3px; font-family:Arial" x="167" y="290">Max: 13.0 km</text><polyline fill="none" points="13.2043310131412,41.03261072785244 11.33333333331393,40.923627442345605 15.431709203403443,41.250577079641516 17.870688321709167,41.83181925529789 18.639133797376417,42.15876706561539 19.11802010826068,42.61891472149 20.343078112928197,43.03062467777636 21.857695282320492,43.975131813349435 25.633101314830128,45.7793673677661 25.84470224287361,45.79147626357735 26.000618716177996,45.53718926238071 26.134261407598387,44.47160131212149 26.290177880902775,44.35051133031084 29.831709203426726,44.52003727958072 31.156999226659536,45.11337670973444 31.947718484152574,45.28290186340746 35.33333333331393,45.24657505964569 31.51337973709451,45.22235718597949 29.865119876281824,44.592691203724826 26.457231245178264,44.374729333867435 26.17880897136638,44.53214626920817 25.989481825206894,45.73093177555711 25.733333333337214,45.76725847106718 21.234029389044736,43.817714338583755 17.915235885535367,41.940801931821625 16.623356535215862,41.54119842732325 14.61871616402641,41.43221548284055 11.433565351879224,40.875190403094166 15.086465583939571,41.28690477654163 15.765815931954421,41.589635268072016 16.890641917998437,41.66229050212132 18.405259087390732,42.31618614711624 16.712451662810054,41.56541684948024 14.340293890214525,41.1658124220412" stroke="#4DD2FF" stroke-linecap="round" stroke-linejoin="round" stroke-width="0.5"><title>2025-04-07 6.0km</title><desc>1743999676000</desc></polyline><polyline fill="none" points="43.64093023259193,41.172907564396155 42.22325581399491,40.86947196324763 46.69953488372266,41.464205209733336 48.80930232559331,42.010386890760856 51.57767441862961,43.454725178860826 51.87906976748491,43.78243040315283 56.37767441861797,45.821470321010565 56.60093023261288,45.772922048097826 56.72372093022568,44.59562200111395 56.94697674422059,44.3892901888903 60.56372093025129,44.65630777849583 62.483720930234995,45.34812404308468 66.0,45.38453534405562 62.14883720932994,45.29957562913478 60.50790697679622,44.65630777849583 57.05860465118894,44.449976043149945 56.82418604649138,44.547073362919036 56.69023255817592,45.5059062885266 56.40000000002328,45.84574445204635 52.76093023258727,44.32860431203153 48.50790697679622,41.9375627724512 47.21302325587021,41.57344169243879 44.3218604651629,41.2942816465802 42.11162790702656,40.833059653130476 47.670697674446274,41.609853837042465 51.454883720958605,43.418313446614775 52.63813953491626,44.182958115357906 56.37767441861797,45.80933325414662 56.61209302325733,45.68796253571054 56.73488372092834,44.66844493125973 56.95813953486504,44.42570170415274 60.39627906976966,44.632033470261376 62.38325581402751,45.3602611443348 65.98883720935555,45.445220827605226 64.48186046513729,45.5059062885266 62.215813953545876,45.33598694096145 60.28465116285952,44.632033470261376 57.00279069773387,44.42570170415274 56.7460465116892,44.632033470261376 56.72372093022568,45.5059062885266 56.4446511627757,45.83360738695774 52.58232558146119,44.25578122997831 50.46139534888789,42.993509302061284 47.55906976747792,41.63412859562959 42.0,40.82092221462517 47.50325581396464,41.58557907487557 49.1106976744486,42.228859050461324 49.65767441864591,42.70221439130546 48.49674418603536,41.94970012776321 48.12837209308054,41.94970012776321 47.50325581396464,41.561304309085244 45.92930232558865,41.391380847242544" stroke="yellow" stroke-linecap="round" stroke-linejoin="round" stroke-width="0.5"><title>2025-04-03 10.8km</title><desc>1743675722000</desc></polyline><polyline fill="none" points="74.31569173635216,41.049715003580786 72.7892293407931,40.88010666168702 74.73909006500617,41.0739447522792 75.44103992573218,41.35258660269028 77.82544103998225,41.54642413002148 79.75301764166215,42.17639449809212 80.62209842161974,42.648870672433986 80.67780872801086,42.854821395725594 83.79758588672848,44.46607393369777 86.99535747454502,45.859249348548474 87.25162488402566,45.750218659610255 87.4298978644656,44.55087625660235 87.61931290628854,44.39338619314367 89.83658310124883,44.69625156445545 91.08449396479409,44.59933470701799 93.1457753017894,45.32620972991572 96.66666666668607,45.374667949276045 93.0789229341317,45.32620972991572 91.1513463324518,44.62356392676884 87.68616527394624,44.417615443628165 87.46332404832356,44.62356392676884 87.30733519041678,45.665416962103336 87.00649953575339,45.847134831157746 83.59702878375538,44.39338619314367 79.4298978644656,42.10370573401451 78.15970287838718,41.643342807059526 72.66666666668607,40.80741731810849 78.37140204274328,41.619113143213326 79.41875580319902,42.17639449809212 80.12070566392504,42.34600148786558 83.27390900655882,44.1268641998322 87.01764159707818,45.79867675260175 87.20705663884291,45.71387508038606 87.40761374193244,44.49030317332654 87.60817084502196,44.34492768139171 89.11234911798965,44.58722009576741 91.32961931294994,44.64779314293992 92.96750232129125,45.31409517284192 96.65552460541949,45.362553395782015 92.68895078927744,45.25352237385232 91.17363045498496,44.659907749679405 87.74187558033736,44.417615443628165 87.44103992573218,44.57510548362916 87.26276694523403,45.81079127357225 86.90622098423773,45.81079127357225 82.96193129068706,44.09052025779965 81.99257195915561,43.41209851561871 79.24048282270087,42.00678733139648 77.26833797589643,41.48584992754331 72.68895078921923,40.88010666168702 76.33240482828114,41.34047174954321" stroke="yellow" stroke-linecap="round" stroke-linejoin="round" stroke-width="0.5"><title>2025-04-01 10.1km</title><desc>1743481138000</desc></polyline><polyline fill="none" points="104.8095681889099,41.035121268287185 107.10220565396594,41.278321917081485 109.74153463810217,41.86200199558516 114.4721963343327,44.39125821548805 117.64833799318876,45.81394761578122 118.01739670714596,45.582913428283064 118.10686548618833,44.549335427887854 118.28580304444768,44.354778837034246 121.67443305376219,44.622294089669595 124.16837527183816,45.388358069438254 127.28859894385096,45.33971919349278 123.49735942843836,45.254601125678164 121.81981981982244,44.64661363634514 118.31935383664677,44.41557779660798 118.11804908356862,44.683092949548154 118.07331469404744,45.59507313053473 117.62597079842817,45.78962824304472 113.86828207521467,44.17238182251458 109.75271823554067,41.9349618586275 109.3053743399214,41.910641907918034 108.52252252254402,41.55800221518439 107.02392047224566,41.47288217519235 103.36688412551302,40.804080316243926 109.78626902768156,41.86200199558516 114.66231748997234,44.48853651813988 117.67070518794935,45.82610730078886 117.96147872012807,45.6558716280997 118.12923268100712,44.48853651813988 118.28580304444768,44.33045924686303 119.41534638090525,44.53717564773979 121.6185150668025,44.59797453934152 123.47499223361956,45.30324002701673 127.33333333331393,45.31539975007763 126.36036036041332,45.412677501968574 123.48617583105806,45.254601125678164 121.89810500160092,44.65877340831503 118.38645542098675,44.39125821548805 118.1851506679086,44.549335427887854 118.02858030446805,45.692350715762586 117.65952159062726,45.86258635041304 113.63342652999563,44.06294351594988 109.83100341720274,41.910641907918034 109.37247592426138,41.9349618586275 108.589624106884,41.58232221844082 103.33333333331393,40.8284004318848 108.67909288598457,41.59448221873026 110.35663249460049,42.2632808387134 109.77508543030126,41.898481931202696 109.50667909288313,41.9349618586275 108.64554209384369,41.533682208289974 104.1385523454519,40.92568085808307" stroke="yellow" stroke-linecap="round" stroke-linejoin="round" stroke-width="0.5"><title>2025-03-30 10.7km</title><desc>1743316730000</desc></polyline><polyline fill="none" points="135.58807082939893,41.09592150976823 134.14538676600205,40.77976019520429 136.51630941283656,41.30264203813567 139.33457595523214,41.5944823383179 140.44175209692912,41.922802052256884 145.79869524698006,44.69525330043689 147.53215284243925,45.36403931454697 148.23671947803814,45.85042742184305 148.49394221801776,45.80178867634095 148.66169617889682,45.53427531696798 148.7399813606171,44.597975106487866 148.93010251625674,44.366939163490315 152.41938490211032,44.62229466039571 154.45479962718673,45.31540042407869 157.9664492078009,45.376199034872116 154.231127679348,45.327560148070916 152.58713886298938,44.683093529369216 149.0978564771358,44.45205770684697 148.86300093191676,44.71957283988013 148.7287977632368,45.75314991634514 148.28145386761753,45.86258710597758 144.90400745574152,44.41557833654224 140.41938490205212,42.00792187025945 140.00559179869015,42.02008184065926 138.7530288909329,41.5944823383179 134.07828518172028,40.86488060936972 139.0997204100131,41.5944823383179 140.4864864863921,41.95928197968169 143.34948741842527,43.35767305140325 144.9934762348421,44.403418544650776 148.32618825719692,45.88690647146723 148.6728797762771,45.65587235285784 148.7735321528162,44.57365554894204 148.93010251625674,44.439897917662165 152.39701770734973,44.63445443600358 153.9068033550284,45.242442061251495 154.8797763280454,45.388358754324145 158.0,45.35187959327595 154.28704566630768,45.33971987113182 152.41938490211032,44.683093529369216 149.0307548927376,44.48853706900263 148.79589934757678,44.75605214224197 148.7511649579974,45.72883053087571 148.60577819199534,45.88690647146723 148.3597390493378,45.85042742184305 144.09878844360355,44.01430472519132 140.5312208760297,41.99576189898653 140.30754892819095,42.06872171310533 139.0885368126328,41.63096233915712 136.7399813606171,41.424242226654314 134.0,40.87704066491278 136.6952469710377,41.29048201433034" stroke="#4DD2FF" stroke-linecap="round" stroke-linejoin="round" stroke-width="0.5"><title>2025-03-28 10.0km</title><desc>1743136214000</desc></polyline><polyline fill="none" points="166.28677839855663,41.1344501767162 164.66666666668607,40.81858328661474 167.32588454376673,41.09800402833207 170.33147113595624,41.65684407524532 170.83426443202188,41.99700664432021 171.906890130369,42.30072262417525 172.9795158287161,43.017490093785455 174.0409683426842,43.35764982442197 175.40409683430335,44.28093694493873 178.9683426443953,45.82378665104625 179.29236499074614,45.73874807092943 179.40409683430335,44.66968785281642 179.66108007455477,44.46316404841491 182.9795158287743,44.64539094820793 184.66666666674428,45.27710929105524 185.56052141531836,45.386444909643615 188.66666666668607,45.435038494397304 184.9459962756373,45.37429651123239 183.10242085665232,44.681836303760065 179.59404096839717,44.42671864399745 179.41527001862414,44.64539094820793 179.35940409684554,45.59296754481329 179.1135940409731,45.84808338005678 175.56052141531836,44.41457017407811 171.1135940409731,41.9605606887053 169.24767225328833,41.486762524582446 164.8454376164009,40.927921894719475 166.64432029798627,41.122301461495226" stroke="#4DD2FF" stroke-linecap="round" stroke-linejoin="round" stroke-width="0.5"><title>2025-03-25 5.1km</title><desc>1742904051000</desc></polyline><polyline fill="none" points="12.954199658473954,67.8669412261952 11.378046887170058,67.52661849666038 15.558764167071786,68.0249479664053 16.93370594631415,68.26803496023058 18.140971898799762,68.7177449438459 20.879677068791352,70.15194688063639 21.282099052972626,70.51657248145784 25.64167054806603,72.50984469504328 26.044092532247305,72.31538018524589 26.122341251350008,71.27012947399635 26.290017078106757,71.09997174766613 30.001242043217644,71.3309000475274 31.62210836831946,71.99937486251292 35.310976556444075,72.03583704639459 34.304921596019994,72.1452235490724 31.689178698987234,71.97506673542375 29.82238782796776,71.34305415952986 26.390622574137524,71.12428000515501 26.099984474480152,71.36736238081357 26.010557366884314,72.3761503694841 25.585778605833184,72.47338261711411 21.762769756256603,70.80827237533231 17.8167986337794,68.5962018272694 17.492625368759036,68.63266477176512 16.643067846656777,68.23157193424413 11.33333333331393,67.49015530495672 17.000776276981924,68.29234363968135 18.99052942090202,69.11883658602892 21.371526160568465,70.54088082587987 25.68638410186395,72.50984469504328 25.999378978449386,72.4004584368231 26.11116286291508,71.27012947399635 26.334730631962884,71.08781761756109 29.744139108865056,71.29443770612124 31.66682192205917,71.99937486251292 35.33333333331393,72.07229922211263 33.95839155407157,72.18168570034322 31.599751591333188,71.97506673542375 29.744139108865056,71.30659182084491 26.301195466541685,71.08781761756109 26.11116286291508,71.36736238081357 26.06644930911716,72.26676402160956 25.921130259346683,72.47338261711411 25.68638410186395,72.46122858933813 21.662164260225836,70.77180991711793 17.85033379914239,68.584047510667 17.61558764165966,68.66912770808267 16.54246235062601,68.21941759045876 12.261139574635308,67.62385363467911" stroke="#4DD2FF" stroke-linecap="round" stroke-linejoin="round" stroke-width="0.5"><title>2025-03-23 9.7km</title><desc>1742722238000</desc></polyline><polyline fill="none" points="43.59702187066432,67.75964105737512 47.42764076322783,68.18464753188891 48.164727780385874,68.60965289811429 48.41042345279129,68.56108091233182 49.303862261527684,68.93751342337055 53.16798510932131,71.0503765437461 54.74267100979341,71.6575160525972 56.339692880399525,72.54393567440275 56.60772452305537,72.37393776436511 56.69706840388244,71.22037583417841 56.898092135903426,71.08680497804016 60.37133550492581,71.22037583417841 62.336900884110946,71.91251397195447 66.0,71.96108495896624 62.40390879480401,71.97322770347819 60.50535132625373,71.24466143264726 56.9762680316926,71.0503765437461 56.77524429967161,71.22037583417841 56.64122847834369,72.32536690034613 56.31735691020731,72.44679403322516 52.375058166566305,70.71037743096531 49.27035830623936,68.99822826306627 47.43880874826573,68.25750567339128 42.04467194044264,67.45606432559725 47.42764076322783,68.22107660671463 48.589111214503646,68.57322391014895 51.4592833876377,70.04251996599487 52.54257794324076,70.78323444341368 56.339692880399525,72.44679403322516 56.65239646349801,72.26465329997882 56.73057235928718,71.17180462642864 56.898092135903426,71.0018052853411 60.42717543040635,71.22037583417841 62.281060958630405,71.88822847300617 65.98883201490389,71.94894221359573 64.96137738489779,72.08251236322394 62.11354118195595,71.93679946726479 60.42717543040635,71.26894702746358 56.9874360167305,71.02609091637714 56.74174034438329,71.37823215941899 56.68590041884454,72.25251057722198 56.51838064217009,72.49536486105353 56.272684969822876,72.48322215546796 52.319218241085764,70.69823459236068 49.22568636573851,68.98608529692865 47.41647277807351,68.3060777496139 42.0,67.51677971718891 45.55141926481156,67.94178682503116" stroke="#4DD2FF" stroke-linecap="round" stroke-linejoin="round" stroke-width="0.5"><title>2025-03-21 9.8km</title><desc>1742551156000</desc></polyline><polyline fill="none" points="74.16876848821994,67.65376142659807 73.8885256110807,67.86096481389541 72.66666666668607,67.59281920389913 73.44013700762298,67.58063075665268 78.06974933831953,68.22661721007898 79.20193056197604,68.51913853855513 83.46162229485344,70.8592903365934 86.9702631168766,72.39499676282867 87.36260314495303,72.2974920214765 87.48591001087334,71.22493603127077 87.68768488243222,71.06648966392095 91.3196325704339,71.3102532424673 92.6535886656493,71.8952843491279 93.72972131404094,72.05372991383774 96.66666666668607,72.09029425312474 92.9786704031867,71.968413090377 91.27479371009395,71.29806507215835 87.77736260311212,71.05430147545121 87.51953915611375,71.27368872881925 87.58679744665278,71.71246235299623 87.39623229019344,72.46812528072041 87.01510197727475,72.541253765914 86.29768021166092,72.11467047479528 83.360734859074,70.9933605195256 79.426124863734,68.81165934396267 77.9128133271006,68.28755919665855 76.60127666202607,68.23880560920225 72.68908609682694,67.458746234086 78.19305620423984,68.26318240475666 80.1659660594305,69.00667292368598 83.00202397629619,70.6277143072657 87.10477969795465,72.48031336384884 87.40744200529298,72.24873962896527 87.48591001087334,71.20055967706139 87.7101043125731,71.04211328610836 91.25237427989487,71.3102532424673 93.00108983338578,71.95622496909346 96.59940837614704,71.99278933016467 95.68021173909074,72.11467047479528 92.84415382216685,71.93184872381971 91.30842285533436,71.29806507215835 87.74373345787171,71.06648966392095 87.53074887121329,71.24931238188583 87.50832944107242,72.02935368310136 87.30655456951354,72.41937293908268 87.12719912809553,72.45593719667522 83.17016970261466,70.81053751555737 79.1570917016943,68.543515292331 78.742332243477,68.55570366785105 77.87918418180197,68.19005200723768 76.3770823602681,68.1169215770351 72.73392495716689,67.5196885067271 75.44667600811226,67.87315324025985" stroke="#4DD2FF" stroke-linecap="round" stroke-linejoin="round" stroke-width="0.5"><title>2025-03-19 10.0km</title><desc>1742357906000</desc></polyline><polyline fill="none" points="104.35009310988244,67.5702916423179 108.0260707634734,68.08053747279337 109.92551210423699,68.56648439831042 113.56797020480735,70.5952971677616 117.64618249534396,72.47830439789686 118.0372439478524,72.3568207165954 118.13780260703061,71.4213933393039 118.38361266290303,71.05693966185208 122.11545623833081,71.32420577162702 123.41154562385054,71.89518190232047 124.36126629420323,72.02881432505092 127.33333333331393,72.05311111742049 123.73556797014317,71.91947871458251 121.90316573553719,71.23916660240502 118.40595903166104,71.00834577665955 118.17132216016762,71.3120573216147 118.14897579140961,72.23533694479556 117.66852886404376,72.51474948464602 113.1322160148411,70.44951505599602 110.58472998137586,68.9795381463191 108.88640595902689,68.29921376850689 103.33333333331393,67.48525051535398 105.85847299813759,67.76467119457084 108.58472998131765,68.20202433994564 109.42271880817134,68.57863305287901 109.81378026067978,68.55433574282506 114.11545623838902,70.8868610002828 117.74674115458038,72.49045276103425 118.0260707634734,72.33252396948228 118.18249534448842,71.62791672830645 118.0260707634734,72.39326583049842 117.56797020480735,72.45400766888633 113.76908752328018,70.78967311402084 109.81378026067978,68.6272276621894 109.41154562385054,68.61507901118603 108.38361266290303,68.18987565729185" stroke="#4DD2FF" stroke-linecap="round" stroke-linejoin="round" stroke-width="0.5"><title>2025-03-17 7.0km</title><desc>1742185263000</desc></polyline><polyline fill="none" points="135.31276297330623,67.57226886994613 135.25666199158877,67.71866693385527 135.13323983171722,67.5600690253923 135.23422159889014,67.74306659844297 134.22440392704448,67.57226886994613 138.03927068720805,68.02366247992904 140.4852734922897,68.58485280035529 144.67040673206793,70.86619364938815 148.45161290315446,72.54972961662861 148.7321178120328,72.34233843944094 148.82187938288553,71.29317904736672 149.04628330993,71.07358669606037 152.44600280502345,71.28097948002687 154.36465638142545,71.98855288392224 157.96633941092296,72.049550448035 154.3197755960282,71.96415385194996 152.7265077138436,71.31757817932521 149.16970546980156,71.07358669606037 148.84431977558415,71.26877991174115 148.7208976157126,72.39113638710114 148.37307152873836,72.46433328135754 144.01963534363313,70.54900377591548 140.51893408130854,68.57265303123859 137.81486676016357,67.96266341616865 134.0,67.47467008797685 137.8373071528622,67.91386414880981 140.49649368860992,68.51165417199081 144.62552594667068,70.79299604083644 148.37307152873836,72.45213380125642 148.74333800835302,72.24474250043568 148.83309957920574,71.25658034256776 149.01262272091117,71.07358669606037 152.58064516121522,71.26877991174115 154.3983169705025,71.95195433456684 158.0,72.049550448035 154.20757363253506,71.9153557770187 152.569424964895,71.26877991174115 149.0350631135516,71.04918752770755 148.83309957920574,71.35417687047448 148.68723702663556,72.37893690154306 148.45161290315446,72.43993432022398 144.43478260870324,70.75639722426422 140.54137447406538,68.58485280035529 139.18373071524547,68.18225993937813 134.0,67.45027038335684 137.50070126226638,67.93826378429367" stroke="yellow" stroke-linecap="round" stroke-linejoin="round" stroke-width="0.5"><title>2025-03-15 10.0km</title><desc>1742012101000</desc></polyline><polyline fill="none" points="166.18150416080607,67.83668271501665 164.66666666668607,67.48022113322804 168.05809389223577,67.86126624397002 171.0651593656512,68.47585327774868 175.39488145703217,70.84813775357907 179.12545140524162,72.4829046130908 179.4080703406944,72.12645306967897 179.46459412778495,71.14313447484164 179.70199403358856,71.00792770972475 183.35343067982467,71.2906326376542 185.0943633223651,71.97895565403451 188.66666666668607,72.0035385657975 185.207410896488,72.0035385657975 183.2969068927341,71.31521565194998 179.75851782067912,71.09396839122928 179.49850840005092,71.35209016657609 179.32893703877926,72.40915608110663 179.05762286070967,72.5197788667574 175.14617679378716,70.83584621208138 173.54090124036884,69.80335345717322 171.09907363791717,68.58647870070126 170.83906421728898,68.63564553152537 169.84424556448357,68.19314352657238 168.37462710001273,68.1193930770387 165.01711414661258,67.5416800815583 166.80326581880217,67.75064033475064 169.14335060445592,68.1193930770387 170.08164547022898,68.20543526497204 171.38169257336995,68.64793723693583 175.1009577641962,70.7006391951727 178.17585178202717,72.0035385657975 178.82022295490606,72.43373892876843 179.2837180090719,72.40915608110663 179.5211179148755,71.59792005336203 179.36285131104523,72.38457322977774 179.05762286070967,72.45832177279226 175.20270058093593,70.81126312636479 171.11037839535857,68.53731185520883 170.57905479666078,68.51272842698381" stroke="#4DD2FF" stroke-linecap="round" stroke-linejoin="round" stroke-width="0.5"><title>2025-03-12 7.1km</title><desc>1741778255000</desc></polyline><polyline fill="none" points="13.174306205182802,94.39036892417062 16.4409105082741,94.79315116901125 17.451200498908293,95.2325488521019 18.697224820673,95.46445270969707 22.379170564352535,97.64921504312952 25.7917056439328,99.13825423977687 26.061116308090277,98.94297118176473 26.128468974144198,97.94214185600867 26.352977860951796,97.7102415056579 29.945120049931575,97.89332075690618 31.348300592508167,98.44255728309508 32.42594324913807,98.61343049351126 35.33333333331393,98.65004615829093 31.696289367042482,98.66225137803121 29.945120049931575,97.9665524000884 26.465232304355595,97.73465208431298 26.207047084521037,97.90552603302058 26.038665419444442,99.01620235577866 25.65700031182496,99.11384387029102 21.346429685072508,97.2342344949866 17.810414717823733,95.22034337681544 17.518553164962213,95.31798715362675 16.463361396919936,94.85417869547382 11.33333333331393,94.15846354608948 16.025569067685865,94.74432913148485 17.60835671966197,95.2325488521019 17.810414717823733,95.15931598676252 21.9638291237643,97.40510896564228 25.75802931090584,99.1260490554996 26.061116308090277,98.8575347706792 26.139694418467116,97.8567049230187 26.386654193978757,97.7102415056579 29.85531649517361,97.8567049230187 31.80854381044628,98.54019913944649 35.33333333331393,98.65004615829093 31.718740255688317,98.6256357160164 29.86654193949653,97.86891020186886 26.37542874959763,97.6370097478648 26.173370751494076,97.9665524000884 26.16214530717116,98.8575347706792 25.814156532578636,99.17486978725356 24.09666354849469,98.2838891424326 21.62706579361111,97.35628770646872 17.88899282820057,95.28137074413826 17.60835671966197,95.3301926216227 16.63174306205474,94.87858969968511 13.578422201389913,94.63447949380497 11.33333333331393,94.20728575823887 13.017149984429125,94.34154676659091 13.814156532578636,94.48801319568884 16.822575615835376,94.89079520045198 18.416588712192606,95.61091813481471 17.956345494254492,95.30578168469947 16.67664483934641,94.93961719435174 14.476457748620305,94.6833015641023 13.07327720610192,94.75653464221978 11.400685999309644,94.20728575823887" stroke="yellow" stroke-linecap="round" stroke-linejoin="round" stroke-width="0.5"><title>2025-03-07 10.7km</title><desc>1741342581000</desc></polyline><polyline fill="none" points="43.85480093676597,94.3749490406044 47.46323185006622,94.83941025839886 48.04777517559705,95.18164399846864 48.53114754095441,95.19386661882163 51.63372365332907,96.72168699381291 53.08384074940113,97.68726213321497 56.43372365331743,99.16617000012775 56.68103044497548,98.93394568016811 56.96206088992767,97.72392943158047 58.46838407492032,97.90726580045884 60.76159250579076,97.8583761221089 61.96440281032119,98.37171701800253 63.11100702575641,98.56727503206639 66.0,98.55505266301043 65.38173302105861,98.67727631253365 62.369086651015095,98.57949740019103 60.61545667448081,97.94393304965342 57.05199063225882,97.7728191499773 56.83840749412775,97.9317106341623 56.613583138154354,99.05616904744238 56.25386416859692,99.1417253503314 52.5555035128491,97.46725817097467 48.53114754095441,95.29164754900557 47.081030444882344,94.87607819326513 44.2145199063234,94.71718374962802 42.0,94.16716333321529 43.32646370015573,94.24049949529581" stroke="#4DD2FF" stroke-linecap="round" stroke-linejoin="round" stroke-width="0.5"><title>2025-03-05 4.7km</title><desc>1741177738000</desc></polyline><polyline fill="none" points="73.76176753127947,94.32287572490168 77.53121998079587,94.77409305736364 78.59173871285748,95.07490393999615 82.85686839581467,97.40617004295927 85.95773294911487,98.69712608412374 86.66090297792107,99.16086515637289 87.00672430358827,99.0731308353279 87.17963496642187,97.84484553700895 87.43323727190727,97.70697621926956 90.89145052834647,97.8824462404009 92.79346781939967,98.60939152126957 96.66666666668607,98.65952556280536 95.20268972142367,98.7973940999509 92.77041306433966,98.67205907082825 91.08741594624007,97.98271474175272 87.44476464937907,97.7195097982767 87.27185398654547,97.8824462404009 87.08741594618186,99.11073126424162 86.83381364075467,99.2109990335739 82.23439000966027,97.25576675312186 78.54562920273747,95.1501065765915 78.30355427478207,95.23784294349025 77.19692603265867,94.82422824183595 72.66666666668607,94.12233429974003" stroke="#4DD2FF" stroke-linecap="round" stroke-linejoin="round" stroke-width="0.5"><title>2025-03-03 4.6km</title><desc>1740978130000</desc></polyline><polyline fill="none" points="105.37350147904363,94.41793422031333 105.19414603768382,94.52763014758239 103.33333333331393,94.1497883106349 106.25906897085952,94.45449953757634 109.79012922308175,95.21018093114253 112.9400591623853,96.77028631413123 113.98256266542012,97.47720416774973 117.59209092322271,99.12260458432138 117.9732212361996,99.0982284026104 118.16378639265895,97.9281674095837 118.33193211891921,97.72096823662287 121.77331465046154,97.95254376562661 123.4771913436125,98.63508026012278 127.27728475793265,98.68383275791712 125.94332866260083,98.78133770990826 123.43235248321434,98.61070400576864 121.75089522032067,97.97692011803156 118.37677097925916,97.75753281562356 118.2086252529989,97.87941468659847 118.04047952668043,98.96415933831304 117.70418807404349,99.17135693684395 113.91530437488109,97.53814521903405 109.76770979294088,95.24674607133784 109.565934921382,95.3076879534492 108.82609372562729,94.96641312107386 103.33333333331393,94.16197677059972 108.98302973684622,94.92984791823255 117.56967149302363,99.18354502269358 117.98443095124094,99.11041649390245 118.09652810211992,98.02567281195661 118.2983029736788,97.75753281562356 122.05355752760079,98.00129646678397 123.51082048885291,98.64726838593197 127.33333333331393,98.74477335973643 123.533239919052,98.63508026012278 121.82936322584283,97.9891082928807 118.36556126421783,97.72096823662287 118.16378639265895,97.9281674095837 117.98443095124094,99.04947602831817 117.63692978356266,99.14698076239438 113.50054491672199,97.31875732823391 110.01432352483971,95.3076879534492 109.48746691574343,95.28331120332587 108.48980227304855,94.85671748802997 105.26140432822285,94.47887641120178 106.55052156315651,94.58857229760906 108.81488401058596,94.91765951545676 110.32819554721937,95.58802031887171 110.38424412265886,95.46613674076798 109.71166121750139,95.23455769216525" stroke="yellow" stroke-linecap="round" stroke-linejoin="round" stroke-width="0.5"><title>2025-02-28 10.0km</title><desc>1740736874000</desc></polyline><polyline fill="none" points="135.67753960861592,94.76365673461987 135.91239515377674,94.49613628008228 135.63280521903653,94.7514967234747 135.87884436157765,94.59341649609269 135.7334575955756,94.5326163678692 134.10065237653907,94.20429528404202 134.84995340171736,94.17997517751064 139.37931034481153,94.80013676264207 140.10624417522922,95.15277661301661 140.5424044734682,95.10413667892863 144.91519105318002,97.47531659330707 148.4156570363557,99.09256313429796 148.7176141659147,98.98312590392015 148.82945013983408,97.81579088095168 149.0531220876146,97.66987341604545 152.5535880708485,97.88874956444488 154.2758620689856,98.54537624861405 157.94408201309852,98.61833460602793 154.253494874225,98.6061748820357 152.46411929174792,97.88874956444488 150.40633737185271,97.90090934187174 148.98602050327463,97.69419300260779 148.80708294501528,97.80363109715108 148.7176141659147,99.00744529477379 148.4380242311163,99.26279868016718 143.9534016775433,97.2321202387393 140.75489282386843,95.35949617106235 138.94315004663076,94.86093679118494 137.51164958061418,94.81229677014926 134.0111835973803,94.1678151228698 139.4352283317712,94.87309679419559 140.02795899350895,95.22573648692924 140.5424044734682,95.22573648692924 144.9263746505021,97.54827542899875 148.48275862075388,99.14120187980006 148.728797763295,98.9344871112844 148.88536812673556,97.69419300260779 152.45293569430942,97.86443000689906 153.9068033550866,98.43593865135335 154.98042870458448,98.6061748820357 158.0,98.6061748820357 154.33178005588707,98.61833460602793 152.46411929174792,97.9860277583939 150.417520969233,97.97386798732623 148.90773532155436,97.71851258550305 148.7399813606753,98.87368860015704 148.4044734389754,99.18984061085212 144.38956197578227,97.43883716320852 140.45293569436762,95.23789646274236 135.17427772597875,94.38669596772525 134.0,94.0705346531613 135.7558247903362,94.33805580534681 136.51630941283656,94.49613628008228 138.57409133278998,94.67853663755523 140.98974836908747,95.55405551589502 140.5088536812691,95.22573648692924 140.27399813605007,95.28653635694354 139.2003727866104,94.86093679118494 136.65051258157473,94.67853663755523 134.91705498599913,94.24077543709427" stroke="yellow" stroke-linecap="round" stroke-linejoin="round" stroke-width="0.5"><title>2025-02-26 11.1km</title><desc>1740566027000</desc></polyline><polyline fill="none" points="166.71517412934918,94.44542554522923 164.71144278609427,94.20199788502941 165.6069651742,94.1898264925112 170.14054726366885,94.81056635532877 170.77860696520656,95.16353502930724 171.15920398011804,95.15136370841356 174.31592039804673,96.70928541170724 174.9875621891115,97.29350222018547 178.2898009950295,98.63232452681405 179.03980099508772,99.14350833153003 179.40920398011804,98.92442975391168 179.50995024875738,97.80469021387398 179.68905472639017,97.65863666460791 181.08830845769262,97.8777169395471 183.1032338308869,97.8898880573397 184.62562189053278,98.48627171742555 185.7226368159172,98.64449558834895 188.59950248757377,98.60798240099393 185.68905472633196,98.60798240099393 184.70398009946803,98.47410064405994 183.24875621893443,97.92640140518779 179.77860696520656,97.6951500641735 179.53233830846148,97.85337470129889 179.3308457711828,99.07048217163538 179.00621890550246,99.15567935499712 177.46144278609427,98.31587660808873 175.13308457710082,97.4030426392128 171.20398009946803,95.21222030378703 170.8345771144377,95.24873425014084 169.90547263686312,94.81056635532877 168.66293532343116,94.82273770161555 164.66666666668607,94.14114091332885 169.92786069656722,94.82273770161555 170.77860696520656,95.22439162016963 171.20398009946803,95.16353502930724 174.5174129353254,97.02573644228687 178.2898009950295,98.66883770875575 179.11815920396475,99.19219241998508 179.44278606964508,98.83923244994367 179.49875621893443,97.84120358079963 179.64427860698197,97.65863666460791 181.3345771144377,97.8777169395471 183.02487562189344,97.84120358079963 184.6032338308869,98.43758741859347 185.77860696520656,98.59581133667962 188.66666666668607,98.60798240099393 185.2189054726623,98.60798240099393 183.28233830846148,97.91423029016005 182.15174129355,97.95074363256572 179.7002487562131,97.6464655296295 179.49875621893443,97.8777169395471 179.4203980099992,98.91225871322968 179.3084577114205,99.13133730711706 179.0621890547336,99.16785037756199 174.6069651741418,97.09876351615821 171.25995024875738,95.23656293560634 170.86815920402296,95.24873425014084 169.9950248756213,94.88359441942885 168.57338308461476,94.81056635532877 164.78980099508772,94.20199788502941 167.45398009952623,94.53062514060002 168.02487562189344,94.56713923928328 169.91666666674428,94.87142307768227 171.9203980099992,95.55301681895799 174.41666666668607,96.84316861483967 171.28233830846148,95.24873425014084 168.02487562189344,94.61582469150017" stroke="yellow" stroke-linecap="round" stroke-linejoin="round" stroke-width="0.5"><title>2025-02-21 11.3km</title><desc>1740135343000</desc></polyline><polyline fill="none" points="13.299813780293334,121.20126890284882 11.400372439471539,120.82465859048534 14.126629422709811,121.12837665222469 16.696461824991275,121.55358098822762 17.411545623792335,121.91804096511623 18.115456238330808,121.95448691800993 21.255121042835526,123.75247714656871 24.88640595896868,125.33177653327584 25.70204841712257,125.82986009042361 26.070763500873,125.56259593181312 26.193668528809212,124.4813864564203 26.350093109882437,124.35990179771034 27.903165735537186,124.5664256636519 29.91433891991619,124.57857411817531 31.199255120998714,125.12525363660825 32.294227188045625,125.30747973547841 35.27746741147712,125.29533133524819 34.38361266290303,125.41681529708148 31.713221601443365,125.27103453199379 29.847299813758582,124.63931637740461 26.40595903166104,124.3963472048199 26.171322160109412,124.59072257184016 26.0037243947736,125.68407969456166 25.65735567966476,125.81771172907611 21.42271880817134,123.92255627694249 17.880819366837386,121.94233826796699 17.366852886450943,121.91804096511623 16.528864059597254,121.55358098822762 15.12104283052031,121.46854020973842 11.33333333331393,120.81250985627412 16.58472998131765,121.51713494572323 17.791433891979977,121.85729769221507 20.72998137801187,123.3151299967285 21.713221601443365,123.98329878052755 25.824953445000574,125.76911827466392 26.0484171321732,125.57474431217997 26.126629422651604,124.55427720818261 26.28305400372483,124.35990179771034 29.802607076300774,124.5664256636519 31.210428305377718,125.12525363660825 32.338919925445225,125.30747973547841 35.33333333331393,125.33177653327584 34.0931098695728,125.42896368827496 31.72439478582237,125.2831829340721 29.91433891991619,124.63931637740461 26.372439478582237,124.3841987366759 26.137802607030608,124.61501947644865 26.081936685252003,125.55044755057315 25.858472998079378,125.8541568103974 22.126629422651604,124.23841704847291 17.891992551158182,121.91804096511623 17.512104283028748,121.94233826796699 16.595903165754862,121.56572966722888 13.65735567966476,121.18912019667914 14.618249534454662,121.29845851968275 16.528864059597254,121.51713494572323 18.417132216040045,122.23390561947599 17.925512104236986,121.91804096511623 17.322160148934927,121.90589231235208 16.23836126626702,121.50498626306944 15.266294227156322,121.49283757954254 11.880819366837386,120.86110478777846" stroke="yellow" stroke-linecap="round" stroke-linejoin="round" stroke-width="0.5"><title>2025-02-19 10.6km</title><desc>1739962218000</desc></polyline><polyline fill="none" points="43.74157303379616,120.99992838480102 42.0,120.82889075911953 44.95505617983872,121.14653192197147 47.314606741594616,121.5619078988093 47.96629213489359,121.89176454258268 48.438202247198205,121.8673307398567 52.561797752801795,124.13965881658078 56.516853932640515,125.83777590755199 56.707865168573335,125.59344359616807 56.831460674176924,124.53059380568448 57.02247191016795,124.39621000832994 60.584269662969746,124.6161107103253 62.19101123599103,125.27581104717683 66.0,125.34911092075345 62.39325842697872,125.30024434199731 60.53932584275026,124.6283274073503 57.247191011265386,124.39621000832994 57.056179775332566,124.60389401239809 56.85393258428667,124.55502721159428 56.707865168573335,125.6667433278053 56.35955056187231,125.80112608404306 51.80898876412539,123.78537317769951 48.46067415730795,121.91619834165613 47.19101123599103,121.5374740469415 42.86516853934154,120.92662656705943" stroke="#4DD2FF" stroke-linecap="round" stroke-linejoin="round" stroke-width="0.5"><title>2025-02-18 4.9km</title><desc>1739836925000</desc></polyline><polyline fill="none" points="75.26187118008966,121.01459202628757 75.2280206864234,121.30903966337792 76.46920545375906,121.27223373753077 78.11659614485689,121.55441229209828 80.27174424071563,122.70765874942299 81.43394452281063,123.08798293778091 82.51716031972319,123.87316558028397 86.16173013631487,125.36990962240088 86.99670897977194,125.87291071377695 87.30136342270998,125.63981283806788 87.38034790789243,124.54792892257683 87.56088387401542,124.3884396548383 91.11518570757471,124.67061286959506 92.76257639867254,125.32083626293752 96.66666666668607,125.39444629666104 92.88669487542938,125.24722619634122 91.13775270333281,124.59700251235336 87.65115185710602,124.37617124321696 87.44804889516672,124.59700251235336 87.39163140574237,125.56620291400759 87.21109543961938,125.8238375041692 83.07005171605852,124.09399752393074 79.73013634228846,122.20464798987086 78.02632816170808,121.5176064210973 72.66666666668607,120.79375595290912 78.06017865537433,121.52987504568591 79.61730136343976,122.2291851357586 78.06017865537433,121.52987504568591" stroke="#4DD2FF" stroke-linecap="round" stroke-linejoin="round" stroke-width="0.5"><title>2025-02-14 5.4km</title><desc>1739506837000</desc></polyline><polyline fill="none" points="105.9564066635212,121.18210950338107 107.97415537911002,121.42587785831711 109.79012922313996,121.87684835733671 114.2740152576589,124.27794062459725 117.71539778914303,125.85021037678234 117.99564066634048,125.8014580533345 118.43281955475686,124.70452693467087 118.75790129223606,124.4485752821056 121.94146037678001,124.63139793195296 123.73501479061088,125.35049837258703 127.33333333331393,125.38706271733099 123.6565467849723,125.35049837258703 121.9078312314814,124.65577426982054 118.81394986767555,124.49732800868514 118.51128756033722,124.64358610133058 117.89475323061924,125.85021037678234 114.03861124085961,124.29012882029929 109.82375836832216,121.92560185032198 108.80367429548642,121.59651549064438 103.33333333331393,120.81645628987462 108.64673828426749,121.52338509856781 109.87980694381986,121.92560185032198 114.06103067105869,124.20481143114739 117.68176864396082,125.82583421688469 118.01806009653956,125.74051762856834 118.47765841509681,124.66796243737917 118.83636929787463,124.49732800868514 121.95267009187955,124.66796243737917 123.6565467849723,125.31393401965033 127.33333333331393,125.3748746033234 125.79760236648144,125.46019138229894 123.64533706993097,125.28955777986266 121.88541180134052,124.65577426982054 118.8027401525178,124.4363870981615 118.51128756033722,124.63139793195296 118.00685038144002,125.77708188616089 117.82749494008021,125.8136461355316 113.83683636930073,124.13168220504303 110.21609839639859,122.10842731966113 109.07270745758433,121.63308067440812 103.35575276351301,120.84083319621277 106.20302039542003,121.08460205970914 108.80367429548642,121.52338509856781 110.36182469251798,122.32781761317165 109.77891950804042,121.9134134784399 109.63319321186282,121.98654369614087 108.63552856922615,121.54776189956465" stroke="yellow" stroke-linecap="round" stroke-linejoin="round" stroke-width="0.5"><title>2025-02-12 10.1km</title><desc>1739334019000</desc></polyline><polyline fill="none" points="153.29613733908627,125.00706321769394 154.30329041491495,125.355491427792 158.0,125.38037912928849 154.4291845493717,125.40526682704512 152.71244635200128,124.63374647177989 149.3476394850295,124.40975602375693 148.61516452074284,125.81591330499214 148.39771101577207,125.85324475292873 143.9113018597709,123.8871104769787 142.70958512159996,123.11558310945111 139.5278969957726,121.62229420959193 134.0,120.75120285239245 139.3218884120579,121.48540872574085 141.09585121599957,122.16983502302901 143.3505007153144,123.26491126518522 144.48354792565806,124.06132584094303 148.3175965665141,125.79102566841175 148.6266094421153,125.67903125785233 149.09585121605778,124.55908302249736 149.38197424891405,124.39731210119498 151.44206008582842,124.62130256590899 152.4721030042856,124.55908302249736 154.3147353362292,125.31815986860602 157.85121602291474,125.36793527899135 153.0100143061718,125.0195070948539 153.06723891274305,125.36793527899135 152.9642346209148,124.9572876997845 152.55221745354356,124.77062937548908 149.38197424891405,124.44708778595668 149.15307582262903,124.57152693301032 148.52360515022883,125.91546381427906 144.20886981399963,124.06132584094303 143.41917024319991,123.42668328320724 141.96566523605725,122.72981808929762" stroke="#4DD2FF" stroke-linecap="round" stroke-linejoin="round" stroke-width="0.5"><title>2025-02-10 6.3km</title><desc>1739162078000</desc></polyline><polyline fill="none" points="164.83818948140834,122.3654634830018 166.28953637531959,122.40848013813957 172.83379146055086,123.3691829386662 174.83928898663726,123.28315004690376 175.01081180135952,123.94273457062081 175.76287337369286,123.98575087432982 176.64687557262369,124.31554221776605 177.25380245555425,123.4408769858419 182.6633681509411,123.34050531235698 182.95363752974663,123.84236315802264 183.29668315924937,123.92839580058353 183.52098222466884,123.79934682235762 183.74528129008831,123.19711711685522 184.77441817848012,123.12542297916661 188.66666666668607,123.61294259042188 185.01191130658844,123.11108414841874 183.70569910207996,123.18277829143335 183.45501191128278,123.79934682235762 183.2307128458633,123.9140570294694 182.6633681509411,123.32616649757256 177.3197727689403,123.41219937015558 176.93714495142922,123.67029775789706 176.6732636980596,124.3298809590633 175.07678211468738,123.95707333962491 175.07678211468738,123.39786056072626 174.90525930002332,123.25447240781796 172.96573208720656,123.35484412603546 166.83049294480588,122.45149678364396 164.66666666668607,122.3511245958216 166.54022356605856,122.4228190210124 172.54352208174532,123.32616649757256 174.81290086125955,123.25447240781796 174.99761773867067,123.92839580058353 176.66006963531254,124.31554221776605 177.05589151551249,123.56992620365054 177.3989371448988,123.41219937015558 182.6105919003021,123.32616649757256 182.98002565512434,123.85670193443366 183.24390690855216,123.9140570294694 183.52098222466884,123.74199169324129 183.62653472606326,123.26881122788473 183.95638629281893,123.1397618088522 188.38959135051118,123.56992620365054 185.19662818399956,123.11108414841874 183.90361004212173,123.11108414841874 183.54737035004655,123.29748886487505 183.32307128462708,123.9140570294694 183.05919003114104,123.85670193443366 182.65017408831045,123.29748886487505 177.2669965182431,123.39786056072626 176.95033901405986,123.64162017627677 176.68645776063204,124.31554221776605 175.06358805205673,123.94273457062081 174.90525930002332,123.19711711685522 172.75462708447594,123.28315004690376 166.13120762322797,122.33678570759366 164.97013010812225,122.37980236910516 166.15759574854746,122.3654634830018 173.34835990471765,123.3835217502492 174.8788711745874,123.25447240781796 175.02400586404838,123.94273457062081 176.05314275244018,124.07178345300781 175.07678211468738,123.92839580058353 174.81290086125955,123.2114559411857 172.8205973978038,123.29748886487505 166.73813450615853,122.40848013813957 165.11526479752501,122.37980236910516 166.8568810702418,122.45149678364396" stroke="#4DD2FF" stroke-linecap="round" stroke-linejoin="round" stroke-width="0.5"><title>2025-01-25 9.9km</title><desc>1737761473000</desc></polyline><polyline fill="none" points="11.653333333262708,148.82629531552084 19.479999999923166,149.956532981465 21.74666666664416,149.85510166347376 21.733333333337214,150.7824717508338 22.61333333334187,150.8259421155235 23.373333333292976,151.17370468447916 24.013333333306946,150.23184629305615 29.466666666558012,150.10143477281963 29.973333333269693,150.7390013764525 30.306666666583624,150.63757046523097 30.399999999965075,150.10143477281963 30.613333333283663,149.9420427964069 35.33333333331393,150.39123803275288 31.653333333320916,149.89857223477156 30.49333333323011,150.00000353016367 30.13333333330229,150.7245112495002 29.839999999967404,150.63757046523097 29.71999999997206,150.20286596276856 29.466666666558012,150.08694459852995 24.039999999920838,150.18837579600222 23.77333333325805,150.33327741519315 23.453333333309274,151.14472449407913 21.82666666660225,150.75349150229886 21.706666666606907,150.02898389061738 19.85333333327435,150.15939545923902 12.586666666611563,149.10161022195825 11.33333333331393,149.11610046941496 12.959999999962747,149.15957120536768 19.43999999994412,150.13041511819756 21.51999999996042,150.01449371092895 21.69333333329996,150.1738856281736 21.69333333329996,150.68104086221138 23.373333333292976,151.14472449407913 23.999999999941792,150.20286596276856 29.453333333251067,150.08694459852995 29.786666666623205,150.63757046523097 30.093333333323244,150.7245112495002 30.66666666662786,149.9275526102865 34.533333333267365,150.23184629305615 30.77333333331626,149.8840820454352 30.399999999965075,150.00000353016367 30.33333333331393,150.56511978209892 30.093333333323244,150.69553099237964 29.453333333251067,150.04347406919987 24.066666666651145,150.18837579600222 23.720000000030268,150.40572818444343 23.41333333333023,151.11574429935717 21.813333333295304,150.7245112495002 21.613333333283663,149.9855133483652 19.839999999967404,150.14490528924216 12.71999999997206,149.08711997341015 11.626666666648816,149.13059071578027 12.85333333327435,149.10161022195825 14.559999999939464,149.37692473988864" stroke="#4DD2FF" stroke-linecap="round" stroke-linejoin="round" stroke-width="0.5"><title>2025-01-19 8.1km</title><desc>1737283232000</desc></polyline><polyline fill="none" points="45.17234936938621,147.8183071721578 47.178888369875494,148.09864064452995 48.030826716450974,148.53742250650248 48.65857076126849,148.54961087476113 51.64035497425357,150.10971451425576 52.01027557213092,150.4509852022311 55.65343297517393,152.01107071024308 56.471742176509,152.52297052612994 56.69593647826696,152.38890168149373 57.177954226965085,151.25540615002683 57.49182624934474,151.07258355464728 60.439981317089405,151.21884164729272 62.32321345160017,151.88918956561247 66.0,151.98669448857254 62.2447454459616,151.88918956561247 60.540868752868846,151.19446530760615 57.5366651097429,151.04820719316194 57.189163942064624,151.18227713640954 56.68472676310921,152.38890168149373 56.52779075194849,152.4620301558316 52.48108360578772,150.7678787750192 48.52405418024864,148.57398760854267 48.21018215781078,148.59836433870078 47.268566090555396,148.18395943210635 44.69033162074629,147.94019134961127 42.0,147.42827719399065 47.43671181687387,148.22052461313433 48.58010275568813,148.561799242103 52.68285847728839,150.80444337853987 55.642223260132596,152.02325881972502 56.370854740729555,152.54734666785225 56.67351704806788,152.4498420790478 57.166744511865545,151.32853513098962 57.5366651097429,151.1335244424845 60.61933675844921,151.279782480633 62.35684259689879,151.91356580180582 66.0,152.01107071024308 62.33442316669971,151.98669448857254 60.496029892528895,151.29197064458276 57.52545539464336,151.1335244424845 57.211583372205496,151.279782480633 56.68472676310921,152.4864063066634 56.281177020049654,152.49859438071144 51.80850070057204,150.4509852022311 48.62494161602808,148.63492942713492 48.22139187291032,148.65930614818353 47.347034096193966,148.24490139597037 42.04483886028174,147.46484254395182 47.56001868285239,148.23271300501074 48.176553012570366,148.58617597406555 48.53526389528997,148.54961087476113 52.67164876224706,150.816631577909 56.53900046704803,152.57172280600935 57.25642223254545,151.23102981578268 58.4558617467992,151.23102981578268 57.402148528723046,151.21884164729272 56.68472676310921,152.51078245385725 56.348435310588684,152.4620301558316 51.77487155533163,150.4509852022311 48.59131247078767,148.6227410652209 48.266230733308475,148.6471177881176 47.369453526393045,148.23271300501074 44.85847734694835,147.94019134961127" stroke="yellow" stroke-linecap="round" stroke-linejoin="round" stroke-width="0.5"><title>2025-01-17 12.3km</title><desc>1737088953000</desc></polyline><polyline fill="none" points="75.0936329587712,147.70935502290376 75.25093632959761,147.44058157101972 75.93632958800299,147.8926093965565 79.12734082399402,148.52788963963394 80.92509363294812,149.4563717214187 81.62172284640837,150.00612837077642 87.12734082399402,152.54720182478195 87.34082397003658,152.4006025034614 87.8127340823412,151.28888671851018 88.10486891382607,151.0934194278234 91.23970037448453,151.28888671851018 92.95880149811273,151.92415380418242 96.65543071157299,151.9852370481094 93.03745318349684,151.92415380418242 91.10486891382607,151.28888671851018 88.19475655432325,151.14228627234115 87.85767790261889,151.26445331993455 87.3295880149235,152.4861187901406 87.18352059926838,152.5349852196814 83.08239700377453,150.775784583544 79.16104868910043,148.564540347812 77.86891385773197,148.23468367944588 72.66666666668607,147.50166648514278 77.76779026217991,148.18581596843433 78.83520599250915,148.564540347812 79.13857677904889,148.52788963963394 83.5318352059694,150.9468188069004 86.20599250931991,151.99745369415905 87.00374531833222,152.51055200674455 87.30711610487197,152.43725234609155 87.79026217228966,151.2766700196662 88.12734082399402,151.10563614031707 91.12734082399402,151.28888671851018 92.93632958800299,151.91193715264671 96.66666666668607,151.96080375328893 92.99250936327735,151.91193715264671 91.22846441942966,151.33775350476208 88.20599250937812,151.11785285193764 87.85767790261889,151.28888671851018 87.21722846443299,152.55941842896573 83.26217228459427,150.86130171752302 79.19475655426504,148.62562484318914 78.64419475657633,148.60119104776822 78.04868913855171,148.25911752948014 74.05992509366479,147.68492109092767" stroke="#4DD2FF" stroke-linecap="round" stroke-linejoin="round" stroke-width="0.5"><title>2025-01-15 9.1km</title><desc>1736916504000</desc></polyline><polyline fill="none" points="105.42564102564938,147.34791047594626 105.58228438231163,147.61555666571076 106.13053613057127,147.94403093530855 108.87179487181129,148.3941612686176 110.35990675992798,148.8807872600737 112.12773892772384,150.0365181775269 117.710955710907,152.59126275926246 117.95710955711547,152.53043597175565 118.427039627044,151.43554992295685 118.80745920742629,151.22873728943523 121.8955710955197,151.42338448115333 123.58508158504264,152.09248243314505 127.33333333331393,152.17764015763532 123.54032634035684,152.12897860622616 121.8620046619908,151.45988080376992 118.79627039621118,151.22873728943523 118.427039627044,151.43554992295685 117.90116550109815,152.60342811403098 117.55431235430297,152.60342811403098 113.8843822843628,150.973262498228 109.82284382288344,148.7104683280195 109.58787878789008,148.783462177802 108.1668997668894,148.33333291769668 103.33333333331393,147.6520538393961 107.3836829836946,148.13868204252503 109.80046620051144,148.67397139090463 113.41445221443428,150.66912532088463 117.77808857808122,152.65208952405374 118.03543123538839,152.50610525043157 118.56130536133423,151.2773991091235 119.70256410253933,151.30173001352523 118.59487179486314,151.32606091430353 117.86759906756924,152.6399241729232 113.60466200462542,150.90026962732372 109.88997668999946,148.7347996148892 108.58088578085881,148.357664260795 105.05641025642399,147.87103671029035" stroke="#4DD2FF" stroke-linecap="round" stroke-linejoin="round" stroke-width="0.5"><title>2025-01-14 7.8km</title><desc>1736829619000</desc></polyline><polyline fill="none" points="137.28186046512565,147.9791553395189 137.0920930232969,147.71213237859774 137.53860465117032,147.76068204040348 141.28930232557468,148.9622815597104 143.59999999997672,150.1031860318035 144.6269767442136,150.81928156597132 148.34418604651,152.51847871261998 148.58976744185202,152.44565634126775 149.0920930232387,151.30476827337407 149.4158139534411,151.11057376401732 152.44093023252208,151.30476827337407 153.89209302328527,151.89948751835618 154.9302325581666,152.0329956219066 158.0,152.0329956219066 154.10418604651932,151.93589883018285 152.45209302328294,151.30476827337407 149.44930232560728,151.09843659948092 149.12558139534667,151.23194535948278 148.60093023255467,152.44565634126775 148.28837209305493,152.45779340542504 144.54883720929502,150.84355593568762 141.1330232558539,148.97441888335743 139.4139534883434,148.25831523980014 134.0,147.49365872138878 139.48093023255933,148.28258999112586 141.1330232558539,148.90159492778184 144.1246511627687,150.5886748731573 148.31069767440204,152.4820675309893 148.57860465120757,152.40924514336803 149.02511627908098,151.31690542251454 149.34883720934158,151.11057376401732 152.54139534884598,151.31690542251454 154.21581395348767,151.94803593230608 157.88837209303165,152.04513271682663 154.13767441862728,151.91162462320062 152.4632558139274,151.28049397237191 149.33767441863893,151.09843659948092 149.0697674418334,151.25621966771723 148.5451162790996,152.4820675309893 148.1209302325733,152.44565634126775 147.55162790697068,152.05726981081534 144.39255813951604,150.7950071926316 140.41860465117497,148.5496120169846 139.22418604651466,148.22190310600854 134.04465116281062,147.48152128739457 140.44093023258029,148.5374746616726 144.41488372092135,150.72218405087187 147.58511627907865,152.0329956219066 148.3218604651629,152.5063416530029 148.57860465120757,152.43351927617914 149.0697674418334,151.24408251406567 149.38232558139134,151.09843659948092 152.385116279067,151.25621966771723 153.93674418603769,151.8752133059752 154.87441860465333,151.972310133875 153.89209302328527,151.8752133059752 152.35162790695904,151.25621966771723 149.40465116279665,151.06202510051662 149.0920930232387,151.20767104763945 148.58976744185202,152.38497100690438 148.18790697673103,152.39710807557276 147.1497674418497,151.82666487029928 144.41488372092135,150.7707328156539 140.4074418604141,148.5496120169846 138.8669767442043,148.16121619830665" stroke="yellow" stroke-linecap="round" stroke-linejoin="round" stroke-width="0.5"><title>2025-01-10 13.0km</title><desc>1736482744000</desc></polyline><polyline fill="none" points="166.96573208726477,147.29903459839988 168.06479750783183,148.04287764155015 169.97133956389735,148.40870084882772 171.8442367601674,149.12815077111009 173.8741433022078,150.33535624716023 179.12274143309332,152.70096540160012 179.3694704050431,152.50586490922433 179.4704049844877,151.4328080443811 179.61619937699288,151.24989992252085 183.14890965737868,151.48158350902668 184.99937694711844,152.16443848800554 188.6105919003603,152.2497951600526 184.84236760128988,152.12785704349517 183.14890965737868,151.49377737291798 179.683489096642,151.23770604048332 179.45919003122253,151.49377737291798 179.3694704050431,152.55464005410613 179.12274143309332,152.70096540160012 175.10778816207312,150.99382820852043 171.16012461064383,148.78671730398491 169.92647975083673,148.40870084882772 164.66666666668607,147.67705361657136 170.21806853590533,148.43308903356956 170.76760124613065,148.73794103624823 171.14890965732047,148.73794103624823 175.17507788166404,150.94505259848665 178.95451713399962,152.6521903002722 179.33582554518944,152.55464005410613 179.44797507795738,151.44500191192492 179.64984423684655,151.26209380365617 183.14890965737868,151.49377737291798 185.08909657323966,152.16443848800554 188.66666666668607,152.21321373463434 184.78629283496412,152.11566322682484 183.13769470411353,151.44500191192492 179.69470404990716,151.26209380365617 179.50404984428314,151.38403256519814 179.492834891018,152.2497951600526 179.2012461060076,152.68877162761055 175.02928348915884,150.95724650238117 171.18255451717414,148.77452323843318 169.84797507792246,148.40870084882772 164.66666666668607,147.64047116911388 168.59190031152684,148.14043057677918 171.10404984431807,148.71355289693747 174.79376947047422,150.77433784907043 178.97694704058813,152.6521903002722 179.29096573218703,152.56683383803465 179.5376947041368,151.9571435276448 179.29096573218703,152.6278027442022 178.79750778822927,152.55464005410613 175.09657320880797,150.96944040531525 171.16012461064383,148.7013588259142 170.9021806854289,148.762329171921 170.03862928354647,148.34773037105333 168.61433021817356,148.1892070225731" stroke="yellow" stroke-linecap="round" stroke-linejoin="round" stroke-width="0.5"><title>2025-01-08 12.0km</title><desc>1736310892000</desc></polyline><polyline fill="none" points="13.891538101888727,175.19052171132353 14.228143992484547,174.6537302101351 14.273024777881801,174.12913681555074 14.486208508606069,173.94613872436457 14.73305282840738,173.99493823533703 14.62085086479783,174.08033734456694 15.709209911117796,174.49513238437066 16.2702197288163,174.95872559712734 18.570359981269576,175.76391068920202 22.385226741433144,177.82565446702938 25.81860682554543,179.35059618231026 26.043010752589907,179.13100545048655 26.07667134166695,178.11844437784748 26.390836839622352,177.9110515784414 29.82421692373464,178.15504307992524 31.619448340323288,178.83821735002857 35.33333333331393,178.91141442423395 31.59700794762466,178.8138183180563 29.869097709131893,178.17944221005018 26.3459560542251,177.94765032682335 26.110331930743996,178.19164177375205 26.07667134166695,179.13100545048655 25.88592800369952,179.387194608993 21.67835437116446,177.59386208301294 17.829827021923847,175.43451726646163 17.403459560475312,175.43451726646163 16.618045815790538,175.0563240009942 11.33333333331393,174.38533379961154 16.775128564739134,175.166122135779" stroke="#4DD2FF" stroke-linecap="round" stroke-linejoin="round" stroke-width="0.5"><title>2025-01-06 5.2km</title><desc>1736137119000</desc></polyline><polyline fill="none" points="45.10654205607716,174.825389009653 45.16261682246113,174.36201160062046 45.53271028044401,173.81327349842468 45.801869158865884,174.76441837289894 45.42056074767606,175.02049489464844 46.12710280372994,174.98391255893512 48.4598130841041,175.5448408080556 51.62242990656523,177.03251076705055 52.21682242990937,177.55685023468686 56.47850467287935,179.44689716659195 56.73644859815249,179.28837793978164 56.78130841127131,178.26409615809098 56.994392523367424,178.0689941396413 60.68411214958178,178.32506549116806 62.45607476634905,178.9957266561978 66.0,179.05669571677572 62.31028037384385,178.97133902563655 60.56074766354868,178.2884838940663 57.039252336428035,178.0689941396413 56.82616822433192,178.25190228877182 56.747663551417645,179.28837793978164 56.52336448599817,179.50786605912435 52.497196261712816,177.8495040908747 49.20000000001164,175.9838267924788 47.5401869158959,175.31315328602795 42.0,174.44737069560506 45.768224299070425,174.91074786294485 48.437383177632,175.50825858955795 51.8242990654544,177.386135243607 55.73831775697181,179.09327714219398 56.34392523363931,179.5200598349038 56.72523364488734,179.2517965579318 56.82616822433192,178.19093292842444 56.98317757004406,178.03241248527775 59.47289719624678,178.32506549116806 60.56074766354868,178.26409615809098 62.36635514016962,178.95914520896622 65.98878504673485,179.02011428315018 62.063551401894074,178.89817611206672 60.493457943957765,178.2884838940663 57.0728971962817,178.03241248527775 56.82616822433192,178.21532067529915 56.79252336447826,179.21521516794746 56.54579439252848,179.4590909469407 52.55327102803858,177.8373101906618 49.22242990654195,175.91066254349425 47.84299065422965,175.3863178021129 42.1457943925634,174.50834145046247" stroke="#4DD2FF" stroke-linecap="round" stroke-linejoin="round" stroke-width="0.5"><title>2025-01-03 9.5km</title><desc>1735878536000</desc></polyline><polyline fill="none" points="75.0610460579046,174.33827911291155 76.46619828266557,174.72940490263863 78.0736924278317,174.87607683335955 78.84933645598358,175.26720134085917 79.14160811871989,175.23053345788503 82.48024980491027,177.07614005838695 86.96549570653588,179.14172812171455 87.30273224052507,179.08061642215762 87.76362217025599,177.96837951293855 88.10085870424518,177.77282059568097 91.11350507423049,177.9561570874357 92.90085870423354,178.62838913789892 96.66666666668607,178.73839048392256 93.18188914918574,178.64061151332862 91.24839968775632,178.01726920584042 88.12334113981342,177.83393278233416 87.76362217025599,178.0294916267885 87.16783762694104,179.19061746497755 82.80624512105715,177.3572571224213 79.13036690093577,175.3038692156406 78.83809523819946,175.32831446091586 77.93879781430587,174.90052214240131 76.66854020307073,174.8394088629575 72.66666666668607,174.14271586833638 78.02872755669523,174.888299488317 79.61373926629312,175.63387971972406 78.1298985168687,174.92496744779055 74.836221701873,174.423837959097" stroke="#4DD2FF" stroke-linecap="round" stroke-linejoin="round" stroke-width="0.5"><title>2025-01-02 5.6km</title><desc>1735817809000</desc></polyline><polyline fill="none" points="106.10342679126188,174.4351754779782 108.77258566976525,174.8741636210616 109.5576323987334,175.28876245283755 110.3090342679061,175.42289714413346 114.39127725857543,177.66658840933815 117.8342679127818,179.15423631308659 118.12585669779219,178.8493915325671 118.45109034265624,178.03240472120524 118.84361370716942,177.83730278995063 121.72585669782711,177.93485378465266 123.8342679127818,178.7030658362928 127.33333333331393,178.72745346141164 125.96510903420858,178.81281012076943 123.63239875389263,178.66648439178243 121.88286604359746,177.98362926021218 118.85482866043458,177.81291503219109 118.50716510904022,177.9470476549177 117.99127725861035,179.10546118632192 117.80062305298634,179.19081764855946 112.30529595015105,176.77643196846475 109.78193146415288,175.28876245283755 109.42305295955157,175.31315058672044 108.64922118379036,174.92294000873517 103.33333333331393,174.1303219080437 108.24548286607023,174.81319311606057 109.51277258567279,175.26437431533122 109.78193146415288,175.19120988102804 113.3819314641878,177.21541383200383 117.80062305298634,179.20301142527023 118.54080996883567,177.91046604144503 118.84361370716942,177.78852727080812 119.6959501557285,177.89827216844424 118.51838006230537,177.88607829457032 117.99127725861035,179.081073617519 117.78940809966298,179.14204253273783 113.71838006231701,177.42271041385538 109.95015576324658,175.32534465227218 109.44548286602367,175.28876245283755 108.54828660434578,174.88635771935515 107.58380062301876,174.92294000873517 103.66978193144314,174.16690436644421 106.13707165111555,174.63028146470606" stroke="#4DD2FF" stroke-linecap="round" stroke-linejoin="round" stroke-width="0.5"><title>2024-12-31 8.0km</title><desc>1735619151000</desc></polyline><polyline fill="none" points="137.34205607482,174.60589338264253 138.1607476635836,174.63028161642433 140.50467289728113,175.17901591629197 141.87289719632827,175.91065878758673 142.26542056078324,176.31306097266497 148.54579439258669,179.1542361277534 149.14018691593083,177.9958230277989 149.47663551406004,177.812914946815 152.5831775701372,177.98362916208862 154.130841121485,178.60551515495172 157.98878504679305,178.70306568456 154.2766355141066,178.66648424278537 152.5607476636069,177.9958230277989 149.4878504673834,177.812914946815 149.16261682251934,177.95924142793228 148.4897196262027,179.2030112363136 144.69906542060198,177.58123108409927 141.26728971966077,175.6911662696075 139.27102803741582,174.8985519484413 134.0,174.13032209700032 138.23925233649788,174.67905807311763 140.47102803742746,175.1912099909532 144.69906542060198,177.48367988593236 148.38878504675813,179.19081746053416 148.66915887850337,179.08107343765732 149.14018691593083,177.98362916208862 149.52149532712065,177.77633330607205 152.51588785054628,177.95924142793228 154.33271028043237,178.62990279281803 158.0,178.64209661037603 154.4672897196724,178.65429042704636 152.50467289722292,177.98362916208862 149.46542056073667,177.78852718720736 149.14018691593083,177.95924142793228 148.64672897203127,179.06887965278293 148.4672897196724,179.1542361277534 144.40747663553338,177.44709817161493 140.5607476636069,175.2887625554722 138.87850467296084,174.87416375460452 134.17943925235886,174.19129285187228 139.12523364491062,174.86196965632553 140.15700934582856,175.27656848808692 140.59439252340235,175.2277922094654 144.1607476635836,177.20321986726776 140.53831775701838,175.25218035059515 137.15140186919598,174.61808749997" stroke="yellow" stroke-linecap="round" stroke-linejoin="round" stroke-width="0.5"><title>2024-12-30 10.8km</title><desc>1735533491000</desc></polyline><polyline fill="none" points="168.0360696517746,174.56105247441155 170.23009950254345,174.92619323011604 170.84577114431886,175.27916185148933 171.15920398017624,175.24264789154404 171.79726368165575,175.51041674161388 174.53980099508772,177.0683358913957 178.99502487567952,179.1130822300329 179.31965174135985,179.12525326256582 179.7898009950295,177.96900112267758 180.15920398017624,177.76209198182914 183.10323383082869,177.95683000398276 184.86069651745493,178.63841125366162 188.66666666668607,178.69926658412442 185.00621890556067,178.63841125366162 183.2151741294074,177.9811722404702 180.11442786070984,177.786434247304 179.81218905479182,177.96900112267758 179.4203980099992,178.95485872446443 179.11815920402296,179.17393738367537 174.93159203982214,177.4091287249903 171.95398009958444,175.7051574478537 170.25248756224755,175.01139262235665 164.66666666668607,174.13505389454076 170.06218905479182,174.91402188474603 172.21144278609427,175.7051574478537 174.47263681597542,177.0683358913957 179.0845771144377,179.19827943878772 179.3084577114787,179.13742429419653 179.82338308461476,177.9811722404702 180.13681592041394,177.83511876733974 183.1927860697033,178.00551447329053 184.87189054733608,178.6505823215557 188.63308457715902,178.6870955198101 187.4912935323664,178.78446400865505 184.92786069656722,178.6505823215557 183.18159203982214,177.95683000398276 180.1480099502951,177.786434247304 179.83457711449591,177.92031664251408 179.31965174135985,179.10091119655408 178.98383084579837,179.14959532493958 175.3569651741418,177.56735372752883 174.17039800994098,176.8370832065848 170.23009950254345,174.96270726081275 165.23756218905328,174.2567678878695" stroke="#4DD2FF" stroke-linecap="round" stroke-linejoin="round" stroke-width="0.5"><title>2024-12-27 9.1km</title><desc>1735273142000</desc></polyline><polyline fill="none" points="30.634267912711948,204.77833147179626 29.75950155762257,204.53445422122604 28.828660436091013,204.64419902894588 26.641744548280258,204.4369032192917 25.867912772577256,205.82699950879032 21.79688473517308,204.16863766407187 17.759501557564363,201.9493330246769 17.434267912758514,201.98591521321214 16.55950155761093,201.59570478061505 11.33333333331393,200.7665045222675 14.98940809967462,201.3518227878085 15.348286604392342,201.29085223282163 17.916510903451126,201.93713896001282 20.7763239875203,203.37603231877438 21.20249221182894,203.76623850688338 25.621183800627477,205.7904181787162 25.946417445433326,205.76603062082722 26.39501557627227,204.64419902894588 26.753894080989994,204.42470933993172 29.849221183743794,204.61981130027561 31.744548286602367,205.3270539570367 35.33333333331393,205.42460442851007 31.37445482861949,205.25389106529474 29.983800623042043,204.6563928919204 26.742679127666634,204.4369032192917 26.507165109040216,204.51006647618487 26.002492211875506,205.8026119563001 25.778193146397825,205.90016214437492 24.813707165129017,205.3270539570367 21.662305295933038,204.08328034976148 17.97258566977689,201.92494489446108 15.438006230513565,201.3518227878085 12.78006230527535,200.99819325268618" stroke="#4DD2FF" stroke-linecap="round" stroke-linejoin="round" stroke-width="0.5"><title>2024-12-25 6.6km</title><desc>1735101299000</desc></polyline><polyline fill="none" points="44.49204864358762,200.9776990821847 44.40224508882966,201.19739880764973 44.54817586526042,201.1485766718979 44.7614593077451,200.7946157525148 45.44621141254902,201.27063198399264 46.20954162767157,201.30724855988228 48.55565949488664,201.90531814098358 52.70907390082721,204.17552157482714 56.52572497661458,205.82323017148883 56.68288119742647,205.81102498354448 57.1543498596875,204.6515279826417 57.50233863428002,204.46844875869283 60.510757717478555,204.63932270740042 62.45275958842831,205.37163761195552 66.0,205.4326637062768 62.28437792335171,205.3350219444692 60.39850327413296,204.62711743128602 57.40130963525735,204.48065404663794 57.1543498596875,204.6027068762487 56.64920486439951,205.7499990301585 56.447146866237745,205.78661460492003 52.304957904620096,204.07787906379963 49.195509822282474,202.27148211297754 47.43311506079044,201.5635643620044 42.0,200.806821314196 43.84097287181066,201.08754898174084 44.71655753039522,201.063137899313 47.8035547240288,201.6734138687316 49.20673526660539,202.22266029733873 53.05706267536152,204.34639582906675 56.34611786715686,205.81102498354448 56.694106641749386,205.77440941425448 57.25537885876838,204.52947518939618 58.40037418145221,204.52947518939618 57.28905519179534,204.49285933369538 56.63797942001838,205.87205091415672 52.59681945742341,204.1999321934709 50.41908325534314,202.91836979678192 47.54536950419424,201.64900287358614 42.03367633296875,200.81902687497495 46.64733395696385,201.4781258058647" stroke="#4DD2FF" stroke-linecap="round" stroke-linejoin="round" stroke-width="0.5"><title>2024-12-18 8.3km</title><desc>1734495982000</desc></polyline><polyline fill="none" points="75.19651741301641,199.98014667951793 74.78233830851968,200.07751889714564 74.92786069656722,199.95580361601606 74.78233830851968,200.05317584818113 74.69278606964508,199.91928901398205 74.73756218911149,200.04100432233827 75.64427860698197,200.6739224637713 77.62562189059099,201.55026661105512 78.09577114431886,202.2927211682254 78.62189054727787,202.7065468338551 79.20398009952623,202.79174610547489 83.31218905473361,205.00691157142865 87.02860696526477,206.67435147649667 87.29726368159754,206.68652250811283 87.82338308467297,205.51809933659388 88.14800995029509,205.33553246123483 91.25995024881558,205.53027045438648 93.21890547272051,206.21185160249297 96.66666666668607,206.27270692386082 92.91666666668607,206.21185160249297 91.25995024881558,205.54244157124776 88.09203980112216,205.34770359257527 87.76741293538362,205.53027045438648 87.20771144283935,206.7352066255844 81.71144278615247,204.43486622345517 81.3308457711828,204.05755862106162 79.95398009958444,203.27859823372273 78.29726368165575,202.62134751780832 72.66666666668607,201.70849491437548 78.01741293532541,202.4144347081019 78.95771144283935,202.82826006542018 79.15920398017624,202.76740346095175 83.35696517420001,205.05559618938423 86.24502487562131,206.19968053548655 87.03980099508772,206.68652250811283 87.34203980106395,206.6134963046934 87.90174129355,205.44507261092076 89.06592039804673,205.40855923587515 87.9689054726623,205.4815859778464 87.38681592047215,206.74737765270402 86.88308457715902,206.7108645686967 83.08830845775083,205.079938492956 82.04726368165575,204.3983526226075 78.2636815920705,202.56049083627295 72.75621890550246,201.79369470651727 78.09577114431886,202.4387774052011" stroke="#4DD2FF" stroke-linecap="round" stroke-linejoin="round" stroke-width="0.5"><title>2024-12-17 8.6km</title><desc>1734409492000</desc></polyline><polyline fill="none" points="106.29269811609993,201.12726262031356 108.69157714460744,201.50510344377835 109.56593492132379,201.91950850475405 109.85738751362078,201.83418990155042 114.01619181066053,204.125588366398 117.7938657947816,205.7587995975482 117.99564066628227,205.7344234303746 118.51128756027902,204.5277986155852 118.79153043747647,204.36935227182403 122.04234781250125,204.6009276455443 123.66775650007185,205.2225230806216 127.33333333331393,205.28346368244092 126.97462245047791,205.40534481797658 123.6565467849723,205.28346368244092 121.73968550516292,204.57655130585772 118.8587887280155,204.45466955289885 118.42160983959911,204.72280928955297 117.93959209090099,205.7587995975482 117.74902693444164,205.81973999961338 114.35248326323926,204.38154045754345 109.79012922308175,201.94388524035458 109.19601432350464,201.8707550226536 108.56827027868712,201.50510344377835 103.33333333331393,200.7859862877085 108.64673828426749,201.49291504373832 109.39778919500532,201.89513176554465 109.8349680834217,201.85856664986932 113.98256266542012,204.11340016160102 117.71539778914303,205.74661151441978 118.02926981158089,205.72223534539808 118.41040012449957,204.68624480588187 118.79153043747647,204.3937286423752 122.07597695779987,204.6009276455443 123.63412735477323,205.2225230806216 127.2660750427749,205.32002803261275 123.83590222633211,205.28346368244092 121.87420208624098,204.57655130585772 118.78032072237693,204.4302931914135 118.50007784523768,204.5643631346611 117.91717266076012,205.81973999961338 113.90409465978155,204.17434117653465 109.80133893818129,201.94388524035458 108.80367429548642,201.59042221862182 103.46784991433378,200.81036319224222 108.6243188540684,201.50510344377835 109.40899891016306,201.89513176554465 109.89101665886119,201.90732013559318 114.4533706990187,204.33278770915058 117.71539778914303,205.7831757610984 118.02926981158089,205.7344234303746 118.41040012449957,204.4912340883311 119.71072707459098,204.51561044073605 118.52249727537856,204.53998678948847 117.96201152104186,205.880680378963 113.87046551454114,204.1621529753611 109.84617779846303,201.9316968730127 109.48746691574343,201.94388524035458 108.60189942386933,201.5172918429016 103.46784991433378,200.85911699035205 108.52343141828896,201.49291504373832" stroke="yellow" stroke-linecap="round" stroke-linejoin="round" stroke-width="0.5"><title>2024-12-15 13.0km</title><desc>1734235831000</desc></polyline><polyline fill="none" points="136.37313432834344,200.8808344816207 136.37313432834344,201.01471980944916 137.38059701491147,201.31900423728803 138.73507462686393,201.5989454103401 139.44029850745574,201.55026002338855 140.12313432834344,201.9397427126387 140.51492537307786,201.9519140317134 145.14925373136066,204.42267302796245 148.473880597041,205.8345185349899 148.68656716420082,205.8223475051782 149.1343283582246,204.7391222196893 149.47014925372787,204.5200420753099 152.55970149260247,204.67826665351458 154.3395522388164,205.3598477000487 158.0,205.43287407212483 154.2723880597041,205.3598477000487 152.64925373136066,204.69043776854232 149.41417910455493,204.47135755888303 149.10074626863934,204.61741106465342 148.56343283579918,205.85886059189215 144.6567164179287,204.26444820224424 141.01865671639098,202.23185412016755 139.3619402985205,201.58677406495553 134.0,200.8078060747648 136.8432835820131,201.09991950637777 139.3619402985205,201.51374597368704 140.49253731343197,201.87888610367372 143.92910447757458,203.75325925651123 147.3656716417754,205.26247915321437 148.21641791047296,205.79800544280442 148.67537313431967,205.74932130718662 149.0895522388164,204.7391222196893 149.43656716420082,204.49569981894456 152.50373134331312,204.6295821842068 154.17164179106476,205.32333450177975 155.44776119402377,205.33550556880073 154.08208955224836,205.28682129534718 152.48134328360902,204.65392442069424 149.55970149254426,204.47135755888303 149.10074626863934,204.60523994415416 148.54104477615329,205.8101764744206 144.44402985071065,204.1427366935677 140.51492537307786,201.97625666712702 139.3395522387582,201.58677406495553 137.5708955223672,201.3676896931429" stroke="#4DD2FF" stroke-linecap="round" stroke-linejoin="round" stroke-width="0.5"><title>2024-12-13 8.5km</title><desc>1734064159000</desc></polyline><polyline fill="none" points="167.26279326085933,201.1515578738472 169.73421508423053,201.5090290729422 171.43473468744196,202.0390711533837 174.97181546216598,204.03595862543443 178.9283577389433,205.7862969591515 179.2457880648435,205.79862321978726 179.75594394584186,204.62762435915647 180.07337427180028,204.46738176519284 183.19099354435457,204.62762435915647 184.75547157926485,205.26859318316565 188.66666666668607,205.34255096463312 185.12958589202026,205.31789837447286 183.07762557076057,204.615298011282 179.99401669035433,204.45505540537124 179.66524956701323,204.56599261063093 179.29113525425782,205.62605548728607 179.01905211783014,205.872580764335 178.21413950558053,205.4165087130241 174.9604786647833,204.1468961116916 171.67280743189622,202.26094872933754 169.92694063927047,201.6569479638856 171.66147063451353,202.21164262706588 173.74744134786306,203.46894364524633 178.2368131002877,205.4041824238957 178.89434734685346,205.83560199619387 179.22311447013635,205.76164443511516 179.7332703511347,204.41807632044947 179.2004408754292,205.72466564217757 178.91702094161883,205.79862321978726 175.08518343564356,204.17154887628567 171.00393638800597,201.8788260523288 170.6071484805434,201.89115260407561 169.60951031337027,201.48437591160473 164.66666666668607,200.79408590233652" stroke="#4DD2FF" stroke-linecap="round" stroke-linejoin="round" stroke-width="0.5"><title>2024-12-11 6.6km</title><desc>1733890893000</desc></polyline><polyline fill="none" points="14.243445692874957,227.93536824117473 16.81647940078983,228.22857479119557 17.378277153533418,228.5584315332817 17.838951310899574,228.54621462873183 22.06367041199701,230.87962688047264 25.838951310899574,232.5166606838029 26.456928838975728,231.24612840544432 26.782771535567008,231.09952789376257 30.00749063672265,231.2949952135823 31.65917602996342,231.94247904629447 35.29962546820752,232.0279955878068 31.794007490680087,231.94247904629447 30.041198501887266,231.35607870323292 26.5468164794147,231.2094782898057 25.92883895128034,232.55331050731183 21.985018726612907,230.90406034096668 20.850187265954446,230.13440458693367 17.80524344573496,228.61951604232308 17.55805243452778,228.68060052861983 16.59176029963419,228.2896594231279 11.445692883920856,227.5566423380369 15.715355805237778,228.04532075887255 17.80524344573496,228.5339977232943 20.749063670402393,229.98780308134155 21.973782771558035,230.80632647719176 25.7490636704606,232.4922274635901 25.985018726612907,232.40671116417798 26.47940074908547,231.31942861215794 26.782771535567008,231.09952789376257 28.749063670402393,231.2949952135823 29.749063670402393,231.2094782898057 31.715355805237778,231.95469569783018 35.33333333331393,232.01577894175716 31.524344569304958,231.93026239388564 29.985018726671115,231.31942861215794 26.760299625515472,231.1117446080898 26.47940074908547,231.2216949959402 26.086142322106753,232.32119482014969 25.87265917606419,232.50444407416217 22.367041198536754,231.03844430853496 20.2659176029847,229.78011739076464 17.782771535625216,228.5584315332817 15.985018726612907,228.1064054590679 11.33333333331393,227.4466894926736 17.07490636705188,228.27744249856914 25.569288389524445,232.43114439710916 25.985018726612907,232.3578446872998 26.47940074908547,231.08731117851858 26.00749063672265,232.40671116417798 25.771535580512136,232.45557762644603 22.108614232216496,230.90406034096668 17.81647940078983,228.52178081692546 13.895131086173933,227.86206652173132" stroke="yellow" stroke-linecap="round" stroke-linejoin="round" stroke-width="0.5"><title>2024-12-09 12.1km</title><desc>1733738831000</desc></polyline><polyline fill="none" points="51.98680490104016,230.4611710250756 56.49952874646988,232.5025203214609 57.01979264843976,231.3219840474776 57.426955702132545,231.1006325561757 60.34495758713456,231.22360564353585 62.120640904817265,231.92455049220007 66.0,232.05982020810188 62.4938737040502,231.9860367404326 60.5372290291707,231.30968675017357 57.4608859566506,231.14982180212974 57.07634307257831,231.27279485286272 56.52214891614858,232.5271147374151 52.94816211122088,231.0391459781822 48.401508011331316,228.57966407538333 47.994344957580324,228.59196157607948 47.47408105561044,228.24763121081924 44.25070688035339,227.81721724411182 43.8435438266024,227.6204561997729 43.651272384566255,227.78032456614892 42.23751178139355,227.5589683253056 45.58529688976705,227.9033001272328 48.401508011331316,228.53047406351834 51.36475023563253,229.99387064728944 52.20169651275501,230.60873929059017 56.329877474112436,232.5025203214609 56.60131950984942,232.3918454044324 57.07634307257831,231.24820025004738 57.33647502353415,231.05144329559698 58.34307257301407,231.22360564353585 60.51460885955021,231.23590294724272 62.32422243169276,231.93684774369467 65.92082940618275,232.01063123330823 62.233741753094364,231.89995598648966 60.51460885955021,231.2604975518916 57.4156456173514,231.12522718102264 56.95193213952007,231.51874067942845 56.51083883130923,232.5271147374151 52.303487276192755,230.7071180609637 48.390197926491965,228.57966407538333 48.13006597547792,228.62885407258 46.67106503294781,228.14925097452942 42.0,227.47288526257034 46.88595664472086,228.14925097452942 48.02827521204017,228.56736657379952 48.458058435469866,228.55506907131348 49.917059377999976,229.35440482855483" stroke="#4DD2FF" stroke-linecap="round" stroke-linejoin="round" stroke-width="0.5"><title>2024-12-06 9.2km</title><desc>1733479157000</desc></polyline><polyline fill="none" points="75.10144927538931,227.8345657235186 78.15334268350853,228.200559901612 78.80411407200154,228.60315255263413 79.1631603553542,228.52995396241022 83.34829359519063,230.87229261911125 87.0060776064056,232.49483048330876 87.37634408607846,232.3850351951114 87.76905095839174,231.33587650646223 88.19541841984028,231.16508259538386 91.22487143526087,231.311477387193 92.9303412809968,231.958052818969 96.66666666668607,232.0800478971796 92.97522206645226,231.958052818969 91.20243104256224,231.34807606470713 88.13931743806461,231.15288302347471 87.74661056569312,231.39687428865 87.18560074805282,232.51922942625242 83.04534829361364,230.76249624307093 82.10285179992206,230.1159160907555 79.1743805516744,228.62755207542796 78.848994857457,228.65195159456925 78.02992052363697,228.26155885175103 72.66666666668607,227.48077057374758 78.02992052363697,228.24935906352766 79.71294997667428,228.95694527728483 79.21926133712986,228.62755207542796 75.11266947170952,227.8467655426648" stroke="#4DD2FF" stroke-linecap="round" stroke-linejoin="round" stroke-width="0.5"><title>2024-12-03 5.6km</title><desc>1733220329000</desc></polyline><polyline fill="none" points="106.46620046620956,227.95619527901 108.73752913746284,228.19950901799893 109.50955710950075,228.64963847931358 110.4941724941018,228.77129487748607 111.55710955709219,229.46473461620917 113.01165501156356,230.01218496142246 113.94032634026371,230.72995041108516 117.93473193468526,232.48177148238756 118.4382284382009,231.399050955064 118.8410256410134,231.13141106648254 121.8955710955779,231.30172740996932 123.775291375292,231.99515640319441 126.40466200467199,231.97082561117713 127.33333333331393,232.0438179763878 127.05361305357656,232.11681030894397 123.66340326337377,232.01948719158827 121.8955710955779,231.35038918978535 118.8298368297983,231.18007289702655 118.49417249416001,231.3382237461774 117.97948717948748,232.49393684079405 117.733333333279,232.51826755488582 113.59347319341032,230.74211590000778 111.35571095562773,229.46473461620917 108.63682983675972,228.2481717222836 103.33333333331393,227.5060639060248 108.82703962700907,228.22384037195297 110.41585081582889,228.95377930476388 108.61445221438771,228.28466874099104 103.35571095562773,227.48173244511418 106.60046620044159,227.9318638851546" stroke="#4DD2FF" stroke-linecap="round" stroke-linejoin="round" stroke-width="0.5"><title>2024-12-02 6.1km</title><desc>1733112856000</desc></polyline><polyline fill="none" points="134.0,226.69461105215305 134.71111111110076,226.9910061147093 136.34666666667908,229.18173647744698 136.2044444444473,229.03998417597904 136.51259259262588,229.02709759735444 136.91555555554805,228.53740689829283 138.38518518517958,228.75647922451026 138.93037037033355,229.11730362754315 140.0207407407579,229.3363752192381 141.19407407403924,230.07090735490783 142.61629629629897,230.6121395641385 143.36296296294313,231.26934782708122 147.62962962966412,233.2151851017261 147.9733333333861,233.2151851017261 148.49481481476687,232.0167581111018 148.83851851848885,231.84923539719603 152.1214814814739,232.0167581111018 154.148148148146,232.7383925623435 158.0,232.77705146586231 154.171851851861,232.76416516564495 152.1333333333023,232.04253082189825 148.87407407409046,231.8750081329781 148.51851851854008,232.0296444669657 147.8785185185261,233.3053889478324 143.8014814814669,231.591507828256 141.04000000003725,230.03224784659687 138.2785185185494,228.76936582328926 134.92444444447756,228.36988081452728" stroke="#4DD2FF" stroke-linecap="round" stroke-linejoin="round" stroke-width="0.5"><title>2024-11-29 4.6km</title><desc>1732853630000</desc></polyline><polyline fill="none" points="166.6992025518557,229.22590524991392 166.52695374807809,229.32579119112052 167.26188197772717,229.3382769295713 166.63030303036794,229.26336248486768 167.2044657097431,229.3133054517093 167.13556618819712,229.4881057185703 168.05422647530213,228.30195747145626 170.2130781499436,228.15212762195733 170.90207336528692,228.52670199453132 171.8781499202596,228.72647465088812 175.70207336527528,230.9114725334657 179.53748006379465,232.57205187242653 180.1116427432862,231.36095427928376 180.45614035089966,231.198641565672 183.71738437010208,231.36095427928376 185.37097288679797,232.03517463780008 188.66666666668607,232.0726312448678 185.43987240834394,232.0102035617747 183.47623604466207,231.32349751317815 180.41020733659388,231.14869916063617 180.13460925041,231.3110119225894 179.53748006379465,232.5595663748536 175.47240829351358,230.9114725334657 171.26953748014057,228.564159385729 170.0063795853639,228.17709927282704 164.66666666668607,227.42794812755892 170.12121212127386,228.15212762195733 170.82169059017906,228.51421619558823 171.55661881982815,228.6141025609686 174.5192982456647,230.18730496284843 170.08676236047177,228.202070919986 167.2044657097431,227.81500997077092" stroke="#4DD2FF" stroke-linecap="round" stroke-linejoin="round" stroke-width="0.5"><title>2024-11-28 6.3km</title><desc>1732767063000</desc></polyline><polyline fill="none" points="11.494407158810645,253.79883738211356 15.038031319912989,254.39722182210244 15.843400447396562,254.82046824906138 16.219239373574965,254.7912788696849 19.91051454137778,256.60101216757903 21.185682326555252,257.44749458417937 25.856823266192805,259.4907129340718 26.514541386975907,258.0750567733339 26.997762863524258,257.8123565666756 30.55480984330643,258.0020845290419 32.19239373598248,258.6880225522764 33.61521252786042,258.9215328207356 35.33333333331393,258.87774966658617 32.74272930645384,258.83396650268696 30.796420581580605,258.0750567733339 27.131991051428486,257.88532888168993 26.581655480898917,258.10424566343136 25.856823266192805,259.5344959512295 20.769574944046326,257.38911660386657 16.219239373574965,254.7912788696849 15.883668903785292,254.8642523100134 14.729306487657595,254.35343765675498 11.33333333331393,253.90100070860353" stroke="#4DD2FF" stroke-linecap="round" stroke-linejoin="round" stroke-width="0.5"><title>2024-11-25 4.0km</title><desc>1732507947000</desc></polyline><polyline fill="none" points="42.0,252.56182573272963 46.89245585876051,253.19012618499983 48.22150882834103,253.96502814197447 48.95345104346052,253.88125506043434 50.30176565016154,254.32106346002547 51.707865168573335,255.32633721805178 54.36597110761795,256.4782089794753 56.42696629220154,257.9023348139017 61.088282504002564,259.72436764114536 62.648475120426156,260.66679378018307 63.05296950251795,260.4992515863414 63.91974317817949,258.4677945412841 66.0,258.4259086745442 63.99678972712718,258.5306233297015 62.87961476726923,260.77150760059885 56.73515248799231,258.21647924730496 48.91492776887026,254.02785793672956 48.394863563473336,254.13257423018513 50.24398073845077,254.48860933602555 51.14927768858615,255.32633721805178 52.74799357948359,255.76614335668273 56.388443017727695,257.9442207586253 62.22471910121385,260.54113714414416 63.05296950251795,260.624908241065 63.91974317817949,258.4468516087509 62.995184590807185,260.77150760059885 56.831460674176924,258.1745933431812" stroke="#4DD2FF" stroke-linecap="round" stroke-linejoin="round" stroke-width="0.5"><title>2024-11-20 4.0km</title><desc>1732095798000</desc></polyline><polyline fill="none" points="74.06868472293718,254.0543905191298 77.61196671979269,254.5671519151947 78.46592317224713,254.9967617263319 79.05222163209692,255.05219517803926 82.32784563634777,256.67361633280234 83.1945477075642,257.3388106666971 87.8594441494206,259.4036695926625 88.07611966721015,259.37595351727214 88.59869003359927,258.1564421099174 88.98105859442148,257.8654211606772 92.52434059121879,258.0594351774489 94.38520092051476,258.80777306080563 96.66666666668607,258.89092152865487 94.34696406440344,258.82163114137074 92.32041069213301,258.04557704008766 89.05753230658593,257.8792793114553 88.52221632143483,258.2395908689068 88.02513719239505,259.4313856640074 83.28376703843242,257.477392520188 79.63852009200491,255.44022887764731 77.58647548244335,254.62258549498802 72.66666666668607,253.90194766933564" stroke="#4DD2FF" stroke-linecap="round" stroke-linejoin="round" stroke-width="0.5"><title>2024-11-19 4.1km</title><desc>1731989484000</desc></polyline></svg>