<?xml version="1.0" encoding="utf-8" ?>
<svg baseProfile="full" height="300mm" version="1.1" viewBox="0,0,200,300" width="200mm" xmlns="http://www.w3.org/2000/svg" xmlns:ev="http://www.w3.org/2001/xml-events" xmlns:xlink="http://www.w3.org/1999/xlink"><defs /><rect fill="#222222" height="300" width="200" x="0" y="0" /><text fill="#FFFFFF" style="font-size:12px; font-family:Arial; font-weight:bold;" x="10" y="20">Over 4km Runs</text><text fill="#FFFFFF" style="font-size:4px; font-family:Arial" x="10" y="280">ATHLETE</text><text fill="#FFFFFF" style="font-size:9px; font-family:Arial" x="10" y="290">Fake David</text><text fill="#FFFFFF" style="font-size:4px; font-family:Arial" x="65" y="280">SPECIAL TRACKS</text><rect fill="yellow" height="2.6" width="2.6" x="65" y="283" /><text fill="#FFFFFF" style="font-size:3px; font-family:Arial" x="70" y="285.5">Over 10.0 km</text><rect fill="red" height="2.6" width="2.6" x="65" y="287" /><text fill="#FFFFFF" style="font-size:3px; font-family:Arial" x="70" y="289.5">Over 15.0 km</text><text fill="#FFFFFF" style="font-size:4px; font-family:Arial" x="120" y="280">STATISTICS</text><text fill="#FFFFFF" style="font-size:3px; font-family:Arial" x="120" y="285">Number: 37</text><text fill="#FFFFFF" style="font-size:3px; font-family:Arial" x="120" y="290">Weekly: 2.5</text><text fill="#FFFFFF" style="font-size:3px; font-family:Arial" x="141" y="285">Total: 302.1 km</text><text fill="#FFFFFF" style="font-size:3px; font-family:Arial" x="141" y="290">Avg: 8.2 km</text><text fill="#FFFFFF" style="font-size:3px; font-family:Arial" x="167" y="285">Min: 4.0 km</text><text fill="#FFFFFF" style="font-size:3px; font-family:Arial" x="167" y="290">Max: 13.0 km</text><polyline fill="none" points="12.731988472631201,42.3632351905253 16.9726224783808,42.87085468955047 18.165706051921006,43.20926693250658 22.963976945262402,45.83194129835465 26.452449567674194,47.28426684465376 27.243515850102995,47.80597330094315 27.632564841536805,47.70727218975662 27.8270893371664,46.32545122914598 28.1123919308302,46.170348246683716 32.002881844353396,46.36775202046556 34.142651296802796,47.185565461433725 38.5,47.24196625816694 36.85302593652159,47.39706836245023 34.11671469733119,47.25606645469088 32.2233429394546,46.48055408448272 28.125360230507795,46.18444852308312 27.930835734819993,46.36775202046556 27.723342939454596,47.74957267228456 27.438040345790796,47.86237391277973 22.2636887608096,45.66273759727483 18.113832852977794,43.293869898683624 17.841498559049796,43.39257331144472 16.596541786741,42.92725677207636 11.5,42.13762608722027" stroke="#4DD2FF" stroke-linecap="round" stroke-linejoin="round" stroke-width="0.5"><title>2025-03-03 4.6km</title><desc>1740978130000</desc></polyline><polyline fill="none" points="51.29518916393863,42.470175997848855 51.093414292437956,42.59358391602291 49.0,42.16851184946427 52.291452592238784,42.5113119797752 56.26389537600335,43.361453547520796 59.80756655771984,45.116572103404906 60.980382998648565,45.91185468871845 65.04110228869831,47.76293015736155 65.46987389074638,47.73550695292943 65.68425969174132,46.41918833577074 65.87342363380594,46.18608926619345 69.74497898179106,46.44661173633358 71.66184026160045,47.214465292636305 75.93694535264513,47.2693118526513 74.43624474544777,47.37900492364133 71.61139654368162,47.187042006480624 69.71975712286076,46.474035132778226 65.92386735166656,46.22722441756923 65.73470340960193,46.364341522421455 65.54553946753731,47.58467925559671 65.16721158334985,47.81777655395854 60.90471742179943,45.98041337142058 56.23867351707304,43.40258933024597 56.01167678658385,43.47114894763217 55.1793554413598,43.08721476120991 49.0,42.182223866926506 55.35590845398838,43.046078908009804 65.0158804297098,47.83148815053573 65.48248482018244,47.74921855563298 65.60859411489218,46.52888191344391 65.83559084543958,46.22722441756923 70.06025221856544,46.501458525133785 71.6996730499668,47.22817693416437 76.0,47.33787002970348 71.72489490895532,47.214465292636305 69.80803362914594,46.48774682948715 65.91125642228872,46.18608926619345 65.68425969174132,46.41918833577074 65.48248482018244,47.68066053185612 65.09154600655893,47.790353357675485 60.43811303132679,45.733601994259516 56.516113965422846,43.47114894763217 55.92340028024046,43.44372510374524 54.801027557230555,42.96380717403372 51.16907986922888,42.53873596260382 52.61933675856562,42.662143834808376 55.16674451192375,43.03236695489613 56.86921999062179,43.786522858732496 56.93227463803487,43.64940383336216 56.175618869718164,43.38887740368955" stroke="yellow" stroke-linecap="round" stroke-linejoin="round" stroke-width="0.5"><title>2025-02-28 10.0km</title><desc>1740736874000</desc></polyline><polyline fill="none" points="88.38723205967108,42.85911382646009 88.65144454798428,42.55815331508347 88.33690587140154,42.84543381391268 88.61369990679668,42.667593558100634 88.45013979502255,42.59919341384375 86.61323392362101,42.229832194556366 87.45619757688837,42.20247207469947 92.55172413791297,42.900153857975965 93.36952469713287,43.29687368964369 93.86020503262989,43.24215376380016 98.77958993479842,45.9097311674559 102.71761416591471,47.72913352608157 103.05731593666133,47.606016641904716 103.18313140730606,46.29276474106882 103.43476234859554,46.12860759305477 107.37278657971183,46.37484325999685 109.31034482759424,47.11354827968171 113.43709226470673,47.195626431770506 109.28518173348857,47.181946742290165 107.27213420323096,46.37484325999685 104.95712954335613,46.388523009605706 103.35927306616213,46.15596712793922 103.15796831314219,46.279084984300425 103.05731593666133,47.63337595661869 102.74277726002038,47.92064851519535 97.69757688726531,45.636135268592625 94.09925442683743,43.529433192437864 92.06104380241595,42.96855389008124 90.45060577819822,42.913833866419736 86.51258154702373,42.18879201321397 92.61463187326444,42.98223389346094 93.28145386767574,43.37895354778448 93.86020503262989,43.37895354778448 98.79217148182215,45.99180985763087 102.79310344828991,47.78385211476416 103.06989748368505,47.55129800019495 103.24603914259933,46.15596712793922 107.25955265609082,46.347483757766895 108.89515377447242,46.990430982768885 110.10298229265027,47.181946742290165 113.5,47.181946742290165 109.3732525628875,47.195626431770506 107.27213420323096,46.484281228200416 104.96971109043807,46.47060148573655 103.2712022367632,46.18332665869093 103.08247903076699,47.48289967517485 102.70503261883277,47.83857068720681 98.18825722276233,45.86869180860231 93.75955265614903,43.392633520576055 87.82106244174065,42.43503296367999 86.5,42.07935148480465 88.47530288912822,42.38031278100971 89.33084808947751,42.55815331508347 91.64585274935234,42.76335371725145 94.36346691520885,43.74831245538371 93.82246039144229,43.37895354778448 93.55824790307088,43.44735340155603 92.35041938489303,42.96855389008124 89.48182665428612,42.76335371725145 87.53168685926357,42.270872366731055" stroke="yellow" stroke-linecap="round" stroke-linejoin="round" stroke-width="0.5"><title>2025-02-26 11.1km</title><desc>1740566027000</desc></polyline><polyline fill="none" points="126.30457089556148,42.501103738395614 124.05037313437788,42.22724762067082 125.05783582094591,42.21355480408238 130.15811567165656,42.91188714974851 130.8759328359156,43.30897690798156 131.304104477691,43.29528417198162 134.85541044780985,45.047946088190656 135.61100746272132,45.70518999772321 139.3260261194082,47.211365092676715 140.1697761194664,47.7864468729822 140.5853544776328,47.53998347315064 140.69869402988115,46.28027649060823 140.90018656721804,46.11596624768572 142.47434701496968,46.36243155699049 144.7411380597623,46.376124064510805 146.45382462686393,47.0470556821092 147.6879664179287,47.225057536910754 150.9244402985205,47.18398020112363 147.65018656715984,47.18398020112363 146.54197761195246,47.033363224574714 144.90485074633034,46.41720158084354 141.00093283585738,46.15704382221156 140.723880597041,46.33504653896671 140.49720149260247,47.70429244310071 140.13199626869755,47.80013927438995 138.39412313431967,46.85536118410528 135.77472014928935,45.82842296913441 131.35447761195246,43.36374784176587 130.93889925378608,43.40482603141572 129.8936567164492,42.91188714974851 128.4958022388746,42.92557991432841 124.0,42.15878352751315 129.91884328360902,42.92557991432841 130.8759328359156,43.377440572701744 131.35447761195246,43.30897690798156 135.08208955224836,45.4039534975891 139.3260261194082,47.252442422366585 140.25792910449672,47.84121647248685 140.62313432840165,47.4441365061939 140.68610074633034,46.32135402840504 140.84981343289837,46.11596624768572 142.75139925378608,46.36243155699049 144.65298507467378,46.32135402840504 146.4286380597623,46.9922858459322 147.75093283585738,47.170287753790035 151.0,47.18398020112363 147.1212686567451,47.18398020112363 144.942630597041,46.40350907643733 143.67070895520737,46.44458658664371 140.91277985076886,46.10227372084046 140.68610074633034,46.36243155699049 140.5979477612418,47.52629105238884 140.47201492538443,47.772754470526706 140.19496268656803,47.813831674764515 135.1828358208877,45.48610895569436 131.41744402988115,43.391133302560775 130.97667910455493,43.40482603141572 129.99440298508853,42.99404372186109 128.39505597023526,42.91188714974851 124.1385261194664,42.22724762067082 127.13572761201067,42.596953283195035 127.77798507467378,42.63803164420824 129.9062500000582,42.98035096240346 132.1604477612418,43.74714392134047 134.96875,45.198564691716456 131.442630597041,43.40482603141572 127.77798507467378,42.69280277795042" stroke="yellow" stroke-linecap="round" stroke-linejoin="round" stroke-width="0.5"><title>2025-02-21 11.3km</title><desc>1740135343000</desc></polyline><polyline fill="none" points="163.71229050279362,42.601427515706746 161.57541899441276,42.17774091429601 164.64245810057037,42.51942373375641 167.5335195530788,42.99777861175244 168.33798882679548,43.407796085753944 169.12988826812943,43.44879778275208 172.66201117320452,45.4715367898898 176.74720670387615,47.24824859993532 177.66480446927017,47.80859260172292 178.07960893848212,47.50792042328976 178.21787709492492,46.291559763471014 178.3938547486323,46.15488952242595 180.14106145250844,46.387228871608386 182.40363128489116,46.40089588295086 183.84916201111628,47.0159103411861 185.08100558654405,47.22091470241139 188.43715083791176,47.2072477521433 187.43156424578046,47.34391720921849 184.42737430159468,47.179913848493015 182.3282122904784,46.46923092457291 178.45670391060412,46.19589060542057 178.19273743010126,46.41456289331836 178.00418994412757,47.64458965638187 177.61452513962286,47.79492569521244 172.8505586591782,45.66287581156939 168.86592178768478,43.435130551457405 168.28770949720638,43.407796085753944 167.3449720670469,42.99777861175244 165.7611731843208,42.90210773595027 161.5,42.16407358829747 167.40782122901874,42.95677681393863 168.76536312850658,43.339459903756506 172.07122905022698,44.97952124632138 173.1773743016529,45.73121112809167 177.80307262565475,47.740258058998734 178.05446927371668,47.52158735120611 178.14245810051216,46.37356185920362 178.31843575416133,46.15488952242595 182.2779329608311,46.387228871608386 183.8617318435572,47.0159103411861 185.13128491613315,47.22091470241139 188.5,47.24824859993532 187.10474860330578,47.35758414931479 184.4399441340356,47.19358080084203 182.40363128489116,46.46923092457291 178.41899441339774,46.18222357875493 178.15502793289488,46.44189691099746 178.09217877092306,47.494253494383884 177.84078212286113,47.83592641170253 173.64245810051216,46.018219179532025 168.8784916200675,43.407796085753944 168.45111731841462,43.435130551457405 167.42039106145967,43.0114458756434 164.11452513962286,42.58776022125676 165.19553072628332,42.71076583463582 167.3449720670469,42.95677681393863 169.46927374304505,43.76314382191049 168.91620111727389,43.407796085753944 168.23743016755907,43.394128851388814 167.01815642457223,42.94310954595858 165.92458100558724,42.92944227698899 162.115921787743,42.218742886252585" stroke="yellow" stroke-linecap="round" stroke-linejoin="round" stroke-width="0.5"><title>2025-02-19 10.6km</title><desc>1739962218000</desc></polyline><polyline fill="none" points="13.459269662911538,72.37491943289933 11.5,72.18250210399856 14.824438202253077,72.53984841221245 17.47893258422846,73.00714638616773 18.21207865170436,73.37823511040187 18.742977528076153,73.35074708233878 23.38202247186564,75.90711616864428 27.831460674176924,77.81749789598689 28.046348314615898,77.54262404567271 28.185393258405384,76.34691803138412 28.400280898844358,76.19573625936755 32.407303370768204,76.4431245490996 34.214887640438974,77.18528742805938 38.5,77.26774978585308 34.44241573027102,77.21277488474152 32.35674157302128,76.45686833326181 28.65308988763718,76.19573625936755 28.438202247198205,76.4293807639333 28.21067415724974,76.37440561302355 28.046348314615898,77.6250862437737 27.65449438203359,77.77626684453571 22.535112359561026,75.50854482490104 18.76825842692051,73.40572313434677 17.339887640438974,72.97965830280737 12.473314606701024,72.29245488793822" stroke="#4DD2FF" stroke-linecap="round" stroke-linejoin="round" stroke-width="0.5"><title>2025-02-18 4.9km</title><desc>1739836925000</desc></polyline><polyline fill="none" points="51.91960507759359,72.39141602956806 51.88152327219723,72.72266962128924 53.27785613544984,72.6812629547203 55.13117066293489,72.99871382860874 57.55571227084147,74.29611609308631 58.86318758811103,74.72398080500716 60.08180535968859,75.60731127781037 64.18194640334696,77.29114832519554 65.1212976022507,77.85702455299906 65.4640338505269,77.59478944282455 65.55289139633533,76.36642003789893 65.75599435827462,76.18699461169308 69.75458392099245,76.50443947828899 71.6078984485357,77.23594079579925 76.0,77.31875208373822 71.7475317348144,77.15312947086932 69.77997179125668,76.42162782640662 65.85754583921516,76.17319264860998 65.62905500701163,76.42162782640662 65.56558533146745,77.51197827825672 65.36248236958636,77.80181719218672 60.703808180522174,75.85574721441662 56.94640338502359,73.73022898859926 55.02961918193614,72.95730722373992 49.0,72.14297544701549 55.06770098727429,72.9711094263912 56.81946403387701,73.75783327773388 55.06770098727429,72.9711094263912" stroke="#4DD2FF" stroke-linecap="round" stroke-linejoin="round" stroke-width="0.5"><title>2025-02-14 5.4km</title><desc>1739506837000</desc></polyline><polyline fill="none" points="89.4509574964759,72.57987319130916 91.72092480148422,72.85411259061948 93.76389537606155,73.36145440200926 98.8082671649172,76.06268320267554 102.67982251284411,77.83148667388014 102.9950957496767,77.77664030999586 103.48692199907964,76.5425928015029 103.85263895383105,76.25464719238516 107.4341429239139,76.46032267346163 109.45189163944451,77.26931066915859 113.5,77.31044555701374 109.36361513310112,77.26931066915859 107.39631013548933,76.48774605354993 103.91569360112771,76.30949400977988 103.57519850542303,76.47403436400054 102.8815973844612,77.83148667388014 98.54343764600344,76.07639492284216 93.80172816442791,73.4163020816195 92.6541335824295,73.04607992697856 86.5,72.16851332611986 92.47758056985913,72.96380823590152 93.86478281178279,73.4163020816195 98.56865950499196,75.98041286005173 102.64198972447775,77.80406349399709 103.020317608607,77.70808233214484 103.53736571699847,76.50145774206612 103.94091546011623,76.30949400977988 107.44675385340815,76.50145774206612 109.36361513310112,77.22817577212118 113.5,77.29673392875702 111.77230266231345,77.39271530508995 109.35100420366507,77.20075250235095 107.37108827655902,76.48774605354993 103.90308267163346,76.24093548544624 103.57519850542303,76.46032267346163 103.00770667911274,77.74921712193463 102.80593180761207,77.79035190248396 98.31644091551425,75.89814248066978 94.24311069597024,73.62198073463514 92.95679588982603,73.08721575871459 86.52522185898852,72.19593734575028 89.72839794488391,72.4701773171837 92.6541335824295,72.96380823590152 94.40705277910456,73.86879481481446 93.7512844465673,73.40259016325581 93.58734236337477,73.48486165815848 92.46496964042308,72.99123213702114" stroke="yellow" stroke-linecap="round" stroke-linejoin="round" stroke-width="0.5"><title>2025-02-12 10.1km</title><desc>1739334019000</desc></polyline><polyline fill="none" points="145.7081545064575,76.88294611990568 146.84120171674294,77.27492785625509 151.0,77.30292652043863 146.98283261799952,77.33092518041667 145.05150214594323,76.4629647807451 141.2660944206291,76.21097552671563 140.44206008582842,77.79290246810706 140.19742489268538,77.83490034703573 135.1502145922277,75.62299928659922 133.79828326177085,74.75503099813068 130.21888412017142,73.07508098578546 124.0,72.09510320893605 129.9871244634851,72.92108481645118 131.98283261799952,73.691064400904 134.51931330468506,74.92302517332428 135.7939914163435,75.81899157105363 140.10729613731382,77.76490387695958 140.45493562234333,77.63891016508569 140.98283261799952,76.37896840029862 141.3047210299992,76.19697611383162 143.62231759657152,76.44896538663306 144.78111587982858,76.37896840029862 146.85407725319965,77.23292985217995 150.8326180257136,77.28892718885618 145.38626609439962,76.89694548169791 145.45064377685776,77.28892718885618 145.3347639485146,76.82694866225938 144.87124463520013,76.6169580474234 141.3047210299992,76.25297375918308 141.04721030045766,76.39296779962024 140.33905579400016,77.90489679106395 135.4849785407423,75.81899157105363 134.5965665235999,75.1050186936045 132.96137339057168,74.32104535045801" stroke="#4DD2FF" stroke-linecap="round" stroke-linejoin="round" stroke-width="0.5"><title>2025-02-10 6.3km</title><desc>1739162078000</desc></polyline><polyline fill="none" points="161.69296316656983,73.91114641839522 163.32572842220543,73.95954015541065 170.68801539303968,75.04033080600493 172.94420010992326,74.94354380277218 173.13716327649308,75.68557639195933 173.98323254531715,75.73396973362833 174.97773501917254,76.10498499500682 175.66052776243305,75.12098660909396 181.74628916976508,75.0080684764107 182.0728422209504,75.5726585527882 182.45876855409006,75.6694452756783 182.7111050026724,75.52426517516142 182.96344145131297,74.84675675648032 184.12122045073193,74.76610085157154 188.5,75.31456041423371 184.38840021984652,74.74996966698382 182.91891148983268,74.83062557787343 182.63688840012765,75.52426517516142 182.3845519515453,75.65331415816036 181.74628916976508,74.99193730978004 175.73474436497781,75.08872429144685 175.30428807029966,75.37908497764147 175.00742166023701,76.12111607895349 173.21137987897964,75.70170750709076 173.21137987897964,75.07259313082614 173.01841671246802,74.91128145880066 170.836448598071,75.02419964180444 163.93430456286296,74.00793388161401 161.5,73.89501517031749 163.60775151179405,73.97567139865714 170.36146234191256,74.99193730978004 172.9145134688588,74.91128145880066 173.12231995596085,75.6694452756783 174.99257833970478,76.10498499500682 175.43787795485696,75.26616697912687 175.8238042879966,75.08872429144685 181.68691588781076,74.99193730978004 182.10252886195667,75.58878967624332 182.39939527207753,75.65331415816036 182.7111050026724,75.45974065490009 182.82985156675568,74.9274126313976 183.2009345794213,74.782232034966 188.1882902692887,75.26616697912687 184.59620670694858,74.74996966698382 183.14156129735056,74.74996966698382 182.74079164373688,74.95967497299716 182.48845519515453,75.65331415816036 182.19158878503367,75.58878967624332 181.73144584929105,74.95967497299716 175.67537108296528,75.07259313082614 175.3191313907737,75.3468226983241 175.02226498071104,76.10498499500682 173.1965365585056,75.68557639195933 173.01841671246802,74.84675675648032 170.59895547002088,74.94354380277218 163.14760857610963,73.87888392106106 161.84139637160115,73.92727766525059 163.1772952171159,73.91114641839522 171.26690489274915,75.05646196904127 172.98873007140355,74.91128145880066 173.1520065969671,75.68557639195933 174.30978559644427,75.83075638464652 173.21137987897964,75.6694452756783 172.9145134688588,74.86288793385029 170.67317207250744,74.95967497299716 163.83040131937014,73.95954015541065 162.0046728971647,73.92727766525059 163.96399120398564,74.00793388161401" stroke="#4DD2FF" stroke-linecap="round" stroke-linejoin="round" stroke-width="0.5"><title>2025-01-25 9.9km</title><desc>1737761473000</desc></polyline><polyline fill="none" points="11.85999999998603,103.67958222994639 20.664999999979045,104.95109960414993 23.21500000002561,104.83698937139707 23.20000000001164,105.8802807196771 24.190000000060536,105.92918487996212 25.044999999983702,106.32041777003906 25.76500000001397,105.26082707967726 31.899999999965075,105.11411411940935 32.47000000003027,105.83137654850725 32.84499999997206,105.71726677336846 32.95000000001164,105.11411411940935 33.19000000000233,104.9347981459432 38.5,105.4401427868288 34.36000000004424,104.88589376410528 33.054999999993015,105.00000397142139 32.65000000002328,105.81507515568228 32.320000000006985,105.71726677336846 32.18500000005588,105.22822420809825 31.899999999965075,105.09781267333892 25.794999999983702,105.21192277049704 25.494999999995343,105.37493709207047 25.135000000009313,106.28781505582447 23.304999999934807,105.84767794008076 23.169999999983702,105.03260687693546 21.084999999962747,105.17931989162753 12.910000000032596,103.98931149968121 11.5,104.00561302807182 13.330000000016298,104.05451760602591 20.619999999995343,105.14671700797044 22.960000000020955,105.01630542478233 23.15500000002794,105.19562133168802 23.15500000002794,105.76617096997506 25.044999999983702,106.28781505582447 25.75,105.22822420809825 31.885000000009313,105.09781267333892 32.26000000000931,105.71726677336846 32.60500000003958,105.81507515568228 33.25000000005821,104.91849668655777 37.59999999997672,105.26082707967726 33.36999999999534,104.86959230109642 32.95000000001164,105.00000397142139 32.875,105.63575975484855 32.60500000003958,105.78247236640891 31.885000000009313,105.04890832783713 25.82500000001164,105.21192277049704 25.43500000005588,105.45644420747703 25.09000000002561,106.25521233676409 23.290000000037253,105.81507515568228 23.06500000000233,104.9837025168963 21.070000000065193,105.16301845037378 13.059999999997672,103.97300997006823 11.830000000016298,104.02191455524007 13.210000000020955,103.98931149968121 15.130000000004657,104.2990403323638" stroke="#4DD2FF" stroke-linecap="round" stroke-linejoin="round" stroke-width="0.5"><title>2025-01-19 8.1km</title><desc>1737283232000</desc></polyline><polyline fill="none" points="52.5688930406468,102.54559556867753 54.82624941616086,102.86097072510165 55.78468005603645,103.35460031981347 56.49089210649254,103.36831223411718 59.8453993460862,105.12342882853409 60.26156001875643,105.50735835250816 64.36011209717253,107.26245454901073 65.28070994862355,107.83834184188163 65.53292853810126,107.68751439168409 66.07519850536482,106.41233191877836 66.42830453056376,106.20665649898001 69.74497898179106,106.37119685320067 71.86361513315933,107.1253382613213 76.0,107.23503129964229 71.77533862675773,107.1253382613213 69.85847734700656,106.34377347106056 66.4787482485408,106.17923309230537 66.08780943485908,106.33006177845527 65.5203176085488,107.68751439168409 65.34376459597843,107.76978392529418 60.79121905652573,105.8638636218966 56.33956095285248,103.3957360596105 55.98645492759533,103.42315988104383 54.927136851940304,102.95695436111419 52.026623073383234,102.68271526831086 49.0,102.10681184323039 55.116300794063136,102.99809018976521 56.402615600207355,103.3820241473586 61.018215787014924,105.90499880086281 64.34750116767827,107.27616617218882 65.16721158334985,107.86576500133378 65.50770667917095,107.75607233893243 66.06258757587057,106.49460202235787 66.4787482485408,106.27521499778959 69.94675385334995,106.43975529070303 71.90144792152569,107.15276152703154 76.0,107.26245454901073 71.87622606259538,107.23503129964229 69.80803362914594,106.45346697515924 66.46613731898833,106.27521499778959 66.11303129378939,106.43975529070303 65.5203176085488,107.79720709499088 65.06632414762862,107.81091867831128 60.03456328820903,105.50735835250816 56.45305931806797,103.46429560551769 55.99906585708959,103.49171941670647 55.015413358283695,103.02551407046849 49.05044371786062,102.14794786194398 55.255021018208936,103.01180213062617 55.948622139170766,103.4094479708292 56.35217188228853,103.36831223411718 61.005604857578874,105.91871052514762 65.35637552547269,107.89318815675506 66.16347501165001,106.38490854275005 67.51284446520731,106.38490854275005 66.32741709484253,106.37119685320067 65.5203176085488,107.82463026058394 65.14198972447775,107.76978392529418 59.99673049978446,105.50735835250816 56.415226529643405,103.45058369837352 56.049509575008415,103.47800751162868 55.040635217214,103.01180213062617 52.21578701538965,102.68271526831086" stroke="yellow" stroke-linecap="round" stroke-linejoin="round" stroke-width="0.5"><title>2025-01-17 12.3km</title><desc>1737088953000</desc></polyline><polyline fill="none" points="89.23033707862487,102.42302440077765 89.4073033707682,102.12065426741901 90.17837078648154,102.62918557113153 93.76825842697872,103.34387584461365 95.79073033703025,104.38841818661604 96.57443820219487,105.00689441713621 102.76825842697872,107.86560205288697 103.00842696626205,107.70067781642138 103.53932584263384,106.44999755834579 103.86797752801795,106.23009685630677 107.39466292125871,106.44999755834579 109.3286516853259,107.1646730297216 113.48735955049051,107.23339167913946 109.41713483142667,107.1646730297216 107.24297752807615,106.44999755834579 103.96910112357,106.28507205640199 103.58988764043897,106.42250998494274 102.99578651681077,107.79688363893365 102.83146067411872,107.85185837215977 98.21769662917359,105.87275765649974 93.80617977521615,103.38510789129941 92.35252808989026,103.01401913940208 86.5,102.18937479579472 92.23876404494513,102.95904296450317 93.43960674153641,103.38510789129941 93.7808988763718,103.34387584461365 98.72331460670102,106.06517115778115 101.73174157296307,107.24713540593802 102.62921348313102,107.8243710076058 102.97050561796641,107.74190888936573 103.51404494378949,106.4362537721463 103.89325842692051,106.24384065787308 107.26825842697872,106.44999755834579 109.30337078642333,107.15092929675302 113.5,107.20590422245732 109.36657303367974,107.15092929675302 107.38202247186564,106.50497269288462 103.98174157302128,106.2575844584353 103.58988764043897,106.44999755834579 102.86938202247256,107.87934573259554 98.41994382016128,105.96896443222067 93.84410112357,103.45382794861507 93.22471910109743,103.42633992875926 92.55477528087795,103.04150722068152 88.06741573038744,102.39553622729727" stroke="#4DD2FF" stroke-linecap="round" stroke-linejoin="round" stroke-width="0.5"><title>2025-01-15 9.1km</title><desc>1736916504000</desc></polyline><polyline fill="none" points="126.35384615382645,102.01639928543591 126.53006993007148,102.31750124892278 127.14685314684175,102.6870348022203 130.23076923075132,103.19343142719299 131.90489510493353,103.74088566757564 133.89370629366022,105.04108294971229 140.1748251747922,107.91517060415936 140.45174825174036,107.84674046823056 140.98041958041722,106.61499366331554 141.40839160839096,106.38232945061463 144.88251748250332,106.6013075413066 146.7832167831948,107.35404273727909 151.0,107.44984517733974 146.73286713287234,107.39510093200079 144.84475524473237,106.64236590423388 141.39580419572303,106.38232945061463 140.98041958041722,106.61499366331554 140.38881118874997,107.92885662827757 139.99860139854718,107.92885662827757 135.8699300698936,106.09492031051195 131.30069930071477,103.54927686903102 131.03636363637634,103.6313949500327 129.43776223773602,103.12499953240331 124.0,102.35856056932244 128.55664335662732,102.9060172978352 131.27552447555354,103.50821781477134 135.34125874121673,105.75276598599157 140.2503496503341,107.98360071456409 140.53986013983376,107.81936840673734 141.131468531501,106.43707399776031 142.41538461536402,106.46444626520679 141.16923076921375,106.49181852857873 140.35104895103723,107.96991469453496 135.5552447552327,106.01280333074101 131.37622377619846,103.57664956674853 129.9034965034807,103.152372293378 125.93846153846243,102.60491629906755" stroke="#4DD2FF" stroke-linecap="round" stroke-linejoin="round" stroke-width="0.5"><title>2025-01-14 7.8km</title><desc>1736829619000</desc></polyline><polyline fill="none" points="165.19209302327363,102.72654975694604 164.97860465117265,102.42614892590791 165.48093023255933,102.4807672954339 169.70046511630062,103.83256675465964 172.29999999998836,105.11608428576437 173.45534883724758,105.92169176170137 177.6372093023383,107.83328855168656 177.91348837205442,107.75136338391167 178.47860465117265,106.46786430753127 178.84279069764307,106.24939548449765 182.246046511631,106.46786430753127 183.87860465119593,107.13692345813615 185.04651162790833,107.28712007463037 188.5,107.28712007463037 184.11720930231968,107.17788618394115 182.25860465120059,106.46786430753127 178.88046511629364,106.23574117440148 178.516279069765,106.3859385294054 177.926046511624,107.75136338391167 177.57441860466497,107.76501758108498 173.36744186043506,105.94900042764493 169.5246511628502,103.84622124377347 167.59069767442998,103.0406046447606 161.5,102.18036606154055 167.6660465116147,103.06791374000022 169.5246511628502,103.7642942937382 172.89023255812936,105.66225923228194 177.59953488374595,107.79232597236114 177.90093023260124,107.71040078626538 178.40325581392972,106.48151860031066 178.76744186051656,106.24939548449765 182.35906976746628,106.48151860031066 184.24279069766635,107.19154042382434 188.37441860465333,107.30077430640813 184.15488372097025,107.15057770107524 182.27116279071197,106.44055571890203 178.75488372094696,106.23574117440148 178.45348837209167,106.4132471261546 177.86325581400888,107.79232597236114 177.38604651164496,107.75136338391167 176.74558139534201,107.31442853715271 173.19162790698465,105.89438309169782 168.72093023255002,103.36831351909495 167.377209302329,102.99964099425415 161.55023255816195,102.16671144829888 168.746046511631,103.35465899437258 173.21674418606563,105.8124570572254 176.78325581399258,107.28712007463037 177.61209302331554,107.81963435962098 177.90093023260124,107.73770918569062 178.45348837209167,106.39959282831114 178.80511627910892,106.23574117440148 182.18325581395766,106.4132471261546 183.92883720929967,107.10961496920208 184.9837209302932,107.218848900593 183.87860465119593,107.10961496920208 182.1455813953653,106.4132471261546 178.83023255813168,106.19477823805937 178.47860465117265,106.3586299285671 177.91348837205442,107.68309238275106 177.46139534882968,107.69674658500298 176.29348837211728,107.05499797906668 173.21674418606563,105.86707441759063 168.70837209298043,103.36831351909495 166.975348837208,102.93136822307133" stroke="yellow" stroke-linecap="round" stroke-linejoin="round" stroke-width="0.5"><title>2025-01-10 13.0km</title><desc>1736482744000</desc></polyline><polyline fill="none" points="14.08644859812921,131.96141392319987 15.322897196281701,132.798237346753 17.467757009377237,133.20978845492937 19.574766355159227,134.01916961750248 21.858411214954685,135.37727577805344 27.763084112200886,138.03858607680013 28.04065420560073,137.81909802286827 28.154205607483163,136.61190904994146 28.318224299058784,136.4061374128505 32.292523364536464,136.66678144766774 34.374299065442756,137.43499329901533 38.43691588786896,137.5310195550701 34.19766355142929,137.39383917392115 32.292523364536464,136.68049954454182 28.393925233685877,136.39241929554555 28.141588785103522,136.68049954454182 28.04065420560073,137.87397006087122 27.763084112200886,138.03858607680013 23.24626168224495,136.1180567345873 18.805140186916105,133.6350569669885 17.417289719625842,133.20978845492937 11.5,132.38668531864823 17.74532710283529,133.23722516276757 18.363551401882432,133.58018366577744 18.792523364478257,133.58018366577744 23.321962616872042,136.06318417331204 27.57383177569136,137.98371408780804 28.002803738345392,137.87397006087122 28.128971962665673,136.62562715091917 28.35607476637233,136.41985552910774 32.292523364536464,136.68049954454182 34.47523364488734,137.43499329901533 38.5,137.4898654514691 34.13457943929825,137.38012113017612 32.27990654204041,136.62562715091917 28.406542056123726,136.41985552910774 28.19205607479671,136.55703663584427 28.17943925235886,137.5310195550701 27.85140186920762,138.02486808106187 23.157943925296422,136.07690231518063 18.830373831791803,133.6213386432355 17.328971962619107,133.20978845492937 11.5,132.34553006525675 15.915887850453146,132.9079843988875 18.742056074843276,133.5527470090601 22.89299065427622,135.87113008019514 27.599065420625266,137.98371408780804 27.952336448652204,137.8876880677999 28.229906542110257,137.20178646860586 27.952336448652204,137.95627808723657 27.3971962617361,137.87397006087122 23.233644859865308,136.09062045598694 18.805140186916105,133.53902867915167 18.514953271020204,133.60762031842023 17.543457943946123,133.14119666744955 15.941121495387051,132.9628579003911" stroke="yellow" stroke-linecap="round" stroke-linejoin="round" stroke-width="0.5"><title>2025-01-08 12.0km</title><desc>1736310892000</desc></polyline><polyline fill="none" points="51.8779803646612,133.33933692522987 52.25666199158877,132.73544648638926 52.307152875175234,132.14527891749458 52.54698457225459,131.93940606489195 52.824684432009235,131.99430551474507 52.69845722295577,132.09037951262144 53.92286115005845,132.55702393241518 54.553997194976546,133.07856629676826 57.14165497897193,133.98439952534682 61.433380084170494,136.3038612754026 65.29593267879682,138.0194207050954 65.54838709672913,137.77238113178464 65.58625525946263,136.63324992507114 65.93969144462608,136.39993302573566 69.8022440392524,136.67442346489406 71.82187938288553,137.44299451877305 76.0,137.52534122725774 71.7966339411214,137.4155456078006 69.85273492283886,136.701872486301 65.88920056103962,136.44110661765444 65.62412342213793,136.71559699546196 65.58625525946263,137.77238113178464 65.37166900420561,138.06059393510805 60.63814866764005,136.04309484337864 56.308555399707984,133.61383192476933 55.828892005607486,133.61383192476933 54.94530154281529,133.1883645011112 49.0,132.43350052455207 55.1220196353388,133.3118874027423" stroke="#4DD2FF" stroke-linecap="round" stroke-linejoin="round" stroke-width="0.5"><title>2025-01-06 5.2km</title><desc>1736137119000</desc></polyline><polyline fill="none" points="89.99485981307225,132.928562635876 90.05794392520329,132.4072630507144 90.47429906547768,131.78993268574413 90.77710280369502,132.8599706695386 90.34813084109919,133.14805675648677 91.14299065421801,133.10690162880928 93.76728971960256,133.73794590907346 97.32523364486406,135.41157461293915 97.9939252336626,136.00145651404455 102.78831775696017,138.12775931242504 103.07850467285607,137.94942518226162 103.12897196260747,136.79710817785235 103.36869158875197,136.5776184071001 107.51962616824312,136.86569867758953 109.51308411208447,137.62019248823344 113.5,137.68878268137632 109.34906542056706,137.59275640384294 107.38084112148499,136.82454438084096 103.41915887850337,136.5776184071001 103.17943925235886,136.78339007488103 103.09112149535213,137.94942518226162 102.83878504676977,138.196349316524 98.3093457944342,136.33069210224494 94.60000000003492,134.2318051415641 92.73271028039744,133.47729744679236 86.5,132.5032920325757 90.73925233643968,133.02459134583478 93.74205607478507,133.69679091326543 97.55233644862892,135.80940214906877 101.95560747658601,137.72993678499188 102.6369158878806,138.21006731427042 103.06588785047643,137.90827112768602 103.17943925235886,136.7147995444975 103.35607476631412,136.53646404594474 106.15700934577035,136.86569867758953 107.38084112148499,136.79710817785235 109.4121495326981,137.5790383600979 113.48738317756215,137.6476285685494 109.071495327109,137.51044812609325 107.3051401869161,136.82454438084096 103.45700934581691,136.53646404594474 103.17943925235886,136.74223575972428 103.1415887849871,137.86711706395727 102.86401869158726,138.1414773153083 98.37242990656523,136.3169739645091 94.62523364485241,134.1494953614456 93.07336448598653,133.55960752739338 86.66401869157562,132.57188413178665" stroke="#4DD2FF" stroke-linecap="round" stroke-linejoin="round" stroke-width="0.5"><title>2025-01-03 9.5km</title><desc>1735878536000</desc></polyline><polyline fill="none" points="126.69367681501899,132.38056400204368 128.2744730679551,132.8205805155012 130.082903981267,132.98558643754222 130.9555035129306,133.42560150848294 131.28430913347984,133.38435014015704 135.04028103046585,135.46065756570897 140.08618266979465,137.78444413695252 140.46557377051795,137.71569347495097 140.98407494142884,136.46442695207952 141.36346604221035,136.244423170152 144.75269320845837,136.45067672338337 146.76346604217542,137.2069377801672 151.0,137.33068929443834 147.07962529273937,137.22068795251835 144.90444964868948,136.51942785659048 141.38875878223917,136.31317438014958 140.98407494142884,136.53317808016436 140.31381733022863,137.83944464811066 135.40702576114563,135.77691426275123 131.27166276349453,133.46685286761203 130.94285714288708,133.49435376854672 129.9311475410359,133.01308741021785 128.50210772833088,132.94433497085993 124.0,132.1605553519039 130.03231850120937,132.9993369243748 131.81545667449245,133.83811468470958 130.14613583142636,133.04058837877528 126.44074941449799,132.47681770399504" stroke="#4DD2FF" stroke-linecap="round" stroke-linejoin="round" stroke-width="0.5"><title>2025-01-02 5.6km</title><desc>1735817809000</desc></polyline><polyline fill="none" points="164.61635514016962,132.48957241272728 167.619158878515,132.9834340737143 168.50233644858235,133.44985775944951 169.34766355139436,133.60075928716105 173.94018691591918,136.12491196051997 177.81355140183587,137.7985158522206 178.1415887849871,137.45556547415617 178.5074766355101,136.5364553113759 178.94906542054377,136.31696563870355 182.19158878503367,136.42671050774516 184.56355140189407,137.29094906584942 188.5,137.318385144099 186.96074766351376,137.4144113858638 184.3364485981292,137.24979494075524 182.36822429904714,136.48158291775326 178.96168224303983,136.28952941122407 178.57056074764114,136.44042861179332 177.99018691590754,137.74364383463399 177.77570093463873,137.83966985462757 171.59345794393448,135.12348596453376 168.7546728971647,133.44985775944951 168.3509345795028,133.4772944100696 167.4803738318151,133.03830750983616 161.5,132.1466121465637 167.02616822428536,132.9148422555736 168.45186915888917,133.4224211047549 168.7546728971647,133.34011111616564 172.80467289721128,135.61734056101704 177.77570093463873,137.8533878534363 178.60841121495469,136.39927429663658 178.94906542054377,136.26209317967005 179.90794392518,136.38555618951796 178.583177570079,136.3718380814098 177.99018691590754,137.71620781972888 177.76308411214268,137.78479784933734 173.1831775701139,135.8505492155964 168.94392523361603,133.49101273382257 168.37616822432028,133.44985775944951 167.36682242993265,132.99715243428363 166.28177570091793,133.03830750983616 161.87850467290264,132.1877674122661 164.65420560748316,132.70906664781796" stroke="#4DD2FF" stroke-linecap="round" stroke-linejoin="round" stroke-width="0.5"><title>2024-12-31 8.0km</title><desc>1735619151000</desc></polyline><polyline fill="none" points="15.259813084150665,162.68163005549286 16.180841121531557,162.70906681849738 18.817757009412162,163.32639290584484 20.357009345840197,164.14949113606417 20.79859813087387,164.60219359426992 27.864018691587262,167.79851564374985 28.5327102803858,166.49530090630287 28.911214953288436,166.28952931518143 32.4060747664189,166.48158280736243 34.14719626167789,167.1812045493425 38.48738317762036,167.2909488951409 34.31121495331172,167.24979477316083 32.3808411215432,166.49530090630287 28.923831775784492,166.28952931518143 28.557943925261497,166.45414660645474 27.800934579514433,167.8533876408619 23.53644859814085,166.02888496963715 19.67570093460381,163.9025620533357 17.42990654206369,163.01087094201648 11.5,162.14661235915264 16.269158878538292,162.7639403322828 18.779906542098615,163.34011123984237 23.53644859814085,165.91913987169391 27.687383177632,167.83966964311549 28.002803738345392,167.7162076173845 28.5327102803858,166.48158280736243 28.96168224303983,166.2483749693638 32.33037383185001,166.45414660645474 34.374299065442756,167.2086406419403 38.5,167.2223586866894 34.525700934638735,167.23607673043443 32.317757009353954,166.48158280736243 28.898598130850587,166.26209308562102 28.5327102803858,166.45414660645474 27.977570093469694,167.70248960940808 27.775700934580527,167.79851564374985 23.20841121498961,165.87798544309044 18.8808411215432,163.4498578749335 16.988317757030018,162.98343422396283 11.701869158889167,162.21520445837814 17.26588785048807,162.96971586337895 18.426635514071677,163.4361395491287 18.918691588856746,163.38126623566495 22.93084112147335,165.60362235069624 18.8556074766675,163.4087028944341 15.045327102823649,162.6953484374826" stroke="yellow" stroke-linecap="round" stroke-linejoin="round" stroke-width="0.5"><title>2024-12-30 10.8km</title><desc>1735533491000</desc></polyline><polyline fill="none" points="52.79057835822459,162.63118403371482 55.25886194035411,163.04196738389146 55.95149253733689,163.43905708294187 56.30410447763279,163.39797887799796 57.021921641833615,163.69921883432835 60.107276119466405,165.4518778778147 65.11940298508853,167.75221750879427 65.48460820899345,167.76590992040292 66.0135261194082,166.46512626300682 66.42910447763279,166.23235347957234 69.74113805964589,166.45143375448242 71.71828358207131,167.21821266037296 76.0,167.28667490713997 71.88199626869755,167.21821266037296 69.86707089556148,166.47881877052714 66.37873134331312,166.2597385282279 66.03871268656803,166.46512626300682 65.59794776124181,167.57421606502612 65.25792910443852,167.8206795566366 60.548041044792626,165.83526981562318 57.19822761195246,163.9183021288336 55.284048507455736,163.13781670015305 49.0,162.15193563136563 55.06996268656803,163.02827462034475 57.48787313431967,163.9183021288336 60.03171641792869,165.4518778778147 65.22014925372787,167.84806436863437 65.47201492532622,167.77960233097838 66.05130597011885,166.47881877052714 66.40391791041475,166.3145086132572 69.84188432834344,166.50620378245367 71.73087686568033,167.23190511175198 75.96222014923114,167.27298245980637 74.67770522390492,167.3825220097351 71.79384328355081,167.23190511175198 69.82929104479263,166.45143375448242 66.41651119402377,166.2597385282279 66.06389925378608,166.41035622282652 65.48460820899345,167.7385250961379 65.1068097014795,167.7932947405643 61.0265858208877,166.01327294346993 59.691697761183605,165.19171860741335 55.25886194035411,163.0830456684198 49.64225746266311,162.28886387386592" stroke="#4DD2FF" stroke-linecap="round" stroke-linejoin="round" stroke-width="0.5"><title>2024-12-27 9.1km</title><desc>1735273142000</desc></polyline><polyline fill="none" points="108.21355140185915,166.6256229057908 107.22943925234722,166.3512609988975 106.18224299064605,166.47472390759503 103.72196261683712,166.24151612172136 102.85140186920762,167.80537444740185 98.27149532712065,165.93971737210813 93.72943925228901,163.4429996527906 93.36355140188243,163.4841546148964 92.3794392523705,163.0451678782265 86.5,162.11231758758368 90.6130841121776,162.77080063631 91.01682242995594,162.7022087619407 93.90607476636069,163.4292813300417 97.12336448597489,165.04803635863937 97.60280373838032,165.4870183202729 102.57383177569136,167.76422045107756 102.93971962615615,167.73678444843972 103.44439252332086,166.47472390759503 103.84813084109919,166.2277980074432 107.3303738317336,166.4472877128428 109.46261682244949,167.24293570168084 113.5,167.35267998208292 109.04626168223331,167.16062744848023 107.48177570092957,166.48844200343592 103.83551401866134,166.24151612172136 103.57056074769935,166.3238247857371 103.00280373834539,167.7779384508467 102.75046728970483,167.88768241243088 101.66542056074832,167.24293570168084 98.12009345792467,165.84369039350713 93.96915887854993,163.41556300628872 91.11775700934231,162.77080063631 88.12757009343477,162.37296740929014" stroke="#4DD2FF" stroke-linecap="round" stroke-linejoin="round" stroke-width="0.5"><title>2024-12-25 6.6km</title><desc>1735101299000</desc></polyline><polyline fill="none" points="126.8035547240288,162.3499114674487 126.70252572494792,162.59707365858776 126.86669784842525,162.54214875587786 127.10664172121324,162.14394272156642 127.87698783905944,162.67946098199172 128.73573433113052,162.72065462985483 131.375116931682,163.39348290860653 136.04770813841606,165.9474617716769 140.34144059871323,167.80113394290674 140.51824134704657,167.78740310648573 141.04864359210478,166.482968980461 141.4401309635141,166.27700485353125 144.82460243214155,166.46923804581456 147.00935453694547,167.29309231344087 151.0,167.3617466695432 146.81992516369792,167.25189968752966 144.69831618334865,166.4555071101786 141.3264733396354,166.29073580245313 141.04864359210478,166.42804523576342 140.48035547242034,167.71874890891195 140.25304022448836,167.75994143051503 135.5930776426685,165.8376139467582 132.09494855004596,163.80541737709427 130.1122544434038,163.0090099072404 124.0,162.15767397846503 126.07109448075062,162.47349260444753 127.0561272216728,162.44603013670712 130.52899906452512,163.13259060231212 132.10757717490196,163.75049283450062 136.43919550976716,166.139695307691 140.13938260055147,167.78740310648573 140.53086997190258,167.74621059102356 141.16230121609988,166.34565958805615 142.45042095414829,166.34565958805615 141.2001870907261,166.30446675040002 140.46772684750613,167.85605727841903 135.92142188962316,165.97492371764383 133.47146866226103,164.533166021356 130.2385406921967,163.1051282327826 124.03788587456802,162.17140523433045 129.2282507015625,162.9128915315814" stroke="#4DD2FF" stroke-linecap="round" stroke-linejoin="round" stroke-width="0.5"><title>2024-12-18 8.3km</title><desc>1734495982000</desc></polyline><polyline fill="none" points="164.34608208958525,161.22766501444858 163.88013059698278,161.33720875928702 164.04384328360902,161.2002790680126 163.88013059698278,161.30982282919285 163.77938432834344,161.15920014071162 163.8297574626631,161.29612986261782 164.84981343284016,162.00816277172999 167.07882462686393,162.9940499374352 167.6077425373369,163.82931131424266 168.19962686568033,164.294865188087 168.85447761195246,164.39071436863742 173.47621268656803,166.8827755178354 177.65718283585738,168.75864541104238 177.9594216417754,168.77233782161784 178.55130597017705,167.45786175366084 178.91651119402377,167.25247401886736 182.41744402988115,167.47155426118115 184.6212686567451,168.2383330527955 188.5,168.3067952893325 184.28125,168.2383330527955 182.41744402988115,167.48524676763918 178.8535447762115,167.26616654163809 178.48833955224836,167.47155426118115 177.85867537313607,168.827107453777 171.67537313431967,166.23922450137616 171.24720149248606,165.81475344867795 169.69822761201067,164.9384230129217 167.83442164183361,164.19901595752162 161.5,163.17205677866878 167.51958955224836,163.966239046611 168.57742537319427,164.43179257358133 168.8041044776328,164.3633288935671 173.5265858209459,166.9375457130518 176.77565298503032,168.224640602406 177.6697761194082,168.77233782161784 178.00979477615329,168.69018334276916 178.63945895520737,167.37570668727858 179.94916044780985,167.33462914035772 178.71501865668688,167.4167842250754 178.06016791047296,168.84079985928838 177.49347014923114,168.79972263977106 173.22434701491147,166.96493080456275 172.05317164183361,166.1981467004225 167.79664179106476,164.1305521907925 161.60074626863934,163.26790654481738 167.6077425373369,163.99362458083488" stroke="#4DD2FF" stroke-linecap="round" stroke-linejoin="round" stroke-width="0.5"><title>2024-12-17 8.6km</title><desc>1734409492000</desc></polyline><polyline fill="none" points="14.82928538066335,192.51817044784548 17.528024287719745,192.943241374247 18.51167678658385,193.4094470678392 18.83956095285248,193.31346363923512 23.51821578707313,195.89128691218502 27.768099019187503,197.72864954722172 27.995095749618486,197.7012263591605 28.575198505364824,196.34377344252425 28.890471742197406,196.16552130579657 32.54764128912939,196.4260436012264 34.37622606259538,197.1253384656884 38.5,197.19389664274058 38.096450256882235,197.33101292021456 34.36361513310112,197.19389664274058 32.2071461933665,196.3986202190863 28.96613731904654,196.26150324700575 28.474311069585383,196.56316045073618 27.93204110232182,197.72864954722172 27.717655301268678,197.79720749956323 23.896543671144173,196.1792330147291 18.763895376003347,193.43687089538435 18.095516114030033,193.35459940048167 17.389304063573945,192.943241374247 11.5,192.13423457366298 17.47758056985913,192.9295294242038 18.322512844461016,193.38202323621954 18.81433909392217,193.3408874810848 23.480382998648565,195.87757518180297 27.67982251284411,197.71493795371498 28.032928538043052,197.68751476357284 28.461700140091125,196.522025406608 28.890471742197406,196.1929447226721 32.58547407761216,196.4260436012264 34.33839327422902,197.1253384656884 38.42433442315087,197.23503153667843 34.56539000466,197.19389664274058 32.35847734706476,196.3986202190863 28.877860812761355,196.2340798403311 28.562587575928774,196.384908526481 27.90681924339151,197.79720749956323 23.392106492305174,195.94613382358511 18.776506305497605,193.43687089538435 17.654133582487702,193.03922499594046 11.651331153698266,192.16165859125613 17.452358710870612,192.943241374247 18.335123773955274,193.38202323621954 18.877393741277047,193.39573515253142 24.01004203641787,196.1243861727853 27.67982251284411,197.75607273122296 28.032928538043052,197.7012263591605 28.461700140091125,196.30263834937068 29.924567958980333,196.33006174581533 28.587809434859082,196.3574851381709 27.95726296119392,197.86576542633702 23.354273703880608,195.9324220972776 18.826950023358222,193.42315898214292 18.423400280240458,193.43687089538435 17.427136851940304,192.95695332325704 11.651331153698266,192.2165066141315 17.33886034565512,192.9295294242038" stroke="yellow" stroke-linecap="round" stroke-linejoin="round" stroke-width="0.5"><title>2024-12-15 13.0km</title><desc>1734235831000</desc></polyline><polyline fill="none" points="51.66977611934999,192.24093879183056 51.66977611934999,192.39155978562485 52.8031716417172,192.7338797669654 54.326958955149166,193.0488135866326 55.120335820829496,192.9940425263194 55.88852611934999,193.43221055172035 56.32929104473442,193.44590328568302 61.54291044775164,196.22550715645775 65.28311567165656,197.81383335187274 65.52238805964589,197.80014094332 66.02611940295901,196.58151249715593 66.40391791041475,196.33504733472364 69.8796641791123,196.51304998520936 71.88199626863934,197.27982866256207 76.0,197.36198333113862 71.80643656715984,197.27982866256207 69.98041044775164,196.52674248961557 66.34095149260247,196.28027725375432 65.98833955219015,196.44458744773874 65.3838619402959,197.84121816587867 60.98880597011885,196.04750422752113 56.89598880591802,193.76083588520123 55.032182835799176,193.0351208230859 49.0,192.15878183410678 52.19869402976474,192.48740944467136 55.032182835799176,192.95296422039974 56.30410447757458,193.36374686662748 60.17024253727868,195.4724166635715 64.03638059698278,197.170289047368 64.99347014923114,197.77275612315862 65.50979477609508,197.71798647058313 65.97574626863934,196.58151249715593 66.3661380597041,196.30766229631263 69.8166977611836,196.45827995723812 71.69309701496968,197.23875131450768 73.12873134325491,197.25244376489718 71.59235074627213,197.1976739572856 69.79151119402377,196.48566497328284 66.5046641791123,196.28027725375432 65.98833955219015,196.43089493717707 65.35867537313607,197.78644853373407 60.74953358207131,195.91057878026913 56.32929104473442,193.47328875052335 55.00699626858113,193.0351208230859 53.0172574626049,192.78865090479667" stroke="#4DD2FF" stroke-linecap="round" stroke-linejoin="round" stroke-width="0.5"><title>2024-12-13 8.5km</title><desc>1734064159000</desc></polyline><polyline fill="none" points="89.42064241843764,192.54550260807446 92.20099196978845,192.94765770706 94.1140765233431,193.5439550475421 98.0932923948858,195.79045345360646 102.5444024563185,197.75958407904545 102.90151157299988,197.77345112225157 103.4754369391012,196.45607740404375 103.83254605572438,196.27580448583467 107.33986773737706,196.45607740404375 109.09990552667296,197.17716733105772 113.5,197.26036983520316 109.52078412851552,197.23263567127287 107.21232876711292,196.44221026268497 103.74326877662679,196.26193733104446 103.37340576288989,196.3867416869616 102.95252716104733,197.57931242320046 102.6464336325298,197.85665335986414 101.74090694379993,197.34357230215392 98.08053849783028,195.91525812564942 94.38190836086869,193.79356732050655 92.41780821915017,193.1140664593695 94.36915446381317,193.73809795544366 96.71587151632411,195.15256160090212 101.76641473785276,197.32970522687538 102.50614076526836,197.81505224571447 102.87600377888884,197.73184998950455 103.44992914499016,196.22033586050384 102.85049598489422,197.6902488474443 102.53164855932118,197.77345112225157 98.22083136509173,195.94299248582684 93.62942843651399,193.36367930888082 93.1830420406186,193.3775466795778 92.060699102527,192.91992290054623 86.5,192.14334664013586" stroke="#4DD2FF" stroke-linecap="round" stroke-linejoin="round" stroke-width="0.5"><title>2024-12-11 6.6km</title><desc>1733890893000</desc></polyline><polyline fill="none" points="127.27387640444795,192.67728927131975 130.16853932582308,193.00714664009865 130.80056179768872,193.3782354749419 131.31882022472564,193.3644914573233 136.07162921346026,195.98958024053718 140.31882022466743,197.83124326927646 141.0140449438477,196.40189445612486 141.38061797746923,196.23696888047562 145.00842696626205,196.45686961528554 146.86657303367974,197.18528892709583 150.96207865170436,197.28149503628083 147.01825842697872,197.18528892709583 145.0463483146159,196.52558854113158 141.11516853928333,196.36066307603323 140.41994382016128,197.87247432072763 135.9831460674177,196.0170678835857 134.70646067417692,195.15120516030584 131.2808988763718,193.44695554762438 131.00280898879282,193.51567559471005 129.91573033708846,193.07586685102433 124.1264044943382,192.25122263029334 128.92977528087795,192.80098585372616 131.2808988763718,193.35074743870064 134.5926966291736,194.98627846651652 135.9705056179664,195.90711728684255 140.2176966292318,197.80375589654432 140.4831460674177,197.7075500596984 141.03932584269205,196.48435718867404 141.38061797746923,196.23696888047562 143.5926966291736,196.45686961528554 144.7176966291736,196.36066307603323 146.92977528087795,197.1990326600644 151.0,197.26775130948226 146.71488764043897,197.17154519312317 144.9831460674177,196.48435718867404 141.35533707862487,196.2507126841083 141.03932584269205,196.37440687044 140.5969101123046,197.6113441726775 140.35674157302128,197.81749958344153 136.41292134829564,196.16824984710547 134.0491573033505,194.75263206461386 131.25561797752744,193.3782354749419 129.2331460674177,192.86970614145685 124.0,192.12752567925781 130.45926966291154,193.06212281090848 140.0154494381859,197.73503744676418 140.4831460674177,197.65257527322683 141.03932584269205,196.22322507583885 140.50842696626205,197.7075500596984 140.24297752807615,197.76252482976997 136.12219101120718,196.0170678835857 131.29353932588128,193.33700341904478 126.88202247186564,192.5948248369532" stroke="yellow" stroke-linecap="round" stroke-linejoin="round" stroke-width="0.5"><title>2024-12-09 12.1km</title><desc>1733738831000</desc></polyline><polyline fill="none" points="172.73515551368473,195.51881740322278 177.81196983973496,197.8153353616508 178.3972667294438,196.48723205341958 178.85532516491367,196.23821162570675 182.1380772855482,196.37655634898692 184.1357210178394,197.16511930373963 188.5,197.31729773411644 184.5556079170201,197.23429133299214 182.3543826577952,196.47339759395982 178.89349670126103,196.2935495273996 178.4608859565924,196.43189420946874 177.8374175306526,197.8430040795938 173.8166823750944,196.16903922545316 168.701696512755,193.40212208482262 168.24363807722693,193.4159567730967 167.6583411875763,193.028585112188 164.03204524033936,192.5443693996349 163.5739868048695,192.3230132247554 163.35768143262248,192.50286513693572 161.7672007540241,192.2538393659779 165.53345900092972,192.64121264315327 168.701696512755,193.34678332146723 172.03534401510842,194.9931044781988 172.97690857684938,195.68483170191757 177.6211121583474,197.8153353616508 177.92648444860242,197.69082607999735 178.4608859565924,196.40422528130875 178.75353440147592,196.1828737075557 179.88595664460445,196.37655634898692 182.32893496699398,196.39039081564988 184.36475023563253,197.17895371167106 188.41093308193376,197.26196013748995 184.26295947219478,197.13745048482087 182.32893496699398,196.4180597458908 178.84260131948395,196.26588057864865 178.3209236569237,196.70858326436428 177.82469368516468,197.8430040795938 173.09142318571685,195.79550781860598 168.68897266726708,193.40212208482262 168.39632422244176,193.4574608316616 166.75494816206628,192.9179073463456 161.5,192.1569959204062 166.99670122528914,192.9179073463456 168.2818096135161,193.38828739552991 168.7653157398454,193.37445270523313 170.40669180022087,194.27370543213328" stroke="#4DD2FF" stroke-linecap="round" stroke-linejoin="round" stroke-width="0.5"><title>2024-12-06 9.2km</title><desc>1733479157000</desc></polyline><polyline fill="none" points="14.239130434696563,222.56388643894752 17.672510518867057,222.9756298893044 18.404628330958076,223.42854662169702 18.808555399707984,223.34619820771331 23.51683029450942,225.98132919649652 27.63183730712626,227.80668429371144 28.04838709672913,227.68316459449125 28.490182328154333,226.50286106974818 28.96984572231304,226.31071791979775 32.37798036460299,226.4754120605794 34.29663394106319,227.20280942133104 38.5,227.3400538843125 34.347124824649654,227.20280942133104 32.352734922780655,226.5165855727828 28.9067321177572,226.29699340139632 28.464936886331998,226.57148357472033 27.83380084147211,227.83413310452306 23.17601683025714,225.85780827343115 22.115708274883218,225.130405602089 18.821178120560944,223.4559960848419 18.45511921454454,223.48344554388314 17.533660589018837,223.04425370819808 11.5,222.1658668954624 17.533660589018837,223.03052894645953 19.427068723656703,223.82656343693088 18.871669004147407,223.4559960848419 14.25175315560773,222.5776112354797" stroke="#4DD2FF" stroke-linecap="round" stroke-linejoin="round" stroke-width="0.5"><title>2024-12-03 5.6km</title><desc>1733220329000</desc></polyline><polyline fill="none" points="52.524475524551235,222.7007196889026 55.079720279725734,222.97444764526153 55.94825174828293,223.48084328924597 57.05594405595912,223.61770673717547 58.25174825178692,224.3978264432517 59.88811188808177,225.01370808160573 60.932867132883985,225.8211942124908 65.42657342663733,227.79199291770055 65.99300699302694,226.57393232446339 66.44615384622011,226.2728374497965 69.88251748256152,226.46444333624095 71.99720279726898,227.24455095360463 74.9552447553142,227.2171788125852 76.0,227.299295223449 75.68531468533911,227.38141159756924 71.87132867134642,227.27192309054954 69.88251748256152,226.51918783852307 66.4335664336104,226.32758200916578 66.05594405601732,226.5055017144623 65.476923077018,227.80567894590786 65.20000000001164,227.833050999252 60.542657342681196,225.83488038752694 58.02517482516123,224.3978264432517 54.966433566471096,223.0291931875836 49.0,222.19432189429062 55.18041958048707,223.00182041845983 56.96783216786571,223.8230017178721 54.94125874125166,223.0702523336222 49.02517482516123,222.16694900076254 52.67552447557682,222.67334687081166" stroke="#4DD2FF" stroke-linecap="round" stroke-linejoin="round" stroke-width="0.5"><title>2024-12-02 6.1km</title><desc>1733112856000</desc></polyline><polyline fill="none" points="86.5,221.28143743368855 87.29999999998836,221.61488187905343 89.14000000001397,224.0794535371242 88.97999999998137,223.91998219798552 89.32666666666046,223.90548479702557 89.78000000002794,223.3545827605849 91.43333333334886,223.60103912759223 92.04666666663252,224.00696658098605 93.27333333331626,224.25342212164833 94.59333333326504,225.07977077427495 96.19333333329996,225.68865700965398 97.03333333332557,226.42801630546455 101.83333333331393,228.6170832394564 102.22000000003027,228.6170832394564 102.80666666664183,227.26885287500045 103.19333333329996,227.0803898218437 106.88666666665813,227.26885287500045 109.16666666662786,228.08069163264008 113.5,228.12418289908965 109.19333333335817,228.10968581135967 106.89999999996508,227.2978471746319 103.23333333333721,227.109384149604 102.83333333331393,227.28335002534732 102.11333333334187,228.71856256631145 97.52666666661389,226.7904463067971 94.4199999999837,225.03627882743604 91.3133333332953,223.61553655120952 87.54000000003725,223.16611591634864" stroke="#4DD2FF" stroke-linecap="round" stroke-linejoin="round" stroke-width="0.5"><title>2024-11-29 4.6km</title><desc>1732853630000</desc></polyline><polyline fill="none" points="126.28660287079401,224.12914340617135 126.09282296651509,224.24151509003423 126.91961722489214,224.25556154578226 126.20909090916393,224.1712827954907 126.85502392344642,224.2274686331948 126.77751196169993,224.4241189334134 127.81100478465669,223.0897021553974 130.2397129186429,222.92114357471291 131.01483253587503,223.342539743855 132.1129186602775,223.5672839822655 136.4148325358983,226.0254066001653 140.7296650717617,227.89355835648894 141.3755980861606,226.53107356419787 141.76315789471846,226.34847176140465 145.43205741629936,226.53107356419787 147.29234449757496,227.28957146753964 151.0,227.33171015049447 147.36985645932145,227.261479007022 145.16076555021573,226.4889347023418 141.71148325363174,226.29228655573388 141.40143540670397,226.4748884129367 140.7296650717617,227.87951217172667 136.15645933011547,226.0254066001653 131.42822966509266,223.3846793089615 130.00717703351984,222.9492366819468 124.0,222.1064416435256 130.13636363635305,222.92114357471291 130.92440191394417,223.32849322004768 131.751196172263,223.4408653811115 135.08421052637277,225.21071808320994 130.0976076555089,222.97732978500426 126.85502392344642,222.54188621713547" stroke="#4DD2FF" stroke-linecap="round" stroke-linejoin="round" stroke-width="0.5"><title>2024-11-28 6.3km</title><desc>1732767063000</desc></polyline><polyline fill="none" points="161.68120805372018,221.77369205487776 165.66778523492394,222.44687454985979 166.57382550340844,222.92302678020496 166.9966442953446,222.89018872838642 171.14932885905728,224.92613868853368 172.58389261743287,225.87843140719633 177.83892617450329,228.17705205084349 178.57885906042065,226.58443887000612 179.122483221523,226.28890113750822 183.1241610737634,226.5023450951703 184.9664429530385,227.27402537131275 186.567114093923,227.53672442333482 188.5,227.48746837492217 185.58557046978967,227.43821231552283 183.39597315434366,226.58443887000612 179.27348993293708,226.37099499189935 178.6543624160695,226.61727637136937 177.83892617450329,228.2263079451368 172.11577181209577,225.8127561793517 166.9966442953446,222.89018872838642 166.61912751680939,222.97228384877963 165.32046979869483,222.39761736385117 161.5,221.8886257971899" stroke="#4DD2FF" stroke-linecap="round" stroke-linejoin="round" stroke-width="0.5"><title>2024-11-25 4.0km</title><desc>1732507947000</desc></polyline><polyline fill="none" points="11.5,250.3820539493172 17.004012841149233,251.08889195811935 18.499197431840003,251.96065665973583 19.32263242395129,251.86641194298863 20.839486356358975,252.36119639253593 22.421348314732313,253.49212937030825 25.41171749611385,254.78798510192428 27.73033707868308,256.3901266656467 32.974317817017436,258.43991359628853 34.72953451052308,259.5001430026896 35.184590690303594,259.311658034625 36.15971107548103,257.02626885892823 38.5,256.97914725885494 36.24638844304718,257.09695124591235 34.98956661322154,259.6179460506828 28.077046549064107,256.7435391532199 19.2792937400518,252.03134017882985 18.694221508922055,252.14914600894554 20.774478330742568,252.54968550303602 21.792937399703078,253.49212937030825 23.5914927769918,253.98691127626807 27.6869983949,256.437248353468 34.25280898890924,259.35877928716945 35.184590690303594,259.4530217712163 36.15971107548103,257.002708059852 35.11958266457077,259.6179460506828 28.18539325846359,256.69641751106246" stroke="#4DD2FF" stroke-linecap="round" stroke-linejoin="round" stroke-width="0.5"><title>2024-11-20 4.0km</title><desc>1732095798000</desc></polyline><polyline fill="none" points="50.577270313340705,252.06118933402468 54.56346255977405,252.63804590460495 55.52416356879985,253.12135694212338 56.18374933610903,253.18371957530326 59.86882634094218,255.00781837440445 60.843866171024274,255.7561620000488 66.09187466808362,258.0791282917635 66.33563462557504,258.04794770693115 66.92352628783556,256.67599737366254 67.35369091870962,256.34859880578006 71.33988316514296,256.56686457463366 73.43335103557911,257.4087446934136 76.0,257.50228671974037 73.39033457246842,257.4243350340548 71.11046202864964,256.55127417010954 67.439723844931,256.3641892253945 66.83749336161418,256.76953972753836 66.27827934140805,258.11030887201196 60.94423791824374,255.91206658522424 56.84333510353463,253.6202574873605 54.53478491771966,252.70040868186334 49.0,251.8896911280026" stroke="#4DD2FF" stroke-linecap="round" stroke-linejoin="round" stroke-width="0.5"><title>2024-11-19 4.1km</title><desc>1731989484000</desc></polyline></svg>