<?xml version="1.0" encoding="utf-8" ?>
<svg baseProfile="full" height="300mm" version="1.1" viewBox="0,0,200,300" width="200mm" xmlns="http://www.w3.org/2000/svg" xmlns:ev="http://www.w3.org/2001/xml-events" xmlns:xlink="http://www.w3.org/1999/xlink"><defs /><rect fill="#222222" height="300" width="200" x="0" y="0" /><text fill="#FFFFFF" style="font-size:12px; font-family:Arial; font-weight:bold;" x="10" y="20">Over 4km Runs</text><text fill="#FFFFFF" style="font-size:4px; font-family:Arial" x="10" y="280">ATHLETE</text><text fill="#FFFFFF" style="font-size:9px; font-family:Arial" x="10" y="290">Fake David</text><text fill="#FFFFFF" style="font-size:4px; font-family:Arial" x="65" y="280">SPECIAL TRACKS</text><rect fill="yellow" height="2.6" width="2.6" x="65" y="283" /><text fill="#FFFFFF" style="font-size:3px; font-family:Arial" x="70" y="285.5">Over 10.0 km</text><rect fill="red" height="2.6" width="2.6" x="65" y="287" /><text fill="#FFFFFF" style="font-size:3px; font-family:Arial" x="70" y="289.5">Over 15.0 km</text><text fill="#FFFFFF" style="font-size:4px; font-family:Arial" x="120" y="280">STATISTICS</text><text fill="#FFFFFF" style="font-size:3px; font-family:Arial" x="120" y="285">Number: 12</text><text fill="#FFFFFF" style="font-size:3px; font-family:Arial" x="120" y="290">Weekly: 3.0</text><text fill="#FFFFFF" style="font-size:3px; font-family:Arial" x="141" y="285">Total: 84.0 km</text><text fill="#FFFFFF" style="font-size:3px; font-family:Arial" x="141" y="290">Avg: 7.0 km</text><text fill="#FFFFFF" style="font-size:3px; font-family:Arial" x="167" y="285">Min: 4.0 km</text><text fill="#FFFFFF" style="font-size:3px; font-family:Arial" x="167" y="290">Max: 13.0 km</text><polyline fill="none" points="19.6585707613267,55.036340895690955 25.05604857543949,55.88648274849402 27.023353573167697,56.81889413567842 27.67912190570496,56.62692727847025 37.03643157414626,61.78257382437005 45.536198038375005,65.45729909444344 45.99019149923697,65.402452718321 47.15039701072965,62.687546885048505 47.78094348439481,62.33104261159315 55.095282578258775,62.85208720245282 58.75245212519076,64.2506769313768 67.0,64.38779328548117 66.19290051376447,64.66202584042912 58.72723026620224,64.38779328548117 54.414292386732996,62.797240438172594 47.93227463809308,62.5230064940115 46.948622139170766,63.126320901472354 45.86408220464364,65.45729909444344 45.435310602537356,65.59441499912646 37.793087342288345,62.358466029458214 27.527790752006695,56.87374179076869 26.191032228060067,56.70919880096335 24.77860812714789,55.88648274849402 13.0,54.26846914732596 24.955161139718257,55.859058848407585 26.645025688922033,56.76404647243908 27.628678187844343,56.681774962169584 36.96076599729713,61.755150363605935 45.35964502568822,65.42987590742996 46.065857076086104,65.37502952714567 46.92340028018225,63.04405081321602 47.78094348439481,62.38588944534422 55.17094815522432,62.85208720245282 58.67678654845804,64.2506769313768 66.84866884630173,64.47006307335687 59.130780009320006,64.38779328548117 54.71695469412953,62.797240438172594 47.75572162552271,62.46815968066221 47.12517515185755,62.769817052962026 45.81363848678302,65.59441499912646 36.78421298461035,61.89226764717023 27.55301261099521,56.87374179076869 25.308267164975405,56.078449991880916 13.302662307396531,54.323317182512255 24.904717421741225,55.88648274849402 26.67024754791055,56.76404647243908 27.754787482554093,56.79147030506283 38.02008407283574,62.248772345570615 45.35964502568822,65.51214546244591 46.065857076086104,65.402452718321 46.92340028018225,62.60527669874136 49.849135917960666,62.66012349163066 47.175618869718164,62.714970276341774 45.91452592238784,65.73153085267404 36.708547407761216,61.86484419455519 27.653900046716444,56.846317964285845 26.846800560480915,56.87374179076869 24.854273703880608,55.91390664651408 13.302662307396531,54.43301322826301 24.677720691310242,55.859058848407585" stroke="yellow" stroke-linecap="round" stroke-linejoin="round" stroke-width="0.5"><title>2024-12-15 13.0km</title><desc>1734235831000</desc></polyline><polyline fill="none" points="78.33955223869998,54.48187758366112 78.33955223869998,54.7831195712497 80.6063432834344,55.4677595339308 83.65391791029833,56.09762717326521 85.24067164165899,55.98808505263878 86.77705223869998,56.86442110344069 87.65858208946884,56.89180657136603 98.08582089550328,62.451014312915504 105.56623134331312,65.62766670374549 106.04477611929178,65.60028188664 107.05223880591802,63.163024994311854 107.8078358208295,62.67009466944728 114.7593283582246,63.02609997041873 118.76399253727868,64.55965732512414 127.0,64.72396666227723 118.61287313431967,64.55965732512414 114.96082089550328,63.05348497923114 107.68190298520494,62.56055450750864 106.97667910438031,62.88917489547748 105.7677238805918,65.68243633175734 96.9776119402377,62.09500845504226 88.79197761183605,57.52167177040246 85.06436567159835,56.07024164617178 73.0,54.31756366821355 79.39738805952948,54.974818889342714 85.06436567159835,55.90592844079947 87.60820895514917,56.72749373325496 95.34048507455736,60.94483332714299 103.07276119396556,64.34057809473597 104.98694029846229,65.54551224631723 106.01958955219015,65.43597294116626 106.95149253727868,63.163024994311854 107.7322761194082,62.61532459262526 114.63339552236721,62.91655991447624 118.38619402993936,64.47750262901536 121.25746268650983,64.50488752979436 118.18470149254426,64.39534791457118 114.58302238804754,62.971329946565675 108.0093283582246,62.56055450750864 106.97667910438031,62.861789874354145 105.71735074627213,65.57289706746815 96.49906716414262,61.82115756053827 87.65858208946884,56.946577501046704 85.01399253716227,56.07024164617178 81.0345149252098,55.57730180959334" stroke="#4DD2FF" stroke-linecap="round" stroke-linejoin="round" stroke-width="0.5"><title>2024-12-13 8.5km</title><desc>1734064159000</desc></polyline><polyline fill="none" points="138.84128483687527,55.091005216148915 144.4019839395769,55.89531541411998 148.2281530466862,57.087910095084226 156.1865847897716,61.58090690721292 165.088804912637,65.5191681580909 165.80302314599976,65.54690224450314 166.9508738782024,62.91215480808751 167.66509211144876,62.55160897166934 174.67973547475412,62.91215480808751 178.1998110533459,64.35433466211543 187.0,64.52073967040633 179.04156825703103,64.46527134254575 174.42465753422584,62.88442052536993 167.48653755325358,62.52387466208893 166.74681152577978,62.77348337392323 165.90505432209466,65.15862484640093 165.2928672650596,65.71330671972828 163.48181388759986,64.68714460430783 156.16107699566055,61.83051625129883 148.76381672173738,57.58713464101311 144.83561643830035,56.22813291873899 148.73830892762635,57.47619591088733 153.43174303264823,60.305123201804236 163.5328294757055,64.65941045375075 165.0122815305367,65.63010449142894 165.7520075577777,65.4636999790091 166.89985828998033,62.440671721007675 165.70099196978845,65.38049769488862 165.06329711864237,65.54690224450314 156.44166273018345,61.88598497165367 147.25885687302798,56.72735861776164 146.3660840812372,56.75509335915558 144.121398205054,55.83984580109245 133.0,54.28669328027172" stroke="#4DD2FF" stroke-linecap="round" stroke-linejoin="round" stroke-width="0.5"><title>2024-12-11 6.6km</title><desc>1733890893000</desc></polyline><polyline fill="none" points="19.547752808895893,115.3545785426395 25.337078651646152,116.01429328019731 26.60112359537743,116.7564709498838 27.637640449451283,116.72898291464662 37.14325842692051,121.97916048107436 45.63764044933487,125.66248653855291 47.02808988769539,122.80378891224973 47.761235954938456,122.47393776095123 55.0168539325241,122.91373923057108 58.733146067359485,124.37057785419165 66.92415730340872,124.56299007256166 59.03651685395744,124.37057785419165 55.092696629231796,123.05117708226317 47.23033707856666,122.72132615206647 45.83988764032256,125.74494864145527 36.966292134835385,122.03413576717139 34.41292134835385,120.30241032061167 27.561797752743587,116.89391109524877 27.005617977585644,117.03135118942009 24.831460674176924,116.15173370204866 13.252808988676406,114.50244526058668 22.859550561755896,115.60197170745232 27.561797752743587,116.70149487740127 34.185393258347176,119.97255693303305 36.94101123593282,121.8142345736851 45.43539325846359,125.60751179308863 45.966292134835385,125.41510011939681 47.0786516853841,122.96871437734808 47.761235954938456,122.47393776095123 52.185393258347176,122.91373923057108 54.435393258347176,122.72132615206647 58.859550561755896,124.39806532012881 67.0,124.53550261896453 58.42977528087795,124.34309038624633 54.966292134835385,122.96871437734808 47.71067415724974,122.50142536821659 47.0786516853841,122.74881374088 46.193820224609226,125.22268834535498 45.71348314604256,125.63499916688306 37.82584269659128,122.33649969421094 33.098314606701024,119.50526412922773 27.51123595505487,116.7564709498838 23.466292134835385,115.73941228291369 13.0,114.25505135851563 25.918539325823076,116.12424562181695 45.03089887637179,125.47007489352836 45.966292134835385,125.30515054645366 47.0786516853841,122.44645015167771 46.0168539325241,125.41510011939681 45.48595505615231,125.52504965953995 37.24438202241436,122.03413576717139 27.587078651762567,116.67400683808955 18.764044943731278,115.18964967390639" stroke="yellow" stroke-linecap="round" stroke-linejoin="round" stroke-width="0.5"><title>2024-12-09 12.1km</title><desc>1733738831000</desc></polyline><polyline fill="none" points="95.47031102736946,121.03763480644557 105.62393967946991,125.63067072330159 106.7945334588876,122.97446410683915 107.71065032982733,122.47642325141351 114.27615457109641,122.75311269797385 118.27144203567877,124.33023860747926 127.0,124.63459546823287 119.1112158340402,124.46858266598429 114.70876531559043,122.94679518791963 107.78699340252206,122.58709905479918 106.92177191318478,122.86378841893747 105.6748350613052,125.68600815918762 97.63336475018878,122.33807845090632 87.40339302551001,116.80424416964524 86.48727615445387,116.83191354619339 85.3166823751526,116.05717022437602 78.06409048067871,115.08873879926978 77.14797360973898,114.64602644951083 76.71536286524497,115.00573027387145 73.53440150804818,114.50767873195582 81.06691800185945,115.28242528630653 87.40339302551001,116.69356664293446 94.07068803021684,119.9862089563976 95.95381715369876,121.36966340383515 105.24222431669477,125.63067072330159 105.85296889720485,125.3816521599947 106.92177191318478,122.80845056261751 107.50706880295184,122.3657474151114 109.7719132892089,122.75311269797385 114.65786993398797,122.78078163129976 118.72950047126506,124.35790742334211 126.82186616386753,124.5239202749799 118.52591894438956,124.27490096964175 114.65786993398797,122.83611949178157 107.6852026389679,122.5317611572973 106.64184731384739,123.41716652872856 105.64938737032935,125.68600815918762 96.1828463714337,121.59101563721197 87.37794533453416,116.80424416964524 86.79264844488353,116.91492166332318 83.50989632413257,115.8358146926912 73.0,114.31399184081238 83.99340245057829,115.8358146926912 86.56361922703218,116.77657479105983 87.53063147969078,116.74890541046625 90.81338360044174,118.54741086426657" stroke="#4DD2FF" stroke-linecap="round" stroke-linejoin="round" stroke-width="0.5"><title>2024-12-06 9.2km</title><desc>1733479157000</desc></polyline><polyline fill="none" points="138.47826086939313,115.12777287789504 145.3450210377341,115.9512597786088 146.80925666191615,116.85709324339405 147.61711079941597,116.69239641542663 157.03366058901884,121.96265839299303 165.26367461425252,125.61336858742288 166.09677419345826,125.36632918898249 166.98036465630867,123.00572213949636 167.93969144462608,122.6214358395955 174.75596072920598,122.9508241211588 178.59326788212638,124.40561884266208 187.0,124.68010776862502 178.6942496492993,124.40561884266208 174.7054698455613,123.03317114556557 167.8134642355144,122.59398680279264 166.929873772664,123.14296714944066 165.66760168294422,125.66826620904612 156.35203366051428,121.7156165468623 154.23141654976644,120.26081120417803 147.6423562411219,116.9119921696838 146.91023842908908,116.96689108776627 145.06732117803767,116.08850741639617 133.0,114.33173379092477 145.06732117803767,116.06105789291905 148.8541374473134,117.65312687386177 147.7433380082948,116.9119921696838 138.50350631121546,115.15522247095942" stroke="#4DD2FF" stroke-linecap="round" stroke-linejoin="round" stroke-width="0.5"><title>2024-12-03 5.6km</title><desc>1733220329000</desc></polyline><polyline fill="none" points="20.04895104910247,175.40143937780522 25.15944055945147,175.94889529052307 26.896503496565856,176.96168657849194 29.111888111918233,177.23541347435093 31.503496503573842,178.79565288650338 34.77622377616353,180.02741616321146 36.86573426576797,181.64238842498162 45.853146853274666,185.5839858354011 46.98601398605388,183.14786464892677 47.89230769244023,182.545674899593 54.76503496512305,182.9288866724819 58.994405594537966,184.48910190720926 64.9104895106284,184.43435762517038 67.0,184.59859044689802 66.37062937067822,184.76282319513848 58.74265734269284,184.54384618109907 54.76503496512305,183.03837567704613 47.86713286722079,182.65516401833156 47.11188811203465,183.0110034289246 45.953846154036,185.61135789181571 45.40000000002328,185.66610199850402 36.08531468536239,181.66976077505387 31.05034965032246,178.79565288650338 24.932867132942192,176.05838637516717 13.0,174.38864378858125 25.360839160974137,176.00364083691966 28.935664335731417,177.6460034357442 24.882517482503317,176.1405046672444 13.05034965032246,174.33389800152509 20.351048951153643,175.3466937416233" stroke="#4DD2FF" stroke-linecap="round" stroke-linejoin="round" stroke-width="0.5"><title>2024-12-02 6.1km</title><desc>1733112856000</desc></polyline><polyline fill="none" points="73.0,172.5628748673771 74.59999999997672,173.22976375810686 78.28000000002794,178.15890707424842 77.95999999996275,177.83996439597104 78.65333333332092,177.81096959405113 79.56000000005588,176.70916552116978 82.86666666669771,177.20207825518446 84.09333333326504,178.0139331619721 86.54666666663252,178.50684424329665 89.18666666653007,180.1595415485499 92.38666666659992,181.37731401930796 94.06666666665114,182.8560326109291 103.66666666662786,187.2341664789128 104.44000000006054,187.2341664789128 105.61333333328366,184.5377057500009 106.38666666659992,184.16077964368742 113.77333333331626,184.5377057500009 118.33333333325572,186.16138326528016 127.0,186.2483657981793 118.38666666671634,186.21937162271934 113.79999999993015,184.5956943492638 106.46666666667443,184.21876829920802 105.66666666662786,184.56670005069464 104.22666666668374,187.4371251326229 95.05333333322778,183.5808926135942 88.8399999999674,180.07255765487207 82.62666666659061,177.23107310241903 75.0800000000745,176.3322318326973" stroke="#4DD2FF" stroke-linecap="round" stroke-linejoin="round" stroke-width="0.5"><title>2024-11-29 4.6km</title><desc>1732853630000</desc></polyline><polyline fill="none" points="137.57320574158803,178.2582868123427 137.18564593303017,178.48303018006845 138.83923444978427,178.5111230915645 137.41818181832787,178.3425655909814 138.71004784689285,178.4549372663896 138.55502392339986,178.84823786682682 140.62200956931338,176.17940431079478 145.47942583728582,175.84228714942583 147.02966507175006,176.68507948771003 149.225837320555,177.13456796453102 157.82966507179663,182.0508132003306 166.4593301435234,185.78711671297788 167.75119617232122,183.06214712839574 168.52631578943692,182.6969435228093 175.86411483259872,183.06214712839574 179.58468899514992,184.5791429350793 187.0,184.66342030098895 179.7397129186429,184.52295801404398 175.32153110043146,182.9778694046836 168.42296650726348,182.58457311146776 167.80287081340794,182.9497768258734 166.4593301435234,185.75902434345335 157.31291866023093,182.0508132003306 147.85645933018532,176.769358617923 145.01435406703968,175.89847336389357 133.0,174.21288328705123 145.2727272727061,175.84228714942583 146.84880382788833,176.65698644009535 148.50239234452602,176.88173076222301 155.16842105274554,180.42143616641988 145.19521531101782,175.95465957000852 138.71004784689285,175.08377243427094" stroke="#4DD2FF" stroke-linecap="round" stroke-linejoin="round" stroke-width="0.5"><title>2024-11-28 6.3km</title><desc>1732767063000</desc></polyline><polyline fill="none" points="13.362416107440367,233.5473841097555 21.33557046984788,234.89374909971957 23.147651006816886,235.84605356040993 23.99328859068919,235.78037745677284 32.298657718114555,239.85227737706737 35.16778523486573,241.75686281439266 45.67785234900657,246.35410410168697 47.15771812084131,243.16887774001225 48.244966443045996,242.57780227501644 56.24832214752678,243.00469019034063 59.93288590607699,244.5480507426255 63.13422818784602,245.07344884666963 67.0,244.97493674984435 61.171140939579345,244.87642463104567 56.79194630868733,243.16887774001225 48.546979865874164,242.7419899837987 47.30872483213898,243.23455274273874 45.67785234900657,246.4526158902736 34.231543624191545,241.62551235870342 23.99328859068919,235.78037745677284 23.23825503361877,235.94456769755925 20.64093959738966,234.79523472770234 13.0,233.77725159437978" stroke="#4DD2FF" stroke-linecap="round" stroke-linejoin="round" stroke-width="0.5"><title>2024-11-25 4.0km</title><desc>1732507947000</desc></polyline><polyline fill="none" points="73.0,230.7641078986344 84.00802568229847,232.1777839162387 86.99839486368,233.92131331947166 88.64526484790258,233.73282388597727 91.67897271271795,234.72239278507186 94.84269662946463,236.9842587406165 100.8234349922277,239.57597020384856 105.46067415736616,242.78025333129335 115.94863563403487,246.87982719257707 119.45906902104616,249.00028600537917 120.36918138060719,248.62331606925 122.31942215096205,244.05253771785647 127.0,243.95829451770987 122.49277688609436,244.1939024918247 119.97913322644308,249.2358921013656 106.15409309812821,243.4870783064398 88.5585874801036,234.0626803576597 87.38844301784411,234.29829201789107 91.54895666148514,235.09937100607203 93.58587479940616,236.9842587406165 97.1829855539836,237.97382255253615 105.3739967898,242.87449670693604 118.50561797781847,248.7175585743389 120.36918138060719,248.9060435424326 122.31942215096205,244.00541611970402 120.23916532914154,249.2358921013656 106.37078651692718,243.39283502212493" stroke="#4DD2FF" stroke-linecap="round" stroke-linejoin="round" stroke-width="0.5"><title>2024-11-20 4.0km</title><desc>1732095798000</desc></polyline><polyline fill="none" points="136.1545406266814,234.12237866804935 144.1269251195481,235.2760918092099 146.0483271375997,236.24271388424677 147.36749867221806,236.36743915060651 154.73765268188436,240.0156367488089 156.68773234204855,241.51232400009758 167.18374933616724,246.15825658352696 167.67126925115008,246.0958954138623 168.8470525756711,243.35199474732508 169.70738183741923,242.6971976115601 177.67976633028593,243.1337291492673 181.86670207115822,244.81748938682722 187.0,245.00457343948074 181.78066914493684,244.84867006810964 177.22092405729927,243.10254834021907 169.879447689862,242.72837845078902 168.67498672322836,243.53907945507672 167.5565586828161,246.2206177440239 156.8884758364875,241.82413317044848 148.68667020706926,237.240514974721 144.06956983543932,235.40081736372667 133.0,233.7793822560052" stroke="#4DD2FF" stroke-linecap="round" stroke-linejoin="round" stroke-width="0.5"><title>2024-11-19 4.1km</title><desc>1731989484000</desc></polyline></svg>