<?xml version="1.0" encoding="utf-8" ?>
<svg baseProfile="full" height="300mm" version="1.1" viewBox="0,0,200,300" width="200mm" xmlns="http://www.w3.org/2000/svg" xmlns:ev="http://www.w3.org/2001/xml-events" xmlns:xlink="http://www.w3.org/1999/xlink"><defs /><rect fill="#222222" height="300" width="200" x="0" y="0" /><text fill="#FFFFFF" style="font-size:12px; font-family:Arial; font-weight:bold;" x="10" y="20">Over 4km Runs</text><text fill="#FFFFFF" style="font-size:4px; font-family:Arial" x="10" y="280">ATHLETE</text><text fill="#FFFFFF" style="font-size:9px; font-family:Arial" x="10" y="290">Fake David</text><text fill="#FFFFFF" style="font-size:4px; font-family:Arial" x="65" y="280">SPECIAL TRACKS</text><rect fill="yellow" height="2.6" width="2.6" x="65" y="283" /><text fill="#FFFFFF" style="font-size:3px; font-family:Arial" x="70" y="285.5">Over 10.0 km</text><rect fill="red" height="2.6" width="2.6" x="65" y="287" /><text fill="#FFFFFF" style="font-size:3px; font-family:Arial" x="70" y="289.5">Over 15.0 km</text><text fill="#FFFFFF" style="font-size:4px; font-family:Arial" x="120" y="280">STATISTICS</text><text fill="#FFFFFF" style="font-size:3px; font-family:Arial" x="120" y="285">Number: 28</text><text fill="#FFFFFF" style="font-size:3px; font-family:Arial" x="120" y="290">Weekly: 2.5</text><text fill="#FFFFFF" style="font-size:3px; font-family:Arial" x="141" y="285">Total: 227.9 km</text><text fill="#FFFFFF" style="font-size:3px; font-family:Arial" x="141" y="290">Avg: 8.1 km</text><text fill="#FFFFFF" style="font-size:3px; font-family:Arial" x="167" y="285">Min: 4.0 km</text><text fill="#FFFFFF" style="font-size:3px; font-family:Arial" x="167" y="290">Max: 13.0 km</text><polyline fill="none" points="12.03155579988379,46.69337570207426 13.990874106646515,46.75144818649278 22.825618471659254,48.04839696720592 25.53304013190791,47.93225256333244 25.764595931803342,48.82269167035702 26.779879054403864,48.88076368035399 27.973282022983767,49.32598199399945 28.792633314908016,48.14518393090111 36.095547003729735,48.00968217168702 36.48741066514049,48.68719026334293 36.95052226493135,48.80333433080523 37.253326003206894,48.62911821018497 37.556129741540644,47.81610810778511 38.94546454085503,47.719321021882934 44.199999999953434,48.37747249707172 39.26608026382746,47.69996360038931 37.50269378779922,47.79675069345103 37.16426608012989,48.62911821018497 36.86146234185435,48.783976989783696 36.095547003729735,47.99032477173023 28.88169323798502,48.1064691497304 28.365145684336312,48.454901973178494 28.00890599231934,49.34533929474128 25.853655854822136,48.84204900849727 25.853655854822136,48.08711175699136 25.622100054984912,47.89353775056952 23.003738317696843,48.02903957015951 14.721165475435555,46.80952065793099 11.799999999988358,46.67401820438681 14.329301814141218,46.77080567838857 22.43375481030671,47.99032477173023 25.497416162630543,47.89353775056952 25.74678394716466,48.80333433080523 27.99109400762245,49.32598199399945 28.525453545851633,48.319400374937686 28.98856514558429,48.1064691497304 36.02429906540783,47.99032477173023 36.52303463435965,48.7065476114949 36.87927432649303,48.783976989783696 37.253326003206894,48.551688785883016 37.39582188014174,47.9128951576713 37.84112149523571,47.73867844196502 43.825948323181365,48.319400374937686 39.51544804830337,47.69996360038931 37.76987355679739,47.69996360038931 37.28894997248426,47.951609967596596 36.98614623415051,48.783976989783696 36.629906542017125,48.7065476114949 36.07773501914926,47.951609967596596 28.810445299604908,48.08711175699136 28.382957668974996,48.416187237991835 28.026717976783402,49.32598199399945 25.835843870183453,48.82269167035702 25.622100054984912,47.81610810778511 22.718746564001776,47.93225256333244 13.77713029133156,46.65466070525872 12.20967564592138,46.71273319830652 13.812754260492511,46.69337570207426 23.520285871287342,48.06775436285534 25.586476085649338,47.89353775056952 25.782407916383818,48.82269167035702 27.1717427156982,48.996907661581645 25.853655854822136,48.80333433080523 25.497416162630543,47.835465520605794 22.80780648702057,47.951609967596596 14.596481583255809,46.75144818649278 12.405607476597652,46.71273319830652 14.75678944477113,46.80952065793099" stroke="#4DD2FF" stroke-linecap="round" stroke-linejoin="round" stroke-width="0.5"><title>2025-01-25 9.9km</title><desc>1737761473000</desc></polyline><polyline fill="none" points="48.23200000007637,46.41549867593858 58.79800000006799,47.941319524965365 61.858000000123866,47.80438724567648 61.84000000008382,49.0563368636067 63.028000000165775,49.115021855948726 64.05400000000373,49.58450132404687 64.91800000006333,48.31299249561562 72.28000000002794,48.13693694329413 72.96400000003632,48.99765185819706 73.41399999998976,48.86072012803925 73.54000000015367,48.13693694329413 73.82800000009593,47.92175777514058 80.20000000006985,48.52817134419456 75.23200000007637,47.86307251693506 73.66600000008475,48.00000476570858 73.18000000005122,48.978090186821646 72.78400000010151,48.86072012803925 72.62200000009034,48.273869049720815 72.28000000002794,48.117375208006706 64.95400000002701,48.25430732459063 64.59400000004098,48.4499245104962 64.16200000001118,49.54537806699227 61.9660000000149,49.01721352808818 61.80400000012014,48.039128252334194 59.302000000025146,48.215183869950124 49.49200000008568,46.78717379961745 47.800000000046566,46.806735633683275 49.996000000159256,46.86542112722236 58.74400000006426,48.176060409561615 61.55200000014156,48.01956650974171 61.786000000080094,48.23474559803435 61.786000000080094,48.91940516397881 64.05400000000373,49.54537806699227 64.90000000002328,48.273869049720815 72.26200000010431,48.117375208006706 72.71200000005774,48.86072012803925 73.1260000000475,48.978090186821646 73.9000000001397,47.90219602387515 79.12000000011176,48.31299249561562 74.04400000011083,47.84351076131861 73.54000000015367,48.00000476570858 73.45000000006985,48.76291170580953 73.1260000000475,48.93896683969069 72.26200000010431,48.05868999341328 64.9900000001071,48.25430732459063 64.52200000011362,48.54773304898117 64.10800000012387,49.50625480411691 61.94800000009127,48.978090186821646 61.67800000007264,47.98044302027847 59.284000000101514,48.19562214045436 49.672000000136904,46.76761196408188 48.19600000011269,46.82629746629391 49.85200000007171,46.78717379961745 52.15600000007544,47.15884839883074" stroke="#4DD2FF" stroke-linecap="round" stroke-linejoin="round" stroke-width="0.5"><title>2025-01-19 8.1km</title><desc>1737283232000</desc></polyline><polyline fill="none" points="88.08267164870631,45.054714682424674 90.79149929940468,45.43316487013362 91.94161606719717,46.02552038378781 92.78907052776776,46.04197468094935 96.81447921530344,48.14811459425255 97.31387202243786,48.60883002301853 102.23213451652555,50.714945458836155 103.33685193833662,51.40601021028124 103.63951424567495,51.22501727004419 104.29023820644943,49.69479830254568 104.71396543667652,49.447987798790564 108.69397477817256,49.64543622385827 111.2363381597097,50.550405913600116 116.20000000001164,50.6820375595853 111.13040635210928,50.550405913600116 108.83017281640787,49.61252816527849 104.7744978981791,49.41507971077226 104.30537132179597,49.59607413416961 103.6243811302702,51.22501727004419 103.41251751512755,51.323740710373386 97.9494628678076,49.03663634629629 92.60747314343462,46.0748832715617 92.18374591309112,46.107791857255506 90.91256422229344,45.548345233357395 87.43194768804824,45.21925832198758 83.79999999998836,44.52817421189684 91.13956095284084,45.59770822773862 92.68313872022554,46.05842897684488 98.22185894439463,49.08599856104411 102.217001401179,50.73139940664987 103.2006538999849,51.43891800161509 103.60924801498186,51.30728680672473 104.27510509104468,49.79352242684399 104.7744978981791,49.53025799736497 108.93610462395009,49.72770634885819 111.28173750586575,50.583313832452404 116.20000000001164,50.714945458836155 111.25147127505625,50.6820375595853 108.76964035496349,49.744160370202735 104.75936478277436,49.53025799736497 104.33563755254727,49.72770634885819 103.6243811302702,51.35664851400361 103.07958897709614,51.37310241398518 97.04147594579263,48.60883002301853 92.74367118166992,46.15715472663578 92.19887902843766,46.19006330006232 91.01849602995208,45.63061688457674 83.86053246137453,44.57753743433568 91.30602522188565,45.61416255676886 92.13834656699328,46.09133756501251 92.62260625872295,46.04197468094935 98.20672582904808,49.10245263019169 103.4276506305323,51.47182578811771 104.39617001393344,49.66189025131462 106.01541335822549,49.66189025131462 104.59290051378775,49.64543622385827 103.6243811302702,51.389556312715285 103.17038766929181,51.323740710373386 96.99607659969479,48.60883002301853 92.69827183557209,46.140700438059866 92.25941148994025,46.17360901396023 91.04876226064516,45.61416255676886 87.65894441842102,45.21925832198758" stroke="yellow" stroke-linecap="round" stroke-linejoin="round" stroke-width="0.5"><title>2025-01-17 12.3km</title><desc>1737088953000</desc></polyline><polyline fill="none" points="123.07640449434984,44.90762928091863 123.28876404493349,44.544785120888264 124.21404494380113,45.155022685357835 128.52191011235118,46.012651013516006 130.9488764044363,47.26610182391596 131.88932584266877,48.00827330055472 139.32191011239775,51.43872246345563 139.61011235951446,51.24081337968528 140.24719101120718,49.73999706999166 140.64157303364482,49.47611622756813 144.87359550554538,49.73999706999166 147.194382022426,50.5976076356601 152.1848314605886,50.68007001494698 147.30056179768872,50.5976076356601 144.69157303369138,49.73999706999166 140.76292134833056,49.54208646767074 140.30786516855005,49.70701198192546 139.59494382014964,51.35626036670874 139.39775280898903,51.42223004657717 133.8612359550316,49.04730918777932 128.56741573027102,46.062129469559295 126.82303370791487,45.616822967262124 119.79999999998836,44.62724975495075 126.68651685392251,45.55085155738925 128.12752808985533,46.062129469559295 128.5370786516578,46.012651013516006 134.46797752811108,49.27820538933156 138.07808988756733,50.69656248710817 139.15505617973395,51.389245209109504 139.5646067415364,51.290290667224326 140.21685393259395,49.72350452655519 140.67191011231625,49.49260878942732 144.72191011236282,49.73999706999166 147.16404494375456,50.58111515609198 152.20000000001164,50.647085066942964 147.23988764040405,50.58111515609198 144.85842696623877,49.80596723144117 140.77808988763718,49.509101350122364 140.30786516855005,49.73999706999166 139.44325842696708,51.455214879111736 134.10393258422846,49.16275731865608 128.61292134824907,46.144593538323534 127.86966292135185,46.11160791449947 127.06573033705354,45.64980866480619 121.68089887645328,44.874643472750904" stroke="#4DD2FF" stroke-linecap="round" stroke-linejoin="round" stroke-width="0.5"><title>2025-01-15 9.1km</title><desc>1736916504000</desc></polyline><polyline fill="none" points="158.62461538461503,44.41967914252018 158.83608391607413,44.78100149870443 159.5762237762101,45.224441762664355 163.27692307688994,45.8321177126345 165.28587412583875,46.48906280109077 167.67244755238062,48.04929953966348 175.20979020971572,51.49820472499414 175.54209790210007,51.416088561862125 176.17650349647738,49.937992395978654 176.69006993004587,49.65879534072883 180.85902097896906,49.921569049562095 183.13986013975227,50.824851284734905 188.19999999995343,50.93981421280478 183.07944055943517,50.874121118395124 180.81370629364392,49.97083908508648 176.67496503487928,49.65879534072883 176.17650349647738,49.937992395978654 175.46657342649996,51.514627953933086 174.99832167825662,51.514627953933086 170.0439160838141,49.31390437259688 164.56083916086936,46.25913224283431 164.2436363635934,46.35767394003051 162.32531468529487,45.74999943887815 155.79999999998836,44.83027268317528 161.26797202794114,45.48722075740807 164.5306293705944,46.20986137771979 169.4095104894368,48.90331918318407 175.300419580366,51.58032085746527 175.6478321677423,51.38324208807899 176.35776223771973,49.72448879730655 177.89846153842518,49.75733551825397 176.40307692298666,49.79018223429739 175.42125874123303,51.56389763344487 169.66629370622104,49.21536399688921 164.65146853140322,46.291979480098234 162.8841958041303,45.78284675205941 158.1261538460967,45.125899558872334" stroke="#4DD2FF" stroke-linecap="round" stroke-linejoin="round" stroke-width="0.5"><title>2025-01-14 7.8km</title><desc>1736829619000</desc></polyline><polyline fill="none" points="16.230511627916712,86.07185970834689 15.974325581395533,85.71137871110113 16.577116278989706,85.77692075453524 21.64055813953746,87.39908010559157 24.759999999951106,88.93930114292016 26.146418604650535,89.90603011404164 31.16465116274776,92.1999462620297 31.49618604645366,92.10163606070273 32.17432558134897,90.56143716904626 32.6113488371484,90.29927458139719 36.69525581388734,90.56143716904626 38.65432558138855,91.36430814977211 40.05581395345507,91.54454408955644 44.199999999953434,91.54454408955644 38.94065116276033,91.41346342072939 36.71032558137085,90.56143716904626 32.65655813954072,90.28288940928178 32.21953488368308,90.4631262352923 31.51125581393717,92.10163606070273 31.08930232556304,92.1180210973107 26.040930232498795,89.93880051317683 21.429581395350397,87.41546549252234 19.10883720923448,86.448725573704 11.799999999988358,85.4164392738603 19.19925581390271,86.48149648800609 21.429581395350397,87.31715315248584 25.46827906969702,89.59471107875288 31.119441860413644,92.15079116683046 31.481116279086564,92.0524809435301 32.08390697668074,90.57782232036698 32.520930232596584,90.29927458139719 36.83088372088969,90.57782232036698 39.09134883718798,91.42984850860375 44.04930232552579,91.56092916771013 38.98586046509445,91.38069324129901 36.725395348796155,90.52866686269408 32.505860465113074,90.28288940928178 32.144186046440154,90.49589655139425 31.43590697675245,92.15079116683046 30.863255813892465,92.10163606070273 30.094697674387135,91.5773142445978 25.82995348831173,89.87325971004611 20.465116279025096,86.84197622291686 18.8526511627133,86.39956919310498 11.860279069747776,85.40005373797612 20.49525581393391,86.8255907932471 25.860093023220543,89.77494846866466 30.13990697672125,91.54454408955644 31.134511627897155,92.18356123154808 31.481116279086564,92.08525102282874 32.144186046440154,90.47951139397628 32.56613953487249,90.28288940928178 36.61990697670262,90.49589655139425 38.71460465108976,91.33153796305123 39.98046511627035,91.46261868072907 38.65432558138855,91.33153796305123 36.57469767436851,90.49589655139425 32.596279069723096,90.23373388567416 32.17432558134897,90.43035591430089 31.49618604645366,92.01971085931291 30.953674418560695,92.03609590200358 29.55218604649417,91.26599757488293 25.860093023220543,89.84048930111749 20.450046511541586,86.84197622291686 18.370418604637962,86.31764186768851" stroke="yellow" stroke-linecap="round" stroke-linejoin="round" stroke-width="0.5"><title>2025-01-10 13.0km</title><desc>1736482744000</desc></polyline><polyline fill="none" points="50.903738317720126,85.15369670784276 52.38747663551476,86.1578848161007 54.96130841120612,86.65174614592979 57.489719626144506,87.62300354099716 60.2300934579107,89.25273093365831 67.31570093455957,92.44630329216307 67.64878504670924,92.18291762744775 67.78504672896815,90.73429085992393 67.98186915880069,90.48736489540897 72.75102803739719,90.80013773719838 75.24915887851967,91.72199195882422 80.12429906544276,91.83722346607829 75.03719626169186,91.67260700871702 72.75102803739719,90.81659945345018 68.07271028036484,90.47090315465175 67.7699065420893,90.81659945345018 67.64878504670924,92.24876407303964 67.31570093455957,92.44630329216307 61.895514018659014,90.14166808150185 56.5661682242644,87.16206836038327 54.900747663516086,86.65174614592979 47.79999999998836,85.66402238237788 55.29439252335578,86.68467019533273 56.036261682223994,87.09622039894748 56.55102803732734,87.09622039894748 61.98635514016496,90.07582100796571 67.08859813079471,92.38045690537547 67.60336448595626,92.24876407303964 67.75476635515224,90.75075258110883 68.02728971961187,90.50382663494383 72.75102803739719,90.81659945345018 75.37028037378332,91.72199195882422 80.19999999995343,91.78783854175708 74.96149532712298,91.65614535621717 72.73588785040192,90.75075258110883 68.0878504673019,90.50382663494383 67.83046728972113,90.66844396301894 67.81532710278407,91.83722346607829 67.42168224300258,92.42984169727424 61.789532710274216,90.09228277821967 56.596448598080315,87.1456063718797 54.79476635513129,86.65174614592979 47.79999999998836,85.61463607831683 53.09906542050885,86.28958127865917 56.490467289753724,87.06329641086631 61.47158878506161,89.84535609625163 67.11887850466883,92.38045690537547 67.54280373838264,92.26522568135988 67.8758878504741,91.44214376233867 67.54280373838264,92.34753370468388 66.87663551402511,92.24876407303964 61.88037383178016,90.1087445471785 56.5661682242644,87.04683441498491 56.217943925235886,87.12914438209555 55.052149532712065,86.56943600093655 53.12934579444118,86.35542948047805" stroke="yellow" stroke-linecap="round" stroke-linejoin="round" stroke-width="0.5"><title>2025-01-08 12.0km</title><desc>1736310892000</desc></polyline><polyline fill="none" points="87.25357643759344,86.80720431025838 87.7079943898716,86.08253578365839 87.76858345017536,85.37433470097312 88.0563814866473,85.12728727786453 88.38962131837616,85.19316661768244 88.23814866755856,85.30845541514282 89.70743338007014,85.86842871888075 90.4647966339835,86.49427955610736 93.56998597475467,87.58127943040745 98.72005610098131,90.36463353046565 103.35511921456782,92.42330484610284 103.6580645160866,92.12685735813284 103.70350631134352,90.75989991008828 104.12762973352801,90.47991963087406 108.76269284711452,90.80930815786996 111.18625525943935,91.73159342251893 116.20000000001164,91.83040947269183 111.15596072934568,91.69865472934907 108.82328190741828,90.84224698354956 104.06704067322426,90.52932794118533 103.74894810654223,90.85871639454854 103.70350631134352,92.12685735813284 103.44600280502345,92.47271272212674 97.76577840116806,90.05171381204855 92.5702664796845,87.13659830970573 91.99467040668242,87.13659830970573 90.9343618513667,86.62603740132181 83.79999999998836,85.72020062945376 91.14642356242985,86.77426488329365" stroke="#4DD2FF" stroke-linecap="round" stroke-linejoin="round" stroke-width="0.5"><title>2025-01-06 5.2km</title><desc>1736137119000</desc></polyline><polyline fill="none" points="123.99383177573327,86.31427516303665 124.06953271024395,85.68871566084272 124.56915887858486,84.9479192228755 124.93252336449223,86.23196480341721 124.41775700933067,86.57766810776957 125.37158878502669,86.52828195455368 128.52074766356964,87.28553509087942 132.79028037382523,89.29388953551825 133.59271028038347,90.00174781683017 139.34598130837549,92.5533111748955 139.6942056074622,92.33931021869648 139.75476635515224,90.95652981341118 140.04242990654893,90.69314208850847 145.02355140191503,91.03883841309289 147.4157009345363,91.94423098585685 152.20000000001164,92.02653921763704 147.21887850470375,91.91130768459698 144.857009345782,90.98945325700333 140.10299065418076,90.69314208850847 139.81532710284228,90.94006808983977 139.70934579439927,92.33931021869648 139.40654205606552,92.63561917981133 133.9712149532861,90.39683052267355 129.52000000001863,87.87816616985947 127.27925233647693,86.97275693612755 119.79999999998836,85.80395043906174 124.88710280373925,86.42950961498718 128.49046728975372,87.23614909590106 133.06280373834306,89.77128257886216 138.3467289719265,92.07592414197279 139.1642990654218,92.65208077711577 139.67906542058336,92.28992535320867 139.81532710284228,90.85775945337082 140.02728971955366,90.64375685511914 143.38841121492442,91.03883841309289 144.857009345782,90.95652981341118 147.29457943921443,91.89484603209712 152.18485981307458,91.97715428224183 146.88579439249588,91.81253775129153 144.76616822433425,90.98945325700333 140.14841121499194,90.64375685511914 139.81532710284228,90.89068291164585 139.7699065420311,92.24054047673417 139.43682242988143,92.5697727783554 134.046915887855,90.38036875739635 129.55028037383454,87.77939443371724 127.68803738319548,87.07152903285169 119.99682242993731,85.88626095812651" stroke="#4DD2FF" stroke-linecap="round" stroke-linejoin="round" stroke-width="0.5"><title>2025-01-03 9.5km</title><desc>1735878536000</desc></polyline><polyline fill="none" points="159.03241217811592,85.65667680244951 160.92936768155778,86.18469661858398 163.0994847775437,86.38270372504485 164.14660421555163,86.9107218101708 164.541170960234,86.86122016816807 169.04833723657066,89.35278907885368 175.10341920377687,92.14133296434011 175.55868852464482,92.05883216993243 176.18088992976118,90.55731234248378 176.63615925068734,90.2933078041824 180.70323185017332,90.54081206805131 183.11615925066872,91.44832533619774 188.20000000001164,91.59682715332019 183.4955503513338,91.46482554302202 180.88533957843902,90.62331342790276 176.66651053872192,90.37580925617658 176.18088992976118,90.63981369619432 175.37658079632092,92.20733357772406 169.48843091342133,89.73229711528984 164.52599531621672,86.96022344112862 164.13142857153434,86.99322452224442 162.917377049278,86.41570489224978 161.20252927404363,86.33320196502609 155.79999999998836,85.39266642228176 163.03878220147453,86.3992043092585 165.17854800942587,87.40573762163694 163.17536299774656,86.44870605452161 158.72889929747907,85.77218124479987" stroke="#4DD2FF" stroke-linecap="round" stroke-linejoin="round" stroke-width="0.5"><title>2025-01-02 5.6km</title><desc>1735817809000</desc></polyline><polyline fill="none" points="15.539626168261748,126.58748689528147 19.14299065421801,127.18012088845717 20.202803738357034,127.7398293113365 21.217196261684876,127.92091114459618 26.72822429909138,130.94989435262687 31.376261682249606,132.9582190226647 31.769906542031094,132.54667856899323 32.208971962565556,131.443746373654 32.73887850466417,131.18035876643262 36.62990654207533,131.3120526092971 39.47626168222632,132.34913887901348 44.20000000001164,132.38206217292463 42.35289719625143,132.49729366303654 39.203738317708485,132.29975392890628 36.84186915890314,131.37789950131264 32.75401869165944,131.1474352934747 32.28467289719265,131.32851433414908 31.588224299135618,132.89237260154914 31.33084112155484,133.00760382556473 23.912149532698095,129.7481831574405 20.50560747657437,127.7398293113365 20.02112149540335,127.77275329208351 18.97644859814318,127.24596901181212 11.799999999988358,126.17593457587645 18.43140186916571,127.09781070669123 20.142242990667,127.70690532571462 20.50560747657437,127.60813333941041 25.365607476676814,130.34080867322336 31.33084112155484,133.02406542412064 32.33009345794562,131.27912915595516 32.73887850466417,131.1145118156128 33.88953271025093,131.26266742742155 32.2998130840715,131.24620569768013 31.588224299135618,132.85944938367174 31.315700934559572,132.9417574192048 25.819813084148336,130.6206590587244 20.732710280339234,127.78921528058709 20.051401869161054,127.7398293113365 18.84018691588426,127.19658292114036 17.53813084110152,127.24596901181212 12.25420560745988,126.22532089470769 15.58504672901472,126.85087997736991" stroke="#4DD2FF" stroke-linecap="round" stroke-linejoin="round" stroke-width="0.5"><title>2024-12-31 8.0km</title><desc>1735619151000</desc></polyline><polyline fill="none" points="52.311775700887665,126.81795606657397 53.41700934577966,126.85088018217357 56.58130841125967,127.59167148699635 58.42841121496167,128.5793893632508 58.95831775700208,129.12263231311226 67.43682242988143,132.95821877247363 68.23925233643968,131.39436108754307 68.6934579439112,131.14743517819443 72.88728971965611,131.37789936881745 74.97663551400183,132.21744545918773 80.18485981307458,132.34913867415162 75.17345794395078,132.2997537277697 72.85700934578199,131.39436108754307 68.70859813090647,131.14743517819443 68.2695327103138,131.34497592771368 67.36112149531255,133.02406516902556 62.24373831774574,130.8346619635413 57.61084112152457,128.28307446397957 54.91588785039494,127.2130451303965 47.79999999998836,126.17593483095698 53.52299065416446,126.91672839871899 56.5358878505067,127.6081334877963 62.24373831774574,130.70296784600941 67.22485981305363,133.00760357172112 67.60336448595626,132.85944914082938 68.23925233643968,131.37789936881745 68.75401869160123,131.09804996319872 72.79644859815016,131.34497592771368 75.24915887851967,132.25036877029925 80.19999999995343,132.2668304240069 75.43084112153156,132.28329207650677 72.7813084111549,131.37789936881745 68.67831775697414,131.11451170273358 68.23925233643968,131.34497592771368 67.57308411214035,132.84298753125768 67.33084112149663,132.95821877247363 61.85009345790604,130.65358253168233 56.65700934577035,127.73982944988529 54.38598130841274,127.1801210687263 48.042242990632076,126.25824535002175 54.7190654205624,127.1636590360431 56.11196261679288,127.72336745892244 56.70242990652332,127.65751948277466 61.51700934575638,130.3243468208093 56.626728971954435,127.69044347330055 52.054392523365095,126.83441812495585" stroke="yellow" stroke-linecap="round" stroke-linejoin="round" stroke-width="0.5"><title>2024-12-30 10.8km</title><desc>1735533491000</desc></polyline><polyline fill="none" points="88.34869402984623,126.75742084045487 91.31063432834344,127.25036086066393 92.14179104473442,127.72686849952152 92.56492537318263,127.67757465360046 93.42630597017705,128.03906260119402 97.12873134331312,130.14225345337763 103.14328358205967,132.90266101053567 103.58152985072229,132.91909190447768 104.21623134321999,131.3581515156111 104.71492537314771,131.07882417547808 108.68936567159835,131.34172050538473 111.06194029841572,132.26185519243882 116.19999999995343,132.34400988856214 111.25839552236721,132.26185519243882 108.84048507461557,131.37458252462966 104.65447761188261,131.11168623386766 104.24645522388164,131.3581515156111 103.71753731340868,132.68905927802552 103.3095149252913,132.98481546794937 97.65764925372787,130.6023237787449 93.63787313434295,128.30196255460032 91.34085820894688,127.36538004018075 83.79999999998836,126.18232275763876 91.08395522384671,127.23392954441078 93.98544776113704,128.30196255460032 97.03805970150279,130.14225345337763 103.26417910441523,133.01767724235833 103.56641791039146,132.93552279716823 104.26156716415426,131.37458252462966 104.68470149248606,131.17741033590573 108.81026119401213,131.4074445389415 111.07705223880475,132.27828613409656 116.15466417907737,132.32757895175018 114.61324626865098,132.45902641168504 111.15261194022605,132.27828613409656 108.79514925373951,131.34172050538473 104.69981343281688,131.11168623386766 104.27667910448508,131.292427467386 103.58152985072229,132.88623011535674 103.12817164178705,132.95195368868008 98.23190298501868,130.81592753216682 96.6300373133854,129.83006232889602 91.31063432834344,127.29965480210376 84.57070895517245,126.34663664862455" stroke="#4DD2FF" stroke-linecap="round" stroke-linejoin="round" stroke-width="0.5"><title>2024-12-27 9.1km</title><desc>1735273142000</desc></polyline><polyline fill="none" points="145.85626168217277,131.55074748693733 144.6753271027701,131.22151319865952 143.41869158874033,131.3696686891053 140.46635514014633,131.0898193460598 139.42168224300258,132.9664493368764 133.92579439247493,130.72766084651812 128.47532710270025,127.73159958333417 128.036261682224,127.78098553785821 126.85532710276311,127.25420145384851 119.79999999998836,126.13478110508004 124.73570093454327,126.92496076355746 125.22018691588892,126.8426505143143 128.68728971958626,127.7151375960384 132.5480373831233,129.65764363034396 133.1233644859749,130.1844219843042 139.0885981307947,132.91706454129599 139.52766355132917,132.88414133811602 140.13327102793846,131.3696686891053 140.6177570092841,131.07335760892602 144.79644859803375,131.3367452553939 147.35514018684626,132.29152284200245 152.20000000001164,132.42321597848786 146.85551401862176,132.19275293815008 144.97813084104564,131.3861304041202 140.60261682234704,131.0898193460598 140.28467289719265,131.18858974287286 139.60336448601447,132.93352614101605 139.3005607476225,133.06521889491705 137.99850467289798,132.29152284200245 133.74411214946304,130.61242847218818 128.76299065421335,127.69867560753482 125.34130841115257,126.92496076355746 121.75308411207516,126.44756089114526" stroke="#4DD2FF" stroke-linecap="round" stroke-linejoin="round" stroke-width="0.5"><title>2024-12-25 6.6km</title><desc>1735101299000</desc></polyline><polyline fill="none" points="159.16426566883456,126.41989376094716 159.04303086991422,126.71648839031695 159.240037418087,126.65057850706216 159.52797006547917,126.17273126589134 160.45238540688297,126.81535317839007 161.48288119735662,126.86478555583744 164.65014031803003,127.67217949032784 170.25724976614583,130.73695412601228 175.40972871845588,132.96136073149682 175.62188961647917,132.9448837277887 176.25837231054902,131.3795627765503 176.72815715626348,131.13240582424623 180.7895229185815,131.3630856549862 183.4112254443462,132.3517107761436 188.20000000001164,132.43409600346058 183.18391019647243,132.30227962504432 180.6379794200766,131.34660853222886 176.59176800755085,131.14888296295248 176.25837231054902,131.31365428293066 175.5764265668695,132.8624986907089 175.30364826938603,132.91192971663259 169.71169317123713,130.6051367361215 165.51393826003186,128.16650085251604 163.13470533204963,127.21081188869721 155.79999999998836,126.18920877417258 158.28531337692402,126.56819112534868 159.467352666019,126.53523616406892 163.63479887746507,127.35910872278328 165.52909260988235,128.10059140140947 170.72703461174387,130.96763436924084 175.1672591206734,132.9448837277887 175.63704396632966,132.89545270924282 176.39476145931985,131.21479150568484 177.94050514500123,131.21479150568484 176.44022450887132,131.16536010049458 175.561272217019,133.02726873410575 170.1057062675245,130.76990846119588 167.16576239472488,129.03979922564758 163.28624883067096,127.32615387934493 155.84546304953983,126.20568628120236 162.073900841875,127.09546983790642" stroke="#4DD2FF" stroke-linecap="round" stroke-linejoin="round" stroke-width="0.5"><title>2024-12-18 8.3km</title><desc>1734495982000</desc></polyline><polyline fill="none" points="15.21529850747902,165.87319801734702 14.656156716344412,166.0046505111386 14.852611940237693,165.8403348816064 14.656156716344412,165.9717873950285 14.535261193930637,165.79104016885685 14.595708955195732,165.95535583513265 15.819776119373273,166.80979532607307 18.49458955222508,167.9928599249106 19.129291044780985,168.99517357708828 19.839552238758188,169.55383822569274 20.625373134273104,169.66885724237363 26.17145522381179,172.6593306214054 31.188619402993936,174.91037449325086 31.55130597006064,174.9268053859414 32.26156716415426,173.34943410438427 32.69981343281688,173.10296882264083 36.90093283576425,173.36586511340283 39.54552238807082,174.28599966334878 44.199999999953434,174.36815434720484 39.137499999953434,174.28599966334878 36.90093283576425,173.38229612115538 32.624253731395584,173.1193998499657 32.18600746267475,173.36586511340283 31.43041044770507,174.99252894452366 24.01044776116032,171.8870694016514 23.496641790959984,171.37770413841645 21.637873134342954,170.32610761550313 19.401305970095564,169.4388191490143 11.799999999988358,168.2064681343909 19.023507462639827,169.15948685591866 20.292910447751638,169.7181510882947 20.564925373124424,169.6359946722805 26.231902985076886,172.72505485566217 30.130783582048025,174.2695687228843 31.203731343266554,174.9268053859414 31.611753731325734,174.82822001131717 32.367350746179,173.2508480247343 33.93899253732525,173.20155496842926 32.45802238798933,173.30014107008174 31.672201492532622,175.00895983114606 30.992164179042447,174.95966716771363 25.86921641783556,172.75791696547822 24.46380597015377,171.83777604049828 19.3559701492195,169.35666262895393 11.920895522343926,168.32148785378376 19.129291044780985,169.19234949699603" stroke="#4DD2FF" stroke-linecap="round" stroke-linejoin="round" stroke-width="0.5"><title>2024-12-17 8.6km</title><desc>1734409492000</desc></polyline><polyline fill="none" points="51.795142456830945,167.42180453740002 55.03362914529862,167.93188964908768 56.21401214384241,168.49133648139832 56.60747314343462,168.37615636708506 62.22185894445283,171.46954429462494 67.32171882304829,173.6743794566719 67.59411489957711,173.6414716309955 68.29023820644943,172.01252813101746 68.66856609063689,171.79862556695298 73.05716954695527,172.11125232146878 75.25147127517266,172.95040615880862 80.20000000001164,173.03267597127706 79.71574030822376,173.19721550426038 75.2363381597097,173.03267597127706 72.64857543201651,172.078344262889 68.75936478283256,171.91380389640108 68.16917328356067,172.27579254086595 67.51844932278618,173.6743794566719 67.2611863615457,173.75664899946423 62.67585240537301,171.8150796176633 56.516674451180734,168.5242450744554 55.7146193368244,168.42551928055764 54.86716487625381,167.93188964908768 47.79999999998836,166.96108148839267 54.97309668385424,167.91543530904164 55.98701541335322,168.45842788346636 56.57720691274153,168.40906497729884 62.176459598354995,171.45309021815774 67.21578701544786,173.65792554445216 67.63951424567495,173.62501771627285 68.15404016809771,172.22643048792088 68.66856609063689,171.8315336671949 73.10256889311131,172.11125232146878 75.20607192901662,172.95040615880862 80.10920130781597,173.08203784399666 75.47846800560364,173.03267597127706 72.83017281646607,172.078344262889 68.65343297529034,171.88089580838277 68.27510509110289,172.06189023178013 67.48818309203489,173.75664899946423 62.07052779075457,171.53536058829923 56.531807566585485,168.5242450744554 55.18496029893868,168.04706999512564 47.98159738443792,166.99399030950735 54.942830453044735,167.93188964908768 56.00214852875797,168.45842788346636 56.652872489532456,168.47488218304352 62.81205044372473,171.74926340734237 67.21578701544786,173.70728727745882 67.63951424567495,173.6414716309955 68.15404016809771,171.963166019239 69.90948155074148,171.99607409497548 68.30537132185418,172.02898216579342 67.54871555347927,173.8389185115957 62.02512844465673,171.51890651672147 56.59234002802987,168.50779077855987 56.10808033630019,168.5242450744554 54.91256422229344,167.9483439878968 47.98159738443792,167.05980793695198 54.80663241475122,167.91543530904164" stroke="yellow" stroke-linecap="round" stroke-linejoin="round" stroke-width="0.5"><title>2024-12-15 13.0km</title><desc>1734235831000</desc></polyline><polyline fill="none" points="87.0037313431967,167.08912655019958 87.0037313431967,167.26987174275564 88.36380597006064,167.68065572035266 90.19235074619064,168.05857630395622 91.1444029850536,167.99285103158036 92.06623134325491,168.51865266205277 92.59514925366966,168.5350839428138 98.85149253730197,171.8706085877493 103.33973880595295,173.7766000222473 103.62686567159835,173.7601691319869 104.23134328355081,172.29781499659293 104.68470149248606,172.00205680166255 108.8555970149464,172.21565998224833 111.25839552242542,173.13579439505702 116.20000000001164,173.23437999736052 111.16772388061509,173.13579439505702 108.97649253730197,172.2320909875416 104.60914179112297,171.93633270449936 104.18600746267475,172.13350493727194 103.46063432836672,173.80946179905732 98.18656716414262,171.65700507302245 93.27518656710163,168.91300306223275 91.03861940297065,168.04214498770307 83.79999999998836,166.99053820093104 87.6384328356944,167.38489133361145 91.03861940297065,167.94355706447095 92.56492537306622,168.4364962399559 97.20429104473442,170.9668999962887 101.84365671640262,173.00434685683285 102.99216417910066,173.72730734778452 103.61175373132573,173.66158376469684 104.17089552234393,172.29781499659293 104.6393656716682,171.96919475556933 108.78003731340868,172.14993594869156 111.03171641792869,173.0865015774034 112.75447761191754,173.10293251788244 110.91082089551492,173.03720874873397 108.74981343280524,172.1827979679365 104.80559701495804,171.93633270449936 104.18600746267475,172.11707392460085 103.43041044776328,173.74373824047507 97.899440298439,171.49269453632587 92.59514925366966,168.5679465006251 91.008395522309,168.04214498770307 88.62070895516081,167.74638108574436" stroke="#4DD2FF" stroke-linecap="round" stroke-linejoin="round" stroke-width="0.5"><title>2024-12-13 8.5km</title><desc>1734064159000</desc></polyline><polyline fill="none" points="123.30477090214845,167.4546031296777 126.64119036367629,167.93718924846326 128.93689182802336,168.65274605705054 133.71195087389788,171.34854414433357 139.05328294757055,173.7115008948458 139.48181388754165,173.72814134669898 140.1705243269098,172.1472928848525 140.5990552668809,171.9309653829987 144.80784128484083,172.1472928848525 146.91988663200755,173.01260079727217 152.20000000001164,173.11244380223798 147.42494095419534,173.0791628055158 144.65479452052386,172.13065231521614 140.49192253191723,171.9143247972388 140.04808691539802,172.0640900243452 139.54303259326844,173.49517490783182 139.17572035902413,173.8279840318428 138.08908833254827,173.21228676257306 133.69664619740797,171.49830975076475 129.2582900330308,168.95228078460786 126.90136986301513,168.13687975122593 129.2429853565991,168.88571754652367 132.05904581956565,170.58307392106508 138.11969768541167,173.19564627224463 139.00736891827546,173.77806269485154 139.45120453467825,173.67821998739964 140.1399149739882,171.86440303259587 139.42059518187307,173.62829861692444 139.03797827113885,173.72814134669898 133.86499763809843,171.53159098298056 128.3553141237935,168.43641517063952 127.81965044874232,168.4530560154817 126.47283892298583,167.90390748064965 119.79999999998836,166.97201596814557" stroke="#4DD2FF" stroke-linecap="round" stroke-linejoin="round" stroke-width="0.5"><title>2024-12-11 6.6km</title><desc>1733890893000</desc></polyline><polyline fill="none" points="159.72865168534918,167.61274712558952 163.2022471910459,168.0085759681242 163.96067415724974,168.45388256994192 164.58258426969405,168.4373897487967 170.28595505619887,171.58749628864462 175.3825842696824,173.79749192313466 176.21685393259395,172.08227334736148 176.65674157300964,171.88436265657947 181.01011235959595,172.14824353835138 183.23988764040405,173.0223467125179 188.1544943820918,173.1377940435341 183.42191011243267,173.0223467125179 181.055617977574,172.23070624937827 176.3382022472215,172.03279569125152 175.50393258425174,173.84696918487316 170.17977528093616,171.62048146031157 168.64775280898903,170.58144619237282 164.537078651716,168.53634665714344 164.20337078656303,168.61881071365497 162.89887640450615,168.0910402212321 155.95168539322913,167.10146715636074 161.71573033707682,167.76118302448594 164.537078651716,168.42089692645823 168.51123595505487,170.38353415983147 170.16460674162954,171.48854074420524 175.26123595505487,173.764507075859 175.57977528090123,173.64906007163518 176.24719101120718,172.18122862641758 176.65674157300964,171.88436265657947 179.31123595504323,172.14824353835138 180.66123595507815,172.03279569125152 183.31573033705354,173.03883919208602 188.20000000001164,173.12130157138745 183.05786516855005,173.00585423174198 180.97977528098272,172.18122862641758 176.6264044943964,171.9008552209416 176.24719101120718,172.04928824453964 175.71629213477718,173.53361300722463 175.42808988766046,173.78099950012984 170.69550561800133,171.8018998165353 167.85898876405554,170.10315847754828 164.50674157310277,168.45388256994192 162.07977528090123,167.84364736975112 155.79999999998836,166.9530308151152 163.5511235955637,168.07454737309308 175.018539325858,173.6820449361112 175.57977528090123,173.5830903278693 176.24719101120718,171.86787009100954 175.61011235957267,173.64906007163518 175.2915730336681,173.71502979572688 170.34662921348354,171.62048146031157 164.55224719108082,168.40440410286828 159.25842696626205,167.5137898043613" stroke="yellow" stroke-linecap="round" stroke-linejoin="round" stroke-width="0.5"><title>2024-12-09 12.1km</title><desc>1733738831000</desc></polyline><polyline fill="none" points="25.28218661644496,211.82258088386152 31.374363807728514,214.57840243398095 32.07672007539077,212.98467846411222 32.6263901978964,212.68585395085393 36.565692742646206,212.8518676187814 38.962865221488755,213.79814316448756 44.20000000001164,213.9807572809368 39.4667295004474,213.88114959960512 36.82525918941246,212.9680771127605 32.67219604150159,212.7522594328766 32.15306314796908,212.91827305137122 31.404901036818046,214.61160489551548 26.58001885015983,212.60284707054961 20.44203581532929,209.28254650178133 19.892365692707244,209.29914812771312 19.1900094251032,208.8343021346227 14.838454288430512,208.25324327955605 14.28878416592488,207.98761586970068 14.029217719158623,208.20343816431705 12.120640904875472,207.9046072391793 16.640150801162235,208.3694551717781 20.44203581532929,209.21613998575776 24.442412818141747,211.19172537383565 25.572290292242542,212.021798042304 31.14533459005179,214.57840243398095 31.511781338311266,214.42899129600846 32.15306314796908,212.88507033756468 32.50424128182931,212.61944844906975 33.86314797354862,212.8518676187814 36.79472196043935,212.8684689787915 39.237700282770675,213.81474445399363 44.0931196983438,213.91435216498212 39.11555136664538,213.76494058177923 36.79472196043935,212.90167169507185 32.611121583380736,212.71905669437547 31.985108388296794,213.2502999172284 31.389632422244176,214.61160489551548 25.7097078228835,212.15460938232718 20.42676720075542,209.28254650178133 20.0755890669534,209.34895299799973 18.105937794491183,208.70148881562636 11.799999999988358,207.7883951044787 18.39604147040518,208.70148881562636 19.93817153625423,209.26594487464172 20.518378887849394,209.24934324627975 22.48803016031161,210.32844651857158" stroke="#4DD2FF" stroke-linecap="round" stroke-linejoin="round" stroke-width="0.5"><title>2024-12-06 9.2km</title><desc>1733479157000</desc></polyline><polyline fill="none" points="51.0869565216708,208.27666372674867 55.207012622617185,208.7707558671682 56.08555399713805,209.3142559460539 56.570266479684506,209.21543784925598 62.22019635338802,212.37759503581037 67.15820476855151,214.56802115245955 67.6580645160866,214.41979751340114 68.18821879377356,213.003433283724 68.76381486677565,212.77286150376312 72.85357643757015,212.9704944726982 75.15596072922926,213.8433713056147 80.19999999995343,214.00806466118956 75.21654978959123,213.8433713056147 72.82328190736007,213.01990268734517 68.68807854130864,212.75639208169014 68.15792426362168,213.08578028967895 67.40056100982474,214.60095972543058 61.81122019630857,212.22936992814357 60.5388499298715,211.35648672250682 56.58541374467313,209.3471953018161 56.146143057441805,209.38013465267431 55.04039270681096,208.85310444985225 47.79999999998836,207.7990402745636 55.04039270681096,208.83663473576598 57.3124824683764,209.79187612433452 56.646002805035096,209.3471953018161 51.102103786717635,208.29313348258438" stroke="#4DD2FF" stroke-linecap="round" stroke-linejoin="round" stroke-width="0.5"><title>2024-12-03 5.6km</title><desc>1733220329000</desc></polyline><polyline fill="none" points="88.02937062940327,208.44086362665985 91.09566433558939,208.76933717430802 92.13790209789295,209.37701194707188 93.46713286708109,209.54124808459892 94.9020979020861,210.47739173188165 96.86573426570976,211.2164496979094 98.11944055941422,212.1854330549686 103.51188811188331,214.5503915012232 104.19160839158576,213.0887187893386 104.73538461542921,212.7274049397529 108.85902097908547,212.95733200346876 111.39664335671114,213.893461144311 114.9462937063654,213.8606145750964 116.20000000001164,213.95915426811553 115.82237762241857,214.05769391707145 111.24559440556914,213.9263077086507 108.85902097908547,213.02302540621895 104.72027972032083,212.79309841098438 104.26713286712766,213.00660205734312 103.57230769237503,214.56681473506615 103.23999999999069,214.5996611990995 97.65118881117087,212.20185646502068 94.63020979019348,210.47739173188165 90.95972027973039,208.8350318250741 83.79999999998836,207.83318627314293 91.21650349657284,208.80218450214306 93.36139860143885,209.78760206142033 90.92951048945542,208.88430280033208 83.83020979014691,207.80033880089468 88.21062937064562,208.40801624496817" stroke="#4DD2FF" stroke-linecap="round" stroke-linejoin="round" stroke-width="0.5"><title>2024-12-02 6.1km</title><desc>1733112856000</desc></polyline><polyline fill="none" points="119.79999999998836,206.73772492041462 120.76000000000931,207.1378582548641 122.96800000005169,210.0953442445607 122.77600000001257,209.9039786375797 123.19200000003912,209.88658175642195 123.73600000003353,209.22549931269896 125.72000000003027,209.52124695311068 126.45599999994738,210.00835989718325 127.92800000001444,210.3041065459838 129.5119999999879,211.29572492913576 131.4319999999716,212.02638841158478 132.44000000000233,212.91361956656328 138.20000000001164,215.54049988734187 138.66400000004796,215.54049988734187 139.36799999995856,213.92262344999472 139.83199999999488,213.69646778621245 144.26400000002468,213.92262344999472 147.0,214.8968299591652 152.20000000001164,214.9490194789105 147.03200000000652,214.9316229736287 144.27999999996973,213.95741660956992 139.88000000000466,213.731260979519 139.39999999996508,213.94002003040805 138.5360000000219,215.66227507957956 133.03200000000652,213.34853556816233 129.30400000000373,211.24353459292615 125.57600000000093,209.53864386145142 121.04800000000978,208.99933909960964" stroke="#4DD2FF" stroke-linecap="round" stroke-linejoin="round" stroke-width="0.5"><title>2024-11-29 4.6km</title><desc>1732853630000</desc></polyline><polyline fill="none" points="158.54392344498774,210.1549720874027 158.31138755986467,210.28981810803816 159.3035406699055,210.30667385492416 158.45090909098508,210.20553935457428 159.22602870810078,210.27296235982794 159.13301435403991,210.50894272008736 160.3732057416346,208.90764258647687 163.28765550238313,208.7053722896526 164.21779904305004,209.21104769263184 165.535502392333,209.4807407787157 170.6977990430314,212.43048792019545 175.8755980861024,214.67227002778964 176.65071770339273,213.03728827704617 177.11578947363887,212.81816611367685 181.51846889953595,213.03728827704617 183.75081339711323,213.94748576104757 188.20000000001164,213.99805218058464 183.8438277511741,213.91377480841766 181.1929186602938,212.98672164281015 177.05377990432316,212.75074386688357 176.68172248802148,212.96986609551823 175.8755980861024,214.6554146060662 170.38775119616184,212.43048792019545 164.71387559809955,209.26161517074797 163.00861244020052,208.73908401833614 155.79999999998836,207.7277299722191 163.1636363636353,208.7053722896526 164.1092822966748,209.19419186406594 165.1014354066574,209.3290384573338 169.10105263162404,211.45286169985775 163.11712918657577,208.77279574201384 159.22602870810078,208.25026346056256" stroke="#4DD2FF" stroke-linecap="round" stroke-linejoin="round" stroke-width="0.5"><title>2024-11-28 6.3km</title><desc>1732767063000</desc></polyline><polyline fill="none" points="12.01744966453407,248.1284304658475 16.801342281978577,248.9362494598172 17.88859060406685,249.5076321362285 18.395973154343665,249.46822647405497 23.379194630892016,251.91136642622587 25.100671140942723,253.05411768861813 31.40671140945051,255.8124624609918 32.29463087255135,253.90132664400153 32.94697986578103,253.54668136501277 37.7489932886092,253.80281411419855 39.95973154366948,254.72883044557238 41.88053691270761,255.04406930798723 44.20000000006985,254.98496204988624 40.70268456370104,254.92585477861576 38.07516778528225,253.90132664400153 33.128187919501215,253.6451939902763 32.385234899353236,253.94073164563451 31.40671140945051,255.8715695341525 24.538926174514927,252.9753074152104 18.395973154343665,249.46822647405497 17.94295302021783,249.56674061850936 16.38456375838723,248.87714083661558 11.800000000046566,248.26635095661914" stroke="#4DD2FF" stroke-linecap="round" stroke-linejoin="round" stroke-width="0.5"><title>2024-11-25 4.0km</title><desc>1732507947000</desc></polyline><polyline fill="none" points="47.800000000046566,246.45846473917481 54.404815409332514,247.30667034976068 56.199036918231286,248.35278799166554 57.18715890869498,248.239694331598 59.00738362770062,248.83343567105476 60.90561797760893,250.19055524436408 64.49406099529006,251.7455821222975 67.27640449453611,253.668151998776 73.5691813804442,256.1278963155346 75.67544141260441,257.4001716032508 76.22150882834103,257.17398964156746 77.39165329060052,254.43152263073716 80.20000000006985,254.3749767106492 77.49566613172647,254.51634149509482 75.98747993586585,257.5415352608252 67.6924558589235,254.0922469838697 57.13515248801559,248.43760821459 56.433065810706466,248.5789752107521 58.929373996914364,249.05962260364322 60.151524879736826,250.19055524436408 62.30979133234359,250.7842935315275 67.22439807385672,253.72469802416163 75.10337078664452,257.2305351445975 76.22150882834103,257.34362612545374 77.39165329060052,254.40324967182823 76.14349919755477,257.5415352608252 67.82247191015631,254.0357010132866" stroke="#4DD2FF" stroke-linecap="round" stroke-linejoin="round" stroke-width="0.5"><title>2024-11-20 4.0km</title><desc>1732095798000</desc></polyline><polyline fill="none" points="85.69272437598556,248.47342720082088 90.47615507169394,249.1656550855114 91.6289962825249,249.74562833053642 92.4204992033774,249.82046349035227 96.84259160910733,252.0093820492766 98.01263940520585,252.90739440004108 104.31024960172363,255.69495395010745 104.60276155074826,255.6575372483203 105.30823154537939,254.0111968483834 105.82442910247482,253.61831856692152 110.6078597981832,253.88023748954583 113.12002124270657,254.89049363207596 116.20000000001164,255.00274406369135 113.0684014869621,254.9092020408425 110.33255443436792,253.8615290041198 105.92766861390555,253.63702707046468 105.20499203394866,254.12344767303148 104.53393520973623,255.73237064640853 98.13308550190413,253.09447990225453 93.21200212422991,250.34430898481514 90.44174190127524,249.2404904182331 83.79999999998836,248.26762935359147" stroke="#4DD2FF" stroke-linecap="round" stroke-linejoin="round" stroke-width="0.5"><title>2024-11-19 4.1km</title><desc>1731989484000</desc></polyline></svg>