<?xml version="1.0" encoding="utf-8" ?>
<svg baseProfile="full" height="300mm" version="1.1" viewBox="0,0,200,300" width="200mm" xmlns="http://www.w3.org/2000/svg" xmlns:ev="http://www.w3.org/2001/xml-events" xmlns:xlink="http://www.w3.org/1999/xlink"><defs /><rect fill="#222222" height="300" width="200" x="0" y="0" /><text fill="#FFFFFF" style="font-size:12px; font-family:Arial; font-weight:bold;" x="10" y="20">Over 4km Runs</text><text fill="#FFFFFF" style="font-size:4px; font-family:Arial" x="10" y="280">ATHLETE</text><text fill="#FFFFFF" style="font-size:9px; font-family:Arial" x="10" y="290">Fake David</text><text fill="#FFFFFF" style="font-size:4px; font-family:Arial" x="65" y="280">SPECIAL TRACKS</text><rect fill="yellow" height="2.6" width="2.6" x="65" y="283" /><text fill="#FFFFFF" style="font-size:3px; font-family:Arial" x="70" y="285.5">Over 10.0 km</text><rect fill="red" height="2.6" width="2.6" x="65" y="287" /><text fill="#FFFFFF" style="font-size:3px; font-family:Arial" x="70" y="289.5">Over 15.0 km</text><text fill="#FFFFFF" style="font-size:4px; font-family:Arial" x="120" y="280">STATISTICS</text><text fill="#FFFFFF" style="font-size:3px; font-family:Arial" x="120" y="285">Number: 46</text><text fill="#FFFFFF" style="font-size:3px; font-family:Arial" x="120" y="290">Weekly: 2.6</text><text fill="#FFFFFF" style="font-size:3px; font-family:Arial" x="141" y="285">Total: 376.2 km</text><text fill="#FFFFFF" style="font-size:3px; font-family:Arial" x="141" y="290">Avg: 8.2 km</text><text fill="#FFFFFF" style="font-size:3px; font-family:Arial" x="167" y="285">Min: 4.0 km</text><text fill="#FFFFFF" style="font-size:3px; font-family:Arial" x="167" y="290">Max: 13.0 km</text><polyline fill="none" points="13.32262569834711,42.52625644879299 11.5,42.17090619743976 14.491620111686643,42.48525453187176 17.872905027936213,43.113949584643706 18.438547486031894,43.49663247486751 19.645251396577805,43.83831295219716 20.85195530729834,44.64467635549954 22.046089385461528,45.02735605248017 23.579608938540332,46.066054063048796 27.589385474915616,47.80175998242339 27.953910614538472,47.70609157979197 28.079608938540332,46.503398834422114 28.368715083808638,46.271059554463136 32.10195530729834,46.47606481674302 34.00000000005821,47.186747952437145 35.00558659224771,47.30975052335998 38.5,47.364418306198786 34.31424581009196,47.29608357512916 32.24022346374113,46.51706584173371 28.29329608939588,46.23005847449531 28.092178770923056,46.47606481674302 28.029329608893022,47.542088487913134 27.752793296065647,47.82909380256024 23.755586592189502,46.21639144583605 18.752793296065647,43.45563077479892 16.653631284891162,42.92260784015525 11.701117318414617,42.29391213157214 13.724860335234553,42.51258914418577" stroke="#4DD2FF" stroke-linecap="round" stroke-linejoin="round" stroke-width="0.5"><title>2025-03-25 5.1km</title><desc>1742904051000</desc></polyline><polyline fill="none" points="43.323474615754094,42.600308879467775 41.55030274804449,42.21744580875384 46.253609687963035,42.77806646221143 47.80041918961797,43.05153933026304 49.158593386178836,43.55746306182118 52.23963670240482,45.17094024071412 52.692361434572376,45.58114404162916 57.596879366610665,47.82357528191642 58.04960409877822,47.60480270840344 58.13763390778331,46.42889565824589 58.32626921287738,46.23746821611712 62.501397298590746,46.497262553471955 64.32487191434484,47.24929672032886 68.47484862600686,47.29031667718664 67.34303679555887,47.413376492695534 64.40032603638247,47.2219500773499 62.300186306471005,46.51093592947291 58.43945039593382,46.264815005793935 58.11248253379017,46.53828267840436 58.011877037759405,47.67316916567506 57.534000931540504,47.782555444253376 53.23311597580323,45.90930642223975 48.793898463016376,43.42072705567989 48.429203539853916,43.46174786823394 47.47345132747432,43.01051842601737 41.5,42.17642471808358 47.87587331159739,43.07888659465243 50.11434559850022,44.008691159280716 52.79296693060314,45.608490929109394 57.647182114596944,47.82357528191642 57.99930135073373,47.70051574142417 58.12505822075764,46.42889565824589 58.376571960921865,46.22379481975804 62.21215649746591,46.4562424193864 64.37517466227291,47.24929672032886 68.5,47.33133662487671 66.95319049834507,47.45439641288249 64.29972054023528,47.2219500773499 62.21215649746591,46.469915798457805 58.338844899844844,46.22379481975804 58.12505822075764,46.53828267840436 58.07475547277136,47.55010952430894 57.91127154172864,47.782555444253376 57.647182114596944,47.768882162999944 53.11993479274679,45.8682861567504 48.83162552403519,43.40705344949674 48.56753609684529,43.502768671591184 47.36027014441788,42.99684478926065 42.543782021442894,42.32683533900126" stroke="#4DD2FF" stroke-linecap="round" stroke-linejoin="round" stroke-width="0.5"><title>2025-03-23 9.7km</title><desc>1742722238000</desc></polyline><polyline fill="none" points="73.29664960451191,42.479596189557924 77.60609585861675,42.9577284733823 78.43531875294866,43.43585951036948 78.71172638441203,43.38121602636238 79.71684504422592,43.80470260127913 84.06398324802285,46.181673611703445 85.83550488605397,46.86470555917185 87.63215449044947,47.86192763369763 87.93369008839363,47.67067998490529 88.03420195437502,46.37292281346163 88.2603536528768,46.22265560030064 92.16775244305609,46.37292281346163 94.37901349464664,47.15157821845787 98.5,47.20622057883884 94.45439739414724,47.21988116641296 92.31852024199907,46.400244111719076 88.3483015356469,46.181673611703445 88.12214983714512,46.37292281346163 87.97138203814393,47.616037762883934 87.60702652396867,47.75264328738558 83.17194043740164,45.79917460982688 79.67915309453383,43.87300679595501 77.61865984176984,43.039693882572465 71.5502559330198,42.138072366287815 77.60609585861675,42.99871118256124 78.91275011637481,43.39487689892121 82.14169381110696,45.047834961733315 83.36040018615313,45.881138748838566 87.63215449044947,47.75264328738558 87.98394602147164,47.547734962485265 88.07189390418353,46.31828020472312 88.2603536528768,46.127030946008745 92.23057235922897,46.37292281346163 94.31619357841555,47.124257032133755 98.4874360167887,47.19255999028974 97.33154955797363,47.342826408625115 94.12773382966407,47.178899400663795 92.23057235922897,46.427565405887435 88.36086551885819,46.15435228092247 88.08445788739482,46.55051117934636 88.02163797122194,47.53407439937291 87.83317822247045,47.80728546869068 87.55677059100708,47.79362492488872 83.10912052122876,45.785513916416676 79.62889716151403,43.85934595904837 77.59353187534725,43.09433746832656 71.5,42.206377181835705 75.49534667289117,42.68451017816551" stroke="#4DD2FF" stroke-linecap="round" stroke-linejoin="round" stroke-width="0.5"><title>2025-03-21 9.8km</title><desc>1742551156000</desc></polyline><polyline fill="none" points="103.18986454932019,42.36048160491919 102.87459131248761,42.593585415626876 101.5,42.29192160438106 102.37015413364861,42.27820960122335 107.57846800563857,43.00494436133886 108.85217188228853,43.33403085586906 113.64432508172467,45.966701628654846 117.59154600650072,47.69437135817134 118.03292853810126,47.584678524159244 118.17164876224706,46.37805303516507 118.39864549279446,46.19980087190925 122.48458664177451,46.47403489777935 123.98528724891366,47.132194892765256 125.19593647832517,47.310446153074736 128.5,47.351581034759874 124.35100420360686,47.214464726668666 122.43414292385569,46.460323206178145 118.49953292851569,46.186089159877156 118.20948155067163,46.43289981991984 118.28514712752076,46.92652014711348 118.07076132646762,47.77664094080683 117.64198972447775,47.85891048665508 116.83489023818402,47.379004284128314 113.53082671645097,46.11753058445174 109.10439047170803,43.663116761963465 107.40191499301,43.07350409623177 105.92643624480115,43.01865631034889 101.52522185893031,42.14108951334492 107.71718822984258,43.04608020534215 109.93671181687387,43.88250703913218 113.12727697333321,45.70617859567574 117.74287716019899,47.79035253431357 118.08337225596188,47.52983208258229 118.17164876224706,46.35062963668315 118.42386735172477,46.17237744687009 122.40892106492538,46.47403489777935 124.37622606259538,47.20075309021922 128.42433442315087,47.24188799643889 127.39023820648436,47.379004284128314 124.1996730499086,47.17332981429354 122.47197571228025,46.460323206178145 118.46170014014933,46.19980087190925 118.22209248010768,46.4054764296161 118.19687062123558,47.2830228934763 117.96987389074638,47.721794556462555 117.7680990191293,47.76292934625235 113.31644091545604,45.91185470498749 108.80172816442791,43.36145470387419 108.33512377395527,43.37516662632697 107.36408220458543,42.963808508138754 105.67421765532345,42.88153677416267 101.57566557684913,42.209649570067995 104.62751050910447,42.60729739529779" stroke="#4DD2FF" stroke-linecap="round" stroke-linejoin="round" stroke-width="0.5"><title>2025-03-19 10.0km</title><desc>1742357906000</desc></polyline><polyline fill="none" points="132.6438547486323,42.266578097609454 136.77932960900944,42.840604656899814 138.9162011173321,43.387294948101044 143.01396648050286,45.66970931373362 147.60195530729834,47.78809244764852 148.04189944139216,47.651423306175275 148.1550279329531,46.599067506729625 148.43156424583867,46.189057119583595 152.62988826818764,46.489731493085856 154.0879888268537,47.13207964011235 155.15642458101502,47.28241611568956 158.5,47.309750007116236 154.45251396647654,47.159413553919876 152.39106145250844,46.39406242770201 148.45670391066233,46.134388998747454 148.19273743021768,46.476064486822 148.16759776539402,47.51475406289683 147.6270949720638,47.829093170235865 142.52374301676173,45.5057044379937 139.65782122907694,43.8519804146199 137.74720670393435,43.086615489577525 131.5,42.17090682977869 134.34078212291934,42.48525509389583 137.40782122907694,42.97727738243702 138.3505586592364,43.40096218450344 138.79050279333023,43.37362771068001 143.62988826824585,45.997718625323614 147.71508379897568,47.80175935616717 148.02932960895123,47.6240894656803 148.2053072626004,46.831406319339294 148.02932960895123,47.692424059307086 147.51396648044465,47.76075862751168 143.24022346374113,45.88838225326617 138.79050279333023,43.4556311199558 138.3379888268537,43.44196388759883 137.18156424583867,42.96361011445697" stroke="#4DD2FF" stroke-linecap="round" stroke-linejoin="round" stroke-width="0.5"><title>2025-03-17 7.0km</title><desc>1742185263000</desc></polyline><polyline fill="none" points="162.976858345035,42.268802478691214 162.91374474053737,42.4335003005981 162.77489481068915,42.255077653579065 162.88849929877324,42.46094992324652 161.7524544179323,42.268802478691214 166.0441795231891,42.77662028992199 168.79593267885502,43.407959400414256 173.50420757365646,45.974467855572584 177.75806451612152,47.86844581870537 178.07363253855146,47.63513074438379 178.1746143057826,46.45482642829302 178.4270687236567,46.20778503306792 182.25175315566594,46.44110191502841 184.41023842908908,47.237121994417976 188.4621318373247,47.30574425404484 184.35974754556082,47.20967308344552 182.56732117809588,46.48227545173722 178.56591865356313,46.20778503306792 178.19985974754672,46.42737740071607 178.0610098176985,47.69002843549242 177.66970546985976,47.77237494153087 172.77208976156544,45.617629247921286 168.8338008414721,43.394234660154325 165.79172510519857,42.707996343189734 161.5,42.15900384896668 165.8169705469627,42.65309716742195 168.80855539970798,43.325610943487845 173.45371669007,45.89212054594827 177.66970546985976,47.75865052641893 178.08625525946263,47.525335312995594 178.18723702663556,46.41365288539964 178.38920056103962,46.20778503306792 182.40322580642533,46.42737740071607 184.4481065918808,47.195948626394966 188.5,47.30574425404484 184.23352033662377,47.15477524916059 182.39060308551416,46.42737740071607 178.41444600280374,46.180335968674626 178.18723702663556,46.52344897927833 178.023141654965,47.67630401423958 177.75806451612152,47.74492611025926 173.23913043481298,45.85094687729725 168.85904628335265,43.407959400414256 167.3316970547312,42.95504243180039 161.5,42.13155418129463 165.43828892009333,42.68054675732856" stroke="yellow" stroke-linecap="round" stroke-linejoin="round" stroke-width="0.5"><title>2025-03-15 10.0km</title><desc>1742012101000</desc></polyline><polyline fill="none" points="13.204192180885002,72.56626805440465 11.5,72.16524877489428 15.315355628787074,72.59392452449538 18.698304286401253,73.28533493747818 23.569241639168467,75.95415497278736 27.766132830874994,77.79326768974715 28.08407913328847,77.39225970339612 28.14766839373624,76.28602628421504 28.414743287779856,76.13391867344035 32.52260951482458,76.45196171737916 34.48115873767529,77.22632511079428 38.5,77.25398088654038 34.60833725857083,77.25398088654038 32.4590202543186,76.47961760846374 28.478332548227627,76.23071444015659 28.185821950028185,76.5211014374072 27.995054168626666,77.71030059126497 27.689825718291104,77.83475122510572 23.289448893046938,75.94032698860974 21.48351389542222,74.77877263932896 18.7364578426932,73.40978853829438 18.44394724443555,73.46510122297332 17.32477626000764,72.96728646740667 15.671455487492494,72.8843172116758 11.894253414939158,72.23439009177673 13.903674046159722,72.46947037661448 16.536269430012908,72.8843172116758 17.591851153993048,72.9811146731081 19.054404145048466,73.47892939156736 23.23857748467708,75.78821909458202 26.697833254758734,77.25398088654038 27.422750824247487,77.73795629487722 27.94418276025681,77.71030059126497 28.211257654242218,76.7976600600523 28.03320772497682,77.68264488350542 27.689825718291104,77.76561199440039 23.353038153552916,75.91267101716949 18.74917569477111,73.35447583712812 18.151436646236107,73.3268194803677" stroke="#4DD2FF" stroke-linecap="round" stroke-linejoin="round" stroke-width="0.5"><title>2025-03-12 7.1km</title><desc>1741778255000</desc></polyline><polyline fill="none" points="43.571094480808824,72.43916503968649 47.246024321822915,72.8922950651322 48.38260056125,73.38661745861464 49.784377923293505,73.64750929840375 53.92656688491115,76.10536692352616 57.76566884940257,77.78053601975262 58.06875584658701,77.5608425794926 58.14452759589767,76.43490958800248 58.39710009354167,76.17402169386332 62.43826005619485,76.37998585151217 64.01683816657169,76.99787694346742 65.22918615530943,77.19010930520017 68.5,77.23130192807002 64.40832553792279,77.2450328002742 62.43826005619485,76.46237145010673 58.52338634239277,76.20148359486484 58.23292797006434,76.39371678714815 58.043498596875,77.64322765024554 57.61412535083946,77.75307435407012 52.76473339571385,75.63851380687265 48.78671655751532,73.37288629892282 48.45837231056066,73.48273554781917 47.27128157153493,72.96095103240805 41.5,72.17827148934884 46.77876520116115,72.837370272915 48.559401309583336,73.38661745861464 48.78671655751532,73.30423048509692 53.45930776424939,75.8307475863403 57.727782974776346,77.76680518743524 58.06875584658701,77.46472661702137 58.15715622075368,76.33879303840513 58.4349859682261,76.17402169386332 62.33723105711397,76.33879303840513 64.5346117867739,77.10772403187002 68.5,77.23130192807002 64.4335827876348,77.20384018051845 62.349859681969974,76.35252397709701 58.42235734331189,76.09163596635335 58.19504209543811,76.46237145010673 58.182413470582105,77.46472661702137 57.79092609917279,77.82172851066571 55.85874649207108,76.8193752852385 53.0804490178125,75.77582366978459 48.875116931740195,73.4415420871519 48.559401309583336,73.49646669931826 47.460710944840685,72.98841341215302 44.02572497661458,72.71378943053423 41.5,72.23319647801691 43.39429373247549,72.3842401124275 44.29092609917279,72.54901484513539 47.675397567858454,73.00214460051211 49.468662301194854,73.81228290166473 48.950888681050856,73.4690043952869 47.51122544432292,73.05706934364571 45.036014967248775,72.768714259626 43.45743685687194,72.85110147250816 41.57577174925245,72.23319647801691" stroke="yellow" stroke-linecap="round" stroke-linejoin="round" stroke-width="0.5"><title>2025-03-07 10.7km</title><desc>1741342581000</desc></polyline><polyline fill="none" points="73.58665105386171,72.42181767066359 77.64613583130995,72.94433654067689 78.30374707258306,73.32934949826449 78.84754098358098,73.34309994615614 82.33793911006069,75.06189786802861 83.96932084305445,76.14816989985411 87.73793911002576,77.81194125014008 88.01615925057558,77.55068889017275 88.33231850113953,76.1894206105062 90.02693208429264,76.39567402549437 92.60679156903643,76.34067313735432 93.95995316159679,76.91818164524739 95.24988290393958,77.13818441105832 98.5,77.12443424586672 97.80444964865455,77.26193585158035 94.41522248240653,77.15193457520218 92.44238875876181,76.43692468083464 88.433489461313,76.24442154371354 88.19320843089372,76.42317446340166 87.94028103043092,77.68819017834903 87.53559718967881,77.78444101911737 83.3749414519989,75.90066544232832 78.84754098358098,73.45310349261854 77.21615925052902,72.98558796741418 73.99133489461383,72.80683171830606 71.5,72.18805874985992 72.99227166268975,72.27056193219323" stroke="#4DD2FF" stroke-linecap="round" stroke-linejoin="round" stroke-width="0.5"><title>2025-03-05 4.7km</title><desc>1741177738000</desc></polyline><polyline fill="none" points="102.7319884726312,72.3632351905253 106.9726224783808,72.87085468955047 108.165706051921,73.20926693250658 112.9639769452624,75.83194129835465 116.4524495676742,77.28426684465376 117.243515850103,77.80597330094315 117.6325648415368,77.70727218975662 117.8270893371664,76.32545122914598 118.1123919308302,76.17034824668372 122.0028818443534,76.36775202046556 124.1426512968028,77.18556546143373 128.5,77.24196625816694 126.85302593652159,77.39706836245023 124.11671469733119,77.25606645469088 122.2233429394546,76.48055408448272 118.1253602305078,76.18444852308312 117.93083573482,76.36775202046556 117.7233429394546,77.74957267228456 117.4380403457908,77.86237391277973 112.2636887608096,75.66273759727483 108.1138328529778,73.29386989868362 107.8414985590498,73.39257331144472 106.596541786741,72.92725677207636 101.5,72.13762608722027" stroke="#4DD2FF" stroke-linecap="round" stroke-linejoin="round" stroke-width="0.5"><title>2025-03-03 4.6km</title><desc>1740978130000</desc></polyline><polyline fill="none" points="133.79518916393863,72.47017599784886 133.59341429243796,72.59358391602291 131.5,72.16851184946427 134.79145259223878,72.5113119797752 138.76389537600335,73.3614535475208 142.30756655771984,75.1165721034049 143.48038299864857,75.91185468871845 147.5411022886983,77.76293015736155 147.96987389074638,77.73550695292943 148.18425969174132,76.41918833577074 148.37342363380594,76.18608926619345 152.24497898179106,76.44661173633358 154.16184026160045,77.2144652926363 158.43694535264513,77.2693118526513 156.93624474544777,77.37900492364133 154.11139654368162,77.18704200648062 152.21975712286076,76.47403513277823 148.42386735166656,76.22722441756923 148.23470340960193,76.36434152242146 148.0455394675373,77.58467925559671 147.66721158334985,77.81777655395854 143.40471742179943,75.98041337142058 138.73867351707304,73.40258933024597 138.51167678658385,73.47114894763217 137.6793554413598,73.0872147612099 131.5,72.1822238669265 137.85590845398838,73.0460789080098 147.5158804297098,77.83148815053573 147.98248482018244,77.74921855563298 148.10859411489218,76.52888191344391 148.33559084543958,76.22722441756923 152.56025221856544,76.50145852513378 154.1996730499668,77.22817693416437 158.5,77.33787002970348 154.22489490895532,77.2144652926363 152.30803362914594,76.48774682948715 148.41125642228872,76.18608926619345 148.18425969174132,76.41918833577074 147.98248482018244,77.68066053185612 147.59154600655893,77.79035335767549 142.9381130313268,75.73360199425952 139.01611396542285,73.47114894763217 138.42340028024046,73.44372510374524 137.30102755723055,72.96380717403372 133.66907986922888,72.53873596260382 135.11933675856562,72.66214383480838 137.66674451192375,73.03236695489613 139.3692199906218,73.7865228587325 139.43227463803487,73.64940383336216 138.67561886971816,73.38887740368955" stroke="yellow" stroke-linecap="round" stroke-linejoin="round" stroke-width="0.5"><title>2025-02-28 10.0km</title><desc>1740736874000</desc></polyline><polyline fill="none" points="163.38723205967108,72.85911382646009 163.65144454798428,72.55815331508347 163.33690587140154,72.84543381391268 163.61369990679668,72.66759355810063 163.45013979502255,72.59919341384375 161.613233923621,72.22983219455637 162.45619757688837,72.20247207469947 167.55172413791297,72.90015385797597 168.36952469713287,73.29687368964369 168.8602050326299,73.24215376380016 173.77958993479842,75.9097311674559 177.7176141659147,77.72913352608157 178.05731593666133,77.60601664190472 178.18313140730606,76.29276474106882 178.43476234859554,76.12860759305477 182.37278657971183,76.37484325999685 184.31034482759424,77.11354827968171 188.43709226470673,77.1956264317705 184.28518173348857,77.18194674229017 182.27213420323096,76.37484325999685 179.95712954335613,76.3885230096057 178.35927306616213,76.15596712793922 178.1579683131422,76.27908498430043 178.05731593666133,77.63337595661869 177.74277726002038,77.92064851519535 172.6975768872653,75.63613526859262 169.09925442683743,73.52943319243786 167.06104380241595,72.96855389008124 165.45060577819822,72.91383386641974 161.51258154702373,72.18879201321397 167.61463187326444,72.98223389346094 168.28145386767574,73.37895354778448 168.8602050326299,73.37895354778448 173.79217148182215,75.99180985763087 177.7931034482899,77.78385211476416 178.06989748368505,77.55129800019495 178.24603914259933,76.15596712793922 182.25955265609082,76.3474837577669 183.89515377447242,76.99043098276888 185.10298229265027,77.18194674229017 188.5,77.18194674229017 184.3732525628875,77.1956264317705 182.27213420323096,76.48428122820042 179.96971109043807,76.47060148573655 178.2712022367632,76.18332665869093 178.082479030767,77.48289967517485 177.70503261883277,77.83857068720681 173.18825722276233,75.8686918086023 168.75955265614903,73.39263352057606 162.82106244174065,72.43503296367999 161.5,72.07935148480465 163.47530288912822,72.3803127810097 164.3308480894775,72.55815331508347 166.64585274935234,72.76335371725145 169.36346691520885,73.74831245538371 168.8224603914423,73.37895354778448 168.55824790307088,73.44735340155603 167.35041938489303,72.96855389008124 164.48182665428612,72.76335371725145 162.53168685926357,72.27087236673106" stroke="yellow" stroke-linecap="round" stroke-linejoin="round" stroke-width="0.5"><title>2025-02-26 11.1km</title><desc>1740566027000</desc></polyline><polyline fill="none" points="13.804570895561483,102.50110373839561 11.550373134377878,102.22724762067082 12.557835820945911,102.21355480408238 17.65811567165656,102.91188714974851 18.37593283591559,103.30897690798156 18.804104477691,103.29528417198162 22.355410447809845,105.04794608819066 23.111007462721318,105.70518999772321 26.826026119408198,107.21136509267671 27.669776119466405,107.7864468729822 28.08535447763279,107.53998347315064 28.198694029881153,106.28027649060823 28.400186567218043,106.11596624768572 29.97434701496968,106.36243155699049 32.24113805976231,106.3761240645108 33.953824626863934,107.0470556821092 35.18796641792869,107.22505753691075 38.424440298520494,107.18398020112363 35.150186567159835,107.18398020112363 34.04197761195246,107.03336322457471 32.40485074633034,106.41720158084354 28.500932835857384,106.15704382221156 28.22388059704099,106.33504653896671 27.99720149260247,107.70429244310071 27.63199626869755,107.80013927438995 25.89412313431967,106.85536118410528 23.27472014928935,105.82842296913441 18.85447761195246,103.36374784176587 18.438899253786076,103.40482603141572 17.393656716449186,102.91188714974851 15.995802238874603,102.92557991432841 11.5,102.15878352751315 17.41884328360902,102.92557991432841 18.37593283591559,103.37744057270174 18.85447761195246,103.30897690798156 22.582089552248362,105.4039534975891 26.826026119408198,107.25244242236658 27.757929104496725,107.84121647248685 28.123134328401648,107.4441365061939 28.18610074633034,106.32135402840504 28.349813432898372,106.11596624768572 30.251399253786076,106.36243155699049 32.15298507467378,106.32135402840504 33.92863805976231,106.9922858459322 35.250932835857384,107.17028775379003 38.5,107.18398020112363 34.62126865674509,107.18398020112363 32.44263059704099,106.40350907643733 31.170708955207374,106.44458658664371 28.412779850768857,106.10227372084046 28.18610074633034,106.36243155699049 28.097947761241812,107.52629105238884 27.97201492538443,107.7727544705267 27.694962686568033,107.81383167476451 22.682835820887703,105.48610895569436 18.917444029881153,103.39113330256077 18.476679104554933,103.40482603141572 17.494402985088527,102.99404372186109 15.895055970235262,102.91188714974851 11.638526119466405,102.22724762067082 14.635727612010669,102.59695328319503 15.27798507467378,102.63803164420824 17.406250000058208,102.98035096240346 19.660447761241812,103.74714392134047 22.46875,105.19856469171646 18.94263059704099,103.40482603141572 15.27798507467378,102.69280277795042" stroke="yellow" stroke-linecap="round" stroke-linejoin="round" stroke-width="0.5"><title>2025-02-21 11.3km</title><desc>1740135343000</desc></polyline><polyline fill="none" points="43.71229050279362,102.60142751570675 41.57541899441276,102.17774091429601 44.642458100570366,102.51942373375641 47.533519553078804,102.99777861175244 48.33798882679548,103.40779608575394 49.129888268129434,103.44879778275208 52.66201117320452,105.4715367898898 56.747206703876145,107.24824859993532 57.664804469270166,107.80859260172292 58.079608938482124,107.50792042328976 58.217877094924916,106.29155976347101 58.39385474863229,106.15488952242595 60.14106145250844,106.38722887160839 62.40363128489116,106.40089588295086 63.84916201111628,107.0159103411861 65.08100558654405,107.22091470241139 68.43715083791176,107.2072477521433 67.43156424578046,107.34391720921849 64.42737430159468,107.17991384849302 62.328212290478405,106.46923092457291 58.45670391060412,106.19589060542057 58.19273743010126,106.41456289331836 58.004189944127575,107.64458965638187 57.614525139622856,107.79492569521244 52.850558659178205,105.66287581156939 48.86592178768478,103.4351305514574 48.28770949720638,103.40779608575394 47.34497206704691,102.99777861175244 45.761173184320796,102.90210773595027 41.5,102.16407358829747 47.40782122901874,102.95677681393863 48.76536312850658,103.3394599037565 52.071229050226975,104.97952124632138 53.17737430165289,105.73121112809167 57.80307262565475,107.74025805899873 58.05446927371668,107.52158735120611 58.14245810051216,106.37356185920362 58.31843575416133,106.15488952242595 62.277932960831095,106.38722887160839 63.86173184355721,107.0159103411861 65.13128491613315,107.22091470241139 68.5,107.24824859993532 67.10474860330578,107.35758414931479 64.43994413403561,107.19358080084203 62.40363128489116,106.46923092457291 58.41899441339774,106.18222357875493 58.15502793289488,106.44189691099746 58.092178770923056,107.49425349438388 57.84078212286113,107.83592641170253 53.64245810051216,106.01821917953203 48.87849162006751,103.40779608575394 48.45111731841462,103.4351305514574 47.42039106145967,103.0114458756434 44.114525139622856,102.58776022125676 45.19553072628332,102.71076583463582 47.34497206704691,102.95677681393863 49.46927374304505,103.76314382191049 48.916201117273886,103.40779608575394 48.23743016755907,103.39412885138881 47.018156424572226,102.94310954595858 45.92458100558724,102.929442276989 42.11592178774299,102.21874288625258" stroke="yellow" stroke-linecap="round" stroke-linejoin="round" stroke-width="0.5"><title>2025-02-19 10.6km</title><desc>1739962218000</desc></polyline><polyline fill="none" points="73.45926966291154,102.37491943289933 71.5,102.18250210399856 74.82443820225308,102.53984841221245 77.47893258422846,103.00714638616773 78.21207865170436,103.37823511040187 78.74297752807615,103.35074708233878 83.38202247186564,105.90711616864428 87.83146067417692,107.81749789598689 88.0463483146159,107.54262404567271 88.18539325840538,106.34691803138412 88.40028089884436,106.19573625936755 92.4073033707682,106.4431245490996 94.21488764043897,107.18528742805938 98.5,107.26774978585308 94.44241573027102,107.21277488474152 92.35674157302128,106.45686833326181 88.65308988763718,106.19573625936755 88.4382022471982,106.4293807639333 88.21067415724974,106.37440561302355 88.0463483146159,107.6250862437737 87.65449438203359,107.77626684453571 82.53511235956103,105.50854482490104 78.76825842692051,103.40572313434677 77.33988764043897,102.97965830280737 72.47331460670102,102.29245488793822" stroke="#4DD2FF" stroke-linecap="round" stroke-linejoin="round" stroke-width="0.5"><title>2025-02-18 4.9km</title><desc>1739836925000</desc></polyline><polyline fill="none" points="104.41960507759359,102.39141602956806 104.38152327219723,102.72266962128924 105.77785613544984,102.6812629547203 107.63117066293489,102.99871382860874 110.05571227084147,104.29611609308631 111.36318758811103,104.72398080500716 112.58180535968859,105.60731127781037 116.68194640334696,107.29114832519554 117.6212976022507,107.85702455299906 117.9640338505269,107.59478944282455 118.05289139633533,106.36642003789893 118.25599435827462,106.18699461169308 122.25458392099245,106.50443947828899 124.1078984485357,107.23594079579925 128.5,107.31875208373822 124.2475317348144,107.15312947086932 122.27997179125668,106.42162782640662 118.35754583921516,106.17319264860998 118.12905500701163,106.42162782640662 118.06558533146745,107.51197827825672 117.86248236958636,107.80181719218672 113.20380818052217,105.85574721441662 109.44640338502359,103.73022898859926 107.52961918193614,102.95730722373992 101.5,102.14297544701549 107.56770098727429,102.9711094263912 109.31946403387701,103.75783327773388 107.56770098727429,102.9711094263912" stroke="#4DD2FF" stroke-linecap="round" stroke-linejoin="round" stroke-width="0.5"><title>2025-02-14 5.4km</title><desc>1739506837000</desc></polyline><polyline fill="none" points="134.4509574964759,102.57987319130916 136.72092480148422,102.85411259061948 138.76389537606155,103.36145440200926 143.8082671649172,106.06268320267554 147.6798225128441,107.83148667388014 147.9950957496767,107.77664030999586 148.48692199907964,106.5425928015029 148.85263895383105,106.25464719238516 152.4341429239139,106.46032267346163 154.4518916394445,107.26931066915859 158.5,107.31044555701374 154.36361513310112,107.26931066915859 152.39631013548933,106.48774605354993 148.9156936011277,106.30949400977988 148.57519850542303,106.47403436400054 147.8815973844612,107.83148667388014 143.54343764600344,106.07639492284216 138.8017281644279,103.4163020816195 137.6541335824295,103.04607992697856 131.5,102.16851332611986 137.47758056985913,102.96380823590152 138.8647828117828,103.4163020816195 143.56865950499196,105.98041286005173 147.64198972447775,107.80406349399709 148.020317608607,107.70808233214484 148.53736571699847,106.50145774206612 148.94091546011623,106.30949400977988 152.44675385340815,106.50145774206612 154.36361513310112,107.22817577212118 158.5,107.29673392875702 156.77230266231345,107.39271530508995 154.35100420366507,107.20075250235095 152.37108827655902,106.48774605354993 148.90308267163346,106.24093548544624 148.57519850542303,106.46032267346163 148.00770667911274,107.74921712193463 147.80593180761207,107.79035190248396 143.31644091551425,105.89814248066978 139.24311069597024,103.62198073463514 137.95679588982603,103.08721575871459 131.52522185898852,102.19593734575028 134.7283979448839,102.4701773171837 137.6541335824295,102.96380823590152 139.40705277910456,103.86879481481446 138.7512844465673,103.40259016325581 138.58734236337477,103.48486165815848 137.46496964042308,102.99123213702114" stroke="yellow" stroke-linecap="round" stroke-linejoin="round" stroke-width="0.5"><title>2025-02-12 10.1km</title><desc>1739334019000</desc></polyline><polyline fill="none" points="183.2081545064575,106.88294611990568 184.34120171674294,107.27492785625509 188.5,107.30292652043863 184.48283261799952,107.33092518041667 182.55150214594323,106.4629647807451 178.7660944206291,106.21097552671563 177.94206008582842,107.79290246810706 177.69742489268538,107.83490034703573 172.6502145922277,105.62299928659922 171.29828326177085,104.75503099813068 167.71888412017142,103.07508098578546 161.5,102.09510320893605 167.4871244634851,102.92108481645118 169.48283261799952,103.691064400904 172.01931330468506,104.92302517332428 173.2939914163435,105.81899157105363 177.60729613731382,107.76490387695958 177.95493562234333,107.63891016508569 178.48283261799952,106.37896840029862 178.8047210299992,106.19697611383162 181.12231759657152,106.44896538663306 182.28111587982858,106.37896840029862 184.35407725319965,107.23292985217995 188.3326180257136,107.28892718885618 182.88626609439962,106.89694548169791 182.95064377685776,107.28892718885618 182.8347639485146,106.82694866225938 182.37124463520013,106.6169580474234 178.8047210299992,106.25297375918308 178.54721030045766,106.39296779962024 177.83905579400016,107.90489679106395 172.9849785407423,105.81899157105363 172.0965665235999,105.1050186936045 170.46137339057168,104.32104535045801" stroke="#4DD2FF" stroke-linecap="round" stroke-linejoin="round" stroke-width="0.5"><title>2025-02-10 6.3km</title><desc>1739162078000</desc></polyline><polyline fill="none" points="11.692963166569825,133.91114641839522 13.32572842220543,133.95954015541065 20.688015393039677,135.04033080600493 22.94420010992326,134.94354380277218 23.137163276493084,135.68557639195933 23.98323254531715,135.73396973362833 24.977735019172542,136.10498499500682 25.66052776243305,135.12098660909396 31.746289169765078,135.0080684764107 32.072842220950406,135.5726585527882 32.45876855409006,135.6694452756783 32.71110500267241,135.52426517516142 32.963441451312974,134.84675675648032 34.121220450731926,134.76610085157154 38.5,135.3145604142337 34.38840021984652,134.74996966698382 32.91891148983268,134.83062557787343 32.636888400127646,135.52426517516142 32.38455195154529,135.65331415816036 31.746289169765078,134.99193730978004 25.734744364977814,135.08872429144685 25.304288070299663,135.37908497764147 25.007421660237014,136.1211160789535 23.211379878979642,135.70170750709076 23.211379878979642,135.07259313082614 23.018416712468024,134.91128145880066 20.836448598071,135.02419964180444 13.934304562862962,134.007933881614 11.5,133.8950151703175 13.60775151179405,133.97567139865714 20.361462341912556,134.99193730978004 22.914513468858786,134.91128145880066 23.122319955960847,135.6694452756783 24.992578339704778,136.10498499500682 25.43787795485696,135.26616697912687 25.82380428799661,135.08872429144685 31.686915887810756,134.99193730978004 32.10252886195667,135.58878967624332 32.39939527207753,135.65331415816036 32.71110500267241,135.4597406549001 32.82985156675568,134.9274126313976 33.2009345794213,134.782232034966 38.1882902692887,135.26616697912687 34.59620670694858,134.74996966698382 33.14156129735056,134.74996966698382 32.740791643736884,134.95967497299716 32.48845519515453,135.65331415816036 32.19158878503367,135.58878967624332 31.73144584929105,134.95967497299716 25.675371082965285,135.07259313082614 25.31913139077369,135.3468226983241 25.022264980711043,136.10498499500682 23.196536558505613,135.68557639195933 23.018416712468024,134.84675675648032 20.598955470020883,134.94354380277218 13.147608576109633,133.87888392106106 11.84139637160115,133.92727766525059 13.177295217115898,133.91114641839522 21.266904892749153,135.05646196904127 22.988730071403552,134.91128145880066 23.152006596967112,135.68557639195933 24.30978559644427,135.83075638464652 23.211379878979642,135.6694452756783 22.914513468858786,134.8628879338503 20.67317207250744,134.95967497299716 13.83040131937014,133.95954015541065 12.00467289716471,133.92727766525059 13.963991203985643,134.007933881614" stroke="#4DD2FF" stroke-linecap="round" stroke-linejoin="round" stroke-width="0.5"><title>2025-01-25 9.9km</title><desc>1737761473000</desc></polyline><polyline fill="none" points="41.85999999998603,133.6795822299464 50.664999999979045,134.95109960414993 53.21500000002561,134.83698937139707 53.20000000001164,135.8802807196771 54.190000000060536,135.92918487996212 55.0449999999837,136.32041777003906 55.76500000001397,135.26082707967726 61.899999999965075,135.11411411940935 62.47000000003027,135.83137654850725 62.84499999997206,135.71726677336846 62.95000000001164,135.11411411940935 63.19000000000233,134.9347981459432 68.5,135.4401427868288 64.36000000004424,134.88589376410528 63.054999999993015,135.0000039714214 62.65000000002328,135.81507515568228 62.320000000006985,135.71726677336846 62.18500000005588,135.22822420809825 61.899999999965075,135.09781267333892 55.7949999999837,135.21192277049704 55.49499999999534,135.37493709207047 55.13500000000931,136.28781505582447 53.30499999993481,135.84767794008076 53.1699999999837,135.03260687693546 51.08499999996275,135.17931989162753 42.910000000032596,133.9893114996812 41.5,134.00561302807182 43.3300000000163,134.0545176060259 50.61999999999534,135.14671700797044 52.960000000020955,135.01630542478233 53.15500000002794,135.19562133168802 53.15500000002794,135.76617096997506 55.0449999999837,136.28781505582447 55.75,135.22822420809825 61.88500000000931,135.09781267333892 62.26000000000931,135.71726677336846 62.60500000003958,135.81507515568228 63.25000000005821,134.91849668655777 67.59999999997672,135.26082707967726 63.36999999999534,134.86959230109642 62.95000000001164,135.0000039714214 62.875,135.63575975484855 62.60500000003958,135.7824723664089 61.88500000000931,135.04890832783713 55.82500000001164,135.21192277049704 55.43500000005588,135.45644420747703 55.09000000002561,136.2552123367641 53.29000000003725,135.81507515568228 53.06500000000233,134.9837025168963 51.07000000006519,135.16301845037378 43.05999999999767,133.97300997006823 41.8300000000163,134.02191455524007 43.210000000020955,133.9893114996812 45.13000000000466,134.2990403323638" stroke="#4DD2FF" stroke-linecap="round" stroke-linejoin="round" stroke-width="0.5"><title>2025-01-19 8.1km</title><desc>1737283232000</desc></polyline><polyline fill="none" points="75.0688930406468,132.54559556867753 77.32624941616086,132.86097072510165 78.28468005603645,133.35460031981347 78.99089210649254,133.36831223411718 82.3453993460862,135.1234288285341 82.76156001875643,135.50735835250816 86.86011209717253,137.26245454901073 87.78070994862355,137.83834184188163 88.03292853810126,137.6875143916841 88.57519850536482,136.41233191877836 88.92830453056376,136.20665649898 92.24497898179106,136.37119685320067 94.36361513315933,137.1253382613213 98.5,137.2350312996423 94.27533862675773,137.1253382613213 92.35847734700656,136.34377347106056 88.9787482485408,136.17923309230537 88.58780943485908,136.33006177845527 88.0203176085488,137.6875143916841 87.84376459597843,137.76978392529418 83.29121905652573,135.8638636218966 78.83956095285248,133.3957360596105 78.48645492759533,133.42315988104383 77.4271368519403,132.95695436111419 74.52662307338323,132.68271526831086 71.5,132.1068118432304 77.61630079406314,132.9980901897652 78.90261560020735,133.3820241473586 83.51821578701492,135.9049988008628 86.84750116767827,137.27616617218882 87.66721158334985,137.86576500133378 88.00770667917095,137.75607233893243 88.56258757587057,136.49460202235787 88.9787482485408,136.2752149977896 92.44675385334995,136.43975529070303 94.40144792152569,137.15276152703154 98.5,137.26245454901073 94.37622606259538,137.2350312996423 92.30803362914594,136.45346697515924 88.96613731898833,136.2752149977896 88.61303129378939,136.43975529070303 88.0203176085488,137.79720709499088 87.56632414762862,137.81091867831128 82.53456328820903,135.50735835250816 78.95305931806797,133.4642956055177 78.49906585708959,133.49171941670647 77.5154133582837,133.0255140704685 71.55044371786062,132.14794786194398 77.75502101820894,133.01180213062617 78.44862213917077,133.4094479708292 78.85217188228853,133.36831223411718 83.50560485757887,135.91871052514762 87.85637552547269,137.89318815675506 88.66347501165001,136.38490854275005 90.01284446520731,136.38490854275005 88.82741709484253,136.37119685320067 88.0203176085488,137.82463026058394 87.64198972447775,137.76978392529418 82.49673049978446,135.50735835250816 78.9152265296434,133.45058369837352 78.54950957500841,133.47800751162868 77.540635217214,133.01180213062617 74.71578701538965,132.68271526831086" stroke="yellow" stroke-linecap="round" stroke-linejoin="round" stroke-width="0.5"><title>2025-01-17 12.3km</title><desc>1737088953000</desc></polyline><polyline fill="none" points="104.23033707862487,132.42302440077765 104.4073033707682,132.120654267419 105.17837078648154,132.62918557113153 108.76825842697872,133.34387584461365 110.79073033703025,134.38841818661604 111.57443820219487,135.0068944171362 117.76825842697872,137.86560205288697 118.00842696626205,137.70067781642138 118.53932584263384,136.44999755834579 118.86797752801795,136.23009685630677 122.39466292125871,136.44999755834579 124.3286516853259,137.1646730297216 128.4873595504905,137.23339167913946 124.41713483142667,137.1646730297216 122.24297752807615,136.44999755834579 118.96910112357,136.285072056402 118.58988764043897,136.42250998494274 117.99578651681077,137.79688363893365 117.83146067411872,137.85185837215977 113.21769662917359,135.87275765649974 108.80617977521615,133.3851078912994 107.35252808989026,133.01401913940208 101.5,132.18937479579472 107.23876404494513,132.95904296450317 108.43960674153641,133.3851078912994 108.7808988763718,133.34387584461365 113.72331460670102,136.06517115778115 116.73174157296307,137.24713540593802 117.62921348313102,137.8243710076058 117.97050561796641,137.74190888936573 118.51404494378949,136.4362537721463 118.89325842692051,136.24384065787308 122.26825842697872,136.44999755834579 124.30337078642333,137.15092929675302 128.5,137.20590422245732 124.36657303367974,137.15092929675302 122.38202247186564,136.50497269288462 118.98174157302128,136.2575844584353 118.58988764043897,136.44999755834579 117.86938202247256,137.87934573259554 113.41994382016128,135.96896443222067 108.84410112357,133.45382794861507 108.22471910109743,133.42633992875926 107.55477528087795,133.04150722068152 103.06741573038744,132.39553622729727" stroke="#4DD2FF" stroke-linecap="round" stroke-linejoin="round" stroke-width="0.5"><title>2025-01-15 9.1km</title><desc>1736916504000</desc></polyline><polyline fill="none" points="133.85384615382645,132.0163992854359 134.03006993007148,132.31750124892278 134.64685314684175,132.6870348022203 137.73076923075132,133.193431427193 139.40489510493353,133.74088566757564 141.39370629366022,135.0410829497123 147.6748251747922,137.91517060415936 147.95174825174036,137.84674046823056 148.48041958041722,136.61499366331554 148.90839160839096,136.38232945061463 152.38251748250332,136.6013075413066 154.2832167831948,137.3540427372791 158.5,137.44984517733974 154.23286713287234,137.3951009320008 152.34475524473237,136.64236590423388 148.89580419572303,136.38232945061463 148.48041958041722,136.61499366331554 147.88881118874997,137.92885662827757 147.49860139854718,137.92885662827757 143.3699300698936,136.09492031051195 138.80069930071477,133.54927686903102 138.53636363637634,133.6313949500327 136.93776223773602,133.1249995324033 131.5,132.35856056932244 136.05664335662732,132.9060172978352 138.77552447555354,133.50821781477134 142.84125874121673,135.75276598599157 147.7503496503341,137.9836007145641 148.03986013983376,137.81936840673734 148.631468531501,136.4370739977603 149.91538461536402,136.4644462652068 148.66923076921375,136.49181852857873 147.85104895103723,137.96991469453496 143.0552447552327,136.012803330741 138.87622377619846,133.57664956674853 137.4034965034807,133.152372293378 133.43846153846243,132.60491629906755" stroke="#4DD2FF" stroke-linecap="round" stroke-linejoin="round" stroke-width="0.5"><title>2025-01-14 7.8km</title><desc>1736829619000</desc></polyline><polyline fill="none" points="165.19209302327363,132.72654975694604 164.97860465117265,132.4261489259079 165.48093023255933,132.4807672954339 169.70046511630062,133.83256675465964 172.29999999998836,135.11608428576437 173.45534883724758,135.92169176170137 177.6372093023383,137.83328855168656 177.91348837205442,137.75136338391167 178.47860465117265,136.46786430753127 178.84279069764307,136.24939548449765 182.246046511631,136.46786430753127 183.87860465119593,137.13692345813615 185.04651162790833,137.28712007463037 188.5,137.28712007463037 184.11720930231968,137.17788618394115 182.25860465120059,136.46786430753127 178.88046511629364,136.23574117440148 178.516279069765,136.3859385294054 177.926046511624,137.75136338391167 177.57441860466497,137.76501758108498 173.36744186043506,135.94900042764493 169.5246511628502,133.84622124377347 167.59069767442998,133.0406046447606 161.5,132.18036606154055 167.6660465116147,133.06791374000022 169.5246511628502,133.7642942937382 172.89023255812936,135.66225923228194 177.59953488374595,137.79232597236114 177.90093023260124,137.71040078626538 178.40325581392972,136.48151860031066 178.76744186051656,136.24939548449765 182.35906976746628,136.48151860031066 184.24279069766635,137.19154042382434 188.37441860465333,137.30077430640813 184.15488372097025,137.15057770107524 182.27116279071197,136.44055571890203 178.75488372094696,136.23574117440148 178.45348837209167,136.4132471261546 177.86325581400888,137.79232597236114 177.38604651164496,137.75136338391167 176.74558139534201,137.3144285371527 173.19162790698465,135.89438309169782 168.72093023255002,133.36831351909495 167.377209302329,132.99964099425415 161.55023255816195,132.16671144829888 168.746046511631,133.35465899437258 173.21674418606563,135.8124570572254 176.78325581399258,137.28712007463037 177.61209302331554,137.81963435962098 177.90093023260124,137.73770918569062 178.45348837209167,136.39959282831114 178.80511627910892,136.23574117440148 182.18325581395766,136.4132471261546 183.92883720929967,137.10961496920208 184.9837209302932,137.218848900593 183.87860465119593,137.10961496920208 182.1455813953653,136.4132471261546 178.83023255813168,136.19477823805937 178.47860465117265,136.3586299285671 177.91348837205442,137.68309238275106 177.46139534882968,137.69674658500298 176.29348837211728,137.05499797906668 173.21674418606563,135.86707441759063 168.70837209298043,133.36831351909495 166.975348837208,132.93136822307133" stroke="yellow" stroke-linecap="round" stroke-linejoin="round" stroke-width="0.5"><title>2025-01-10 13.0km</title><desc>1736482744000</desc></polyline><polyline fill="none" points="14.08644859812921,161.96141392319987 15.322897196281701,162.798237346753 17.467757009377237,163.20978845492937 19.574766355159227,164.01916961750248 21.858411214954685,165.37727577805344 27.763084112200886,168.03858607680013 28.04065420560073,167.81909802286827 28.154205607483163,166.61190904994146 28.318224299058784,166.4061374128505 32.292523364536464,166.66678144766774 34.374299065442756,167.43499329901533 38.43691588786896,167.5310195550701 34.19766355142929,167.39383917392115 32.292523364536464,166.68049954454182 28.393925233685877,166.39241929554555 28.141588785103522,166.68049954454182 28.04065420560073,167.87397006087122 27.763084112200886,168.03858607680013 23.24626168224495,166.1180567345873 18.805140186916105,163.6350569669885 17.417289719625842,163.20978845492937 11.5,162.38668531864823 17.74532710283529,163.23722516276757 18.363551401882432,163.58018366577744 18.792523364478257,163.58018366577744 23.321962616872042,166.06318417331204 27.57383177569136,167.98371408780804 28.002803738345392,167.87397006087122 28.128971962665673,166.62562715091917 28.35607476637233,166.41985552910774 32.292523364536464,166.68049954454182 34.47523364488734,167.43499329901533 38.5,167.4898654514691 34.13457943929825,167.38012113017612 32.27990654204041,166.62562715091917 28.406542056123726,166.41985552910774 28.19205607479671,166.55703663584427 28.17943925235886,167.5310195550701 27.85140186920762,168.02486808106187 23.157943925296422,166.07690231518063 18.830373831791803,163.6213386432355 17.328971962619107,163.20978845492937 11.5,162.34553006525675 15.915887850453146,162.9079843988875 18.742056074843276,163.5527470090601 22.89299065427622,165.87113008019514 27.599065420625266,167.98371408780804 27.952336448652204,167.8876880677999 28.229906542110257,167.20178646860586 27.952336448652204,167.95627808723657 27.3971962617361,167.87397006087122 23.233644859865308,166.09062045598694 18.805140186916105,163.53902867915167 18.514953271020204,163.60762031842023 17.543457943946123,163.14119666744955 15.941121495387051,162.9628579003911" stroke="yellow" stroke-linecap="round" stroke-linejoin="round" stroke-width="0.5"><title>2025-01-08 12.0km</title><desc>1736310892000</desc></polyline><polyline fill="none" points="44.3779803646612,163.33933692522987 44.75666199158877,162.73544648638926 44.807152875175234,162.14527891749458 45.04698457225459,161.93940606489195 45.324684432009235,161.99430551474507 45.19845722295577,162.09037951262144 46.42286115005845,162.55702393241518 47.053997194976546,163.07856629676826 49.64165497897193,163.98439952534682 53.933380084170494,166.3038612754026 57.79593267879682,168.0194207050954 58.04838709672913,167.77238113178464 58.08625525946263,166.63324992507114 58.43969144462608,166.39993302573566 62.3022440392524,166.67442346489406 64.32187938288553,167.44299451877305 68.5,167.52534122725774 64.2966339411214,167.4155456078006 62.35273492283886,166.701872486301 58.389200561039615,166.44110661765444 58.12412342213793,166.71559699546196 58.08625525946263,167.77238113178464 57.871669004205614,168.06059393510805 53.13814866764005,166.04309484337864 48.808555399707984,163.61383192476933 48.328892005607486,163.61383192476933 47.44530154281529,163.1883645011112 41.5,162.43350052455207 47.6220196353388,163.3118874027423" stroke="#4DD2FF" stroke-linecap="round" stroke-linejoin="round" stroke-width="0.5"><title>2025-01-06 5.2km</title><desc>1736137119000</desc></polyline><polyline fill="none" points="74.99485981307225,162.928562635876 75.05794392520329,162.4072630507144 75.47429906547768,161.78993268574413 75.77710280369502,162.8599706695386 75.34813084109919,163.14805675648677 76.14299065421801,163.10690162880928 78.76728971960256,163.73794590907346 82.32523364486406,165.41157461293915 82.9939252336626,166.00145651404455 87.78831775696017,168.12775931242504 88.07850467285607,167.94942518226162 88.12897196260747,166.79710817785235 88.36869158875197,166.5776184071001 92.51962616824312,166.86569867758953 94.51308411208447,167.62019248823344 98.5,167.68878268137632 94.34906542056706,167.59275640384294 92.38084112148499,166.82454438084096 88.41915887850337,166.5776184071001 88.17943925235886,166.78339007488103 88.09112149535213,167.94942518226162 87.83878504676977,168.196349316524 83.3093457944342,166.33069210224494 79.60000000003492,164.2318051415641 77.73271028039744,163.47729744679236 71.5,162.5032920325757 75.73925233643968,163.02459134583478 78.74205607478507,163.69679091326543 82.55233644862892,165.80940214906877 86.95560747658601,167.72993678499188 87.6369158878806,168.21006731427042 88.06588785047643,167.90827112768602 88.17943925235886,166.7147995444975 88.35607476631412,166.53646404594474 91.15700934577035,166.86569867758953 92.38084112148499,166.79710817785235 94.4121495326981,167.5790383600979 98.48738317756215,167.6476285685494 94.071495327109,167.51044812609325 92.3051401869161,166.82454438084096 88.45700934581691,166.53646404594474 88.17943925235886,166.74223575972428 88.1415887849871,167.86711706395727 87.86401869158726,168.1414773153083 83.37242990656523,166.3169739645091 79.62523364485241,164.1494953614456 78.07336448598653,163.55960752739338 71.66401869157562,162.57188413178665" stroke="#4DD2FF" stroke-linecap="round" stroke-linejoin="round" stroke-width="0.5"><title>2025-01-03 9.5km</title><desc>1735878536000</desc></polyline><polyline fill="none" points="104.19367681501899,162.38056400204368 105.77447306795511,162.8205805155012 107.58290398126701,162.98558643754222 108.45550351293059,163.42560150848294 108.78430913347984,163.38435014015704 112.54028103046585,165.46065756570897 117.58618266979465,167.78444413695252 117.96557377051795,167.71569347495097 118.48407494142884,166.46442695207952 118.86346604221035,166.244423170152 122.25269320845837,166.45067672338337 124.26346604217542,167.2069377801672 128.5,167.33068929443834 124.57962529273937,167.22068795251835 122.40444964868948,166.51942785659048 118.88875878223917,166.31317438014958 118.48407494142884,166.53317808016436 117.81381733022863,167.83944464811066 112.90702576114563,165.77691426275123 108.77166276349453,163.46685286761203 108.44285714288708,163.49435376854672 107.4311475410359,163.01308741021785 106.00210772833088,162.94433497085993 101.5,162.1605553519039 107.53231850120937,162.9993369243748 109.31545667449245,163.83811468470958 107.64613583142636,163.04058837877528 103.94074941449799,162.47681770399504" stroke="#4DD2FF" stroke-linecap="round" stroke-linejoin="round" stroke-width="0.5"><title>2025-01-02 5.6km</title><desc>1735817809000</desc></polyline><polyline fill="none" points="134.61635514016962,162.48957241272728 137.619158878515,162.9834340737143 138.50233644858235,163.44985775944951 139.34766355139436,163.60075928716105 143.94018691591918,166.12491196051997 147.81355140183587,167.7985158522206 148.1415887849871,167.45556547415617 148.5074766355101,166.5364553113759 148.94906542054377,166.31696563870355 152.19158878503367,166.42671050774516 154.56355140189407,167.29094906584942 158.5,167.318385144099 156.96074766351376,167.4144113858638 154.3364485981292,167.24979494075524 152.36822429904714,166.48158291775326 148.96168224303983,166.28952941122407 148.57056074764114,166.44042861179332 147.99018691590754,167.74364383463399 147.77570093463873,167.83966985462757 141.59345794393448,165.12348596453376 138.7546728971647,163.44985775944951 138.3509345795028,163.4772944100696 137.4803738318151,163.03830750983616 131.5,162.1466121465637 137.02616822428536,162.9148422555736 138.45186915888917,163.4224211047549 138.7546728971647,163.34011111616564 142.80467289721128,165.61734056101704 147.77570093463873,167.8533878534363 148.60841121495469,166.39927429663658 148.94906542054377,166.26209317967005 149.90794392518,166.38555618951796 148.583177570079,166.3718380814098 147.99018691590754,167.71620781972888 147.76308411214268,167.78479784933734 143.1831775701139,165.8505492155964 138.94392523361603,163.49101273382257 138.37616822432028,163.44985775944951 137.36682242993265,162.99715243428363 136.28177570091793,163.03830750983616 131.87850467290264,162.1877674122661 134.65420560748316,162.70906664781796" stroke="#4DD2FF" stroke-linecap="round" stroke-linejoin="round" stroke-width="0.5"><title>2024-12-31 8.0km</title><desc>1735619151000</desc></polyline><polyline fill="none" points="165.25981308415066,162.68163005549286 166.18084112153156,162.70906681849738 168.81775700941216,163.32639290584484 170.3570093458402,164.14949113606417 170.79859813087387,164.60219359426992 177.86401869158726,167.79851564374985 178.5327102803858,166.49530090630287 178.91121495328844,166.28952931518143 182.4060747664189,166.48158280736243 184.1471962616779,167.1812045493425 188.48738317762036,167.2909488951409 184.31121495331172,167.24979477316083 182.3808411215432,166.49530090630287 178.9238317757845,166.28952931518143 178.5579439252615,166.45414660645474 177.80093457951443,167.8533876408619 173.53644859814085,166.02888496963715 169.6757009346038,163.9025620533357 167.4299065420637,163.01087094201648 161.5,162.14661235915264 166.2691588785383,162.7639403322828 168.77990654209862,163.34011123984237 173.53644859814085,165.91913987169391 177.687383177632,167.83966964311549 178.0028037383454,167.7162076173845 178.5327102803858,166.48158280736243 178.96168224303983,166.2483749693638 182.33037383185,166.45414660645474 184.37429906544276,167.2086406419403 188.5,167.2223586866894 184.52570093463873,167.23607673043443 182.31775700935395,166.48158280736243 178.8985981308506,166.26209308562102 178.5327102803858,166.45414660645474 177.9775700934697,167.70248960940808 177.77570093458053,167.79851564374985 173.2084112149896,165.87798544309044 168.8808411215432,163.4498578749335 166.98831775703002,162.98343422396283 161.70186915888917,162.21520445837814 167.26588785048807,162.96971586337895 168.42663551407168,163.4361395491287 168.91869158885675,163.38126623566495 172.93084112147335,165.60362235069624 168.8556074766675,163.4087028944341 165.04532710282365,162.6953484374826" stroke="yellow" stroke-linecap="round" stroke-linejoin="round" stroke-width="0.5"><title>2024-12-30 10.8km</title><desc>1735533491000</desc></polyline><polyline fill="none" points="15.290578358224593,192.63118403371482 17.75886194035411,193.04196738389146 18.45149253733689,193.43905708294187 18.80410447763279,193.39797887799796 19.521921641833615,193.69921883432835 22.607276119466405,195.4518778778147 27.619402985088527,197.75221750879427 27.98460820899345,197.76590992040292 28.513526119408198,196.46512626300682 28.92910447763279,196.23235347957234 32.24113805964589,196.45143375448242 34.21828358207131,197.21821266037296 38.5,197.28667490713997 34.38199626869755,197.21821266037296 32.36707089556148,196.47881877052714 28.87873134331312,196.2597385282279 28.538712686568033,196.46512626300682 28.097947761241812,197.57421606502612 27.757929104438517,197.8206795566366 23.048041044792626,195.83526981562318 19.69822761195246,193.9183021288336 17.784048507455736,193.13781670015305 11.5,192.15193563136563 17.569962686568033,193.02827462034475 19.98787313431967,193.9183021288336 22.531716417928692,195.4518778778147 27.720149253727868,197.84806436863437 27.97201492532622,197.77960233097838 28.551305970118847,196.47881877052714 28.903917910414748,196.3145086132572 32.34188432834344,196.50620378245367 34.23087686568033,197.23190511175198 38.46222014923114,197.27298245980637 37.17770522390492,197.3825220097351 34.293843283550814,197.23190511175198 32.329291044792626,196.45143375448242 28.91651119402377,196.2597385282279 28.563899253786076,196.41035622282652 27.98460820899345,197.7385250961379 27.606809701479506,197.7932947405643 23.526585820887703,196.01327294346993 22.191697761183605,195.19171860741335 17.75886194035411,193.0830456684198 12.14225746266311,192.28886387386592" stroke="#4DD2FF" stroke-linecap="round" stroke-linejoin="round" stroke-width="0.5"><title>2024-12-27 9.1km</title><desc>1735273142000</desc></polyline><polyline fill="none" points="63.21355140185915,196.6256229057908 62.22943925234722,196.3512609988975 61.182242990646046,196.47472390759503 58.72196261683712,196.24151612172136 57.85140186920762,197.80537444740185 53.27149532712065,195.93971737210813 48.72943925228901,193.4429996527906 48.36355140188243,193.4841546148964 47.3794392523705,193.0451678782265 41.5,192.11231758758368 45.6130841121776,192.77080063631 46.01682242995594,192.7022087619407 48.90607476636069,193.4292813300417 52.12336448597489,195.04803635863937 52.60280373838032,195.4870183202729 57.57383177569136,197.76422045107756 57.93971962615615,197.73678444843972 58.44439252332086,196.47472390759503 58.84813084109919,196.2277980074432 62.330373831733596,196.4472877128428 64.46261682244949,197.24293570168084 68.5,197.35267998208292 64.04626168223331,197.16062744848023 62.481775700929575,196.48844200343592 58.83551401866134,196.24151612172136 58.570560747699346,196.3238247857371 58.00280373834539,197.7779384508467 57.75046728970483,197.88768241243088 56.665420560748316,197.24293570168084 53.12009345792467,195.84369039350713 48.96915887854993,193.41556300628872 46.11775700934231,192.77080063631 43.12757009343477,192.37296740929014" stroke="#4DD2FF" stroke-linecap="round" stroke-linejoin="round" stroke-width="0.5"><title>2024-12-25 6.6km</title><desc>1735101299000</desc></polyline><polyline fill="none" points="74.3035547240288,192.3499114674487 74.20252572494792,192.59707365858776 74.36669784842525,192.54214875587786 74.60664172121324,192.14394272156642 75.37698783905944,192.67946098199172 76.23573433113052,192.72065462985483 78.87511693168199,193.39348290860653 83.54770813841606,195.9474617716769 87.84144059871323,197.80113394290674 88.01824134704657,197.78740310648573 88.54864359210478,196.482968980461 88.9401309635141,196.27700485353125 92.32460243214155,196.46923804581456 94.50935453694547,197.29309231344087 98.5,197.3617466695432 94.31992516369792,197.25189968752966 92.19831618334865,196.4555071101786 88.82647333963541,196.29073580245313 88.54864359210478,196.42804523576342 87.98035547242034,197.71874890891195 87.75304022448836,197.75994143051503 83.0930776426685,195.8376139467582 79.59494855004596,193.80541737709427 77.6122544434038,193.0090099072404 71.5,192.15767397846503 73.57109448075062,192.47349260444753 74.5561272216728,192.44603013670712 78.02899906452512,193.13259060231212 79.60757717490196,193.75049283450062 83.93919550976716,196.139695307691 87.63938260055147,197.78740310648573 88.03086997190258,197.74621059102356 88.66230121609988,196.34565958805615 89.95042095414829,196.34565958805615 88.7001870907261,196.30446675040002 87.96772684750613,197.85605727841903 83.42142188962316,195.97492371764383 80.97146866226103,194.533166021356 77.7385406921967,193.1051282327826 71.53788587456802,192.17140523433045 76.7282507015625,192.9128915315814" stroke="#4DD2FF" stroke-linecap="round" stroke-linejoin="round" stroke-width="0.5"><title>2024-12-18 8.3km</title><desc>1734495982000</desc></polyline><polyline fill="none" points="104.34608208958525,191.22766501444858 103.88013059698278,191.33720875928702 104.04384328360902,191.2002790680126 103.88013059698278,191.30982282919285 103.77938432834344,191.15920014071162 103.82975746266311,191.29612986261782 104.84981343284016,192.00816277172999 107.07882462686393,192.9940499374352 107.60774253733689,193.82931131424266 108.19962686568033,194.294865188087 108.85447761195246,194.39071436863742 113.47621268656803,196.8827755178354 117.65718283585738,198.75864541104238 117.9594216417754,198.77233782161784 118.55130597017705,197.45786175366084 118.91651119402377,197.25247401886736 122.41744402988115,197.47155426118115 124.62126865674509,198.2383330527955 128.5,198.3067952893325 124.28125,198.2383330527955 122.41744402988115,197.48524676763918 118.85354477621149,197.26616654163809 118.48833955224836,197.47155426118115 117.85867537313607,198.827107453777 111.67537313431967,196.23922450137616 111.24720149248606,195.81475344867795 109.69822761201067,194.9384230129217 107.83442164183361,194.19901595752162 101.5,193.17205677866878 107.51958955224836,193.966239046611 108.57742537319427,194.43179257358133 108.80410447763279,194.3633288935671 113.52658582094591,196.9375457130518 116.77565298503032,198.224640602406 117.6697761194082,198.77233782161784 118.00979477615329,198.69018334276916 118.63945895520737,197.37570668727858 119.94916044780985,197.33462914035772 118.71501865668688,197.4167842250754 118.06016791047296,198.84079985928838 117.49347014923114,198.79972263977106 113.22434701491147,196.96493080456275 112.05317164183361,196.1981467004225 107.79664179106476,194.1305521907925 101.60074626863934,193.26790654481738 107.60774253733689,193.99362458083488" stroke="#4DD2FF" stroke-linecap="round" stroke-linejoin="round" stroke-width="0.5"><title>2024-12-17 8.6km</title><desc>1734409492000</desc></polyline><polyline fill="none" points="134.82928538066335,192.51817044784548 137.52802428771975,192.943241374247 138.51167678658385,193.4094470678392 138.83956095285248,193.31346363923512 143.51821578707313,195.89128691218502 147.7680990191875,197.72864954722172 147.99509574961849,197.7012263591605 148.57519850536482,196.34377344252425 148.8904717421974,196.16552130579657 152.5476412891294,196.4260436012264 154.37622606259538,197.1253384656884 158.5,197.19389664274058 158.09645025688224,197.33101292021456 154.36361513310112,197.19389664274058 152.2071461933665,196.3986202190863 148.96613731904654,196.26150324700575 148.47431106958538,196.56316045073618 147.93204110232182,197.72864954722172 147.71765530126868,197.79720749956323 143.89654367114417,196.1792330147291 138.76389537600335,193.43687089538435 138.09551611403003,193.35459940048167 137.38930406357395,192.943241374247 131.5,192.13423457366298 137.47758056985913,192.9295294242038 138.32251284446102,193.38202323621954 138.81433909392217,193.3408874810848 143.48038299864857,195.87757518180297 147.6798225128441,197.71493795371498 148.03292853804305,197.68751476357284 148.46170014009112,196.522025406608 148.8904717421974,196.1929447226721 152.58547407761216,196.4260436012264 154.33839327422902,197.1253384656884 158.42433442315087,197.23503153667843 154.56539000466,197.19389664274058 152.35847734706476,196.3986202190863 148.87786081276136,196.2340798403311 148.56258757592877,196.384908526481 147.9068192433915,197.79720749956323 143.39210649230517,195.94613382358511 138.7765063054976,193.43687089538435 137.6541335824877,193.03922499594046 131.65133115369827,192.16165859125613 137.4523587108706,192.943241374247 138.33512377395527,193.38202323621954 138.87739374127705,193.39573515253142 144.01004203641787,196.1243861727853 147.6798225128441,197.75607273122296 148.03292853804305,197.7012263591605 148.46170014009112,196.30263834937068 149.92456795898033,196.33006174581533 148.58780943485908,196.3574851381709 147.95726296119392,197.86576542633702 143.3542737038806,195.9324220972776 138.82695002335822,193.42315898214292 138.42340028024046,193.43687089538435 137.4271368519403,192.95695332325704 131.65133115369827,192.2165066141315 137.33886034565512,192.9295294242038" stroke="yellow" stroke-linecap="round" stroke-linejoin="round" stroke-width="0.5"><title>2024-12-15 13.0km</title><desc>1734235831000</desc></polyline><polyline fill="none" points="164.16977611935,192.24093879183056 164.16977611935,192.39155978562485 165.3031716417172,192.7338797669654 166.82695895514917,193.0488135866326 167.6203358208295,192.9940425263194 168.38852611935,193.43221055172035 168.82929104473442,193.44590328568302 174.04291044775164,196.22550715645775 177.78311567165656,197.81383335187274 178.0223880596459,197.80014094332 178.526119402959,196.58151249715593 178.90391791041475,196.33504733472364 182.3796641791123,196.51304998520936 184.38199626863934,197.27982866256207 188.5,197.36198333113862 184.30643656715984,197.27982866256207 182.48041044775164,196.52674248961557 178.84095149260247,196.28027725375432 178.48833955219015,196.44458744773874 177.8838619402959,197.84121816587867 173.48880597011885,196.04750422752113 169.39598880591802,193.76083588520123 167.53218283579918,193.0351208230859 161.5,192.15878183410678 164.69869402976474,192.48740944467136 167.53218283579918,192.95296422039974 168.80410447757458,193.36374686662748 172.67024253727868,195.4724166635715 176.53638059698278,197.170289047368 177.49347014923114,197.77275612315862 178.00979477609508,197.71798647058313 178.47574626863934,196.58151249715593 178.8661380597041,196.30766229631263 182.3166977611836,196.45827995723812 184.19309701496968,197.23875131450768 185.6287313432549,197.25244376489718 184.09235074627213,197.1976739572856 182.29151119402377,196.48566497328284 179.0046641791123,196.28027725375432 178.48833955219015,196.43089493717707 177.85867537313607,197.78644853373407 173.2495335820713,195.91057878026913 168.82929104473442,193.47328875052335 167.50699626858113,193.0351208230859 165.5172574626049,192.78865090479667" stroke="#4DD2FF" stroke-linecap="round" stroke-linejoin="round" stroke-width="0.5"><title>2024-12-13 8.5km</title><desc>1734064159000</desc></polyline><polyline fill="none" points="14.420642418437637,222.54550260807446 17.200991969788447,222.94765770706 19.1140765233431,223.5439550475421 23.093292394885793,225.79045345360646 27.544402456318494,227.75958407904545 27.90151157299988,227.77345112225157 28.4754369391012,226.45607740404375 28.83254605572438,226.27580448583467 32.33986773737706,226.45607740404375 34.099905526672956,227.17716733105772 38.5,227.26036983520316 34.520784128515515,227.23263567127287 32.21232876711292,226.44221026268497 28.743268776626792,226.26193733104446 28.373405762889888,226.3867416869616 27.95252716104733,227.57931242320046 27.646433632529806,227.85665335986414 26.740906943799928,227.34357230215392 23.080538497830275,225.91525812564942 19.381908360868692,223.79356732050655 17.417808219150174,223.1140664593695 19.369154463813175,223.73809795544366 21.715871516324114,225.15256160090212 26.766414737852756,227.32970522687538 27.506140765268356,227.81505224571447 27.876003778888844,227.73184998950455 28.449929144990165,226.22033586050384 27.850495984894224,227.6902488474443 27.531648559321184,227.77345112225157 23.220831365091726,225.94299248582684 18.62942843651399,223.36367930888082 18.183042040618602,223.3775466795778 17.060699102526996,222.91992290054623 11.5,222.14334664013586" stroke="#4DD2FF" stroke-linecap="round" stroke-linejoin="round" stroke-width="0.5"><title>2024-12-11 6.6km</title><desc>1733890893000</desc></polyline><polyline fill="none" points="44.77387640444795,222.67728927131975 47.668539325823076,223.00714664009865 48.300561797688715,223.3782354749419 48.81882022472564,223.3644914573233 53.571629213460255,225.98958024053718 57.818820224667434,227.83124326927646 58.51404494384769,226.40189445612486 58.88061797746923,226.23696888047562 62.50842696626205,226.45686961528554 64.36657303367974,227.18528892709583 68.46207865170436,227.28149503628083 64.51825842697872,227.18528892709583 62.5463483146159,226.52558854113158 58.61516853928333,226.36066307603323 57.91994382016128,227.87247432072763 53.48314606741769,226.0170678835857 52.206460674176924,225.15120516030584 48.78089887637179,223.44695554762438 48.50280898879282,223.51567559471005 47.41573033708846,223.07586685102433 41.6264044943382,222.25122263029334 46.42977528087795,222.80098585372616 48.78089887637179,223.35074743870064 52.09269662917359,224.98627846651652 53.47050561796641,225.90711728684255 57.717696629231796,227.80375589654432 57.98314606741769,227.7075500596984 58.53932584269205,226.48435718867404 58.88061797746923,226.23696888047562 61.09269662917359,226.45686961528554 62.21769662917359,226.36066307603323 64.42977528087795,227.1990326600644 68.5,227.26775130948226 64.21488764043897,227.17154519312317 62.48314606741769,226.48435718867404 58.85533707862487,226.2507126841083 58.53932584269205,226.37440687044 58.09691011230461,227.6113441726775 57.85674157302128,227.81749958344153 53.91292134829564,226.16824984710547 51.54915730335051,224.75263206461386 48.755617977527436,223.3782354749419 46.73314606741769,222.86970614145685 41.5,222.12752567925781 47.95926966291154,223.06212281090848 57.5154494381859,227.73503744676418 57.98314606741769,227.65257527322683 58.53932584269205,226.22322507583885 58.00842696626205,227.7075500596984 57.74297752807615,227.76252482976997 53.62219101120718,226.0170678835857 48.793539325881284,223.33700341904478 44.38202247186564,222.5948248369532" stroke="yellow" stroke-linecap="round" stroke-linejoin="round" stroke-width="0.5"><title>2024-12-09 12.1km</title><desc>1733738831000</desc></polyline><polyline fill="none" points="82.73515551368473,225.51881740322278 87.81196983973496,227.8153353616508 88.3972667294438,226.48723205341958 88.85532516491367,226.23821162570675 92.1380772855482,226.37655634898692 94.13572101783939,227.16511930373963 98.5,227.31729773411644 94.5556079170201,227.23429133299214 92.35438265779521,226.47339759395982 88.89349670126103,226.2935495273996 88.46088595659239,226.43189420946874 87.8374175306526,227.8430040795938 83.81668237509439,226.16903922545316 78.701696512755,223.40212208482262 78.24363807722693,223.4159567730967 77.6583411875763,223.028585112188 74.03204524033936,222.5443693996349 73.57398680486949,222.3230132247554 73.35768143262248,222.50286513693572 71.76720075402409,222.2538393659779 75.53345900092972,222.64121264315327 78.701696512755,223.34678332146723 82.03534401510842,224.9931044781988 82.97690857684938,225.68483170191757 87.62111215834739,227.8153353616508 87.92648444860242,227.69082607999735 88.46088595659239,226.40422528130875 88.75353440147592,226.1828737075557 89.88595664460445,226.37655634898692 92.32893496699398,226.39039081564988 94.36475023563253,227.17895371167106 98.41093308193376,227.26196013748995 94.26295947219478,227.13745048482087 92.32893496699398,226.4180597458908 88.84260131948395,226.26588057864865 88.3209236569237,226.70858326436428 87.82469368516468,227.8430040795938 83.09142318571685,225.79550781860598 78.68897266726708,223.40212208482262 78.39632422244176,223.4574608316616 76.75494816206628,222.9179073463456 71.5,222.1569959204062 76.99670122528914,222.9179073463456 78.28180961351609,223.38828739552991 78.76531573984539,223.37445270523313 80.40669180022087,224.27370543213328" stroke="#4DD2FF" stroke-linecap="round" stroke-linejoin="round" stroke-width="0.5"><title>2024-12-06 9.2km</title><desc>1733479157000</desc></polyline><polyline fill="none" points="104.23913043469656,222.56388643894752 107.67251051886706,222.9756298893044 108.40462833095808,223.42854662169702 108.80855539970798,223.34619820771331 113.51683029450942,225.98132919649652 117.63183730712626,227.80668429371144 118.04838709672913,227.68316459449125 118.49018232815433,226.50286106974818 118.96984572231304,226.31071791979775 122.37798036460299,226.4754120605794 124.29663394106319,227.20280942133104 128.5,227.3400538843125 124.34712482464965,227.20280942133104 122.35273492278066,226.5165855727828 118.9067321177572,226.29699340139632 118.464936886332,226.57148357472033 117.83380084147211,227.83413310452306 113.17601683025714,225.85780827343115 112.11570827488322,225.130405602089 108.82117812056094,223.4559960848419 108.45511921454454,223.48344554388314 107.53366058901884,223.04425370819808 101.5,222.1658668954624 107.53366058901884,223.03052894645953 109.4270687236567,223.82656343693088 108.8716690041474,223.4559960848419 104.25175315560773,222.5776112354797" stroke="#4DD2FF" stroke-linecap="round" stroke-linejoin="round" stroke-width="0.5"><title>2024-12-03 5.6km</title><desc>1733220329000</desc></polyline><polyline fill="none" points="135.02447552455124,222.7007196889026 137.57972027972573,222.97444764526153 138.44825174828293,223.48084328924597 139.55594405595912,223.61770673717547 140.75174825178692,224.3978264432517 142.38811188808177,225.01370808160573 143.43286713288398,225.8211942124908 147.92657342663733,227.79199291770055 148.49300699302694,226.57393232446339 148.9461538462201,226.2728374497965 152.38251748256152,226.46444333624095 154.49720279726898,227.24455095360463 157.4552447553142,227.2171788125852 158.5,227.299295223449 158.1853146853391,227.38141159756924 154.37132867134642,227.27192309054954 152.38251748256152,226.51918783852307 148.9335664336104,226.32758200916578 148.55594405601732,226.5055017144623 147.976923077018,227.80567894590786 147.70000000001164,227.833050999252 143.0426573426812,225.83488038752694 140.52517482516123,224.3978264432517 137.4664335664711,223.0291931875836 131.5,222.19432189429062 137.68041958048707,223.00182041845983 139.4678321678657,223.8230017178721 137.44125874125166,223.0702523336222 131.52517482516123,222.16694900076254 135.17552447557682,222.67334687081166" stroke="#4DD2FF" stroke-linecap="round" stroke-linejoin="round" stroke-width="0.5"><title>2024-12-02 6.1km</title><desc>1733112856000</desc></polyline><polyline fill="none" points="161.5,221.28143743368855 162.29999999998836,221.61488187905343 164.14000000001397,224.0794535371242 163.97999999998137,223.91998219798552 164.32666666666046,223.90548479702557 164.78000000002794,223.3545827605849 166.43333333334886,223.60103912759223 167.04666666663252,224.00696658098605 168.27333333331626,224.25342212164833 169.59333333326504,225.07977077427495 171.19333333329996,225.68865700965398 172.03333333332557,226.42801630546455 176.83333333331393,228.6170832394564 177.22000000003027,228.6170832394564 177.80666666664183,227.26885287500045 178.19333333329996,227.0803898218437 181.88666666665813,227.26885287500045 184.16666666662786,228.08069163264008 188.5,228.12418289908965 184.19333333335817,228.10968581135967 181.89999999996508,227.2978471746319 178.2333333333372,227.109384149604 177.83333333331393,227.28335002534732 177.11333333334187,228.71856256631145 172.5266666666139,226.7904463067971 169.4199999999837,225.03627882743604 166.3133333332953,223.61553655120952 162.54000000003725,223.16611591634864" stroke="#4DD2FF" stroke-linecap="round" stroke-linejoin="round" stroke-width="0.5"><title>2024-11-29 4.6km</title><desc>1732853630000</desc></polyline><polyline fill="none" points="13.786602870794013,254.12914340617135 13.592822966515087,254.24151509003423 14.419617224892136,254.25556154578226 13.709090909163933,254.1712827954907 14.355023923446424,254.2274686331948 14.277511961699929,254.4241189334134 15.311004784656689,253.0897021553974 17.73971291864291,252.92114357471291 18.51483253587503,253.342539743855 19.6129186602775,253.5672839822655 23.914832535898313,256.0254066001653 28.2296650717617,257.89355835648894 28.875598086160608,256.53107356419787 29.26315789471846,256.34847176140465 32.93205741629936,256.53107356419787 34.79234449757496,257.28957146753964 38.5,257.3317101504945 34.869856459321454,257.261479007022 32.66076555021573,256.4889347023418 29.21148325363174,256.2922865557339 28.901435406703968,256.4748884129367 28.2296650717617,257.8795121717267 23.656459330115467,256.0254066001653 18.92822966509266,253.3846793089615 17.507177033519838,252.9492366819468 11.5,252.1064416435256 17.636363636353053,252.92114357471291 18.424401913944166,253.32849322004768 19.251196172263008,253.4408653811115 22.58421052637277,255.21071808320994 17.59760765550891,252.97732978500426 14.355023923446424,252.54188621713547" stroke="#4DD2FF" stroke-linecap="round" stroke-linejoin="round" stroke-width="0.5"><title>2024-11-28 6.3km</title><desc>1732767063000</desc></polyline><polyline fill="none" points="41.681208053720184,251.77369205487776 45.66778523492394,252.44687454985979 46.57382550340844,252.92302678020496 46.996644295344595,252.89018872838642 51.14932885905728,254.92613868853368 52.583892617432866,255.87843140719633 57.838926174503285,258.1770520508435 58.578859060420655,256.5844388700061 59.122483221523,256.2889011375082 63.12416107376339,256.5023450951703 64.9664429530385,257.27402537131275 66.56711409392301,257.5367244233348 68.5,257.4874683749222 65.58557046978967,257.43821231552283 63.395973154343665,256.5844388700061 59.27348993293708,256.37099499189935 58.65436241606949,256.61727637136937 57.838926174503285,258.2263079451368 52.11577181209577,255.8127561793517 46.996644295344595,252.89018872838642 46.619127516809385,252.97228384877963 45.32046979869483,252.39761736385117 41.5,251.8886257971899" stroke="#4DD2FF" stroke-linecap="round" stroke-linejoin="round" stroke-width="0.5"><title>2024-11-25 4.0km</title><desc>1732507947000</desc></polyline><polyline fill="none" points="71.5,250.3820539493172 77.00401284114923,251.08889195811935 78.49919743184,251.96065665973583 79.32263242395129,251.86641194298863 80.83948635635898,252.36119639253593 82.42134831473231,253.49212937030825 85.41171749611385,254.78798510192428 87.73033707868308,256.3901266656467 92.97431781701744,258.43991359628853 94.72953451052308,259.5001430026896 95.1845906903036,259.311658034625 96.15971107548103,257.02626885892823 98.5,256.97914725885494 96.24638844304718,257.09695124591235 94.98956661322154,259.6179460506828 88.07704654906411,256.7435391532199 79.2792937400518,252.03134017882985 78.69422150892206,252.14914600894554 80.77447833074257,252.54968550303602 81.79293739970308,253.49212937030825 83.5914927769918,253.98691127626807 87.6869983949,256.437248353468 94.25280898890924,259.35877928716945 95.1845906903036,259.4530217712163 96.15971107548103,257.002708059852 95.11958266457077,259.6179460506828 88.18539325846359,256.69641751106246" stroke="#4DD2FF" stroke-linecap="round" stroke-linejoin="round" stroke-width="0.5"><title>2024-11-20 4.0km</title><desc>1732095798000</desc></polyline><polyline fill="none" points="103.0772703133407,252.06118933402468 107.06346255977405,252.63804590460495 108.02416356879985,253.12135694212338 108.68374933610903,253.18371957530326 112.36882634094218,255.00781837440445 113.34386617102427,255.7561620000488 118.59187466808362,258.0791282917635 118.83563462557504,258.04794770693115 119.42352628783556,256.67599737366254 119.85369091870962,256.34859880578006 123.83988316514296,256.56686457463366 125.93335103557911,257.4087446934136 128.5,257.50228671974037 125.89033457246842,257.4243350340548 123.61046202864964,256.55127417010954 119.939723844931,256.3641892253945 119.33749336161418,256.76953972753836 118.77827934140805,258.11030887201196 113.44423791824374,255.91206658522424 109.34333510353463,253.6202574873605 107.03478491771966,252.70040868186334 101.5,251.8896911280026" stroke="#4DD2FF" stroke-linecap="round" stroke-linejoin="round" stroke-width="0.5"><title>2024-11-19 4.1km</title><desc>1731989484000</desc></polyline></svg>