<?xml version="1.0" encoding="utf-8" ?>
<svg baseProfile="full" height="300mm" version="1.1" viewBox="0,0,200,300" width="200mm" xmlns="http://www.w3.org/2000/svg" xmlns:ev="http://www.w3.org/2001/xml-events" xmlns:xlink="http://www.w3.org/1999/xlink"><defs /><rect fill="#222222" height="300" width="200" x="0" y="0" /><text fill="#FFFFFF" style="font-size:12px; font-family:Arial; font-weight:bold;" x="10" y="20">Over 4km Runs</text><text fill="#FFFFFF" style="font-size:4px; font-family:Arial" x="10" y="280">ATHLETE</text><text fill="#FFFFFF" style="font-size:9px; font-family:Arial" x="10" y="290">Fake David</text><text fill="#FFFFFF" style="font-size:4px; font-family:Arial" x="65" y="280">SPECIAL TRACKS</text><rect fill="yellow" height="2.6" width="2.6" x="65" y="283" /><text fill="#FFFFFF" style="font-size:3px; font-family:Arial" x="70" y="285.5">Over 10.0 km</text><rect fill="red" height="2.6" width="2.6" x="65" y="287" /><text fill="#FFFFFF" style="font-size:3px; font-family:Arial" x="70" y="289.5">Over 15.0 km</text><text fill="#FFFFFF" style="font-size:4px; font-family:Arial" x="120" y="280">STATISTICS</text><text fill="#FFFFFF" style="font-size:3px; font-family:Arial" x="120" y="285">Number: 15</text><text fill="#FFFFFF" style="font-size:3px; font-family:Arial" x="120" y="290">Weekly: 2.5</text><text fill="#FFFFFF" style="font-size:3px; font-family:Arial" x="141" y="285">Total: 107.4 km</text><text fill="#FFFFFF" style="font-size:3px; font-family:Arial" x="141" y="290">Avg: 7.2 km</text><text fill="#FFFFFF" style="font-size:3px; font-family:Arial" x="167" y="285">Min: 4.0 km</text><text fill="#FFFFFF" style="font-size:3px; font-family:Arial" x="167" y="290">Max: 13.0 km</text><polyline fill="none" points="47.14168224297464,56.600996649242006 45.56710280373227,56.162017598195234 43.89158878510352,56.35955825212295 39.95514018693939,55.98642579471925 38.56224299070891,58.48859911580803 31.234392523416318,55.50354779532063 23.96710280375555,51.5087994444184 23.38168224308174,51.57464738379349 21.80710280383937,50.87226860510418 12.400000000023283,49.379708140098955 18.980934579507448,50.433281018049456 19.6269158879295,50.32353401905857 24.249719626270235,51.48685012804344 29.397383177652955,54.076858173764776 30.164485981455073,54.77922931237845 38.118130841176026,58.42275272170082 38.703551401849836,58.37885511748027 39.511028037406504,56.35955825212295 40.157009345828556,55.96447681187419 45.728598130866885,56.31566034050775 49.14018691587262,57.58869712264277 55.60000000009313,57.764287971309386 48.47401869157329,57.457003917515976 45.9708411215106,56.38150720545673 40.136822429834865,55.98642579471925 39.71289719629567,56.118119657126954 38.80448598146904,58.444701521337265 38.40074766357429,58.62029185987194 36.66467289731372,57.58869712264277 30.992149532656185,55.349904629576486 24.35065420565661,51.46490081003867 19.788411215064116,50.433281018049456 15.004112149588764,49.79674785482348" stroke="#4DD2FF" stroke-linecap="round" stroke-linejoin="round" stroke-width="0.5"><title>2024-12-25 6.6km</title><desc>1735101299000</desc></polyline><polyline fill="none" points="82.88568755844608,49.759858347912086 82.72404115984682,50.155317853728775 82.98671655741055,50.06743800939876 83.37062675389461,49.43030835449463 84.60318054247182,50.287137571169296 85.97717492980883,50.353047407756094 90.2001870906679,51.429572653752984 97.67633302148897,55.515938834665576 104.54630495794117,58.48181430864497 104.82918615522794,58.45984497037716 105.67782974732108,56.372750368725974 106.30420954164583,56.04320776564418 111.71936389140319,56.35078087329748 115.21496725908946,57.66894770148792 121.59999999997672,57.77879467126331 114.91188026196323,57.60303950004163 111.51730589335784,56.32881137626828 106.12235734332353,56.06517728391918 105.67782974732108,56.28487237720401 104.76856875582598,58.34999825427076 104.40486435918137,58.41590628880658 96.94892422831617,55.340182314801496 91.35191768000368,52.08866780332755 88.17960710939951,50.814415851578815 78.40000000002328,49.45227836552658 81.71375116927084,49.95758816713351 83.28980355465319,49.913648218731396 88.84639850328676,51.01214496369357 91.37212347984314,52.00078853519517 98.3027128156973,55.82351249229396 104.22301216085907,58.45984497037716 104.8493919550674,58.39393694564933 105.8596819457598,56.15305534089566 107.92067352659069,56.15305534089566 105.92029934516177,56.08714680065168 104.74836295598652,58.56969164547627 97.47427502332721,55.55987794822431 93.55434985959437,53.253065634169616 88.38166510756128,50.968205172452144 78.46061739930883,49.47424837492872 86.7652011225,50.66062645052443" stroke="#4DD2FF" stroke-linecap="round" stroke-linejoin="round" stroke-width="0.5"><title>2024-12-18 8.3km</title><desc>1734495982000</desc></polyline><polyline fill="none" points="148.95373134326655,47.96426402311772 148.20820895512588,48.13953401483013 148.47014925372787,47.920446508796886 148.20820895512588,48.095716526702745 148.04701492527965,47.85472022515023 148.12761194026098,48.073807780165225 149.7597014924977,49.213060434762156 153.32611940300558,50.79047989987885 154.17238805966917,52.126898102782434 155.1194029849721,52.87178430092172 156.1671641790308,53.02514298981987 163.56194029841572,57.01244082854828 170.25149253732525,60.01383265765617 170.73507462674752,60.0357405145769 171.6820895522833,57.932578805834055 172.2664179104613,57.603958430176135 177.86791044776328,57.954486817878205 181.3940298508387,59.18133288444369 187.59999999997672,59.29087246293784 180.84999999997672,59.18133288444369 177.86791044776328,57.97639482820523 172.16567164182197,57.625866466609295 171.58134328352753,57.954486817878205 170.5738805970177,60.1233719260199 160.68059701495804,55.98275920219021 159.99552238802426,55.303605517867254 157.51716417912394,53.901476820668904 154.53507462679408,52.718425532017136 144.40000000002328,51.07529084585258 154.03134328348096,52.34598247456597 155.723880597041,53.09086811772431 156.0865671641659,52.981326229695696 163.64253731339704,57.100073140871245 168.84104477602523,59.159424963843776 170.27164179109968,60.0357405145769 170.81567164172884,59.90429334840155 171.82313432823867,57.801130699634086 173.91865671647247,57.73540662456071 171.94402985065244,57.86685476009734 170.89626865671016,60.14527977484977 169.98955223872326,60.07955622361624 163.15895522385836,57.143889287282946 161.2850746269105,55.91703472065274 154.4746268655872,52.60888350525056 144.5611940297531,51.228650471690344 154.17238805966917,52.3897993293358" stroke="#4DD2FF" stroke-linecap="round" stroke-linejoin="round" stroke-width="0.5"><title>2024-12-17 8.6km</title><desc>1734409492000</desc></polyline><polyline fill="none" points="17.726856609107926,98.02907271654112 22.04483886039816,98.70918619880104 23.618682858534157,99.45511530854856 24.143297524540685,99.30154182278784 31.629145259270445,103.42605905950768 38.42895843076985,106.36583927556057 38.79215319943614,106.32196217466844 39.72031760867685,104.15003750805045 40.22475478751585,103.8648340892687 46.07622606260702,104.28166976195644 49.00196170026902,105.40054154509562 55.60000000009313,105.51023462839657 54.954320411081426,105.72962067235494 48.981784212985076,105.51023462839657 45.53143390943296,104.23779235052643 40.34581971052103,104.0184051952092 39.55889771145303,104.50105672117206 38.69126576371491,106.36583927556057 38.348248482099734,106.4755319993128 32.23446987394709,103.88677282357821 24.022232601651922,99.49899343261495 22.952825782471336,99.36735904077068 21.822886501671746,98.70918619880104 12.400000000023283,97.41477531785495 21.964128911844455,98.68724707872025 23.316020551137626,99.4112371779629 24.10294255032204,99.34541996975895 31.56861279788427,103.40412029088475 38.287716020597145,106.34390072594397 38.85268566093873,106.3000236217049 39.53872022416908,104.43524065057863 40.22475478751585,103.90871155628702 46.136758524226025,104.28166976195644 48.94142923876643,105.40054154509562 55.478935077087954,105.57605045867967 49.30462400754914,105.51023462839657 45.773563755326904,104.23779235052643 40.204577300464734,103.97452774451813 39.70014012150932,104.21585364238126 38.650910789496265,106.4755319993128 31.427370387711562,103.51381411775947 24.04241008881945,99.49899343261495 22.24661373195704,98.86275999352802 12.642129845917225,97.45865374602727 21.923773937509395,98.70918619880104 23.336198038305156,99.4112371779629 24.203829986043274,99.43317624405609 32.416067258338444,103.79901787647395 38.287716020597145,106.40971636996255 38.85268566093873,106.32196217466844 39.53872022416908,104.08422135899309 41.87930873432197,104.1280987932987 39.74049509584438,104.17197622108506 38.731620737933554,106.58522468214505 31.36683792632539,103.4918753556558 24.123120037373155,99.47705437144032 23.477440448477864,99.49899343261495 21.883418963174336,98.7311253172229 12.642129845917225,97.5464105826104 21.742176553001627,98.68724707872025" stroke="yellow" stroke-linecap="round" stroke-linejoin="round" stroke-width="0.5"><title>2024-12-15 13.0km</title><desc>1734235831000</desc></polyline><polyline fill="none" points="82.67164179089013,97.58550206694053 82.67164179089013,97.82649565700558 84.48507462674752,98.37420762714464 86.9231343283318,98.87810173860635 88.1925373133272,98.7904680421052 89.42164179100655,99.49153688273509 90.12686567148194,99.51344525709283 98.46865671640262,103.96081145034987 104.45298507460393,106.50213336301385 104.83582089550328,106.48022550932365 105.64179104473442,104.5304199954553 106.24626865668688,104.13607573555782 111.80746268655639,104.42087997632916 115.01119402982295,105.64772586009349 121.59999999997672,105.77917332982179 114.89029850740917,105.64772586009349 111.96865671640262,104.44278798339656 106.14552238816395,104.04844360600691 105.58134328352753,104.31133991637034 104.61417910445016,106.54594906541752 97.58208955219015,103.67600676405709 91.03358208946884,100.01733741632779 88.0514925372554,98.85619331695489 78.40000000002328,97.45405093458248 83.51791044767015,97.97985511147999 88.0514925372554,98.7247427526454 90.0865671641659,99.38199498661561 96.27238805964589,102.75586666172603 102.4582089552423,105.4724624757946 103.98955223883968,106.43640979705378 104.81567164172884,106.34877835292718 105.56119402986951,104.5304199954553 106.18582089559641,104.0922596741002 111.70671641791705,104.33324793158681 114.70895522390492,105.58200210321229 117.00597014918458,105.60391002384131 114.5477611940587,105.51627833163366 111.66641791036818,104.37706395724672 106.40746268653311,104.04844360600691 105.58134328352753,104.28943189949496 104.5738805970177,106.45831765397452 97.19925373129081,103.45692604844226 90.12686567148194,99.55726200083154 88.01119402970653,98.85619331695489 84.82761194021441,98.4618414476572" stroke="#4DD2FF" stroke-linecap="round" stroke-linejoin="round" stroke-width="0.5"><title>2024-12-13 8.5km</title><desc>1734064159000</desc></polyline><polyline fill="none" points="149.07302786957007,98.07280417290167 153.5215871516848,98.7162523313018 156.58252243732568,99.67032807608484 162.94926783186384,103.26472552577616 170.07104393013287,106.41533452644944 170.6424185167998,106.4375217955967 171.5606991025852,104.32972384648747 172.13207368925214,104.04128717732965 177.74378837982658,104.32972384648747 180.55984884267673,105.48346772970399 187.59999999997672,105.61659173632506 181.23325460555498,105.57221707401914 177.53972602740396,104.30753642029595 171.98923004267272,104.0190997296595 171.3974492206471,104.2187866991153 170.72404345765244,106.12689987709746 170.23429381207097,106.57064537578844 168.78545111010317,105.7497156834288 162.92886159662157,103.46441300102742 157.0110533774132,100.06970771279885 153.86849315068685,98.98250633498537 156.99064714217093,99.98095672871568 160.74539442616515,102.24409856143757 168.8262635805877,105.7275283630006 170.0098252244061,106.50408359314315 170.60160604631528,106.37095998320729 171.51988663198426,103.95253737678286 170.56079357583076,106.30439815591672 170.0506376948906,106.4375217955967 163.15333018417004,103.50878797730547 155.80708549835254,99.38188689420349 155.09286726498976,99.404074687307 153.2971185640199,98.67187664087396 144.40000000002328,97.42935462421156" stroke="#4DD2FF" stroke-linecap="round" stroke-linejoin="round" stroke-width="0.5"><title>2024-12-11 6.6km</title><desc>1733890893000</desc></polyline><polyline fill="none" points="17.638202247209847,146.28366283414653 22.269662921433337,146.81143462419277 23.280898876371793,147.40517675993033 24.110112359630875,147.3831863317755 31.71460674155969,151.58332838487695 38.51011235953774,154.52998923088307 39.622471910202876,152.24303112982307 40.20898876409046,151.9791502087901 46.01348314608913,152.33099138448597 48.98651685391087,153.49646228339407 55.53932584275026,153.6503920580726 49.229213483282365,153.49646228339407 46.074157303432,152.44094166584546 39.78426966292318,152.17706092167646 38.67191011237446,154.59595891318168 31.573033707914874,151.62730861376622 29.530337078729644,150.24192825652426 24.049438202288,147.51512887622812 23.60449438204523,147.62508095157682 21.86516853934154,146.92138696167967 12.602247191010974,145.60195620849845 20.287640449474566,146.48157736600842 24.049438202288,147.36119590196176 29.348314606701024,149.97804554644972 31.552808988839388,151.45138765897718 38.34831460681744,154.48600943450583 38.77303370786831,154.33208009554073 39.66292134835385,152.37497150190757 40.20898876409046,151.9791502087901 43.74831460672431,152.33099138448597 45.54831460677087,152.17706092167646 49.08764044940472,153.51845225613215 55.59999999997672,153.62840209520073 48.74382022477221,153.47447230902617 45.97303370793816,152.37497150190757 40.16853932593949,152.00114029459655 39.66292134835385,152.19905099272728 38.95505617978051,154.17815067630727 38.57078651688062,154.5079993335239 32.26067415729631,151.86919975539786 28.478651685407385,149.60421130343457 24.00898876413703,147.40517675993033 20.773033707868308,146.5915298263717 12.400000000023283,145.40404108684743 22.734831460751593,146.8993964974652 38.024719101144,154.3760599148518 38.77303370786831,154.2441204371862 39.66292134835385,151.9571601213829 38.813483146135695,154.33208009554073 38.38876404496841,154.4200397276436 31.79550561797805,151.62730861376622 24.069662921479903,147.3392054705182 17.01123595505487,146.15171973916586" stroke="yellow" stroke-linecap="round" stroke-linejoin="round" stroke-width="0.5"><title>2024-12-09 12.1km</title><desc>1733738831000</desc></polyline><polyline fill="none" points="96.376248821849,150.83010784519138 104.49915174359921,154.50453657866456 105.43562676711008,152.37957128550624 106.16852026386186,151.98113860114245 111.42092365690041,152.20249015840818 114.61715362861287,153.4641908860067 121.59999999997672,153.7076763746154 115.288972667302,153.5748661328107 111.76701225258876,152.35743615037063 106.22959472204093,152.06967924386845 105.53741753066424,152.2910307351849 104.53986804909073,154.54880652736756 98.1066918001743,151.8704627607658 89.92271442047786,147.44339533572202 89.18982092360966,147.4655308369547 88.2533459000988,146.84573617952992 82.45127238461282,146.07099103942164 81.71837888786104,145.71682115961448 81.37229029217269,146.00458421910298 78.82752120646182,145.6061429855763 84.85353440151084,146.22594022905105 89.92271442047786,147.35485331437667 95.25655042415019,149.9889671651472 96.76305372291245,151.09573072308558 104.19377945340239,154.50453657866456 104.68237511778716,154.30532172802486 105.53741753066424,152.24676045012893 106.00565504247788,151.89259793210658 107.81753063143697,152.20249015840818 111.72629594721366,152.2246253050689 114.98360037698876,153.48632593869115 121.45749293116387,153.61913621998974 114.82073515560478,153.41992077571922 111.72629594721366,152.26889559344272 106.14816211117432,152.02540892586694 105.3134778511012,152.7337332229945 104.51950989628676,154.54880652736756 96.94627709721681,151.27281250979286 89.9023562676739,147.44339533572202 89.43411875586025,147.5319373306993 86.80791705939919,146.66865175418206 78.40000000002328,145.45119347266154 87.19472196046263,146.66865175418206 89.25089538167231,147.4212598328886 90.02450518379919,147.39912432839628 92.65070688037667,148.83792869144236" stroke="#4DD2FF" stroke-linecap="round" stroke-linejoin="round" stroke-width="0.5"><title>2024-12-06 9.2km</title><desc>1733479157000</desc></polyline><polyline fill="none" points="148.78260869567748,146.10221830234514 154.27601683035027,146.7610078229045 155.44740532967262,147.4856745947327 156.09368863969576,147.3539171323646 163.62692847137805,151.5701267144177 170.21093969151843,154.49069486994995 170.87741935485974,154.2930633512151 171.58429172518663,152.4045777116262 172.35175315581728,152.09714867168805 177.80476858350448,152.3606592969445 180.87461430579424,153.52449507414713 187.60000000009313,153.7440862149233 180.95539971953258,153.52449507414713 177.7643758766353,152.4265369164641 172.25077138852794,152.0751894422574 171.54389901820105,152.51437371957581 170.5340813464718,154.53461296725436 163.08162692852784,151.37249323751894 161.38513323990628,150.2086489633657 156.11388499301393,147.52959373575868 155.52819074341096,147.5735128702363 154.05385694256984,146.87080593314022 144.40000000002328,145.46538703277474 154.05385694256984,146.84884631435852 157.08330995799042,148.12250149910687 156.19467040675227,147.52959373575868 148.80280504911207,146.12417797680246" stroke="#4DD2FF" stroke-linecap="round" stroke-linejoin="round" stroke-width="0.5"><title>2024-12-03 5.6km</title><desc>1733220329000</desc></polyline><polyline fill="none" points="18.039160839281976,194.32115150225582 22.127552447491325,194.75911623242428 23.5172027972294,195.5693492628052 25.289510489441454,195.7883307794982 27.202797202859074,197.03652230920852 29.820979020907544,198.02193293056916 31.492587412591092,199.31391073999112 38.68251748254988,202.4671886683209 39.58881118881982,200.51829171914142 40.313846153905615,200.0365399196744 45.81202797207516,200.34310933799134 49.195524475653656,201.5912815257907 53.928391608409584,201.54748610014212 55.59999999997672,201.67887235750095 55.09650349651929,201.81025855612825 48.99412587413099,201.6350769448909 45.81202797207516,200.43070054164855 40.293706293799914,200.12413121468853 39.68951048958115,200.40880274315714 38.76307692320552,202.4890863134642 38.31999999994878,202.53288159880321 30.86825174826663,199.33580862006056 26.840279720257968,197.03652230920852 21.946293706307188,194.8467091001221 12.400000000023283,193.51091503087082 22.288671328802593,194.80291266954737 25.148531468585134,196.11680274858372 21.90601398597937,194.9124037338188 12.440279720234685,193.4671184012259 18.28083916089963,194.27735499330447" stroke="#4DD2FF" stroke-linecap="round" stroke-linejoin="round" stroke-width="0.5"><title>2024-12-02 6.1km</title><desc>1733112856000</desc></polyline><polyline fill="none" points="78.40000000002328,192.05029989391915 79.68000000005122,192.58381100650877 82.62400000006892,196.52712565942784 82.36800000013318,196.27197151680593 82.92266666679643,196.24877567525255 83.6480000000447,195.36733241693582 86.2933333334513,195.76166260417085 87.27466666663531,196.41114652960096 89.23733333335258,196.80547539467807 91.34933333331719,198.12763323885156 93.90933333337307,199.10185121546965 95.25333333341405,200.28482608875493 102.93333333346527,203.78733318313607 103.55200000014156,203.78733318313607 104.49066666665021,201.63016460000654 105.1093333333265,201.32862371497322 111.01866666669957,201.63016460000654 114.66666666674428,202.92910661225324 121.60000000009313,202.9986926385609 114.70933333341964,202.97549729817547 111.04000000003725,201.67655547944014 105.17333333333954,201.37501463937224 104.53333333344199,201.65336004056735 103.38133333344012,203.94970010610996 96.04266666667536,200.864714090887 91.07200000004377,198.05804612391512 86.10133333341219,195.7848584819585 80.06400000012945,195.06578546616947" stroke="#4DD2FF" stroke-linecap="round" stroke-linejoin="round" stroke-width="0.5"><title>2024-11-29 4.6km</title><desc>1732853630000</desc></polyline><polyline fill="none" points="148.058564593317,196.60662944984506 147.74851674644742,196.78642414402566 149.07138755987398,196.8088984732167 147.93454545468558,196.6740524727502 148.96803827758413,196.7639498130884 148.8440191387199,197.078590293444 150.49760765547398,194.94352344863 154.38354066980537,194.67382971951156 155.62373205740005,195.34806359015056 157.380669856444,195.7076543715957 164.26373205741402,199.64065056023537 171.167464114842,202.62969337037066 172.20095693785697,200.4497177026933 172.8210526315961,200.15755481822998 178.69129186612554,200.4497177026933 181.66775119618978,201.6633143480285 187.59999999997672,201.7307362407737 181.7917703349376,201.61836641121772 178.25722488039173,200.38229552371195 172.73837320576422,200.06765848916257 172.24229665077291,200.35982146067545 171.167464114842,202.6072194747394 163.8503349282546,199.64065056023537 156.28516746417154,195.4154868943151 154.0114832536783,194.71877869110904 144.40000000002328,193.37030662960024 154.21818181825802,194.67382971951156 155.47904306231067,195.325589152053 156.8019138756208,195.5053846097435 162.134736842243,198.33714893311844 154.1561722488841,194.76372765598353 148.96803827758413,194.06701794741093" stroke="#4DD2FF" stroke-linecap="round" stroke-linejoin="round" stroke-width="0.5"><title>2024-11-28 6.3km</title><desc>1732767063000</desc></polyline><polyline fill="none" points="12.68993288592901,240.83790728778695 19.06845637585502,241.91499927974655 20.51812080538366,242.67684284830466 21.194630872574635,242.62430196540663 27.838926174561493,245.8818219016248 30.134228187962435,247.40549025149085 38.54228187922854,251.08328328133211 39.72617449669633,248.53510219199234 40.595973154413514,248.06224182000733 46.99865771806799,248.40375215225504 49.946308724815026,249.6384405940771 52.507382550276816,250.0587590773066 55.59999999997672,249.97994939985801 50.93691275164019,249.9011397048016 47.43355704692658,248.53510219199234 40.83758389262948,248.19359198701568 39.846979865804315,248.58764219417935 38.54228187922854,251.16209271221305 29.385234899353236,247.3004098869569 21.194630872574635,242.62430196540663 20.5906040269183,242.75565415801248 18.512751677888446,241.8361877821444 12.400000000023283,241.02180127549218" stroke="#4DD2FF" stroke-linecap="round" stroke-linejoin="round" stroke-width="0.5"><title>2024-11-25 4.0km</title><desc>1732507947000</desc></polyline><polyline fill="none" points="78.40000000002328,238.61128631889005 87.20642054581549,239.74222713298514 89.59871589089744,241.13705065555405 90.91621187818237,240.98625910878764 93.34317817015108,241.7779142280633 95.87415730347857,243.58740699247574 100.65874799364246,245.66077616307302 104.36853932589293,248.22420266503468 112.75890850729775,251.50386175405583 115.56725521665066,253.20022880431497 116.2953451044159,252.89865285539418 117.85553772072308,249.24203017429681 121.59999999997672,249.16663561417954 117.9942215088522,249.35512199345976 115.98330658115447,253.38871368108084 104.92327447840944,248.7896626451402 90.84686998394318,241.2501442861103 89.91075441427529,241.43863361433614 93.23916532914154,242.07949680485763 94.86869983957149,243.58740699247574 97.74638844304718,244.37905804204638 104.29919743177015,248.29959736551973 114.80449438211508,252.97404685945367 116.2953451044159,253.12483483392862 117.85553772072308,249.20433289575158 116.19133226328995,253.38871368108084 105.09662921354175,248.71426801770576" stroke="#4DD2FF" stroke-linecap="round" stroke-linejoin="round" stroke-width="0.5"><title>2024-11-20 4.0km</title><desc>1732095798000</desc></polyline><polyline fill="none" points="146.9236325013917,241.29790293442784 153.30154009570833,242.22087344733882 154.8386617101496,242.9941711073916 155.89399893791415,243.0939513204794 161.79012214555405,246.01250939903548 163.3501858736854,247.20985920005478 171.74699946900364,250.92660526680993 172.13701540103648,250.87671633108403 173.07764206058346,248.68159579785424 173.76590547012165,248.157758089219 180.14381306432188,248.50698331941385 183.4933616570197,249.8539915094443 187.60000000009313,250.00365875157877 183.42453531594947,249.87893605447607 179.77673924597912,248.48203867216944 173.9035581520293,248.18270276061958 172.93998937867582,248.83126356403227 172.04524694639258,250.97649419520167 163.51078066928312,247.45930653635878 156.9493361657951,243.79241197975352 153.2556558684446,242.32065389095806 144.40000000002328,241.02350580479833" stroke="#4DD2FF" stroke-linecap="round" stroke-linejoin="round" stroke-width="0.5"><title>2024-11-19 4.1km</title><desc>1731989484000</desc></polyline></svg>