<?xml version="1.0" encoding="utf-8" ?>
<svg baseProfile="full" height="300mm" version="1.1" viewBox="0,0,200,300" width="200mm" xmlns="http://www.w3.org/2000/svg" xmlns:ev="http://www.w3.org/2001/xml-events" xmlns:xlink="http://www.w3.org/1999/xlink"><defs /><rect fill="#222222" height="300" width="200" x="0" y="0" /><text fill="#FFFFFF" style="font-size:12px; font-family:Arial; font-weight:bold;" x="10" y="20">Over 4km Runs</text><text fill="#FFFFFF" style="font-size:4px; font-family:Arial" x="10" y="280">ATHLETE</text><text fill="#FFFFFF" style="font-size:9px; font-family:Arial" x="10" y="290">Fake David</text><text fill="#FFFFFF" style="font-size:4px; font-family:Arial" x="65" y="280">SPECIAL TRACKS</text><rect fill="yellow" height="2.6" width="2.6" x="65" y="283" /><text fill="#FFFFFF" style="font-size:3px; font-family:Arial" x="70" y="285.5">Over 10.0 km</text><rect fill="red" height="2.6" width="2.6" x="65" y="287" /><text fill="#FFFFFF" style="font-size:3px; font-family:Arial" x="70" y="289.5">Over 15.0 km</text><text fill="#FFFFFF" style="font-size:4px; font-family:Arial" x="120" y="280">STATISTICS</text><text fill="#FFFFFF" style="font-size:3px; font-family:Arial" x="120" y="285">Number: 25</text><text fill="#FFFFFF" style="font-size:3px; font-family:Arial" x="120" y="290">Weekly: 2.5</text><text fill="#FFFFFF" style="font-size:3px; font-family:Arial" x="141" y="285">Total: 197.6 km</text><text fill="#FFFFFF" style="font-size:3px; font-family:Arial" x="141" y="290">Avg: 7.9 km</text><text fill="#FFFFFF" style="font-size:3px; font-family:Arial" x="167" y="285">Min: 4.0 km</text><text fill="#FFFFFF" style="font-size:3px; font-family:Arial" x="167" y="290">Max: 13.0 km</text><polyline fill="none" points="15.076404494349845,44.90762928091863 15.288764044933487,44.544785120888264 16.214044943801127,45.155022685357835 20.52191011235118,46.012651013516006 22.948876404436305,47.26610182391596 23.889325842668768,48.00827330055472 31.321910112397745,51.43872246345563 31.61011235951446,51.24081337968528 32.24719101120718,49.73999706999166 32.64157303364482,49.47611622756813 36.87359550554538,49.73999706999166 39.194382022426,50.5976076356601 44.18483146058861,50.68007001494698 39.300561797688715,50.5976076356601 36.691573033691384,49.73999706999166 32.762921348330565,49.54208646767074 32.30786516855005,49.70701198192546 31.594943820149638,51.35626036670874 31.397752808989026,51.42223004657717 25.86123595503159,49.04730918777932 20.567415730271023,46.062129469559295 18.823033707914874,45.616822967262124 11.799999999988358,44.62724975495075 18.686516853922512,45.55085155738925 20.127528089855332,46.062129469559295 20.537078651657794,46.012651013516006 26.467977528111078,49.27820538933156 30.07808988756733,50.69656248710817 31.155056179733947,51.389245209109504 31.56460674153641,51.290290667224326 32.21685393259395,49.72350452655519 32.671910112316255,49.49260878942732 36.72191011236282,49.73999706999166 39.16404494375456,50.58111515609198 44.20000000001164,50.647085066942964 39.23988764040405,50.58111515609198 36.85842696623877,49.80596723144117 32.77808988763718,49.509101350122364 32.30786516855005,49.73999706999166 31.443258426967077,51.455214879111736 26.10393258422846,49.16275731865608 20.612921348249074,46.144593538323534 19.869662921351846,46.11160791449947 19.065730337053537,45.64980866480619 13.680898876453284,44.874643472750904" stroke="#4DD2FF" stroke-linecap="round" stroke-linejoin="round" stroke-width="0.5"><title>2025-01-15 9.1km</title><desc>1736916504000</desc></polyline><polyline fill="none" points="50.624615384615026,44.41967914252018 50.83608391607413,44.78100149870443 51.5762237762101,45.224441762664355 55.27692307688994,45.8321177126345 57.285874125838745,46.48906280109077 59.67244755238062,48.04929953966348 67.20979020971572,51.49820472499414 67.54209790210007,51.416088561862125 68.17650349647738,49.937992395978654 68.69006993004587,49.65879534072883 72.85902097896906,49.921569049562095 75.13986013975227,50.824851284734905 80.19999999995343,50.93981421280478 75.07944055943517,50.874121118395124 72.81370629364392,49.97083908508648 68.67496503487928,49.65879534072883 68.17650349647738,49.937992395978654 67.46657342649996,51.514627953933086 66.99832167825662,51.514627953933086 62.04391608381411,49.31390437259688 56.560839160869364,46.25913224283431 56.243636363593396,46.35767394003051 54.32531468529487,45.74999943887815 47.79999999998836,44.83027268317528 53.26797202794114,45.48722075740807 56.5306293705944,46.20986137771979 61.4095104894368,48.90331918318407 67.300419580366,51.58032085746527 67.64783216774231,51.38324208807899 68.35776223771973,49.72448879730655 69.89846153842518,49.75733551825397 68.40307692298666,49.79018223429739 67.42125874123303,51.56389763344487 61.66629370622104,49.21536399688921 56.651468531403225,46.291979480098234 54.884195804130286,45.78284675205941 50.12615384609671,45.125899558872334" stroke="#4DD2FF" stroke-linecap="round" stroke-linejoin="round" stroke-width="0.5"><title>2025-01-14 7.8km</title><desc>1736829619000</desc></polyline><polyline fill="none" points="88.23051162791671,45.27185970834398 87.97432558139553,44.91137871109822 88.5771162789897,44.97692075453233 93.64055813953746,46.599080105588655 96.7599999999511,48.13930114291725 98.14641860465053,49.10603011403873 103.16465116274776,51.39994626202679 103.49618604645366,51.30163606069982 104.17432558134897,49.76143716904335 104.6113488371484,49.499274581394275 108.69525581388734,49.76143716904335 110.65432558138855,50.564308149769204 112.05581395345507,50.74454408955353 116.19999999995343,50.74454408955353 110.94065116276033,50.613463420726475 108.71032558137085,49.76143716904335 104.65655813954072,49.48288940927887 104.21953488368308,49.66312623528938 103.51125581393717,51.30163606069982 103.08930232556304,51.31802109730779 98.0409302324988,49.13880051317392 93.4295813953504,46.615465492519434 91.10883720923448,45.648725573701086 83.79999999998836,44.616439273857395 91.19925581390271,45.68149648800318 93.4295813953504,46.51715315248293 97.46827906969702,48.79471107874997 103.11944186041364,51.35079116682755 103.48111627908656,51.25248094352719 104.08390697668074,49.777822320364066 104.52093023259658,49.499274581394275 108.83088372088969,49.777822320364066 111.09134883718798,50.629848508600844 116.04930232552579,50.76092916770722 110.98586046509445,50.5806932412961 108.72539534879616,49.72866686269117 104.50586046511307,49.48288940927887 104.14418604644015,49.69589655139134 103.43590697675245,51.35079116682755 102.86325581389247,51.30163606069982 102.09469767438713,50.77731424459489 97.82995348831173,49.0732597100432 92.4651162790251,46.041976222913945 90.8526511627133,45.59956919310207 83.86027906974778,44.60005373797321 92.49525581393391,46.02559079324419 97.86009302322054,48.97494846866175 102.13990697672125,50.74454408955353 103.13451162789715,51.38356123154517 103.48111627908656,51.28525102282583 104.14418604644015,49.67951139397337 104.56613953487249,49.48288940927887 108.61990697670262,49.69589655139134 110.71460465108976,50.53153796304832 111.98046511627035,50.662618680726155 110.65432558138855,50.53153796304832 108.57469767436851,49.69589655139134 104.5962790697231,49.433733885671245 104.17432558134897,49.63035591429798 103.49618604645366,51.21971085931 102.9536744185607,51.23609590200067 101.55218604649417,50.46599757488002 97.86009302322054,49.040489301114576 92.45004651154159,46.041976222913945 90.37041860463796,45.5176418676856" stroke="yellow" stroke-linecap="round" stroke-linejoin="round" stroke-width="0.5"><title>2025-01-10 13.0km</title><desc>1736482744000</desc></polyline><polyline fill="none" points="122.90373831772013,44.353696707839845 124.38747663551476,45.357884816097794 126.96130841120612,45.85174614592688 129.4897196261445,46.82300354099425 132.2300934579107,48.4527309336554 139.31570093455957,51.646303292160155 139.64878504670924,51.38291762744484 139.78504672896815,49.93429085992102 139.9818691588007,49.68736489540606 144.7510280373972,50.00013773719547 147.24915887851967,50.92199195882131 152.12429906544276,51.037223466075375 147.03719626169186,50.87260700871411 144.7510280373972,50.01659945344727 140.07271028036484,49.67090315464884 139.7699065420893,50.01659945344727 139.64878504670924,51.44876407303673 139.31570093455957,51.646303292160155 133.89551401865901,49.34166808149894 128.5661682242644,46.36206836038036 126.90074766351609,45.85174614592688 119.79999999998836,44.86402238237497 127.29439252335578,45.88467019532982 128.036261682224,46.29622039894457 128.55102803732734,46.29622039894457 133.98635514016496,49.275821007962804 139.0885981307947,51.58045690537256 139.60336448595626,51.44876407303673 139.75476635515224,49.95075258110592 140.02728971961187,49.703826634940924 144.7510280373972,50.01659945344727 147.37028037378332,50.92199195882131 152.19999999995343,50.98783854175417 146.96149532712298,50.856145356214256 144.73588785040192,49.95075258110592 140.0878504673019,49.703826634940924 139.83046728972113,49.868443963016034 139.81532710278407,51.037223466075375 139.42168224300258,51.62984169727133 133.78953271027422,49.29228277821676 128.59644859808031,46.345606371876784 126.79476635513129,45.85174614592688 119.79999999998836,44.814636078313924 125.09906542050885,45.48958127865626 128.49046728975372,46.263296410863404 133.4715887850616,49.045356096248724 139.11887850466883,51.58045690537256 139.54280373838264,51.46522568135697 139.8758878504741,50.64214376233576 139.54280373838264,51.54753370468097 138.8766355140251,51.44876407303673 133.88037383178016,49.30874454717559 128.5661682242644,46.246834414982004 128.2179439252359,46.329144382092636 127.05214953271206,45.76943600093364 125.12934579444118,45.55542948047514" stroke="yellow" stroke-linecap="round" stroke-linejoin="round" stroke-width="0.5"><title>2025-01-08 12.0km</title><desc>1736310892000</desc></polyline><polyline fill="none" points="159.25357643759344,46.007204310255474 159.7079943898716,45.282535783655476 159.76858345017536,44.57433470097021 160.0563814866473,44.327287277861615 160.38962131837616,44.393166617679526 160.23814866755856,44.508455415139906 161.70743338007014,45.06842871887784 162.4647966339835,45.69427955610445 165.56998597475467,46.78127943040454 170.7200561009813,49.56463353046274 175.35511921456782,51.62330484609993 175.6580645160866,51.32685735812993 175.70350631134352,49.95989991008537 176.127629733528,49.679919630871154 180.76269284711452,50.00930815786705 183.18625525943935,50.931593422516016 188.20000000001164,51.030409472688916 183.15596072934568,50.89865472934616 180.82328190741828,50.04224698354665 176.06704067322426,49.72932794118242 175.74894810654223,50.05871639454563 175.70350631134352,51.32685735812993 175.44600280502345,51.67271272212383 169.76577840116806,49.25171381204564 164.5702664796845,46.33659830970282 163.99467040668242,46.33659830970282 162.9343618513667,45.8260374013189 155.79999999998836,44.92020062945085 163.14642356242985,45.97426488329074" stroke="#4DD2FF" stroke-linecap="round" stroke-linejoin="round" stroke-width="0.5"><title>2025-01-06 5.2km</title><desc>1736137119000</desc></polyline><polyline fill="none" points="15.99383177573327,96.51427516303374 16.069532710243948,95.88871566083981 16.569158878584858,95.14791922287259 16.932523364492226,96.4319648034143 16.41775700933067,96.77766810776666 17.371588785026688,96.72828195455077 20.520747663569637,97.48553509087651 24.790280373825226,99.49388953551534 25.59271028038347,100.20174781682726 31.345981308375485,102.75331117489259 31.69420560746221,102.53931021869357 31.754766355152242,101.15652981340827 32.04242990654893,100.89314208850556 37.02355140191503,101.23883841308998 39.41570093453629,102.14423098585394 44.20000000001164,102.22653921763413 39.21887850470375,102.11130768459407 36.85700934578199,101.18945325700042 32.10299065418076,100.89314208850556 31.815327102842275,101.14006808983686 31.70934579439927,102.53931021869357 31.40654205606552,102.83561917980842 25.971214953286108,100.59683052267064 21.520000000018626,98.07816616985656 19.27925233647693,97.17275693612464 11.799999999988358,96.00395043905883 16.887102803739253,96.62950961498427 20.490467289753724,97.43614909589814 25.062803738343064,99.97128257885925 30.346728971926495,102.27592414196988 31.1642990654218,102.85208077711286 31.679065420583356,102.48992535320576 31.815327102842275,101.05775945336791 32.027289719553664,100.84375685511623 35.38841121492442,101.23883841308998 36.85700934578199,101.15652981340827 39.29457943921443,102.09484603209421 44.18485981307458,102.17715428223892 38.88579439249588,102.01253775128862 36.76616822433425,101.18945325700042 32.14841121499194,100.84375685511623 31.815327102842275,101.09068291164294 31.769906542031094,102.44054047673126 31.43682242988143,102.76977277835249 26.046915887854993,100.58036875739344 21.55028037383454,97.97939443371433 19.68803738319548,97.27152903284878 11.99682242993731,96.0862609581236" stroke="#4DD2FF" stroke-linecap="round" stroke-linejoin="round" stroke-width="0.5"><title>2025-01-03 9.5km</title><desc>1735878536000</desc></polyline><polyline fill="none" points="51.03241217811592,95.8566768024466 52.92936768155778,96.38469661858107 55.099484777543694,96.58270372504194 56.14660421555163,97.11072181016789 56.54117096023401,97.06122016816516 61.04833723657066,99.55278907885076 67.10341920377687,102.3413329643372 67.55868852464482,102.25883216992952 68.18088992976118,100.75731234248087 68.63615925068734,100.4933078041795 72.70323185017332,100.7408120680484 75.11615925066872,101.64832533619483 80.20000000001164,101.79682715331728 75.4955503513338,101.6648255430191 72.88533957843902,100.82331342789985 68.66651053872192,100.57580925617367 68.18088992976118,100.83981369619141 67.37658079632092,102.40733357772115 61.488430913421325,99.93229711528693 56.52599531621672,97.16022344112571 56.13142857153434,97.19322452224151 54.917377049278,96.61570489224687 53.20252927404363,96.53320196502318 47.79999999998836,95.59266642227885 55.03878220147453,96.59920430925558 57.17854800942587,97.60573762163403 55.17536299774656,96.6487060545187 50.728899297479074,95.97218124479696" stroke="#4DD2FF" stroke-linecap="round" stroke-linejoin="round" stroke-width="0.5"><title>2025-01-02 5.6km</title><desc>1735817809000</desc></polyline><polyline fill="none" points="87.53962616826175,95.98748689527565 91.14299065421801,96.58012088845135 92.20280373835703,97.13982931133069 93.21719626168488,97.32091114459035 98.72822429909138,100.34989435262105 103.3762616822496,102.35821902265889 103.7699065420311,101.94667856898741 104.20897196256556,100.84374637364817 104.73887850466417,100.5803587664268 108.62990654207533,100.71205260929128 111.47626168222632,101.74913887900766 116.20000000001164,101.78206217291881 114.35289719625143,101.89729366303072 111.20373831770848,101.69975392890046 108.84186915890314,100.77789950130682 104.75401869165944,100.54743529346888 104.28467289719265,100.72851433414326 103.58822429913562,102.29237260154332 103.33084112155484,102.40760382555891 95.9121495326981,99.14818315743469 92.50560747657437,97.13982931133069 92.02112149540335,97.17275329207769 90.97644859814318,96.6459690118063 83.79999999998836,95.57593457587063 90.43140186916571,96.49781070668541 92.142242990667,97.1069053257088 92.50560747657437,97.0081333394046 97.36560747667681,99.74080867321754 103.33084112155484,102.42406542411481 104.33009345794562,100.67912915594934 104.73887850466417,100.51451181560697 105.88953271025093,100.66266742741573 104.2998130840715,100.6462056976743 103.58822429913562,102.25944938366592 103.31570093455957,102.34175741919898 97.81981308414834,100.02065905871859 92.73271028033923,97.18921528058127 92.05140186916105,97.13982931133069 90.84018691588426,96.59658292113454 89.53813084110152,96.6459690118063 84.25420560745988,95.62532089470187 87.58504672901472,96.2508799773641" stroke="#4DD2FF" stroke-linecap="round" stroke-linejoin="round" stroke-width="0.5"><title>2024-12-31 8.0km</title><desc>1735619151000</desc></polyline><polyline fill="none" points="124.31177570088767,96.2179560665827 125.41700934577966,96.2508801821823 128.58130841125967,96.99167148700508 130.42841121496167,97.97938936325954 130.95831775700208,98.522632313121 139.43682242988143,102.35821877248236 140.23925233643968,100.7943610875518 140.6934579439112,100.54743517820316 144.8872897196561,100.77789936882618 146.97663551400183,101.61744545919646 152.18485981307458,101.74913867416035 147.17345794395078,101.69975372777844 144.857009345782,100.7943610875518 140.70859813090647,100.54743517820316 140.2695327103138,100.74497592772241 139.36112149531255,102.4240651690343 134.24373831774574,100.23466196355002 129.61084112152457,97.6830744639883 126.91588785039494,96.61304513040523 119.79999999998836,95.5759348309657 125.52299065416446,96.31672839872772 128.5358878505067,97.00813348780503 134.24373831774574,100.10296784601815 139.22485981305363,102.40760357172985 139.60336448595626,102.25944914083811 140.23925233643968,100.77789936882618 140.75401869160123,100.49804996320745 144.79644859815016,100.74497592772241 147.24915887851967,101.65036877030798 152.19999999995343,101.66683042401564 147.43084112153156,101.6832920765155 144.7813084111549,100.77789936882618 140.67831775697414,100.51451170274231 140.23925233643968,100.74497592772241 139.57308411214035,102.24298753126641 139.33084112149663,102.35821877248236 133.85009345790604,100.05358253169106 128.65700934577035,97.13982944989402 126.38598130841274,96.58012106873502 120.04224299063208,95.65824535003048 126.7190654205624,96.56365903605183 128.11196261679288,97.12336745893117 128.70242990652332,97.05751948278339 133.51700934575638,99.72434682081803 128.62672897195444,97.09044347330928 124.0543925233651,96.23441812496458" stroke="yellow" stroke-linecap="round" stroke-linejoin="round" stroke-width="0.5"><title>2024-12-30 10.8km</title><desc>1735533491000</desc></polyline><polyline fill="none" points="160.34869402984623,96.15742084044905 163.31063432834344,96.65036086065811 164.14179104473442,97.1268684995157 164.56492537318263,97.07757465359464 165.42630597017705,97.4390626011882 169.12873134331312,99.54225345337181 175.14328358205967,102.30266101052985 175.5815298507223,102.31909190447186 176.21623134322,100.75815151560528 176.7149253731477,100.47882417547225 180.68936567159835,100.74172050537891 183.06194029841572,101.661855192433 188.19999999995343,101.74400988855632 183.2583955223672,101.661855192433 180.84048507461557,100.77458252462384 176.6544776118826,100.51168623386184 176.24645522388164,100.75815151560528 175.71753731340868,102.0890592780197 175.3095149252913,102.38481546794355 169.65764925372787,100.00232377873908 165.63787313434295,97.7019625545945 163.34085820894688,96.76538004017493 155.79999999998836,95.58232275763294 163.08395522384671,96.63392954440496 165.98544776113704,97.7019625545945 169.0380597015028,99.54225345337181 175.26417910441523,102.41767724235251 175.56641791039146,102.33552279716241 176.26156716415426,100.77458252462384 176.68470149248606,100.57741033589991 180.81026119401213,100.80744453893567 183.07705223880475,101.67828613409074 188.15466417907737,101.72757895174436 186.61324626865098,101.85902641167922 183.15261194022605,101.67828613409074 180.7951492537395,100.74172050537891 176.69981343281688,100.51168623386184 176.27667910448508,100.69242746738018 175.5815298507223,102.28623011535092 175.12817164178705,102.35195368867426 170.23190298501868,100.215927532161 168.6300373133854,99.2300623288902 163.31063432834344,96.69965480209794 156.57070895517245,95.74663664861873" stroke="#4DD2FF" stroke-linecap="round" stroke-linejoin="round" stroke-width="0.5"><title>2024-12-27 9.1km</title><desc>1735273142000</desc></polyline><polyline fill="none" points="37.85626168217277,151.9507474869315 36.6753271027701,151.6215131986537 35.41869158874033,151.7696686890995 32.466355140146334,151.489819346054 31.42168224300258,153.36644933687057 25.925794392474927,151.1276608465123 20.47532710270025,148.13159958332835 20.036261682223994,148.1809855378524 18.855327102763113,147.6542014538427 11.799999999988358,146.53478110507422 16.735700934543274,147.32496076355164 17.220186915888917,147.24265051430848 20.68728971958626,148.11513759603258 24.5480373831233,150.05764363033813 25.12336448597489,150.5844219842984 31.088598130794708,153.31706454129016 31.52766355132917,153.2841413381102 32.13327102793846,151.7696686890995 32.617757009284105,151.4733576089202 36.79644859803375,151.7367452553881 39.355140186846256,152.69152284199663 44.20000000001164,152.82321597848204 38.85551401862176,152.59275293814426 36.97813084104564,151.78613040411437 32.602616822347045,151.489819346054 32.28467289719265,151.58858974286704 31.60336448601447,153.33352614101022 31.300560747622512,153.46521889491123 29.99850467289798,152.69152284199663 25.744112149463035,151.01242847218236 20.762990654213354,148.098675607529 17.341308411152568,147.32496076355164 13.753084112075157,146.84756089113944" stroke="#4DD2FF" stroke-linecap="round" stroke-linejoin="round" stroke-width="0.5"><title>2024-12-25 6.6km</title><desc>1735101299000</desc></polyline><polyline fill="none" points="51.16426566883456,146.8198937609559 51.04303086991422,147.11648839032569 51.24003741808701,147.0505785070709 51.52797006547917,146.57273126590007 52.45238540688297,147.2153531783988 53.48288119735662,147.26478555584617 56.650140318030026,148.07217949033657 62.25724976614583,151.136954126021 67.40972871845588,153.36136073150556 67.62188961647917,153.34488372779742 68.25837231054902,151.77956277655903 68.72815715626348,151.53240582425497 72.7895229185815,151.76308565499494 75.4112254443462,152.75171077615232 80.20000000001164,152.8340960034693 75.18391019647243,152.70227962505305 72.63797942007659,151.7466085322376 68.59176800755085,151.54888296296122 68.25837231054902,151.7136542829394 67.57642656686949,153.26249869071762 67.30364826938603,153.31192971664132 61.71169317123713,151.00513673613023 57.513938260031864,148.56650085252477 55.134705332049634,147.61081188870594 47.79999999998836,146.58920877418132 50.28531337692402,146.9681911253574 51.467352666018996,146.93523616407765 55.63479887746507,147.759108722792 57.529092609882355,148.5005914014182 62.727034611743875,151.36763436924957 67.1672591206734,153.34488372779742 67.63704396632966,153.29545270925155 68.39476145931985,151.61479150569357 69.94050514500123,151.61479150569357 68.44022450887132,151.5653601005033 67.561272217019,153.42726873411448 62.10570626752451,151.1699084612046 59.16576239472488,149.43979922565632 55.28624883067096,147.72615387935366 47.84546304953983,146.6056862812111 54.073900841875,147.49546983791515" stroke="#4DD2FF" stroke-linecap="round" stroke-linejoin="round" stroke-width="0.5"><title>2024-12-18 8.3km</title><desc>1734495982000</desc></polyline><polyline fill="none" points="87.21529850747902,145.4731980173383 86.65615671634441,145.60465051112988 86.8526119402377,145.44033488159766 86.65615671634441,145.57178739501978 86.53526119393064,145.39104016884812 86.59570895519573,145.55535583512392 87.81977611937327,146.40979532606434 90.49458955222508,147.59285992490186 91.12929104478098,148.59517357707955 91.83955223875819,149.153838225684 92.6253731342731,149.2688572423649 98.17145522381179,152.25933062139666 103.18861940299394,154.51037449324213 103.55130597006064,154.52680538593268 104.26156716415426,152.94943410437554 104.69981343281688,152.7029688226321 108.90093283576425,152.9658651133941 111.54552238807082,153.88599966334004 116.19999999995343,153.9681543471961 111.13749999995343,153.88599966334004 108.90093283576425,152.98229612114665 104.62425373139558,152.71939984995697 104.18600746267475,152.9658651133941 103.43041044770507,154.59252894451492 96.01044776116032,151.48706940164266 95.49664179095998,150.97770413840772 93.63787313434295,149.9261076154944 91.40130597009556,149.03881914900558 83.79999999998836,147.80646813438216 91.02350746263983,148.75948685590993 92.29291044775164,149.31815108828596 92.56492537312442,149.23599467227177 98.23190298507689,152.32505485565343 102.13078358204802,153.86956872287556 103.20373134326655,154.52680538593268 103.61175373132573,154.42822001130844 104.367350746179,152.85084802472556 105.93899253732525,152.80155496842053 104.45802238798933,152.900141070073 103.67220149253262,154.60895983113733 102.99216417904245,154.5596671677049 97.86921641783556,152.35791696546949 96.46380597015377,151.43777604048955 91.3559701492195,148.9566626289452 83.92089552234393,147.92148785377503 91.12929104478098,148.7923494969873" stroke="#4DD2FF" stroke-linecap="round" stroke-linejoin="round" stroke-width="0.5"><title>2024-12-17 8.6km</title><desc>1734409492000</desc></polyline><polyline fill="none" points="123.79514245683094,147.02180453740584 127.03362914529862,147.5318896490935 128.2140121438424,148.09133648140414 128.60747314343462,147.97615636709088 134.22185894445283,151.06954429463076 139.3217188230483,153.2743794566777 139.5941148995771,153.24147163100133 140.29023820644943,151.61252813102328 140.6685660906369,151.3986255669588 145.05716954695527,151.7112523214746 147.25147127517266,152.55040615881444 152.20000000001164,152.63267597128288 151.71574030822376,152.7972155042662 147.2363381597097,152.63267597128288 144.64857543201651,151.67834426289483 140.75936478283256,151.5138038964069 140.16917328356067,151.87579254087177 139.51844932278618,153.2743794566777 139.2611863615457,153.35664899947005 134.675852405373,151.4150796176691 128.51667445118073,148.12424507446121 127.7146193368244,148.02551928056346 126.86716487625381,147.5318896490935 119.79999999998836,146.5610814883985 126.97309668385424,147.51543530904746 127.98701541335322,148.05842788347218 128.57720691274153,148.00906497730466 134.176459598355,151.05309021816356 139.21578701544786,153.25792554445798 139.63951424567495,153.22501771627867 140.1540401680977,151.8264304879267 140.6685660906369,151.4315336672007 145.1025688931113,151.7112523214746 147.20607192901662,152.55040615881444 152.10920130781597,152.68203784400248 147.47846800560364,152.63267597128288 144.83017281646607,151.67834426289483 140.65343297529034,151.4808958083886 140.2751050911029,151.66189023178595 139.4881830920349,153.35664899947005 134.07052779075457,151.13536058830505 128.53180756658548,148.12424507446121 127.18496029893868,147.64706999513146 119.98159738443792,146.59399030951317 126.94283045304473,147.5318896490935 128.00214852875797,148.05842788347218 128.65287248953246,148.07488218304934 134.81205044372473,151.3492634073482 139.21578701544786,153.30728727746464 139.63951424567495,153.24147163100133 140.1540401680977,151.56316601924482 141.90948155074148,151.5960740949813 140.30537132185418,151.62898216579924 139.54871555347927,153.4389185116015 134.02512844465673,151.1189065167273 128.59234002802987,148.1077907785657 128.1080803363002,148.12424507446121 126.91256422229344,147.54834398790263 119.98159738443792,146.6598079369578 126.80663241475122,147.51543530904746" stroke="yellow" stroke-linecap="round" stroke-linejoin="round" stroke-width="0.5"><title>2024-12-15 13.0km</title><desc>1734235831000</desc></polyline><polyline fill="none" points="159.0037313431967,146.6891265502054 159.0037313431967,146.86987174276146 160.36380597006064,147.28065572035848 162.19235074619064,147.65857630396204 163.1444029850536,147.59285103158618 164.0662313432549,148.1186526620586 164.59514925366966,148.13508394281962 170.85149253730197,151.47060858775512 175.33973880595295,153.37660002225311 175.62686567159835,153.36016913199273 176.2313432835508,151.89781499659875 176.68470149248606,151.60205680166837 180.8555970149464,151.81565998225415 183.25839552242542,152.73579439506284 188.20000000001164,152.83437999736634 183.16772388061509,152.73579439506284 180.97649253730197,151.83209098754742 176.60914179112297,151.53633270450518 176.18600746267475,151.73350493727776 175.46063432836672,153.40946179906314 170.18656716414262,151.25700507302827 165.27518656710163,148.51300306223857 163.03861940297065,147.6421449877089 155.79999999998836,146.59053820093686 159.6384328356944,146.98489133361727 163.03861940297065,147.54355706447677 164.56492537306622,148.0364962399617 169.20429104473442,150.56689999629452 173.84365671640262,152.60434685683867 174.99216417910066,153.32730734779034 175.61175373132573,153.26158376470266 176.17089552234393,151.89781499659875 176.6393656716682,151.56919475557515 180.78003731340868,151.74993594869738 183.0317164179287,152.68650157740922 184.75447761191754,152.70293251788826 182.91082089551492,152.6372087487398 180.74981343280524,151.78279796794232 176.80559701495804,151.53633270450518 176.18600746267475,151.71707392460667 175.43041044776328,153.3437382404809 169.899440298439,151.0926945363317 164.59514925366966,148.16794650063093 163.008395522309,147.6421449877089 160.6207089551608,147.34638108575018" stroke="#4DD2FF" stroke-linecap="round" stroke-linejoin="round" stroke-width="0.5"><title>2024-12-13 8.5km</title><desc>1734064159000</desc></polyline><polyline fill="none" points="15.304770902148448,198.05460312968353 18.641190363676287,198.53718924846908 20.936891828023363,199.25274605705636 25.711950873897877,201.9485441443394 31.05328294757055,204.31150089485163 31.481813887541648,204.3281413467048 32.1705243269098,202.74729288485833 32.599055266880896,202.5309653830045 36.80784128484083,202.74729288485833 38.91988663200755,203.612600797278 44.20000000001164,203.7124438022438 39.424940954195336,203.67916280552163 36.654794520523865,202.73065231522196 32.491922531917226,202.51432479724463 32.04808691539802,202.66409002435103 31.543032593268435,204.09517490783765 31.175720359024126,204.4279840318486 30.089088332548272,203.81228676257888 25.696646197407972,202.09830975077057 21.25829003303079,199.55228078461369 18.901369863015134,198.73687975123175 21.242985356599092,199.4857175465295 24.059045819565654,201.1830739210709 30.119697685411666,203.79564627225045 31.00736891827546,204.37806269485736 31.451204534678254,204.27821998740546 32.1399149739882,202.4644030326017 31.420595181873068,204.22829861693026 31.037978271138854,204.3281413467048 25.86499763809843,202.13159098298638 20.355314123793505,199.03641517064534 19.819650448742323,199.05305601548753 18.47283892298583,198.50390748065547 11.799999999988358,197.5720159681514" stroke="#4DD2FF" stroke-linecap="round" stroke-linejoin="round" stroke-width="0.5"><title>2024-12-11 6.6km</title><desc>1733890893000</desc></polyline><polyline fill="none" points="51.72865168534918,198.21274712559534 55.2022471910459,198.60857596813003 55.96067415724974,199.05388256994775 56.58258426969405,199.03738974880252 62.28595505619887,202.18749628865044 67.38258426968241,204.39749192314048 68.21685393259395,202.6822733473673 68.65674157300964,202.4843626565853 73.01011235959595,202.7482435383572 75.23988764040405,203.62234671252372 80.1544943820918,203.7377940435399 75.42191011243267,203.62234671252372 73.055617977574,202.8307062493841 68.33820224722149,202.63279569125734 67.50393258425174,204.44696918487898 62.179775280936155,202.2204814603174 60.647752808989026,201.18144619237864 56.537078651716,199.13634665714926 56.20337078656303,199.2188107136608 54.898876404506154,198.69104022123793 47.95168539322913,197.70146715636656 53.71573033707682,198.36118302449177 56.537078651716,199.02089692646405 60.51123595505487,200.9835341598373 62.16460674162954,202.08854074421106 67.26123595505487,204.36450707586482 67.57977528090123,204.249060071641 68.24719101120718,202.7812286264234 68.65674157300964,202.4843626565853 71.31123595504323,202.7482435383572 72.66123595507815,202.63279569125734 75.31573033705354,203.63883919209184 80.20000000001164,203.72130157139327 75.05786516855005,203.6058542317478 72.97977528098272,202.7812286264234 68.62640449439641,202.50085522094741 68.24719101120718,202.64928824454546 67.71629213477718,204.13361300723045 67.42808988766046,204.38099950013566 62.695505618001334,202.40189981654112 59.85898876405554,200.7031584775541 56.50674157310277,199.05388256994775 54.07977528090123,198.44364736975695 47.79999999998836,197.55303081512102 55.551123595563695,198.6745473730989 67.018539325858,204.28204493611702 67.57977528090123,204.1830903278751 68.24719101120718,202.46787009101536 67.61011235957267,204.249060071641 67.2915730336681,204.3150297957327 62.34662921348354,202.2204814603174 56.55224719108082,199.0044041028741 51.25842696626205,198.11378980436712" stroke="yellow" stroke-linecap="round" stroke-linejoin="round" stroke-width="0.5"><title>2024-12-09 12.1km</title><desc>1733738831000</desc></polyline><polyline fill="none" points="97.28218661644496,201.62258088386443 103.37436380772851,204.37840243398387 104.07672007539077,202.78467846411513 104.6263901978964,202.48585395085684 108.5656927426462,202.6518676187843 110.96286522148876,203.59814316449047 116.20000000001164,203.78075728093972 111.4667295004474,203.68114959960803 108.82525918941246,202.76807711276342 104.67219604150159,202.5522594328795 104.15306314796908,202.71827305137413 103.40490103681805,204.4116048955184 98.58001885015983,202.40284707055253 92.44203581532929,199.08254650178424 91.89236569270724,199.09914812771603 91.1900094251032,198.6343021346256 86.83845428843051,198.05324327955896 86.28878416592488,197.7876158697036 86.02921771915862,198.00343816431996 84.12064090487547,197.70460723918222 88.64015080116224,198.169455171781 92.44203581532929,199.01613998576067 96.44241281814175,200.99172537383856 97.57229029224254,201.8217980423069 103.14533459005179,204.37840243398387 103.51178133831127,204.22899129601137 104.15306314796908,202.6850703375676 104.50424128182931,202.41944844907266 105.86314797354862,202.6518676187843 108.79472196043935,202.6684689787944 111.23770028277067,203.61474445399654 116.0931196983438,203.71435216498503 111.11555136664538,203.56494058178214 108.79472196043935,202.70167169507477 104.61112158338074,202.51905669437838 103.9851083882968,203.0502999172313 103.38963242224418,204.4116048955184 97.7097078228835,201.9546093823301 92.42676720075542,199.08254650178424 92.0755890669534,199.14895299800264 90.10593779449118,198.50148881562927 83.79999999998836,197.5883951044816 90.39604147040518,198.50148881562927 91.93817153625423,199.06594487464463 92.5183788878494,199.04934324628266 94.48803016031161,200.1284465185745" stroke="#4DD2FF" stroke-linecap="round" stroke-linejoin="round" stroke-width="0.5"><title>2024-12-06 9.2km</title><desc>1733479157000</desc></polyline><polyline fill="none" points="123.0869565216708,198.07666372675158 127.20701262261719,198.5707558671711 128.08555399713805,199.1142559460568 128.5702664796845,199.0154378492589 134.22019635338802,202.17759503581328 139.1582047685515,204.36802115246246 139.6580645160866,204.21979751340405 140.18821879377356,202.80343328372692 140.76381486677565,202.57286150376603 144.85357643757015,202.7704944727011 147.15596072922926,203.64337130561762 152.19999999995343,203.80806466119247 147.21654978959123,203.64337130561762 144.82328190736007,202.81990268734808 140.68807854130864,202.55639208169305 140.15792426362168,202.88578028968186 139.40056100982474,204.4009597254335 133.81122019630857,202.02936992814648 132.5388499298715,201.15648672250973 128.58541374467313,199.147195301819 128.1461430574418,199.18013465267722 127.04039270681096,198.65310444985516 119.79999999998836,197.5990402745665 127.04039270681096,198.6366347357689 129.3124824683764,199.59187612433743 128.6460028050351,199.147195301819 123.10210378671763,198.0931334825873" stroke="#4DD2FF" stroke-linecap="round" stroke-linejoin="round" stroke-width="0.5"><title>2024-12-03 5.6km</title><desc>1733220329000</desc></polyline><polyline fill="none" points="160.02937062940327,198.24086362666276 163.0956643355894,198.56933717431093 164.13790209789295,199.1770119470748 165.4671328670811,199.34124808460183 166.9020979020861,200.27739173188456 168.86573426570976,201.01644969791232 170.11944055941422,201.9854330549715 175.5118881118833,204.3503915012261 176.19160839158576,202.8887187893415 176.7353846154292,202.5274049397558 180.85902097908547,202.75733200347167 183.39664335671114,203.69346114431391 186.9462937063654,203.66061457509932 188.20000000001164,203.75915426811844 187.82237762241857,203.85769391707436 183.24559440556914,203.72630770865362 180.85902097908547,202.82302540622186 176.72027972032083,202.5930984109873 176.26713286712766,202.80660205734603 175.57230769237503,204.36681473506906 175.2399999999907,204.3996611991024 169.65118881117087,202.0018564650236 166.63020979019348,200.27739173188456 162.9597202797304,198.63503182507702 155.79999999998836,197.63318627314584 163.21650349657284,198.60218450214597 165.36139860143885,199.58760206142324 162.92951048945542,198.684302800335 155.8302097901469,197.6003388008976 160.21062937064562,198.20801624497108" stroke="#4DD2FF" stroke-linecap="round" stroke-linejoin="round" stroke-width="0.5"><title>2024-12-02 6.1km</title><desc>1733112856000</desc></polyline><polyline fill="none" points="11.799999999988358,247.53772492041753 12.760000000009313,247.93785825486702 14.968000000051688,250.8953442445636 14.776000000012573,250.70397863758262 15.192000000039116,250.68658175642486 15.736000000033528,250.02549931270187 17.720000000030268,250.3212469531136 18.45599999994738,250.80835989718616 19.928000000014435,251.10410654598672 21.511999999987893,252.09572492913867 23.431999999971595,252.8263884115877 24.44000000000233,253.7136195665662 30.20000000001164,256.3404998873448 30.664000000047963,256.3404998873448 31.367999999958556,254.72262344999763 31.831999999994878,254.49646778621536 36.26400000002468,254.72262344999763 39.0,255.6968299591681 44.20000000001164,255.7490194789134 39.03200000000652,255.7316229736316 36.27999999996973,254.75741660957283 31.880000000004657,254.5312609795219 31.399999999965075,254.74002003041096 30.536000000021886,256.46227507958247 25.03200000000652,254.14853556816524 21.304000000003725,252.04353459292906 17.57600000000093,250.33864386145433 13.048000000009779,249.79933909961255" stroke="#4DD2FF" stroke-linecap="round" stroke-linejoin="round" stroke-width="0.5"><title>2024-11-29 4.6km</title><desc>1732853630000</desc></polyline><polyline fill="none" points="50.54392344498774,250.95497208739107 50.31138755986467,251.08981810802652 51.30354066990549,251.10667385491251 50.45090909098508,251.00553935456264 51.226028708100785,251.0729623598163 51.133014354039915,251.30894272007572 52.37320574163459,249.70764258646523 55.28765550238313,249.50537228964095 56.217799043050036,250.0110476926202 57.535502392333,250.28074077870406 62.69779904303141,253.2304879201838 67.8755980861024,255.472270027778 68.65071770339273,253.83728827703453 69.11578947363887,253.6181661136652 73.51846889953595,253.83728827703453 75.75081339711323,254.74748576103593 80.20000000001164,254.798052180573 75.8438277511741,254.71377480840601 73.1929186602938,253.7867216427985 69.05377990432316,253.55074386687193 68.68172248802148,253.7698660955066 67.8755980861024,255.45541460605455 62.387751196161844,253.2304879201838 56.71387559809955,250.06161517073633 55.00861244020052,249.5390840183245 47.79999999998836,248.52772997220745 55.163636363635305,249.50537228964095 56.10928229667479,249.9941918640543 57.1014354066574,250.12903845732217 61.10105263162404,252.2528616998461 55.11712918657577,249.5727957420022 51.226028708100785,249.05026346055092" stroke="#4DD2FF" stroke-linecap="round" stroke-linejoin="round" stroke-width="0.5"><title>2024-11-28 6.3km</title><desc>1732767063000</desc></polyline><polyline fill="none" points="84.01744966453407,248.1284304658475 88.80134228197858,248.9362494598172 89.88859060406685,249.5076321362285 90.39597315434366,249.46822647405497 95.37919463089202,251.91136642622587 97.10067114094272,253.05411768861813 103.40671140945051,255.8124624609918 104.29463087255135,253.90132664400153 104.94697986578103,253.54668136501277 109.7489932886092,253.80281411419855 111.95973154366948,254.72883044557238 113.88053691270761,255.04406930798723 116.20000000006985,254.98496204988624 112.70268456370104,254.92585477861576 110.07516778528225,253.90132664400153 105.12818791950122,253.6451939902763 104.38523489935324,253.94073164563451 103.40671140945051,255.8715695341525 96.53892617451493,252.9753074152104 90.39597315434366,249.46822647405497 89.94295302021783,249.56674061850936 88.38456375838723,248.87714083661558 83.80000000004657,248.26635095661914" stroke="#4DD2FF" stroke-linecap="round" stroke-linejoin="round" stroke-width="0.5"><title>2024-11-25 4.0km</title><desc>1732507947000</desc></polyline><polyline fill="none" points="119.80000000004657,246.45846473917481 126.40481540933251,247.30667034976068 128.1990369182313,248.35278799166554 129.18715890869498,248.239694331598 131.00738362770062,248.83343567105476 132.90561797760893,250.19055524436408 136.49406099529006,251.7455821222975 139.2764044945361,253.668151998776 145.5691813804442,256.1278963155346 147.6754414126044,257.4001716032508 148.22150882834103,257.17398964156746 149.39165329060052,254.43152263073716 152.20000000006985,254.3749767106492 149.49566613172647,254.51634149509482 147.98747993586585,257.5415352608252 139.6924558589235,254.0922469838697 129.1351524880156,248.43760821459 128.43306581070647,248.5789752107521 130.92937399691436,249.05962260364322 132.15152487973683,250.19055524436408 134.3097913323436,250.7842935315275 139.22439807385672,253.72469802416163 147.10337078664452,257.2305351445975 148.22150882834103,257.34362612545374 149.39165329060052,254.40324967182823 148.14349919755477,257.5415352608252 139.8224719101563,254.0357010132866" stroke="#4DD2FF" stroke-linecap="round" stroke-linejoin="round" stroke-width="0.5"><title>2024-11-20 4.0km</title><desc>1732095798000</desc></polyline><polyline fill="none" points="157.69272437598556,248.47342720082088 162.47615507169394,249.1656550855114 163.6289962825249,249.74562833053642 164.4204992033774,249.82046349035227 168.84259160910733,252.0093820492766 170.01263940520585,252.90739440004108 176.31024960172363,255.69495395010745 176.60276155074826,255.6575372483203 177.30823154537939,254.0111968483834 177.82442910247482,253.61831856692152 182.6078597981832,253.88023748954583 185.12002124270657,254.89049363207596 188.20000000001164,255.00274406369135 185.0684014869621,254.9092020408425 182.33255443436792,253.8615290041198 177.92766861390555,253.63702707046468 177.20499203394866,254.12344767303148 176.53393520973623,255.73237064640853 170.13308550190413,253.09447990225453 165.2120021242299,250.34430898481514 162.44174190127524,249.2404904182331 155.79999999998836,248.26762935359147" stroke="#4DD2FF" stroke-linecap="round" stroke-linejoin="round" stroke-width="0.5"><title>2024-11-19 4.1km</title><desc>1731989484000</desc></polyline></svg>