<?xml version="1.0" encoding="utf-8" ?>
<svg baseProfile="full" height="300mm" version="1.1" viewBox="0,0,200,300" width="200mm" xmlns="http://www.w3.org/2000/svg" xmlns:ev="http://www.w3.org/2001/xml-events" xmlns:xlink="http://www.w3.org/1999/xlink"><defs /><rect fill="#222222" height="300" width="200" x="0" y="0" /><text fill="#FFFFFF" style="font-size:12px; font-family:Arial; font-weight:bold;" x="10" y="20">Over 4km Runs</text><text fill="#FFFFFF" style="font-size:4px; font-family:Arial" x="10" y="280">ATHLETE</text><text fill="#FFFFFF" style="font-size:9px; font-family:Arial" x="10" y="290">Fake David</text><text fill="#FFFFFF" style="font-size:4px; font-family:Arial" x="65" y="280">SPECIAL TRACKS</text><rect fill="yellow" height="2.6" width="2.6" x="65" y="283" /><text fill="#FFFFFF" style="font-size:3px; font-family:Arial" x="70" y="285.5">Over 10.0 km</text><rect fill="red" height="2.6" width="2.6" x="65" y="287" /><text fill="#FFFFFF" style="font-size:3px; font-family:Arial" x="70" y="289.5">Over 15.0 km</text><text fill="#FFFFFF" style="font-size:4px; font-family:Arial" x="120" y="280">STATISTICS</text><text fill="#FFFFFF" style="font-size:3px; font-family:Arial" x="120" y="285">Number: 41</text><text fill="#FFFFFF" style="font-size:3px; font-family:Arial" x="120" y="290">Weekly: 2.6</text><text fill="#FFFFFF" style="font-size:3px; font-family:Arial" x="141" y="285">Total: 334.6 km</text><text fill="#FFFFFF" style="font-size:3px; font-family:Arial" x="141" y="290">Avg: 8.2 km</text><text fill="#FFFFFF" style="font-size:3px; font-family:Arial" x="167" y="285">Min: 4.0 km</text><text fill="#FFFFFF" style="font-size:3px; font-family:Arial" x="167" y="290">Max: 13.0 km</text><polyline fill="none" points="12.976858345034998,42.268802478691214 12.913744740537368,42.4335003005981 12.774894810689148,42.255077653579065 12.88849929877324,42.46094992324652 11.752454417932313,42.268802478691214 16.044179523189086,42.77662028992199 18.795932678855024,43.407959400414256 23.50420757365646,45.974467855572584 27.75806451612152,47.86844581870537 28.073632538551465,47.63513074438379 28.174614305782598,46.45482642829302 28.427068723656703,46.20778503306792 32.25175315566594,46.44110191502841 34.41023842908908,47.237121994417976 38.462131837324705,47.30574425404484 34.35974754556082,47.20967308344552 32.56732117809588,46.48227545173722 28.56591865356313,46.20778503306792 28.199859747546725,46.42737740071607 28.061009817698505,47.69002843549242 27.669705469859764,47.77237494153087 22.77208976156544,45.617629247921286 18.83380084147211,43.394234660154325 15.791725105198566,42.707996343189734 11.5,42.15900384896668 15.816970546962693,42.65309716742195 18.808555399707984,43.325610943487845 23.453716690069996,45.89212054594827 27.669705469859764,47.75865052641893 28.086255259462632,47.525335312995594 28.187237026635557,46.41365288539964 28.389200561039615,46.20778503306792 32.403225806425326,46.42737740071607 34.44810659188079,47.195948626394966 38.5,47.30574425404484 34.23352033662377,47.15477524916059 32.39060308551416,46.42737740071607 28.414446002803743,46.180335968674626 28.187237026635557,46.52344897927833 28.023141654965002,47.67630401423958 27.75806451612152,47.74492611025926 23.239130434812978,45.85094687729725 18.859046283352654,43.407959400414256 17.331697054731194,42.95504243180039 11.5,42.13155418129463 15.438288920093328,42.68054675732856" stroke="yellow" stroke-linecap="round" stroke-linejoin="round" stroke-width="0.5"><title>2025-03-15 10.0km</title><desc>1742012101000</desc></polyline><polyline fill="none" points="43.204192180885,42.566268054404645 41.5,42.16524877489428 45.315355628787074,42.59392452449538 48.69830428640125,43.28533493747818 53.56924163916847,45.954154972787364 57.766132830874994,47.793267689747154 58.08407913328847,47.39225970339612 58.14766839373624,46.28602628421504 58.41474328777986,46.13391867344035 62.52260951482458,46.45196171737916 64.48115873767529,47.22632511079428 68.5,47.253980886540376 64.60833725857083,47.253980886540376 62.4590202543186,46.47961760846374 58.47833254822763,46.23071444015659 58.185821950028185,46.5211014374072 57.995054168626666,47.71030059126497 57.689825718291104,47.83475122510572 53.28944889304694,45.94032698860974 51.48351389542222,44.77877263932896 48.7364578426932,43.40978853829438 48.44394724443555,43.46510122297332 47.32477626000764,42.967286467406666 45.671455487492494,42.88431721167581 41.89425341493916,42.23439009177673 43.90367404615972,42.46947037661448 46.53626943001291,42.88431721167581 47.59185115399305,42.981114673108095 49.054404145048466,43.47892939156736 53.23857748467708,45.78821909458202 56.697833254758734,47.253980886540376 57.42275082424749,47.73795629487722 57.94418276025681,47.71030059126497 58.21125765424222,46.797660060052294 58.03320772497682,47.68264488350542 57.689825718291104,47.76561199440039 53.353038153552916,45.91267101716949 48.74917569477111,43.35447583712812 48.15143664623611,43.3268194803677" stroke="#4DD2FF" stroke-linecap="round" stroke-linejoin="round" stroke-width="0.5"><title>2025-03-12 7.1km</title><desc>1741778255000</desc></polyline><polyline fill="none" points="73.57109448080882,42.439165039686486 77.24602432182292,42.8922950651322 78.38260056125,43.38661745861464 79.7843779232935,43.64750929840375 83.92656688491115,46.10536692352616 87.76566884940257,47.78053601975262 88.06875584658701,47.5608425794926 88.14452759589767,46.43490958800248 88.39710009354167,46.174021693863324 92.43826005619485,46.379985851512174 94.01683816657169,46.99787694346742 95.22918615530943,47.19010930520017 98.5,47.231301928070025 94.40832553792279,47.2450328002742 92.43826005619485,46.46237145010673 88.52338634239277,46.20148359486484 88.23292797006434,46.39371678714815 88.043498596875,47.643227650245535 87.61412535083946,47.75307435407012 82.76473339571385,45.63851380687265 78.78671655751532,43.37288629892282 78.45837231056066,43.482735547819175 77.27128157153493,42.96095103240805 71.5,42.178271489348845 76.77876520116115,42.837370272914995 78.55940130958334,43.38661745861464 78.78671655751532,43.30423048509692 83.45930776424939,45.830747586340294 87.72778297477635,47.76680518743524 88.06875584658701,47.46472661702137 88.15715622075368,46.33879303840513 88.4349859682261,46.174021693863324 92.33723105711397,46.33879303840513 94.5346117867739,47.10772403187002 98.5,47.231301928070025 94.4335827876348,47.203840180518455 92.34985968196997,46.35252397709701 88.42235734331189,46.09163596635335 88.19504209543811,46.46237145010673 88.1824134705821,47.46472661702137 87.7909260991728,47.82172851066571 85.85874649207108,46.81937528523849 83.0804490178125,45.775823669784586 78.8751169317402,43.4415420871519 78.55940130958334,43.49646669931826 77.46071094484068,42.98841341215302 74.02572497661458,42.713789430534234 71.5,42.23319647801691 73.39429373247549,42.384240112427506 74.2909260991728,42.54901484513539 77.67539756785845,43.00214460051211 79.46866230119485,43.81228290166473 78.95088868105086,43.4690043952869 77.51122544432292,43.05706934364571 75.03601496724878,42.768714259625995 73.45743685687194,42.85110147250816 71.57577174925245,42.23319647801691" stroke="yellow" stroke-linecap="round" stroke-linejoin="round" stroke-width="0.5"><title>2025-03-07 10.7km</title><desc>1741342581000</desc></polyline><polyline fill="none" points="103.58665105386171,42.421817670663586 107.64613583130995,42.944336540676886 108.30374707258306,43.32934949826449 108.84754098358098,43.343099946156144 112.33793911006069,45.06189786802861 113.96932084305445,46.14816989985411 117.73793911002576,47.81194125014008 118.01615925057558,47.55068889017275 118.33231850113953,46.189420610506204 120.02693208429264,46.39567402549437 122.60679156903643,46.340673137354315 123.95995316159679,46.91818164524739 125.24988290393958,47.13818441105832 128.5,47.12443424586672 127.80444964865455,47.26193585158035 124.41522248240653,47.151934575202176 122.44238875876181,46.436924680834636 118.433489461313,46.24442154371354 118.19320843089372,46.423174463401665 117.94028103043092,47.68819017834903 117.53559718967881,47.78444101911737 113.3749414519989,45.90066544232832 108.84754098358098,43.45310349261854 107.21615925052902,42.985587967414176 103.99133489461383,42.80683171830606 101.5,42.18805874985992 102.99227166268975,42.27056193219323" stroke="#4DD2FF" stroke-linecap="round" stroke-linejoin="round" stroke-width="0.5"><title>2025-03-05 4.7km</title><desc>1741177738000</desc></polyline><polyline fill="none" points="132.7319884726312,42.3632351905253 136.9726224783808,42.87085468955047 138.165706051921,43.20926693250658 142.9639769452624,45.83194129835465 146.4524495676742,47.28426684465376 147.243515850103,47.80597330094315 147.6325648415368,47.70727218975662 147.8270893371664,46.32545122914598 148.1123919308302,46.170348246683716 152.0028818443534,46.36775202046556 154.1426512968028,47.185565461433725 158.5,47.24196625816694 156.8530259365216,47.39706836245023 154.1167146973312,47.25606645469088 152.2233429394546,46.48055408448272 148.1253602305078,46.18444852308312 147.93083573482,46.36775202046556 147.7233429394546,47.74957267228456 147.4380403457908,47.86237391277973 142.2636887608096,45.66273759727483 138.1138328529778,43.293869898683624 137.8414985590498,43.39257331144472 136.596541786741,42.92725677207636 131.5,42.13762608722027" stroke="#4DD2FF" stroke-linecap="round" stroke-linejoin="round" stroke-width="0.5"><title>2025-03-03 4.6km</title><desc>1740978130000</desc></polyline><polyline fill="none" points="163.79518916393863,42.470175997848855 163.59341429243796,42.59358391602291 161.5,42.16851184946427 164.79145259223878,42.5113119797752 168.76389537600335,43.361453547520796 172.30756655771984,45.116572103404906 173.48038299864857,45.91185468871845 177.5411022886983,47.76293015736155 177.96987389074638,47.73550695292943 178.18425969174132,46.41918833577074 178.37342363380594,46.18608926619345 182.24497898179106,46.44661173633358 184.16184026160045,47.214465292636305 188.43694535264513,47.2693118526513 186.93624474544777,47.37900492364133 184.11139654368162,47.187042006480624 182.21975712286076,46.474035132778226 178.42386735166656,46.22722441756923 178.23470340960193,46.364341522421455 178.0455394675373,47.58467925559671 177.66721158334985,47.81777655395854 173.40471742179943,45.98041337142058 168.73867351707304,43.40258933024597 168.51167678658385,43.47114894763217 167.6793554413598,43.08721476120991 161.5,42.182223866926506 167.85590845398838,43.046078908009804 177.5158804297098,47.83148815053573 177.98248482018244,47.74921855563298 178.10859411489218,46.52888191344391 178.33559084543958,46.22722441756923 182.56025221856544,46.501458525133785 184.1996730499668,47.22817693416437 188.5,47.33787002970348 184.22489490895532,47.214465292636305 182.30803362914594,46.48774682948715 178.41125642228872,46.18608926619345 178.18425969174132,46.41918833577074 177.98248482018244,47.68066053185612 177.59154600655893,47.790353357675485 172.9381130313268,45.733601994259516 169.01611396542285,43.47114894763217 168.42340028024046,43.44372510374524 167.30102755723055,42.96380717403372 163.66907986922888,42.53873596260382 165.11933675856562,42.662143834808376 167.66674451192375,43.03236695489613 169.3692199906218,43.786522858732496 169.43227463803487,43.64940383336216 168.67561886971816,43.38887740368955" stroke="yellow" stroke-linecap="round" stroke-linejoin="round" stroke-width="0.5"><title>2025-02-28 10.0km</title><desc>1740736874000</desc></polyline><polyline fill="none" points="13.387232059671078,77.85911382646009 13.651444547984283,77.55815331508347 13.336905871401541,77.84543381391268 13.613699906796683,77.66759355810063 13.450139795022551,77.59919341384375 11.61323392362101,77.22983219455637 12.456197576888371,77.20247207469947 17.55172413791297,77.90015385797597 18.369524697132874,78.29687368964369 18.860205032629892,78.24215376380016 23.779589934798423,80.9097311674559 27.71761416591471,82.72913352608157 28.057315936661325,82.60601664190472 28.183131407306064,81.29276474106882 28.43476234859554,81.12860759305477 32.37278657971183,81.37484325999685 34.310344827594236,82.11354827968171 38.437092264706735,82.1956264317705 34.28518173348857,82.18194674229017 32.27213420323096,81.37484325999685 29.95712954335613,81.3885230096057 28.35927306616213,81.15596712793922 28.15796831314219,81.27908498430043 28.057315936661325,82.63337595661869 27.742777260020375,82.92064851519535 22.697576887265313,80.63613526859262 19.099254426837433,78.52943319243786 17.061043802415952,77.96855389008124 15.450605778198224,77.91383386641974 11.512581547023728,77.18879201321397 17.614631873264443,77.98223389346094 18.281453867675737,78.37895354778448 18.860205032629892,78.37895354778448 23.79217148182215,80.99180985763087 27.793103448289912,82.78385211476416 28.069897483685054,82.55129800019495 28.24603914259933,81.15596712793922 32.25955265609082,81.3474837577669 33.89515377447242,81.99043098276888 35.10298229265027,82.18194674229017 38.5,82.18194674229017 34.3732525628875,82.1956264317705 32.27213420323096,81.48428122820042 29.969711090438068,81.47060148573655 28.2712022367632,81.18332665869093 28.08247903076699,82.48289967517485 27.705032618832774,82.83857068720681 23.18825722276233,80.8686918086023 18.759552656149026,78.39263352057606 12.82106244174065,77.43503296367999 11.5,77.07935148480465 13.475302889128216,77.3803127810097 14.330848089477513,77.55815331508347 16.645852749352343,77.76335371725145 19.363466915208846,78.74831245538371 18.82246039144229,78.37895354778448 18.55824790307088,78.44735340155603 17.35041938489303,77.96855389008124 14.481826654286124,77.76335371725145 12.531686859263573,77.27087236673106" stroke="yellow" stroke-linecap="round" stroke-linejoin="round" stroke-width="0.5"><title>2025-02-26 11.1km</title><desc>1740566027000</desc></polyline><polyline fill="none" points="43.80457089556148,77.50110373839561 41.55037313437788,77.22724762067082 42.55783582094591,77.21355480408238 47.65811567165656,77.91188714974851 48.37593283591559,78.30897690798156 48.804104477691,78.29528417198162 52.355410447809845,80.04794608819066 53.11100746272132,80.70518999772321 56.8260261194082,82.21136509267671 57.669776119466405,82.7864468729822 58.08535447763279,82.53998347315064 58.19869402988115,81.28027649060823 58.40018656721804,81.11596624768572 59.97434701496968,81.36243155699049 62.24113805976231,81.3761240645108 63.953824626863934,82.0470556821092 65.18796641792869,82.22505753691075 68.4244402985205,82.18398020112363 65.15018656715984,82.18398020112363 64.04197761195246,82.03336322457471 62.40485074633034,81.41720158084354 58.500932835857384,81.15704382221156 58.22388059704099,81.33504653896671 57.99720149260247,82.70429244310071 57.63199626869755,82.80013927438995 55.89412313431967,81.85536118410528 53.27472014928935,80.82842296913441 48.85447761195246,78.36374784176587 48.438899253786076,78.40482603141572 47.393656716449186,77.91188714974851 45.9958022388746,77.92557991432841 41.5,77.15878352751315 47.41884328360902,77.92557991432841 48.37593283591559,78.37744057270174 48.85447761195246,78.30897690798156 52.58208955224836,80.4039534975891 56.8260261194082,82.25244242236658 57.757929104496725,82.84121647248685 58.12313432840165,82.4441365061939 58.18610074633034,81.32135402840504 58.34981343289837,81.11596624768572 60.251399253786076,81.36243155699049 62.15298507467378,81.32135402840504 63.92863805976231,81.9922858459322 65.25093283585738,82.17028775379003 68.5,82.18398020112363 64.62126865674509,82.18398020112363 62.44263059704099,81.40350907643733 61.170708955207374,81.44458658664371 58.41277985076886,81.10227372084046 58.18610074633034,81.36243155699049 58.09794776124181,82.52629105238884 57.97201492538443,82.7727544705267 57.69496268656803,82.81383167476451 52.6828358208877,80.48610895569436 48.91744402988115,78.39113330256077 48.47667910455493,78.40482603141572 47.49440298508853,77.99404372186109 45.89505597023526,77.91188714974851 41.638526119466405,77.22724762067082 44.63572761201067,77.59695328319503 45.27798507467378,77.63803164420824 47.40625000005821,77.98035096240346 49.66044776124181,78.74714392134047 52.46875,80.19856469171646 48.94263059704099,78.40482603141572 45.27798507467378,77.69280277795042" stroke="yellow" stroke-linecap="round" stroke-linejoin="round" stroke-width="0.5"><title>2025-02-21 11.3km</title><desc>1740135343000</desc></polyline><polyline fill="none" points="73.71229050279362,77.60142751570675 71.57541899441276,77.17774091429601 74.64245810057037,77.51942373375641 77.5335195530788,77.99777861175244 78.33798882679548,78.40779608575394 79.12988826812943,78.44879778275208 82.66201117320452,80.4715367898898 86.74720670387615,82.24824859993532 87.66480446927017,82.80859260172292 88.07960893848212,82.50792042328976 88.21787709492492,81.29155976347101 88.3938547486323,81.15488952242595 90.14106145250844,81.38722887160839 92.40363128489116,81.40089588295086 93.84916201111628,82.0159103411861 95.08100558654405,82.22091470241139 98.43715083791176,82.2072477521433 97.43156424578046,82.34391720921849 94.42737430159468,82.17991384849302 92.3282122904784,81.46923092457291 88.45670391060412,81.19589060542057 88.19273743010126,81.41456289331836 88.00418994412757,82.64458965638187 87.61452513962286,82.79492569521244 82.8505586591782,80.66287581156939 78.86592178768478,78.4351305514574 78.28770949720638,78.40779608575394 77.34497206704691,77.99777861175244 75.7611731843208,77.90210773595027 71.5,77.16407358829747 77.40782122901874,77.95677681393863 78.76536312850658,78.3394599037565 82.07122905022698,79.97952124632138 83.17737430165289,80.73121112809167 87.80307262565475,82.74025805899873 88.05446927371668,82.52158735120611 88.14245810051216,81.37356185920362 88.31843575416133,81.15488952242595 92.2779329608311,81.38722887160839 93.86173184355721,82.0159103411861 95.13128491613315,82.22091470241139 98.5,82.24824859993532 97.10474860330578,82.35758414931479 94.43994413403561,82.19358080084203 92.40363128489116,81.46923092457291 88.41899441339774,81.18222357875493 88.15502793289488,81.44189691099746 88.09217877092306,82.49425349438388 87.84078212286113,82.83592641170253 83.64245810051216,81.01821917953203 78.8784916200675,78.40779608575394 78.45111731841462,78.4351305514574 77.42039106145967,78.0114458756434 74.11452513962286,77.58776022125676 75.19553072628332,77.71076583463582 77.34497206704691,77.95677681393863 79.46927374304505,78.76314382191049 78.91620111727389,78.40779608575394 78.23743016755907,78.39412885138881 77.01815642457223,77.94310954595858 75.92458100558724,77.929442276989 72.11592178774299,77.21874288625258" stroke="yellow" stroke-linecap="round" stroke-linejoin="round" stroke-width="0.5"><title>2025-02-19 10.6km</title><desc>1739962218000</desc></polyline><polyline fill="none" points="103.45926966291154,77.37491943289933 101.5,77.18250210399856 104.82443820225308,77.53984841221245 107.47893258422846,78.00714638616773 108.21207865170436,78.37823511040187 108.74297752807615,78.35074708233878 113.38202247186564,80.90711616864428 117.83146067417692,82.81749789598689 118.0463483146159,82.54262404567271 118.18539325840538,81.34691803138412 118.40028089884436,81.19573625936755 122.4073033707682,81.4431245490996 124.21488764043897,82.18528742805938 128.5,82.26774978585308 124.44241573027102,82.21277488474152 122.35674157302128,81.45686833326181 118.65308988763718,81.19573625936755 118.4382022471982,81.4293807639333 118.21067415724974,81.37440561302355 118.0463483146159,82.6250862437737 117.65449438203359,82.77626684453571 112.53511235956103,80.50854482490104 108.76825842692051,78.40572313434677 107.33988764043897,77.97965830280737 102.47331460670102,77.29245488793822" stroke="#4DD2FF" stroke-linecap="round" stroke-linejoin="round" stroke-width="0.5"><title>2025-02-18 4.9km</title><desc>1739836925000</desc></polyline><polyline fill="none" points="134.4196050775936,77.39141602956806 134.38152327219723,77.72266962128924 135.77785613544984,77.6812629547203 137.6311706629349,77.99871382860874 140.05571227084147,79.29611609308631 141.36318758811103,79.72398080500716 142.5818053596886,80.60731127781037 146.68194640334696,82.29114832519554 147.6212976022507,82.85702455299906 147.9640338505269,82.59478944282455 148.05289139633533,81.36642003789893 148.25599435827462,81.18699461169308 152.25458392099245,81.50443947828899 154.1078984485357,82.23594079579925 158.5,82.31875208373822 154.2475317348144,82.15312947086932 152.27997179125668,81.42162782640662 148.35754583921516,81.17319264860998 148.12905500701163,81.42162782640662 148.06558533146745,82.51197827825672 147.86248236958636,82.80181719218672 143.20380818052217,80.85574721441662 139.4464033850236,78.73022898859926 137.52961918193614,77.95730722373992 131.5,77.14297544701549 137.5677009872743,77.9711094263912 139.319464033877,78.75783327773388 137.5677009872743,77.9711094263912" stroke="#4DD2FF" stroke-linecap="round" stroke-linejoin="round" stroke-width="0.5"><title>2025-02-14 5.4km</title><desc>1739506837000</desc></polyline><polyline fill="none" points="164.4509574964759,77.57987319130916 166.72092480148422,77.85411259061948 168.76389537606155,78.36145440200926 173.8082671649172,81.06268320267554 177.6798225128441,82.83148667388014 177.9950957496767,82.77664030999586 178.48692199907964,81.5425928015029 178.85263895383105,81.25464719238516 182.4341429239139,81.46032267346163 184.4518916394445,82.26931066915859 188.5,82.31044555701374 184.36361513310112,82.26931066915859 182.39631013548933,81.48774605354993 178.9156936011277,81.30949400977988 178.57519850542303,81.47403436400054 177.8815973844612,82.83148667388014 173.54343764600344,81.07639492284216 168.8017281644279,78.4163020816195 167.6541335824295,78.04607992697856 161.5,77.16851332611986 167.47758056985913,77.96380823590152 168.8647828117828,78.4163020816195 173.56865950499196,80.98041286005173 177.64198972447775,82.80406349399709 178.020317608607,82.70808233214484 178.53736571699847,81.50145774206612 178.94091546011623,81.30949400977988 182.44675385340815,81.50145774206612 184.36361513310112,82.22817577212118 188.5,82.29673392875702 186.77230266231345,82.39271530508995 184.35100420366507,82.20075250235095 182.37108827655902,81.48774605354993 178.90308267163346,81.24093548544624 178.57519850542303,81.46032267346163 178.00770667911274,82.74921712193463 177.80593180761207,82.79035190248396 173.31644091551425,80.89814248066978 169.24311069597024,78.62198073463514 167.95679588982603,78.08721575871459 161.52522185898852,77.19593734575028 164.7283979448839,77.4701773171837 167.6541335824295,77.96380823590152 169.40705277910456,78.86879481481446 168.7512844465673,78.40259016325581 168.58734236337477,78.48486165815848 167.46496964042308,77.99123213702114" stroke="yellow" stroke-linecap="round" stroke-linejoin="round" stroke-width="0.5"><title>2025-02-12 10.1km</title><desc>1739334019000</desc></polyline><polyline fill="none" points="33.208154506457504,116.88294611990568 34.341201716742944,117.27492785625509 38.5,117.30292652043863 34.48283261799952,117.33092518041667 32.55150214594323,116.4629647807451 28.766094420629088,116.21097552671563 27.942060085828416,117.79290246810706 27.697424892685376,117.83490034703573 22.650214592227712,115.62299928659922 21.298283261770848,114.75503099813068 17.718884120171424,113.07508098578546 11.5,112.09510320893605 17.487124463485088,112.92108481645118 19.48283261799952,113.691064400904 22.019313304685056,114.92302517332428 23.293991416343488,115.81899157105363 27.607296137313824,117.76490387695958 27.954935622343328,117.63891016508569 28.48283261799952,116.37896840029862 28.8047210299992,116.19697611383162 31.12231759657152,116.44896538663306 32.281115879828576,116.37896840029862 34.35407725319965,117.23292985217995 38.3326180257136,117.28892718885618 32.886266094399616,116.89694548169791 32.95064377685776,117.28892718885618 32.83476394851459,116.82694866225938 32.37124463520013,116.6169580474234 28.8047210299992,116.25297375918308 28.547210300457664,116.39296779962024 27.83905579400016,117.90489679106395 22.984978540742304,115.81899157105363 22.096566523599904,115.1050186936045 20.46137339057168,114.32104535045801" stroke="#4DD2FF" stroke-linecap="round" stroke-linejoin="round" stroke-width="0.5"><title>2025-02-10 6.3km</title><desc>1739162078000</desc></polyline><polyline fill="none" points="41.692963166569825,113.91114641839522 43.32572842220543,113.95954015541065 50.68801539303968,115.04033080600493 52.94420010992326,114.94354380277218 53.137163276493084,115.68557639195933 53.98323254531715,115.73396973362833 54.97773501917254,116.10498499500682 55.66052776243305,115.12098660909396 61.74628916976508,115.0080684764107 62.072842220950406,115.5726585527882 62.45876855409006,115.6694452756783 62.71110500267241,115.52426517516142 62.963441451312974,114.84675675648032 64.12122045073193,114.76610085157154 68.5,115.31456041423371 64.38840021984652,114.74996966698382 62.91891148983268,114.83062557787343 62.636888400127646,115.52426517516142 62.38455195154529,115.65331415816036 61.74628916976508,114.99193730978004 55.734744364977814,115.08872429144685 55.30428807029966,115.37908497764147 55.007421660237014,116.12111607895349 53.21137987897964,115.70170750709076 53.21137987897964,115.07259313082614 53.018416712468024,114.91128145880066 50.836448598071,115.02419964180444 43.93430456286296,114.00793388161401 41.5,113.89501517031749 43.60775151179405,113.97567139865714 50.361462341912556,114.99193730978004 52.914513468858786,114.91128145880066 53.12231995596085,115.6694452756783 54.99257833970478,116.10498499500682 55.43787795485696,115.26616697912687 55.82380428799661,115.08872429144685 61.686915887810756,114.99193730978004 62.10252886195667,115.58878967624332 62.39939527207753,115.65331415816036 62.71110500267241,115.45974065490009 62.82985156675568,114.9274126313976 63.2009345794213,114.782232034966 68.1882902692887,115.26616697912687 64.59620670694858,114.74996966698382 63.14156129735056,114.74996966698382 62.740791643736884,114.95967497299716 62.48845519515453,115.65331415816036 62.19158878503367,115.58878967624332 61.73144584929105,114.95967497299716 55.675371082965285,115.07259313082614 55.31913139077369,115.3468226983241 55.02226498071104,116.10498499500682 53.19653655850561,115.68557639195933 53.018416712468024,114.84675675648032 50.59895547002088,114.94354380277218 43.14760857610963,113.87888392106106 41.84139637160115,113.92727766525059 43.1772952171159,113.91114641839522 51.26690489274915,115.05646196904127 52.98873007140355,114.91128145880066 53.15200659696711,115.68557639195933 54.30978559644427,115.83075638464652 53.21137987897964,115.6694452756783 52.914513468858786,114.86288793385029 50.67317207250744,114.95967497299716 43.83040131937014,113.95954015541065 42.00467289716471,113.92727766525059 43.96399120398564,114.00793388161401" stroke="#4DD2FF" stroke-linecap="round" stroke-linejoin="round" stroke-width="0.5"><title>2025-01-25 9.9km</title><desc>1737761473000</desc></polyline><polyline fill="none" points="71.85999999998603,113.67958222994639 80.66499999997905,114.95109960414993 83.21500000002561,114.83698937139707 83.20000000001164,115.8802807196771 84.19000000006054,115.92918487996212 85.0449999999837,116.32041777003906 85.76500000001397,115.26082707967726 91.89999999996508,115.11411411940935 92.47000000003027,115.83137654850725 92.84499999997206,115.71726677336846 92.95000000001164,115.11411411940935 93.19000000000233,114.9347981459432 98.5,115.4401427868288 94.36000000004424,114.88589376410528 93.05499999999302,115.00000397142139 92.65000000002328,115.81507515568228 92.32000000000698,115.71726677336846 92.18500000005588,115.22822420809825 91.89999999996508,115.09781267333892 85.7949999999837,115.21192277049704 85.49499999999534,115.37493709207047 85.13500000000931,116.28781505582447 83.30499999993481,115.84767794008076 83.1699999999837,115.03260687693546 81.08499999996275,115.17931989162753 72.9100000000326,113.98931149968121 71.5,114.00561302807182 73.3300000000163,114.05451760602591 80.61999999999534,115.14671700797044 82.96000000002095,115.01630542478233 83.15500000002794,115.19562133168802 83.15500000002794,115.76617096997506 85.0449999999837,116.28781505582447 85.75,115.22822420809825 91.88500000000931,115.09781267333892 92.26000000000931,115.71726677336846 92.60500000003958,115.81507515568228 93.25000000005821,114.91849668655777 97.59999999997672,115.26082707967726 93.36999999999534,114.86959230109642 92.95000000001164,115.00000397142139 92.875,115.63575975484855 92.60500000003958,115.78247236640891 91.88500000000931,115.04890832783713 85.82500000001164,115.21192277049704 85.43500000005588,115.45644420747703 85.09000000002561,116.25521233676409 83.29000000003725,115.81507515568228 83.06500000000233,114.9837025168963 81.07000000006519,115.16301845037378 73.05999999999767,113.97300997006823 71.8300000000163,114.02191455524007 73.21000000002095,113.98931149968121 75.13000000000466,114.2990403323638" stroke="#4DD2FF" stroke-linecap="round" stroke-linejoin="round" stroke-width="0.5"><title>2025-01-19 8.1km</title><desc>1737283232000</desc></polyline><polyline fill="none" points="105.0688930406468,112.54559556867753 107.32624941616086,112.86097072510165 108.28468005603645,113.35460031981347 108.99089210649254,113.36831223411718 112.3453993460862,115.12342882853409 112.76156001875643,115.50735835250816 116.86011209717253,117.26245454901073 117.78070994862355,117.83834184188163 118.03292853810126,117.68751439168409 118.57519850536482,116.41233191877836 118.92830453056376,116.20665649898001 122.24497898179106,116.37119685320067 124.36361513315933,117.1253382613213 128.5,117.23503129964229 124.27533862675773,117.1253382613213 122.35847734700656,116.34377347106056 118.9787482485408,116.17923309230537 118.58780943485908,116.33006177845527 118.0203176085488,117.68751439168409 117.84376459597843,117.76978392529418 113.29121905652573,115.8638636218966 108.83956095285248,113.3957360596105 108.48645492759533,113.42315988104383 107.4271368519403,112.95695436111419 104.52662307338323,112.68271526831086 101.5,112.10681184323039 107.61630079406314,112.99809018976521 108.90261560020735,113.3820241473586 113.51821578701492,115.90499880086281 116.84750116767827,117.27616617218882 117.66721158334985,117.86576500133378 118.00770667917095,117.75607233893243 118.56258757587057,116.49460202235787 118.9787482485408,116.27521499778959 122.44675385334995,116.43975529070303 124.40144792152569,117.15276152703154 128.5,117.26245454901073 124.37622606259538,117.23503129964229 122.30803362914594,116.45346697515924 118.96613731898833,116.27521499778959 118.61303129378939,116.43975529070303 118.0203176085488,117.79720709499088 117.56632414762862,117.81091867831128 112.53456328820903,115.50735835250816 108.95305931806797,113.46429560551769 108.49906585708959,113.49171941670647 107.5154133582837,113.02551407046849 101.55044371786062,112.14794786194398 107.75502101820894,113.01180213062617 108.44862213917077,113.4094479708292 108.85217188228853,113.36831223411718 113.50560485757887,115.91871052514762 117.85637552547269,117.89318815675506 118.66347501165001,116.38490854275005 120.01284446520731,116.38490854275005 118.82741709484253,116.37119685320067 118.0203176085488,117.82463026058394 117.64198972447775,117.76978392529418 112.49673049978446,115.50735835250816 108.9152265296434,113.45058369837352 108.54950957500841,113.47800751162868 107.540635217214,113.01180213062617 104.71578701538965,112.68271526831086" stroke="yellow" stroke-linecap="round" stroke-linejoin="round" stroke-width="0.5"><title>2025-01-17 12.3km</title><desc>1737088953000</desc></polyline><polyline fill="none" points="134.23033707862487,112.42302440077765 134.4073033707682,112.12065426741901 135.17837078648154,112.62918557113153 138.76825842697872,113.34387584461365 140.79073033703025,114.38841818661604 141.57443820219487,115.00689441713621 147.76825842697872,117.86560205288697 148.00842696626205,117.70067781642138 148.53932584263384,116.44999755834579 148.86797752801795,116.23009685630677 152.3946629212587,116.44999755834579 154.3286516853259,117.1646730297216 158.4873595504905,117.23339167913946 154.41713483142667,117.1646730297216 152.24297752807615,116.44999755834579 148.96910112357,116.28507205640199 148.58988764043897,116.42250998494274 147.99578651681077,117.79688363893365 147.83146067411872,117.85185837215977 143.2176966291736,115.87275765649974 138.80617977521615,113.38510789129941 137.35252808989026,113.01401913940208 131.5,112.18937479579472 137.23876404494513,112.95904296450317 138.4396067415364,113.38510789129941 138.7808988763718,113.34387584461365 143.72331460670102,116.06517115778115 146.73174157296307,117.24713540593802 147.62921348313102,117.8243710076058 147.9705056179664,117.74190888936573 148.5140449437895,116.4362537721463 148.8932584269205,116.24384065787308 152.26825842697872,116.44999755834579 154.30337078642333,117.15092929675302 158.5,117.20590422245732 154.36657303367974,117.15092929675302 152.38202247186564,116.50497269288462 148.98174157302128,116.2575844584353 148.58988764043897,116.44999755834579 147.86938202247256,117.87934573259554 143.41994382016128,115.96896443222067 138.84410112357,113.45382794861507 138.22471910109743,113.42633992875926 137.55477528087795,113.04150722068152 133.06741573038744,112.39553622729727" stroke="#4DD2FF" stroke-linecap="round" stroke-linejoin="round" stroke-width="0.5"><title>2025-01-15 9.1km</title><desc>1736916504000</desc></polyline><polyline fill="none" points="163.85384615382645,112.01639928543591 164.03006993007148,112.31750124892278 164.64685314684175,112.6870348022203 167.73076923075132,113.19343142719299 169.40489510493353,113.74088566757564 171.39370629366022,115.04108294971229 177.6748251747922,117.91517060415936 177.95174825174036,117.84674046823056 178.48041958041722,116.61499366331554 178.90839160839096,116.38232945061463 182.38251748250332,116.6013075413066 184.2832167831948,117.35404273727909 188.5,117.44984517733974 184.23286713287234,117.39510093200079 182.34475524473237,116.64236590423388 178.89580419572303,116.38232945061463 178.48041958041722,116.61499366331554 177.88881118874997,117.92885662827757 177.49860139854718,117.92885662827757 173.3699300698936,116.09492031051195 168.80069930071477,113.54927686903102 168.53636363637634,113.6313949500327 166.93776223773602,113.12499953240331 161.5,112.35856056932244 166.05664335662732,112.9060172978352 168.77552447555354,113.50821781477134 172.84125874121673,115.75276598599157 177.7503496503341,117.98360071456409 178.03986013983376,117.81936840673734 178.631468531501,116.43707399776031 179.91538461536402,116.46444626520679 178.66923076921375,116.49181852857873 177.85104895103723,117.96991469453496 173.0552447552327,116.01280333074101 168.87622377619846,113.57664956674853 167.4034965034807,113.152372293378 163.43846153846243,112.60491629906755" stroke="#4DD2FF" stroke-linecap="round" stroke-linejoin="round" stroke-width="0.5"><title>2025-01-14 7.8km</title><desc>1736829619000</desc></polyline><polyline fill="none" points="15.192093023273628,147.72654975694604 14.978604651172645,147.4261489259079 15.48093023255933,147.4807672954339 19.70046511630062,148.83256675465964 22.29999999998836,150.11608428576437 23.455348837247584,150.92169176170137 27.637209302338306,152.83328855168656 27.913488372054417,152.75136338391167 28.478604651172645,151.46786430753127 28.842790697643068,151.24939548449765 32.24604651163099,151.46786430753127 33.87860465119593,152.13692345813615 35.04651162790833,152.28712007463037 38.5,152.28712007463037 34.11720930231968,152.17788618394115 32.258604651200585,151.46786430753127 28.880465116293635,151.23574117440148 28.516279069765005,151.3859385294054 27.92604651162401,152.75136338391167 27.57441860466497,152.76501758108498 23.367441860435065,150.94900042764493 19.524651162850205,148.84622124377347 17.590697674429975,148.0406046447606 11.5,147.18036606154055 17.666046511614695,148.06791374000022 19.524651162850205,148.7642942937382 22.890232558129355,150.66225923228194 27.599534883745946,152.79232597236114 27.90093023260124,152.71040078626538 28.403255813929718,151.48151860031066 28.767441860516556,151.24939548449765 32.35906976746628,151.48151860031066 34.24279069766635,152.19154042382434 38.37441860465333,152.30077430640813 34.15488372097025,152.15057770107524 32.27116279071197,151.44055571890203 28.754883720946964,151.23574117440148 28.45348837209167,151.4132471261546 27.86325581400888,152.79232597236114 27.386046511644963,152.75136338391167 26.745581395342015,152.3144285371527 23.19162790698465,150.89438309169782 18.720930232550018,148.36831351909495 17.377209302328993,147.99964099425415 11.550232558161952,147.16671144829888 18.746046511630993,148.35465899437258 23.216744186065625,150.8124570572254 26.783255813992582,152.28712007463037 27.612093023315538,152.81963435962098 27.90093023260124,152.73770918569062 28.45348837209167,151.39959282831114 28.805116279108915,151.23574117440148 32.18325581395766,151.4132471261546 33.92883720929967,152.10961496920208 34.9837209302932,152.218848900593 33.87860465119593,152.10961496920208 32.1455813953653,151.4132471261546 28.830232558131684,151.19477823805937 28.478604651172645,151.3586299285671 27.913488372054417,152.68309238275106 27.461395348829683,152.69674658500298 26.29348837211728,152.05499797906668 23.216744186065625,150.86707441759063 18.708372092980426,148.36831351909495 16.975348837208003,147.93136822307133" stroke="yellow" stroke-linecap="round" stroke-linejoin="round" stroke-width="0.5"><title>2025-01-10 13.0km</title><desc>1736482744000</desc></polyline><polyline fill="none" points="44.08644859812921,146.96141392319987 45.3228971962817,147.798237346753 47.46775700937724,148.20978845492937 49.57476635515923,149.01916961750248 51.858411214954685,150.37727577805344 57.763084112200886,153.03858607680013 58.04065420560073,152.81909802286827 58.15420560748316,151.61190904994146 58.318224299058784,151.4061374128505 62.292523364536464,151.66678144766774 64.37429906544276,152.43499329901533 68.43691588786896,152.5310195550701 64.19766355142929,152.39383917392115 62.292523364536464,151.68049954454182 58.39392523368588,151.39241929554555 58.14158878510352,151.68049954454182 58.04065420560073,152.87397006087122 57.763084112200886,153.03858607680013 53.24626168224495,151.1180567345873 48.805140186916105,148.6350569669885 47.41728971962584,148.20978845492937 41.5,147.38668531864823 47.74532710283529,148.23722516276757 48.36355140188243,148.58018366577744 48.79252336447826,148.58018366577744 53.32196261687204,151.06318417331204 57.57383177569136,152.98371408780804 58.00280373834539,152.87397006087122 58.12897196266567,151.62562715091917 58.35607476637233,151.41985552910774 62.292523364536464,151.68049954454182 64.47523364488734,152.43499329901533 68.5,152.4898654514691 64.13457943929825,152.38012113017612 62.27990654204041,151.62562715091917 58.406542056123726,151.41985552910774 58.19205607479671,151.55703663584427 58.17943925235886,152.5310195550701 57.85140186920762,153.02486808106187 53.15794392529642,151.07690231518063 48.8303738317918,148.6213386432355 47.32897196261911,148.20978845492937 41.5,147.34553006525675 45.915887850453146,147.9079843988875 48.742056074843276,148.5527470090601 52.89299065427622,150.87113008019514 57.599065420625266,152.98371408780804 57.952336448652204,152.8876880677999 58.22990654211026,152.20178646860586 57.952336448652204,152.95627808723657 57.3971962617361,152.87397006087122 53.23364485986531,151.09062045598694 48.805140186916105,148.53902867915167 48.514953271020204,148.60762031842023 47.54345794394612,148.14119666744955 45.94112149538705,147.9628579003911" stroke="yellow" stroke-linecap="round" stroke-linejoin="round" stroke-width="0.5"><title>2025-01-08 12.0km</title><desc>1736310892000</desc></polyline><polyline fill="none" points="74.3779803646612,148.33933692522987 74.75666199158877,147.73544648638926 74.80715287517523,147.14527891749458 75.04698457225459,146.93940606489195 75.32468443200924,146.99430551474507 75.19845722295577,147.09037951262144 76.42286115005845,147.55702393241518 77.05399719497655,148.07856629676826 79.64165497897193,148.98439952534682 83.9333800841705,151.3038612754026 87.79593267879682,153.0194207050954 88.04838709672913,152.77238113178464 88.08625525946263,151.63324992507114 88.43969144462608,151.39993302573566 92.3022440392524,151.67442346489406 94.32187938288553,152.44299451877305 98.5,152.52534122725774 94.2966339411214,152.4155456078006 92.35273492283886,151.701872486301 88.38920056103962,151.44110661765444 88.12412342213793,151.71559699546196 88.08625525946263,152.77238113178464 87.87166900420561,153.06059393510805 83.13814866764005,151.04309484337864 78.80855539970798,148.61383192476933 78.32889200560749,148.61383192476933 77.44530154281529,148.1883645011112 71.5,147.43350052455207 77.6220196353388,148.3118874027423" stroke="#4DD2FF" stroke-linecap="round" stroke-linejoin="round" stroke-width="0.5"><title>2025-01-06 5.2km</title><desc>1736137119000</desc></polyline><polyline fill="none" points="104.99485981307225,147.928562635876 105.05794392520329,147.4072630507144 105.47429906547768,146.78993268574413 105.77710280369502,147.8599706695386 105.34813084109919,148.14805675648677 106.14299065421801,148.10690162880928 108.76728971960256,148.73794590907346 112.32523364486406,150.41157461293915 112.9939252336626,151.00145651404455 117.78831775696017,153.12775931242504 118.07850467285607,152.94942518226162 118.12897196260747,151.79710817785235 118.36869158875197,151.5776184071001 122.51962616824312,151.86569867758953 124.51308411208447,152.62019248823344 128.5,152.68878268137632 124.34906542056706,152.59275640384294 122.38084112148499,151.82454438084096 118.41915887850337,151.5776184071001 118.17943925235886,151.78339007488103 118.09112149535213,152.94942518226162 117.83878504676977,153.196349316524 113.3093457944342,151.33069210224494 109.60000000003492,149.2318051415641 107.73271028039744,148.47729744679236 101.5,147.5032920325757 105.73925233643968,148.02459134583478 108.74205607478507,148.69679091326543 112.55233644862892,150.80940214906877 116.95560747658601,152.72993678499188 117.6369158878806,153.21006731427042 118.06588785047643,152.90827112768602 118.17943925235886,151.7147995444975 118.35607476631412,151.53646404594474 121.15700934577035,151.86569867758953 122.38084112148499,151.79710817785235 124.4121495326981,152.5790383600979 128.48738317756215,152.6476285685494 124.071495327109,152.51044812609325 122.3051401869161,151.82454438084096 118.45700934581691,151.53646404594474 118.17943925235886,151.74223575972428 118.1415887849871,152.86711706395727 117.86401869158726,153.1414773153083 113.37242990656523,151.3169739645091 109.62523364485241,149.1494953614456 108.07336448598653,148.55960752739338 101.66401869157562,147.57188413178665" stroke="#4DD2FF" stroke-linecap="round" stroke-linejoin="round" stroke-width="0.5"><title>2025-01-03 9.5km</title><desc>1735878536000</desc></polyline><polyline fill="none" points="134.193676815019,147.38056400204368 135.7744730679551,147.8205805155012 137.582903981267,147.98558643754222 138.4555035129306,148.42560150848294 138.78430913347984,148.38435014015704 142.54028103046585,150.46065756570897 147.58618266979465,152.78444413695252 147.96557377051795,152.71569347495097 148.48407494142884,151.46442695207952 148.86346604221035,151.244423170152 152.25269320845837,151.45067672338337 154.26346604217542,152.2069377801672 158.5,152.33068929443834 154.57962529273937,152.22068795251835 152.40444964868948,151.51942785659048 148.88875878223917,151.31317438014958 148.48407494142884,151.53317808016436 147.81381733022863,152.83944464811066 142.90702576114563,150.77691426275123 138.77166276349453,148.46685286761203 138.44285714288708,148.49435376854672 137.4311475410359,148.01308741021785 136.00210772833088,147.94433497085993 131.5,147.1605553519039 137.53231850120937,147.9993369243748 139.31545667449245,148.83811468470958 137.64613583142636,148.04058837877528 133.940749414498,147.47681770399504" stroke="#4DD2FF" stroke-linecap="round" stroke-linejoin="round" stroke-width="0.5"><title>2025-01-02 5.6km</title><desc>1735817809000</desc></polyline><polyline fill="none" points="164.61635514016962,147.48957241272728 167.619158878515,147.9834340737143 168.50233644858235,148.44985775944951 169.34766355139436,148.60075928716105 173.94018691591918,151.12491196051997 177.81355140183587,152.7985158522206 178.1415887849871,152.45556547415617 178.5074766355101,151.5364553113759 178.94906542054377,151.31696563870355 182.19158878503367,151.42671050774516 184.56355140189407,152.29094906584942 188.5,152.318385144099 186.96074766351376,152.4144113858638 184.3364485981292,152.24979494075524 182.36822429904714,151.48158291775326 178.96168224303983,151.28952941122407 178.57056074764114,151.44042861179332 177.99018691590754,152.74364383463399 177.77570093463873,152.83966985462757 171.59345794393448,150.12348596453376 168.7546728971647,148.44985775944951 168.3509345795028,148.4772944100696 167.4803738318151,148.03830750983616 161.5,147.1466121465637 167.02616822428536,147.9148422555736 168.45186915888917,148.4224211047549 168.7546728971647,148.34011111616564 172.80467289721128,150.61734056101704 177.77570093463873,152.8533878534363 178.60841121495469,151.39927429663658 178.94906542054377,151.26209317967005 179.90794392518,151.38555618951796 178.583177570079,151.3718380814098 177.99018691590754,152.71620781972888 177.76308411214268,152.78479784933734 173.1831775701139,150.8505492155964 168.94392523361603,148.49101273382257 168.37616822432028,148.44985775944951 167.36682242993265,147.99715243428363 166.28177570091793,148.03830750983616 161.87850467290264,147.1877674122661 164.65420560748316,147.70906664781796" stroke="#4DD2FF" stroke-linecap="round" stroke-linejoin="round" stroke-width="0.5"><title>2024-12-31 8.0km</title><desc>1735619151000</desc></polyline><polyline fill="none" points="15.259813084150665,182.68163005549286 16.180841121531557,182.70906681849738 18.817757009412162,183.32639290584484 20.357009345840197,184.14949113606417 20.79859813087387,184.60219359426992 27.864018691587262,187.79851564374985 28.5327102803858,186.49530090630287 28.911214953288436,186.28952931518143 32.4060747664189,186.48158280736243 34.14719626167789,187.1812045493425 38.48738317762036,187.2909488951409 34.31121495331172,187.24979477316083 32.3808411215432,186.49530090630287 28.923831775784492,186.28952931518143 28.557943925261497,186.45414660645474 27.800934579514433,187.8533876408619 23.53644859814085,186.02888496963715 19.67570093460381,183.9025620533357 17.42990654206369,183.01087094201648 11.5,182.14661235915264 16.269158878538292,182.7639403322828 18.779906542098615,183.34011123984237 23.53644859814085,185.91913987169391 27.687383177632,187.83966964311549 28.002803738345392,187.7162076173845 28.5327102803858,186.48158280736243 28.96168224303983,186.2483749693638 32.33037383185001,186.45414660645474 34.374299065442756,187.2086406419403 38.5,187.2223586866894 34.525700934638735,187.23607673043443 32.317757009353954,186.48158280736243 28.898598130850587,186.26209308562102 28.5327102803858,186.45414660645474 27.977570093469694,187.70248960940808 27.775700934580527,187.79851564374985 23.20841121498961,185.87798544309044 18.8808411215432,183.4498578749335 16.988317757030018,182.98343422396283 11.701869158889167,182.21520445837814 17.26588785048807,182.96971586337895 18.426635514071677,183.4361395491287 18.918691588856746,183.38126623566495 22.93084112147335,185.60362235069624 18.8556074766675,183.4087028944341 15.045327102823649,182.6953484374826" stroke="yellow" stroke-linecap="round" stroke-linejoin="round" stroke-width="0.5"><title>2024-12-30 10.8km</title><desc>1735533491000</desc></polyline><polyline fill="none" points="45.29057835822459,182.63118403371482 47.75886194035411,183.04196738389146 48.45149253733689,183.43905708294187 48.80410447763279,183.39797887799796 49.521921641833615,183.69921883432835 52.607276119466405,185.4518778778147 57.61940298508853,187.75221750879427 57.98460820899345,187.76590992040292 58.5135261194082,186.46512626300682 58.92910447763279,186.23235347957234 62.24113805964589,186.45143375448242 64.21828358207131,187.21821266037296 68.5,187.28667490713997 64.38199626869755,187.21821266037296 62.36707089556148,186.47881877052714 58.87873134331312,186.2597385282279 58.53871268656803,186.46512626300682 58.09794776124181,187.57421606502612 57.75792910443852,187.8206795566366 53.048041044792626,185.83526981562318 49.69822761195246,183.9183021288336 47.784048507455736,183.13781670015305 41.5,182.15193563136563 47.56996268656803,183.02827462034475 49.98787313431967,183.9183021288336 52.53171641792869,185.4518778778147 57.72014925372787,187.84806436863437 57.97201492532622,187.77960233097838 58.55130597011885,186.47881877052714 58.90391791041475,186.3145086132572 62.34188432834344,186.50620378245367 64.23087686568033,187.23190511175198 68.46222014923114,187.27298245980637 67.17770522390492,187.3825220097351 64.29384328355081,187.23190511175198 62.329291044792626,186.45143375448242 58.91651119402377,186.2597385282279 58.563899253786076,186.41035622282652 57.98460820899345,187.7385250961379 57.606809701479506,187.7932947405643 53.5265858208877,186.01327294346993 52.191697761183605,185.19171860741335 47.75886194035411,183.0830456684198 42.14225746266311,182.28886387386592" stroke="#4DD2FF" stroke-linecap="round" stroke-linejoin="round" stroke-width="0.5"><title>2024-12-27 9.1km</title><desc>1735273142000</desc></polyline><polyline fill="none" points="93.21355140185915,186.6256229057908 92.22943925234722,186.3512609988975 91.18224299064605,186.47472390759503 88.72196261683712,186.24151612172136 87.85140186920762,187.80537444740185 83.27149532712065,185.93971737210813 78.72943925228901,183.4429996527906 78.36355140188243,183.4841546148964 77.3794392523705,183.0451678782265 71.5,182.11231758758368 75.6130841121776,182.77080063631 76.01682242995594,182.7022087619407 78.90607476636069,183.4292813300417 82.12336448597489,185.04803635863937 82.60280373838032,185.4870183202729 87.57383177569136,187.76422045107756 87.93971962615615,187.73678444843972 88.44439252332086,186.47472390759503 88.84813084109919,186.2277980074432 92.3303738317336,186.4472877128428 94.46261682244949,187.24293570168084 98.5,187.35267998208292 94.04626168223331,187.16062744848023 92.48177570092957,186.48844200343592 88.83551401866134,186.24151612172136 88.57056074769935,186.3238247857371 88.00280373834539,187.7779384508467 87.75046728970483,187.88768241243088 86.66542056074832,187.24293570168084 83.12009345792467,185.84369039350713 78.96915887854993,183.41556300628872 76.11775700934231,182.77080063631 73.12757009343477,182.37296740929014" stroke="#4DD2FF" stroke-linecap="round" stroke-linejoin="round" stroke-width="0.5"><title>2024-12-25 6.6km</title><desc>1735101299000</desc></polyline><polyline fill="none" points="104.3035547240288,182.3499114674487 104.20252572494792,182.59707365858776 104.36669784842525,182.54214875587786 104.60664172121324,182.14394272156642 105.37698783905944,182.67946098199172 106.23573433113052,182.72065462985483 108.87511693168199,183.39348290860653 113.54770813841606,185.9474617716769 117.84144059871323,187.80113394290674 118.01824134704657,187.78740310648573 118.54864359210478,186.482968980461 118.9401309635141,186.27700485353125 122.32460243214155,186.46923804581456 124.50935453694547,187.29309231344087 128.5,187.3617466695432 124.31992516369792,187.25189968752966 122.19831618334865,186.4555071101786 118.82647333963541,186.29073580245313 118.54864359210478,186.42804523576342 117.98035547242034,187.71874890891195 117.75304022448836,187.75994143051503 113.0930776426685,185.8376139467582 109.59494855004596,183.80541737709427 107.6122544434038,183.0090099072404 101.5,182.15767397846503 103.57109448075062,182.47349260444753 104.5561272216728,182.44603013670712 108.02899906452512,183.13259060231212 109.60757717490196,183.75049283450062 113.93919550976716,186.139695307691 117.63938260055147,187.78740310648573 118.03086997190258,187.74621059102356 118.66230121609988,186.34565958805615 119.95042095414829,186.34565958805615 118.7001870907261,186.30446675040002 117.96772684750613,187.85605727841903 113.42142188962316,185.97492371764383 110.97146866226103,184.533166021356 107.7385406921967,183.1051282327826 101.53788587456802,182.17140523433045 106.7282507015625,182.9128915315814" stroke="#4DD2FF" stroke-linecap="round" stroke-linejoin="round" stroke-width="0.5"><title>2024-12-18 8.3km</title><desc>1734495982000</desc></polyline><polyline fill="none" points="134.34608208958525,181.22766501444858 133.88013059698278,181.33720875928702 134.04384328360902,181.2002790680126 133.88013059698278,181.30982282919285 133.77938432834344,181.15920014071162 133.8297574626631,181.29612986261782 134.84981343284016,182.00816277172999 137.07882462686393,182.9940499374352 137.6077425373369,183.82931131424266 138.19962686568033,184.294865188087 138.85447761195246,184.39071436863742 143.47621268656803,186.8827755178354 147.65718283585738,188.75864541104238 147.9594216417754,188.77233782161784 148.55130597017705,187.45786175366084 148.91651119402377,187.25247401886736 152.41744402988115,187.47155426118115 154.6212686567451,188.2383330527955 158.5,188.3067952893325 154.28125,188.2383330527955 152.41744402988115,187.48524676763918 148.8535447762115,187.26616654163809 148.48833955224836,187.47155426118115 147.85867537313607,188.827107453777 141.67537313431967,186.23922450137616 141.24720149248606,185.81475344867795 139.69822761201067,184.9384230129217 137.83442164183361,184.19901595752162 131.5,183.17205677866878 137.51958955224836,183.966239046611 138.57742537319427,184.43179257358133 138.8041044776328,184.3633288935671 143.5265858209459,186.9375457130518 146.77565298503032,188.224640602406 147.6697761194082,188.77233782161784 148.00979477615329,188.69018334276916 148.63945895520737,187.37570668727858 149.94916044780985,187.33462914035772 148.71501865668688,187.4167842250754 148.06016791047296,188.84079985928838 147.49347014923114,188.79972263977106 143.22434701491147,186.96493080456275 142.05317164183361,186.1981467004225 137.79664179106476,184.1305521907925 131.60074626863934,183.26790654481738 137.6077425373369,183.99362458083488" stroke="#4DD2FF" stroke-linecap="round" stroke-linejoin="round" stroke-width="0.5"><title>2024-12-17 8.6km</title><desc>1734409492000</desc></polyline><polyline fill="none" points="164.82928538066335,182.51817044784548 167.52802428771975,182.943241374247 168.51167678658385,183.4094470678392 168.83956095285248,183.31346363923512 173.51821578707313,185.89128691218502 177.7680990191875,187.72864954722172 177.99509574961849,187.7012263591605 178.57519850536482,186.34377344252425 178.8904717421974,186.16552130579657 182.5476412891294,186.4260436012264 184.37622606259538,187.1253384656884 188.5,187.19389664274058 188.09645025688224,187.33101292021456 184.36361513310112,187.19389664274058 182.2071461933665,186.3986202190863 178.96613731904654,186.26150324700575 178.47431106958538,186.56316045073618 177.93204110232182,187.72864954722172 177.71765530126868,187.79720749956323 173.89654367114417,186.1792330147291 168.76389537600335,183.43687089538435 168.09551611403003,183.35459940048167 167.38930406357395,182.943241374247 161.5,182.13423457366298 167.47758056985913,182.9295294242038 168.32251284446102,183.38202323621954 168.81433909392217,183.3408874810848 173.48038299864857,185.87757518180297 177.6798225128441,187.71493795371498 178.03292853804305,187.68751476357284 178.46170014009112,186.522025406608 178.8904717421974,186.1929447226721 182.58547407761216,186.4260436012264 184.33839327422902,187.1253384656884 188.42433442315087,187.23503153667843 184.56539000466,187.19389664274058 182.35847734706476,186.3986202190863 178.87786081276136,186.2340798403311 178.56258757592877,186.384908526481 177.9068192433915,187.79720749956323 173.39210649230517,185.94613382358511 168.7765063054976,183.43687089538435 167.6541335824877,183.03922499594046 161.65133115369827,182.16165859125613 167.4523587108706,182.943241374247 168.33512377395527,183.38202323621954 168.87739374127705,183.39573515253142 174.01004203641787,186.1243861727853 177.6798225128441,187.75607273122296 178.03292853804305,187.7012263591605 178.46170014009112,186.30263834937068 179.92456795898033,186.33006174581533 178.58780943485908,186.3574851381709 177.95726296119392,187.86576542633702 173.3542737038806,185.9324220972776 168.82695002335822,183.42315898214292 168.42340028024046,183.43687089538435 167.4271368519403,182.95695332325704 161.65133115369827,182.2165066141315 167.33886034565512,182.9295294242038" stroke="yellow" stroke-linecap="round" stroke-linejoin="round" stroke-width="0.5"><title>2024-12-15 13.0km</title><desc>1734235831000</desc></polyline><polyline fill="none" points="14.16977611934999,217.24093879183056 14.16977611934999,217.39155978562485 15.3031716417172,217.7338797669654 16.826958955149166,218.0488135866326 17.620335820829496,217.9940425263194 18.38852611934999,218.43221055172035 18.82929104473442,218.44590328568302 24.042910447751638,221.22550715645775 27.78311567165656,222.81383335187274 28.02238805964589,222.80014094332 28.52611940295901,221.58151249715593 28.903917910414748,221.33504733472364 32.3796641791123,221.51304998520936 34.38199626863934,222.27982866256207 38.5,222.36198333113862 34.306436567159835,222.27982866256207 32.48041044775164,221.52674248961557 28.84095149260247,221.28027725375432 28.488339552190155,221.44458744773874 27.8838619402959,222.84121816587867 23.488805970118847,221.04750422752113 19.395988805918023,218.76083588520123 17.532182835799176,218.0351208230859 11.5,217.15878183410678 14.698694029764738,217.48740944467136 17.532182835799176,217.95296422039974 18.804104477574583,218.36374686662748 22.670242537278682,220.4724166635715 26.53638059698278,222.170289047368 27.493470149231143,222.77275612315862 28.009794776095077,222.71798647058313 28.47574626863934,221.58151249715593 28.8661380597041,221.30766229631263 32.316697761183605,221.45827995723812 34.19309701496968,222.23875131450768 35.62873134325491,222.25244376489718 34.09235074627213,222.1976739572856 32.29151119402377,221.48566497328284 29.004664179112297,221.28027725375432 28.488339552190155,221.43089493717707 27.858675373136066,222.78644853373407 23.249533582071308,220.91057878026913 18.82929104473442,218.47328875052335 17.506996268581133,218.0351208230859 15.517257462604903,217.78865090479667" stroke="#4DD2FF" stroke-linecap="round" stroke-linejoin="round" stroke-width="0.5"><title>2024-12-13 8.5km</title><desc>1734064159000</desc></polyline><polyline fill="none" points="44.42064241843764,217.54550260807446 47.20099196978845,217.94765770706 49.1140765233431,218.5439550475421 53.09329239488579,220.79045345360646 57.544402456318494,222.75958407904545 57.90151157299988,222.77345112225157 58.4754369391012,221.45607740404375 58.83254605572438,221.27580448583467 62.33986773737706,221.45607740404375 64.09990552667296,222.17716733105772 68.5,222.26036983520316 64.52078412851552,222.23263567127287 62.21232876711292,221.44221026268497 58.74326877662679,221.26193733104446 58.37340576288989,221.3867416869616 57.95252716104733,222.57931242320046 57.646433632529806,222.85665335986414 56.74090694379993,222.34357230215392 53.080538497830275,220.91525812564942 49.38190836086869,218.79356732050655 47.417808219150174,218.1140664593695 49.369154463813175,218.73809795544366 51.715871516324114,220.15256160090212 56.766414737852756,222.32970522687538 57.506140765268356,222.81505224571447 57.876003778888844,222.73184998950455 58.449929144990165,221.22033586050384 57.85049598489422,222.6902488474443 57.531648559321184,222.77345112225157 53.220831365091726,220.94299248582684 48.62942843651399,218.36367930888082 48.1830420406186,218.3775466795778 47.060699102526996,217.91992290054623 41.5,217.14334664013586" stroke="#4DD2FF" stroke-linecap="round" stroke-linejoin="round" stroke-width="0.5"><title>2024-12-11 6.6km</title><desc>1733890893000</desc></polyline><polyline fill="none" points="74.77387640444795,217.67728927131975 77.66853932582308,218.00714664009865 78.30056179768872,218.3782354749419 78.81882022472564,218.3644914573233 83.57162921346026,220.98958024053718 87.81882022466743,222.83124326927646 88.5140449438477,221.40189445612486 88.88061797746923,221.23696888047562 92.50842696626205,221.45686961528554 94.36657303367974,222.18528892709583 98.46207865170436,222.28149503628083 94.51825842697872,222.18528892709583 92.5463483146159,221.52558854113158 88.61516853928333,221.36066307603323 87.91994382016128,222.87247432072763 83.48314606741769,221.0170678835857 82.20646067417692,220.15120516030584 78.7808988763718,218.44695554762438 78.50280898879282,218.51567559471005 77.41573033708846,218.07586685102433 71.6264044943382,217.25122263029334 76.42977528087795,217.80098585372616 78.7808988763718,218.35074743870064 82.09269662917359,219.98627846651652 83.47050561796641,220.90711728684255 87.7176966292318,222.80375589654432 87.98314606741769,222.7075500596984 88.53932584269205,221.48435718867404 88.88061797746923,221.23696888047562 91.09269662917359,221.45686961528554 92.21769662917359,221.36066307603323 94.42977528087795,222.1990326600644 98.5,222.26775130948226 94.21488764043897,222.17154519312317 92.48314606741769,221.48435718867404 88.85533707862487,221.2507126841083 88.53932584269205,221.37440687044 88.09691011230461,222.6113441726775 87.85674157302128,222.81749958344153 83.91292134829564,221.16824984710547 81.54915730335051,219.75263206461386 78.75561797752744,218.3782354749419 76.73314606741769,217.86970614145685 71.5,217.12752567925781 77.95926966291154,218.06212281090848 87.5154494381859,222.73503744676418 87.98314606741769,222.65257527322683 88.53932584269205,221.22322507583885 88.00842696626205,222.7075500596984 87.74297752807615,222.76252482976997 83.62219101120718,221.0170678835857 78.79353932588128,218.33700341904478 74.38202247186564,217.5948248369532" stroke="yellow" stroke-linecap="round" stroke-linejoin="round" stroke-width="0.5"><title>2024-12-09 12.1km</title><desc>1733738831000</desc></polyline><polyline fill="none" points="112.73515551368473,220.51881740322278 117.81196983973496,222.8153353616508 118.3972667294438,221.48723205341958 118.85532516491367,221.23821162570675 122.1380772855482,221.37655634898692 124.13572101783939,222.16511930373963 128.5,222.31729773411644 124.5556079170201,222.23429133299214 122.35438265779521,221.47339759395982 118.89349670126103,221.2935495273996 118.46088595659239,221.43189420946874 117.8374175306526,222.8430040795938 113.81668237509439,221.16903922545316 108.701696512755,218.40212208482262 108.24363807722693,218.4159567730967 107.6583411875763,218.028585112188 104.03204524033936,217.5443693996349 103.57398680486949,217.3230132247554 103.35768143262248,217.50286513693572 101.76720075402409,217.2538393659779 105.53345900092972,217.64121264315327 108.701696512755,218.34678332146723 112.03534401510842,219.9931044781988 112.97690857684938,220.68483170191757 117.62111215834739,222.8153353616508 117.92648444860242,222.69082607999735 118.46088595659239,221.40422528130875 118.75353440147592,221.1828737075557 119.88595664460445,221.37655634898692 122.32893496699398,221.39039081564988 124.36475023563253,222.17895371167106 128.41093308193376,222.26196013748995 124.26295947219478,222.13745048482087 122.32893496699398,221.4180597458908 118.84260131948395,221.26588057864865 118.3209236569237,221.70858326436428 117.82469368516468,222.8430040795938 113.09142318571685,220.79550781860598 108.68897266726708,218.40212208482262 108.39632422244176,218.4574608316616 106.75494816206628,217.9179073463456 101.5,217.1569959204062 106.99670122528914,217.9179073463456 108.28180961351609,218.38828739552991 108.76531573984539,218.37445270523313 110.40669180022087,219.27370543213328" stroke="#4DD2FF" stroke-linecap="round" stroke-linejoin="round" stroke-width="0.5"><title>2024-12-06 9.2km</title><desc>1733479157000</desc></polyline><polyline fill="none" points="134.23913043469656,217.56388643894752 137.67251051886706,217.9756298893044 138.40462833095808,218.42854662169702 138.80855539970798,218.34619820771331 143.51683029450942,220.98132919649652 147.63183730712626,222.80668429371144 148.04838709672913,222.68316459449125 148.49018232815433,221.50286106974818 148.96984572231304,221.31071791979775 152.377980364603,221.4754120605794 154.2966339410632,222.20280942133104 158.5,222.3400538843125 154.34712482464965,222.20280942133104 152.35273492278066,221.5165855727828 148.9067321177572,221.29699340139632 148.464936886332,221.57148357472033 147.8338008414721,222.83413310452306 143.17601683025714,220.85780827343115 142.11570827488322,220.130405602089 138.82117812056094,218.4559960848419 138.45511921454454,218.48344554388314 137.53366058901884,218.04425370819808 131.5,217.1658668954624 137.53366058901884,218.03052894645953 139.4270687236567,218.82656343693088 138.8716690041474,218.4559960848419 134.25175315560773,217.5776112354797" stroke="#4DD2FF" stroke-linecap="round" stroke-linejoin="round" stroke-width="0.5"><title>2024-12-03 5.6km</title><desc>1733220329000</desc></polyline><polyline fill="none" points="165.02447552455124,217.7007196889026 167.57972027972573,217.97444764526153 168.44825174828293,218.48084328924597 169.55594405595912,218.61770673717547 170.75174825178692,219.3978264432517 172.38811188808177,220.01370808160573 173.43286713288398,220.8211942124908 177.92657342663733,222.79199291770055 178.49300699302694,221.57393232446339 178.9461538462201,221.2728374497965 182.38251748256152,221.46444333624095 184.49720279726898,222.24455095360463 187.4552447553142,222.2171788125852 188.5,222.299295223449 188.1853146853391,222.38141159756924 184.37132867134642,222.27192309054954 182.38251748256152,221.51918783852307 178.9335664336104,221.32758200916578 178.55594405601732,221.5055017144623 177.976923077018,222.80567894590786 177.70000000001164,222.833050999252 173.0426573426812,220.83488038752694 170.52517482516123,219.3978264432517 167.4664335664711,218.0291931875836 161.5,217.19432189429062 167.68041958048707,218.00182041845983 169.4678321678657,218.8230017178721 167.44125874125166,218.0702523336222 161.52517482516123,217.16694900076254 165.17552447557682,217.67334687081166" stroke="#4DD2FF" stroke-linecap="round" stroke-linejoin="round" stroke-width="0.5"><title>2024-12-02 6.1km</title><desc>1733112856000</desc></polyline><polyline fill="none" points="11.5,251.28143743368855 12.299999999988358,251.61488187905343 14.14000000001397,254.0794535371242 13.979999999981374,253.91998219798552 14.326666666660458,253.90548479702557 14.78000000002794,253.3545827605849 16.433333333348855,253.60103912759223 17.046666666632518,254.00696658098605 18.27333333331626,254.25342212164833 19.593333333265036,255.07977077427495 21.19333333329996,255.68865700965398 22.033333333325572,256.42801630546455 26.83333333331393,258.6170832394564 27.220000000030268,258.6170832394564 27.80666666664183,257.26885287500045 28.19333333329996,257.0803898218437 31.88666666665813,257.26885287500045 34.16666666662786,258.0806916326401 38.5,258.12418289908965 34.19333333335817,258.10968581135967 31.899999999965075,257.2978471746319 28.233333333337214,257.109384149604 27.83333333331393,257.2833500253473 27.11333333334187,258.71856256631145 22.52666666661389,256.7904463067971 19.419999999983702,255.03627882743604 16.313333333295304,253.61553655120952 12.540000000037253,253.16611591634864" stroke="#4DD2FF" stroke-linecap="round" stroke-linejoin="round" stroke-width="0.5"><title>2024-11-29 4.6km</title><desc>1732853630000</desc></polyline><polyline fill="none" points="43.78660287079401,254.12914340617135 43.59282296651509,254.24151509003423 44.419617224892136,254.25556154578226 43.70909090916393,254.1712827954907 44.355023923446424,254.2274686331948 44.27751196169993,254.4241189334134 45.31100478465669,253.0897021553974 47.73971291864291,252.92114357471291 48.51483253587503,253.342539743855 49.6129186602775,253.5672839822655 53.91483253589831,256.0254066001653 58.2296650717617,257.89355835648894 58.87559808616061,256.53107356419787 59.26315789471846,256.34847176140465 62.93205741629936,256.53107356419787 64.79234449757496,257.28957146753964 68.5,257.3317101504945 64.86985645932145,257.261479007022 62.66076555021573,256.4889347023418 59.21148325363174,256.2922865557339 58.90143540670397,256.4748884129367 58.2296650717617,257.8795121717267 53.65645933011547,256.0254066001653 48.92822966509266,253.3846793089615 47.50717703351984,252.9492366819468 41.5,252.1064416435256 47.63636363635305,252.92114357471291 48.424401913944166,253.32849322004768 49.25119617226301,253.4408653811115 52.58421052637277,255.21071808320994 47.59760765550891,252.97732978500426 44.355023923446424,252.54188621713547" stroke="#4DD2FF" stroke-linecap="round" stroke-linejoin="round" stroke-width="0.5"><title>2024-11-28 6.3km</title><desc>1732767063000</desc></polyline><polyline fill="none" points="71.68120805372018,251.77369205487776 75.66778523492394,252.44687454985979 76.57382550340844,252.92302678020496 76.9966442953446,252.89018872838642 81.14932885905728,254.92613868853368 82.58389261743287,255.87843140719633 87.83892617450329,258.1770520508435 88.57885906042065,256.5844388700061 89.122483221523,256.2889011375082 93.12416107376339,256.5023450951703 94.9664429530385,257.27402537131275 96.56711409392301,257.5367244233348 98.5,257.4874683749222 95.58557046978967,257.43821231552283 93.39597315434366,256.5844388700061 89.27348993293708,256.37099499189935 88.65436241606949,256.61727637136937 87.83892617450329,258.2263079451368 82.11577181209577,255.8127561793517 76.9966442953446,252.89018872838642 76.61912751680939,252.97228384877963 75.32046979869483,252.39761736385117 71.5,251.8886257971899" stroke="#4DD2FF" stroke-linecap="round" stroke-linejoin="round" stroke-width="0.5"><title>2024-11-25 4.0km</title><desc>1732507947000</desc></polyline><polyline fill="none" points="101.5,250.3820539493172 107.00401284114923,251.08889195811935 108.49919743184,251.96065665973583 109.32263242395129,251.86641194298863 110.83948635635898,252.36119639253593 112.42134831473231,253.49212937030825 115.41171749611385,254.78798510192428 117.73033707868308,256.3901266656467 122.97431781701744,258.43991359628853 124.72953451052308,259.5001430026896 125.1845906903036,259.311658034625 126.15971107548103,257.02626885892823 128.5,256.97914725885494 126.24638844304718,257.09695124591235 124.98956661322154,259.6179460506828 118.07704654906411,256.7435391532199 109.2792937400518,252.03134017882985 108.69422150892206,252.14914600894554 110.77447833074257,252.54968550303602 111.79293739970308,253.49212937030825 113.5914927769918,253.98691127626807 117.6869983949,256.437248353468 124.25280898890924,259.35877928716945 125.1845906903036,259.4530217712163 126.15971107548103,257.002708059852 125.11958266457077,259.6179460506828 118.18539325846359,256.69641751106246" stroke="#4DD2FF" stroke-linecap="round" stroke-linejoin="round" stroke-width="0.5"><title>2024-11-20 4.0km</title><desc>1732095798000</desc></polyline><polyline fill="none" points="133.0772703133407,252.06118933402468 137.06346255977405,252.63804590460495 138.02416356879985,253.12135694212338 138.68374933610903,253.18371957530326 142.36882634094218,255.00781837440445 143.34386617102427,255.7561620000488 148.59187466808362,258.0791282917635 148.83563462557504,258.04794770693115 149.42352628783556,256.67599737366254 149.85369091870962,256.34859880578006 153.83988316514296,256.56686457463366 155.9333510355791,257.4087446934136 158.5,257.50228671974037 155.89033457246842,257.4243350340548 153.61046202864964,256.55127417010954 149.939723844931,256.3641892253945 149.33749336161418,256.76953972753836 148.77827934140805,258.11030887201196 143.44423791824374,255.91206658522424 139.34333510353463,253.6202574873605 137.03478491771966,252.70040868186334 131.5,251.8896911280026" stroke="#4DD2FF" stroke-linecap="round" stroke-linejoin="round" stroke-width="0.5"><title>2024-11-19 4.1km</title><desc>1731989484000</desc></polyline></svg>