<?xml version="1.0" encoding="utf-8" ?>
<svg baseProfile="full" height="300mm" version="1.1" viewBox="0,0,200,300" width="200mm" xmlns="http://www.w3.org/2000/svg" xmlns:ev="http://www.w3.org/2001/xml-events" xmlns:xlink="http://www.w3.org/1999/xlink"><defs /><rect fill="#222222" height="300" width="200" x="0" y="0" /><text fill="#FFFFFF" style="font-size:12px; font-family:Arial; font-weight:bold;" x="10" y="20">Over 4km Runs</text><text fill="#FFFFFF" style="font-size:4px; font-family:Arial" x="10" y="280">ATHLETE</text><text fill="#FFFFFF" style="font-size:9px; font-family:Arial" x="10" y="290">FENGJUNYUAN</text><text fill="#FFFFFF" style="font-size:4px; font-family:Arial" x="65" y="280">SPECIAL TRACKS</text><rect fill="yellow" height="2.6" width="2.6" x="65" y="283" /><text fill="#FFFFFF" style="font-size:3px; font-family:Arial" x="70" y="285.5">Over 20.0 km</text><rect fill="red" height="2.6" width="2.6" x="65" y="287" /><text fill="#FFFFFF" style="font-size:3px; font-family:Arial" x="70" y="289.5">Over 40.0 km</text><text fill="#FFFFFF" style="font-size:4px; font-family:Arial" x="120" y="280">STATISTICS</text><text fill="#FFFFFF" style="font-size:3px; font-family:Arial" x="120" y="285">Number: 2</text><text fill="#FFFFFF" style="font-size:3px; font-family:Arial" x="120" y="290">Weekly: 2.0</text><text fill="#FFFFFF" style="font-size:3px; font-family:Arial" x="141" y="285">Total: 8.1 km</text><text fill="#FFFFFF" style="font-size:3px; font-family:Arial" x="141" y="290">Avg: 4.1 km</text><text fill="#FFFFFF" style="font-size:3px; font-family:Arial" x="167" y="285">Min: 4.0 km</text><text fill="#FFFFFF" style="font-size:3px; font-family:Arial" x="167" y="290">Max: 4.1 km</text><polyline fill="none" points="46.0,71.52821579726879 68.01605136459693,74.35556783247739 73.99678972736001,77.84262663894333 77.29052969580516,77.46564777195454 83.3579454254359,79.44478557014372 89.68539325892925,83.968517481233 101.6468699844554,89.15194040769711 110.92134831473231,95.5605066625867 131.89727126806974,103.75965438515414 138.91813804209232,108.00057201075833 140.73836276121438,107.24663213849999 144.6388443019241,98.10507543571293 154.0,97.91658903541975 144.98555377218872,98.3878049836494 139.95826645288616,108.47178420273121 112.30818619625643,96.9741566128796 77.1171749602072,78.1253607153194 74.77688603568822,78.59658403578214 83.09791332297027,80.19874201214407 87.17174959881231,83.968517481233 94.3659711079672,85.9476451050723 110.7479935796,95.74899341387209 137.01123595563695,107.43511714867782 140.73836276121438,107.8120870848652 144.6388443019241,98.01083223940805 140.47833065828308,108.47178420273121 112.74157303385437,96.78567004424985" stroke="#4DD2FF" stroke-linecap="round" stroke-linejoin="round" stroke-width="0.5"><title>2024-11-20 4.0km</title><desc>1732095798000</desc></polyline><polyline fill="none" points="52.30908125336282,198.2447573360987 68.25385023909621,200.5521836184198 72.0966542751994,202.48542776849354 74.73499734443612,202.73487830121303 89.47530536376871,210.0312734976178 93.3754646840971,213.02464800019516 114.36749867233448,222.31651316705393 115.34253850230016,222.19179082772462 117.69410515134223,216.70398949465016 119.41476367483847,215.39439522312023 135.35953266057186,216.26745829853462 143.73340414231643,219.63497877365444 154.0,220.00914687896147 143.56133828987367,219.69734013621928 134.44184811459854,216.20509668043815 119.75889537972398,215.45675690157805 117.34997344645672,217.07815891015343 115.1131173656322,222.44123548804782 93.77695167297497,213.64826634089695 77.37334041413851,204.48102994944202 68.13913967087865,200.80163472745335 46.0,197.55876451201038" stroke="#4DD2FF" stroke-linecap="round" stroke-linejoin="round" stroke-width="0.5"><title>2024-11-19 4.1km</title><desc>1731989484000</desc></polyline></svg>