<?xml version="1.0" encoding="utf-8" ?>
<svg baseProfile="full" height="300mm" version="1.1" viewBox="0,0,200,300" width="200mm" xmlns="http://www.w3.org/2000/svg" xmlns:ev="http://www.w3.org/2001/xml-events" xmlns:xlink="http://www.w3.org/1999/xlink"><defs /><rect fill="#222222" height="300" width="200" x="0" y="0" /><text fill="#FFFFFF" style="font-size:12px; font-family:Arial; font-weight:bold;" x="10" y="20">Over 4km Runs</text><text fill="#FFFFFF" style="font-size:4px; font-family:Arial" x="10" y="280">ATHLETE</text><text fill="#FFFFFF" style="font-size:9px; font-family:Arial" x="10" y="290">Fake David</text><text fill="#FFFFFF" style="font-size:4px; font-family:Arial" x="65" y="280">SPECIAL TRACKS</text><rect fill="yellow" height="2.6" width="2.6" x="65" y="283" /><text fill="#FFFFFF" style="font-size:3px; font-family:Arial" x="70" y="285.5">Over 10.0 km</text><rect fill="red" height="2.6" width="2.6" x="65" y="287" /><text fill="#FFFFFF" style="font-size:3px; font-family:Arial" x="70" y="289.5">Over 15.0 km</text><text fill="#FFFFFF" style="font-size:4px; font-family:Arial" x="120" y="280">STATISTICS</text><text fill="#FFFFFF" style="font-size:3px; font-family:Arial" x="120" y="285">Number: 31</text><text fill="#FFFFFF" style="font-size:3px; font-family:Arial" x="120" y="290">Weekly: 2.6</text><text fill="#FFFFFF" style="font-size:3px; font-family:Arial" x="141" y="285">Total: 249.6 km</text><text fill="#FFFFFF" style="font-size:3px; font-family:Arial" x="141" y="290">Avg: 8.1 km</text><text fill="#FFFFFF" style="font-size:3px; font-family:Arial" x="167" y="285">Min: 4.0 km</text><text fill="#FFFFFF" style="font-size:3px; font-family:Arial" x="167" y="290">Max: 13.0 km</text><polyline fill="none" points="15.050977231469005,44.16161831950012 15.007455168175511,44.540193852910306 16.603264154749922,44.492871948255925 18.72133790043881,44.85567294700013 21.49224259518087,46.33841839211527 22.986500100698322,46.82740663430013 24.37920612533344,47.836927174648736 29.065081603825092,49.76131237165828 30.138625831110403,50.40802806057036 30.53032440057723,50.10833079180156 30.63187588151777,48.70448004330683 30.86399355228059,48.49942241336976 35.43381019536173,48.86221654662222 37.55188394110883,49.69821805234824 42.571428571420256,49.79285952428472 37.711464839754626,49.60357653815299 35.46282490424346,48.767574658748345 30.980052387632895,48.483648741283105 30.718920007988345,48.767574658748345 30.646383235929534,50.01368946087314 30.414265565224923,50.34493393394223 25.090066492033657,48.12085395933536 20.795889582892414,45.69169027269527 18.6052790650283,44.80835111284978 11.714285714260768,43.87768622516887 18.648801128321793,44.824125058730715 20.650816038716584,45.72323803170002 18.648801128321793,44.824125058730715" stroke="#4DD2FF" stroke-linecap="round" stroke-linejoin="round" stroke-width="0.5"><title>2025-02-14 5.4km</title><desc>1739506837000</desc></polyline><polyline fill="none" points="51.515379995980766,44.37699793292268 54.10962834453676,44.6904143892898 56.44445185828954,45.27023360230669 62.209448188426904,48.35735223162919 66.63408287178027,50.378841913014185 66.99439514242113,50.31616035429761 67.55648228467908,48.9058203445893 67.97444451862248,48.576739648444345 72.06759191298625,48.81179734109901 74.37359044502955,49.73635505048151 78.99999999994179,49.783366350864526 74.27270300925011,49.73635505048151 72.02435444050934,48.8431383469142 68.04650697269244,48.63942172547104 67.65736972045852,48.82746784457413 66.86468272504862,50.378841913014185 61.90678588108858,48.37302276896662 56.487689330708236,45.33291666471632 55.17615266563371,44.90980563084304 48.14285714284051,43.90687237272505 54.974377794074826,44.81578084103239 56.559751784894615,45.33291666471632 61.93561086279806,48.26332898292458 66.59084539936157,50.347501135998755 67.0232201241306,50.23780837960658 67.61413224792341,48.85880884807557 68.07533195440192,48.63942172547104 72.08200440387009,48.85880884807557 74.27270300925011,49.6893437395629 78.99999999994179,49.767695918577374 77.02548875694629,49.877388920111116 74.25829051848268,49.6580028598255 71.99552945885807,48.8431383469142 68.0320944818668,48.56106912622636 67.65736972045852,48.81179734109901 67.00880763324676,50.28481956793985 66.77820778009482,50.33183074570843 61.64736104628537,48.16930569220858 56.99212650966365,45.567977982442244 55.522052445448935,44.956818009974086 48.17168212454999,43.938214109424734 51.832454794144724,44.25163121963851 55.17615266563371,44.81578084103239 57.1794888903969,45.85005121694121 56.430039367463905,45.31724590086378 56.24267698667245,45.41127046647307 54.9599653033074,44.84712244231196" stroke="yellow" stroke-linecap="round" stroke-linejoin="round" stroke-width="0.5"><title>2025-02-12 10.1km</title><desc>1739334019000</desc></polyline><polyline fill="none" points="109.38074800738832,49.29479556559818 110.67565910483245,49.7427746928588 115.42857142857974,49.77477316620934 110.83752299204934,49.80677163475775 108.6302881668089,48.81481689227803 104.30410790926544,48.526829173380975 103.3623543838039,50.33474567782832 103.08277130598435,50.38274325375096 97.31453096255427,47.85485632752534 95.7694665848976,46.862892569290125 91.67872470879229,44.942949698030134 84.57142857142026,43.822975095928996 91.41385652974714,44.766954075937974 93.69466584915062,45.64693074388197 96.59350091969827,47.054885912366444 98.0502759043593,48.07884750976518 102.97976701403968,50.30274728794757 103.37706928263651,50.158754474367015 103.98038013488986,48.718821028916864 104.34825260576326,48.51082984438108 106.99693439604016,48.79881758472766 108.32127529120771,48.718821028916864 110.69037400366506,49.69477697390539 115.23727774369763,49.75877393010887 109.0128755364567,49.31079483621579 109.08645003067795,49.75877393010887 108.95401594112627,49.23079847113695 108.42427958309418,48.990809197042836 104.34825260576326,48.57482715335209 104.0539546291111,48.73482034241897 103.24463519314304,50.46273918978113 97.69711833226029,48.07884750976518 96.68179031269392,47.26287850696826 94.81299816066166,46.36690897194785" stroke="#4DD2FF" stroke-linecap="round" stroke-linejoin="round" stroke-width="0.5"><title>2025-02-10 6.3km</title><desc>1739162078000</desc></polyline><polyline fill="none" points="121.22052933322266,45.898453049594536 123.08654676825972,45.953760177624645 131.50058902066667,47.18894949258538 134.0790858399705,47.07833577459678 134.29961517319316,47.926373019392486 135.26655148039572,47.981679695585626 136.40312573622214,48.40569713714649 137.18346029997338,47.281127553244005 144.13861619407544,47.15207825876132 144.5118196810945,47.79732406033145 144.95287834759802,47.90793745791598 145.24126286024693,47.7420173430437 145.52964737295406,46.967722007408156 146.85282337229,46.875543830377865 151.8571428571595,47.50235475912632 147.1581716798828,46.85710819084488 145.47875598841347,46.94928637472913 145.156443885935,47.7420173430437 144.86805937322788,47.889501895042486 144.13861619407544,47.13364263974654 137.2682792743435,47.244256333084195 136.7763292232412,47.57609711731493 136.43705332605168,48.42413266166113 134.38443414744688,47.94480857953022 134.38443414744688,47.22582072095247 134.16390481428243,47.04146452435816 131.67022696923232,47.170513876350014 123.78206235758262,46.00906729327107 121.0,45.880017337505706 123.40885887062177,45.97219588418375 131.1273855336476,47.13364263974654 134.04515825019917,47.04146452435816 134.28265137824928,47.90793745791598 136.4200895311078,48.40569713714649 136.9290033770376,47.44704797613667 137.3700620434247,47.244256333084195 144.0707610147074,47.13364263974654 144.54574727086583,47.815759630000684 144.88502316811355,47.889501895042486 145.24126286024693,47.66827503418608 145.37697321921587,47.05990015016869 145.80106809077552,46.893979468542966 151.5009031649679,47.44704797613667 147.39566480793292,46.85710819084488 145.73321291129105,46.85710819084488 145.27519045001827,47.0967713977152 144.98680593731115,47.889501895042486 144.64753004006343,47.815759630000684 144.12165239924798,47.0967713977152 137.20042409485904,47.22582072095247 136.79329301806865,47.53922594094183 136.45401712082094,48.40569713714649 134.36747035261942,47.926373019392486 134.16390481428243,46.967722007408156 131.39880625146907,47.07833577459678 122.88298122986453,45.86158162406355 121.39016728190472,45.916888760300935 122.91690881957766,45.898453049594536 132.16217702033464,47.20738510748197 134.1299772244529,47.04146452435816 134.31657896802062,47.926373019392486 135.63975496735657,48.092293011039146 134.38443414744688,47.90793745791598 134.04515825019917,46.9861576386902 131.483625225781,47.0967713977152 123.66331579361577,45.953760177624645 121.57676902535604,45.916888760300935 123.81598994741216,46.00906729327107" stroke="#4DD2FF" stroke-linecap="round" stroke-linejoin="round" stroke-width="0.5"><title>2025-01-25 9.9km</title><desc>1737761473000</desc></polyline><polyline fill="none" points="157.8399999999674,45.63380826280627 167.90285714284983,47.086970976160956 170.81714285712224,46.95655928159249 170.79999999998836,48.148892251061625 171.9314285714645,48.20478271995671 172.90857142856112,48.65190602290386 173.73142857145285,47.440945233916864 180.74285714281723,47.273273279337445 181.39428571425378,48.0930017697101 181.82285714283353,47.96259059813747 181.94285714288708,47.273273279337445 182.2171428570873,47.0683407382312 188.28571428573923,47.6458774706698 183.55428571428638,47.01245001613279 182.0628571428242,47.14286168162653 181.60000000003492,48.074371606489876 181.2228571428568,47.96259059813747 181.0685714285937,47.40368480925099 180.74285714281723,47.25464305524656 173.7657142856624,47.38505459485168 173.42285714281024,47.571356676664436 173.01142857142258,48.614645778085105 170.9199999999255,48.11163193151879 170.7657142857206,47.180122145073256 168.3828571428312,47.34779416186211 159.03999999997905,45.98778457107255 157.42857142857974,46.00641488922702 159.52000000001863,46.062305835454026 167.85142857139,47.31053372338647 170.52571428572992,47.16149191404111 170.74857142858673,47.36642437906994 170.74857142858673,48.01848110854917 172.90857142856112,48.614645778085105 173.71428571426077,47.40368480925099 180.72571428568335,47.25464305524656 181.1542857142631,47.96259059813747 181.5485714285751,48.074371606489876 182.28571428573923,47.049710498933564 187.25714285712456,47.440945233916864 182.42285714286845,46.99381977268786 181.94285714288708,47.14286168162653 181.8571428571595,47.869439719826914 181.5485714285751,48.037111275902134 180.72571428568335,47.198752374679316 173.79999999998836,47.38505459485168 173.35428571433295,47.66450766570051 172.96000000002095,48.577385527736624 170.90285714290803,48.074371606489876 170.64571428572526,47.12423144788772 168.36571428575553,47.3291639432864 159.21142857143423,45.96915425150655 157.80571428575786,46.02504520599905 159.3828571428312,45.98778457107255 161.57714285713155,46.341760379844345" stroke="#4DD2FF" stroke-linecap="round" stroke-linejoin="round" stroke-width="0.5"><title>2025-01-19 8.1km</title><desc>1737283232000</desc></polyline><polyline fill="none" points="15.793020617798902,78.62353779278055 18.37285647558747,78.9839665429754 19.46820577827748,79.54811465121747 20.27530526451301,79.5637854104134 24.109027824015357,81.5696329469065 24.5846400213195,82.00840954572777 29.268699539534282,84.0142337703146 30.320811369805597,84.67239067645278 30.609061186318286,84.50001644765143 31.228798291820567,83.04266505004489 31.632348034880124,82.80760742741404 35.422833122021984,82.99565354651713 37.844131580670364,83.8575294415059 42.57142857136205,83.98289291388937 37.743244144832715,83.8575294415059 35.55254553939449,82.96431253835908 31.68999799824087,82.77626639121445 31.243210782587994,82.94864203252655 30.594648695434444,84.50001644765143 30.39287382387556,84.59403877178556 25.189964635996148,82.41584413932287 20.102355374605395,79.5951269252837 19.69880563148763,79.62646843548282 18.488156402134337,79.09366212700843 15.173283512354828,78.78024602093501 11.714285714260768,78.1220706779859 18.70434376457706,79.14067450260336 20.174417828733567,79.57945616841607 25.44938947079936,82.46285577242088 29.254287048708647,84.02990419679554 30.191098952374887,84.70373143011238 30.580236204667017,84.57836838735966 31.214385800936725,83.13668802555185 31.68999799824087,82.88595999748213 35.65343297517393,83.0740060465323 37.88736905314727,83.8888703166158 42.57142857136205,84.0142337703146 37.85854407143779,83.98289291388937 35.49489557609195,83.08967654305161 31.675585507357027,82.88595999748213 31.27203576429747,83.0740060465323 30.594648695434444,84.62537953714491 30.07579902576981,84.6410499180638 24.32521518645808,82.00840954572777 20.232067792036105,79.67348069202853 19.713218122313265,79.70482219052792 18.589043837971985,79.17201608054165 11.771935677505098,78.16908327079727 18.86288116365904,79.15634529215458 19.655568159010727,79.6107976809435 20.11676786537282,79.5637854104134 25.434976979973726,82.47852631445858 30.407286314759403,84.73507217915903 31.3296857275418,83.0113240488572 32.87182224588469,83.0113240488572 31.517048108333256,82.99565354651713 30.594648695434444,84.65672029781854 30.162273970723618,84.59403877178556 24.281977713981178,82.00840954572777 20.1888303195592,79.65780994099623 19.770868085615803,79.68915144186758 18.617868819623254,79.15634529215458 15.389470874681138,78.78024602093501" stroke="yellow" stroke-linecap="round" stroke-linejoin="round" stroke-width="0.5"><title>2025-01-17 12.3km</title><desc>1737088953000</desc></polyline><polyline fill="none" points="51.26324237551307,78.48345645800873 51.46548956661718,78.13789059131523 52.346709470264614,78.719069224142 56.44943820225308,79.5358581081091 58.76083467085846,80.72962078468117 59.65650080255,81.43645076242683 66.73515248799231,84.70354520328692 67.00963081856025,84.51506036160572 67.61637239158154,83.08571149522322 67.99197431775974,82.83439640719735 72.02247191005154,83.08571149522322 74.23274478327949,83.90248346253065 78.9855537720141,83.98101906185912 74.33386837877333,83.90248346253065 71.84911717491923,83.08571149522322 68.10754414123949,82.89722520729993 67.67415730335051,83.05429712563637 66.99518459063256,84.62500987305248 66.80738362757256,84.68783813959453 61.53451043338282,82.42600875026255 56.492776885977946,79.58298044718686 54.831460674176924,79.15887901643873 48.14285714284051,78.21642833804071 54.701444622769486,79.09604910227063 56.07383627607487,79.58298044718686 56.46388443012256,79.5358581081091 62.11235955054872,82.64590989459248 65.55056179768872,83.99672617820033 66.57624398072949,84.65642400867364 66.96629213477718,84.56218158782576 67.58747993578436,83.07000431099732 68.02086677367333,82.85010360897286 71.87800963077461,83.08571149522322 74.2038523273659,83.88677633913176 78.99999999994179,83.94960482565511 74.27608346706256,83.88677633913176 72.00802568212384,83.14854022041254 68.12199036916718,82.86581080962787 67.67415730335051,83.08571149522322 66.85072231135564,84.71925226581516 61.76565008016769,82.53595935109479 56.53611556976102,79.66151765553514 55.828250401245896,79.63010277569992 55.06260032102,79.19029396648693 49.93418940610718,78.45204140261922" stroke="#4DD2FF" stroke-linecap="round" stroke-linejoin="round" stroke-width="0.5"><title>2025-01-15 9.1km</title><desc>1736916504000</desc></polyline><polyline fill="none" points="87.26153846154921,78.01874204051273 87.46293706295546,78.36285857020994 88.16783216787735,78.78518263112346 91.69230769231217,79.36392163108394 93.60559440561337,79.98958362010308 95.87852147850208,81.47552337110392 103.05694305687211,84.76019497618836 103.37342657346744,84.68198910655337 103.977622377628,83.27427847236686 104.46673326671589,83.00837651499023 108.43716283713002,83.25863719006884 110.6093906093156,84.11890598546597 115.42857142857974,84.22839448839659 110.55184815189568,84.16582963657856 108.39400599396322,83.30556103341223 104.45234765228815,83.00837651499023 103.977622377628,83.27427847236686 103.30149850144517,84.77583614661125 102.85554445552407,84.77583614661125 98.13706293702126,82.67990892629314 92.91508491511922,79.77060213603545 92.61298701300984,79.86445137146802 90.78601398604224,79.28571375132015 84.57142857142026,78.40978350779915 89.77902097901097,79.03544834039349 92.88631368632196,79.72367750259582 97.5328671328607,82.28887541255972 103.14325674320571,84.83840081664675 103.47412587411236,84.65070675055904 104.15024975029519,83.07094171171775 105.61758241755888,83.10222430310387 104.19340659340378,83.13350688981882 103.25834165833658,84.82275965089502 97.77742257743375,82.58606094942661 93.00139860139461,79.80188521915989 91.31828171829693,79.3169969067385 86.78681318683084,78.69133291322214" stroke="#4DD2FF" stroke-linecap="round" stroke-linejoin="round" stroke-width="0.5"><title>2025-01-14 7.8km</title><desc>1736829619000</desc></polyline><polyline fill="none" points="125.21953488374129,78.83034257937106 124.97554817277705,78.48702734388644 125.5496345514548,78.54944833763875 130.37196013290668,80.0943620053149 133.34285714285215,81.56123918372032 134.66325581399724,82.48193344192987 139.44252491695806,84.66661548764387 139.75827242521336,84.57298672446632 140.4041196013568,83.10613063718483 140.8203322258778,82.85645198228303 144.70976744184736,83.10613063718483 146.57554817281198,83.87076966643508 147.91029900335707,84.04242294242431 151.8571428571595,84.04242294242431 146.84823920269264,83.91758421021223 144.72411960136378,83.10613063718483 140.86338870436884,82.84084705644636 140.44717607973143,83.01250117646123 139.77262458472978,84.57298672446632 139.3707641196088,84.58859152124205 134.56279069761513,82.51314334587369 130.1710299003753,80.10996713573695 127.96079734218074,79.18926245113835 121.0,78.20613264176063 128.04691029898822,79.22047284569999 130.1710299003753,80.01633633568417 134.0174086378538,82.18543912260793 139.39946843852522,84.6198011112574 139.74392026581336,84.5261723271542 140.3180066444911,83.1217355432018 140.73421926918672,82.85645198228303 144.8389368770877,83.1217355432018 146.99176079733297,83.93318905579508 151.71362126246095,84.05802777875215 146.89129568106728,83.8863745155104 144.738471760822,83.07492082160024 140.7198671096703,82.84084705644636 140.37541528238216,83.04371100132994 139.70086378743872,84.6198011112574 139.15548172756098,84.57298672446632 138.42352159466827,84.07363261388673 134.36186046508374,82.45072353335854 129.2524916943512,79.56378687896358 127.7168106312165,79.14244685057201 121.05740863789106,78.19052736948652 129.28119601326762,79.54818170785438 134.39056478405837,82.35709377967578 138.46657807310112,84.04242294242431 139.41382059804164,84.65101069670345 139.74392026581336,84.55738192649733 140.37541528238216,83.02810608949221 140.77727574750315,82.84084705644636 144.6380066444981,83.04371100132994 146.63295681058662,83.83955996479199 147.8385382060078,83.9643987435411 146.57554817281198,83.83955996479199 144.59495016612345,83.04371100132994 140.80598006641958,82.79403227206785 140.4041196013568,82.9812913469359 139.75827242521336,84.4949627231399 139.24159468436847,84.5105675257073 137.90684385382337,83.77714054750686 134.39056478405837,82.4195136201015 129.23813953483477,79.56378687896358 127.25754152826266,79.06442082636931" stroke="yellow" stroke-linecap="round" stroke-linejoin="round" stroke-width="0.5"><title>2025-01-10 13.0km</title><desc>1736482744000</desc></polyline><polyline fill="none" points="160.3845126836095,77.95590162652661 161.79759679577546,78.91227125342994 164.2488651535241,79.38261537707876 166.65687583445106,80.30762242000492 169.2667556742672,81.85974374636135 176.0149532710784,84.90124123063288 176.33217623498058,84.65039774043544 176.46194926573662,83.2707531999331 176.64939919894096,83.03558561469254 181.1914552737726,83.33346451162652 183.5706275033881,84.2114209131687 188.2136181576061,84.32116520580894 183.36875834449893,84.16438762735925 181.1914552737726,83.34914233663585 176.73591455281712,83.01990776634193 176.44753004011,83.34914233663585 176.33217623498058,84.71310864100815 176.0149532710784,84.90124123063288 170.85287049401086,82.70635055382445 165.77730307081947,79.86863653370528 164.1911882510176,79.38261537707876 157.42857142857974,78.44192607846344 164.56608811754268,79.4139716146019 165.27263017359655,79.80592418948072 165.76288384513464,79.80592418948072 170.93938584782882,82.64363905522623 175.79866488656262,84.83853038607049 176.2889185581007,84.71310864100815 176.43311081448337,83.2864310296427 176.69265687587904,83.05126346184989 181.1914552737726,83.34914233663585 183.6859813084593,84.2114209131687 188.28571428573923,84.27413194453402 183.2966622163658,84.1487098630605 181.17703604808776,83.2864310296427 176.75033377838554,83.05126346184989 176.5052069426165,83.20804186954047 176.49078771698987,84.32116520580894 176.115887850523,84.88556352122396 170.75193591462448,82.65931693164748 165.8061415220145,79.85295844942448 164.090253671573,79.38261537707876 157.42857142857974,78.39489150316513 162.47530040051788,79.03769645588181 165.70520694262814,79.77456801035441 170.44913217629073,82.42414866309264 175.82750333781587,84.83853038607049 176.2312416556524,84.7287863632082 176.54846461955458,83.94489882128255 176.2312416556524,84.80717495684803 175.59679572767345,84.71310864100815 170.83845126844244,82.67499480684637 165.77730307081947,79.75888991904503 165.44566088117426,79.83728036390676 164.33538050734205,79.30422476280364 162.50413885188755,79.10040902903711" stroke="yellow" stroke-linecap="round" stroke-linejoin="round" stroke-width="0.5"><title>2025-01-08 12.0km</title><desc>1736310892000</desc></polyline><polyline fill="none" points="15.003406131058,113.81638505739102 15.436185133235995,113.12622455586097 15.493889000208583,112.4517473342712 15.767982368241064,112.21646407415392 16.0853536365903,112.2792063025554 15.94109396910062,112.38900515728164 17.340412742923945,112.9223130656028 18.06171107996488,113.51836148201255 21.019034261698835,114.55359945753298 25.923862953321077,117.20441288615984 30.33820877573453,119.16505223438435 30.62672811053926,118.88272129345569 30.670006010797806,117.58085705722624 31.073933079547714,117.31420917225478 35.488278902019374,117.62791253130126 37.79643358045723,118.50627945001179 42.571428571420256,118.60038997400261 37.76758164697094,118.47490926604951 35.545982768933754,117.6592828414723 31.016229212575126,117.36126470589079 30.713283910998143,117.6749679948116 30.670006010797806,118.88272129345569 30.42476457619341,119.21210735441127 25.015027048706543,116.90639410671429 20.066920456825756,114.13009362829325 19.518733720644377,114.13009362829325 18.508916048915125,113.64384514412086 11.714285714260768,112.7811434566247 18.710879583260976,113.78501417455846" stroke="#4DD2FF" stroke-linecap="round" stroke-linejoin="round" stroke-width="0.5"><title>2025-01-06 5.2km</title><desc>1736137119000</desc></polyline><polyline fill="none" points="52.136982643511146,113.34692872670712 52.20907877164427,112.75115777223255 52.68491321767215,112.04563735512784 53.030974632827565,113.2685379080358 52.54072096128948,113.59777915026643 53.449132176232524,113.55074471863918 56.448331108142156,114.2719381818024 60.514552736945916,116.18465670049773 61.2787716955645,116.8588074446161 66.75807743653422,119.28886778563901 67.08971962612122,119.08505735115614 67.14739652868593,117.76812363183126 67.42136181570822,117.51727817954088 72.16528704942903,117.84651277438388 74.44352469954174,118.70879141511978 79.0,118.78718020729139 74.2560747663374,118.67743589010206 72.00667556741973,117.79947929238551 67.47903871827293,117.51727817954088 67.20507343125064,117.75244579986611 67.10413885180606,119.08505735115614 66.81575433909893,119.36725636174378 61.63925233646296,117.2350766882737 57.40000000002328,114.83634873320989 55.26595460617682,113.974054224891 48.14285714284051,112.86090518007404 52.98771695588948,113.45667582380702 56.419492656888906,114.22490390086023 60.77409879839979,116.63931674178457 65.8064085446531,118.83421346855175 66.58504672895651,119.3829340734519 67.0753004004946,119.0380241459352 67.20507343125064,117.67405662227247 67.40694259002339,117.47024462393892 70.6080106808804,117.84651277438388 72.00667556741973,117.76812363183126 74.32817089447053,118.66175812581787 78.98558077437337,118.74014693548088 73.93885180237703,118.58336928696372 71.92016021365998,117.79947929238551 67.52229639521101,117.47024462393892 67.20507343125064,117.70541229682567 67.16181575425435,118.99099093023688 66.84459279035218,119.30454550321156 61.711348464596085,117.21939881658182 57.428838451218326,114.74228041307651 55.65527369827032,114.06812288844958 48.330307076103054,112.93929615060915" stroke="#4DD2FF" stroke-linecap="round" stroke-linejoin="round" stroke-width="0.5"><title>2025-01-03 9.5km</title><desc>1735878536000</desc></polyline><polyline fill="none" points="87.64991636003833,112.72064457376837 89.4565406490583,113.22352058913384 91.52331883570878,113.41209878577502 92.52057544334093,113.91497315255401 92.89635329542216,113.86782873159973 97.18889260623837,116.24075150367571 102.95563733688323,118.89650758508651 103.38922716630623,118.81793539994396 103.98179993306985,117.38791651665815 104.41538976249285,117.13648362303502 108.2887922382215,117.3722019695706 110.58681833394803,118.23650032018486 115.42857142852154,118.37793062221317 110.94814319169382,118.25221480288019 108.46222816989757,117.45077469325042 104.44429575110553,117.21505643444834 103.98179993306985,117.46648923447356 103.21579123457195,118.95936531212647 97.60802944132593,116.602187728844 92.88190030108672,113.96211756298726 92.50612244900549,113.99354716404923 91.34988290403271,113.44352846882248 89.71669454668881,113.36495425240719 84.57142857142026,112.46920611645328 91.46550685848342,113.427813627859 93.50337905652123,114.38641678252316 91.59558380732778,113.47495814716967 87.36085647373693,112.83064880456368" stroke="#4DD2FF" stroke-linecap="round" stroke-linejoin="round" stroke-width="0.5"><title>2025-01-02 5.6km</title><desc>1735817809000</desc></polyline><polyline fill="none" points="124.56154873163905,112.84522561453923 127.99332443258027,113.4096389413753 129.0026702269679,113.9426945822197 129.96875834447565,114.11515347103705 135.21735647536116,116.99989938344515 139.64405874500517,118.9125895453908 140.01895861141384,118.5206462561764 140.4371161548188,117.47023464155791 140.94178905209992,117.21938930136093 144.64753004006343,117.34481200884329 147.35834445926594,118.3325132181053 151.8571428571595,118.363868736109 150.0979973297217,118.47361301240744 147.09879839781206,118.2854799322813 144.8493991989526,117.40752333456476 140.95620827772655,117.18803361282335 140.50921228306834,117.36048984204535 139.84592790389434,118.84987866814481 139.6008010681253,118.9596226910071 132.5353805073537,115.8554125308874 129.2910547396168,113.9426945822197 128.82963951939018,113.97405075436109 127.83471295062918,113.47235143980652 121.0,112.45327102464216 127.31562082777964,113.33124829207372 128.9449933244614,113.91133840543625 129.2910547396168,113.81726984704437 133.9196261682664,116.41981778401532 139.6008010681253,118.97530040392303 140.5524699599482,117.31345633900492 140.94178905209992,117.15667791962915 142.0376502002473,117.29777850229584 140.52363150863675,117.28210066445172 139.84592790389434,118.8185232225369 139.58638184244046,118.89691182781826 134.352202937298,116.6863419606816 129.5073431241326,113.9897288386419 128.85847797064343,113.9426945822197 127.70493991987314,113.42531706774025 126.4648865153431,113.47235143980652 121.43257676903158,112.50030561399763 124.60480640857713,113.09607616892026" stroke="#4DD2FF" stroke-linecap="round" stroke-linejoin="round" stroke-width="0.5"><title>2024-12-31 8.0km</title><desc>1735619151000</desc></polyline><polyline fill="none" points="161.72550066758413,113.06472006339754 162.77810413890984,113.09607636397413 165.7917222964461,113.80159189237747 167.55086782382568,114.74227558405255 168.0555407209904,115.25964982200821 176.13030707614962,118.91258930711774 176.8945260347682,117.42320103575184 177.3271028037998,117.1880335030437 181.32122830447042,117.40752320839965 183.31108144193422,118.20709091352182 188.2712950601126,118.33251302300778 183.49853137525497,118.28547974073444 181.29238985315897,117.42320103575184 177.34152202948462,117.1880335030437 176.92336448602146,117.37616755020281 176.0582109480165,118.9753001609788 171.18451268359786,116.89015425098478 166.77222963958047,114.46007091806678 164.20560747664422,113.44099536228168 157.42857142857974,112.45327126758639 162.87903871829621,113.15878895115748 165.74846461956622,113.81726998837257 171.18451268359786,116.7647312819172 175.92843791726045,118.95962244925613 176.2889185581007,118.81852299127786 176.8945260347682,117.40752320839965 177.3847797063063,117.14099996496225 181.23471295065247,117.37616755020281 183.5706275033881,118.23844644791097 188.28571428573923,118.25412421333021 183.743658211024,118.26980197762896 181.22029372496763,117.40752320839965 177.31268357811496,117.1566778121196 176.8945260347682,117.37616755020281 176.26008010684745,118.80284526787 176.02937249670504,118.91258930711774 170.80961281713098,116.71769764921919 165.86381842463743,113.94269471417647 163.7009345794795,113.40963911307335 157.65927903872216,112.5316622381215 164.01815754343988,113.39396098670841 165.3447263017879,113.9270166275528 165.9070761015173,113.86430426931474 170.4923898531706,116.40413982934842 165.83497997332597,113.89566045076936 161.4803738318151,113.08039821425336" stroke="yellow" stroke-linecap="round" stroke-linejoin="round" stroke-width="0.5"><title>2024-12-30 10.8km</title><desc>1735533491000</desc></polyline><polyline fill="none" points="16.04637526650913,147.2927817528107 18.867270788934547,147.76224843872478 19.65884861408267,148.2160652376333 20.061833688698243,148.16911871770571 20.882196162070613,148.51339295350772 24.408315565029625,150.5164318603638 30.136460554320365,153.14539143860748 30.553837953077164,153.1610399090132 31.158315564971417,151.67443001485663 31.633262260176707,151.4084039766458 35.41844349674648,151.65878143369628 37.67803837946849,152.53510018327506 42.571428571420256,152.61334275102126 37.86513859278057,152.53510018327506 35.56236673775129,151.69007859488192 31.575692963728216,151.43970117511344 31.187100213195663,151.67443001485663 30.68336886994075,152.94196121716232 30.29477611934999,153.2236337790091 24.912046908284537,150.95459407499584 21.083688699349295,148.76377386153035 18.896055437100586,147.87179051445855 11.714285714260768,146.74506929298514 18.65138592751464,147.74659956610412 21.414712153491564,148.76377386153035 24.321961620473303,150.5164318603638 30.251599147042725,153.25493070701486 30.539445628935937,153.17668837824021 31.201492537278682,151.69007859488192 31.604477611894254,151.50229555800615 35.533582089527044,151.7213757513673 37.692430703609716,152.55074869914097 42.52825159911299,152.59769423976832 41.06023454159731,152.7228822968318 37.76439232402481,152.55074869914097 35.519189765444025,151.65878143369628 31.61886993603548,151.43970117511344 31.21588486141991,151.6118356832303 30.553837953077164,153.1297429670085 30.122068230237346,153.1923368463613 25.458955223846715,151.1580262211064 23.933368869882543,150.21910697990097 18.867270788934547,147.8091950496164 12.448294243018609,146.9015587129834" stroke="#4DD2FF" stroke-linecap="round" stroke-linejoin="round" stroke-width="0.5"><title>2024-12-27 9.1km</title><desc>1735273142000</desc></polyline><polyline fill="none" points="72.95834445918445,151.85785474946897 71.83364485972561,151.54429828443972 70.63684913207544,151.68539875152055 67.82510013342835,151.41887556767324 66.83017356472556,153.2061422255938 61.59599465946667,151.07396271095786 56.405073431145865,148.2205710317503 55.986915887799114,148.267605274159 54.86221628834028,147.76590614652378 48.14285714284051,146.69979152864835 52.84352469956502,147.4523435843439 53.30493991984986,147.37395287078107 56.60694259009324,148.20489294860454 60.28384512674529,150.05489869556914 60.83177570090629,150.55659236600331 66.51295060076518,153.15910908694786 66.93110814411193,153.12775365535344 67.50787716946797,151.68539875152055 67.96929238981102,151.403197722786 71.94899866479682,151.6540431003814 74.38584779697703,152.56335508762277 78.99999999994179,152.68877712237008 73.91001335106557,152.46928851252596 72.12202937243273,151.70107657535118 67.95487316412618,151.41887556767324 67.65206942585064,151.51294261225848 67.00320427236147,153.17478680096974 66.71481975959614,153.30020847135165 65.4747663551243,152.56335508762277 61.42296395183075,150.96421759256918 56.67903871828457,148.18921486432373 53.420293724921066,147.4523435843439 50.002937249606475,146.99767703918042" stroke="#4DD2FF" stroke-linecap="round" stroke-linejoin="round" stroke-width="0.5"><title>2024-12-25 6.6km</title><desc>1735101299000</desc></polyline><polyline fill="none" points="87.7754911131924,146.97132739138033 87.66002939990722,147.25379846697615 87.84765468392288,147.19102714958717 88.12187625281513,146.73593453894136 89.00227181607625,147.34795540799678 89.98369637841824,147.3950338627037 93.00013363623293,148.16398046698305 98.34023787250044,151.08281345335126 103.24736068426864,153.20129593476304 103.4494186823722,153.18560355027148 104.05559267674107,151.69482169197 104.50300681550289,151.4594341183256 108.37097420817008,151.67912919522496 110.86783375655068,152.62067692965502 115.42857142857974,152.69913905092108 110.65134304424282,152.57359964289935 108.22664706670912,151.66343669735943 104.37311238812981,151.47512663139787 104.05559267674107,151.63205169803405 103.4061205398757,153.10714161020587 103.14633168512955,153.15421877775225 97.82066016306635,150.95727308202186 93.82279834290966,148.63476271668333 91.55686222104123,147.7245827511506 84.57142857142026,146.75162740398082 86.93839369231137,147.11256297653017 88.06414539623074,147.08117729911464 92.03314178803703,147.865817831218 93.83723105705576,148.57199181086617 98.78765201120405,151.30250892307959 103.01643725781469,153.18560355027148 103.4638513965183,153.13852638975368 104.18548710411415,151.53789667207457 105.65762394759804,151.53789667207457 104.22878524655243,151.4908191433351 103.3916878257296,153.26406546105864 98.19591073098127,151.11419853447296 95.39596418547444,149.46647545299493 91.7011893625604,147.8344322660414 84.61472671385854,146.76732026781247 90.54657223034883,147.6147331789689" stroke="#4DD2FF" stroke-linecap="round" stroke-linejoin="round" stroke-width="0.5"><title>2024-12-18 8.3km</title><desc>1734495982000</desc></polyline><polyline fill="none" points="124.25266524526523,145.68876001652097 123.72014925372787,145.8139528677566 123.90724946698174,145.65746179201233 123.72014925372787,145.78265466194716 123.6050106609473,145.61051444654004 123.66257995739579,145.76700555728166 124.82835820893524,146.58075745341193 127.37579957355047,147.70748564277892 127.98027718556114,148.66207007342018 128.65671641787048,149.1941316435259 129.40511727082776,149.30367356416536 134.68710021319566,152.15174344896514 139.46535181242507,154.2955947554874 139.81076759059215,154.31124322471442 140.48720682307612,152.80898486133083 140.9045842217747,152.5742560215731 144.9056503198226,152.82463344135613 147.42430703633,153.70095206034603 151.8571428571595,153.7791946163925 147.03571428573923,153.70095206034603 144.9056503198226,152.84028202015907 140.83262260135962,152.58990461903159 140.41524520260282,152.82463344135613 139.6956289978698,154.3738370900246 132.62899786781054,151.4162565730221 132.13965884858044,150.93114679849532 130.36940298514673,149.92962630047987 128.2393390192301,149.08458966574108 121.0,147.9109220327664 127.87953091686359,148.8185589104105 129.0884861407685,149.35062008409295 129.34754797443748,149.27237587836862 134.74466950964415,152.21433795777557 138.45788912579883,153.68530354561517 139.4797441365081,154.31124322471442 139.86833688704064,154.2173523917445 140.58795309165725,152.71509335689188 142.0847547974554,152.66814758897817 140.67430703621358,152.76203911437187 139.92590618337272,154.38948555347451 139.278251599113,154.3425401597342 134.39925373136066,152.24563520522497 133.06076759065036,151.36931051476859 128.19616204692284,149.0063453609182 121.11513859272236,148.02046462266298 127.98027718556114,148.84985666381544" stroke="#4DD2FF" stroke-linecap="round" stroke-linejoin="round" stroke-width="0.5"><title>2024-12-17 8.6km</title><desc>1734409492000</desc></polyline><polyline fill="none" points="161.23346900648903,147.16362336896418 164.3177420431166,147.64941871342307 165.44191632751608,148.1822252203856 165.81664108898258,148.0725298734178 171.16367518523475,151.01861361392366 176.02068459335715,153.11845662540873 176.28010942816036,153.08711583905097 176.94308400613954,151.5357410771685 177.3033962768386,151.3320243494818 181.4830186161562,151.62976411568525 183.57282978587318,152.42895824649895 188.28571428573923,152.5073104488547 187.82451457931893,152.66401476596366 183.55841729498934,152.5073104488547 181.09388136386406,151.5984231075272 177.38987122179242,151.44171799658216 176.82778407959267,151.78646908655355 176.2080469740904,153.11845662540873 175.9630346300546,153.19680857093772 171.59604990988737,151.34769487396989 165.73016614402877,148.2135667375842 164.96630413032835,148.1195421719749 164.15920464409282,147.64941871342307 157.42857142857974,146.72483951275353 164.26009207987227,147.63374791337992 165.22572896507336,148.15088369854493 165.7878161073313,148.1038714069582 171.12043771269964,151.0029430649156 175.9197971575777,153.1027862328192 176.32334690063726,153.07144544407493 176.81337158870883,151.73945760756033 177.3033962768386,151.36336539733747 181.5262560886913,151.62976411568525 183.52959231339628,152.42895824649895 188.19923934078543,152.55432175619353 183.7890171481995,152.5073104488547 181.26683125377167,151.5984231075272 177.28898378601298,151.41037696038256 176.9286715153139,151.58275260169466 176.17922199243912,153.19680857093772 171.0195502769202,151.08129579838715 165.7445786348544,148.2135667375842 164.46186695137294,147.7591142810852 157.60152131848736,146.75618124715402 164.2312670981628,147.64941871342307 165.2401414559572,148.15088369854493 165.85987856145948,148.16655446004006 171.7257623273763,151.28501276890165 175.9197971575777,153.14979740710987 176.32334690063726,153.08711583905097 176.81337158870883,151.48872954213584 178.48522052454064,151.52007056665025 176.95749649702339,151.55141158647893 176.23687195568345,153.27516048723191 170.9763128044433,151.0656252540357 165.80222859809874,148.19789597958152 165.34102889173664,148.2135667375842 164.20244211651152,147.66508951230207 157.60152131848736,146.81886470186873 164.10155468073208,147.63374791337992" stroke="yellow" stroke-linecap="round" stroke-linejoin="round" stroke-width="0.5"><title>2024-12-15 13.0km</title><desc>1734235831000</desc></polyline><polyline fill="none" points="14.765458422130905,181.1325014763861 14.765458422130905,181.30463975500606 16.06076759059215,181.69586259081552 17.802238805918023,182.05578695615986 18.708955223846715,181.99319145864865 19.58688699355116,182.49395491625182 20.090618336806074,182.50960375506838 26.049040511716157,185.6862938931008 30.323560767632443,187.50152383072418 30.59701492532622,187.48587536379637 31.172707889112644,186.09315713960677 31.60447761195246,185.81148266825767 35.57675906189252,186.01491426881694 37.86513859278057,186.89123275721795 42.571428571420256,186.98512380702596 37.778784648224246,186.89123275721795 35.69189765461488,186.03056284527702 31.532515991537366,185.74888829000702 31.12953091680538,185.9366713688505 30.438699360354804,187.5328207610146 25.415778251597658,185.48286197432026 20.7382729210658,182.86952672594634 18.608208955207374,182.0401380835392 11.714285714260768,181.03860781042022 15.369936034025159,181.41418222249195 18.608208955207374,181.94624482330983 20.061833688640036,182.41571070472128 24.48027718544472,184.82561904408794 28.898720682307612,186.76604462556134 29.992537313431967,187.45457842646283 30.58262260130141,187.39198453781137 31.11513859272236,186.09315713960677 31.561300639703404,185.7801854815043 35.504797441361006,185.95231995113136 37.64925373141887,186.8442872165906 39.28997867804719,186.85993573132146 37.53411513858009,186.79734166547132 35.47601279313676,185.98361711233156 31.71961620473303,185.74888829000702 31.12953091680538,185.9210227853473 30.409914712188765,187.47022689568985 25.142324093787465,185.3263757488894 20.090618336806074,182.54090142917994 18.579424306983128,182.0401380835392 16.305437100178096,181.75845817690424" stroke="#4DD2FF" stroke-linecap="round" stroke-linejoin="round" stroke-width="0.5"><title>2024-12-13 8.5km</title><desc>1734064159000</desc></polyline><polyline fill="none" points="51.48073419253342,181.48057440923003 54.65827653685119,181.94018023663375 56.84465888381237,182.62166291147878 61.39233416557545,185.18908966127492 66.47931709291879,187.43952466176415 66.88744179764763,187.4553727111488 67.54335650178837,185.94980274749105 67.9514812065172,185.74377655524586 71.95984884270001,185.94980274749105 73.9713206019369,186.77390552121506 79.0,186.86899409738544 74.45232471823692,186.83729791002406 71.81409001955763,185.93395458592568 67.8494500304223,185.72792837832822 67.42674944322789,185.8705619279499 66.94574532692786,187.23349991222494 66.59592415147927,187.55046098270395 65.5610365071916,186.96408263102057 61.377758283226285,185.33172357216245 57.15075241244631,182.90693408057268 54.90606653620489,182.13036166784877 57.136176530097146,182.84354052050912 59.818138875765726,184.46007040102268 65.59018827183172,186.94823454500875 66.43558944598772,187.5029168522451 66.8582900330075,187.40782855942962 67.51420473714825,185.68038384057581 66.8291382684256,187.36028439707297 66.46474121062784,187.4553727111488 61.53809298865963,185.36341998379794 56.29077535599936,182.4156334958534 55.780619475001004,182.43148191951332 54.49794183141785,181.90848331490997 48.14285714284051,181.0209675887163" stroke="#4DD2FF" stroke-linecap="round" stroke-linejoin="round" stroke-width="0.5"><title>2024-12-11 6.6km</title><desc>1733890893000</desc></polyline><polyline fill="none" points="88.3130016051,181.63118773866154 91.62118780100718,182.00816758870496 92.3434991973918,182.4322691142297 92.93579454254359,182.4165616655373 98.36757624399615,185.41666313205496 103.22150882822461,187.52142087918764 104.01605136442231,185.8878793784388 104.43499197432538,185.69939300627448 108.58105939003872,185.95070813177153 110.7046548956423,186.78318734526692 115.38523274485487,186.8931371843355 110.87800963089103,186.78318734526692 108.62439807388,186.02924404702208 104.13162118778564,185.84075780119747 103.33707865164615,187.56854208084405 98.26645264850231,185.44807758125535 96.80738362763077,184.4585201832233 92.89245585876051,182.5108063401567 92.57463884435128,182.5893435368198 91.33226324239513,182.08670497260755 84.71589085069718,181.1442544346355 90.20545746386051,181.77255526142835 92.89245585876051,182.40085421568074 96.67736757622333,184.27003253318253 98.25200642057462,185.32241975639772 103.10593900486128,187.49000673892442 103.40930979134282,187.3800572110922 104.04494382021949,185.9821225013584 104.43499197432538,185.69939300627448 106.96308186196256,185.95070813177153 108.2487961477018,185.84075780119747 110.77688603533898,186.79889446866582 115.42857142857974,186.87743006799428 110.53130016051,186.76748022071843 108.55216693424154,185.9821225013584 104.40609951847,185.71510021042195 104.04494382021949,185.85646499480936 103.53932584263384,187.27010762592545 103.2648475120659,187.50571380965994 98.75762439810205,185.620856968133 96.05617977527436,184.0030080738652 92.86356340290513,182.4322691142297 90.55216693424154,181.8510927331081 84.57142857142026,181.00288649059075 91.9534510433441,182.07099749818735 102.87479935796,187.4114713677409 103.40930979134282,187.31722888369404 104.04494382021949,185.6836858009774 103.4382022471982,187.3800572110922 103.13483146065846,187.4428855197475 98.42536115570692,185.44807758125535 92.90690208674641,182.38514676464547 87.86516853934154,181.53694267082028" stroke="yellow" stroke-linecap="round" stroke-linejoin="round" stroke-width="0.5"><title>2024-12-09 12.1km</title><desc>1733738831000</desc></polyline><polyline fill="none" points="133.84017772990046,184.87864846082812 139.64225124544464,187.50324041330896 140.31116197648225,185.98540806105302 140.83465733128833,185.70081328651577 144.58637404057663,185.85892154170142 146.86939544900088,186.76013634711853 151.85714285710128,186.93405455327593 147.34926619089674,186.83919009486272 144.83358018036233,185.9695972502377 140.87828194425674,185.7640566027403 140.38386966468534,185.92216481083597 139.67133432073751,187.53486180525215 135.07620842865435,185.62175911480153 129.23051030025817,182.45956809693598 128.7070149454521,182.4753791692492 128.03810421435628,182.03266869964136 123.89376598899253,181.4792793138622 123.37027063418645,181.22630082828982 123.12306449440075,181.43184587078576 121.30537229031324,181.1472449896828 125.60966742964229,181.58995730645256 129.23051030025817,182.39632379596878 133.04039316013223,184.27783368936798 134.11646694492083,185.06837908791204 139.4241281809518,187.50324041330896 139.77312508405885,187.3609440914297 140.38386966468534,185.89054317864066 140.71832503029145,185.6375699515047 142.0125218795729,185.85892154170142 144.80449710512767,185.87473236075311 147.1311431264039,186.77594709904224 151.75535209366353,186.87081158570072 147.01481082534883,186.7285148397932 144.80449710512767,185.90635399530584 140.820115793671,185.7324349470291 140.22391275077825,186.23838087356125 139.65679278306197,187.53486180525215 134.24734078365145,185.19486607839644 129.21596876258263,182.45956809693598 128.88151339703472,182.52281237905845 127.00565504236147,181.90617982440745 121.0,181.03656676618266 127.28194425749825,181.90617982440745 128.7506395583041,182.44375702347315 129.30321798840305,182.42794594883162 131.1790763430763,183.45566335102194" stroke="#4DD2FF" stroke-linecap="round" stroke-linejoin="round" stroke-width="0.5"><title>2024-12-06 9.2km</title><desc>1733479157000</desc></polyline><polyline fill="none" points="160.55900621117325,181.50158450166055 164.48286916449433,181.97214844492555 165.31957523542223,182.48976756766206 165.78120617114473,182.3956550945295 171.1620917652035,185.40723336744122 175.8649569224799,187.49335347853776 176.34101382491644,187.3521881080087 176.84592266078107,186.0032697940187 177.39410939696245,185.78367762263224 181.28912041673902,185.9718994978175 183.4818673612317,186.80321076724795 188.28571428573923,186.96006158208183 183.5395712282625,186.80321076724795 181.26026848325273,186.01895494032942 177.3219795632176,185.7679924587428 176.81707072729478,186.08169551398896 176.09577239031205,187.52472354803467 170.77259066322586,185.26606659822573 169.56080945709255,184.4347492595407 165.79563213780057,182.5211383826827 165.37727910239482,182.5525091930176 164.32418353034882,182.05057566653704 157.42857142857974,181.04670502340014 164.32418353034882,182.0348902245314 166.48807854141342,182.9446439279418 165.85333600483136,182.5211383826827 160.5734321778873,181.517269983422" stroke="#4DD2FF" stroke-linecap="round" stroke-linejoin="round" stroke-width="0.5"><title>2024-12-03 5.6km</title><desc>1733220329000</desc></polyline><polyline fill="none" points="15.74225774226943,215.94367964444973 18.66253746248549,216.2565115945763 19.65514485508902,216.83524947341357 20.921078921062872,216.99166484248417 22.28771228773985,217.8832302208466 24.15784215781605,218.5870949504024 25.351848151825834,219.50993624283 30.487512487510685,221.7622776202188 31.134865134838037,220.3702083708049 31.65274725278141,220.02609994262457 35.580019980086945,220.24507809853822 37.996803196845576,221.13662966125412 41.37742257746868,221.10534721436852 42.571428571420256,221.19919454107003 42.211788211832754,221.29304182578926 37.85294705291744,221.16791210346855 35.580019980086945,220.3076432440139 31.638361638353672,220.08866515332193 31.206793206802104,220.292001959373 30.54505494510522,221.77791879529832 30.228571428568102,221.80920114199398 24.905894105904736,219.52557758573676 22.02877122873906,217.8832302208466 18.5330669330433,216.3190779286524 11.714285714260768,215.36493930775032 18.77762237767456,216.28779476393538 20.820379620417953,217.2262876775494 18.504295704246033,216.3660026669968 11.743056942999829,215.33365600086108 15.914885114878416,215.9123964237806" stroke="#4DD2FF" stroke-linecap="round" stroke-linejoin="round" stroke-width="0.5"><title>2024-12-02 6.1km</title><desc>1733112856000</desc></polyline><polyline fill="none" points="48.14285714284051,214.32164278136042 49.05714285711292,214.70272214750003 51.160000000032596,217.51937547100533 50.97714285715483,217.33712251199177 51.373333333351184,217.32055405374558 51.89142857142724,216.6909517263848 53.78095238097012,216.97261614582385 54.481904761865735,217.43653323542094 55.88380952377338,217.71819671046978 57.392380952311214,218.66259517060826 59.22095238091424,219.35846515389858 60.180952380935196,220.20344720625144 65.66666666668607,222.70523798794602 66.10857142857276,222.70523798794602 66.77904761896934,221.1644032857148 67.22095238091424,220.94901693926658 71.44190476188669,221.1644032857148 74.0476190475747,222.092219008744 79.0,222.14192331326194 74.07809523807373,222.12535521297832 71.4571428571362,221.1975396281632 67.26666666666279,220.98215331383108 66.80952380946837,221.18097145753563 65.98666666663485,222.8212143615092 60.74476190470159,220.61765292205382 57.19428571430035,218.61289008850872 53.64380952378269,216.9891846299579 49.33142857142957,216.4755610472639" stroke="#4DD2FF" stroke-linecap="round" stroke-linejoin="round" stroke-width="0.5"><title>2024-11-29 4.6km</title><desc>1732853630000</desc></polyline><polyline fill="none" points="87.18468899524305,217.57616389276518 86.96322624746244,217.704588674329 87.90813397133024,217.72064176660206 87.09610389615409,217.62432319483196 87.83431305538397,217.6885355807899 87.7457279562368,217.91327878103766 88.92686261108611,216.38823103473987 91.70252904988592,216.19559265681892 92.58838004100835,216.67718827869976 93.84333561174572,216.9340388368728 98.75980861246353,219.74332182874787 103.69104579626583,221.8783524074097 104.42925495561212,220.32122693052224 104.87218045111513,220.11253915588895 109.06520847580396,220.32122693052224 111.19125085440464,221.18808167718817 115.42857142857974,221.23624017198745 111.27983595355181,221.15597600801266 108.75516062887618,220.27306823123945 104.81312371842796,220.04832749227353 104.4587833219557,220.25701532905805 103.69104579626583,221.86229962481593 98.46452494873665,219.74332182874787 93.06083390297135,216.72534778167028 91.43677375261905,216.2276990650862 84.57142857142026,215.26450473544537 91.58441558445338,216.19559265681892 92.4850307587767,216.66113510863215 93.4299384825863,216.7895604355581 97.23909774440108,218.81224923796253 91.5401230349089,216.25980546858045 87.83431305538397,215.76215567672625" stroke="#4DD2FF" stroke-linecap="round" stroke-linejoin="round" stroke-width="0.5"><title>2024-11-28 6.3km</title><desc>1732767063000</desc></polyline><polyline fill="none" points="121.20709491852904,214.88421949127223 125.76318312564399,215.65357091411715 126.79865771817276,216.1977448916441 127.2818791946629,216.1602156895824 132.02780441037612,218.48701564403018 133.66730584850302,219.57535017964256 139.6730584851466,222.20234520094527 140.51869606907712,220.3822158514231 141.13998082460603,220.04445844286238 145.71332694147713,220.28839439446165 147.81879194633802,221.1703147100634 149.64813039306318,221.4705421980907 151.8571428571595,221.41424957131676 148.52636625117157,221.35795693199907 146.0239693192998,220.3822158514231 141.31255992333172,220.13827999072964 140.60498561838176,220.4197444244055 139.6730584851466,222.25863765158283 133.13231064239517,219.50029277638532 127.2818791946629,216.1602156895824 126.85043144779047,216.25403868430294 125.3662511985167,215.597276987246 121.0,215.01557233963103" stroke="#4DD2FF" stroke-linecap="round" stroke-linejoin="round" stroke-width="0.5"><title>2024-11-25 4.0km</title><desc>1732507947000</desc></polyline><polyline fill="none" points="157.42857142852154,213.29377594208927 163.71887181838974,214.10159080929589 165.42765420780051,215.09789332540822 166.36872277013026,214.9901850777096 168.10227012156975,215.55565302004106 169.91011235956103,216.84814785179333 173.32767713826615,218.32912583075813 175.97752808989026,220.16014476073906 181.9706489336677,222.5027583957708 183.97661086905282,223.71444914594758 184.49667507456616,223.49903775387793 185.6110983719118,220.8871644102328 188.28571428568102,220.8333111529937 185.71015822060872,220.9679442810302 184.27379041502718,223.84908120078035 176.37376748456154,220.56404474654119 166.31919284560718,215.17867449010373 165.6505388673395,215.31330972452997 168.02797523501795,215.7710691463435 169.19192845677026,216.84814785179333 171.24742031644564,217.413612887176 175.9279981654836,220.21399811824085 183.43178170151077,223.55289061390795 184.49667507456616,223.66059630995733 185.6110983719118,220.86023778267554 184.42238018801436,223.84908120078035 176.49759229528718,220.51019144122256" stroke="#4DD2FF" stroke-linecap="round" stroke-linejoin="round" stroke-width="0.5"><title>2024-11-20 4.0km</title><desc>1732095798000</desc></polyline><polyline fill="none" points="13.516880358045455,249.49850209601573 18.072528639691882,250.1577667481033 19.170472649973817,250.71012221956335 19.924284955544863,250.78139380033826 24.135801532422192,252.86607814216404 25.250132766843308,253.7213280000433 31.24785676348256,256.37614661914995 31.52643957210239,256.3405116650538 32.198315757501405,254.77256842702627 32.68993247853359,254.3983986351668 37.24558076012181,254.64784522814443 39.63811546919169,255.6099939353153 42.57142857136205,255.71689910827263 39.58895379706519,255.62781146747875 36.98338517558295,254.630027622974 32.78825582272839,254.41621625758125 32.0999924132484,254.87947397431708 31.460890675894916,256.4117815680074 25.36484333506087,253.89950466882146 20.67809726111591,251.2802942712442 18.039754191646352,250.2290384935477 11.714285714260768,249.30250414628244" stroke="#4DD2FF" stroke-linecap="round" stroke-linejoin="round" stroke-width="0.5"><title>2024-11-19 4.1km</title><desc>1731989484000</desc></polyline></svg>