<?xml version="1.0" encoding="utf-8" ?>
<svg baseProfile="full" height="300mm" version="1.1" viewBox="0,0,200,300" width="200mm" xmlns="http://www.w3.org/2000/svg" xmlns:ev="http://www.w3.org/2001/xml-events" xmlns:xlink="http://www.w3.org/1999/xlink"><defs /><rect fill="#222222" height="300" width="200" x="0" y="0" /><text fill="#FFFFFF" style="font-size:12px; font-family:Arial; font-weight:bold;" x="10" y="20">Over 4km Runs</text><text fill="#FFFFFF" style="font-size:4px; font-family:Arial" x="10" y="280">ATHLETE</text><text fill="#FFFFFF" style="font-size:9px; font-family:Arial" x="10" y="290">Fake David</text><text fill="#FFFFFF" style="font-size:4px; font-family:Arial" x="65" y="280">SPECIAL TRACKS</text><rect fill="yellow" height="2.6" width="2.6" x="65" y="283" /><text fill="#FFFFFF" style="font-size:3px; font-family:Arial" x="70" y="285.5">Over 10.0 km</text><rect fill="red" height="2.6" width="2.6" x="65" y="287" /><text fill="#FFFFFF" style="font-size:3px; font-family:Arial" x="70" y="289.5">Over 15.0 km</text><text fill="#FFFFFF" style="font-size:4px; font-family:Arial" x="120" y="280">STATISTICS</text><text fill="#FFFFFF" style="font-size:3px; font-family:Arial" x="120" y="285">Number: 27</text><text fill="#FFFFFF" style="font-size:3px; font-family:Arial" x="120" y="290">Weekly: 2.7</text><text fill="#FFFFFF" style="font-size:3px; font-family:Arial" x="141" y="285">Total: 218.0 km</text><text fill="#FFFFFF" style="font-size:3px; font-family:Arial" x="141" y="290">Avg: 8.1 km</text><text fill="#FFFFFF" style="font-size:3px; font-family:Arial" x="167" y="285">Min: 4.0 km</text><text fill="#FFFFFF" style="font-size:3px; font-family:Arial" x="167" y="290">Max: 13.0 km</text><polyline fill="none" points="12.232000000076368,46.41549867593858 22.798000000067987,47.941319524965365 25.858000000123866,47.80438724567648 25.84000000008382,49.0563368636067 27.028000000165775,49.115021855948726 28.054000000003725,49.58450132404687 28.91800000006333,48.31299249561562 36.28000000002794,48.13693694329413 36.96400000003632,48.99765185819706 37.413999999989755,48.86072012803925 37.54000000015367,48.13693694329413 37.828000000095926,47.92175777514058 44.20000000006985,48.52817134419456 39.23200000007637,47.86307251693506 37.66600000008475,48.00000476570858 37.18000000005122,48.978090186821646 36.784000000101514,48.86072012803925 36.62200000009034,48.273869049720815 36.28000000002794,48.117375208006706 28.95400000002701,48.25430732459063 28.594000000040978,48.4499245104962 28.162000000011176,49.54537806699227 25.9660000000149,49.01721352808818 25.80400000012014,48.039128252334194 23.302000000025146,48.215183869950124 13.492000000085682,46.78717379961745 11.800000000046566,46.806735633683275 13.996000000159256,46.86542112722236 22.74400000006426,48.176060409561615 25.55200000014156,48.01956650974171 25.786000000080094,48.23474559803435 25.786000000080094,48.91940516397881 28.054000000003725,49.54537806699227 28.900000000023283,48.273869049720815 36.26200000010431,48.117375208006706 36.71200000005774,48.86072012803925 37.1260000000475,48.978090186821646 37.9000000001397,47.90219602387515 43.12000000011176,48.31299249561562 38.04400000011083,47.84351076131861 37.54000000015367,48.00000476570858 37.45000000006985,48.76291170580953 37.1260000000475,48.93896683969069 36.26200000010431,48.05868999341328 28.990000000107102,48.25430732459063 28.52200000011362,48.54773304898117 28.108000000123866,49.50625480411691 25.94800000009127,48.978090186821646 25.678000000072643,47.98044302027847 23.284000000101514,48.19562214045436 13.672000000136904,46.76761196408188 12.19600000011269,46.82629746629391 13.852000000071712,46.78717379961745 16.156000000075437,47.15884839883074" stroke="#4DD2FF" stroke-linecap="round" stroke-linejoin="round" stroke-width="0.5"><title>2025-01-19 8.1km</title><desc>1737283232000</desc></polyline><polyline fill="none" points="52.08267164870631,45.054714682424674 54.79149929940468,45.43316487013362 55.941616067197174,46.02552038378781 56.78907052776776,46.04197468094935 60.814479215303436,48.14811459425255 61.31387202243786,48.60883002301853 66.23213451652555,50.714945458836155 67.33685193833662,51.40601021028124 67.63951424567495,51.22501727004419 68.29023820644943,49.69479830254568 68.71396543667652,49.447987798790564 72.69397477817256,49.64543622385827 75.2363381597097,50.550405913600116 80.20000000001164,50.6820375595853 75.13040635210928,50.550405913600116 72.83017281640787,49.61252816527849 68.7744978981791,49.41507971077226 68.30537132179597,49.59607413416961 67.6243811302702,51.22501727004419 67.41251751512755,51.323740710373386 61.9494628678076,49.03663634629629 56.60747314343462,46.0748832715617 56.183745913091116,46.107791857255506 54.91256422229344,45.548345233357395 51.43194768804824,45.21925832198758 47.79999999998836,44.52817421189684 55.13956095284084,45.59770822773862 56.68313872022554,46.05842897684488 62.221858944394626,49.08599856104411 66.217001401179,50.73139940664987 67.2006538999849,51.43891800161509 67.60924801498186,51.30728680672473 68.27510509104468,49.79352242684399 68.7744978981791,49.53025799736497 72.93610462395009,49.72770634885819 75.28173750586575,50.583313832452404 80.20000000001164,50.714945458836155 75.25147127505625,50.6820375595853 72.76964035496349,49.744160370202735 68.75936478277436,49.53025799736497 68.33563755254727,49.72770634885819 67.6243811302702,51.35664851400361 67.07958897709614,51.37310241398518 61.04147594579263,48.60883002301853 56.743671181669924,46.15715472663578 56.19887902843766,46.19006330006232 55.018496029952075,45.63061688457674 47.86053246137453,44.57753743433568 55.30602522188565,45.61416255676886 56.13834656699328,46.09133756501251 56.62260625872295,46.04197468094935 62.20672582904808,49.10245263019169 67.4276506305323,51.47182578811771 68.39617001393344,49.66189025131462 70.01541335822549,49.66189025131462 68.59290051378775,49.64543622385827 67.6243811302702,51.389556312715285 67.17038766929181,51.323740710373386 60.99607659969479,48.60883002301853 56.698271835572086,46.140700438059866 56.25941148994025,46.17360901396023 55.04876226064516,45.61416255676886 51.658944418421015,45.21925832198758" stroke="yellow" stroke-linecap="round" stroke-linejoin="round" stroke-width="0.5"><title>2025-01-17 12.3km</title><desc>1737088953000</desc></polyline><polyline fill="none" points="87.07640449434984,44.90762928091863 87.28876404493349,44.544785120888264 88.21404494380113,45.155022685357835 92.52191011235118,46.012651013516006 94.9488764044363,47.26610182391596 95.88932584266877,48.00827330055472 103.32191011239775,51.43872246345563 103.61011235951446,51.24081337968528 104.24719101120718,49.73999706999166 104.64157303364482,49.47611622756813 108.87359550554538,49.73999706999166 111.194382022426,50.5976076356601 116.18483146058861,50.68007001494698 111.30056179768872,50.5976076356601 108.69157303369138,49.73999706999166 104.76292134833056,49.54208646767074 104.30786516855005,49.70701198192546 103.59494382014964,51.35626036670874 103.39775280898903,51.42223004657717 97.86123595503159,49.04730918777932 92.56741573027102,46.062129469559295 90.82303370791487,45.616822967262124 83.79999999998836,44.62724975495075 90.68651685392251,45.55085155738925 92.12752808985533,46.062129469559295 92.5370786516578,46.012651013516006 98.46797752811108,49.27820538933156 102.07808988756733,50.69656248710817 103.15505617973395,51.389245209109504 103.56460674153641,51.290290667224326 104.21685393259395,49.72350452655519 104.67191011231625,49.49260878942732 108.72191011236282,49.73999706999166 111.16404494375456,50.58111515609198 116.20000000001164,50.647085066942964 111.23988764040405,50.58111515609198 108.85842696623877,49.80596723144117 104.77808988763718,49.509101350122364 104.30786516855005,49.73999706999166 103.44325842696708,51.455214879111736 98.10393258422846,49.16275731865608 92.61292134824907,46.144593538323534 91.86966292135185,46.11160791449947 91.06573033705354,45.64980866480619 85.68089887645328,44.874643472750904" stroke="#4DD2FF" stroke-linecap="round" stroke-linejoin="round" stroke-width="0.5"><title>2025-01-15 9.1km</title><desc>1736916504000</desc></polyline><polyline fill="none" points="122.62461538461503,44.41967914252018 122.83608391607413,44.78100149870443 123.5762237762101,45.224441762664355 127.27692307688994,45.8321177126345 129.28587412583875,46.48906280109077 131.67244755238062,48.04929953966348 139.20979020971572,51.49820472499414 139.54209790210007,51.416088561862125 140.17650349647738,49.937992395978654 140.69006993004587,49.65879534072883 144.85902097896906,49.921569049562095 147.13986013975227,50.824851284734905 152.19999999995343,50.93981421280478 147.07944055943517,50.874121118395124 144.81370629364392,49.97083908508648 140.67496503487928,49.65879534072883 140.17650349647738,49.937992395978654 139.46657342649996,51.514627953933086 138.99832167825662,51.514627953933086 134.0439160838141,49.31390437259688 128.56083916086936,46.25913224283431 128.2436363635934,46.35767394003051 126.32531468529487,45.74999943887815 119.79999999998836,44.83027268317528 125.26797202794114,45.48722075740807 128.5306293705944,46.20986137771979 133.4095104894368,48.90331918318407 139.300419580366,51.58032085746527 139.6478321677423,51.38324208807899 140.35776223771973,49.72448879730655 141.89846153842518,49.75733551825397 140.40307692298666,49.79018223429739 139.42125874123303,51.56389763344487 133.66629370622104,49.21536399688921 128.65146853140322,46.291979480098234 126.88419580413029,45.78284675205941 122.12615384609671,45.125899558872334" stroke="#4DD2FF" stroke-linecap="round" stroke-linejoin="round" stroke-width="0.5"><title>2025-01-14 7.8km</title><desc>1736829619000</desc></polyline><polyline fill="none" points="160.2305116279167,45.27185970834398 159.97432558139553,44.91137871109822 160.5771162789897,44.97692075453233 165.64055813953746,46.599080105588655 168.7599999999511,48.13930114291725 170.14641860465053,49.10603011403873 175.16465116274776,51.39994626202679 175.49618604645366,51.30163606069982 176.17432558134897,49.76143716904335 176.6113488371484,49.499274581394275 180.69525581388734,49.76143716904335 182.65432558138855,50.564308149769204 184.05581395345507,50.74454408955353 188.19999999995343,50.74454408955353 182.94065116276033,50.613463420726475 180.71032558137085,49.76143716904335 176.65655813954072,49.48288940927887 176.21953488368308,49.66312623528938 175.51125581393717,51.30163606069982 175.08930232556304,51.31802109730779 170.0409302324988,49.13880051317392 165.4295813953504,46.615465492519434 163.10883720923448,45.648725573701086 155.79999999998836,44.616439273857395 163.1992558139027,45.68149648800318 165.4295813953504,46.51715315248293 169.46827906969702,48.79471107874997 175.11944186041364,51.35079116682755 175.48111627908656,51.25248094352719 176.08390697668074,49.777822320364066 176.52093023259658,49.499274581394275 180.8308837208897,49.777822320364066 183.09134883718798,50.629848508600844 188.0493023255258,50.76092916770722 182.98586046509445,50.5806932412961 180.72539534879616,49.72866686269117 176.50586046511307,49.48288940927887 176.14418604644015,49.69589655139134 175.43590697675245,51.35079116682755 174.86325581389247,51.30163606069982 174.09469767438713,50.77731424459489 169.82995348831173,49.0732597100432 164.4651162790251,46.041976222913945 162.8526511627133,45.59956919310207 155.86027906974778,44.60005373797321 164.4952558139339,46.02559079324419 169.86009302322054,48.97494846866175 174.13990697672125,50.74454408955353 175.13451162789715,51.38356123154517 175.48111627908656,51.28525102282583 176.14418604644015,49.67951139397337 176.5661395348725,49.48288940927887 180.61990697670262,49.69589655139134 182.71460465108976,50.53153796304832 183.98046511627035,50.662618680726155 182.65432558138855,50.53153796304832 180.5746976743685,49.69589655139134 176.5962790697231,49.433733885671245 176.17432558134897,49.63035591429798 175.49618604645366,51.21971085931 174.9536744185607,51.23609590200067 173.55218604649417,50.46599757488002 169.86009302322054,49.040489301114576 164.4500465115416,46.041976222913945 162.37041860463796,45.5176418676856" stroke="yellow" stroke-linecap="round" stroke-linejoin="round" stroke-width="0.5"><title>2025-01-10 13.0km</title><desc>1736482744000</desc></polyline><polyline fill="none" points="14.903738317720126,85.15369670784276 16.38747663551476,86.1578848161007 18.96130841120612,86.65174614592979 21.489719626144506,87.62300354099716 24.230093457910698,89.25273093365831 31.315700934559572,92.44630329216307 31.648785046709236,92.18291762744775 31.785046728968155,90.73429085992393 31.98186915880069,90.48736489540897 36.75102803739719,90.80013773719838 39.249158878519665,91.72199195882422 44.124299065442756,91.83722346607829 39.03719626169186,91.67260700871702 36.75102803739719,90.81659945345018 32.072710280364845,90.47090315465175 31.769906542089302,90.81659945345018 31.648785046709236,92.24876407303964 31.315700934559572,92.44630329216307 25.895514018659014,90.14166808150185 20.566168224264402,87.16206836038327 18.900747663516086,86.65174614592979 11.799999999988358,85.66402238237788 19.294392523355782,86.68467019533273 20.036261682223994,87.09622039894748 20.55102803732734,87.09622039894748 25.98635514016496,90.07582100796571 31.088598130794708,92.38045690537547 31.603364485956263,92.24876407303964 31.754766355152242,90.75075258110883 32.02728971961187,90.50382663494383 36.75102803739719,90.81659945345018 39.37028037378332,91.72199195882422 44.199999999953434,91.78783854175708 38.961495327122975,91.65614535621717 36.73588785040192,90.75075258110883 32.087850467301905,90.50382663494383 31.830467289721128,90.66844396301894 31.815327102784067,91.83722346607829 31.42168224300258,92.42984169727424 25.789532710274216,90.09228277821967 20.596448598080315,87.1456063718797 18.794766355131287,86.65174614592979 11.799999999988358,85.61463607831683 17.09906542050885,86.28958127865917 20.490467289753724,87.06329641086631 25.471588785061613,89.84535609625163 31.118878504668828,92.38045690537547 31.542803738382645,92.26522568135988 31.8758878504741,91.44214376233867 31.542803738382645,92.34753370468388 30.87663551402511,92.24876407303964 25.88037383178016,90.1087445471785 20.566168224264402,87.04683441498491 20.217943925235886,87.12914438209555 19.052149532712065,86.56943600093655 17.12934579444118,86.35542948047805" stroke="yellow" stroke-linecap="round" stroke-linejoin="round" stroke-width="0.5"><title>2025-01-08 12.0km</title><desc>1736310892000</desc></polyline><polyline fill="none" points="51.25357643759344,86.80720431025838 51.7079943898716,86.08253578365839 51.768583450175356,85.37433470097312 52.0563814866473,85.12728727786453 52.38962131837616,85.19316661768244 52.23814866755856,85.30845541514282 53.70743338007014,85.86842871888075 54.4647966339835,86.49427955610736 57.56998597475467,87.58127943040745 62.72005610098131,90.36463353046565 67.35511921456782,92.42330484610284 67.6580645160866,92.12685735813284 67.70350631134352,90.75989991008828 68.12762973352801,90.47991963087406 72.76269284711452,90.80930815786996 75.18625525943935,91.73159342251893 80.20000000001164,91.83040947269183 75.15596072934568,91.69865472934907 72.82328190741828,90.84224698354956 68.06704067322426,90.52932794118533 67.74894810654223,90.85871639454854 67.70350631134352,92.12685735813284 67.44600280502345,92.47271272212674 61.76577840116806,90.05171381204855 56.570266479684506,87.13659830970573 55.99467040668242,87.13659830970573 54.9343618513667,86.62603740132181 47.79999999998836,85.72020062945376 55.146423562429845,86.77426488329365" stroke="#4DD2FF" stroke-linecap="round" stroke-linejoin="round" stroke-width="0.5"><title>2025-01-06 5.2km</title><desc>1736137119000</desc></polyline><polyline fill="none" points="87.99383177573327,86.31427516303665 88.06953271024395,85.68871566084272 88.56915887858486,84.9479192228755 88.93252336449223,86.23196480341721 88.41775700933067,86.57766810776957 89.37158878502669,86.52828195455368 92.52074766356964,87.28553509087942 96.79028037382523,89.29388953551825 97.59271028038347,90.00174781683017 103.34598130837549,92.5533111748955 103.69420560746221,92.33931021869648 103.75476635515224,90.95652981341118 104.04242990654893,90.69314208850847 109.02355140191503,91.03883841309289 111.41570093453629,91.94423098585685 116.20000000001164,92.02653921763704 111.21887850470375,91.91130768459698 108.85700934578199,90.98945325700333 104.10299065418076,90.69314208850847 103.81532710284228,90.94006808983977 103.70934579439927,92.33931021869648 103.40654205606552,92.63561917981133 97.97121495328611,90.39683052267355 93.52000000001863,87.87816616985947 91.27925233647693,86.97275693612755 83.79999999998836,85.80395043906174 88.88710280373925,86.42950961498718 92.49046728975372,87.23614909590106 97.06280373834306,89.77128257886216 102.3467289719265,92.07592414197279 103.1642990654218,92.65208077711577 103.67906542058336,92.28992535320867 103.81532710284228,90.85775945337082 104.02728971955366,90.64375685511914 107.38841121492442,91.03883841309289 108.85700934578199,90.95652981341118 111.29457943921443,91.89484603209712 116.18485981307458,91.97715428224183 110.88579439249588,91.81253775129153 108.76616822433425,90.98945325700333 104.14841121499194,90.64375685511914 103.81532710284228,90.89068291164585 103.7699065420311,92.24054047673417 103.43682242988143,92.5697727783554 98.046915887855,90.38036875739635 93.55028037383454,87.77939443371724 91.68803738319548,87.07152903285169 83.99682242993731,85.88626095812651" stroke="#4DD2FF" stroke-linecap="round" stroke-linejoin="round" stroke-width="0.5"><title>2025-01-03 9.5km</title><desc>1735878536000</desc></polyline><polyline fill="none" points="123.03241217811592,85.65667680244951 124.92936768155778,86.18469661858398 127.0994847775437,86.38270372504485 128.14660421555163,86.9107218101708 128.541170960234,86.86122016816807 133.04833723657066,89.35278907885368 139.10341920377687,92.14133296434011 139.55868852464482,92.05883216993243 140.18088992976118,90.55731234248378 140.63615925068734,90.2933078041824 144.70323185017332,90.54081206805131 147.11615925066872,91.44832533619774 152.20000000001164,91.59682715332019 147.4955503513338,91.46482554302202 144.88533957843902,90.62331342790276 140.66651053872192,90.37580925617658 140.18088992976118,90.63981369619432 139.37658079632092,92.20733357772406 133.48843091342133,89.73229711528984 128.52599531621672,86.96022344112862 128.13142857153434,86.99322452224442 126.917377049278,86.41570489224978 125.20252927404363,86.33320196502609 119.79999999998836,85.39266642228176 127.03878220147453,86.3992043092585 129.17854800942587,87.40573762163694 127.17536299774656,86.44870605452161 122.72889929747907,85.77218124479987" stroke="#4DD2FF" stroke-linecap="round" stroke-linejoin="round" stroke-width="0.5"><title>2025-01-02 5.6km</title><desc>1735817809000</desc></polyline><polyline fill="none" points="159.53962616826175,85.78748689527856 163.142990654218,86.38012088845426 164.20280373835703,86.9398293113336 165.21719626168488,87.12091114459326 170.72822429909138,90.14989435262396 175.3762616822496,92.1582190226618 175.7699065420311,91.74667856899032 176.20897196256556,90.64374637365108 176.73887850466417,90.38035876642971 180.62990654207533,90.51205260929419 183.47626168222632,91.54913887901057 188.20000000001164,91.58206217292172 186.35289719625143,91.69729366303363 183.20373831770848,91.49975392890337 180.84186915890314,90.57789950130973 176.75401869165944,90.34743529347179 176.28467289719265,90.52851433414617 175.58822429913562,92.09237260154623 175.33084112155484,92.20760382556182 167.9121495326981,88.9481831574376 164.50560747657437,86.9398293113336 164.02112149540335,86.9727532920806 162.97644859814318,86.44596901180921 155.79999999998836,85.37593457587354 162.4314018691657,86.29781070668832 164.142242990667,86.9069053257117 164.50560747657437,86.8081333394075 169.36560747667681,89.54080867322045 175.33084112155484,92.22406542411773 176.33009345794562,90.47912915595225 176.73887850466417,90.31451181560988 177.88953271025093,90.46266742741864 176.2998130840715,90.44620569767721 175.58822429913562,92.05944938366883 175.31570093455957,92.1417574192019 169.81981308414834,89.8206590587215 164.73271028033923,86.98921528058418 164.05140186916105,86.9398293113336 162.84018691588426,86.39658292113745 161.53813084110152,86.44596901180921 156.25420560745988,85.42532089470478 159.58504672901472,86.050879977367" stroke="#4DD2FF" stroke-linecap="round" stroke-linejoin="round" stroke-width="0.5"><title>2024-12-31 8.0km</title><desc>1735619151000</desc></polyline><polyline fill="none" points="16.311775700887665,126.81795606657397 17.41700934577966,126.85088018217357 20.58130841125967,127.59167148699635 22.42841121496167,128.5793893632508 22.958317757002078,129.12263231311226 31.43682242988143,132.95821877247363 32.23925233643968,131.39436108754307 32.6934579439112,131.14743517819443 36.88728971965611,131.37789936881745 38.97663551400183,132.21744545918773 44.18485981307458,132.34913867415162 39.17345794395078,132.2997537277697 36.85700934578199,131.39436108754307 32.708598130906466,131.14743517819443 32.2695327103138,131.34497592771368 31.361121495312545,133.02406516902556 26.243738317745738,130.8346619635413 21.610841121524572,128.28307446397957 18.915887850394938,127.2130451303965 11.799999999988358,126.17593483095698 17.52299065416446,126.91672839871899 20.535887850506697,127.6081334877963 26.243738317745738,130.70296784600941 31.224859813053627,133.00760357172112 31.603364485956263,132.85944914082938 32.23925233643968,131.37789936881745 32.75401869160123,131.09804996319872 36.796448598150164,131.34497592771368 39.249158878519665,132.25036877029925 44.199999999953434,132.2668304240069 39.43084112153156,132.28329207650677 36.781308411154896,131.37789936881745 32.67831775697414,131.11451170273358 32.23925233643968,131.34497592771368 31.57308411214035,132.84298753125768 31.330841121496633,132.95821877247363 25.85009345790604,130.65358253168233 20.657009345770348,127.73982944988529 18.385981308412738,127.1801210687263 12.042242990632076,126.25824535002175 18.7190654205624,127.1636590360431 20.11196261679288,127.72336745892244 20.70242990652332,127.65751948277466 25.517009345756378,130.3243468208093 20.626728971954435,127.69044347330055 16.054392523365095,126.83441812495585" stroke="yellow" stroke-linecap="round" stroke-linejoin="round" stroke-width="0.5"><title>2024-12-30 10.8km</title><desc>1735533491000</desc></polyline><polyline fill="none" points="52.34869402984623,126.75742084045487 55.31063432834344,127.25036086066393 56.14179104473442,127.72686849952152 56.56492537318263,127.67757465360046 57.426305970177054,128.03906260119402 61.12873134331312,130.14225345337763 67.14328358205967,132.90266101053567 67.58152985072229,132.91909190447768 68.21623134321999,131.3581515156111 68.71492537314771,131.07882417547808 72.68936567159835,131.34172050538473 75.06194029841572,132.26185519243882 80.19999999995343,132.34400988856214 75.25839552236721,132.26185519243882 72.84048507461557,131.37458252462966 68.65447761188261,131.11168623386766 68.24645522388164,131.3581515156111 67.71753731340868,132.68905927802552 67.3095149252913,132.98481546794937 61.65764925372787,130.6023237787449 57.637873134342954,128.30196255460032 55.340858208946884,127.36538004018075 47.79999999998836,126.18232275763876 55.083955223846715,127.23392954441078 57.98544776113704,128.30196255460032 61.03805970150279,130.14225345337763 67.26417910441523,133.01767724235833 67.56641791039146,132.93552279716823 68.26156716415426,131.37458252462966 68.68470149248606,131.17741033590573 72.81026119401213,131.4074445389415 75.07705223880475,132.27828613409656 80.15466417907737,132.32757895175018 78.61324626865098,132.45902641168504 75.15261194022605,132.27828613409656 72.79514925373951,131.34172050538473 68.69981343281688,131.11168623386766 68.27667910448508,131.292427467386 67.58152985072229,132.88623011535674 67.12817164178705,132.95195368868008 62.23190298501868,130.81592753216682 60.6300373133854,129.83006232889602 55.31063432834344,127.29965480210376 48.57070895517245,126.34663664862455" stroke="#4DD2FF" stroke-linecap="round" stroke-linejoin="round" stroke-width="0.5"><title>2024-12-27 9.1km</title><desc>1735273142000</desc></polyline><polyline fill="none" points="109.85626168217277,131.55074748693733 108.6753271027701,131.22151319865952 107.41869158874033,131.3696686891053 104.46635514014633,131.0898193460598 103.42168224300258,132.9664493368764 97.92579439247493,130.72766084651812 92.47532710270025,127.73159958333417 92.036261682224,127.78098553785821 90.85532710276311,127.25420145384851 83.79999999998836,126.13478110508004 88.73570093454327,126.92496076355746 89.22018691588892,126.8426505143143 92.68728971958626,127.7151375960384 96.5480373831233,129.65764363034396 97.12336448597489,130.1844219843042 103.08859813079471,132.91706454129599 103.52766355132917,132.88414133811602 104.13327102793846,131.3696686891053 104.6177570092841,131.07335760892602 108.79644859803375,131.3367452553939 111.35514018684626,132.29152284200245 116.20000000001164,132.42321597848786 110.85551401862176,132.19275293815008 108.97813084104564,131.3861304041202 104.60261682234704,131.0898193460598 104.28467289719265,131.18858974287286 103.60336448601447,132.93352614101605 103.30056074762251,133.06521889491705 101.99850467289798,132.29152284200245 97.74411214946304,130.61242847218818 92.76299065421335,127.69867560753482 89.34130841115257,126.92496076355746 85.75308411207516,126.44756089114526" stroke="#4DD2FF" stroke-linecap="round" stroke-linejoin="round" stroke-width="0.5"><title>2024-12-25 6.6km</title><desc>1735101299000</desc></polyline><polyline fill="none" points="123.16426566883456,126.41989376094716 123.04303086991422,126.71648839031695 123.24003741808701,126.65057850706216 123.52797006547917,126.17273126589134 124.45238540688297,126.81535317839007 125.48288119735662,126.86478555583744 128.65014031803003,127.67217949032784 134.25724976614583,130.73695412601228 139.40972871845588,132.96136073149682 139.62188961647917,132.9448837277887 140.25837231054902,131.3795627765503 140.72815715626348,131.13240582424623 144.7895229185815,131.3630856549862 147.4112254443462,132.3517107761436 152.20000000001164,132.43409600346058 147.18391019647243,132.30227962504432 144.6379794200766,131.34660853222886 140.59176800755085,131.14888296295248 140.25837231054902,131.31365428293066 139.5764265668695,132.8624986907089 139.30364826938603,132.91192971663259 133.71169317123713,130.6051367361215 129.51393826003186,128.16650085251604 127.13470533204963,127.21081188869721 119.79999999998836,126.18920877417258 122.28531337692402,126.56819112534868 123.467352666019,126.53523616406892 127.63479887746507,127.35910872278328 129.52909260988235,128.10059140140947 134.72703461174387,130.96763436924084 139.1672591206734,132.9448837277887 139.63704396632966,132.89545270924282 140.39476145931985,131.21479150568484 141.94050514500123,131.21479150568484 140.44022450887132,131.16536010049458 139.561272217019,133.02726873410575 134.1057062675245,130.76990846119588 131.16576239472488,129.03979922564758 127.28624883067096,127.32615387934493 119.84546304953983,126.20568628120236 126.073900841875,127.09546983790642" stroke="#4DD2FF" stroke-linecap="round" stroke-linejoin="round" stroke-width="0.5"><title>2024-12-18 8.3km</title><desc>1734495982000</desc></polyline><polyline fill="none" points="159.21529850747902,125.07319801734411 158.6561567163444,125.2046505111357 158.8526119402377,125.04033488160348 158.6561567163444,125.1717873950256 158.53526119393064,124.99104016885394 158.59570895519573,125.15535583512974 159.81977611937327,126.00979532607016 162.49458955222508,127.19285992490768 163.12929104478098,128.19517357708537 163.8395522387582,128.75383822568983 164.6253731342731,128.86885724237072 170.1714552238118,131.85933062140248 175.18861940299394,134.11037449324795 175.55130597006064,134.1268053859385 176.26156716415426,132.54943410438136 176.69981343281688,132.30296882263792 180.90093283576425,132.56586511339992 183.54552238807082,133.48599966334586 188.19999999995343,133.56815434720193 183.13749999995343,133.48599966334586 180.90093283576425,132.58229612115247 176.62425373139558,132.3193998499628 176.18600746267475,132.56586511339992 175.43041044770507,134.19252894452075 168.01044776116032,131.08706940164848 167.49664179095998,130.57770413841354 165.63787313434295,129.52610761550022 163.40130597009556,128.6388191490114 155.79999999998836,127.40646813438798 163.02350746263983,128.35948685591575 164.29291044775164,128.91815108829178 164.56492537312442,128.8359946722776 170.23190298507689,131.92505485565925 174.13078358204802,133.46956872288138 175.20373134326655,134.1268053859385 175.61175373132573,134.02822001131426 176.367350746179,132.45084802473139 177.93899253732525,132.40155496842635 176.45802238798933,132.50014107007883 175.67220149253262,134.20895983114315 174.99216417904245,134.15966716771072 169.86921641783556,131.9579169654753 168.46380597015377,131.03777604049537 163.3559701492195,128.55666262895102 155.92089552234393,127.52148785378085 163.12929104478098,128.39234949699312" stroke="#4DD2FF" stroke-linecap="round" stroke-linejoin="round" stroke-width="0.5"><title>2024-12-17 8.6km</title><desc>1734409492000</desc></polyline><polyline fill="none" points="15.795142456830945,167.42180453740002 19.03362914529862,167.93188964908768 20.21401214384241,168.49133648139832 20.607473143434618,168.37615636708506 26.221858944452833,171.46954429462494 31.321718823048286,173.6743794566719 31.594114899577107,173.6414716309955 32.29023820644943,172.01252813101746 32.66856609063689,171.79862556695298 37.057169546955265,172.11125232146878 39.25147127517266,172.95040615880862 44.20000000001164,173.03267597127706 43.71574030822376,173.19721550426038 39.2363381597097,173.03267597127706 36.648575432016514,172.078344262889 32.75936478283256,171.91380389640108 32.16917328356067,172.27579254086595 31.518449322786182,173.6743794566719 31.261186361545697,173.75664899946423 26.675852405373007,171.8150796176633 20.516674451180734,168.5242450744554 19.7146193368244,168.42551928055764 18.86716487625381,167.93188964908768 11.799999999988358,166.96108148839267 18.973096683854237,167.91543530904164 19.98701541335322,168.45842788346636 20.57720691274153,168.40906497729884 26.176459598354995,171.45309021815774 31.21578701544786,173.65792554445216 31.639514245674945,173.62501771627285 32.15404016809771,172.22643048792088 32.66856609063689,171.8315336671949 37.10256889311131,172.11125232146878 39.206071929016616,172.95040615880862 44.109201307815965,173.08203784399666 39.478468005603645,173.03267597127706 36.830172816466074,172.078344262889 32.65343297529034,171.88089580838277 32.27510509110289,172.06189023178013 31.488183092034888,173.75664899946423 26.070527790754568,171.53536058829923 20.531807566585485,168.5242450744554 19.184960298938677,168.04706999512564 11.981597384437919,166.99399030950735 18.942830453044735,167.93188964908768 20.00214852875797,168.45842788346636 20.652872489532456,168.47488218304352 26.81205044372473,171.74926340734237 31.21578701544786,173.70728727745882 31.639514245674945,173.6414716309955 32.15404016809771,171.963166019239 33.909481550741475,171.99607409497548 32.30537132185418,172.02898216579342 31.54871555347927,173.8389185115957 26.02512844465673,171.51890651672147 20.592340028029867,168.50779077855987 20.10808033630019,168.5242450744554 18.91256422229344,167.9483439878968 11.981597384437919,167.05980793695198 18.80663241475122,167.91543530904164" stroke="yellow" stroke-linecap="round" stroke-linejoin="round" stroke-width="0.5"><title>2024-12-15 13.0km</title><desc>1734235831000</desc></polyline><polyline fill="none" points="51.003731343196705,167.08912655019958 51.003731343196705,167.26987174275564 52.36380597006064,167.68065572035266 54.19235074619064,168.05857630395622 55.1444029850536,167.99285103158036 56.06623134325491,168.51865266205277 56.59514925366966,168.5350839428138 62.851492537301965,171.8706085877493 67.33973880595295,173.7766000222473 67.62686567159835,173.7601691319869 68.23134328355081,172.29781499659293 68.68470149248606,172.00205680166255 72.8555970149464,172.21565998224833 75.25839552242542,173.13579439505702 80.20000000001164,173.23437999736052 75.16772388061509,173.13579439505702 72.97649253730197,172.2320909875416 68.60914179112297,171.93633270449936 68.18600746267475,172.13350493727194 67.46063432836672,173.80946179905732 62.186567164142616,171.65700507302245 57.27518656710163,168.91300306223275 55.03861940297065,168.04214498770307 47.79999999998836,166.99053820093104 51.6384328356944,167.38489133361145 55.03861940297065,167.94355706447095 56.56492537306622,168.4364962399559 61.20429104473442,170.9668999962887 65.84365671640262,173.00434685683285 66.99216417910066,173.72730734778452 67.61175373132573,173.66158376469684 68.17089552234393,172.29781499659293 68.6393656716682,171.96919475556933 72.78003731340868,172.14993594869156 75.03171641792869,173.0865015774034 76.75447761191754,173.10293251788244 74.91082089551492,173.03720874873397 72.74981343280524,172.1827979679365 68.80559701495804,171.93633270449936 68.18600746267475,172.11707392460085 67.43041044776328,173.74373824047507 61.899440298439,171.49269453632587 56.59514925366966,168.5679465006251 55.008395522309,168.04214498770307 52.62070895516081,167.74638108574436" stroke="#4DD2FF" stroke-linecap="round" stroke-linejoin="round" stroke-width="0.5"><title>2024-12-13 8.5km</title><desc>1734064159000</desc></polyline><polyline fill="none" points="87.30477090214845,167.4546031296777 90.64119036367629,167.93718924846326 92.93689182802336,168.65274605705054 97.71195087389788,171.34854414433357 103.05328294757055,173.7115008948458 103.48181388754165,173.72814134669898 104.1705243269098,172.1472928848525 104.5990552668809,171.9309653829987 108.80784128484083,172.1472928848525 110.91988663200755,173.01260079727217 116.20000000001164,173.11244380223798 111.42494095419534,173.0791628055158 108.65479452052386,172.13065231521614 104.49192253191723,171.9143247972388 104.04808691539802,172.0640900243452 103.54303259326844,173.49517490783182 103.17572035902413,173.8279840318428 102.08908833254827,173.21228676257306 97.69664619740797,171.49830975076475 93.25829003303079,168.95228078460786 90.90136986301513,168.13687975122593 93.24298535659909,168.88571754652367 96.05904581956565,170.58307392106508 102.11969768541167,173.19564627224463 103.00736891827546,173.77806269485154 103.45120453467825,173.67821998739964 104.1399149739882,171.86440303259587 103.42059518187307,173.62829861692444 103.03797827113885,173.72814134669898 97.86499763809843,171.53159098298056 92.3553141237935,168.43641517063952 91.81965044874232,168.4530560154817 90.47283892298583,167.90390748064965 83.79999999998836,166.97201596814557" stroke="#4DD2FF" stroke-linecap="round" stroke-linejoin="round" stroke-width="0.5"><title>2024-12-11 6.6km</title><desc>1733890893000</desc></polyline><polyline fill="none" points="123.72865168534918,167.61274712558952 127.2022471910459,168.0085759681242 127.96067415724974,168.45388256994192 128.58258426969405,168.4373897487967 134.28595505619887,171.58749628864462 139.3825842696824,173.79749192313466 140.21685393259395,172.08227334736148 140.65674157300964,171.88436265657947 145.01011235959595,172.14824353835138 147.23988764040405,173.0223467125179 152.1544943820918,173.1377940435341 147.42191011243267,173.0223467125179 145.055617977574,172.23070624937827 140.3382022472215,172.03279569125152 139.50393258425174,173.84696918487316 134.17977528093616,171.62048146031157 132.64775280898903,170.58144619237282 128.537078651716,168.53634665714344 128.20337078656303,168.61881071365497 126.89887640450615,168.0910402212321 119.95168539322913,167.10146715636074 125.71573033707682,167.76118302448594 128.537078651716,168.42089692645823 132.51123595505487,170.38353415983147 134.16460674162954,171.48854074420524 139.26123595505487,173.764507075859 139.57977528090123,173.64906007163518 140.24719101120718,172.18122862641758 140.65674157300964,171.88436265657947 143.31123595504323,172.14824353835138 144.66123595507815,172.03279569125152 147.31573033705354,173.03883919208602 152.20000000001164,173.12130157138745 147.05786516855005,173.00585423174198 144.97977528098272,172.18122862641758 140.6264044943964,171.9008552209416 140.24719101120718,172.04928824453964 139.71629213477718,173.53361300722463 139.42808988766046,173.78099950012984 134.69550561800133,171.8018998165353 131.85898876405554,170.10315847754828 128.50674157310277,168.45388256994192 126.07977528090123,167.84364736975112 119.79999999998836,166.9530308151152 127.5511235955637,168.07454737309308 139.018539325858,173.6820449361112 139.57977528090123,173.5830903278693 140.24719101120718,171.86787009100954 139.61011235957267,173.64906007163518 139.2915730336681,173.71502979572688 134.34662921348354,171.62048146031157 128.55224719108082,168.40440410286828 123.25842696626205,167.5137898043613" stroke="yellow" stroke-linecap="round" stroke-linejoin="round" stroke-width="0.5"><title>2024-12-09 12.1km</title><desc>1733738831000</desc></polyline><polyline fill="none" points="169.28218661644496,171.0225808838586 175.3743638077285,173.77840243397804 176.07672007539077,172.1846784641093 176.6263901978964,171.88585395085101 180.5656927426462,172.0518676187785 182.96286522148876,172.99814316448465 188.20000000001164,173.1807572809339 183.4667295004474,173.0811495996022 180.82525918941246,172.1680771127576 176.6721960415016,171.9522594328737 176.15306314796908,172.1182730513683 175.40490103681805,173.81160489551257 170.58001885015983,171.8028470705467 164.4420358153293,168.48254650177842 163.89236569270724,168.4991481277102 163.1900094251032,168.0343021346198 158.8384542884305,167.45324327955313 158.28878416592488,167.18761586969777 158.02921771915862,167.40343816431414 156.12064090487547,167.1046072391764 160.64015080116224,167.5694551717752 164.4420358153293,168.41613998575485 168.44241281814175,170.39172537383274 169.57229029224254,171.2217980423011 175.1453345900518,173.77840243397804 175.51178133831127,173.62899129600555 176.15306314796908,172.08507033756177 176.5042412818293,171.81944844906684 177.86314797354862,172.0518676187785 180.79472196043935,172.0684689787886 183.23770028277067,173.01474445399072 188.0931196983438,173.1143521649792 183.11555136664538,172.96494058177632 180.79472196043935,172.10167169506894 176.61112158338074,171.91905669437256 175.9851083882968,172.4502999172255 175.38963242224418,173.81160489551257 169.7097078228835,171.35460938232427 164.42676720075542,168.48254650177842 164.0755890669534,168.54895299799682 162.10593779449118,167.90148881562345 155.79999999998836,166.98839510447579 162.39604147040518,167.90148881562345 163.93817153625423,168.4659448746388 164.5183788878494,168.44934324627684 166.4880301603116,169.52844651856867" stroke="#4DD2FF" stroke-linecap="round" stroke-linejoin="round" stroke-width="0.5"><title>2024-12-06 9.2km</title><desc>1733479157000</desc></polyline><polyline fill="none" points="15.0869565216708,208.27666372674867 19.207012622617185,208.7707558671682 20.08555399713805,209.3142559460539 20.570266479684506,209.21543784925598 26.22019635338802,212.37759503581037 31.158204768551514,214.56802115245955 31.658064516086597,214.41979751340114 32.18821879377356,213.003433283724 32.76381486677565,212.77286150376312 36.853576437570155,212.9704944726982 39.155960729229264,213.8433713056147 44.199999999953434,214.00806466118956 39.21654978959123,213.8433713056147 36.82328190736007,213.01990268734517 32.68807854130864,212.75639208169014 32.15792426362168,213.08578028967895 31.40056100982474,214.60095972543058 25.811220196308568,212.22936992814357 24.538849929871503,211.35648672250682 20.585413744673133,209.3471953018161 20.146143057441805,209.38013465267431 19.040392706810962,208.85310444985225 11.799999999988358,207.7990402745636 19.040392706810962,208.83663473576598 21.312482468376402,209.79187612433452 20.646002805035096,209.3471953018161 15.102103786717635,208.29313348258438" stroke="#4DD2FF" stroke-linecap="round" stroke-linejoin="round" stroke-width="0.5"><title>2024-12-03 5.6km</title><desc>1733220329000</desc></polyline><polyline fill="none" points="52.029370629403275,208.44086362665985 55.09566433558939,208.76933717430802 56.13790209789295,209.37701194707188 57.46713286708109,209.54124808459892 58.9020979020861,210.47739173188165 60.86573426570976,211.2164496979094 62.119440559414215,212.1854330549686 67.51188811188331,214.5503915012232 68.19160839158576,213.0887187893386 68.73538461542921,212.7274049397529 72.85902097908547,212.95733200346876 75.39664335671114,213.893461144311 78.9462937063654,213.8606145750964 80.20000000001164,213.95915426811553 79.82237762241857,214.05769391707145 75.24559440556914,213.9263077086507 72.85902097908547,213.02302540621895 68.72027972032083,212.79309841098438 68.26713286712766,213.00660205734312 67.57230769237503,214.56681473506615 67.23999999999069,214.5996611990995 61.65118881117087,212.20185646502068 58.630209790193476,210.47739173188165 54.95972027973039,208.8350318250741 47.79999999998836,207.83318627314293 55.21650349657284,208.80218450214306 57.36139860143885,209.78760206142033 54.929510489455424,208.88430280033208 47.83020979014691,207.80033880089468 52.21062937064562,208.40801624496817" stroke="#4DD2FF" stroke-linecap="round" stroke-linejoin="round" stroke-width="0.5"><title>2024-12-02 6.1km</title><desc>1733112856000</desc></polyline><polyline fill="none" points="83.79999999998836,206.73772492041462 84.76000000000931,207.1378582548641 86.96800000005169,210.0953442445607 86.77600000001257,209.9039786375797 87.19200000003912,209.88658175642195 87.73600000003353,209.22549931269896 89.72000000003027,209.52124695311068 90.45599999994738,210.00835989718325 91.92800000001444,210.3041065459838 93.51199999998789,211.29572492913576 95.4319999999716,212.02638841158478 96.44000000000233,212.91361956656328 102.20000000001164,215.54049988734187 102.66400000004796,215.54049988734187 103.36799999995856,213.92262344999472 103.83199999999488,213.69646778621245 108.26400000002468,213.92262344999472 111.0,214.8968299591652 116.20000000001164,214.9490194789105 111.03200000000652,214.9316229736287 108.27999999996973,213.95741660956992 103.88000000000466,213.731260979519 103.39999999996508,213.94002003040805 102.53600000002189,215.66227507957956 97.03200000000652,213.34853556816233 93.30400000000373,211.24353459292615 89.57600000000093,209.53864386145142 85.04800000000978,208.99933909960964" stroke="#4DD2FF" stroke-linecap="round" stroke-linejoin="round" stroke-width="0.5"><title>2024-11-29 4.6km</title><desc>1732853630000</desc></polyline><polyline fill="none" points="122.54392344498774,210.1549720874027 122.31138755986467,210.28981810803816 123.30354066990549,210.30667385492416 122.45090909098508,210.20553935457428 123.22602870810078,210.27296235982794 123.13301435403991,210.50894272008736 124.37320574163459,208.90764258647687 127.28765550238313,208.7053722896526 128.21779904305004,209.21104769263184 129.535502392333,209.4807407787157 134.6977990430314,212.43048792019545 139.8755980861024,214.67227002778964 140.65071770339273,213.03728827704617 141.11578947363887,212.81816611367685 145.51846889953595,213.03728827704617 147.75081339711323,213.94748576104757 152.20000000001164,213.99805218058464 147.8438277511741,213.91377480841766 145.1929186602938,212.98672164281015 141.05377990432316,212.75074386688357 140.68172248802148,212.96986609551823 139.8755980861024,214.6554146060662 134.38775119616184,212.43048792019545 128.71387559809955,209.26161517074797 127.00861244020052,208.73908401833614 119.79999999998836,207.7277299722191 127.1636363636353,208.7053722896526 128.1092822966748,209.19419186406594 129.1014354066574,209.3290384573338 133.10105263162404,211.45286169985775 127.11712918657577,208.77279574201384 123.22602870810078,208.25026346056256" stroke="#4DD2FF" stroke-linecap="round" stroke-linejoin="round" stroke-width="0.5"><title>2024-11-28 6.3km</title><desc>1732767063000</desc></polyline><polyline fill="none" points="156.01744966453407,207.32843046585913 160.80134228197858,208.13624945982883 161.88859060406685,208.70763213624014 162.39597315434366,208.6682264740666 167.37919463089202,211.1113664262375 169.10067114094272,212.25411768862978 175.4067114094505,215.01246246100345 176.29463087255135,213.10132664401317 176.94697986578103,212.74668136502441 181.7489932886092,213.0028141142102 183.95973154366948,213.92883044558403 185.8805369127076,214.24406930799887 188.20000000006985,214.18496204989788 184.70268456370104,214.1258547786274 182.07516778528225,213.10132664401317 177.12818791950122,212.84519399028795 176.38523489935324,213.14073164564616 175.4067114094505,215.07156953416415 168.53892617451493,212.17530741522205 162.39597315434366,208.6682264740666 161.94295302021783,208.766740618521 160.38456375838723,208.07714083662722 155.80000000004657,207.46635095663078" stroke="#4DD2FF" stroke-linecap="round" stroke-linejoin="round" stroke-width="0.5"><title>2024-11-25 4.0km</title><desc>1732507947000</desc></polyline><polyline fill="none" points="11.800000000046566,246.45846473917481 18.404815409332514,247.30667034976068 20.199036918231286,248.35278799166554 21.187158908694983,248.239694331598 23.00738362770062,248.83343567105476 24.905617977608927,250.19055524436408 28.494060995290056,251.7455821222975 31.27640449453611,253.668151998776 37.569181380444206,256.1278963155346 39.675441412604414,257.4001716032508 40.22150882834103,257.17398964156746 41.391653290600516,254.43152263073716 44.20000000006985,254.3749767106492 41.495666131726466,254.51634149509482 39.98747993586585,257.5415352608252 31.692455858923495,254.0922469838697 21.135152488015592,248.43760821459 20.433065810706466,248.5789752107521 22.929373996914364,249.05962260364322 24.151524879736826,250.19055524436408 26.309791332343593,250.7842935315275 31.22439807385672,253.72469802416163 39.10337078664452,257.2305351445975 40.22150882834103,257.34362612545374 41.391653290600516,254.40324967182823 40.143499197554775,257.5415352608252 31.82247191015631,254.0357010132866" stroke="#4DD2FF" stroke-linecap="round" stroke-linejoin="round" stroke-width="0.5"><title>2024-11-20 4.0km</title><desc>1732095798000</desc></polyline><polyline fill="none" points="49.69272437598556,248.47342720082088 54.47615507169394,249.1656550855114 55.628996282524895,249.74562833053642 56.4204992033774,249.82046349035227 60.84259160910733,252.0093820492766 62.012639405205846,252.90739440004108 68.31024960172363,255.69495395010745 68.60276155074826,255.6575372483203 69.30823154537939,254.0111968483834 69.82442910247482,253.61831856692152 74.6078597981832,253.88023748954583 77.12002124270657,254.89049363207596 80.20000000001164,255.00274406369135 77.0684014869621,254.9092020408425 74.33255443436792,253.8615290041198 69.92766861390555,253.63702707046468 69.20499203394866,254.12344767303148 68.53393520973623,255.73237064640853 62.133085501904134,253.09447990225453 57.21200212422991,250.34430898481514 54.441741901275236,249.2404904182331 47.79999999998836,248.26762935359147" stroke="#4DD2FF" stroke-linecap="round" stroke-linejoin="round" stroke-width="0.5"><title>2024-11-19 4.1km</title><desc>1731989484000</desc></polyline></svg>