<?xml version="1.0" encoding="utf-8" ?>
<svg baseProfile="full" height="300mm" version="1.1" viewBox="0,0,200,300" width="200mm" xmlns="http://www.w3.org/2000/svg" xmlns:ev="http://www.w3.org/2001/xml-events" xmlns:xlink="http://www.w3.org/1999/xlink"><defs /><rect fill="#222222" height="300" width="200" x="0" y="0" /><text fill="#FFFFFF" style="font-size:12px; font-family:Arial; font-weight:bold;" x="10" y="20">Over 4km Runs</text><text fill="#FFFFFF" style="font-size:4px; font-family:Arial" x="10" y="280">ATHLETE</text><text fill="#FFFFFF" style="font-size:9px; font-family:Arial" x="10" y="290">Fake David</text><text fill="#FFFFFF" style="font-size:4px; font-family:Arial" x="65" y="280">SPECIAL TRACKS</text><rect fill="yellow" height="2.6" width="2.6" x="65" y="283" /><text fill="#FFFFFF" style="font-size:3px; font-family:Arial" x="70" y="285.5">Over 10.0 km</text><rect fill="red" height="2.6" width="2.6" x="65" y="287" /><text fill="#FFFFFF" style="font-size:3px; font-family:Arial" x="70" y="289.5">Over 15.0 km</text><text fill="#FFFFFF" style="font-size:4px; font-family:Arial" x="120" y="280">STATISTICS</text><text fill="#FFFFFF" style="font-size:3px; font-family:Arial" x="120" y="285">Number: 49</text><text fill="#FFFFFF" style="font-size:3px; font-family:Arial" x="120" y="290">Weekly: 2.6</text><text fill="#FFFFFF" style="font-size:3px; font-family:Arial" x="141" y="285">Total: 407.0 km</text><text fill="#FFFFFF" style="font-size:3px; font-family:Arial" x="141" y="290">Avg: 8.3 km</text><text fill="#FFFFFF" style="font-size:3px; font-family:Arial" x="167" y="285">Min: 4.0 km</text><text fill="#FFFFFF" style="font-size:3px; font-family:Arial" x="167" y="290">Max: 13.0 km</text><polyline fill="none" points="12.982358402980026,41.049715003580786 11.45589600742096,40.88010666168702 13.405756731634028,41.0739447522792 14.107706592360046,41.35258660269028 16.492107706610113,41.54642413002148 18.419684308290016,42.17639449809212 19.2887650882476,42.648870672433986 19.34447539463872,42.854821395725594 22.464252553356346,44.46607393369777 25.66202414117288,45.859249348548474 25.91829155065352,45.750218659610255 26.096564531093463,44.55087625660235 26.285979572916403,44.39338619314367 28.503249767876696,44.69625156445545 29.751160631421953,44.59933470701799 31.81244196841726,45.32620972991572 35.33333333331393,45.374667949276045 31.74558960075956,45.32620972991572 29.818012999079656,44.62356392676884 26.352831940574106,44.417615443628165 26.12999071495142,44.62356392676884 25.97400185704464,45.665416962103336 25.673166202381253,45.847134831157746 22.26369545038324,44.39338619314367 18.096564531093463,42.10370573401451 16.82636954501504,41.643342807059526 11.33333333331393,40.80741731810849 17.038068709371146,41.619113143213326 18.08542246982688,42.17639449809212 18.7873723305529,42.34600148786558 21.940575673186686,44.1268641998322 25.684308263706043,45.79867675260175 25.873723305470776,45.71387508038606 26.0742804085603,44.49030317332654 26.27483751164982,44.34492768139171 27.779015784617513,44.58722009576741 29.996285979577806,44.64779314293992 31.63416898791911,45.31409517284192 35.32219127204735,45.362553395782015 31.355617455905303,45.25352237385232 29.84029712161282,44.659907749679405 26.408542246965226,44.417615443628165 26.107706592360046,44.57510548362916 25.929433611861896,45.81079127357225 25.572887650865596,45.81079127357225 21.628597957314923,44.09052025779965 20.659238625783473,43.41209851561871 17.90714948932873,42.00678733139648 15.93500464252429,41.48584992754331 11.355617455847096,40.88010666168702 14.999071494909003,41.34047174954321" stroke="yellow" stroke-linecap="round" stroke-linejoin="round" stroke-width="0.5"><title>2025-04-01 10.1km</title><desc>1743481138000</desc></polyline><polyline fill="none" points="43.476234855595976,41.035121268287185 45.76887232065201,41.278321917081485 48.408201304788236,41.86200199558516 53.13886300101876,44.39125821548805 56.31500465987483,45.81394761578122 56.68406337383203,45.582913428283064 56.773532152874395,44.549335427887854 56.952469711133745,44.354778837034246 60.341099720448256,44.622294089669595 62.83504193852423,45.388358069438254 65.95526561053703,45.33971919349278 62.16402609512443,45.254601125678164 60.48648648650851,44.64661363634514 56.98602050333284,44.41557779660798 56.78471575025469,44.683092949548154 56.73998136073351,45.59507313053473 56.29263746511424,45.78962824304472 52.534948741900735,44.17238182251458 48.41938490222674,41.9349618586275 47.97204100660747,41.910641907918034 47.18918918923009,41.55800221518439 45.69058713893173,41.47288217519235 42.033550792199094,40.804080316243926 48.452935694367625,41.86200199558516 53.32898415665841,44.48853651813988 56.33737185463542,45.82610730078886 56.62814538681414,45.6558716280997 56.795899347693194,44.48853651813988 56.952469711133745,44.33045924686303 58.08201304759132,44.53717564773979 60.28518173348857,44.59797453934152 62.14165890030563,45.30324002701673 66.0,45.31539975007763 65.0270270270994,45.412677501968574 62.15284249774413,45.254601125678164 60.564771668286994,44.65877340831503 57.05312208767282,44.39125821548805 56.85181733459467,44.549335427887854 56.69524697115412,45.692350715762586 56.32618825731333,45.86258635041304 52.3000931966817,44.06294351594988 48.497670083888806,41.910641907918034 48.03914259094745,41.9349618586275 47.25629077357007,41.58232221844082 42.0,40.8284004318848 47.34575955267064,41.59448221873026 49.02329916128656,42.2632808387134 48.44175209698733,41.898481931202696 48.1733457595692,41.9349618586275 47.31220876052976,41.533682208289974 42.80521901213797,40.92568085808307" stroke="yellow" stroke-linecap="round" stroke-linejoin="round" stroke-width="0.5"><title>2025-03-30 10.7km</title><desc>1743316730000</desc></polyline><polyline fill="none" points="74.254737496085,41.09592150976823 72.81205343268812,40.77976019520429 75.18297607952263,41.30264203813567 78.00124262191821,41.5944823383179 79.10841876361519,41.922802052256884 84.46536191366613,44.69525330043689 86.19881950912531,45.36403931454697 86.90338614472421,45.85042742184305 87.16060888470383,45.80178867634095 87.32836284558289,45.53427531696798 87.40664802730316,44.597975106487866 87.59676918294281,44.366939163490315 91.08605156879639,44.62229466039571 93.1214662938728,45.31540042407869 96.63311587448698,45.376199034872116 92.89779434603406,45.327560148070916 91.25380552967545,44.683093529369216 87.76452314382186,44.45205770684697 87.52966759860283,44.71957283988013 87.39546442992287,45.75314991634514 86.9481205343036,45.86258710597758 83.57067412242759,44.41557833654224 79.08605156873818,42.00792187025945 78.67225846537622,42.02008184065926 77.41969555761898,41.5944823383179 72.74495184840634,40.86488060936972 77.76638707669917,41.5944823383179 79.15315315307816,41.95928197968169 82.01615408511134,43.35767305140325 83.66014290152816,44.403418544650776 86.99285492388299,45.88690647146723 87.33954644296318,45.65587235285784 87.44019881950226,44.57365554894204 87.59676918294281,44.439897917662165 91.0636843740358,44.63445443600358 92.57347002171446,45.242442061251495 93.54644299473148,45.388358754324145 96.66666666668607,45.35187959327595 92.95371233299375,45.33971987113182 91.08605156879639,44.683093529369216 87.69742155942367,44.48853706900263 87.46256601426285,44.75605214224197 87.41783162468346,45.72883053087571 87.27244485868141,45.88690647146723 87.02640571602387,45.85042742184305 82.76545511028962,44.01430472519132 79.19788754271576,41.99576189898653 78.97421559487702,42.06872171310533 77.75520347931888,41.63096233915712 75.40664802730316,41.424242226654314 72.66666666668607,40.87704066491278 75.36191363772377,41.29048201433034" stroke="#4DD2FF" stroke-linecap="round" stroke-linejoin="round" stroke-width="0.5"><title>2025-03-28 10.0km</title><desc>1743136214000</desc></polyline><polyline fill="none" points="104.9534450651845,41.1344501767162 103.33333333331393,40.81858328661474 105.9925512103946,41.09800402833207 108.9981378025841,41.65684407524532 109.50093109864974,41.99700664432021 110.57355679699685,42.30072262417525 111.64618249534396,43.017490093785455 112.70763500931207,43.35764982442197 114.0707635009312,44.28093694493873 117.63500931102317,45.82378665104625 117.959031657374,45.73874807092943 118.0707635009312,44.66968785281642 118.32774674118264,44.46316404841491 121.64618249540217,44.64539094820793 123.33333333337214,45.27710929105524 124.22718808194622,45.386444909643615 127.33333333331393,45.435038494397304 123.61266294226516,45.37429651123239 121.76908752328018,44.681836303760065 118.26070763502503,44.42671864399745 118.081936685252,44.64539094820793 118.0260707634734,45.59296754481329 117.78026070760097,45.84808338005678 114.22718808194622,44.41457017407811 109.78026070760097,41.9605606887053 107.91433891991619,41.486762524582446 103.51210428302875,40.927921894719475 105.31098696461413,41.122301461495226" stroke="#4DD2FF" stroke-linecap="round" stroke-linejoin="round" stroke-width="0.5"><title>2025-03-25 5.1km</title><desc>1742904051000</desc></polyline><polyline fill="none" points="135.62086632516002,41.20027455952368 134.04471355385613,40.85995182998886 138.22543083375785,41.35828129973379 139.60037261300022,41.60136829355906 140.80763856548583,42.05107827717438 143.54634373547742,43.48528021396487 143.9487657196587,43.849905814786325 148.3083372147521,45.84317802837177 148.71075919893337,45.64871351857437 148.78900791803608,44.60346280732483 148.95668374479283,44.433305080994614 152.6679087099037,44.664233380855876 154.28877503500553,45.332708195841406 157.97764322313014,45.36917037972307 156.97158826270606,45.47855688240088 154.3558453656733,45.308400068752235 152.48905449465383,44.67638749285834 149.0572892408236,44.4576133384835 148.76665114116622,44.70069571414206 148.67722403357038,45.70948370281258 148.25244527251925,45.806715950442594 144.42943642294267,44.14160570866079 140.48346530046547,41.92953516059788 140.1592920354451,41.965998105093604 139.30973451334285,41.56490526757261 134.0,40.8234886382852 139.667442943668,41.62567697300983 141.6571960875881,42.4521699193574 144.03819282725453,43.87421415920835 148.35305076855002,45.84317802837177 148.66604564513545,45.73379177015158 148.77782952960115,44.60346280732483 149.00139729864895,44.42115095088957 152.41080577555113,44.627771039449726 154.33348858874524,45.332708195841406 158.0,45.405632555441116 156.62505822075764,45.515019033671706 154.26641825801926,45.308400068752235 152.41080577555113,44.6399251541734 148.96786213322775,44.42115095088957 148.77782952960115,44.70069571414206 148.73311597580323,45.60009735493804 148.58779692603275,45.806715950442594 148.35305076855002,45.79456192266662 144.3288309269119,44.10514325044642 140.51700046582846,41.91738084399549 140.28225430834573,42.00246104141115 139.20912901731208,41.552750923787244 134.92780624132138,40.95718696800759" stroke="#4DD2FF" stroke-linecap="round" stroke-linejoin="round" stroke-width="0.5"><title>2025-03-23 9.7km</title><desc>1742722238000</desc></polyline><polyline fill="none" points="166.2636885373504,41.0929743907036 170.0943074299139,41.517980865217396 170.83139444707194,41.942986231442774 171.07709011947736,41.8944142456603 171.97052892821375,42.27084675669903 175.83465177600738,44.38370987707458 177.40933767647948,44.990849385925685 179.0063595470856,45.87726900773123 179.27439118974144,45.70727109769359 179.3637350705685,44.553709167506895 179.5647588025895,44.420138311368646 183.03800217161188,44.553709167506895 185.00356755079702,45.24584730528295 188.66666666668607,45.29441829229472 185.07057546149008,45.30656103680667 183.1720179929398,44.577994765975745 179.64293469837867,44.38370987707458 179.44191096635768,44.553709167506895 179.30789514502976,45.65870023367461 178.98402357689338,45.78012736655364 175.04172483325237,44.04371076429379 171.93702497292543,42.33156159639475 170.1054754149518,41.59083900671976 164.7113386071287,40.789397658925736 170.0943074299139,41.554409940043115 171.25577788118972,41.90655724347744 174.12595005432377,43.37585329932335 175.20924460992683,44.11656777674216 179.0063595470856,45.78012736655364 179.31906313018408,45.5979866333073 179.39723902597325,44.50513795975712 179.5647588025895,44.33513861866959 183.09384209709242,44.553709167506895 184.94772762531647,45.22156180633465 188.65549868158996,45.28227554692421 187.62804405158386,45.415845696552424 184.78020784864202,45.270132800593274 183.09384209709242,44.602280360792065 179.65410268341657,44.359424249705626 179.40840701106936,44.71156549274747 179.3525670855306,45.585843910550466 179.18504730885616,45.828698194382014 178.93935163650895,45.81655548879644 174.98588490777183,44.03156792568916 171.89235303242458,42.31941863025713 170.08313944475958,41.63941108294239 164.66666666668607,40.85011305051739 168.21808593149763,41.27512015835964" stroke="#4DD2FF" stroke-linecap="round" stroke-linejoin="round" stroke-width="0.5"><title>2025-03-21 9.8km</title><desc>1742551156000</desc></polyline><polyline fill="none" points="12.8354351548478,67.65376142659807 12.555192277708557,67.86096481389541 11.33333333331393,67.59281920389913 12.106803674250841,67.58063075665268 16.736416004947387,68.22661721007898 17.868597228603903,68.51913853855513 22.128288961481303,70.8592903365934 25.636929783504456,72.39499676282867 26.02926981158089,72.2974920214765 26.1525766775012,71.22493603127077 26.354351549060084,71.06648966392095 29.986299237061758,71.3102532424673 31.320255332277156,71.8952843491279 32.396387980668806,72.05372991383774 35.33333333331393,72.09029425312474 31.64533706981456,71.968413090377 29.941460376721807,71.29806507215835 26.444029269739985,71.05430147545121 26.186205822741613,71.27368872881925 26.253464113280643,71.71246235299623 26.0628989568213,72.46812528072041 25.681768643902615,72.541253765914 24.96434687828878,72.11467047479528 22.027401525701862,70.9933605195256 18.092791530361865,68.81165934396267 16.579479993728455,68.28755919665855 15.267943328653928,68.23880560920225 11.355752763454802,67.458746234086 16.8597228708677,68.26318240475666 18.832632726058364,69.00667292368598 21.668690642924048,70.6277143072657 25.771446364582516,72.48031336384884 26.07410867192084,72.24873962896527 26.1525766775012,71.20055967706139 26.376770979200955,71.04211328610836 29.919040946522728,71.3102532424673 31.66775650001364,71.95622496909346 35.2660750427749,71.99278933016467 34.3468784057186,72.11467047479528 31.510820488794707,71.93184872381971 29.975089521962218,71.29806507215835 26.410400124499574,71.06648966392095 26.197415537841152,71.24931238188583 26.17499610770028,72.02935368310136 25.9732212361414,72.41937293908268 25.793865794723388,72.45593719667522 21.83683636924252,70.81053751555737 17.82375836832216,68.543515292331 17.408998910104856,68.55570366785105 16.545850848429836,68.19005200723768 15.043749026895966,68.1169215770351 11.400591623794753,67.5196885067271 14.113342674740124,67.87315324025985" stroke="#4DD2FF" stroke-linecap="round" stroke-linejoin="round" stroke-width="0.5"><title>2025-03-19 10.0km</title><desc>1742357906000</desc></polyline><polyline fill="none" points="43.016759776568506,67.5702916423179 46.69273743015947,68.08053747279337 48.592178770923056,68.56648439831042 52.23463687149342,70.5952971677616 56.312849162030034,72.47830439789686 56.70391061453847,72.3568207165954 56.80446927371668,71.4213933393039 57.0502793295891,71.05693966185208 60.78212290501688,71.32420577162702 62.07821229053661,71.89518190232047 63.0279329608893,72.02881432505092 66.0,72.05311111742049 62.402234636829235,71.91947871458251 60.569832402223255,71.23916660240502 57.07262569834711,71.00834577665955 56.83798882685369,71.3120573216147 56.81564245809568,72.23533694479556 56.335195530729834,72.51474948464602 51.798882681527175,70.44951505599602 49.25139664806193,68.9795381463191 47.55307262571296,68.29921376850689 42.0,67.48525051535398 44.525139664823655,67.76467119457084 47.25139664800372,68.20202433994564 48.08938547485741,68.57863305287901 48.48044692736585,68.55433574282506 52.782122905075084,70.8868610002828 56.413407821266446,72.49045276103425 56.69273743015947,72.33252396948228 56.849162011174485,71.62791672830645 56.69273743015947,72.39326583049842 56.23463687149342,72.45400766888633 52.43575418996625,70.78967311402084 48.48044692736585,68.6272276621894 48.07821229053661,68.61507901118603 47.0502793295891,68.18987565729185" stroke="#4DD2FF" stroke-linecap="round" stroke-linejoin="round" stroke-width="0.5"><title>2025-03-17 7.0km</title><desc>1742185263000</desc></polyline><polyline fill="none" points="73.9794296399923,67.57226886994613 73.92332865827484,67.71866693385527 73.79990649840329,67.5600690253923 73.90088826557621,67.74306659844297 72.89107059373055,67.57226886994613 76.70593735389411,68.02366247992904 79.15194015897578,68.58485280035529 83.337073398754,70.86619364938815 87.11827956984052,72.54972961662861 87.39878447871888,72.34233843944094 87.4885460495716,71.29317904736672 87.71294997661607,71.07358669606037 91.11266947170952,71.28097948002687 93.03132304811152,71.98855288392224 96.63300607760902,72.049550448035 92.98644226271426,71.96415385194996 91.39317438052967,71.31757817932521 87.83637213648763,71.07358669606037 87.51098644227022,71.26877991174115 87.38756428239867,72.39113638710114 87.03973819542443,72.46433328135754 82.6863020103192,70.54900377591548 79.18560074799461,68.57265303123859 76.48153342684964,67.96266341616865 72.66666666668607,67.47467008797685 76.50397381954826,67.91386414880981 79.16316035529599,68.51165417199081 83.29219261335675,70.79299604083644 87.03973819542443,72.45213380125642 87.41000467503909,72.24474250043568 87.4997662458918,71.25658034256776 87.67928938759724,71.07358669606037 91.24731182790129,71.26877991174115 93.06498363718856,71.95195433456684 96.66666666668607,72.049550448035 92.87424029922113,71.9153557770187 91.23609163158108,71.26877991174115 87.70172978023766,71.04918752770755 87.4997662458918,71.35417687047448 87.35390369332163,72.37893690154306 87.11827956984052,72.43993432022398 83.10144927538931,70.75639722426422 79.20804114075145,68.58485280035529 77.85039738193154,68.18225993937813 72.66666666668607,67.45027038335684 76.16736792895244,67.93826378429367" stroke="yellow" stroke-linecap="round" stroke-linejoin="round" stroke-width="0.5"><title>2025-03-15 10.0km</title><desc>1742012101000</desc></polyline><polyline fill="none" points="104.84817082743393,67.83668271501665 103.33333333331393,67.48022113322804 106.72476055886364,67.86126624397002 109.73182603227906,68.47585327774868 114.06154812366003,70.84813775357907 117.79211807186948,72.4829046130908 118.07473700732226,72.12645306967897 118.13126079441281,71.14313447484164 118.36866070021642,71.00792770972475 122.02009734645253,71.2906326376542 123.76102998899296,71.97895565403451 127.33333333331393,72.0035385657975 123.87407756311586,72.0035385657975 121.96357355936198,71.31521565194998 118.42518448730698,71.09396839122928 118.16517506667878,71.35209016657609 117.99560370540712,72.40915608110663 117.72428952733753,72.5197788667574 113.81284346041502,70.83584621208138 112.2075679069967,69.80335345717322 109.76574030454503,68.58647870070126 109.50573088391684,68.63564553152537 108.51091223111143,68.19314352657238 107.04129376664059,68.1193930770387 103.68378081324045,67.5416800815583 105.46993248543004,67.75064033475064 107.81001727108378,68.1193930770387 108.74831213685684,68.20543526497204 110.04835923999781,68.64793723693583 113.76762443082407,70.7006391951727 116.84251844865503,72.0035385657975 117.48688962153392,72.43373892876843 117.95038467569975,72.40915608110663 118.18778458150337,71.59792005336203 118.0295179776731,72.38457322977774 117.72428952733753,72.45832177279226 113.86936724756379,70.81126312636479 109.77704506198643,68.53731185520883 109.24572146328865,68.51272842698381" stroke="#4DD2FF" stroke-linecap="round" stroke-linejoin="round" stroke-width="0.5"><title>2025-03-12 7.1km</title><desc>1741778255000</desc></polyline><polyline fill="none" points="135.84097287186887,67.7237022574991 139.10757717496017,68.12648450233974 140.11786716559436,68.56588218543038 141.36389148735907,68.79778604302555 145.0458372310386,70.982548376458 148.45837231061887,72.47158757310535 148.72778297477635,72.27630451509322 148.79513564083027,71.27547518933716 149.01964452763787,71.04357483898639 152.61178671661764,71.22665409023466 154.01496725919424,71.77589061642357 155.09260991582414,71.94676382683974 158.0,71.98337949161942 154.36295603372855,71.9955847113597 152.61178671661764,71.29988573341689 149.13189897104166,71.06798541764147 148.8737137512071,71.23885936634906 148.7053320861305,72.34953568910714 148.32366697851103,72.4471772036195 144.01309635175858,70.56756782831508 140.4770813845098,68.55367671014392 140.18521983164828,68.65132048695523 139.130028063606,68.1875120288023 134.0,67.49179687941796 138.69223573437193,68.07766246481333 140.27502338634804,68.56588218543038 140.4770813845098,68.492649320091 144.63049579045037,70.73844229897077 148.4246959775919,72.45938238882809 148.72778297477635,72.19086810400768 148.80636108515318,71.19003825634718 149.05332086066483,71.04357483898639 152.52198316185968,71.19003825634718 154.47521047713235,71.87353247277497 158.0,71.98337949161942 154.3854069223744,71.95896904934489 152.5332086061826,71.20224353519734 149.0420954162837,70.97034308119328 148.84003741818015,71.29988573341689 148.82881197385723,72.19086810400768 148.4808231992647,72.50820312058204 146.76333021518076,71.61722247576108 144.29373246029718,70.6896210397972 140.55565949488664,68.61470407746674 140.27502338634804,68.66352595495118 139.2984097287408,68.21192303301359 136.24508886807598,67.96781282713346 134.0,67.54061909156735 135.6838166511152,67.67488009991939 136.4808231992647,67.82134652901732 139.48924228252145,68.22412853378046 141.08325537887868,68.9442514681432 140.62301216094056,68.63911501802795 139.34331150603248,68.27295052768022 137.14312441530637,68.01663489743078 135.739943872788,68.08986797554826 134.0673526659957,67.54061909156735" stroke="yellow" stroke-linecap="round" stroke-linejoin="round" stroke-width="0.5"><title>2025-03-07 10.7km</title><desc>1741342581000</desc></polyline><polyline fill="none" points="166.52146760345204,67.70828237393289 170.1298985167523,68.17274359172734 170.71444184228312,68.51497733179713 171.19781420764048,68.52719995215011 174.30039032001514,70.05502032714139 175.7505074160872,71.02059546654345 179.1003903200035,72.49950333345623 179.34769711166155,72.26727901349659 179.62872755661374,71.05726276490896 181.1350507416064,71.24059913378733 183.42825917247683,71.19170945543738 184.63106947700726,71.70505035133101 185.77767369244248,71.90060836539487 188.66666666668607,71.88838599633891 188.04839968774468,72.01060964586213 185.03575331770116,71.91283073351951 183.28212334116688,71.2772663829819 179.7186572989449,71.10615248330578 179.50507416081382,71.26504396749078 179.28024980484042,72.38950238077086 178.920530835283,72.47505868365988 175.22217017953517,70.80059150430316 171.19781420764048,68.62498088233406 169.7476971115684,68.20941152659361 166.88118657300947,68.0505170829565 164.66666666668607,67.50049666654377 165.9931303668418,67.57383282862429" stroke="#4DD2FF" stroke-linecap="round" stroke-linejoin="round" stroke-width="0.5"><title>2025-03-05 4.7km</title><desc>1741177738000</desc></polyline><polyline fill="none" points="12.428434197907336,94.32287572490168 16.19788664742373,94.77409305736364 17.25840537948534,95.07490393999615 21.523535062442534,97.40617004295927 24.624399615742732,98.69712608412374 25.32756964454893,99.16086515637289 25.673390970216133,99.0731308353279 25.846301633049734,97.84484553700895 26.099903938535135,97.70697621926956 29.55811719497433,97.8824462404009 31.460134486027528,98.60939152126957 35.33333333331393,98.65952556280536 33.86935638805153,98.7973940999509 31.437079730967525,98.67205907082825 29.754082612867933,97.98271474175272 26.11143131600693,97.7195097982767 25.938520653173327,97.8824462404009 25.754082612809725,99.11073126424162 25.50048030738253,99.2109990335739 20.901056676288135,97.25576675312186 17.212295869365335,95.1501065765915 16.970220941409934,95.23784294349025 15.863592699286528,94.82422824183595 11.33333333331393,94.12233429974003" stroke="#4DD2FF" stroke-linecap="round" stroke-linejoin="round" stroke-width="0.5"><title>2025-03-03 4.6km</title><desc>1740978130000</desc></polyline><polyline fill="none" points="44.040168145729695,94.41793422031333 43.86081270436989,94.52763014758239 42.0,94.1497883106349 44.925735637545586,94.45449953757634 48.45679588976782,95.21018093114253 51.606725829071365,96.77028631413123 52.64922933210619,97.47720416774973 56.25875758990878,99.12260458432138 56.639887902885675,99.0982284026104 56.83045305934502,97.9281674095837 56.99859878560528,97.72096823662287 60.43998131714761,97.95254376562661 62.14385801029857,98.63508026012278 65.94395142461872,98.68383275791712 64.6099953292869,98.78133770990826 62.099019149900414,98.61070400576864 60.41756188700674,97.97692011803156 57.04343764594523,97.75753281562356 56.87529191968497,97.87941468659847 56.7071461933665,98.96415933831304 56.370854740729555,99.17135693684395 52.58197104156716,97.53814521903405 48.43437645962695,95.24674607133784 48.232601588068064,95.3076879534492 47.49276039231336,94.96641312107386 42.0,94.16197677059972 47.64969640353229,94.92984791823255 56.2363381597097,99.18354502269358 56.65109761792701,99.11041649390245 56.76319476880599,98.02567281195661 56.96496964036487,97.75753281562356 60.72022419428686,98.00129646678397 62.177487155538984,98.64726838593197 66.0,98.74477335973643 62.19990658573806,98.63508026012278 60.496029892528895,97.9891082928807 57.0322279309039,97.72096823662287 56.83045305934502,97.9281674095837 56.65109761792701,99.04947602831817 56.30359645024873,99.14698076239438 52.16721158340806,97.31875732823391 48.68099019152578,95.3076879534492 48.154133582429495,95.28331120332587 47.15646893973462,94.85671748802997 43.92807099490892,94.47887641120178 45.21718822984258,94.58857229760906 47.481550677272025,94.91765951545676 48.994862213905435,95.58802031887171 49.050910789344925,95.46613674076798 48.378327884187456,95.23455769216525" stroke="yellow" stroke-linecap="round" stroke-linejoin="round" stroke-width="0.5"><title>2025-02-28 10.0km</title><desc>1740736874000</desc></polyline><polyline fill="none" points="74.34420627530199,94.76365673461987 74.57906182046281,94.49613628008228 74.2994718857226,94.7514967234747 74.54551102826372,94.59341649609269 74.40012426226167,94.5326163678692 72.76731904322514,94.20429528404202 73.51662006840343,94.17997517751064 78.0459770114976,94.80013676264207 78.77291084191529,95.15277661301661 79.20907114015426,95.10413667892863 83.5818577198661,97.47531659330707 87.08232370304177,99.09256313429796 87.38428083260078,98.98312590392015 87.49611680652015,97.81579088095168 87.71978875430068,97.66987341604545 91.22025473753456,97.88874956444488 92.94252873567166,98.54537624861405 96.61074867978459,98.61833460602793 92.92016154091107,98.6061748820357 91.13078595843399,97.88874956444488 89.07300403853878,97.90090934187174 87.6526871699607,97.69419300260779 87.47374961170135,97.80363109715108 87.38428083260078,99.00744529477379 87.10469089780236,99.26279868016718 82.62006834422937,97.2321202387393 79.4215594905545,95.35949617106235 77.60981671331683,94.86093679118494 76.17831624730024,94.81229677014926 72.67785026406636,94.1678151228698 78.10189499845728,94.87309679419559 78.69462566019502,95.22573648692924 79.20907114015426,95.22573648692924 83.59304131718818,97.54827542899875 87.14942528743995,99.14120187980006 87.39546442998108,98.9344871112844 87.55203479342163,97.69419300260779 91.11960236099549,97.86443000689906 92.57347002177266,98.43593865135335 93.64709537127055,98.6061748820357 96.66666666668607,98.6061748820357 92.99844672257314,98.61833460602793 91.13078595843399,97.9860277583939 89.08418763591908,97.97386798732623 87.57440198824042,97.71851258550305 87.40664802736137,98.87368860015704 87.07114010566147,99.18984061085212 83.05622864246834,97.43883716320852 79.1196023610537,95.23789646274236 73.84094439266482,94.38669596772525 72.66666666668607,94.0705346531613 74.42249145702226,94.33805580534681 75.18297607952263,94.49613628008228 77.24075799947605,94.67853663755523 79.65641503577353,95.55405551589502 79.17552034795517,95.22573648692924 78.94066480273614,95.28653635694354 77.86703945329646,94.86093679118494 75.3171792482608,94.67853663755523 73.5837216526852,94.24077543709427" stroke="yellow" stroke-linecap="round" stroke-linejoin="round" stroke-width="0.5"><title>2025-02-26 11.1km</title><desc>1740566027000</desc></polyline><polyline fill="none" points="105.38184079597704,94.44542554522923 103.37810945272213,94.20199788502941 104.27363184082787,94.1898264925112 108.80721393029671,94.81056635532877 109.44527363183443,95.16353502930724 109.8258706467459,95.15136370841356 112.98258706467459,96.70928541170724 113.65422885573935,97.29350222018547 116.95646766165737,98.63232452681405 117.70646766171558,99.14350833153003 118.0758706467459,98.92442975391168 118.17661691538524,97.80469021387398 118.35572139301803,97.65863666460791 119.75497512432048,97.8777169395471 121.76990049751475,97.8898880573397 123.29228855716065,98.48627171742555 124.38930348254507,98.64449558834895 127.26616915420163,98.60798240099393 124.35572139295982,98.60798240099393 123.37064676609589,98.47410064405994 121.9154228855623,97.92640140518779 118.44527363183443,97.6951500641735 118.19900497508934,97.85337470129889 117.99751243781066,99.07048217163538 117.67288557213033,99.15567935499712 116.12810945272213,98.31587660808873 113.79975124372868,97.4030426392128 109.87064676609589,95.21222030378703 109.50124378106557,95.24873425014084 108.57213930349099,94.81056635532877 107.32960199005902,94.82273770161555 103.33333333331393,94.14114091332885 108.59452736319508,94.82273770161555 109.44527363183443,95.22439162016963 109.87064676609589,95.16353502930724 113.18407960195327,97.02573644228687 116.95646766165737,98.66883770875575 117.78482587059261,99.19219241998508 118.10945273627294,98.83923244994367 118.1654228855623,97.84120358079963 118.31094527360983,97.65863666460791 120.00124378106557,97.8777169395471 121.6915422885213,97.84120358079963 123.26990049751475,98.43758741859347 124.44527363183443,98.59581133667962 127.33333333331393,98.60798240099393 123.88557213929016,98.60798240099393 121.94900497508934,97.91423029016005 120.81840796017786,97.95074363256572 118.36691542284098,97.6464655296295 118.1654228855623,97.8777169395471 118.08706467662705,98.91225871322968 117.97512437804835,99.13133730711706 117.72885572136147,99.16785037756199 113.27363184076967,97.09876351615821 109.92661691538524,95.23656293560634 109.53482587065082,95.24873425014084 108.66169154224917,94.88359441942885 107.24004975124262,94.81056635532877 103.45646766171558,94.20199788502941 106.1206467661541,94.53062514060002 106.6915422885213,94.56713923928328 108.58333333337214,94.87142307768227 110.58706467662705,95.55301681895799 113.08333333331393,96.84316861483967 109.94900497508934,95.24873425014084 106.6915422885213,94.61582469150017" stroke="yellow" stroke-linecap="round" stroke-linejoin="round" stroke-width="0.5"><title>2025-02-21 11.3km</title><desc>1740135343000</desc></polyline><polyline fill="none" points="135.9664804469794,94.5346022361773 134.0670391061576,94.15799192381382 136.79329608939588,94.46170998555317 139.36312849167734,94.8869143215561 140.0782122904784,95.25137429844472 140.78212290501688,95.28782025133842 143.9217877095216,97.08581047989719 147.55307262565475,98.66510986660433 148.36871508380864,99.16319342375209 148.73743016755907,98.8959292651416 148.86033519549528,97.81471978974878 149.0167597765685,97.69323513103882 150.56983240222326,97.89975899698038 152.58100558660226,97.9119074515038 153.86592178768478,98.45858696993673 154.9608938547317,98.64081306880689 157.9441340781632,98.62866466857668 157.0502793295891,98.75014863040997 154.37988826812943,98.60436786532227 152.51396648044465,97.9726497107331 149.0726256983471,97.72968053814839 148.83798882679548,97.92405590516864 148.67039106145967,99.01741302789014 148.32402234635083,99.15104506240459 144.0893854748574,97.25588961027097 140.54748603352346,95.27567160129547 140.033519553137,95.25137429844472 139.19553072628332,94.8869143215561 137.78770949720638,94.8018735430669 134.0,94.1458431896026 139.25139664800372,94.85046827905171 140.45810055866605,95.19063102554355 143.39664804469794,96.64846333005698 144.37988826812943,97.31663211385603 148.49162011168664,99.1024516079924 148.71508379885927,98.90807764550846 148.79329608933767,97.8876105415111 148.9497206704109,97.69323513103882 152.46927374298684,97.89975899698038 153.8770949720638,98.45858696993673 155.0055865921313,98.64081306880689 158.0,98.66510986660433 156.75977653625887,98.76229702160344 154.39106145250844,98.61651626740058 152.58100558660226,97.9726497107331 149.0391061452683,97.71753207000438 148.80446927371668,97.94835280977713 148.74860335193807,98.88378088390164 148.52513966476545,99.18749014372588 144.79329608933767,97.5717503818014 140.55865921784425,95.25137429844472 140.17877094971482,95.27567160129547 139.26256983244093,94.89906300055736 136.32402234635083,94.52245353000762 137.28491620114073,94.63179185301124 139.19553072628332,94.85046827905171 141.08379888272611,95.56723895280447 140.59217877092306,95.25137429844472 139.988826815621,95.23922564568056 138.9050279329531,94.83831959639792 137.9329608938424,94.82617091287102 134.54748603352346,94.19443812110694" stroke="yellow" stroke-linecap="round" stroke-linejoin="round" stroke-width="0.5"><title>2025-02-19 10.6km</title><desc>1739962218000</desc></polyline><polyline fill="none" points="166.40823970048223,94.3332617181295 164.66666666668607,94.16222409244801 167.6217228465248,94.47986525529996 169.98127340828069,94.89524123213778 170.63295880157966,95.22509787591116 171.10486891388427,95.20066407318518 175.22846441948786,97.47299214990926 179.18352059932658,99.17110924088047 179.3745318352594,98.92677692949655 179.498127340863,97.86392713901296 179.68913857685402,97.72954334165843 183.25093632965581,97.94944404365378 184.8576779026771,98.60914438050531 188.66666666668607,98.68244425408193 185.0599250936648,98.6335776753258 183.20599250943633,97.96166074067878 179.91385767795146,97.72954334165843 179.72284644201864,97.93722734572657 179.52059925097274,97.88836054492276 179.3745318352594,99.00007666113379 179.02621722855838,99.13445941737154 174.47565543081146,97.118706511028 171.12734082399402,95.24953167498461 169.8576779026771,94.87080738026998 165.5318352060276,94.25995990038791" stroke="#4DD2FF" stroke-linecap="round" stroke-linejoin="round" stroke-width="0.5"><title>2025-02-18 4.9km</title><desc>1739836925000</desc></polyline><polyline fill="none" points="13.928537846717518,121.01459202628757 13.894687353051268,121.30903966337792 15.13587212038692,121.27223373753077 16.783262811484747,121.55441229209828 18.938410907343496,122.70765874942299 20.100611189438496,123.08798293778091 21.18382698635105,123.87316558028397 24.828396802942734,125.36990962240088 25.6633756463998,125.87291071377695 25.968030089337844,125.63981283806788 26.04701457452029,124.54792892257683 26.22755054064328,124.3884396548383 29.781852374202572,124.67061286959506 31.429243065300398,125.32083626293752 35.33333333331393,125.39444629666104 31.553361542057246,125.24722619634122 29.80441936996067,124.59700251235336 26.317818523733877,124.37617124321696 26.114715561794583,124.59700251235336 26.058298072370235,125.56620291400759 25.877762106247246,125.8238375041692 21.736718382686377,124.09399752393074 18.396803008916322,122.20464798987086 16.69299482833594,121.5176064210973 11.33333333331393,120.79375595290912 16.72684532200219,121.52987504568591 18.283968030067626,122.2291851357586 16.72684532200219,121.52987504568591" stroke="#4DD2FF" stroke-linecap="round" stroke-linejoin="round" stroke-width="0.5"><title>2025-02-14 5.4km</title><desc>1739506837000</desc></polyline><polyline fill="none" points="44.62307333020726,121.18210950338107 46.640822045796085,121.42587785831711 48.456795889826026,121.87684835733671 52.94068192434497,124.27794062459725 56.382064455829095,125.85021037678234 56.66230733302655,125.8014580533345 57.09948622144293,124.70452693467087 57.424567958922125,124.4485752821056 60.608127043466084,124.63139793195296 62.401681457296945,125.35049837258703 66.0,125.38706271733099 62.323213451658376,125.35049837258703 60.574497898167465,124.65577426982054 57.480616534361616,124.49732800868514 57.17795422702329,124.64358610133058 56.56141989730531,125.85021037678234 52.70527790754568,124.29012882029929 48.49042503500823,121.92560185032198 47.470340962172486,121.59651549064438 42.0,120.81645628987462 47.313404950953554,121.52338509856781 48.54647361050593,121.92560185032198 52.72769733774476,124.20481143114739 56.34843531064689,125.82583421688469 56.684726763225626,125.74051762856834 57.14432508178288,124.66796243737917 57.503035964560695,124.49732800868514 60.61933675856562,124.66796243737917 62.323213451658376,125.31393401965033 66.0,125.3748746033234 64.46426903316751,125.46019138229894 62.312003736617044,125.28955777986266 60.55207846802659,124.65577426982054 57.46940681920387,124.4363870981615 57.17795422702329,124.63139793195296 56.67351704812609,125.77708188616089 56.49416160676628,125.8136461355316 52.503503035986796,124.13168220504303 48.88276506308466,122.10842731966113 47.7393741242704,121.63308067440812 42.02241943019908,120.84083319621277 44.869687062106095,121.08460205970914 47.470340962172486,121.52338509856781 49.028491359204054,122.32781761317165 48.445586174726486,121.9134134784399 48.29985987854889,121.98654369614087 47.30219523591222,121.54776189956465" stroke="yellow" stroke-linecap="round" stroke-linejoin="round" stroke-width="0.5"><title>2025-02-12 10.1km</title><desc>1739334019000</desc></polyline><polyline fill="none" points="91.96280400577234,125.00706321769394 92.96995708160102,125.355491427792 96.66666666668607,125.38037912928849 93.09585121605778,125.40526682704512 91.37911301868735,124.63374647177989 88.01430615171557,124.40975602375693 87.2818311874289,125.81591330499214 87.06437768245814,125.85324475292873 82.57796852645697,123.8871104769787 81.37625178828603,123.11558310945111 78.19456366245868,121.62229420959193 72.66666666668607,120.75120285239245 77.98855507874396,121.48540872574085 79.76251788268564,122.16983502302901 82.01716738200048,123.26491126518522 83.15021459234413,124.06132584094303 86.98426323320018,125.79102566841175 87.29327610880136,125.67903125785233 87.76251788274385,124.55908302249736 88.04864091560012,124.39731210119498 90.10872675251449,124.62130256590899 91.13876967097167,124.55908302249736 92.98140200291527,125.31815986860602 96.51788268960081,125.36793527899135 91.67668097285787,125.0195070948539 91.73390557942912,125.36793527899135 91.63090128760086,124.9572876997845 91.21888412022963,124.77062937548908 88.04864091560012,124.44708778595668 87.8197424893151,124.57152693301032 87.1902718169149,125.91546381427906 82.8755364806857,124.06132584094303 82.08583690988598,123.42668328320724 80.63233190274332,122.72981808929762" stroke="#4DD2FF" stroke-linecap="round" stroke-linejoin="round" stroke-width="0.5"><title>2025-02-10 6.3km</title><desc>1739162078000</desc></polyline><polyline fill="none" points="103.5048561480362,122.3654634830018 104.95620304194745,122.40848013813957 111.50045812717872,123.3691829386662 113.50595565326512,123.28315004690376 113.67747846798738,123.94273457062081 114.42954004032072,123.98575087432982 115.31354223925155,124.31554221776605 115.92046912218211,123.4408769858419 121.33003481756896,123.34050531235698 121.62030419637449,123.84236315802264 121.96334982587723,123.92839580058353 122.1876488912967,123.79934682235762 122.41194795671618,123.19711711685522 123.44108484510798,123.12542297916661 127.33333333331393,123.61294259042188 123.6785779732163,123.11108414841874 122.37236576870782,123.18277829143335 122.12167857791064,123.79934682235762 121.89737951249117,123.9140570294694 121.33003481756896,123.32616649757256 115.98643943556817,123.41219937015558 115.60381161805708,123.67029775789706 115.33993036468746,124.3298809590633 113.74344878131524,123.95707333962491 113.74344878131524,123.39786056072626 113.57192596665118,123.25447240781796 111.63239875383442,123.35484412603546 105.49715961143374,122.45149678364396 103.33333333331393,122.3511245958216 105.20689023268642,122.4228190210124 111.21018874837318,123.32616649757256 113.47956752788741,123.25447240781796 113.66428440529853,123.92839580058353 115.3267363019404,124.31554221776605 115.72255818214035,123.56992620365054 116.06560381152667,123.41219937015558 121.27725856692996,123.32616649757256 121.6466923217522,123.85670193443366 121.91057357518002,123.9140570294694 122.1876488912967,123.74199169324129 122.29320139269112,123.26881122788473 122.6230529594468,123.1397618088522 127.05625801713904,123.56992620365054 123.86329485062743,123.11108414841874 122.57027670874959,123.11108414841874 122.21403701667441,123.29748886487505 121.98973795125494,123.9140570294694 121.7258566977689,123.85670193443366 121.31684075493831,123.29748886487505 115.93366318487097,123.39786056072626 115.61700568068773,123.64162017627677 115.3531244272599,124.31554221776605 113.73025471868459,123.94273457062081 113.57192596665118,123.19711711685522 111.4212937511038,123.28315004690376 104.79787428985583,122.33678570759366 103.63679677475011,122.37980236910516 104.82426241517533,122.3654634830018 112.01502657134552,123.3835217502492 113.54553784121526,123.25447240781796 113.69067253067624,123.94273457062081 114.71980941906804,124.07178345300781 113.74344878131524,123.92839580058353 113.47956752788741,123.2114559411857 111.48726406443166,123.29748886487505 105.40480117278639,122.40848013813957 103.78193146415288,122.37980236910516 105.52354773686966,122.45149678364396" stroke="#4DD2FF" stroke-linecap="round" stroke-linejoin="round" stroke-width="0.5"><title>2025-01-25 9.9km</title><desc>1737761473000</desc></polyline><polyline fill="none" points="134.31999999994878,122.15962864886387 142.14666666660924,123.28986631480802 144.41333333333023,123.1884349968168 144.40000000002328,124.11580508417683 145.28000000002794,124.15927544886654 146.03999999997905,124.5070380178222 146.67999999999302,123.56517962639919 152.13333333324408,123.43476810616266 152.63999999995576,124.07233470979554 152.9733333332697,123.970903798574 153.06666666665114,123.43476810616266 153.27999999996973,123.27537612974993 158.0,123.72457136609592 154.32000000000698,123.2319055681146 153.15999999991618,123.3333368635067 152.79999999998836,124.05784458284325 152.50666666665347,123.970903798574 152.38666666665813,123.53619929611159 152.13333333324408,123.42027793187299 146.7066666666069,123.52170912934525 146.43999999994412,123.66661074853619 146.11999999999534,124.47805782742216 144.49333333328832,124.08682483564189 144.37333333329298,123.36231722396042 142.51999999996042,123.49272879258206 135.25333333329763,122.43494355530129 134.0,122.449433802758 135.62666666664882,122.49290453871072 142.1066666666302,123.4637484515406 144.1866666666465,123.34782704427198 144.35999999998603,123.50721896151663 144.35999999998603,124.01437419555441 146.03999999997905,124.47805782742216 146.66666666662786,123.53619929611159 152.11999999993714,123.42027793187299 152.45333333330927,123.970903798574 152.7600000000093,124.05784458284325 153.33333333331393,123.26088594362955 157.19999999995343,123.56517962639919 153.44000000000233,123.21741537877824 153.06666666665114,123.3333368635067 153.0,123.89845311544195 152.7600000000093,124.02886432572268 152.11999999993714,123.37680740254291 146.7333333333372,123.52170912934525 146.38666666671634,123.73906151778647 146.0800000000163,124.44907763270021 144.47999999998137,124.05784458284325 144.27999999996973,123.31884668170824 142.50666666665347,123.4782386225852 135.38666666665813,122.42045330675319 134.29333333333489,122.4639240491233 135.51999999996042,122.43494355530129 137.22666666662553,122.71025807323167" stroke="#4DD2FF" stroke-linecap="round" stroke-linejoin="round" stroke-width="0.5"><title>2025-01-19 8.1km</title><desc>1737283232000</desc></polyline><polyline fill="none" points="167.83901603607228,121.15164050548628 169.84555503656156,121.43197397785843 170.69749338313704,121.87075583983096 171.32523742795456,121.88294420808961 174.30702164093964,123.44304784758424 174.676942238817,123.78431853555958 178.32009964186,125.34440404357156 179.13840884319507,125.85630385945842 179.36260314495303,125.72223501482222 179.84462089365115,124.58873948335531 180.1584929160308,124.40591688797576 183.10664798377547,124.5521749806212 184.98988011828624,125.22252289894095 188.66666666668607,125.32002782190102 184.91141211264767,125.22252289894095 183.20753541955492,124.52779864093463 180.20333177642897,124.38154052649043 179.8558306087507,124.51561046973802 179.35139342979528,125.72223501482222 179.19445741863456,125.79536348916008 175.1477502724738,124.10121210834768 171.1907208469347,121.90732094187115 170.87684882449685,121.93169767202926 169.93523275724147,121.51729276543483 167.35699828743236,121.27352468293975 164.66666666668607,120.76161052731914 170.10337848355994,121.55385794646281 171.2467694223742,121.89513257543149 175.34952514397446,124.13777671186836 178.30888992681867,125.3565921530535 179.03752140741562,125.88068000118074 179.34018371475395,125.7831754123763 179.83341117855161,124.6618684643181 180.20333177642897,124.46685777581297 183.28600342513528,124.61311581396149 185.02350926358486,125.2468991351343 188.66666666668607,125.34440404357156 185.00108983338578,125.32002782190102 183.16269655921496,124.62530397791124 180.19212206132943,124.46685777581297 179.87825003889157,124.61311581396149 179.35139342979528,125.8197396399919 178.94784368673572,125.83192771403992 174.4751673672581,123.78431853555958 171.29160828271415,121.9682627604634 170.8880585395964,121.99263948151201 170.01370076288003,121.57823472929886 164.7115055269678,120.7981758772803 170.22668534953846,121.56604633833922 170.84321967925644,121.91950930739404 171.20193056197604,121.88294420808961 175.33831542893313,124.14996491123748 179.2056671337341,125.90505613933783 179.92308889923152,124.56436314911116 181.12252841348527,124.56436314911116 180.06881519540912,124.5521749806212 179.35139342979528,125.84411578718573 179.01510197727475,125.79536348916008 174.4415382220177,123.78431853555958 171.25797913747374,121.95607439854939 170.93289739999454,121.9804511214461 170.0361201930791,121.56604633833922 167.52514401363442,121.27352468293975" stroke="yellow" stroke-linecap="round" stroke-linejoin="round" stroke-width="0.5"><title>2025-01-17 12.3km</title><desc>1737088953000</desc></polyline><polyline fill="none" points="13.760299625399057,147.70935502290376 13.917602996225469,147.44058157101972 14.602996254630852,147.8926093965565 17.79400749062188,148.52788963963394 19.59176029957598,149.4563717214187 20.288389513036236,150.00612837077642 25.79400749062188,152.54720182478195 26.007490636664443,152.4006025034614 26.479400748969056,151.28888671851018 26.77153558045393,151.0934194278234 29.90636704111239,151.28888671851018 31.625468164740596,151.92415380418242 35.32209737820085,151.9852370481094 31.704119850124698,151.92415380418242 29.77153558045393,151.28888671851018 26.86142322095111,151.14228627234115 26.52434456924675,151.26445331993455 25.996254681551363,152.4861187901406 25.85018726589624,152.5349852196814 21.749063670402393,150.775784583544 17.827715355728287,148.564540347812 16.53558052435983,148.23468367944588 11.33333333331393,147.50166648514278 16.434456928807776,148.18581596843433 17.501872659137007,148.564540347812 17.80524344567675,148.52788963963394 22.198501872597262,150.9468188069004 24.872659175947774,151.99745369415905 25.670411984960083,152.51055200674455 25.973782771499828,152.43725234609155 26.45692883891752,151.2766700196662 26.79400749062188,151.10563614031707 29.79400749062188,151.28888671851018 31.602996254630852,151.91193715264671 35.33333333331393,151.96080375328893 31.65917602990521,151.91193715264671 29.895131086057518,151.33775350476208 26.872659176005982,151.11785285193764 26.52434456924675,151.28888671851018 25.883895131060854,152.55941842896573 21.928838951222133,150.86130171752302 17.861423220892902,148.62562484318914 17.310861423204187,148.60119104776822 16.71535580517957,148.25911752948014 12.72659176029265,147.68492109092767" stroke="#4DD2FF" stroke-linecap="round" stroke-linejoin="round" stroke-width="0.5"><title>2025-01-15 9.1km</title><desc>1736916504000</desc></polyline><polyline fill="none" points="44.09230769233545,147.34791047594626 44.2489510489977,147.61555666571076 44.79720279725734,147.94403093530855 47.53846153849736,148.3941612686176 49.02657342661405,148.8807872600737 50.79440559440991,150.0365181775269 56.37762237759307,152.59126275926246 56.62377622380154,152.53043597175565 57.093706293730065,151.43554992295685 57.47412587411236,151.22873728943523 60.56223776220577,151.42338448115333 62.25174825172871,152.09248243314505 66.0,152.17764015763532 62.20699300704291,152.12897860622616 60.528671328676865,151.45988080376992 57.462937062897254,151.22873728943523 57.093706293730065,151.43554992295685 56.56783216778422,152.60342811403098 56.220979020989034,152.60342811403098 52.55104895104887,150.973262498228 48.48951048956951,148.7104683280195 48.254545454576146,148.783462177802 46.83356643357547,148.33333291769668 42.0,147.6520538393961 46.05034965038067,148.13868204252503 48.467132867197506,148.67397139090463 52.08111888112035,150.66912532088463 56.44475524476729,152.65208952405374 56.702097902074456,152.50610525043157 57.227972028020304,151.2773991091235 58.369230769225396,151.30173001352523 57.26153846154921,151.32606091430353 56.534265734255314,152.6399241729232 52.271328671311494,150.90026962732372 48.55664335668553,148.7347996148892 47.24755244754488,148.357664260795 43.72307692311006,147.87103671029035" stroke="#4DD2FF" stroke-linecap="round" stroke-linejoin="round" stroke-width="0.5"><title>2025-01-14 7.8km</title><desc>1736829619000</desc></polyline><polyline fill="none" points="75.94852713181172,147.9791553395189 75.75875968998298,147.71213237859774 76.20527131785639,147.76068204040348 79.95596899226075,148.9622815597104 82.26666666666279,150.1031860318035 83.29364341089968,150.81928156597132 87.01085271319607,152.51847871261998 87.25643410853809,152.44565634126775 87.75875968992477,151.30476827337407 88.08248062012717,151.11057376401732 91.10759689920815,151.30476827337407 92.55875968997134,151.89948751835618 93.59689922485268,152.0329956219066 96.66666666668607,152.0329956219066 92.77085271320539,151.93589883018285 91.11875968996901,151.30476827337407 88.11596899229335,151.09843659948092 87.79224806203274,151.23194535948278 87.26759689924074,152.44565634126775 86.955038759741,152.45779340542504 83.21550387598109,150.84355593568762 79.79968992253998,148.97441888335743 78.08062015502946,148.25831523980014 72.66666666668607,147.49365872138878 78.1475968992454,148.28258999112586 79.79968992253998,148.90159492778184 82.79131782945478,150.5886748731573 86.9773643410881,152.4820675309893 87.24527131789364,152.40924514336803 87.69178294576705,151.31690542251454 88.01550387602765,151.11057376401732 91.20806201553205,151.31690542251454 92.88248062017374,151.94803593230608 96.55503875971772,152.04513271682663 92.80434108531335,151.91162462320062 91.12992248061346,151.28049397237191 88.004341085325,151.09843659948092 87.73643410851946,151.25621966771723 87.21178294578567,152.4820675309893 86.78759689925937,152.44565634126775 86.21829457365675,152.05726981081534 83.05922480620211,150.7950071926316 79.08527131786104,148.5496120169846 77.89085271320073,148.22190310600854 72.71131782949669,147.48152128739457 79.10759689926635,148.5374746616726 83.08155038760742,150.72218405087187 86.25178294576472,152.0329956219066 86.98852713184897,152.5063416530029 87.24527131789364,152.43351927617914 87.73643410851946,151.24408251406567 88.04899224807741,151.09843659948092 91.05178294575308,151.25621966771723 92.60341085272375,151.8752133059752 93.5410852713394,151.972310133875 92.55875968997134,151.8752133059752 91.01829457364511,151.25621966771723 88.07131782948272,151.06202510051662 87.75875968992477,151.20767104763945 87.25643410853809,152.38497100690438 86.8545736434171,152.39710807557276 85.81643410853576,151.82666487029928 83.08155038760742,150.7707328156539 79.07410852710018,148.5496120169846 77.53364341089036,148.16121619830665" stroke="yellow" stroke-linecap="round" stroke-linejoin="round" stroke-width="0.5"><title>2025-01-10 13.0km</title><desc>1736482744000</desc></polyline><polyline fill="none" points="105.63239875389263,147.29903459839988 106.73146417445969,148.04287764155015 108.6380062305252,148.40870084882772 110.51090342679527,149.12815077111009 112.54080996883567,150.33535624716023 117.78940809972119,152.70096540160012 118.03613707167096,152.50586490922433 118.13707165111555,151.4328080443811 118.28286604362074,151.24989992252085 121.81557632400654,151.48158350902668 123.6660436137463,152.16443848800554 127.27725856698817,152.2497951600526 123.50903426791774,152.12785704349517 121.81557632400654,151.49377737291798 118.35015576326987,151.23770604048332 118.1258566978504,151.49377737291798 118.03613707167096,152.55464005410613 117.78940809972119,152.70096540160012 113.77445482870098,150.99382820852043 109.8267912772717,148.78671730398491 108.5931464174646,148.40870084882772 103.33333333331393,147.67705361657136 108.8847352025332,148.43308903356956 109.43426791275851,148.73794103624823 109.81557632394833,148.73794103624823 113.8417445482919,150.94505259848665 117.62118380062748,152.6521903002722 118.0024922118173,152.55464005410613 118.11464174458524,151.44500191192492 118.31651090347441,151.26209380365617 121.81557632400654,151.49377737291798 123.75576323986752,152.16443848800554 127.33333333331393,152.21321373463434 123.45295950159198,152.11566322682484 121.80436137074139,151.44500191192492 118.36137071653502,151.26209380365617 118.170716510911,151.38403256519814 118.15950155764585,152.2497951600526 117.86791277263546,152.68877162761055 113.6959501557867,150.95724650238117 109.849221183802,148.77452323843318 108.51464174455032,148.40870084882772 103.33333333331393,147.64047116911388 107.2585669781547,148.14043057677918 109.77071651094593,148.71355289693747 113.46043613710208,150.77433784907043 117.64361370721599,152.6521903002722 117.9576323988149,152.56683383803465 118.20436137076467,151.9571435276448 117.9576323988149,152.6278027442022 117.46417445485713,152.55464005410613 113.76323987543583,150.96944040531525 109.8267912772717,148.7013588259142 109.56884735205676,148.762329171921 108.70529595017433,148.34773037105333 107.28099688480143,148.1892070225731" stroke="yellow" stroke-linecap="round" stroke-linejoin="round" stroke-width="0.5"><title>2025-01-08 12.0km</title><desc>1736310892000</desc></polyline><polyline fill="none" points="136.5582047685748,148.523855044652 136.89481065917062,147.9870635434636 136.93969144456787,147.46247014887922 137.15287517529214,147.27947205769306 137.39971949509345,147.3282715686655 137.2875175314839,147.41367067789542 138.37587657780387,147.82846571769915 138.93688639550237,148.29205893045582 141.23702664795564,149.0972440225305 145.0518934081192,151.15898780035786 148.4852734922315,152.68392951563874 148.70967741927598,152.46433878381504 148.74333800835302,151.45177771117596 149.05750350630842,151.24438491176988 152.4908835904207,151.48837641325372 154.28611500700936,152.17155068335705 158.0,152.24474775756244 154.26367461431073,152.14715165138477 152.53576437581796,151.51277554337867 149.01262272091117,151.28098366015183 148.77699859743007,151.52497510708054 148.74333800835302,152.46433878381504 148.5525946703856,152.7205279423215 144.34502103785053,150.92719541634142 140.49649368860992,148.7678505997901 140.07012622716138,148.7678505997901 139.2847124824766,148.3896573343227 134.0,147.71866713294003 139.4417952314252,148.4994554691075" stroke="#4DD2FF" stroke-linecap="round" stroke-linejoin="round" stroke-width="0.5"><title>2025-01-06 5.2km</title><desc>1736137119000</desc></polyline><polyline fill="none" points="167.77320872276323,148.1587223429815 167.8292834891472,147.69534493394895 168.19937694713008,147.14660683175316 168.46853582555195,148.09775170622743 168.08722741436213,148.35382822797692 168.793769470416,148.3172458922636 171.12647975079017,148.87817414138408 174.2890965732513,150.36584410037904 174.88348909659544,150.89018356801535 179.14517133956542,152.78023049992044 179.40311526483856,152.62171127311012 179.44797507795738,151.59742949141946 179.6610591900535,151.40232747296977 183.35077881626785,151.65839882449654 185.12274143303512,152.3290599895263 188.66666666668607,152.3900290501042 184.97694704052992,152.30467235896504 183.22741433023475,151.62181722739479 179.7059190031141,151.40232747296977 179.492834891018,151.5852356221003 179.41433021810371,152.62171127311012 179.19003115268424,152.84119939245284 175.16386292839888,151.18283742420317 171.8666666666977,149.31716012580728 170.20685358258197,148.64648661935644 164.66666666668607,147.78070402893354 168.4348909657565,148.24408119627333 171.10404984431807,148.84159192288644 174.49096573214047,150.71946857693547 178.40498442365788,152.42661047552247 179.01059190032538,152.8533931682323 179.3919003115734,152.5851298912603 179.492834891018,151.52426626175293 179.64984423673013,151.36574581860623 182.13956386293285,151.65839882449654 183.22741433023475,151.59742949141946 185.0330218068557,152.2924785422947 188.65545171342092,152.35344761647866 184.73021806858014,152.2315094453952 183.16012461064383,151.62181722739479 179.73956386296777,151.36574581860623 179.492834891018,151.54865400862764 179.45919003116433,152.54854850127595 179.21246105921455,152.7924242802692 175.21993769472465,151.1706435239903 171.88909657322802,149.24399587682274 170.50965732091572,148.71965113544138 164.81246105924947,147.84167478379095" stroke="#4DD2FF" stroke-linecap="round" stroke-linejoin="round" stroke-width="0.5"><title>2025-01-03 9.5km</title><desc>1735878536000</desc></polyline><polyline fill="none" points="13.727712724532466,174.33827911291155 15.132864949293435,174.72940490263863 16.740359094459563,174.87607683335955 17.516003122611437,175.26720134085917 17.80827478534775,175.23053345788503 21.146916471538134,177.07614005838695 25.632162373163737,179.14172812171455 25.969398907152936,179.08061642215762 26.430288836883847,177.96837951293855 26.767525370873045,177.77282059568097 29.78017174085835,177.9561570874357 31.567525370861404,178.62838913789892 35.33333333331393,178.73839048392256 31.848555815813597,178.64061151332862 29.91506635438418,178.01726920584042 26.79000780644128,177.83393278233416 26.430288836883847,178.0294916267885 25.834504293568898,179.19061746497755 21.472911787685007,177.3572571224213 17.79703356756363,175.3038692156406 17.50476190482732,175.32831446091586 16.605464480933733,174.90052214240131 15.335206869698595,174.8394088629575 11.33333333331393,174.14271586833638 16.695394223323092,174.888299488317 18.280405932920985,175.63387971972406 16.79656518349657,174.92496744779055 13.502888368500862,174.423837959097" stroke="#4DD2FF" stroke-linecap="round" stroke-linejoin="round" stroke-width="0.5"><title>2025-01-02 5.6km</title><desc>1735817809000</desc></polyline><polyline fill="none" points="44.77009345794795,174.4351754779782 47.43925233645132,174.8741636210616 48.22429906541947,175.28876245283755 48.97570093459217,175.42289714413346 53.0579439252615,177.66658840933815 56.50093457946787,179.15423631308659 56.79252336447826,178.8493915325671 57.11775700934231,178.03240472120524 57.510280373855494,177.83730278995063 60.39252336451318,177.93485378465266 62.50093457946787,178.7030658362928 66.0,178.72745346141164 64.63177570089465,178.81281012076943 62.2990654205787,178.66648439178243 60.54953271028353,177.98362926021218 57.52149532712065,177.81291503219109 57.173831775726285,177.9470476549177 56.65794392529642,179.10546118632192 56.46728971967241,179.19081764855946 50.97196261683712,176.77643196846475 48.448598130838946,175.28876245283755 48.08971962623764,175.31315058672044 47.31588785047643,174.92294000873517 42.0,174.1303219080437 46.9121495327563,174.81319311606057 48.17943925235886,175.26437431533122 48.448598130838946,175.19120988102804 52.04859813087387,177.21541383200383 56.46728971967241,179.20301142527023 57.20747663552174,177.91046604144503 57.510280373855494,177.78852727080812 58.362616822414566,177.89827216844424 57.18504672899144,177.88607829457032 56.65794392529642,179.081073617519 56.45607476634905,179.14204253273783 52.38504672900308,177.42271041385538 48.616822429932654,175.32534465227218 48.112149532709736,175.28876245283755 47.214953271031845,174.88635771935515 46.25046728970483,174.92294000873517 42.33644859812921,174.16690436644421 44.80373831780162,174.63028146470606" stroke="#4DD2FF" stroke-linecap="round" stroke-linejoin="round" stroke-width="0.5"><title>2024-12-31 8.0km</title><desc>1735619151000</desc></polyline><polyline fill="none" points="76.00872274150606,174.60589338264253 76.82741433026968,174.63028161642433 79.1713395639672,175.17901591629197 80.53956386301434,175.91065878758673 80.93208722746931,176.31306097266497 87.21246105927275,179.1542361277534 87.8068535826169,177.9958230277989 88.1433021807461,177.812914946815 91.24984423682326,177.98362916208862 92.79750778817106,178.60551515495172 96.65545171347912,178.70306568456 92.94330218079267,178.66648424278537 91.22741433029296,177.9958230277989 88.15451713406947,177.812914946815 87.82928348920541,177.95924142793228 87.15638629288878,179.2030112363136 83.36573208728805,177.58123108409927 79.93395638634684,175.6911662696075 77.93769470410189,174.8985519484413 72.66666666668607,174.13032209700032 76.90591900318395,174.67905807311763 79.13769470411353,175.1912099909532 83.36573208728805,177.48367988593236 87.0554517134442,179.19081746053416 87.33582554518944,179.08107343765732 87.8068535826169,177.98362916208862 88.18816199380672,177.77633330607205 91.18255451723235,177.95924142793228 92.99937694711844,178.62990279281803 96.66666666668607,178.64209661037603 93.13395638635848,178.65429042704636 91.17133956390899,177.98362916208862 88.13208722742274,177.78852718720736 87.8068535826169,177.95924142793228 87.31339563871734,179.06887965278293 87.13395638635848,179.1542361277534 83.07414330221945,177.44709817161493 79.22741433029296,175.2887625554722 77.54517133964691,174.87416375460452 72.84610591904493,174.19129285187228 77.79190031159669,174.86196965632553 78.82367601251462,175.27656848808692 79.26105919008842,175.2277922094654 82.82741433026968,177.20321986726776 79.20498442370445,175.25218035059515 75.81806853588205,174.61808749997" stroke="yellow" stroke-linecap="round" stroke-linejoin="round" stroke-width="0.5"><title>2024-12-30 10.8km</title><desc>1735533491000</desc></polyline><polyline fill="none" points="106.70273631840246,174.56105247441155 108.89676616917131,174.92619323011604 109.51243781094672,175.27916185148933 109.8258706468041,175.24264789154404 110.46393034828361,175.51041674161388 113.20646766171558,177.0683358913957 117.66169154230738,179.1130822300329 117.98631840798771,179.12525326256582 118.45646766165737,177.96900112267758 118.8258706468041,177.76209198182914 121.76990049745655,177.95683000398276 123.52736318408279,178.63841125366162 127.33333333331393,178.69926658412442 123.67288557218853,178.63841125366162 121.88184079603525,177.9811722404702 118.7810945273377,177.786434247304 118.47885572141968,177.96900112267758 118.08706467662705,178.95485872446443 117.78482587065082,179.17393738367537 113.59825870645,177.4091287249903 110.6206467662123,175.7051574478537 108.91915422887541,175.01139262235665 103.33333333331393,174.13505389454076 108.72885572141968,174.91402188474603 110.87810945272213,175.7051574478537 113.13930348260328,177.0683358913957 117.75124378106557,179.19827943878772 117.97512437810656,179.13742429419653 118.49004975124262,177.9811722404702 118.8034825870418,177.83511876733974 121.85945273633115,178.00551447329053 123.53855721396394,178.6505823215557 127.29975124378689,178.6870955198101 126.15796019899426,178.78446400865505 123.59452736319508,178.6505823215557 121.84825870645,177.95683000398276 118.81467661692295,177.786434247304 118.50124378112378,177.92031664251408 117.98631840798771,179.10091119655408 117.65049751242623,179.14959532493958 114.02363184076967,177.56735372752883 112.83706467656884,176.8370832065848 108.89676616917131,174.96270726081275 103.90422885568114,174.2567678878695" stroke="#4DD2FF" stroke-linecap="round" stroke-linejoin="round" stroke-width="0.5"><title>2024-12-27 9.1km</title><desc>1735273142000</desc></polyline><polyline fill="none" points="153.30093457939802,178.1116648051393 152.42616822430864,177.86778755456908 151.49532710277708,177.9775323622889 149.30841121496633,177.77023655263474 148.53457943926333,179.16033284213336 144.46355140185915,177.5019709974149 140.42616822425043,175.28266635801992 140.10093457944458,175.31924854655517 139.226168224297,174.9290381139581 134.0,174.09983785561053 137.6560747663607,174.68515612115152 138.0149532710784,174.62418556616467 140.5831775701372,175.27047229335585 143.44299065420637,176.7093656521174 143.869158878515,177.09957184022642 148.28785046731355,179.12375151205924 148.6130841121194,179.09936395417026 149.06168224295834,177.9775323622889 149.42056074767606,177.75804267327476 152.51588785042986,177.95314463361865 154.41121495328844,178.66038729037973 158.0,178.7579377618531 154.04112149530556,178.58722439863777 152.6504672897281,177.98972622526344 149.4093457943527,177.77023655263474 149.17383177572628,177.8433998095279 148.66915887856157,179.13594528964313 148.4448598130839,179.23349547771795 147.4803738318151,178.66038729037973 144.3289719626191,177.41661368310452 140.63925233646296,175.2582782278041 138.10467289719963,174.68515612115152 135.44672897196142,174.3315265860292" stroke="#4DD2FF" stroke-linecap="round" stroke-linejoin="round" stroke-width="0.5"><title>2024-12-25 6.6km</title><desc>1735101299000</desc></polyline><polyline fill="none" points="167.1587153102737,174.31103241551318 167.06891175551573,174.53073214097822 167.2148425319465,174.48191000522638 167.42812597443117,174.12794908584328 168.1128780792351,174.60396531732113 168.87620829435764,174.64058189321076 171.2223261615727,175.23865147431206 175.37574056751328,177.50885490815563 179.19239164330065,179.1565635048173 179.34954786411254,179.14435831687297 179.82101652637357,177.9848613159702 180.1690053009661,177.8017820920213 183.17742438416462,177.9726560407289 185.11942625511438,178.704970945284 188.66666666668607,178.76599703960528 184.95104459003778,178.66835527779767 183.06516994081903,177.9604507646145 180.06797630194342,177.81398737996642 179.82101652637357,177.9360402095772 179.31587153108558,179.083332363487 179.1138135329238,179.11994793824852 174.97162457130617,177.4112123971281 171.86217648896854,175.60481544630602 170.0997817274765,174.89689769533288 164.66666666668607,174.14015464752447 166.50763953849673,174.42088231506932 167.3832241970813,174.3964712326415 170.47022139071487,175.00674720206007 171.87340193329146,175.55599363066722 175.7237293420476,177.67972916239523 179.01278453384293,179.14435831687297 179.36077330843545,179.10774274758296 179.92204552545445,177.86280852272466 181.06704084813828,177.86280852272466 179.9557218584814,177.82619266702386 179.30464608670445,179.2053842474852 175.26348612410948,177.53326552679937 173.0857499220292,176.2517031301104 170.2120361708803,174.98233620691462 164.70034299965482,174.15236020830343 169.31400062364992,174.81145913919318" stroke="#4DD2FF" stroke-linecap="round" stroke-linejoin="round" stroke-width="0.5"><title>2024-12-18 8.3km</title><desc>1734495982000</desc></polyline><polyline fill="none" points="13.86318407964427,199.98014667951793 13.449004975147545,200.07751889714564 13.594527363195084,199.95580361601606 13.449004975147545,200.05317584818113 13.359452736272942,199.91928901398205 13.404228855739348,200.04100432233827 14.310945273609832,200.6739224637713 16.292288557218853,201.55026661105512 16.76243781094672,202.2927211682254 17.288557213905733,202.7065468338551 17.870646766154096,202.79174610547489 21.97885572136147,205.00691157142865 25.695273631892633,206.67435147649667 25.963930348225404,206.68652250811283 26.49004975130083,205.51809933659388 26.814676616922952,205.33553246123483 29.926616915443446,205.53027045438648 31.88557213934837,206.21185160249297 35.33333333331393,206.27270692386082 31.58333333331393,206.21185160249297 29.926616915443446,205.54244157124776 26.758706467750017,205.34770359257527 26.43407960201148,205.53027045438648 25.874378109467216,206.7352066255844 20.378109452780336,204.43486622345517 19.997512437810656,204.05755862106162 18.620646766212303,203.27859823372273 16.96393034828361,202.62134751780832 11.33333333331393,201.70849491437548 16.684079601953272,202.4144347081019 17.624378109467216,202.82826006542018 17.825870646804105,202.76740346095175 22.023631840827875,205.05559618938423 24.911691542249173,206.19968053548655 25.70646766171558,206.68652250811283 26.00870646769181,206.6134963046934 26.568407960177865,205.44507261092076 27.73258706467459,205.40855923587515 26.63557213929016,205.4815859778464 26.053482587100007,206.74737765270402 25.549751243786886,206.7108645686967 21.75497512437869,205.079938492956 20.71393034828361,204.3983526226075 16.93034825869836,202.56049083627295 11.422885572130326,201.79369470651727 16.76243781094672,202.4387774052011" stroke="#4DD2FF" stroke-linecap="round" stroke-linejoin="round" stroke-width="0.5"><title>2024-12-17 8.6km</title><desc>1734409492000</desc></polyline><polyline fill="none" points="44.959364782786,201.12726262031356 47.358243811293505,201.50510344377835 48.23260158800986,201.91950850475405 48.52405418030685,201.83418990155042 52.6828584773466,204.125588366398 56.460532461467665,205.7587995975482 56.66230733296834,205.7344234303746 57.177954226965085,204.5277986155852 57.45819710416254,204.36935227182403 60.70901447918732,204.6009276455443 62.334423166757915,205.2225230806216 66.0,205.28346368244092 65.64128911716398,205.40534481797658 62.323213451658376,205.28346368244092 60.406352171848994,204.57655130585772 57.52545539470157,204.45466955289885 57.08827650628518,204.72280928955297 56.60625875758706,205.7587995975482 56.415693601127714,205.81973999961338 53.019149929925334,204.38154045754345 48.45679588976782,201.94388524035458 47.86268099019071,201.8707550226536 47.23493694537319,201.50510344377835 42.0,200.7859862877085 47.313404950953554,201.49291504373832 48.064455861691386,201.89513176554465 48.50163475010777,201.85856664986932 52.64922933210619,204.11340016160102 56.382064455829095,205.74661151441978 56.69593647826696,205.72223534539808 57.07706679118564,204.68624480588187 57.45819710416254,204.3937286423752 60.742643624485936,204.6009276455443 62.300794021459296,205.2225230806216 65.93274170946097,205.32002803261275 62.50256889301818,205.28346368244092 60.540868752927054,204.57655130585772 57.446987389063,204.4302931914135 57.16674451192375,204.5643631346611 56.583839327446185,205.81973999961338 52.57076132646762,204.17434117653465 48.46800560486736,201.94388524035458 47.470340962172486,201.59042221862182 42.13451658101985,200.81036319224222 47.290985520754475,201.50510344377835 48.07566557684913,201.89513176554465 48.55768332554726,201.90732013559318 53.120037365704775,204.33278770915058 56.382064455829095,205.7831757610984 56.69593647826696,205.7344234303746 57.07706679118564,204.4912340883311 58.37739374127705,204.51561044073605 57.189163942064624,204.53998678948847 56.62867818772793,205.880680378963 52.53713218122721,204.1621529753611 48.5128444651491,201.9316968730127 48.154133582429495,201.94388524035458 47.268566090555396,201.5172918429016 42.13451658101985,200.85911699035205 47.190098084975034,201.49291504373832" stroke="yellow" stroke-linecap="round" stroke-linejoin="round" stroke-width="0.5"><title>2024-12-15 13.0km</title><desc>1734235831000</desc></polyline><polyline fill="none" points="75.03980099502951,200.8808344816207 75.03980099502951,201.01471980944916 76.04726368159754,201.31900423728803 77.40174129355,201.5989454103401 78.1069651741418,201.55026002338855 78.78980099502951,201.9397427126387 79.18159203976393,201.9519140317134 83.81592039804673,204.42267302796245 87.14054726372706,205.8345185349899 87.3532338308869,205.8223475051782 87.80099502491066,204.7391222196893 88.13681592041394,204.5200420753099 91.22636815928854,204.67826665351458 93.00621890550246,205.3598477000487 96.66666666668607,205.43287407212483 92.93905472639017,205.3598477000487 91.31592039804673,204.69043776854232 88.080845771241,204.47135755888303 87.76741293532541,204.61741106465342 87.23009950248525,205.85886059189215 83.32338308461476,204.26444820224424 79.68532338307705,202.23185412016755 78.02860696520656,201.58677406495553 72.66666666668607,200.8078060747648 75.50995024869917,201.09991950637777 78.02860696520656,201.51374597368704 79.15920398011804,201.87888610367372 82.59577114426065,203.75325925651123 86.03233830846148,205.26247915321437 86.88308457715902,205.79800544280442 87.34203980100574,205.74932130718662 87.75621890550246,204.7391222196893 88.1032338308869,204.49569981894456 91.17039800999919,204.6295821842068 92.83830845775083,205.32333450177975 94.11442786070984,205.33550556880073 92.74875621893443,205.28682129534718 91.14800995029509,204.65392442069424 88.22636815923033,204.47135755888303 87.76741293532541,204.60523994415416 87.20771144283935,205.8101764744206 83.11069651739672,204.1427366935677 79.18159203976393,201.97625666712702 78.00621890544426,201.58677406495553 76.23756218905328,201.3676896931429" stroke="#4DD2FF" stroke-linecap="round" stroke-linejoin="round" stroke-width="0.5"><title>2024-12-13 8.5km</title><desc>1734064159000</desc></polyline><polyline fill="none" points="105.92945992748719,201.1515578738472 108.40088175085839,201.5090290729422 110.10140135406982,202.0390711533837 113.63848212879384,204.03595862543443 117.59502440557117,205.7862969591515 117.91245473147137,205.79862321978726 118.42261061246973,204.62762435915647 118.74004093842814,204.46738176519284 121.85766021098243,204.62762435915647 123.42213824589271,205.26859318316565 127.33333333331393,205.34255096463312 123.79625255864812,205.31789837447286 121.74429223738844,204.615298011282 118.66068335698219,204.45505540537124 118.3319162336411,204.56599261063093 117.95780192088569,205.62605548728607 117.685718784458,205.872580764335 116.8808061722084,205.4165087130241 113.62714533141116,204.1468961116916 110.33947409852408,202.26094872933754 108.59360730589833,201.6569479638856 110.3281373011414,202.21164262706588 112.41410801449092,203.46894364524633 116.90347976691555,205.4041824238957 117.56101401348133,205.83560199619387 117.88978113676421,205.76164443511516 118.39993701776257,204.41807632044947 117.86710754205706,205.72466564217757 117.58368760824669,205.79862321978726 113.75185010227142,204.17154887628567 109.67060305463383,201.8788260523288 109.27381514717126,201.89115260407561 108.27617697999813,201.48437591160473 103.33333333331393,200.79408590233652" stroke="#4DD2FF" stroke-linecap="round" stroke-linejoin="round" stroke-width="0.5"><title>2024-12-11 6.6km</title><desc>1733890893000</desc></polyline><polyline fill="none" points="136.91011235956103,201.26870157451776 139.4831460674759,201.5619081245386 140.0449438202195,201.89176486662473 140.50561797758564,201.87954796207487 144.73033707868308,204.21296021381568 148.50561797758564,205.84999401714595 149.1235955056618,204.57946173878736 149.44943820225308,204.4328612271056 152.67415730340872,204.62832854692533 154.3258426966495,205.2758123796375 157.9662921348936,205.36132892114983 154.46067415736616,205.2758123796375 152.70786516857333,204.68941203657596 149.21348314610077,204.54281162314874 148.5955056179664,205.88664384065487 144.65168539329898,204.23739367430971 143.51685393264052,203.4677379202767 140.47191011242103,201.95284937566612 140.22471910121385,202.01393386196287 139.25842696632026,201.62299275647092 134.11235955060693,200.88997567137994 138.38202247192385,201.37865409221558 140.47191011242103,201.86733105663734 143.41573033708846,203.3211364146846 144.6404494382441,204.1396598105348 148.41573033714667,205.82556079693313 148.65168539329898,205.740044497521 149.14606741577154,204.65276194550097 149.44943820225308,204.4328612271056 151.41573033708846,204.62832854692533 152.41573033708846,204.54281162314874 154.38202247192385,205.2880290311732 158.0,205.3491122751002 154.19101123599103,205.26359572722868 152.65168539335718,204.65276194550097 149.42696629220154,204.44507794143283 149.14606741577154,204.55502832928323 148.75280898879282,205.65452815349272 148.53932584275026,205.8377774075052 145.03370786522282,204.371777641878 142.93258426967077,203.11345072410768 140.44943820231128,201.89176486662473 138.65168539329898,201.43973879241094 134.0,200.78002282601665 139.74157303373795,201.61077583191218 148.2359550562105,205.7644777304522 148.65168539329898,205.69117802064284 149.14606741577154,204.4206445118616 148.67415730340872,205.740044497521 148.4382022471982,205.78891095978906 144.77528089890257,204.23739367430971 140.4831460674759,201.8551141502685 136.56179775286,201.19539985507436" stroke="yellow" stroke-linecap="round" stroke-linejoin="round" stroke-width="0.5"><title>2024-12-09 12.1km</title><desc>1733738831000</desc></polyline><polyline fill="none" points="174.65347156772623,203.79450435841864 179.16619541315595,205.83585365480394 179.68645931512583,204.65531738082063 180.09362236881861,204.43396588951873 183.01162425382063,204.55693897687888 184.78730757150333,205.2578838255431 188.66666666668607,205.39315354144492 185.16054037073627,205.31937007377564 183.20389569585677,204.6430200835166 180.12755262333667,204.48315513547277 179.74300973926438,204.60612818620575 179.18881558283465,205.86044807075814 175.61482877790695,204.37247931152524 171.06817467801739,201.91299740872637 170.6610116242664,201.92529490942252 170.1407477222965,201.58096454416227 166.91737354703946,201.15055057745485 166.51021049328847,200.95378953311592 166.31793905125232,201.11365789949195 164.90417844807962,200.89230165864865 168.25196355645312,201.23663346057583 171.06817467801739,201.86380739686138 174.0314169023186,203.32720398063248 174.86836317944108,203.9420726239332 178.9965441407985,205.83585365480394 179.2679861765355,205.72517873777542 179.74300973926438,204.5815335833904 180.00314169022022,204.38477662894002 181.00973923970014,204.55693897687888 183.18127552623628,204.56923628058576 184.99088909837883,205.2701810770377 188.58749607286882,205.34396456665127 184.90040841978043,205.2332893198327 183.18127552623628,204.59383088523464 180.08231228403747,204.45856051436567 179.61859880620614,204.85207401277148 179.1775054979953,205.86044807075814 174.97015394287882,204.04045139430673 171.05686459317803,201.91299740872637 170.796732642164,201.96218740592303 169.33773169963388,201.48258430787246 164.66666666668607,200.80621859591338 169.55262331140693,201.48258430787246 170.69494187872624,201.90069990714255 171.12472510215594,201.88840240465652 172.58372604468605,202.68773816189787" stroke="#4DD2FF" stroke-linecap="round" stroke-linejoin="round" stroke-width="0.5"><title>2024-12-06 9.2km</title><desc>1733479157000</desc></polyline><polyline fill="none" points="13.768115942017175,227.8345657235186 16.820009350136388,228.200559901612 17.4707807386294,228.60315255263413 17.829827021982055,228.52995396241022 22.014960261818487,230.87229261911125 25.67274427303346,232.49483048330876 26.043010752706323,232.3850351951114 26.435717625019606,231.33587650646223 26.86208508646814,231.16508259538386 29.891538101888727,231.311477387193 31.59700794762466,231.958052818969 35.33333333331393,232.0800478971796 31.641888733080123,231.958052818969 29.8690977091901,231.34807606470713 26.80598410469247,231.15288302347471 26.41327723232098,231.39687428865 25.852267414680682,232.51922942625242 21.712014960241504,230.76249624307093 20.769518466549926,230.1159160907555 17.841047218302265,228.62755207542796 17.515661524084862,228.65195159456925 16.696587190264836,228.26155885175103 11.33333333331393,227.48077057374758 16.696587190264836,228.24935906352766 18.379616643302143,228.95694527728483 17.885928003757726,228.62755207542796 13.779336138337385,227.8467655426648" stroke="#4DD2FF" stroke-linecap="round" stroke-linejoin="round" stroke-width="0.5"><title>2024-12-03 5.6km</title><desc>1733220329000</desc></polyline><polyline fill="none" points="45.132867132895626,227.95619527901 47.40419580414891,228.19950901799893 48.176223776186816,228.64963847931358 49.16083916078787,228.77129487748607 50.22377622377826,229.46473461620917 51.67832167824963,230.01218496142246 52.60699300694978,230.72995041108516 56.60139860137133,232.48177148238756 57.104895104886964,231.399050955064 57.50769230769947,231.13141106648254 60.562237762263976,231.30172740996932 62.44195804197807,231.99515640319441 65.07132867135806,231.97082561117713 66.0,232.0438179763878 65.72027972026262,232.11681030894397 62.330069930059835,232.01948719158827 60.562237762263976,231.35038918978535 57.496503496484365,231.18007289702655 57.16083916084608,231.3382237461774 56.64615384617355,232.49393684079405 56.399999999965075,232.51826755488582 52.26013986009639,230.74211590000778 50.0223776223138,229.46473461620917 47.303496503445785,228.2481717222836 42.0,227.5060639060248 47.49370629369514,228.22384037195297 49.08251748251496,228.95377930476388 47.28111888107378,228.28466874099104 42.0223776223138,227.48173244511418 45.26713286712766,227.9318638851546" stroke="#4DD2FF" stroke-linecap="round" stroke-linejoin="round" stroke-width="0.5"><title>2024-12-02 6.1km</title><desc>1733112856000</desc></polyline><polyline fill="none" points="72.66666666668607,226.69461105215305 73.37777777778683,226.9910061147093 75.01333333336515,229.18173647744698 74.87111111113336,229.03998417597904 75.17925925931195,229.02709759735444 75.58222222223412,228.53740689829283 77.05185185186565,228.75647922451026 77.59703703701962,229.11730362754315 78.68740740744397,229.3363752192381 79.8607407407253,230.07090735490783 81.28296296298504,230.6121395641385 82.0296296296292,231.26934782708122 86.29629629635019,233.2151851017261 86.64000000007218,233.2151851017261 87.16148148145294,232.0167581111018 87.50518518517492,231.84923539719603 90.78814814815996,232.0167581111018 92.81481481483206,232.7383925623435 96.66666666668607,232.77705146586231 92.83851851854706,232.76416516564495 90.79999999998836,232.04253082189825 87.54074074077653,231.8750081329781 87.18518518522615,232.0296444669657 86.54518518521218,233.3053889478324 82.46814814815298,231.591507828256 79.70666666672332,230.03224784659687 76.94518518523546,228.76936582328926 73.59111111116363,228.36988081452728" stroke="#4DD2FF" stroke-linecap="round" stroke-linejoin="round" stroke-width="0.5"><title>2024-11-29 4.6km</title><desc>1732853630000</desc></polyline><polyline fill="none" points="105.36586921848357,229.22590524991392 105.19362041470595,229.32579119112052 105.92854864435503,229.3382769295713 105.2969696969958,229.26336248486768 105.87113237637095,229.3133054517093 105.80223285482498,229.4881057185703 106.72089314192999,228.30195747145626 108.87974481657147,228.15212762195733 109.56874003191479,228.52670199453132 110.54481658688746,228.72647465088812 114.36874003190314,230.9114725334657 118.20414673042251,232.57205187242653 118.77830940991407,231.36095427928376 119.12280701752752,231.198641565672 122.38405103672994,231.36095427928376 124.03763955342583,232.03517463780008 127.33333333331393,232.0726312448678 124.1065390749718,232.0102035617747 122.14290271128993,231.32349751317815 119.07687400322175,231.14869916063617 118.80127591703786,231.3110119225894 118.20414673042251,232.5595663748536 114.13907496014144,230.9114725334657 109.93620414676843,228.564159385729 108.67304625199176,228.17709927282704 103.33333333331393,227.42794812755892 108.78787878790172,228.15212762195733 109.48835725680692,228.51421619558823 110.223285486456,228.6141025609686 113.18596491229255,230.18730496284843 108.75342902709963,228.202070919986 105.87113237637095,227.81500997077092" stroke="#4DD2FF" stroke-linecap="round" stroke-linejoin="round" stroke-width="0.5"><title>2024-11-28 6.3km</title><desc>1732767063000</desc></polyline><polyline fill="none" points="134.16107382549671,227.13217071544204 137.70469798659906,227.73055515543092 138.51006711408263,228.15380158238986 138.88590604026103,228.12461220301338 142.57718120806385,229.9343455009075 143.85234899324132,230.78082791750785 148.52348993287887,232.82404626740026 149.18120805366198,231.4083901066624 149.66442953021033,231.14568990000407 153.2214765099925,231.33541786237038 154.85906040266855,232.02135588560486 156.2818791945465,232.25486615406408 158.0,232.21108299991465 155.4093959731399,232.16729983601545 153.46308724826667,231.4083901066624 149.79865771811455,231.2186622150184 149.248322147585,231.43757899675984 148.52348993287887,232.86782928455796 143.4362416107324,230.72244993719505 138.88590604026103,228.12461220301338 138.55033557047136,228.19758564334188 137.39597315434366,227.68677099008346 134.0,227.23433404193202" stroke="#4DD2FF" stroke-linecap="round" stroke-linejoin="round" stroke-width="0.5"><title>2024-11-25 4.0km</title><desc>1732507947000</desc></polyline><polyline fill="none" points="164.66666666662786,225.89515906607267 169.55912252538837,226.52345951834286 170.8881754949689,227.2983614753175 171.62011771008838,227.21458839377738 172.9684323167894,227.6543967933685 174.3745318352012,228.6596705513948 177.0326377742458,229.81154231281835 179.0936329588294,231.23566814724472 183.75494917063043,233.0577009744884 185.31514178705402,234.0001271135261 185.71963616914582,233.83258491968445 186.58640984480735,231.80112787462713 188.66666666662786,231.75924200788722 186.66345639375504,231.86395666304452 185.5462814338971,234.1048409339419 179.40181915462017,231.549812580648 171.58159443549812,227.3611912700726 171.0615302301012,227.46590756352816 172.91064740507863,227.82194266936858 173.81594435521401,228.6596705513948 175.41466024611145,229.09947669002577 179.05510968435556,231.27755409196834 184.8913857678417,233.8744704774872 185.71963616914582,233.95824157440802 186.58640984480735,231.7801849420939 185.66185125743505,234.1048409339419 179.49812734080479,231.50792667652422" stroke="#4DD2FF" stroke-linecap="round" stroke-linejoin="round" stroke-width="0.5"><title>2024-11-20 4.0km</title><desc>1732095798000</desc></polyline><polyline fill="none" points="12.73535138956504,254.0543905191298 16.27863338642055,254.5671519151947 17.132589838874992,254.9967617263319 17.718888298724778,255.05219517803926 20.994512302975636,256.67361633280234 21.86121437419206,257.3388106666971 26.526110816048458,259.4036695926625 26.742786333838012,259.37595351727214 27.26535670022713,258.1564421099174 27.647725261049345,257.8654211606772 31.19100725784665,258.0594351774489 33.051867587142624,258.80777306080563 35.33333333331393,258.89092152865487 33.0136307310313,258.82163114137074 30.98707735876087,258.04557704008766 27.724198973213788,257.8792793114553 27.188882988062687,258.2395908689068 26.69180385902291,259.4313856640074 21.950433705060277,257.477392520188 18.30518675863277,255.44022887764731 16.25314214907121,254.62258549498802 11.33333333331393,253.90194766933564" stroke="#4DD2FF" stroke-linecap="round" stroke-linejoin="round" stroke-width="0.5"><title>2024-11-19 4.1km</title><desc>1731989484000</desc></polyline></svg>