<?xml version="1.0" encoding="utf-8" ?>
<svg baseProfile="full" height="300mm" version="1.1" viewBox="0,0,200,300" width="200mm" xmlns="http://www.w3.org/2000/svg" xmlns:ev="http://www.w3.org/2001/xml-events" xmlns:xlink="http://www.w3.org/1999/xlink"><defs /><rect fill="#222222" height="300" width="200" x="0" y="0" /><text fill="#FFFFFF" style="font-size:12px; font-family:Arial; font-weight:bold;" x="10" y="20">Over 4km Runs</text><text fill="#FFFFFF" style="font-size:4px; font-family:Arial" x="10" y="280">ATHLETE</text><text fill="#FFFFFF" style="font-size:9px; font-family:Arial" x="10" y="290">Fake David</text><text fill="#FFFFFF" style="font-size:4px; font-family:Arial" x="65" y="280">SPECIAL TRACKS</text><rect fill="yellow" height="2.6" width="2.6" x="65" y="283" /><text fill="#FFFFFF" style="font-size:3px; font-family:Arial" x="70" y="285.5">Over 10.0 km</text><rect fill="red" height="2.6" width="2.6" x="65" y="287" /><text fill="#FFFFFF" style="font-size:3px; font-family:Arial" x="70" y="289.5">Over 15.0 km</text><text fill="#FFFFFF" style="font-size:4px; font-family:Arial" x="120" y="280">STATISTICS</text><text fill="#FFFFFF" style="font-size:3px; font-family:Arial" x="120" y="285">Number: 23</text><text fill="#FFFFFF" style="font-size:3px; font-family:Arial" x="120" y="290">Weekly: 2.6</text><text fill="#FFFFFF" style="font-size:3px; font-family:Arial" x="141" y="285">Total: 180.7 km</text><text fill="#FFFFFF" style="font-size:3px; font-family:Arial" x="141" y="290">Avg: 7.9 km</text><text fill="#FFFFFF" style="font-size:3px; font-family:Arial" x="167" y="285">Min: 4.0 km</text><text fill="#FFFFFF" style="font-size:3px; font-family:Arial" x="167" y="290">Max: 13.0 km</text><polyline fill="none" points="16.922790697717573,46.96873300927109 16.638139534916263,46.568198567882064 17.307906976726372,46.64102306058339 22.93395348836202,48.443422339551034 26.399999999965075,50.15477904769068 27.940465116291307,51.22892234893516 33.516279069765005,53.77771806891542 33.88465116271982,53.66848451188707 34.638139534858055,51.95715241004655 35.12372093019076,51.66586064599687 39.66139534878312,51.95715241004655 41.838139534927905,52.84923127751972 43.395348837191705,53.04949343284534 48.0,53.04949343284534 42.156279069778975,52.90384824524517 39.67813953489531,51.95715241004655 35.173953488410916,51.64765489920683 34.68837209302001,51.84791803921689 33.90139534883201,53.66848451188707 33.432558139553294,53.686690108123 27.82325581391342,51.265333903516876 22.699534883722663,48.46162832502159 20.120930232515093,47.38747285967111 12.0,46.24048808205407 20.22139534878079,47.42388498666696 22.699534883722663,48.35239239165094 27.18697674415307,50.883012309714104 33.466046511603054,53.72310129647667 33.86790697678225,53.61386771503021 34.53767441859236,51.9753581337427 35.02325581404148,51.66586064599687 39.812093023210764,51.9753581337427 42.3237209302024,52.9220538984373 47.83255813951837,53.06769907522539 42.20651162788272,52.86743693477183 39.694883720891085,51.920740958536044 35.006511627929285,51.64765489920683 34.60465116275009,51.88432950155402 33.8176744186203,53.72310129647667 33.18139534880174,53.66848451188707 32.32744186045602,53.08590471620846 27.58883720927406,51.192510788925574 21.627906976733357,47.82441802545509 19.836279069713783,47.332854659005534 12.066976744157728,46.22228193107003 21.661395348841324,47.80621199250163 27.62232558138203,51.083276076300535 32.37767441861797,53.04949343284534 33.482790697715245,53.759512479489786 33.86790697678225,53.65027891425416 34.60465116275009,51.866123771091225 35.07348837208701,51.64765489920683 39.577674418571405,51.88432950155402 41.905116279027425,52.81281995894096 43.31162790697999,52.95846520080522 41.838139534927905,52.81281995894096 39.52744186046766,51.88432950155402 35.10697674413677,51.59303765074583 34.638139534858055,51.81150657143735 33.88465116271982,53.57745651033474 33.281860465125646,53.59566211333731 31.72465116274543,52.739997305427096 27.62232558138203,51.15609922345902 21.611162790621165,47.82441802545509 19.300465116277337,47.24182429743814" stroke="yellow" stroke-linecap="round" stroke-linejoin="round" stroke-width="0.5"><title>2025-01-10 13.0km</title><desc>1736482744000</desc></polyline><polyline fill="none" points="62.115264797525015,45.94855189759983 63.76386292843381,47.0643164623325 66.62367601250298,47.61305127324886 69.43302180693718,48.69222615666513 72.47788161999779,50.50303437074763 80.35077881626785,54.05144810240017 80.72087227419252,53.75879736384377 80.8722741433885,52.14921206659346 81.09096573211718,51.87484988379583 86.39003115275409,52.222375263561844 89.16573208727641,53.246657732030144 94.58255451719742,53.37469274009345 88.93021806864999,53.19178556524275 86.39003115275409,52.24066605939879 81.19190031161997,51.85655906073225 80.85545171349077,52.24066605939879 80.72087227419252,53.83196008116647 80.35077881626785,54.05144810240017 74.32834890973754,51.490742312787916 68.40685358265182,48.18007595598465 66.55638629291207,47.61305127324886 58.66666666668607,46.51558042486431 66.99376947048586,47.649633550361614 67.81806853588205,48.10691155437962 68.39003115269588,48.10691155437962 74.42928348918213,51.417578897744534 80.09844236762729,53.97828545041557 80.67040498444112,53.83196008116647 80.83862928359304,52.16750286790193 81.14143302186858,51.89314070549153 86.39003115275409,52.24066605939879 89.30031152651645,53.246657732030144 94.66666666668607,53.31982060195878 88.84610591910314,53.17349484024453 86.37320872279815,52.16750286790193 81.2087227415177,51.89314070549153 80.92274143308168,52.07604884779721 80.90591900312575,53.37469274009345 80.46853582561016,54.033157441415824 74.21059190039523,51.43586975357903 68.44049844238907,48.16178485765704 66.43862928356975,47.61305127324886 58.66666666668607,46.46070675368537 64.55451713397633,47.210645865183324 68.32274143310497,48.070329345413484 73.85732087236829,51.16150677361293 80.13208722748095,53.97828545041557 80.60311526490841,53.85025075706653 80.97320872283308,52.93571529148903 80.60311526490841,53.941704116310575 79.86292834900087,53.83196008116647 74.31152647983981,51.45416060798743 68.40685358265182,48.052038238878595 68.01993769477122,48.14349375788879 66.72461059194757,47.52159555659455 64.5881619938882,47.28381053385965" stroke="yellow" stroke-linecap="round" stroke-linejoin="round" stroke-width="0.5"><title>2025-01-08 12.0km</title><desc>1736310892000</desc></polyline><polyline fill="none" points="109.17064048617613,47.78578256696346 109.67554932204075,46.980595315180835 109.74287050019484,46.193705223326106 110.06264609628124,45.91920808653231 110.4329125759541,45.99240735299827 110.26460963056888,46.12050601684314 111.89714820001973,46.74269857654872 112.73866292659659,47.43808839569101 116.1888733052765,48.645866033795755 121.91117344546365,51.738481700536795 127.06124357169028,54.02589427346538 127.3978494622861,53.696508175722556 127.44834034587257,52.17766656677122 127.91958859277656,51.86657736764755 133.069658718945,52.2325646198733 135.76250584382797,53.25732602503558 141.33333333331393,53.367121636343654 135.72884525480913,53.22072747706261 133.13697989709908,52.269163315068 127.85226741468068,51.92147549022047 127.49883122945903,52.287462660620804 127.44834034587257,53.696508175722556 127.16222533886321,54.080791913482244 120.85086489014793,51.39079312450485 115.07807386625791,48.15177589969244 114.4385226740851,48.15177589969244 113.26040205702884,47.58448600147676 105.33333333331393,46.578000699402764 113.49602618045174,47.74918320366123" stroke="#4DD2FF" stroke-linecap="round" stroke-linejoin="round" stroke-width="0.5"><title>2025-01-06 5.2km</title><desc>1736137119000</desc></polyline><polyline fill="none" points="156.65981308411574,47.23808351450134 156.7439252336044,46.54301740095252 157.2990654206369,45.719910247658845 157.70280373829883,47.146627559370245 157.130841121485,47.530742341972655 158.190654205624,47.47586883841723 161.68971962615615,48.31726121209795 166.43364485976053,50.54876615059038 167.32523364486406,51.335275352044846 173.71775700931903,54.17034574990976 174.10467289714143,53.93256690968701 174.17196261684876,52.39614423713647 174.49158878502203,52.103491209461936 180.02616822434356,52.487598236781196 182.68411214946536,53.493589984296705 188.0,53.58504357517813 182.46542056073667,53.457008538462105 179.84112149529392,52.43272584112128 174.55887850461295,52.103491209461936 174.23925233643968,52.377853433165 174.12149532709736,53.93256690968701 173.78504672896815,54.261799088693806 167.74579439254012,51.774256136326585 162.79999999998836,48.975740188747295 160.31028037384385,47.96972992904193 152.0,46.67105604342942 157.65233644854743,47.36612179443182 161.6560747663607,48.26238788434421 166.7364485981525,51.07920286542503 172.6074766354286,53.6399157133128 173.51588785048807,54.28008975235571 174.0878504673019,53.877694836919545 174.23925233643968,52.286399392658495 174.4747663550661,52.04861872791662 178.20934579434106,52.487598236781196 179.84112149529392,52.39614423713647 182.54953271022532,53.43871781344933 187.98317757010227,53.53017142473254 182.0953271027538,53.347264168114634 179.74018691590754,52.43272584112128 174.60934579442255,52.04861872791662 174.23925233643968,52.32298101295601 174.18878504668828,53.82282275194302 173.8186915887636,54.18863642041106 167.82990654202877,51.75596528600727 162.83364485978382,48.86599381525593 160.76448598131537,48.079476703191176 152.2186915887869,46.76251217571553" stroke="#4DD2FF" stroke-linecap="round" stroke-linejoin="round" stroke-width="0.5"><title>2025-01-03 9.5km</title><desc>1735878536000</desc></polyline><polyline fill="none" points="15.591569086711388,86.50741866938188 17.699297423940152,87.09410735398706 20.110538641689345,87.31411525006115 21.27400468388805,87.90080201129604 21.71241217799252,87.84580018685665 26.720374707248993,90.61421008761681 33.448243559745606,93.71259218259365 33.954098360671196,93.62092463325826 34.645433255296666,91.95256926942966 35.151288056280464,91.659230893536 39.67025761125842,91.93423563116812 42.3512880562339,92.94258370688476 48.0,93.10758572591294 42.77283372369129,92.96091727001476 39.872599531605374,92.02590380878246 35.18501170963282,91.75089917352307 34.645433255296666,92.0442374402046 33.75175644032424,93.78592619748088 27.20936768152751,91.03588568365376 21.69555035128724,87.95580382348271 21.25714285718277,87.99247169139562 19.908196721342392,87.35078321360925 18.00281030446058,87.25911329446535 12.0,86.21407380253368 20.04309133492643,87.33244923250459 22.42060889932327,88.45081957959337 20.19484777521575,87.38745117170038 15.25433255272219,86.63575693866005" stroke="#4DD2FF" stroke-linecap="round" stroke-linejoin="round" stroke-width="0.5"><title>2025-01-02 5.6km</title><desc>1735817809000</desc></polyline><polyline fill="none" points="62.82180685357889,86.65276321697456 66.82554517133394,87.31124543159967 68.00311526481528,87.93314367925632 69.13021806854522,88.13434571621474 75.25358255457832,91.49988261402177 80.41806853580056,93.7313544696226 80.85545171337435,93.2740872988652 81.34330218064133,92.04860708182969 81.9320872274111,91.75595418491866 86.25545171339763,91.90228067699354 89.41806853585877,93.05459875444649 94.66666666668607,93.09118019211746 92.61433021805715,93.21921518114686 89.1152647974668,92.99972658767365 86.49096573208226,91.97544389033283 81.94890965736704,91.7193725482939 81.42741433024639,91.92057148237654 80.6535825546016,93.65819177949743 80.36760124616558,93.78622647283191 72.12461059191264,90.16464795271168 68.33956386288628,87.93314367925632 67.80124610598432,87.96972588008794 66.64049844240071,87.38441001311003 58.66666666668607,86.1954828620801 66.03489096573321,87.21978967408359 67.93582554522436,87.89656147301139 68.33956386288628,87.78681482154934 73.73956386296777,90.82312074801303 80.36760124616558,93.80451713790535 81.47788161993958,91.86569906216755 81.9320872274111,91.68279090622673 83.21059190027881,91.8474082526809 81.44423676008591,91.82911744187004 80.6535825546016,93.62161042628577 80.35077881620964,93.7130637991213 74.24423676019069,91.13406562079035 68.59190031152684,87.9880169784301 67.83489096577978,87.93314367925632 66.48909657320473,87.32953657904 65.04236760124331,87.38441001311003 59.17133956385078,86.2503565496736 62.87227414333029,86.94542219708092" stroke="#4DD2FF" stroke-linecap="round" stroke-linejoin="round" stroke-width="0.5"><title>2024-12-31 8.0km</title><desc>1735619151000</desc></polyline><polyline fill="none" points="110.34641744551482,86.90884007397108 111.57445482868934,86.94542242464377 115.09034267917741,87.76852387444524 117.14267912780633,88.86598818139464 117.73146417445969,89.46959145901201 127.15202492213575,93.73135419163737 128.04361370718107,91.99373454171291 128.54828660440398,91.71937242023705 133.20809968851972,91.9754437431402 135.52959501557052,92.90827273244213 141.3165109034744,93.05459852683998 135.74828660441563,92.99972636419989 133.17445482872427,91.99373454171291 128.56510903435992,91.71937242023705 128.07725856703473,91.93886214192025 127.0679127726471,93.8045168544777 121.38193146424601,91.37184662616346 116.23426791280508,88.53674940441852 113.23987538937945,87.34782792266924 105.33333333331393,86.1954831455223 111.69221183803165,87.018587109691 115.03987538948422,87.78681498645165 121.38193146424601,91.22551982890582 126.91651090345113,93.78622619080124 127.33707165106898,93.62161015649326 128.04361370718107,91.9754437431402 128.6155763239949,91.66449995912262 133.10716510907514,91.93886214192025 135.83239875390427,92.94485418923432 141.33333333331393,92.96314491557132 136.03426791285165,92.98143564056954 133.0903426791192,91.9754437431402 128.53146417444805,91.68279078081832 128.04361370718107,91.93886214192025 127.30342679133173,93.60331947919622 127.03426791279344,93.73135419163737 120.94454828661401,91.17064725742966 115.17445482872427,87.93314383321558 112.65109034272609,87.31124563192134 105.60249221185222,86.28693927780841 113.02118380065076,87.29295448449557 114.56884735205676,87.91485273215221 115.22492211841745,87.84168831420538 120.57445482863113,90.80482980090892 115.1408099688706,87.87827052589273 110.0604361370788,86.92713124996226" stroke="yellow" stroke-linecap="round" stroke-linejoin="round" stroke-width="0.5"><title>2024-12-30 10.8km</title><desc>1735533491000</desc></polyline><polyline fill="none" points="157.0541044776328,86.84157871161005 160.34514925378608,87.38928984517406 161.2686567164492,87.91874277724128 161.73880597023526,87.86397183731606 162.69589552248362,88.2656251124281 166.80970149260247,90.60250383708626 173.49253731343197,93.66962334503478 173.97947761195246,93.687879893856 174.68470149254426,91.9535016840091 175.23880597023526,91.64313797274372 179.65485074621392,91.93524500596686 182.29104477609508,92.95761688047787 188.0,93.04889987618662 182.5093283582828,92.95761688047787 179.82276119408198,91.971758360698 175.17164179106476,91.67965137095598 174.71828358212952,91.9535016840091 174.13059701496968,93.43228808669664 173.67723880597623,93.76090607550577 167.3973880597041,91.11369308749272 162.93097014928935,88.55773617177329 160.37873134331312,87.5170889335277 152.0,86.20258084181114 160.09328358212952,87.37103282711178 163.3171641791123,88.55773617177329 166.70895522390492,90.60250383708626 173.62686567159835,93.7974191581743 173.96268656715984,93.70613644128025 174.73507462686393,91.971758360698 175.2052238805918,91.75267815099505 179.78917910449672,92.00827170992852 182.3078358209459,92.97587348232628 187.94962686568033,93.03064327972243 186.2369402985205,93.1766960129753 182.39179104479263,92.97587348232628 179.7723880597041,91.93524500596686 175.22201492538443,91.67965137095598 174.75186567171477,91.8804749637493 173.97947761195246,93.65136679483112 173.47574626869755,93.72439298740937 168.0354477611836,91.35103059129324 166.25559701491147,90.25562480986991 160.34514925378608,87.44406089121185 152.85634328360902,86.38515183179697" stroke="#4DD2FF" stroke-linecap="round" stroke-linejoin="round" stroke-width="0.5"><title>2024-12-27 9.1km</title><desc>1735273142000</desc></polyline><polyline fill="none" points="40.95140186906792,132.16749720771622 39.63925233640475,131.80168133185362 38.24299065413652,131.9662985434552 34.96261682239128,131.6553548289521 33.801869158865884,133.74049926319276 27.695327102730516,131.25295649612963 21.639252336346544,127.92399953704444 21.15140186913777,127.97887281984731 19.839252336416394,127.39355717095896 12.0,126.14975678343035 17.48411214951193,127.02773418172728 18.022429906530306,126.93627834925428 21.874766355089378,127.9057084400556 26.16448598128045,130.06404847817612 26.80373831774341,130.64935776035418 33.43177570088301,133.68562726810342 33.91962616814999,133.6490459312481 34.59252336440841,131.9662985434552 35.13084112142678,131.6370640099194 39.773831775644794,131.92971695044253 42.616822429874446,132.9905809355696 48.0,133.13690664277237 42.06168224295834,132.88083659796393 39.97570093453396,131.9845893379097 35.11401869147085,131.6553548289521 34.76074766356032,131.76509971430642 34.00373831775505,133.70391793445742 33.667289719567634,133.85024321656965 32.22056074766442,132.9905809355696 27.49345794384135,131.12492052467132 21.95887850469444,127.88741734171344 18.157009345770348,127.02773418172728 14.170093457913026,126.49728987905837" stroke="#4DD2FF" stroke-linecap="round" stroke-linejoin="round" stroke-width="0.5"><title>2024-12-25 6.6km</title><desc>1735101299000</desc></polyline><polyline fill="none" points="62.40473963209661,126.46654862328433 62.27003429993056,126.7960982114746 62.4889304646058,126.72286500784685 62.80885562830372,126.19192362877948 63.83598378545139,126.90594797600352 64.98097910819342,126.96087283981615 68.50015590898693,127.85797721148992 74.73027751792688,131.26328236225527 80.45525413163705,133.7348452572187 80.69098846276756,133.716537475324 81.39819145621732,131.97729197396256 81.920174618077,131.70267313804652 86.432803242933,131.95898406110064 89.34580604929943,133.05745641794056 94.66666666668607,133.1489955594152 89.09323355165543,133.00253291671106 86.26442157785641,131.94067614692904 81.76863111951388,131.7209810699569 81.39819145621732,131.90406031436578 80.64047396322712,133.62499854524503 80.33738696604269,133.67992190737277 74.12410352361621,131.11681859569217 69.45993140008068,128.40722316947358 66.81633925787173,127.3453465430066 58.66666666668607,126.21023197130125 61.42812597443117,126.63132347262581 62.741502962308004,126.59470684896223 67.37199875275837,127.51012080309738 69.47676956659416,128.33399044601538 75.25226067978656,131.5195937436074 80.18584346747957,133.716537475324 80.70782662928104,133.661614121389 81.54973495483864,131.79421278409427 83.26722793892259,131.79421278409427 81.60024945437908,131.73928900055762 80.62363579671364,133.80807637123507 74.56189585285028,131.29989829022088 71.29529154975899,129.3775546951656 66.98472092300653,127.47350431038649 58.7171811661683,126.22854031245515 65.63766760210274,127.21718870878976" stroke="#4DD2FF" stroke-linecap="round" stroke-linejoin="round" stroke-width="0.5"><title>2024-12-18 8.3km</title><desc>1734495982000</desc></polyline><polyline fill="none" points="109.12810945278034,124.97022001925507 108.50684079597704,125.11627834569663 108.72512437810656,124.93370542400226 108.50684079597704,125.07976377224259 108.37251243775245,124.87893352094397 108.43967661692295,125.06150648347102 109.79975124372868,126.01088369562058 112.77176616917131,127.32539991656085 113.47699004976312,128.439081752309 114.26616915420163,129.0598202507681 115.13930348260328,129.18761915816867 121.30161691538524,132.51036735711386 126.87624378112378,135.01152721470862 127.27922885568114,135.02978376214742 128.06840796023607,133.2771490048617 128.55534825869836,133.00329869182315 133.22325870645,133.29540568155062 136.1616915423656,134.31777740370308 141.33333333331393,134.40906038576213 135.70833333331393,134.31777740370308 133.22325870645,133.313662356828 128.47139303490985,133.02155538884108 127.98445273633115,133.29540568155062 127.14490049751475,135.10280993834022 118.90049751242623,131.6522993351682 118.32960199000081,131.08633793155605 116.26430348266149,129.91789735054772 113.77922885573935,128.9320212766761 105.33333333331393,127.56274237153411 113.35945273627294,128.62165206212376 114.76990049751475,129.2423900980939 115.07213930349099,129.15110519141308 121.36878109455574,132.58339428405452 125.7008706467459,134.29952080319345 126.8930348258582,135.02978376214742 127.34639303485164,134.920244457011 128.18594527360983,133.16760891635204 129.93221393035492,133.1128388537909 128.28669154224917,133.22237896674778 127.41355721390573,135.12106647904147 126.65796019893605,135.06629685300868 120.96579601988196,132.61990773941216 119.40422885573935,131.59752893386758 113.72885572136147,128.84073625438032 105.46766169153852,127.6905420597468 113.47699004976312,128.65816610776528" stroke="#4DD2FF" stroke-linecap="round" stroke-linejoin="round" stroke-width="0.5"><title>2024-12-17 8.6km</title><desc>1734409492000</desc></polyline><polyline fill="none" points="156.4390471742372,126.69089393045579 160.03736571699847,127.25765516565298 161.348902382073,127.8792627571238 161.78608127043117,127.75128485231835 168.0242877160781,131.18838254957518 173.6907986922888,133.63819939630048 173.99346099951072,133.60163514554733 174.76693134050583,131.79169792335597 175.1872956562438,131.55402840772877 180.06352171883918,131.90139146830188 182.50163475016598,132.83378462090332 188.0,132.9251955236541 187.46193367580418,133.1080172269576 182.48482017748756,132.9251955236541 179.6095282578026,131.86482695877203 175.28818309202325,131.682004329341 174.63241475948598,132.08421393430035 173.9093881364097,133.63819939630048 173.62354040169157,133.7296099994128 168.5287248948589,131.57231068630063 161.68519383465173,127.91582786051731 160.79402148537338,127.80613253396587 159.8524054180598,127.25765516565298 152.0,126.17897943154094 159.97010742645944,127.2393725656002 161.0966837925953,127.84269764830242 161.75245212524896,127.78784997477487 167.97384399815928,131.17010024239426 173.57309668377275,133.61991727161512 174.04390471737133,133.58335301808256 174.61560018680757,132.02936720881553 175.1872956562438,131.5905929635628 180.113965436758,131.90139146830188 182.45119103224715,132.83378462090332 187.89911256422056,132.98004204889003 182.75385333958548,132.9251955236541 179.81130312941968,131.86482695877203 175.1704810836236,131.64543978709844 174.75011676788563,131.84654470196983 173.87575899116928,133.7296099994128 167.85614198970143,131.26151176478015 161.70200840733014,127.91582786051731 160.20551144325873,127.38563332792546 152.20177487155888,126.2155447883415 159.93647828116082,127.25765516565298 161.1134983652737,127.84269764830242 161.83652498835,127.86098020337522 168.68005604855716,131.4991815637186 173.57309668377275,133.67476364162576 174.04390471737133,133.60163514554733 174.61560018680757,131.7368511324894 176.56609061191557,131.77341566108225 174.78374591318425,131.80998018421815 173.9430172815919,133.8210205684445 167.8056982718408,131.2432294630271 161.76926669775276,127.89754530951905 161.23120037367335,127.91582786051731 159.9028491359204,127.27593776433787 152.20177487155888,126.28867548549897 159.78514712752076,127.2393725656002" stroke="yellow" stroke-linecap="round" stroke-linejoin="round" stroke-width="0.5"><title>2024-12-15 13.0km</title><desc>1734235831000</desc></polyline><polyline fill="none" points="15.559701492486056,166.32125172246015 15.559701492486056,166.52207971418102 17.07089552236721,166.97850635595387 19.102611940237693,167.3984181155247 20.160447761183605,167.32539003509737 21.184701492486056,167.9096140689653 21.77238805964589,167.9278710475919 28.72388059698278,171.63400954195822 33.71082089556148,173.7517778025067 34.02985074627213,173.73352125777456 34.70149253727868,172.1086833295558 35.2052238805918,171.7800631129794 39.8395522388746,172.0173999802937 42.50932835822459,173.0397715500876 48.0,173.14931110820908 42.40858208958525,173.0397715500876 39.97388059704099,172.0356566528353 35.121268656803295,171.7070363383391 34.65111940295901,171.9261165969947 33.84514925372787,173.78829088785278 27.985074626863934,171.3966723033809 22.52798507461557,168.34778118027316 20.042910447751638,167.3801610974624 12.0,166.21170911216177 16.26492537301965,166.6498792595812 20.042910447751638,167.27061896053783 21.738805970118847,167.81832915551786 26.89365671639098,170.6298888847814 32.04850746266311,172.89371872982883 33.32462686568033,173.6970081642212 34.013059701479506,173.6239819607872 34.63432835822459,172.1086833295558 35.15485074633034,171.7435497284314 39.75559701496968,171.94437327633204 42.25746268662624,172.98500175269146 44.17164179106476,173.00325835321564 42.12313432840165,172.9302319430426 39.72201492538443,171.98088663104863 35.339552238816395,171.7070363383391 34.65111940295901,171.9078599162458 33.811567164200824,173.71526471164543 27.666044776095077,171.2141050403734 21.77238805964589,167.96438500071235 20.009328358166385,167.3801610974624 17.356343283550814,167.0515345397289" stroke="#4DD2FF" stroke-linecap="round" stroke-linejoin="round" stroke-width="0.5"><title>2024-12-13 8.5km</title><desc>1734064159000</desc></polyline><polyline fill="none" points="62.56085655791685,166.7273368107708 66.26798929303186,167.26354360941332 68.8187686977908,168.058606730061 74.12438985984772,171.05393793815165 80.05920327507192,173.67944543872727 80.53534876398044,173.6979348296736 81.30058258544886,171.9414365387347 81.77672807429917,171.70107264778926 86.45315698313061,171.9414365387347 88.79987403558334,172.90288977474847 94.66666666668607,173.0138264469424 89.36104550462915,172.97684756170202 86.28310502285603,171.92294701690844 81.65769170218846,171.68258310804958 81.16454101714771,171.84898891593912 80.6033695480437,173.4390832309291 80.19524484337308,173.80887114649522 78.98787592502777,173.12476306952885 74.1073846637737,171.2203441675374 69.1758778145304,168.3914230940136 66.55707762553357,167.48542194582114 69.15887261839816,168.3174639406061 72.28782868839335,170.2034154678695 79.0218863171176,173.10627363584354 80.00818768696627,173.7534029942908 80.50133837183239,173.64246665267274 81.26657219335902,171.62711448066693 80.46732797985896,173.58699846325908 80.0421980790561,173.6979348296736 74.2944418201223,171.25732331443578 68.17257124866592,167.81823907850776 67.57738938747207,167.83672890611342 66.08093213668326,167.22656386739982 58.66666666668607,166.19112885351933" stroke="#4DD2FF" stroke-linecap="round" stroke-linejoin="round" stroke-width="0.5"><title>2024-12-11 6.6km</title><desc>1733890893000</desc></polyline><polyline fill="none" points="109.69850187265547,166.90305236176937 113.55805243446957,167.3428621868079 114.40074906364316,167.83764729992254 115.09176029963419,167.8193219431123 121.42883895133855,171.31944032071624 127.09176029963419,173.7749910256971 128.01872659177752,171.8691926081665 128.50749063672265,171.64929184064385 133.344569288427,171.94249282038072 135.82209737825906,172.91371856945625 141.28277153562522,173.04199338171748 136.02434456936317,172.91371856945625 133.39513108617393,172.03411805485666 128.15355805243598,171.81421743471583 127.22659176029265,173.82996576097503 121.3108614232624,171.3560905114573 119.6086142322165,170.20160688040778 115.04119850188727,167.92927406349918 114.6704119850765,168.02090079295158 113.22097378282342,167.4344891346991 105.50187265919521,166.33496350706264 111.9063670411706,167.0679811383161 115.04119850188727,167.80099658494873 119.45692883897573,169.98170462202688 121.29400749068009,171.20948971578036 126.95692883897573,173.73834119540697 127.31086142320419,173.61006674627424 128.05243445694214,171.9791429182369 128.50749063672265,171.64929184064385 131.45692883891752,171.94249282038072 132.95692883897573,171.81421743471583 135.9063670412288,172.9320435467671 141.33333333331393,173.02366841264302 135.61985018727137,172.89539359083574 133.3108614232624,171.9791429182369 128.47378277155804,171.66761691214924 128.05243445694214,171.83254249392485 127.46254681644496,173.48179223024636 127.14232209738111,173.75666611125052 121.88389513111906,171.557666462817 118.73220973782009,169.67017608616152 115.00749063678086,167.83764729992254 112.3108614232624,167.15960818860913 105.33333333331393,166.17003423901042 113.94569288392086,167.41616374786827 126.6872659176006,173.64671659568558 127.31086142320419,173.53676703096426 128.05243445694214,171.6309667677997 127.34456928842701,173.61006674627424 126.99063670408214,173.6833664396836 121.49625468166778,171.3560905114573 115.05805243452778,167.78267122540274 109.17602996254573,166.7930997826188" stroke="yellow" stroke-linecap="round" stroke-linejoin="round" stroke-width="0.5"><title>2024-12-09 12.1km</title><desc>1733738831000</desc></polyline><polyline fill="none" points="166.98020735156024,170.69175653763523 173.74929311970482,173.7537804822059 174.52968897263054,171.98297607123095 175.14043355319882,171.65094883427082 179.51743638073094,171.83540846531105 182.1809613571968,172.88682573831466 188.0,173.0897303121601 182.7408105560462,172.97905511067074 179.80584354378516,171.9645301252749 175.1913289349759,171.7247327031946 174.61451460886747,171.90919227930135 173.78322337422287,173.79067210612993 168.42224316683132,171.55871896728058 161.60226201702608,167.86949611309683 160.99151743634138,167.88794236411923 160.21112158341566,167.37144681625068 155.37606032047188,166.725825866175 154.7653157399036,166.43068429967389 154.47690857684938,166.67048684923793 152.35626767203212,166.3384524879657 157.37794533459237,166.85495019085647 161.60226201702608,167.7957110952848 166.0471253534779,169.99080597094144 167.3025447691325,170.9131089358998 173.49481621116865,173.7537804822059 173.90197926480323,173.58776810666313 174.61451460886747,171.87230037507834 175.00471253535943,171.5771649434173 176.514608859492,171.83540846531105 179.7719132893253,171.85385442087136 182.48633364751004,172.90527161555656 187.88124410924502,173.0159468499769 182.35061262961244,172.84993397975632 179.7719132893253,171.89074632785923 175.123468425998,171.68784077154123 174.427898209251,172.27811101914267 173.76625824690564,173.79067210612993 167.45523091428913,171.0606770914601 161.58529688976705,167.86949611309683 161.19509896321688,167.94328110889182 159.00659754947992,167.22387646179413 152.0,166.20932789387007 159.3289349670522,167.22387646179413 161.04241281806026,167.85104986070655 161.6870876532048,167.8326036069775 163.87558906699996,169.03160724285408" stroke="#4DD2FF" stroke-linecap="round" stroke-linejoin="round" stroke-width="0.5"><title>2024-12-06 9.2km</title><desc>1733479157000</desc></polyline><polyline fill="none" points="15.652173913025763,206.7518485852779 20.230014025233686,207.30083985241072 21.20617110800231,207.90472882894392 21.744740533002187,207.7949309436226 28.022440392756835,211.30843892868143 33.50911640957929,213.74224572496314 34.06451612903038,213.5775527926744 34.65357643755851,212.00381475969334 35.293127629789524,211.74762389306852 39.837307152862195,211.96721608078224 42.39551192143699,212.9370792284608 48.0,213.12007184576942 42.46283309959108,212.9370792284608 39.80364656378515,212.02211409705342 35.20897615706781,211.7293245352048 34.61991584848147,212.095311432975 33.77840112202102,213.77884413936408 27.568022440420464,211.14374436459912 26.154277699883096,210.17387413613324 21.761570827453397,207.94132811314194 21.27349228609819,207.97792739186843 20.044880785397254,207.392338277612 12.0,206.22115586063592 20.044880785397254,207.37403859528422 22.569424964953214,208.43541791592725 21.828892005607486,207.94132811314194 15.669004207535181,206.77014831398265" stroke="#4DD2FF" stroke-linecap="round" stroke-linejoin="round" stroke-width="0.5"><title>2024-12-03 5.6km</title><desc>1733220329000</desc></polyline><polyline fill="none" points="63.36596736602951,206.93429291852226 66.77296037290944,207.29926352700568 67.9310023309663,207.97445771898492 69.40792540792609,208.1569423162291 71.00233100232435,209.19710192432103 73.18414918414783,210.01827744214097 74.57715617713984,211.09492561664956 80.56876456877217,213.7226572235959 81.32400932401652,212.09857643261785 81.92820512829348,211.6971165997238 86.51002331008203,211.95259111496853 89.32960372965317,212.99273460480617 93.27365967375226,212.95623841678025 94.66666666668607,213.06572696458898 94.24708624713821,213.17521546341595 89.16177156177582,213.02923078738968 86.51002331008203,212.02558378469257 81.91142191144172,211.77010934555437 81.4079254079843,212.00733561927336 80.6358974360046,213.74090526119107 80.26666666666279,213.777401332336 74.05687645688886,211.11317385002621 70.70023310021497,209.19710192432103 66.62191142194206,207.37225758342538 58.66666666668607,206.25909585904446 66.90722610731609,207.33576055793674 69.29044289048761,208.4306689571531 66.58834498829674,207.4270031115011 58.70023310021497,206.22259866767854 63.567365967377555,206.89779582775373" stroke="#4DD2FF" stroke-linecap="round" stroke-linejoin="round" stroke-width="0.5"><title>2024-12-02 6.1km</title><desc>1733112856000</desc></polyline><polyline fill="none" points="105.33333333331393,205.04191657823685 106.39999999996508,205.48650917207124 108.85333333339076,208.77260471617046 108.64000000001397,208.55997626397584 109.10222222225275,208.54064639602439 109.70666666666511,207.80611034743197 111.9111111111124,208.13471883677994 112.72888888884336,208.67595544130018 114.36444444442168,209.00456282886444 116.12444444437278,210.10636103236175 118.25777777773328,210.91820934620046 119.37777777772862,211.90402174061455 125.77777777781012,214.82277765258914 126.2933333333931,214.82277765258914 127.07555555552244,213.0251371666527 127.59111111110542,212.77385309578676 132.51555555552477,213.0251371666527 135.55555555556202,214.10758884351526 141.33333333331393,214.1655771987862 135.59111111110542,214.14624774846015 132.53333333332557,213.06379623284738 127.64444444444962,212.8125121994526 127.11111111106584,213.04446670044854 126.15111111110309,214.9580834217486 120.0355555555434,212.38726174239127 115.89333333336981,210.04837176990986 111.75111111107981,208.15404873494117 106.72000000003027,207.55482122178364" stroke="#4DD2FF" stroke-linecap="round" stroke-linejoin="round" stroke-width="0.5"><title>2024-11-29 4.6km</title><desc>1732853630000</desc></polyline><polyline fill="none" points="155.04880382778356,208.83885787488543 154.79043062205892,208.9886867867026 155.89282296656165,209.00741539435694 154.9454545455519,208.89504372730153 155.80669856461463,208.96995817759307 155.70334928226657,209.23215857787 157.081339712895,207.45293620719167 160.3196172248572,207.22819143295055 161.35311004787218,207.79005299181154 162.8172248803312,208.08971197633946 168.55311004788382,211.36720880020584 174.30622009566287,213.85807780864707 175.167464114842,212.04143141892564 175.68421052629128,211.79796234852984 180.5760765550658,212.04143141892564 183.05645933013875,213.05276195670012 188.0,213.10894686731626 183.1598086124286,213.01530534267658 180.2143540669931,211.9852462697745 175.61531100486172,211.72304874098336 175.2019138755859,211.9665178839059 174.30622009566287,213.83934956228768 168.20861244021216,211.36720880020584 161.90430622012354,207.84623907860077 160.00956937798765,207.26564890926238 152.0,206.14192219135293 160.18181818182347,207.22819143295055 161.23253588523949,207.7713242933969 162.334928229684,207.92115384146746 166.77894736849703,210.28095744427992 160.13014354067855,207.30310638000083 155.80669856461463,206.72251495618548" stroke="#4DD2FF" stroke-linecap="round" stroke-linejoin="round" stroke-width="0.5"><title>2024-11-28 6.3km</title><desc>1732767063000</desc></polyline><polyline fill="none" points="12.241610738332383,245.69825607314124 17.557046980015002,246.59583273311728 18.765100671211258,247.23070237357751 19.328859060420655,247.18691830450553 24.86577181215398,249.90151825133944 26.778523489949293,251.17124187623267 33.78523489937652,254.23606940108584 34.77181208063848,252.11258515997906 35.4966442954028,251.71853484999156 40.83221476513427,252.003126793541 43.28859060409013,253.0320338284073 45.42281879193615,253.3822992311034 48.0,253.31662449985743 44.114093959797174,253.25094975400134 41.194630872574635,252.11258515997906 35.69798657728825,251.82799332251307 34.87248322146479,252.15636849513976 33.78523489937652,254.30174392682966 26.154362416127697,251.08367490579258 19.328859060420655,247.18691830450553 18.825503355823457,247.296378464991 17.093959731631912,246.5301564851252 12.0,245.85150106289075" stroke="#4DD2FF" stroke-linecap="round" stroke-linejoin="round" stroke-width="0.5"><title>2024-11-25 4.0km</title><desc>1732507947000</desc></polyline><polyline fill="none" points="58.66666666662786,243.842738599109 66.00535045482684,244.78518927752157 67.9989299090812,245.9475422129908 69.09684323181864,245.82188259068062 71.11931514181197,246.4815951900673 73.22846441960428,247.98950582710677 77.21562332799658,249.71731346924207 80.30711610487197,251.85350222088164 87.29909042268991,254.58655146174715 89.63937934720889,256.0001906702819 90.24612092040479,255.7488773795194 91.54628143401351,252.70169181196252 94.66666666662786,252.6388630118454 91.66185125731863,252.7959349945595 89.98608881758992,256.1572614009201 80.76939539867453,252.32471887097927 69.03905831999145,246.04178690514527 68.25896201189607,246.19886134529952 71.03263777424581,246.73291400406742 72.3905831995653,247.98950582710677 74.78865703591146,248.6492150350532 80.2493311931612,251.91633113796706 89.00374531839043,255.81170571624534 90.24612092040479,255.93736236164114 91.54628143401351,252.67027741315542 90.15944355272222,256.1572614009201 80.91385767795146,252.26189001477906" stroke="#4DD2FF" stroke-linecap="round" stroke-linejoin="round" stroke-width="0.5"><title>2024-11-20 4.0km</title><desc>1732095798000</desc></polyline><polyline fill="none" points="107.43636041786522,246.08158577869472 112.75128341303207,246.85072787279205 114.03221809177194,247.49514258949785 114.91166578151751,247.57829276706616 119.8251017879229,250.01042449921079 121.12515489477664,251.0082160000602 128.12249955744483,254.10550438900827 128.44751283421647,254.0639302759082 129.23136838385835,252.2346631648834 129.80492122506257,251.79813174103037 135.11984422022942,252.08915276617336 137.91113471414428,253.21165959120844 141.33333333337214,253.33638229299686 137.8537794299191,253.2324467120634 134.81394937157165,252.06836556014605 129.91963179328013,251.81891896718298 129.11665781552438,252.35938630337478 128.37103912199382,254.1470784960111 121.25898389099166,251.21608878028928 115.7911134713795,248.16034331647097 112.71304655703716,246.93387824247475 105.33333333337214,245.85292150400346" stroke="#4DD2FF" stroke-linecap="round" stroke-linejoin="round" stroke-width="0.5"><title>2024-11-19 4.1km</title><desc>1731989484000</desc></polyline></svg>