<?xml version="1.0" encoding="utf-8" ?>
<svg baseProfile="full" height="300mm" version="1.1" viewBox="0,0,200,300" width="200mm" xmlns="http://www.w3.org/2000/svg" xmlns:ev="http://www.w3.org/2001/xml-events" xmlns:xlink="http://www.w3.org/1999/xlink"><defs /><rect fill="#222222" height="300" width="200" x="0" y="0" /><text fill="#FFFFFF" style="font-size:12px; font-family:Arial; font-weight:bold;" x="10" y="20">Over 4km Runs</text><text fill="#FFFFFF" style="font-size:4px; font-family:Arial" x="10" y="280">ATHLETE</text><text fill="#FFFFFF" style="font-size:9px; font-family:Arial" x="10" y="290">Fake David</text><text fill="#FFFFFF" style="font-size:4px; font-family:Arial" x="65" y="280">SPECIAL TRACKS</text><rect fill="yellow" height="2.6" width="2.6" x="65" y="283" /><text fill="#FFFFFF" style="font-size:3px; font-family:Arial" x="70" y="285.5">Over 10.0 km</text><rect fill="red" height="2.6" width="2.6" x="65" y="287" /><text fill="#FFFFFF" style="font-size:3px; font-family:Arial" x="70" y="289.5">Over 15.0 km</text><text fill="#FFFFFF" style="font-size:4px; font-family:Arial" x="120" y="280">STATISTICS</text><text fill="#FFFFFF" style="font-size:3px; font-family:Arial" x="120" y="285">Number: 6</text><text fill="#FFFFFF" style="font-size:3px; font-family:Arial" x="120" y="290">Weekly: 2.0</text><text fill="#FFFFFF" style="font-size:3px; font-family:Arial" x="141" y="285">Total: 29.1 km</text><text fill="#FFFFFF" style="font-size:3px; font-family:Arial" x="141" y="290">Avg: 4.8 km</text><text fill="#FFFFFF" style="font-size:3px; font-family:Arial" x="167" y="285">Min: 4.0 km</text><text fill="#FFFFFF" style="font-size:3px; font-family:Arial" x="167" y="290">Max: 6.3 km</text><polyline fill="none" points="23.39860139868688,63.86858583704452 30.212587412446737,64.59852705401136 32.52867132856045,65.94891543796984 35.482517482480034,66.31388463245821 38.67132867127657,68.39420384864206 43.034965034923516,70.03655488428194 45.820979020907544,72.18985123329912 57.804195804172195,77.44531444719178 59.31468531466089,74.1971528652357 60.52307692321483,73.39423319944763 69.68671328679193,73.90518222993705 75.3258741259342,75.98546920961235 83.21398601413239,75.9124768335605 86.0,76.13145392917795 85.16083916090429,76.3504309268319 74.9902097901795,76.05846157477936 69.68671328679193,74.05116756938514 60.489510489511304,73.54021869110875 59.48251748259645,74.01467123854673 57.93846153863706,77.48181052238215 57.199999999953434,77.55480266467202 44.78041958040558,72.22634770005243 38.06713286705781,68.39420384864206 29.91048951051198,64.74451516685076 14.0,62.51819171808893 30.481118881260045,64.67152111587347 35.247552447603084,66.8613379143062 29.84335664322134,64.85400622300222 14.067132867057808,62.44519733535708 23.80139860138297,63.79559165550745" stroke="#4DD2FF" stroke-linecap="round" stroke-linejoin="round" stroke-width="0.5"><title>2024-12-02 6.1km</title><desc>1733112856000</desc></polyline><polyline fill="none" points="114.0,60.0838331564737 116.13333333330229,60.973018344142474 121.04000000015367,67.54520943234093 120.61333333340008,67.11995252795168 121.53777777787764,67.08129279204877 122.74666666670237,65.61222069486394 127.15555555559695,66.26943767355988 128.79111111105885,67.35191088260035 132.0622222222155,68.00912565772887 135.5822222221177,70.2127220647235 139.8488888888387,71.83641869240091 142.0888888888294,73.8080434812291 154.88888888899237,79.64555530517828 155.92000000015832,79.64555530517828 157.48444444441702,76.05027433330542 158.51555555558298,75.54770619157352 168.36444444442168,76.05027433330542 174.44444444449618,78.21517768703052 186.0,78.33115439757239 174.51555555558298,78.29249549692031 168.40000000002328,76.12759246569476 158.62222222227138,75.62502439890523 157.55555555550382,76.08893340089708 155.63555555557832,79.9161668434972 143.40444444445893,74.77452348478255 135.12000000011176,70.09674353981973 126.83555555553176,66.30809746988234 116.77333333343267,65.10964244356728" stroke="#4DD2FF" stroke-linecap="round" stroke-linejoin="round" stroke-width="0.5"><title>2024-11-29 4.6km</title><desc>1732853630000</desc></polyline><polyline fill="none" points="20.097607655567117,147.67771574977087 19.58086124411784,147.9773735734052 21.785645933123305,148.01483078871388 19.890909091103822,147.79008745460305 21.61339712922927,147.93991635518614 21.406698564533144,148.46431715574 24.162679425789975,144.90587241438334 30.639234449714422,144.4563828659011 32.70622009574436,145.58010598362307 35.63444976066239,146.17942395267892 47.10622009576764,152.7344176004117 58.61244019132573,157.71615561729413 60.33492822968401,154.08286283785128 61.36842105258256,153.59592469705967 71.15215311013162,154.08286283785128 76.1129186602775,156.10552391340025 86.0,156.21789373463253 76.31961722485721,156.03061068535317 70.42870813398622,153.970492539549 61.23062200972345,153.44609748196672 60.403827751171775,153.93303576781182 58.61244019132573,157.67869912457536 46.41722488042433,152.7344176004117 33.80861244024709,145.69247815720155 30.01913875597529,144.53129781852476 14.0,142.28384438270587 30.363636363646947,144.4563828659011 32.46507177047897,145.5426485867938 34.66985645936802,145.84230768293492 43.55789473699406,150.56191488855984 30.26028708135709,144.60621276000165 21.61339712922927,143.44502991237096" stroke="#4DD2FF" stroke-linecap="round" stroke-linejoin="round" stroke-width="0.5"><title>2024-11-28 6.3km</title><desc>1732767063000</desc></polyline><polyline fill="none" points="114.48322147666477,141.39651214628248 125.11409396003,143.19166546623455 127.53020134242252,144.46140474715503 128.6577181208413,144.37383660901105 139.73154362430796,149.80303650267888 143.5570469798986,152.34248375246534 157.57046979875304,158.47213880217168 159.54362416127697,154.22517031995812 160.9932885908056,153.4370696999831 171.66442953026854,154.00625358708203 176.57718120818026,156.0640676568146 180.8456375838723,156.76459846220678 186.0,156.63324899971485 178.22818791959435,156.50189950800268 172.38926174514927,154.22517031995812 161.3959731545765,153.65598664502613 159.74496644292958,154.31273699027952 157.57046979875304,158.60348785365932 142.3087248322554,152.16734981158515 128.6577181208413,144.37383660901105 127.65100671164691,144.592756929982 124.18791946326382,143.06031297025038 114.0,141.7030021257815" stroke="#4DD2FF" stroke-linecap="round" stroke-linejoin="round" stroke-width="0.5"><title>2024-11-25 4.0km</title><desc>1732507947000</desc></polyline><polyline fill="none" points="14.0,217.685477198218 28.677367576397955,219.57037855504313 32.66452648490667,221.89508442598162 34.860353130381554,221.64376518136123 38.90529695036821,222.96319038013462 43.123595505952835,225.97901165421354 51.09791332273744,229.43462693848414 57.28089887648821,233.70700444176327 71.2648475121241,239.1731029234943 75.94542536116205,242.00038134056376 77.15890850755386,241.4977547590388 79.7592295347713,235.40338362392504 86.0,235.27772602369078 79.99036918138154,235.591869989119 76.63884430192411,242.3145228018402 58.20545746409334,234.64943774195854 34.744783306727186,222.08357381029055 33.184590690536425,222.39772269059904 38.731942215235904,223.46582800813485 41.447833065874875,225.97901165421354 46.24398073856719,227.2984300701064 57.16532905306667,233.83266227593413 74.67415730352513,241.62341143249068 77.15890850755386,241.87472472328227 79.7592295347713,235.34055482631084 76.98555377218872,242.3145228018402 58.49438202264719,234.5237800295581" stroke="#4DD2FF" stroke-linecap="round" stroke-linejoin="round" stroke-width="0.5"><title>2024-11-20 4.0km</title><desc>1732095798000</desc></polyline><polyline fill="none" points="118.20605416898616,222.16317155738943 128.83590015931986,223.7014557455841 131.3977695167996,224.9902851789957 133.15666489629075,225.15658553413232 142.98353690910153,230.02084899842157 145.583643122809,232.0164320001204 159.57833244814537,238.21100877801655 160.22835900168866,238.1278605518164 161.79607010097243,234.46932632976677 162.94317578338087,233.59626348206075 173.57302177371457,234.1783055323467 179.1556027615443,236.4233191824169 186.0,236.67276458599372 179.0408921930939,236.46489342412679 172.96123207639903,234.1367311202921 163.172596919816,233.63783793436596 161.56664896430448,234.71877260674955 160.07541157724336,238.29415699202218 145.85130111523904,232.43217756057857 134.91556027601473,226.32068663294194 128.75942644733004,223.8677564849495 114.0,221.70584300800692" stroke="#4DD2FF" stroke-linecap="round" stroke-linejoin="round" stroke-width="0.5"><title>2024-11-19 4.1km</title><desc>1731989484000</desc></polyline></svg>