<?xml version="1.0" encoding="utf-8" ?>
<svg baseProfile="full" height="300mm" version="1.1" viewBox="0,0,200,300" width="200mm" xmlns="http://www.w3.org/2000/svg" xmlns:ev="http://www.w3.org/2001/xml-events" xmlns:xlink="http://www.w3.org/1999/xlink"><defs /><rect fill="#222222" height="300" width="200" x="0" y="0" /><text fill="#FFFFFF" style="font-size:12px; font-family:Arial; font-weight:bold;" x="10" y="20">Over 4km Runs</text><text fill="#FFFFFF" style="font-size:4px; font-family:Arial" x="10" y="280">ATHLETE</text><text fill="#FFFFFF" style="font-size:9px; font-family:Arial" x="10" y="290">Fake David</text><text fill="#FFFFFF" style="font-size:4px; font-family:Arial" x="65" y="280">SPECIAL TRACKS</text><rect fill="yellow" height="2.6" width="2.6" x="65" y="283" /><text fill="#FFFFFF" style="font-size:3px; font-family:Arial" x="70" y="285.5">Over 10.0 km</text><rect fill="red" height="2.6" width="2.6" x="65" y="287" /><text fill="#FFFFFF" style="font-size:3px; font-family:Arial" x="70" y="289.5">Over 15.0 km</text><text fill="#FFFFFF" style="font-size:4px; font-family:Arial" x="120" y="280">STATISTICS</text><text fill="#FFFFFF" style="font-size:3px; font-family:Arial" x="120" y="285">Number: 54</text><text fill="#FFFFFF" style="font-size:3px; font-family:Arial" x="120" y="290">Weekly: 2.7</text><text fill="#FFFFFF" style="font-size:3px; font-family:Arial" x="141" y="285">Total: 444.1 km</text><text fill="#FFFFFF" style="font-size:3px; font-family:Arial" x="141" y="290">Avg: 8.2 km</text><text fill="#FFFFFF" style="font-size:3px; font-family:Arial" x="167" y="285">Min: 4.0 km</text><text fill="#FFFFFF" style="font-size:3px; font-family:Arial" x="167" y="290">Max: 13.0 km</text><polyline fill="none" points="12.815227483748458,41.14663262468821 16.558960074267816,41.60699716374802 18.55338904360542,42.27331195125589 20.960074280388653,43.436327583840466 21.90714948932873,44.114749528162065 25.4280408542254,45.77444842454861 25.862581244145986,45.7502193654218 26.096564531093463,45.02334591280669 26.02971216343576,44.550876426364994 26.30826369544957,44.3570423937781 29.985143918253016,44.69625179916329 31.701021355576813,45.36255392835301 35.33333333331393,45.38678304522182 31.37790157843847,45.289866555991466 29.795728876430076,44.69625179916329 26.30826369544957,44.453959438964375 26.096564531093463,44.61144951416645 25.929433611861896,45.78656295276596 25.606313834665343,45.83502105658408 24.180129990680143,45.09603340429021 21.974001856986433,44.28435457200976 17.795728876488283,41.94621230586199 16.77065923862392,41.64334167711786 11.33333333331393,40.83164561010199 16.11327762302244,41.497963574918685 17.216341689869296,41.75237516844936 18.330547817982733,42.30965631570143 17.751160631363746,41.94621230586199 17.40575673163403,41.98255674338725 16.23584029712947,41.57065264225821 13.528319405799266,41.24355158332037" stroke="#4DD2FF" stroke-linecap="round" stroke-linejoin="round" stroke-width="0.5"><title>2025-04-11 5.8km</title><desc>1744345493000</desc></polyline><polyline fill="none" points="43.717472118965816,41.04152958896884 43.706319702614564,40.82325903924357 43.44981412641937,41.07790798548376 42.0,40.859637484536506 47.09665427514119,41.41743929401855 47.988847583706956,41.817600284019136 48.501858736155555,41.85397850703157 49.90706319711171,42.49665910650219 50.130111524194945,42.81193545390852 51.08921933086822,43.34547865051718 56.40892193315085,45.734275608861935 56.68773234204855,45.41900492194691 56.676579925755505,44.40043391405197 56.92193308554124,44.218545563315274 60.65799256507307,44.58232206151297 62.24163568770746,45.26136934950773 66.0,45.32199843390845 62.60966542758979,45.29774680285482 61.940520446165465,45.200740242536995 60.5353159851511,44.58232206151297 57.01115241640946,44.37618214567192 56.77695167285856,44.630825533153256 56.676579925755505,45.74640139230178 56.28624535322888,45.84340762742795 55.605947955395095,45.4068791141035 52.617100371746346,44.2064196660358 48.34572490712162,41.86610457957431 47.26394052046817,41.52657420703326 44.542750929365866,41.174917003067094" stroke="#4DD2FF" stroke-linecap="round" stroke-linejoin="round" stroke-width="0.5"><title>2025-04-10 4.8km</title><desc>1744258695000</desc></polyline><polyline fill="none" points="74.32914923294447,41.082925164329936 77.95536959555466,41.543931739535765 80.08647140866378,42.247570837891544 83.46722454676637,44.21289152330428 86.87029288703343,45.802114979422186 87.1380753138219,45.77785214246251 87.30543933057925,45.45030348988075 87.43933054391528,44.98930797385401 87.33891213394236,44.54044266481651 87.51743375172373,44.3463383641938 89.13528591353679,44.56470568611985 91.09902370988857,44.576837195432745 92.99581589963054,45.26833173158229 96.58856345887762,45.244068815081846 92.85076708509587,45.26833173158229 91.12133891216945,44.58896870381432 87.72942817298463,44.406995982993976 87.47280334727839,44.66175773521536 87.31659693166148,45.74145788028545 86.93723849375965,45.78998356140801 82.46304044633871,43.812550344489864 79.07112970715389,41.89575166879513 77.89958158996888,41.56819520735007 72.71129707118962,40.816026024200255 78.30125523015158,41.616722132093855 86.97071129712276,45.85064064247126 87.20502092054812,45.76572072264389 87.36122733610682,45.438172045658575 87.32775453280192,44.52831115281151 87.55090655508684,44.33420683773875 91.11018131102901,44.576837195432745 92.50488145049894,45.183411508085555 93.55369595537195,45.328989006913616 96.66666666668607,45.147017113049515 92.87308228731854,45.26833173158229 91.0767085076659,44.58896870381432 87.67364016734064,44.3706014144409 87.42817294283304,44.67388923726685 87.33891213394236,45.6080121826235 86.94839609484188,45.802114979422186 82.29567642958136,43.72762936184881 79.12691771273967,41.93214679051016 77.20781032077502,41.483273054196616 75.25523012556368,41.34982386697084 72.66666666668607,40.87668495811522 75.05439330544323,41.15571576297225" stroke="#4DD2FF" stroke-linecap="round" stroke-linejoin="round" stroke-width="0.5"><title>2025-04-08 9.7km</title><desc>1744085781000</desc></polyline><polyline fill="none" points="105.2043310131412,41.03261072785244 103.33333333331393,40.923627442345605 107.43170920340344,41.250577079641516 109.87068832170917,41.83181925529789 110.63913379737642,42.15876706561539 111.11802010826068,42.61891472149 112.3430781129282,43.03062467777636 113.85769528232049,43.975131813349435 117.63310131483013,45.7793673677661 117.84470224287361,45.79147626357735 118.000618716178,45.53718926238071 118.13426140759839,44.47160131212149 118.29017788090277,44.35051133031084 121.83170920342673,44.52003727958072 123.15699922665954,45.11337670973444 123.94771848415257,45.28290186340746 127.33333333331393,45.24657505964569 123.51337973709451,45.22235718597949 121.86511987628182,44.592691203724826 118.45723124517826,44.374729333867435 118.17880897136638,44.53214626920817 117.9894818252069,45.73093177555711 117.73333333333721,45.76725847106718 113.23402938904474,43.817714338583755 109.91523588553537,41.940801931821625 108.62335653521586,41.54119842732325 106.61871616402641,41.43221548284055 103.43356535187922,40.875190403094166 107.08646558393957,41.28690477654163 107.76581593195442,41.589635268072016 108.89064191799844,41.66229050212132 110.40525908739073,42.31618614711624 108.71245166281005,41.56541684948024 106.34029389021453,41.1658124220412" stroke="#4DD2FF" stroke-linecap="round" stroke-linejoin="round" stroke-width="0.5"><title>2025-04-07 6.0km</title><desc>1743999676000</desc></polyline><polyline fill="none" points="135.64093023259193,41.172907564396155 134.2232558139949,40.86947196324763 138.69953488372266,41.464205209733336 140.8093023255933,42.010386890760856 143.5776744186296,43.454725178860826 143.8790697674849,43.78243040315283 148.37767441861797,45.821470321010565 148.60093023261288,45.772922048097826 148.72372093022568,44.59562200111395 148.9469767442206,44.3892901888903 152.5637209302513,44.65630777849583 154.483720930235,45.34812404308468 158.0,45.38453534405562 154.14883720932994,45.29957562913478 152.50790697679622,44.65630777849583 149.05860465118894,44.449976043149945 148.82418604649138,44.547073362919036 148.69023255817592,45.5059062885266 148.40000000002328,45.84574445204635 144.76093023258727,44.32860431203153 140.50790697679622,41.9375627724512 139.2130232558702,41.57344169243879 136.3218604651629,41.2942816465802 134.11162790702656,40.833059653130476 139.67069767444627,41.609853837042465 143.4548837209586,43.418313446614775 144.63813953491626,44.182958115357906 148.37767441861797,45.80933325414662 148.61209302325733,45.68796253571054 148.73488372092834,44.66844493125973 148.95813953486504,44.42570170415274 152.39627906976966,44.632033470261376 154.3832558140275,45.3602611443348 157.98883720935555,45.445220827605226 156.4818604651373,45.5059062885266 154.21581395354588,45.33598694096145 152.28465116285952,44.632033470261376 149.00279069773387,44.42570170415274 148.7460465116892,44.632033470261376 148.72372093022568,45.5059062885266 148.4446511627757,45.83360738695774 144.5823255814612,44.25578122997831 142.4613953488879,42.993509302061284 139.55906976747792,41.63412859562959 134.0,40.82092221462517 139.50325581396464,41.58557907487557 141.1106976744486,42.228859050461324 141.6576744186459,42.70221439130546 140.49674418603536,41.94970012776321 140.12837209308054,41.94970012776321 139.50325581396464,41.561304309085244 137.92930232558865,41.391380847242544" stroke="yellow" stroke-linecap="round" stroke-linejoin="round" stroke-width="0.5"><title>2025-04-03 10.8km</title><desc>1743675722000</desc></polyline><polyline fill="none" points="166.31569173635216,41.049715003580786 164.7892293407931,40.88010666168702 166.73909006500617,41.0739447522792 167.44103992573218,41.35258660269028 169.82544103998225,41.54642413002148 171.75301764166215,42.17639449809212 172.62209842161974,42.648870672433986 172.67780872801086,42.854821395725594 175.79758588672848,44.46607393369777 178.99535747454502,45.859249348548474 179.25162488402566,45.750218659610255 179.4298978644656,44.55087625660235 179.61931290628854,44.39338619314367 181.83658310124883,44.69625156445545 183.0844939647941,44.59933470701799 185.1457753017894,45.32620972991572 188.66666666668607,45.374667949276045 185.0789229341317,45.32620972991572 183.1513463324518,44.62356392676884 179.68616527394624,44.417615443628165 179.46332404832356,44.62356392676884 179.30733519041678,45.665416962103336 179.0064995357534,45.847134831157746 175.59702878375538,44.39338619314367 171.4298978644656,42.10370573401451 170.15970287838718,41.643342807059526 164.66666666668607,40.80741731810849 170.37140204274328,41.619113143213326 171.41875580319902,42.17639449809212 172.12070566392504,42.34600148786558 175.27390900655882,44.1268641998322 179.01764159707818,45.79867675260175 179.20705663884291,45.71387508038606 179.40761374193244,44.49030317332654 179.60817084502196,44.34492768139171 181.11234911798965,44.58722009576741 183.32961931294994,44.64779314293992 184.96750232129125,45.31409517284192 188.6555246054195,45.362553395782015 184.68895078927744,45.25352237385232 183.17363045498496,44.659907749679405 179.74187558033736,44.417615443628165 179.44103992573218,44.57510548362916 179.26276694523403,45.81079127357225 178.90622098423773,45.81079127357225 174.96193129068706,44.09052025779965 173.9925719591556,43.41209851561871 171.24048282270087,42.00678733139648 169.26833797589643,41.48584992754331 164.68895078921923,40.88010666168702 168.33240482828114,41.34047174954321" stroke="yellow" stroke-linecap="round" stroke-linejoin="round" stroke-width="0.5"><title>2025-04-01 10.1km</title><desc>1743481138000</desc></polyline><polyline fill="none" points="12.809568188909907,67.7017879349587 15.102205653965939,67.944988583753 17.741534638102166,68.52866866225668 22.472196334332693,71.05792488215957 25.64833799318876,72.48061428245273 26.017396707145963,72.24958009495458 26.106865486188326,71.21600209455937 26.285803044447675,71.02144550370576 29.674433053762186,71.28896075634111 32.16837527183816,72.05502473610977 35.28859894385096,72.0063858601643 31.497359428438358,71.92126779234968 29.819819819822442,71.31328030301665 26.31935383664677,71.0822444632795 26.11804908356862,71.34975961621967 26.07331469404744,72.26173979720625 25.62597079842817,72.45629490971623 21.868282075214665,70.8390484891861 17.75271823554067,68.60162852529902 17.3053743399214,68.57730857458955 16.522522522544023,68.2246688818559 15.023920472245663,68.13954884186387 11.366884125513025,67.47074698291544 17.786269027681556,68.52866866225668 22.662317489972338,71.1552031848114 25.670705187949352,72.49277396746038 25.96147872012807,72.32253829477122 26.129232681007124,71.1552031848114 26.285803044447675,70.99712591353455 27.41534638090525,71.2038423144113 29.6185150668025,71.26464120601304 31.47499223361956,71.96990669368824 35.33333333331393,71.98206641674915 34.360360360413324,72.07934416864009 31.486175831058063,71.92126779234968 29.898105001600925,71.32544007498655 26.38645542098675,71.05792488215957 26.1851506679086,71.21600209455937 26.02858030446805,72.3590173824341 25.659521590627264,72.52925301708456 21.63342652999563,70.7296101826214 17.831003417202737,68.57730857458955 17.37247592426138,68.60162852529902 16.589624106884003,68.24898888511234 11.33333333331393,67.49506709855632 16.679092885984574,68.26114888540178 18.35663249460049,68.92994750538492 17.77508543030126,68.56514859787421 17.506679092883132,68.60162852529902 16.645542093843687,68.20034887496149 12.138552345451899,67.59234752475459" stroke="yellow" stroke-linecap="round" stroke-linejoin="round" stroke-width="0.5"><title>2025-03-30 10.7km</title><desc>1743316730000</desc></polyline><polyline fill="none" points="43.58807082939893,67.76258817643975 42.14538676600205,67.4464268618758 44.51630941283656,67.96930870480719 47.33457595523214,68.26114900498942 48.44175209692912,68.5894687189284 53.79869524698006,71.3619199671084 55.532152842439245,72.03070598121849 56.23671947803814,72.51709408851457 56.493942218017764,72.46845534301247 56.66169617889682,72.2009419836395 56.739981360617094,71.26464177315938 56.93010251625674,71.03360583016183 60.41938490211032,71.28896132706723 62.45479962718673,71.9820670907502 65.9664492078009,72.04286570154363 62.23112767934799,71.99422681474243 60.58713886298938,71.34976019604073 57.09785647713579,71.11872437351849 56.86300093191676,71.38623950655165 56.7287977632368,72.41981658301665 56.28145386761753,72.5292537726491 52.90400745574152,71.08224500321376 48.419384902052116,68.67458853693097 48.00559179869015,68.68674850733078 46.75302889093291,68.26114900498942 42.078285181720275,67.53154727604124 47.099720410013106,68.26114900498942 48.486486486392096,68.62594864635321 51.34948741842527,70.02433971807477 52.99347623484209,71.0700852113223 56.32618825719692,72.55357313813874 56.672879776277114,72.32253901952936 56.77353215281619,71.24032221561356 56.93010251625674,71.10656458433368 60.39701770734973,71.3011211026751 61.90680335502839,71.90910872792301 62.87977632804541,72.05502542099566 66.0,72.01854625994747 62.28704566630768,72.00638653780334 60.41938490211032,71.34976019604073 57.030754892737605,71.15520373567415 56.79589934757678,71.42271880891349 56.75116495799739,72.39549719754723 56.60577819199534,72.55357313813874 56.359739049337804,72.51709408851457 52.09878844360355,70.68097139186284 48.53122087602969,68.66242856565805 48.307548928190954,68.73538837977685 47.08853681263281,68.29762900582864 44.739981360617094,68.09090889332583 42.0,67.5437073315843 44.695246971037704,67.95714868100185" stroke="#4DD2FF" stroke-linecap="round" stroke-linejoin="round" stroke-width="0.5"><title>2025-03-28 10.0km</title><desc>1743136214000</desc></polyline><polyline fill="none" points="74.28677839855663,67.80111684337317 72.66666666668607,67.4852499532717 75.32588454376673,67.76467069498904 78.33147113595624,68.32351074190228 78.83426443202188,68.66367331097717 79.90689013036899,68.96738929083222 80.9795158287161,69.68415676044242 82.04096834268421,70.02431649107893 83.40409683430335,70.9476036115957 86.9683426443953,72.49045331770321 87.29236499074614,72.4054147375864 87.40409683430335,71.33635451947339 87.66108007455477,71.12983071507188 90.97951582877431,71.3120576148649 92.66666666674428,71.9437759577122 93.56052141531836,72.05311157630058 96.66666666668607,72.10170516105427 92.9459962756373,72.04096317788935 91.10242085665232,71.34850297041703 87.59404096839717,71.09338531065441 87.41527001862414,71.3120576148649 87.35940409684554,72.25963421147026 87.11359404097311,72.51475004671374 83.56052141531836,71.08123684073507 79.11359404097311,68.62722735536227 77.24767225328833,68.15342919123941 72.84543761640089,67.59458856137644 74.64432029798627,67.78896812815219" stroke="#4DD2FF" stroke-linecap="round" stroke-linejoin="round" stroke-width="0.5"><title>2025-03-25 5.1km</title><desc>1742904051000</desc></polyline><polyline fill="none" points="104.95419965847395,67.8669412261952 103.37804688717006,67.52661849666038 107.55876416707179,68.0249479664053 108.93370594631415,68.26803496023058 110.14097189879976,68.7177449438459 112.87967706879135,70.15194688063639 113.28209905297263,70.51657248145784 117.64167054806603,72.50984469504328 118.0440925322473,72.31538018524589 118.12234125135001,71.27012947399635 118.29001707810676,71.09997174766613 122.00124204321764,71.3309000475274 123.62210836831946,71.99937486251292 127.31097655644407,72.03583704639459 126.30492159602,72.1452235490724 123.68917869898723,71.97506673542375 121.82238782796776,71.34305415952986 118.39062257413752,71.12428000515501 118.09998447448015,71.36736238081357 118.01055736688431,72.3761503694841 117.58577860583318,72.47338261711411 113.7627697562566,70.80827237533231 109.8167986337794,68.5962018272694 109.49262536875904,68.63266477176512 108.64306784665678,68.23157193424413 103.33333333331393,67.49015530495672 109.00077627698192,68.29234363968135 110.99052942090202,69.11883658602892 113.37152616056846,70.54088082587987 117.68638410186395,72.50984469504328 117.99937897844939,72.4004584368231 118.11116286291508,71.27012947399635 118.33473063196288,71.08781761756109 121.74413910886506,71.29443770612124 123.66682192205917,71.99937486251292 127.33333333331393,72.07229922211263 125.95839155407157,72.18168570034322 123.59975159133319,71.97506673542375 121.74413910886506,71.30659182084491 118.30119546654169,71.08781761756109 118.11116286291508,71.36736238081357 118.06644930911716,72.26676402160956 117.92113025934668,72.47338261711411 117.68638410186395,72.46122858933813 113.66216426022584,70.77180991711793 109.85033379914239,68.584047510667 109.61558764165966,68.66912770808267 108.54246235062601,68.21941759045876 104.26113957463531,67.62385363467911" stroke="#4DD2FF" stroke-linecap="round" stroke-linejoin="round" stroke-width="0.5"><title>2025-03-23 9.7km</title><desc>1742722238000</desc></polyline><polyline fill="none" points="135.59702187066432,67.75964105737512 139.42764076322783,68.18464753188891 140.16472778038587,68.60965289811429 140.4104234527913,68.56108091233182 141.30386226152768,68.93751342337055 145.1679851093213,71.0503765437461 146.7426710097934,71.6575160525972 148.33969288039953,72.54393567440275 148.60772452305537,72.37393776436511 148.69706840388244,71.22037583417841 148.89809213590343,71.08680497804016 152.3713355049258,71.22037583417841 154.33690088411095,71.91251397195447 158.0,71.96108495896624 154.403908794804,71.97322770347819 152.50535132625373,71.24466143264726 148.9762680316926,71.0503765437461 148.7752442996716,71.22037583417841 148.6412284783437,72.32536690034613 148.3173569102073,72.44679403322516 144.3750581665663,70.71037743096531 141.27035830623936,68.99822826306627 139.43880874826573,68.25750567339128 134.04467194044264,67.45606432559725 139.42764076322783,68.22107660671463 140.58911121450365,68.57322391014895 143.4592833876377,70.04251996599487 144.54257794324076,70.78323444341368 148.33969288039953,72.44679403322516 148.652396463498,72.26465329997882 148.73057235928718,71.17180462642864 148.89809213590343,71.0018052853411 152.42717543040635,71.22037583417841 154.2810609586304,71.88822847300617 157.9888320149039,71.94894221359573 156.9613773848978,72.08251236322394 154.11354118195595,71.93679946726479 152.42717543040635,71.26894702746358 148.9874360167305,71.02609091637714 148.7417403443833,71.37823215941899 148.68590041884454,72.25251057722198 148.5183806421701,72.49536486105353 148.27268496982288,72.48322215546796 144.31921824108576,70.69823459236068 141.2256863657385,68.98608529692865 139.4164727780735,68.3060777496139 134.0,67.51677971718891 137.55141926481156,67.94178682503116" stroke="#4DD2FF" stroke-linecap="round" stroke-linejoin="round" stroke-width="0.5"><title>2025-03-21 9.8km</title><desc>1742551156000</desc></polyline><polyline fill="none" points="166.16876848821994,67.65376142659807 165.8885256110807,67.86096481389541 164.66666666668607,67.59281920389913 165.44013700762298,67.58063075665268 170.06974933831953,68.22661721007898 171.20193056197604,68.51913853855513 175.46162229485344,70.8592903365934 178.9702631168766,72.39499676282867 179.36260314495303,72.2974920214765 179.48591001087334,71.22493603127077 179.68768488243222,71.06648966392095 183.3196325704339,71.3102532424673 184.6535886656493,71.8952843491279 185.72972131404094,72.05372991383774 188.66666666668607,72.09029425312474 184.9786704031867,71.968413090377 183.27479371009395,71.29806507215835 179.77736260311212,71.05430147545121 179.51953915611375,71.27368872881925 179.58679744665278,71.71246235299623 179.39623229019344,72.46812528072041 179.01510197727475,72.541253765914 178.29768021166092,72.11467047479528 175.360734859074,70.9933605195256 171.426124863734,68.81165934396267 169.9128133271006,68.28755919665855 168.60127666202607,68.23880560920225 164.68908609682694,67.458746234086 170.19305620423984,68.26318240475666 172.1659660594305,69.00667292368598 175.0020239762962,70.6277143072657 179.10477969795465,72.48031336384884 179.40744200529298,72.24873962896527 179.48591001087334,71.20055967706139 179.7101043125731,71.04211328610836 183.25237427989487,71.3102532424673 185.00108983338578,71.95622496909346 188.59940837614704,71.99278933016467 187.68021173909074,72.11467047479528 184.84415382216685,71.93184872381971 183.30842285533436,71.29806507215835 179.7437334578717,71.06648966392095 179.5307488712133,71.24931238188583 179.50832944107242,72.02935368310136 179.30655456951354,72.41937293908268 179.12719912809553,72.45593719667522 175.17016970261466,70.81053751555737 171.1570917016943,68.543515292331 170.742332243477,68.55570366785105 169.87918418180197,68.19005200723768 168.3770823602681,68.1169215770351 164.7339249571669,67.5196885067271 167.44667600811226,67.87315324025985" stroke="#4DD2FF" stroke-linecap="round" stroke-linejoin="round" stroke-width="0.5"><title>2025-03-19 10.0km</title><desc>1742357906000</desc></polyline><polyline fill="none" points="12.350093109882437,94.23695830898941 16.0260707634734,94.74720413946488 17.925512104236986,95.23315106498194 21.567970204807352,97.26196383443312 25.646182495343965,99.14497106456838 26.037243947852403,99.02348738326691 26.137802607030608,98.08806000597542 26.383612662903033,97.7236063285236 30.115456238330808,97.99087243829854 31.411545623850543,98.56184856899199 32.36126629420323,98.69548099172243 35.33333333331393,98.719777784092 31.735567970143165,98.58614538125403 29.903165735537186,97.90583326907654 26.40595903166104,97.67501244333107 26.17132216016762,97.97872398828622 26.14897579140961,98.90200361146708 25.668528864043765,99.18141615131753 21.132216014841106,97.11618172266753 18.584729981375858,95.64620481299062 16.886405959026888,94.9658804351784 11.33333333331393,94.1519171820255 13.858472998137586,94.43133786124235 16.58472998131765,94.86869100661715 17.42271880817134,95.24529971955053 17.813780260679778,95.22100240949658 22.115456238389015,97.55352766695432 25.746741154580377,99.15711942770577 26.0260707634734,98.9991906361538 26.182495344488416,98.29458339497796 26.0260707634734,99.05993249716994 25.567970204807352,99.12067433555785 21.769087523280177,97.45633978069236 17.813780260679778,95.29389432886092 17.411545623850543,95.28174567785754 16.383612662903033,94.85654232396337" stroke="#4DD2FF" stroke-linecap="round" stroke-linejoin="round" stroke-width="0.5"><title>2025-03-17 7.0km</title><desc>1742185263000</desc></polyline><polyline fill="none" points="43.312762973306235,94.23893553661765 43.25666199158877,94.38533360052679 43.13323983171722,94.22673569206381 43.234221598890144,94.40973326511448 42.22440392704448,94.23893553661765 46.039270687208045,94.69032914660056 48.48527349228971,95.25151946702681 52.67040673206793,97.53286031605967 56.451612903154455,99.21639628330013 56.73211781203281,99.00900510611245 56.82187938288553,97.95984571403824 57.046283309930004,97.74025336273189 60.446002805023454,97.94764614669839 62.36465638142545,98.65521955059376 65.96633941092296,98.71621711470652 62.319775596028194,98.63082051862148 60.7265077138436,97.98424484599673 57.169705469801556,97.74025336273189 56.844319775584154,97.93544657841267 56.7208976157126,99.05780305377266 56.373071528738365,99.13099994802906 52.01963534363313,97.215670442587 48.518934081308544,95.2393196979101 45.81486676016357,94.62933008284017 42.0,94.14133675464836 45.837307152862195,94.58053081548132 48.49649368860992,95.17832083866233 52.62552594667068,97.45966270750796 56.373071528738365,99.11880046792794 56.74333800835302,98.9114091671072 56.83309957920574,97.92324700923928 57.01262272091117,97.74025336273189 60.580645161215216,97.93544657841267 62.39831697050249,98.61862100123835 66.0,98.71621711470652 62.20757363253506,98.58202244369022 60.569424964895006,97.93544657841267 57.03506311355159,97.71585419437906 56.83309957920574,98.02084353714599 56.68723702663556,99.04560356821457 56.451612903154455,99.1066009868955 52.434782608703244,97.42306389093574 48.54137447406538,95.25151946702681 47.183730715245474,94.84892660604964 42.0,94.11693705002835 45.500701262266375,94.60493045096518" stroke="yellow" stroke-linecap="round" stroke-linejoin="round" stroke-width="0.5"><title>2025-03-15 10.0km</title><desc>1742012101000</desc></polyline><polyline fill="none" points="74.18150416080607,94.50334938168817 72.66666666668607,94.14688779989956 76.05809389223577,94.52793291064154 79.0651593656512,95.1425199444202 83.39488145703217,97.51480442025058 87.12545140524162,99.14957127976231 87.4080703406944,98.79311973635049 87.46459412778495,97.80980114151316 87.70199403358856,97.67459437639627 91.35343067982467,97.95729930432572 93.0943633223651,98.64562232070602 96.66666666668607,98.67020523246902 93.207410896488,98.67020523246902 91.29690689273411,97.9818823186215 87.75851782067912,97.7606350579008 87.49850840005092,98.01875683324761 87.32893703877926,99.07582274777815 87.05762286070967,99.18644553342892 83.14617679378716,97.5025128787529 81.54090124036884,96.47002012384473 79.09907363791717,95.25314536737278 78.83906421728898,95.30231219819689 77.84424556448357,94.8598101932439 76.37462710001273,94.78605974371021 73.01711414661258,94.20834674822981 74.80326581880217,94.41730700142216 77.14335060445592,94.78605974371021 78.08164547022898,94.87210193164356 79.38169257336995,95.31460390360735 83.10095776419621,97.36730586184422 86.17585178202717,98.67020523246902 86.82022295490606,99.10040559543995 87.28371800907189,99.07582274777815 87.5211179148755,98.26458672003355 87.36285131104523,99.05123989644926 87.05762286070967,99.12498843946378 83.20270058093593,97.47792979303631 79.11037839535857,95.20397852188034 78.57905479666078,95.17939509365533" stroke="#4DD2FF" stroke-linecap="round" stroke-linejoin="round" stroke-width="0.5"><title>2025-03-12 7.1km</title><desc>1741778255000</desc></polyline><polyline fill="none" points="105.1743062051828,94.39036892417062 108.4409105082741,94.79315116901125 109.45120049890829,95.2325488521019 110.697224820673,95.46445270969707 114.37917056435253,97.64921504312952 117.7917056439328,99.13825423977687 118.06111630809028,98.94297118176473 118.1284689741442,97.94214185600867 118.3529778609518,97.7102415056579 121.94512004993157,97.89332075690618 123.34830059250817,98.44255728309508 124.42594324913807,98.61343049351126 127.33333333331393,98.65004615829093 123.69628936704248,98.66225137803121 121.94512004993157,97.9665524000884 118.4652323043556,97.73465208431298 118.20704708452104,97.90552603302058 118.03866541944444,99.01620235577866 117.65700031182496,99.11384387029102 113.34642968507251,97.2342344949866 109.81041471782373,95.22034337681544 109.51855316496221,95.31798715362675 108.46336139691994,94.85417869547382 103.33333333331393,94.15846354608948 108.02556906768586,94.74432913148485 109.60835671966197,95.2325488521019 109.81041471782373,95.15931598676252 113.9638291237643,97.40510896564228 117.75802931090584,99.1260490554996 118.06111630809028,98.8575347706792 118.13969441846712,97.8567049230187 118.38665419397876,97.7102415056579 121.85531649517361,97.8567049230187 123.80854381044628,98.54019913944649 127.33333333331393,98.65004615829093 123.71874025568832,98.6256357160164 121.86654193949653,97.86891020186886 118.37542874959763,97.6370097478648 118.17337075149408,97.9665524000884 118.16214530717116,98.8575347706792 117.81415653257864,99.17486978725356 116.09666354849469,98.2838891424326 113.62706579361111,97.35628770646872 109.88899282820057,95.28137074413826 109.60835671966197,95.3301926216227 108.63174306205474,94.87858969968511 105.57842220138991,94.63447949380497 103.33333333331393,94.20728575823887 105.01714998442912,94.34154676659091 105.81415653257864,94.48801319568884 108.82257561583538,94.89079520045198 110.4165887121926,95.61091813481471 109.95634549425449,95.30578168469947 108.67664483934641,94.93961719435174 106.4764577486203,94.6833015641023 105.07327720610192,94.75653464221978 103.40068599930964,94.20728575823887" stroke="yellow" stroke-linecap="round" stroke-linejoin="round" stroke-width="0.5"><title>2025-03-07 10.7km</title><desc>1741342581000</desc></polyline><polyline fill="none" points="135.85480093676597,94.3749490406044 139.46323185006622,94.83941025839886 140.04777517559705,95.18164399846864 140.5311475409544,95.19386661882163 143.63372365332907,96.72168699381291 145.08384074940113,97.68726213321497 148.43372365331743,99.16617000012775 148.68103044497548,98.93394568016811 148.96206088992767,97.72392943158047 150.46838407492032,97.90726580045884 152.76159250579076,97.8583761221089 153.9644028103212,98.37171701800253 155.1110070257564,98.56727503206639 158.0,98.55505266301043 157.3817330210586,98.67727631253365 154.3690866510151,98.57949740019103 152.6154566744808,97.94393304965342 149.05199063225882,97.7728191499773 148.83840749412775,97.9317106341623 148.61358313815435,99.05616904744238 148.25386416859692,99.1417253503314 144.5555035128491,97.46725817097467 140.5311475409544,95.29164754900557 139.08103044488234,94.87607819326513 136.2145199063234,94.71718374962802 134.0,94.16716333321529 135.32646370015573,94.24049949529581" stroke="#4DD2FF" stroke-linecap="round" stroke-linejoin="round" stroke-width="0.5"><title>2025-03-05 4.7km</title><desc>1741177738000</desc></polyline><polyline fill="none" points="165.76176753127947,94.32287572490168 169.53121998079587,94.77409305736364 170.59173871285748,95.07490393999615 174.85686839581467,97.40617004295927 177.95773294911487,98.69712608412374 178.66090297792107,99.16086515637289 179.00672430358827,99.0731308353279 179.17963496642187,97.84484553700895 179.43323727190727,97.70697621926956 182.89145052834647,97.8824462404009 184.79346781939967,98.60939152126957 188.66666666668607,98.65952556280536 187.20268972142367,98.7973940999509 184.77041306433966,98.67205907082825 183.08741594624007,97.98271474175272 179.44476464937907,97.7195097982767 179.27185398654547,97.8824462404009 179.08741594618186,99.11073126424162 178.83381364075467,99.2109990335739 174.23439000966027,97.25576675312186 170.54562920273747,95.1501065765915 170.30355427478207,95.23784294349025 169.19692603265867,94.82422824183595 164.66666666668607,94.12233429974003" stroke="#4DD2FF" stroke-linecap="round" stroke-linejoin="round" stroke-width="0.5"><title>2025-03-03 4.6km</title><desc>1740978130000</desc></polyline><polyline fill="none" points="13.373501479043625,121.08460088698484 13.194146037683822,121.1942968142539 11.33333333331393,120.81645497730642 14.259068970859516,121.12116620424786 17.79012922308175,121.87684759781405 20.940059162385296,123.43695298080274 21.98256266542012,124.14387083442125 25.592090923222713,125.7892712509929 25.973221236199606,125.76489506928192 26.16378639265895,124.59483407625521 26.331932118919212,124.38763490329438 29.773314650461543,124.61921043229813 31.477191343612503,125.3017469267943 35.27728475793265,125.35049942458863 33.943328662600834,125.44800437657977 31.432352483214345,125.27737067244016 29.750895220320672,124.64358678470307 26.376770979259163,124.42419948229508 26.2086252529989,124.54608135326998 26.04047952668043,125.63082600498456 25.704188074043486,125.83802360351547 21.91530437488109,124.20481188570557 17.767709792940877,121.91341273800936 17.565934921381995,121.97435462012072 16.826093725627288,121.63307978774537 11.33333333331393,120.82864343727124 16.98302973684622,121.59651458490407 25.569671493023634,125.8502116893651 25.984430951240938,125.77708316057397 26.09652810211992,124.69233947862813 26.2983029736788,124.42419948229508 30.053557527600788,124.66796313345549 31.510820488852914,125.31393505260348 35.33333333331393,125.41144002640794 31.533239919051994,125.3017469267943 29.829363225842826,124.65577495955222 26.36556126421783,124.38763490329438 26.16378639265895,124.59483407625521 25.984430951240938,125.71614269498968 25.636929783562664,125.8136474290659 21.500544916721992,123.98542399490543 18.01432352483971,121.97435462012072 17.487466915743425,121.94997786999738 16.489802273048554,121.52338415470149 13.261404328222852,121.1455430778733 14.550521563156508,121.25523896428058 16.814884010585956,121.58432618212828 18.328195547219366,122.25468698554323 18.384244122658856,122.1328034074395 17.711661217501387,121.90122435883677" stroke="yellow" stroke-linecap="round" stroke-linejoin="round" stroke-width="0.5"><title>2025-02-28 10.0km</title><desc>1740736874000</desc></polyline><polyline fill="none" points="43.677539608615916,121.43032340129139 43.91239515377674,121.1628029467538 43.63280521903653,121.41816339014622 43.87884436157765,121.2600831627642 43.7334575955756,121.19928303454071 42.100652376539074,120.87096195071354 42.84995340171736,120.84664184418216 47.37931034481153,121.46680342931359 48.10624417522922,121.81944327968813 48.542404473468196,121.77080334560014 52.915191053180024,124.14198325997859 56.4156570363557,125.75922980096948 56.71761416591471,125.64979257059167 56.82945013983408,124.4824575476232 57.05312208761461,124.33654008271697 60.55358807084849,124.5554162311164 62.27586206898559,125.21204291528556 65.94408201309852,125.28500127269945 62.253494874225,125.27284154870722 60.46411929174792,124.5554162311164 58.406337371852715,124.56757600854326 56.98602050327463,124.36085966927931 56.80708294501528,124.4702977638226 56.71761416591471,125.6741119614453 56.43802423111629,125.9294653468387 51.9534016775433,123.89878690541082 48.75489282386843,122.02616283773386 46.94315004663076,121.52760345785646 45.511649580614176,121.47896343682078 42.011183597380295,120.83448178954131 47.435228331771214,121.5397634608671 48.027958993508946,121.89240315360075 48.542404473468196,121.89240315360075 52.92637465050211,124.21494209567027 56.482758620753884,125.80786854647158 56.728797763295006,125.60115377795591 56.88536812673556,124.36085966927931 60.45293569430942,124.53109667357057 61.906803355086595,125.10260531802487 62.98042870458448,125.27284154870722 66.0,125.27284154870722 62.331780055887066,125.28500127269945 60.46411929174792,124.65269442506542 58.41752096923301,124.64053465399775 56.907735321554355,124.38517925217457 56.7399813606753,125.54035526682856 56.4044734389754,125.85650727752363 52.38956197578227,124.10550382988004 48.452935694367625,121.90456312941387 43.174277725978754,121.05336263439676 42.0,120.73720131983282 43.75582479033619,121.00472247201833 44.51630941283656,121.1628029467538 46.574091332789976,121.34520330422674 48.989748369087465,122.22072218256653 48.5088536812691,121.89240315360075 48.27399813605007,121.95320302361506 47.20037278661039,121.52760345785646 44.65051258157473,121.34520330422674 42.91705498599913,120.90744210376579" stroke="yellow" stroke-linecap="round" stroke-linejoin="round" stroke-width="0.5"><title>2025-02-26 11.1km</title><desc>1740566027000</desc></polyline><polyline fill="none" points="74.71517412934918,121.11209221190074 72.71144278609427,120.86866455170093 73.60696517420001,120.85649315918272 78.14054726366885,121.47723302200029 78.77860696520656,121.83020169597876 79.15920398011804,121.81803037508507 82.31592039804673,123.37595207837876 82.98756218911149,123.96016888685699 86.28980099502951,125.29899119348556 87.03980099508772,125.81017499820155 87.40920398011804,125.5910964205832 87.50995024875738,124.4713568805455 87.68905472639017,124.32530333127943 89.08830845769262,124.54438360621862 91.1032338308869,124.55655472401122 92.62562189053278,125.15293838409707 93.72263681591721,125.31116225502046 96.59950248757377,125.27464906766545 93.68905472633196,125.27464906766545 92.70398009946803,125.14076731073146 91.24875621893443,124.5930680718593 87.77860696520656,124.36181673084502 87.53233830846148,124.5200413679704 87.3308457711828,125.7371488383069 87.00621890550246,125.82234602166864 85.46144278609427,124.98254327476025 83.13308457710082,124.06970930588432 79.20398009946803,121.87888697045855 78.8345771144377,121.91540091681236 77.90547263686312,121.47723302200029 76.66293532343116,121.48940436828707 72.66666666668607,120.80780758000037 77.92786069656722,121.48940436828707 78.77860696520656,121.89105828684114 79.20398009946803,121.83020169597876 82.51741293532541,123.69240310895839 86.28980099502951,125.33550437542726 87.11815920396475,125.8588590866566 87.44278606964508,125.50589911661518 87.49875621893443,124.50787024747115 87.64427860698197,124.32530333127943 89.3345771144377,124.54438360621862 91.02487562189344,124.50787024747115 92.6032338308869,125.10425408526498 93.77860696520656,125.26247800335113 96.66666666668607,125.27464906766545 93.2189054726623,125.27464906766545 91.28233830846148,124.58089695683157 90.15174129355,124.61741029923724 87.70024875621311,124.31313219630101 87.49875621893443,124.54438360621862 87.42039800999919,125.5789253799012 87.30845771142049,125.79800397378858 87.06218905473361,125.83451704423351 82.6069651741418,123.76543018282973 79.25995024875738,121.90322960227786 78.86815920402296,121.91540091681236 77.99502487562131,121.55026108610036 76.57338308461476,121.47723302200029 72.78980099508772,120.86866455170093 75.45398009952623,121.19729180727154 76.02487562189344,121.2338059059548 77.91666666674428,121.53808974435378 79.92039800999919,122.2196834856295 82.41666666668607,123.50983528151119 79.28233830846148,121.91540091681236 76.02487562189344,121.28249135817168" stroke="yellow" stroke-linecap="round" stroke-linejoin="round" stroke-width="0.5"><title>2025-02-21 11.3km</title><desc>1740135343000</desc></polyline><polyline fill="none" points="105.29981378029333,121.20126890284882 103.40037243947154,120.82465859048534 106.12662942270981,121.12837665222469 108.69646182499127,121.55358098822762 109.41154562379234,121.91804096511623 110.11545623833081,121.95448691800993 113.25512104283553,123.75247714656871 116.88640595896868,125.33177653327584 117.70204841712257,125.82986009042361 118.070763500873,125.56259593181312 118.19366852880921,124.4813864564203 118.35009310988244,124.35990179771034 119.90316573553719,124.5664256636519 121.91433891991619,124.57857411817531 123.19925512099871,125.12525363660825 124.29422718804562,125.30747973547841 127.27746741147712,125.29533133524819 126.38361266290303,125.41681529708148 123.71322160144337,125.27103453199379 121.84729981375858,124.63931637740461 118.40595903166104,124.3963472048199 118.17132216010941,124.59072257184016 118.0037243947736,125.68407969456166 117.65735567966476,125.81771172907611 113.42271880817134,123.92255627694249 109.88081936683739,121.94233826796699 109.36685288645094,121.91804096511623 108.52886405959725,121.55358098822762 107.12104283052031,121.46854020973842 103.33333333331393,120.81250985627412 108.58472998131765,121.51713494572323 109.79143389197998,121.85729769221507 112.72998137801187,123.3151299967285 113.71322160144337,123.98329878052755 117.82495344500057,125.76911827466392 118.0484171321732,125.57474431217997 118.1266294226516,124.55427720818261 118.28305400372483,124.35990179771034 121.80260707630077,124.5664256636519 123.21042830537772,125.12525363660825 124.33891992544523,125.30747973547841 127.33333333331393,125.33177653327584 126.0931098695728,125.42896368827496 123.72439478582237,125.2831829340721 121.91433891991619,124.63931637740461 118.37243947858224,124.3841987366759 118.13780260703061,124.61501947644865 118.081936685252,125.55044755057315 117.85847299807938,125.8541568103974 114.1266294226516,124.23841704847291 109.89199255115818,121.91804096511623 109.51210428302875,121.94233826796699 108.59590316575486,121.56572966722888 105.65735567966476,121.18912019667914 106.61824953445466,121.29845851968275 108.52886405959725,121.51713494572323 110.41713221604005,122.23390561947599 109.92551210423699,121.91804096511623 109.32216014893493,121.90589231235208 108.23836126626702,121.50498626306944 107.26629422715632,121.49283757954254 103.88081936683739,120.86110478777846" stroke="yellow" stroke-linecap="round" stroke-linejoin="round" stroke-width="0.5"><title>2025-02-19 10.6km</title><desc>1739962218000</desc></polyline><polyline fill="none" points="135.74157303379616,120.99992838480102 134.0,120.82889075911953 136.95505617983872,121.14653192197147 139.31460674159462,121.5619078988093 139.9662921348936,121.89176454258268 140.4382022471982,121.8673307398567 144.5617977528018,124.13965881658078 148.51685393264052,125.83777590755199 148.70786516857333,125.59344359616807 148.83146067417692,124.53059380568448 149.02247191016795,124.39621000832994 152.58426966296975,124.6161107103253 154.19101123599103,125.27581104717683 158.0,125.34911092075345 154.39325842697872,125.30024434199731 152.53932584275026,124.6283274073503 149.2471910112654,124.39621000832994 149.05617977533257,124.60389401239809 148.85393258428667,124.55502721159428 148.70786516857333,125.6667433278053 148.3595505618723,125.80112608404306 143.8089887641254,123.78537317769951 140.46067415730795,121.91619834165613 139.19101123599103,121.5374740469415 134.86516853934154,120.92662656705943" stroke="#4DD2FF" stroke-linecap="round" stroke-linejoin="round" stroke-width="0.5"><title>2025-02-18 4.9km</title><desc>1739836925000</desc></polyline><polyline fill="none" points="167.26187118008966,121.01459202628757 167.2280206864234,121.30903966337792 168.46920545375906,121.27223373753077 170.11659614485689,121.55441229209828 172.27174424071563,122.70765874942299 173.43394452281063,123.08798293778091 174.5171603197232,123.87316558028397 178.16173013631487,125.36990962240088 178.99670897977194,125.87291071377695 179.30136342270998,125.63981283806788 179.38034790789243,124.54792892257683 179.56088387401542,124.3884396548383 183.1151857075747,124.67061286959506 184.76257639867254,125.32083626293752 188.66666666668607,125.39444629666104 184.88669487542938,125.24722619634122 183.1377527033328,124.59700251235336 179.65115185710602,124.37617124321696 179.44804889516672,124.59700251235336 179.39163140574237,125.56620291400759 179.21109543961938,125.8238375041692 175.07005171605852,124.09399752393074 171.73013634228846,122.20464798987086 170.02632816170808,121.5176064210973 164.66666666668607,120.79375595290912 170.06017865537433,121.52987504568591 171.61730136343976,122.2291851357586 170.06017865537433,121.52987504568591" stroke="#4DD2FF" stroke-linecap="round" stroke-linejoin="round" stroke-width="0.5"><title>2025-02-14 5.4km</title><desc>1739506837000</desc></polyline><polyline fill="none" points="13.956406663521193,147.8487761700526 15.974155379110016,148.09254452498863 17.790129223139957,148.54351502400823 22.274015257658903,150.94460729126877 25.715397789143026,152.51687704345386 25.995640666340478,152.46812472000602 26.43281955475686,151.37119360134238 26.757901292236056,151.1152419487771 29.941460376780014,151.29806459862448 31.735014790610876,152.01716503925854 35.33333333331393,152.0537293840025 31.656546784972306,152.01716503925854 29.907831231481396,151.32244093649206 26.813949867675547,151.16399467535666 26.511287560337223,151.3102527680021 25.894753230619244,152.51687704345386 22.03861124085961,150.9567954869708 17.82375836832216,148.5922685169935 16.803674295486417,148.2631821573159 11.33333333331393,147.48312295654614 16.646738284267485,148.19005176523933 17.879806943819858,148.5922685169935 22.06103067105869,150.8714780978189 25.681768643960822,152.4925008835562 26.018060096539557,152.40718429523986 26.477658415096812,151.3346291040507 26.836369297874626,151.16399467535666 29.952670091879554,151.3346291040507 31.656546784972306,151.98060068632185 35.33333333331393,152.04154126999492 33.79760236648144,152.12685804897046 31.645337069930974,151.95622444653418 29.885411801340524,151.32244093649206 26.8027401525178,151.10305376483302 26.511287560337223,151.29806459862448 26.006850381440017,152.4437485528324 25.827494940080214,152.48031280220312 21.836836369300727,150.79834887171455 18.216098396398593,148.77509398633265 17.07270745758433,148.29974734107964 11.35575276351301,147.5074998628843 14.203020395420026,147.75126872638066 16.803674295486417,148.19005176523933 18.361824692517985,148.99448427984316 17.778919508040417,148.58008014511142 17.633193211862817,148.6532103628124 16.635528569226153,148.21442856623617" stroke="yellow" stroke-linecap="round" stroke-linejoin="round" stroke-width="0.5"><title>2025-02-12 10.1km</title><desc>1739334019000</desc></polyline><polyline fill="none" points="61.29613733908627,151.67372988436546 62.303290414914954,152.02215809446352 66.0,152.04704579596 62.42918454937171,152.07193349371664 60.71244635200128,151.3004131384514 57.347639485029504,151.07642269042844 56.61516452074284,152.48257997166365 56.397711015772074,152.51991141960025 51.9113018597709,150.55377714365022 50.70958512159996,149.78224977612263 47.52789699577261,148.28896087626345 42.0,147.41786951906397 47.32188841205789,148.15207539241237 49.09585121599957,148.83650168970053 51.35050071531441,149.93157793185674 52.48354792565806,150.72799250761454 56.31759656651411,152.45769233508327 56.626609442115296,152.34569792452385 57.09585121605778,151.22574968916888 57.38197424891405,151.0639787678665 59.442060085828416,151.2879692325805 60.4721030042856,151.22574968916888 62.314735336229205,151.98482653527753 65.85121602291474,152.03460194566287 61.0100143061718,151.68617376152542 61.06723891274305,152.03460194566287 60.964234620914795,151.62395436645602 60.55221745354356,151.4372960421606 57.38197424891405,151.1137544526282 57.153075822629035,151.23819359968184 56.52360515022883,152.58213048095058 52.20886981399963,150.72799250761454 51.419170243199915,150.09334994987876 49.96566523605725,149.39648475596914" stroke="#4DD2FF" stroke-linecap="round" stroke-linejoin="round" stroke-width="0.5"><title>2025-02-10 6.3km</title><desc>1739162078000</desc></polyline><polyline fill="none" points="72.83818948140834,149.03213014967332 74.28953637531959,149.07514680481108 80.83379146055086,150.03584960533772 82.83928898663726,149.94981671357527 83.01081180135952,150.60940123729233 83.76287337369286,150.65241754100134 84.64687557262369,150.98220888443757 85.25380245555425,150.1075436525134 90.6633681509411,150.0071719790285 90.95363752974663,150.50902982469415 91.29668315924937,150.59506246725505 91.52098222466884,150.46601348902914 91.74528129008831,149.86378378352674 92.77441817848012,149.79208964583813 96.66666666668607,150.2796092570934 93.01191130658844,149.77775081509026 91.70569910207996,149.84944495810487 91.45501191128278,150.46601348902914 91.23071284586331,150.58072369614092 90.6633681509411,149.99283316424408 85.31977276894031,150.0788660368271 84.93714495142922,150.33696442456858 84.6732636980596,150.99654762573482 83.07678211468738,150.62374000629643 83.07678211468738,150.06452722739778 82.90525930002332,149.92113907448947 80.96573208720656,150.02151079270698 74.83049294480588,149.11816345031548 72.66666666668607,149.01779126249312 74.54022356605856,149.08948568768392 80.54352208174532,149.99283316424408 82.81290086125955,149.92113907448947 82.99761773867067,150.59506246725505 84.66006963531254,150.98220888443757 85.05589151551249,150.23659287032206 85.39893714489881,150.0788660368271 90.6105919003021,149.99283316424408 90.98002565512434,150.52336860110518 91.24390690855216,150.58072369614092 91.52098222466884,150.4086583599128 91.62653472606326,149.93547789455624 91.95638629281893,149.80642847552372 96.38959135051118,150.23659287032206 93.19662818399956,149.77775081509026 91.90361004212173,149.77775081509026 91.54737035004655,149.96415553154657 91.32307128462708,150.58072369614092 91.05919003114104,150.52336860110518 90.65017408831045,149.96415553154657 85.2669965182431,150.06452722739778 84.95033901405986,150.3082868429483 84.68645776063204,150.98220888443757 83.06358805205673,150.60940123729233 82.90525930002332,149.86378378352674 80.75462708447594,149.94981671357527 74.13120762322797,149.00345237426518 72.97013010812225,149.04646903577668 74.15759574854746,149.03213014967332 81.34835990471765,150.05018841692072 82.8788711745874,149.92113907448947 83.02400586404838,150.60940123729233 84.05314275244018,150.73845011967933 83.07678211468738,150.59506246725505 82.81290086125955,149.87812260785722 80.8205973978038,149.96415553154657 74.73813450615853,149.07514680481108 73.11526479752501,149.04646903577668 74.8568810702418,149.11816345031548" stroke="#4DD2FF" stroke-linecap="round" stroke-linejoin="round" stroke-width="0.5"><title>2025-01-25 9.9km</title><desc>1737761473000</desc></polyline><polyline fill="none" points="103.65333333326271,148.82629531552084 111.47999999992317,149.956532981465 113.74666666664416,149.85510166347376 113.73333333333721,150.7824717508338 114.61333333334187,150.8259421155235 115.37333333329298,151.17370468447916 116.01333333330695,150.23184629305615 121.46666666655801,150.10143477281963 121.9733333332697,150.7390013764525 122.30666666658362,150.63757046523097 122.39999999996508,150.10143477281963 122.61333333328366,149.9420427964069 127.33333333331393,150.39123803275288 123.65333333332092,149.89857223477156 122.49333333323011,150.00000353016367 122.13333333330229,150.7245112495002 121.8399999999674,150.63757046523097 121.71999999997206,150.20286596276856 121.46666666655801,150.08694459852995 116.03999999992084,150.18837579600222 115.77333333325805,150.33327741519315 115.45333333330927,151.14472449407913 113.82666666660225,150.75349150229886 113.7066666666069,150.02898389061738 111.85333333327435,150.15939545923902 104.58666666661156,149.10161022195825 103.33333333331393,149.11610046941496 104.95999999996275,149.15957120536768 111.43999999994412,150.13041511819756 113.51999999996042,150.01449371092895 113.69333333329996,150.1738856281736 113.69333333329996,150.68104086221138 115.37333333329298,151.14472449407913 115.99999999994179,150.20286596276856 121.45333333325107,150.08694459852995 121.7866666666232,150.63757046523097 122.09333333332324,150.7245112495002 122.66666666662786,149.9275526102865 126.53333333326736,150.23184629305615 122.77333333331626,149.8840820454352 122.39999999996508,150.00000353016367 122.33333333331393,150.56511978209892 122.09333333332324,150.69553099237964 121.45333333325107,150.04347406919987 116.06666666665114,150.18837579600222 115.72000000003027,150.40572818444343 115.41333333333023,151.11574429935717 113.8133333332953,150.7245112495002 113.61333333328366,149.9855133483652 111.8399999999674,150.14490528924216 104.71999999997206,149.08711997341015 103.62666666664882,149.13059071578027 104.85333333327435,149.10161022195825 106.55999999993946,149.37692473988864" stroke="#4DD2FF" stroke-linecap="round" stroke-linejoin="round" stroke-width="0.5"><title>2025-01-19 8.1km</title><desc>1737283232000</desc></polyline><polyline fill="none" points="137.1723493693862,147.8183071721578 139.1788883698755,148.09864064452995 140.03082671645097,148.53742250650248 140.6585707612685,148.54961087476113 143.64035497425357,150.10971451425576 144.01027557213092,150.4509852022311 147.65343297517393,152.01107071024308 148.471742176509,152.52297052612994 148.69593647826696,152.38890168149373 149.17795422696508,151.25540615002683 149.49182624934474,151.07258355464728 152.4399813170894,151.21884164729272 154.32321345160017,151.88918956561247 158.0,151.98669448857254 154.2447454459616,151.88918956561247 152.54086875286885,151.19446530760615 149.5366651097429,151.04820719316194 149.18916394206462,151.18227713640954 148.6847267631092,152.38890168149373 148.5277907519485,152.4620301558316 144.48108360578772,150.7678787750192 140.52405418024864,148.57398760854267 140.21018215781078,148.59836433870078 139.2685660905554,148.18395943210635 136.6903316207463,147.94019134961127 134.0,147.42827719399065 139.43671181687387,148.22052461313433 140.58010275568813,148.561799242103 144.6828584772884,150.80444337853987 147.6422232601326,152.02325881972502 148.37085474072956,152.54734666785225 148.67351704806788,152.4498420790478 149.16674451186555,151.32853513098962 149.5366651097429,151.1335244424845 152.6193367584492,151.279782480633 154.3568425968988,151.91356580180582 158.0,152.01107071024308 154.3344231666997,151.98669448857254 152.4960298925289,151.29197064458276 149.52545539464336,151.1335244424845 149.2115833722055,151.279782480633 148.6847267631092,152.4864063066634 148.28117702004965,152.49859438071144 143.80850070057204,150.4509852022311 140.62494161602808,148.63492942713492 140.22139187291032,148.65930614818353 139.34703409619397,148.24490139597037 134.04483886028174,147.46484254395182 139.5600186828524,148.23271300501074 140.17655301257037,148.58617597406555 140.53526389528997,148.54961087476113 144.67164876224706,150.816631577909 148.53900046704803,152.57172280600935 149.25642223254545,151.23102981578268 150.4558617467992,151.23102981578268 149.40214852872305,151.21884164729272 148.6847267631092,152.51078245385725 148.34843531058868,152.4620301558316 143.77487155533163,150.4509852022311 140.59131247078767,148.6227410652209 140.26623073330848,148.6471177881176 139.36945352639304,148.23271300501074 136.85847734694835,147.94019134961127" stroke="yellow" stroke-linecap="round" stroke-linejoin="round" stroke-width="0.5"><title>2025-01-17 12.3km</title><desc>1737088953000</desc></polyline><polyline fill="none" points="167.0936329587712,147.70935502290376 167.2509363295976,147.44058157101972 167.936329588003,147.8926093965565 171.12734082399402,148.52788963963394 172.92509363294812,149.4563717214187 173.62172284640837,150.00612837077642 179.12734082399402,152.54720182478195 179.34082397003658,152.4006025034614 179.8127340823412,151.28888671851018 180.10486891382607,151.0934194278234 183.23970037448453,151.28888671851018 184.95880149811273,151.92415380418242 188.655430711573,151.9852370481094 185.03745318349684,151.92415380418242 183.10486891382607,151.28888671851018 180.19475655432325,151.14228627234115 179.8576779026189,151.26445331993455 179.3295880149235,152.4861187901406 179.18352059926838,152.5349852196814 175.08239700377453,150.775784583544 171.16104868910043,148.564540347812 169.86891385773197,148.23468367944588 164.66666666668607,147.50166648514278 169.76779026217991,148.18581596843433 170.83520599250915,148.564540347812 171.1385767790489,148.52788963963394 175.5318352059694,150.9468188069004 178.2059925093199,151.99745369415905 179.00374531833222,152.51055200674455 179.30711610487197,152.43725234609155 179.79026217228966,151.2766700196662 180.12734082399402,151.10563614031707 183.12734082399402,151.28888671851018 184.936329588003,151.91193715264671 188.66666666668607,151.96080375328893 184.99250936327735,151.91193715264671 183.22846441942966,151.33775350476208 180.20599250937812,151.11785285193764 179.8576779026189,151.28888671851018 179.217228464433,152.55941842896573 175.26217228459427,150.86130171752302 171.19475655426504,148.62562484318914 170.64419475657633,148.60119104776822 170.0486891385517,148.25911752948014 166.0599250936648,147.68492109092767" stroke="#4DD2FF" stroke-linecap="round" stroke-linejoin="round" stroke-width="0.5"><title>2025-01-15 9.1km</title><desc>1736916504000</desc></polyline><polyline fill="none" points="13.425641025649384,174.01457714261778 13.582284382311627,174.28222333238227 14.130536130571272,174.61069760198006 16.87179487181129,175.06082793528913 18.35990675992798,175.54745392674522 20.12773892772384,176.7031848441984 25.710955710907,179.25792942593398 25.957109557115473,179.19710263842717 26.427039627043996,178.10221658962837 26.80745920742629,177.89540395610675 29.8955710955197,178.09005114782485 31.585081585042644,178.75914909981657 35.33333333331393,178.84430682430684 31.54032634035684,178.79564527289767 29.862004661990795,178.12654747044144 26.796270396211185,177.89540395610675 26.427039627043996,178.10221658962837 25.90116550109815,179.2700947807025 25.554312354302965,179.2700947807025 21.8843822843628,177.6399291648995 17.822843822883442,175.377134994691 17.587878787890077,175.4501288444735 16.1668997668894,174.9999995843682 11.33333333331393,174.31872050606762 15.383682983694598,174.80534870919655 17.800466200511437,175.34063805757614 21.414452214434277,177.33579198755615 25.778088578081224,179.31875619072525 26.035431235388387,179.1727719171031 26.561305361334234,177.94406577579502 27.702564102539327,177.96839668019675 26.59487179486314,177.99272758097504 25.867599067569245,179.30659083959472 21.604662004625425,177.56693629399524 17.889976689999457,175.40146628156072 16.580885780858807,175.0243309274665 13.056410256423987,174.53770337696187" stroke="#4DD2FF" stroke-linecap="round" stroke-linejoin="round" stroke-width="0.5"><title>2025-01-14 7.8km</title><desc>1736829619000</desc></polyline><polyline fill="none" points="45.281860465125646,174.64582200617588 45.09209302329691,174.3787990452547 45.53860465117032,174.42734870706045 49.28930232557468,175.62894822636736 51.59999999997672,176.76985269846045 52.62697674421361,177.4859482326283 56.34418604651,179.18514537927695 56.58976744185202,179.11232300792472 57.092093023238704,177.97143494003103 57.4158139534411,177.77724043067428 60.44093023252208,177.97143494003103 61.89209302328527,178.56615418501315 62.93023255816661,178.69966228856356 66.0,178.69966228856356 62.10418604651932,178.60256549683982 60.45209302328294,177.97143494003103 57.44930232560728,177.76510326613788 57.12558139534667,177.89861202613974 56.600930232554674,179.11232300792472 56.28837209305493,179.124460072082 52.548837209295016,177.51022260234458 49.133023255853914,175.6410855500144 47.413953488343395,174.9249819064571 42.0,174.16032538804575 47.48093023255933,174.94925665778283 49.133023255853914,175.5682615944388 52.124651162768714,177.25534153981425 56.310697674402036,179.14873419764626 56.57860465120757,179.075911810025 57.025116279080976,177.9835720891715 57.34883720934158,177.77724043067428 60.54139534884598,177.9835720891715 62.21581395348767,178.61470259896305 65.88837209303165,178.7117993834836 62.137674418627284,178.5782912898576 60.46325581392739,177.94716063902888 57.337674418638926,177.76510326613788 57.06976744183339,177.9228863343742 56.5451162790996,179.14873419764626 56.1209302325733,179.11232300792472 55.55162790697068,178.7239364774723 52.39255813951604,177.46167385928857 48.418604651174974,175.21627868364158 47.22418604651466,174.8885697726655 42.044651162810624,174.14818795405154 48.440930232580286,175.20414132832957 52.41488372092135,177.38885071752884 55.58511627907865,178.69966228856356 56.3218604651629,179.17300831965986 56.57860465120757,179.1001859428361 57.06976744183339,177.91074918072263 57.38232558139134,177.76510326613788 60.385116279067006,177.9228863343742 61.936744186037686,178.54187997263216 62.87441860465333,178.63897680053196 61.89209302328527,178.54187997263216 60.35162790695904,177.9228863343742 57.404651162796654,177.7286917671736 57.092093023238704,177.87433771429642 56.58976744185202,179.05163767356134 56.18790697673103,179.06377474222973 55.14976744184969,178.49333153695625 52.41488372092135,177.43739948231087 48.40744186041411,175.21627868364158 46.866976744204294,174.8278828649636" stroke="yellow" stroke-linecap="round" stroke-linejoin="round" stroke-width="0.5"><title>2025-01-10 13.0km</title><desc>1736482744000</desc></polyline><polyline fill="none" points="74.96573208726477,173.9657012650714 76.06479750783183,174.70954430822167 77.97133956389735,175.07536751549924 79.8442367601674,175.7948174377816 81.87414330220781,177.00202291383175 87.12274143309332,179.36763206827163 87.3694704050431,179.17253157589585 87.47040498448769,178.0994747110526 87.61619937699288,177.91656658919237 91.14890965737868,178.1482501756982 92.99937694711844,178.83110515467706 96.6105919003603,178.91646182672412 92.84236760128988,178.7945237101667 91.14890965737868,178.1604440395895 87.683489096642,177.90437270715483 87.45919003122253,178.1604440395895 87.3694704050431,179.22130672077765 87.12274143309332,179.36763206827163 83.10778816207312,177.66049487519194 79.16012461064383,175.45338397065643 77.92647975083673,175.07536751549924 72.66666666668607,174.34372028324287 78.21806853590533,175.09975570024108 78.76760124613065,175.40460770291975 79.14890965732047,175.40460770291975 83.17507788166404,177.61171926515817 86.95451713399962,179.3188569669437 87.33582554518944,179.22130672077765 87.44797507795738,178.11166857859644 87.64984423684655,177.9287604703277 91.14890965737868,178.1604440395895 93.08909657323966,178.83110515467706 96.66666666668607,178.87988040130585 92.78629283496412,178.78232989349635 91.13769470411353,178.11166857859644 87.69470404990716,177.9287604703277 87.50404984428314,178.05069923186966 87.49283489101799,178.91646182672412 87.2012461060076,179.35543829428207 83.02928348915884,177.62391316905268 79.18255451717414,175.4411899051047 77.84797507792246,175.07536751549924 72.66666666668607,174.3071378357854 76.59190031152684,174.8070972434507 79.10404984431807,175.380219563609 82.79376947047422,177.44100451574195 86.97694704058813,179.3188569669437 87.29096573218703,179.23350050470617 87.53769470413681,178.62381019431632 87.29096573218703,179.29446941087372 86.79750778822927,179.22130672077765 83.09657320880797,177.63610707198677 79.16012461064383,175.36802549258573 78.9021806854289,175.42899583859253 78.03862928354647,175.01439703772485 76.61433021817356,174.85587368924462" stroke="yellow" stroke-linecap="round" stroke-linejoin="round" stroke-width="0.5"><title>2025-01-08 12.0km</title><desc>1736310892000</desc></polyline><polyline fill="none" points="105.89153810188873,175.19052171132353 106.22814399248455,174.6537302101351 106.2730247778818,174.12913681555074 106.48620850860607,173.94613872436457 106.73305282840738,173.99493823533703 106.62085086479783,174.08033734456694 107.7092099111178,174.49513238437066 108.2702197288163,174.95872559712734 110.57035998126958,175.76391068920202 114.38522674143314,177.82565446702938 117.81860682554543,179.35059618231026 118.04301075258991,179.13100545048655 118.07667134166695,178.11844437784748 118.39083683962235,177.9110515784414 121.82421692373464,178.15504307992524 123.61944834032329,178.83821735002857 127.33333333331393,178.91141442423395 123.59700794762466,178.8138183180563 121.86909770913189,178.17944221005018 118.3459560542251,177.94765032682335 118.110331930744,178.19164177375205 118.07667134166695,179.13100545048655 117.88592800369952,179.387194608993 113.67835437116446,177.59386208301294 109.82982702192385,175.43451726646163 109.40345956047531,175.43451726646163 108.61804581579054,175.0563240009942 103.33333333331393,174.38533379961154 108.77512856473913,175.166122135779" stroke="#4DD2FF" stroke-linecap="round" stroke-linejoin="round" stroke-width="0.5"><title>2025-01-06 5.2km</title><desc>1736137119000</desc></polyline><polyline fill="none" points="137.10654205607716,174.825389009653 137.16261682246113,174.36201160062046 137.532710280444,173.81327349842468 137.80186915886588,174.76441837289894 137.42056074767606,175.02049489464844 138.12710280372994,174.98391255893512 140.4598130841041,175.5448408080556 143.62242990656523,177.03251076705055 144.21682242990937,177.55685023468686 148.47850467287935,179.44689716659195 148.7364485981525,179.28837793978164 148.7813084112713,178.26409615809098 148.99439252336742,178.0689941396413 152.68411214958178,178.32506549116806 154.45607476634905,178.9957266561978 158.0,179.05669571677572 154.31028037384385,178.97133902563655 152.56074766354868,178.2884838940663 149.03925233642804,178.0689941396413 148.82616822433192,178.25190228877182 148.74766355141765,179.28837793978164 148.52336448599817,179.50786605912435 144.49719626171282,177.8495040908747 141.20000000001164,175.9838267924788 139.5401869158959,175.31315328602795 134.0,174.44737069560506 137.76822429907043,174.91074786294485 140.437383177632,175.50825858955795 143.8242990654544,177.386135243607 147.7383177569718,179.09327714219398 148.3439252336393,179.5200598349038 148.72523364488734,179.2517965579318 148.82616822433192,178.19093292842444 148.98317757004406,178.03241248527775 151.47289719624678,178.32506549116806 152.56074766354868,178.26409615809098 154.36635514016962,178.95914520896622 157.98878504673485,179.02011428315018 154.06355140189407,178.89817611206672 152.49345794395776,178.2884838940663 149.0728971962817,178.03241248527775 148.82616822433192,178.21532067529915 148.79252336447826,179.21521516794746 148.54579439252848,179.4590909469407 144.55327102803858,177.8373101906618 141.22242990654195,175.91066254349425 139.84299065422965,175.3863178021129 134.1457943925634,174.50834145046247" stroke="#4DD2FF" stroke-linecap="round" stroke-linejoin="round" stroke-width="0.5"><title>2025-01-03 9.5km</title><desc>1735878536000</desc></polyline><polyline fill="none" points="167.0610460579046,174.33827911291155 168.46619828266557,174.72940490263863 170.0736924278317,174.87607683335955 170.84933645598358,175.26720134085917 171.1416081187199,175.23053345788503 174.48024980491027,177.07614005838695 178.96549570653588,179.14172812171455 179.30273224052507,179.08061642215762 179.76362217025599,177.96837951293855 180.10085870424518,177.77282059568097 183.1135050742305,177.9561570874357 184.90085870423354,178.62838913789892 188.66666666668607,178.73839048392256 185.18188914918574,178.64061151332862 183.24839968775632,178.01726920584042 180.12334113981342,177.83393278233416 179.76362217025599,178.0294916267885 179.16783762694104,179.19061746497755 174.80624512105715,177.3572571224213 171.13036690093577,175.3038692156406 170.83809523819946,175.32831446091586 169.93879781430587,174.90052214240131 168.66854020307073,174.8394088629575 164.66666666668607,174.14271586833638 170.02872755669523,174.888299488317 171.61373926629312,175.63387971972406 170.1298985168687,174.92496744779055 166.836221701873,174.423837959097" stroke="#4DD2FF" stroke-linecap="round" stroke-linejoin="round" stroke-width="0.5"><title>2025-01-02 5.6km</title><desc>1735817809000</desc></polyline><polyline fill="none" points="14.103426791261882,201.1018421446497 16.77258566976525,201.54083028773312 17.557632398733404,201.95542911950906 18.3090342679061,202.08956381080498 22.39127725857543,204.33325507600966 25.834267912781797,205.8209029797581 26.125856697792187,205.5160581992386 26.451090342656244,204.69907138787676 26.843613707169425,204.50396945662214 29.725856697827112,204.60152045132418 31.834267912781797,205.36973250296433 35.33333333331393,205.39412012808316 33.96510903420858,205.47947678744094 31.63239875389263,205.33315105845395 29.88286604359746,204.6502959268837 26.854828660434578,204.4795816988626 26.507165109040216,204.6137143215892 25.991277258610353,205.77212785299344 25.80062305298634,205.85748431523098 20.30529595015105,203.44309863513627 17.781931464152876,201.95542911950906 17.42305295955157,201.97981725339196 16.64922118379036,201.58960667540669 11.33333333331393,200.79698857471521 16.245482866070233,201.4798597827321 17.512772585672792,201.93104098200274 17.781931464152876,201.85787654769956 21.3819314641878,203.88208049867535 25.80062305298634,205.86967809194175 26.540809968835674,204.57713270811655 26.843613707169425,204.45519393747963 27.695950155728497,204.56493883511575 26.51838006230537,204.55274496124184 25.991277258610353,205.7477402841905 25.789408099662978,205.80870919940935 21.71838006231701,204.0893770805269 17.950155763246585,201.9920113189437 17.445482866023667,201.95542911950906 16.548286604345776,201.55302438602666 15.58380062301876,201.58960667540669 11.66978193144314,200.83357103311573 14.137071651115548,201.29694813137758" stroke="#4DD2FF" stroke-linecap="round" stroke-linejoin="round" stroke-width="0.5"><title>2024-12-31 8.0km</title><desc>1735619151000</desc></polyline><polyline fill="none" points="45.34205607481999,201.27256004931405 46.16074766358361,201.29694828309584 48.504672897281125,201.8456825829635 49.87289719632827,202.57732545425824 50.26542056078324,202.9797276393365 56.545794392586686,205.8209027944249 57.140186915930826,204.66248969447042 57.476635514060035,204.47958161348652 60.583177570137195,204.65029582876014 62.13084112148499,205.27218182162324 65.98878504679305,205.3697323512315 62.2766355141066,205.3331509094569 60.56074766360689,204.66248969447042 57.487850467383396,204.47958161348652 57.16261682251934,204.6259080946038 56.489719626202714,205.86967790298513 52.69906542060198,204.2478977507708 49.267289719660766,202.357832936279 47.27102803741582,201.56521861511283 42.0,200.79698876367183 46.239252336497884,201.34572473978915 48.47102803742746,201.85787665762473 52.69906542060198,204.15034655260388 56.38878504675813,205.85748412720568 56.66915887850337,205.74774010432884 57.140186915930826,204.65029582876014 57.52149532712065,204.44299997274356 60.51588785054628,204.6259080946038 62.332710280432366,205.29656945948955 66.0,205.30876327704755 62.46728971967241,205.32095709371788 60.50467289722292,204.65029582876014 57.465420560736675,204.45519385387888 57.140186915930826,204.6259080946038 56.64672897203127,205.73554631945444 56.46728971967241,205.8209027944249 52.407476635533385,204.11376483828644 48.56074766360689,201.95542922214372 46.878504672960844,201.54083042127604 42.17943925235886,200.8579595185438 47.12523364491062,201.52863632299704 48.157009345828556,201.94323515475844 48.59439252340235,201.89445887613692 52.16074766358361,203.86988653393928 48.538317757018376,201.91884701726667 45.15140186919598,201.2847541666415" stroke="yellow" stroke-linecap="round" stroke-linejoin="round" stroke-width="0.5"><title>2024-12-30 10.8km</title><desc>1735533491000</desc></polyline><polyline fill="none" points="76.0360696517746,201.22771914106852 78.23009950254345,201.592859896773 78.84577114431886,201.9458285181463 79.15920398017624,201.909314558201 79.79726368165575,202.17708340827085 82.53980099508772,203.73500255805266 86.99502487567952,205.77974889668985 87.31965174135985,205.7919199292228 87.78980099502951,204.63566778933455 88.15920398017624,204.4287586484861 91.10323383082869,204.62349667063972 92.86069651745493,205.30507792031858 96.66666666668607,205.36593325078138 93.00621890556067,205.30507792031858 91.21517412940739,204.64783890712715 88.11442786070984,204.45310091396095 87.81218905479182,204.63566778933455 87.42039800999919,205.6215253911214 87.11815920402296,205.84060405033233 82.93159203982214,204.07579539164726 79.95398009958444,202.37182411451067 78.25248756224755,201.67805928901362 72.66666666668607,200.80172056119773 78.06218905479182,201.580688551403 80.21144278609427,202.37182411451067 82.47263681597542,203.73500255805266 87.0845771144377,205.8649461054447 87.3084577114787,205.8040909608535 87.82338308461476,204.64783890712715 88.13681592041394,204.5017854339967 91.19278606970329,204.6721811399475 92.87189054733608,205.31724898821267 96.63308457715902,205.35376218646707 95.4912935323664,205.45113067531202 92.92786069656722,205.31724898821267 91.18159203982214,204.62349667063972 88.14800995029509,204.45310091396095 87.83457711449591,204.58698330917105 87.31965174135985,205.76757786321105 86.98383084579837,205.81626199159655 83.3569651741418,204.2340203941858 82.17039800994098,203.50374987324176 78.23009950254345,201.62937392746971 73.23756218905328,200.92343455452647" stroke="#4DD2FF" stroke-linecap="round" stroke-linejoin="round" stroke-width="0.5"><title>2024-12-27 9.1km</title><desc>1735273142000</desc></polyline><polyline fill="none" points="122.63426791271195,204.77833147179626 121.75950155762257,204.53445422122604 120.82866043609101,204.64419902894588 118.64174454828026,204.4369032192917 117.86791277257726,205.82699950879032 113.79688473517308,204.16863766407187 109.75950155756436,201.9493330246769 109.43426791275851,201.98591521321214 108.55950155761093,201.59570478061505 103.33333333331393,200.7665045222675 106.98940809967462,201.3518227878085 107.34828660439234,201.29085223282163 109.91651090345113,201.93713896001282 112.7763239875203,203.37603231877438 113.20249221182894,203.76623850688338 117.62118380062748,205.7904181787162 117.94641744543333,205.76603062082722 118.39501557627227,204.64419902894588 118.75389408099,204.42470933993172 121.8492211837438,204.61981130027561 123.74454828660237,205.3270539570367 127.33333333331393,205.42460442851007 123.37445482861949,205.25389106529474 121.98380062304204,204.6563928919204 118.74267912766663,204.4369032192917 118.50716510904022,204.51006647618487 118.0024922118755,205.8026119563001 117.77819314639783,205.90016214437492 116.81370716512902,205.3270539570367 113.66230529593304,204.08328034976148 109.97258566977689,201.92494489446108 107.43800623051357,201.3518227878085 104.78006230527535,200.99819325268618" stroke="#4DD2FF" stroke-linecap="round" stroke-linejoin="round" stroke-width="0.5"><title>2024-12-25 6.6km</title><desc>1735101299000</desc></polyline><polyline fill="none" points="136.49204864358762,200.9776990821847 136.40224508882966,201.19739880764973 136.54817586526042,201.1485766718979 136.7614593077451,200.7946157525148 137.44621141254902,201.27063198399264 138.20954162767157,201.30724855988228 140.55565949488664,201.90531814098358 144.7090739008272,204.17552157482714 148.52572497661458,205.82323017148883 148.68288119742647,205.81102498354448 149.1543498596875,204.6515279826417 149.50233863428002,204.46844875869283 152.51075771747855,204.63932270740042 154.4527595884283,205.37163761195552 158.0,205.4326637062768 154.2843779233517,205.3350219444692 152.39850327413296,204.62711743128602 149.40130963525735,204.48065404663794 149.1543498596875,204.6027068762487 148.6492048643995,205.7499990301585 148.44714686623774,205.78661460492003 144.3049579046201,204.07787906379963 141.19550982228247,202.27148211297754 139.43311506079044,201.5635643620044 134.0,200.806821314196 135.84097287181066,201.08754898174084 136.71655753039522,201.063137899313 139.8035547240288,201.6734138687316 141.2067352666054,202.22266029733873 145.05706267536152,204.34639582906675 148.34611786715686,205.81102498354448 148.69410664174939,205.77440941425448 149.25537885876838,204.52947518939618 150.4003741814522,204.52947518939618 149.28905519179534,204.49285933369538 148.63797942001838,205.87205091415672 144.5968194574234,204.1999321934709 142.41908325534314,202.91836979678192 139.54536950419424,201.64900287358614 134.03367633296875,200.81902687497495 138.64733395696385,201.4781258058647" stroke="#4DD2FF" stroke-linecap="round" stroke-linejoin="round" stroke-width="0.5"><title>2024-12-18 8.3km</title><desc>1734495982000</desc></polyline><polyline fill="none" points="167.1965174130164,199.98014667951793 166.78233830851968,200.07751889714564 166.92786069656722,199.95580361601606 166.78233830851968,200.05317584818113 166.69278606964508,199.91928901398205 166.7375621891115,200.04100432233827 167.64427860698197,200.6739224637713 169.625621890591,201.55026661105512 170.09577114431886,202.2927211682254 170.62189054727787,202.7065468338551 171.20398009952623,202.79174610547489 175.3121890547336,205.00691157142865 179.02860696526477,206.67435147649667 179.29726368159754,206.68652250811283 179.82338308467297,205.51809933659388 180.1480099502951,205.33553246123483 183.25995024881558,205.53027045438648 185.2189054727205,206.21185160249297 188.66666666668607,206.27270692386082 184.91666666668607,206.21185160249297 183.25995024881558,205.54244157124776 180.09203980112216,205.34770359257527 179.76741293538362,205.53027045438648 179.20771144283935,206.7352066255844 173.71144278615247,204.43486622345517 173.3308457711828,204.05755862106162 171.95398009958444,203.27859823372273 170.29726368165575,202.62134751780832 164.66666666668607,201.70849491437548 170.0174129353254,202.4144347081019 170.95771144283935,202.82826006542018 171.15920398017624,202.76740346095175 175.3569651742,205.05559618938423 178.2450248756213,206.19968053548655 179.03980099508772,206.68652250811283 179.34203980106395,206.6134963046934 179.90174129355,205.44507261092076 181.06592039804673,205.40855923587515 179.9689054726623,205.4815859778464 179.38681592047215,206.74737765270402 178.88308457715902,206.7108645686967 175.08830845775083,205.079938492956 174.04726368165575,204.3983526226075 170.2636815920705,202.56049083627295 164.75621890550246,201.79369470651727 170.09577114431886,202.4387774052011" stroke="#4DD2FF" stroke-linecap="round" stroke-linejoin="round" stroke-width="0.5"><title>2024-12-17 8.6km</title><desc>1734409492000</desc></polyline><polyline fill="none" points="14.292698116099928,227.79392928698508 16.691577144607436,228.17177011044987 17.565934921323787,228.58617517142557 17.85738751362078,228.50085656822193 22.01619181066053,230.79225503306952 25.793865794781595,232.42546626421972 25.99564066628227,232.4010900970461 26.511287560279015,231.19446528225671 26.791530437476467,231.03601893849554 30.042347812501248,231.2675943122158 31.667756500071846,231.88918974729313 35.33333333331393,231.95013034911244 34.97462245047791,232.0720114846481 31.656546784972306,231.95013034911244 29.739685505162925,231.24321797252924 26.858788728015497,231.12133621957037 26.421609839599114,231.3894759562245 25.939592090900987,232.42546626421972 25.749026934441645,232.4864066662849 22.352483263239264,231.04820712421497 17.79012922308175,228.6105519070261 17.19601432350464,228.53742168932513 16.568270278687123,228.17177011044987 11.33333333331393,227.45265295438003 16.646738284267485,228.15958171040984 17.397789195005316,228.56179843221616 17.8349680834217,228.52523331654083 21.98256266542012,230.78006682827254 25.715397789143026,232.4132781810913 26.02926981158089,232.3889020120696 26.410400124499574,231.3529114725534 26.791530437476467,231.06039530904673 30.075976957799867,231.2675943122158 31.634127354773227,231.88918974729313 35.2660750427749,231.98669469928427 31.83590222633211,231.95013034911244 29.874202086240984,231.24321797252924 26.780320722376928,231.09695985808503 26.500077845237684,231.23102980133262 25.917172660760116,232.4864066662849 21.90409465978155,230.84100784320617 17.80133893818129,228.6105519070261 16.803674295486417,228.25708888529334 11.467849914333783,227.47702985891374 16.624318854068406,228.17177011044987 17.408998910163064,228.56179843221616 17.89101665886119,228.5739868022647 22.453370699018706,230.9994543758221 25.715397789143026,232.4498424277699 26.02926981158089,232.4010900970461 26.410400124499574,231.15790075500263 27.710727074590977,231.18227710740757 26.522497275378555,231.20665345615998 25.96201152104186,232.54734704563452 21.870465514541138,230.8288196420326 17.84617779846303,228.59836353968421 17.487466915743425,228.6105519070261 16.601899423869327,228.18395850957313 11.467849914333783,227.52578365702357 16.523431418288965,228.15958171040984" stroke="yellow" stroke-linecap="round" stroke-linejoin="round" stroke-width="0.5"><title>2024-12-15 13.0km</title><desc>1734235831000</desc></polyline><polyline fill="none" points="44.37313432834344,227.5475011482922 44.37313432834344,227.68138647612068 45.38059701491147,227.98567090395954 46.735074626863934,228.2656120770116 47.440298507455736,228.21692669006006 48.12313432834344,228.6064093793102 48.51492537307786,228.6185806983849 53.14925373136066,231.08933969463396 56.47388059704099,232.50118520166143 56.686567164200824,232.4890141718497 57.13432835822459,231.40578888636082 57.47014925372787,231.18670874198142 60.55970149260247,231.3449333201861 62.339552238816395,232.02651436672022 66.0,232.09954073879635 62.2723880597041,232.02651436672022 60.64925373136066,231.35710443521384 57.41417910455493,231.13802422555455 57.10074626863934,231.28407773132494 56.563432835799176,232.52552725856367 52.65671641792869,230.93111486891576 49.01865671639098,228.89852078683907 47.361940298520494,228.25344073162705 42.0,227.47447274143633 44.8432835820131,227.7665861730493 47.361940298520494,228.18041264035855 48.49253731343197,228.54555277034524 51.92910447757458,230.41992592318275 55.36567164177541,231.9291458198859 56.216417910472956,232.46467210947594 56.67537313431967,232.41598797385814 57.089552238816395,231.40578888636082 57.436567164200824,231.16236648561608 60.50373134331312,231.29624885087833 62.17164179106476,231.99000116845127 63.44776119402377,232.00217223547224 62.08208955224836,231.9534879620187 60.48134328360902,231.32059108736576 57.559701492544264,231.13802422555455 57.10074626863934,231.27190661082568 56.541044776153285,232.4768431410921 52.44402985071065,230.80940336023923 48.51492537307786,228.64292333379854 47.33955223875819,228.25344073162705 45.57089552236721,228.0343563598144" stroke="#4DD2FF" stroke-linecap="round" stroke-linejoin="round" stroke-width="0.5"><title>2024-12-13 8.5km</title><desc>1734064159000</desc></polyline><polyline fill="none" points="75.26279326085933,227.81822454050416 77.73421508423053,228.17569573959918 79.43473468744196,228.70573782004067 82.97181546216598,230.7026252920914 86.9283577389433,232.45296362580848 87.24578806484351,232.46528988644422 87.75594394584186,231.29429102581344 88.07337427180028,231.1340484318498 91.19099354435457,231.29429102581344 92.75547157926485,231.93525984982261 96.66666666668607,232.00921763129008 93.12958589202026,231.98456504112983 91.07762557076057,231.28196467793896 87.99401669035433,231.1217220720282 87.66524956701323,231.2326592772879 87.29113525425782,232.29272215394303 87.01905211783014,232.53924743099196 86.21413950558053,232.08317537968105 82.9604786647833,230.81356277834857 79.67280743189622,228.9276153959945 77.92694063927047,228.32361463054258 79.66147063451353,228.87830929372285 81.74744134786306,230.1356103119033 86.23681310028769,232.07084909055266 86.89434734685346,232.50226866285084 87.22311447013635,232.42831110177212 87.7332703511347,231.08474298710644 87.2004408754292,232.39133230883454 86.91702094161883,232.46528988644422 83.08518343564356,230.83821554294263 79.00393638800597,228.54549271898577 78.6071484805434,228.55781927073258 77.60951031337027,228.1510425782617 72.66666666668607,227.46075256899348" stroke="#4DD2FF" stroke-linecap="round" stroke-linejoin="round" stroke-width="0.5"><title>2024-12-11 6.6km</title><desc>1733890893000</desc></polyline><polyline fill="none" points="106.24344569287496,227.93536824117473 108.81647940078983,228.22857479119557 109.37827715353342,228.5584315332817 109.83895131089957,228.54621462873183 114.06367041199701,230.87962688047264 117.83895131089957,232.5166606838029 118.45692883897573,231.24612840544432 118.78277153556701,231.09952789376257 122.00749063672265,231.2949952135823 123.65917602996342,231.94247904629447 127.29962546820752,232.0279955878068 123.79400749068009,231.94247904629447 122.04119850188727,231.35607870323292 118.5468164794147,231.2094782898057 117.92883895128034,232.55331050731183 113.9850187266129,230.90406034096668 112.85018726595445,230.13440458693367 109.80524344573496,228.61951604232308 109.55805243452778,228.68060052861983 108.59176029963419,228.2896594231279 103.44569288392086,227.5566423380369 107.71535580523778,228.04532075887255 109.80524344573496,228.5339977232943 112.74906367040239,229.98780308134155 113.97378277155804,230.80632647719176 117.7490636704606,232.4922274635901 117.9850187266129,232.40671116417798 118.47940074908547,231.31942861215794 118.78277153556701,231.09952789376257 120.74906367040239,231.2949952135823 121.74906367040239,231.2094782898057 123.71535580523778,231.95469569783018 127.33333333331393,232.01577894175716 123.52434456930496,231.93026239388564 121.98501872667111,231.31942861215794 118.76029962551547,231.1117446080898 118.47940074908547,231.2216949959402 118.08614232210675,232.32119482014969 117.87265917606419,232.50444407416217 114.36704119853675,231.03844430853496 112.2659176029847,229.78011739076464 109.78277153562522,228.5584315332817 107.9850187266129,228.1064054590679 103.33333333331393,227.4466894926736 109.07490636705188,228.27744249856914 117.56928838952444,232.43114439710916 117.9850187266129,232.3578446872998 118.47940074908547,231.08731117851858 118.00749063672265,232.40671116417798 117.77153558051214,232.45557762644603 114.1086142322165,230.90406034096668 109.81647940078983,228.52178081692546 105.89513108617393,227.86206652173132" stroke="yellow" stroke-linecap="round" stroke-linejoin="round" stroke-width="0.5"><title>2024-12-09 12.1km</title><desc>1733738831000</desc></polyline><polyline fill="none" points="143.98680490104016,230.4611710250756 148.49952874646988,232.5025203214609 149.01979264843976,231.3219840474776 149.42695570213255,231.1006325561757 152.34495758713456,231.22360564353585 154.12064090481726,231.92455049220007 158.0,232.05982020810188 154.4938737040502,231.9860367404326 152.5372290291707,231.30968675017357 149.4608859566506,231.14982180212974 149.0763430725783,231.27279485286272 148.52214891614858,232.5271147374151 144.94816211122088,231.0391459781822 140.40150801133132,228.57966407538333 139.99434495758032,228.59196157607948 139.47408105561044,228.24763121081924 136.2507068803534,227.81721724411182 135.8435438266024,227.6204561997729 135.65127238456625,227.78032456614892 134.23751178139355,227.5589683253056 137.58529688976705,227.9033001272328 140.40150801133132,228.53047406351834 143.36475023563253,229.99387064728944 144.201696512755,230.60873929059017 148.32987747411244,232.5025203214609 148.60131950984942,232.3918454044324 149.0763430725783,231.24820025004738 149.33647502353415,231.05144329559698 150.34307257301407,231.22360564353585 152.5146088595502,231.23590294724272 154.32422243169276,231.93684774369467 157.92082940618275,232.01063123330823 154.23374175309436,231.89995598648966 152.5146088595502,231.2604975518916 149.4156456173514,231.12522718102264 148.95193213952007,231.51874067942845 148.51083883130923,232.5271147374151 144.30348727619275,230.7071180609637 140.39019792649196,228.57966407538333 140.13006597547792,228.62885407258 138.6710650329478,228.14925097452942 134.0,227.47288526257034 138.88595664472086,228.14925097452942 140.02827521204017,228.56736657379952 140.45805843546987,228.55506907131348 141.91705937799998,229.35440482855483" stroke="#4DD2FF" stroke-linecap="round" stroke-linejoin="round" stroke-width="0.5"><title>2024-12-06 9.2km</title><desc>1733479157000</desc></polyline><polyline fill="none" points="167.1014492753893,227.8345657235186 170.15334268350853,228.200559901612 170.80411407200154,228.60315255263413 171.1631603553542,228.52995396241022 175.34829359519063,230.87229261911125 179.0060776064056,232.49483048330876 179.37634408607846,232.3850351951114 179.76905095839174,231.33587650646223 180.19541841984028,231.16508259538386 183.22487143526087,231.311477387193 184.9303412809968,231.958052818969 188.66666666668607,232.0800478971796 184.97522206645226,231.958052818969 183.20243104256224,231.34807606470713 180.1393174380646,231.15288302347471 179.74661056569312,231.39687428865 179.18560074805282,232.51922942625242 175.04534829361364,230.76249624307093 174.10285179992206,230.1159160907555 171.1743805516744,228.62755207542796 170.848994857457,228.65195159456925 170.02992052363697,228.26155885175103 164.66666666668607,227.48077057374758 170.02992052363697,228.24935906352766 171.71294997667428,228.95694527728483 171.21926133712986,228.62755207542796 167.11266947170952,227.8467655426648" stroke="#4DD2FF" stroke-linecap="round" stroke-linejoin="round" stroke-width="0.5"><title>2024-12-03 5.6km</title><desc>1733220329000</desc></polyline><polyline fill="none" points="14.466200466209557,254.6228619456815 16.737529137462843,254.86617568467045 17.509557109500747,255.3163051459851 18.494172494101804,255.4379615441576 19.55710955709219,256.1314012828807 21.011655011563562,256.678851628094 21.94032634026371,257.3966170777567 25.93473193468526,259.1484381490591 26.438228438200895,258.06571762173553 26.841025641013402,257.79807773315406 29.895571095577907,257.96839407664083 31.775291375292,258.66182306986593 34.40466200467199,258.63749227784865 35.33333333331393,258.7104846430593 35.053613053576555,258.7834769756155 31.663403263373766,258.6861538582598 29.895571095577907,258.01705585645686 26.829836829798296,257.84673956369807 26.49417249416001,258.0048904128489 25.979487179487478,259.16060350746557 25.733333333279006,259.18493422155734 21.59347319341032,257.4087825666793 19.35571095562773,256.1314012828807 16.636829836759716,254.9148383889551 11.33333333331393,254.1727305726963 16.82703962700907,254.8905070386245 18.41585081582889,255.6204459714354 16.61445221438771,254.95133540766255 11.355710955627728,254.1483991117857 14.600466200441588,254.59853055182612" stroke="#4DD2FF" stroke-linecap="round" stroke-linejoin="round" stroke-width="0.5"><title>2024-12-02 6.1km</title><desc>1733112856000</desc></polyline><polyline fill="none" points="42.0,253.36127771882457 42.71111111110076,253.65767278138082 44.346666666679084,255.8484031441185 44.20444444444729,255.70665084265056 44.51259259262588,255.69376426402596 44.91555555554805,255.20407356496435 46.38518518517958,255.42314589118178 46.93037037033355,255.78397029421467 48.0207407407579,256.0030418859096 49.194074074039236,256.73757402157935 50.61629629629897,257.27880623081 51.36296296294313,257.93601449375274 55.62962962966412,259.8818517683976 55.97333333338611,259.8818517683976 56.49481481476687,258.6834247777733 56.838518518488854,258.51590206386754 60.12148148147389,258.6834247777733 62.14814814814599,259.405059229015 66.0,259.44371813253383 62.17185185186099,259.43083183231647 60.13333333330229,258.70919748856977 56.87407407409046,258.5416747996496 56.51851851854008,258.6963111336372 55.87851851852611,259.9720556145039 51.80148148146691,258.2581744949275 49.04000000003725,256.6989145132684 46.27851851854939,255.43603248996078 42.92444444447756,255.0365474811988" stroke="#4DD2FF" stroke-linecap="round" stroke-linejoin="round" stroke-width="0.5"><title>2024-11-29 4.6km</title><desc>1732853630000</desc></polyline><polyline fill="none" points="74.6992025518557,255.89257191658544 74.52695374807809,255.99245785779203 75.26188197772717,256.0049435962428 74.63030303036794,255.9300291515392 75.20446570974309,255.97997211838083 75.13556618819712,256.1547723852418 76.05422647530213,254.96862413812778 78.21307814994361,254.81879428862885 78.90207336528692,255.19336866120284 79.8781499202596,255.39314131755964 83.70207336527528,257.57813920013723 87.53748006379465,259.23871853909804 88.11164274328621,258.0276209459553 88.45614035089966,257.8653082323435 91.71738437010208,258.0276209459553 93.37097288679797,258.7018413044716 96.66666666668607,258.7392979115393 93.43987240834394,258.6768702284462 91.47623604466207,257.99016417984967 88.41020733659388,257.8153658273077 88.13460925041,257.9776785892609 87.53748006379465,259.2262330415251 83.47240829351358,257.57813920013723 79.26953748014057,255.23082605240052 78.0063795853639,254.84376593949855 72.66666666668607,254.09461479423044 78.12121212127386,254.81879428862885 78.82169059017906,255.18088286225975 79.55661881982815,255.28076922764012 82.51929824566469,256.85397162951995 78.08676236047177,254.86873758665752 75.20446570974309,254.48167663744243" stroke="#4DD2FF" stroke-linecap="round" stroke-linejoin="round" stroke-width="0.5"><title>2024-11-28 6.3km</title><desc>1732767063000</desc></polyline><polyline fill="none" points="103.49440715881065,253.79883738211356 107.03803131991299,254.39722182210244 107.84340044739656,254.82046824906138 108.21923937357496,254.7912788696849 111.91051454137778,256.60101216757903 113.18568232655525,257.44749458417937 117.8568232661928,259.4907129340718 118.5145413869759,258.0750567733339 118.99776286352426,257.8123565666756 122.55480984330643,258.0020845290419 124.19239373598248,258.6880225522764 125.61521252786042,258.9215328207356 127.33333333331393,258.87774966658617 124.74272930645384,258.83396650268696 122.7964205815806,258.0750567733339 119.13199105142849,257.88532888168993 118.58165548089892,258.10424566343136 117.8568232661928,259.5344959512295 112.76957494404633,257.38911660386657 108.21923937357496,254.7912788696849 107.88366890378529,254.8642523100134 106.7293064876576,254.35343765675498 103.33333333331393,253.90100070860353" stroke="#4DD2FF" stroke-linecap="round" stroke-linejoin="round" stroke-width="0.5"><title>2024-11-25 4.0km</title><desc>1732507947000</desc></polyline><polyline fill="none" points="134.0,252.56182573272963 138.8924558587605,253.19012618499983 140.22150882834103,253.96502814197447 140.95345104346052,253.88125506043434 142.30176565016154,254.32106346002547 143.70786516857333,255.32633721805178 146.36597110761795,256.4782089794753 148.42696629220154,257.9023348139017 153.08828250400256,259.72436764114536 154.64847512042616,260.66679378018307 155.05296950251795,260.4992515863414 155.9197431781795,258.4677945412841 158.0,258.4259086745442 155.99678972712718,258.5306233297015 154.87961476726923,260.77150760059885 148.7351524879923,258.21647924730496 140.91492776887026,254.02785793672956 140.39486356347334,254.13257423018513 142.24398073845077,254.48860933602555 143.14927768858615,255.32633721805178 144.7479935794836,255.76614335668273 148.3884430177277,257.9442207586253 154.22471910121385,260.54113714414416 155.05296950251795,260.624908241065 155.9197431781795,258.4468516087509 154.99518459080718,260.77150760059885 148.83146067417692,258.1745933431812" stroke="#4DD2FF" stroke-linecap="round" stroke-linejoin="round" stroke-width="0.5"><title>2024-11-20 4.0km</title><desc>1732095798000</desc></polyline><polyline fill="none" points="166.06868472293718,254.0543905191298 169.6119667197927,254.5671519151947 170.46592317224713,254.9967617263319 171.05222163209692,255.05219517803926 174.32784563634777,256.67361633280234 175.1945477075642,257.3388106666971 179.8594441494206,259.4036695926625 180.07611966721015,259.37595351727214 180.59869003359927,258.1564421099174 180.98105859442148,257.8654211606772 184.5243405912188,258.0594351774489 186.38520092051476,258.80777306080563 188.66666666668607,258.89092152865487 186.34696406440344,258.82163114137074 184.320410692133,258.04557704008766 181.05753230658593,257.8792793114553 180.52221632143483,258.2395908689068 180.02513719239505,259.4313856640074 175.28376703843242,257.477392520188 171.6385200920049,255.44022887764731 169.58647548244335,254.62258549498802 164.66666666668607,253.90194766933564" stroke="#4DD2FF" stroke-linecap="round" stroke-linejoin="round" stroke-width="0.5"><title>2024-11-19 4.1km</title><desc>1731989484000</desc></polyline></svg>