<?xml version="1.0" encoding="utf-8" ?>
<svg baseProfile="full" height="300mm" version="1.1" viewBox="0,0,200,300" width="200mm" xmlns="http://www.w3.org/2000/svg" xmlns:ev="http://www.w3.org/2001/xml-events" xmlns:xlink="http://www.w3.org/1999/xlink"><defs /><rect fill="#222222" height="300" width="200" x="0" y="0" /><text fill="#FFFFFF" style="font-size:12px; font-family:Arial; font-weight:bold;" x="10" y="20">Over 4km Runs</text><text fill="#FFFFFF" style="font-size:4px; font-family:Arial" x="10" y="280">ATHLETE</text><text fill="#FFFFFF" style="font-size:9px; font-family:Arial" x="10" y="290">Fake David</text><text fill="#FFFFFF" style="font-size:4px; font-family:Arial" x="65" y="280">SPECIAL TRACKS</text><rect fill="yellow" height="2.6" width="2.6" x="65" y="283" /><text fill="#FFFFFF" style="font-size:3px; font-family:Arial" x="70" y="285.5">Over 10.0 km</text><rect fill="red" height="2.6" width="2.6" x="65" y="287" /><text fill="#FFFFFF" style="font-size:3px; font-family:Arial" x="70" y="289.5">Over 15.0 km</text><text fill="#FFFFFF" style="font-size:4px; font-family:Arial" x="120" y="280">STATISTICS</text><text fill="#FFFFFF" style="font-size:3px; font-family:Arial" x="120" y="285">Number: 10</text><text fill="#FFFFFF" style="font-size:3px; font-family:Arial" x="120" y="290">Weekly: 2.5</text><text fill="#FFFFFF" style="font-size:3px; font-family:Arial" x="141" y="285">Total: 62.5 km</text><text fill="#FFFFFF" style="font-size:3px; font-family:Arial" x="141" y="290">Avg: 6.2 km</text><text fill="#FFFFFF" style="font-size:3px; font-family:Arial" x="167" y="285">Min: 4.0 km</text><text fill="#FFFFFF" style="font-size:3px; font-family:Arial" x="167" y="290">Max: 12.1 km</text><polyline fill="none" points="18.841284836875275,55.091005216148915 24.401983939576894,55.89531541411998 28.228153046686202,57.087910095084226 36.18658478977159,61.58090690721292 45.08880491263699,65.5191681580909 45.80302314599976,65.54690224450314 46.9508738782024,62.91215480808751 47.66509211144876,62.55160897166934 54.679735474754125,62.91215480808751 58.19981105334591,64.35433466211543 67.0,64.52073967040633 59.04156825703103,64.46527134254575 54.424657534225844,62.88442052536993 47.486537553253584,62.52387466208893 46.746811525779776,62.77348337392323 45.90505432209466,65.15862484640093 45.29286726505961,65.71330671972828 43.481813887599856,64.68714460430783 36.16107699566055,61.83051625129883 28.763816721737385,57.58713464101311 24.83561643830035,56.22813291873899 28.73830892762635,57.47619591088733 33.43174303264823,60.305123201804236 43.53282947570551,64.65941045375075 45.01228153053671,65.63010449142894 45.75200755777769,65.4636999790091 46.89985828998033,62.440671721007675 45.70099196978845,65.38049769488862 45.06329711864237,65.54690224450314 36.44166273018345,61.88598497165367 27.25885687302798,56.72735861776164 26.366084081237204,56.75509335915558 24.121398205053993,55.83984580109245 13.0,54.28669328027172" stroke="#4DD2FF" stroke-linecap="round" stroke-linejoin="round" stroke-width="0.5"><title>2024-12-11 6.6km</title><desc>1733890893000</desc></polyline><polyline fill="none" points="79.5477528088959,55.3545785426395 85.33707865164615,56.01429328019731 86.60112359537743,56.756470949883806 87.63764044945128,56.72898291464662 97.14325842692051,61.97916048107436 105.63764044933487,65.66248653855291 107.02808988769539,62.80378891224973 107.76123595493846,62.47393776095123 115.0168539325241,62.91373923057108 118.73314606735948,64.37057785419165 126.92415730340872,64.56299007256166 119.03651685395744,64.37057785419165 115.0926966292318,63.051177082263166 107.23033707856666,62.72132615206647 105.83988764032256,65.74494864145527 96.96629213483538,62.03413576717139 94.41292134835385,60.30241032061167 87.56179775274359,56.89391109524877 87.00561797758564,57.03135118942009 84.83146067417692,56.15173370204866 73.2528089886764,54.50244526058668 82.8595505617559,55.60197170745232 87.56179775274359,56.701494877401274 94.18539325834718,59.97255693303305 96.94101123593282,61.8142345736851 105.43539325846359,65.60751179308863 105.96629213483538,65.41510011939681 107.0786516853841,62.96871437734808 107.76123595493846,62.47393776095123 112.18539325834718,62.91373923057108 114.43539325834718,62.72132615206647 118.8595505617559,64.39806532012881 127.0,64.53550261896453 118.42977528087795,64.34309038624633 114.96629213483538,62.96871437734808 107.71067415724974,62.50142536821659 107.0786516853841,62.748813740879996 106.19382022460923,65.22268834535498 105.71348314604256,65.63499916688306 97.82584269659128,62.33649969421094 93.09831460670102,59.505264129227726 87.51123595505487,56.756470949883806 83.46629213483538,55.73941228291369 73.0,54.25505135851563 85.91853932582308,56.124245621816954 105.0308988763718,65.47007489352836 105.96629213483538,65.30515054645366 107.0786516853841,62.44645015167771 106.0168539325241,65.41510011939681 105.4859550561523,65.52504965953995 97.24438202241436,62.03413576717139 87.58707865176257,56.674006838089554 78.76404494373128,55.18964967390639" stroke="yellow" stroke-linecap="round" stroke-linejoin="round" stroke-width="0.5"><title>2024-12-09 12.1km</title><desc>1733738831000</desc></polyline><polyline fill="none" points="155.47031102736946,61.03763480644557 165.6239396794699,65.63067072330159 166.7945334588876,62.97446410683915 167.71065032982733,62.47642325141351 174.2761545710964,62.75311269797385 178.27144203567877,64.33023860747926 187.0,64.63459546823287 179.1112158340402,64.46858266598429 174.70876531559043,62.94679518791963 167.78699340252206,62.58709905479918 166.92177191318478,62.863788418937474 165.6748350613052,65.68600815918762 157.63336475018878,62.33807845090632 147.40339302551,56.804244169645244 146.48727615445387,56.83191354619339 145.3166823751526,56.05717022437602 138.06409048067871,55.08873879926978 137.14797360973898,54.64602644951083 136.71536286524497,55.00573027387145 133.53440150804818,54.50767873195582 141.06691800185945,55.282425286306534 147.40339302551,56.69356664293446 154.07068803021684,59.986208956397604 155.95381715369876,61.36966340383515 165.24222431669477,65.63067072330159 165.85296889720485,65.3816521599947 166.92177191318478,62.80845056261751 167.50706880295184,62.3657474151114 169.7719132892089,62.75311269797385 174.65786993398797,62.78078163129976 178.72950047126506,64.35790742334211 186.82186616386753,64.5239202749799 178.52591894438956,64.27490096964175 174.65786993398797,62.836119491781574 167.6852026389679,62.5317611572973 166.6418473138474,63.41716652872856 165.64938737032935,65.68600815918762 156.1828463714337,61.59101563721197 147.37794533453416,56.804244169645244 146.79264844488353,56.914921663323184 143.50989632413257,55.8358146926912 133.0,54.31399184081238 143.9934024505783,55.8358146926912 146.56361922703218,56.77657479105983 147.53063147969078,56.74890541046625 150.81338360044174,58.54741086426657" stroke="#4DD2FF" stroke-linecap="round" stroke-linejoin="round" stroke-width="0.5"><title>2024-12-06 9.2km</title><desc>1733479157000</desc></polyline><polyline fill="none" points="18.478260869393125,115.12777287789504 25.345021037734114,115.9512597786088 26.80925666191615,116.85709324339405 27.61711079941597,116.69239641542663 37.03366058901884,121.96265839299303 45.26367461425252,125.61336858742288 46.09677419345826,125.36632918898249 46.980364656308666,123.00572213949636 47.93969144462608,122.6214358395955 54.75596072920598,122.9508241211588 58.59326788212638,124.40561884266208 67.0,124.68010776862502 58.69424964929931,124.40561884266208 54.70546984556131,123.03317114556557 47.8134642355144,122.59398680279264 46.929873772663996,123.14296714944066 45.66760168294422,125.66826620904612 36.35203366051428,121.7156165468623 34.231416549766436,120.26081120417803 27.642356241121888,116.9119921696838 26.910238429089077,116.96689108776627 25.067321178037673,116.08850741639617 13.0,114.33173379092477 25.067321178037673,116.06105789291905 28.854137447313406,117.65312687386177 27.743338008294813,116.9119921696838 18.50350631121546,115.15522247095942" stroke="#4DD2FF" stroke-linecap="round" stroke-linejoin="round" stroke-width="0.5"><title>2024-12-03 5.6km</title><desc>1733220329000</desc></polyline><polyline fill="none" points="80.04895104910247,115.40143937780522 85.15944055945147,115.94889529052307 86.89650349656586,116.96168657849194 89.11188811191823,117.23541347435093 91.50349650357384,118.79565288650338 94.77622377616353,120.02741616321146 96.86573426576797,121.64238842498162 105.85314685327467,125.58398583540111 106.98601398605388,123.14786464892677 107.89230769244023,122.545674899593 114.76503496512305,122.9288866724819 118.99440559453797,124.48910190720926 124.9104895106284,124.43435762517038 127.0,124.59859044689802 126.37062937067822,124.76282319513848 118.74265734269284,124.54384618109907 114.76503496512305,123.03837567704613 107.86713286722079,122.65516401833156 107.11188811203465,123.0110034289246 105.953846154036,125.61135789181571 105.40000000002328,125.66610199850402 96.08531468536239,121.66976077505387 91.05034965032246,118.79565288650338 84.93286713294219,116.05838637516717 73.0,114.38864378858125 85.36083916097414,116.00364083691966 88.93566433573142,117.6460034357442 84.88251748250332,116.14050466724439 73.05034965032246,114.33389800152509 80.35104895115364,115.34669374162331" stroke="#4DD2FF" stroke-linecap="round" stroke-linejoin="round" stroke-width="0.5"><title>2024-12-02 6.1km</title><desc>1733112856000</desc></polyline><polyline fill="none" points="133.0,112.5628748673771 134.59999999997672,113.22976375810686 138.28000000002794,118.15890707424842 137.95999999996275,117.83996439597104 138.65333333332092,117.81096959405113 139.56000000005588,116.70916552116978 142.8666666666977,117.20207825518446 144.09333333326504,118.01393316197209 146.54666666663252,118.50684424329665 149.18666666653007,120.1595415485499 152.38666666659992,121.37731401930796 154.06666666665114,122.8560326109291 163.66666666662786,127.23416647891281 164.44000000006054,127.23416647891281 165.61333333328366,124.5377057500009 166.38666666659992,124.16077964368742 173.77333333331626,124.5377057500009 178.33333333325572,126.16138326528016 187.0,126.2483657981793 178.38666666671634,126.21937162271934 173.79999999993015,124.5956943492638 166.46666666667443,124.21876829920802 165.66666666662786,124.56670005069464 164.22666666668374,127.4371251326229 155.05333333322778,123.58089261359419 148.8399999999674,120.07255765487207 142.6266666665906,117.23107310241903 135.0800000000745,116.33223183269729" stroke="#4DD2FF" stroke-linecap="round" stroke-linejoin="round" stroke-width="0.5"><title>2024-11-29 4.6km</title><desc>1732853630000</desc></polyline><polyline fill="none" points="17.573205741588026,178.2582868123427 17.185645933030173,178.48303018006845 18.83923444978427,178.5111230915645 17.418181818327866,178.3425655909814 18.71004784689285,178.4549372663896 18.555023923399858,178.84823786682682 20.622009569313377,176.17940431079478 25.479425837285817,175.84228714942583 27.02966507175006,176.68507948771003 29.225837320555,177.13456796453102 37.829665071796626,182.0508132003306 46.4593301435234,185.78711671297788 47.751196172321215,183.06214712839574 48.52631578943692,182.6969435228093 55.864114832598716,183.06214712839574 59.58468899514992,184.5791429350793 67.0,184.66342030098895 59.73971291864291,184.52295801404398 55.32153110043146,182.9778694046836 48.42296650726348,182.58457311146776 47.802870813407935,182.9497768258734 46.4593301435234,185.75902434345335 37.312918660230935,182.0508132003306 27.856459330185317,176.769358617923 25.014354067039676,175.89847336389357 13.0,174.21288328705123 25.272727272706106,175.84228714942583 26.848803827888332,176.65698644009535 28.502392344526015,176.88173076222301 35.16842105274554,180.42143616641988 25.19521531101782,175.95465957000852 18.71004784689285,175.08377243427094" stroke="#4DD2FF" stroke-linecap="round" stroke-linejoin="round" stroke-width="0.5"><title>2024-11-28 6.3km</title><desc>1732767063000</desc></polyline><polyline fill="none" points="73.36241610744037,173.5473841097555 81.33557046984788,174.89374909971957 83.14765100681689,175.84605356040993 83.99328859068919,175.78037745677284 92.29865771811455,179.85227737706737 95.16778523486573,181.75686281439266 105.67785234900657,186.35410410168697 107.15771812084131,183.16887774001225 108.244966443046,182.57780227501644 116.24832214752678,183.00469019034063 119.93288590607699,184.5480507426255 123.13422818784602,185.07344884666963 127.0,184.97493674984435 121.17114093957935,184.87642463104567 116.79194630868733,183.16887774001225 108.54697986587416,182.7419899837987 107.30872483213898,183.23455274273874 105.67785234900657,186.4526158902736 94.23154362419154,181.62551235870342 83.99328859068919,175.78037745677284 83.23825503361877,175.94456769755925 80.64093959738966,174.79523472770234 73.0,173.77725159437978" stroke="#4DD2FF" stroke-linecap="round" stroke-linejoin="round" stroke-width="0.5"><title>2024-11-25 4.0km</title><desc>1732507947000</desc></polyline><polyline fill="none" points="133.0,170.7641078986344 144.00802568229847,172.1777839162387 146.99839486368,173.92131331947166 148.64526484790258,173.73282388597727 151.67897271271795,174.72239278507186 154.84269662946463,176.9842587406165 160.8234349922277,179.57597020384856 165.46067415736616,182.78025333129335 175.94863563403487,186.87982719257707 179.45906902104616,189.00028600537917 180.3691813806072,188.62331606925 182.31942215096205,184.05253771785647 187.0,183.95829451770987 182.49277688609436,184.1939024918247 179.97913322644308,189.2358921013656 166.15409309812821,183.4870783064398 148.5585874801036,174.0626803576597 147.3884430178441,174.29829201789107 151.54895666148514,175.09937100607203 153.58587479940616,176.9842587406165 157.1829855539836,177.97382255253615 165.3739967898,182.87449670693604 178.50561797781847,188.7175585743389 180.3691813806072,188.9060435424326 182.31942215096205,184.00541611970402 180.23916532914154,189.2358921013656 166.37078651692718,183.39283502212493" stroke="#4DD2FF" stroke-linecap="round" stroke-linejoin="round" stroke-width="0.5"><title>2024-11-20 4.0km</title><desc>1732095798000</desc></polyline><polyline fill="none" points="16.15454062668141,234.12237866804935 24.126925119548105,235.2760918092099 26.0483271375997,236.24271388424677 27.367498672218062,236.36743915060651 34.737652681884356,240.0156367488089 36.68773234204855,241.51232400009758 47.18374933616724,246.15825658352696 47.67126925115008,246.0958954138623 48.847052575671114,243.35199474732508 49.707381837419234,242.6971976115601 57.67976633028593,243.1337291492673 61.866702071158215,244.81748938682722 67.0,245.00457343948074 61.78066914493684,244.84867006810964 57.22092405729927,243.10254834021907 49.87944768986199,242.72837845078902 48.67498672322836,243.53907945507672 47.5565586828161,246.2206177440239 36.88847583648749,241.82413317044848 28.686670207069255,237.240514974721 24.069569835439324,235.40081736372667 13.0,233.7793822560052" stroke="#4DD2FF" stroke-linecap="round" stroke-linejoin="round" stroke-width="0.5"><title>2024-11-19 4.1km</title><desc>1731989484000</desc></polyline></svg>