<?xml version="1.0" encoding="utf-8" ?>
<svg baseProfile="full" height="300mm" version="1.1" viewBox="0,0,200,300" width="200mm" xmlns="http://www.w3.org/2000/svg" xmlns:ev="http://www.w3.org/2001/xml-events" xmlns:xlink="http://www.w3.org/1999/xlink"><defs /><rect fill="#222222" height="300" width="200" x="0" y="0" /><text fill="#FFFFFF" style="font-size:12px; font-family:Arial; font-weight:bold;" x="10" y="20">Over 4km Runs</text><text fill="#FFFFFF" style="font-size:4px; font-family:Arial" x="10" y="280">ATHLETE</text><text fill="#FFFFFF" style="font-size:9px; font-family:Arial" x="10" y="290">Fake David</text><text fill="#FFFFFF" style="font-size:4px; font-family:Arial" x="65" y="280">SPECIAL TRACKS</text><rect fill="yellow" height="2.6" width="2.6" x="65" y="283" /><text fill="#FFFFFF" style="font-size:3px; font-family:Arial" x="70" y="285.5">Over 10.0 km</text><rect fill="red" height="2.6" width="2.6" x="65" y="287" /><text fill="#FFFFFF" style="font-size:3px; font-family:Arial" x="70" y="289.5">Over 15.0 km</text><text fill="#FFFFFF" style="font-size:4px; font-family:Arial" x="120" y="280">STATISTICS</text><text fill="#FFFFFF" style="font-size:3px; font-family:Arial" x="120" y="285">Number: 56</text><text fill="#FFFFFF" style="font-size:3px; font-family:Arial" x="120" y="290">Weekly: 2.7</text><text fill="#FFFFFF" style="font-size:3px; font-family:Arial" x="141" y="285">Total: 455.0 km</text><text fill="#FFFFFF" style="font-size:3px; font-family:Arial" x="141" y="290">Avg: 8.1 km</text><text fill="#FFFFFF" style="font-size:3px; font-family:Arial" x="167" y="285">Min: 4.0 km</text><text fill="#FFFFFF" style="font-size:3px; font-family:Arial" x="167" y="290">Max: 13.0 km</text><polyline fill="none" points="12.783001808391418,40.57441596132412 11.329113924119156,40.43284924552427 13.922242314729374,40.88114341137407 16.569620253285393,41.19966744209523 18.186256781220436,41.860307833514526 21.647377938614227,43.78322757114074 25.184448462969158,45.30503093369771 25.520795660093427,45.09268715640064 25.618444846360944,44.089948805456515 25.802893309271894,43.948385232666624 29.155515370774083,44.101745764157386 30.522603978286497,44.667998747579986 31.650994575116783,44.856749292099266 34.428571428579744,44.8449523896561 30.815551537147257,44.667998747579986 29.209764918661676,44.078151845911634 25.84629294765182,43.83041549200425 25.6401446654927,43.995573104330106 25.488245931337588,45.17526532584452 25.108499095891602,45.210655956718256 24.403254972887225,44.75057713850401 20.79023508145474,43.22876844754501 20.084990958450362,42.686104446678655 17.60036166367354,41.37662496007397 14.117540687264409,40.73957696980506 11.285714285739232,40.40925478057761 13.466546112205833,40.786765797718544 14.887884267722256,40.97552096872823 16.602169981983025,41.21146461610624 17.98010849917773,41.907496327432455 18.207956600468606,41.872104958310956 20.540687160973903,43.09900113826734 18.29475587711204,41.801322196333786 16.79746835451806,41.235058961523464 14.23688969266368,40.77496859204257" stroke="#4DD2FF" stroke-linecap="round" stroke-linejoin="round" stroke-width="0.5"><title>2025-04-15 6.3km</title><desc>1744713025000</desc></polyline><polyline fill="none" points="37.193426042969804,40.48805147979874 39.343868520867545,40.673622651796904 42.233881163119804,41.304563085286645 45.4879898862564,42.92520301487821 46.51201011380181,43.617990830607596 50.25537294562673,45.300463493171264 50.608091023983434,45.15201070861076 50.73324905184563,43.9891259715514 50.93805309734307,43.815929675634834 52.656131479132455,44.075724051726866 54.556257901364006,44.112837500855676 56.376738305960316,44.81799145814148 60.14285714284051,44.904589106095955 56.22882427304285,44.79324926469417 54.38558786344947,44.112837500855676 51.05183312261943,43.90252784619224 50.812895069480874,44.10046635204344 50.58533501892816,45.31283455256198 50.18710493046092,45.325205611021374 45.89759797725128,43.382938145659864 43.0644753476372,41.72518870905333 41.016434892546386,40.97053609561408 37.0,40.389080103239394" stroke="#4DD2FF" stroke-linecap="round" stroke-linejoin="round" stroke-width="0.5"><title>2025-04-12 4.6km</title><desc>1744431342000</desc></polyline><polyline fill="none" points="64.14325507363537,40.748538602361805 67.75328292878112,41.192461550745065 69.6764822920668,41.83497938155779 71.9972144846688,42.956458741551614 72.91046557895606,43.61065133071679 76.30561082373606,45.21107526651758 76.72463191405404,45.187711530932575 76.95025865494972,44.48679784448177 76.88579387188656,44.03120226826286 77.15439713490196,43.84429087971512 80.69996020686813,44.17138566345966 82.35455630713841,44.813891288038576 85.85714285710128,44.83725507931376 82.04297652206151,44.74379989327281 80.51730998803396,44.17138566345966 77.15439713490196,43.93774660184863 76.95025865494972,44.08961203150102 76.78909669717541,45.222757133014966 76.4775169120403,45.26948459027335 75.10226820531534,44.55688935412036 72.97493036213564,43.77419905157876 68.9458814166137,41.519561866356526 67.95742140867515,41.22750804577663 62.71428571426077,40.44480112401652 67.3235177079332,41.087322018662235 68.38718662952306,41.33264748385409 69.46159968164284,41.87002573299105 68.9029048945522,41.519561866356526 68.56983684835723,41.55460828826472 67.44170314364601,41.15741504788457 64.83087942702696,40.84199616961996" stroke="#4DD2FF" stroke-linecap="round" stroke-linejoin="round" stroke-width="0.5"><title>2025-04-11 5.8km</title><desc>1744345493000</desc></polyline><polyline fill="none" points="90.08470525755547,40.64718924650515 90.07395114179235,40.43671407355578 89.82660647900775,40.68226841457363 88.42857142857974,40.4717932886706 93.34320233669132,41.00967360494542 94.20353159855586,41.39554313101689 94.69822092406685,41.430622131782 96.05323951144237,42.0503498527105 96.2683218268794,42.35436633054633 97.19317578332266,42.86885441299819 102.32288900692947,45.17233719424985 102.59174190124031,44.86832617473556 102.58098778547719,43.88613270284259 102.81757833249867,43.71074036463688 106.4202071162872,44.061524845034 107.94729155598907,44.716320444160374 111.57142857142026,44.77478420412808 108.30217737652129,44.751398702763254 107.65693043015199,44.657856662452105 106.30191184277646,44.061524845034 102.90361125866184,43.86274706904078 102.67777482740348,44.10829604983155 102.58098778547719,45.18402991400217 102.20459373341873,45.277571640734095 101.54859267128631,44.85663343145279 98.66648964415072,43.69904753510491 94.54766330326675,41.44231513030536 93.50451407331275,41.11491084250156 90.88050982472487,40.775812824387685" stroke="#4DD2FF" stroke-linecap="round" stroke-linejoin="round" stroke-width="0.5"><title>2025-04-10 4.8km</title><desc>1744258695000</desc></polyline><polyline fill="none" points="115.74596533173462,40.68710640845529 119.24267782428069,41.13164846310974 121.29766885837307,41.810157593674376 124.55768081289716,43.70528825461224 127.83921099820873,45.23775373015087 128.09742976690177,45.214357423072215 128.2588164973422,44.89850693666085 128.3879258816596,44.453975546202855 128.291093843407,44.021141141070984 128.46323968918296,43.83396913688921 130.02331141661853,44.04453762588673 131.91691572027048,44.05623586702859 133.74596533173462,44.723034169728635 137.2104004782159,44.699637785961386 133.60609683202347,44.723034169728635 131.93843395099975,44.06793410725368 128.66766288108192,43.89246041215665 128.42020322772441,44.1381235303852 128.26957561267773,45.17926295599318 127.90376569039654,45.22605557706265 123.58936043037102,43.31924497503496 120.31858936045319,41.47090339490387 119.18888224748662,41.15504537851666 114.18589360435726,40.42973938047362 119.57621040049708,41.201839198809466 127.93604303646134,45.2845463338017 128.16198445903137,45.20265926826687 128.31261207413627,44.88680875831051 128.28033472801326,44.009442897338886 128.49551703524776,43.82227087924548 131.927674835606,44.05623586702859 133.2725642558653,44.641146811365616 134.28392109984998,44.78152511380904 137.28571428573923,44.60605221615697 133.62761506281095,44.723034169728635 131.8953974895412,44.06793410725368 128.61386730422964,43.857365649644635 128.37716676626587,44.14982176449848 128.291093843407,45.05058317609655 127.91452480573207,45.23775373015087 123.42797369993059,43.23735688463785 120.37238493724726,41.505998690845445 118.52181709499564,41.07315615940024 116.63897190679563,40.94447301457694 114.14285714284051,40.48823192389682 116.4453078302322,40.75729734286142" stroke="#4DD2FF" stroke-linecap="round" stroke-linejoin="round" stroke-width="0.5"><title>2025-04-08 9.7km</title><desc>1744085781000</desc></polyline><polyline fill="none" points="141.66131919121835,40.6385889161611 139.8571428571595,40.53349789085041 143.8091481604497,40.84877075537224 146.161020881671,41.40925428189803 146.90202187607065,41.724525384706794 147.3638051044545,42.16823919572926 148.54511103749974,42.56524522500695 150.00563473656075,43.476019962879946 153.64620483928593,45.21581853320822 153.8502485913341,45.22749496845063 154.00059661915293,44.982289645879064 154.12946635734988,43.95475840813015 154.27981438516872,43.8379930685187 157.69486244616564,44.00146451960609 158.97282068285858,44.57361325582315 159.73529996688012,44.737083939719014 163.0,44.70205452181108 159.31647331791464,44.67870157219295 157.72707988071488,44.071523660750245 154.4409015578567,43.86134614337061 154.17242293671006,44.01314104531775 153.989857474342,45.169112783594755 153.74285714287544,45.2041420971218 149.404242625169,43.324224540789146 146.20397746108938,41.51434471998073 144.95823665894568,41.129012769219116 143.02519058668986,41.02392207275261 139.953795160749,40.486790745853796 143.47623467020458,40.88380103453528 144.13132250582566,41.17571972279984 145.21597613522317,41.24578012706479 146.6764998342842,41.87632235615456 145.04414981772425,41.152366247726604 142.75671196554322,40.76703340698441" stroke="#4DD2FF" stroke-linecap="round" stroke-linejoin="round" stroke-width="0.5"><title>2025-04-07 6.0km</title><desc>1743999676000</desc></polyline><polyline fill="none" points="167.15375415282324,40.773875151382526 165.78671096340986,40.48127653598203 170.1031229235232,41.05476930938312 172.1375415282091,41.58144450180407 174.8070431893575,42.97419927960436 175.09767441859003,43.290200745890616 179.4356146179489,45.25641780953447 179.6508970099967,45.209603403520305 179.76930232555605,44.07434978678066 179.98458471760387,43.87538696784759 183.47215946845245,44.13286821496149 185.32358803984243,44.79997675582126 188.71428571426077,44.835087653191295 185.00066445179982,44.7531622138049 183.41833887045505,44.13286821496149 180.09222591359867,43.93390547017043 179.8661794019281,44.027535028522834 179.73700996674597,44.95212392107351 179.4571428571362,45.27982500732469 175.9480398671003,43.81686844374053 171.84691029897658,41.51122124485846 170.59827242523897,41.16010448912857 167.81036544847302,40.890914444913506 165.67906976741506,40.44616466551088 171.03960132884094,41.19521620000887 174.68863787373994,42.9390879663697 175.82963455148274,43.67642389694811 179.4356146179489,45.24471420934424 179.66166112956125,45.12767815943516 179.7800664451206,44.144571897995775 179.99534883716842,43.91049807185482 183.31069767440204,44.10946084631723 185.2267109634704,44.811680389160756 188.7035215946962,44.89360579804634 187.25036544853356,44.95212392107351 185.06524916941999,44.78827312163776 183.20305647840723,44.10946084631723 180.03840531560127,43.91049807185482 179.79083056474337,44.10946084631723 179.76930232555605,44.95212392107351 179.50019933551084,45.268121408851584 175.77581395348534,43.74664618604584 173.73063122923486,42.52945539839857 170.93196013290435,41.21862400291138 165.57142857142026,40.43446070695063 170.87813953484874,41.1718083936139 172.42817275744164,41.79211408436822 172.9556146179675,42.24856387732143 171.83614617935382,41.522925123194 171.48093023255933,41.522925123194 170.87813953484874,41.14840058374102 169.36039867106592,40.98454581697297" stroke="yellow" stroke-linecap="round" stroke-linejoin="round" stroke-width="0.5"><title>2025-04-03 10.8km</title><desc>1743675722000</desc></polyline><polyline fill="none" points="12.875845602888148,71.26732722284214 11.403899721510243,71.1037763217173 13.284122562676203,71.29069162337692 13.961002785537858,71.55938197912474 16.260246717138216,71.74629673761956 18.118981297302525,72.35376816397184 18.9570234779967,72.80937018923578 19.010744130588137,73.00796552954125 22.01910067652352,74.56167333402846 25.10266613616841,75.90509248405579 25.349781138182152,75.79995574829809 25.521687226486392,74.6434470025415 25.70433744532056,74.49158158419596 27.842419419030193,74.78363033510686 29.045762037450913,74.69017479401373 31.033426183916163,75.39108999466407 34.42857142863795,75.43781756333192 30.96896140073659,75.39108999466407 29.110226820630487,74.71353868448932 25.768802228500135,74.5149455043138 25.55391961801797,74.71353868448932 25.40350179077359,75.71818268284551 25.11341026664013,75.89341062800668 21.825706327159423,74.49158158419596 17.807401512167417,72.28367542718479 16.582570632745046,71.83975403332443 11.285714285739232,71.03368302613671 16.78670911269728,71.81638971462962 17.796657381637488,72.35376816397184 18.473537604499143,72.51731776125962 21.514126542024314,74.23457823350327 25.12415439717006,75.8466831951082 25.306804616062436,75.76491015404463 25.500198965484742,74.58503724366892 25.69359331484884,74.44485373358475 27.144050935166888,74.67849284743716 29.282132908934727,74.73690257150156 30.861520095553715,75.37940810034343 34.41782729810802,75.42613567246008 30.59291683253832,75.32099861559982 29.131715081632137,74.74858451371256 25.822522881033365,74.5149455043138 25.532431356958114,74.66681090003112 25.360525268653873,75.85836505462066 25.016713091987185,75.85836505462066 21.213290887477342,74.19953228940722 20.278551532072015,73.54533989516494 17.624751293333247,72.19021839609195 15.723040191049222,71.68788589951873 11.30720254679909,71.1037763217173 14.82053322729189,71.54769979929551" stroke="yellow" stroke-linecap="round" stroke-linejoin="round" stroke-width="0.5"><title>2025-04-01 10.1km</title><desc>1743481138000</desc></polyline><polyline fill="none" points="38.42351218214026,71.25325469239033 40.63426973775495,71.48776960372925 43.17933697241824,72.05060396513727 47.74104646523483,74.48952960576571 50.80375449341955,75.861408670331 51.15963253902737,75.6386257038248 51.24590600450756,74.64196120343695 51.41845293570077,74.45435306226136 54.68606044474291,74.71231419872493 57.09093329781899,75.45101875065302 60.09972041012952,75.40411697741365 56.44388230598997,75.32203884058981 54.82625482627191,74.73576519016933 51.45080548530677,74.51298063041759 51.256690187728964,74.7709416707512 51.213553454959765,75.65035113098565 50.78218612703495,75.83795784661197 47.15870057255961,74.27847022682545 43.19012115569785,72.12095811880135 42.758753827773035,72.09750673774397 42.0038610039046,71.75746131975029 40.55878045537975,71.67538128119486 37.032352549606,71.03046520291537 43.22247370524565,72.05060396513727 47.92437757959124,74.58333368333115 50.825322859804146,75.87313408087357 51.10571162292035,75.708978253635 51.26747437095037,74.58333368333115 51.41845293570077,74.43090202887834 52.50765543867601,74.63023570114456 54.6321395286941,74.68886320375896 56.422313939547166,75.3689406383055 60.14285714284051,75.380666085548 59.20463320467388,75.47446963201219 56.43309812276857,75.32203884058981 54.901744108705316,74.74749068456003 51.51551058451878,74.48952960576571 51.32139528688276,74.64196120343695 51.17041672213236,75.74415451673849 50.81453867664095,75.90831030729169 46.93223272531759,74.17294043120637 43.265610438014846,72.09750673774397 42.82345892692683,72.12095811880135 42.0685661030584,71.78091275147744 37.0,71.05391674299608 42.1548395685968,71.79263846603862 43.77246704837307,72.43755142101145 43.211689522024244,72.08578104591288 42.95286912529264,72.12095811880135 42.122487019049004,71.73400988453068 37.77646119025303,71.14772286826337" stroke="yellow" stroke-linecap="round" stroke-linejoin="round" stroke-width="0.5"><title>2025-03-30 10.7km</title><desc>1743316730000</desc></polyline><polyline fill="none" points="64.24563972838223,71.311883496659 62.85448009578977,71.00701365761051 65.14072693383787,71.51122114901955 67.85834109969437,71.792638581348 68.92597523634322,72.10923259120318 74.09159898816142,74.78266772338247 75.76314738381188,75.42756852270395 76.4425509252469,75.89658562616387 76.69058713881532,75.84968397871125 76.85234988684533,75.59172466788732 76.92783916916233,74.68886375064903 77.11117028351873,74.46607909131853 80.47583544132067,74.71231474904926 82.43855678336695,75.38066673546564 85.82479030755349,75.439293967298 82.22287311940454,75.3923921835958 80.63759818935068,74.77094222985033 77.27293303149054,74.54815768670233 77.04646518436493,74.80611870784196 76.91705498599913,75.8027823172888 76.48568765807431,75.90831103586243 73.22886433231179,74.51298115105601 68.9044068698422,72.19131241571449 68.5053920915816,72.20303810144833 67.29756357340375,71.792638581348 62.78977499663597,71.08909405699524 67.63187325256877,71.792638581348 68.96911196905421,72.14440966409165 71.72986286773812,73.49285819752549 73.31513779785018,74.50125563744223 76.52882439090172,75.93176185258199 76.86313407000853,75.70897895250528 76.96019171882654,74.66541274872725 77.11117028351873,74.53643217570789 80.45426707493607,74.72404024696152 81.91013180662412,75.3103140284511 82.84835574490717,75.45101941106259 85.85714285710128,75.41584307717858 82.27679403533693,75.4041176308383 80.47583544132067,74.77094222985033 77.20822793233674,74.5833342144906 76.98176008515293,74.84129517797555 76.93862335238373,75.7793314813025 76.79842897085473,75.93176185258199 76.56117694044951,75.89658562616387 72.45240314205876,74.12603874011256 69.01224870188162,72.1795867291221 68.79656503791921,72.24994083559432 67.62108906934736,71.82781572501699 65.35641059780028,71.62847847366356 62.71428571426077,71.10081982483098 65.31327386497287,71.49949541177193" stroke="#4DD2FF" stroke-linecap="round" stroke-linejoin="round" stroke-width="0.5"><title>2025-03-28 10.0km</title><desc>1743136214000</desc></polyline><polyline fill="none" points="89.99082202714635,71.34903613978531 88.42857142857974,71.04445021004358 90.99281723855529,71.31389163955464 93.89106145250844,71.8527731133654 94.37589784513693,72.18078701927152 95.41021548281424,72.47365599984187 96.44453312049154,73.16482463123975 97.4680766161182,73.49283580007614 98.78252194728702,74.38314838056976 102.21947326418012,75.87089631146227 102.5319233838818,75.78889482349041 102.63966480444651,74.75801532744663 102.88747007184429,74.55886737319815 106.08739026339026,74.73458616944845 107.71428571431898,75.34374314290471 108.57621707901126,75.4491739179648 111.57142857142026,75.49603201755963 107.98363926575985,75.43745939091605 106.20590582600562,74.7697299051506 102.82282521948218,74.5237235903769 102.65043894649716,74.73458616944845 102.5965682361857,75.64832074473088 102.35953711089678,75.89432530014892 98.93335993617075,74.51200899438118 94.6452513965778,72.14564270492701 92.84596967278048,71.68876590380387 88.60095770144835,71.14988386786717 90.33559457299998,71.3373213072482" stroke="#4DD2FF" stroke-linecap="round" stroke-linejoin="round" stroke-width="0.5"><title>2025-03-25 5.1km</title><desc>1742904051000</desc></polyline><polyline fill="none" points="115.70583538495703,71.41250965178187 114.18597378401319,71.08434130545356 118.21737973258132,71.56487329414813 119.54321644827724,71.7992786096147 120.70736575959018,72.23292752238922 123.34826003061607,73.61590796142991 123.73630980105372,73.9675112193654 127.94018231419614,75.88959513961163 128.328232084692,75.70207579087582 128.4036862066714,74.69415546217351 128.56537361105438,74.5300747974834 132.14405482739676,74.75275565807533 133.70703306945506,75.39735637253034 137.2641559651238,75.43251633555337 136.29403153905878,75.53799617741606 133.77170803118497,75.37391639282578 131.97158826270606,74.76447569465381 128.66238605364924,74.55351490293106 128.38212788611418,74.78791576517688 128.29589460376883,75.76067561139644 127.88628651271574,75.85443527874304 124.199813693529,74.24879325988877 120.39477011113195,72.11572523140057 120.08217446273193,72.15088592788379 119.26295828068396,71.76411783455114 114.14285714284051,71.04918037059542 119.60789140994893,71.82271912194847 121.52658194157993,72.61969446306466 123.82254308339907,73.99095140861755 127.98329895536881,75.88959513961163 128.2851154434611,75.78411553347541 128.3929070463637,74.69415546217351 128.60849025222706,74.51835474347172 131.89613414072664,74.71759554314485 133.75014971056953,75.39735637253034 137.28571428568102,75.46767629070382 135.9598775699851,75.57315610900696 133.68547474878142,75.37391639282578 131.89613414072664,74.72931558235723 128.5761527713039,74.51835474347172 128.3929070463637,74.78791576517688 128.34979040524922,75.65519591879274 128.2096613214817,75.85443527874304 127.98329895536881,75.84271532339335 124.10280125093414,74.21363303231192 120.4271075919969,72.10400499752723 120.20074522588402,72.18604661646532 119.1659458380891,71.7523975744698 115.03752744698431,71.17810375997215" stroke="#4DD2FF" stroke-linecap="round" stroke-linejoin="round" stroke-width="0.5"><title>2025-03-23 9.7km</title><desc>1742722238000</desc></polyline><polyline fill="none" points="141.39712823240552,71.30904163185915 145.09093930735253,71.71886930371693 145.80170178820845,72.12869590685295 146.03862261521863,72.08185863484687 146.90015289501753,72.44484712764097 150.62627135543153,74.48225085085141 152.14471847377717,75.06770680581394 153.684703848965,75.92246858398721 153.94316293293377,75.75854202787741 154.02931596088456,74.64617873806856 154.22316027391935,74.51737826965109 157.5723592368886,74.64617873806856 159.46772585256258,75.31359765664092 163.0,75.36043396554305 159.53234062355477,75.37214304060035 157.70158877887297,74.66959699372819 154.29854417341994,74.48225085085141 154.10469986044336,74.64617873806856 153.97547031845897,75.71170583758794 153.6631655919482,75.82879628715455 149.86166323209181,74.15439456353488 146.86784550960874,72.50339358020574 145.10170843580272,71.78912536874122 139.90021937113488,71.01630692620529 145.09093930735253,71.7539973401581 146.2109286711784,72.09356795418717 148.9785946952179,73.51038915087702 150.0232001596014,74.22464953982853 153.684703848965,75.82879628715455 153.98623944696737,75.65316058008466 154.06162334646797,74.59934221630101 154.22316027391935,74.4354142802622 157.62620487937238,74.64617873806856 159.4138802100788,75.29017949693662 162.9892308715498,75.34872488964174 161.99847104970831,75.4775246767822 159.2523432825692,75.33701581282367 157.62620487937238,74.69301524586626 154.30931330187013,74.45883256732486 154.07239247491816,74.79839733740664 154.01854683243437,75.64145152599667 153.857009904983,75.87563244254852 153.62008907803101,75.86392340502061 149.80781758960802,74.14268539774639 146.82476899557514,72.49168429142446 145.08017017884413,71.83596272795694 139.8571428571595,71.07485391097725 143.28172571962932,71.48468219353526" stroke="#4DD2FF" stroke-linecap="round" stroke-linejoin="round" stroke-width="0.5"><title>2025-03-21 9.8km</title><desc>1742551156000</desc></polyline><polyline fill="none" points="167.01988389936741,71.20694341647322 166.74964969640132,71.4067466827837 165.57142857142026,71.14817770171794 166.3172749716323,71.13642455615627 170.7815440047998,71.75934006483294 171.87329018476885,72.04141420300584 175.98085007001646,74.29798915110587 179.3641822912614,75.77884891926078 179.74251017544884,75.68482649009093 179.86141322477488,74.65057607096969 180.05598185095005,74.49778850245639 183.5582171214628,74.73284623891232 184.84453192760702,75.29698337746959 185.8822312671109,75.44977017202473 188.71428571426077,75.48502864205511 185.15800360310823,75.36750037796446 183.5149796489859,74.7210933604074 180.14245679584565,74.48603560643096 179.8938413291471,74.6975876007491 179.95869753783336,75.12069073834573 179.77493827982107,75.84936570437276 179.4074197637965,75.91988245795073 178.71562020410784,75.50853428436676 175.88356575695798,74.42727111322165 172.08947754715336,72.32348783679481 170.63021285115974,71.81810555187985 169.36551678122487,71.771093163974 165.5930473076296,71.01889305225632 170.90044705412583,71.79459935969498 172.80289584305137,72.51153664579033 175.53766597714275,74.07468369425624 179.4938947087503,75.86111849881127 179.78574764792575,75.63781525446393 179.86141322477488,74.62707030083402 180.0776005871594,74.47428270957607 183.49336091277655,74.73284623891232 185.17962233931758,75.35574754672416 188.64942950557452,75.39100603776751 187.7630613198271,75.50853428436676 185.0282911856193,75.33224188165332 183.54740775335813,74.7210933604074 180.11002869153162,74.49778850245639 179.90465069725178,74.67408183762745 179.88303196104243,75.42626452095283 179.68846333486727,75.80235451780027 179.51551344495965,75.83761290904658 175.6998064989457,74.25097750224813 171.83005271235015,72.06492035843257 171.43010609195335,72.07667343481444 170.5977847467293,71.72408076208376 169.14932941884035,71.65356213296764 165.63628478016471,71.07765881516389 168.25215186493006,71.41849980822008" stroke="#4DD2FF" stroke-linecap="round" stroke-linejoin="round" stroke-width="0.5"><title>2025-03-19 10.0km</title><desc>1742357906000</desc></polyline><polyline fill="none" points="12.266161213163286,101.7386995938723 15.810853950562887,102.23072235898871 17.642458100570366,102.69931403716328 21.154828411876224,104.65566920769925 25.08739026339026,106.47142617961799 25.46448523545405,106.35428120121651 25.561452513968106,105.45226194454881 25.79848363925703,105.10082446984597 29.397047087026294,105.35854536142142 30.64684756589122,105.90912948745245 31.56264964089496,106.03798932365316 34.428571428579744,106.0614183734433 30.9592976855929,105.93255855642201 29.192338387889322,105.27654330538644 25.820031923416536,105.05396608056617 25.593774940178264,105.34683078463422 25.572226656076964,106.23713613554719 25.10893854749156,106.50656965612143 20.73463687155163,104.51509359992633 18.278132482082583,103.09761586559762 16.64046288910322,102.44158878698363 11.285714285739232,101.65669565001735 13.720670391106978,101.92613701926894 16.34956105350284,102.34787040944502 17.15762170794187,102.71102881121624 17.53471668000566,102.68759926222265 21.682761372765526,104.9368200461904 25.184357541962527,106.48314067262982 25.4537110934034,106.33085219508212 25.604549082228914,105.65140949821216 25.4537110934034,106.38942470389884 25.011971268977504,106.44799719093135 21.348762968962546,104.84310315587209 17.53471668000566,102.75788789874059 17.14684756589122,102.74617312815099 16.155626496416517,102.33615560831095" stroke="#4DD2FF" stroke-linecap="round" stroke-linejoin="round" stroke-width="0.5"><title>2025-03-17 7.0km</title><desc>1742185263000</desc></polyline><polyline fill="none" points="38.26587858144194,101.74060620622186 38.21178120619152,101.88177576786256 38.09276698058238,101.72884207041352 38.19014225603314,101.90530401584692 37.21638950105989,101.74060620622186 40.89501101983478,102.17587861584616 43.253656581859104,102.7170264248416 47.28932077734498,104.91689081497316 50.93548387091141,106.5403004976688 51.205970747279935,106.34031614824198 51.292526547797024,105.32862673445197 51.50891604885692,105.11687696712033 54.78721699054586,105.31686286594777 56.63734722492518,105.99916579113051 60.11039871763205,106.05798487081483 56.59406932478305,105.97563815314788 55.05770386691438,105.35215446884104 51.62793027446605,105.11687696712033 51.314165497838985,105.30509899654135 51.19515127228806,106.38737131205562 50.85974754556082,106.45795403151715 46.66179122420726,104.61102915127412 43.28611500695115,102.70526236176374 40.67862151871668,102.11705809007981 37.0,101.64649309503147 40.70026046881685,102.07000165370118 43.26447605685098,102.6464420331904 47.246042877144646,104.84630740672583 50.85974754556082,106.44619024713757 51.21679022233002,106.24620577848691 51.3033460227889,105.29333512626181 51.476457623706665,105.11687696712033 54.91705069120508,105.30509899654135 56.66980565013364,105.96387433282507 60.14285714284051,106.05798487081483 56.485874574224,105.92858286661794 54.90623121615499,105.30509899654135 51.49809657380683,105.0933491976466 51.3033460227889,105.38744606387627 51.1626928470796,106.37560752240825 50.93548387091141,106.43442646185576 47.062111801235005,104.81101569074963 43.307753957109526,102.7170264248416 41.99859747540904,102.32881188031752 37.0,101.62296480845544 40.375676217197906,102.09352987362945" stroke="yellow" stroke-linecap="round" stroke-linejoin="round" stroke-width="0.5"><title>2025-03-15 10.0km</title><desc>1742012101000</desc></polyline><polyline fill="none" points="64.17502186930506,101.99557669968635 62.71428571426077,101.65184588868578 65.98459053895203,102.01928224548465 68.88426081690704,102.61191974233952 73.0593499764218,104.89947977258998 76.6566852836404,106.4758621014189 76.9292106856592,106.13214097026503 76.98371576605132,105.18394089667709 77.21263710380299,105.05356294458034 80.73366529837949,105.3261712679523 82.41242177510867,105.98991131945513 85.85714285715949,106.01361627009464 82.5214319358929,106.01361627009464 80.67916021798737,105.34987631745753 77.26714218419511,105.1365307446249 77.01641881430987,105.38543388512335 76.85290357307531,106.40474744557287 76.59127918712329,106.51141941743845 72.81952762260335,104.88762721471721 71.27158333890839,103.89200920105213 68.9169638651656,102.71859425731236 68.66624049528036,102.76600512990262 67.70695108000655,102.33930676798627 66.2898189892876,102.26819026307203 63.052217212854885,101.71110987458087 64.77457775385119,101.91260726159089 67.03108808287652,102.26819026307203 67.93587241775822,102.35115951573243 69.1894892671844,102.77785784582375 72.77592355833622,104.75724901985086 75.74099993269192,106.01361627009464 76.36235784937162,106.42845233438129 76.80929950874997,106.40474744557287 77.03822084650164,105.62248413309862 76.88560662139207,106.38104255321377 76.59127918712329,106.4521572196827 72.87403270305367,104.86392209635233 68.92786488123238,102.67118337060674 68.41551712533692,102.64747792195703" stroke="#4DD2FF" stroke-linecap="round" stroke-linejoin="round" stroke-width="0.5"><title>2025-03-12 7.1km</title><desc>1741778255000</desc></polyline><polyline fill="none" points="90.20379526930628,101.88663125850144 93.35373513301602,102.27502842317335 94.32794333819766,102.69873333185387 95.52946679136949,102.92235490882013 99.07991447282257,105.02909001607622 102.37057329947129,106.46494924140279 102.63036215421744,106.27664057833317 102.69530936790397,105.31155515705177 102.91180008021183,105.08793696208159 106.37565147673013,105.26447766863566 107.72871842846507,105.79409860460146 108.76787384739146,105.95886920037447 111.57142857142026,105.99417716282187 108.06427903252188,106.00594648186234 106.37565147673013,105.33509389599203 103.02004543633666,105.11147573436028 102.77108111721464,105.27624704202753 102.6087130830274,106.3472563532705 102.24067887215642,106.44141067082819 98.08405719633447,104.62893020179763 94.67432847787859,102.68696376640582 94.3928905519424,102.78112026547024 93.37538420420606,102.33387639511784 88.42857142857974,101.66300821534242 92.95322731527267,102.22795002983185 94.47948683681898,102.69873333185387 94.67432847787859,102.6281159259961 98.67940665507922,104.79370201277197 102.33809969271533,106.45317995655932 102.63036215421744,106.19425546763523 102.7061339035281,105.22916954310494 102.944273687026,105.08793696208159 106.28905519179534,105.22916954310494 108.1725243886467,105.88825325178914 111.57142857142026,105.99417716282187 108.08592810371192,105.97063852206338 106.29987972741947,105.24093891913071 102.93344915140187,105.01732062420342 102.73860751034226,105.33509389599203 102.72778297477635,106.19425546763523 102.39222237071954,106.50025709076726 100.73606842180016,105.64109718325199 98.35467058670474,104.7466243700037 94.75010022718925,102.74581158490037 94.47948683681898,102.79288982388971 93.5377522384515,102.357415577746 90.5934785513673,102.1220235935034 88.42857142857974,101.71008677706413 90.05225177068496,101.839552749414 90.82079379929928,101.98078823460673 93.72176934388699,102.36918516777223 95.25885340105742,103.06358942590305 94.81504744087579,102.76935070614854 93.58105038083158,102.4162635190296 91.45944140048232,102.16910201843712 90.10637444874737,102.2397196294769 88.49351864220807,101.71008677706413" stroke="yellow" stroke-linecap="round" stroke-linejoin="round" stroke-width="0.5"><title>2025-03-07 10.7km</title><desc>1741342581000</desc></polyline><polyline fill="none" points="115.93141518899938,101.87176208506571 119.4109735697275,102.31963540222205 119.97464034793666,102.64964650871116 120.44074941449799,102.66143260692479 123.43251923716161,104.13468796851521 124.83084643690381,105.06577828151057 128.0610906656948,106.4918680103292 128.29956507193856,106.26793741606525 128.57055871526245,105.10113603351056 130.02308464370435,105.27792467491236 132.23439277347643,105.23078105651075 133.39424556709128,105.72578834899468 134.4998996319482,105.91436214826535 137.28571428568102,105.90257629238477 136.68952827027533,106.02043481156579 133.78447641350795,105.92614800324372 132.0934760789387,105.3132823795022 128.6572766811587,105.14827969053295 128.45132151222788,105.30149647884537 128.23452659754548,106.38579566308181 127.88765473401872,106.46829638374038 124.32137838739436,104.8536316036334 120.44074941449799,102.75572136101255 119.04242221475579,102.35499376799271 116.27828705252614,102.2017741259042 114.14285714284051,101.67139729579503 115.42194713943172,101.74211430923606" stroke="#4DD2FF" stroke-linecap="round" stroke-linejoin="round" stroke-width="0.5"><title>2025-03-05 4.7km</title><desc>1741177738000</desc></polyline><polyline fill="none" points="140.91313297656598,101.82154853065731 144.54796212434303,102.2566509583994 145.5706051873276,102.54671859521477 149.68340881023323,104.7947251945152 152.67352820088854,106.0395756627695 153.351585014374,106.48675262530742 153.68505557847675,106.4021516728535 153.8517908604117,105.21773370662413 154.0963359407615,105.08478829308297 157.43104158091592,105.2539915277448 159.2651296829572,105.9549744771648 163.0,106.00331801721768 161.58830794563983,106.13626267803193 159.24289831204806,106.01540389994625 157.62000823381823,105.35067901120055 154.10745162615785,105.0968742442783 153.94071634416468,105.2539915277448 153.76286537665874,106.4384092293185 153.51832029642537,106.53509600687539 149.08316179498797,104.64969345073041 145.52614244545111,102.61923542336444 145.29271305067232,102.7038383485924 144.22560724575305,102.30499560057069 139.8571428571595,101.62816929926339" stroke="#4DD2FF" stroke-linecap="round" stroke-linejoin="round" stroke-width="0.5"><title>2025-03-03 4.6km</title><desc>1740978130000</desc></polyline><polyline fill="none" points="167.53873356909025,101.91321207978763 167.36578367918264,102.01899029535707 165.57142857142026,101.65464280974993 168.39267365046544,101.94847149286943 171.79762460797792,102.67716426523111 174.83505704946583,104.18155159882735 175.84032828453928,104.86322238625144 179.3209448188427,106.44985850222292 179.68846333486727,106.4263528984302 179.87222259287955,105.29807979801262 180.0343631146825,105.09828059551364 183.35283912724117,105.32158556992363 184.9958630813635,105.9797457610257 188.6602388736792,106.0267570981814 187.37392406753497,106.1207797304669 184.95262560882838,105.95624008718005 183.33122039103182,105.34509133829852 180.0776005871594,105.13353929668665 179.91546006535646,105.25106824371323 179.75331954361172,106.29707201500423 179.42903850000584,106.4968696993019 175.77547207579482,104.9219869714143 171.77600587176858,102.71242350756074 171.5814372455934,102.77118889389385 170.8680189497536,102.44210244838905 165.57142857142026,101.66639596756431 171.01935010339366,102.40684314563987 179.29932608257513,106.5086224963743 179.69927270297194,106.43810570075584 179.8073663841933,105.39210286458547 180.00193501036847,105.13353929668665 183.62307333020726,105.3685971031664 185.02829118567752,105.99149859663157 188.71428571426077,106.08552124994458 185.04990992194507,105.9797457610257 183.40688596782275,105.35684422118356 180.06679121905472,105.09828059551364 179.87222259287955,105.29807979801262 179.69927270297194,106.37934168036736 179.3641822913196,106.47336410250864 175.37552545539802,104.71043436242326 172.01381197036244,102.77118889389385 171.50577166874427,102.74768274198868 170.54373790614773,102.33632451652375 167.4306398879271,101.97197776386747 168.67371722159442,102.07775594003033 170.85720958164893,102.39509004296269 172.31647427770076,103.04150938910607 172.37052111828234,102.92397879593773 171.7219590311288,102.70067042765731" stroke="yellow" stroke-linecap="round" stroke-linejoin="round" stroke-width="0.5"><title>2025-02-28 10.0km</title><desc>1740736874000</desc></polyline><polyline fill="none" points="12.903341765457299,132.85883225940051 13.129809612582903,132.60086610680446 12.860205032629892,132.84710653436196 13.0974570629769,132.69467202939268 12.9572626814479,132.63604333432158 11.382771934499033,132.3194480034872 12.105312208761461,132.2959964721813 16.472906403942034,132.8940094292775 17.173878311819863,133.2340549992805 17.594461456581485,133.18715220570448 21.811077087011654,135.47364712312992 25.18652642791858,137.03313485908438 25.477699374314398,136.9276061012206 25.585541206295602,135.80196161479398 25.801224870199803,135.6612554879248 29.176674211164936,135.87231463102216 30.837438423652202,136.50549036217853 34.37465051258914,136.57584306396893 30.81587005732581,136.56411761583877 29.09040074562654,135.87231463102216 27.10611103719566,135.88404013068066 25.736519771046005,135.68470651781536 25.563972839852795,135.79023610899458 25.477699374314398,136.95105694240192 25.20809479430318,137.19729056404321 20.883637331950013,135.23913635266945 17.79936093732249,133.43339171596745 16.05232325923862,132.9526380282332 14.671947809925769,132.90573515080905 11.296498468902428,132.2842707052041 16.526827319932636,132.96436374541372 17.09838902944466,133.3044091634074 17.594461456581485,133.3044091634074 21.821861270116642,135.54400028612872 25.251231527130585,137.080036506537 25.488483557477593,136.88070440832234 25.639462122227997,135.68470651781536 29.079616562405135,135.84886362910038 30.481560378102586,136.39996125052858 31.51684196514543,136.56411761583877 34.428571428579744,136.56411761583877 30.891359339642804,136.57584306396893 29.09040074562654,135.9661186037556 27.116895220358856,135.95439311022346 25.661030488670804,135.70815754418436 25.49926774064079,136.82207727259083 25.175742244697176,137.12693814004888 21.304220476653427,135.43847052982892 17.50818799098488,133.31613485437992 12.418053521483671,132.49533437703212 11.285714285739232,132.19046453798364 12.9788310478325,132.44843136331474 13.712155505258124,132.60086610680446 15.69644521374721,132.77675216580974 18.025828784506302,133.62100251278025 17.56210890697548,133.3044091634074 17.33564105979167,133.36303760949522 16.30035947280703,132.9526380282332 13.841565703682136,132.77675216580974 12.17001730791526,132.3546252939268" stroke="yellow" stroke-linecap="round" stroke-linejoin="round" stroke-width="0.5"><title>2025-02-26 11.1km</title><desc>1740566027000</desc></polyline><polyline fill="none" points="38.97534648189321,132.5519664696476 37.043176972307265,132.31723265445908 37.90671641792869,132.30549595452612 42.27838486141991,132.90406653651735 42.893656716449186,133.24442918643763 43.260660980828106,133.23269255558262 46.30463752668584,134.73497419804335 46.952292110887356,135.29832612050814 50.13659381662728,136.58933334474568 50.859808102366515,137.08226058501168 51.21601812366862,136.87100624230516 51.31316631130176,135.79125740012387 51.48587420047261,135.65042004904535 52.83515458420152,135.86167602844944 54.77811833692249,135.87341246346477 56.24613539443817,136.44849670711847 57.30397121532587,136.60106972551148 60.07809168443782,136.56586058056564 57.271588486095425,136.56586058056564 56.321695095917676,136.43676031494397 54.918443496804684,135.90862176317023 51.57222814497072,135.68562939863477 51.33475479745539,135.83820315585763 51.14045842224732,137.01184250225197 50.827425373194274,137.093996929063 49.337819829408545,136.28418713739666 47.09261727076955,135.40395438170526 43.30383795307716,133.29137570111197 42.94762793177506,133.3265855779464 42.051705756923184,132.90406653651735 40.853544776153285,132.91580319187779 37.0,132.25854914603406 42.073294243076816,132.91580319187779 42.893656716449186,133.30311232761596 43.30383795307716,133.24442918643763 46.498933901952114,135.04012340609916 50.13659381662728,136.62454248448194 50.93536780384602,137.12920595600735 51.24840085289907,136.78885169919522 51.30237206828315,135.82646671822295 51.44269722816534,135.65042004904535 53.07262793177506,135.86167602844944 54.70255863544298,135.82646671822295 56.224546908342745,136.40155113324 57.357942430709954,136.5541241971223 60.14285714284051,136.56586058056564 56.81823027716018,136.56586058056564 54.95082622603513,135.89688533083245 53.86060767591698,135.93209462528466 51.49666844349122,135.63868359746994 51.30237206828315,135.86167602844944 51.226812366745435,136.85926988163556 51.11886993603548,137.0705242400436 50.88139658852015,137.10573327225575 46.585287846508436,135.11054237019562 43.357809168461245,133.31484895321773 42.98001066100551,133.3265855779464 42.138059701479506,132.97448645548138 40.76719083159696,132.90406653651735 37.11873667378677,132.31723265445908 39.68776652455563,132.6341232223349 40.23827292112401,132.66933324605634 42.06250000005821,132.96274980451562 43.994669509644154,133.6200009121676 46.401785714318976,134.86407585820416 43.37939765461488,133.3265855779464 40.23827292112401,132.71627993212314" stroke="yellow" stroke-linecap="round" stroke-linejoin="round" stroke-width="0.5"><title>2025-02-21 11.3km</title><desc>1740135343000</desc></polyline><polyline fill="none" points="64.61053471668856,132.63795827877766 62.778930566622876,132.27479833470716 65.40782122901874,132.56766932281607 67.88587390264729,132.97768778966565 68.57541899435455,133.32913133880356 69.25418994412757,133.36427565052873 72.28172386274673,135.09805194236105 75.78332003188552,136.62094777953462 76.56983240222326,137.10124263822217 76.92537909012754,136.84352362812206 77.0438946528011,135.80092877685092 77.19473264168482,135.683782855951 78.69233838783111,135.88293086954218 80.63168395846151,135.89464545069495 81.87071029527579,136.4218007005984 82.92657621705439,136.59751872452034 85.80327214678982,136.58580419572536 84.94134078209754,136.7029494446324 82.36632082995493,136.5623751354433 80.5670391060994,135.95321834352217 77.24860335193807,135.7189266413916 77.02234636864159,135.90636003101827 76.86073423782364,136.96066868506023 76.52673583396245,137.08952814691293 72.44333599356469,135.26205681808642 69.0279329608893,133.35256088084134 68.53232242621016,133.32913133880356 67.72426177171292,132.97768778966565 66.36671987228328,132.89568418184354 62.71428571426077,132.2630834838492 67.77813248202438,132.94254339154577 68.9417398244259,133.2705574685242 71.77533918590052,134.67632433357358 72.72346368711442,135.3206299465237 76.68834796483861,137.04267017301754 76.90383080602624,136.85523813776672 76.97924980043899,135.87121628747263 77.13008778932272,135.683782855951 80.5239425378386,135.88293086954218 81.88148443732643,136.4218007005984 82.96967278525699,136.59751872452034 85.85714285710128,136.62094777953462 84.66121308854781,136.71466396472533 82.37709497200558,136.57408966602816 80.63168395846151,135.95321834352217 77.21628092572792,135.70721204709844 76.99002394248964,135.92978918901645 76.93615323217819,136.83180911764794 76.72067039104877,137.12467161819222 73.1221069432795,135.56663684776868 69.03870710293995,133.32913133880356 68.67238627292681,133.35256088084134 67.78890662407503,132.98940258729272 64.95530726254219,132.62624345495715 65.88188347965479,132.7316768378514 67.72426177171292,132.94254339154577 69.54509177972795,133.6337151126645 69.0710295290919,133.32913133880356 68.48922585789114,133.31741656649683 67.44413407816319,132.9308285904117 66.50678371905815,132.9191137884336 63.24221867520828,132.30994288208603" stroke="yellow" stroke-linecap="round" stroke-linejoin="round" stroke-width="0.5"><title>2025-02-19 10.6km</title><desc>1739962218000</desc></polyline><polyline fill="none" points="90.1079454253777,132.44380849349545 88.42857142857974,132.27887935444596 91.27808988763718,132.5851761900558 93.55337078648154,132.98571731058473 94.18178170145256,133.3037933599262 94.63683788123308,133.28023219302122 98.61316211876692,135.47140569557087 102.42696629214333,137.1088757475809 102.61115569825051,136.87326959017082 102.73033707868308,135.8483787207806 102.91452648473205,135.71879434476432 106.34911717497744,135.93084145024477 107.89847512036795,136.56698106077965 111.57142857142026,136.63766308173945 108.0934991973918,136.59054173793993 106.30577849113615,135.9426218366716 103.13121990370564,135.71879434476432 102.94703049759846,135.91906106295937 102.75200642051641,135.87193950504297 102.61115569825051,136.9439514742553 102.27528089890257,137.07353484633495 97.88723916537128,135.12977311521536 94.65850722306641,133.32735452332417 93.43418940610718,132.9621560962696 89.26284109149128,132.37312459782697" stroke="#4DD2FF" stroke-linecap="round" stroke-linejoin="round" stroke-width="0.5"><title>2025-02-18 4.9km</title><desc>1739836925000</desc></polyline><polyline fill="none" points="116.64537578076124,132.45794843349722 116.61273423326202,132.7418800835585 117.80959097319283,132.70638865506044 119.39814628247404,132.97848940412223 121.47632480354514,134.09054848796222 122.59701793262502,134.45728966958995 123.64154745114502,135.21443007486232 127.1559540599701,136.65771897260856 127.96111223043408,137.14275573930354 128.25488615751965,136.9179827877233 128.33104976825416,135.86509472635225 128.50513802131172,135.71130150389217 131.93250050366623,135.98339710383152 133.52105581294745,136.6103982331406 137.28571428568102,136.68137933708203 133.64074148691725,136.53941709747596 131.95426153531298,135.9124156879261 128.5921821478405,135.69947124982718 128.3963328631362,135.9124156879261 128.34193028404843,136.84700178951607 128.16784203104908,137.09543514432153 124.17469272617018,135.42737516337365 120.95406004425604,133.60550239839358 119.31110215588706,132.94299802850583 114.14285714284051,132.24499936273787 119.34374370338628,132.95482848792744 120.84525488613872,133.6291632176435 119.34374370338628,132.95482848792744" stroke="#4DD2FF" stroke-linecap="round" stroke-linejoin="round" stroke-width="0.5"><title>2025-02-14 5.4km</title><desc>1739506837000</desc></polyline><polyline fill="none" points="142.38653499702923,132.61948314357141 144.33222125848988,132.85454548583948 146.08333889377536,133.28940989560215 150.4070861414075,135.60474886761222 153.72556215390796,137.1208661286364 153.99579635687405,137.07385495959898 154.4173617135384,136.01609995232138 154.73083338903962,135.76928943020175 157.80069393478334,135.94558269970003 159.53019283385947,136.63900098174054 163.0,136.67425945703872 159.45452725695213,136.63900098174054 157.7682658304111,135.96908845406142 154.7848802296212,135.81630098797905 154.49302729038754,135.95733557731728 153.89851204387378,137.1208661286364 150.1800894109183,135.616501770608 146.11576699808938,133.336422192413 145.1321144992835,133.0190889170044 139.8571428571595,132.26688897341955 144.98078334564343,132.94857032464643 146.16981383872917,133.336422192413 150.20170814712765,135.5342314310692 153.69313404959394,137.09736054588575 154.0174150931416,137.01509097858798 154.46059918601532,135.98084132993245 154.80649896583054,135.81630098797905 157.81150330294622,135.98084132993245 159.45452725695213,136.60374249855522 163.0,136.66250663281244 161.51911656773882,136.7447763839591 159.44371788890567,136.58023683875217 157.74664709420176,135.96908845406142 154.7740708614583,135.7575365385419 154.49302729038754,135.94558269970003 154.00660572497873,137.0503493698343 153.83365583512932,137.08560775314982 149.98552078474313,135.46371396303584 146.49409488227684,133.5127181807038 145.3915393341449,133.05434820135997 139.87876159348525,132.2903952759516 142.6243410956813,132.52545810860465 145.1321144992835,132.94857032464643 146.63461666787043,133.72427310657804 146.0725295256707,133.3246691195236 145.9320077400771,133.3951875437342 144.96997397753876,132.97207652562065" stroke="yellow" stroke-linecap="round" stroke-linejoin="round" stroke-width="0.5"><title>2025-02-12 10.1km</title><desc>1739334019000</desc></polyline><polyline fill="none" points="184.1784181484254,136.30783136808896 185.14960147155216,136.64381571352715 188.71428571431898,136.6678145685437 185.27099938690662,136.69181341995136 183.6155732679763,135.94784736308793 180.37093807483325,135.73185657392605 179.66462293075165,137.08779395226156 179.45493562234333,137.12379213419626 175.12875536479987,135.22787693953433 173.96995708154282,134.483904120847 170.9019006745075,133.043946967402 165.57142857142026,132.20396601583343 170.70324954017997,132.91195025084016 172.41385652974714,133.5719327518018 174.58798283262877,134.62789912815788 175.6805640711682,135.39587032621785 179.37768240342848,137.06379515984736 179.67565910489066,136.95580054966558 180.1281422440661,135.8758504655707 180.40404659719206,135.7198570771725 182.3905579399434,135.9358478824288 183.38381361128995,135.8758504655707 185.16063764563296,136.60781742431573 188.5708154506283,136.6558151414647 183.90251379524125,136.3198308210558 183.95769466587808,136.6558151414647 183.85836909874342,136.25983354724303 183.4610668302048,136.07984159166517 180.40404659719206,135.7678550589044 180.18332311470294,135.88784995069727 179.576333537756,137.18378908622253 175.41569589212304,135.39587032621785 174.6541998774046,134.78389357411652 173.25260576338042,134.11191642284393" stroke="#4DD2FF" stroke-linecap="round" stroke-linejoin="round" stroke-width="0.5"><title>2025-02-10 6.3km</title><desc>1739162078000</desc></polyline><polyline fill="none" points="11.451111285656225,164.37281937903026 12.850624361890368,164.41429972504557 19.161156051210128,165.3406917112734 21.095028665673453,165.25773142278194 21.260425665590446,165.89375935637509 21.98562789603602,165.93523936351994 22.83805858786218,166.2532524447015 23.42330951069016,165.40982525676372 28.639676431252155,165.313038285909 28.91957904654555,165.7969726370793 29.250373046379536,165.87993268527498 29.46666143089533,165.7554925991135 29.68294981541112,165.1747710974014 30.67533181491308,165.10563746461412 34.428571428579744,165.57574566117546 30.904343045607675,165.09181073497166 29.644781276991125,165.1609443728812 29.403047200117726,165.7554925991135 29.18675881566014,165.86610601311259 28.639676431252155,165.2992115716479 23.486923741467763,165.38217184164387 23.117961203155573,165.63105242981692 22.863504280219786,166.2670790880802 21.32403989630984,165.90758602648566 21.32403989630984,165.3683451325487 21.158642896451056,165.23007798510662 19.288384512648918,165.32686499909323 13.372261053940747,164.4557800617913 11.285714285739232,164.35899259496364 13.09235843870556,164.42812650497945 18.88125343597494,165.2992115716479 21.069582973374054,165.23007798510662 21.247702819411643,165.87993268527498 22.850781434040982,166.2532524447015 23.232466818473767,165.53426557393686 23.563260818307754,165.38217184164387 28.588785046711564,165.2992115716479 28.94502473884495,165.81079931433487 29.199481661838945,165.86610601311259 29.46666143089533,165.70018586747756 29.568444200092927,165.24390470446087 29.886515353806317,165.11946419323795 34.16139165946515,165.53426557393686 31.08246289170347,165.09181073497166 29.83562396914931,165.09181073497166 29.492107123252936,165.27155814012804 29.275818738737144,165.86610601311259 29.02136181574315,165.81079931433487 28.62695358513156,165.27155814012804 23.436032356868964,165.3683451325487 23.13068404927617,165.60339904754073 22.876227126340382,166.2532524447015 21.311317050189245,165.89375935637509 21.158642896451056,165.1747710974014 19.08481897431193,165.25773142278194 12.697950208152179,164.34516580987838 11.578339747153223,164.38664616204915 12.72339590039337,164.37281937903026 19.657347050961107,165.35451842244947 21.13319720409345,165.23007798510662 21.273148511711042,165.89375935637509 22.26553051127121,166.0181993501028 21.32403989630984,165.87993268527498 21.069582973374054,165.18859782084473 19.148433205031324,165.27155814012804 13.283201130921952,164.41429972504557 11.718291054770816,164.38664616204915 13.397706746298354,164.4557800617913" stroke="#4DD2FF" stroke-linecap="round" stroke-linejoin="round" stroke-width="0.5"><title>2025-01-25 9.9km</title><desc>1737761473000</desc></polyline><polyline fill="none" points="37.3085714285844,164.17433578894997 44.85571428568801,165.26420782397327 47.041428571450524,165.166399053036 47.02857142861467,166.0606487801415 47.877142857178114,166.10256663181644 48.60999999998603,166.43790910902317 49.22714285715483,165.52968851728656 54.485714285692666,165.40393455134472 54.97428571427008,166.0187309191242 55.29571428569034,165.92092254044837 55.38571428577416,165.40393455134472 55.59142857143888,165.25023514551867 60.14285714289872,165.6833876948367 56.59428571432363,165.20831710394123 55.47571428568335,165.30612585306517 55.128571428591385,166.00475829670904 54.8457142857369,165.92092254044837 54.73000000003958,165.50174319877988 54.485714285692666,165.3899618832802 49.25285714288475,165.48777053797676 48.99571428570198,165.62749709933996 48.687142857175786,166.40996392541274 47.118571428523865,166.0327035404771 47.00285714288475,165.33407120064658 45.21571428567404,165.45982521324186 38.208571428607684,164.43981802013877 37.0,164.45379075876554 38.568571428593714,164.49570896843215 44.817142857122235,165.43187988438876 46.822857142891735,165.32009852737247 46.990000000048894,165.473797876155 46.990000000048894,165.96284042324987 48.60999999998603,166.40996392541274 49.21428571426077,165.50174319877988 54.47285714285681,165.3899618832802 54.794285714277066,165.92092254044837 55.09000000002561,166.00475829670904 55.64285714289872,165.23626246604545 59.37142857146682,165.52968851728656 55.74571428570198,165.1943444213539 55.38571428577416,165.30612585306517 55.321428571420256,165.85105938170454 55.09000000002561,165.9768130487646 54.47285714285681,165.34804387284385 49.27857142861467,165.48777053797676 48.94428571435856,165.69736034111702 48.64857142861001,166.38201873764046 47.10571428574622,166.00475829670904 46.91285714285914,165.2921531777538 45.20285714289639,165.44585254931008 38.33714285714086,164.42584528047882 37.28285714291269,164.46776349634456 38.46571428573225,164.43981802013877 40.11142857145751,164.70529987671762" stroke="#4DD2FF" stroke-linecap="round" stroke-linejoin="round" stroke-width="0.5"><title>2025-01-19 8.1km</title><desc>1737283232000</desc></polyline><polyline fill="none" points="65.77333689195802,163.2023472221481 67.7082137852558,163.47266878478695 68.52972576225875,163.89577986598306 69.1350503769354,163.90753293538 72.01034229662037,165.41191858773527 72.36705144459847,165.74100103686214 75.8800960832159,167.245369205295 76.66917995590484,167.73898688489862 76.88536731828935,167.60970621329034 77.35017014743062,166.51669266508543 77.65283245476894,166.34039944811957 80.49569627008168,166.4814340374578 82.31167011405341,167.12784095869574 85.85714285710128,167.22186356298334 82.23600453720428,167.12784095869574 80.59298058314016,166.45792828133563 77.69606992724584,166.31689367096988 77.36097951553529,166.4461754019576 76.87455795018468,167.60970621329034 76.72322679648641,167.68022295639093 72.82104490557685,166.04657698204392 69.0053379595629,163.93103907152545 68.70267565216636,163.95454520417843 67.7946887302096,163.55494047280808 65.30853406287497,163.3198783932603 62.71428571426077,162.82624688604847 67.95682925201254,163.5901997545152 69.05938480014447,163.91928600387473 73.01561353169382,166.08183570687834 75.86928671511123,167.2571220251557 76.57189564284636,167.76249245014333 76.86374858208,167.66847016807878 77.33936077926774,166.58720989672292 77.69606992724584,166.39916387567064 80.66864615993109,166.5401984124619 82.34409821842564,167.15134661502088 85.85714285710128,167.245369205295 82.32247948215809,167.22186356298334 80.54974311066326,166.55195128485502 77.68526055914117,166.39916387567064 77.38259825180285,166.5401984124619 76.87455795018468,167.703728530425 76.48542069789255,167.7154813161178 72.1724828184233,165.74100103686214 69.10262227262137,163.98980439658044 68.71348502032924,164.01331052045862 67.87035430705873,163.61370593796892 62.757523186679464,162.86150633064972 68.07573230128037,163.60195284667134 68.67024754785234,163.94279213827394 69.01614732760936,163.90753293538 73.00480416358914,166.09358861341025 76.7340361646493,167.78599801192468 77.42583572422154,166.49318691420194 78.58243811299326,166.49318691420194 77.56635750981513,166.4814340374578 76.87455795018468,167.72723410092294 76.55027690663701,167.68022295639093 72.14005471405108,165.74100103686214 69.07019416824915,163.97805133330985 68.75672249280615,164.00155745896336 67.89197304326808,163.60195284667134 65.4706745845615,163.3198783932603" stroke="yellow" stroke-linecap="round" stroke-linejoin="round" stroke-width="0.5"><title>2025-01-17 12.3km</title><desc>1737088953000</desc></polyline><polyline fill="none" points="90.76886035309872,163.09728622106195 90.92054574639769,162.83811182103818 91.58146067417692,163.27399579566554 94.65850722312462,163.88658745863358 96.3920545746223,164.78190946606628 97.06380417337641,165.31203194937552 102.37279293744359,167.76235278001695 102.5786516853841,167.62098914875241 103.03370786516462,166.54897749898373 103.31540930981282,166.3604911829607 106.33828250400256,166.54897749898373 107.99598715890897,167.16155647445703 111.56059390044538,167.22045817394974 108.07182985555846,167.16155647445703 106.20826645265333,166.54897749898373 103.40208667737897,166.40761278303398 103.0770465490059,166.52541672177904 102.56781701440923,167.70345128234476 102.42696629214333,167.7505724822404 98.47231139650103,166.05420044025232 94.69101123593282,163.9219292129419 93.44502407708205,163.6038531398808 88.42857142857974,162.89701513107866 93.34751203854103,163.5567307042511 94.37680577853462,163.9219292129419 94.66934189409949,163.88658745863358 98.90569823439,166.21912629849976 101.4843499197159,167.23223851120565 102.25361155701103,167.72701188405335 102.5461476725759,167.65633006842108 103.01203852327308,166.53719711081067 103.33707865170436,166.37227158428868 106.22993579454487,166.54897749898373 107.97431781701744,167.14977613190422 111.57142857142026,167.19689749678946 108.02849117177539,167.14977613190422 106.3274478330859,166.59609904287208 103.41292134835385,166.38405198477267 103.0770465490059,166.54897749898373 102.45947030500975,167.7741330769204 98.64566613163333,166.1366633908765 94.72351524879923,163.9808321192104 94.19261637242744,163.95727095933398 93.61837881221436,163.6274143524206 89.77207062608795,163.0737249295198" stroke="#4DD2FF" stroke-linecap="round" stroke-linejoin="round" stroke-width="0.5"><title>2025-01-15 9.1km</title><desc>1736916504000</desc></polyline><polyline fill="none" points="116.16043956042267,162.74875040791812 116.31148851150647,163.00683780519466 116.84015984018333,163.32358085087617 119.48351648350945,163.75763510086108 120.91848151851445,164.22688159260724 122.62317682313733,165.3413364058797 128.00699300697306,167.8048401096894 128.24435564439045,167.74618570745224 128.69750249752542,166.69040273180872 129.0643356643268,166.49097626378352 132.04215784213739,166.67867177008884 133.67132867127657,167.3238733666367 137.28571428573923,167.40598974384193 133.62817182816798,167.35906610498205 132.0097902097623,166.71386465260002 129.05354645347688,166.49097626378352 128.69750249752542,166.69040273180872 128.19040959037375,167.81657098750293 127.85594405588927,167.81657098750293 124.31708291702671,166.2446255722607 120.40059940062929,164.06264547957107 120.1740259740036,164.13303240614187 118.803796203807,163.69897919103096 114.14285714284051,163.0420315083902 118.04855144856265,163.51128013283596 120.37902097904589,164.02745200449135 123.86393606394995,165.9513504369679 128.07172827166505,167.86349449002591 128.31988011987414,167.72272394046013 128.8269730269676,166.5379001613328 129.92747252748813,166.56136210486875 128.8593406593427,166.5848240448977 128.15804195805686,167.8517636157194 124.04735264735064,166.17423958961444 120.46533466532128,164.08610779191076 119.20299700298347,163.72244155759108 115.804395604413,163.25319356245745" stroke="#4DD2FF" stroke-linecap="round" stroke-linejoin="round" stroke-width="0.5"><title>2025-01-14 7.8km</title><desc>1736829619000</desc></polyline><polyline fill="none" points="143.02179401996545,163.35745081208006 142.83880398678593,163.09996438547387 143.26936877076514,163.1467801307881 146.88611295685405,164.30546538154886 149.11428571428405,165.40562326535292 150.10458471765742,166.0961439590028 153.68903654487804,167.7346554932883 153.92584717611317,167.6644339209015 154.4102325582062,166.56429185543675 154.72239202656783,166.37703286425676 157.6394684385741,166.56429185543675 159.03880398679757,167.1377711273817 160.0398671096773,167.2665110843809 163.0000000000582,167.2665110843809 159.24332225916442,167.17288203521457 157.65023255819688,166.56429185543675 154.75468438543612,166.36532916988654 154.44252491701627,166.49406975989405 153.93661129573593,167.6644339209015 153.63521594688063,167.67613751848694 150.0292358804145,166.11955138696067 146.7354152824846,164.31716922935448 145.0777408637805,163.6266407159128 139.8571428571595,162.88929335886496 145.14232558140066,163.6500485118304 146.7354152824846,164.24694612932217 149.6201993355644,165.873773219515 153.65674418606795,167.69954471099481 153.9150830565486,167.62932312292105 154.34564784058603,166.57599553494947 154.65780730906408,166.37703286425676 157.73634551500436,166.57599553494947 159.35096345521742,167.18458566939807 162.8923588040052,167.27821471162315 159.2756146179745,167.14947476418456 157.66099667776143,166.5408844937483 154.64704318944132,166.36532916988654 154.38870431896066,166.5174771285383 153.88279069773853,167.69954471099481 153.47375415288843,167.6644339209015 152.92478405317524,167.28991833796317 149.87853820598684,166.07273652756703 146.04651162790833,163.9075340367708 144.89475083060097,163.59152901548077 139.90019933559233,162.8775894046703 146.06803986715386,163.89583015843527 149.90006644523237,166.00251421230496 152.95707641198533,167.2665110843809 153.66750830569072,167.722951900083 153.9150830565486,167.6527303224284 154.38870431896066,166.50577344467456 154.69009966781596,166.36532916988654 157.5856478405767,166.5174771285383 159.081860465114,167.11436385114212 159.9860465116799,167.20799293520395 159.03880398679757,167.11436385114212 157.55335548176663,166.5174771285383 154.71162790700328,166.33021808159538 154.4102325582062,166.47066238775733 153.92584717611317,167.6059159199067 153.5383388704504,167.6176195218286 152.53727574757067,167.06754928818555 149.90006644523237,166.04932909262425 146.03574750828557,163.9075340367708 144.55029900337104,163.53300949731783" stroke="yellow" stroke-linecap="round" stroke-linejoin="round" stroke-width="0.5"><title>2025-01-10 13.0km</title><desc>1736482744000</desc></polyline><polyline fill="none" points="167.78838451264892,162.70162009744672 168.84819759684615,163.41889731763513 170.68664886517217,163.7716554103681 172.4926568758092,164.4654106925591 174.4500667557004,165.62950168731913 179.51121495332336,167.91062480052642 179.74913217622088,167.7224921828747 179.8464619492879,166.68775877750886 179.9870493991766,166.51138308856753 183.39359145530034,166.734792261268 185.17797062749742,167.393259562421 188.66021361819003,167.47556778190483 185.02656875835964,167.3579845980712 183.39359145530034,166.74655063002137 180.05193591455463,166.4996247023082 179.83564753003884,166.74655063002137 179.74913217622088,167.76952535830787 179.51121495332336,167.91062480052642 175.63965287047904,166.2644567929092 171.83297730307095,164.13617127783073 170.6433911882341,163.7716554103681 165.57142857142026,163.06613843639207 170.9245660881279,163.79517258850683 171.4544726301683,164.0891370196623 171.82216288382187,164.0891370196623 175.70453938585706,166.21742316897144 179.3489986648783,167.86359166710463 179.71668891853187,167.76952535830787 179.82483311084798,166.6995171497838 180.01949265692383,166.52314147393918 183.39359145530034,166.74655063002137 185.26448598131537,167.393259562421 188.71428571426077,167.4402928359632 184.9724966622307,167.34622627485078 183.38277703605127,166.6995171497838 180.0627503338037,166.52314147393918 179.87890520697692,166.6407252797071 179.86809078772785,167.47556778190483 179.58691588789225,167.89886651847337 175.56395193591015,166.22918157628737 171.85460614151089,164.12441271462012 170.5676902536652,163.7716554103681 165.57142857142026,163.03086250492197 169.3564753003884,163.51296621946676 171.7789052070002,164.06561988532485 175.3368491322035,166.05280537487124 179.37062750337645,167.86359166710463 179.6734312417102,167.78128364995064 179.91134846466593,167.19336799350276 179.6734312417102,167.84007509518415 179.19759679574054,167.76952535830787 175.62883845128817,166.24093998268654 171.83297730307095,164.0538613168319 171.58424566086615,164.1126541504782 170.751535380492,163.7128624496545 169.37810413888656,163.56000064931868" stroke="yellow" stroke-linecap="round" stroke-linejoin="round" stroke-width="0.5"><title>2025-01-08 12.0km</title><desc>1736310892000</desc></polyline><polyline fill="none" points="13.752554598264396,194.49494185426738 14.077138849941548,193.9773214781162 14.120416750141885,193.4714635619166 14.325986776209902,193.2950011168432 14.564015227428172,193.34205778814794 14.455820476810914,193.424406929189 15.505309557192959,193.8243878604262 16.046283309988212,194.27142417273717 18.264275696245022,195.04785265437386 21.942897214961704,197.035962725844 25.253656581800897,198.5064422370051 25.470046082918998,198.29469403131225 25.50250450806925,197.3182958541438 25.805449809646234,197.1183099404152 29.116209176485427,197.35358745970007 30.84732518531382,198.01236264873296 34.428571428579744,198.08294554172608 30.825686235213652,197.98883501075034 29.159487076685764,197.37711519232835 25.762171909445897,197.15360159064585 25.53496293327771,197.38887905732554 25.50250450806925,198.29469403131225 25.31857343215961,198.54173357703257 21.261270286515355,196.8124486412562 17.550190342590213,194.73022328244406 17.139050290512387,194.73022328244406 16.38168703665724,194.36553691931476 11.285714285739232,193.71851065369265 16.533159687416628,194.47141369213932" stroke="#4DD2FF" stroke-linecap="round" stroke-linejoin="round" stroke-width="0.5"><title>2025-01-06 5.2km</title><desc>1736137119000</desc></polyline><polyline fill="none" points="39.99559412547387,194.14284960624354 40.04966622160282,193.6960213903949 40.40654205606552,193.16688107755908 40.666088117461186,194.08405649224005 40.29839786380762,194.33098742390575 40.9797062749858,194.2957116001926 43.22910547396168,194.83660669755773 46.2787716955645,196.27114558657922 46.85193591454299,196.77675864467165 50.96141522022663,198.59930390043883 51.21014686243143,198.4464460745803 51.25340453936951,197.45874578508665 51.45887850463623,197.2706116958725 55.01682242989773,197.51753764199384 56.72550066752592,198.16424662254576 60.14285714284051,198.22303821667447 56.584913217579015,198.14072997879703 54.89786381839076,197.48226253050962 51.50213618151611,197.2706116958725 51.29666221624939,197.44698741110915 51.2209612816805,198.4464460745803 51.00467289716471,198.6580953325174 47.12229639518773,197.05896057741484 43.94285714282887,195.25991461111698 42.342323097458575,194.61319372987782 37.0,193.77833194626146 40.633644859772176,194.2251599290612 43.20747663552174,194.80133098685474 46.473431241640355,196.61214061755163 50.24766355135944,198.25831316263066 50.831642189587,198.66985361630213 51.199332443240564,198.41117117065005 51.29666221624939,197.3881955279212 51.44806408538716,197.23533652916376 53.84886515350081,197.51753764199384 54.89786381839076,197.45874578508665 56.63898531370796,198.1289716555766 60.13204272359144,198.1877632628166 56.346995994623285,198.070180026436 54.83297730307095,197.48226253050962 51.534579439263325,197.23533652916376 51.29666221624939,197.41171228382154 51.26421895856038,198.37589625889086 51.02630173560465,198.61106218861823 47.17636849131668,197.04720217363501 43.96448598126881,195.18936337101331 42.63431241654325,194.6837452275504 37.1405874498887,193.8371251741628" stroke="#4DD2FF" stroke-linecap="round" stroke-linejoin="round" stroke-width="0.5"><title>2025-01-03 9.5km</title><desc>1735878536000</desc></polyline><polyline fill="none" points="65.02315155579709,193.67313649154676 66.37811977253295,194.05029350308178 67.92820341256447,194.19172715055174 68.67614586820127,194.56888292563963 68.95797925727675,194.53352460992755 72.17738374043256,196.31321668898454 76.5024422883871,198.30503375004628 76.8276346604689,198.24610461118573 77.27206423552707,197.17359044872865 77.59725660760887,196.98501577849675 80.50230846437626,197.16180453840934 82.22582803620026,197.81002830136276 85.85714285715949,197.91610102789127 82.49682167952415,197.82181416338426 80.63238541316241,197.2207340811583 77.61893609905383,197.043945387064 77.27206423552707,197.23251998708292 76.69755771168275,198.3521770453226 72.49173636670457,196.58429385785712 68.94713951158337,194.60424123346456 68.6653061225079,194.62781343427196 67.79812646372011,194.21529941284098 66.5732351957704,194.15636875052587 62.71428571426077,193.48455764856772 67.88484442961635,194.20351328211837 69.4132485781447,194.9224656481092 67.98240214120597,194.23887167160865 64.80635664105648,193.75563966465415" stroke="#4DD2FF" stroke-linecap="round" stroke-linejoin="round" stroke-width="0.5"><title>2025-01-02 5.6km</title><desc>1735817809000</desc></polyline><polyline fill="none" points="91.09973297727993,193.76657227212854 93.67356475297129,194.18988226725196 94.43057409877656,194.58967399787798 95.15514018689282,194.71901816449827 99.09158878505696,196.88257759879343 102.41161548730452,198.31709522026358 102.69279038714012,198.02313775334915 103.00640854466474,197.23532904239255 103.38491321762558,197.04719503724482 106.16421895858366,197.14126206786023 108.19732977304375,197.88203797479218 111.57142857142026,197.90555461330223 110.25206942588557,197.98786282053334 108.00267022690969,197.84676301044237 106.31562082777964,197.18829556215496 103.39572763687465,197.023678270838 103.06048064085189,197.1530204427545 102.5630173565005,198.2700620623218 102.37917222967371,198.3523700794758 97.0801068090368,196.0242124593933 94.64686248323414,194.58967399787798 94.30080106813693,194.6131911269913 93.55460614152253,194.236916641079 88.42857142857974,193.47260632969846 93.16528704937082,194.13108928027214 94.38731642189668,194.5661568653013 94.64686248323414,194.49560544650012 98.11829105473589,196.44751639923197 102.37917222967371,198.36412836416275 103.0929238985409,197.1177453154669 103.38491321762558,197.0001615009387 104.20680907875067,197.10598693793872 103.07129506004276,197.09422855956655 102.5630173565005,198.24654547811951 102.36835781042464,198.30533693208417 98.44272363150958,196.6474095317244 94.8090787716792,194.6249496902019 94.32242990651866,194.58967399787798 93.4572763684555,194.20164086202567 92.52723631507251,194.236916641079 88.75300400529522,193.5078822717187 91.13217623496894,193.95471018791432" stroke="#4DD2FF" stroke-linecap="round" stroke-linejoin="round" stroke-width="0.5"><title>2024-12-31 8.0km</title><desc>1735619151000</desc></polyline><polyline fill="none" points="117.36555407207925,193.93119310878683 118.15500667557353,193.95471033420472 120.41522029374028,194.48384698051086 121.73457943927497,195.18935974927444 122.1130841121194,195.57739042774483 128.16915887850337,198.31709504156606 128.74232309748186,197.200053838038 129.06675567425555,197.0236781885178 132.06234979978763,197.18829546752386 133.55473965284182,197.7879712463764 137.27489986649016,197.88203782848723 133.69532710284693,197.84676286678587 132.04072096128948,197.200053838038 129.07757009350462,197.0236781885178 128.7639519359218,197.16477872389078 128.11508678237442,198.36412818195822 124.4598130841041,196.80026874947362 121.15060080110561,194.97770624978875 119.22563417890342,194.21339958294993 114.14285714284051,193.47260651191755 118.23070761014242,194.00174477460678 120.38277703605127,194.49560555251082 124.4598130841041,196.7062015226693 128.0177570093656,198.3523698981735 128.28811748995213,198.2465453046898 128.74232309748186,197.18829546752386 129.11001335113542,196.98840303494944 131.9974632844096,197.16477872389078 133.74939919891767,197.8114878971537 137.28571428568102,197.8232462212327 133.8791722296737,197.8350045444531 131.98664886516053,197.18829546752386 129.05594125500647,197.0001614203211 128.74232309748186,197.16477872389078 128.2664886515704,198.23478701213025 128.09345794393448,198.31709504156606 124.1786381842685,196.6709262981458 120.46929238986922,194.5896740968601 118.84712950600078,194.1898823960364 114.31588785047643,193.53139973981888 119.08504672901472,194.1781238012627 120.07997329771752,194.57791553188872 120.50173564755823,194.53088126321381 123.94072096125456,196.4357579332427 120.44766355137108,194.5543983992975 117.18170894525247,193.9429517219105" stroke="yellow" stroke-linecap="round" stroke-linejoin="round" stroke-width="0.5"><title>2024-12-30 10.8km</title><desc>1735533491000</desc></polyline><polyline fill="none" points="143.1062100213603,193.88795366154227 145.22188166313572,194.24005367598147 145.81556503201136,194.58041627515922 146.1178038379876,194.54520638521353 146.73307569301687,194.80341206205776 149.37766524526523,196.30569124220347 153.67377398721874,198.27741092588985 153.98680703627178,198.28914727868687 154.44016524520703,197.17418985808035 154.79637526656734,196.97467032940767 157.63526119402377,197.16245342220645 159.32995735603618,197.81969248437963 163.0,197.87837441019656 159.47028251603479,197.81969248437963 157.74320362473372,197.1859262930957 154.75319829426007,196.9981432282657 154.46175373136066,197.17418985808035 154.08395522390492,198.1248382597987 153.7925106609473,198.33609268118744 149.75546375266276,196.63431290317385 146.88419509597588,194.99119774307474 145.24347014928935,194.32221023277089 139.8571428571595,193.47716931666946 145.05996801704168,194.2283170215087 147.13246268656803,194.99119774307474 149.31289978680434,196.30569124220347 153.76012793177506,198.35956537719176 153.97601279313676,198.30088363061077 154.47254797443748,197.1859262930957 154.7747867803555,197.04508901543159 157.7216151385801,197.20939916046336 159.3407515991712,197.83142887128633 162.96761727076955,197.8666380267532 161.8666044776328,197.96052906956174 159.39472281449707,197.83142887128633 157.71082089556148,197.16245342220645 154.78558102349052,196.9981432282657 154.4833422175143,197.12724410934607 153.98680703627178,198.26567457219062 153.66297974414192,198.31261998169066 150.16564498934895,196.78688701275678 149.02145522384671,196.08269758184906 145.22188166313572,194.27526363414654 140.40764925372787,193.59453638165724" stroke="#4DD2FF" stroke-linecap="round" stroke-linejoin="round" stroke-width="0.5"><title>2024-12-27 9.1km</title><desc>1735273142000</desc></polyline><polyline fill="none" points="184.1830440586782,197.31175840903597 183.33951935911318,197.07659106026404 182.441922563361,197.1824164105783 180.33311081439024,196.98252402269281 179.58691588783404,198.32297401613323 175.66128170891898,196.72383938015264 171.76809078763472,194.5837956207397 171.4544726301101,194.61907130254258 170.61094793054508,194.24279695682344 165.57142857142026,193.44321099342778 169.09692923893454,194.0076250351849 169.44299065420637,193.94883200002369 171.9194926568307,194.57203705838765 174.67716955934884,195.95954136861837 175.0881174899987,196.33581162143673 179.3489986648201,198.28769916214515 179.66261682234472,198.26418258844933 180.0951935913763,197.1824164105783 180.44125500664813,196.97076563902374 183.42603471287293,197.158899672213 185.2536715620663,197.84088366264768 188.71428571426077,197.93495018871909 184.8967957276036,197.77033373132872 183.55580774362898,197.194174778444 180.43044058739906,196.98252402269281 180.2033377836924,197.05307430612447 179.71668891853187,198.29945744766155 179.50040053401608,198.393523700448 178.5703604806331,197.84088366264768 175.53150867816294,196.64153054135386 171.97356475301785,194.56027849517704 169.52950600796612,194.0076250351849 166.96648865146562,193.6666251263232" stroke="#4DD2FF" stroke-linecap="round" stroke-linejoin="round" stroke-width="0.5"><title>2024-12-25 6.6km</title><desc>1735101299000</desc></polyline><polyline fill="none" points="13.688761192082893,224.25910778844263 13.602164907148108,224.47096109512495 13.742883870145306,224.42388260707958 13.948550046829041,224.0825631491025 14.608846719260328,224.5415788008977 15.344915141002275,224.57688764193153 17.607243084348738,225.15359759514104 21.61232126154937,227.34272233491356 25.29266337037552,228.93158419597603 25.444206868938636,228.919814907611 25.898837364744395,227.8017285138776 26.234397968801204,227.62518783364794 29.135373513330705,227.7899591413152 31.008018174557947,228.49611994213774 34.42857142863795,228.55496653309092 30.845650140370708,228.460811977071 29.02712815720588,227.77818976792332 26.136977148300502,227.63695721844852 25.898837364744395,227.75465101841837 25.41173326212447,228.86096845255815 25.216891621006653,228.89627632820338 21.222637979488354,227.24856705642014 18.224241614399944,225.50668428241624 16.524789522984065,224.82404930825578 11.285714285739232,224.0943327978748 13.060938126407564,224.36503447729046 13.905251904332545,224.34149521923973 16.881999198230915,224.92997561831726 18.23506614996586,225.4596061030461 21.947881865606178,227.50749393721344 25.11947080056416,228.919814907611 25.45503140456276,228.884507037219 25.996258185245097,227.6840347489633 27.100360817858018,227.6840347489633 26.02873179211747,227.64872660239052 25.40090872644214,228.97866134069045 21.504075905424543,227.36626114575483 19.40411599626532,226.13046883464267 16.63303487910889,224.9064364444348 11.318187892553397,224.10610244575946 15.767072029935662,224.7416621291195" stroke="#4DD2FF" stroke-linecap="round" stroke-linejoin="round" stroke-width="0.5"><title>2024-12-18 8.3km</title><desc>1734495982000</desc></polyline><polyline fill="none" points="39.43949893390527,223.2971822572872 39.04011194023769,223.39107689571392 39.180437100178096,223.27370858890936 39.04011194023769,223.36760324134957 38.95375799568137,223.23849807979423 38.996934967988636,223.35586641285045 39.87126865668688,223.9661803349445 41.7818496801774,224.8112264769734 42.235207889112644,225.5271647999616 42.74253731337376,225.92621097754454 43.30383795307716,226.0083674180205 47.265325159882195,228.1444198316167 50.8490138592897,229.7523083115084 51.10807569290046,229.7640446634323 51.61540511727799,228.63735089088732 51.92843816627283,228.46130426107266 54.92923773982329,228.64908732590266 56.81823027721839,229.30632629014144 60.14285714284051,229.36500820718356 56.52678571426077,229.30632629014144 54.92923773982329,228.66082376001577 51.87446695100516,228.4730407091556 51.561433901893906,228.64908732590266 51.02172174840234,229.8109900624113 45.7217484008288,227.59280467465578 45.35474413639167,227.2289723437716 44.027052238816395,226.47783197026 42.42950426437892,225.84405449419864 37.0,224.96380376946763 42.15964818757493,225.644531427708 43.06636460556183,226.0435773079662 43.2606609807699,225.98489415366203 47.30850213218946,228.1913657132245 50.09341684432002,229.2945899040933 50.859808102366515,229.7640446634323 51.15125266520772,229.6936265386903 51.690964818699285,228.56693226256175 52.813566098047886,228.53172293663374 51.75573027716018,228.60214158067538 51.194429637514986,229.82272640999872 50.70868869929109,229.78751736468985 47.04944029846229,228.21483864881156 46.045575692958664,227.5575951309729 42.39712153514847,225.78537126557785 37.086353944498114,225.0459607118828 42.235207889112644,225.66800474275078" stroke="#4DD2FF" stroke-linecap="round" stroke-linejoin="round" stroke-width="0.5"><title>2024-12-17 8.6km</title><desc>1734409492000</desc></polyline><polyline fill="none" points="65.56795889767818,224.4033297716087 67.8811636751634,224.76767627996742 68.72429438843392,225.1672811601893 69.0053379595629,225.08500964994892 73.01561353175202,227.29457245534286 76.65837058785837,228.86945471394574 76.85293921397533,228.84594912418106 77.35017014743062,227.68241805276193 77.62040435045492,227.52963050700782 80.7551211049431,227.75293533166405 82.3224794822163,228.35233092975977 85.85714285710128,228.41109508152294 85.51124307728605,228.52862331936194 82.31167011405341,228.41109508152294 80.46326816570945,227.72942957554187 77.68526055914117,227.61190074232582 77.26369520247681,227.87046405980072 76.79889237339376,228.86945471394574 76.61513311538147,228.9282186730852 73.33989457524149,227.54138340037025 68.94048175081844,225.19078729808098 68.36758524057223,225.12026887387037 67.76226062589558,224.76767627996742 62.71428571426077,224.0742418794689 67.8379262026865,224.75592317992414 68.56215386663098,225.14377501880517 68.98371922335355,225.10851580010785 72.9831854273798,227.28281954357226 76.58270501100924,228.85770191950724 76.88536731828935,228.83419632795267 77.25288583437214,227.83520545056672 77.62040435045492,227.55313629288867 80.78754920931533,227.75293533166405 82.29005137784407,228.35233092975977 85.79228664841503,228.44635356204526 82.48462000396103,228.41109508152294 80.59298058314016,227.72942957554187 77.60959498235025,227.58839496517612 77.33936077932594,227.71767669616384 76.77727363718441,228.9282186730852 72.90751985047245,227.34158409367956 68.95129111898132,225.19078729808098 67.98925735638477,224.84994795570674 62.84399813169148,224.0977481802547 67.81630746647716,224.76767627996742 68.57296323479386,225.14377501880517 69.03776606393512,225.15552808991924 73.43717888835818,227.49437182156544 76.58270501100924,228.89296030023252 76.88536731828935,228.84594912418106 77.25288583437214,227.647159401502 78.50677253620233,227.67066516987688 77.3609795155935,227.69417093474476 76.8205111096031,228.98698261032405 72.87509174615843,227.32983118541597 68.99452859140001,225.17903422958625 68.648628811643,225.19078729808098 67.7946887302096,224.77942937910848 62.84399813169148,224.14476077129075 67.71902315336047,224.75592317992414" stroke="yellow" stroke-linecap="round" stroke-linejoin="round" stroke-width="0.5"><title>2024-12-15 13.0km</title><desc>1734235831000</desc></polyline><polyline fill="none" points="90.7169509594678,224.16570263789617 90.7169509594678,224.2948063468648 91.68843283579918,224.58822347370733 92.99453624733724,224.8581667477265 93.6745735607692,224.81122012459673 94.33302238804754,225.18679271779547 94.71082089550328,225.19852934690425 99.17963752668584,227.58104695043585 102.3855277185794,228.94246940364246 102.59061833686428,228.93073305345024 103.0223880597041,227.88619438531168 103.34621535183396,227.67493853179622 106.325426439289,227.8275122322084 108.04171108745504,228.4847510985128 111.57142857147846,228.55516938587243 107.97694562905235,228.4847510985128 106.41178038384533,227.83924866456073 103.29224413650809,227.62799274810823 102.99000533047365,227.76883005723357 102.47188166313572,228.9659421013639 98.70469083153876,227.42847301134316 95.19656183366897,225.46847157506272 93.5990138592897,224.84643009325373 88.42857142857974,224.0952823884145 91.17030916840304,224.37696319747192 93.5990138592897,224.77601014809625 94.68923240934964,225.12810955914028 98.00306503195316,226.9355408136762 101.31689765461488,228.39085999978124 102.13726012792904,228.90726035044645 102.57982409384567,228.8603149339615 102.97921108745504,227.88619438531168 103.31383262266172,227.65146564172755 106.27145522390492,227.78056649395148 107.87979744141921,228.44954194304592 109.11034115141956,228.46127832909406 107.79344349680468,228.41433277970646 106.24986673775129,227.80403936484072 103.43256929639028,227.62799274810823 102.99000533047365,227.75709361961344 102.4502931770403,228.91899670237035 98.49960021319566,227.31110834227002 94.71082089550328,225.22200260248792 93.57742537313607,224.84643009325373 91.87193496798864,224.63517016328115" stroke="#4DD2FF" stroke-linecap="round" stroke-linejoin="round" stroke-width="0.5"><title>2024-12-13 8.5km</title><desc>1734064159000</desc></polyline><polyline fill="none" points="116.64626493008109,224.42675733754004 119.02942168834852,224.77146170809283 120.66920844855485,225.2825737142266 124.07996490987716,227.2081437765737 127.89520210539922,228.89597002693336 128.20129563397495,228.9078560639755 128.69323166203685,227.77867859123216 128.99932519061258,227.62415894704463 132.00560091773514,227.77867859123216 133.51420473714825,228.39675567152153 137.28571428568102,228.4680721036566 133.87495782441692,228.44429996314284 131.89628180034924,227.7667924700654 128.9228018085123,227.61227281436732 128.6057763681165,227.71924797657994 128.24502328090603,228.74145146478259 127.98265739931958,228.97917226764548 127.20649166608928,228.53938850389386 124.06903299811529,227.315119209743 120.89877859503031,225.49652709104703 119.21526418783469,224.91409778151137 120.88784668326844,225.44898192099936 122.89931844256353,226.66137933138816 127.22835548955481,228.5275024393777 127.86240637017181,228.94351416980498 128.1794318104512,228.8721979501861 128.6713678385713,227.57661441105301 128.15756798704388,228.83653982842225 127.88427019369556,228.9078560639755 124.18928402720485,227.33889151847688 120.25379580270965,225.12805165251484 119.87117889191722,225.13993797026342 118.90917065925896,224.74768901680363 114.14285714284051,224.08205222216202" stroke="#4DD2FF" stroke-linecap="round" stroke-linejoin="round" stroke-width="0.5"><title>2024-12-11 6.6km</title><desc>1733890893000</desc></polyline><polyline fill="none" points="142.66332263243385,224.53971733461367 145.14446227933513,224.8224522221426 145.6861958266236,225.1405283662898 146.13041733548744,225.12874777975958 150.2042536115623,227.37882387964055 153.8447030497482,228.95739219000097 154.44060995185282,227.73223606444662 154.75481540930923,227.59087128531246 157.86436597112333,227.77935762943525 159.45706260029692,228.40371703956043 162.9674959871918,228.48617941886187 159.58707865170436,228.40371703956043 157.89686998398975,227.8382595658768 154.52728731941897,227.6968948815047 153.93138041731436,228.99273309124692 150.12841091497103,227.40238471655175 149.03410914930282,226.66021666802408 146.09791332262103,225.19943128572777 145.8595505618141,225.25833418322145 144.92776886036154,224.88135526006226 139.96548956661718,224.17451735658688 144.08266452647513,224.64574297667423 146.09791332262103,225.1169671923708 148.9365971107618,226.51885093048622 150.11757624399615,227.30814134790853 153.75802568218205,228.93383158479992 153.9855537720723,228.85136943892576 154.46227929374436,227.8029184066254 154.75481540930923,227.59087128531246 156.65088282502256,227.77935762943525 157.61516853934154,227.6968948815047 159.51123595505487,228.4154973820987 163.0,228.47439908160595 159.3270465489477,228.39193669614906 157.8426966292318,227.8029184066254 154.7331460674177,227.60265168843034 154.46227929374436,227.70867527670634 154.08306581055513,228.7689072500507 153.87720706261462,228.94561188784428 150.49678972712718,227.53196925671364 148.4707062600064,226.31858258601278 146.0762439807877,225.1405283662898 144.3426966292318,224.7046460804413 139.8571428571595,224.06849139856058 145.39365971111692,224.86957465425075 153.58467094704974,228.87493005640863 153.9855537720723,228.80424819338077 154.46227929374436,227.57909088133601 154.00722311396385,228.85136943892576 153.7796950240736,228.8984906704136 150.24759229534538,227.40238471655175 146.1087479935959,225.10518660409434 142.3274478330859,224.4690335337218" stroke="yellow" stroke-linecap="round" stroke-linejoin="round" stroke-width="0.5"><title>2024-12-09 12.1km</title><desc>1733738831000</desc></polyline><polyline fill="none" points="175.20156186883105,226.9753128762386 179.55311700550374,228.94375684059924 180.0548000537674,227.80538257640728 180.44742156990105,227.59193649550434 183.26120910188183,227.71051768689358 184.97347515815636,228.38642879095278 188.71428571426077,228.5168674455781 185.3333782145637,228.44571910175728 183.44661370670656,227.79352446830308 180.48014002962736,227.63936898268003 180.1093308199197,227.75795013873721 179.57492931192974,228.96747288455663 176.12858489289647,227.53264586672594 171.7443112966139,225.16100260331586 171.35168978048023,225.17286090755078 170.85000673215836,224.84082805534126 167.74175306316465,224.42578601601417 167.349131547031,224.2360521518276 167.16372694220627,224.39021093370684 165.8004577891552,224.17676027287962 169.02867914363742,224.50879451046058 171.7443112966139,225.11356937758683 174.60172344150487,226.52470179765078 175.40877878013998,227.11761084654427 179.38952470716322,228.94375684059924 179.65127238444984,228.83703459918615 180.1093308199197,227.734233914598 180.36017234408064,227.5445039942424 181.33081998105627,227.71051768689358 183.42480140028056,227.72237580118235 185.1697859162232,228.39828685490647 188.63794264162425,228.46943521988578 185.08253669046098,228.36271266045514 183.42480140028056,227.7460920270969 180.43651541665895,227.61565274088935 179.9893631344894,227.99511218578846 179.56402315868763,228.96747288455663 175.5069341591443,227.21247608942213 171.73340514337178,225.16100260331586 171.48256361921085,225.20843581490044 170.07566985319136,224.74596139891946 165.57142857142026,224.09375160525087 170.2828867645003,224.74596139891946 171.38440824014833,225.14914429822238 171.798842062708,225.13728599224123 173.20573582872748,225.90807404388033" stroke="#4DD2FF" stroke-linecap="round" stroke-linejoin="round" stroke-width="0.5"><title>2024-12-06 9.2km</title><desc>1733479157000</desc></polyline><polyline fill="none" points="13.633540372713469,255.05475980481424 16.576437587675173,255.407682762263 17.2039671408711,255.79589710431173 17.55019034264842,255.72531274946232 21.585854538192507,257.9839964541461 25.1130034061498,259.54858653746487 25.470046082977206,259.4427125095681 25.84872770990478,258.43102377407195 26.259867762040813,258.266329645543 29.181126026902348,258.40749605192104 30.825686235213652,259.0309795039939 34.42857142863795,259.14861761512293 30.868964135472197,259.0309795039939 29.15948707674397,258.4427876338159 26.205770386732183,258.2545657726296 25.82708875980461,258.489843064046 25.286115007067565,259.5721140895912 21.293728711723816,257.87812137723085 20.38489280710928,257.2546333732171 17.561009817698505,255.81942521558085 17.247245041129645,255.8429533233284 16.457423362066038,255.46650317846797 11.285714285739232,254.71360019611893 16.457423362066038,255.4547390969674 18.08034462033538,256.13705437451426 17.60428771795705,255.81942521558085 13.644359847705346,255.0665239161317" stroke="#4DD2FF" stroke-linecap="round" stroke-linejoin="round" stroke-width="0.5"><title>2024-12-03 5.6km</title><desc>1733220329000</desc></polyline><polyline fill="none" points="40.0209790210356,255.1720454476308 42.21118881116854,255.4066694102221 42.95564435562119,255.8407228193537 43.90509490511613,255.95803434615664 44.93006993009476,256.6267083799321 46.33266733266646,257.1546069270844 47.2281718282029,257.8467378964124 51.07992007996654,259.5359939294576 51.56543456547661,258.4919419923972 51.953846153919585,258.2338606712583 54.89930069935508,258.39809428820445 56.71188811195316,259.06675796023046 59.247352647420485,259.0432961250772 60.14285714289872,259.11368162008876 59.87312687316444,259.1840670836391 56.603996003977954,259.09021979190584 54.89930069935508,258.44501814730756 51.94305694306968,258.28078457928495 51.619380619435105,258.4332871838269 51.12307692313334,259.54772481077816 50.88571428571595,259.57118657078536 46.893706293718424,257.85846890359244 44.73586413584417,256.6267083799321 42.11408591410145,255.45359416077554 37.0,254.73799019510625 42.297502497560345,255.43013178724505 43.82957042963244,256.13400147245557 42.09250749251805,255.48878771453747 37.0215784215834,254.71452771493932 40.15044955047779,255.1485830321326" stroke="#4DD2FF" stroke-linecap="round" stroke-linejoin="round" stroke-width="0.5"><title>2024-12-02 6.1km</title><desc>1733112856000</desc></polyline><polyline fill="none" points="62.71428571426077,253.95551780030655 63.40000000002328,254.24132732491125 64.97714285721304,256.3538173175475 64.84000000002561,256.2171275982837 65.13714285718743,256.20470125461 65.52571428572992,255.73249950907484 66.94285714288708,255.94374782366503 67.46857142855879,256.2916856408556 68.52000000001863,256.50293324714585 69.65142857143655,257.21123209224606 71.02285714284517,257.7331345797138 71.74285714287544,258.3668711189821 75.85714285715949,260.24321420525666 76.18857142858906,260.24321420525666 76.6914285714156,259.08758817857597 77.02285714284517,258.9260484187398 80.18857142858906,259.08758817857597 82.14285714284051,259.78344997085514 85.85714285715949,259.8207281992363 82.16571428574389,259.8083021240309 80.20000000001164,259.11244043541956 77.05714285717113,258.9509006996668 76.71428571426077,259.1000143074489 76.09714285715017,260.3301964854181 72.16571428568568,258.6775254058448 69.50285714288475,257.1739532806678 66.84000000002561,255.95617418676557 63.60571428574622,255.5709564997378" stroke="#4DD2FF" stroke-linecap="round" stroke-linejoin="round" stroke-width="0.5"><title>2024-11-29 4.6km</title><desc>1732853630000</desc></polyline><polyline fill="none" points="90.38851674646139,256.39640863385284 90.22241968562594,256.4927272200148 90.93110047851223,256.5047670392232 90.32207792211557,256.4325281104102 90.87573479156708,256.480687399875 90.80929596722126,256.6492448000499 91.69514695834368,255.50545899033023 93.7768967874581,255.36098020688223 94.44128503079992,255.72217692330014 95.38250170880929,255.91481484193355 99.0698564593331,258.0217770858435 102.76828434719937,259.6230500198435 103.32194121670909,258.45520591216336 103.6541353383218,258.2986900811957 106.79890635685297,258.45520591216336 108.39343814080348,259.10534697216644 111.57142857147846,259.14146584326227 108.4598769651493,259.0812677202921 106.56637047167169,258.4190868877049 103.60984278883552,258.2505313334841 103.34408749145223,258.40704721107613 102.76828434719937,259.6110104328982 98.84839371155249,258.0217770858435 94.79562542721396,255.75829655052803 93.57758031447884,255.38506001309725 88.42857142857974,254.66266426586662 93.68831168836914,255.36098020688223 94.36377306911163,255.71013704575307 95.07245386193972,255.80645604094025 97.92932330834446,257.3234726427472 93.65509227616712,255.40913981571794 90.87573479156708,255.03590247182" stroke="#4DD2FF" stroke-linecap="round" stroke-linejoin="round" stroke-width="0.5"><title>2024-11-28 6.3km</title><desc>1732767063000</desc></polyline><polyline fill="none" points="114.29817833175184,254.37745033274405 117.7152444870444,254.95446389987774 118.49185043148464,255.3625943830266 118.85426653880859,255.33444748146576 122.41371045063715,257.0795474473125 123.64333652920322,257.8957983490254 128.14765100670047,259.86604461500247 128.7818791946047,258.50094760286447 129.24784276128048,258.2476295464294 132.67785234894836,258.43058151013975 134.25695110257948,259.0920217468374 135.62895493762335,259.31719236285426 137.28571428568102,259.2749728927738 134.7876318312483,259.2327534132928 132.91083413228625,258.50094760286447 129.37727708532475,258.3179957073298 128.84659635665594,258.529094032594 128.14765100670047,259.9082639529661 123.24209012463689,257.83950529657886 118.85426653880859,255.33444748146576 118.53068072866881,255.40481472751708 117.41754554171348,254.91224345473165 114.14285714284051,254.4759649690095" stroke="#4DD2FF" stroke-linecap="round" stroke-linejoin="round" stroke-width="0.5"><title>2024-11-25 4.0km</title><desc>1732507947000</desc></polyline><polyline fill="none" points="139.8571428571595,253.18461767084955 144.57486814958975,253.79047882124723 145.85645494156051,254.53770570833876 146.56225636333693,254.45692452257208 147.86241687694564,254.88102547932067 149.2182985554682,255.8503966031276 151.78147213952616,256.96113008736575 153.76886035315692,258.33439428484417 158.2637009860482,260.0913545111107 159.76817243755795,261.00012257375056 160.15822059172206,260.83856402969104 160.99403806473128,258.8796590219572 163.0,258.83926907903515 161.06833295116667,258.9402439250698 159.99105709709693,261.10109661487513 154.0660398992477,258.63731927420304 146.5251089199446,254.5982915818604 146.02361843630206,254.69926800769463 147.8066957120318,255.04258757403295 148.67966062831692,255.8503966031276 150.22127952310257,256.27449537967914 153.73171290988103,258.3747843029705 159.3595505618723,260.87895367472083 160.15822059172206,260.95973294676514 160.99403806473128,258.8594640513038 160.1024994268082,261.10109661487513 154.15890850732103,258.59692929522134" stroke="#4DD2FF" stroke-linecap="round" stroke-linejoin="round" stroke-width="0.5"><title>2024-11-20 4.0km</title><desc>1732095798000</desc></polyline><polyline fill="none" points="166.92337455425877,254.62387657201907 170.34011076547904,255.11832506107748 171.1635687732487,255.53259166466887 171.72892800241243,255.5860453502537 174.88756543508498,257.1495586066303 175.72331386088626,257.79099600003974 180.2216068583657,259.78210996436246 180.43054396478692,259.755383748794 180.93445110385073,258.57942632028426 181.30316364462487,258.29879897637875 184.71989985584514,258.4858839211083 186.51430088764755,259.2074954514828 188.71428571426077,259.2876743312081 186.47742963349447,259.2208586006018 184.52325316739734,258.4725207172305 181.37690615281463,258.31216219317866 180.86070859566098,258.6596054807451 180.38138229266042,259.80883617600193 175.80934678704944,257.92462850161246 172.29428723157616,255.9602207034477 170.315529929474,255.17177887016442 165.57142857142026,254.4768781097082" stroke="#4DD2FF" stroke-linecap="round" stroke-linejoin="round" stroke-width="0.5"><title>2024-11-19 4.1km</title><desc>1731989484000</desc></polyline></svg>