<?xml version="1.0" encoding="utf-8" ?>
<svg baseProfile="full" height="300mm" version="1.1" viewBox="0,0,200,300" width="200mm" xmlns="http://www.w3.org/2000/svg" xmlns:ev="http://www.w3.org/2001/xml-events" xmlns:xlink="http://www.w3.org/1999/xlink"><defs /><rect fill="#222222" height="300" width="200" x="0" y="0" /><text fill="#FFFFFF" style="font-size:12px; font-family:Arial; font-weight:bold;" x="10" y="20">Over 4km Runs</text><text fill="#FFFFFF" style="font-size:4px; font-family:Arial" x="10" y="280">ATHLETE</text><text fill="#FFFFFF" style="font-size:9px; font-family:Arial" x="10" y="290">Fake David</text><text fill="#FFFFFF" style="font-size:4px; font-family:Arial" x="65" y="280">SPECIAL TRACKS</text><rect fill="yellow" height="2.6" width="2.6" x="65" y="283" /><text fill="#FFFFFF" style="font-size:3px; font-family:Arial" x="70" y="285.5">Over 10.0 km</text><rect fill="red" height="2.6" width="2.6" x="65" y="287" /><text fill="#FFFFFF" style="font-size:3px; font-family:Arial" x="70" y="289.5">Over 15.0 km</text><text fill="#FFFFFF" style="font-size:4px; font-family:Arial" x="120" y="280">STATISTICS</text><text fill="#FFFFFF" style="font-size:3px; font-family:Arial" x="120" y="285">Number: 16</text><text fill="#FFFFFF" style="font-size:3px; font-family:Arial" x="120" y="290">Weekly: 2.7</text><text fill="#FFFFFF" style="font-size:3px; font-family:Arial" x="141" y="285">Total: 116.6 km</text><text fill="#FFFFFF" style="font-size:3px; font-family:Arial" x="141" y="290">Avg: 7.3 km</text><text fill="#FFFFFF" style="font-size:3px; font-family:Arial" x="167" y="285">Min: 4.0 km</text><text fill="#FFFFFF" style="font-size:3px; font-family:Arial" x="167" y="290">Max: 13.0 km</text><polyline fill="none" points="17.935867537278682,48.94677605056495 21.638292910414748,49.562951075829915 22.677238805918023,50.15858562439098 23.206156716449186,50.096968316982384 24.282882462721318,50.548828251470695 28.910914179170504,53.17781681672204 36.429104477516375,56.62832626316231 36.97691231337376,56.64886488058255 37.77028917905409,54.69768939449568 38.393656716449186,54.34853021934396 43.36170708946884,54.67715063171636 46.32742537301965,55.82731899054488 52.75,55.9300123606954 46.57299440295901,55.82731899054488 43.55060634331312,54.71822815577616 38.31809701491147,54.3896077923273 37.808069029822946,54.69768939449568 37.14692164177541,56.36132409752463 36.63689365668688,56.731019334940356 29.572061567101628,53.75290472342749 24.547341417870484,50.87745319324313 21.676072761183605,49.70672505021503 12.25,48.22790344704117 21.354944029822946,49.54241193050984 24.981809701421298,50.87745319324313 28.797574626863934,53.17781681672204 36.58022388047539,56.77209655294428 36.95802238804754,56.66940349644574 37.826958955149166,54.71822815577616 38.355876865563914,54.47176291987125 43.512826492544264,54.75930567366595 46.34631529846229,55.847857667613425 52.69333022378851,55.90947368968045 50.766557835857384,56.07378301458084 46.44076492532622,55.847857667613425 43.49393656710163,54.67715063171636 38.37476679100655,54.3896077923273 37.8458488805918,54.61553433422523 36.97691231337376,56.60778764418501 36.410214552190155,56.68994211083918 30.28987873136066,54.01990941520489 28.287546641775407,52.78757791110547 21.638292910414748,49.624568502622424 13.213386193965562,48.43329581076978" stroke="#4DD2FF" stroke-linecap="round" stroke-linejoin="round" stroke-width="0.5"><title>2024-12-27 9.1km</title><desc>1735273142000</desc></polyline><polyline fill="none" points="89.82032710278872,54.93843435867166 88.34415887854993,54.52689149833168 86.77336448593996,54.712085861378 83.08294392528478,54.36227418256749 81.77710280381143,56.70806167108822 74.90724299068097,53.909576058140374 68.09415887843352,50.1644994791568 67.54532710276544,50.22623192232277 66.06915887852665,49.56775181731791 57.25,48.168476381353685 63.4196261682082,49.15620095444319 64.0252336448757,49.05331314289651 68.35911214957014,50.14392199505528 73.18504672893323,52.572054537944496 73.90420560748316,53.23052748038026 81.36074766353704,56.64633067660907 81.90957943920512,56.60517667265958 82.66658878501039,54.712085861378 83.27219626167789,54.34169701115752 88.4955607476877,54.670931569242384 91.69392523367424,55.8644035525067 97.75,56.02901997312438 91.06939252337907,55.74094117269851 88.72266355145257,54.73266300513933 83.2532710279338,54.36227418256749 82.85584112151992,54.48573717859108 82.0042056075763,56.66690767626278 81.62570093455724,56.831523618646315 79.99813084118068,55.8644035525067 74.6801401869161,53.76553559023887 68.4537383178249,50.123344509425806 64.17663551401347,49.15620095444319 59.69135514018126,48.55945111393521" stroke="#4DD2FF" stroke-linecap="round" stroke-linejoin="round" stroke-width="0.5"><title>2024-12-25 6.6km</title><desc>1735101299000</desc></polyline><polyline fill="none" points="106.4553320860723,48.524867201180314 106.30378858745098,48.89561048790347 106.55004677257966,48.81322313382407 106.90996258181985,48.21591408236418 108.06548175856005,49.01919147299486 109.35360149666667,49.08098194478953 113.31267539761029,50.090224362909794 120.32156220765319,53.921192657522624 126.76216089806985,56.70170091437467 127.02736202056985,56.68110465972859 127.82296538818628,54.72445347069879 128.41019644530024,54.41550728029688 133.48690364824142,54.70385706872912 136.7640318054473,55.939638470168575 142.75,56.042620004329365 136.47988774557598,55.87784953130176 133.2974742751103,54.68326066527516 128.23971000942402,54.43610370370152 127.82296538818628,54.64206785365241 126.9705332085723,56.57812336338975 126.62956033670343,56.63991214577982 119.63961646403186,53.75642092015187 114.39242282509804,50.70812606564141 111.4183816651348,49.51351486086787 102.25,48.23651096770482 105.35664172121324,48.710238906685845 106.8341908325674,48.66904520508251 112.04349859675858,49.69888590347546 114.41136576235294,50.625739251758205 120.90879326465074,54.209542961543775 126.4590739008272,56.68110465972859 127.04630495794117,56.619315886549884 127.99345182417892,54.51848938209878 129.92563143116422,54.51848938209878 128.05028063617647,54.456700125621865 126.95159027120098,56.78408591763582 120.13213283440564,53.9623855764803 116.45720299344976,51.79974903205584 111.60781103838235,49.65769234918116 102.30682881188113,48.25710785150295 110.09237605240196,49.36933729737939" stroke="#4DD2FF" stroke-linecap="round" stroke-linejoin="round" stroke-width="0.5"><title>2024-12-18 8.3km</title><desc>1734495982000</desc></polyline><polyline fill="none" points="151.51912313431967,46.841497521687415 150.82019589550328,47.00581313892326 151.06576492532622,46.800418602026184 150.82019589550328,46.964734243796556 150.66907649242785,46.73880021108198 150.74463619396556,46.944194793934 152.27472014923114,48.01224415759498 155.6182369402377,49.49107490615279 156.41161380603444,50.74396697136399 157.2994402984623,51.44229778213776 158.28171641787048,51.58607155297068 165.21431902982295,55.324163276774925 171.48577425372787,58.137968116570846 171.9391324626049,58.158506732448586 172.82695895526558,56.18679263049853 173.37476679100655,55.87871102831559 178.62616604473442,56.207331391764455 181.93190298508853,57.35749957920052 187.75,57.46019293401332 181.421875,57.35749957920052 178.62616604473442,56.227870151458774 173.28031716425903,55.89924981247168 172.73250932828523,56.207331391764455 171.7880130596459,58.240661180665484 162.5130597015377,54.35883675208606 161.87080223869998,53.72213017303147 159.5473414179869,52.40763451938983 156.75163246272132,51.29852393628971 147.25,49.75808516799589 156.27938432828523,50.949358569909236 157.8661380597623,51.647688860379276 158.2061567164492,51.544993340357905 165.28987873136066,55.40631856958498 170.16347947751638,57.33696090361627 171.5046641791705,58.158506732448586 172.01469216414262,58.035275014161016 172.95918843278196,56.06356003093242 174.92374067159835,56.00194371053658 173.0725279849721,56.12517633760581 172.09025186568033,58.26119978893257 171.2402052237885,58.19958395966387 164.8365205223672,55.447396206858684 163.07975746272132,54.29722005063377 156.69496268650983,51.19582828620332 147.401119402959,49.90185981724062 156.41161380603444,50.99043687125959" stroke="#4DD2FF" stroke-linecap="round" stroke-linejoin="round" stroke-width="0.5"><title>2024-12-17 8.6km</title><desc>1734409492000</desc></polyline><polyline fill="none" points="17.24392807111144,113.77725567176822 21.29203643160872,114.41486206138507 22.76751517993398,115.11417060176609 23.259341429336928,114.97019545886724 30.277323680580594,118.83693036828481 36.65214852883946,121.59297432085441 36.992643624544144,121.55183953874803 37.86279775807634,119.51566016378638 38.33570761338342,119.24828195870214 43.82146193366498,119.63906540184689 46.56433909398038,120.68800769853988 52.75,120.79084496412543 52.14467538532335,120.9965193803364 46.545422699768096,120.79084496412543 43.31071929004975,119.59793032862945 38.44920597865712,119.3922548705159 37.71146660449449,119.84474067611154 36.89806165348273,121.59297432085441 36.57648295199033,121.6958112493594 30.844815506832674,119.26884952209366 23.14584306406323,115.15530634309107 22.14327417104505,115.03189910072251 21.083956095390022,114.41486206138507 12.25,113.20135186050902 21.216370854876004,114.39429413630569 22.483769266749732,115.07303485434386 23.22150864091236,115.01133122164174 30.220574497943744,118.81636277270445 36.51973376935348,121.57240693057247 37.04939280718099,121.53127214536653 37.69255021016579,119.78303810993384 38.33570761338342,119.28941708401544 43.87821111641824,119.63906540184689 46.50758991134353,120.68800769853988 52.6365016347263,120.85254730502493 46.84808500704821,120.79084496412543 43.537716020597145,119.59793032862945 38.31679121917114,119.35111976049666 37.84388136386406,119.57736278974335 36.86022886517458,121.6958112493594 30.08815973845776,118.9192007353995 23.164759458275512,115.15530634309107 21.481200373731554,114.55883749392524 12.476996730547398,113.24248788689147 21.178538066335022,114.41486206138507 22.502685660962015,115.07303485434386 23.316090611973777,115.09360272881167 31.015063054743223,119.18657925919979 36.51973376935348,121.63410909684899 37.04939280718099,121.55183953874803 37.69255021016579,119.4539575240633 39.886851938441396,119.49509261873027 37.88171415240504,119.53622770725633 36.935894441907294,121.79864813950553 30.031410555937327,118.89863314591639 23.24042503500823,115.13473847322166 22.635100420447998,115.15530634309107 21.140705277910456,114.43542998489283 12.476996730547398,113.32475992120453 21.00829051854089,114.39429413630569" stroke="yellow" stroke-linecap="round" stroke-linejoin="round" stroke-width="0.5"><title>2024-12-15 13.0km</title><desc>1734235831000</desc></polyline><polyline fill="none" points="61.25466417905409,113.36140818776039 61.25466417905409,113.5873396784591 62.9547574626049,114.10081965045538 65.24043843278196,114.57322037997073 66.43050373136066,114.49106378949364 67.58278917905409,115.14831582759507 68.24393656710163,115.1688549285318 76.06436567159835,119.33826073470118 81.67467350745574,121.72075002783095 82.03358208958525,121.70021141500911 82.78917910449672,119.87226874574844 83.35587686568033,119.50257100210001 88.56949626875576,119.76957497782132 91.57299440307543,120.91974299385038 97.75,121.04297499672975 91.45965485076886,120.91974299385038 88.72061567171477,119.79011373444519 83.26142723893281,119.42041588063876 82.73250932828523,119.66688117162266 81.82579291041475,121.76182724883256 75.23320895526558,119.0712563413108 69.09398320887703,115.64125382780912 66.29827425372787,114.55268123465066 57.25,113.23817275118199 62.048041044618,113.73111416703614 66.29827425372787,114.42944633061416 68.20615671633277,115.04562029996305 74.00536380591802,118.20862499537179 79.80457089550328,120.75543357105926 81.24020522390492,121.65913418475247 82.01469216414262,121.57697970588924 82.71361940295901,119.87226874574844 83.29920708958525,119.4614934444835 88.4750466417754,119.68741993587173 91.28964552248362,120.85812697178335 93.44309701491147,120.8786656473676 91.1385261194082,120.79651093593566 88.43726679100655,119.72849745993153 83.50699626875576,119.42041588063876 82.73250932828523,119.64634240577288 81.7880130597623,121.67967280061566 74.87430037313607,118.86586817042553 68.24393656710163,115.20993312580686 66.26049440295901,114.55268123465066 63.27588619396556,114.18297635720228" stroke="#4DD2FF" stroke-linecap="round" stroke-linejoin="round" stroke-width="0.5"><title>2024-12-13 8.5km</title><desc>1734064159000</desc></polyline><polyline fill="none" points="106.63096362771466,113.81825391210441 110.80148795468267,114.42148656057543 113.67111478501465,115.31593257132045 119.63993859232869,118.68568018040969 126.31660368444864,121.6393761185609 126.8522673593834,121.66017668337736 127.7131554086227,119.6841161060729 128.24881908355746,119.413706728752 133.5098016060656,119.6841161060729 136.14985828998033,120.76575099659385 142.75,120.89055475281202 136.78117619268596,120.84895350690931 133.31849315064028,119.66331539402017 128.11490316491108,119.39290599655942 127.56010864430573,119.58011253042787 126.9287907416001,121.36896863479342 126.4696504487656,121.78498003979621 125.11136041569989,121.01535845320905 119.62080774677452,118.87288718846685 114.07286254130304,115.69035098075983 111.12671232875437,114.67109968904697 114.05373169574887,115.6071469331655 117.57380727445707,117.72884240133862 125.14962210680824,120.99455784031306 126.25921114778612,121.7225783685717 126.81400566839147,121.59777498424228 127.67489371751435,119.3305037907412 126.77574397728313,121.53537327115191 126.29747283889446,121.66017668337736 119.83124704763759,118.91448872874025 112.94414265477099,115.04551896330668 112.27456306095701,115.06632001936669 110.59104865370318,114.37988435081206 102.25,113.21501996018924" stroke="#4DD2FF" stroke-linecap="round" stroke-linejoin="round" stroke-width="0.5"><title>2024-12-11 6.6km</title><desc>1733890893000</desc></polyline><polyline fill="none" points="152.16081460670102,114.01593390700873 156.50280898879282,114.51071996017708 157.45084269659128,115.06735321243468 158.22823033714667,115.04673718601407 165.3574438202195,118.98437036082032 171.72823033703025,121.74686490393651 172.77106741571333,119.6028416842164 173.32092696626205,119.3554533207498 178.76264044945128,119.68530442295014 181.54985955054872,120.77793339066557 187.69311797758564,120.92224255444307 181.7773876405554,120.77793339066557 178.81952247198205,119.78838281173375 172.9227528090123,119.54099461407168 171.87991573032923,121.808711481106 165.22471910109743,119.02560182540037 163.30969101120718,117.7268077404733 158.1713483146159,115.1704333214584 157.75421348318923,115.27351339207962 156.1235955056036,114.61380027655105 147.4396067415364,113.37683394546912 154.64466292131692,114.20147878062562 158.1713483146159,115.02612115808006 163.1390449438477,117.47941769979661 165.20575842703693,118.86067593027838 171.5765449438477,121.70563384484558 171.97471910109743,121.56132508956944 172.80898876406718,119.72653578304744 173.32092696626205,119.3554533207498 176.63904494373128,119.68530442295014 178.3265449438477,119.54099461407168 181.64466292131692,120.79854899011843 187.75,120.90162696424522 181.32233146065846,120.7573177896993 178.72471910121385,119.72653578304744 173.28300561802462,119.37606902618427 172.80898876406718,119.56161030568182 172.14536516845692,121.41701625903079 171.78511235956103,121.72624937517685 165.86938202241436,119.25237477067276 162.32373595505487,117.12894809694262 158.13342696637847,115.06735321243468 155.09971910109743,114.3045592122071 147.25,113.19128851890855 156.9389044943964,114.59318421636999 171.27317415724974,121.60255617015355 171.97471910109743,121.47886290986207 172.80898876406718,119.33483761378739 172.01264044945128,121.56132508956944 171.61446629208513,121.64378724466951 165.43328651681077,119.02560182540037 158.19030898879282,115.005505128589 151.57303370779846,113.89223725545162" stroke="yellow" stroke-linecap="round" stroke-linejoin="round" stroke-width="0.5"><title>2024-12-09 12.1km</title><desc>1733738831000</desc></polyline><polyline fill="none" points="29.102733270497993,183.2782261048269 36.71795475971885,186.72300304246892 37.59590009425301,184.73084808012936 38.282987747341394,184.35731743855285 43.207115928293206,184.56483452346583 46.203581526875496,185.7476789555949 52.75,185.97594660117466 46.833411875530146,185.8514369994955 43.53157398675103,184.71009639093245 38.34024505189154,184.4403242910921 37.6913289349759,184.6478413142031 36.756126296008006,186.76450611939072 30.725023562670685,184.25355883817247 23.05254476913251,180.10318312722666 22.36545711592771,180.1239351596305 21.48751178139355,179.54287766826747 16.04806786053814,178.81655409943778 15.360980207333341,178.48451983711857 15.036522148991935,178.7542977053963 12.650801131036133,178.3807590489596 18.300188501481898,178.96181896471535 23.05254476913251,180.02017498220084 28.053016022662632,182.4896567172982 29.46536286524497,183.52724755287636 36.431668237550184,186.72300304246892 36.889726672903635,186.5362391200033 37.6913289349759,184.60633792195586 38.13030160230119,184.27431056133355 39.828934966935776,184.56483452346583 43.49340245046187,184.58558622347482 46.547125353477895,185.76843056749203 52.616399622987956,185.89294020622037 46.39443920832127,185.70617572721676 43.49340245046187,184.62708961883618 38.26390197919682,184.3988208679657 37.481385485385545,185.06287489653914 36.73704052774701,186.76450611939072 29.63713477854617,183.69326172789442 23.033459000987932,180.10318312722666 22.594486333662644,180.18619124749966 20.13242224312853,179.37686101952568 12.25,178.23549388059473 20.495051837991923,179.37686101952568 22.422714420361444,180.08243109329487 23.1479736098554,180.06167905783514 25.610037700389512,181.41055814819993" stroke="#4DD2FF" stroke-linecap="round" stroke-linejoin="round" stroke-width="0.5"><title>2024-12-06 9.2km</title><desc>1733479157000</desc></polyline><polyline fill="none" points="61.35869565210305,178.84582965842856 66.50876577827148,179.46344483396388 67.6069424963789,180.1428199325601 68.21283309953287,180.01929731157725 75.27524544170592,183.97199379475205 81.44775596063118,186.71002644057444 82.0725806450937,186.52474689175142 82.73527349217329,184.75429160463682 83.45476858341135,184.4660768797039 88.5669705469627,184.71311809087638 91.44495091156568,185.80421413200384 97.75,186.01008082648332 91.52068723703269,185.80421413200384 88.52910238422919,184.77487835918146 83.3600981766358,184.44549010209448 82.69740532943979,184.85722536209505 81.75070126226638,186.75119965679187 74.76402524544392,183.78671241016127 73.17356241226662,182.6956084031408 68.23176718084142,180.1839941272774 67.68267882184591,180.22516831583926 66.30049088352825,179.56638056231895 57.25,178.24880034320813 66.30049088352825,179.5457934196893 69.14060308551416,180.7398451554036 68.30750350630842,180.1839941272774 61.377629733411595,178.86641685322684" stroke="#4DD2FF" stroke-linecap="round" stroke-linejoin="round" stroke-width="0.5"><title>2024-12-03 5.6km</title><desc>1733220329000</desc></polyline><polyline fill="none" points="107.53671328676865,179.0510795333248 111.3695804196177,179.46167146788503 112.67237762233708,180.22126493384712 114.33391608390957,180.42656010575593 116.12762237770949,181.59673966484843 118.58216783218086,182.52056212238676 120.14930069935508,183.7317913187144 126.8898601399269,186.68798937654356 127.7395104895113,184.86089848667325 128.41923076938838,184.4092561746802 133.5737762239296,184.69666500433232 136.74580419587437,185.86682643038512 141.1828671329422,185.8257682188705 142.75,185.94894283515168 142.27797202800866,186.0721173963393 136.55699300696142,185.90788463580247 133.5737762239296,184.77878175776277 128.4003496504156,184.49137301373412 127.83391608402599,184.75825257167162 126.96538461546879,186.70851841883268 126.55000000004657,186.74957649887074 119.56398601399269,183.75232058127585 115.78776223771274,181.59673966484843 111.19965034967754,179.54378978135355 102.25,178.29148284142138 111.5206293707015,179.5027306276752 114.20174825179856,180.73450257678633 111.16188811184838,179.60537850041874 102.28776223771274,178.25042350112926 107.76328671327792,179.01002030620293" stroke="#4DD2FF" stroke-linecap="round" stroke-linejoin="round" stroke-width="0.5"><title>2024-12-02 6.1km</title><desc>1733112856000</desc></polyline><polyline fill="none" points="147.25,176.922156150511 148.44999999995343,177.42232281857287 151.20999999996275,181.1191803056863 150.96999999997206,180.87997329697828 151.4899999999907,180.85822719553835 152.1700000000419,180.03187414087006 154.65000000002328,180.4015586913738 155.56999999994878,181.01044987147907 157.40999999991618,181.38013318247977 159.38999999989755,182.61965616140515 161.78999999992084,183.53298551446642 163.04999999993015,184.64202445818228 170.25,187.92562485917006 170.8299999999581,187.92562485917006 171.70999999996275,185.90327931247884 172.28999999992084,185.62058473276556 177.8299999999581,185.90327931247884 181.25,187.12103744896012 187.75,187.18627434864175 181.29000000003725,187.16452871702495 177.84999999997672,185.94677076194785 172.34999999997672,185.66407622440602 171.75,185.9250250380137 170.6699999999255,188.0778438494599 163.78999999992084,185.18566946018836 159.13000000000466,182.5544182411395 154.46999999997206,180.423304826807 148.81000000005588,179.74917387450114" stroke="#4DD2FF" stroke-linecap="round" stroke-linejoin="round" stroke-width="0.5"><title>2024-11-29 4.6km</title><desc>1732853630000</desc></polyline><polyline fill="none" points="15.679904306307435,246.19371510925703 15.389234449830838,246.36227263504406 16.629425837425515,246.38334231865883 15.563636363716796,246.2569241932215 16.532535885227844,246.34120294978493 16.416267942637205,246.63617840012012 17.966507177101448,244.63455323310336 21.609569377964363,244.3817153620621 22.772248803870752,245.0138096157898 24.41937799041625,245.35092597339826 30.87224880384747,249.03810990024067 37.344497607671656,251.84033753472613 38.31339712929912,249.7966103462968 38.8947368421359,249.5227076420997 44.39808612444904,249.7966103462968 47.18851674639154,250.9343572013022 52.75,250.99756522572716 47.30478468898218,250.89221851051843 43.9911483253818,249.73340205350542 38.81722488044761,249.4384298336081 38.352153110085055,249.71233261939778 37.344497607671656,251.81926825757546 30.484688995289616,249.03810990024067 23.392344497609884,245.07701896343497 21.26076555030886,244.42385502292018 12.25,243.15966246527387 21.454545454587787,244.3817153620621 22.636602870887145,244.9927398300788 23.876794258365408,245.16129807165998 28.876315789530054,247.8160771248222 21.396411483292468,244.4659946775064 16.532535885227844,243.8128293257032" stroke="#4DD2FF" stroke-linecap="round" stroke-linejoin="round" stroke-width="0.5"><title>2024-11-28 6.3km</title><desc>1732767063000</desc></polyline><polyline fill="none" points="57.52181208063848,242.66053808230208 63.50167785247322,243.67031182476785 64.86073825519998,244.3845401702565 65.494966443046,244.33528309257235 71.72399328870233,247.3892080327787 73.8758389261784,248.81764711075812 81.75838926178403,252.2655780762434 82.86828859068919,249.8766583049728 83.6837248322554,249.43335170624778 89.68624161067419,249.75351764273364 92.44966442952864,250.9110380569473 94.85067114094272,251.30508663496585 97.75,251.2312025623396 93.37835570471361,251.1573184732406 90.09395973163191,249.8766583049728 83.91023489937652,249.55649248781265 82.98154362419154,249.9259145570104 81.75838926178403,252.33946191769792 73.17365771823097,248.71913426899118 65.494966443046,244.33528309257235 64.92869127530139,244.45842577313306 62.98070469812956,243.59642604575492 57.25,242.832938695763" stroke="#4DD2FF" stroke-linecap="round" stroke-linejoin="round" stroke-width="0.5"><title>2024-11-25 4.0km</title><desc>1732507947000</desc></polyline><polyline fill="none" points="102.25,240.57308092399035 110.50601926166564,241.63333793717902 112.74879614776,242.94098498957464 113.98394863586873,242.79961791448295 116.25922953453846,243.54179458881845 118.63202247198205,245.23819405544782 123.11757624405436,247.18197765288642 126.59550561802462,249.58518999847 134.46147672552615,252.65987039441825 137.0943017656682,254.25021450404893 137.7768860354554,253.9674870519375 139.23956661322154,250.53940328842145 142.75,250.4687208883115 139.36958266457077,250.64542686886853 137.4843499198323,254.42691907600965 127.11556982353795,250.1153087298444 113.91894060990307,243.04701026825933 113.04133226338308,243.2237190134474 116.16171749599744,243.82452825453947 117.68940609961282,245.23819405544782 120.38723916537128,245.98036691441666 126.5304975922918,249.65587253018748 136.37921348318923,254.03816893073963 137.7768860354554,254.17953265682445 139.23956661322154,250.50406208977802 137.67937399691436,254.42691907600965 127.27808988769539,250.04462626660825" stroke="#4DD2FF" stroke-linecap="round" stroke-linejoin="round" stroke-width="0.5"><title>2024-11-20 4.0km</title><desc>1732095798000</desc></polyline><polyline fill="none" points="149.61590546998195,243.091784001037 155.59519383963197,243.95706885689287 157.03624535317067,244.68203541319235 158.02562400419265,244.77557936296216 163.55323951144237,247.51172756162123 165.0157992565073,248.6342430000659 172.88781200209633,252.1186924376525 173.25345193839166,252.07192156041856 174.13528943178244,250.01399606050109 174.78053637815174,249.52289820867009 180.75982474780176,249.85029686195776 183.90002655342687,251.11311704010586 187.75,251.25343007961055 183.83550185873173,251.1365025510895 180.41569304303266,249.8269112551643 174.9095857674256,249.54628383807722 174.00624004250858,250.15430959130754 173.16741901217028,252.16546330801793 165.1663568773074,248.86809987784363 159.01500265533105,245.43038623104803 155.5521773765795,244.05061302278773 147.25,242.83453669201117" stroke="#4DD2FF" stroke-linecap="round" stroke-linejoin="round" stroke-width="0.5"><title>2024-11-19 4.1km</title><desc>1731989484000</desc></polyline></svg>