<?xml version="1.0" encoding="utf-8" ?>
<svg baseProfile="full" height="300mm" version="1.1" viewBox="0,0,200,300" width="200mm" xmlns="http://www.w3.org/2000/svg" xmlns:ev="http://www.w3.org/2001/xml-events" xmlns:xlink="http://www.w3.org/1999/xlink"><defs /><rect fill="#222222" height="300" width="200" x="0" y="0" /><text fill="#FFFFFF" style="font-size:12px; font-family:Arial; font-weight:bold;" x="10" y="20">Over 4km Runs</text><text fill="#FFFFFF" style="font-size:4px; font-family:Arial" x="10" y="280">ATHLETE</text><text fill="#FFFFFF" style="font-size:9px; font-family:Arial" x="10" y="290">Fake David</text><text fill="#FFFFFF" style="font-size:4px; font-family:Arial" x="65" y="280">SPECIAL TRACKS</text><rect fill="yellow" height="2.6" width="2.6" x="65" y="283" /><text fill="#FFFFFF" style="font-size:3px; font-family:Arial" x="70" y="285.5">Over 10.0 km</text><rect fill="red" height="2.6" width="2.6" x="65" y="287" /><text fill="#FFFFFF" style="font-size:3px; font-family:Arial" x="70" y="289.5">Over 15.0 km</text><text fill="#FFFFFF" style="font-size:4px; font-family:Arial" x="120" y="280">STATISTICS</text><text fill="#FFFFFF" style="font-size:3px; font-family:Arial" x="120" y="285">Number: 5</text><text fill="#FFFFFF" style="font-size:3px; font-family:Arial" x="120" y="290">Weekly: 2.5</text><text fill="#FFFFFF" style="font-size:3px; font-family:Arial" x="141" y="285">Total: 23.0 km</text><text fill="#FFFFFF" style="font-size:3px; font-family:Arial" x="141" y="290">Avg: 4.6 km</text><text fill="#FFFFFF" style="font-size:3px; font-family:Arial" x="167" y="285">Min: 4.0 km</text><text fill="#FFFFFF" style="font-size:3px; font-family:Arial" x="167" y="290">Max: 6.3 km</text><polyline fill="none" points="14.0,60.0838331564737 16.13333333330229,60.973018344142474 21.04000000015367,67.54520943234093 20.613333333400078,67.11995252795168 21.537777777877636,67.08129279204877 22.746666666702367,65.61222069486394 27.155555555596948,66.26943767355988 28.791111111058854,67.35191088260035 32.062222222215496,68.00912565772887 35.58222222211771,70.2127220647235 39.8488888888387,71.83641869240091 42.08888888882939,73.8080434812291 54.88888888899237,79.64555530517828 55.920000000158325,79.64555530517828 57.48444444441702,76.05027433330542 58.51555555558298,75.54770619157352 68.36444444442168,76.05027433330542 74.44444444449618,78.21517768703052 86.0,78.33115439757239 74.51555555558298,78.29249549692031 68.40000000002328,76.12759246569476 58.622222222271375,75.62502439890523 57.555555555503815,76.08893340089708 55.63555555557832,79.9161668434972 43.40444444445893,74.77452348478255 35.12000000011176,70.09674353981973 26.835555555531755,66.30809746988234 16.773333333432674,65.10964244356728" stroke="#4DD2FF" stroke-linecap="round" stroke-linejoin="round" stroke-width="0.5"><title>2024-11-29 4.6km</title><desc>1732853630000</desc></polyline><polyline fill="none" points="120.09760765556712,67.67771574977087 119.58086124411784,67.9773735734052 121.7856459331233,68.01483078871388 119.89090909110382,67.79008745460305 121.61339712922927,67.93991635518614 121.40669856453314,68.46431715573999 124.16267942578997,64.90587241438334 130.63923444971442,64.4563828659011 132.70622009574436,65.58010598362307 135.6344497606624,66.17942395267892 147.10622009576764,72.73441760041169 158.61244019132573,77.71615561729413 160.334928229684,74.08286283785128 161.36842105258256,73.59592469705967 171.15215311013162,74.08286283785128 176.1129186602775,76.10552391340025 186.0,76.21789373463253 176.3196172248572,76.03061068535317 170.42870813398622,73.97049253954901 161.23062200972345,73.44609748196672 160.40382775117178,73.93303576781182 158.61244019132573,77.67869912457536 146.41722488042433,72.73441760041169 133.8086124402471,65.69247815720155 130.0191387559753,64.53129781852476 114.0,62.283844382705865 130.36363636364695,64.4563828659011 132.46507177047897,65.5426485867938 134.66985645936802,65.84230768293492 143.55789473699406,70.56191488855984 130.2602870813571,64.60621276000165 121.61339712922927,63.445029912370956" stroke="#4DD2FF" stroke-linecap="round" stroke-linejoin="round" stroke-width="0.5"><title>2024-11-28 6.3km</title><desc>1732767063000</desc></polyline><polyline fill="none" points="14.483221476664767,141.39651214628248 25.114093960030004,143.19166546623455 27.530201342422515,144.46140474715503 28.65771812084131,144.37383660901105 39.73154362430796,149.80303650267888 43.55704697989859,152.34248375246534 57.57046979875304,158.47213880217168 59.543624161276966,154.22517031995812 60.993288590805605,153.4370696999831 71.66442953026854,154.00625358708203 76.57718120818026,156.0640676568146 80.8456375838723,156.76459846220678 86.0,156.63324899971485 78.22818791959435,156.50189950800268 72.38926174514927,154.22517031995812 61.395973154576495,153.65598664502613 59.74496644292958,154.31273699027952 57.57046979875304,158.60348785365932 42.30872483225539,152.16734981158515 28.65771812084131,144.37383660901105 27.651006711646914,144.592756929982 24.187919463263825,143.06031297025038 14.0,141.7030021257815" stroke="#4DD2FF" stroke-linecap="round" stroke-linejoin="round" stroke-width="0.5"><title>2024-11-25 4.0km</title><desc>1732507947000</desc></polyline><polyline fill="none" points="114.0,137.685477198218 128.67736757639796,139.57037855504313 132.66452648490667,141.89508442598162 134.86035313038155,141.64376518136123 138.9052969503682,142.96319038013462 143.12359550595284,145.97901165421354 151.09791332273744,149.43462693848414 157.2808988764882,153.70700444176327 171.2648475121241,159.1731029234943 175.94542536116205,162.00038134056376 177.15890850755386,161.4977547590388 179.7592295347713,155.40338362392504 186.0,155.27772602369078 179.99036918138154,155.591869989119 176.6388443019241,162.3145228018402 158.20545746409334,154.64943774195854 134.7447833067272,142.08357381029055 133.18459069053642,142.39772269059904 138.7319422152359,143.46582800813485 141.44783306587487,145.97901165421354 146.2439807385672,147.2984300701064 157.16532905306667,153.83266227593413 174.67415730352513,161.62341143249068 177.15890850755386,161.87472472328227 179.7592295347713,155.34055482631084 176.98555377218872,162.3145228018402 158.4943820226472,154.5237800295581" stroke="#4DD2FF" stroke-linecap="round" stroke-linejoin="round" stroke-width="0.5"><title>2024-11-20 4.0km</title><desc>1732095798000</desc></polyline><polyline fill="none" points="18.206054168986157,222.16317155738943 28.835900159319863,223.7014557455841 31.3977695167996,224.9902851789957 33.15666489629075,225.15658553413232 42.98353690910153,230.02084899842157 45.58364312280901,232.0164320001204 59.578332448145375,238.21100877801655 60.22835900168866,238.1278605518164 61.79607010097243,234.46932632976677 62.943175783380866,233.59626348206075 73.57302177371457,234.1783055323467 79.15560276154429,236.4233191824169 86.0,236.67276458599372 79.0408921930939,236.46489342412679 72.96123207639903,234.1367311202921 63.17259691981599,233.63783793436596 61.56664896430448,234.71877260674955 60.07541157724336,238.29415699202218 45.85130111523904,232.43217756057857 34.91556027601473,226.32068663294194 28.759426447330043,223.8677564849495 14.0,221.70584300800692" stroke="#4DD2FF" stroke-linecap="round" stroke-linejoin="round" stroke-width="0.5"><title>2024-11-19 4.1km</title><desc>1731989484000</desc></polyline></svg>