<?xml version="1.0" encoding="utf-8" ?>
<svg baseProfile="full" height="300mm" version="1.1" viewBox="0,0,200,300" width="200mm" xmlns="http://www.w3.org/2000/svg" xmlns:ev="http://www.w3.org/2001/xml-events" xmlns:xlink="http://www.w3.org/1999/xlink"><defs /><rect fill="#222222" height="300" width="200" x="0" y="0" /><text fill="#FFFFFF" style="font-size:12px; font-family:Arial; font-weight:bold;" x="10" y="20">Over 4km Runs</text><text fill="#FFFFFF" style="font-size:4px; font-family:Arial" x="10" y="280">ATHLETE</text><text fill="#FFFFFF" style="font-size:9px; font-family:Arial" x="10" y="290">Fake David</text><text fill="#FFFFFF" style="font-size:4px; font-family:Arial" x="65" y="280">SPECIAL TRACKS</text><rect fill="yellow" height="2.6" width="2.6" x="65" y="283" /><text fill="#FFFFFF" style="font-size:3px; font-family:Arial" x="70" y="285.5">Over 10.0 km</text><rect fill="red" height="2.6" width="2.6" x="65" y="287" /><text fill="#FFFFFF" style="font-size:3px; font-family:Arial" x="70" y="289.5">Over 15.0 km</text><text fill="#FFFFFF" style="font-size:4px; font-family:Arial" x="120" y="280">STATISTICS</text><text fill="#FFFFFF" style="font-size:3px; font-family:Arial" x="120" y="285">Number: 47</text><text fill="#FFFFFF" style="font-size:3px; font-family:Arial" x="120" y="290">Weekly: 2.6</text><text fill="#FFFFFF" style="font-size:3px; font-family:Arial" x="141" y="285">Total: 386.1 km</text><text fill="#FFFFFF" style="font-size:3px; font-family:Arial" x="141" y="290">Avg: 8.2 km</text><text fill="#FFFFFF" style="font-size:3px; font-family:Arial" x="167" y="285">Min: 4.0 km</text><text fill="#FFFFFF" style="font-size:3px; font-family:Arial" x="167" y="290">Max: 13.0 km</text><polyline fill="none" points="13.286579683132004,42.48291169847653 11.663560111774132,42.12723021960119 14.330848089477513,42.715472292897175 17.501397949643433,43.043792630604 18.74697110906709,43.41315230878536 24.773532152874395,46.53215996299696 26.72367194778053,47.28454422886716 27.516309412836563,47.8317308495607 27.80568499531364,47.77701226087811 27.994408201309852,47.476059731590794 28.082479030708782,46.42272199479339 28.29636533081066,46.16280655891751 32.22180801490322,46.45008149293426 34.511649580614176,47.229825477086706 38.4622553588124,47.29822391422931 34.2600186393247,47.24350516656705 32.41053122089943,46.51848022053309 28.48508853680687,46.25856492019375 28.220876048435457,46.55951944485423 28.069897483685054,47.72229365588282 27.5666356011061,47.84541049422114 23.767008387716487,46.217525628599105 18.72180801484501,43.50891210405098 18.256290773511864,43.52259207073075 16.847157502314076,43.043792630604 11.588070829457138,42.22299068553548 17.237185461330228,43.043792630604 18.79729729722021,43.45419222714554 22.018173345713876,45.02738218283048 23.867660764197353,46.20384586273576 27.616961789375637,47.87276978039881 28.00698974833358,47.61285639696871 28.12022367195459,46.395362492563436 28.29636533081066,46.244885157371755 32.19664492079755,46.463761240505846 33.89515377441421,47.14774731891521 34.989748369087465,47.31190359860193 38.5,47.27086454242817 34.322926374617964,47.257184855028754 32.22180801490322,46.51848022053309 28.40959925437346,46.299604202620685 28.145386766060255,46.600558660007664 28.09506057779072,47.694934347236995 27.931500466016587,47.87276978039881 27.65470643050503,47.8317308495607 22.861136999039445,45.766092815829325 18.847623485547956,43.49523213635257 18.59599254425848,43.577311927234405 17.22460391424829,43.08483263156086 14.58247903076699,42.852272504984285 11.5,42.23667074801051 14.532152842439245,42.70179226611799" stroke="#4DD2FF" stroke-linecap="round" stroke-linejoin="round" stroke-width="0.5"><title>2025-03-28 10.0km</title><desc>1743136214000</desc></polyline><polyline fill="none" points="43.32262569834711,42.52625644879299 41.5,42.17090619743976 44.49162011168664,42.48525453187176 47.87290502793621,43.113949584643706 48.438547486031894,43.49663247486751 49.645251396577805,43.83831295219716 50.85195530729834,44.64467635549954 52.04608938546153,45.02735605248017 53.57960893854033,46.066054063048796 57.589385474915616,47.80175998242339 57.95391061453847,47.70609157979197 58.07960893854033,46.503398834422114 58.36871508380864,46.271059554463136 62.10195530729834,46.47606481674302 64.00000000005821,47.186747952437145 65.00558659224771,47.30975052335998 68.5,47.364418306198786 64.31424581009196,47.29608357512916 62.24022346374113,46.51706584173371 58.29329608939588,46.23005847449531 58.092178770923056,46.47606481674302 58.02932960889302,47.542088487913134 57.75279329606565,47.82909380256024 53.7555865921895,46.21639144583605 48.75279329606565,43.45563077479892 46.65363128489116,42.92260784015525 41.70111731841462,42.29391213157214 43.72486033523455,42.51258914418577" stroke="#4DD2FF" stroke-linecap="round" stroke-linejoin="round" stroke-width="0.5"><title>2025-03-25 5.1km</title><desc>1742904051000</desc></polyline><polyline fill="none" points="73.3234746157541,42.600308879467775 71.55030274804449,42.21744580875384 76.25360968796303,42.77806646221143 77.80041918961797,43.05153933026304 79.15859338617884,43.55746306182118 82.23963670240482,45.17094024071412 82.69236143457238,45.58114404162916 87.59687936661066,47.82357528191642 88.04960409877822,47.60480270840344 88.13763390778331,46.42889565824589 88.32626921287738,46.23746821611712 92.50139729859075,46.497262553471955 94.32487191434484,47.24929672032886 98.47484862600686,47.29031667718664 97.34303679555887,47.413376492695534 94.40032603638247,47.2219500773499 92.300186306471,46.51093592947291 88.43945039593382,46.264815005793935 88.11248253379017,46.53828267840436 88.0118770377594,47.67316916567506 87.5340009315405,47.782555444253376 83.23311597580323,45.90930642223975 78.79389846301638,43.42072705567989 78.42920353985392,43.46174786823394 77.47345132747432,43.01051842601737 71.5,42.17642471808358 77.87587331159739,43.07888659465243 80.11434559850022,44.008691159280716 82.79296693060314,45.608490929109394 87.64718211459694,47.82357528191642 87.99930135073373,47.70051574142417 88.12505822075764,46.42889565824589 88.37657196092186,46.22379481975804 92.21215649746591,46.4562424193864 94.37517466227291,47.24929672032886 98.5,47.33133662487671 96.95319049834507,47.45439641288249 94.29972054023528,47.2219500773499 92.21215649746591,46.469915798457805 88.33884489984484,46.22379481975804 88.12505822075764,46.53828267840436 88.07475547277136,47.55010952430894 87.91127154172864,47.782555444253376 87.64718211459694,47.768882162999944 83.11993479274679,45.8682861567504 78.83162552403519,43.40705344949674 78.56753609684529,43.502768671591184 77.36027014441788,42.99684478926065 72.5437820214429,42.32683533900126" stroke="#4DD2FF" stroke-linecap="round" stroke-linejoin="round" stroke-width="0.5"><title>2025-03-23 9.7km</title><desc>1742722238000</desc></polyline><polyline fill="none" points="103.29664960451191,42.479596189557924 107.60609585861675,42.9577284733823 108.43531875294866,43.43585951036948 108.71172638441203,43.38121602636238 109.71684504422592,43.80470260127913 114.06398324802285,46.181673611703445 115.83550488605397,46.86470555917185 117.63215449044947,47.86192763369763 117.93369008839363,47.67067998490529 118.03420195437502,46.37292281346163 118.2603536528768,46.22265560030064 122.16775244305609,46.37292281346163 124.37901349464664,47.15157821845787 128.5,47.20622057883884 124.45439739414724,47.21988116641296 122.31852024199907,46.400244111719076 118.3483015356469,46.181673611703445 118.12214983714512,46.37292281346163 117.97138203814393,47.616037762883934 117.60702652396867,47.75264328738558 113.17194043740164,45.79917460982688 109.67915309453383,43.87300679595501 107.61865984176984,43.039693882572465 101.5502559330198,42.138072366287815 107.60609585861675,42.99871118256124 108.91275011637481,43.39487689892121 112.14169381110696,45.047834961733315 113.36040018615313,45.881138748838566 117.63215449044947,47.75264328738558 117.98394602147164,47.547734962485265 118.07189390418353,46.31828020472312 118.2603536528768,46.127030946008745 122.23057235922897,46.37292281346163 124.31619357841555,47.124257032133755 128.4874360167887,47.19255999028974 127.33154955797363,47.342826408625115 124.12773382966407,47.178899400663795 122.23057235922897,46.427565405887435 118.36086551885819,46.15435228092247 118.08445788739482,46.55051117934636 118.02163797122194,47.53407439937291 117.83317822247045,47.80728546869068 117.55677059100708,47.79362492488872 113.10912052122876,45.785513916416676 109.62889716151403,43.85934595904837 107.59353187534725,43.09433746832656 101.5,42.206377181835705 105.49534667289117,42.68451017816551" stroke="#4DD2FF" stroke-linecap="round" stroke-linejoin="round" stroke-width="0.5"><title>2025-03-21 9.8km</title><desc>1742551156000</desc></polyline><polyline fill="none" points="133.1898645493202,42.36048160491919 132.8745913124876,42.593585415626876 131.5,42.29192160438106 132.3701541336486,42.27820960122335 137.57846800563857,43.00494436133886 138.85217188228853,43.33403085586906 143.64432508172467,45.966701628654846 147.59154600650072,47.69437135817134 148.03292853810126,47.584678524159244 148.17164876224706,46.37805303516507 148.39864549279446,46.19980087190925 152.4845866417745,46.47403489777935 153.98528724891366,47.132194892765256 155.19593647832517,47.310446153074736 158.5,47.351581034759874 154.35100420360686,47.214464726668666 152.4341429238557,46.460323206178145 148.4995329285157,46.186089159877156 148.20948155067163,46.43289981991984 148.28514712752076,46.92652014711348 148.07076132646762,47.77664094080683 147.64198972447775,47.85891048665508 146.83489023818402,47.379004284128314 143.53082671645097,46.11753058445174 139.10439047170803,43.663116761963465 137.40191499301,43.07350409623177 135.92643624480115,43.01865631034889 131.5252218589303,42.14108951334492 137.71718822984258,43.04608020534215 139.93671181687387,43.88250703913218 143.1272769733332,45.70617859567574 147.742877160199,47.79035253431357 148.08337225596188,47.52983208258229 148.17164876224706,46.35062963668315 148.42386735172477,46.17237744687009 152.40892106492538,46.47403489777935 154.37622606259538,47.20075309021922 158.42433442315087,47.24188799643889 157.39023820648436,47.379004284128314 154.1996730499086,47.17332981429354 152.47197571228025,46.460323206178145 148.46170014014933,46.19980087190925 148.22209248010768,46.4054764296161 148.19687062123558,47.2830228934763 147.96987389074638,47.721794556462555 147.7680990191293,47.76292934625235 143.31644091545604,45.91185470498749 138.8017281644279,43.36145470387419 138.33512377395527,43.37516662632697 137.36408220458543,42.963808508138754 135.67421765532345,42.88153677416267 131.57566557684913,42.209649570067995 134.62751050910447,42.60729739529779" stroke="#4DD2FF" stroke-linecap="round" stroke-linejoin="round" stroke-width="0.5"><title>2025-03-19 10.0km</title><desc>1742357906000</desc></polyline><polyline fill="none" points="162.6438547486323,42.266578097609454 166.77932960900944,42.840604656899814 168.9162011173321,43.387294948101044 173.01396648050286,45.66970931373362 177.60195530729834,47.78809244764852 178.04189944139216,47.651423306175275 178.1550279329531,46.599067506729625 178.43156424583867,46.189057119583595 182.62988826818764,46.489731493085856 184.0879888268537,47.13207964011235 185.15642458101502,47.28241611568956 188.5,47.309750007116236 184.45251396647654,47.159413553919876 182.39106145250844,46.39406242770201 178.45670391066233,46.134388998747454 178.19273743021768,46.476064486822 178.16759776539402,47.51475406289683 177.6270949720638,47.829093170235865 172.52374301676173,45.5057044379937 169.65782122907694,43.8519804146199 167.74720670393435,43.086615489577525 161.5,42.17090682977869 164.34078212291934,42.48525509389583 167.40782122907694,42.97727738243702 168.3505586592364,43.40096218450344 168.79050279333023,43.37362771068001 173.62988826824585,45.997718625323614 177.71508379897568,47.80175935616717 178.02932960895123,47.6240894656803 178.2053072626004,46.831406319339294 178.02932960895123,47.692424059307086 177.51396648044465,47.76075862751168 173.24022346374113,45.88838225326617 168.79050279333023,43.4556311199558 168.3379888268537,43.44196388759883 167.18156424583867,42.96361011445697" stroke="#4DD2FF" stroke-linecap="round" stroke-linejoin="round" stroke-width="0.5"><title>2025-03-17 7.0km</title><desc>1742185263000</desc></polyline><polyline fill="none" points="12.976858345034998,72.26880247869121 12.913744740537368,72.4335003005981 12.774894810689148,72.25507765357906 12.88849929877324,72.46094992324652 11.752454417932313,72.26880247869121 16.044179523189086,72.776620289922 18.795932678855024,73.40795940041426 23.50420757365646,75.97446785557258 27.75806451612152,77.86844581870537 28.073632538551465,77.63513074438379 28.174614305782598,76.45482642829302 28.427068723656703,76.20778503306792 32.25175315566594,76.44110191502841 34.41023842908908,77.23712199441798 38.462131837324705,77.30574425404484 34.35974754556082,77.20967308344552 32.56732117809588,76.48227545173722 28.56591865356313,76.20778503306792 28.199859747546725,76.42737740071607 28.061009817698505,77.69002843549242 27.669705469859764,77.77237494153087 22.77208976156544,75.61762924792129 18.83380084147211,73.39423466015432 15.791725105198566,72.70799634318973 11.5,72.15900384896668 15.816970546962693,72.65309716742195 18.808555399707984,73.32561094348785 23.453716690069996,75.89212054594827 27.669705469859764,77.75865052641893 28.086255259462632,77.5253353129956 28.187237026635557,76.41365288539964 28.389200561039615,76.20778503306792 32.403225806425326,76.42737740071607 34.44810659188079,77.19594862639497 38.5,77.30574425404484 34.23352033662377,77.1547752491606 32.39060308551416,76.42737740071607 28.414446002803743,76.18033596867463 28.187237026635557,76.52344897927833 28.023141654965002,77.67630401423958 27.75806451612152,77.74492611025926 23.239130434812978,75.85094687729725 18.859046283352654,73.40795940041426 17.331697054731194,72.9550424318004 11.5,72.13155418129463 15.438288920093328,72.68054675732856" stroke="yellow" stroke-linecap="round" stroke-linejoin="round" stroke-width="0.5"><title>2025-03-15 10.0km</title><desc>1742012101000</desc></polyline><polyline fill="none" points="43.204192180885,72.56626805440465 41.5,72.16524877489428 45.315355628787074,72.59392452449538 48.69830428640125,73.28533493747818 53.56924163916847,75.95415497278736 57.766132830874994,77.79326768974715 58.08407913328847,77.39225970339612 58.14766839373624,76.28602628421504 58.41474328777986,76.13391867344035 62.52260951482458,76.45196171737916 64.48115873767529,77.22632511079428 68.5,77.25398088654038 64.60833725857083,77.25398088654038 62.4590202543186,76.47961760846374 58.47833254822763,76.23071444015659 58.185821950028185,76.5211014374072 57.995054168626666,77.71030059126497 57.689825718291104,77.83475122510572 53.28944889304694,75.94032698860974 51.48351389542222,74.77877263932896 48.7364578426932,73.40978853829438 48.44394724443555,73.46510122297332 47.32477626000764,72.96728646740667 45.671455487492494,72.8843172116758 41.89425341493916,72.23439009177673 43.90367404615972,72.46947037661448 46.53626943001291,72.8843172116758 47.59185115399305,72.9811146731081 49.054404145048466,73.47892939156736 53.23857748467708,75.78821909458202 56.697833254758734,77.25398088654038 57.42275082424749,77.73795629487722 57.94418276025681,77.71030059126497 58.21125765424222,76.7976600600523 58.03320772497682,77.68264488350542 57.689825718291104,77.76561199440039 53.353038153552916,75.91267101716949 48.74917569477111,73.35447583712812 48.15143664623611,73.3268194803677" stroke="#4DD2FF" stroke-linecap="round" stroke-linejoin="round" stroke-width="0.5"><title>2025-03-12 7.1km</title><desc>1741778255000</desc></polyline><polyline fill="none" points="73.57109448080882,72.43916503968649 77.24602432182292,72.8922950651322 78.38260056125,73.38661745861464 79.7843779232935,73.64750929840375 83.92656688491115,76.10536692352616 87.76566884940257,77.78053601975262 88.06875584658701,77.5608425794926 88.14452759589767,76.43490958800248 88.39710009354167,76.17402169386332 92.43826005619485,76.37998585151217 94.01683816657169,76.99787694346742 95.22918615530943,77.19010930520017 98.5,77.23130192807002 94.40832553792279,77.2450328002742 92.43826005619485,76.46237145010673 88.52338634239277,76.20148359486484 88.23292797006434,76.39371678714815 88.043498596875,77.64322765024554 87.61412535083946,77.75307435407012 82.76473339571385,75.63851380687265 78.78671655751532,73.37288629892282 78.45837231056066,73.48273554781917 77.27128157153493,72.96095103240805 71.5,72.17827148934884 76.77876520116115,72.837370272915 78.55940130958334,73.38661745861464 78.78671655751532,73.30423048509692 83.45930776424939,75.8307475863403 87.72778297477635,77.76680518743524 88.06875584658701,77.46472661702137 88.15715622075368,76.33879303840513 88.4349859682261,76.17402169386332 92.33723105711397,76.33879303840513 94.5346117867739,77.10772403187002 98.5,77.23130192807002 94.4335827876348,77.20384018051845 92.34985968196997,76.35252397709701 88.42235734331189,76.09163596635335 88.19504209543811,76.46237145010673 88.1824134705821,77.46472661702137 87.7909260991728,77.82172851066571 85.85874649207108,76.8193752852385 83.0804490178125,75.77582366978459 78.8751169317402,73.4415420871519 78.55940130958334,73.49646669931826 77.46071094484068,72.98841341215302 74.02572497661458,72.71378943053423 71.5,72.23319647801691 73.39429373247549,72.3842401124275 74.2909260991728,72.54901484513539 77.67539756785845,73.00214460051211 79.46866230119485,73.81228290166473 78.95088868105086,73.4690043952869 77.51122544432292,73.05706934364571 75.03601496724878,72.768714259626 73.45743685687194,72.85110147250816 71.57577174925245,72.23319647801691" stroke="yellow" stroke-linecap="round" stroke-linejoin="round" stroke-width="0.5"><title>2025-03-07 10.7km</title><desc>1741342581000</desc></polyline><polyline fill="none" points="103.58665105386171,72.42181767066359 107.64613583130995,72.94433654067689 108.30374707258306,73.32934949826449 108.84754098358098,73.34309994615614 112.33793911006069,75.06189786802861 113.96932084305445,76.14816989985411 117.73793911002576,77.81194125014008 118.01615925057558,77.55068889017275 118.33231850113953,76.1894206105062 120.02693208429264,76.39567402549437 122.60679156903643,76.34067313735432 123.95995316159679,76.91818164524739 125.24988290393958,77.13818441105832 128.5,77.12443424586672 127.80444964865455,77.26193585158035 124.41522248240653,77.15193457520218 122.44238875876181,76.43692468083464 118.433489461313,76.24442154371354 118.19320843089372,76.42317446340166 117.94028103043092,77.68819017834903 117.53559718967881,77.78444101911737 113.3749414519989,75.90066544232832 108.84754098358098,73.45310349261854 107.21615925052902,72.98558796741418 103.99133489461383,72.80683171830606 101.5,72.18805874985992 102.99227166268975,72.27056193219323" stroke="#4DD2FF" stroke-linecap="round" stroke-linejoin="round" stroke-width="0.5"><title>2025-03-05 4.7km</title><desc>1741177738000</desc></polyline><polyline fill="none" points="132.7319884726312,72.3632351905253 136.9726224783808,72.87085468955047 138.165706051921,73.20926693250658 142.9639769452624,75.83194129835465 146.4524495676742,77.28426684465376 147.243515850103,77.80597330094315 147.6325648415368,77.70727218975662 147.8270893371664,76.32545122914598 148.1123919308302,76.17034824668372 152.0028818443534,76.36775202046556 154.1426512968028,77.18556546143373 158.5,77.24196625816694 156.8530259365216,77.39706836245023 154.1167146973312,77.25606645469088 152.2233429394546,76.48055408448272 148.1253602305078,76.18444852308312 147.93083573482,76.36775202046556 147.7233429394546,77.74957267228456 147.4380403457908,77.86237391277973 142.2636887608096,75.66273759727483 138.1138328529778,73.29386989868362 137.8414985590498,73.39257331144472 136.596541786741,72.92725677207636 131.5,72.13762608722027" stroke="#4DD2FF" stroke-linecap="round" stroke-linejoin="round" stroke-width="0.5"><title>2025-03-03 4.6km</title><desc>1740978130000</desc></polyline><polyline fill="none" points="163.79518916393863,72.47017599784886 163.59341429243796,72.59358391602291 161.5,72.16851184946427 164.79145259223878,72.5113119797752 168.76389537600335,73.3614535475208 172.30756655771984,75.1165721034049 173.48038299864857,75.91185468871845 177.5411022886983,77.76293015736155 177.96987389074638,77.73550695292943 178.18425969174132,76.41918833577074 178.37342363380594,76.18608926619345 182.24497898179106,76.44661173633358 184.16184026160045,77.2144652926363 188.43694535264513,77.2693118526513 186.93624474544777,77.37900492364133 184.11139654368162,77.18704200648062 182.21975712286076,76.47403513277823 178.42386735166656,76.22722441756923 178.23470340960193,76.36434152242146 178.0455394675373,77.58467925559671 177.66721158334985,77.81777655395854 173.40471742179943,75.98041337142058 168.73867351707304,73.40258933024597 168.51167678658385,73.47114894763217 167.6793554413598,73.0872147612099 161.5,72.1822238669265 167.85590845398838,73.0460789080098 177.5158804297098,77.83148815053573 177.98248482018244,77.74921855563298 178.10859411489218,76.52888191344391 178.33559084543958,76.22722441756923 182.56025221856544,76.50145852513378 184.1996730499668,77.22817693416437 188.5,77.33787002970348 184.22489490895532,77.2144652926363 182.30803362914594,76.48774682948715 178.41125642228872,76.18608926619345 178.18425969174132,76.41918833577074 177.98248482018244,77.68066053185612 177.59154600655893,77.79035335767549 172.9381130313268,75.73360199425952 169.01611396542285,73.47114894763217 168.42340028024046,73.44372510374524 167.30102755723055,72.96380717403372 163.66907986922888,72.53873596260382 165.11933675856562,72.66214383480838 167.66674451192375,73.03236695489613 169.3692199906218,73.7865228587325 169.43227463803487,73.64940383336216 168.67561886971816,73.38887740368955" stroke="yellow" stroke-linecap="round" stroke-linejoin="round" stroke-width="0.5"><title>2025-02-28 10.0km</title><desc>1740736874000</desc></polyline><polyline fill="none" points="13.387232059671078,102.85911382646009 13.651444547984283,102.55815331508347 13.336905871401541,102.84543381391268 13.613699906796683,102.66759355810063 13.450139795022551,102.59919341384375 11.61323392362101,102.22983219455637 12.456197576888371,102.20247207469947 17.55172413791297,102.90015385797597 18.369524697132874,103.29687368964369 18.860205032629892,103.24215376380016 23.779589934798423,105.9097311674559 27.71761416591471,107.72913352608157 28.057315936661325,107.60601664190472 28.183131407306064,106.29276474106882 28.43476234859554,106.12860759305477 32.37278657971183,106.37484325999685 34.310344827594236,107.11354827968171 38.437092264706735,107.1956264317705 34.28518173348857,107.18194674229017 32.27213420323096,106.37484325999685 29.95712954335613,106.3885230096057 28.35927306616213,106.15596712793922 28.15796831314219,106.27908498430043 28.057315936661325,107.63337595661869 27.742777260020375,107.92064851519535 22.697576887265313,105.63613526859262 19.099254426837433,103.52943319243786 17.061043802415952,102.96855389008124 15.450605778198224,102.91383386641974 11.512581547023728,102.18879201321397 17.614631873264443,102.98223389346094 18.281453867675737,103.37895354778448 18.860205032629892,103.37895354778448 23.79217148182215,105.99180985763087 27.793103448289912,107.78385211476416 28.069897483685054,107.55129800019495 28.24603914259933,106.15596712793922 32.25955265609082,106.3474837577669 33.89515377447242,106.99043098276888 35.10298229265027,107.18194674229017 38.5,107.18194674229017 34.3732525628875,107.1956264317705 32.27213420323096,106.48428122820042 29.969711090438068,106.47060148573655 28.2712022367632,106.18332665869093 28.08247903076699,107.48289967517485 27.705032618832774,107.83857068720681 23.18825722276233,105.8686918086023 18.759552656149026,103.39263352057606 12.82106244174065,102.43503296367999 11.5,102.07935148480465 13.475302889128216,102.3803127810097 14.330848089477513,102.55815331508347 16.645852749352343,102.76335371725145 19.363466915208846,103.74831245538371 18.82246039144229,103.37895354778448 18.55824790307088,103.44735340155603 17.35041938489303,102.96855389008124 14.481826654286124,102.76335371725145 12.531686859263573,102.27087236673106" stroke="yellow" stroke-linecap="round" stroke-linejoin="round" stroke-width="0.5"><title>2025-02-26 11.1km</title><desc>1740566027000</desc></polyline><polyline fill="none" points="43.80457089556148,102.50110373839561 41.55037313437788,102.22724762067082 42.55783582094591,102.21355480408238 47.65811567165656,102.91188714974851 48.37593283591559,103.30897690798156 48.804104477691,103.29528417198162 52.355410447809845,105.04794608819066 53.11100746272132,105.70518999772321 56.8260261194082,107.21136509267671 57.669776119466405,107.7864468729822 58.08535447763279,107.53998347315064 58.19869402988115,106.28027649060823 58.40018656721804,106.11596624768572 59.97434701496968,106.36243155699049 62.24113805976231,106.3761240645108 63.953824626863934,107.0470556821092 65.18796641792869,107.22505753691075 68.4244402985205,107.18398020112363 65.15018656715984,107.18398020112363 64.04197761195246,107.03336322457471 62.40485074633034,106.41720158084354 58.500932835857384,106.15704382221156 58.22388059704099,106.33504653896671 57.99720149260247,107.70429244310071 57.63199626869755,107.80013927438995 55.89412313431967,106.85536118410528 53.27472014928935,105.82842296913441 48.85447761195246,103.36374784176587 48.438899253786076,103.40482603141572 47.393656716449186,102.91188714974851 45.9958022388746,102.92557991432841 41.5,102.15878352751315 47.41884328360902,102.92557991432841 48.37593283591559,103.37744057270174 48.85447761195246,103.30897690798156 52.58208955224836,105.4039534975891 56.8260261194082,107.25244242236658 57.757929104496725,107.84121647248685 58.12313432840165,107.4441365061939 58.18610074633034,106.32135402840504 58.34981343289837,106.11596624768572 60.251399253786076,106.36243155699049 62.15298507467378,106.32135402840504 63.92863805976231,106.9922858459322 65.25093283585738,107.17028775379003 68.5,107.18398020112363 64.62126865674509,107.18398020112363 62.44263059704099,106.40350907643733 61.170708955207374,106.44458658664371 58.41277985076886,106.10227372084046 58.18610074633034,106.36243155699049 58.09794776124181,107.52629105238884 57.97201492538443,107.7727544705267 57.69496268656803,107.81383167476451 52.6828358208877,105.48610895569436 48.91744402988115,103.39113330256077 48.47667910455493,103.40482603141572 47.49440298508853,102.99404372186109 45.89505597023526,102.91188714974851 41.638526119466405,102.22724762067082 44.63572761201067,102.59695328319503 45.27798507467378,102.63803164420824 47.40625000005821,102.98035096240346 49.66044776124181,103.74714392134047 52.46875,105.19856469171646 48.94263059704099,103.40482603141572 45.27798507467378,102.69280277795042" stroke="yellow" stroke-linecap="round" stroke-linejoin="round" stroke-width="0.5"><title>2025-02-21 11.3km</title><desc>1740135343000</desc></polyline><polyline fill="none" points="73.71229050279362,102.60142751570675 71.57541899441276,102.17774091429601 74.64245810057037,102.51942373375641 77.5335195530788,102.99777861175244 78.33798882679548,103.40779608575394 79.12988826812943,103.44879778275208 82.66201117320452,105.4715367898898 86.74720670387615,107.24824859993532 87.66480446927017,107.80859260172292 88.07960893848212,107.50792042328976 88.21787709492492,106.29155976347101 88.3938547486323,106.15488952242595 90.14106145250844,106.38722887160839 92.40363128489116,106.40089588295086 93.84916201111628,107.0159103411861 95.08100558654405,107.22091470241139 98.43715083791176,107.2072477521433 97.43156424578046,107.34391720921849 94.42737430159468,107.17991384849302 92.3282122904784,106.46923092457291 88.45670391060412,106.19589060542057 88.19273743010126,106.41456289331836 88.00418994412757,107.64458965638187 87.61452513962286,107.79492569521244 82.8505586591782,105.66287581156939 78.86592178768478,103.4351305514574 78.28770949720638,103.40779608575394 77.34497206704691,102.99777861175244 75.7611731843208,102.90210773595027 71.5,102.16407358829747 77.40782122901874,102.95677681393863 78.76536312850658,103.3394599037565 82.07122905022698,104.97952124632138 83.17737430165289,105.73121112809167 87.80307262565475,107.74025805899873 88.05446927371668,107.52158735120611 88.14245810051216,106.37356185920362 88.31843575416133,106.15488952242595 92.2779329608311,106.38722887160839 93.86173184355721,107.0159103411861 95.13128491613315,107.22091470241139 98.5,107.24824859993532 97.10474860330578,107.35758414931479 94.43994413403561,107.19358080084203 92.40363128489116,106.46923092457291 88.41899441339774,106.18222357875493 88.15502793289488,106.44189691099746 88.09217877092306,107.49425349438388 87.84078212286113,107.83592641170253 83.64245810051216,106.01821917953203 78.8784916200675,103.40779608575394 78.45111731841462,103.4351305514574 77.42039106145967,103.0114458756434 74.11452513962286,102.58776022125676 75.19553072628332,102.71076583463582 77.34497206704691,102.95677681393863 79.46927374304505,103.76314382191049 78.91620111727389,103.40779608575394 78.23743016755907,103.39412885138881 77.01815642457223,102.94310954595858 75.92458100558724,102.929442276989 72.11592178774299,102.21874288625258" stroke="yellow" stroke-linecap="round" stroke-linejoin="round" stroke-width="0.5"><title>2025-02-19 10.6km</title><desc>1739962218000</desc></polyline><polyline fill="none" points="103.45926966291154,102.37491943289933 101.5,102.18250210399856 104.82443820225308,102.53984841221245 107.47893258422846,103.00714638616773 108.21207865170436,103.37823511040187 108.74297752807615,103.35074708233878 113.38202247186564,105.90711616864428 117.83146067417692,107.81749789598689 118.0463483146159,107.54262404567271 118.18539325840538,106.34691803138412 118.40028089884436,106.19573625936755 122.4073033707682,106.4431245490996 124.21488764043897,107.18528742805938 128.5,107.26774978585308 124.44241573027102,107.21277488474152 122.35674157302128,106.45686833326181 118.65308988763718,106.19573625936755 118.4382022471982,106.4293807639333 118.21067415724974,106.37440561302355 118.0463483146159,107.6250862437737 117.65449438203359,107.77626684453571 112.53511235956103,105.50854482490104 108.76825842692051,103.40572313434677 107.33988764043897,102.97965830280737 102.47331460670102,102.29245488793822" stroke="#4DD2FF" stroke-linecap="round" stroke-linejoin="round" stroke-width="0.5"><title>2025-02-18 4.9km</title><desc>1739836925000</desc></polyline><polyline fill="none" points="134.4196050775936,102.39141602956806 134.38152327219723,102.72266962128924 135.77785613544984,102.6812629547203 137.6311706629349,102.99871382860874 140.05571227084147,104.29611609308631 141.36318758811103,104.72398080500716 142.5818053596886,105.60731127781037 146.68194640334696,107.29114832519554 147.6212976022507,107.85702455299906 147.9640338505269,107.59478944282455 148.05289139633533,106.36642003789893 148.25599435827462,106.18699461169308 152.25458392099245,106.50443947828899 154.1078984485357,107.23594079579925 158.5,107.31875208373822 154.2475317348144,107.15312947086932 152.27997179125668,106.42162782640662 148.35754583921516,106.17319264860998 148.12905500701163,106.42162782640662 148.06558533146745,107.51197827825672 147.86248236958636,107.80181719218672 143.20380818052217,105.85574721441662 139.4464033850236,103.73022898859926 137.52961918193614,102.95730722373992 131.5,102.14297544701549 137.5677009872743,102.9711094263912 139.319464033877,103.75783327773388 137.5677009872743,102.9711094263912" stroke="#4DD2FF" stroke-linecap="round" stroke-linejoin="round" stroke-width="0.5"><title>2025-02-14 5.4km</title><desc>1739506837000</desc></polyline><polyline fill="none" points="164.4509574964759,102.57987319130916 166.72092480148422,102.85411259061948 168.76389537606155,103.36145440200926 173.8082671649172,106.06268320267554 177.6798225128441,107.83148667388014 177.9950957496767,107.77664030999586 178.48692199907964,106.5425928015029 178.85263895383105,106.25464719238516 182.4341429239139,106.46032267346163 184.4518916394445,107.26931066915859 188.5,107.31044555701374 184.36361513310112,107.26931066915859 182.39631013548933,106.48774605354993 178.9156936011277,106.30949400977988 178.57519850542303,106.47403436400054 177.8815973844612,107.83148667388014 173.54343764600344,106.07639492284216 168.8017281644279,103.4163020816195 167.6541335824295,103.04607992697856 161.5,102.16851332611986 167.47758056985913,102.96380823590152 168.8647828117828,103.4163020816195 173.56865950499196,105.98041286005173 177.64198972447775,107.80406349399709 178.020317608607,107.70808233214484 178.53736571699847,106.50145774206612 178.94091546011623,106.30949400977988 182.44675385340815,106.50145774206612 184.36361513310112,107.22817577212118 188.5,107.29673392875702 186.77230266231345,107.39271530508995 184.35100420366507,107.20075250235095 182.37108827655902,106.48774605354993 178.90308267163346,106.24093548544624 178.57519850542303,106.46032267346163 178.00770667911274,107.74921712193463 177.80593180761207,107.79035190248396 173.31644091551425,105.89814248066978 169.24311069597024,103.62198073463514 167.95679588982603,103.08721575871459 161.52522185898852,102.19593734575028 164.7283979448839,102.4701773171837 167.6541335824295,102.96380823590152 169.40705277910456,103.86879481481446 168.7512844465673,103.40259016325581 168.58734236337477,103.48486165815848 167.46496964042308,102.99123213702114" stroke="yellow" stroke-linecap="round" stroke-linejoin="round" stroke-width="0.5"><title>2025-02-12 10.1km</title><desc>1739334019000</desc></polyline><polyline fill="none" points="33.208154506457504,136.88294611990568 34.341201716742944,137.2749278562551 38.5,137.30292652043863 34.48283261799952,137.33092518041667 32.55150214594323,136.4629647807451 28.766094420629088,136.21097552671563 27.942060085828416,137.79290246810706 27.697424892685376,137.83490034703573 22.650214592227712,135.62299928659922 21.298283261770848,134.75503099813068 17.718884120171424,133.07508098578546 11.5,132.09510320893605 17.487124463485088,132.92108481645118 19.48283261799952,133.691064400904 22.019313304685056,134.92302517332428 23.293991416343488,135.81899157105363 27.607296137313824,137.76490387695958 27.954935622343328,137.6389101650857 28.48283261799952,136.37896840029862 28.8047210299992,136.19697611383162 31.12231759657152,136.44896538663306 32.281115879828576,136.37896840029862 34.35407725319965,137.23292985217995 38.3326180257136,137.28892718885618 32.886266094399616,136.8969454816979 32.95064377685776,137.28892718885618 32.83476394851459,136.82694866225938 32.37124463520013,136.6169580474234 28.8047210299992,136.25297375918308 28.547210300457664,136.39296779962024 27.83905579400016,137.90489679106395 22.984978540742304,135.81899157105363 22.096566523599904,135.1050186936045 20.46137339057168,134.321045350458" stroke="#4DD2FF" stroke-linecap="round" stroke-linejoin="round" stroke-width="0.5"><title>2025-02-10 6.3km</title><desc>1739162078000</desc></polyline><polyline fill="none" points="41.692963166569825,133.91114641839522 43.32572842220543,133.95954015541065 50.68801539303968,135.04033080600493 52.94420010992326,134.94354380277218 53.137163276493084,135.68557639195933 53.98323254531715,135.73396973362833 54.97773501917254,136.10498499500682 55.66052776243305,135.12098660909396 61.74628916976508,135.0080684764107 62.072842220950406,135.5726585527882 62.45876855409006,135.6694452756783 62.71110500267241,135.52426517516142 62.963441451312974,134.84675675648032 64.12122045073193,134.76610085157154 68.5,135.3145604142337 64.38840021984652,134.74996966698382 62.91891148983268,134.83062557787343 62.636888400127646,135.52426517516142 62.38455195154529,135.65331415816036 61.74628916976508,134.99193730978004 55.734744364977814,135.08872429144685 55.30428807029966,135.37908497764147 55.007421660237014,136.1211160789535 53.21137987897964,135.70170750709076 53.21137987897964,135.07259313082614 53.018416712468024,134.91128145880066 50.836448598071,135.02419964180444 43.93430456286296,134.007933881614 41.5,133.8950151703175 43.60775151179405,133.97567139865714 50.361462341912556,134.99193730978004 52.914513468858786,134.91128145880066 53.12231995596085,135.6694452756783 54.99257833970478,136.10498499500682 55.43787795485696,135.26616697912687 55.82380428799661,135.08872429144685 61.686915887810756,134.99193730978004 62.10252886195667,135.58878967624332 62.39939527207753,135.65331415816036 62.71110500267241,135.4597406549001 62.82985156675568,134.9274126313976 63.2009345794213,134.782232034966 68.1882902692887,135.26616697912687 64.59620670694858,134.74996966698382 63.14156129735056,134.74996966698382 62.740791643736884,134.95967497299716 62.48845519515453,135.65331415816036 62.19158878503367,135.58878967624332 61.73144584929105,134.95967497299716 55.675371082965285,135.07259313082614 55.31913139077369,135.3468226983241 55.02226498071104,136.10498499500682 53.19653655850561,135.68557639195933 53.018416712468024,134.84675675648032 50.59895547002088,134.94354380277218 43.14760857610963,133.87888392106106 41.84139637160115,133.92727766525059 43.1772952171159,133.91114641839522 51.26690489274915,135.05646196904127 52.98873007140355,134.91128145880066 53.15200659696711,135.68557639195933 54.30978559644427,135.83075638464652 53.21137987897964,135.6694452756783 52.914513468858786,134.8628879338503 50.67317207250744,134.95967497299716 43.83040131937014,133.95954015541065 42.00467289716471,133.92727766525059 43.96399120398564,134.007933881614" stroke="#4DD2FF" stroke-linecap="round" stroke-linejoin="round" stroke-width="0.5"><title>2025-01-25 9.9km</title><desc>1737761473000</desc></polyline><polyline fill="none" points="71.85999999998603,133.6795822299464 80.66499999997905,134.95109960414993 83.21500000002561,134.83698937139707 83.20000000001164,135.8802807196771 84.19000000006054,135.92918487996212 85.0449999999837,136.32041777003906 85.76500000001397,135.26082707967726 91.89999999996508,135.11411411940935 92.47000000003027,135.83137654850725 92.84499999997206,135.71726677336846 92.95000000001164,135.11411411940935 93.19000000000233,134.9347981459432 98.5,135.4401427868288 94.36000000004424,134.88589376410528 93.05499999999302,135.0000039714214 92.65000000002328,135.81507515568228 92.32000000000698,135.71726677336846 92.18500000005588,135.22822420809825 91.89999999996508,135.09781267333892 85.7949999999837,135.21192277049704 85.49499999999534,135.37493709207047 85.13500000000931,136.28781505582447 83.30499999993481,135.84767794008076 83.1699999999837,135.03260687693546 81.08499999996275,135.17931989162753 72.9100000000326,133.9893114996812 71.5,134.00561302807182 73.3300000000163,134.0545176060259 80.61999999999534,135.14671700797044 82.96000000002095,135.01630542478233 83.15500000002794,135.19562133168802 83.15500000002794,135.76617096997506 85.0449999999837,136.28781505582447 85.75,135.22822420809825 91.88500000000931,135.09781267333892 92.26000000000931,135.71726677336846 92.60500000003958,135.81507515568228 93.25000000005821,134.91849668655777 97.59999999997672,135.26082707967726 93.36999999999534,134.86959230109642 92.95000000001164,135.0000039714214 92.875,135.63575975484855 92.60500000003958,135.7824723664089 91.88500000000931,135.04890832783713 85.82500000001164,135.21192277049704 85.43500000005588,135.45644420747703 85.09000000002561,136.2552123367641 83.29000000003725,135.81507515568228 83.06500000000233,134.9837025168963 81.07000000006519,135.16301845037378 73.05999999999767,133.97300997006823 71.8300000000163,134.02191455524007 73.21000000002095,133.9893114996812 75.13000000000466,134.2990403323638" stroke="#4DD2FF" stroke-linecap="round" stroke-linejoin="round" stroke-width="0.5"><title>2025-01-19 8.1km</title><desc>1737283232000</desc></polyline><polyline fill="none" points="105.0688930406468,132.54559556867753 107.32624941616086,132.86097072510165 108.28468005603645,133.35460031981347 108.99089210649254,133.36831223411718 112.3453993460862,135.1234288285341 112.76156001875643,135.50735835250816 116.86011209717253,137.26245454901073 117.78070994862355,137.83834184188163 118.03292853810126,137.6875143916841 118.57519850536482,136.41233191877836 118.92830453056376,136.20665649898 122.24497898179106,136.37119685320067 124.36361513315933,137.1253382613213 128.5,137.2350312996423 124.27533862675773,137.1253382613213 122.35847734700656,136.34377347106056 118.9787482485408,136.17923309230537 118.58780943485908,136.33006177845527 118.0203176085488,137.6875143916841 117.84376459597843,137.76978392529418 113.29121905652573,135.8638636218966 108.83956095285248,133.3957360596105 108.48645492759533,133.42315988104383 107.4271368519403,132.95695436111419 104.52662307338323,132.68271526831086 101.5,132.1068118432304 107.61630079406314,132.9980901897652 108.90261560020735,133.3820241473586 113.51821578701492,135.9049988008628 116.84750116767827,137.27616617218882 117.66721158334985,137.86576500133378 118.00770667917095,137.75607233893243 118.56258757587057,136.49460202235787 118.9787482485408,136.2752149977896 122.44675385334995,136.43975529070303 124.40144792152569,137.15276152703154 128.5,137.26245454901073 124.37622606259538,137.2350312996423 122.30803362914594,136.45346697515924 118.96613731898833,136.2752149977896 118.61303129378939,136.43975529070303 118.0203176085488,137.79720709499088 117.56632414762862,137.81091867831128 112.53456328820903,135.50735835250816 108.95305931806797,133.4642956055177 108.49906585708959,133.49171941670647 107.5154133582837,133.0255140704685 101.55044371786062,132.14794786194398 107.75502101820894,133.01180213062617 108.44862213917077,133.4094479708292 108.85217188228853,133.36831223411718 113.50560485757887,135.91871052514762 117.85637552547269,137.89318815675506 118.66347501165001,136.38490854275005 120.01284446520731,136.38490854275005 118.82741709484253,136.37119685320067 118.0203176085488,137.82463026058394 117.64198972447775,137.76978392529418 112.49673049978446,135.50735835250816 108.9152265296434,133.45058369837352 108.54950957500841,133.47800751162868 107.540635217214,133.01180213062617 104.71578701538965,132.68271526831086" stroke="yellow" stroke-linecap="round" stroke-linejoin="round" stroke-width="0.5"><title>2025-01-17 12.3km</title><desc>1737088953000</desc></polyline><polyline fill="none" points="134.23033707862487,132.42302440077765 134.4073033707682,132.120654267419 135.17837078648154,132.62918557113153 138.76825842697872,133.34387584461365 140.79073033703025,134.38841818661604 141.57443820219487,135.0068944171362 147.76825842697872,137.86560205288697 148.00842696626205,137.70067781642138 148.53932584263384,136.44999755834579 148.86797752801795,136.23009685630677 152.3946629212587,136.44999755834579 154.3286516853259,137.1646730297216 158.4873595504905,137.23339167913946 154.41713483142667,137.1646730297216 152.24297752807615,136.44999755834579 148.96910112357,136.285072056402 148.58988764043897,136.42250998494274 147.99578651681077,137.79688363893365 147.83146067411872,137.85185837215977 143.2176966291736,135.87275765649974 138.80617977521615,133.3851078912994 137.35252808989026,133.01401913940208 131.5,132.18937479579472 137.23876404494513,132.95904296450317 138.4396067415364,133.3851078912994 138.7808988763718,133.34387584461365 143.72331460670102,136.06517115778115 146.73174157296307,137.24713540593802 147.62921348313102,137.8243710076058 147.9705056179664,137.74190888936573 148.5140449437895,136.4362537721463 148.8932584269205,136.24384065787308 152.26825842697872,136.44999755834579 154.30337078642333,137.15092929675302 158.5,137.20590422245732 154.36657303367974,137.15092929675302 152.38202247186564,136.50497269288462 148.98174157302128,136.2575844584353 148.58988764043897,136.44999755834579 147.86938202247256,137.87934573259554 143.41994382016128,135.96896443222067 138.84410112357,133.45382794861507 138.22471910109743,133.42633992875926 137.55477528087795,133.04150722068152 133.06741573038744,132.39553622729727" stroke="#4DD2FF" stroke-linecap="round" stroke-linejoin="round" stroke-width="0.5"><title>2025-01-15 9.1km</title><desc>1736916504000</desc></polyline><polyline fill="none" points="163.85384615382645,132.0163992854359 164.03006993007148,132.31750124892278 164.64685314684175,132.6870348022203 167.73076923075132,133.193431427193 169.40489510493353,133.74088566757564 171.39370629366022,135.0410829497123 177.6748251747922,137.91517060415936 177.95174825174036,137.84674046823056 178.48041958041722,136.61499366331554 178.90839160839096,136.38232945061463 182.38251748250332,136.6013075413066 184.2832167831948,137.3540427372791 188.5,137.44984517733974 184.23286713287234,137.3951009320008 182.34475524473237,136.64236590423388 178.89580419572303,136.38232945061463 178.48041958041722,136.61499366331554 177.88881118874997,137.92885662827757 177.49860139854718,137.92885662827757 173.3699300698936,136.09492031051195 168.80069930071477,133.54927686903102 168.53636363637634,133.6313949500327 166.93776223773602,133.1249995324033 161.5,132.35856056932244 166.05664335662732,132.9060172978352 168.77552447555354,133.50821781477134 172.84125874121673,135.75276598599157 177.7503496503341,137.9836007145641 178.03986013983376,137.81936840673734 178.631468531501,136.4370739977603 179.91538461536402,136.4644462652068 178.66923076921375,136.49181852857873 177.85104895103723,137.96991469453496 173.0552447552327,136.012803330741 168.87622377619846,133.57664956674853 167.4034965034807,133.152372293378 163.43846153846243,132.60491629906755" stroke="#4DD2FF" stroke-linecap="round" stroke-linejoin="round" stroke-width="0.5"><title>2025-01-14 7.8km</title><desc>1736829619000</desc></polyline><polyline fill="none" points="15.192093023273628,162.72654975694604 14.978604651172645,162.4261489259079 15.48093023255933,162.4807672954339 19.70046511630062,163.83256675465964 22.29999999998836,165.11608428576437 23.455348837247584,165.92169176170137 27.637209302338306,167.83328855168656 27.913488372054417,167.75136338391167 28.478604651172645,166.46786430753127 28.842790697643068,166.24939548449765 32.24604651163099,166.46786430753127 33.87860465119593,167.13692345813615 35.04651162790833,167.28712007463037 38.5,167.28712007463037 34.11720930231968,167.17788618394115 32.258604651200585,166.46786430753127 28.880465116293635,166.23574117440148 28.516279069765005,166.3859385294054 27.92604651162401,167.75136338391167 27.57441860466497,167.76501758108498 23.367441860435065,165.94900042764493 19.524651162850205,163.84622124377347 17.590697674429975,163.0406046447606 11.5,162.18036606154055 17.666046511614695,163.06791374000022 19.524651162850205,163.7642942937382 22.890232558129355,165.66225923228194 27.599534883745946,167.79232597236114 27.90093023260124,167.71040078626538 28.403255813929718,166.48151860031066 28.767441860516556,166.24939548449765 32.35906976746628,166.48151860031066 34.24279069766635,167.19154042382434 38.37441860465333,167.30077430640813 34.15488372097025,167.15057770107524 32.27116279071197,166.44055571890203 28.754883720946964,166.23574117440148 28.45348837209167,166.4132471261546 27.86325581400888,167.79232597236114 27.386046511644963,167.75136338391167 26.745581395342015,167.3144285371527 23.19162790698465,165.89438309169782 18.720930232550018,163.36831351909495 17.377209302328993,162.99964099425415 11.550232558161952,162.16671144829888 18.746046511630993,163.35465899437258 23.216744186065625,165.8124570572254 26.783255813992582,167.28712007463037 27.612093023315538,167.81963435962098 27.90093023260124,167.73770918569062 28.45348837209167,166.39959282831114 28.805116279108915,166.23574117440148 32.18325581395766,166.4132471261546 33.92883720929967,167.10961496920208 34.9837209302932,167.218848900593 33.87860465119593,167.10961496920208 32.1455813953653,166.4132471261546 28.830232558131684,166.19477823805937 28.478604651172645,166.3586299285671 27.913488372054417,167.68309238275106 27.461395348829683,167.69674658500298 26.29348837211728,167.05499797906668 23.216744186065625,165.86707441759063 18.708372092980426,163.36831351909495 16.975348837208003,162.93136822307133" stroke="yellow" stroke-linecap="round" stroke-linejoin="round" stroke-width="0.5"><title>2025-01-10 13.0km</title><desc>1736482744000</desc></polyline><polyline fill="none" points="44.08644859812921,161.96141392319987 45.3228971962817,162.798237346753 47.46775700937724,163.20978845492937 49.57476635515923,164.01916961750248 51.858411214954685,165.37727577805344 57.763084112200886,168.03858607680013 58.04065420560073,167.81909802286827 58.15420560748316,166.61190904994146 58.318224299058784,166.4061374128505 62.292523364536464,166.66678144766774 64.37429906544276,167.43499329901533 68.43691588786896,167.5310195550701 64.19766355142929,167.39383917392115 62.292523364536464,166.68049954454182 58.39392523368588,166.39241929554555 58.14158878510352,166.68049954454182 58.04065420560073,167.87397006087122 57.763084112200886,168.03858607680013 53.24626168224495,166.1180567345873 48.805140186916105,163.6350569669885 47.41728971962584,163.20978845492937 41.5,162.38668531864823 47.74532710283529,163.23722516276757 48.36355140188243,163.58018366577744 48.79252336447826,163.58018366577744 53.32196261687204,166.06318417331204 57.57383177569136,167.98371408780804 58.00280373834539,167.87397006087122 58.12897196266567,166.62562715091917 58.35607476637233,166.41985552910774 62.292523364536464,166.68049954454182 64.47523364488734,167.43499329901533 68.5,167.4898654514691 64.13457943929825,167.38012113017612 62.27990654204041,166.62562715091917 58.406542056123726,166.41985552910774 58.19205607479671,166.55703663584427 58.17943925235886,167.5310195550701 57.85140186920762,168.02486808106187 53.15794392529642,166.07690231518063 48.8303738317918,163.6213386432355 47.32897196261911,163.20978845492937 41.5,162.34553006525675 45.915887850453146,162.9079843988875 48.742056074843276,163.5527470090601 52.89299065427622,165.87113008019514 57.599065420625266,167.98371408780804 57.952336448652204,167.8876880677999 58.22990654211026,167.20178646860586 57.952336448652204,167.95627808723657 57.3971962617361,167.87397006087122 53.23364485986531,166.09062045598694 48.805140186916105,163.53902867915167 48.514953271020204,163.60762031842023 47.54345794394612,163.14119666744955 45.94112149538705,162.9628579003911" stroke="yellow" stroke-linecap="round" stroke-linejoin="round" stroke-width="0.5"><title>2025-01-08 12.0km</title><desc>1736310892000</desc></polyline><polyline fill="none" points="74.3779803646612,163.33933692522987 74.75666199158877,162.73544648638926 74.80715287517523,162.14527891749458 75.04698457225459,161.93940606489195 75.32468443200924,161.99430551474507 75.19845722295577,162.09037951262144 76.42286115005845,162.55702393241518 77.05399719497655,163.07856629676826 79.64165497897193,163.98439952534682 83.9333800841705,166.3038612754026 87.79593267879682,168.0194207050954 88.04838709672913,167.77238113178464 88.08625525946263,166.63324992507114 88.43969144462608,166.39993302573566 92.3022440392524,166.67442346489406 94.32187938288553,167.44299451877305 98.5,167.52534122725774 94.2966339411214,167.4155456078006 92.35273492283886,166.701872486301 88.38920056103962,166.44110661765444 88.12412342213793,166.71559699546196 88.08625525946263,167.77238113178464 87.87166900420561,168.06059393510805 83.13814866764005,166.04309484337864 78.80855539970798,163.61383192476933 78.32889200560749,163.61383192476933 77.44530154281529,163.1883645011112 71.5,162.43350052455207 77.6220196353388,163.3118874027423" stroke="#4DD2FF" stroke-linecap="round" stroke-linejoin="round" stroke-width="0.5"><title>2025-01-06 5.2km</title><desc>1736137119000</desc></polyline><polyline fill="none" points="104.99485981307225,162.928562635876 105.05794392520329,162.4072630507144 105.47429906547768,161.78993268574413 105.77710280369502,162.8599706695386 105.34813084109919,163.14805675648677 106.14299065421801,163.10690162880928 108.76728971960256,163.73794590907346 112.32523364486406,165.41157461293915 112.9939252336626,166.00145651404455 117.78831775696017,168.12775931242504 118.07850467285607,167.94942518226162 118.12897196260747,166.79710817785235 118.36869158875197,166.5776184071001 122.51962616824312,166.86569867758953 124.51308411208447,167.62019248823344 128.5,167.68878268137632 124.34906542056706,167.59275640384294 122.38084112148499,166.82454438084096 118.41915887850337,166.5776184071001 118.17943925235886,166.78339007488103 118.09112149535213,167.94942518226162 117.83878504676977,168.196349316524 113.3093457944342,166.33069210224494 109.60000000003492,164.2318051415641 107.73271028039744,163.47729744679236 101.5,162.5032920325757 105.73925233643968,163.02459134583478 108.74205607478507,163.69679091326543 112.55233644862892,165.80940214906877 116.95560747658601,167.72993678499188 117.6369158878806,168.21006731427042 118.06588785047643,167.90827112768602 118.17943925235886,166.7147995444975 118.35607476631412,166.53646404594474 121.15700934577035,166.86569867758953 122.38084112148499,166.79710817785235 124.4121495326981,167.5790383600979 128.48738317756215,167.6476285685494 124.071495327109,167.51044812609325 122.3051401869161,166.82454438084096 118.45700934581691,166.53646404594474 118.17943925235886,166.74223575972428 118.1415887849871,167.86711706395727 117.86401869158726,168.1414773153083 113.37242990656523,166.3169739645091 109.62523364485241,164.1494953614456 108.07336448598653,163.55960752739338 101.66401869157562,162.57188413178665" stroke="#4DD2FF" stroke-linecap="round" stroke-linejoin="round" stroke-width="0.5"><title>2025-01-03 9.5km</title><desc>1735878536000</desc></polyline><polyline fill="none" points="134.193676815019,162.38056400204368 135.7744730679551,162.8205805155012 137.582903981267,162.98558643754222 138.4555035129306,163.42560150848294 138.78430913347984,163.38435014015704 142.54028103046585,165.46065756570897 147.58618266979465,167.78444413695252 147.96557377051795,167.71569347495097 148.48407494142884,166.46442695207952 148.86346604221035,166.244423170152 152.25269320845837,166.45067672338337 154.26346604217542,167.2069377801672 158.5,167.33068929443834 154.57962529273937,167.22068795251835 152.40444964868948,166.51942785659048 148.88875878223917,166.31317438014958 148.48407494142884,166.53317808016436 147.81381733022863,167.83944464811066 142.90702576114563,165.77691426275123 138.77166276349453,163.46685286761203 138.44285714288708,163.49435376854672 137.4311475410359,163.01308741021785 136.00210772833088,162.94433497085993 131.5,162.1605553519039 137.53231850120937,162.9993369243748 139.31545667449245,163.83811468470958 137.64613583142636,163.04058837877528 133.940749414498,162.47681770399504" stroke="#4DD2FF" stroke-linecap="round" stroke-linejoin="round" stroke-width="0.5"><title>2025-01-02 5.6km</title><desc>1735817809000</desc></polyline><polyline fill="none" points="164.61635514016962,162.48957241272728 167.619158878515,162.9834340737143 168.50233644858235,163.44985775944951 169.34766355139436,163.60075928716105 173.94018691591918,166.12491196051997 177.81355140183587,167.7985158522206 178.1415887849871,167.45556547415617 178.5074766355101,166.5364553113759 178.94906542054377,166.31696563870355 182.19158878503367,166.42671050774516 184.56355140189407,167.29094906584942 188.5,167.318385144099 186.96074766351376,167.4144113858638 184.3364485981292,167.24979494075524 182.36822429904714,166.48158291775326 178.96168224303983,166.28952941122407 178.57056074764114,166.44042861179332 177.99018691590754,167.74364383463399 177.77570093463873,167.83966985462757 171.59345794393448,165.12348596453376 168.7546728971647,163.44985775944951 168.3509345795028,163.4772944100696 167.4803738318151,163.03830750983616 161.5,162.1466121465637 167.02616822428536,162.9148422555736 168.45186915888917,163.4224211047549 168.7546728971647,163.34011111616564 172.80467289721128,165.61734056101704 177.77570093463873,167.8533878534363 178.60841121495469,166.39927429663658 178.94906542054377,166.26209317967005 179.90794392518,166.38555618951796 178.583177570079,166.3718380814098 177.99018691590754,167.71620781972888 177.76308411214268,167.78479784933734 173.1831775701139,165.8505492155964 168.94392523361603,163.49101273382257 168.37616822432028,163.44985775944951 167.36682242993265,162.99715243428363 166.28177570091793,163.03830750983616 161.87850467290264,162.1877674122661 164.65420560748316,162.70906664781796" stroke="#4DD2FF" stroke-linecap="round" stroke-linejoin="round" stroke-width="0.5"><title>2024-12-31 8.0km</title><desc>1735619151000</desc></polyline><polyline fill="none" points="15.259813084150665,192.68163005549286 16.180841121531557,192.70906681849738 18.817757009412162,193.32639290584484 20.357009345840197,194.14949113606417 20.79859813087387,194.60219359426992 27.864018691587262,197.79851564374985 28.5327102803858,196.49530090630287 28.911214953288436,196.28952931518143 32.4060747664189,196.48158280736243 34.14719626167789,197.1812045493425 38.48738317762036,197.2909488951409 34.31121495331172,197.24979477316083 32.3808411215432,196.49530090630287 28.923831775784492,196.28952931518143 28.557943925261497,196.45414660645474 27.800934579514433,197.8533876408619 23.53644859814085,196.02888496963715 19.67570093460381,193.9025620533357 17.42990654206369,193.01087094201648 11.5,192.14661235915264 16.269158878538292,192.7639403322828 18.779906542098615,193.34011123984237 23.53644859814085,195.91913987169391 27.687383177632,197.83966964311549 28.002803738345392,197.7162076173845 28.5327102803858,196.48158280736243 28.96168224303983,196.2483749693638 32.33037383185001,196.45414660645474 34.374299065442756,197.2086406419403 38.5,197.2223586866894 34.525700934638735,197.23607673043443 32.317757009353954,196.48158280736243 28.898598130850587,196.26209308562102 28.5327102803858,196.45414660645474 27.977570093469694,197.70248960940808 27.775700934580527,197.79851564374985 23.20841121498961,195.87798544309044 18.8808411215432,193.4498578749335 16.988317757030018,192.98343422396283 11.701869158889167,192.21520445837814 17.26588785048807,192.96971586337895 18.426635514071677,193.4361395491287 18.918691588856746,193.38126623566495 22.93084112147335,195.60362235069624 18.8556074766675,193.4087028944341 15.045327102823649,192.6953484374826" stroke="yellow" stroke-linecap="round" stroke-linejoin="round" stroke-width="0.5"><title>2024-12-30 10.8km</title><desc>1735533491000</desc></polyline><polyline fill="none" points="45.29057835822459,192.63118403371482 47.75886194035411,193.04196738389146 48.45149253733689,193.43905708294187 48.80410447763279,193.39797887799796 49.521921641833615,193.69921883432835 52.607276119466405,195.4518778778147 57.61940298508853,197.75221750879427 57.98460820899345,197.76590992040292 58.5135261194082,196.46512626300682 58.92910447763279,196.23235347957234 62.24113805964589,196.45143375448242 64.21828358207131,197.21821266037296 68.5,197.28667490713997 64.38199626869755,197.21821266037296 62.36707089556148,196.47881877052714 58.87873134331312,196.2597385282279 58.53871268656803,196.46512626300682 58.09794776124181,197.57421606502612 57.75792910443852,197.8206795566366 53.048041044792626,195.83526981562318 49.69822761195246,193.9183021288336 47.784048507455736,193.13781670015305 41.5,192.15193563136563 47.56996268656803,193.02827462034475 49.98787313431967,193.9183021288336 52.53171641792869,195.4518778778147 57.72014925372787,197.84806436863437 57.97201492532622,197.77960233097838 58.55130597011885,196.47881877052714 58.90391791041475,196.3145086132572 62.34188432834344,196.50620378245367 64.23087686568033,197.23190511175198 68.46222014923114,197.27298245980637 67.17770522390492,197.3825220097351 64.29384328355081,197.23190511175198 62.329291044792626,196.45143375448242 58.91651119402377,196.2597385282279 58.563899253786076,196.41035622282652 57.98460820899345,197.7385250961379 57.606809701479506,197.7932947405643 53.5265858208877,196.01327294346993 52.191697761183605,195.19171860741335 47.75886194035411,193.0830456684198 42.14225746266311,192.28886387386592" stroke="#4DD2FF" stroke-linecap="round" stroke-linejoin="round" stroke-width="0.5"><title>2024-12-27 9.1km</title><desc>1735273142000</desc></polyline><polyline fill="none" points="93.21355140185915,196.6256229057908 92.22943925234722,196.3512609988975 91.18224299064605,196.47472390759503 88.72196261683712,196.24151612172136 87.85140186920762,197.80537444740185 83.27149532712065,195.93971737210813 78.72943925228901,193.4429996527906 78.36355140188243,193.4841546148964 77.3794392523705,193.0451678782265 71.5,192.11231758758368 75.6130841121776,192.77080063631 76.01682242995594,192.7022087619407 78.90607476636069,193.4292813300417 82.12336448597489,195.04803635863937 82.60280373838032,195.4870183202729 87.57383177569136,197.76422045107756 87.93971962615615,197.73678444843972 88.44439252332086,196.47472390759503 88.84813084109919,196.2277980074432 92.3303738317336,196.4472877128428 94.46261682244949,197.24293570168084 98.5,197.35267998208292 94.04626168223331,197.16062744848023 92.48177570092957,196.48844200343592 88.83551401866134,196.24151612172136 88.57056074769935,196.3238247857371 88.00280373834539,197.7779384508467 87.75046728970483,197.88768241243088 86.66542056074832,197.24293570168084 83.12009345792467,195.84369039350713 78.96915887854993,193.41556300628872 76.11775700934231,192.77080063631 73.12757009343477,192.37296740929014" stroke="#4DD2FF" stroke-linecap="round" stroke-linejoin="round" stroke-width="0.5"><title>2024-12-25 6.6km</title><desc>1735101299000</desc></polyline><polyline fill="none" points="104.3035547240288,192.3499114674487 104.20252572494792,192.59707365858776 104.36669784842525,192.54214875587786 104.60664172121324,192.14394272156642 105.37698783905944,192.67946098199172 106.23573433113052,192.72065462985483 108.87511693168199,193.39348290860653 113.54770813841606,195.9474617716769 117.84144059871323,197.80113394290674 118.01824134704657,197.78740310648573 118.54864359210478,196.482968980461 118.9401309635141,196.27700485353125 122.32460243214155,196.46923804581456 124.50935453694547,197.29309231344087 128.5,197.3617466695432 124.31992516369792,197.25189968752966 122.19831618334865,196.4555071101786 118.82647333963541,196.29073580245313 118.54864359210478,196.42804523576342 117.98035547242034,197.71874890891195 117.75304022448836,197.75994143051503 113.0930776426685,195.8376139467582 109.59494855004596,193.80541737709427 107.6122544434038,193.0090099072404 101.5,192.15767397846503 103.57109448075062,192.47349260444753 104.5561272216728,192.44603013670712 108.02899906452512,193.13259060231212 109.60757717490196,193.75049283450062 113.93919550976716,196.139695307691 117.63938260055147,197.78740310648573 118.03086997190258,197.74621059102356 118.66230121609988,196.34565958805615 119.95042095414829,196.34565958805615 118.7001870907261,196.30446675040002 117.96772684750613,197.85605727841903 113.42142188962316,195.97492371764383 110.97146866226103,194.533166021356 107.7385406921967,193.1051282327826 101.53788587456802,192.17140523433045 106.7282507015625,192.9128915315814" stroke="#4DD2FF" stroke-linecap="round" stroke-linejoin="round" stroke-width="0.5"><title>2024-12-18 8.3km</title><desc>1734495982000</desc></polyline><polyline fill="none" points="134.34608208958525,191.22766501444858 133.88013059698278,191.33720875928702 134.04384328360902,191.2002790680126 133.88013059698278,191.30982282919285 133.77938432834344,191.15920014071162 133.8297574626631,191.29612986261782 134.84981343284016,192.00816277172999 137.07882462686393,192.9940499374352 137.6077425373369,193.82931131424266 138.19962686568033,194.294865188087 138.85447761195246,194.39071436863742 143.47621268656803,196.8827755178354 147.65718283585738,198.75864541104238 147.9594216417754,198.77233782161784 148.55130597017705,197.45786175366084 148.91651119402377,197.25247401886736 152.41744402988115,197.47155426118115 154.6212686567451,198.2383330527955 158.5,198.3067952893325 154.28125,198.2383330527955 152.41744402988115,197.48524676763918 148.8535447762115,197.26616654163809 148.48833955224836,197.47155426118115 147.85867537313607,198.827107453777 141.67537313431967,196.23922450137616 141.24720149248606,195.81475344867795 139.69822761201067,194.9384230129217 137.83442164183361,194.19901595752162 131.5,193.17205677866878 137.51958955224836,193.966239046611 138.57742537319427,194.43179257358133 138.8041044776328,194.3633288935671 143.5265858209459,196.9375457130518 146.77565298503032,198.224640602406 147.6697761194082,198.77233782161784 148.00979477615329,198.69018334276916 148.63945895520737,197.37570668727858 149.94916044780985,197.33462914035772 148.71501865668688,197.4167842250754 148.06016791047296,198.84079985928838 147.49347014923114,198.79972263977106 143.22434701491147,196.96493080456275 142.05317164183361,196.1981467004225 137.79664179106476,194.1305521907925 131.60074626863934,193.26790654481738 137.6077425373369,193.99362458083488" stroke="#4DD2FF" stroke-linecap="round" stroke-linejoin="round" stroke-width="0.5"><title>2024-12-17 8.6km</title><desc>1734409492000</desc></polyline><polyline fill="none" points="164.82928538066335,192.51817044784548 167.52802428771975,192.943241374247 168.51167678658385,193.4094470678392 168.83956095285248,193.31346363923512 173.51821578707313,195.89128691218502 177.7680990191875,197.72864954722172 177.99509574961849,197.7012263591605 178.57519850536482,196.34377344252425 178.8904717421974,196.16552130579657 182.5476412891294,196.4260436012264 184.37622606259538,197.1253384656884 188.5,197.19389664274058 188.09645025688224,197.33101292021456 184.36361513310112,197.19389664274058 182.2071461933665,196.3986202190863 178.96613731904654,196.26150324700575 178.47431106958538,196.56316045073618 177.93204110232182,197.72864954722172 177.71765530126868,197.79720749956323 173.89654367114417,196.1792330147291 168.76389537600335,193.43687089538435 168.09551611403003,193.35459940048167 167.38930406357395,192.943241374247 161.5,192.13423457366298 167.47758056985913,192.9295294242038 168.32251284446102,193.38202323621954 168.81433909392217,193.3408874810848 173.48038299864857,195.87757518180297 177.6798225128441,197.71493795371498 178.03292853804305,197.68751476357284 178.46170014009112,196.522025406608 178.8904717421974,196.1929447226721 182.58547407761216,196.4260436012264 184.33839327422902,197.1253384656884 188.42433442315087,197.23503153667843 184.56539000466,197.19389664274058 182.35847734706476,196.3986202190863 178.87786081276136,196.2340798403311 178.56258757592877,196.384908526481 177.9068192433915,197.79720749956323 173.39210649230517,195.94613382358511 168.7765063054976,193.43687089538435 167.6541335824877,193.03922499594046 161.65133115369827,192.16165859125613 167.4523587108706,192.943241374247 168.33512377395527,193.38202323621954 168.87739374127705,193.39573515253142 174.01004203641787,196.1243861727853 177.6798225128441,197.75607273122296 178.03292853804305,197.7012263591605 178.46170014009112,196.30263834937068 179.92456795898033,196.33006174581533 178.58780943485908,196.3574851381709 177.95726296119392,197.86576542633702 173.3542737038806,195.9324220972776 168.82695002335822,193.42315898214292 168.42340028024046,193.43687089538435 167.4271368519403,192.95695332325704 161.65133115369827,192.2165066141315 167.33886034565512,192.9295294242038" stroke="yellow" stroke-linecap="round" stroke-linejoin="round" stroke-width="0.5"><title>2024-12-15 13.0km</title><desc>1734235831000</desc></polyline><polyline fill="none" points="14.16977611934999,222.24093879183056 14.16977611934999,222.39155978562485 15.3031716417172,222.7338797669654 16.826958955149166,223.0488135866326 17.620335820829496,222.9940425263194 18.38852611934999,223.43221055172035 18.82929104473442,223.44590328568302 24.042910447751638,226.22550715645775 27.78311567165656,227.81383335187274 28.02238805964589,227.80014094332 28.52611940295901,226.58151249715593 28.903917910414748,226.33504733472364 32.3796641791123,226.51304998520936 34.38199626863934,227.27982866256207 38.5,227.36198333113862 34.306436567159835,227.27982866256207 32.48041044775164,226.52674248961557 28.84095149260247,226.28027725375432 28.488339552190155,226.44458744773874 27.8838619402959,227.84121816587867 23.488805970118847,226.04750422752113 19.395988805918023,223.76083588520123 17.532182835799176,223.0351208230859 11.5,222.15878183410678 14.698694029764738,222.48740944467136 17.532182835799176,222.95296422039974 18.804104477574583,223.36374686662748 22.670242537278682,225.4724166635715 26.53638059698278,227.170289047368 27.493470149231143,227.77275612315862 28.009794776095077,227.71798647058313 28.47574626863934,226.58151249715593 28.8661380597041,226.30766229631263 32.316697761183605,226.45827995723812 34.19309701496968,227.23875131450768 35.62873134325491,227.25244376489718 34.09235074627213,227.1976739572856 32.29151119402377,226.48566497328284 29.004664179112297,226.28027725375432 28.488339552190155,226.43089493717707 27.858675373136066,227.78644853373407 23.249533582071308,225.91057878026913 18.82929104473442,223.47328875052335 17.506996268581133,223.0351208230859 15.517257462604903,222.78865090479667" stroke="#4DD2FF" stroke-linecap="round" stroke-linejoin="round" stroke-width="0.5"><title>2024-12-13 8.5km</title><desc>1734064159000</desc></polyline><polyline fill="none" points="44.42064241843764,222.54550260807446 47.20099196978845,222.94765770706 49.1140765233431,223.5439550475421 53.09329239488579,225.79045345360646 57.544402456318494,227.75958407904545 57.90151157299988,227.77345112225157 58.4754369391012,226.45607740404375 58.83254605572438,226.27580448583467 62.33986773737706,226.45607740404375 64.09990552667296,227.17716733105772 68.5,227.26036983520316 64.52078412851552,227.23263567127287 62.21232876711292,226.44221026268497 58.74326877662679,226.26193733104446 58.37340576288989,226.3867416869616 57.95252716104733,227.57931242320046 57.646433632529806,227.85665335986414 56.74090694379993,227.34357230215392 53.080538497830275,225.91525812564942 49.38190836086869,223.79356732050655 47.417808219150174,223.1140664593695 49.369154463813175,223.73809795544366 51.715871516324114,225.15256160090212 56.766414737852756,227.32970522687538 57.506140765268356,227.81505224571447 57.876003778888844,227.73184998950455 58.449929144990165,226.22033586050384 57.85049598489422,227.6902488474443 57.531648559321184,227.77345112225157 53.220831365091726,225.94299248582684 48.62942843651399,223.36367930888082 48.1830420406186,223.3775466795778 47.060699102526996,222.91992290054623 41.5,222.14334664013586" stroke="#4DD2FF" stroke-linecap="round" stroke-linejoin="round" stroke-width="0.5"><title>2024-12-11 6.6km</title><desc>1733890893000</desc></polyline><polyline fill="none" points="74.77387640444795,222.67728927131975 77.66853932582308,223.00714664009865 78.30056179768872,223.3782354749419 78.81882022472564,223.3644914573233 83.57162921346026,225.98958024053718 87.81882022466743,227.83124326927646 88.5140449438477,226.40189445612486 88.88061797746923,226.23696888047562 92.50842696626205,226.45686961528554 94.36657303367974,227.18528892709583 98.46207865170436,227.28149503628083 94.51825842697872,227.18528892709583 92.5463483146159,226.52558854113158 88.61516853928333,226.36066307603323 87.91994382016128,227.87247432072763 83.48314606741769,226.0170678835857 82.20646067417692,225.15120516030584 78.7808988763718,223.44695554762438 78.50280898879282,223.51567559471005 77.41573033708846,223.07586685102433 71.6264044943382,222.25122263029334 76.42977528087795,222.80098585372616 78.7808988763718,223.35074743870064 82.09269662917359,224.98627846651652 83.47050561796641,225.90711728684255 87.7176966292318,227.80375589654432 87.98314606741769,227.7075500596984 88.53932584269205,226.48435718867404 88.88061797746923,226.23696888047562 91.09269662917359,226.45686961528554 92.21769662917359,226.36066307603323 94.42977528087795,227.1990326600644 98.5,227.26775130948226 94.21488764043897,227.17154519312317 92.48314606741769,226.48435718867404 88.85533707862487,226.2507126841083 88.53932584269205,226.37440687044 88.09691011230461,227.6113441726775 87.85674157302128,227.81749958344153 83.91292134829564,226.16824984710547 81.54915730335051,224.75263206461386 78.75561797752744,223.3782354749419 76.73314606741769,222.86970614145685 71.5,222.12752567925781 77.95926966291154,223.06212281090848 87.5154494381859,227.73503744676418 87.98314606741769,227.65257527322683 88.53932584269205,226.22322507583885 88.00842696626205,227.7075500596984 87.74297752807615,227.76252482976997 83.62219101120718,226.0170678835857 78.79353932588128,223.33700341904478 74.38202247186564,222.5948248369532" stroke="yellow" stroke-linecap="round" stroke-linejoin="round" stroke-width="0.5"><title>2024-12-09 12.1km</title><desc>1733738831000</desc></polyline><polyline fill="none" points="112.73515551368473,225.51881740322278 117.81196983973496,227.8153353616508 118.3972667294438,226.48723205341958 118.85532516491367,226.23821162570675 122.1380772855482,226.37655634898692 124.13572101783939,227.16511930373963 128.5,227.31729773411644 124.5556079170201,227.23429133299214 122.35438265779521,226.47339759395982 118.89349670126103,226.2935495273996 118.46088595659239,226.43189420946874 117.8374175306526,227.8430040795938 113.81668237509439,226.16903922545316 108.701696512755,223.40212208482262 108.24363807722693,223.4159567730967 107.6583411875763,223.028585112188 104.03204524033936,222.5443693996349 103.57398680486949,222.3230132247554 103.35768143262248,222.50286513693572 101.76720075402409,222.2538393659779 105.53345900092972,222.64121264315327 108.701696512755,223.34678332146723 112.03534401510842,224.9931044781988 112.97690857684938,225.68483170191757 117.62111215834739,227.8153353616508 117.92648444860242,227.69082607999735 118.46088595659239,226.40422528130875 118.75353440147592,226.1828737075557 119.88595664460445,226.37655634898692 122.32893496699398,226.39039081564988 124.36475023563253,227.17895371167106 128.41093308193376,227.26196013748995 124.26295947219478,227.13745048482087 122.32893496699398,226.4180597458908 118.84260131948395,226.26588057864865 118.3209236569237,226.70858326436428 117.82469368516468,227.8430040795938 113.09142318571685,225.79550781860598 108.68897266726708,223.40212208482262 108.39632422244176,223.4574608316616 106.75494816206628,222.9179073463456 101.5,222.1569959204062 106.99670122528914,222.9179073463456 108.28180961351609,223.38828739552991 108.76531573984539,223.37445270523313 110.40669180022087,224.27370543213328" stroke="#4DD2FF" stroke-linecap="round" stroke-linejoin="round" stroke-width="0.5"><title>2024-12-06 9.2km</title><desc>1733479157000</desc></polyline><polyline fill="none" points="134.23913043469656,222.56388643894752 137.67251051886706,222.9756298893044 138.40462833095808,223.42854662169702 138.80855539970798,223.34619820771331 143.51683029450942,225.98132919649652 147.63183730712626,227.80668429371144 148.04838709672913,227.68316459449125 148.49018232815433,226.50286106974818 148.96984572231304,226.31071791979775 152.377980364603,226.4754120605794 154.2966339410632,227.20280942133104 158.5,227.3400538843125 154.34712482464965,227.20280942133104 152.35273492278066,226.5165855727828 148.9067321177572,226.29699340139632 148.464936886332,226.57148357472033 147.8338008414721,227.83413310452306 143.17601683025714,225.85780827343115 142.11570827488322,225.130405602089 138.82117812056094,223.4559960848419 138.45511921454454,223.48344554388314 137.53366058901884,223.04425370819808 131.5,222.1658668954624 137.53366058901884,223.03052894645953 139.4270687236567,223.82656343693088 138.8716690041474,223.4559960848419 134.25175315560773,222.5776112354797" stroke="#4DD2FF" stroke-linecap="round" stroke-linejoin="round" stroke-width="0.5"><title>2024-12-03 5.6km</title><desc>1733220329000</desc></polyline><polyline fill="none" points="165.02447552455124,222.7007196889026 167.57972027972573,222.97444764526153 168.44825174828293,223.48084328924597 169.55594405595912,223.61770673717547 170.75174825178692,224.3978264432517 172.38811188808177,225.01370808160573 173.43286713288398,225.8211942124908 177.92657342663733,227.79199291770055 178.49300699302694,226.57393232446339 178.9461538462201,226.2728374497965 182.38251748256152,226.46444333624095 184.49720279726898,227.24455095360463 187.4552447553142,227.2171788125852 188.5,227.299295223449 188.1853146853391,227.38141159756924 184.37132867134642,227.27192309054954 182.38251748256152,226.51918783852307 178.9335664336104,226.32758200916578 178.55594405601732,226.5055017144623 177.976923077018,227.80567894590786 177.70000000001164,227.833050999252 173.0426573426812,225.83488038752694 170.52517482516123,224.3978264432517 167.4664335664711,223.0291931875836 161.5,222.19432189429062 167.68041958048707,223.00182041845983 169.4678321678657,223.8230017178721 167.44125874125166,223.0702523336222 161.52517482516123,222.16694900076254 165.17552447557682,222.67334687081166" stroke="#4DD2FF" stroke-linecap="round" stroke-linejoin="round" stroke-width="0.5"><title>2024-12-02 6.1km</title><desc>1733112856000</desc></polyline><polyline fill="none" points="11.5,251.28143743368855 12.299999999988358,251.61488187905343 14.14000000001397,254.0794535371242 13.979999999981374,253.91998219798552 14.326666666660458,253.90548479702557 14.78000000002794,253.3545827605849 16.433333333348855,253.60103912759223 17.046666666632518,254.00696658098605 18.27333333331626,254.25342212164833 19.593333333265036,255.07977077427495 21.19333333329996,255.68865700965398 22.033333333325572,256.42801630546455 26.83333333331393,258.6170832394564 27.220000000030268,258.6170832394564 27.80666666664183,257.26885287500045 28.19333333329996,257.0803898218437 31.88666666665813,257.26885287500045 34.16666666662786,258.0806916326401 38.5,258.12418289908965 34.19333333335817,258.10968581135967 31.899999999965075,257.2978471746319 28.233333333337214,257.109384149604 27.83333333331393,257.2833500253473 27.11333333334187,258.71856256631145 22.52666666661389,256.7904463067971 19.419999999983702,255.03627882743604 16.313333333295304,253.61553655120952 12.540000000037253,253.16611591634864" stroke="#4DD2FF" stroke-linecap="round" stroke-linejoin="round" stroke-width="0.5"><title>2024-11-29 4.6km</title><desc>1732853630000</desc></polyline><polyline fill="none" points="43.78660287079401,254.12914340617135 43.59282296651509,254.24151509003423 44.419617224892136,254.25556154578226 43.70909090916393,254.1712827954907 44.355023923446424,254.2274686331948 44.27751196169993,254.4241189334134 45.31100478465669,253.0897021553974 47.73971291864291,252.92114357471291 48.51483253587503,253.342539743855 49.6129186602775,253.5672839822655 53.91483253589831,256.0254066001653 58.2296650717617,257.89355835648894 58.87559808616061,256.53107356419787 59.26315789471846,256.34847176140465 62.93205741629936,256.53107356419787 64.79234449757496,257.28957146753964 68.5,257.3317101504945 64.86985645932145,257.261479007022 62.66076555021573,256.4889347023418 59.21148325363174,256.2922865557339 58.90143540670397,256.4748884129367 58.2296650717617,257.8795121717267 53.65645933011547,256.0254066001653 48.92822966509266,253.3846793089615 47.50717703351984,252.9492366819468 41.5,252.1064416435256 47.63636363635305,252.92114357471291 48.424401913944166,253.32849322004768 49.25119617226301,253.4408653811115 52.58421052637277,255.21071808320994 47.59760765550891,252.97732978500426 44.355023923446424,252.54188621713547" stroke="#4DD2FF" stroke-linecap="round" stroke-linejoin="round" stroke-width="0.5"><title>2024-11-28 6.3km</title><desc>1732767063000</desc></polyline><polyline fill="none" points="71.68120805372018,251.77369205487776 75.66778523492394,252.44687454985979 76.57382550340844,252.92302678020496 76.9966442953446,252.89018872838642 81.14932885905728,254.92613868853368 82.58389261743287,255.87843140719633 87.83892617450329,258.1770520508435 88.57885906042065,256.5844388700061 89.122483221523,256.2889011375082 93.12416107376339,256.5023450951703 94.9664429530385,257.27402537131275 96.56711409392301,257.5367244233348 98.5,257.4874683749222 95.58557046978967,257.43821231552283 93.39597315434366,256.5844388700061 89.27348993293708,256.37099499189935 88.65436241606949,256.61727637136937 87.83892617450329,258.2263079451368 82.11577181209577,255.8127561793517 76.9966442953446,252.89018872838642 76.61912751680939,252.97228384877963 75.32046979869483,252.39761736385117 71.5,251.8886257971899" stroke="#4DD2FF" stroke-linecap="round" stroke-linejoin="round" stroke-width="0.5"><title>2024-11-25 4.0km</title><desc>1732507947000</desc></polyline><polyline fill="none" points="101.5,250.3820539493172 107.00401284114923,251.08889195811935 108.49919743184,251.96065665973583 109.32263242395129,251.86641194298863 110.83948635635898,252.36119639253593 112.42134831473231,253.49212937030825 115.41171749611385,254.78798510192428 117.73033707868308,256.3901266656467 122.97431781701744,258.43991359628853 124.72953451052308,259.5001430026896 125.1845906903036,259.311658034625 126.15971107548103,257.02626885892823 128.5,256.97914725885494 126.24638844304718,257.09695124591235 124.98956661322154,259.6179460506828 118.07704654906411,256.7435391532199 109.2792937400518,252.03134017882985 108.69422150892206,252.14914600894554 110.77447833074257,252.54968550303602 111.79293739970308,253.49212937030825 113.5914927769918,253.98691127626807 117.6869983949,256.437248353468 124.25280898890924,259.35877928716945 125.1845906903036,259.4530217712163 126.15971107548103,257.002708059852 125.11958266457077,259.6179460506828 118.18539325846359,256.69641751106246" stroke="#4DD2FF" stroke-linecap="round" stroke-linejoin="round" stroke-width="0.5"><title>2024-11-20 4.0km</title><desc>1732095798000</desc></polyline><polyline fill="none" points="133.0772703133407,252.06118933402468 137.06346255977405,252.63804590460495 138.02416356879985,253.12135694212338 138.68374933610903,253.18371957530326 142.36882634094218,255.00781837440445 143.34386617102427,255.7561620000488 148.59187466808362,258.0791282917635 148.83563462557504,258.04794770693115 149.42352628783556,256.67599737366254 149.85369091870962,256.34859880578006 153.83988316514296,256.56686457463366 155.9333510355791,257.4087446934136 158.5,257.50228671974037 155.89033457246842,257.4243350340548 153.61046202864964,256.55127417010954 149.939723844931,256.3641892253945 149.33749336161418,256.76953972753836 148.77827934140805,258.11030887201196 143.44423791824374,255.91206658522424 139.34333510353463,253.6202574873605 137.03478491771966,252.70040868186334 131.5,251.8896911280026" stroke="#4DD2FF" stroke-linecap="round" stroke-linejoin="round" stroke-width="0.5"><title>2024-11-19 4.1km</title><desc>1731989484000</desc></polyline></svg>