<?xml version="1.0" encoding="utf-8" ?>
<svg baseProfile="full" height="300mm" version="1.1" viewBox="0,0,200,300" width="200mm" xmlns="http://www.w3.org/2000/svg" xmlns:ev="http://www.w3.org/2001/xml-events" xmlns:xlink="http://www.w3.org/1999/xlink"><defs /><rect fill="#222222" height="300" width="200" x="0" y="0" /><text fill="#FFFFFF" style="font-size:12px; font-family:Arial; font-weight:bold;" x="10" y="20">Over 4km Runs</text><text fill="#FFFFFF" style="font-size:4px; font-family:Arial" x="10" y="280">ATHLETE</text><text fill="#FFFFFF" style="font-size:9px; font-family:Arial" x="10" y="290">Fake David</text><text fill="#FFFFFF" style="font-size:4px; font-family:Arial" x="65" y="280">SPECIAL TRACKS</text><rect fill="yellow" height="2.6" width="2.6" x="65" y="283" /><text fill="#FFFFFF" style="font-size:3px; font-family:Arial" x="70" y="285.5">Over 10.0 km</text><rect fill="red" height="2.6" width="2.6" x="65" y="287" /><text fill="#FFFFFF" style="font-size:3px; font-family:Arial" x="70" y="289.5">Over 15.0 km</text><text fill="#FFFFFF" style="font-size:4px; font-family:Arial" x="120" y="280">STATISTICS</text><text fill="#FFFFFF" style="font-size:3px; font-family:Arial" x="120" y="285">Number: 55</text><text fill="#FFFFFF" style="font-size:3px; font-family:Arial" x="120" y="290">Weekly: 2.8</text><text fill="#FFFFFF" style="font-size:3px; font-family:Arial" x="141" y="285">Total: 448.7 km</text><text fill="#FFFFFF" style="font-size:3px; font-family:Arial" x="141" y="290">Avg: 8.2 km</text><text fill="#FFFFFF" style="font-size:3px; font-family:Arial" x="167" y="285">Min: 4.0 km</text><text fill="#FFFFFF" style="font-size:3px; font-family:Arial" x="167" y="290">Max: 13.0 km</text><polyline fill="none" points="11.479140328709036,40.48805147979874 13.629582806606777,40.673622651796904 16.519595448859036,41.304563085286645 19.773704171995632,42.92520301487821 20.79772439954104,43.617990830607596 24.541087231365964,45.300463493171264 24.893805309722666,45.15201070861076 25.018963337584864,43.9891259715514 25.223767383082304,43.815929675634834 26.941845764871687,44.075724051726866 28.841972187103238,44.112837500855676 30.662452591699548,44.81799145814148 34.428571428579744,44.904589106095955 30.51453855878208,44.79324926469417 28.671302149188705,44.112837500855676 25.33754740835866,43.90252784619224 25.098609355220105,44.10046635204344 24.871049304667395,45.31283455256198 24.47281921620015,45.325205611021374 20.183312262990512,43.382938145659864 17.35018963337643,41.72518870905333 15.302149178285617,40.97053609561408 11.285714285739232,40.389080103239394" stroke="#4DD2FF" stroke-linecap="round" stroke-linejoin="round" stroke-width="0.5"><title>2025-04-12 4.6km</title><desc>1744431342000</desc></polyline><polyline fill="none" points="38.428969359374605,40.748538602361805 42.03899721452035,41.192461550745065 43.962196577806026,41.83497938155779 46.282928770408034,42.956458741551614 47.196179864695296,43.61065133071679 50.59132510947529,45.21107526651758 51.010346199793275,45.187711530932575 51.23597294068895,44.48679784448177 51.171508157625794,44.03120226826286 51.44011142064119,43.84429087971512 54.98567449260736,44.17138566345966 56.64027059287764,44.813891288038576 60.14285714284051,44.83725507931376 56.32869080780074,44.74379989327281 54.80302427377319,44.17138566345966 51.44011142064119,43.93774660184863 51.23597294068895,44.08961203150102 51.07481098291464,45.222757133014966 50.76323119777953,45.26948459027335 49.38798249105457,44.55688935412036 47.26064464787487,43.77419905157876 43.231595702352934,41.519561866356526 42.24313569441438,41.22750804577663 37.0,40.44480112401652 41.60923199367244,41.087322018662235 42.67290091526229,41.33264748385409 43.74731396738207,41.87002573299105 43.188619180291425,41.519561866356526 42.85555113409646,41.55460828826472 41.72741742938524,41.15741504788457 39.11659371276619,40.84199616961996" stroke="#4DD2FF" stroke-linecap="round" stroke-linejoin="round" stroke-width="0.5"><title>2025-04-11 5.8km</title><desc>1744345493000</desc></polyline><polyline fill="none" points="64.3704195432365,40.64718924650515 64.35966542747337,40.43671407355578 64.11232076468877,40.68226841457363 62.71428571426077,40.4717932886706 67.62891662237234,41.00967360494542 68.48924588423688,41.39554313101689 68.98393520974787,41.430622131782 70.3389537971234,42.0503498527105 70.55403611256042,42.35436633054633 71.47889006900368,42.86885441299819 76.6086032926105,45.17233719424985 76.87745618692134,44.86832617473556 76.86670207115822,43.88613270284259 77.1032926181797,43.71074036463688 80.70592140196823,44.061524845034 82.23300584167009,44.716320444160374 85.85714285710128,44.77478420412808 82.58789166220231,44.751398702763254 81.94264471583301,44.657856662452105 80.58762612845749,44.061524845034 77.18932554434286,43.86274706904078 76.9634891130845,44.10829604983155 76.86670207115822,45.18402991400217 76.49030801909976,45.277571640734095 75.83430695696734,44.85663343145279 72.95220392983174,43.69904753510491 68.83337758894777,41.44231513030536 67.79022835899377,41.11491084250156 65.16622411040589,40.775812824387685" stroke="#4DD2FF" stroke-linecap="round" stroke-linejoin="round" stroke-width="0.5"><title>2025-04-10 4.8km</title><desc>1744258695000</desc></polyline><polyline fill="none" points="90.03167961747386,40.68710640845529 93.52839211001992,41.13164846310974 95.5833831441123,41.810157593674376 98.84339509863639,43.70528825461224 102.12492528394796,45.23775373015087 102.383144052641,45.214357423072215 102.54453078308143,44.89850693666085 102.67364016739884,44.453975546202855 102.57680812914623,44.021141141070984 102.74895397492219,43.83396913688921 104.30902570235776,44.04453762588673 106.20263000600971,44.05623586702859 108.03167961747386,44.723034169728635 111.49611476395512,44.699637785961386 107.8918111177627,44.723034169728635 106.22414823673898,44.06793410725368 102.95337716682116,43.89246041215665 102.70591751346365,44.1381235303852 102.55528989841696,45.17926295599318 102.18947997613577,45.22605557706265 97.87507471611025,43.31924497503496 94.60430364619242,41.47090339490387 93.47459653322585,41.15504537851666 88.4716078900965,40.42973938047362 93.8619246862363,41.201839198809466 102.22175732220057,45.2845463338017 102.4476987447706,45.20265926826687 102.5983263598755,44.88680875831051 102.56604901375249,44.009442897338886 102.78123132098699,43.82227087924548 106.21338912134524,44.05623586702859 107.55827854160452,44.641146811365616 108.56963538558921,44.78152511380904 111.57142857147846,44.60605221615697 107.91332934855018,44.723034169728635 106.18111177528044,44.06793410725368 102.89958158996888,43.857365649644635 102.6628810520051,44.14982176449848 102.57680812914623,45.05058317609655 102.2002390914713,45.23775373015087 97.71368798566982,43.23735688463785 94.6580992229865,41.505998690845445 92.80753138073487,41.07315615940024 90.92468619253486,40.94447301457694 88.42857142857974,40.48823192389682 90.73102211597143,40.75729734286142" stroke="#4DD2FF" stroke-linecap="round" stroke-linejoin="round" stroke-width="0.5"><title>2025-04-08 9.7km</title><desc>1744085781000</desc></polyline><polyline fill="none" points="115.94703347689938,40.6385889161611 114.14285714284051,40.53349789085041 118.09486244613072,40.84877075537224 120.44673516735202,41.40925428189803 121.18773616175167,41.724525384706794 121.64951939013554,42.16823919572926 122.83082532318076,42.56524522500695 124.29134902224177,43.476019962879946 127.93191912496695,45.21581853320822 128.13596287701512,45.22749496845063 128.28631090483395,44.982289645879064 128.4151806430309,43.95475840813015 128.56552867084974,43.8379930685187 131.98057673184667,44.00146451960609 133.2585349685396,44.57361325582315 134.02101425256114,44.737083939719014 137.28571428568102,44.70205452181108 133.60218760359567,44.67870157219295 132.0127941663959,44.071523660750245 128.72661584353773,43.86134614337061 128.4581372223911,44.01314104531775 128.275571760023,45.169112783594755 128.02857142855646,45.2041420971218 123.68995691085001,43.324224540789146 120.4896917467704,41.51434471998073 119.2439509446267,41.129012769219116 117.31090487237088,41.02392207275261 114.23950944643002,40.486790745853796 117.7619489558856,40.88380103453528 118.41703679150669,41.17571972279984 119.5016904209042,41.24578012706479 120.96221411996521,41.87632235615456 119.32986410340527,41.152366247726604 117.04242625122424,40.76703340698441" stroke="#4DD2FF" stroke-linecap="round" stroke-linejoin="round" stroke-width="0.5"><title>2025-04-07 6.0km</title><desc>1743999676000</desc></polyline><polyline fill="none" points="141.43946843856247,40.773875151382526 140.0724252491491,40.48127653598203 144.38883720926242,41.05476930938312 146.42325581394834,41.58144450180407 149.09275747509673,42.97419927960436 149.38338870432926,43.290200745890616 153.72132890368812,45.25641780953447 153.93661129573593,45.209603403520305 154.0550166112953,44.07434978678066 154.2702990033431,43.87538696784759 157.75787375419168,44.13286821496149 159.60930232558167,44.79997675582126 163.0,44.835087653191295 159.28637873753905,44.7531622138049 157.70405315619428,44.13286821496149 154.3779401993379,43.93390547017043 154.15189368766733,44.027535028522834 154.0227242524852,44.95212392107351 153.74285714287544,45.27982500732469 150.23375415283954,43.81686844374053 146.1326245847158,41.51122124485846 144.8839867109782,41.16010448912857 142.09607973421225,40.890914444913506 139.9647840531543,40.44616466551088 145.32531561458018,41.19521620000887 148.97435215947917,42.9390879663697 150.11534883722197,43.67642389694811 153.72132890368812,45.24471420934424 153.94737541530048,45.12767815943516 154.06578073085984,44.144571897995775 154.28106312290765,43.91049807185482 157.59641196014127,44.10946084631723 159.51242524920963,44.811680389160756 162.98923588043544,44.89360579804634 161.5360797342728,44.95212392107351 159.35096345515922,44.78827312163776 157.48877076414647,44.10946084631723 154.3241196013405,43.91049807185482 154.0765448504826,44.10946084631723 154.0550166112953,44.95212392107351 153.78591362125007,45.268121408851584 150.06152823922457,43.74664618604584 148.0163455149741,42.52945539839857 145.21767441864358,41.21862400291138 139.8571428571595,40.43446070695063 145.16385382058797,41.1718083936139 146.71388704318088,41.79211408436822 147.24132890370674,42.24856387732143 146.12186046509305,41.522925123194 145.76664451829856,41.522925123194 145.16385382058797,41.14840058374102 143.64611295680515,40.98454581697297" stroke="yellow" stroke-linecap="round" stroke-linejoin="round" stroke-width="0.5"><title>2025-04-03 10.8km</title><desc>1743675722000</desc></polyline><polyline fill="none" points="167.16155988856917,40.65508232488355 165.68961400719127,40.491531423758715 167.56983684835723,40.678446725418326 168.24671707121888,40.94713708116615 170.54596100281924,41.13405183966097 172.40469558298355,41.741523266013246 173.24273776367772,42.19712529127719 173.29645841626916,42.39572063158266 176.30481496220455,43.949428436069866 179.38838042184943,45.292847586097196 179.63549542386318,45.1877108503395 179.80740151216742,44.03120210458292 179.99005173100159,43.879336686237366 182.12813370471122,44.171385437148274 183.33147632313194,44.07792989605514 185.3191404695972,44.77884509670548 188.71428571431898,44.82557266537333 185.2546756864176,44.77884509670548 183.3959411063115,44.10129378653073 180.05451651418116,43.90270060635521 179.839633903699,44.10129378653073 179.6892160764546,45.10593778488692 179.39912455232115,45.28116573004809 176.11142061284045,43.879336686237366 172.09311579784844,41.6714305292262 170.86828491842607,41.227509135365835 165.57142857142026,40.421438128178124 171.0724233983783,41.20414481667103 172.0823716673185,41.741523266013246 172.75925189018017,41.90507286330103 175.79984082770534,43.62233333554468 179.40986868285108,45.23443829714961 179.59251890174346,45.15266525608604 179.78591325116577,43.97279234571033 179.97930760052986,43.83260883562616 181.4297652208479,44.066247949478566 183.56784719461575,44.12465767354297 185.14723438123474,44.767163202384836 188.70354158378905,44.81389077450149 184.87863111821935,44.70875371764123 183.41742936731316,44.13633961575397 180.1082371667144,43.90270060635521 179.81814564263914,44.054566002072534 179.6462395543349,45.24612015666207 179.3024273776682,45.24612015666207 175.49900517315837,43.587287391448626 174.56426581775304,42.933094997206354 171.91046557901427,41.57797349813336 170.00875447673025,41.07564100156014 165.5929168324801,40.491531423758715 169.1062475129729,40.935454901336925" stroke="yellow" stroke-linecap="round" stroke-linejoin="round" stroke-width="0.5"><title>2025-04-01 10.1km</title><desc>1743481138000</desc></polyline><polyline fill="none" points="12.709226467879489,71.25325469239033 14.91998402349418,71.48776960372925 17.465051258157473,72.05060396513727 22.026760750974063,74.48952960576571 25.08946877915878,75.861408670331 25.445346824766602,75.6386257038248 25.531620290246792,74.64196120343695 25.704167221440002,74.45435306226136 28.97177473048214,74.71231419872493 31.376647583558224,75.45101875065302 34.38543469586875,75.40411697741365 30.729596591729205,75.32203884058981 29.11196911201114,74.73576519016933 25.736519771046005,74.51298063041759 25.542404473468196,74.7709416707512 25.499267740698997,75.65035113098565 25.06790041277418,75.83795784661197 21.444414858298842,74.27847022682545 17.475835441437084,72.12095811880135 17.044468113512266,72.09750673774397 16.289575289643835,71.75746131975029 14.844494741118979,71.67538128119486 11.318066835345235,71.03046520291537 17.50818799098488,72.05060396513727 22.21009186533047,74.58333368333115 25.111037145543378,75.87313408087357 25.391425908659585,75.708978253635 25.5531886566896,74.58333368333115 25.704167221440002,74.43090202887834 26.793369724415243,74.63023570114456 28.91785381443333,74.68886320375896 30.708028225286398,75.3689406383055 34.428571428579744,75.380666085548 33.490347490413114,75.47446963201219 30.7188124085078,75.32203884058981 29.187458394444548,74.74749068456003 25.80122487025801,74.48952960576571 25.607109572621994,74.64196120343695 25.45613100787159,75.74415451673849 25.100252962380182,75.90831030729169 21.217947011056822,74.17294043120637 17.551324723754078,72.09750673774397 17.109173212666065,72.12095811880135 16.354280388797633,71.78091275147744 11.285714285739232,71.05391674299608 16.44055385433603,71.79263846603862 18.058181334112305,72.43755142101145 17.497403807763476,72.08578104591288 17.23858341103187,72.12095811880135 16.408201304788236,71.73400988453068 12.062175475992262,71.14772286826337" stroke="yellow" stroke-linecap="round" stroke-linejoin="round" stroke-width="0.5"><title>2025-03-30 10.7km</title><desc>1743316730000</desc></polyline><polyline fill="none" points="38.53135401412146,71.311883496659 37.140194381529,71.00701365761051 39.4264412195771,71.51122114901955 42.1440553854336,71.792638581348 43.21168952208245,72.10923259120318 48.377313273900654,74.78266772338247 50.048861669551115,75.42756852270395 50.72826521098614,75.89658562616387 50.97630142455455,75.84968397871125 51.13806417258456,75.59172466788732 51.21355345490156,74.68886375064903 51.39688456925796,74.46607909131853 54.7615497270599,74.71231474904926 56.72427106910618,75.38066673546564 60.11050459329272,75.439293967298 56.50858740514377,75.3923921835958 54.923312475089915,74.77094222985033 51.55864731722977,74.54815768670233 51.332179470104165,74.80611870784196 51.20276927173836,75.8027823172888 50.771401943813544,75.90831103586243 47.51457861805102,74.51298115105601 43.19012115558144,72.19131241571449 42.79110637732083,72.20303810144833 41.58327785914298,71.792638581348 37.0754892823752,71.08909405699524 41.917587538308,71.792638581348 43.25482625479344,72.14440966409165 46.01557715347735,73.49285819752549 47.600852083589416,74.50125563744223 50.81453867664095,75.93176185258199 51.14884835574776,75.70897895250528 51.24590600456577,74.66541274872725 51.39688456925796,74.53643217570789 54.7399813606753,74.72404024696152 56.195846092363354,75.3103140284511 57.1340700306464,75.45101941106259 60.14285714284051,75.41584307717858 56.562508321076166,75.4041176308383 54.7615497270599,74.77094222985033 51.49394221807597,74.5833342144906 51.26747437089216,74.84129517797555 51.22433763812296,75.7793314813025 51.08414325659396,75.93176185258199 50.846891226188745,75.89658562616387 46.73811742779799,74.12603874011256 43.29796298762085,72.1795867291221 43.08227932365844,72.24994083559432 41.906803355086595,71.82781572501699 39.64212488353951,71.62847847366356 37.0,71.10081982483098 39.5989881507121,71.49949541177193" stroke="#4DD2FF" stroke-linecap="round" stroke-linejoin="round" stroke-width="0.5"><title>2025-03-28 10.0km</title><desc>1743136214000</desc></polyline><polyline fill="none" points="64.27653631282737,71.34903613978531 62.71428571426077,71.04445021004358 65.27853152423631,71.31389163955464 68.17677573818946,71.8527731133654 68.66161213081796,72.18078701927152 69.69592976849526,72.47365599984187 70.73024740617257,73.16482463123975 71.75379090179922,73.49283580007614 73.06823623296805,74.38314838056976 76.50518754986115,75.87089631146227 76.81763766956283,75.78889482349041 76.92537909012754,74.75801532744663 77.17318435752532,74.55886737319815 80.37310454907129,74.73458616944845 82.0,75.34374314290471 82.86193136469228,75.4491739179648 85.85714285710128,75.49603201755963 82.26935355144087,75.43745939091605 80.49162011168664,74.7697299051506 77.10853950516321,74.5237235903769 76.93615323217819,74.73458616944845 76.88228252186673,75.64832074473088 76.6452513965778,75.89432530014892 73.21907422185177,74.51200899438118 68.93096568225883,72.14564270492701 67.13168395846151,71.68876590380387 62.886671987129375,71.14988386786717 64.621308858681,71.3373213072482" stroke="#4DD2FF" stroke-linecap="round" stroke-linejoin="round" stroke-width="0.5"><title>2025-03-25 5.1km</title><desc>1742904051000</desc></polyline><polyline fill="none" points="89.99154967069626,71.41250965178187 88.47168806975242,71.08434130545356 92.50309401832055,71.56487329414813 93.82893073401647,71.7992786096147 94.9930800453294,72.23292752238922 97.6339743163553,73.61590796142991 98.02202408679295,73.9675112193654 102.22589659993537,75.88959513961163 102.61394637043122,75.70207579087582 102.68940049241064,74.69415546217351 102.85108789679362,74.5300747974834 106.42976911313599,74.75275565807533 107.9927473551943,75.39735637253034 111.54987025086302,75.43251633555337 110.57974582479801,75.53799617741606 108.0574223169242,75.37391639282578 106.2573025484453,74.76447569465381 102.94810033938847,74.55351490293106 102.66784217185341,74.78791576517688 102.58160888950806,75.76067561139644 102.17200079845497,75.85443527874304 98.48552797926823,74.24879325988877 94.68048439687118,72.11572523140057 94.36788874847116,72.15088592788379 93.54867256642319,71.76411783455114 88.42857142857974,71.04918037059542 93.89360569568817,71.82271912194847 95.81229622731917,72.61969446306466 98.1082573691383,73.99095140861755 102.26901324110804,75.88959513961163 102.57082972920034,75.78411553347541 102.67862133210292,74.69415546217351 102.89420453796629,74.51835474347172 106.18184842646588,74.71759554314485 108.03586399630876,75.39735637253034 111.57142857142026,75.46767629070382 110.24559185572434,75.57315610900696 107.97118903452065,75.37391639282578 106.18184842646588,74.72931558235723 102.86186705704313,74.51835474347172 102.67862133210292,74.78791576517688 102.63550469098845,75.65519591879274 102.49537560722092,75.85443527874304 102.26901324110804,75.84271532339335 98.38851553667337,74.21363303231192 94.71282187773613,72.10400499752723 94.48645951162325,72.18604661646532 93.45166012382833,71.7523975744698 89.32324173272355,71.17810375997215" stroke="#4DD2FF" stroke-linecap="round" stroke-linejoin="round" stroke-width="0.5"><title>2025-03-23 9.7km</title><desc>1742722238000</desc></polyline><polyline fill="none" points="115.68284251808655,71.30904163185915 119.37665359303355,71.71886930371693 120.08741607388947,72.12869590685295 120.32433690089965,72.08185863484687 121.18586718069855,72.44484712764097 124.91198564111255,74.48225085085141 126.4304327594582,75.06770680581394 127.97041813464602,75.92246858398721 128.2288772186148,75.75854202787741 128.31503024656558,74.64617873806856 128.50887455960037,74.51737826965109 131.8580735225696,74.64617873806856 133.7534401382436,75.31359765664092 137.28571428568102,75.36043396554305 133.8180549092358,75.37214304060035 131.987303064554,74.66959699372819 128.58425845910097,74.48225085085141 128.39041414612439,74.64617873806856 128.26118460414,75.71170583758794 127.94887987762922,75.82879628715455 124.14737751777284,74.15439456353488 121.15355979528977,72.50339358020574 119.38742272148374,71.78912536874122 114.1859336568159,71.01630692620529 119.37665359303355,71.7539973401581 120.49664295685943,72.09356795418717 123.26430898089893,73.51038915087702 124.30891444528243,74.22464953982853 127.97041813464602,75.82879628715455 128.2719537326484,75.65316058008466 128.347337632149,74.59934221630101 128.50887455960037,74.4354142802622 131.9119191650534,74.64617873806856 133.6995944957598,75.29017949693662 137.27494515723083,75.34872488964174 136.28418533538934,75.4775246767822 133.53805756825022,75.33701581282367 131.9119191650534,74.69301524586626 128.59502758755116,74.45883256732486 128.35810676059918,74.79839733740664 128.3042611181154,75.64145152599667 128.142724190664,75.87563244254852 127.90580336371204,75.86392340502061 124.09353187528905,74.14268539774639 121.11048328125617,72.49168429142446 119.36588446452515,71.83596272795694 114.14285714284051,71.07485391097725 117.56744000531035,71.48468219353526" stroke="#4DD2FF" stroke-linecap="round" stroke-linejoin="round" stroke-width="0.5"><title>2025-03-21 9.8km</title><desc>1742551156000</desc></polyline><polyline fill="none" points="141.30559818510665,71.20694341647322 141.03536398214055,71.4067466827837 139.8571428571595,71.14817770171794 140.60298925737152,71.13642455615627 145.06725829053903,71.75934006483294 146.15900447050808,72.04141420300584 150.2665643557557,74.29798915110587 153.64989657700062,75.77884891926078 154.02822446118807,75.68482649009093 154.1471275105141,74.65057607096969 154.34169613668928,74.49778850245639 157.84393140720204,74.73284623891232 159.13024621334625,75.29698337746959 160.16794555285014,75.44977017202473 163.0,75.48502864205511 159.44371788884746,75.36750037796446 157.80069393472513,74.7210933604074 154.42817108158488,74.48603560643096 154.17955561488634,74.6975876007491 154.2444118235726,75.12069073834573 154.0606525655603,75.84936570437276 153.69313404953573,75.91988245795073 153.00133448984707,75.50853428436676 150.1692800426972,74.42727111322165 146.3751918328926,72.32348783679481 144.91592713689897,71.81810555187985 143.6512310669641,71.771093163974 139.87876159336884,71.01889305225632 145.18616133986507,71.79459935969498 147.0886101287906,72.51153664579033 149.82338026288198,74.07468369425624 153.77960899448954,75.86111849881127 154.07146193366498,75.63781525446393 154.1471275105141,74.62707030083402 154.36331487289863,74.47428270957607 157.77907519851578,74.73284623891232 159.4653366250568,75.35574754672416 162.93514379131375,75.39100603776751 162.04877560556633,75.50853428436676 159.31400547135854,75.33224188165332 157.83312203909736,74.7210933604074 154.39574297727086,74.49778850245639 154.190364982991,74.67408183762745 154.16874624678167,75.42626452095283 153.9741776206065,75.80235451780027 153.80122773069888,75.83761290904658 149.98552078468492,74.25097750224813 146.11576699808938,72.06492035843257 145.71582037769258,72.07667343481444 144.88349903246854,71.72408076208376 143.43504370457958,71.65356213296764 139.92199906590395,71.07765881516389 142.5378661506693,71.41849980822008" stroke="#4DD2FF" stroke-linecap="round" stroke-linejoin="round" stroke-width="0.5"><title>2025-03-19 10.0km</title><desc>1742357906000</desc></polyline><polyline fill="none" points="166.5518754988443,71.12645469591371 170.0965682362439,71.61847746103012 171.9281723862514,72.08706913920469 175.44054269755725,74.04342430974066 179.3731045490713,75.8591812816594 179.75019952113507,75.74203630325792 179.84716679964913,74.84001704659022 180.08419792493805,74.48857957188739 183.68276137270732,74.74630046346283 184.93256185157225,75.29688458949386 185.84836392657598,75.42574442569457 188.71428571426077,75.44917347548471 185.24501197127393,75.32031365846342 183.47805267357035,74.66429840742785 180.10574620909756,74.44172118260758 179.8794892258593,74.73458588667563 179.857940941758,75.6248912375886 179.3946528331726,75.89432475816284 175.02035115723265,73.90284870196774 172.5638467677636,72.48537096763903 170.92617717478424,71.82934388902504 165.57142857142026,71.04445075205876 168.006384676788,71.31389212131035 170.63527533918386,71.73562551148643 171.4433359936229,72.09878391325765 171.82043096568668,72.07535436426406 175.96847565844655,74.32457514823182 179.47007182764355,75.87089577467123 179.73942537908442,75.71860729712353 179.89026336790994,75.03916460025357 179.73942537908442,75.77717980594025 179.29768555465853,75.83575229297276 175.63447725464357,74.2308582579135 171.82043096568668,72.145643000782 171.43256185157225,72.1339282301924 170.44134078209754,71.72391071035236" stroke="#4DD2FF" stroke-linecap="round" stroke-linejoin="round" stroke-width="0.5"><title>2025-03-17 7.0km</title><desc>1742185263000</desc></polyline><polyline fill="none" points="12.55159286718117,101.74060620622186 12.49749549193075,101.88177576786256 12.378481266321614,101.72884207041352 12.475856541772373,101.90530401584692 11.502103786799125,101.74060620622186 15.180725305574015,102.17587861584616 17.539370867598336,102.7170264248416 21.575035063084215,104.91689081497316 25.221198156650644,106.5403004976688 25.491685033019166,106.34031614824198 25.578240833536256,105.32862673445197 25.79463033459615,105.11687696712033 29.07293127628509,105.31686286594777 30.92306151066441,105.99916579113051 34.39611300337128,106.05798487081483 30.87978361052228,105.97563815314788 29.343418152653612,105.35215446884104 25.913644560205285,105.11687696712033 25.599879783578217,105.30509899654135 25.48086555802729,106.38737131205562 25.145461831300054,106.45795403151715 20.947505509946495,104.61102915127412 17.57182929269038,102.70526236176374 14.964335804455914,102.11705809007981 11.285714285739232,101.64649309503147 14.985974754556082,102.07000165370118 17.550190342590213,102.6464420331904 21.531757162883878,104.84630740672583 25.145461831300054,106.44619024713757 25.50250450806925,106.24620577848691 25.589060308528133,105.29333512626181 25.762171909445897,105.11687696712033 29.20276497694431,105.30509899654135 30.95551993587287,105.96387433282507 34.428571428579744,106.05798487081483 30.77158885996323,105.92858286661794 29.191945501894224,105.30509899654135 25.783810859546065,105.0933491976466 25.589060308528133,105.38744606387627 25.44840713281883,106.37560752240825 25.221198156650644,106.43442646185576 21.347826086974237,104.81101569074963 17.593468242848758,102.7170264248416 16.284311761148274,102.32881188031752 11.285714285739232,101.62296480845544 14.661390502937138,102.09352987362945" stroke="yellow" stroke-linecap="round" stroke-linejoin="round" stroke-width="0.5"><title>2025-03-15 10.0km</title><desc>1742012101000</desc></polyline><polyline fill="none" points="38.46073615504429,101.99557669968635 37.0,101.65184588868578 40.270304824691266,102.01928224548465 43.169975102646276,102.61191974233952 47.34506426216103,104.89947977258998 50.94239956937963,106.4758621014189 51.21492497139843,106.13214097026503 51.26943005179055,105.18394089667709 51.49835138954222,105.05356294458034 55.019379584118724,105.3261712679523 56.6981360608479,105.98991131945513 60.14285714289872,106.01361627009464 56.80714622163214,106.01361627009464 54.964874503726605,105.34987631745753 51.55285646993434,105.1365307446249 51.302133100049105,105.38543388512335 51.13861785881454,106.40474744557287 50.87699347286252,106.51141941743845 47.10524190834258,104.88762721471721 45.55729762464762,103.89200920105213 43.20267815090483,102.71859425731236 42.951954781019595,102.76600512990262 41.99266536574578,102.33930676798627 40.57553327502683,102.26819026307203 37.337931498594116,101.71110987458087 39.06029203959042,101.91260726159089 41.316802368615754,102.26819026307203 42.22158670349745,102.35115951573243 43.47520355292363,102.77785784582375 47.06163784407545,104.75724901985086 50.02671421843115,106.01361627009464 50.64807213511085,106.42845233438129 51.095013794489205,106.40474744557287 51.32393513224088,105.62248413309862 51.1713209071313,106.38104255321377 50.87699347286252,106.4521572196827 47.159746988792904,104.86392209635233 43.21357916697161,102.67118337060674 42.70123141107615,102.64747792195703" stroke="#4DD2FF" stroke-linecap="round" stroke-linejoin="round" stroke-width="0.5"><title>2025-03-12 7.1km</title><desc>1741778255000</desc></polyline><polyline fill="none" points="64.48950955498731,101.88663125850144 67.63944941869704,102.27502842317335 68.61365762387868,102.69873333185387 69.81518107705051,102.92235490882013 73.36562875850359,105.02909001607622 76.65628758515231,106.46494924140279 76.91607643989846,106.27664057833317 76.981023653585,105.31155515705177 77.19751436589286,105.08793696208159 80.66136576241115,105.26447766863566 82.0144327141461,105.79409860460146 83.05358813307248,105.95886920037447 85.85714285710128,105.99417716282187 82.3499933182029,106.00594648186234 80.66136576241115,105.33509389599203 77.30575972201768,105.11147573436028 77.05679540289566,105.27624704202753 76.89442736870842,106.3472563532705 76.52639315783745,106.44141067082819 72.3697714820155,104.62893020179763 68.96004276355961,102.68696376640582 68.67860483762342,102.78112026547024 67.66109848988708,102.33387639511784 62.71428571426077,101.66300821534242 67.2389416009537,102.22795002983185 68.7652011225,102.69873333185387 68.96004276355961,102.6281159259961 72.96512094076024,104.79370201277197 76.62381397839636,106.45317995655932 76.91607643989846,106.19425546763523 76.99184818920912,105.22916954310494 77.22998797270702,105.08793696208159 80.57476947747637,105.22916954310494 82.45823867432773,105.88825325178914 85.85714285710128,105.99417716282187 82.37164238939295,105.97063852206338 80.58559401310049,105.24093891913071 77.2191634370829,105.01732062420342 77.02432179602329,105.33509389599203 77.01349726045737,106.19425546763523 76.67793665640056,106.50025709076726 75.02178270748118,105.64109718325199 72.64038487238577,104.7466243700037 69.03581451287027,102.74581158490037 68.7652011225,102.79288982388971 67.82346652413253,102.357415577746 64.87919283704832,102.1220235935034 62.71428571426077,101.71008677706413 64.33796605636599,101.839552749414 65.1065080849803,101.98078823460673 68.00748362956801,102.36918516777223 69.54456768673845,103.06358942590305 69.10076172655681,102.76935070614854 67.86676466651261,102.4162635190296 65.74515568616334,102.16910201843712 64.3920887344284,102.2397196294769 62.7792329278891,101.71008677706413" stroke="yellow" stroke-linecap="round" stroke-linejoin="round" stroke-width="0.5"><title>2025-03-07 10.7km</title><desc>1741342581000</desc></polyline><polyline fill="none" points="90.21712947473861,101.87176208506571 93.69668785546673,102.31963540222205 94.26035463367589,102.64964650871116 94.72646370023722,102.66143260692479 97.71823352290085,104.13468796851521 99.11656072264304,105.06577828151057 102.34680495143402,106.4918680103292 102.58527935767779,106.26793741606525 102.85627300100168,105.10113603351056 104.30879892944358,105.27792467491236 106.52010705921566,105.23078105651075 107.6799598528305,105.72578834899468 108.78561391768744,105.91436214826535 111.57142857142026,105.90257629238477 110.97524255601456,106.02043481156579 108.07019069924718,105.92614800324372 106.37919036467792,105.3132823795022 102.94299096689792,105.14827969053295 102.73703579796711,105.30149647884537 102.52024088328471,106.38579566308181 102.17336901975796,106.46829638374038 98.6070926731336,104.8536316036334 94.72646370023722,102.75572136101255 93.32813650049502,102.35499376799271 90.56400133826537,102.2017741259042 88.42857142857974,101.67139729579503 89.70766142517095,101.74211430923606" stroke="#4DD2FF" stroke-linecap="round" stroke-linejoin="round" stroke-width="0.5"><title>2025-03-05 4.7km</title><desc>1741177738000</desc></polyline><polyline fill="none" points="115.198847262247,101.82154853065731 118.83367641002405,102.2566509583994 119.85631947300863,102.54671859521477 123.96912309591426,104.7947251945152 126.95924248656956,106.0395756627695 127.63729930005502,106.48675262530742 127.97076986415777,106.4021516728535 128.13750514609274,105.21773370662413 128.38205022644252,105.08478829308297 131.71675586659694,105.2539915277448 133.55084396863822,105.9549744771648 137.28571428568102,106.00331801721768 135.87402223132085,106.13626267803193 133.52861259772908,106.01540389994625 131.90572251949925,105.35067901120055 128.39316591183888,105.0968742442783 128.2264306298457,105.2539915277448 128.04857966233976,106.4384092293185 127.8040345821064,106.53509600687539 123.368876080669,104.64969345073041 119.81185673113214,102.61923542336444 119.57842733635334,102.7038383485924 118.51132153143408,102.30499560057069 114.14285714284051,101.62816929926339" stroke="#4DD2FF" stroke-linecap="round" stroke-linejoin="round" stroke-width="0.5"><title>2025-03-03 4.6km</title><desc>1740978130000</desc></polyline><polyline fill="none" points="141.8244478548295,101.91321207978763 141.65149796492187,102.01899029535707 139.8571428571595,101.65464280974993 142.67838793620467,101.94847149286943 146.08333889371715,102.67716426523111 149.12077133520506,104.18155159882735 150.1260425702785,104.86322238625144 153.60665910458192,106.44985850222292 153.9741776206065,106.4263528984302 154.15793687861878,105.29807979801262 154.32007740042172,105.09828059551364 157.6385534129804,105.32158556992363 159.28157736710273,105.9797457610257 162.94595315941842,106.0267570981814 161.6596383532742,106.1207797304669 159.23833989456762,105.95624008718005 157.61693467677105,105.34509133829852 154.36331487289863,105.13353929668665 154.2011743510957,105.25106824371323 154.03903382935096,106.29707201500423 153.71475278574508,106.4968696993019 150.06118636153406,104.9219869714143 146.0617201575078,102.71242350756074 145.86715153133264,102.77118889389385 145.15373323549284,102.44210244838905 139.8571428571595,101.66639596756431 145.3050643891329,102.40684314563987 153.58504036831437,106.5086224963743 153.98498698871117,106.43810570075584 154.09308066993253,105.39210286458547 154.2876492961077,105.13353929668665 157.9087876159465,105.3685971031664 159.31400547141675,105.99149859663157 163.0,106.08552124994458 159.3356242076843,105.9797457610257 157.69260025356198,105.35684422118356 154.35250550479395,105.09828059551364 154.15793687861878,105.29807979801262 153.98498698871117,106.37934168036736 153.64989657705883,106.47336410250864 149.66123974113725,104.71043436242326 146.29952625610167,102.77118889389385 145.7914859544835,102.74768274198868 144.82945219188696,102.33632451652375 141.71635417366633,101.97197776386747 142.95943150733365,102.07775594003033 145.14292386738816,102.39509004296269 146.60218856344,103.04150938910607 146.65623540402157,102.92397879593773 146.00767331686802,102.70067042765731" stroke="yellow" stroke-linecap="round" stroke-linejoin="round" stroke-width="0.5"><title>2025-02-28 10.0km</title><desc>1740736874000</desc></polyline><polyline fill="none" points="167.18905605113832,102.24658736144193 167.41552389826393,101.98862120884587 167.14591931831092,102.23486163640337 167.38317134865792,102.08242713143409 167.24297696712893,102.023798436363 165.66848622018006,101.7072031055286 166.39102649444249,101.6837515742227 170.75862068962306,102.28176453131891 171.4595925975009,102.6218101013219 171.8801757422625,102.57490730774589 176.09679137269268,104.86140222517133 179.4722407135996,106.4208899611258 179.76341365999542,106.315361203262 179.87125549197663,105.18971671683539 180.08693915588083,105.0490105899662 183.46238849684596,105.26006973306357 185.12315270933323,105.89324546421994 188.66036479827017,105.96359816601034 185.10158434300683,105.95187271788018 183.37611503130756,105.26006973306357 181.39182532287668,105.27179523272207 180.02223405672703,105.07246161985677 179.84968712553382,105.17799121103599 179.76341365999542,106.33881204444333 179.4938090799842,106.58504566608462 175.16935161763104,104.62689145471086 172.0850752230035,102.82114681800886 170.33803754491964,102.3403931302746 168.9576620956068,102.29349025285046 165.58221275458345,101.67202580724552 170.81254160561366,102.35211884745513 171.38410331512569,102.69216426544881 171.8801757422625,102.69216426544881 176.10757555579767,104.93175538817013 179.5369458128116,106.46779160857841 179.77419784315862,106.26845951036375 179.92517640790902,105.07246161985677 183.36533084808616,105.23661873114179 184.7672746637836,105.78771635256999 185.80255625082646,105.95187271788018 188.71428571426077,105.95187271788018 185.17707362532383,105.96359816601034 183.37611503130756,105.35387370579701 181.40260950603988,105.34214821226487 179.94674477435183,105.09591264622577 179.7849820263218,106.20983237463224 179.4614565303782,106.51469324209029 175.58993476233445,104.82622563187033 171.7939022766659,102.70388995642134 166.7037678071647,101.88308947907353 165.57142857142026,101.57821964002505 167.26454533351352,101.83618646535615 167.99786979093915,101.98862120884587 169.98215949942823,102.16450726785115 172.31154307018733,103.00875761482166 171.8478231926565,102.69216426544881 171.6213553454727,102.75079271153663 170.58607375848806,102.3403931302746 168.12727998936316,102.16450726785115 166.45573159359628,101.74238039596821" stroke="yellow" stroke-linecap="round" stroke-linejoin="round" stroke-width="0.5"><title>2025-02-26 11.1km</title><desc>1740566027000</desc></polyline><polyline fill="none" points="13.261060767632443,132.5519664696476 11.328891258046497,132.31723265445908 12.192430703667924,132.30549595452612 16.56409914715914,132.90406653651735 17.179371002188418,133.24442918643763 17.54637526656734,133.23269255558262 20.59035181242507,134.73497419804335 21.238006396626588,135.29832612050814 24.422308102366515,136.58933334474568 25.145522388105746,137.08226058501168 25.50173240940785,136.87100624230516 25.59888059704099,135.79125740012387 25.77158848621184,135.65042004904535 27.12086886994075,135.86167602844944 29.06383262266172,135.87341246346477 30.5318496801774,136.44849670711847 31.589685501065105,136.60106972551148 34.363805970177054,136.56586058056564 31.557302771834657,136.56586058056564 30.607409381656907,136.43676031494397 29.204157782543916,135.90862176317023 25.857942430709954,135.68562939863477 25.62046908319462,135.83820315585763 25.426172707986552,137.01184250225197 25.113139658933505,137.093996929063 23.623534115147777,136.28418713739666 21.378331556508783,135.40395438170526 17.589552238816395,133.29137570111197 17.23334221751429,133.3265855779464 16.337420042662416,132.90406653651735 15.139259061892517,132.91580319187779 11.285714285739232,132.25854914603406 16.359008528816048,132.91580319187779 17.179371002188418,133.30311232761596 17.589552238816395,133.24442918643763 20.784648187691346,135.04012340609916 24.422308102366515,136.62454248448194 25.221082089585252,137.12920595600735 25.5341151386383,136.78885169919522 25.58808635402238,135.82646671822295 25.728411513904575,135.65042004904535 27.35834221751429,135.86167602844944 28.988272921182215,135.82646671822295 30.510261194081977,136.40155113324 31.643656716449186,136.5541241971223 34.428571428579744,136.56586058056564 31.103944562899414,136.56586058056564 29.236540511774365,135.89688533083245 28.146321961656213,135.93209462528466 25.78238272923045,135.63868359746994 25.58808635402238,135.86167602844944 25.512526652484667,136.85926988163556 25.404584221774712,137.0705242400436 25.16711087425938,137.10573327225575 20.871002132247668,135.11054237019562 17.643523454200476,133.31484895321773 17.26572494674474,133.3265855779464 16.423773987218738,132.97448645548138 15.052905117336195,132.90406653651735 11.404450959526002,132.31723265445908 13.973480810294859,132.6341232223349 14.52398720686324,132.66933324605634 16.34821428579744,132.96274980451562 18.280383795383386,133.6200009121676 20.687500000058208,134.86407585820416 17.66511194035411,133.3265855779464 14.52398720686324,132.71627993212314" stroke="yellow" stroke-linecap="round" stroke-linejoin="round" stroke-width="0.5"><title>2025-02-21 11.3km</title><desc>1740135343000</desc></polyline><polyline fill="none" points="38.896249002427794,132.63795827877766 37.06464485236211,132.27479833470716 39.69353551475797,132.56766932281607 42.17158818838652,132.97768778966565 42.86113328009378,133.32913133880356 43.539904229866806,133.36427565052873 46.56743814848596,135.09805194236105 50.069034317624755,136.62094777953462 50.85554668796249,137.10124263822217 51.21109337586677,136.84352362812206 51.32960893854033,135.80092877685092 51.480446927424055,135.683782855951 52.978052673570346,135.88293086954218 54.91739824420074,135.89464545069495 56.15642458101502,136.4218007005984 57.21229050279362,136.59751872452034 60.088986432529055,136.58580419572536 59.22705506783677,136.7029494446324 56.65203511569416,136.5623751354433 54.85275339183863,135.95321834352217 51.534317637677304,135.7189266413916 51.308060654380824,135.90636003101827 51.14644852356287,136.96066868506023 50.81245011970168,137.08952814691293 46.72905027930392,135.26205681808642 43.313647246628534,133.35256088084134 42.81803671194939,133.32913133880356 42.00997605745215,132.97768778966565 40.652434158022515,132.89568418184354 37.0,132.2630834838492 42.06384676776361,132.94254339154577 43.22745411016513,133.2705574685242 46.06105347163975,134.67632433357358 47.00917797285365,135.3206299465237 50.974062250577845,137.04267017301754 51.18954509176547,136.85523813776672 51.264964086178225,135.87121628747263 51.41580207506195,135.683782855951 54.809656823577825,135.88293086954218 56.16719872306567,136.4218007005984 57.25538707099622,136.59751872452034 60.14285714284051,136.62094777953462 58.94692737428704,136.71466396472533 56.66280925774481,136.57408966602816 54.91739824420074,135.95321834352217 51.50199521146715,135.70721204709844 51.275738228228875,135.92978918901645 51.22186751791742,136.83180911764794 51.006384676788,137.12467161819222 47.40782122901874,135.56663684776868 43.324421388679184,133.32913133880356 42.95810055866605,133.35256088084134 42.07462090981426,132.98940258729272 39.241021548281424,132.62624345495715 40.16759776539402,132.7316768378514 42.00997605745215,132.94254339154577 43.830806065467186,133.6337151126645 43.356743814831134,133.32913133880356 42.774940143630374,133.31741656649683 41.72984836390242,132.9308285904117 40.79249800479738,132.9191137884336 37.52793296094751,132.30994288208603" stroke="yellow" stroke-linecap="round" stroke-linejoin="round" stroke-width="0.5"><title>2025-02-19 10.6km</title><desc>1739962218000</desc></polyline><polyline fill="none" points="64.39365971105872,132.44380849349545 62.71428571426077,132.27887935444596 65.5638041733182,132.5851761900558 67.83908507216256,132.98571731058473 68.46749598713359,133.3037933599262 68.9225521669141,133.28023219302122 72.89887640444795,135.47140569557087 76.71268057782436,137.1088757475809 76.89686998393154,136.87326959017082 77.0160513643641,135.8483787207806 77.20024077041307,135.71879434476432 80.63483146065846,135.93084145024477 82.18418940604897,136.56698106077965 85.85714285710128,136.63766308173945 82.37921348307282,136.59054173793993 80.59149277681718,135.9426218366716 77.41693418938667,135.71879434476432 77.23274478327949,135.91906106295937 77.03772070619743,135.87193950504297 76.89686998393154,136.9439514742553 76.56099518458359,137.07353484633495 72.17295345105231,135.12977311521536 68.94422150874743,133.32735452332417 67.7199036917882,132.9621560962696 63.548555377172306,132.37312459782697" stroke="#4DD2FF" stroke-linecap="round" stroke-linejoin="round" stroke-width="0.5"><title>2025-02-18 4.9km</title><desc>1739836925000</desc></polyline><polyline fill="none" points="90.93109006650047,132.45794843349722 90.89844851900125,132.7418800835585 92.09530525893206,132.70638865506044 93.68386056821328,132.97848940412223 95.76203908928437,134.09054848796222 96.88273221836425,134.45728966958995 97.92726173688425,135.21443007486232 101.44166834570933,136.65771897260856 102.24682651617331,137.14275573930354 102.54060044325888,136.9179827877233 102.61676405399339,135.86509472635225 102.79085230705095,135.71130150389217 106.21821478940547,135.98339710383152 107.80677009868668,136.6103982331406 111.57142857142026,136.68137933708203 107.92645577265648,136.53941709747596 106.23997582105221,135.9124156879261 102.87789643357974,135.69947124982718 102.68204714887543,135.9124156879261 102.62764456978766,136.84700178951607 102.45355631678831,137.09543514432153 98.46040701190941,135.42737516337365 95.23977432999527,133.60550239839358 93.59681644162629,132.94299802850583 88.42857142857974,132.24499936273787 93.62945798912551,132.95482848792744 95.13096917187795,133.6291632176435 93.62945798912551,132.95482848792744" stroke="#4DD2FF" stroke-linecap="round" stroke-linejoin="round" stroke-width="0.5"><title>2025-02-14 5.4km</title><desc>1739506837000</desc></polyline><polyline fill="none" points="116.67224928271025,132.61948314357141 118.6179355441709,132.85454548583948 120.36905317945639,133.28940989560215 124.69280042708851,135.60474886761222 128.01127643958898,137.1208661286364 128.28151064255508,137.07385495959898 128.70307599921944,136.01609995232138 129.01654767472064,135.76928943020175 132.08640822046436,135.94558269970003 133.8159071195405,136.63900098174054 137.28571428568102,136.67425945703872 133.74024154263316,136.63900098174054 132.05398011609213,135.96908845406142 129.07059451530222,135.81630098797905 128.77874157606857,135.95733557731728 128.1842263295548,137.1208661286364 124.46580369659932,135.616501770608 120.40148128377041,133.336422192413 119.41782878496451,133.0190889170044 114.14285714284051,132.26688897341955 119.26649763132446,132.94857032464643 120.4555281244102,133.336422192413 124.48742243280867,135.5342314310692 127.97884833527496,137.09736054588575 128.30312937882263,137.01509097858798 128.74631347169634,135.98084132993245 129.09221325151157,135.81630098797905 132.09721758862725,135.98084132993245 133.74024154263316,136.60374249855522 137.28571428568102,136.66250663281244 135.80483085341984,136.7447763839591 133.7294321745867,136.58023683875217 132.0323613798828,135.96908845406142 129.05978514713934,135.7575365385419 128.77874157606857,135.94558269970003 128.29232001065975,137.0503493698343 128.11937012081034,137.08560775314982 124.27123507042415,135.46371396303584 120.77980916795786,133.5127181807038 119.67725361982593,133.05434820135997 114.16447587916628,132.2903952759516 116.91005538136233,132.52545810860465 119.41782878496451,132.94857032464643 120.92033095355146,133.72427310657804 120.35824381135171,133.3246691195236 120.21772202575812,133.3951875437342 119.25568826321978,132.97207652562065" stroke="yellow" stroke-linecap="round" stroke-linejoin="round" stroke-width="0.5"><title>2025-02-12 10.1km</title><desc>1739334019000</desc></polyline><polyline fill="none" points="158.46413243416464,136.30783136808896 159.4353157572914,136.64381571352715 163.0000000000582,136.6678145685437 159.55671367264586,136.69181341995136 157.90128755371552,135.94784736308793 154.65665236057248,135.73185657392605 153.95033721649088,137.08779395226156 153.74064990808256,137.12379213419626 149.4144696505391,135.22787693953433 148.25567136728205,134.483904120847 145.18761496024672,133.043946967402 139.8571428571595,132.20396601583343 144.9889638259192,132.91195025084016 146.69957081548637,133.5719327518018 148.873697118368,134.62789912815788 149.96627835690742,135.39587032621785 153.6633966891677,137.06379515984736 153.9613733906299,136.95580054966558 154.41385652980534,135.8758504655707 154.6897608829313,135.7198570771725 156.67627222568262,135.9358478824288 157.66952789702918,135.8758504655707 159.4463519313722,136.60781742431573 162.85652973636752,136.6558151414647 158.18822808098048,136.3198308210558 158.2434089516173,136.6558151414647 158.14408338448266,136.25983354724303 157.74678111594403,136.07984159166517 154.6897608829313,135.7678550589044 154.46903740044218,135.88784995069727 153.86204782349523,137.18378908622253 149.70141017786227,135.39587032621785 148.93991416314384,134.78389357411652 147.53832004911965,134.11191642284393" stroke="#4DD2FF" stroke-linecap="round" stroke-linejoin="round" stroke-width="0.5"><title>2025-02-10 6.3km</title><desc>1739162078000</desc></polyline><polyline fill="none" points="165.73682557133725,133.76057448107167 167.1363386475714,133.80205482708698 173.44687033689115,134.7284468133148 175.38074295135448,134.64548652482335 175.54613995127147,135.2815144584165 176.27134218171705,135.32299446556135 177.1237728735432,135.6410075467429 177.70902379637118,134.79758035880513 182.92539071693318,134.7007933879504 183.20529333222657,135.18472773912072 183.53608733206056,135.2676877873164 183.75237571657635,135.1432477011549 183.96866410109214,134.5625261994428 184.9610461005941,134.49339256665553 188.71428571426077,134.96350076321687 185.1900573312887,134.47956583701307 183.93049556267215,134.5486994749226 183.68876148579875,135.1432477011549 183.47247310134117,135.253861115154 182.92539071693318,134.6869666736893 177.7726380271488,134.76992694368528 177.4036754888366,135.01880753185833 177.1492185659008,135.65483419012162 175.60975418199087,135.29534112852707 175.60975418199087,134.75610023459012 175.44435718213208,134.61783308714803 173.57409879832994,134.71462010113464 167.65797533962177,133.8435351638327 165.57142857142026,133.74674769700505 167.37807272438658,133.81588160702086 173.16696772165596,134.6869666736893 175.35529725905508,134.61783308714803 175.53341710509267,135.2676877873164 177.136495719722,135.6410075467429 177.5181811041548,134.92202067597827 177.84897510398878,134.76992694368528 182.8744993323926,134.6869666736893 183.23073902452597,135.19855441637628 183.48519594751997,135.253861115154 183.75237571657635,135.08794096951897 183.85415848577395,134.63165980650228 184.17222963948734,134.50721929527936 188.44710594514618,134.92202067597827 185.3681771773845,134.47956583701307 184.12133825483033,134.47956583701307 183.77782140893396,134.65931324216945 183.56153302441817,135.253861115154 183.30707610142417,135.19855441637628 182.91266787081258,134.65931324216945 177.72174664255,134.75610023459012 177.4163983349572,134.99115414958214 177.1619414120214,135.6410075467429 175.59703133587027,135.2815144584165 175.44435718213208,134.5625261994428 173.37053325999295,134.64548652482335 166.9836644938332,133.7329209119198 165.86405403283425,133.77440126409056 167.0091101860744,133.76057448107167 173.94306133664213,134.74227352449088 175.41891148977447,134.61783308714803 175.55886279739207,135.2815144584165 176.55124479695223,135.40595445214421 175.60975418199087,135.2676877873164 175.35529725905508,134.57635292288614 173.43414749071235,134.65931324216945 167.56891541660298,133.80205482708698 166.00400534045184,133.77440126409056 167.68342103197938,133.8435351638327" stroke="#4DD2FF" stroke-linecap="round" stroke-linejoin="round" stroke-width="0.5"><title>2025-01-25 9.9km</title><desc>1737761473000</desc></polyline><polyline fill="none" points="11.594285714323632,164.17433578894997 19.14142857142724,165.26420782397327 21.327142857189756,165.166399053036 21.3142857143539,166.0606487801415 22.162857142917346,166.10256663181644 22.895714285725262,166.43790910902317 23.512857142894063,165.52968851728656 28.771428571431898,165.40393455134472 29.260000000009313,166.0187309191242 29.58142857142957,165.92092254044837 29.67142857151339,165.40393455134472 29.877142857178114,165.25023514551867 34.42857142863795,165.6833876948367 30.880000000062864,165.20831710394123 29.761428571422584,165.30612585306517 29.414285714330617,166.00475829670904 29.131428571476135,165.92092254044837 29.015714285778813,165.50174319877988 28.771428571431898,165.3899618832802 23.53857142862398,165.48777053797676 23.28142857144121,165.62749709933996 22.972857142915018,166.40996392541274 21.404285714263096,166.0327035404771 21.28857142862398,165.33407120064658 19.50142857141327,165.45982521324186 12.494285714346915,164.43981802013877 11.285714285739232,164.45379075876554 12.854285714332946,164.49570896843215 19.102857142861467,165.43187988438876 21.108571428630967,165.32009852737247 21.275714285788126,165.473797876155 21.275714285788126,165.96284042324987 22.895714285725262,166.40996392541274 23.5,165.50174319877988 28.758571428596042,165.3899618832802 29.080000000016298,165.92092254044837 29.375714285764843,166.00475829670904 29.92857142863795,165.23626246604545 33.657142857206054,165.52968851728656 30.03142857144121,165.1943444213539 29.67142857151339,165.30612585306517 29.607142857159488,165.85105938170454 29.375714285764843,165.9768130487646 28.758571428596042,165.34804387284385 23.5642857143539,165.48777053797676 23.23000000009779,165.69736034111702 22.934285714349244,166.38201873764046 21.39142857148545,166.00475829670904 21.19857142859837,165.2921531777538 19.488571428635623,165.44585254931008 12.622857142880093,164.42584528047882 11.568571428651921,164.46776349634456 12.751428571471479,164.43981802013877 14.39714285719674,164.70529987671762" stroke="#4DD2FF" stroke-linecap="round" stroke-linejoin="round" stroke-width="0.5"><title>2025-01-19 8.1km</title><desc>1737283232000</desc></polyline><polyline fill="none" points="40.059051177697256,163.2023472221481 41.993928070995025,163.47266878478695 42.81544004799798,163.89577986598306 43.42076466267463,163.90753293538 46.2960565823596,165.41191858773527 46.652765730337705,165.74100103686214 50.165810368955135,167.245369205295 50.95489424164407,167.73898688489862 51.171081604028586,167.60970621329034 51.63588443316985,166.51669266508543 51.93854674050817,166.34039944811957 54.78141055582091,166.4814340374578 56.597384399792645,167.12784095869574 60.14285714284051,167.22186356298334 56.52171882294351,167.12784095869574 54.87869486887939,166.45792828133563 51.981784212985076,166.31689367096988 51.64669380127452,166.4461754019576 51.16027223592391,167.60970621329034 51.00894108222565,167.68022295639093 47.10675919131609,166.04657698204392 43.291052245302126,163.93103907152545 42.988389937905595,163.95454520417843 42.08040301594883,163.55494047280808 39.5942483486142,163.3198783932603 37.0,162.82624688604847 42.24254353775177,163.5901997545152 43.3450990858837,163.91928600387473 47.30132781743305,166.08183570687834 50.15500100085046,167.2571220251557 50.85760992858559,167.76249245014333 51.14946286781924,167.66847016807878 51.62507506500697,166.58720989672292 51.981784212985076,166.39916387567064 54.95436044567032,166.5401984124619 56.629812504164875,167.15134661502088 60.14285714284051,167.245369205295 56.60819376789732,167.22186356298334 54.83545739640249,166.55195128485502 51.9709748448804,166.39916387567064 51.66831253754208,166.5401984124619 51.16027223592391,167.703728530425 50.77113498363178,167.7154813161178 46.45819710416254,165.74100103686214 43.388336558360606,163.98980439658044 42.999199306068476,164.01331052045862 42.156068592797965,163.61370593796892 37.043237472418696,162.86150633064972 42.3614465870196,163.60195284667134 42.95596183359157,163.94279213827394 43.30186161334859,163.90753293538 47.290518449328374,166.09358861341025 51.01975045038853,167.78599801192468 51.711550009960774,166.49318691420194 52.86815239873249,166.49318691420194 51.852071795554366,166.4814340374578 51.16027223592391,167.72723410092294 50.83599119237624,167.68022295639093 46.42576899979031,165.74100103686214 43.35590845398838,163.97805133330985 43.04243677854538,164.00155745896336 42.17768732900731,163.60195284667134 39.756388870300725,163.3198783932603" stroke="yellow" stroke-linecap="round" stroke-linejoin="round" stroke-width="0.5"><title>2025-01-17 12.3km</title><desc>1737088953000</desc></polyline><polyline fill="none" points="65.05457463877974,163.09728622106195 65.20626003207872,162.83811182103818 65.86717495985795,163.27399579566554 68.94422150880564,163.88658745863358 70.67776886030333,164.78190946606628 71.34951845905744,165.31203194937552 76.65850722312462,167.76235278001695 76.86436597106513,167.62098914875241 77.31942215084564,166.54897749898373 77.60112359549385,166.3604911829607 80.62399678968359,166.54897749898373 82.28170144459,167.16155647445703 85.84630818612641,167.22045817394974 82.35754414123949,167.16155647445703 80.49398073833436,166.54897749898373 77.68780096306,166.40761278303398 77.36276083468692,166.52541672177904 76.85353130009025,167.70345128234476 76.71268057782436,167.7505724822404 72.75802568218205,166.05420044025232 68.97672552161384,163.9219292129419 67.73073836276308,163.6038531398808 62.71428571426077,162.89701513107866 67.63322632422205,163.5567307042511 68.66252006421564,163.9219292129419 68.95505617978051,163.88658745863358 73.19141252007103,166.21912629849976 75.77006420539692,167.23223851120565 76.53932584269205,167.72701188405335 76.83186195825692,167.65633006842108 77.2977528089541,166.53719711081067 77.62279293738538,166.37227158428868 80.5156500802259,166.54897749898373 82.26003210269846,167.14977613190422 85.85714285710128,167.19689749678946 82.31420545745641,167.14977613190422 80.61316211876692,166.59609904287208 77.69863563403487,166.38405198477267 77.36276083468692,166.54897749898373 76.74518459069077,167.7741330769204 72.93138041731436,166.1366633908765 69.00922953448026,163.9808321192104 68.47833065810846,163.95727095933398 67.90409309789538,163.6274143524206 64.05778491176898,163.0737249295198" stroke="#4DD2FF" stroke-linecap="round" stroke-linejoin="round" stroke-width="0.5"><title>2025-01-15 9.1km</title><desc>1736916504000</desc></polyline><polyline fill="none" points="90.4461538461619,162.74875040791812 90.5972027972457,163.00683780519466 91.12587412592256,163.32358085087617 93.76923076924868,163.75763510086108 95.20419580425369,164.22688159260724 96.90889110887656,165.3413364058797 102.2927072927123,167.8048401096894 102.53006993012968,167.74618570745224 102.98321678326465,166.69040273180872 103.35004995006602,166.49097626378352 106.32787212787662,166.67867177008884 107.9570429570158,167.3238733666367 111.57142857147846,167.40598974384193 107.91388611390721,167.35906610498205 106.29550449550152,166.71386465260002 103.33926073921612,166.49097626378352 102.98321678326465,166.69040273180872 102.47612387611298,167.81657098750293 102.1416583416285,167.81657098750293 98.60279720276594,166.2446255722607 94.68631368636852,164.06264547957107 94.45974025974283,164.13303240614187 93.08951048954623,163.69897919103096 88.42857142857974,163.0420315083902 92.33426573430188,163.51128013283596 94.66473526478512,164.02745200449135 98.14965034968918,165.9513504369679 102.35744255740428,167.86349449002591 102.60559440561337,167.72272394046013 103.11268731270684,166.5379001613328 104.21318681322737,166.56136210486875 103.14505494508194,166.5848240448977 102.44375624379609,167.8517636157194 98.33306693308987,166.17423958961444 94.75104895106051,164.08610779191076 93.4887112887227,163.72244155759108 90.09010989015223,163.25319356245745" stroke="#4DD2FF" stroke-linecap="round" stroke-linejoin="round" stroke-width="0.5"><title>2025-01-14 7.8km</title><desc>1736829619000</desc></polyline><polyline fill="none" points="117.30750830564648,163.35745081208006 117.12451827246696,163.09996438547387 117.55508305644616,163.1467801307881 121.17182724253507,164.30546538154886 123.39999999996508,165.40562326535292 124.39029900333844,166.0961439590028 127.97475083055906,167.7346554932883 128.2115614617942,167.6644339209015 128.6959468438872,166.56429185543675 129.00810631224886,166.37703286425676 131.92518272425514,166.56429185543675 133.3245182724786,167.1377711273817 134.3255813953583,167.2665110843809 137.28571428573923,167.2665110843809 133.52903654484544,167.17288203521457 131.9359468438779,166.56429185543675 129.04039867111715,166.36532916988654 128.7282392026973,166.49406975989405 128.22232558141695,167.6644339209015 127.92093023256166,167.67613751848694 124.31495016609551,166.11955138696067 121.02112956816563,164.31716922935448 119.36345514946152,163.6266407159128 114.14285714284051,162.88929335886496 119.42803986708168,163.6500485118304 121.02112956816563,164.24694612932217 123.90591362124542,165.873773219515 127.94245847174898,167.69954471099481 128.20079734222963,167.62932312292105 128.63136212626705,166.57599553494947 128.9435215947451,166.37703286425676 132.02205980068538,166.57599553494947 133.63667774089845,167.18458566939807 137.17807308968622,167.27821471162315 133.56132890365552,167.14947476418456 131.94671096344246,166.5408844937483 128.93275747512234,166.36532916988654 128.6744186046417,166.5174771285383 128.16850498341955,167.69954471099481 127.75946843856946,167.6644339209015 127.21049833885627,167.28991833796317 124.16425249166787,166.07273652756703 120.33222591358935,163.9075340367708 119.180465116282,163.59152901548077 114.18591362127336,162.8775894046703 120.35375415283488,163.89583015843527 124.1857807309134,166.00251421230496 127.24279069766635,167.2665110843809 127.95322259137174,167.722951900083 128.20079734222963,167.6527303224284 128.6744186046417,166.50577344467456 128.97581395349698,166.36532916988654 131.87136212625774,166.5174771285383 133.36757475079503,167.11436385114212 134.2717607973609,167.20799293520395 133.3245182724786,167.11436385114212 131.83906976744765,166.5174771285383 128.9973421926843,166.33021808159538 128.6959468438872,166.47066238775733 128.2115614617942,167.6059159199067 127.82405315613141,167.6176195218286 126.8229900332517,167.06754928818555 124.1857807309134,166.04932909262425 120.32146179396659,163.9075340367708 118.83601328905206,163.53300949731783" stroke="yellow" stroke-linecap="round" stroke-linejoin="round" stroke-width="0.5"><title>2025-01-10 13.0km</title><desc>1736482744000</desc></polyline><polyline fill="none" points="142.07409879838815,162.70162009744672 143.13391188258538,163.41889731763513 144.9723631509114,163.7716554103681 146.77837116154842,164.4654106925591 148.73578104143962,165.62950168731913 153.7969292390626,167.91062480052642 154.03484646196011,167.7224921828747 154.13217623502715,166.68775877750886 154.27276368491584,166.51138308856753 157.67930574103957,166.734792261268 159.46368491323665,167.393259562421 162.94592790392926,167.47556778190483 159.31228304409888,167.3579845980712 157.67930574103957,166.74655063002137 154.33765020029387,166.4996247023082 154.12136181577807,166.74655063002137 154.03484646196011,167.76952535830787 153.7969292390626,167.91062480052642 149.92536715621827,166.2644567929092 146.11869158881018,164.13617127783073 144.92910547397332,163.7716554103681 139.8571428571595,163.06613843639207 145.21028037386714,163.79517258850683 145.74018691590754,164.0891370196623 146.1078771695611,164.0891370196623 149.9902536715963,166.21742316897144 153.63471295061754,167.86359166710463 154.0024032042711,167.76952535830787 154.1105473965872,166.6995171497838 154.30520694266306,166.52314147393918 157.67930574103957,166.74655063002137 159.5502002670546,167.393259562421 163.0,167.4402928359632 159.25821094796993,167.34622627485078 157.6684913217905,166.6995171497838 154.34846461954294,166.52314147393918 154.16461949271616,166.6407252797071 154.15380507346708,167.47556778190483 153.87263017363148,167.89886651847337 149.8496662216494,166.22918157628737 146.14032042725012,164.12441271462012 144.85340453940444,163.7716554103681 139.8571428571595,163.03086250492197 143.64218958612764,163.51296621946676 146.06461949273944,164.06561988532485 149.62256341794273,166.05280537487124 153.6563417891157,167.86359166710463 153.95914552744944,167.78128364995064 154.19706275040517,167.19336799350276 153.95914552744944,167.84007509518415 153.48331108147977,167.76952535830787 149.9145527370274,166.24093998268654 146.11869158881018,164.0538613168319 145.86995994660538,164.1126541504782 145.03724966623122,163.7128624496545 143.6638184246258,163.56000064931868" stroke="yellow" stroke-linecap="round" stroke-linejoin="round" stroke-width="0.5"><title>2025-01-08 12.0km</title><desc>1736310892000</desc></polyline><polyline fill="none" points="168.03826888394542,163.8826969563088 168.36285313562257,163.36507658015762 168.4061310358229,162.85921866395802 168.61170106189093,162.6827562188846 168.8497295131092,162.72981289018935 168.74153476249194,162.8121620312304 169.79102384287398,163.21214296246762 170.33199759566924,163.65917927477858 172.54998998192605,164.43560775641527 176.22861150064273,166.4237178278854 179.53937086748192,167.8941973390465 179.75576036860002,167.68244913335366 179.78821879375027,166.7060509561852 180.09116409532726,166.5060650424566 183.40192346216645,166.74134256174148 185.13303947099485,167.40011775077437 188.71428571426077,167.4707006437675 185.11140052089468,167.37659011279175 183.4452013623668,166.76487029436976 180.04788619512692,166.54135669268726 179.82067721895874,166.77663415936695 179.78821879375027,167.68244913335366 179.60428771784063,167.92948867907398 175.54698457219638,166.2002037432976 171.83590462827124,164.11797838448547 171.4247645761934,164.11797838448547 170.66740132233826,163.75329202135617 165.57142857142026,163.10626575573406 170.81887397309765,163.85916879418073" stroke="#4DD2FF" stroke-linecap="round" stroke-linejoin="round" stroke-width="0.5"><title>2025-01-06 5.2km</title><desc>1736137119000</desc></polyline><polyline fill="none" points="14.281308411213104,194.14284960624354 14.335380507342052,193.6960213903949 14.69225634180475,193.16688107755908 14.951802403200418,194.08405649224005 14.584112149546854,194.33098742390575 15.265420560725033,194.2957116001926 17.514819759700913,194.83660669755773 20.564485981303733,196.27114558657922 21.137650200282224,196.77675864467165 25.24712950596586,198.59930390043883 25.49586114817066,198.4464460745803 25.539118825108744,197.45874578508665 25.744592790375464,197.2706116958725 29.30253671563696,197.51753764199384 31.011214953265153,198.16424662254576 34.428571428579744,198.22303821667447 30.870627503318246,198.14072997879703 29.183578104129992,197.48226253050962 25.78785046725534,197.2706116958725 25.58237650198862,197.44698741110915 25.506675567419734,198.4464460745803 25.29038718290394,198.6580953325174 21.408010680926964,197.05896057741484 18.228571428568102,195.25991461111698 16.628037383197807,194.61319372987782 11.285714285739232,193.77833194626146 14.919359145511407,194.2251599290612 17.493190921260975,194.80133098685474 20.759145527379587,196.61214061755163 24.53337783709867,198.25831316263066 25.117356475326233,198.66985361630213 25.485046728979796,198.41117117065005 25.58237650198862,197.3881955279212 25.73377837112639,197.23533652916376 28.134579439240042,197.51753764199384 29.183578104129992,197.45874578508665 30.924699599447194,198.1289716555766 34.41775700933067,198.1877632628166 30.632710280362517,198.070180026436 29.11869158881018,197.48226253050962 25.820293725002557,197.23533652916376 25.58237650198862,197.41171228382154 25.54993324429961,198.37589625889086 25.31201602134388,198.61106218861823 21.46208277705591,197.04720217363501 18.25020026700804,195.18936337101331 16.920026702282485,194.6837452275504 11.42630173562793,193.8371251741628" stroke="#4DD2FF" stroke-linecap="round" stroke-linejoin="round" stroke-width="0.5"><title>2025-01-03 9.5km</title><desc>1735878536000</desc></polyline><polyline fill="none" points="39.30886584153632,193.67313649154676 40.66383405827219,194.05029350308178 42.2139176983037,194.19172715055174 42.961860153940506,194.56888292563963 43.24369354301598,194.53352460992755 46.46309802617179,196.31321668898454 50.78815657412633,198.30503375004628 51.113348946208134,198.24610461118573 51.5577785212663,197.17359044872865 51.8829708933481,196.98501577849675 54.78802275011549,197.16180453840934 56.51154232193949,197.81002830136276 60.14285714289872,197.91610102789127 56.78253596526338,197.82181416338426 54.91809969890164,197.2207340811583 51.90465038479306,197.043945387064 51.5577785212663,197.23251998708292 50.98327199742198,198.3521770453226 46.777450652443804,196.58429385785712 43.232853797322605,194.60424123346456 42.95102040824713,194.62781343427196 42.08384074945934,194.21529941284098 40.858949481509626,194.15636875052587 37.0,193.48455764856772 42.17055871535558,194.20351328211837 43.698962863883935,194.9224656481092 42.2681164269452,194.23887167160865 39.092070926795714,193.75563966465415" stroke="#4DD2FF" stroke-linecap="round" stroke-linejoin="round" stroke-width="0.5"><title>2025-01-02 5.6km</title><desc>1735817809000</desc></polyline><polyline fill="none" points="65.38544726296095,193.76657227212854 67.95927903865231,194.18988226725196 68.71628838445758,194.58967399787798 69.44085447257385,194.71901816449827 73.37730307073798,196.88257759879343 76.69732977298554,198.31709522026358 76.97850467282115,198.02313775334915 77.29212283034576,197.23532904239255 77.6706275033066,197.04719503724482 80.44993324426468,197.14126206786023 82.48304405872477,197.88203797479218 85.85714285710128,197.90555461330223 84.53778371156659,197.98786282053334 82.28838451259071,197.84676301044237 80.60133511346066,197.18829556215496 77.68144192255568,197.023678270838 77.34619492653292,197.1530204427545 76.84873164218152,198.2700620623218 76.66488651535474,198.3523700794758 71.36582109471783,196.0242124593933 68.93257676891517,194.58967399787798 68.58651535381796,194.6131911269913 67.84032042720355,194.236916641079 62.71428571426077,193.47260632969846 67.45100133505184,194.13108928027214 68.67303070757771,194.5661568653013 68.93257676891517,194.49560544650012 72.40400534041692,196.44751639923197 76.66488651535474,198.36412836416275 77.37863818422193,197.1177453154669 77.6706275033066,197.0001615009387 78.49252336443169,197.10598693793872 77.35700934572378,197.09422855956655 76.84873164218152,198.24654547811951 76.65407209610566,198.30533693208417 72.7284379171906,196.6474095317244 69.09479305736022,194.6249496902019 68.60814419219969,194.58967399787798 67.74299065413652,194.20164086202567 66.81295060075354,194.236916641079 63.03871829097625,193.5078822717187 65.41789052064996,193.95471018791432" stroke="#4DD2FF" stroke-linecap="round" stroke-linejoin="round" stroke-width="0.5"><title>2024-12-31 8.0km</title><desc>1735619151000</desc></polyline><polyline fill="none" points="91.65126835781848,193.93119310878683 92.44072096131276,193.95471033420472 94.70093457947951,194.48384698051086 96.0202937250142,195.18935974927444 96.39879839785863,195.57739042774483 102.4548731642426,198.31709504156606 103.02803738322109,197.200053838038 103.35246995999478,197.0236781885178 106.34806408552686,197.18829546752386 107.84045393858105,197.7879712463764 111.56061415222939,197.88203782848723 107.98104138858616,197.84676286678587 106.32643524702871,197.200053838038 103.36328437924385,197.0236781885178 103.04966622166103,197.16477872389078 102.40080106811365,198.36412818195822 98.74552736984333,196.80026874947362 95.43631508684484,194.97770624978875 93.51134846464265,194.21339958294993 88.42857142857974,193.47260651191755 92.51642189588165,194.00174477460678 94.6684913217905,194.49560555251082 98.74552736984333,196.7062015226693 102.30347129510483,198.3523698981735 102.57383177569136,198.2465453046898 103.02803738322109,197.18829546752386 103.39572763687465,196.98840303494944 106.28317757014884,197.16477872389078 108.0351134846569,197.8114878971537 111.57142857142026,197.8232462212327 108.16488651541295,197.8350045444531 106.27236315089976,197.18829546752386 103.3416555407457,197.0001614203211 103.02803738322109,197.16477872389078 102.55220293730963,198.23478701213025 102.37917222967371,198.31709504156606 98.46435247000773,196.6709262981458 94.75500667560846,194.5896740968601 93.13284379174002,194.1898823960364 88.60160213621566,193.53139973981888 93.37076101475395,194.1781238012627 94.36568758345675,194.57791553188872 94.78744993329747,194.53088126321381 98.22643524699379,196.4357579332427 94.73337783711031,194.5543983992975 91.4674232309917,193.9429517219105" stroke="yellow" stroke-linecap="round" stroke-linejoin="round" stroke-width="0.5"><title>2024-12-30 10.8km</title><desc>1735533491000</desc></polyline><polyline fill="none" points="117.39192430704134,193.88795366154227 119.50759594881674,194.24005367598147 120.10127931769239,194.58041627515922 120.40351812366862,194.54520638521353 121.0187899786979,194.80341206205776 123.66337953094626,196.30569124220347 127.95948827289976,198.27741092588985 128.2725213219528,198.28914727868687 128.72587953088805,197.17418985808035 129.08208955224836,196.97467032940767 131.9209754797048,197.16245342220645 133.6156716417172,197.81969248437963 137.28571428568102,197.87837441019656 133.7559968017158,197.81969248437963 132.02891791041475,197.1859262930957 129.0389125799411,196.9981432282657 128.74746801704168,197.17418985808035 128.36966950958595,198.1248382597987 128.07822494662832,198.33609268118744 124.04117803834379,196.63431290317385 121.16990938165691,194.99119774307474 119.52918443497038,194.32221023277089 114.14285714284051,193.47716931666946 119.34568230272271,194.2283170215087 121.41817697224906,194.99119774307474 123.59861407248536,196.30569124220347 128.04584221745608,198.35956537719176 128.26172707881778,198.30088363061077 128.7582622601185,197.1859262930957 129.06050106603652,197.04508901543159 132.00732942426112,197.20939916046336 133.62646588485222,197.83142887128633 137.25333155645058,197.8666380267532 136.15231876331381,197.96052906956174 133.6804371001781,197.83142887128633 131.9965351812425,197.16245342220645 129.07129530917155,196.9981432282657 128.76905650319532,197.12724410934607 128.2725213219528,198.26567457219062 127.94869402982295,198.31261998169066 124.45135927502997,196.78688701275678 123.30716950952774,196.08269758184906 119.50759594881674,194.27526363414654 114.69336353940889,193.59453638165724" stroke="#4DD2FF" stroke-linecap="round" stroke-linejoin="round" stroke-width="0.5"><title>2024-12-27 9.1km</title><desc>1735273142000</desc></polyline><polyline fill="none" points="158.46875834441744,197.31175840903597 157.62523364485241,197.07659106026404 156.72763684910024,197.1824164105783 154.61882510012947,196.98252402269281 153.87263017357327,198.32297401613323 149.9469959946582,196.72383938015264 146.05380507337395,194.5837956207397 145.74018691584934,194.61907130254258 144.8966622162843,194.24279695682344 139.8571428571595,193.44321099342778 143.38264352467377,194.0076250351849 143.7287049399456,193.94883200002369 146.20520694256993,194.57203705838765 148.96288384508807,195.95954136861837 149.37383177573793,196.33581162143673 153.63471295055933,198.28769916214515 153.94833110808395,198.26418258844933 154.38090787711553,197.1824164105783 154.72696929238737,196.97076563902374 157.71174899861217,197.158899672213 159.53938584780553,197.84088366264768 163.0,197.93495018871909 159.18251001334284,197.77033373132872 157.8415220293682,197.194174778444 154.7161548731383,196.98252402269281 154.48905206943164,197.05307430612447 154.0024032042711,198.29945744766155 153.7861148197553,198.393523700448 152.85607476637233,197.84088366264768 149.81722296390217,196.64153054135386 146.2592790387571,194.56027849517704 143.81522029370535,194.0076250351849 141.25220293720486,193.6666251263232" stroke="#4DD2FF" stroke-linecap="round" stroke-linejoin="round" stroke-width="0.5"><title>2024-12-25 6.6km</title><desc>1735101299000</desc></polyline><polyline fill="none" points="167.97447547776392,193.64686289048404 167.88787919282913,193.85871619716636 168.02859815582633,193.811637709121 168.23426433251007,193.4703182511439 168.89456100494135,193.9293339029391 169.6306294266833,193.96464274397295 171.89295737002976,194.54135269718245 175.8980355472304,196.73047743695497 179.57837765605655,198.31933929801744 179.72992115461966,198.3075700096524 180.18455165042542,197.18948361591902 180.52011225448223,197.01294293568935 183.42108779901173,197.1777142433566 185.29373246023897,197.88387504417915 188.71428571431898,197.94272163513233 185.13136442605173,197.8485670791124 183.3128424428869,197.16594486996473 180.42269143398153,197.02471232048993 180.18455165042542,197.14240612045978 179.6974475478055,198.24872355459956 179.50260590668768,198.2840314302448 175.50835226516938,196.63632215846155 172.50995590008097,194.89443938445766 170.8105038086651,194.2118044102972 165.57142857142026,193.48208789991622 167.3466524120886,193.75278957933187 168.19096619001357,193.72925032128114 171.16771348391194,194.31773072035867 172.52078043564688,194.8473612050875 176.2335961512872,196.89524903925485 179.40518508624518,198.3075700096524 179.74074569024378,198.27226213926042 180.28197247092612,197.07178985100472 181.38607510353904,197.07178985100472 180.3144460777985,197.03648170443194 179.68662301212316,198.36641644273186 175.78979019110557,196.75401624779624 173.68983028194634,195.51822393668408 170.91874916478992,194.2941915464762 165.60390217823442,193.49385754780087 170.0527863156167,194.12941723116091" stroke="#4DD2FF" stroke-linecap="round" stroke-linejoin="round" stroke-width="0.5"><title>2024-12-18 8.3km</title><desc>1734495982000</desc></polyline><polyline fill="none" points="13.725213219644502,223.2971822572872 13.325826225976925,223.39107689571392 13.466151385917328,223.27370858890936 13.325826225976925,223.36760324134957 13.239472281420603,223.23849807979423 13.282649253727868,223.35586641285045 14.156982942426112,223.9661803349445 16.067563965916634,224.8112264769734 16.520922174851876,225.5271647999616 17.02825159911299,225.92621097754454 17.589552238816395,226.0083674180205 21.551039445621427,228.1444198316167 25.13472814502893,229.7523083115084 25.39378997863969,229.7640446634323 25.90111940301722,228.63735089088732 26.21415245201206,228.46130426107266 29.214952025562525,228.64908732590266 31.103944562957622,229.30632629014144 34.428571428579744,229.36500820718356 30.8125,229.30632629014144 29.214952025562525,228.66082376001577 26.160181236744393,228.4730407091556 25.847148187633138,228.64908732590266 25.307436034141574,229.8109900624113 20.007462686568033,227.59280467465578 19.640458422130905,227.2289723437716 18.312766524555627,226.47783197026 16.715218550118152,225.84405449419864 11.285714285739232,224.96380376946763 16.445362473314162,225.644531427708 17.352078891301062,226.0435773079662 17.54637526650913,225.98489415366203 21.594216417928692,228.1913657132245 24.37913113005925,229.2945899040933 25.145522388105746,229.7640446634323 25.436966950946953,229.6936265386903 25.976679104438517,228.56693226256175 27.099280383787118,228.53172293663374 26.041444562899414,228.60214158067538 25.480143923254218,229.82272640999872 24.99440298503032,229.78751736468985 21.33515458420152,228.21483864881156 20.331289978697896,227.5575951309729 16.682835820887703,225.78537126557785 11.372068230237346,225.0459607118828 16.520922174851876,225.66800474275078" stroke="#4DD2FF" stroke-linecap="round" stroke-linejoin="round" stroke-width="0.5"><title>2024-12-17 8.6km</title><desc>1734409492000</desc></polyline><polyline fill="none" points="39.85367318341741,224.4033297716087 42.16687796090264,224.76767627996742 43.01000867417315,225.1672811601893 43.291052245302126,225.08500964994892 47.301327817491256,227.29457245534286 50.9440848735976,228.86945471394574 51.138653499714565,228.84594912418106 51.63588443316985,227.68241805276193 51.90611863619415,227.52963050700782 55.04083539068233,227.75293533166405 56.60819376795553,228.35233092975977 60.14285714284051,228.41109508152294 59.796957363025285,228.52862331936194 56.597384399792645,228.41109508152294 54.74898245144868,227.72942957554187 51.9709748448804,227.61190074232582 51.54940948821604,227.87046405980072 51.08460665913299,228.86945471394574 50.9008474011207,228.9282186730852 47.62560886098072,227.54138340037025 43.22619603655767,225.19078729808098 42.65329952631146,225.12026887387037 42.04797491163481,224.76767627996742 37.0,224.0742418794689 42.123640488425735,224.75592317992414 42.84786815237021,225.14377501880517 43.26943350909278,225.10851580010785 47.268899713119026,227.28281954357226 50.86841929674847,228.85770191950724 51.171081604028586,228.83419632795267 51.53860012011137,227.83520545056672 51.90611863619415,227.55313629288867 55.07326349505456,227.75293533166405 56.5757656635833,228.35233092975977 60.07800093415426,228.44635356204526 56.77033428970026,228.41109508152294 54.87869486887939,227.72942957554187 51.89530926808948,227.58839496517612 51.625075065065175,227.71767669616384 51.06298792292364,228.9282186730852 47.193234136211686,227.34158409367956 43.23700540472055,225.19078729808098 42.274971642124,224.84994795570674 37.12971241743071,224.0977481802547 42.10202175221639,224.76767627996742 42.85867752053309,225.14377501880517 43.323480349674355,225.15552808991924 47.72289317409741,227.49437182156544 50.86841929674847,228.89296030023252 51.171081604028586,228.84594912418106 51.53860012011137,227.647159401502 52.792486821941566,227.67066516987688 51.64669380133273,227.69417093474476 51.106225395342335,228.98698261032405 47.160806031897664,227.32983118541597 43.280242877139244,225.17903422958625 42.934343097382225,225.19078729808098 42.08040301594883,224.77942937910848 37.12971241743071,224.14476077129075 42.0047374390997,224.75592317992414" stroke="yellow" stroke-linecap="round" stroke-linejoin="round" stroke-width="0.5"><title>2024-12-15 13.0km</title><desc>1734235831000</desc></polyline><polyline fill="none" points="65.00266524514882,224.16570263789617 65.00266524514882,224.2948063468648 65.9741471214802,224.58822347370733 67.28025053301826,224.8581667477265 67.96028784645023,224.81122012459673 68.61873667372856,225.18679271779547 68.9965351811843,225.19852934690425 73.46535181236686,227.58104695043585 76.67124200426042,228.94246940364246 76.8763326225453,228.93073305345024 77.30810234538512,227.88619438531168 77.63192963751499,227.67493853179622 80.61114072497003,227.8275122322084 82.32742537313607,228.4847510985128 85.85714285715949,228.55516938587243 82.26265991473338,228.4847510985128 80.69749466952635,227.83924866456073 77.57795842218911,227.62799274810823 77.27571961615467,227.76883005723357 76.75759594881674,228.9659421013639 72.99040511721978,227.42847301134316 69.48227611934999,225.46847157506272 67.88472814497072,224.84643009325373 62.71428571426077,224.0952823884145 65.45602345408406,224.37696319747192 67.88472814497072,224.77601014809625 68.97494669503067,225.12810955914028 72.28877931763418,226.9355408136762 75.6026119402959,228.39085999978124 76.42297441361006,228.90726035044645 76.8655383795267,228.8603149339615 77.26492537313607,227.88619438531168 77.59954690834275,227.65146564172755 80.55716950958595,227.78056649395148 82.16551172710024,228.44954194304592 83.39605543710059,228.46127832909406 82.07915778248571,228.41433277970646 80.53558102343231,227.80403936484072 77.71828358207131,227.62799274810823 77.27571961615467,227.75709361961344 76.73600746272132,228.91899670237035 72.78531449887669,227.31110834227002 68.9965351811843,225.22200260248792 67.86313965881709,224.84643009325373 66.15764925366966,224.63517016328115" stroke="#4DD2FF" stroke-linecap="round" stroke-linejoin="round" stroke-width="0.5"><title>2024-12-13 8.5km</title><desc>1734064159000</desc></polyline><polyline fill="none" points="90.93197921582032,224.42675733754004 93.31513597408775,224.77146170809283 94.95492273429409,225.2825737142266 98.3656791956164,227.2081437765737 102.18091639113845,228.89597002693336 102.48700991971418,228.9078560639755 102.97894594777608,227.77867859123216 103.28503947635181,227.62415894704463 106.29131520347437,227.77867859123216 107.79991902288748,228.39675567152153 111.57142857142026,228.4680721036566 108.16067211015616,228.44429996314284 106.18199608608847,227.7667924700654 103.20851609425154,227.61227281436732 102.89149065385573,227.71924797657994 102.53073756664526,228.74145146478259 102.26837168505881,228.97917226764548 101.49220595182851,228.53938850389386 98.35474728385452,227.315119209743 95.18449288076954,225.49652709104703 93.50097847357392,224.91409778151137 95.17356096900767,225.44898192099936 97.18503272830276,226.66137933138816 101.51406977529405,228.5275024393777 102.14812065591104,228.94351416980498 102.46514609619044,228.8721979501861 102.95708212431055,227.57661441105301 102.44328227278311,228.83653982842225 102.16998447943479,228.9078560639755 98.47499831294408,227.33889151847688 94.53951008844888,225.12805165251484 94.15689317765646,225.13993797026342 93.1948849449982,224.74768901680363 88.42857142857974,224.08205222216202" stroke="#4DD2FF" stroke-linecap="round" stroke-linejoin="round" stroke-width="0.5"><title>2024-12-11 6.6km</title><desc>1733890893000</desc></polyline><polyline fill="none" points="116.94903691811487,224.53971733461367 119.43017656501615,224.8224522221426 119.97191011230461,225.1405283662898 120.41613162116846,225.12874777975958 124.48996789724333,227.37882387964055 128.13041733542923,228.95739219000097 128.72632423753385,227.73223606444662 129.04052969499025,227.59087128531246 132.15008025680436,227.77935762943525 133.74277688597795,228.40371703956043 137.25321027287282,228.48617941886187 133.87279293738538,228.40371703956043 132.18258426967077,227.8382595658768 128.8130016051,227.6968948815047 128.21709470299538,228.99273309124692 124.41412520065205,227.40238471655175 123.31982343498385,226.66021666802408 120.38362760830205,225.19943128572777 120.14526484749513,225.25833418322145 119.21348314604256,224.88135526006226 114.2512038522982,224.17451735658688 118.36837881215615,224.64574297667423 120.38362760830205,225.1169671923708 123.22231139644282,226.51885093048622 124.40329052967718,227.30814134790853 128.04373996786308,228.93383158479992 128.27126805775333,228.85136943892576 128.74799357942538,227.8029184066254 129.04052969499025,227.59087128531246 130.9365971107036,227.77935762943525 131.90088282502256,227.6968948815047 133.7969502407359,228.4154973820987 137.28571428568102,228.47439908160595 133.61276083462872,228.39193669614906 132.12841091491282,227.8029184066254 129.01886035309872,227.60265168843034 128.74799357942538,227.70867527670634 128.36878009623615,228.7689072500507 128.16292134829564,228.94561188784428 124.7825040128082,227.53196925671364 122.75642054568743,226.31858258601278 120.36195826646872,225.1405283662898 118.62841091491282,224.7046460804413 114.14285714284051,224.06849139856058 119.67937399679795,224.86957465425075 127.87038523273077,228.87493005640863 128.27126805775333,228.80424819338077 128.74799357942538,227.57909088133601 128.29293739964487,228.85136943892576 128.0654093097546,228.8984906704136 124.53330658102641,227.40238471655175 120.39446227927692,225.10518660409434 116.61316211876692,224.4690335337218" stroke="yellow" stroke-linecap="round" stroke-linejoin="round" stroke-width="0.5"><title>2024-12-09 12.1km</title><desc>1733738831000</desc></polyline><polyline fill="none" points="149.48727615457028,226.9753128762386 153.83883129124297,228.94375684059924 154.34051433950663,227.80538257640728 154.73313585564028,227.59193649550434 157.54692338762106,227.71051768689358 159.2591894438956,228.38642879095278 163.0,228.5168674455781 159.61909250030294,228.44571910175728 157.7323279924458,227.79352446830308 154.7658543153666,227.63936898268003 154.39504510565894,227.75795013873721 153.86064359766897,228.96747288455663 150.4142991786357,227.53264586672594 146.03002558235312,225.16100260331586 145.63740406621946,225.17286090755078 145.1357210178976,224.84082805534126 142.02746734890388,224.42578601601417 141.63484583277022,224.2360521518276 141.4494412279455,224.39021093370684 140.08617207489442,224.17676027287962 143.31439342937665,224.50879451046058 146.03002558235312,225.11356937758683 148.8874377272441,226.52470179765078 149.69449306587921,227.11761084654427 153.67523899290245,228.94375684059924 153.93698667018907,228.83703459918615 154.39504510565894,227.734233914598 154.64588662981987,227.5445039942424 155.6165342667955,227.71051768689358 157.7105156860198,227.72237580118235 159.45550020196242,228.39828685490647 162.92365692736348,228.46943521988578 159.36825097620022,228.36271266045514 157.7105156860198,227.7460920270969 154.72222970239818,227.61565274088935 154.27507742022863,227.99511218578846 153.84973744442686,228.96747288455663 149.79264844488353,227.21247608942213 146.01911942911102,225.16100260331586 145.76827790495008,225.20843581490044 144.3613841389306,224.74596139891946 139.8571428571595,224.09375160525087 144.56860105023952,224.74596139891946 145.67012252588756,225.14914429822238 146.08455634844722,225.13728599224123 147.49145011446672,225.90807404388033" stroke="#4DD2FF" stroke-linecap="round" stroke-linejoin="round" stroke-width="0.5"><title>2024-12-06 9.2km</title><desc>1733479157000</desc></polyline><polyline fill="none" points="167.9192546583945,224.44251490685565 170.8621518733562,224.7954378643044 171.48968142655212,225.18365220635314 171.83590462832944,225.11306785150373 175.87156882387353,227.37175155618752 179.39871769183083,228.93634163950628 179.75576036865823,228.8304676116095 180.1344419955858,227.81877887611336 180.54558204772184,227.65408474758442 183.46684031258337,227.79525115396245 185.11140052089468,228.4187346060353 188.71428571431898,228.53637271716434 185.15467842115322,228.4187346060353 183.445201362425,227.8305427358573 180.4914846724132,227.642320874671 180.11280304548563,227.8775981660874 179.5718292927486,228.9598691916326 175.57944299740484,227.26587647927226 174.6706070927903,226.64238847525849 171.84672410337953,225.20718031762226 171.53295932681067,225.2307084253698 170.74313764774706,224.85425828050938 165.57142857142026,224.10135529816034 170.74313764774706,224.8424941990088 172.3660589060164,225.52480947655567 171.89000200363807,225.20718031762226 167.93007413338637,224.4542790181731" stroke="#4DD2FF" stroke-linecap="round" stroke-linejoin="round" stroke-width="0.5"><title>2024-12-03 5.6km</title><desc>1733220329000</desc></polyline><polyline fill="none" points="14.306693306774832,255.1720454476308 16.496903096907772,255.4066694102221 17.24135864136042,255.8407228193537 18.19080919085536,255.95803434615664 19.21578421583399,256.6267083799321 20.618381618405692,257.1546069270844 21.513886113942135,257.8467378964124 25.365634365705773,259.5359939294576 25.85114885121584,258.4919419923972 26.239560439658817,258.2338606712583 29.185014985094313,258.39809428820445 30.99760239769239,259.06675796023046 33.533066933159716,259.0432961250772 34.42857142863795,259.11368162008876 34.15884115890367,259.1840670836391 30.889710289717186,259.09021979190584 29.185014985094313,258.44501814730756 26.22877122880891,258.28078457928495 25.905094905174337,258.4332871838269 25.40879120887257,259.54772481077816 25.17142857145518,259.57118657078536 21.179420579457656,257.85846890359244 19.0215784215834,256.6267083799321 16.399800199840683,255.45359416077554 11.285714285739232,254.73799019510625 16.583216783299576,255.43013178724505 18.115284715371672,256.13400147245557 16.378221778257284,255.48878771453747 11.307292707322631,254.71452771493932 14.43616383621702,255.1485830321326" stroke="#4DD2FF" stroke-linecap="round" stroke-linejoin="round" stroke-width="0.5"><title>2024-12-02 6.1km</title><desc>1733112856000</desc></polyline><polyline fill="none" points="37.0,253.95551780030655 37.685714285762515,254.24132732491125 39.26285714295227,256.3538173175475 39.12571428576484,256.2171275982837 39.42285714292666,256.20470125461 39.81142857146915,255.73249950907484 41.22857142862631,255.94374782366503 41.75428571429802,256.2916856408556 42.80571428575786,256.50293324714585 43.937142857175786,257.21123209224606 45.3085714285844,257.7331345797138 46.02857142861467,258.3668711189821 50.14285714289872,260.24321420525666 50.47428571432829,260.24321420525666 50.97714285715483,259.08758817857597 51.3085714285844,258.9260484187398 54.47428571432829,259.08758817857597 56.428571428579744,259.78344997085514 60.14285714289872,259.8207281992363 56.45142857148312,259.8083021240309 54.48571428575087,259.11244043541956 51.34285714291036,258.9509006996668 51.0,259.1000143074489 50.38285714288941,260.3301964854181 46.45142857142491,258.6775254058448 43.78857142862398,257.1739532806678 41.12571428576484,255.95617418676557 37.89142857148545,255.5709564997378" stroke="#4DD2FF" stroke-linecap="round" stroke-linejoin="round" stroke-width="0.5"><title>2024-11-29 4.6km</title><desc>1732853630000</desc></polyline><polyline fill="none" points="64.67423103214242,256.39640863385284 64.50813397130696,256.4927272200148 65.21681476419326,256.5047670392232 64.60779220779659,256.4325281104102 65.16144907724811,256.480687399875 65.09501025290228,256.6492448000499 65.98086124402471,255.50545899033023 68.06261107313912,255.36098020688223 68.72699931648094,255.72217692330014 69.66821599449031,255.91481484193355 73.35557074501412,258.0217770858435 77.0539986328804,259.6230500198435 77.60765550239012,258.45520591216336 77.93984962400282,258.2986900811957 81.08462064253399,258.45520591216336 82.6791524264845,259.10534697216644 85.85714285715949,259.14146584326227 82.74559125083033,259.0812677202921 80.85208475735271,258.4190868877049 77.89555707451655,258.2505313334841 77.62980177713325,258.40704721107613 77.0539986328804,259.6110104328982 73.13410799723351,258.0217770858435 69.08133971289499,255.75829655052803 67.86329460015986,255.38506001309725 62.71428571426077,254.66266426586662 67.97402597405016,255.36098020688223 68.64948735479265,255.71013704575307 69.35816814762075,255.80645604094025 72.21503759402549,257.3234726427472 67.94080656184815,255.40913981571794 65.16144907724811,255.03590247182" stroke="#4DD2FF" stroke-linecap="round" stroke-linejoin="round" stroke-width="0.5"><title>2024-11-28 6.3km</title><desc>1732767063000</desc></polyline><polyline fill="none" points="88.58389261749107,254.37745033274405 92.00095877278363,254.95446389987774 92.77756471722387,255.3625943830266 93.13998082454782,255.33444748146576 96.69942473637639,257.0795474473125 97.92905081494246,257.8957983490254 102.4333652924397,259.86604461500247 103.06759348034393,258.50094760286447 103.53355704701971,258.2476295464294 106.9635666346876,258.43058151013975 108.54266538831871,259.0920217468374 109.91466922336258,259.31719236285426 111.57142857142026,259.2749728927738 109.07334611698752,259.2327534132928 107.19654841802549,258.50094760286447 103.66299137106398,258.3179957073298 103.13231064239517,258.529094032594 102.4333652924397,259.9082639529661 97.52780441037612,257.83950529657886 93.13998082454782,255.33444748146576 92.81639501440804,255.40481472751708 91.70325982745271,254.91224345473165 88.42857142857974,254.4759649690095" stroke="#4DD2FF" stroke-linecap="round" stroke-linejoin="round" stroke-width="0.5"><title>2024-11-25 4.0km</title><desc>1732507947000</desc></polyline><polyline fill="none" points="114.14285714284051,253.18461767084955 118.86058243527077,253.79047882124723 120.14216922724154,254.53770570833876 120.84797064901795,254.45692452257208 122.14813116262667,254.88102547932067 123.50401284114923,255.8503966031276 126.06718642520718,256.96113008736575 128.05457463883795,258.33439428484417 132.54941527172923,260.0913545111107 134.05388672323897,261.00012257375056 134.44393487740308,260.83856402969104 135.2797523504123,258.8796590219572 137.28571428568102,258.83926907903515 135.3540472368477,258.9402439250698 134.27677138277795,261.10109661487513 128.35175418492872,258.63731927420304 120.81082320562564,254.5982915818604 120.30933272198308,254.69926800769463 122.09240999771282,255.04258757403295 122.96537491399795,255.8503966031276 124.50699380878359,256.27449537967914 128.01742719556205,258.3747843029705 133.64526484755334,260.87895367472083 134.44393487740308,260.95973294676514 135.2797523504123,258.8594640513038 134.38821371248923,261.10109661487513 128.44462279300205,258.59692929522134" stroke="#4DD2FF" stroke-linecap="round" stroke-linejoin="round" stroke-width="0.5"><title>2024-11-20 4.0km</title><desc>1732095798000</desc></polyline><polyline fill="none" points="141.209088839998,254.62387657201907 144.62582505121827,255.11832506107748 145.44928305898793,255.53259166466887 146.01464228815166,255.5860453502537 149.1732797208242,257.1495586066303 150.0090281466255,257.79099600003974 154.50732114410494,259.78210996436246 154.71625825052615,259.755383748794 155.22016538958997,258.57942632028426 155.5888779303641,258.29879897637875 159.00561414158437,258.4858839211083 160.80001517338678,259.2074954514828 163.0,259.2876743312081 160.7631439192337,259.2208586006018 158.80896745313657,258.4725207172305 155.66262043855386,258.31216219317866 155.1464228814002,258.6596054807451 154.66709657839965,259.80883617600193 150.09506107278867,257.92462850161246 146.5800015173154,255.9602207034477 144.60124421521323,255.17177887016442 139.8571428571595,254.4768781097082" stroke="#4DD2FF" stroke-linecap="round" stroke-linejoin="round" stroke-width="0.5"><title>2024-11-19 4.1km</title><desc>1731989484000</desc></polyline></svg>