<?xml version="1.0" encoding="utf-8" ?>
<svg baseProfile="full" height="300mm" version="1.1" viewBox="0,0,200,300" width="200mm" xmlns="http://www.w3.org/2000/svg" xmlns:ev="http://www.w3.org/2001/xml-events" xmlns:xlink="http://www.w3.org/1999/xlink"><defs /><rect fill="#222222" height="300" width="200" x="0" y="0" /><text fill="#FFFFFF" style="font-size:12px; font-family:Arial; font-weight:bold;" x="10" y="20">Over 4km Runs</text><text fill="#FFFFFF" style="font-size:4px; font-family:Arial" x="10" y="280">ATHLETE</text><text fill="#FFFFFF" style="font-size:9px; font-family:Arial" x="10" y="290">Fake David</text><text fill="#FFFFFF" style="font-size:4px; font-family:Arial" x="65" y="280">SPECIAL TRACKS</text><rect fill="yellow" height="2.6" width="2.6" x="65" y="283" /><text fill="#FFFFFF" style="font-size:3px; font-family:Arial" x="70" y="285.5">Over 10.0 km</text><rect fill="red" height="2.6" width="2.6" x="65" y="287" /><text fill="#FFFFFF" style="font-size:3px; font-family:Arial" x="70" y="289.5">Over 15.0 km</text><text fill="#FFFFFF" style="font-size:4px; font-family:Arial" x="120" y="280">STATISTICS</text><text fill="#FFFFFF" style="font-size:3px; font-family:Arial" x="120" y="285">Number: 32</text><text fill="#FFFFFF" style="font-size:3px; font-family:Arial" x="120" y="290">Weekly: 2.5</text><text fill="#FFFFFF" style="font-size:3px; font-family:Arial" x="141" y="285">Total: 254.5 km</text><text fill="#FFFFFF" style="font-size:3px; font-family:Arial" x="141" y="290">Avg: 8.0 km</text><text fill="#FFFFFF" style="font-size:3px; font-family:Arial" x="167" y="285">Min: 4.0 km</text><text fill="#FFFFFF" style="font-size:3px; font-family:Arial" x="167" y="290">Max: 13.0 km</text><polyline fill="none" points="13.953451043344103,44.14276506616443 11.714285714260768,43.922859547426924 15.513643659709487,44.33125532824488 18.547351524874102,44.86531015561195 19.385232744796667,45.28941155473876 19.99197431781795,45.25799666551757 25.293739967863075,48.17956133559346 30.378812199051026,50.36285473826865 30.624398073880002,50.04871319506492 30.783306581084616,48.68219203586341 31.028892455855384,48.50941286784655 35.6083467095159,48.792142341830186 37.67415730335051,49.64032848921488 42.571428571420256,49.73457118382794 37.93418940604897,49.67174272541888 35.55056179774692,48.80784952372778 31.317817014467437,48.50941286784655 31.07223113963846,48.77643515878299 30.812199036881793,48.71360641489446 30.624398073880002,50.14295570716786 30.176565008063335,50.31573353661224 24.325842696649488,47.724051228462486 20.020866773615126,45.32082643925969 18.388443017669488,44.83389520320634 12.826645264809486,44.04851987192524" stroke="#4DD2FF" stroke-linecap="round" stroke-linejoin="round" stroke-width="0.5"><title>2025-02-18 4.9km</title><desc>1739836925000</desc></polyline><polyline fill="none" points="51.47954866004875,44.16161831950012 51.436026596755255,44.540193852910306 53.031835583329666,44.492871948255925 55.149909329018556,44.85567294700013 57.92081402376061,46.33841839211527 59.415071529278066,46.82740663430013 60.80777755391318,47.836927174648736 65.49365303240484,49.76131237165828 66.56719725969015,50.40802806057036 66.95889582915697,50.10833079180156 67.06044731009752,48.70448004330683 67.29256498086033,48.49942241336976 71.86238162394147,48.86221654662222 73.98045536968857,49.69821805234824 79.0,49.79285952428472 74.14003626833437,49.60357653815299 71.8913963328232,48.767574658748345 67.40862381621264,48.483648741283105 67.14749143656809,48.767574658748345 67.07495466450928,50.01368946087314 66.84283699380467,50.34493393394223 61.5186379206134,48.12085395933536 57.22446101147216,45.69169027269527 55.03385049360804,44.80835111284978 48.14285714284051,43.87768622516887 55.07737255690154,44.824125058730715 57.07938746729633,45.72323803170002 55.07737255690154,44.824125058730715" stroke="#4DD2FF" stroke-linecap="round" stroke-linejoin="round" stroke-width="0.5"><title>2025-02-14 5.4km</title><desc>1739506837000</desc></polyline><polyline fill="none" points="87.94395142456051,44.37699793292268 90.5381997731165,44.6904143892898 92.87302328686928,45.27023360230669 98.63801961700665,48.35735223162919 103.06265430036001,50.378841913014185 103.42296657100087,50.31616035429761 103.98505371325882,48.9058203445893 104.40301594720222,48.576739648444345 108.49616334156599,48.81179734109901 110.8021618736093,49.73635505048151 115.42857142852154,49.783366350864526 110.70127443782985,49.73635505048151 108.45292586908909,48.8431383469142 104.47507840127219,48.63942172547104 104.08594114903826,48.82746784457413 103.29325415362837,50.378841913014185 98.33535730966832,48.37302276896662 92.91626075928798,45.33291666471632 91.60472409421345,44.90980563084304 84.57142857142026,43.90687237272505 91.40294922265457,44.81578084103239 92.98832321347436,45.33291666471632 98.3641822913778,48.26332898292458 103.01941682794131,50.347501135998755 103.45179155271035,50.23780837960658 104.04270367650315,48.85880884807557 104.50390338298166,48.63942172547104 108.51057583244983,48.85880884807557 110.70127443782985,49.6893437395629 115.42857142852154,49.767695918577374 113.45406018552603,49.877388920111116 110.68686194706243,49.6580028598255 108.42410088743782,48.8431383469142 104.46066591044655,48.56106912622636 104.08594114903826,48.81179734109901 103.4373790618265,50.28481956793985 103.20677920867456,50.33183074570843 98.07593247486511,48.16930569220858 93.42069793824339,45.567977982442244 91.95062387402868,44.956818009974086 84.60025355312973,43.938214109424734 88.26102622272447,44.25163121963851 91.60472409421345,44.81578084103239 93.60806031897664,45.85005121694121 92.85861079604365,45.31724590086378 92.6712484152522,45.41127046647307 91.38853673188714,44.84712244231196" stroke="yellow" stroke-linecap="round" stroke-linejoin="round" stroke-width="0.5"><title>2025-02-12 10.1km</title><desc>1739334019000</desc></polyline><polyline fill="none" points="145.80931943596806,49.29479556559818 147.1042305334122,49.7427746928588 151.8571428571595,49.77477316620934 147.2660944206291,49.80677163475775 145.05885959538864,48.81481689227803 140.73267933784518,48.526829173380975 139.79092581238365,50.33474567782832 139.5113427345641,50.38274325375096 133.74310239113402,47.85485632752534 132.19803801347734,46.862892569290125 128.10729613737203,44.942949698030134 121.0,43.822975095928996 127.84242795832688,44.766954075937974 130.12323727773037,45.64693074388197 133.02207234827802,47.054885912366444 134.47884733293904,48.07884750976518 139.40833844261942,50.30274728794757 139.80564071121626,50.158754474367015 140.4089515634696,48.718821028916864 140.776824034343,48.51082984438108 143.4255058246199,48.79881758472766 144.74984671978746,48.718821028916864 147.1189454322448,49.69477697390539 151.66584917227738,49.75877393010887 145.44144696503645,49.31079483621579 145.5150214592577,49.75877393010887 145.38258736970602,49.23079847113695 144.85285101167392,48.990809197042836 140.776824034343,48.57482715335209 140.48252605769085,48.73482034241897 139.67320662172278,50.46273918978113 134.12568976084003,48.07884750976518 133.11036174127366,47.26287850696826 131.2415695892414,46.36690897194785" stroke="#4DD2FF" stroke-linecap="round" stroke-linejoin="round" stroke-width="0.5"><title>2025-02-10 6.3km</title><desc>1739162078000</desc></polyline><polyline fill="none" points="157.6491007618024,45.898453049594536 159.51511819683947,45.953760177624645 167.9291604492464,47.18894949258538 170.50765726855025,47.07833577459678 170.7281866017729,47.926373019392486 171.69512290897546,47.981679695585626 172.83169716480188,48.40569713714649 173.61203172855312,47.281127553244005 180.56718762265518,47.15207825876132 180.94039110967424,47.79732406033145 181.38144977617776,47.90793745791598 181.66983428882668,47.7420173430437 181.9582188015338,46.967722007408156 183.28139480086975,46.875543830377865 188.28571428573923,47.50235475912632 183.58674310846254,46.85710819084488 181.9073274169932,46.94928637472913 181.58501531451475,47.7420173430437 181.29663080180762,47.889501895042486 180.56718762265518,47.13364263974654 173.69685070292326,47.244256333084195 173.20490065182094,47.57609711731493 172.86562475463143,48.42413266166113 170.81300557602663,47.94480857953022 170.81300557602663,47.22582072095247 170.59247624286218,47.04146452435816 168.09879839781206,47.170513876350014 160.21063378616236,46.00906729327107 157.42857142857974,45.880017337505706 159.83743029920151,45.97219588418375 167.55595696222736,47.13364263974654 170.4737296787789,47.04146452435816 170.71122280682903,47.90793745791598 172.84866095968755,48.40569713714649 173.35757480561733,47.44704797613667 173.79863347200444,47.244256333084195 180.49933244328713,47.13364263974654 180.97431869944558,47.815759630000684 181.3135945966933,47.889501895042486 181.66983428882668,47.66827503418608 181.8055446477956,47.05990015016869 182.22963951935526,46.893979468542966 187.92947459354764,47.44704797613667 183.82423623651266,46.85710819084488 182.1617843398708,46.85710819084488 181.70376187859802,47.0967713977152 181.4153773658909,47.889501895042486 181.07610146864317,47.815759630000684 180.55022382782772,47.0967713977152 173.6289955234388,47.22582072095247 173.2218644466484,47.53922594094183 172.88258854940068,48.40569713714649 170.79604178119916,47.926373019392486 170.59247624286218,46.967722007408156 167.8273776800488,47.07833577459678 159.31155265844427,45.86158162406355 157.81873871048447,45.916888760300935 159.3454802481574,45.898453049594536 168.59074844891438,47.20738510748197 170.55854865303263,47.04146452435816 170.74515039660037,47.926373019392486 172.0683263959363,48.092293011039146 170.81300557602663,47.90793745791598 170.4737296787789,46.9861576386902 167.91219665436074,47.0967713977152 160.0918872221955,45.953760177624645 158.0053404539358,45.916888760300935 160.2445613759919,46.00906729327107" stroke="#4DD2FF" stroke-linecap="round" stroke-linejoin="round" stroke-width="0.5"><title>2025-01-25 9.9km</title><desc>1737761473000</desc></polyline><polyline fill="none" points="12.125714285648428,79.9195225485164 22.18857142853085,81.37268526187108 25.10285714280326,81.24227356730262 25.085714285669383,82.43460653677175 26.217142857145518,82.49049700566684 27.19428571424214,82.93762030861399 28.017142857133877,81.72665951962699 35.02857142849825,81.55898756504757 35.67999999993481,82.37871605542023 36.10857142851455,82.2483048838476 36.2285714285681,81.55898756504757 36.502857142768335,81.35405502394133 42.571428571420256,81.93159175637993 37.839999999967404,81.29816430184292 36.34857142850524,81.42857596733666 35.88571428571595,82.3600858922 35.508571428537834,82.2483048838476 35.35428571427474,81.68939909496112 35.02857142849825,81.54035734095669 28.051428571343422,81.67076888056181 27.70857142849127,81.85707096237456 27.29714285710361,82.90036006379523 25.20571428560652,82.39734621722891 25.05142857140163,81.46583643078338 22.668571428512223,81.63350844757224 13.32571428566007,80.27349885678268 11.714285714260768,80.29212917493714 13.80571428569965,80.34802012116415 22.137142857071012,81.5962480090966 24.811428571410943,81.44720619975124 25.034285714267753,81.65213866478007 25.034285714267753,82.3041953942593 27.19428571424214,82.90036006379523 27.999999999941792,81.68939909496112 35.01142857136438,81.54035734095669 35.43999999994412,82.2483048838476 35.83428571425611,82.3600858922 36.571428571420256,81.33542478464369 41.54285714280559,81.72665951962699 36.708571428549476,81.27953405839799 36.2285714285681,81.42857596733666 36.14285714284051,82.15515400553704 35.83428571425611,82.32282556161226 35.01142857136438,81.48446666038944 28.085714285669383,81.67076888056181 27.64000000001397,81.95022195141064 27.24571428570198,82.86309981344675 25.188571428589057,82.3600858922 24.931428571406286,81.40994573359785 22.651428571436554,81.61487822899653 13.49714285711525,80.25486853721668 12.091428571438882,80.31075949170918 13.668571428512223,80.27349885678268 15.862857142812572,80.62747466555447" stroke="#4DD2FF" stroke-linecap="round" stroke-linejoin="round" stroke-width="0.5"><title>2025-01-19 8.1km</title><desc>1737283232000</desc></polyline><polyline fill="none" points="52.221592046378646,78.62353779278055 54.80142790416721,78.9839665429754 55.89677720685722,79.54811465121747 56.70387669309275,79.5637854104134 60.5375992525951,81.5696329469065 61.013211449899245,82.00840954572777 65.69727096811403,84.0142337703146 66.74938279838534,84.67239067645278 67.03763261489803,84.50001644765143 67.65736972040031,83.04266505004489 68.06091946345987,82.80760742741404 71.85140455060173,82.99565354651713 74.27270300925011,83.8575294415059 78.99999999994179,83.98289291388937 74.17181557341246,83.8575294415059 71.98111696797423,82.96431253835908 68.11856942682061,82.77626639121445 67.67178221116774,82.94864203252655 67.02322012401419,84.50001644765143 66.8214452524553,84.59403877178556 61.61853606457589,82.41584413932287 56.53092680318514,79.5951269252837 56.127377060067374,79.62646843548282 54.91672783071408,79.09366212700843 51.60185494093457,78.78024602093501 48.14285714284051,78.1220706779859 55.132915193156805,79.14067450260336 56.60298925731331,79.57945616841607 61.877960899379104,82.46285577242088 65.68285847728839,84.02990419679554 66.61967038095463,84.70373143011238 67.00880763324676,84.57836838735966 67.64295722951647,83.13668802555185 68.11856942682061,82.88595999748213 72.08200440375367,83.0740060465323 74.31594048172701,83.8888703166158 78.99999999994179,84.0142337703146 74.28711550001753,83.98289291388937 71.92346700467169,83.08967654305161 68.10415693593677,82.88595999748213 67.70060719287721,83.0740060465323 67.02322012401419,84.62537953714491 66.50437045434956,84.6410499180638 60.753786615037825,82.00840954572777 56.66063922061585,79.67348069202853 56.14178955089301,79.70482219052792 55.01761526655173,79.17201608054165 48.20050710608484,78.16908327079727 55.291452592238784,79.15634529215458 56.08413958759047,79.6107976809435 56.545339293952566,79.5637854104134 61.86354840855347,82.47852631445858 66.83585774333915,84.73507217915903 67.75825715612154,83.0113240488572 69.30039367446443,83.0113240488572 67.945619536913,82.99565354651713 67.02322012401419,84.65672029781854 66.59084539930336,84.59403877178556 60.71054914256092,82.00840954572777 56.617401748138946,79.65780994099623 56.19943951419555,79.68915144186758 55.046440248203,79.15634529215458 51.81804230326088,78.78024602093501" stroke="yellow" stroke-linecap="round" stroke-linejoin="round" stroke-width="0.5"><title>2025-01-17 12.3km</title><desc>1737088953000</desc></polyline><polyline fill="none" points="87.69181380409282,78.48345645800873 87.89406099519692,78.13789059131523 88.77528089884436,78.719069224142 92.87800963083282,79.5358581081091 95.1894060994382,80.72962078468117 96.08507223112974,81.43645076242683 103.16372391657205,84.70354520328692 103.43820224714,84.51506036160572 104.04494382016128,83.08571149522322 104.42054574633949,82.83439640719735 108.45104333863128,83.08571149522322 110.66131621185923,83.90248346253065 115.41412520059384,83.98101906185912 110.76243980735308,83.90248346253065 108.27768860349897,83.08571149522322 104.53611556981923,82.89722520729993 104.10272873193026,83.05429712563637 103.4237560192123,84.62500987305248 103.2359550561523,84.68783813959453 97.96308186196256,82.42600875026255 92.92134831455769,79.58298044718686 91.26003210275667,79.15887901643873 84.57142857142026,78.21642833804071 91.13001605134923,79.09604910227063 92.50240770465462,79.58298044718686 92.8924558587023,79.5358581081091 98.54093097912846,82.64590989459248 101.97913322626846,83.99672617820033 103.00481540930923,84.65642400867364 103.39486356335692,84.56218158782576 104.0160513643641,83.07000431099732 104.44943820225308,82.85010360897286 108.30658105935436,83.08571149522322 110.63242375594564,83.88677633913176 115.42857142852154,83.94960482565511 110.7046548956423,83.88677633913176 108.43659711070359,83.14854022041254 104.55056179774692,82.86581080962787 104.10272873193026,83.08571149522322 103.27929373993538,84.71925226581516 98.19422150874743,82.53595935109479 92.96468699834077,79.66151765553514 92.25682182982564,79.63010277569992 91.49117174959974,79.19029396648693 86.36276083468692,78.45204140261922" stroke="#4DD2FF" stroke-linecap="round" stroke-linejoin="round" stroke-width="0.5"><title>2025-01-15 9.1km</title><desc>1736916504000</desc></polyline><polyline fill="none" points="123.69010989012895,78.01874204051273 123.8915084915352,78.36285857020994 124.5964035964571,78.78518263112346 128.1208791208919,79.36392163108394 130.03416583419312,79.98958362010308 132.30709290708182,81.47552337110392 139.48551448545186,84.76019497618836 139.80199800204718,84.68198910655337 140.40619380620774,83.27427847236686 140.89530469529564,83.00837651499023 144.86573426570976,83.25863719006884 147.03796203789534,84.11890598546597 151.8571428571595,84.22839448839659 146.98041958047543,84.16582963657856 144.82257742254296,83.30556103341223 140.8809190808679,83.00837651499023 140.40619380620774,83.27427847236686 139.7300699300249,84.77583614661125 139.2841158841038,84.77583614661125 134.565634365601,82.67990892629314 129.34365634369897,79.77060213603545 129.0415584415896,79.86445137146802 127.21458541462198,79.28571375132015 121.0,78.40978350779915 126.20759240759071,79.03544834039349 129.3148851149017,79.72367750259582 133.96143856144045,82.28887541255972 139.57182817178546,84.83840081664675 139.9026973026921,84.65070675055904 140.57882117887493,83.07094171171775 142.04615384613862,83.10222430310387 140.62197802198352,83.13350688981882 139.68691308691632,84.82275965089502 134.2059940060135,82.58606094942661 129.42997002997436,79.80188521915989 127.74685314687667,79.3169969067385 123.21538461541058,78.69133291322214" stroke="#4DD2FF" stroke-linecap="round" stroke-linejoin="round" stroke-width="0.5"><title>2025-01-14 7.8km</title><desc>1736829619000</desc></polyline><polyline fill="none" points="161.64810631232103,78.83034257937106 161.4041196013568,78.48702734388644 161.97820598003455,78.54944833763875 166.80053156148642,80.0943620053149 169.7714285714319,81.56123918372032 171.09182724257698,82.48193344192987 175.8710963455378,84.66661548764387 176.1868438537931,84.57298672446632 176.83269102993654,83.10613063718483 177.24890365445754,82.85645198228303 181.1383388704271,83.10613063718483 183.00411960139172,83.87076966643508 184.3388704319368,84.04242294242431 188.28571428573923,84.04242294242431 183.27681063127238,83.91758421021223 181.15269102994353,83.10613063718483 177.2919601329486,82.84084705644636 176.87574750831118,83.01250117646123 176.20119601330953,84.57298672446632 175.79933554818854,84.58859152124205 170.99136212619487,82.51314334587369 166.59960132895503,80.10996713573695 164.38936877076048,79.18926245113835 157.42857142857974,78.20613264176063 164.47548172756797,79.22047284569999 166.59960132895503,80.01633633568417 170.44598006643355,82.18543912260793 175.82803986710496,84.6198011112574 176.1724916943931,84.5261723271542 176.74657807307085,83.1217355432018 177.16279069776647,82.85645198228303 181.26750830566743,83.1217355432018 183.42033222591272,83.93318905579508 188.1421926910407,84.05802777875215 183.31986710964702,83.8863745155104 181.16704318940174,83.07492082160024 177.14843853825005,82.84084705644636 176.8039867109619,83.04371100132994 176.12943521601846,84.6198011112574 175.58405315614073,84.57298672446632 174.85209302324802,84.07363261388673 170.79043189366348,82.45072353335854 165.68106312293094,79.56378687896358 164.14538205979625,79.14244685057201 157.4859800664708,78.19052736948652 165.70976744184736,79.54818170785438 170.8191362126381,82.35709377967578 174.89514950168086,84.04242294242431 175.84239202662138,84.65101069670345 176.1724916943931,84.55738192649733 176.8039867109619,83.02810608949221 177.2058471760829,82.84084705644636 181.06657807307784,83.04371100132994 183.06152823916636,83.83955996479199 184.26710963458754,83.9643987435411 183.00411960139172,83.83955996479199 181.0235215947032,83.04371100132994 177.23455149499932,82.79403227206785 176.83269102993654,82.9812913469359 176.1868438537931,84.4949627231399 175.6701661129482,84.5105675257073 174.33541528240312,83.77714054750686 170.8191362126381,82.4195136201015 165.66671096341452,79.56378687896358 163.6861129568424,79.06442082636931" stroke="yellow" stroke-linecap="round" stroke-linejoin="round" stroke-width="0.5"><title>2025-01-10 13.0km</title><desc>1736482744000</desc></polyline><polyline fill="none" points="14.670226969290525,112.24161591223674 16.083311081456486,113.19798553914006 18.534579439205118,113.66832966278889 20.94259012013208,114.59333670571505 23.552469959948212,116.14545803207147 30.300667556759436,119.186955516343 30.617890520661604,118.93611202614557 30.747663551417645,117.55646748564322 30.93511348462198,117.32129990040266 35.477169559453614,117.61917879733664 37.85634178906912,118.49713519887882 42.49933244328713,118.60687949151907 37.65447263017995,118.45010191306937 35.477169559453614,117.63485662234598 31.021628838498145,117.30562205205206 30.73324432579102,117.63485662234598 30.617890520661604,118.99882292671828 30.300667556759436,119.186955516343 25.138584779691882,116.99206483953458 20.063017356500495,114.15435081941541 18.476902536698617,113.66832966278889 11.714285714260768,112.72764036417357 18.8518024032237,113.69968590031203 19.558344459277578,114.09163847519085 20.048598130815662,114.09163847519085 25.22510013350984,116.92935334093636 30.084379172243644,119.12424467178062 30.57463284378173,118.99882292671828 30.718825100164395,117.57214531535283 30.978371161560062,117.33697774756001 35.477169559453614,117.63485662234598 37.97169559414033,118.49713519887882 42.571428571420256,118.55984623024415 37.58237650204683,118.43442414877063 35.46275033376878,117.57214531535283 31.036048064066563,117.33697774756001 30.79092122829752,117.4937561552506 30.776502002670895,118.60687949151907 30.40160213620402,119.17127780693409 25.037650200305507,116.94503121735761 20.091855807695538,114.1386727351346 18.375967957254034,113.66832966278889 11.714285714260768,112.68060578887525 16.761014686198905,113.32341074159194 19.990921228309162,114.06028229606454 24.734846461971756,116.70986294880277 30.113217623496894,119.12424467178062 30.516955941333435,119.01450064891833 30.834178905235603,118.23061310699268 30.516955941333435,119.09288924255816 29.882510013354477,118.99882292671828 25.124165554123465,116.9607090925565 20.063017356500495,114.04460420475516 19.731375166855287,114.12299464961688 18.621094793023076,113.58993904851377 16.78985313756857,113.38612331474724" stroke="yellow" stroke-linecap="round" stroke-linejoin="round" stroke-width="0.5"><title>2025-01-08 12.0km</title><desc>1736310892000</desc></polyline><polyline fill="none" points="51.431977559637744,113.81638505739102 51.86475656181574,113.12622455586097 51.92246042878833,112.4517473342712 52.19655379682081,112.21646407415392 52.51392506517004,112.2792063025554 52.369665397680365,112.38900515728164 53.76898417150369,112.9223130656028 54.490282508544624,113.51836148201255 57.44760569027858,114.55359945753298 62.35243438190082,117.20441288615984 66.76678020431427,119.16505223438435 67.055299539119,118.88272129345569 67.09857743937755,117.58085705722624 67.50250450812746,117.31420917225478 71.91685033059912,117.62791253130126 74.22500500903698,118.50627945001179 79.0,118.60038997400261 74.19615307555068,118.47490926604951 71.9745541975135,117.6592828414723 67.44480064115487,117.36126470589079 67.14185533957789,117.6749679948116 67.09857743937755,118.88272129345569 66.85333600477315,119.21210735441127 61.44359847728629,116.90639410671429 56.4954918854055,114.13009362829325 55.94730514922412,114.13009362829325 54.93748747749487,113.64384514412086 48.14285714284051,112.7811434566247 55.13945101184072,113.78501417455846" stroke="#4DD2FF" stroke-linecap="round" stroke-linejoin="round" stroke-width="0.5"><title>2025-01-06 5.2km</title><desc>1736137119000</desc></polyline><polyline fill="none" points="88.56555407209089,113.34692872670712 88.63765020022402,112.75115777223255 89.11348464625189,112.04563735512784 89.45954606140731,113.2685379080358 88.96929238986922,113.59777915026643 89.87770360481227,113.55074471863918 92.8769025367219,114.2719381818024 96.94312416552566,116.18465670049773 97.70734312414424,116.8588074446161 103.18664886511397,119.28886778563901 103.51829105470097,119.08505735115614 103.57596795726568,117.76812363183126 103.84993324428797,117.51727817954088 108.59385847800877,117.84651277438388 110.87209612812148,118.70879141511978 115.42857142857974,118.78718020729139 110.68464619491715,118.67743589010206 108.43524699599948,117.79947929238551 103.90761014685268,117.51727817954088 103.63364485983038,117.75244579986611 103.5327102803858,119.08505735115614 103.24432576767867,119.36725636174378 98.0678237650427,117.2350766882737 93.82857142860303,114.83634873320989 91.69452603475656,113.974054224891 84.57142857142026,112.86090518007404 89.41628838446923,113.45667582380702 92.84806408546865,114.22490390086023 97.20267022697954,116.63931674178457 102.23497997323284,118.83421346855175 103.01361815753626,119.3829340734519 103.50387182907434,119.0380241459352 103.63364485983038,117.67405662227247 103.83551401860313,117.47024462393892 107.03658210946014,117.84651277438388 108.43524699599948,117.76812363183126 110.75674232305028,118.66175812581787 115.41415220295312,118.74014693548088 110.36742323095677,118.58336928696372 108.34873164223973,117.79947929238551 103.95086782379076,117.47024462393892 103.63364485983038,117.70541229682567 103.59038718283409,118.99099093023688 103.27316421893192,119.30454550321156 98.13991989317583,117.21939881658182 93.85740987979807,114.74228041307651 92.08384512685006,114.06812288844958 84.7588785046828,112.93929615060915" stroke="#4DD2FF" stroke-linecap="round" stroke-linejoin="round" stroke-width="0.5"><title>2025-01-03 9.5km</title><desc>1735878536000</desc></polyline><polyline fill="none" points="124.07848778861808,112.72064457376837 125.88511207763804,113.22352058913384 127.95189026428852,113.41209878577502 128.94914687192068,113.91497315255401 129.3249247240019,113.86782873159973 133.6174640348181,116.24075150367571 139.38420876546297,118.89650758508651 139.81779859488597,118.81793539994396 140.4103713616496,117.38791651665815 140.8439611910726,117.13648362303502 144.71736366680125,117.3722019695706 147.01538976252778,118.23650032018486 151.85714285710128,118.37793062221317 147.37671462027356,118.25221480288019 144.89079959847732,117.45077469325042 140.87286717968527,117.21505643444834 140.4103713616496,117.46648923447356 139.6443626631517,118.95936531212647 134.03660086990567,116.602187728844 129.31047172966646,113.96211756298726 128.93469387758523,113.99354716404923 127.77845433261245,113.44352846882248 126.14526597526856,113.36495425240719 121.0,112.46920611645328 127.89407828706317,113.427813627859 129.93195048510097,114.38641678252316 128.02415523590753,113.47495814716967 123.78942790231667,112.83064880456368" stroke="#4DD2FF" stroke-linecap="round" stroke-linejoin="round" stroke-width="0.5"><title>2025-01-02 5.6km</title><desc>1735817809000</desc></polyline><polyline fill="none" points="160.9901201602188,112.84522561453923 164.42189586116,113.4096389413753 165.43124165554764,113.9426945822197 166.3973297730554,114.11515347103705 171.6459279039409,116.99989938344515 176.0726301735849,118.9125895453908 176.44753003999358,118.5206462561764 176.86568758339854,117.47023464155791 177.37036048067966,117.21938930136093 181.07610146864317,117.34481200884329 183.78691588784568,118.3325132181053 188.28571428573923,118.363868736109 186.52656875830144,118.47361301240744 183.5273698263918,118.2854799322813 181.27797062753234,117.40752333456476 177.3847797063063,117.18803361282335 176.93778371164808,117.36048984204535 176.27449933247408,118.84987866814481 176.02937249670504,118.9596226910071 168.96395193593344,115.8554125308874 165.71962616819656,113.9426945822197 165.25821094796993,113.97405075436109 164.26328437920893,113.47235143980652 157.42857142857974,112.45327102464216 163.74419225635938,113.33124829207372 165.37356475304114,113.91133840543625 165.71962616819656,113.81726984704437 170.34819759684615,116.41981778401532 176.02937249670504,118.97530040392303 176.98104138852796,117.31345633900492 177.37036048067966,117.15667791962915 178.46622162882704,117.29777850229584 176.9522029372165,117.28210066445172 176.27449933247408,118.8185232225369 176.0149532710202,118.89691182781826 170.78077436587773,116.6863419606816 165.93591455271235,113.9897288386419 165.28704939922318,113.9426945822197 164.13351134845288,113.42531706774025 162.89345794392284,113.47235143980652 157.86114819761133,112.50030561399763 161.03337783715688,113.09607616892026" stroke="#4DD2FF" stroke-linecap="round" stroke-linejoin="round" stroke-width="0.5"><title>2024-12-31 8.0km</title><desc>1735619151000</desc></polyline><polyline fill="none" points="16.011214953265153,147.35043434910767 17.063818424590863,147.38179064968426 20.07743658212712,148.0873061780876 21.836582109506708,149.02798986976268 22.341255006671418,149.54536410771834 30.416021361830644,153.19830359282787 31.18024032044923,151.70891532146197 31.612817089480814,151.47374778875383 35.60694259015145,151.69323749410978 37.596795727615245,152.49280519923195 42.55700934579363,152.6182273087179 37.784245660935994,152.57119402644457 35.57810413883999,151.70891532146197 31.627236315165646,151.47374778875383 31.20907877170248,151.66188183591294 30.34392523369752,153.26101444668893 25.470226969278883,151.1758685366949 21.057943925261497,148.7457852037769 18.491321762325242,147.7267096479918 11.714285714260768,146.73898555329652 17.16475300397724,147.4445032368676 20.034178905247245,148.1029842740827 25.470226969278883,151.05044556762732 30.214152202941477,153.24533673496626 30.57463284378173,153.104237276988 31.18024032044923,151.69323749410978 31.670493991987314,151.42671425067238 35.52042723633349,151.66188183591294 37.85634178906912,152.5241607336211 42.571428571420256,152.53983849904034 38.02937249670504,152.5555162633391 35.50600801064866,151.69323749410978 31.59839786379598,151.44239209782972 31.18024032044923,151.66188183591294 30.545794392528478,153.08855955358013 30.31508678238606,153.19830359282787 25.095327102812007,151.00341193492932 20.149532710318454,148.2284089998866 17.986648865160532,147.69535339878348 11.944993324403185,146.81737652383163 18.303871829120908,147.67967527241854 19.63044058746891,148.21273091326293 20.19279038719833,148.15001855502487 24.77810413885163,150.68985411505855 20.120694259006996,148.18137473647948 15.76608811749611,147.3661124999635" stroke="yellow" stroke-linecap="round" stroke-linejoin="round" stroke-width="0.5"><title>2024-12-30 10.8km</title><desc>1735533491000</desc></polyline><polyline fill="none" points="52.474946695088875,147.2927817528107 55.29584221751429,147.76224843872478 56.087420042662416,148.2160652376333 56.49040511727799,148.16911871770571 57.31076759065036,148.51339295350772 60.83688699360937,150.5164318603638 66.56503198290011,153.14539143860748 66.98240938165691,153.1610399090132 67.58688699355116,151.67443001485663 68.06183368875645,151.4084039766458 71.84701492532622,151.65878143369628 74.10660980804823,152.53510018327506 79.0,152.61334275102126 74.29371002136031,152.53510018327506 71.99093816633103,151.69007859488192 68.00426439230796,151.43970117511344 67.6156716417754,151.67443001485663 67.1119402985205,152.94196121716232 66.72334754792973,153.2236337790091 61.34061833686428,150.95459407499584 57.51226012792904,148.76377386153035 55.32462686568033,147.87179051445855 48.14285714284051,146.74506929298514 55.07995735609438,147.74659956610412 57.84328358207131,148.76377386153035 60.75053304905305,150.5164318603638 66.68017057562247,153.25493070701486 66.96801705751568,153.17668837824021 67.63006396585843,151.69007859488192 68.033049040474,151.50229555800615 71.96215351810679,151.7213757513673 74.12100213218946,152.55074869914097 78.95682302769274,152.59769423976832 77.48880597017705,152.7228822968318 74.19296375260456,152.55074869914097 71.94776119402377,151.65878143369628 68.04744136461522,151.43970117511344 67.64445628999965,151.6118356832303 66.98240938165691,153.1297429670085 66.55063965881709,153.1923368463613 61.88752665242646,151.1580262211064 60.36194029846229,150.21910697990097 55.29584221751429,147.8091950496164 48.87686567159835,146.9015587129834" stroke="#4DD2FF" stroke-linecap="round" stroke-linejoin="round" stroke-width="0.5"><title>2024-12-27 9.1km</title><desc>1735273142000</desc></polyline><polyline fill="none" points="109.38691588776419,151.85785474946897 108.26221628830535,151.54429828443972 107.06542056065518,151.68539875152055 104.2536715620081,151.41887556767324 103.2587449933053,153.2061422255938 98.02456608804641,151.07396271095786 92.83364485972561,148.2205710317503 92.41548731637886,148.267605274159 91.29078771692002,147.76590614652378 84.57142857142026,146.69979152864835 89.27209612814477,147.4523435843439 89.7335113484296,147.37395287078107 93.03551401867298,148.20489294860454 96.71241655532504,150.05489869556914 97.26034712948604,150.55659236600331 102.94152202934492,153.15910908694786 103.35967957269168,153.12775365535344 103.93644859804772,151.68539875152055 104.39786381839076,151.403197722786 108.37757009337656,151.6540431003814 110.81441922555678,152.56335508762277 115.42857142852154,152.68877712237008 110.33858477964532,152.46928851252596 108.55060080101248,151.70107657535118 104.38344459270593,151.41887556767324 104.08064085443038,151.51294261225848 103.43177570094122,153.17478680096974 103.14339118817588,153.30020847135165 101.90333778370405,152.56335508762277 97.8515353804105,150.96421759256918 93.10761014686432,148.18921486432373 89.84886515350081,147.4523435843439 86.43150867818622,146.99767703918042" stroke="#4DD2FF" stroke-linecap="round" stroke-linejoin="round" stroke-width="0.5"><title>2024-12-25 6.6km</title><desc>1735101299000</desc></polyline><polyline fill="none" points="124.20406254177215,146.97132739138033 124.08860082848696,147.25379846697615 124.27622611250263,147.19102714958717 124.55044768139487,146.73593453894136 125.43084324465599,147.34795540799678 126.41226780699799,147.3950338627037 129.42870506481268,148.16398046698305 134.76880930108018,151.08281345335126 139.6759321128484,153.20129593476304 139.87799011095194,153.18560355027148 140.48416410532081,151.69482169197 140.93157824408263,151.4594341183256 144.79954563674983,151.67912919522496 147.29640518513042,152.62067692965502 151.8571428571595,152.69913905092108 147.07991447282257,152.57359964289935 144.65521849528886,151.66343669735943 140.80168381670956,151.47512663139787 140.48416410532081,151.63205169803405 139.83469196845545,153.10714161020587 139.5749031137093,153.15421877775225 134.2492315916461,150.95727308202186 130.2513697714894,148.63476271668333 127.98543364962097,147.7245827511506 121.0,146.75162740398082 123.36696512089111,147.11256297653017 124.49271682481049,147.08117729911464 128.46171321661677,147.865817831218 130.2658024856355,148.57199181086617 135.2162234397838,151.30250892307959 139.44500868639443,153.18560355027148 139.89242282509804,153.13852638975368 140.6140585326939,151.53789667207457 142.08619537617778,151.53789667207457 140.65735667513218,151.4908191433351 139.82025925430935,153.26406546105864 134.624482159561,151.11419853447296 131.82453561405418,149.46647545299493 128.12976079114014,147.8344322660414 121.04329814243829,146.76732026781247 126.97514365892857,147.6147331789689" stroke="#4DD2FF" stroke-linecap="round" stroke-linejoin="round" stroke-width="0.5"><title>2024-12-18 8.3km</title><desc>1734495982000</desc></polyline><polyline fill="none" points="160.68123667384498,145.68876001652097 160.1487206823076,145.8139528677566 160.33582089556148,145.65746179201233 160.1487206823076,145.78265466194716 160.03358208952704,145.61051444654004 160.09115138597554,145.76700555728166 161.256929637515,146.58075745341193 163.8043710021302,147.70748564277892 164.40884861414088,148.66207007342018 165.08528784645023,149.1941316435259 165.8336886994075,149.30367356416536 171.1156716417754,152.15174344896514 175.8939232410048,154.2955947554874 176.2393390191719,154.31124322471442 176.91577825165587,152.80898486133083 177.33315565035446,152.5742560215731 181.33422174840234,152.82463344135613 183.85287846490974,153.70095206034603 188.28571428573923,153.7791946163925 183.46428571431898,153.70095206034603 181.33422174840234,152.84028202015907 177.26119402993936,152.58990461903159 176.84381663118256,152.82463344135613 176.12420042644953,154.3738370900246 169.05756929639028,151.4162565730221 168.56823027716018,150.93114679849532 166.79797441372648,149.92962630047987 164.66791044780985,149.08458966574108 157.42857142857974,147.9109220327664 164.30810234544333,148.8185589104105 165.51705756934825,149.35062008409295 165.77611940301722,149.27237587836862 171.1732409382239,152.21433795777557 174.88646055437857,153.68530354561517 175.90831556508783,154.31124322471442 176.29690831562039,154.2173523917445 177.016524520237,152.71509335689188 178.51332622603513,152.66814758897817 177.10287846479332,152.76203911437187 176.35447761195246,154.38948555347451 175.70682302769274,154.3425401597342 170.8278251599404,152.24563520522497 169.4893390192301,151.36931051476859 164.62473347550258,149.0063453609182 157.5437100213021,148.02046462266298 164.40884861414088,148.84985666381544" stroke="#4DD2FF" stroke-linecap="round" stroke-linejoin="round" stroke-width="0.5"><title>2024-12-17 8.6km</title><desc>1734409492000</desc></polyline><polyline fill="none" points="15.519183292170055,181.44933765468886 18.60345632879762,181.93513299914775 19.727630613197107,182.46793950611027 20.102355374663603,182.3582441591425 25.449389470915776,185.30432789964834 30.30639887903817,187.4041709111334 30.565823713841382,187.37283012477565 31.228798291820567,185.82145536289318 31.589110562519636,185.61773863520648 35.76873290183721,185.91547840140993 37.858544071554206,186.71467253222363 42.571428571420256,186.79302473457938 42.110228864999954,186.94972905168834 37.844131580670364,186.79302473457938 35.37959564954508,185.88413739325188 31.675585507473443,185.72743228230684 31.1134983652737,186.07218337227823 30.493761259771418,187.4041709111334 30.248748915735632,187.4825228566624 25.881764195568394,185.63340915969457 20.015880429709796,182.49928102330887 19.252018416009378,182.40525645769958 18.44491892977385,181.93513299914775 11.714285714260768,181.0105537984782 18.54580636555329,181.9194621991046 19.511443250754382,182.4365979842696 20.073530393012334,182.38958569268289 25.406151998380665,185.28865735064028 30.20551144325873,187.38850051854388 30.609061186318286,187.3571597297996 31.099085874389857,186.025171893285 31.589110562519636,185.64907968306215 35.81197037437232,185.91547840140993 37.8153065990773,186.71467253222363 42.48495362646645,186.8400360419182 38.074731433880515,186.79302473457938 35.552545539452694,185.88413739325188 31.574698071694,185.69609124610724 31.214385800994933,185.86846688741934 30.46493627812015,187.4825228566624 25.305264562601224,185.36701008411183 20.03029292053543,182.49928102330887 18.747581237053964,182.04482856680988 11.887235604168382,181.0418955328787 18.516981383843813,181.93513299914775 19.525855741638225,182.4365979842696 20.145592847140506,182.45226874576474 26.01147661305731,185.57072705462633 30.20551144325873,187.43551169283455 30.609061186318286,187.37283012477565 31.099085874389857,185.77444382786052 32.77093481022166,185.80578485237493 31.24321078270441,185.83712587220361 30.52258624136448,187.5608747729566 25.26202709012432,185.35133953976037 20.08794288377976,182.4836102653062 19.626743177417666,182.49928102330887 18.488156402192544,181.95080379802675 11.887235604168382,181.1045789875934 18.387268966413103,181.9194621991046" stroke="yellow" stroke-linecap="round" stroke-linejoin="round" stroke-width="0.5"><title>2024-12-15 13.0km</title><desc>1734235831000</desc></polyline><polyline fill="none" points="51.19402985071065,181.1325014763861 51.19402985071065,181.30463975500606 52.489339019171894,181.69586259081552 54.23081023449777,182.05578695615986 55.13752665242646,181.99319145864865 56.015458422130905,182.49395491625182 56.51918976538582,182.50960375506838 62.4776119402959,185.6862938931008 66.75213219621219,187.50152383072418 67.02558635390596,187.48587536379637 67.60127931769239,186.09315713960677 68.0330490405322,185.81148266825767 72.00533049047226,186.01491426881694 74.29371002136031,186.89123275721795 79.0,186.98512380702596 74.20735607680399,186.89123275721795 72.12046908319462,186.03056284527702 67.96108742011711,185.74888829000702 67.55810234538512,185.9366713688505 66.86727078893455,187.5328207610146 61.8443496801774,185.48286197432026 57.166844349645544,182.86952672594634 55.03678038378712,182.0401380835392 48.14285714284051,181.03860781042022 51.7985074626049,181.41418222249195 55.03678038378712,181.94624482330983 56.49040511721978,182.41571070472128 60.908848614024464,184.82561904408794 65.32729211088736,186.76604462556134 66.42110874201171,187.45457842646283 67.01119402988115,187.39198453781137 67.5437100213021,186.09315713960677 67.98987206828315,185.7801854815043 71.93336886994075,185.95231995113136 74.07782515999861,186.8442872165906 75.71855010662694,186.85993573132146 73.96268656715984,186.79734166547132 71.9045842217165,185.98361711233156 68.14818763331277,185.74888829000702 67.55810234538512,185.9210227853473 66.83848614076851,187.47022689568985 61.57089552236721,185.3263757488894 56.51918976538582,182.54090142917994 55.00799573556287,182.0401380835392 52.73400852875784,181.75845817690424" stroke="#4DD2FF" stroke-linecap="round" stroke-linejoin="round" stroke-width="0.5"><title>2024-12-13 8.5km</title><desc>1734064159000</desc></polyline><polyline fill="none" points="87.90930562111316,181.48057440923003 91.08684796543093,181.94018023663375 93.27323031239212,182.62166291147878 97.82090559415519,185.18908966127492 102.90788852149853,187.43952466176415 103.31601322622737,187.4553727111488 103.97192793036811,185.94980274749105 104.38005263509694,185.74377655524586 108.38842027127976,185.94980274749105 110.39989203051664,186.77390552121506 115.42857142857974,186.86899409738544 110.88089614681667,186.83729791002406 108.24266144813737,185.93395458592568 104.27802145900205,185.72792837832822 103.85532087180763,185.8705619279499 103.3743167555076,187.23349991222494 103.02449558005901,187.55046098270395 101.98960793577135,186.96408263102057 97.80632971180603,185.33172357216245 93.57932384102605,182.90693408057268 91.33463796478463,182.13036166784877 93.56474795867689,182.84354052050912 96.24671030434547,184.46007040102268 102.01875970041147,186.94823454500875 102.86416087456746,187.5029168522451 103.28686146158725,187.40782855942962 103.94277616572799,185.68038384057581 103.25770969700534,187.36028439707297 102.89331263920758,187.4553727111488 97.96666441723937,185.36341998379794 92.7193467845791,182.4156334958534 92.20919090358075,182.43148191951332 90.92651325999759,181.90848331490997 84.57142857142026,181.0209675887163" stroke="#4DD2FF" stroke-linecap="round" stroke-linejoin="round" stroke-width="0.5"><title>2024-12-11 6.6km</title><desc>1733890893000</desc></polyline><polyline fill="none" points="124.74157303367974,181.63118773866154 128.04975922958693,182.00816758870496 128.77207062597154,182.4322691142297 129.36436597112333,182.4165616655373 134.7961476725759,185.41666313205496 139.65008025680436,187.52142087918764 140.44462279300205,185.8878793784388 140.86356340290513,185.69939300627448 145.00963081861846,185.95070813177153 147.13322632422205,186.78318734526692 151.81380417343462,186.8931371843355 147.30658105947077,186.78318734526692 145.05296950245975,186.02924404702208 140.56019261636538,185.84075780119747 139.7656500802259,187.56854208084405 134.69502407708205,185.44807758125535 133.2359550562105,184.4585201832233 129.32102728734026,182.5108063401567 129.00321027293103,182.5893435368198 127.76083467097487,182.08670497260755 121.14446227927692,181.1442544346355 126.63402889244026,181.77255526142835 129.32102728734026,182.40085421568074 133.10593900480308,184.27003253318253 134.68057784915436,185.32241975639772 139.53451043344103,187.49000673892442 139.83788121992256,187.3800572110922 140.47351524879923,185.9821225013584 140.86356340290513,185.69939300627448 143.3916532905423,185.95070813177153 144.67736757628154,185.84075780119747 147.20545746391872,186.79889446866582 151.8571428571595,186.87743006799428 146.95987158908974,186.76748022071843 144.98073836282128,185.9821225013584 140.83467094704974,185.71510021042195 140.47351524879923,185.85646499480936 139.9678972712136,187.27010762592545 139.69341894064564,187.50571380965994 135.1861958266818,185.620856968133 132.4847512038541,184.0030080738652 129.29213483148487,182.4322691142297 126.98073836282128,181.8510927331081 121.0,181.00288649059075 128.38202247192385,182.07099749818735 139.30337078653974,187.4114713677409 139.83788121992256,187.31722888369404 140.47351524879923,185.6836858009774 139.86677367577795,187.3800572110922 139.5634028892382,187.4428855197475 134.85393258428667,185.44807758125535 129.33547351532616,182.38514676464547 124.29373996792128,181.53694267082028" stroke="yellow" stroke-linecap="round" stroke-linejoin="round" stroke-width="0.5"><title>2024-12-09 12.1km</title><desc>1733738831000</desc></polyline><polyline fill="none" points="170.2687491584802,184.87864846082812 176.07082267402438,187.50324041330896 176.739733405062,185.98540806105302 177.26322875986807,185.70081328651577 181.01494546915637,185.85892154170142 183.29796687758062,186.76013634711853 188.28571428568102,186.93405455327593 183.7778376194765,186.83919009486272 181.26215160894208,185.9695972502377 177.30685337283649,185.7640566027403 176.81244109326508,185.92216481083597 176.09990574931726,187.53486180525215 171.5047798572341,185.62175911480153 165.65908172883792,182.45956809693598 165.13558637403185,182.4753791692492 164.46667564293602,182.03266869964136 160.32233741757227,181.4792793138622 159.7988420627662,181.22630082828982 159.5516359229805,181.43184587078576 157.733943718893,181.1472449896828 162.03823885822203,181.58995730645256 165.65908172883792,182.39632379596878 169.46896458871197,184.27783368936798 170.54503837350057,185.06837908791204 175.85269960953156,187.50324041330896 176.2016965126386,187.3609440914297 176.81244109326508,185.89054317864066 177.1468964588712,185.6375699515047 178.44109330815263,185.85892154170142 181.2330685337074,185.87473236075311 183.55971455498366,186.77594709904224 188.18392352224328,186.87081158570072 183.44338225392858,186.7285148397932 181.2330685337074,185.90635399530584 177.24868722225074,185.7324349470291 176.652484179358,186.23838087356125 176.08536421164172,187.53486180525215 170.6759122122312,185.19486607839644 165.64454019116238,182.45956809693598 165.31008482561447,182.52281237905845 163.4342264709412,181.90617982440745 157.42857142857974,181.03656676618266 163.710515686078,181.90617982440745 165.17921098688385,182.44375702347315 165.7317894169828,182.42794594883162 167.60764777165605,183.45566335102194" stroke="#4DD2FF" stroke-linecap="round" stroke-linejoin="round" stroke-width="0.5"><title>2024-12-06 9.2km</title><desc>1733479157000</desc></polyline><polyline fill="none" points="14.84472049685428,215.78729878737067 18.768583450175356,216.25786273063568 19.60528952110326,216.77548185337218 20.066920456825756,216.68136938023963 25.447806050884537,219.69294765315135 30.15067120816093,221.77906776424788 30.62672811059747,221.63790239371883 31.131636946462095,220.28898407972883 31.679823682643473,220.06939190834237 35.57483470242005,220.25761378352763 37.76758164691273,221.08892505295807 42.571428571420256,221.24577586779196 37.82528551394353,221.08892505295807 35.545982768933754,220.30466922603955 31.607693848898634,220.05370674445294 31.1027850129758,220.3674097996991 30.381486675993074,221.8104378337448 25.05830494890688,219.55178088393586 23.84652374277357,218.72046354525082 20.08134642348159,216.80685266839282 19.662993388075847,216.83822347872774 18.609897816029843,216.33628995224717 11.714285714260768,215.33241930911026 18.609897816029843,216.32060451024154 20.77379282709444,217.23035821365193 20.139050290512387,216.80685266839282 14.859146463568322,215.80298426913214" stroke="#4DD2FF" stroke-linecap="round" stroke-linejoin="round" stroke-width="0.5"><title>2024-12-03 5.6km</title><desc>1733220329000</desc></polyline><polyline fill="none" points="52.170829170849174,215.94367964444973 55.09110889106523,216.2565115945763 56.083716283668764,216.83524947341357 57.349650349642616,216.99166484248417 58.716283716319595,217.8832302208466 60.58641358639579,218.5870949504024 61.78041958040558,219.50993624283 66.91608391609043,221.7622776202188 67.56343656341778,220.3702083708049 68.08131868136115,220.02609994262457 72.00859140866669,220.24507809853822 74.42537462542532,221.13662966125412 77.80599400604842,221.10534721436852 79.0,221.19919454107003 78.6403596404125,221.29304182578926 74.28151848149719,221.16791210346855 72.00859140866669,220.3076432440139 68.06693306693342,220.08866515332193 67.63536463538185,220.292001959373 66.97362637368497,221.77791879529832 66.65714285714785,221.80920114199398 61.33446553448448,219.52557758573676 58.457342657318804,217.8832302208466 54.961638361623045,216.3190779286524 48.14285714284051,215.36493930775032 55.206193806254305,216.28779476393538 57.2489510489977,217.2262876775494 54.93286713282578,216.3660026669968 48.17162837157957,215.33365600086108 52.34345654345816,215.9123964237806" stroke="#4DD2FF" stroke-linecap="round" stroke-linejoin="round" stroke-width="0.5"><title>2024-12-02 6.1km</title><desc>1733112856000</desc></polyline><polyline fill="none" points="84.57142857142026,214.32164278136042 85.48571428569267,214.70272214750003 87.58857142861234,217.51937547100533 87.40571428573458,217.33712251199177 87.80190476193093,217.32055405374558 88.32000000000698,216.6909517263848 90.20952380954986,216.97261614582385 90.91047619044548,217.43653323542094 92.31238095235312,217.71819671046978 93.82095238089096,218.66259517060826 95.64952380949399,219.35846515389858 96.60952380951494,220.20344720625144 102.09523809526581,222.70523798794602 102.5371428571525,222.70523798794602 103.20761904754909,221.1644032857148 103.64952380949399,220.94901693926658 107.87047619046643,221.1644032857148 110.47619047615444,222.092219008744 115.42857142857974,222.14192331326194 110.50666666665347,222.12535521297832 107.88571428571595,221.1975396281632 103.69523809524253,220.98215331383108 103.23809523804812,221.18097145753563 102.41523809521459,222.8212143615092 97.17333333328133,220.61765292205382 93.6228571428801,218.61289008850872 90.07238095236244,216.9891846299579 85.76000000000931,216.4755610472639" stroke="#4DD2FF" stroke-linecap="round" stroke-linejoin="round" stroke-width="0.5"><title>2024-11-29 4.6km</title><desc>1732853630000</desc></polyline><polyline fill="none" points="123.6132604238228,217.57616389276518 123.39179767604219,217.704588674329 124.33670539990999,217.72064176660206 123.52467532473383,217.62432319483196 124.26288448396372,217.6885355807899 124.17429938481655,217.91327878103766 125.35543403966585,216.38823103473987 128.13110047846567,216.19559265681892 129.0169514695881,216.67718827869976 130.27190704032546,216.9340388368728 135.18838004104327,219.74332182874787 140.11961722484557,221.8783524074097 140.85782638419187,220.32122693052224 141.30075187969487,220.11253915588895 145.4937799043837,220.32122693052224 147.6198222829844,221.18808167718817 151.8571428571595,221.23624017198745 147.70840738213155,221.15597600801266 145.18373205745593,220.27306823123945 141.2416951470077,220.04832749227353 140.88735475053545,220.25701532905805 140.11961722484557,221.86229962481593 134.8930963773164,219.74332182874787 129.4894053315511,216.72534778167028 127.86534518119879,216.2276990650862 121.0,215.26450473544537 128.01298701303313,216.19559265681892 128.91360218735645,216.66113510863215 129.85850991116604,216.7895604355581 133.66766917298082,218.81224923796253 127.96869446348865,216.25980546858045 124.26288448396372,215.76215567672625" stroke="#4DD2FF" stroke-linecap="round" stroke-linejoin="round" stroke-width="0.5"><title>2024-11-28 6.3km</title><desc>1732767063000</desc></polyline><polyline fill="none" points="157.63566634710878,214.88421949127223 162.19175455422373,215.65357091411715 163.2272291467525,216.1977448916441 163.71045062324265,216.1602156895824 168.45637583895586,218.48701564403018 170.09587727708276,219.57535017964256 176.10162991372636,222.20234520094527 176.94726749765687,220.3822158514231 177.56855225318577,220.04445844286238 182.14189837005688,220.28839439446165 184.24736337491777,221.1703147100634 186.07670182164293,221.4705421980907 188.28571428573923,221.41424957131676 184.9549376797513,221.35795693199907 182.45254074787954,220.3822158514231 177.74113135191146,220.13827999072964 177.0335570469615,220.4197444244055 176.10162991372636,222.25863765158283 169.5608820709749,219.50029277638532 163.71045062324265,216.1602156895824 163.2790028763702,216.25403868430294 161.79482262709644,215.597276987246 157.42857142857974,215.01557233963103" stroke="#4DD2FF" stroke-linecap="round" stroke-linejoin="round" stroke-width="0.5"><title>2024-11-25 4.0km</title><desc>1732507947000</desc></polyline><polyline fill="none" points="11.714285714318976,247.5794902277994 18.004586104187183,248.387305095006 19.713368493597955,249.38360761111835 20.6544370559277,249.27589936341974 22.387984407367185,249.8413673057512 24.195826645358466,251.13386213750346 27.613391424063593,252.61484011646826 30.263242375687696,254.4458590464492 36.25636321946513,256.7884726814809 38.26232515485026,258.0001634316577 38.782389360363595,257.78475203958806 39.89681265770923,255.17287869594293 42.571428571478464,255.11902543870383 39.99587250640616,255.25365856674034 38.55950470082462,258.1347954864905 30.65948177035898,254.8497590322513 20.604907131404616,249.46438877581386 19.93625315313693,249.5990240102401 22.313689520815387,250.05678343205363 23.477642742567696,251.13386213750346 25.53313460224308,251.69932717288611 30.213712451281026,254.49971240395098 37.71749598730821,257.8386048996181 38.782389360363595,257.94631059566746 39.89681265770923,255.14595206838567 38.7080944738118,258.1347954864905 30.783306581084616,254.7959057269327" stroke="#4DD2FF" stroke-linecap="round" stroke-linejoin="round" stroke-width="0.5"><title>2024-11-20 4.0km</title><desc>1732095798000</desc></polyline><polyline fill="none" points="49.9454517866252,249.49850209601573 54.501100068271626,250.1577667481033 55.59904407855356,250.71012221956335 56.35285638412461,250.78139380033826 60.564372961001936,252.86607814216404 61.67870419542305,253.7213280000433 67.6764281920623,256.37614661914995 67.95501100068213,256.3405116650538 68.62688718608115,254.77256842702627 69.11850390711334,254.3983986351668 73.67415218870156,254.64784522814443 76.06668689777143,255.6099939353153 78.99999999994179,255.71689910827263 76.01752522564493,255.62781146747875 73.4119566041627,254.630027622974 69.21682725130813,254.41621625758125 68.52856384182815,254.87947397431708 67.88946210447466,256.4117815680074 61.79341476364061,253.89950466882146 57.10666868969565,251.2802942712442 54.468325620226096,250.2290384935477 48.14285714284051,249.30250414628244" stroke="#4DD2FF" stroke-linecap="round" stroke-linejoin="round" stroke-width="0.5"><title>2024-11-19 4.1km</title><desc>1731989484000</desc></polyline></svg>