<?xml version="1.0" encoding="utf-8" ?>
<svg baseProfile="full" height="300mm" version="1.1" viewBox="0,0,200,300" width="200mm" xmlns="http://www.w3.org/2000/svg" xmlns:ev="http://www.w3.org/2001/xml-events" xmlns:xlink="http://www.w3.org/1999/xlink"><defs /><rect fill="#222222" height="300" width="200" x="0" y="0" /><text fill="#FFFFFF" style="font-size:12px; font-family:Arial; font-weight:bold;" x="10" y="20">Over 4km Runs</text><text fill="#FFFFFF" style="font-size:4px; font-family:Arial" x="10" y="280">ATHLETE</text><text fill="#FFFFFF" style="font-size:9px; font-family:Arial" x="10" y="290">Fake David</text><text fill="#FFFFFF" style="font-size:4px; font-family:Arial" x="65" y="280">SPECIAL TRACKS</text><rect fill="yellow" height="2.6" width="2.6" x="65" y="283" /><text fill="#FFFFFF" style="font-size:3px; font-family:Arial" x="70" y="285.5">Over 10.0 km</text><rect fill="red" height="2.6" width="2.6" x="65" y="287" /><text fill="#FFFFFF" style="font-size:3px; font-family:Arial" x="70" y="289.5">Over 15.0 km</text><text fill="#FFFFFF" style="font-size:4px; font-family:Arial" x="120" y="280">STATISTICS</text><text fill="#FFFFFF" style="font-size:3px; font-family:Arial" x="120" y="285">Number: 24</text><text fill="#FFFFFF" style="font-size:3px; font-family:Arial" x="120" y="290">Weekly: 2.4</text><text fill="#FFFFFF" style="font-size:3px; font-family:Arial" x="141" y="285">Total: 188.5 km</text><text fill="#FFFFFF" style="font-size:3px; font-family:Arial" x="141" y="290">Avg: 7.9 km</text><text fill="#FFFFFF" style="font-size:3px; font-family:Arial" x="167" y="285">Min: 4.0 km</text><text fill="#FFFFFF" style="font-size:3px; font-family:Arial" x="167" y="290">Max: 13.0 km</text><polyline fill="none" points="15.138461538474075,46.0218657139194 15.373426573409233,46.42333499855886 16.195804195827805,46.916046402970096 20.30769230768783,47.59124190291914 22.53986013989197,48.321180890110554 25.191608391527552,50.054777266283054 33.566433566389605,53.88689413887914 33.93566433567321,53.7956539576262 34.64055944053689,52.15332488442073 35.21118881116854,51.843105934152845 39.843356643337756,52.13507672173728 42.37762237759307,53.1387236497103 48.0,53.266460236452986 42.31048951053526,53.19346790933923 39.79300699295709,52.18982120564033 35.194405594374985,51.843105934152845 34.64055944053689,52.15332488442073 33.85174825170543,53.90514217103191 33.33146853139624,53.90514217103191 27.8265734265442,51.45989374733472 21.734265734325163,48.06570249203651 21.381818181835115,48.175193266695715 19.2503496503341,47.499999376537744 12.0,46.47808075908688 18.075524475541897,47.208023063780274 21.70069930073805,48.01095708635694 27.12167832168052,51.003687981312396 33.66713286709273,53.9781342860806 34.053146853111684,53.759157875640085 34.84195804200135,51.91609866367071 36.553846153838094,51.95259502028057 34.892307692265604,51.98909137144801 33.80139860138297,53.95988625937025 27.406993006996345,51.35040444097831 21.834965034970082,48.10219942234107 19.87132867134642,47.53649639117066 14.584615384635981,46.806555065413704" stroke="#4DD2FF" stroke-linecap="round" stroke-linejoin="round" stroke-width="0.5"><title>2025-01-14 7.8km</title><desc>1736829619000</desc></polyline><polyline fill="none" points="63.58945736440364,46.96873300927109 63.30480620160233,46.568198567882064 63.97457364341244,46.64102306058339 69.60062015504809,48.443422339551034 73.06666666665114,50.15477904769068 74.60713178297738,51.22892234893516 80.18294573645107,53.77771806891542 80.55131782940589,53.66848451188707 81.30480620154412,51.95715241004655 81.79038759687683,51.66586064599687 86.32806201546919,51.95715241004655 88.50480620161397,52.84923127751972 90.06201550387777,53.04949343284534 94.66666666668607,53.04949343284534 88.82294573646504,52.90384824524517 86.34480620158138,51.95715241004655 81.84062015509699,51.64765489920683 81.35503875970608,51.84791803921689 80.56806201551808,53.66848451188707 80.09922480623936,53.686690108123 74.48992248059949,51.265333903516876 69.36620155040873,48.46162832502159 66.78759689920116,47.38747285967111 58.66666666668607,46.24048808205407 66.88806201546686,47.42388498666696 69.36620155040873,48.35239239165094 73.85364341083914,50.883012309714104 80.13271317828912,53.72310129647667 80.53457364346832,53.61386771503021 81.20434108527843,51.9753581337427 81.68992248072755,51.66586064599687 86.47875968989683,51.9753581337427 88.99038759688847,52.9220538984373 94.49922480620444,53.06769907522539 88.87317829456879,52.86743693477183 86.36155038757715,51.920740958536044 81.67317829461535,51.64765489920683 81.27131782943616,51.88432950155402 80.48434108530637,53.72310129647667 79.84806201548781,53.66848451188707 78.99410852714209,53.08590471620846 74.25550387596013,51.192510788925574 68.29457364341943,47.82441802545509 66.50294573639985,47.332854659005534 58.7336434108438,46.22228193107003 68.3280620155274,47.80621199250163 74.2889922480681,51.083276076300535 79.04434108530404,53.04949343284534 80.14945736440131,53.759512479489786 80.53457364346832,53.65027891425416 81.27131782943616,51.866123771091225 81.74015503877308,51.64765489920683 86.24434108525747,51.88432950155402 88.5717829457135,52.81281995894096 89.97829457366606,52.95846520080522 88.50480620161397,52.81281995894096 86.19410852715373,51.88432950155402 81.77364341082284,51.59303765074583 81.30480620154412,51.81150657143735 80.55131782940589,53.57745651033474 79.94852713181172,53.59566211333731 78.3913178294315,52.739997305427096 74.2889922480681,51.15609922345902 68.27782945730723,47.82441802545509 65.9671317829634,47.24182429743814" stroke="yellow" stroke-linecap="round" stroke-linejoin="round" stroke-width="0.5"><title>2025-01-10 13.0km</title><desc>1736482744000</desc></polyline><polyline fill="none" points="108.78193146415288,45.94855189759983 110.43052959506167,47.0643164623325 113.29034267913084,47.61305127324886 116.09968847356504,48.69222615666513 119.14454828662565,50.50303437074763 127.01744548289571,54.05144810240017 127.38753894082038,53.75879736384377 127.53894081001636,52.14921206659346 127.75763239874505,51.87484988379583 133.05669781938195,52.222375263561844 135.83239875390427,53.246657732030144 141.24922118382528,53.37469274009345 135.59688473527785,53.19178556524275 133.05669781938195,52.24066605939879 127.85856697824784,51.85655906073225 127.52211838011863,52.24066605939879 127.38753894082038,53.83196008116647 127.01744548289571,54.05144810240017 120.9950155763654,51.490742312787916 115.07352024927968,48.18007595598465 113.22305295953993,47.61305127324886 105.33333333331393,46.51558042486431 113.66043613711372,47.649633550361614 114.48473520250991,48.10691155437962 115.05669781932374,48.10691155437962 121.09595015580999,51.417578897744534 126.76510903425515,53.97828545041557 127.33707165106898,53.83196008116647 127.5052959502209,52.16750286790193 127.80809968849644,51.89314070549153 133.05669781938195,52.24066605939879 135.9669781931443,53.246657732030144 141.33333333331393,53.31982060195878 135.512772585731,53.17349484024453 133.03987538942602,52.16750286790193 127.87538940814557,51.89314070549153 127.58940809970954,52.07604884779721 127.57258566975361,53.37469274009345 127.13520249223802,54.033157441415824 120.87725856702309,51.43586975357903 115.10716510901693,48.16178485765704 113.10529595019761,47.61305127324886 105.33333333331393,46.46070675368537 111.2211838006042,47.210645865183324 114.98940809973283,48.070329345413484 120.52398753899615,51.16150677361293 126.79875389410881,53.97828545041557 127.26978193153627,53.85025075706653 127.63987538946094,52.93571529148903 127.26978193153627,53.941704116310575 126.52959501562873,53.83196008116647 120.97819314646767,51.45416060798743 115.07352024927968,48.052038238878595 114.68660436139908,48.14349375788879 113.39127725857543,47.52159555659455 111.25482866051607,47.28381053385965" stroke="yellow" stroke-linecap="round" stroke-linejoin="round" stroke-width="0.5"><title>2025-01-08 12.0km</title><desc>1736310892000</desc></polyline><polyline fill="none" points="155.8373071528622,47.78578256696346 156.34221598872682,46.980595315180835 156.4095371668809,46.193705223326106 156.7293127629673,45.91920808653231 157.09957924264017,45.99240735299827 156.93127629725495,46.12050601684314 158.5638148667058,46.74269857654872 159.40532959328266,47.43808839569101 162.85553997196257,48.645866033795755 168.57784011214972,51.738481700536795 173.72791023837635,54.02589427346538 174.06451612897217,53.696508175722556 174.11500701255864,52.17766656677122 174.58625525946263,51.86657736764755 179.73632538563106,52.2325646198733 182.42917251051404,53.25732602503558 188.0,53.367121636343654 182.3955119214952,53.22072747706261 179.80364656378515,52.269163315068 174.51893408136675,51.92147549022047 174.1654978961451,52.287462660620804 174.11500701255864,53.696508175722556 173.82889200554928,54.080791913482244 167.517531556834,51.39079312450485 161.74474053294398,48.15177589969244 161.10518934077118,48.15177589969244 159.9270687237149,47.58448600147676 152.0,46.578000699402764 160.1626928471378,47.74918320366123" stroke="#4DD2FF" stroke-linecap="round" stroke-linejoin="round" stroke-width="0.5"><title>2025-01-06 5.2km</title><desc>1736137119000</desc></polyline><polyline fill="none" points="16.65981308411574,87.23808351450134 16.743925233604386,86.54301740095252 17.299065420636907,85.71991024765885 17.702803738298826,87.14662755937024 17.13084112148499,87.53074234197265 18.190654205624014,87.47586883841723 21.689719626156148,88.31726121209795 26.433644859760534,90.54876615059038 27.325233644864056,91.33527535204485 33.71775700931903,94.17034574990976 34.10467289714143,93.93256690968701 34.17196261684876,92.39614423713647 34.49158878502203,92.10349120946194 40.026168224343564,92.4875982367812 42.68411214946536,93.4935899842967 48.0,93.58504357517813 42.465420560736675,93.4570085384621 39.84112149529392,92.43272584112128 34.55887850461295,92.10349120946194 34.23925233643968,92.377853433165 34.121495327097364,93.93256690968701 33.785046728968155,94.2617990886938 27.74579439254012,91.77425613632658 22.79999999998836,88.9757401887473 20.310280373843852,87.96972992904193 12.0,86.67105604342942 17.65233644854743,87.36612179443182 21.65607476636069,88.26238788434421 26.736448598152492,91.07920286542503 32.60747663542861,93.6399157133128 33.51588785048807,94.2800897523557 34.087850467301905,93.87769483691955 34.23925233643968,92.2863993926585 34.474766355066095,92.04861872791662 38.20934579434106,92.4875982367812 39.84112149529392,92.39614423713647 42.54953271022532,93.43871781344933 47.98317757010227,93.53017142473254 42.0953271027538,93.34726416811463 39.74018691590754,92.43272584112128 34.60934579442255,92.04861872791662 34.23925233643968,92.322981012956 34.18878504668828,93.82282275194302 33.81869158876361,94.18863642041106 27.829906542028766,91.75596528600727 22.833644859783817,88.86599381525593 20.764485981315374,88.07947670319118 12.218691588786896,86.76251217571553" stroke="#4DD2FF" stroke-linecap="round" stroke-linejoin="round" stroke-width="0.5"><title>2025-01-03 9.5km</title><desc>1735878536000</desc></polyline><polyline fill="none" points="62.25823575339746,86.50741866938188 64.36596409062622,87.09410735398706 66.77720530837541,87.31411525006115 67.94067135057412,87.90080201129604 68.37907884467859,87.84580018685665 73.38704137393506,90.61421008761681 80.11491022643168,93.71259218259365 80.62076502735727,93.62092463325826 81.31209992198274,91.95256926942966 81.81795472296653,91.659230893536 86.33692427794449,91.93423563116812 89.01795472291997,92.94258370688476 94.66666666668607,93.10758572591294 89.43950039037736,92.96091727001476 86.53926619829144,92.02590380878246 81.85167837631889,91.75089917352307 81.31209992198274,92.0442374402046 80.41842310701031,93.78592619748088 73.87603434821358,91.03588568365376 68.36221701797331,87.95580382348271 67.92380952386884,87.99247169139562 66.57486338802846,87.35078321360925 64.66947697114665,87.25911329446535 58.66666666668607,86.21407380253368 66.7097580016125,87.33244923250459 69.08727556600934,88.45081957959337 66.86151444190182,87.38745117170038 61.92099921940826,86.63575693866005" stroke="#4DD2FF" stroke-linecap="round" stroke-linejoin="round" stroke-width="0.5"><title>2025-01-02 5.6km</title><desc>1735817809000</desc></polyline><polyline fill="none" points="109.48847352020675,86.65276321697456 113.4922118379618,87.31124543159967 114.66978193144314,87.93314367925632 115.79688473517308,88.13434571621474 121.92024922120618,91.49988261402177 127.08473520242842,93.7313544696226 127.52211838000221,93.2740872988652 128.0099688472692,92.04860708182969 128.59875389403896,91.75595418491866 132.9221183800255,91.90228067699354 136.08473520248663,93.05459875444649 141.33333333331393,93.09118019211746 139.280996884685,93.21921518114686 135.78193146409467,92.99972658767365 133.15763239871012,91.97544389033283 128.6155763239949,91.7193725482939 128.09408099687425,91.92057148237654 127.32024922122946,93.65819177949743 127.03426791279344,93.78622647283191 118.7912772585405,90.16464795271168 115.00623052951414,87.93314367925632 114.46791277261218,87.96972588008794 113.30716510902857,87.38441001311003 105.33333333331393,86.1954828620801 112.70155763236107,87.21978967408359 114.60249221185222,87.89656147301139 115.00623052951414,87.78681482154934 120.40623052959563,90.82312074801303 127.03426791279344,93.80451713790535 128.14454828656744,91.86569906216755 128.59875389403896,91.68279090622673 129.87725856690668,91.8474082526809 128.11090342671378,91.82911744187004 127.32024922122946,93.62161042628577 127.0174454828375,93.7130637991213 120.91090342681855,91.13406562079035 115.2585669781547,87.9880169784301 114.50155763240764,87.93314367925632 113.1557632398326,87.32953657904 111.70903426787117,87.38441001311003 105.83800623047864,86.2503565496736 109.53894080995815,86.94542219708092" stroke="#4DD2FF" stroke-linecap="round" stroke-linejoin="round" stroke-width="0.5"><title>2024-12-31 8.0km</title><desc>1735619151000</desc></polyline><polyline fill="none" points="157.0130841122009,86.90884007397108 158.2411214953754,86.94542242464377 161.75700934586348,87.76852387444524 163.8093457944924,88.86598818139464 164.39813084114576,89.46959145901201 173.81869158882182,93.73135419163737 174.71028037386714,91.99373454171291 175.21495327109005,91.71937242023705 179.8747663552058,91.9754437431402 182.1962616822566,92.90827273244213 187.98317757016048,93.05459852683998 182.4149532711017,92.99972636419989 179.84112149541033,91.99373454171291 175.231775701046,91.71937242023705 174.7439252337208,91.93886214192025 173.73457943933317,93.8045168544777 168.04859813093208,91.37184662616346 162.90093457949115,88.53674940441852 159.90654205606552,87.34782792266924 152.0,86.1954831455223 158.35887850471772,87.018587109691 161.7065420561703,87.78681498645165 168.04859813093208,91.22551982890582 173.5831775701372,93.78622619080124 174.00373831775505,93.62161015649326 174.71028037386714,91.9754437431402 175.28224299068097,91.66449995912262 179.7738317757612,91.93886214192025 182.49906542059034,92.94485418923432 188.0,92.96314491557132 182.70093457953772,92.98143564056954 179.75700934580527,91.9754437431402 175.19813084113412,91.68279078081832 174.71028037386714,91.93886214192025 173.9700934580178,93.60331947919622 173.7009345794795,93.73135419163737 167.61121495330008,91.17064725742966 161.84112149541033,87.93314383321558 159.31775700941216,87.31124563192134 152.2691588785383,86.28693927780841 159.68785046733683,87.29295448449557 161.23551401874283,87.91485273215221 161.89158878510352,87.84168831420538 167.2411214953172,90.80482980090892 161.80747663555667,87.87827052589273 156.72710280376486,86.92713124996226" stroke="yellow" stroke-linecap="round" stroke-linejoin="round" stroke-width="0.5"><title>2024-12-30 10.8km</title><desc>1735533491000</desc></polyline><polyline fill="none" points="17.05410447763279,126.84157871161005 20.345149253786076,127.38928984517406 21.268656716449186,127.91874277724128 21.738805970235262,127.86397183731606 22.695895522483625,128.2656251124281 26.80970149260247,130.60250383708626 33.49253731343197,133.66962334503478 33.97947761195246,133.687879893856 34.684701492544264,131.9535016840091 35.23880597023526,131.64313797274372 39.654850746213924,131.93524500596686 42.29104477609508,132.95761688047787 48.0,133.04889987618662 42.5093283582828,132.95761688047787 39.82276119408198,131.971758360698 35.17164179106476,131.67965137095598 34.718283582129516,131.9535016840091 34.13059701496968,133.43228808669664 33.67723880597623,133.76090607550577 27.3973880597041,131.11369308749272 22.93097014928935,128.55773617177329 20.37873134331312,127.5170889335277 12.0,126.20258084181114 20.093283582129516,127.37103282711178 23.317164179112297,128.55773617177329 26.708955223904923,130.60250383708626 33.62686567159835,133.7974191581743 33.962686567159835,133.70613644128025 34.735074626863934,131.971758360698 35.2052238805918,131.75267815099505 39.789179104496725,132.00827170992852 42.30783582094591,132.97587348232628 47.94962686568033,133.03064327972243 46.236940298520494,133.1766960129753 42.391791044792626,132.97587348232628 39.7723880597041,131.93524500596686 35.22201492538443,131.67965137095598 34.75186567171477,131.8804749637493 33.97947761195246,133.65136679483112 33.47574626869755,133.72439298740937 28.035447761183605,131.35103059129324 26.255597014911473,130.25562480986991 20.345149253786076,127.44406089121185 12.856343283609021,126.38515183179697" stroke="#4DD2FF" stroke-linecap="round" stroke-linejoin="round" stroke-width="0.5"><title>2024-12-27 9.1km</title><desc>1735273142000</desc></polyline><polyline fill="none" points="87.61806853575399,132.16749720771622 86.30591900309082,131.80168133185362 84.90965732082259,131.9662985434552 81.62928348907735,131.6553548289521 80.46853582555195,133.74049926319276 74.36199376941659,131.25295649612963 68.30591900303261,127.92399953704444 67.81806853582384,127.97887281984731 66.50591900310246,127.39355717095896 58.66666666668607,126.14975678343035 64.150778816198,127.02773418172728 64.68909657321637,126.93627834925428 68.54143302177545,127.9057084400556 72.83115264796652,130.06404847817612 73.47040498442948,130.64935776035418 80.09844236756908,133.68562726810342 80.58629283483606,133.6490459312481 81.25919003109448,131.9662985434552 81.79750778811285,131.6370640099194 86.44049844233086,131.92971695044253 89.28348909656052,132.9905809355696 94.66666666668607,133.13690664277237 88.72834890964441,132.88083659796393 86.64236760122003,131.9845893379097 81.78068535815692,131.6553548289521 81.42741433024639,131.76509971430642 80.67040498444112,133.70391793445742 80.3339563862537,133.85024321656965 78.88722741435049,132.9905809355696 74.16012461052742,131.12492052467132 68.62554517138051,127.88741734171344 64.82367601245642,127.02773418172728 60.836760124599095,126.49728987905837" stroke="#4DD2FF" stroke-linecap="round" stroke-linejoin="round" stroke-width="0.5"><title>2024-12-25 6.6km</title><desc>1735101299000</desc></polyline><polyline fill="none" points="109.07140629872447,126.46654862328433 108.93670096655842,126.7960982114746 109.15559713123366,126.72286500784685 109.47552229493158,126.19192362877948 110.50265045207925,126.90594797600352 111.64764577482129,126.96087283981615 115.16682257561479,127.85797721148992 121.39694418455474,131.26328236225527 127.12192079826491,133.7348452572187 127.35765512939543,133.716537475324 128.06485812284518,131.97729197396256 128.58684128470486,131.70267313804652 133.09946990956087,131.95898406110064 136.0124727159273,133.05745641794056 141.33333333331393,133.1489955594152 135.7599002182833,133.00253291671106 132.93108824448427,131.94067614692904 128.43529778614175,131.7209810699569 128.06485812284518,131.90406031436578 127.30714062985498,133.62499854524503 127.00405363267055,133.67992190737277 120.79077019024407,131.11681859569217 116.12659806670854,128.40722316947358 113.4830059244996,127.3453465430066 105.33333333331393,126.21023197130125 108.09479264105903,126.63132347262581 109.40816962893587,126.59470684896223 114.03866541938623,127.51012080309738 116.14343623322202,128.33399044601538 121.91892734641442,131.5195937436074 126.85251013410743,133.716537475324 127.3744932959089,133.661614121389 128.2164016214665,131.79421278409427 129.93389460555045,131.79421278409427 128.26691612100694,131.73928900055762 127.2903024633415,133.80807637123507 121.22856251947815,131.29989829022088 117.96195821638685,129.3775546951656 113.6513875896344,127.47350431038649 105.38384783279616,126.22854031245515 112.3043342687306,127.21718870878976" stroke="#4DD2FF" stroke-linecap="round" stroke-linejoin="round" stroke-width="0.5"><title>2024-12-18 8.3km</title><desc>1734495982000</desc></polyline><polyline fill="none" points="155.7947761194664,124.97022001925507 155.1735074626631,125.11627834569663 155.39179104479263,124.93370542400226 155.1735074626631,125.07976377224259 155.03917910443852,124.87893352094397 155.10634328360902,125.06150648347102 156.46641791041475,126.01088369562058 159.43843283585738,127.32539991656085 160.1436567164492,128.439081752309 160.9328358208877,129.0598202507681 161.80597014928935,129.18761915816867 167.9682835820713,132.51036735711386 173.54291044780985,135.01152721470862 173.9458955223672,135.02978376214742 174.73507462692214,133.2771490048617 175.22201492538443,133.00329869182315 179.88992537313607,133.29540568155062 182.82835820905166,134.31777740370308 188.0,134.40906038576213 182.375,134.31777740370308 179.88992537313607,133.313662356828 175.13805970159592,133.02155538884108 174.65111940301722,133.29540568155062 173.81156716420082,135.10280993834022 165.5671641791123,131.6522993351682 164.99626865668688,131.08633793155605 162.93097014934756,129.91789735054772 160.44589552242542,128.9320212766761 152.0,127.56274237153411 160.026119402959,128.62165206212376 161.43656716420082,129.2423900980939 161.73880597017705,129.15110519141308 168.0354477612418,132.58339428405452 172.36753731343197,134.29952080319345 173.55970149254426,135.02978376214742 174.0130597015377,134.920244457011 174.8526119402959,133.16760891635204 176.598880597041,133.1128388537909 174.95335820893524,133.22237896674778 174.0802238805918,135.12106647904147 173.32462686562212,135.06629685300868 167.63246268656803,132.61990773941216 166.07089552242542,131.59752893386758 160.39552238804754,128.84073625438032 152.1343283582246,127.6905420597468 160.1436567164492,128.65816610776528" stroke="#4DD2FF" stroke-linecap="round" stroke-linejoin="round" stroke-width="0.5"><title>2024-12-17 8.6km</title><desc>1734409492000</desc></polyline><polyline fill="none" points="16.439047174237203,166.6908939304558 20.037365716998465,167.25765516565298 21.348902382072993,167.8792627571238 21.78608127043117,167.75128485231835 28.024287716078106,171.18838254957518 33.69079869228881,173.63819939630048 33.99346099951072,173.60163514554733 34.766931340505835,171.79169792335597 35.187295656243805,171.55402840772877 40.06352171883918,171.90139146830188 42.50163475016598,172.83378462090332 48.0,172.9251955236541 47.461933675804175,173.1080172269576 42.48482017748756,172.9251955236541 39.609528257802594,171.86482695877203 35.288183092023246,171.682004329341 34.63241475948598,172.08421393430035 33.90938813640969,173.63819939630048 33.62354040169157,173.7296099994128 28.528724894858897,171.57231068630063 21.685193834651727,167.9158278605173 20.794021485373378,167.80613253396587 19.85240541805979,167.25765516565298 12.0,166.17897943154094 19.970107426459435,167.2393725656002 21.096683792595286,167.84269764830242 21.752452125248965,167.78784997477487 27.973843998159282,171.17010024239426 33.57309668377275,173.61991727161512 34.04390471737133,173.58335301808256 34.61560018680757,172.02936720881553 35.187295656243805,171.5905929635628 40.11396543675801,171.90139146830188 42.45119103224715,172.83378462090332 47.89911256422056,172.98004204889003 42.753853339585476,172.9251955236541 39.811303129419684,171.86482695877203 35.1704810836236,171.64543978709844 34.75011676788563,171.84654470196983 33.87575899116928,173.7296099994128 27.856141989701428,171.26151176478015 21.70200840733014,167.9158278605173 20.20551144325873,167.38563332792546 12.201774871558882,166.2155447883415 19.936478281160817,167.25765516565298 21.1134983652737,167.84269764830242 21.836524988349993,167.86098020337522 28.680056048557162,171.4991815637186 33.57309668377275,173.67476364162576 34.04390471737133,173.60163514554733 34.61560018680757,171.7368511324894 36.56609061191557,171.77341566108225 34.78374591318425,171.80998018421815 33.94301728159189,173.8210205684445 27.80569827184081,171.2432294630271 21.769266697752755,167.89754530951905 21.231200373673346,167.9158278605173 19.902849135920405,167.27593776433787 12.201774871558882,166.28867548549897 19.78514712752076,167.2393725656002" stroke="yellow" stroke-linecap="round" stroke-linejoin="round" stroke-width="0.5"><title>2024-12-15 13.0km</title><desc>1734235831000</desc></polyline><polyline fill="none" points="62.226368159172125,166.32125172246015 62.226368159172125,166.52207971418102 63.73756218905328,166.97850635595387 65.76927860692376,167.3984181155247 66.82711442786967,167.32539003509737 67.85136815917213,167.9096140689653 68.43905472633196,167.9278710475919 75.39054726366885,171.63400954195822 80.37748756224755,173.7517778025067 80.6965174129582,173.73352125777456 81.36815920396475,172.1086833295558 81.87189054727787,171.7800631129794 86.50621890556067,172.0173999802937 89.17599502491066,173.0397715500876 94.66666666668607,173.14931110820908 89.07524875627132,173.0397715500876 86.64054726372706,172.0356566528353 81.78793532348936,171.7070363383391 81.31778606964508,171.9261165969947 80.51181592041394,173.78829088785278 74.65174129355,171.3966723033809 69.19465174130164,168.34778118027316 66.7095771144377,167.3801610974624 58.66666666668607,166.21170911216177 62.93159203970572,166.6498792595812 66.7095771144377,167.27061896053783 68.40547263680492,167.81832915551786 73.56032338307705,170.6298888847814 78.71517412934918,172.89371872982883 79.9912935323664,173.6970081642212 80.67972636816557,173.6239819607872 81.30099502491066,172.1086833295558 81.82151741301641,171.7435497284314 86.42226368165575,171.94437327633204 88.92412935331231,172.98500175269146 90.83830845775083,173.00325835321564 88.78980099508772,172.9302319430426 86.3886815920705,171.98088663104863 82.00621890550246,171.7070363383391 81.31778606964508,171.9078599162458 80.4782338308869,173.71526471164543 74.33271144278115,171.2141050403734 68.43905472633196,167.96438500071235 66.67599502485245,167.3801610974624 64.02300995023688,167.0515345397289" stroke="#4DD2FF" stroke-linecap="round" stroke-linejoin="round" stroke-width="0.5"><title>2024-12-13 8.5km</title><desc>1734064159000</desc></polyline><polyline fill="none" points="109.22752322454471,166.7273368107708 112.93465595965972,167.26354360941332 115.48543536441866,168.058606730061 120.79105652647559,171.05393793815165 126.72586994169978,173.67944543872727 127.2020154306083,173.6979348296736 127.96724925207673,171.9414365387347 128.44339474092703,171.70107264778926 133.11982364975847,171.9414365387347 135.4665407022112,172.90288977474847 141.33333333331393,173.0138264469424 136.027712171257,172.97684756170202 132.9497716894839,171.92294701690844 128.32435836881632,171.68258310804958 127.83120768377557,171.84898891593912 127.27003621467156,173.4390832309291 126.86191151000094,173.80887114649522 125.65454259165563,173.12476306952885 120.77405133040156,171.2203441675374 115.84254448115826,168.3914230940136 113.22374429216143,167.48542194582114 115.82553928502603,168.3174639406061 118.95449535502121,170.2034154678695 125.68855298374547,173.10627363584354 126.67485435359413,173.7534029942908 127.16800503846025,173.64246665267274 127.93323885998689,171.62711448066693 127.13399464648683,173.58699846325908 126.70886474568397,173.6979348296736 120.96110848675016,171.25732331443578 114.83923791529378,167.81823907850776 114.24405605409993,167.83672890611342 112.74759880331112,167.22656386739982 105.33333333331393,166.19112885351933" stroke="#4DD2FF" stroke-linecap="round" stroke-linejoin="round" stroke-width="0.5"><title>2024-12-11 6.6km</title><desc>1733890893000</desc></polyline><polyline fill="none" points="156.36516853934154,166.90305236176937 160.22471910115564,167.3428621868079 161.06741573032923,167.83764729992254 161.75842696632026,167.8193219431123 168.09550561802462,171.31944032071624 173.75842696632026,173.7749910256971 174.6853932584636,171.8691926081665 175.17415730340872,171.64929184064385 180.01123595511308,171.94249282038072 182.48876404494513,172.91371856945625 187.94943820231128,173.04199338171748 182.69101123604923,172.91371856945625 180.06179775286,172.03411805485666 174.82022471912205,171.81421743471583 173.89325842697872,173.82996576097503 167.97752808994846,171.3560905114573 166.27528089890257,170.20160688040778 161.70786516857333,167.92927406349918 161.33707865176257,168.02090079295158 159.8876404495095,167.4344891346991 152.16853932588128,166.33496350706264 158.57303370785667,167.0679811383161 161.70786516857333,167.80099658494873 166.1235955056618,169.98170462202688 167.96067415736616,171.20948971578036 173.6235955056618,173.73834119540697 173.97752808989026,173.61006674627424 174.7191011236282,171.9791429182369 175.17415730340872,171.64929184064385 178.1235955056036,171.94249282038072 179.6235955056618,171.81421743471583 182.57303370791487,172.9320435467671 188.0,173.02366841264302 182.28651685395744,172.89539359083574 179.97752808994846,171.9791429182369 175.1404494382441,171.66761691214924 174.7191011236282,171.83254249392485 174.12921348313102,173.48179223024636 173.80898876406718,173.75666611125052 168.55056179780513,171.557666462817 165.39887640450615,169.67017608616152 161.67415730346693,167.83764729992254 158.97752808994846,167.15960818860913 152.0,166.17003423901042 160.61235955060693,167.41616374786827 173.35393258428667,173.64671659568558 173.97752808989026,173.53676703096426 174.7191011236282,171.6309667677997 174.01123595511308,173.61006674627424 173.6573033707682,173.6833664396836 168.16292134835385,171.3560905114573 161.72471910121385,167.78267122540274 155.8426966292318,166.7930997826188" stroke="yellow" stroke-linecap="round" stroke-linejoin="round" stroke-width="0.5"><title>2024-12-09 12.1km</title><desc>1733738831000</desc></polyline><polyline fill="none" points="26.98020735156024,210.69175653763523 33.74929311970482,213.7537804822059 34.52968897263054,211.98297607123095 35.14043355319882,211.65094883427082 39.51743638073094,211.83540846531105 42.18096135719679,212.88682573831466 48.0,213.0897303121601 42.7408105560462,212.97905511067074 39.80584354378516,211.9645301252749 35.1913289349759,211.7247327031946 34.61451460886747,211.90919227930135 33.78322337422287,213.79067210612993 28.422243166831322,211.55871896728058 21.602262017026078,207.86949611309683 20.991517436341383,207.88794236411923 20.21112158341566,207.37144681625068 15.376060320471879,206.725825866175 14.765315739903599,206.43068429967389 14.476908576849382,206.67048684923793 12.356267672032118,206.3384524879657 17.37794533459237,206.85495019085647 21.602262017026078,207.7957110952848 26.047125353477895,209.99080597094144 27.30254476913251,210.9131089358998 33.494816211168654,213.7537804822059 33.90197926480323,213.58776810666313 34.61451460886747,211.87230037507834 35.00471253535943,211.5771649434173 36.514608859492,211.83540846531105 39.77191328932531,211.85385442087136 42.48633364751004,212.90527161555656 47.88124410924502,213.0159468499769 42.35061262961244,212.84993397975632 39.77191328932531,211.89074632785923 35.123468425998,211.68784077154123 34.427898209251,212.27811101914267 33.766258246905636,213.79067210612993 27.45523091428913,211.0606770914601 21.58529688976705,207.86949611309683 21.19509896321688,207.94328110889182 19.00659754947992,207.22387646179413 12.0,206.20932789387007 19.32893496705219,207.22387646179413 21.042412818060257,207.85104986070655 21.6870876532048,207.8326036069775 23.875589066999964,209.03160724285408" stroke="#4DD2FF" stroke-linecap="round" stroke-linejoin="round" stroke-width="0.5"><title>2024-12-06 9.2km</title><desc>1733479157000</desc></polyline><polyline fill="none" points="62.31884057971183,206.7518485852779 66.89668069191976,207.30083985241072 67.87283777468838,207.90472882894392 68.41140719968826,207.7949309436226 74.6891070594429,211.30843892868143 80.17578307626536,213.74224572496314 80.73118279571645,213.5775527926744 81.32024310424458,212.00381475969334 81.9597942964756,211.74762389306852 86.50397381954826,211.96721608078224 89.06217858812306,212.9370792284608 94.66666666668607,213.12007184576942 89.12949976627715,212.9370792284608 86.47031323047122,212.02211409705342 81.87564282375388,211.7293245352048 81.28658251516754,212.095311432975 80.44506778870709,213.77884413936408 74.23468910710653,211.14374436459912 72.82094436656917,210.17387413613324 68.42823749413947,207.94132811314194 67.94015895278426,207.97792739186843 66.71154745208332,207.392338277612 58.66666666668607,206.22115586063592 66.71154745208332,207.37403859528422 69.23609163163928,208.43541791592725 68.49555867229355,207.94132811314194 62.33567087422125,206.77014831398265" stroke="#4DD2FF" stroke-linecap="round" stroke-linejoin="round" stroke-width="0.5"><title>2024-12-03 5.6km</title><desc>1733220329000</desc></polyline><polyline fill="none" points="110.03263403265737,206.93429291852226 113.4396270395373,207.29926352700568 114.59766899759416,207.97445771898492 116.07459207455395,208.1569423162291 117.66899766895222,209.19710192432103 119.85081585077569,210.01827744214097 121.2438228437677,211.09492561664956 127.23543123540003,213.7226572235959 127.99067599064438,212.09857643261785 128.59487179492135,211.6971165997238 133.1766899767099,211.95259111496853 135.99627039628103,212.99273460480617 139.94032634038012,212.95623841678025 141.33333333331393,213.06572696458898 140.91375291376607,213.17521546341595 135.82843822840368,213.02923078738968 133.1766899767099,212.02558378469257 128.57808857806958,211.77010934555437 128.07459207461216,212.00733561927336 127.30256410263246,213.74090526119107 126.93333333329065,213.777401332336 120.72354312351672,211.11317385002621 117.36689976684283,209.19710192432103 113.28857808856992,207.37225758342538 105.33333333331393,206.25909585904446 113.57389277394395,207.33576055793674 115.95710955711547,208.4306689571531 113.2550116549246,207.4270031115011 105.36689976684283,206.22259866767854 110.23403263400542,206.89779582775373" stroke="#4DD2FF" stroke-linecap="round" stroke-linejoin="round" stroke-width="0.5"><title>2024-12-02 6.1km</title><desc>1733112856000</desc></polyline><polyline fill="none" points="152.0,205.04191657823685 153.06666666665114,205.48650917207124 155.52000000007683,208.77260471617046 155.30666666670004,208.55997626397584 155.76888888893882,208.54064639602439 156.37333333335118,207.80611034743197 158.57777777779847,208.13471883677994 159.39555555552943,208.67595544130018 161.03111111110775,209.00456282886444 162.79111111105885,210.10636103236175 164.92444444441935,210.91820934620046 166.0444444444147,211.90402174061455 172.44444444449618,214.82277765258914 172.96000000007916,214.82277765258914 173.7422222222085,213.0251371666527 174.2577777777915,212.77385309578676 179.18222222221084,213.0251371666527 182.2222222222481,214.10758884351526 188.0,214.1655771987862 182.2577777777915,214.14624774846015 179.20000000001164,213.06379623284738 174.3111111111357,212.8125121994526 173.7777777777519,213.04446670044854 172.81777777778916,214.9580834217486 166.70222222222947,212.38726174239127 162.56000000005588,210.04837176990986 158.41777777776588,208.15404873494117 153.38666666671634,207.55482122178364" stroke="#4DD2FF" stroke-linecap="round" stroke-linejoin="round" stroke-width="0.5"><title>2024-11-29 4.6km</title><desc>1732853630000</desc></polyline><polyline fill="none" points="15.048803827783559,248.83885787488543 14.79043062205892,248.9886867867026 15.892822966561653,249.00741539435694 14.945454545551911,248.89504372730153 15.806698564614635,248.96995817759307 15.703349282266572,249.23215857787 17.081339712894987,247.45293620719167 20.31961722485721,247.22819143295055 21.35311004787218,247.79005299181154 22.817224880331196,248.08971197633946 28.55311004788382,251.36720880020584 34.306220095662866,253.85807780864707 35.167464114842005,252.04143141892564 35.68421052629128,251.79796234852984 40.57607655506581,252.04143141892564 43.05645933013875,253.05276195670012 48.0,253.10894686731626 43.159808612428606,253.01530534267658 40.21435406699311,251.9852462697745 35.615311004861724,251.72304874098336 35.20191387558589,251.9665178839059 34.306220095662866,253.83934956228768 28.208612440212164,251.36720880020584 21.904306220123544,247.84623907860077 20.009569377987646,247.26564890926238 12.0,246.14192219135293 20.181818181823473,247.22819143295055 21.232535885239486,247.7713242933969 22.33492822968401,247.92115384146746 26.77894736849703,250.28095744427992 20.130143540678546,247.30310638000083 15.806698564614635,246.72251495618548" stroke="#4DD2FF" stroke-linecap="round" stroke-linejoin="round" stroke-width="0.5"><title>2024-11-28 6.3km</title><desc>1732767063000</desc></polyline><polyline fill="none" points="58.908277404960245,245.69825607314124 64.22371364664286,246.59583273311728 65.43176733783912,247.23070237357751 65.99552572704852,247.18691830450553 71.53243847878184,249.90151825133944 73.44519015657715,251.17124187623267 80.45190156600438,254.23606940108584 81.43847874726634,252.11258515997906 82.16331096203066,251.71853484999156 87.49888143176213,252.003126793541 89.955257270718,253.0320338284073 92.08948545856401,253.3822992311034 94.66666666662786,253.31662449985743 90.78076062642504,253.25094975400134 87.8612975392025,252.11258515997906 82.36465324391611,251.82799332251307 81.53914988809265,252.15636849513976 80.45190156600438,254.30174392682966 72.82102908275556,251.08367490579258 65.99552572704852,247.18691830450553 65.49217002245132,247.296378464991 63.760626398259774,246.5301564851252 58.66666666662786,245.85150106289075" stroke="#4DD2FF" stroke-linecap="round" stroke-linejoin="round" stroke-width="0.5"><title>2024-11-25 4.0km</title><desc>1732507947000</desc></polyline><polyline fill="none" points="105.33333333337214,243.842738599109 112.67201712157112,244.78518927752157 114.66559657582548,245.9475422129908 115.76350989856292,245.82188259068062 117.78598180855624,246.4815951900673 119.89513108634856,247.98950582710677 123.88228999474086,249.71731346924207 126.97378277161624,251.85350222088164 133.9657570894342,254.58655146174715 136.30604601395316,256.0001906702819 136.91278758714907,255.7488773795194 138.21294810075779,252.70169181196252 141.33333333337214,252.6388630118454 138.3285179240629,252.7959349945595 136.6527554843342,256.1572614009201 127.43606206541881,252.32471887097927 115.70572498673573,246.04178690514527 114.92562867864035,246.19886134529952 117.69930444099009,246.73291400406742 119.05724986630958,247.98950582710677 121.45532370265573,248.6492150350532 126.91599785990547,251.91633113796706 135.6704119851347,255.81170571624534 136.91278758714907,255.93736236164114 138.21294810075779,252.67027741315542 136.8261102194665,256.1572614009201 127.58052434469573,252.26189001477906" stroke="#4DD2FF" stroke-linecap="round" stroke-linejoin="round" stroke-width="0.5"><title>2024-11-20 4.0km</title><desc>1732095798000</desc></polyline><polyline fill="none" points="154.10302708449308,246.08158577869472 159.41795007965993,246.85072787279205 160.6988847583998,247.49514258949785 161.57833244814537,247.57829276706616 166.49176845455077,250.01042449921079 167.7918215614045,251.0082160000602 174.7891662240727,254.10550438900827 175.11417950084433,254.0639302759082 175.89803505048621,252.2346631648834 176.47158789169043,251.79813174103037 181.7865108868573,252.08915276617336 184.57780138077214,253.21165959120844 188.0,253.33638229299686 184.52044609654695,253.2324467120634 181.4806160381995,252.06836556014605 176.586298459908,251.81891896718298 175.78332448215224,252.35938630337478 175.03770578862168,254.1470784960111 167.92565055761952,251.21608878028928 162.45778013800737,248.16034331647097 159.37971322366502,246.93387824247475 152.0,245.85292150400346" stroke="#4DD2FF" stroke-linecap="round" stroke-linejoin="round" stroke-width="0.5"><title>2024-11-19 4.1km</title><desc>1731989484000</desc></polyline></svg>