<?xml version="1.0" encoding="utf-8" ?>
<svg baseProfile="full" height="300mm" version="1.1" viewBox="0,0,200,300" width="200mm" xmlns="http://www.w3.org/2000/svg" xmlns:ev="http://www.w3.org/2001/xml-events" xmlns:xlink="http://www.w3.org/1999/xlink"><defs /><rect fill="#222222" height="300" width="200" x="0" y="0" /><text fill="#FFFFFF" style="font-size:12px; font-family:Arial; font-weight:bold;" x="10" y="20">Over 4km Runs</text><text fill="#FFFFFF" style="font-size:4px; font-family:Arial" x="10" y="280">ATHLETE</text><text fill="#FFFFFF" style="font-size:9px; font-family:Arial" x="10" y="290">Fake David</text><text fill="#FFFFFF" style="font-size:4px; font-family:Arial" x="65" y="280">SPECIAL TRACKS</text><rect fill="yellow" height="2.6" width="2.6" x="65" y="283" /><text fill="#FFFFFF" style="font-size:3px; font-family:Arial" x="70" y="285.5">Over 10.0 km</text><rect fill="red" height="2.6" width="2.6" x="65" y="287" /><text fill="#FFFFFF" style="font-size:3px; font-family:Arial" x="70" y="289.5">Over 15.0 km</text><text fill="#FFFFFF" style="font-size:4px; font-family:Arial" x="120" y="280">STATISTICS</text><text fill="#FFFFFF" style="font-size:3px; font-family:Arial" x="120" y="285">Number: 20</text><text fill="#FFFFFF" style="font-size:3px; font-family:Arial" x="120" y="290">Weekly: 2.5</text><text fill="#FFFFFF" style="font-size:3px; font-family:Arial" x="141" y="285">Total: 150.5 km</text><text fill="#FFFFFF" style="font-size:3px; font-family:Arial" x="141" y="290">Avg: 7.5 km</text><text fill="#FFFFFF" style="font-size:3px; font-family:Arial" x="167" y="285">Min: 4.0 km</text><text fill="#FFFFFF" style="font-size:3px; font-family:Arial" x="167" y="290">Max: 13.0 km</text><polyline fill="none" points="17.492289719637483,49.392843953799456 17.58691588777583,48.61089457604976 18.211448598187417,47.68489902859437 18.66565420560073,49.28995600428607 18.02219626167789,49.72208513470832 19.21448598126881,49.66035244319937 23.150934579432942,50.606918863602914 28.487850467208773,53.117361919401446 29.49088785040658,54.002184771044995 36.68247663544025,57.19163896863756 37.11775700934231,56.924137773385155 37.193457943969406,55.19566226677853 37.55303738312796,54.86642761064286 43.77943925233558,55.298548016362474 46.769626168184914,56.430288732328336 52.75,56.53317402205721 46.52359813079238,56.38913460574986 43.57126168219838,55.23681657125417 37.62873831775505,54.86642761064286 37.269158878480084,55.17508511230699 37.13668224296998,56.924137773385155 36.758177570067346,57.29452397476416 29.96401869156398,54.49603815334558 24.400000000023283,51.347707712324336 21.599065420567058,50.21594617016672 12.25,48.75493804883445 18.608878504601307,49.536887018737616 23.113084112177603,50.54518636986904 28.82850467285607,53.714103223595885 35.43341121484991,56.59490517746599 36.4553738317918,57.315100971391075 37.09883177571464,56.862406691521755 37.269158878480084,55.072199316724436 37.53411214938387,54.80469606889528 41.735514018684626,55.298548016362474 43.57126168219838,55.19566226677853 46.61822429904714,56.368557540132315 52.73107476637233,56.47144285280956 46.107242990634404,56.265672189125326 43.457710280432366,55.23681657125417 37.685514018754475,54.80469606889528 37.269158878480084,55.11335363956459 37.21238317748066,56.80067559592135 36.796028037322685,57.21221597296244 30.05864485981874,54.47546094674908 24.437850467278622,51.224243042161106 22.110046728979796,50.33941129107552 12.496028037392534,48.85782619766542" stroke="#4DD2FF" stroke-linecap="round" stroke-linejoin="round" stroke-width="0.5"><title>2025-01-03 9.5km</title><desc>1735878536000</desc></polyline><polyline fill="none" points="61.29051522258669,48.5708460030437 63.66170960199088,49.23087077322998 66.37435597192962,49.47837965631334 67.68325526942499,50.138402262702584 68.17646370024886,50.07652521021373 73.81042154575698,53.190986348548904 81.37927400472108,56.67666620541422 81.94836065580603,56.5735402124119 82.72611241217237,54.69664042809745 83.29519906337373,54.36663475522073 88.37903981271666,54.67601508504595 91.39519906335045,55.81040667023626 97.75,55.99603394164296 91.86943793913815,55.831031928770244 88.60667447303422,54.77914178487845 83.33313817332964,54.469761570202536 82.72611241217237,54.79976712023199 81.72072599537205,56.75916697215871 74.36053864180576,53.66537139410502 68.1574941452127,50.200279301410774 67.66428571438882,50.24153065279825 66.14672131149564,49.51963111531222 64.00316159252543,49.41650245626806 57.25,48.24083302784129 66.29847775178496,49.4990053865622 68.97318501176778,50.75717202703527 66.46920374711044,49.56088256815565 60.911124121863395,48.71522655598528" stroke="#4DD2FF" stroke-linecap="round" stroke-linejoin="round" stroke-width="0.5"><title>2025-01-02 5.6km</title><desc>1735817809000</desc></polyline><polyline fill="none" points="106.92453271022532,48.7343586190982 111.42873831780162,49.47515111057146 112.75350467290264,50.174786639166996 114.02149532712065,50.40113893074158 120.91028037387878,54.187367940772674 126.720327102812,56.697773778345436 127.21238317748066,56.18334821124154 127.76121495326515,54.804682967063854 128.42359813081566,54.47544845804805 133.2873831775505,54.640065761632286 136.845327102812,55.93642359877413 142.75,55.97757771615579 140.44112149521243,56.12161707881023 136.5046728971647,55.874692411132855 133.5523364485707,54.72237437663716 128.44252336455975,54.434294116843375 127.85584112151992,54.660642917689984 126.98528037383221,56.61546575195098 126.663551401929,56.759504781948635 117.39018691587262,52.68522894680791 113.13200934568886,50.174786639166996 112.52640186925419,50.21594161511166 111.22056074766442,49.557461264761514 102.25,48.21991821985284 110.53925233648624,49.37226338336768 112.67780373827554,50.13363165713963 113.13200934568886,50.01016667425574 119.2070093457587,53.42601084151829 126.663551401929,56.78008178014716 127.91261682240292,54.59891144494759 128.42359813081566,54.393139769512345 129.8619158877991,54.578334284276934 127.87476635514759,54.55775712210743 126.98528037383221,56.57431172957877 126.64462616818491,56.67719677402056 119.77476635517087,53.775823823409155 113.41588785045315,50.236519100741134 112.56425233639311,50.174786639166996 111.05023364489898,49.49572865142545 109.422663551406,49.557461264761514 102.81775700929575,48.28165111839189 106.98130841122475,49.06359997171967" stroke="#4DD2FF" stroke-linecap="round" stroke-linejoin="round" stroke-width="0.5"><title>2024-12-31 8.0km</title><desc>1735619151000</desc></polyline><polyline fill="none" points="152.8897196261678,49.02244508321746 154.27126168226823,49.06360022771696 158.22663551417645,49.98958935875271 160.5355140187312,51.22423670407443 161.1978971962817,51.90329039139033 171.7960280374391,56.697773465595674 172.7990654206369,54.742951359425206 173.36682242993265,54.43429397275031 178.60911214968655,54.722374211021815 181.22079439251684,55.77180682399194 187.73107476637233,55.93642334268952 181.4668224300258,55.874692159719416 178.5712616823148,54.742951359425206 173.38574766367674,54.43429397275031 172.83691588800866,54.68121990964573 171.70140186930075,56.78008146128559 165.3046728973277,54.04332745443389 159.51355140202213,50.85384307996719 156.14485981315374,49.516306413002894 147.25,48.21991853869986 154.40373831777833,49.14591049840965 158.16985981317703,50.010166859749006 165.3046728973277,53.87870980751177 171.5310747664189,56.759504464644124 172.00420560745988,56.57431142605492 172.7990654206369,54.722374211021815 173.44252336455975,54.37256245400931 178.49556074780412,54.68121990964573 181.56144859816413,55.812960962881334 187.75,55.83353803001228 181.788551401929,55.854115095644374 178.47663551406004,54.722374211021815 173.34789719630498,54.393139628416975 172.7990654206369,54.68121990964573 171.96635514032096,56.553734414090286 171.663551401929,56.697773465595674 164.81261682254262,53.81697816461383 158.3212616823148,50.17478681236389 155.48247663560323,49.47515133590787 147.55280373839196,48.32280668753083 155.8988317757612,49.454573795053875 157.63995327113662,50.15420932366396 158.37803738331422,50.07189935348288 164.39626168226823,53.40543352601526 158.28341121505946,50.1130543416366 152.56799065426458,49.04302265620208" stroke="yellow" stroke-linecap="round" stroke-linejoin="round" stroke-width="0.5"><title>2024-12-30 10.8km</title><desc>1735533491000</desc></polyline><polyline fill="none" points="17.935867537278682,97.69677605056495 21.638292910414748,98.31295107582991 22.677238805918023,98.90858562439098 23.206156716449186,98.84696831698238 24.282882462721318,99.2988282514707 28.910914179170504,101.92781681672204 36.429104477516375,105.37832626316231 36.97691231337376,105.39886488058255 37.77028917905409,103.44768939449568 38.393656716449186,103.09853021934396 43.36170708946884,103.42715063171636 46.32742537301965,104.57731899054488 52.75,104.6800123606954 46.57299440295901,104.57731899054488 43.55060634331312,103.46822815577616 38.31809701491147,103.1396077923273 37.808069029822946,103.44768939449568 37.14692164177541,105.11132409752463 36.63689365668688,105.48101933494036 29.572061567101628,102.50290472342749 24.547341417870484,99.62745319324313 21.676072761183605,98.45672505021503 12.25,96.97790344704117 21.354944029822946,98.29241193050984 24.981809701421298,99.62745319324313 28.797574626863934,101.92781681672204 36.58022388047539,105.52209655294428 36.95802238804754,105.41940349644574 37.826958955149166,103.46822815577616 38.355876865563914,103.22176291987125 43.512826492544264,103.50930567366595 46.34631529846229,104.59785766761343 52.69333022378851,104.65947368968045 50.766557835857384,104.82378301458084 46.44076492532622,104.59785766761343 43.49393656710163,103.42715063171636 38.37476679100655,103.1396077923273 37.8458488805918,103.36553433422523 36.97691231337376,105.35778764418501 36.410214552190155,105.43994211083918 30.28987873136066,102.76990941520489 28.287546641775407,101.53757791110547 21.638292910414748,98.37456850262242 13.213386193965562,97.18329581076978" stroke="#4DD2FF" stroke-linecap="round" stroke-linejoin="round" stroke-width="0.5"><title>2024-12-27 9.1km</title><desc>1735273142000</desc></polyline><polyline fill="none" points="89.82032710278872,103.68843435867166 88.34415887854993,103.27689149833168 86.77336448593996,103.462085861378 83.08294392528478,103.11227418256749 81.77710280381143,105.45806167108822 74.90724299068097,102.65957605814037 68.09415887843352,98.9144994791568 67.54532710276544,98.97623192232277 66.06915887852665,98.31775181731791 57.25,96.91847638135368 63.4196261682082,97.9062009544432 64.0252336448757,97.80331314289651 68.35911214957014,98.89392199505528 73.18504672893323,101.3220545379445 73.90420560748316,101.98052748038026 81.36074766353704,105.39633067660907 81.90957943920512,105.35517667265958 82.66658878501039,103.462085861378 83.27219626167789,103.09169701115752 88.4955607476877,103.42093156924238 91.69392523367424,104.6144035525067 97.75,104.77901997312438 91.06939252337907,104.49094117269851 88.72266355145257,103.48266300513933 83.2532710279338,103.11227418256749 82.85584112151992,103.23573717859108 82.0042056075763,105.41690767626278 81.62570093455724,105.58152361864632 79.99813084118068,104.6144035525067 74.6801401869161,102.51553559023887 68.4537383178249,98.8733445094258 64.17663551401347,97.9062009544432 59.69135514018126,97.30945111393521" stroke="#4DD2FF" stroke-linecap="round" stroke-linejoin="round" stroke-width="0.5"><title>2024-12-25 6.6km</title><desc>1735101299000</desc></polyline><polyline fill="none" points="106.4553320860723,97.27486720118031 106.30378858745098,97.64561048790347 106.55004677257966,97.56322313382407 106.90996258181985,96.96591408236418 108.06548175856005,97.76919147299486 109.35360149666667,97.83098194478953 113.31267539761029,98.8402243629098 120.32156220765319,102.67119265752262 126.76216089806985,105.45170091437467 127.02736202056985,105.43110465972859 127.82296538818628,103.47445347069879 128.41019644530024,103.16550728029688 133.48690364824142,103.45385706872912 136.7640318054473,104.68963847016857 142.75,104.79262000432936 136.47988774557598,104.62784953130176 133.2974742751103,103.43326066527516 128.23971000942402,103.18610370370152 127.82296538818628,103.3920678536524 126.9705332085723,105.32812336338975 126.62956033670343,105.38991214577982 119.63961646403186,102.50642092015187 114.39242282509804,99.45812606564141 111.4183816651348,98.26351486086787 102.25,96.98651096770482 105.35664172121324,97.46023890668584 106.8341908325674,97.41904520508251 112.04349859675858,98.44888590347546 114.41136576235294,99.3757392517582 120.90879326465074,102.95954296154378 126.4590739008272,105.43110465972859 127.04630495794117,105.36931588654988 127.99345182417892,103.26848938209878 129.92563143116422,103.26848938209878 128.05028063617647,103.20670012562186 126.95159027120098,105.53408591763582 120.13213283440564,102.7123855764803 116.45720299344976,100.54974903205584 111.60781103838235,98.40769234918116 102.30682881188113,97.00710785150295 110.09237605240196,98.11933729737939" stroke="#4DD2FF" stroke-linecap="round" stroke-linejoin="round" stroke-width="0.5"><title>2024-12-18 8.3km</title><desc>1734495982000</desc></polyline><polyline fill="none" points="151.51912313431967,95.59149752168742 150.82019589550328,95.75581313892326 151.06576492532622,95.55041860202618 150.82019589550328,95.71473424379656 150.66907649242785,95.48880021108198 150.74463619396556,95.694194793934 152.27472014923114,96.76224415759498 155.6182369402377,98.24107490615279 156.41161380603444,99.49396697136399 157.2994402984623,100.19229778213776 158.28171641787048,100.33607155297068 165.21431902982295,104.07416327677493 171.48577425372787,106.88796811657085 171.9391324626049,106.90850673244859 172.82695895526558,104.93679263049853 173.37476679100655,104.62871102831559 178.62616604473442,104.95733139176446 181.93190298508853,106.10749957920052 187.75,106.21019293401332 181.421875,106.10749957920052 178.62616604473442,104.97787015145877 173.28031716425903,104.64924981247168 172.73250932828523,104.95733139176446 171.7880130596459,106.99066118066548 162.5130597015377,103.10883675208606 161.87080223869998,102.47213017303147 159.5473414179869,101.15763451938983 156.75163246272132,100.04852393628971 147.25,98.50808516799589 156.27938432828523,99.69935856990924 157.8661380597623,100.39768886037928 158.2061567164492,100.2949933403579 165.28987873136066,104.15631856958498 170.16347947751638,106.08696090361627 171.5046641791705,106.90850673244859 172.01469216414262,106.78527501416102 172.95918843278196,104.81356003093242 174.92374067159835,104.75194371053658 173.0725279849721,104.87517633760581 172.09025186568033,107.01119978893257 171.2402052237885,106.94958395966387 164.8365205223672,104.19739620685868 163.07975746272132,103.04722005063377 156.69496268650983,99.94582828620332 147.401119402959,98.65185981724062 156.41161380603444,99.74043687125959" stroke="#4DD2FF" stroke-linecap="round" stroke-linejoin="round" stroke-width="0.5"><title>2024-12-17 8.6km</title><desc>1734409492000</desc></polyline><polyline fill="none" points="17.24392807111144,146.27725567176822 21.29203643160872,146.91486206138507 22.76751517993398,147.6141706017661 23.259341429336928,147.47019545886724 30.277323680580594,151.3369303682848 36.65214852883946,154.0929743208544 36.992643624544144,154.05183953874803 37.86279775807634,152.01566016378638 38.33570761338342,151.74828195870214 43.82146193366498,152.1390654018469 46.56433909398038,153.18800769853988 52.75,153.29084496412543 52.14467538532335,153.4965193803364 46.545422699768096,153.29084496412543 43.31071929004975,152.09793032862945 38.44920597865712,151.8922548705159 37.71146660449449,152.34474067611154 36.89806165348273,154.0929743208544 36.57648295199033,154.1958112493594 30.844815506832674,151.76884952209366 23.14584306406323,147.65530634309107 22.14327417104505,147.5318991007225 21.083956095390022,146.91486206138507 12.25,145.70135186050902 21.216370854876004,146.8942941363057 22.483769266749732,147.57303485434386 23.22150864091236,147.51133122164174 30.220574497943744,151.31636277270445 36.51973376935348,154.07240693057247 37.04939280718099,154.03127214536653 37.69255021016579,152.28303810993384 38.33570761338342,151.78941708401544 43.87821111641824,152.1390654018469 46.50758991134353,153.18800769853988 52.6365016347263,153.35254730502493 46.84808500704821,153.29084496412543 43.537716020597145,152.09793032862945 38.31679121917114,151.85111976049666 37.84388136386406,152.07736278974335 36.86022886517458,154.1958112493594 30.08815973845776,151.4192007353995 23.164759458275512,147.65530634309107 21.481200373731554,147.05883749392524 12.476996730547398,145.74248788689147 21.178538066335022,146.91486206138507 22.502685660962015,147.57303485434386 23.316090611973777,147.59360272881167 31.015063054743223,151.6865792591998 36.51973376935348,154.134109096849 37.04939280718099,154.05183953874803 37.69255021016579,151.9539575240633 39.886851938441396,151.99509261873027 37.88171415240504,152.03622770725633 36.935894441907294,154.29864813950553 30.031410555937327,151.3986331459164 23.24042503500823,147.63473847322166 22.635100420447998,147.65530634309107 21.140705277910456,146.93542998489283 12.476996730547398,145.82475992120453 21.00829051854089,146.8942941363057" stroke="yellow" stroke-linecap="round" stroke-linejoin="round" stroke-width="0.5"><title>2024-12-15 13.0km</title><desc>1734235831000</desc></polyline><polyline fill="none" points="61.25466417905409,145.8614081877604 61.25466417905409,146.0873396784591 62.9547574626049,146.60081965045538 65.24043843278196,147.07322037997073 66.43050373136066,146.99106378949364 67.58278917905409,147.64831582759507 68.24393656710163,147.6688549285318 76.06436567159835,151.83826073470118 81.67467350745574,154.22075002783095 82.03358208958525,154.2002114150091 82.78917910449672,152.37226874574844 83.35587686568033,152.0025710021 88.56949626875576,152.26957497782132 91.57299440307543,153.41974299385038 97.75,153.54297499672975 91.45965485076886,153.41974299385038 88.72061567171477,152.29011373444519 83.26142723893281,151.92041588063876 82.73250932828523,152.16688117162266 81.82579291041475,154.26182724883256 75.23320895526558,151.5712563413108 69.09398320887703,148.14125382780912 66.29827425372787,147.05268123465066 57.25,145.738172751182 62.048041044618,146.23111416703614 66.29827425372787,146.92944633061416 68.20615671633277,147.54562029996305 74.00536380591802,150.7086249953718 79.80457089550328,153.25543357105926 81.24020522390492,154.15913418475247 82.01469216414262,154.07697970588924 82.71361940295901,152.37226874574844 83.29920708958525,151.9614934444835 88.4750466417754,152.18741993587173 91.28964552248362,153.35812697178335 93.44309701491147,153.3786656473676 91.1385261194082,153.29651093593566 88.43726679100655,152.22849745993153 83.50699626875576,151.92041588063876 82.73250932828523,152.14634240577288 81.7880130597623,154.17967280061566 74.87430037313607,151.36586817042553 68.24393656710163,147.70993312580686 66.26049440295901,147.05268123465066 63.27588619396556,146.68297635720228" stroke="#4DD2FF" stroke-linecap="round" stroke-linejoin="round" stroke-width="0.5"><title>2024-12-13 8.5km</title><desc>1734064159000</desc></polyline><polyline fill="none" points="106.63096362771466,146.3182539121044 110.80148795468267,146.92148656057543 113.67111478501465,147.81593257132045 119.63993859232869,151.1856801804097 126.31660368444864,154.1393761185609 126.8522673593834,154.16017668337736 127.7131554086227,152.1841161060729 128.24881908355746,151.913706728752 133.5098016060656,152.1841161060729 136.14985828998033,153.26575099659385 142.75,153.39055475281202 136.78117619268596,153.3489535069093 133.31849315064028,152.16331539402017 128.11490316491108,151.89290599655942 127.56010864430573,152.08011253042787 126.9287907416001,153.86896863479342 126.4696504487656,154.2849800397962 125.11136041569989,153.51535845320905 119.62080774677452,151.37288718846685 114.07286254130304,148.19035098075983 111.12671232875437,147.17109968904697 114.05373169574887,148.1071469331655 117.57380727445707,150.22884240133862 125.14962210680824,153.49455784031306 126.25921114778612,154.2225783685717 126.81400566839147,154.09777498424228 127.67489371751435,151.8305037907412 126.77574397728313,154.0353732711519 126.29747283889446,154.16017668337736 119.83124704763759,151.41448872874025 112.94414265477099,147.54551896330668 112.27456306095701,147.56632001936669 110.59104865370318,146.87988435081206 102.25,145.71501996018924" stroke="#4DD2FF" stroke-linecap="round" stroke-linejoin="round" stroke-width="0.5"><title>2024-12-11 6.6km</title><desc>1733890893000</desc></polyline><polyline fill="none" points="152.16081460670102,146.51593390700873 156.50280898879282,147.01071996017708 157.45084269659128,147.56735321243468 158.22823033714667,147.54673718601407 165.3574438202195,151.48437036082032 171.72823033703025,154.2468649039365 172.77106741571333,152.1028416842164 173.32092696626205,151.8554533207498 178.76264044945128,152.18530442295014 181.54985955054872,153.27793339066557 187.69311797758564,153.42224255444307 181.7773876405554,153.27793339066557 178.81952247198205,152.28838281173375 172.9227528090123,152.04099461407168 171.87991573032923,154.308711481106 165.22471910109743,151.52560182540037 163.30969101120718,150.2268077404733 158.1713483146159,147.6704333214584 157.75421348318923,147.77351339207962 156.1235955056036,147.11380027655105 147.4396067415364,145.87683394546912 154.64466292131692,146.70147878062562 158.1713483146159,147.52612115808006 163.1390449438477,149.9794176997966 165.20575842703693,151.36067593027838 171.5765449438477,154.20563384484558 171.97471910109743,154.06132508956944 172.80898876406718,152.22653578304744 173.32092696626205,151.8554533207498 176.63904494373128,152.18530442295014 178.3265449438477,152.04099461407168 181.64466292131692,153.29854899011843 187.75,153.40162696424522 181.32233146065846,153.2573177896993 178.72471910121385,152.22653578304744 173.28300561802462,151.87606902618427 172.80898876406718,152.06161030568182 172.14536516845692,153.9170162590308 171.78511235956103,154.22624937517685 165.86938202241436,151.75237477067276 162.32373595505487,149.62894809694262 158.13342696637847,147.56735321243468 155.09971910109743,146.8045592122071 147.25,145.69128851890855 156.9389044943964,147.09318421637 171.27317415724974,154.10255617015355 171.97471910109743,153.97886290986207 172.80898876406718,151.83483761378739 172.01264044945128,154.06132508956944 171.61446629208513,154.1437872446695 165.43328651681077,151.52560182540037 158.19030898879282,147.505505128589 151.57303370779846,146.39223725545162" stroke="yellow" stroke-linecap="round" stroke-linejoin="round" stroke-width="0.5"><title>2024-12-09 12.1km</title><desc>1733738831000</desc></polyline><polyline fill="none" points="29.102733270497993,199.5282261048269 36.71795475971885,202.97300304246892 37.59590009425301,200.98084808012936 38.282987747341394,200.60731743855285 43.207115928293206,200.81483452346583 46.203581526875496,201.9976789555949 52.75,202.22594660117466 46.833411875530146,202.1014369994955 43.53157398675103,200.96009639093245 38.34024505189154,200.6903242910921 37.6913289349759,200.8978413142031 36.756126296008006,203.01450611939072 30.725023562670685,200.50355883817247 23.05254476913251,196.35318312722666 22.36545711592771,196.3739351596305 21.48751178139355,195.79287766826747 16.04806786053814,195.06655409943778 15.360980207333341,194.73451983711857 15.036522148991935,195.0042977053963 12.650801131036133,194.6307590489596 18.300188501481898,195.21181896471535 23.05254476913251,196.27017498220084 28.053016022662632,198.7396567172982 29.46536286524497,199.77724755287636 36.431668237550184,202.97300304246892 36.889726672903635,202.7862391200033 37.6913289349759,200.85633792195586 38.13030160230119,200.52431056133355 39.828934966935776,200.81483452346583 43.49340245046187,200.83558622347482 46.547125353477895,202.01843056749203 52.616399622987956,202.14294020622037 46.39443920832127,201.95617572721676 43.49340245046187,200.87708961883618 38.26390197919682,200.6488208679657 37.481385485385545,201.31287489653914 36.73704052774701,203.01450611939072 29.63713477854617,199.94326172789442 23.033459000987932,196.35318312722666 22.594486333662644,196.43619124749966 20.13242224312853,195.62686101952568 12.25,194.48549388059473 20.495051837991923,195.62686101952568 22.422714420361444,196.33243109329487 23.1479736098554,196.31167905783514 25.610037700389512,197.66055814819993" stroke="#4DD2FF" stroke-linecap="round" stroke-linejoin="round" stroke-width="0.5"><title>2024-12-06 9.2km</title><desc>1733479157000</desc></polyline><polyline fill="none" points="61.35869565210305,195.09582965842856 66.50876577827148,195.71344483396388 67.6069424963789,196.3928199325601 68.21283309953287,196.26929731157725 75.27524544170592,200.22199379475205 81.44775596063118,202.96002644057444 82.0725806450937,202.77474689175142 82.73527349217329,201.00429160463682 83.45476858341135,200.7160768797039 88.5669705469627,200.96311809087638 91.44495091156568,202.05421413200384 97.75,202.26008082648332 91.52068723703269,202.05421413200384 88.52910238422919,201.02487835918146 83.3600981766358,200.69549010209448 82.69740532943979,201.10722536209505 81.75070126226638,203.00119965679187 74.76402524544392,200.03671241016127 73.17356241226662,198.9456084031408 68.23176718084142,196.4339941272774 67.68267882184591,196.47516831583926 66.30049088352825,195.81638056231895 57.25,194.49880034320813 66.30049088352825,195.7957934196893 69.14060308551416,196.9898451554036 68.30750350630842,196.4339941272774 61.377629733411595,195.11641685322684" stroke="#4DD2FF" stroke-linecap="round" stroke-linejoin="round" stroke-width="0.5"><title>2024-12-03 5.6km</title><desc>1733220329000</desc></polyline><polyline fill="none" points="107.53671328676865,195.3010795333248 111.3695804196177,195.71167146788503 112.67237762233708,196.47126493384712 114.33391608390957,196.67656010575593 116.12762237770949,197.84673966484843 118.58216783218086,198.77056212238676 120.14930069935508,199.9817913187144 126.8898601399269,202.93798937654356 127.7395104895113,201.11089848667325 128.41923076938838,200.6592561746802 133.5737762239296,200.94666500433232 136.74580419587437,202.11682643038512 141.1828671329422,202.0757682188705 142.75,202.19894283515168 142.27797202800866,202.3221173963393 136.55699300696142,202.15788463580247 133.5737762239296,201.02878175776277 128.4003496504156,200.74137301373412 127.83391608402599,201.00825257167162 126.96538461546879,202.95851841883268 126.55000000004657,202.99957649887074 119.56398601399269,200.00232058127585 115.78776223771274,197.84673966484843 111.19965034967754,195.79378978135355 102.25,194.54148284142138 111.5206293707015,195.7527306276752 114.20174825179856,196.98450257678633 111.16188811184838,195.85537850041874 102.28776223771274,194.50042350112926 107.76328671327792,195.26002030620293" stroke="#4DD2FF" stroke-linecap="round" stroke-linejoin="round" stroke-width="0.5"><title>2024-12-02 6.1km</title><desc>1733112856000</desc></polyline><polyline fill="none" points="147.25,193.172156150511 148.44999999995343,193.67232281857287 151.20999999996275,197.3691803056863 150.96999999997206,197.12997329697828 151.4899999999907,197.10822719553835 152.1700000000419,196.28187414087006 154.65000000002328,196.6515586913738 155.56999999994878,197.26044987147907 157.40999999991618,197.63013318247977 159.38999999989755,198.86965616140515 161.78999999992084,199.78298551446642 163.04999999993015,200.89202445818228 170.25,204.17562485917006 170.8299999999581,204.17562485917006 171.70999999996275,202.15327931247884 172.28999999992084,201.87058473276556 177.8299999999581,202.15327931247884 181.25,203.37103744896012 187.75,203.43627434864175 181.29000000003725,203.41452871702495 177.84999999997672,202.19677076194785 172.34999999997672,201.91407622440602 171.75,202.1750250380137 170.6699999999255,204.3278438494599 163.78999999992084,201.43566946018836 159.13000000000466,198.8044182411395 154.46999999997206,196.673304826807 148.81000000005588,195.99917387450114" stroke="#4DD2FF" stroke-linecap="round" stroke-linejoin="round" stroke-width="0.5"><title>2024-11-29 4.6km</title><desc>1732853630000</desc></polyline><polyline fill="none" points="15.679904306307435,246.19371510925703 15.389234449830838,246.36227263504406 16.629425837425515,246.38334231865883 15.563636363716796,246.2569241932215 16.532535885227844,246.34120294978493 16.416267942637205,246.63617840012012 17.966507177101448,244.63455323310336 21.609569377964363,244.3817153620621 22.772248803870752,245.0138096157898 24.41937799041625,245.35092597339826 30.87224880384747,249.03810990024067 37.344497607671656,251.84033753472613 38.31339712929912,249.7966103462968 38.8947368421359,249.5227076420997 44.39808612444904,249.7966103462968 47.18851674639154,250.9343572013022 52.75,250.99756522572716 47.30478468898218,250.89221851051843 43.9911483253818,249.73340205350542 38.81722488044761,249.4384298336081 38.352153110085055,249.71233261939778 37.344497607671656,251.81926825757546 30.484688995289616,249.03810990024067 23.392344497609884,245.07701896343497 21.26076555030886,244.42385502292018 12.25,243.15966246527387 21.454545454587787,244.3817153620621 22.636602870887145,244.9927398300788 23.876794258365408,245.16129807165998 28.876315789530054,247.8160771248222 21.396411483292468,244.4659946775064 16.532535885227844,243.8128293257032" stroke="#4DD2FF" stroke-linecap="round" stroke-linejoin="round" stroke-width="0.5"><title>2024-11-28 6.3km</title><desc>1732767063000</desc></polyline><polyline fill="none" points="57.52181208063848,242.66053808230208 63.50167785247322,243.67031182476785 64.86073825519998,244.3845401702565 65.494966443046,244.33528309257235 71.72399328870233,247.3892080327787 73.8758389261784,248.81764711075812 81.75838926178403,252.2655780762434 82.86828859068919,249.8766583049728 83.6837248322554,249.43335170624778 89.68624161067419,249.75351764273364 92.44966442952864,250.9110380569473 94.85067114094272,251.30508663496585 97.75,251.2312025623396 93.37835570471361,251.1573184732406 90.09395973163191,249.8766583049728 83.91023489937652,249.55649248781265 82.98154362419154,249.9259145570104 81.75838926178403,252.33946191769792 73.17365771823097,248.71913426899118 65.494966443046,244.33528309257235 64.92869127530139,244.45842577313306 62.98070469812956,243.59642604575492 57.25,242.832938695763" stroke="#4DD2FF" stroke-linecap="round" stroke-linejoin="round" stroke-width="0.5"><title>2024-11-25 4.0km</title><desc>1732507947000</desc></polyline><polyline fill="none" points="102.25,240.57308092399035 110.50601926166564,241.63333793717902 112.74879614776,242.94098498957464 113.98394863586873,242.79961791448295 116.25922953453846,243.54179458881845 118.63202247198205,245.23819405544782 123.11757624405436,247.18197765288642 126.59550561802462,249.58518999847 134.46147672552615,252.65987039441825 137.0943017656682,254.25021450404893 137.7768860354554,253.9674870519375 139.23956661322154,250.53940328842145 142.75,250.4687208883115 139.36958266457077,250.64542686886853 137.4843499198323,254.42691907600965 127.11556982353795,250.1153087298444 113.91894060990307,243.04701026825933 113.04133226338308,243.2237190134474 116.16171749599744,243.82452825453947 117.68940609961282,245.23819405544782 120.38723916537128,245.98036691441666 126.5304975922918,249.65587253018748 136.37921348318923,254.03816893073963 137.7768860354554,254.17953265682445 139.23956661322154,250.50406208977802 137.67937399691436,254.42691907600965 127.27808988769539,250.04462626660825" stroke="#4DD2FF" stroke-linecap="round" stroke-linejoin="round" stroke-width="0.5"><title>2024-11-20 4.0km</title><desc>1732095798000</desc></polyline><polyline fill="none" points="149.61590546998195,243.091784001037 155.59519383963197,243.95706885689287 157.03624535317067,244.68203541319235 158.02562400419265,244.77557936296216 163.55323951144237,247.51172756162123 165.0157992565073,248.6342430000659 172.88781200209633,252.1186924376525 173.25345193839166,252.07192156041856 174.13528943178244,250.01399606050109 174.78053637815174,249.52289820867009 180.75982474780176,249.85029686195776 183.90002655342687,251.11311704010586 187.75,251.25343007961055 183.83550185873173,251.1365025510895 180.41569304303266,249.8269112551643 174.9095857674256,249.54628383807722 174.00624004250858,250.15430959130754 173.16741901217028,252.16546330801793 165.1663568773074,248.86809987784363 159.01500265533105,245.43038623104803 155.5521773765795,244.05061302278773 147.25,242.83453669201117" stroke="#4DD2FF" stroke-linecap="round" stroke-linejoin="round" stroke-width="0.5"><title>2024-11-19 4.1km</title><desc>1731989484000</desc></polyline></svg>