<?xml version="1.0" encoding="utf-8" ?>
<svg baseProfile="full" height="300mm" version="1.1" viewBox="0,0,200,300" width="200mm" xmlns="http://www.w3.org/2000/svg" xmlns:ev="http://www.w3.org/2001/xml-events" xmlns:xlink="http://www.w3.org/1999/xlink"><defs /><rect fill="#222222" height="300" width="200" x="0" y="0" /><text fill="#FFFFFF" style="font-size:12px; font-family:Arial; font-weight:bold;" x="10" y="20">Over 4km Runs</text><text fill="#FFFFFF" style="font-size:4px; font-family:Arial" x="10" y="280">ATHLETE</text><text fill="#FFFFFF" style="font-size:9px; font-family:Arial" x="10" y="290">Fake David</text><text fill="#FFFFFF" style="font-size:4px; font-family:Arial" x="65" y="280">SPECIAL TRACKS</text><rect fill="yellow" height="2.6" width="2.6" x="65" y="283" /><text fill="#FFFFFF" style="font-size:3px; font-family:Arial" x="70" y="285.5">Over 10.0 km</text><rect fill="red" height="2.6" width="2.6" x="65" y="287" /><text fill="#FFFFFF" style="font-size:3px; font-family:Arial" x="70" y="289.5">Over 15.0 km</text><text fill="#FFFFFF" style="font-size:4px; font-family:Arial" x="120" y="280">STATISTICS</text><text fill="#FFFFFF" style="font-size:3px; font-family:Arial" x="120" y="285">Number: 43</text><text fill="#FFFFFF" style="font-size:3px; font-family:Arial" x="120" y="290">Weekly: 2.5</text><text fill="#FFFFFF" style="font-size:3px; font-family:Arial" x="141" y="285">Total: 351.5 km</text><text fill="#FFFFFF" style="font-size:3px; font-family:Arial" x="141" y="290">Avg: 8.2 km</text><text fill="#FFFFFF" style="font-size:3px; font-family:Arial" x="167" y="285">Min: 4.0 km</text><text fill="#FFFFFF" style="font-size:3px; font-family:Arial" x="167" y="290">Max: 13.0 km</text><polyline fill="none" points="13.189864549320191,42.36048160491919 12.87459131248761,42.593585415626876 11.5,42.29192160438106 12.370154133648612,42.27820960122335 17.57846800563857,43.00494436133886 18.85217188228853,43.33403085586906 23.644325081724674,45.966701628654846 27.59154600650072,47.69437135817134 28.03292853810126,47.584678524159244 28.17164876224706,46.37805303516507 28.398645492794458,46.19980087190925 32.48458664177451,46.47403489777935 33.985287248913664,47.132194892765256 35.195936478325166,47.310446153074736 38.5,47.351581034759874 34.35100420360686,47.214464726668666 32.43414292385569,46.460323206178145 28.49953292851569,46.186089159877156 28.209481550671626,46.43289981991984 28.28514712752076,46.92652014711348 28.07076132646762,47.77664094080683 27.641989724477753,47.85891048665508 26.834890238184016,47.379004284128314 23.530826716450974,46.11753058445174 19.10439047170803,43.663116761963465 17.401914993009996,43.07350409623177 15.926436244801152,43.01865631034889 11.525221858930308,42.14108951334492 17.717188229842577,43.04608020534215 19.936711816873867,43.88250703913218 23.12727697333321,45.70617859567574 27.742877160198987,47.79035253431357 28.083372255961876,47.52983208258229 28.17164876224706,46.35062963668315 28.423867351724766,46.17237744687009 32.40892106492538,46.47403489777935 34.37622606259538,47.20075309021922 38.42433442315087,47.24188799643889 37.390238206484355,47.379004284128314 34.1996730499086,47.17332981429354 32.471975712280255,46.460323206178145 28.461700140149333,46.19980087190925 28.222092480107676,46.4054764296161 28.196870621235576,47.2830228934763 27.969873890746385,47.721794556462555 27.768099019129295,47.76292934625235 23.31644091545604,45.91185470498749 18.801728164427914,43.36145470387419 18.335123773955274,43.37516662632697 17.36408220458543,42.963808508138754 15.674217655323446,42.88153677416267 11.575665576849133,42.209649570067995 14.627510509104468,42.60729739529779" stroke="#4DD2FF" stroke-linecap="round" stroke-linejoin="round" stroke-width="0.5"><title>2025-03-19 10.0km</title><desc>1742357906000</desc></polyline><polyline fill="none" points="42.64385474863229,42.266578097609454 46.77932960900944,42.840604656899814 48.91620111733209,43.387294948101044 53.01396648050286,45.66970931373362 57.60195530729834,47.78809244764852 58.04189944139216,47.651423306175275 58.15502793295309,46.599067506729625 58.43156424583867,46.189057119583595 62.62988826818764,46.489731493085856 64.08798882685369,47.13207964011235 65.15642458101502,47.28241611568956 68.5,47.309750007116236 64.45251396647654,47.159413553919876 62.39106145250844,46.39406242770201 58.45670391066233,46.134388998747454 58.192737430217676,46.476064486822 58.16759776539402,47.51475406289683 57.62709497206379,47.829093170235865 52.52374301676173,45.5057044379937 49.657821229076944,43.8519804146199 47.74720670393435,43.086615489577525 41.5,42.17090682977869 44.340782122919336,42.48525509389583 47.407821229076944,42.97727738243702 48.35055865923641,43.40096218450344 48.79050279333023,43.37362771068001 53.62988826824585,45.997718625323614 57.715083798975684,47.80175935616717 58.02932960895123,47.6240894656803 58.2053072626004,46.831406319339294 58.02932960895123,47.692424059307086 57.51396648044465,47.76075862751168 53.24022346374113,45.88838225326617 48.79050279333023,43.4556311199558 48.33798882685369,43.44196388759883 47.18156424583867,42.96361011445697" stroke="#4DD2FF" stroke-linecap="round" stroke-linejoin="round" stroke-width="0.5"><title>2025-03-17 7.0km</title><desc>1742185263000</desc></polyline><polyline fill="none" points="72.976858345035,42.268802478691214 72.91374474053737,42.4335003005981 72.77489481068915,42.255077653579065 72.88849929877324,42.46094992324652 71.75245441793231,42.268802478691214 76.04417952318909,42.77662028992199 78.79593267885502,43.407959400414256 83.50420757365646,45.974467855572584 87.75806451612152,47.86844581870537 88.07363253855146,47.63513074438379 88.1746143057826,46.45482642829302 88.4270687236567,46.20778503306792 92.25175315566594,46.44110191502841 94.41023842908908,47.237121994417976 98.4621318373247,47.30574425404484 94.35974754556082,47.20967308344552 92.56732117809588,46.48227545173722 88.56591865356313,46.20778503306792 88.19985974754672,46.42737740071607 88.0610098176985,47.69002843549242 87.66970546985976,47.77237494153087 82.77208976156544,45.617629247921286 78.83380084147211,43.394234660154325 75.79172510519857,42.707996343189734 71.5,42.15900384896668 75.8169705469627,42.65309716742195 78.80855539970798,43.325610943487845 83.45371669007,45.89212054594827 87.66970546985976,47.75865052641893 88.08625525946263,47.525335312995594 88.18723702663556,46.41365288539964 88.38920056103962,46.20778503306792 92.40322580642533,46.42737740071607 94.44810659188079,47.195948626394966 98.5,47.30574425404484 94.23352033662377,47.15477524916059 92.39060308551416,46.42737740071607 88.41444600280374,46.180335968674626 88.18723702663556,46.52344897927833 88.023141654965,47.67630401423958 87.75806451612152,47.74492611025926 83.23913043481298,45.85094687729725 78.85904628335265,43.407959400414256 77.3316970547312,42.95504243180039 71.5,42.13155418129463 75.43828892009333,42.68054675732856" stroke="yellow" stroke-linecap="round" stroke-linejoin="round" stroke-width="0.5"><title>2025-03-15 10.0km</title><desc>1742012101000</desc></polyline><polyline fill="none" points="103.204192180885,42.566268054404645 101.5,42.16524877489428 105.31535562878707,42.59392452449538 108.69830428640125,43.28533493747818 113.56924163916847,45.954154972787364 117.766132830875,47.793267689747154 118.08407913328847,47.39225970339612 118.14766839373624,46.28602628421504 118.41474328777986,46.13391867344035 122.52260951482458,46.45196171737916 124.48115873767529,47.22632511079428 128.5,47.253980886540376 124.60833725857083,47.253980886540376 122.4590202543186,46.47961760846374 118.47833254822763,46.23071444015659 118.18582195002818,46.5211014374072 117.99505416862667,47.71030059126497 117.6898257182911,47.83475122510572 113.28944889304694,45.94032698860974 111.48351389542222,44.77877263932896 108.7364578426932,43.40978853829438 108.44394724443555,43.46510122297332 107.32477626000764,42.967286467406666 105.6714554874925,42.88431721167581 101.89425341493916,42.23439009177673 103.90367404615972,42.46947037661448 106.53626943001291,42.88431721167581 107.59185115399305,42.981114673108095 109.05440414504847,43.47892939156736 113.23857748467708,45.78821909458202 116.69783325475873,47.253980886540376 117.42275082424749,47.73795629487722 117.94418276025681,47.71030059126497 118.21125765424222,46.797660060052294 118.03320772497682,47.68264488350542 117.6898257182911,47.76561199440039 113.35303815355292,45.91267101716949 108.74917569477111,43.35447583712812 108.1514366462361,43.3268194803677" stroke="#4DD2FF" stroke-linecap="round" stroke-linejoin="round" stroke-width="0.5"><title>2025-03-12 7.1km</title><desc>1741778255000</desc></polyline><polyline fill="none" points="133.57109448080882,42.439165039686486 137.24602432182292,42.8922950651322 138.38260056125,43.38661745861464 139.7843779232935,43.64750929840375 143.92656688491115,46.10536692352616 147.76566884940257,47.78053601975262 148.068755846587,47.5608425794926 148.14452759589767,46.43490958800248 148.39710009354167,46.174021693863324 152.43826005619485,46.379985851512174 154.0168381665717,46.99787694346742 155.22918615530943,47.19010930520017 158.5,47.231301928070025 154.4083255379228,47.2450328002742 152.43826005619485,46.46237145010673 148.52338634239277,46.20148359486484 148.23292797006434,46.39371678714815 148.043498596875,47.643227650245535 147.61412535083946,47.75307435407012 142.76473339571385,45.63851380687265 138.78671655751532,43.37288629892282 138.45837231056066,43.482735547819175 137.27128157153493,42.96095103240805 131.5,42.178271489348845 136.77876520116115,42.837370272914995 138.55940130958334,43.38661745861464 138.78671655751532,43.30423048509692 143.4593077642494,45.830747586340294 147.72778297477635,47.76680518743524 148.068755846587,47.46472661702137 148.15715622075368,46.33879303840513 148.4349859682261,46.174021693863324 152.33723105711397,46.33879303840513 154.5346117867739,47.10772403187002 158.5,47.231301928070025 154.4335827876348,47.203840180518455 152.34985968196997,46.35252397709701 148.4223573433119,46.09163596635335 148.1950420954381,46.46237145010673 148.1824134705821,47.46472661702137 147.7909260991728,47.82172851066571 145.85874649207108,46.81937528523849 143.0804490178125,45.775823669784586 138.8751169317402,43.4415420871519 138.55940130958334,43.49646669931826 137.46071094484068,42.98841341215302 134.02572497661458,42.713789430534234 131.5,42.23319647801691 133.3942937324755,42.384240112427506 134.2909260991728,42.54901484513539 137.67539756785845,43.00214460051211 139.46866230119485,43.81228290166473 138.95088868105086,43.4690043952869 137.51122544432292,43.05706934364571 135.03601496724878,42.768714259625995 133.45743685687194,42.85110147250816 131.57577174925245,42.23319647801691" stroke="yellow" stroke-linecap="round" stroke-linejoin="round" stroke-width="0.5"><title>2025-03-07 10.7km</title><desc>1741342581000</desc></polyline><polyline fill="none" points="163.58665105386171,42.421817670663586 167.64613583130995,42.944336540676886 168.30374707258306,43.32934949826449 168.84754098358098,43.343099946156144 172.3379391100607,45.06189786802861 173.96932084305445,46.14816989985411 177.73793911002576,47.81194125014008 178.01615925057558,47.55068889017275 178.33231850113953,46.189420610506204 180.02693208429264,46.39567402549437 182.60679156903643,46.340673137354315 183.9599531615968,46.91818164524739 185.24988290393958,47.13818441105832 188.5,47.12443424586672 187.80444964865455,47.26193585158035 184.41522248240653,47.151934575202176 182.4423887587618,46.436924680834636 178.433489461313,46.24442154371354 178.19320843089372,46.423174463401665 177.94028103043092,47.68819017834903 177.5355971896788,47.78444101911737 173.3749414519989,45.90066544232832 168.84754098358098,43.45310349261854 167.21615925052902,42.985587967414176 163.99133489461383,42.80683171830606 161.5,42.18805874985992 162.99227166268975,42.27056193219323" stroke="#4DD2FF" stroke-linecap="round" stroke-linejoin="round" stroke-width="0.5"><title>2025-03-05 4.7km</title><desc>1741177738000</desc></polyline><polyline fill="none" points="12.731988472631201,72.3632351905253 16.9726224783808,72.87085468955047 18.165706051921006,73.20926693250658 22.963976945262402,75.83194129835465 26.452449567674194,77.28426684465376 27.243515850102995,77.80597330094315 27.632564841536805,77.70727218975662 27.8270893371664,76.32545122914598 28.1123919308302,76.17034824668372 32.002881844353396,76.36775202046556 34.142651296802796,77.18556546143373 38.5,77.24196625816694 36.85302593652159,77.39706836245023 34.11671469733119,77.25606645469088 32.2233429394546,76.48055408448272 28.125360230507795,76.18444852308312 27.930835734819993,76.36775202046556 27.723342939454596,77.74957267228456 27.438040345790796,77.86237391277973 22.2636887608096,75.66273759727483 18.113832852977794,73.29386989868362 17.841498559049796,73.39257331144472 16.596541786741,72.92725677207636 11.5,72.13762608722027" stroke="#4DD2FF" stroke-linecap="round" stroke-linejoin="round" stroke-width="0.5"><title>2025-03-03 4.6km</title><desc>1740978130000</desc></polyline><polyline fill="none" points="43.79518916393863,72.47017599784886 43.593414292437956,72.59358391602291 41.5,72.16851184946427 44.791452592238784,72.5113119797752 48.76389537600335,73.3614535475208 52.30756655771984,75.1165721034049 53.480382998648565,75.91185468871845 57.54110228869831,77.76293015736155 57.969873890746385,77.73550695292943 58.18425969174132,76.41918833577074 58.37342363380594,76.18608926619345 62.244978981791064,76.44661173633358 64.16184026160045,77.2144652926363 68.43694535264513,77.2693118526513 66.93624474544777,77.37900492364133 64.11139654368162,77.18704200648062 62.219757122860756,76.47403513277823 58.42386735166656,76.22722441756923 58.234703409601934,76.36434152242146 58.04553946753731,77.58467925559671 57.667211583349854,77.81777655395854 53.40471742179943,75.98041337142058 48.73867351707304,73.40258933024597 48.51167678658385,73.47114894763217 47.6793554413598,73.0872147612099 41.5,72.1822238669265 47.85590845398838,73.0460789080098 57.515880429709796,77.83148815053573 57.982484820182435,77.74921855563298 58.108594114892185,76.52888191344391 58.33559084543958,76.22722441756923 62.56025221856544,76.50145852513378 64.1996730499668,77.22817693416437 68.5,77.33787002970348 64.22489490895532,77.2144652926363 62.30803362914594,76.48774682948715 58.411256422288716,76.18608926619345 58.18425969174132,76.41918833577074 57.982484820182435,77.68066053185612 57.59154600655893,77.79035335767549 52.93811303132679,75.73360199425952 49.016113965422846,73.47114894763217 48.42340028024046,73.44372510374524 47.301027557230555,72.96380717403372 43.66907986922888,72.53873596260382 45.11933675856562,72.66214383480838 47.66674451192375,73.03236695489613 49.36921999062179,73.7865228587325 49.43227463803487,73.64940383336216 48.675618869718164,73.38887740368955" stroke="yellow" stroke-linecap="round" stroke-linejoin="round" stroke-width="0.5"><title>2025-02-28 10.0km</title><desc>1740736874000</desc></polyline><polyline fill="none" points="73.38723205967108,72.85911382646009 73.65144454798428,72.55815331508347 73.33690587140154,72.84543381391268 73.61369990679668,72.66759355810063 73.45013979502255,72.59919341384375 71.61323392362101,72.22983219455637 72.45619757688837,72.20247207469947 77.55172413791297,72.90015385797597 78.36952469713287,73.29687368964369 78.86020503262989,73.24215376380016 83.77958993479842,75.9097311674559 87.71761416591471,77.72913352608157 88.05731593666133,77.60601664190472 88.18313140730606,76.29276474106882 88.43476234859554,76.12860759305477 92.37278657971183,76.37484325999685 94.31034482759424,77.11354827968171 98.43709226470673,77.1956264317705 94.28518173348857,77.18194674229017 92.27213420323096,76.37484325999685 89.95712954335613,76.3885230096057 88.35927306616213,76.15596712793922 88.15796831314219,76.27908498430043 88.05731593666133,77.63337595661869 87.74277726002038,77.92064851519535 82.69757688726531,75.63613526859262 79.09925442683743,73.52943319243786 77.06104380241595,72.96855389008124 75.45060577819822,72.91383386641974 71.51258154702373,72.18879201321397 77.61463187326444,72.98223389346094 78.28145386767574,73.37895354778448 78.86020503262989,73.37895354778448 83.79217148182215,75.99180985763087 87.79310344828991,77.78385211476416 88.06989748368505,77.55129800019495 88.24603914259933,76.15596712793922 92.25955265609082,76.3474837577669 93.89515377447242,76.99043098276888 95.10298229265027,77.18194674229017 98.5,77.18194674229017 94.3732525628875,77.1956264317705 92.27213420323096,76.48428122820042 89.96971109043807,76.47060148573655 88.2712022367632,76.18332665869093 88.08247903076699,77.48289967517485 87.70503261883277,77.83857068720681 83.18825722276233,75.8686918086023 78.75955265614903,73.39263352057606 72.82106244174065,72.43503296367999 71.5,72.07935148480465 73.47530288912822,72.3803127810097 74.33084808947751,72.55815331508347 76.64585274935234,72.76335371725145 79.36346691520885,73.74831245538371 78.82246039144229,73.37895354778448 78.55824790307088,73.44735340155603 77.35041938489303,72.96855389008124 74.48182665428612,72.76335371725145 72.53168685926357,72.27087236673106" stroke="yellow" stroke-linecap="round" stroke-linejoin="round" stroke-width="0.5"><title>2025-02-26 11.1km</title><desc>1740566027000</desc></polyline><polyline fill="none" points="103.80457089556148,72.50110373839561 101.55037313437788,72.22724762067082 102.55783582094591,72.21355480408238 107.65811567165656,72.91188714974851 108.37593283591559,73.30897690798156 108.804104477691,73.29528417198162 112.35541044780985,75.04794608819066 113.11100746272132,75.70518999772321 116.8260261194082,77.21136509267671 117.6697761194664,77.7864468729822 118.08535447763279,77.53998347315064 118.19869402988115,76.28027649060823 118.40018656721804,76.11596624768572 119.97434701496968,76.36243155699049 122.2411380597623,76.3761240645108 123.95382462686393,77.0470556821092 125.18796641792869,77.22505753691075 128.4244402985205,77.18398020112363 125.15018656715984,77.18398020112363 124.04197761195246,77.03336322457471 122.40485074633034,76.41720158084354 118.50093283585738,76.15704382221156 118.22388059704099,76.33504653896671 117.99720149260247,77.70429244310071 117.63199626869755,77.80013927438995 115.89412313431967,76.85536118410528 113.27472014928935,75.82842296913441 108.85447761195246,73.36374784176587 108.43889925378608,73.40482603141572 107.39365671644919,72.91188714974851 105.9958022388746,72.92557991432841 101.5,72.15878352751315 107.41884328360902,72.92557991432841 108.37593283591559,73.37744057270174 108.85447761195246,73.30897690798156 112.58208955224836,75.4039534975891 116.8260261194082,77.25244242236658 117.75792910449672,77.84121647248685 118.12313432840165,77.4441365061939 118.18610074633034,76.32135402840504 118.34981343289837,76.11596624768572 120.25139925378608,76.36243155699049 122.15298507467378,76.32135402840504 123.9286380597623,76.9922858459322 125.25093283585738,77.17028775379003 128.5,77.18398020112363 124.62126865674509,77.18398020112363 122.44263059704099,76.40350907643733 121.17070895520737,76.44458658664371 118.41277985076886,76.10227372084046 118.18610074633034,76.36243155699049 118.09794776124181,77.52629105238884 117.97201492538443,77.7727544705267 117.69496268656803,77.81383167476451 112.6828358208877,75.48610895569436 108.91744402988115,73.39113330256077 108.47667910455493,73.40482603141572 107.49440298508853,72.99404372186109 105.89505597023526,72.91188714974851 101.6385261194664,72.22724762067082 104.63572761201067,72.59695328319503 105.27798507467378,72.63803164420824 107.40625000005821,72.98035096240346 109.66044776124181,73.74714392134047 112.46875,75.19856469171646 108.94263059704099,73.40482603141572 105.27798507467378,72.69280277795042" stroke="yellow" stroke-linecap="round" stroke-linejoin="round" stroke-width="0.5"><title>2025-02-21 11.3km</title><desc>1740135343000</desc></polyline><polyline fill="none" points="133.71229050279362,72.60142751570675 131.57541899441276,72.17774091429601 134.64245810057037,72.51942373375641 137.5335195530788,72.99777861175244 138.33798882679548,73.40779608575394 139.12988826812943,73.44879778275208 142.66201117320452,75.4715367898898 146.74720670387615,77.24824859993532 147.66480446927017,77.80859260172292 148.07960893848212,77.50792042328976 148.21787709492492,76.29155976347101 148.3938547486323,76.15488952242595 150.14106145250844,76.38722887160839 152.40363128489116,76.40089588295086 153.84916201111628,77.0159103411861 155.08100558654405,77.22091470241139 158.43715083791176,77.2072477521433 157.43156424578046,77.34391720921849 154.42737430159468,77.17991384849302 152.3282122904784,76.46923092457291 148.45670391060412,76.19589060542057 148.19273743010126,76.41456289331836 148.00418994412757,77.64458965638187 147.61452513962286,77.79492569521244 142.8505586591782,75.66287581156939 138.86592178768478,73.4351305514574 138.28770949720638,73.40779608575394 137.3449720670469,72.99777861175244 135.7611731843208,72.90210773595027 131.5,72.16407358829747 137.40782122901874,72.95677681393863 138.76536312850658,73.3394599037565 142.07122905022698,74.97952124632138 143.1773743016529,75.73121112809167 147.80307262565475,77.74025805899873 148.05446927371668,77.52158735120611 148.14245810051216,76.37356185920362 148.31843575416133,76.15488952242595 152.2779329608311,76.38722887160839 153.8617318435572,77.0159103411861 155.13128491613315,77.22091470241139 158.5,77.24824859993532 157.10474860330578,77.35758414931479 154.4399441340356,77.19358080084203 152.40363128489116,76.46923092457291 148.41899441339774,76.18222357875493 148.15502793289488,76.44189691099746 148.09217877092306,77.49425349438388 147.84078212286113,77.83592641170253 143.64245810051216,76.01821917953203 138.8784916200675,73.40779608575394 138.45111731841462,73.4351305514574 137.42039106145967,73.0114458756434 134.11452513962286,72.58776022125676 135.19553072628332,72.71076583463582 137.3449720670469,72.95677681393863 139.46927374304505,73.76314382191049 138.91620111727389,73.40779608575394 138.23743016755907,73.39412885138881 137.01815642457223,72.94310954595858 135.92458100558724,72.929442276989 132.115921787743,72.21874288625258" stroke="yellow" stroke-linecap="round" stroke-linejoin="round" stroke-width="0.5"><title>2025-02-19 10.6km</title><desc>1739962218000</desc></polyline><polyline fill="none" points="163.45926966291154,72.37491943289933 161.5,72.18250210399856 164.82443820225308,72.53984841221245 167.47893258422846,73.00714638616773 168.21207865170436,73.37823511040187 168.74297752807615,73.35074708233878 173.38202247186564,75.90711616864428 177.83146067417692,77.81749789598689 178.0463483146159,77.54262404567271 178.18539325840538,76.34691803138412 178.40028089884436,76.19573625936755 182.4073033707682,76.4431245490996 184.21488764043897,77.18528742805938 188.5,77.26774978585308 184.44241573027102,77.21277488474152 182.35674157302128,76.45686833326181 178.65308988763718,76.19573625936755 178.4382022471982,76.4293807639333 178.21067415724974,76.37440561302355 178.0463483146159,77.6250862437737 177.6544943820336,77.77626684453571 172.53511235956103,75.50854482490104 168.7682584269205,73.40572313434677 167.33988764043897,72.97965830280737 162.47331460670102,72.29245488793822" stroke="#4DD2FF" stroke-linecap="round" stroke-linejoin="round" stroke-width="0.5"><title>2025-02-18 4.9km</title><desc>1739836925000</desc></polyline><polyline fill="none" points="14.419605077593587,102.39141602956806 14.381523272197228,102.72266962128924 15.777856135449838,102.6812629547203 17.631170662934892,102.99871382860874 20.055712270841468,104.29611609308631 21.363187588111032,104.72398080500716 22.581805359688587,105.60731127781037 26.681946403346956,107.29114832519554 27.621297602250706,107.85702455299906 27.964033850526903,107.59478944282455 28.052891396335326,106.36642003789893 28.25599435827462,106.18699461169308 32.254583920992445,106.50443947828899 34.10789844853571,107.23594079579925 38.5,107.31875208373822 34.2475317348144,107.15312947086932 32.279971791256685,106.42162782640662 28.357545839215163,106.17319264860998 28.12905500701163,106.42162782640662 28.065585331467446,107.51197827825672 27.86248236958636,107.80181719218672 23.203808180522174,105.85574721441662 19.446403385023586,103.73022898859926 17.52961918193614,102.95730722373992 11.5,102.14297544701549 17.567700987274293,102.9711094263912 19.31946403387701,103.75783327773388 17.567700987274293,102.9711094263912" stroke="#4DD2FF" stroke-linecap="round" stroke-linejoin="round" stroke-width="0.5"><title>2025-02-14 5.4km</title><desc>1739506837000</desc></polyline><polyline fill="none" points="44.450957496475894,102.57987319130916 46.720924801484216,102.85411259061948 48.763895376061555,103.36145440200926 53.8082671649172,106.06268320267554 57.67982251284411,107.83148667388014 57.99509574967669,107.77664030999586 58.48692199907964,106.5425928015029 58.85263895383105,106.25464719238516 62.434142923913896,106.46032267346163 64.45189163944451,107.26931066915859 68.5,107.31044555701374 64.36361513310112,107.26931066915859 62.39631013548933,106.48774605354993 58.915693601127714,106.30949400977988 58.57519850542303,106.47403436400054 57.8815973844612,107.83148667388014 53.54343764600344,106.07639492284216 48.801728164427914,103.4163020816195 47.654133582429495,103.04607992697856 41.5,102.16851332611986 47.47758056985913,102.96380823590152 48.86478281178279,103.4163020816195 53.568659504991956,105.98041286005173 57.64198972447775,107.80406349399709 58.020317608607,107.70808233214484 58.537365716998465,106.50145774206612 58.94091546011623,106.30949400977988 62.446753853408154,106.50145774206612 64.36361513310112,107.22817577212118 68.5,107.29673392875702 66.77230266231345,107.39271530508995 64.35100420366507,107.20075250235095 62.37108827655902,106.48774605354993 58.903082671633456,106.24093548544624 58.57519850542303,106.46032267346163 58.007706679112744,107.74921712193463 57.80593180761207,107.79035190248396 53.31644091551425,105.89814248066978 49.243110695970245,103.62198073463514 47.956795889826026,103.08721575871459 41.525221858988516,102.19593734575028 44.72839794488391,102.4701773171837 47.654133582429495,102.96380823590152 49.40705277910456,103.86879481481446 48.7512844465673,103.40259016325581 48.58734236337477,103.48486165815848 47.46496964042308,102.99123213702114" stroke="yellow" stroke-linecap="round" stroke-linejoin="round" stroke-width="0.5"><title>2025-02-12 10.1km</title><desc>1739334019000</desc></polyline><polyline fill="none" points="93.2081545064575,106.88294611990568 94.34120171674294,107.27492785625509 98.5,107.30292652043863 94.48283261799952,107.33092518041667 92.55150214594323,106.4629647807451 88.76609442062909,106.21097552671563 87.94206008582842,107.79290246810706 87.69742489268538,107.83490034703573 82.65021459222771,105.62299928659922 81.29828326177085,104.75503099813068 77.71888412017142,103.07508098578546 71.5,102.09510320893605 77.48712446348509,102.92108481645118 79.48283261799952,103.691064400904 82.01931330468506,104.92302517332428 83.29399141634349,105.81899157105363 87.60729613731382,107.76490387695958 87.95493562234333,107.63891016508569 88.48283261799952,106.37896840029862 88.8047210299992,106.19697611383162 91.12231759657152,106.44896538663306 92.28111587982858,106.37896840029862 94.35407725319965,107.23292985217995 98.3326180257136,107.28892718885618 92.88626609439962,106.89694548169791 92.95064377685776,107.28892718885618 92.83476394851459,106.82694866225938 92.37124463520013,106.6169580474234 88.8047210299992,106.25297375918308 88.54721030045766,106.39296779962024 87.83905579400016,107.90489679106395 82.9849785407423,105.81899157105363 82.0965665235999,105.1050186936045 80.46137339057168,104.32104535045801" stroke="#4DD2FF" stroke-linecap="round" stroke-linejoin="round" stroke-width="0.5"><title>2025-02-10 6.3km</title><desc>1739162078000</desc></polyline><polyline fill="none" points="101.69296316656983,103.91114641839522 103.32572842220543,103.95954015541065 110.68801539303968,105.04033080600493 112.94420010992326,104.94354380277218 113.13716327649308,105.68557639195933 113.98323254531715,105.73396973362833 114.97773501917254,106.10498499500682 115.66052776243305,105.12098660909396 121.74628916976508,105.0080684764107 122.0728422209504,105.5726585527882 122.45876855409006,105.6694452756783 122.71110500267241,105.52426517516142 122.96344145131297,104.84675675648032 124.12122045073193,104.76610085157154 128.5,105.31456041423371 124.38840021984652,104.74996966698382 122.91891148983268,104.83062557787343 122.63688840012765,105.52426517516142 122.38455195154529,105.65331415816036 121.74628916976508,104.99193730978004 115.73474436497781,105.08872429144685 115.30428807029966,105.37908497764147 115.00742166023701,106.12111607895349 113.21137987897964,105.70170750709076 113.21137987897964,105.07259313082614 113.01841671246802,104.91128145880066 110.836448598071,105.02419964180444 103.93430456286296,104.00793388161401 101.5,103.89501517031749 103.60775151179405,103.97567139865714 110.36146234191256,104.99193730978004 112.91451346885879,104.91128145880066 113.12231995596085,105.6694452756783 114.99257833970478,106.10498499500682 115.43787795485696,105.26616697912687 115.82380428799661,105.08872429144685 121.68691588781076,104.99193730978004 122.10252886195667,105.58878967624332 122.39939527207753,105.65331415816036 122.71110500267241,105.45974065490009 122.82985156675568,104.9274126313976 123.2009345794213,104.782232034966 128.1882902692887,105.26616697912687 124.59620670694858,104.74996966698382 123.14156129735056,104.74996966698382 122.74079164373688,104.95967497299716 122.48845519515453,105.65331415816036 122.19158878503367,105.58878967624332 121.73144584929105,104.95967497299716 115.67537108296528,105.07259313082614 115.31913139077369,105.3468226983241 115.02226498071104,106.10498499500682 113.19653655850561,105.68557639195933 113.01841671246802,104.84675675648032 110.59895547002088,104.94354380277218 103.14760857610963,103.87888392106106 101.84139637160115,103.92727766525059 103.1772952171159,103.91114641839522 111.26690489274915,105.05646196904127 112.98873007140355,104.91128145880066 113.15200659696711,105.68557639195933 114.30978559644427,105.83075638464652 113.21137987897964,105.6694452756783 112.91451346885879,104.86288793385029 110.67317207250744,104.95967497299716 103.83040131937014,103.95954015541065 102.00467289716471,103.92727766525059 103.96399120398564,104.00793388161401" stroke="#4DD2FF" stroke-linecap="round" stroke-linejoin="round" stroke-width="0.5"><title>2025-01-25 9.9km</title><desc>1737761473000</desc></polyline><polyline fill="none" points="131.85999999998603,103.67958222994639 140.66499999997905,104.95109960414993 143.2150000000256,104.83698937139707 143.20000000001164,105.8802807196771 144.19000000006054,105.92918487996212 145.0449999999837,106.32041777003906 145.76500000001397,105.26082707967726 151.89999999996508,105.11411411940935 152.47000000003027,105.83137654850725 152.84499999997206,105.71726677336846 152.95000000001164,105.11411411940935 153.19000000000233,104.9347981459432 158.5,105.4401427868288 154.36000000004424,104.88589376410528 153.05499999999302,105.00000397142139 152.65000000002328,105.81507515568228 152.32000000000698,105.71726677336846 152.18500000005588,105.22822420809825 151.89999999996508,105.09781267333892 145.7949999999837,105.21192277049704 145.49499999999534,105.37493709207047 145.1350000000093,106.28781505582447 143.3049999999348,105.84767794008076 143.1699999999837,105.03260687693546 141.08499999996275,105.17931989162753 132.9100000000326,103.98931149968121 131.5,104.00561302807182 133.3300000000163,104.05451760602591 140.61999999999534,105.14671700797044 142.96000000002095,105.01630542478233 143.15500000002794,105.19562133168802 143.15500000002794,105.76617096997506 145.0449999999837,106.28781505582447 145.75,105.22822420809825 151.8850000000093,105.09781267333892 152.2600000000093,105.71726677336846 152.60500000003958,105.81507515568228 153.2500000000582,104.91849668655777 157.59999999997672,105.26082707967726 153.36999999999534,104.86959230109642 152.95000000001164,105.00000397142139 152.875,105.63575975484855 152.60500000003958,105.78247236640891 151.8850000000093,105.04890832783713 145.82500000001164,105.21192277049704 145.43500000005588,105.45644420747703 145.0900000000256,106.25521233676409 143.29000000003725,105.81507515568228 143.06500000000233,104.9837025168963 141.0700000000652,105.16301845037378 133.05999999999767,103.97300997006823 131.8300000000163,104.02191455524007 133.21000000002095,103.98931149968121 135.13000000000466,104.2990403323638" stroke="#4DD2FF" stroke-linecap="round" stroke-linejoin="round" stroke-width="0.5"><title>2025-01-19 8.1km</title><desc>1737283232000</desc></polyline><polyline fill="none" points="165.0688930406468,102.54559556867753 167.32624941616086,102.86097072510165 168.28468005603645,103.35460031981347 168.99089210649254,103.36831223411718 172.3453993460862,105.12342882853409 172.76156001875643,105.50735835250816 176.86011209717253,107.26245454901073 177.78070994862355,107.83834184188163 178.03292853810126,107.68751439168409 178.57519850536482,106.41233191877836 178.92830453056376,106.20665649898001 182.24497898179106,106.37119685320067 184.36361513315933,107.1253382613213 188.5,107.23503129964229 184.27533862675773,107.1253382613213 182.35847734700656,106.34377347106056 178.9787482485408,106.17923309230537 178.58780943485908,106.33006177845527 178.0203176085488,107.68751439168409 177.84376459597843,107.76978392529418 173.29121905652573,105.8638636218966 168.83956095285248,103.3957360596105 168.48645492759533,103.42315988104383 167.4271368519403,102.95695436111419 164.52662307338323,102.68271526831086 161.5,102.10681184323039 167.61630079406314,102.99809018976521 168.90261560020735,103.3820241473586 173.51821578701492,105.90499880086281 176.84750116767827,107.27616617218882 177.66721158334985,107.86576500133378 178.00770667917095,107.75607233893243 178.56258757587057,106.49460202235787 178.9787482485408,106.27521499778959 182.44675385334995,106.43975529070303 184.4014479215257,107.15276152703154 188.5,107.26245454901073 184.37622606259538,107.23503129964229 182.30803362914594,106.45346697515924 178.96613731898833,106.27521499778959 178.6130312937894,106.43975529070303 178.0203176085488,107.79720709499088 177.56632414762862,107.81091867831128 172.53456328820903,105.50735835250816 168.95305931806797,103.46429560551769 168.4990658570896,103.49171941670647 167.5154133582837,103.02551407046849 161.55044371786062,102.14794786194398 167.75502101820894,103.01180213062617 168.44862213917077,103.4094479708292 168.85217188228853,103.36831223411718 173.50560485757887,105.91871052514762 177.85637552547269,107.89318815675506 178.66347501165,106.38490854275005 180.0128444652073,106.38490854275005 178.82741709484253,106.37119685320067 178.0203176085488,107.82463026058394 177.64198972447775,107.76978392529418 172.49673049978446,105.50735835250816 168.9152265296434,103.45058369837352 168.54950957500841,103.47800751162868 167.540635217214,103.01180213062617 164.71578701538965,102.68271526831086" stroke="yellow" stroke-linecap="round" stroke-linejoin="round" stroke-width="0.5"><title>2025-01-17 12.3km</title><desc>1737088953000</desc></polyline><polyline fill="none" points="14.23033707862487,132.42302440077765 14.407303370768204,132.120654267419 15.178370786481537,132.62918557113153 18.76825842697872,133.34387584461365 20.790730337030254,134.38841818661604 21.57443820219487,135.0068944171362 27.76825842697872,137.86560205288697 28.00842696626205,137.70067781642138 28.539325842633843,136.44999755834579 28.867977528017946,136.23009685630677 32.394662921258714,136.44999755834579 34.328651685325895,137.1646730297216 38.48735955049051,137.23339167913946 34.417134831426665,137.1646730297216 32.24297752807615,136.44999755834579 28.96910112357,136.285072056402 28.589887640438974,136.42250998494274 27.995786516810767,137.79688363893365 27.831460674118716,137.85185837215977 23.217696629173588,135.87275765649974 18.80617977521615,133.3851078912994 17.352528089890257,133.01401913940208 11.5,132.18937479579472 17.23876404494513,132.95904296450317 18.43960674153641,133.3851078912994 18.780898876371793,133.34387584461365 23.723314606701024,136.06517115778115 26.731741572963074,137.24713540593802 27.629213483131025,137.8243710076058 27.97050561796641,137.74190888936573 28.514044943789486,136.4362537721463 28.89325842692051,136.24384065787308 32.26825842697872,136.44999755834579 34.30337078642333,137.15092929675302 38.5,137.20590422245732 34.36657303367974,137.15092929675302 32.38202247186564,136.50497269288462 28.98174157302128,136.2575844584353 28.589887640438974,136.44999755834579 27.869382022472564,137.87934573259554 23.41994382016128,135.96896443222067 18.84410112357,133.45382794861507 18.224719101097435,133.42633992875926 17.554775280877948,133.04150722068152 13.067415730387438,132.39553622729727" stroke="#4DD2FF" stroke-linecap="round" stroke-linejoin="round" stroke-width="0.5"><title>2025-01-15 9.1km</title><desc>1736916504000</desc></polyline><polyline fill="none" points="43.85384615382645,132.0163992854359 44.03006993007148,132.31750124892278 44.64685314684175,132.6870348022203 47.73076923075132,133.193431427193 49.40489510493353,133.74088566757564 51.393706293660216,135.0410829497123 57.674825174792204,137.91517060415936 57.951748251740355,137.84674046823056 58.48041958041722,136.61499366331554 58.90839160839096,136.38232945061463 62.38251748250332,136.6013075413066 64.2832167831948,137.3540427372791 68.5,137.44984517733974 64.23286713287234,137.3951009320008 62.34475524473237,136.64236590423388 58.89580419572303,136.38232945061463 58.48041958041722,136.61499366331554 57.88881118874997,137.92885662827757 57.49860139854718,137.92885662827757 53.3699300698936,136.09492031051195 48.80069930071477,133.54927686903102 48.536363636376336,133.6313949500327 46.937762237736024,133.1249995324033 41.5,132.35856056932244 46.05664335662732,132.9060172978352 48.77552447555354,133.50821781477134 52.841258741216734,135.75276598599157 57.7503496503341,137.9836007145641 58.03986013983376,137.81936840673734 58.631468531501014,136.4370739977603 59.91538461536402,136.4644462652068 58.669230769213755,136.49181852857873 57.85104895103723,137.96991469453496 53.05524475523271,136.012803330741 48.87622377619846,133.57664956674853 47.40349650348071,133.152372293378 43.438461538462434,132.60491629906755" stroke="#4DD2FF" stroke-linecap="round" stroke-linejoin="round" stroke-width="0.5"><title>2025-01-14 7.8km</title><desc>1736829619000</desc></polyline><polyline fill="none" points="75.19209302327363,132.72654975694604 74.97860465117265,132.4261489259079 75.48093023255933,132.4807672954339 79.70046511630062,133.83256675465964 82.29999999998836,135.11608428576437 83.45534883724758,135.92169176170137 87.6372093023383,137.83328855168656 87.91348837205442,137.75136338391167 88.47860465117265,136.46786430753127 88.84279069764307,136.24939548449765 92.246046511631,136.46786430753127 93.87860465119593,137.13692345813615 95.04651162790833,137.28712007463037 98.5,137.28712007463037 94.11720930231968,137.17788618394115 92.25860465120059,136.46786430753127 88.88046511629364,136.23574117440148 88.516279069765,136.3859385294054 87.92604651162401,137.75136338391167 87.57441860466497,137.76501758108498 83.36744186043506,135.94900042764493 79.5246511628502,133.84622124377347 77.59069767442998,133.0406046447606 71.5,132.18036606154055 77.6660465116147,133.06791374000022 79.5246511628502,133.7642942937382 82.89023255812936,135.66225923228194 87.59953488374595,137.79232597236114 87.90093023260124,137.71040078626538 88.40325581392972,136.48151860031066 88.76744186051656,136.24939548449765 92.35906976746628,136.48151860031066 94.24279069766635,137.19154042382434 98.37441860465333,137.30077430640813 94.15488372097025,137.15057770107524 92.27116279071197,136.44055571890203 88.75488372094696,136.23574117440148 88.45348837209167,136.4132471261546 87.86325581400888,137.79232597236114 87.38604651164496,137.75136338391167 86.74558139534201,137.3144285371527 83.19162790698465,135.89438309169782 78.72093023255002,133.36831351909495 77.37720930232899,132.99964099425415 71.55023255816195,132.16671144829888 78.746046511631,133.35465899437258 83.21674418606563,135.8124570572254 86.78325581399258,137.28712007463037 87.61209302331554,137.81963435962098 87.90093023260124,137.73770918569062 88.45348837209167,136.39959282831114 88.80511627910892,136.23574117440148 92.18325581395766,136.4132471261546 93.92883720929967,137.10961496920208 94.9837209302932,137.218848900593 93.87860465119593,137.10961496920208 92.1455813953653,136.4132471261546 88.83023255813168,136.19477823805937 88.47860465117265,136.3586299285671 87.91348837205442,137.68309238275106 87.46139534882968,137.69674658500298 86.29348837211728,137.05499797906668 83.21674418606563,135.86707441759063 78.70837209298043,133.36831351909495 76.975348837208,132.93136822307133" stroke="yellow" stroke-linecap="round" stroke-linejoin="round" stroke-width="0.5"><title>2025-01-10 13.0km</title><desc>1736482744000</desc></polyline><polyline fill="none" points="104.08644859812921,131.96141392319987 105.3228971962817,132.798237346753 107.46775700937724,133.20978845492937 109.57476635515923,134.01916961750248 111.85841121495469,135.37727577805344 117.76308411220089,138.03858607680013 118.04065420560073,137.81909802286827 118.15420560748316,136.61190904994146 118.31822429905878,136.4061374128505 122.29252336453646,136.66678144766774 124.37429906544276,137.43499329901533 128.43691588786896,137.5310195550701 124.19766355142929,137.39383917392115 122.29252336453646,136.68049954454182 118.39392523368588,136.39241929554555 118.14158878510352,136.68049954454182 118.04065420560073,137.87397006087122 117.76308411220089,138.03858607680013 113.24626168224495,136.1180567345873 108.8051401869161,133.6350569669885 107.41728971962584,133.20978845492937 101.5,132.38668531864823 107.74532710283529,133.23722516276757 108.36355140188243,133.58018366577744 108.79252336447826,133.58018366577744 113.32196261687204,136.06318417331204 117.57383177569136,137.98371408780804 118.00280373834539,137.87397006087122 118.12897196266567,136.62562715091917 118.35607476637233,136.41985552910774 122.29252336453646,136.68049954454182 124.47523364488734,137.43499329901533 128.5,137.4898654514691 124.13457943929825,137.38012113017612 122.27990654204041,136.62562715091917 118.40654205612373,136.41985552910774 118.19205607479671,136.55703663584427 118.17943925235886,137.5310195550701 117.85140186920762,138.02486808106187 113.15794392529642,136.07690231518063 108.8303738317918,133.6213386432355 107.32897196261911,133.20978845492937 101.5,132.34553006525675 105.91588785045315,132.9079843988875 108.74205607484328,133.5527470090601 112.89299065427622,135.87113008019514 117.59906542062527,137.98371408780804 117.9523364486522,137.8876880677999 118.22990654211026,137.20178646860586 117.9523364486522,137.95627808723657 117.3971962617361,137.87397006087122 113.23364485986531,136.09062045598694 108.8051401869161,133.53902867915167 108.5149532710202,133.60762031842023 107.54345794394612,133.14119666744955 105.94112149538705,132.9628579003911" stroke="yellow" stroke-linecap="round" stroke-linejoin="round" stroke-width="0.5"><title>2025-01-08 12.0km</title><desc>1736310892000</desc></polyline><polyline fill="none" points="134.3779803646612,133.33933692522987 134.75666199158877,132.73544648638926 134.80715287517523,132.14527891749458 135.0469845722546,131.93940606489195 135.32468443200924,131.99430551474507 135.19845722295577,132.09037951262144 136.42286115005845,132.55702393241518 137.05399719497655,133.07856629676826 139.64165497897193,133.98439952534682 143.9333800841705,136.3038612754026 147.79593267879682,138.0194207050954 148.04838709672913,137.77238113178464 148.08625525946263,136.63324992507114 148.43969144462608,136.39993302573566 152.3022440392524,136.67442346489406 154.32187938288553,137.44299451877305 158.5,137.52534122725774 154.2966339411214,137.4155456078006 152.35273492283886,136.701872486301 148.38920056103962,136.44110661765444 148.12412342213793,136.71559699546196 148.08625525946263,137.77238113178464 147.87166900420561,138.06059393510805 143.13814866764005,136.04309484337864 138.80855539970798,133.61383192476933 138.32889200560749,133.61383192476933 137.4453015428153,133.1883645011112 131.5,132.43350052455207 137.6220196353388,133.3118874027423" stroke="#4DD2FF" stroke-linecap="round" stroke-linejoin="round" stroke-width="0.5"><title>2025-01-06 5.2km</title><desc>1736137119000</desc></polyline><polyline fill="none" points="164.99485981307225,132.928562635876 165.0579439252033,132.4072630507144 165.47429906547768,131.78993268574413 165.77710280369502,132.8599706695386 165.3481308410992,133.14805675648677 166.142990654218,133.10690162880928 168.76728971960256,133.73794590907346 172.32523364486406,135.41157461293915 172.9939252336626,136.00145651404455 177.78831775696017,138.12775931242504 178.07850467285607,137.94942518226162 178.12897196260747,136.79710817785235 178.36869158875197,136.5776184071001 182.51962616824312,136.86569867758953 184.51308411208447,137.62019248823344 188.5,137.68878268137632 184.34906542056706,137.59275640384294 182.380841121485,136.82454438084096 178.41915887850337,136.5776184071001 178.17943925235886,136.78339007488103 178.09112149535213,137.94942518226162 177.83878504676977,138.196349316524 173.3093457944342,136.33069210224494 169.60000000003492,134.2318051415641 167.73271028039744,133.47729744679236 161.5,132.5032920325757 165.73925233643968,133.02459134583478 168.74205607478507,133.69679091326543 172.55233644862892,135.80940214906877 176.955607476586,137.72993678499188 177.6369158878806,138.21006731427042 178.06588785047643,137.90827112768602 178.17943925235886,136.7147995444975 178.35607476631412,136.53646404594474 181.15700934577035,136.86569867758953 182.380841121485,136.79710817785235 184.4121495326981,137.5790383600979 188.48738317756215,137.6476285685494 184.071495327109,137.51044812609325 182.3051401869161,136.82454438084096 178.4570093458169,136.53646404594474 178.17943925235886,136.74223575972428 178.1415887849871,137.86711706395727 177.86401869158726,138.1414773153083 173.37242990656523,136.3169739645091 169.62523364485241,134.1494953614456 168.07336448598653,133.55960752739338 161.66401869157562,132.57188413178665" stroke="#4DD2FF" stroke-linecap="round" stroke-linejoin="round" stroke-width="0.5"><title>2025-01-03 9.5km</title><desc>1735878536000</desc></polyline><polyline fill="none" points="14.19367681501899,162.38056400204368 15.774473067955114,162.8205805155012 17.58290398126701,162.98558643754222 18.45550351293059,163.42560150848294 18.784309133479837,163.38435014015704 22.54028103046585,165.46065756570897 27.586182669794653,167.78444413695252 27.96557377051795,167.71569347495097 28.484074941428844,166.46442695207952 28.863466042210348,166.244423170152 32.25269320845837,166.45067672338337 34.26346604217542,167.2069377801672 38.5,167.33068929443834 34.579625292739365,167.22068795251835 32.40444964868948,166.51942785659048 28.888758782239165,166.31317438014958 28.484074941428844,166.53317808016436 27.81381733022863,167.83944464811066 22.907025761145633,165.77691426275123 18.771662763494533,163.46685286761203 18.44285714288708,163.49435376854672 17.431147541035898,163.01308741021785 16.002107728330884,162.94433497085993 11.5,162.1605553519039 17.532318501209375,162.9993369243748 19.315456674492452,163.83811468470958 17.646135831426363,163.04058837877528 13.940749414497986,162.47681770399504" stroke="#4DD2FF" stroke-linecap="round" stroke-linejoin="round" stroke-width="0.5"><title>2025-01-02 5.6km</title><desc>1735817809000</desc></polyline><polyline fill="none" points="44.61635514016962,162.48957241272728 47.61915887851501,162.9834340737143 48.502336448582355,163.44985775944951 49.34766355139436,163.60075928716105 53.940186915919185,166.12491196051997 57.813551401835866,167.7985158522206 58.14158878498711,167.45556547415617 58.5074766355101,166.5364553113759 58.949065420543775,166.31696563870355 62.19158878503367,166.42671050774516 64.56355140189407,167.29094906584942 68.5,167.318385144099 66.96074766351376,167.4144113858638 64.33644859812921,167.24979494075524 62.36822429904714,166.48158291775326 58.96168224303983,166.28952941122407 58.57056074764114,166.44042861179332 57.99018691590754,167.74364383463399 57.775700934638735,167.83966985462757 51.59345794393448,165.12348596453376 48.75467289716471,163.44985775944951 48.35093457950279,163.4772944100696 47.480373831815086,163.03830750983616 41.5,162.1466121465637 47.02616822428536,162.9148422555736 48.45186915888917,163.4224211047549 48.75467289716471,163.34011111616564 52.804672897211276,165.61734056101704 57.775700934638735,167.8533878534363 58.608411214954685,166.39927429663658 58.949065420543775,166.26209317967005 59.90794392518001,166.38555618951796 58.58317757007899,166.3718380814098 57.99018691590754,167.71620781972888 57.76308411214268,167.78479784933734 53.18317757011391,165.8505492155964 48.94392523361603,163.49101273382257 48.37616822432028,163.44985775944951 47.366822429932654,162.99715243428363 46.28177570091793,163.03830750983616 41.878504672902636,162.1877674122661 44.65420560748316,162.70906664781796" stroke="#4DD2FF" stroke-linecap="round" stroke-linejoin="round" stroke-width="0.5"><title>2024-12-31 8.0km</title><desc>1735619151000</desc></polyline><polyline fill="none" points="75.25981308415066,162.68163005549286 76.18084112153156,162.70906681849738 78.81775700941216,163.32639290584484 80.3570093458402,164.14949113606417 80.79859813087387,164.60219359426992 87.86401869158726,167.79851564374985 88.5327102803858,166.49530090630287 88.91121495328844,166.28952931518143 92.4060747664189,166.48158280736243 94.14719626167789,167.1812045493425 98.48738317762036,167.2909488951409 94.31121495331172,167.24979477316083 92.3808411215432,166.49530090630287 88.92383177578449,166.28952931518143 88.5579439252615,166.45414660645474 87.80093457951443,167.8533876408619 83.53644859814085,166.02888496963715 79.67570093460381,163.9025620533357 77.42990654206369,163.01087094201648 71.5,162.14661235915264 76.26915887853829,162.7639403322828 78.77990654209862,163.34011123984237 83.53644859814085,165.91913987169391 87.687383177632,167.83966964311549 88.00280373834539,167.7162076173845 88.5327102803858,166.48158280736243 88.96168224303983,166.2483749693638 92.33037383185001,166.45414660645474 94.37429906544276,167.2086406419403 98.5,167.2223586866894 94.52570093463873,167.23607673043443 92.31775700935395,166.48158280736243 88.89859813085059,166.26209308562102 88.5327102803858,166.45414660645474 87.9775700934697,167.70248960940808 87.77570093458053,167.79851564374985 83.20841121498961,165.87798544309044 78.8808411215432,163.4498578749335 76.98831775703002,162.98343422396283 71.70186915888917,162.21520445837814 77.26588785048807,162.96971586337895 78.42663551407168,163.4361395491287 78.91869158885675,163.38126623566495 82.93084112147335,165.60362235069624 78.8556074766675,163.4087028944341 75.04532710282365,162.6953484374826" stroke="yellow" stroke-linecap="round" stroke-linejoin="round" stroke-width="0.5"><title>2024-12-30 10.8km</title><desc>1735533491000</desc></polyline><polyline fill="none" points="105.2905783582246,162.63118403371482 107.75886194035411,163.04196738389146 108.45149253733689,163.43905708294187 108.80410447763279,163.39797887799796 109.52192164183361,163.69921883432835 112.6072761194664,165.4518778778147 117.61940298508853,167.75221750879427 117.98460820899345,167.76590992040292 118.5135261194082,166.46512626300682 118.92910447763279,166.23235347957234 122.24113805964589,166.45143375448242 124.21828358207131,167.21821266037296 128.5,167.28667490713997 124.38199626869755,167.21821266037296 122.36707089556148,166.47881877052714 118.87873134331312,166.2597385282279 118.53871268656803,166.46512626300682 118.09794776124181,167.57421606502612 117.75792910443852,167.8206795566366 113.04804104479263,165.83526981562318 109.69822761195246,163.9183021288336 107.78404850745574,163.13781670015305 101.5,162.15193563136563 107.56996268656803,163.02827462034475 109.98787313431967,163.9183021288336 112.53171641792869,165.4518778778147 117.72014925372787,167.84806436863437 117.97201492532622,167.77960233097838 118.55130597011885,166.47881877052714 118.90391791041475,166.3145086132572 122.34188432834344,166.50620378245367 124.23087686568033,167.23190511175198 128.46222014923114,167.27298245980637 127.17770522390492,167.3825220097351 124.29384328355081,167.23190511175198 122.32929104479263,166.45143375448242 118.91651119402377,166.2597385282279 118.56389925378608,166.41035622282652 117.98460820899345,167.7385250961379 117.6068097014795,167.7932947405643 113.5265858208877,166.01327294346993 112.1916977611836,165.19171860741335 107.75886194035411,163.0830456684198 102.14225746266311,162.28886387386592" stroke="#4DD2FF" stroke-linecap="round" stroke-linejoin="round" stroke-width="0.5"><title>2024-12-27 9.1km</title><desc>1735273142000</desc></polyline><polyline fill="none" points="153.21355140185915,166.6256229057908 152.22943925234722,166.3512609988975 151.18224299064605,166.47472390759503 148.72196261683712,166.24151612172136 147.85140186920762,167.80537444740185 143.27149532712065,165.93971737210813 138.729439252289,163.4429996527906 138.36355140188243,163.4841546148964 137.3794392523705,163.0451678782265 131.5,162.11231758758368 135.6130841121776,162.77080063631 136.01682242995594,162.7022087619407 138.9060747663607,163.4292813300417 142.1233644859749,165.04803635863937 142.60280373838032,165.4870183202729 147.57383177569136,167.76422045107756 147.93971962615615,167.73678444843972 148.44439252332086,166.47472390759503 148.8481308410992,166.2277980074432 152.3303738317336,166.4472877128428 154.4626168224495,167.24293570168084 158.5,167.35267998208292 154.0462616822333,167.16062744848023 152.48177570092957,166.48844200343592 148.83551401866134,166.24151612172136 148.57056074769935,166.3238247857371 148.0028037383454,167.7779384508467 147.75046728970483,167.88768241243088 146.66542056074832,167.24293570168084 143.12009345792467,165.84369039350713 138.96915887854993,163.41556300628872 136.1177570093423,162.77080063631 133.12757009343477,162.37296740929014" stroke="#4DD2FF" stroke-linecap="round" stroke-linejoin="round" stroke-width="0.5"><title>2024-12-25 6.6km</title><desc>1735101299000</desc></polyline><polyline fill="none" points="164.3035547240288,162.3499114674487 164.20252572494792,162.59707365858776 164.36669784842525,162.54214875587786 164.60664172121324,162.14394272156642 165.37698783905944,162.67946098199172 166.23573433113052,162.72065462985483 168.875116931682,163.39348290860653 173.54770813841606,165.9474617716769 177.84144059871323,167.80113394290674 178.01824134704657,167.78740310648573 178.54864359210478,166.482968980461 178.9401309635141,166.27700485353125 182.32460243214155,166.46923804581456 184.50935453694547,167.29309231344087 188.5,167.3617466695432 184.31992516369792,167.25189968752966 182.19831618334865,166.4555071101786 178.8264733396354,166.29073580245313 178.54864359210478,166.42804523576342 177.98035547242034,167.71874890891195 177.75304022448836,167.75994143051503 173.0930776426685,165.8376139467582 169.59494855004596,163.80541737709427 167.6122544434038,163.0090099072404 161.5,162.15767397846503 163.57109448075062,162.47349260444753 164.5561272216728,162.44603013670712 168.02899906452512,163.13259060231212 169.60757717490196,163.75049283450062 173.93919550976716,166.139695307691 177.63938260055147,167.78740310648573 178.03086997190258,167.74621059102356 178.66230121609988,166.34565958805615 179.95042095414829,166.34565958805615 178.7001870907261,166.30446675040002 177.96772684750613,167.85605727841903 173.42142188962316,165.97492371764383 170.97146866226103,164.533166021356 167.7385406921967,163.1051282327826 161.53788587456802,162.17140523433045 166.7282507015625,162.9128915315814" stroke="#4DD2FF" stroke-linecap="round" stroke-linejoin="round" stroke-width="0.5"><title>2024-12-18 8.3km</title><desc>1734495982000</desc></polyline><polyline fill="none" points="14.346082089585252,191.22766501444858 13.88013059698278,191.33720875928702 14.043843283609021,191.2002790680126 13.88013059698278,191.30982282919285 13.77938432834344,191.15920014071162 13.82975746266311,191.29612986261782 14.849813432840165,192.00816277172999 17.078824626863934,192.9940499374352 17.60774253733689,193.82931131424266 18.19962686568033,194.294865188087 18.85447761195246,194.39071436863742 23.476212686568033,196.8827755178354 27.657182835857384,198.75864541104238 27.959421641775407,198.77233782161784 28.551305970177054,197.45786175366084 28.91651119402377,197.25247401886736 32.41744402988115,197.47155426118115 34.62126865674509,198.2383330527955 38.5,198.3067952893325 34.28125,198.2383330527955 32.41744402988115,197.48524676763918 28.853544776211493,197.26616654163809 28.488339552248362,197.47155426118115 27.858675373136066,198.827107453777 21.67537313431967,196.23922450137616 21.247201492486056,195.81475344867795 19.69822761201067,194.9384230129217 17.834421641833615,194.19901595752162 11.5,193.17205677866878 17.519589552248362,193.966239046611 18.577425373194274,194.43179257358133 18.80410447763279,194.3633288935671 23.52658582094591,196.9375457130518 26.77565298503032,198.224640602406 27.669776119408198,198.77233782161784 28.009794776153285,198.69018334276916 28.639458955207374,197.37570668727858 29.949160447809845,197.33462914035772 28.71501865668688,197.4167842250754 28.060167910472956,198.84079985928838 27.493470149231143,198.79972263977106 23.224347014911473,196.96493080456275 22.053171641833615,196.1981467004225 17.796641791064758,194.1305521907925 11.600746268639341,193.26790654481738 17.60774253733689,193.99362458083488" stroke="#4DD2FF" stroke-linecap="round" stroke-linejoin="round" stroke-width="0.5"><title>2024-12-17 8.6km</title><desc>1734409492000</desc></polyline><polyline fill="none" points="44.82928538066335,192.51817044784548 47.528024287719745,192.943241374247 48.51167678658385,193.4094470678392 48.83956095285248,193.31346363923512 53.51821578707313,195.89128691218502 57.7680990191875,197.72864954722172 57.995095749618486,197.7012263591605 58.575198505364824,196.34377344252425 58.890471742197406,196.16552130579657 62.54764128912939,196.4260436012264 64.37622606259538,197.1253384656884 68.5,197.19389664274058 68.09645025688224,197.33101292021456 64.36361513310112,197.19389664274058 62.2071461933665,196.3986202190863 58.96613731904654,196.26150324700575 58.47431106958538,196.56316045073618 57.93204110232182,197.72864954722172 57.71765530126868,197.79720749956323 53.89654367114417,196.1792330147291 48.76389537600335,193.43687089538435 48.09551611403003,193.35459940048167 47.389304063573945,192.943241374247 41.5,192.13423457366298 47.47758056985913,192.9295294242038 48.322512844461016,193.38202323621954 48.81433909392217,193.3408874810848 53.480382998648565,195.87757518180297 57.67982251284411,197.71493795371498 58.03292853804305,197.68751476357284 58.461700140091125,196.522025406608 58.890471742197406,196.1929447226721 62.58547407761216,196.4260436012264 64.33839327422902,197.1253384656884 68.42433442315087,197.23503153667843 64.56539000466,197.19389664274058 62.35847734706476,196.3986202190863 58.877860812761355,196.2340798403311 58.562587575928774,196.384908526481 57.90681924339151,197.79720749956323 53.392106492305174,195.94613382358511 48.776506305497605,193.43687089538435 47.6541335824877,193.03922499594046 41.651331153698266,192.16165859125613 47.45235871087061,192.943241374247 48.335123773955274,193.38202323621954 48.87739374127705,193.39573515253142 54.01004203641787,196.1243861727853 57.67982251284411,197.75607273122296 58.03292853804305,197.7012263591605 58.461700140091125,196.30263834937068 59.92456795898033,196.33006174581533 58.58780943485908,196.3574851381709 57.95726296119392,197.86576542633702 53.35427370388061,195.9324220972776 48.82695002335822,193.42315898214292 48.42340028024046,193.43687089538435 47.427136851940304,192.95695332325704 41.651331153698266,192.2165066141315 47.33886034565512,192.9295294242038" stroke="yellow" stroke-linecap="round" stroke-linejoin="round" stroke-width="0.5"><title>2024-12-15 13.0km</title><desc>1734235831000</desc></polyline><polyline fill="none" points="74.16977611934999,192.24093879183056 74.16977611934999,192.39155978562485 75.3031716417172,192.7338797669654 76.82695895514917,193.0488135866326 77.6203358208295,192.9940425263194 78.38852611934999,193.43221055172035 78.82929104473442,193.44590328568302 84.04291044775164,196.22550715645775 87.78311567165656,197.81383335187274 88.02238805964589,197.80014094332 88.52611940295901,196.58151249715593 88.90391791041475,196.33504733472364 92.3796641791123,196.51304998520936 94.38199626863934,197.27982866256207 98.5,197.36198333113862 94.30643656715984,197.27982866256207 92.48041044775164,196.52674248961557 88.84095149260247,196.28027725375432 88.48833955219015,196.44458744773874 87.8838619402959,197.84121816587867 83.48880597011885,196.04750422752113 79.39598880591802,193.76083588520123 77.53218283579918,193.0351208230859 71.5,192.15878183410678 74.69869402976474,192.48740944467136 77.53218283579918,192.95296422039974 78.80410447757458,193.36374686662748 82.67024253727868,195.4724166635715 86.53638059698278,197.170289047368 87.49347014923114,197.77275612315862 88.00979477609508,197.71798647058313 88.47574626863934,196.58151249715593 88.8661380597041,196.30766229631263 92.3166977611836,196.45827995723812 94.19309701496968,197.23875131450768 95.62873134325491,197.25244376489718 94.09235074627213,197.1976739572856 92.29151119402377,196.48566497328284 89.0046641791123,196.28027725375432 88.48833955219015,196.43089493717707 87.85867537313607,197.78644853373407 83.24953358207131,195.91057878026913 78.82929104473442,193.47328875052335 77.50699626858113,193.0351208230859 75.5172574626049,192.78865090479667" stroke="#4DD2FF" stroke-linecap="round" stroke-linejoin="round" stroke-width="0.5"><title>2024-12-13 8.5km</title><desc>1734064159000</desc></polyline><polyline fill="none" points="104.42064241843764,192.54550260807446 107.20099196978845,192.94765770706 109.1140765233431,193.5439550475421 113.0932923948858,195.79045345360646 117.5444024563185,197.75958407904545 117.90151157299988,197.77345112225157 118.4754369391012,196.45607740404375 118.83254605572438,196.27580448583467 122.33986773737706,196.45607740404375 124.09990552667296,197.17716733105772 128.5,197.26036983520316 124.52078412851552,197.23263567127287 122.21232876711292,196.44221026268497 118.74326877662679,196.26193733104446 118.37340576288989,196.3867416869616 117.95252716104733,197.57931242320046 117.6464336325298,197.85665335986414 116.74090694379993,197.34357230215392 113.08053849783028,195.91525812564942 109.38190836086869,193.79356732050655 107.41780821915017,193.1140664593695 109.36915446381317,193.73809795544366 111.71587151632411,195.15256160090212 116.76641473785276,197.32970522687538 117.50614076526836,197.81505224571447 117.87600377888884,197.73184998950455 118.44992914499016,196.22033586050384 117.85049598489422,197.6902488474443 117.53164855932118,197.77345112225157 113.22083136509173,195.94299248582684 108.62942843651399,193.36367930888082 108.1830420406186,193.3775466795778 107.060699102527,192.91992290054623 101.5,192.14334664013586" stroke="#4DD2FF" stroke-linecap="round" stroke-linejoin="round" stroke-width="0.5"><title>2024-12-11 6.6km</title><desc>1733890893000</desc></polyline><polyline fill="none" points="134.77387640444795,192.67728927131975 137.66853932582308,193.00714664009865 138.30056179768872,193.3782354749419 138.81882022472564,193.3644914573233 143.57162921346026,195.98958024053718 147.81882022466743,197.83124326927646 148.5140449438477,196.40189445612486 148.88061797746923,196.23696888047562 152.50842696626205,196.45686961528554 154.36657303367974,197.18528892709583 158.46207865170436,197.28149503628083 154.51825842697872,197.18528892709583 152.5463483146159,196.52558854113158 148.61516853928333,196.36066307603323 147.91994382016128,197.87247432072763 143.4831460674177,196.0170678835857 142.20646067417692,195.15120516030584 138.7808988763718,193.44695554762438 138.50280898879282,193.51567559471005 137.41573033708846,193.07586685102433 131.6264044943382,192.25122263029334 136.42977528087795,192.80098585372616 138.7808988763718,193.35074743870064 142.0926966291736,194.98627846651652 143.4705056179664,195.90711728684255 147.7176966292318,197.80375589654432 147.9831460674177,197.7075500596984 148.53932584269205,196.48435718867404 148.88061797746923,196.23696888047562 151.0926966291736,196.45686961528554 152.2176966291736,196.36066307603323 154.42977528087795,197.1990326600644 158.5,197.26775130948226 154.21488764043897,197.17154519312317 152.4831460674177,196.48435718867404 148.85533707862487,196.2507126841083 148.53932584269205,196.37440687044 148.0969101123046,197.6113441726775 147.85674157302128,197.81749958344153 143.91292134829564,196.16824984710547 141.5491573033505,194.75263206461386 138.75561797752744,193.3782354749419 136.7331460674177,192.86970614145685 131.5,192.12752567925781 137.95926966291154,193.06212281090848 147.5154494381859,197.73503744676418 147.9831460674177,197.65257527322683 148.53932584269205,196.22322507583885 148.00842696626205,197.7075500596984 147.74297752807615,197.76252482976997 143.62219101120718,196.0170678835857 138.79353932588128,193.33700341904478 134.38202247186564,192.5948248369532" stroke="yellow" stroke-linecap="round" stroke-linejoin="round" stroke-width="0.5"><title>2024-12-09 12.1km</title><desc>1733738831000</desc></polyline><polyline fill="none" points="172.73515551368473,195.51881740322278 177.81196983973496,197.8153353616508 178.3972667294438,196.48723205341958 178.85532516491367,196.23821162570675 182.1380772855482,196.37655634898692 184.1357210178394,197.16511930373963 188.5,197.31729773411644 184.5556079170201,197.23429133299214 182.3543826577952,196.47339759395982 178.89349670126103,196.2935495273996 178.4608859565924,196.43189420946874 177.8374175306526,197.8430040795938 173.8166823750944,196.16903922545316 168.701696512755,193.40212208482262 168.24363807722693,193.4159567730967 167.6583411875763,193.028585112188 164.03204524033936,192.5443693996349 163.5739868048695,192.3230132247554 163.35768143262248,192.50286513693572 161.7672007540241,192.2538393659779 165.53345900092972,192.64121264315327 168.701696512755,193.34678332146723 172.03534401510842,194.9931044781988 172.97690857684938,195.68483170191757 177.6211121583474,197.8153353616508 177.92648444860242,197.69082607999735 178.4608859565924,196.40422528130875 178.75353440147592,196.1828737075557 179.88595664460445,196.37655634898692 182.32893496699398,196.39039081564988 184.36475023563253,197.17895371167106 188.41093308193376,197.26196013748995 184.26295947219478,197.13745048482087 182.32893496699398,196.4180597458908 178.84260131948395,196.26588057864865 178.3209236569237,196.70858326436428 177.82469368516468,197.8430040795938 173.09142318571685,195.79550781860598 168.68897266726708,193.40212208482262 168.39632422244176,193.4574608316616 166.75494816206628,192.9179073463456 161.5,192.1569959204062 166.99670122528914,192.9179073463456 168.2818096135161,193.38828739552991 168.7653157398454,193.37445270523313 170.40669180022087,194.27370543213328" stroke="#4DD2FF" stroke-linecap="round" stroke-linejoin="round" stroke-width="0.5"><title>2024-12-06 9.2km</title><desc>1733479157000</desc></polyline><polyline fill="none" points="14.239130434696563,222.56388643894752 17.672510518867057,222.9756298893044 18.404628330958076,223.42854662169702 18.808555399707984,223.34619820771331 23.51683029450942,225.98132919649652 27.63183730712626,227.80668429371144 28.04838709672913,227.68316459449125 28.490182328154333,226.50286106974818 28.96984572231304,226.31071791979775 32.37798036460299,226.4754120605794 34.29663394106319,227.20280942133104 38.5,227.3400538843125 34.347124824649654,227.20280942133104 32.352734922780655,226.5165855727828 28.9067321177572,226.29699340139632 28.464936886331998,226.57148357472033 27.83380084147211,227.83413310452306 23.17601683025714,225.85780827343115 22.115708274883218,225.130405602089 18.821178120560944,223.4559960848419 18.45511921454454,223.48344554388314 17.533660589018837,223.04425370819808 11.5,222.1658668954624 17.533660589018837,223.03052894645953 19.427068723656703,223.82656343693088 18.871669004147407,223.4559960848419 14.25175315560773,222.5776112354797" stroke="#4DD2FF" stroke-linecap="round" stroke-linejoin="round" stroke-width="0.5"><title>2024-12-03 5.6km</title><desc>1733220329000</desc></polyline><polyline fill="none" points="45.024475524551235,222.7007196889026 47.579720279725734,222.97444764526153 48.44825174828293,223.48084328924597 49.55594405595912,223.61770673717547 50.75174825178692,224.3978264432517 52.38811188808177,225.01370808160573 53.432867132883985,225.8211942124908 57.92657342663733,227.79199291770055 58.49300699302694,226.57393232446339 58.94615384622011,226.2728374497965 62.382517482561525,226.46444333624095 64.49720279726898,227.24455095360463 67.4552447553142,227.2171788125852 68.5,227.299295223449 68.18531468533911,227.38141159756924 64.37132867134642,227.27192309054954 62.382517482561525,226.51918783852307 58.933566433610395,226.32758200916578 58.555944056017324,226.5055017144623 57.976923077018,227.80567894590786 57.70000000001164,227.833050999252 53.042657342681196,225.83488038752694 50.52517482516123,224.3978264432517 47.466433566471096,223.0291931875836 41.5,222.19432189429062 47.68041958048707,223.00182041845983 49.46783216786571,223.8230017178721 47.44125874125166,223.0702523336222 41.52517482516123,222.16694900076254 45.17552447557682,222.67334687081166" stroke="#4DD2FF" stroke-linecap="round" stroke-linejoin="round" stroke-width="0.5"><title>2024-12-02 6.1km</title><desc>1733112856000</desc></polyline><polyline fill="none" points="71.5,221.28143743368855 72.29999999998836,221.61488187905343 74.14000000001397,224.0794535371242 73.97999999998137,223.91998219798552 74.32666666666046,223.90548479702557 74.78000000002794,223.3545827605849 76.43333333334886,223.60103912759223 77.04666666663252,224.00696658098605 78.27333333331626,224.25342212164833 79.59333333326504,225.07977077427495 81.19333333329996,225.68865700965398 82.03333333332557,226.42801630546455 86.83333333331393,228.6170832394564 87.22000000003027,228.6170832394564 87.80666666664183,227.26885287500045 88.19333333329996,227.0803898218437 91.88666666665813,227.26885287500045 94.16666666662786,228.08069163264008 98.5,228.12418289908965 94.19333333335817,228.10968581135967 91.89999999996508,227.2978471746319 88.23333333333721,227.109384149604 87.83333333331393,227.28335002534732 87.11333333334187,228.71856256631145 82.52666666661389,226.7904463067971 79.4199999999837,225.03627882743604 76.3133333332953,223.61553655120952 72.54000000003725,223.16611591634864" stroke="#4DD2FF" stroke-linecap="round" stroke-linejoin="round" stroke-width="0.5"><title>2024-11-29 4.6km</title><desc>1732853630000</desc></polyline><polyline fill="none" points="103.78660287079401,224.12914340617135 103.59282296651509,224.24151509003423 104.41961722489214,224.25556154578226 103.70909090916393,224.1712827954907 104.35502392344642,224.2274686331948 104.27751196169993,224.4241189334134 105.31100478465669,223.0897021553974 107.73971291864291,222.92114357471291 108.51483253587503,223.342539743855 109.6129186602775,223.5672839822655 113.91483253589831,226.0254066001653 118.2296650717617,227.89355835648894 118.87559808616061,226.53107356419787 119.26315789471846,226.34847176140465 122.93205741629936,226.53107356419787 124.79234449757496,227.28957146753964 128.5,227.33171015049447 124.86985645932145,227.261479007022 122.66076555021573,226.4889347023418 119.21148325363174,226.29228655573388 118.90143540670397,226.4748884129367 118.2296650717617,227.87951217172667 113.65645933011547,226.0254066001653 108.92822966509266,223.3846793089615 107.50717703351984,222.9492366819468 101.5,222.1064416435256 107.63636363635305,222.92114357471291 108.42440191394417,223.32849322004768 109.25119617226301,223.4408653811115 112.58421052637277,225.21071808320994 107.59760765550891,222.97732978500426 104.35502392344642,222.54188621713547" stroke="#4DD2FF" stroke-linecap="round" stroke-linejoin="round" stroke-width="0.5"><title>2024-11-28 6.3km</title><desc>1732767063000</desc></polyline><polyline fill="none" points="131.68120805372018,221.77369205487776 135.66778523492394,222.44687454985979 136.57382550340844,222.92302678020496 136.9966442953446,222.89018872838642 141.14932885905728,224.92613868853368 142.58389261743287,225.87843140719633 147.83892617450329,228.17705205084349 148.57885906042065,226.58443887000612 149.122483221523,226.28890113750822 153.1241610737634,226.5023450951703 154.9664429530385,227.27402537131275 156.567114093923,227.53672442333482 158.5,227.48746837492217 155.58557046978967,227.43821231552283 153.39597315434366,226.58443887000612 149.27348993293708,226.37099499189935 148.6543624160695,226.61727637136937 147.83892617450329,228.2263079451368 142.11577181209577,225.8127561793517 136.9966442953446,222.89018872838642 136.61912751680939,222.97228384877963 135.32046979869483,222.39761736385117 131.5,221.8886257971899" stroke="#4DD2FF" stroke-linecap="round" stroke-linejoin="round" stroke-width="0.5"><title>2024-11-25 4.0km</title><desc>1732507947000</desc></polyline><polyline fill="none" points="161.5,220.3820539493172 167.00401284114923,221.08889195811935 168.49919743184,221.96065665973583 169.3226324239513,221.86641194298863 170.83948635635898,222.36119639253593 172.4213483147323,223.49212937030825 175.41171749611385,224.78798510192428 177.73033707868308,226.39012666564668 182.97431781701744,228.43991359628853 184.72953451052308,229.50014300268958 185.1845906903036,229.311658034625 186.15971107548103,227.02626885892823 188.5,226.97914725885494 186.24638844304718,227.09695124591235 184.98956661322154,229.6179460506828 178.0770465490641,226.7435391532199 169.2792937400518,222.03134017882985 168.69422150892206,222.14914600894554 170.77447833074257,222.54968550303602 171.79293739970308,223.49212937030825 173.5914927769918,223.98691127626807 177.6869983949,226.43724835346802 184.25280898890924,229.35877928716945 185.1845906903036,229.4530217712163 186.15971107548103,227.002708059852 185.11958266457077,229.6179460506828 178.1853932584636,226.69641751106246" stroke="#4DD2FF" stroke-linecap="round" stroke-linejoin="round" stroke-width="0.5"><title>2024-11-20 4.0km</title><desc>1732095798000</desc></polyline><polyline fill="none" points="13.077270313340705,252.06118933402468 17.063462559774052,252.63804590460495 18.02416356879985,253.12135694212338 18.68374933610903,253.18371957530326 22.368826340942178,255.00781837440445 23.343866171024274,255.7561620000488 28.59187466808362,258.0791282917635 28.83563462557504,258.04794770693115 29.423526287835557,256.67599737366254 29.853690918709617,256.34859880578006 33.839883165142965,256.56686457463366 35.93335103557911,257.4087446934136 38.5,257.50228671974037 35.89033457246842,257.4243350340548 33.610462028649636,256.55127417010954 29.939723844930995,256.3641892253945 29.33749336161418,256.76953972753836 28.77827934140805,258.11030887201196 23.444237918243743,255.91206658522424 19.343335103534628,253.6202574873605 17.034784917719662,252.70040868186334 11.5,251.8896911280026" stroke="#4DD2FF" stroke-linecap="round" stroke-linejoin="round" stroke-width="0.5"><title>2024-11-19 4.1km</title><desc>1731989484000</desc></polyline></svg>