<?xml version="1.0" encoding="utf-8" ?>
<svg baseProfile="full" height="300mm" version="1.1" viewBox="0,0,200,300" width="200mm" xmlns="http://www.w3.org/2000/svg" xmlns:ev="http://www.w3.org/2001/xml-events" xmlns:xlink="http://www.w3.org/1999/xlink"><defs /><rect fill="#222222" height="300" width="200" x="0" y="0" /><text fill="#FFFFFF" style="font-size:12px; font-family:Arial; font-weight:bold;" x="10" y="20">Over 4km Runs</text><text fill="#FFFFFF" style="font-size:4px; font-family:Arial" x="10" y="280">ATHLETE</text><text fill="#FFFFFF" style="font-size:9px; font-family:Arial" x="10" y="290">Fake David</text><text fill="#FFFFFF" style="font-size:4px; font-family:Arial" x="65" y="280">SPECIAL TRACKS</text><rect fill="yellow" height="2.6" width="2.6" x="65" y="283" /><text fill="#FFFFFF" style="font-size:3px; font-family:Arial" x="70" y="285.5">Over 10.0 km</text><rect fill="red" height="2.6" width="2.6" x="65" y="287" /><text fill="#FFFFFF" style="font-size:3px; font-family:Arial" x="70" y="289.5">Over 15.0 km</text><text fill="#FFFFFF" style="font-size:4px; font-family:Arial" x="120" y="280">STATISTICS</text><text fill="#FFFFFF" style="font-size:3px; font-family:Arial" x="120" y="285">Number: 4</text><text fill="#FFFFFF" style="font-size:3px; font-family:Arial" x="120" y="290">Weekly: 2.0</text><text fill="#FFFFFF" style="font-size:3px; font-family:Arial" x="141" y="285">Total: 18.4 km</text><text fill="#FFFFFF" style="font-size:3px; font-family:Arial" x="141" y="290">Avg: 4.6 km</text><text fill="#FFFFFF" style="font-size:3px; font-family:Arial" x="167" y="285">Min: 4.0 km</text><text fill="#FFFFFF" style="font-size:3px; font-family:Arial" x="167" y="290">Max: 6.3 km</text><polyline fill="none" points="21.35980861261487,72.38743021851406 20.778468899661675,72.72454527008813 23.25885167485103,72.76668463731767 21.127272727433592,72.51384838644299 23.06507177045569,72.68240589956986 22.83253588527441,73.27235680024023 25.933014354202896,69.26910646620672 33.219138755928725,68.76343072412419 35.544497607741505,70.02761923157959 38.8387559808325,70.70185194679652 51.74449760769494,78.07621980048134 64.68899521534331,83.68067506945226 66.62679425859824,79.5932206925936 67.7894736842718,79.04541528419941 78.79617224889807,79.5932206925936 84.37703349278308,81.86871440260438 95.5,81.99513045145432 84.60956937796436,81.78443702103687 77.9822966507636,79.46680410701083 67.63444976089522,78.8768596672162 66.70430622017011,79.42466523879557 64.68899521534331,83.63853651515092 50.96937799057923,78.07621980048134 36.78468899521977,70.15403792686993 32.52153110061772,68.84771004584036 14.5,66.31932493054774 32.909090909175575,68.76343072412419 35.27320574177429,69.98547966015758 37.753588516730815,70.32259614331997 47.75263157906011,75.63215424964437 32.792822966584936,68.93198935501277 23.06507177045569,67.62565865140641" stroke="#4DD2FF" stroke-linecap="round" stroke-linejoin="round" stroke-width="0.5"><title>2024-11-28 6.3km</title><desc>1732767063000</desc></polyline><polyline fill="none" points="105.04362416127697,65.32107616460416 117.00335570494644,67.3406236495357 119.72147651039995,68.76908034051303 120.98993288609199,68.67056618514471 133.44798657740466,74.7784160655574 137.7516778523568,77.63529422151623 153.51677852356806,84.5311561524868 155.73657718137838,79.75331660994561 157.3674496645108,78.86670341249555 169.37248322134838,79.50703528546728 174.89932885905728,81.82207611389458 179.70134228188545,82.61017326993169 185.5,82.46240512467921 176.75671140942723,82.31463694648119 170.18791946326382,79.75331660994561 157.82046979875304,79.1129849756253 155.9630872483831,79.8518291140208 153.51677852356806,84.67892383539584 136.34731543646194,77.43826853798237 120.98993288609199,68.67056618514471 119.85738255060278,68.91685154626612 115.96140939625911,67.19285209150985 104.5,65.66587739152601" stroke="#4DD2FF" stroke-linecap="round" stroke-linejoin="round" stroke-width="0.5"><title>2024-11-25 4.0km</title><desc>1732507947000</desc></polyline><polyline fill="none" points="14.5,211.1461618479807 31.012038523331285,213.26667587435804 35.49759229552001,215.8819699791493 37.967897271737456,215.5992358289659 42.518459069076926,217.0835891776369 47.26404494396411,220.47638811089564 56.235152488108724,224.36395530577283 63.191011236049235,229.17037999694003 78.92295345105231,235.3197407888365 84.18860353133641,238.50042900809785 85.55377207091078,237.934974103875 88.47913322644308,231.0788065768429 95.5,230.93744177662302 88.73916532914154,231.29085373773705 84.96869983966462,238.8538381520193 64.2311396470759,230.2306174596888 37.83788121980615,216.09402053651866 36.082664526766166,216.44743802689482 42.32343499199487,217.64905650907895 45.37881219922565,220.47638811089564 50.77447833074257,221.96073382883333 63.06099518458359,229.31174506037496 82.75842696637847,238.07633786147926 85.55377207091078,238.3590653136489 88.47913322644308,231.00812417955603 85.35874799382873,238.8538381520193 64.55617977539077,230.0892525332165" stroke="#4DD2FF" stroke-linecap="round" stroke-linejoin="round" stroke-width="0.5"><title>2024-11-20 4.0km</title><desc>1732095798000</desc></polyline><polyline fill="none" points="109.2318109399639,216.18356800207403 121.19038767926395,217.91413771378575 124.07249070634134,219.3640708263847 126.0512480083853,219.55115872592432 137.10647902288474,225.02345512324246 140.03159851301461,227.26848600013182 155.77562400419265,234.237384875305 156.50690387678333,234.14384312083712 158.27057886356488,230.02799212100217 159.56107275630347,229.04579641734017 171.51964949560352,229.70059372391552 177.80005310685374,232.22623408021173 185.5,232.5068601592211 177.67100371746346,232.273005102179 170.83138608606532,229.6538225103286 159.8191715348512,229.09256767615443 158.01248008501716,230.30861918261508 156.33483802434057,234.33092661603587 140.33271375461482,227.73619975568727 128.0300053106621,220.86077246209607 121.10435475315899,218.10122604557546 104.5,215.66907338402234" stroke="#4DD2FF" stroke-linecap="round" stroke-linejoin="round" stroke-width="0.5"><title>2024-11-19 4.1km</title><desc>1731989484000</desc></polyline></svg>