<?xml version="1.0" encoding="utf-8" ?>
<svg baseProfile="full" height="200mm" version="1.1" viewBox="0,0,200,200" width="200mm" xmlns="http://www.w3.org/2000/svg" xmlns:ev="http://www.w3.org/2001/xml-events" xmlns:xlink="http://www.w3.org/1999/xlink"><defs /><rect fill="#1a1a1a" height="200" width="200" x="0" y="0" /><rect fill="#1a1a1a" height="200" width="180" x="10" y="0" /><text alignment-baseline="middle" fill="#e1ed5e" style="dominant-baseline: central; font-size:9.0px; font-family:Arial;" text-anchor="middle" x="100.0" y="100.0">2026</text><line stroke="#e1ed5e" stroke-width="0.3" x1="100.0" x2="100.0" y1="15.0" y2="10.0" /><path d="M 100.0 14.0 a86.0,86.0 0 0,1 42.46469731375804,11.215312516191453" fill="none" id="id25" stroke="none" /><text fill="#e1ed5e" style="font-size:6.75px; font-family:Arial;" text-anchor="middle"><textPath startOffset="22.20632615414155" xlink:href="#id25">January</textPath></text><path d="M 101.08401301168833 79.027996857942 l 2.7838022303064967 -53.85720327279764 a74.92910067138988,74.92910067138988 0 0,0 1.2874887223121325,0.07766483570905809 l -3.710453001458241 53.80130516770828" fill="red" stroke="none" /><path d="M 101.44485096284872 79.0497635885617 l 2.6114700376287394 -37.866130193691305 a58.956074502021586,58.956074502021586 0 0,0 1.0118260784387287,0.07853717745673361 l -3.2628863054298094 37.81556775404611" fill="red" stroke="none" /><path d="M 101.80526077348638 79.07773832637324 l 4.586911892987249 -53.16050307436328 a74.35802514930079,74.35802514930079 0 0,0 1.2742659452583356,0.12100690573352564 l -5.501302965335829 53.07367062411458" fill="red" stroke="none" /><path d="M 102.16513564639614 79.11191278185805 l 3.9271443824066634 -37.88701854061032 a59.09000704773916,59.09000704773916 0 0,0 1.0108141914949003,0.11357675209035566 l -4.578725277411289 37.813805835049365" fill="red" stroke="none" /><path d="M 102.88285421437855 79.19881850522331 l 7.345896754831856 -53.00418275645873 a74.51079880559368,74.51079880559368 0 0,0 1.2689225212342745,0.1870061946012892 l -8.257188256494786 52.869882077696474" fill="red" stroke="none" /><path d="M 103.59715602781102 79.31037775812273 l 6.509020741530819 -37.43768111965011 a58.9993068177603,58.9993068177603 0 0,0 0.9990686359972594,0.18257340734248778 l -7.1524844986309795 37.32009223095688" fill="red" stroke="none" /><path d="M 103.95276090670814 79.375362276772 l 8.557312608306127 -44.65017657182505 a66.46279651507845,66.46279651507845 0 0,0 1.1217451240807184,0.2250115190603611 l -9.32462414185397 44.49626109668748" fill="red" stroke="none" /><path d="M 104.307194497241 79.44645832069477 l 10.8970141505177 -51.99956367563873 a74.12908374754255,74.12908374754255 0 0,0 1.2466297751084339,0.27246498399195546 l -11.790486649779663 51.80428519355091" fill="red" stroke="none" /><path d="M 104.66035177308747 79.52364482259891 l 8.169542291197132 -35.894811751630336 a57.812755016877475,57.812755016877475 0 0,0 0.9684360860179061,0.22919753264540735 l -8.786202064177562 35.74886830684406" fill="red" stroke="none" /><path d="M 105.01212808612495 79.60689891045804 l 8.990582607101196 -36.58044184226811 a58.66907618976964,58.66907618976964 0 0,0 0.9786312332541592,0.2494748914898497 l -9.61892272904038 36.420263954609396" fill="red" stroke="none" /><path d="M 105.36241919743992 79.69619591428918 l 9.750688282922352 -36.91916974558933 a59.185088931340175,59.185088931340175 0 0,0 0.9827602588971766,0.2686255027404511 l -10.38474643104324 36.74585770202258" fill="red" stroke="none" /><path d="M 106.40334571778207 80.00007090966166 l 11.683414517942575 -36.491464336055955 a59.31617340220335,59.31617340220335 0 0,0 0.9697267260868493,0.3197036551708927 l -12.309824066271842 36.28494695662583" fill="red" stroke="none" /><path d="M 106.74666289553966 80.11325718540242 l 17.359216622021002 -51.16874546277529 a75.03316494491635,75.03316494491635 0 0,0 1.2195318803708894,0.42547072692522236 l -18.237430506455166 50.862353882677866" fill="red" stroke="none" /><path d="M 107.08798089147638 80.2323363322302 l 18.320742348325656 -51.094702205120264 a75.2799980989651,75.2799980989651 0 0,0 1.2160145652845622,0.4478684267633708 l -19.197539239382795 50.77177051055057" fill="red" stroke="none" /><path d="M 107.4271985657038 80.35727306442388 l 13.378854747858924 -35.38308397144976 a58.827984161133564,58.827984161133564 0 0,0 0.9440962395921405,0.3662946735466459 l -13.98593415245073 35.14754659401256" fill="red" stroke="none" /><path d="M 107.76421540070413 80.48803036053334 l 14.289685067930911 -35.91089206228383 a59.64954421528988,59.64954421528988 0 0,0 0.9507459343122959,0.3878331384147183 l -14.905714871831593 35.659598037685534" fill="red" stroke="none" /><path d="M 108.76106565485865 80.91482961587045 l 16.07931290988205 -35.027294467842225 a59.54160948106384,59.54160948106384 0 0,0 0.9277767598330726,0.4356036288697814 l -16.67986788101472 34.745325856332435" fill="red" stroke="none" /><path d="M 109.08828744355905 81.06846463323043 l 23.69860539260267 -49.36584465658995 a75.75957008791127,75.75957008791127 0 0,0 1.1707693948792492,0.5744914574715907 l -24.54484605449235 48.95059803898353" fill="red" stroke="none" /><path d="M 109.41281617654863 81.2277094730956 l 17.246445991770308 -34.395157479086 a59.47683403501613,59.47683403501613 0 0,0 0.9112403610566951,0.46677270570088225 l -17.835946840415758 34.09319224807262" fill="red" stroke="none" /><path d="M 109.73455568895987 81.39251694778311 l 17.943088247583443 -34.297991725497596 a59.70796626358544,59.70796626358544 0 0,0 0.9065800383268906,0.4842636596192464 l -18.530813332438644 33.9840493393766" fill="red" stroke="none" /><path d="M 110.05341064243156 81.56283822128135 l 18.378034791967142 -33.703865552284384 a59.38883582477094,59.38883582477094 0 0,0 0.8933096483381371,0.4971258521343383 l -18.955468529377313 33.38252430258987" fill="red" stroke="none" /><line stroke="#e1ed5e" stroke-width="0.3" x1="143.23703022742887" x2="145.7803849466894" y1="26.81831364943548" y2="22.513508569990506" /><path d="M 143.74570117128098 25.957352633546492 a86.0,86.0 0 0,1 28.547481713284135,27.462654790039103" fill="none" id="id26" stroke="none" /><text fill="#e1ed5e" style="font-size:6.75px; font-family:Arial;" text-anchor="middle"><textPath startOffset="19.985693538727396" xlink:href="#id26">February</textPath></text><path d="M 110.99172775467656 82.1063720568725 l 20.48786152021747 -33.35255198957369 a60.142626302904404,60.142626302904404 0 0,0 0.877454705963908,0.5494620563767497 l -21.05893537855364 32.994945591874" fill="red" stroke="none" /><path d="M 111.2981086023043 82.29822771554956 l 20.725645051320573 -32.47274938320182 a59.52313350829036,59.52313350829036 0 0,0 0.8589272467455524,0.5586701738990513 l -21.281539323850403 32.11118028514324" fill="red" stroke="none" /><path d="M 111.60114157652 82.49532879139004 l 21.313087552339177 -32.15878261490256 a59.580241060499276,59.580241060499276 0 0,0 0.8499981203739135,0.5739225251863168 l -21.86349036711963 31.787148177417574" fill="red" stroke="none" /><path d="M 112.19680574252982 82.90503203632743 l 22.54776389690122 -31.602807292889622 a59.82188925776178,59.82188925776178 0 0,0 0.8331043665713052,0.6052857525810172 l -23.088413579826312 31.21000230549193" fill="red" stroke="none" /><path d="M 113.06298171725822 83.55741782278167 l 33.87144873055251 -42.63452948707344 a75.4516128658333,75.4516128658333 0 0,0 1.0099615214006408,0.8166519788567266 l -34.60031365051764 42.04517141095259" fill="red" stroke="none" /><path d="M 113.34407831869373 83.78471172551755 l 24.642092883444136 -29.94426668133753 a59.78004446567009,59.78004446567009 0 0,0 0.7889327982813948,0.660708530068002 l -25.153883218684648 29.51565699387571" fill="red" stroke="none" /><path d="M 113.89432698308785 84.25364557470407 l 41.68298094926353 -47.23906327588782 a84.0,84.0 0 0,0 1.0759560496160399,0.9660039649228103 l -42.48994798647556 46.51456030219571" fill="red" stroke="none" /><path d="M 116.82858285166822 87.43820079747576 l 32.17298382334466 -24.015721709737022 a61.14792369895025,61.14792369895025 0 0,0 0.6223617838871304,0.8489007737978055 l -32.58160821974541 23.45835849226772" fill="red" stroke="none" /><path d="M 117.04232023915458 87.72973835380427 l 31.705912752135756 -22.82786849095489 a60.068868466931264,60.068868466931264 0 0,0 0.5969340377004302,0.8443208631663474 l -32.09415940964007 22.278721127456752" fill="red" stroke="none" /><path d="M 117.2510076193507 88.02491185347247 l 32.208321195243755 -22.357968524231165 a60.20783991431433,60.20783991431433 0 0,0 0.5836591991184715,0.8564478549439475 l -32.58840486003096 21.800242646016812" fill="red" stroke="none" /><path d="M 117.45458315368197 88.32363383020206 l 32.45310820869389 -21.70973499947781 a60.04506148225082,60.04506148225082 0 0,0 0.5672924870580394,0.8640253774898167 l -32.821997331109856 21.14789155801032" fill="red" stroke="none" /><line stroke="#e1ed5e" stroke-width="0.3" x1="172.23445277983987" x2="176.4835382374775" y1="55.19839476539836" y2="52.563006222186495" /><path d="M 173.08426987136738 54.67131705675599 a86.0,86.0 0 0,1 12.851231095245387,41.99856678651699" fill="none" id="id27" stroke="none" /><text fill="#e1ed5e" style="font-size:6.75px; font-family:Arial;" text-anchor="middle"><textPath startOffset="22.20632615414155" xlink:href="#id27">March</textPath></text><path d="M 118.21658344932153 89.55222093294921 l 34.01216680865501 -19.507039033806336 a60.2090813828406,60.2090813828406 0 0,0 0.5078846996082022,0.9034702093052893 l -34.342909149555645 18.91868531456625" fill="red" stroke="none" /><path d="M 118.3937258080291 89.86733742301442 l 34.097350453791854 -18.783412916087144 a59.92872857858228,59.92872857858228 0 0,0 0.48996558671797624,0.9078318193121225 l -34.415624139728294 18.193700113442564" fill="red" stroke="none" /><path d="M 118.56541770881063 90.18545643968196 l 34.68077737194001 -18.333872448292105 a60.22865276901962,60.22865276901962 0 0,0 0.4766397116040904,0.9207162114459673 l -34.99122651670422 17.734183514585794" fill="red" stroke="none" /><path d="M 118.73160827565052 90.50648371742162 l 34.79652538326112 -17.635505475125548 a60.01037339107533,60.01037339107533 0 0,0 0.45905074305730875,0.9254182863475002 l -35.09493613927184 17.033927600279096" fill="red" stroke="none" /><path d="M 119.196687751892 91.48605970444005 l 35.874095064238716 -15.910552251602217 a60.24406158425757,60.24406158425757 0 0,0 0.4122681584032134,0.9515717505274104 l -36.142653932484606 15.290681356488205" fill="red" stroke="none" /><path d="M 119.34039704204932 91.81776055985345 l 35.89333487912508 -15.185203263812905 a59.973348417968026,59.973348417968026 0 0,0 0.3940486403094081,0.9542200381670134 l -36.14940520632068 14.565108655192589" fill="red" stroke="none" /><path d="M 119.47837535516314 92.15188598940014 l 36.483547418662866 -14.699739297142942 a60.33359337327052,60.33359337327052 0 0,0 0.3798328667981456,0.9666332156499988 l -36.731173835342716 14.069557076597158" fill="red" stroke="none" /><path d="M 119.61058180528143 92.48833698450437 l 36.55986584857971 -14.003939040314313 a60.15014814162246,60.15014814162246 0 0,0 0.3620334631451701,0.9700696895155035 l -36.79550390022651 13.372546213769477" fill="red" stroke="none" /><path d="M 119.7369772167798 92.82701384747503 l 36.86111933785601 -13.396392754216823 a60.21996248933565,60.21996248933565 0 0,0 0.34568242627801166,0.977290769184087 l -37.08625484494383 12.759904358606121" fill="red" stroke="none" /><path d="M 120.08093135843002 93.85539295169968 l 40.04319572709632 -12.252902931112951 a62.875901832412175,62.875901832412175 0 0,0 0.30777485343597544,1.0376638027106702 l -40.248176477643995 11.56180974165575" fill="red" stroke="none" /><path d="M 120.18372546131832 94.20196356495316 l 37.749589761570476 -10.844058361035648 a60.27626673838049,60.27626673838049 0 0,0 0.277882859102187,0.9996924941467679 l -37.930659391239026 10.19265456346993" fill="red" stroke="none" /><path d="M 120.28053869075195 94.5502522615342 l 37.73389287907983 -10.139779841008323 a60.07251984494973,60.07251984494973 0 0,0 0.25975262646264147,1.0009328295255013 l -37.90284183741278 9.488750585933971" fill="red" stroke="none" /><path d="M 120.37134235888165 94.90015583598534 l 37.75896295073223 -9.452731364046867 a59.924200869839375,59.924200869839375 0 0,0 0.24188603354021201,1.0027737698414199 l -37.91608178453326 8.801372362546042" fill="red" stroke="none" /><path d="M 120.45610955862082 95.25157060432595 l 38.00670927759339 -8.822409512883437 a60.017237981750064,60.017237981750064 0 0,0 0.22493778599039196,1.008351988727452 l -38.15294145058582 8.166879354606023" fill="red" stroke="none" /><path d="M 120.67395015179393 96.31383870115 l 38.43179511808524 -6.852381609197464 a60.03790478133462,60.03790478133462 0 0,0 0.1726465384748047,1.018969643038484 l -38.54405351808027 6.189826177843142" fill="red" stroke="none" /><path d="M 120.73433829027371 96.67025291283417 l 38.54333248087017 -6.1897103857924645 a60.037174505730924,60.037174505730924 0 0,0 0.15507918530915316,1.0217780694199852 l -38.64416755961862 5.525333203980397" fill="red" stroke="none" /><path d="M 120.78858239683441 97.02765380044208 l 38.86812927555321 -5.557355192901873 a60.263413887755476,60.263413887755476 0 0,0 0.13798600238842104,1.028155992407065 l -38.95803127699946 4.887480858430145" fill="red" stroke="none" /><path d="M 120.83666639777658 97.38593545837742 l 38.4678423042273 -4.82598418770767 a59.769382441856145,59.769382441856145 0 0,0 0.11928160568246104,1.0219319534383358 l -38.54521426291334 4.163108495944481" fill="red" stroke="none" /><path d="M 120.87857604477298 97.74499172005257 l 38.91673562505506 -4.203234975164632 a60.14306446826662,60.14306446826662 0 0,0 0.10230872062311937,1.0302348546502935 l -38.983321471360405 3.532724589809903" fill="red" stroke="none" /><path d="M 120.96714384426684 98.82574320788733 l 38.785356567721884 -2.172158913127905 a59.84613440780444,59.84613440780444 0 0,0 0.0487500676614633,1.0290368783907298 l -38.817000243616846 1.5042109281141753" fill="red" stroke="none" /><line stroke="#e1ed5e" stroke-width="0.3" x1="184.98032266829074" x2="189.97916517819016" y1="98.17113171792111" y2="98.06355123074" /><path d="M 185.9800911702706 98.14961562048488 a86.0,86.0 0 0,1 -9.607161424134198,41.387399972396054" fill="none" id="id28" stroke="none" /><text fill="#e1ed5e" style="font-size:6.75px; font-family:Arial;" text-anchor="middle"><textPath startOffset="21.466115282336823" xlink:href="#id28">April</textPath></text><path d="M 120.99513854157772 99.54816195383933 l 38.10426065338595 -0.8200448237065507 a59.113083756815904,59.113083756815904 0 0,0 0.013137159102044965,1.0174874501106645 l -38.11273081960571 0.1640211155354234" fill="red" stroke="none" /><path d="M 120.99980553446 99.90962569577887 l 39.07997189970855 -0.16818371311209837 a60.08033379390926,60.08033379390926 0 0,0 -0.004450816101464207,1.0342129148979549 l -39.07707678631758 -0.5045386799895413" fill="red" stroke="none" /><path d="M 120.9904718944345 100.63252640178507 l 38.946906125949845 1.1736251817682946 a59.96458511072369,59.96458511072369 0 0,0 -0.0399702998101252,1.0314558340646927 l -38.92093369328852 -1.8438582628469933" fill="red" stroke="none" /><path d="M 120.9764740272857 100.99374915477107 l 41.01039171995947 1.9428452110458636 a62.05638654994621,62.05638654994621 0 0,0 -0.05973266775754566,1.0665669089475052 l -40.9708727013144 -2.648483836328792" fill="red" stroke="none" /><path d="M 120.95626037817324 101.35467743843564 l 28.28580650336082 1.828481952723248 a49.34484425423791,49.34484425423791 0 0,0 -0.06208859987472617,0.8471496156683697 l -28.25014134482176 -2.315104704888388" fill="red" stroke="none" /><line stroke="#e1ed5e" stroke-width="0.3" x1="174.80103733775053" x2="179.2010983576182" y1="140.37084112569926" y2="142.7455964860345" /><path d="M 175.68104954172406 140.8457921977663 a86.0,86.0 0 0,1 -30.038265399797805,32.042727171017184" fill="none" id="id29" stroke="none" /><text fill="#e1ed5e" style="font-size:6.75px; font-family:Arial;" text-anchor="middle"><textPath startOffset="22.206326154141568" xlink:href="#id29">May</textPath></text><line stroke="#e1ed5e" stroke-width="0.3" x1="143.8653032363475" x2="146.44561519142675" y1="172.8068346515853" y2="177.08958963109032" /><path d="M 144.38136562736335 173.6633856474863 a86.0,86.0 0 0,1 -40.68145358897372,12.25698825130547" fill="none" id="id30" stroke="none" /><text fill="#e1ed5e" style="font-size:6.75px; font-family:Arial;" text-anchor="middle"><textPath startOffset="21.466115282336833" xlink:href="#id30">June</textPath></text><line stroke="#e1ed5e" stroke-width="0.3" x1="102.19456741930631" x2="102.32365962044197" y1="184.97166512339345" y2="189.96999836594603" /><path d="M 102.22038585953345 185.97133177190398 a86.0,86.0 0 0,1 -42.740103519485714,-10.115201625700543" fill="none" id="id31" stroke="none" /><text fill="#e1ed5e" style="font-size:6.75px; font-family:Arial;" text-anchor="middle"><textPath startOffset="22.20632615414155" xlink:href="#id31">July</textPath></text><line stroke="#e1ed5e" stroke-width="0.3" x1="58.666819895761336" x2="56.23545636021788" y1="174.27360380694188" y2="178.64263932499728" /><path d="M 58.180547188652646 175.14741091055294 a86.0,86.0 0 0,1 -31.652253787137756,-30.449443065178592" fill="none" id="id32" stroke="none" /><text fill="#e1ed5e" style="font-size:6.75px; font-family:Arial;" text-anchor="middle"><textPath startOffset="22.20632615414155" xlink:href="#id32">August</textPath></text><line stroke="#e1ed5e" stroke-width="0.3" x1="26.63291911575756" x2="22.317208475507996" y1="142.92168965132927" y2="145.44649492493687" /><path d="M 25.769776987707644 143.4266507060508 a86.0,86.0 0 0,1 -11.730757126820373,-40.83630448921669" fill="none" id="id33" stroke="none" /><text fill="#e1ed5e" style="font-size:6.75px; font-family:Arial;" text-anchor="middle"><textPath startOffset="21.46611528233685" xlink:href="#id33">September</textPath></text><line stroke="#e1ed5e" stroke-width="0.3" x1="15.007084014347285" x2="10.007500721073583" y1="101.09737516637583" y2="101.16192664675087" /><path d="M 14.007167355692545 101.11028546245083 a86.0,86.0 0 0,1 10.666146001902534,-42.60595125391555" fill="none" id="id34" stroke="none" /><text fill="#e1ed5e" style="font-size:6.75px; font-family:Arial;" text-anchor="middle"><textPath startOffset="22.20632615414155" xlink:href="#id34">October</textPath></text><line stroke="#e1ed5e" stroke-width="0.3" x1="26.266209847984243" x2="21.928928074336255" y1="57.711370442889674" y2="55.22380399835377" /><path d="M 25.398753493254645 57.213857153982495 a86.0,86.0 0 0,1 29.58750427330803,-30.492523968695096" fill="none" id="id35" stroke="none" /><text fill="#e1ed5e" style="font-size:6.75px; font-family:Arial;" text-anchor="middle"><textPath startOffset="21.46611528233685" xlink:href="#id35">November</textPath></text><line stroke="#e1ed5e" stroke-width="0.3" x1="56.762969772571076" x2="54.21961505331055" y1="26.818313649435495" y2="22.513508569990535" /><path d="M 56.25429882871897 25.957352633546506 a86.0,86.0 0 0,1 42.265352541879196,-11.944610805530505" fill="none" id="id36" stroke="none" /><text fill="#e1ed5e" style="font-size:6.75px; font-family:Arial;" text-anchor="middle"><textPath startOffset="22.20632615414155" xlink:href="#id36">December</textPath></text></svg>