<?xml version="1.0" encoding="utf-8" ?>
<svg baseProfile="full" height="200mm" version="1.1" viewBox="0,0,200,200" width="200mm" xmlns="http://www.w3.org/2000/svg" xmlns:ev="http://www.w3.org/2001/xml-events" xmlns:xlink="http://www.w3.org/1999/xlink"><defs /><rect fill="#1a1a1a" height="200" width="200" x="0" y="0" /><rect fill="#1a1a1a" height="200" width="180" x="10" y="0" /><text alignment-baseline="middle" fill="#e1ed5e" style="dominant-baseline: central; font-size:9.0px; font-family:Arial;" text-anchor="middle" x="100.0" y="100.0">2026</text><line stroke="#e1ed5e" stroke-width="0.3" x1="100.0" x2="100.0" y1="15.0" y2="10.0" /><path d="M 100.0 14.0 a86.0,86.0 0 0,1 42.46469731375804,11.215312516191453" fill="none" id="id25" stroke="none" /><text fill="#e1ed5e" style="font-size:6.75px; font-family:Arial;" text-anchor="middle"><textPath startOffset="22.20632615414155" xlink:href="#id25">January</textPath></text><path d="M 101.08401301168833 79.027996857942 l 3.231015966315096 -62.50928380653246 a83.59273141651676,83.59273141651676 0 0,0 1.436353806487453,0.08664478411942439 l -4.306531821642161 62.44440575303273" fill="red" stroke="none" /><path d="M 101.44485096284872 79.0497635885617 l 3.030998860218225 -43.9492683447245 a65.05366207396665,65.05366207396665 0 0,0 1.1164751442554557,0.08665995905711649 l -3.787064193836022 43.89058312347892" fill="red" stroke="none" /><path d="M 101.80526077348638 79.07773832637324 l 5.323792545668979 -61.700659745394155 a82.92991345130577,82.92991345130577 0 0,0 1.421161526843129,0.13495641121913202 l -6.385079199602353 61.59987778965984" fill="red" stroke="none" /><path d="M 102.16513564639614 79.11191278185805 l 4.558034354395767 -43.973512373869426 a65.20911068626805,65.20911068626805 0 0,0 1.1154897044298702,0.12533826561339356 l -5.314290762335363 43.88853815478543" fill="red" stroke="none" /><path d="M 102.88285421437855 79.19881850522331 l 8.526004269761211 -61.51922679821475 a83.10722997089928,83.10722997089928 0 0,0 1.4153201613448994,0.20858140121758229 l -9.583693411534766 61.3633509128362" fill="red" stroke="none" /><path d="M 103.59715602781102 79.31037775812273 l 7.5546853551614275 -43.451989556774244 a65.10383959767572,65.10383959767572 0 0,0 1.1024401426603638,0.20146388945112784 l -8.301520618924691 43.31551018597238" fill="red" stroke="none" /><path d="M 103.95276090670814 79.375362276772 l 9.93203229927093 -51.82316180071145 a73.76632794326775,73.76632794326775 0 0,0 1.2450125939694243,0.2497378138798866 l -10.822611302707479 51.64452003075436" fill="red" stroke="none" /><path d="M 104.307194497241 79.44645832069477 l 12.647603454792756 -60.353217138887494 a82.66419294990723,82.66419294990723 0 0,0 1.3901648186779227,0.30383618507292093 l -13.684610997624208 60.12656745571871" fill="red" stroke="none" /><path d="M 104.66035177308747 79.52364482259891 l 9.481967250754792 -41.661260492855966 a63.7266699942552,63.7266699942552 0 0,0 1.0675015720350036,0.25264313250817105 l -10.197692509752319 41.49187144820692" fill="red" stroke="none" /><path d="M 105.01212808612495 79.60689891045804 l 10.434906486449831 -42.457036049653624 a64.72055790474934,64.72055790474934 0 0,0 1.0795731501609445,0.2752072336749244 l -11.1641885252958 42.27112581980983" fill="red" stroke="none" /><path d="M 105.36241919743992 79.69619591428918 l 11.317122021708775 -42.85018009270111 a65.31946733469576,65.31946733469576 0 0,0 1.0846207683043467,0.2964678277644653 l -12.053040679236833 42.64902572411035" fill="red" stroke="none" /><path d="M 106.40334571778207 80.00007090966166 l 13.560337885207401 -42.353764437868634 a65.47161033310417,65.47161033310417 0 0,0 1.0703584991812143,0.35288036858831273 l -14.287379206631034 42.11407034502109" fill="red" stroke="none" /><path d="M 106.74666289553966 80.11325718540242 l 20.147949253671296 -59.388929201460414 a83.71351346260701,83.71351346260701 0 0,0 1.360615649899009,0.4746920838611508 l -21.16724690763358 59.03331626442706" fill="red" stroke="none" /><path d="M 107.08798089147638 80.2323363322302 l 21.26394267442914 -59.302991003309366 a84.0,84.0 0 0,0 1.3568706969096942,0.49974692877470117 l -22.28159569711141 58.92818080672834" fill="red" stroke="none" /><line stroke="#e1ed5e" stroke-width="0.3" x1="143.23703022742887" x2="145.7803849466894" y1="26.81831364943548" y2="22.513508569990506" /><path d="M 143.74570117128098 25.957352633546492 a86.0,86.0 0 0,1 28.547481713284135,27.462654790039103" fill="none" id="id26" stroke="none" /><text fill="#e1ed5e" style="font-size:6.75px; font-family:Arial;" text-anchor="middle"><textPath startOffset="19.985693538727396" xlink:href="#id26">February</textPath></text><line stroke="#e1ed5e" stroke-width="0.3" x1="172.23445277983987" x2="176.4835382374775" y1="55.19839476539836" y2="52.563006222186495" /><path d="M 173.08426987136738 54.67131705675599 a86.0,86.0 0 0,1 12.851231095245387,41.99856678651699" fill="none" id="id27" stroke="none" /><text fill="#e1ed5e" style="font-size:6.75px; font-family:Arial;" text-anchor="middle"><textPath startOffset="22.20632615414155" xlink:href="#id27">March</textPath></text><line stroke="#e1ed5e" stroke-width="0.3" x1="184.98032266829074" x2="189.97916517819016" y1="98.17113171792111" y2="98.06355123074" /><path d="M 185.9800911702706 98.14961562048488 a86.0,86.0 0 0,1 -9.607161424134198,41.387399972396054" fill="none" id="id28" stroke="none" /><text fill="#e1ed5e" style="font-size:6.75px; font-family:Arial;" text-anchor="middle"><textPath startOffset="21.466115282336823" xlink:href="#id28">April</textPath></text><line stroke="#e1ed5e" stroke-width="0.3" x1="174.80103733775053" x2="179.2010983576182" y1="140.37084112569926" y2="142.7455964860345" /><path d="M 175.68104954172406 140.8457921977663 a86.0,86.0 0 0,1 -30.038265399797805,32.042727171017184" fill="none" id="id29" stroke="none" /><text fill="#e1ed5e" style="font-size:6.75px; font-family:Arial;" text-anchor="middle"><textPath startOffset="22.206326154141568" xlink:href="#id29">May</textPath></text><line stroke="#e1ed5e" stroke-width="0.3" x1="143.8653032363475" x2="146.44561519142675" y1="172.8068346515853" y2="177.08958963109032" /><path d="M 144.38136562736335 173.6633856474863 a86.0,86.0 0 0,1 -40.68145358897372,12.25698825130547" fill="none" id="id30" stroke="none" /><text fill="#e1ed5e" style="font-size:6.75px; font-family:Arial;" text-anchor="middle"><textPath startOffset="21.466115282336833" xlink:href="#id30">June</textPath></text><line stroke="#e1ed5e" stroke-width="0.3" x1="102.19456741930631" x2="102.32365962044197" y1="184.97166512339345" y2="189.96999836594603" /><path d="M 102.22038585953345 185.97133177190398 a86.0,86.0 0 0,1 -42.740103519485714,-10.115201625700543" fill="none" id="id31" stroke="none" /><text fill="#e1ed5e" style="font-size:6.75px; font-family:Arial;" text-anchor="middle"><textPath startOffset="22.20632615414155" xlink:href="#id31">July</textPath></text><line stroke="#e1ed5e" stroke-width="0.3" x1="58.666819895761336" x2="56.23545636021788" y1="174.27360380694188" y2="178.64263932499728" /><path d="M 58.180547188652646 175.14741091055294 a86.0,86.0 0 0,1 -31.652253787137756,-30.449443065178592" fill="none" id="id32" stroke="none" /><text fill="#e1ed5e" style="font-size:6.75px; font-family:Arial;" text-anchor="middle"><textPath startOffset="22.20632615414155" xlink:href="#id32">August</textPath></text><line stroke="#e1ed5e" stroke-width="0.3" x1="26.63291911575756" x2="22.317208475507996" y1="142.92168965132927" y2="145.44649492493687" /><path d="M 25.769776987707644 143.4266507060508 a86.0,86.0 0 0,1 -11.730757126820373,-40.83630448921669" fill="none" id="id33" stroke="none" /><text fill="#e1ed5e" style="font-size:6.75px; font-family:Arial;" text-anchor="middle"><textPath startOffset="21.46611528233685" xlink:href="#id33">September</textPath></text><line stroke="#e1ed5e" stroke-width="0.3" x1="15.007084014347285" x2="10.007500721073583" y1="101.09737516637583" y2="101.16192664675087" /><path d="M 14.007167355692545 101.11028546245083 a86.0,86.0 0 0,1 10.666146001902534,-42.60595125391555" fill="none" id="id34" stroke="none" /><text fill="#e1ed5e" style="font-size:6.75px; font-family:Arial;" text-anchor="middle"><textPath startOffset="22.20632615414155" xlink:href="#id34">October</textPath></text><line stroke="#e1ed5e" stroke-width="0.3" x1="26.266209847984243" x2="21.928928074336255" y1="57.711370442889674" y2="55.22380399835377" /><path d="M 25.398753493254645 57.213857153982495 a86.0,86.0 0 0,1 29.58750427330803,-30.492523968695096" fill="none" id="id35" stroke="none" /><text fill="#e1ed5e" style="font-size:6.75px; font-family:Arial;" text-anchor="middle"><textPath startOffset="21.46611528233685" xlink:href="#id35">November</textPath></text><line stroke="#e1ed5e" stroke-width="0.3" x1="56.762969772571076" x2="54.21961505331055" y1="26.818313649435495" y2="22.513508569990535" /><path d="M 56.25429882871897 25.957352633546506 a86.0,86.0 0 0,1 42.265352541879196,-11.944610805530505" fill="none" id="id36" stroke="none" /><text fill="#e1ed5e" style="font-size:6.75px; font-family:Arial;" text-anchor="middle"><textPath startOffset="22.20632615414155" xlink:href="#id36">December</textPath></text></svg>