<?xml version="1.0" encoding="utf-8" ?>
<svg baseProfile="full" height="200mm" version="1.1" viewBox="0,0,200,200" width="200mm" xmlns="http://www.w3.org/2000/svg" xmlns:ev="http://www.w3.org/2001/xml-events" xmlns:xlink="http://www.w3.org/1999/xlink"><defs /><rect fill="#1a1a1a" height="200" width="200" x="0" y="0" /><rect fill="#1a1a1a" height="200" width="180" x="10" y="0" /><text alignment-baseline="middle" fill="#e1ed5e" style="dominant-baseline: central; font-size:9.0px; font-family:Arial;" text-anchor="middle" x="100.0" y="100.0">2025</text><line stroke="#e1ed5e" stroke-width="0.3" x1="100.0" x2="100.0" y1="15.0" y2="10.0" /><path d="M 100.0 14.0 a86.0,86.0 0 0,1 42.46469731375804,11.215312516191453" fill="none" id="id13" stroke="none" /><text fill="#e1ed5e" style="font-size:6.75px; font-family:Arial;" text-anchor="middle"><textPath startOffset="22.20632615414155" xlink:href="#id13">January</textPath></text><path d="M 100.36148047927253 79.00311137660856 l 0.44171321358796173 -25.657272469738018 a46.66107443482121,46.66107443482121 0 0,0 0.8029556892349559,0.020737976502905472 l -0.8832955380177854 25.645867701092754" fill="red" stroke="none" /><path d="M 100.72285384407766 79.0124445844662 l 1.4929748484450052 -43.34747974636396 a64.3731826623263,64.3731826623263 0 0,0 1.1070935746083468,0.047673778155831556 l -2.2389092554426835 43.31535824168393" fill="red" stroke="none" /><path d="M 101.80526077348638 79.07773832637324 l 2.036830421036977 -23.606062724910043 a44.6937729274265,44.6937729274265 0 0,0 0.7659126596245284,0.07273263587414619 l -2.44286820775175 23.56750454452072" fill="red" stroke="none" /><path d="M 102.52436894288641 79.15227682838746 l 6.5977818430593365 -54.48836224926658 a75.88635846780056,75.88635846780056 0 0,0 1.2954353246609713,0.16818468438375486 l -7.534731896228154 54.366719241718684" fill="red" stroke="none" /><path d="M 103.2404852339499 79.25152402106235 l 9.15128547736124 -58.59468974403787 a80.3050056242154,80.3050056242154 0 0,0 1.3639261955719524,0.22505950883997786 l -10.158540879072067 58.42848397225827" fill="red" stroke="none" /><path d="M 104.66035177308747 79.52364482259891 l 7.859569793534281 -34.532874441656475 a56.41598868509317,56.41598868509317 0 0,0 0.9450384998098126,0.22366007993564319 l -8.452831980306618 34.392468449579965" fill="red" stroke="none" /><path d="M 105.01212808612495 79.60689891045804 l 9.96888237847506 -40.56090000109531 a62.767992826741434,62.767992826741434 0 0,0 1.0470033315376015,0.2669044617105717 l -10.665594598697686 40.383292543215866" fill="red" stroke="none" /><path d="M 105.71112130821622 79.79150937346287 l 15.269828033896193 -54.03145197562007 a77.14771100212813,77.14771100212813 0 0,0 1.2748100189516405,0.37215200212440497 l -16.19762827057126 53.760601644576965" fill="red" stroke="none" /><path d="M 106.40334571778207 80.00007090966166 l 11.266778304616002 -35.19016106582042 a57.94980012400269,57.94980012400269 0 0,0 0.94738865858041,0.3123391455217865 l -11.87084978543883 34.991008196039395" fill="red" stroke="none" /><path d="M 108.43124777332544 80.76684994638697 l 18.186721184703302 -41.487090278057266 a66.2982945284898,66.2982945284898 0 0,0 1.0412553833643792,0.46718093864969457 l -18.89815868653446 41.16788900889104" fill="red" stroke="none" /><line stroke="#e1ed5e" stroke-width="0.3" x1="143.23703022742887" x2="145.7803849466894" y1="26.81831364943548" y2="22.513508569990506" /><path d="M 143.74570117128098 25.957352633546492 a86.0,86.0 0 0,1 28.547481713284135,27.462654790039103" fill="none" id="id14" stroke="none" /><text fill="#e1ed5e" style="font-size:6.75px; font-family:Arial;" text-anchor="middle"><textPath startOffset="19.985693538727396" xlink:href="#id14">February</textPath></text><path d="M 113.34407831869373 83.78471172551755 l 18.20765155359516 -22.125343668679506 a49.65395971858536,49.65395971858536 0 0,0 0.6552962236257867,0.548791741976075 l -18.58580531418006 21.80865076930961" fill="red" stroke="none" /><path d="M 113.89432698308785 84.25364557470407 l 30.454067328489536 -34.51340525020879 a67.02852766288873,67.02852766288873 0 0,0 0.8585684504254906,0.7708312319677236 l -31.043646766511017 33.984075009471766" fill="red" stroke="none" /><path d="M 114.42810811169701 84.74124197986012 l 16.86046796484634 -17.83115282961731 a45.5402809932319,45.5402809932319 0 0,0 0.5649526804445626,0.5434840309762472 l -17.16490388890332 17.53828571187876" fill="red" stroke="none" /><path d="M 115.4437574822437 85.77008943001954 l 16.352328579164293 -15.067069886326507 a43.23545018479276,43.23545018479276 0 0,0 0.4995884256270743,0.5516580175314991 l -16.609260645407403 14.78335908152546" fill="red" stroke="none" /><path d="M 115.68641384162765 86.03803664274999 l 35.99301268583459 -32.03620211160472 a69.18521773260174,69.18521773260174 0 0,0 0.7841259400236834,0.8963914993215666 l -36.539130489436126 31.411895056080212" fill="red" stroke="none" /><path d="M 116.15771136456269 86.58626213691792 l 39.72581096841331 -32.97939929149543 a72.63120020613502,72.63120020613502 0 0,0 0.7903018461620046,0.968816617052466 l -40.287611306651726 32.29069850483487" fill="red" stroke="none" /><path d="M 116.60985879189232 87.15038557335679 l 8.738688656001848 -6.760369322279586 a32.04840589407152,32.04840589407152 0 0,0 0.33379797364270347,0.4392390059551333 l -8.853762569868664 6.608945540443418" fill="red" stroke="none" /><path d="M 116.82858285166822 87.43820079747576 l 10.283213247044381 -7.675967792695256 a33.832184390768546,33.832184390768546 0 0,0 0.34434298593524465,0.4696834458352427 l -10.413818845493251 7.49782190318852" fill="red" stroke="none" /><path d="M 117.2510076193507 88.02491185347247 l 51.75302285805209 -35.92526443958259 a84.0,84.0 0 0,0 0.8143021373250665,1.1948879069183742 l -52.36374946104589 35.02909850939381" fill="red" stroke="none" /><path d="M 117.45458315368197 88.32363383020206 l 9.155485793259698 -6.124626617733493 a32.0151700539406,32.0151700539406 0 0,0 0.30247225991857235,0.46068600328494125 l -9.259554688536197 5.966122550470877" fill="red" stroke="none" /><path d="M 117.65298651832404 88.62581576622439 l 48.762711694305196 -31.418823436691124 a79.00814182447064,79.00814182447064 0 0,0 0.7267710796368304,1.149577313533172 l -49.29631037018798 30.574798475443743" fill="red" stroke="none" /><line stroke="#e1ed5e" stroke-width="0.3" x1="172.23445277983987" x2="176.4835382374775" y1="55.19839476539836" y2="52.563006222186495" /><path d="M 173.08426987136738 54.67131705675599 a86.0,86.0 0 0,1 12.851231095245387,41.99856678651699" fill="none" id="id15" stroke="none" /><text fill="#e1ed5e" style="font-size:6.75px; font-family:Arial;" text-anchor="middle"><textPath startOffset="22.20632615414155" xlink:href="#id15">March</textPath></text><path d="M 118.03404312379186 89.2402003453031 l 5.220629553724853 -3.1148272011927025 a27.079236911859525,27.079236911859525 0 0,0 0.23538346290409365,0.40234663877364274 l -5.273472691099275 3.0245011500651646" fill="red" stroke="none" /><path d="M 118.21658344932153 89.55222093294921 l 18.15178204942659 -10.410613442046442 a41.92529722153555,41.92529722153555 0 0,0 0.3536545733018387,0.6291120240662296 l -18.32829426402086 10.096617908045419" fill="red" stroke="none" /><path d="M 118.56541770881063 90.18545643968196 l 30.203018018518826 -15.966720525504089 a55.16370093778668,55.16370093778668 0 0,0 0.43655651084936137,0.8432882258143867 l -30.473383962528303 15.444459577429356" fill="red" stroke="none" /><path d="M 118.73160827565052 90.50648371742162 l 8.177910291443773 -4.1447121553469835 a30.168252591720137,30.168252591720137 0 0,0 0.23077274788343974,0.46522377778906054 l -8.248043052280622 4.0033287890589735" fill="red" stroke="none" /><path d="M 118.89224826269711 90.83032412892265 l 43.843336985850726 -21.280113604079506 a69.73480720242357,69.73480720242357 0 0,0 0.514848117179079,1.0844014374188613 l -44.203143296871566 20.522269751020104" fill="red" stroke="none" /><path d="M 119.04729006885535 91.15688171328212 l 11.071341185625524 -5.140110710929154 a33.206364477973636,33.206364477973636 0 0,0 0.23623590071808948,0.5205144929770308 l -11.158179403306962 4.94877420911006" fill="red" stroke="none" /><path d="M 119.34039704204932 91.81776055985345 l 11.290694427927768 -4.77669434882731 a33.25955095290843,33.25955095290843 0 0,0 0.2185284159716605,0.5291838927938467 l -11.371244530785626 4.581635885580161" fill="red" stroke="none" /><path d="M 119.47837535516314 92.15188598940014 l 10.025288311420399 -4.039331013112742 a31.808450432906508,31.808450432906508 0 0,0 0.20025153883325994,0.5096183238511672 l -10.093333400135359 3.86616368436579" fill="red" stroke="none" /><path d="M 119.61058180528143 92.48833698450437 l 30.145902279112903 -11.547126009171876 a53.28175248175845,53.28175248175845 0 0,0 0.32069376334697186,0.8592998468619757 l -30.340200630961498 11.026503025280567" fill="red" stroke="none" /><path d="M 119.85752413597 93.16781622104841 l 10.447678059497518 -3.594630230689659 a32.04877112308395,32.04877112308395 0 0,0 0.17499042039342638,0.5231990837752294 l -10.508005773662715 3.4142580439921155" fill="red" stroke="none" /><path d="M 119.97218684219823 93.5106431181261 l 43.481293785918474 -14.12792876873439 a66.71893787689939,66.71893787689939 0 0,0 0.3454913629963109,1.0953020347270068 l -43.71804063268299 13.377376567580965" fill="red" stroke="none" /><path d="M 120.18372546131832 94.20196356495316 l 35.25021679492798 -10.126081119760894 a57.675813596066284,57.675813596066284 0 0,0 0.26589437021179235,0.9565635210297818 l -35.41929793570613 9.51780629531216" fill="red" stroke="none" /><path d="M 120.37134235888165 94.90015583598534 l 44.157611728863984 -11.054594955255304 a66.52031132606479,66.52031132606479 0 0,0 0.2685114531851909,1.113153323552059 l -44.34135598231 10.292856400043839" fill="red" stroke="none" /><path d="M 120.45610955862082 95.25157060432595 l 11.751919704751915 -2.7279459381917506 a33.06438169939236,33.06438169939236 0 0,0 0.12392154428806122,0.5555159844703946 l -11.797135636042013 2.525251784171392" fill="red" stroke="none" /><path d="M 120.53481517161879 95.60439243477599 l 43.8191028859415 -9.379757184909211 a65.81175763766227,65.81175763766227 0 0,0 0.2275855322246959,1.1097878804842725 l -43.974067714081194 8.624093648261526" fill="red" stroke="none" /><path d="M 120.67395015179393 96.31383870115 l 43.49635667173556 -7.7553919510836495 a65.1823397754099,65.1823397754099 0 0,0 0.18744000765682514,1.106281535561044 l -43.62340854091261 7.005524627206768" fill="red" stroke="none" /><path d="M 120.78858239683441 97.02765380044208 l 34.19149912768565 -4.888691809251972 a55.53922292415358,55.53922292415358 0 0,0 0.12716895463866887,0.9475564223669497 l -34.27058408138216 4.299417044820358" fill="red" stroke="none" /><path d="M 120.83666639777658 97.38593545837742 l 11.312359646767238 -1.4191923828013007 a32.40103450557049,32.40103450557049 0 0,0 0.06466266278319022,0.553990205903695 l -11.335112662554018 1.2242584385727528" fill="red" stroke="none" /><path d="M 120.87857604477298 97.74499172005257 l 11.043121024585618 -1.1927216345358227 a32.107344725952046,32.107344725952046 0 0,0 0.054617459062978234,0.5499903591444218 l -11.062015609330826 1.002455744686966" fill="red" stroke="none" /><path d="M 120.91429891909075 98.10471618934814 l 45.335475306686334 -4.108365894997233 a66.5212476939104,66.5212476939104 0 0,0 0.09352734167304519,1.1412704644805105 l -45.39947713217887 3.327381513308954" fill="red" stroke="none" /><path d="M 120.96714384426684 98.82574320788733 l 48.87038278392666 -2.736966910868184 a69.94696416856415,69.94696416856415 0 0,0 0.05697810342595443,1.202717708890834 l -48.91025449558611 1.8953380953543504" fill="red" stroke="none" /><line stroke="#e1ed5e" stroke-width="0.3" x1="184.98032266829074" x2="189.97916517819016" y1="98.17113171792111" y2="98.06355123074" /><path d="M 185.9800911702706 98.14961562048488 a86.0,86.0 0 0,1 -9.607161424134198,41.387399972396054" fill="none" id="id16" stroke="none" /><text fill="#e1ed5e" style="font-size:6.75px; font-family:Arial;" text-anchor="middle"><textPath startOffset="21.466115282336823" xlink:href="#id16">April</textPath></text><path d="M 120.99513854157772 99.54816195383933 l 46.190728455004965 -0.9940743403295983 a67.20142399318561,67.20142399318561 0 0,0 0.014934693688360793,1.1567084847734417 l -46.20099615581105 0.198829597495694" fill="red" stroke="none" /><path d="M 120.99824983174949 100.27111621757518 l 49.414239649546204 0.6380056364451078 a70.41835824200274,70.41835824200274 0 0,0 -0.02608140839195171,1.211900563047614 l -49.39593617846925 -1.4884960152828366" fill="red" stroke="none" /><path d="M 120.92983693683757 101.71520430193887 l 27.516128293682282 2.254952189281454 a48.60837057217118,48.60837057217118 0 0,0 -0.07551751020145787,0.8333294323004569 l -27.47323618720375 -2.7282630101304814" fill="red" stroke="none" /><path d="M 120.89721153311464 102.0752229133903 l 44.03685769480211 4.373133514830268 a65.25346463691609,65.25346463691609 0 0,0 -0.12061853887083723,1.1167778666794446 l -43.95505685443022 -5.130507703394504" fill="red" stroke="none" /><path d="M 120.8583938346157 102.4346265915055 l 11.481414766957885 1.3401299218614884 a32.559361282457914,32.559361282457914 0 0,0 -0.0697677198855816,0.5561173725600024 l -11.456645537825455 -1.5375650487088857" fill="red" stroke="none" /><path d="M 120.81339534386255 102.79330883721812 l 21.72402724161589 2.915522252445302 a42.91879626254537,42.91879626254537 0 0,0 -0.10457052095229892,0.7313659799858164 l -21.67062266964699 -3.289033704411528" fill="red" stroke="none" /><path d="M 120.76222939487914 103.15116336523771 l 26.222968358581983 3.9799607088308075 a47.52327575506142,47.52327575506142 0 0,0 -0.12971194253737317,0.8077163899999409 l -26.150574661683322 -4.4307563285239535" fill="red" stroke="none" /><path d="M 120.70491114924044 103.5080841355445 l 20.515714009865064 3.476027997831612 a41.808106400542144,41.808106400542144 0 0,0 -0.12632729000838736,0.7085105302525462 l -20.45284027751749 -3.8286572788173765" fill="red" stroke="none" /><path d="M 120.49622156327973 104.57218783832717 l 28.276883004192126 6.307856312852978 a49.97190300440012,49.97190300440012 0 0,0 -0.19450833671204631,0.8379368237993665 l -28.164114101549526 -6.79366179400091" fill="red" stroke="none" /><path d="M 120.41448212921028 104.9243191809786 l 44.739350201505864 10.791889745102083 a67.02254165866356,67.02254165866356 0 0,0 -0.2801819449913622,1.1191875948819803 l -44.54695694221944 -11.560405179381458" fill="red" stroke="none" /><path d="M 120.23288151984713 105.62410040840565 l 22.5444312673437 6.266638045281205 a44.39919087401422,44.39919087401422 0 0,0 -0.2110174364536247,0.7345793791819726 l -22.433221194003977 -6.653774899967759" fill="red" stroke="none" /><path d="M 119.79798401119884 107.00284435728193 l 22.098407622249745 7.816538746311308 a44.440091668158885,44.440091668158885 0 0,0 -0.2612987218914945,0.7189818593098314 l -21.960584639353023 -8.195768402627271" fill="red" stroke="none" /><path d="M 119.54520255179757 107.68017299344265 l 20.221110092378055 7.945766907113964 a42.72621699952067,42.72621699952067 0 0,0 -0.2748666771098381,0.6821965509344956 l -20.081340801010825 -8.292662825891274" fill="red" stroke="none" /><path d="M 119.26925614724726 108.34839909993367 l 44.33541205294581 19.208303177332382 a69.31757105708864,69.31757105708864 0 0,0 -0.483767048723325,1.0907669841000602 l -43.99820391949122 -19.96861849792513" fill="red" stroke="none" /><path d="M 118.81262510543309 109.33194174019688 l 40.833111950385394 20.255132904439023 a66.5808451054738,66.5808451054738 0 0,0 -0.5181300130424241,1.0223196707397766 l -40.4784032675567 -20.955006786881494" fill="red" stroke="none" /><line stroke="#e1ed5e" stroke-width="0.3" x1="174.80103733775053" x2="179.2010983576182" y1="140.37084112569926" y2="142.7455964860345" /><path d="M 175.68104954172406 140.8457921977663 a86.0,86.0 0 0,1 -30.038265399797805,32.042727171017184" fill="none" id="id17" stroke="none" /><text fill="#e1ed5e" style="font-size:6.75px; font-family:Arial;" text-anchor="middle"><textPath startOffset="22.206326154141568" xlink:href="#id17">May</textPath></text><path d="M 117.55443506779139 111.5257021239791 l 17.247111897998867 11.323923183378238 a41.632355781275805,41.632355781275805 0 0,0 -0.3984749631653548,0.5956660041392307 l -17.049633829422792 -11.619126101723275" fill="red" stroke="none" /><path d="M 117.35343817320211 111.8261652097733 l 17.65427332193156 12.031180846114179 a42.36405109236937,42.36405109236937 0 0,0 -0.4158517648151398,0.5990654829064107 l -17.444560649954283 -12.33328759120761" fill="red" stroke="none" /><path d="M 117.14729908036423 112.12312394758627 l 36.87702830791019 26.072023523948847 a66.16265744457196,66.16265744457196 0 0,0 -0.6654709639249694,0.9242809651564738 l -36.42277755160961 -26.70293809455645" fill="red" stroke="none" /><path d="M 116.27256486870786 113.27417163493432 l 18.35931591743728 14.976416597772387 a44.69298493365279,44.69298493365279 0 0,0 -0.4914185237084775,0.5919452688228277 l -18.09880139383526 -15.290223123708984" fill="red" stroke="none" /><path d="M 115.80600337817218 113.82643327865902 l 18.288786360107892 15.998268398758436 a45.298648075240344,45.298648075240344 0 0,0 -0.5184347232275405,0.5824669074349083 l -18.010692787232014 -16.31070947593421" fill="red" stroke="none" /><path d="M 115.56566222782051 114.09645910891815 l 17.521824844649316 15.867984530383154 a44.63910486763509,44.63910486763509 0 0,0 -0.5206909086277556,0.5651071436120199 l -17.246087528025836 -16.167242928796508" fill="red" stroke="none" /><path d="M 114.55890576462653 115.13401014063108 l 5.652406269622107 5.875687032144345 a29.15312177859331,29.15312177859331 0 0,0 -0.36464192413701835,0.3447916990728912 l -5.550428511094281 -5.972113367963158" fill="red" stroke="none" /><path d="M 114.29624159901734 115.38237550388516 l 15.99294249265025 17.207980512227554 a44.49231369794004,44.49231369794004 0 0,0 -0.5654770748210389,0.5165499005169828 l -15.694365868362349 -17.480723179331118" fill="red" stroke="none" /><path d="M 113.75828350139079 115.86535959552629 l 25.585904505557696 29.504376437397486 a60.053127126098026,60.053127126098026 0 0,0 -0.7867946910427132,0.6705235048528918 l -25.074244337937937 -29.940424332473324" fill="red" stroke="none" /><path d="M 112.34349029814194 116.9893568818739 l 19.843830805675257 27.31268995382034 a54.76034143129753,54.76034143129753 0 0,0 -0.7673558095664458,0.5474879955652693 l -19.370747668259927 -27.650222211229828" fill="red" stroke="none" /><path d="M 111.7513745106137 117.40417183066458 l 13.141779611117464 19.463407476804846 a44.48468867060676,44.48468867060676 0 0,0 -0.6383029626252136,0.4230323980312751 l -12.804801949752285 -19.68673789592744" fill="red" stroke="none" /><path d="M 111.45004920935366 117.60387380957326 l 20.41951745410262 31.39397935694043 a58.450482412412306,58.450482412412306 0 0,0 -0.8481393176284696,0.5413226408334249 l -19.87609633442722 -31.740816426597664" fill="red" stroke="none" /><line stroke="#e1ed5e" stroke-width="0.3" x1="143.8653032363475" x2="146.44561519142675" y1="172.8068346515853" y2="177.08958963109032" /><path d="M 144.38136562736335 173.6633856474863 a86.0,86.0 0 0,1 -40.68145358897372,12.25698825130547" fill="none" id="id18" stroke="none" /><text fill="#e1ed5e" style="font-size:6.75px; font-family:Arial;" text-anchor="middle"><textPath startOffset="21.466115282336833" xlink:href="#id18">June</textPath></text><path d="M 109.89434966115114 118.52300852407294 l 16.491606061973485 30.87359655996307 a56.00217186191,56.00217186191 0 0,0 -0.8541907202687845,0.4468722132980043 l -15.957724439178204 -31.152898192205793" fill="red" stroke="none" /><path d="M 109.57404056367764 118.69057910512821 l 9.606809964785393 18.754551999284924 a42.0718774292511,42.0718774292511 0 0,0 -0.647398227986303,0.32461891127908366 l -9.28255782911633 -18.91713875147331" fill="red" stroke="none" /><path d="M 109.2508944713604 118.85261126421891 l 16.111034067821258 32.833048013416125 a57.572865085822656,57.572865085822656 0 0,0 -0.8934413046857761,0.42890612058784494 l -15.54348009513525 -33.10550841050353" fill="red" stroke="none" /><path d="M 108.2653958097858 119.30500536409082 l 8.82620321380862 20.61485067483377 a43.424850757968045,43.424850757968045 0 0,0 -0.6896870045164596,0.28828922382315236 l -8.470044749794699 -20.763724941676895" fill="red" stroke="none" /><path d="M 107.59598834532513 119.57807347666477 l 16.545299762717878 42.644232682017105 a66.74142023676362,66.74142023676362 0 0,0 -1.0746315090858385,0.40633368417328314 l -15.808798032871763 -42.92271461629702" fill="red" stroke="none" /><path d="M 106.91757812671514 119.82793768551818 l 15.030133011445162 43.08105167689661 a66.62764416369937,66.62764416369937 0 0,0 -1.0861266295391723,0.36847312300889284 l -14.286336648968764 -43.33338778680362" fill="red" stroke="none" /><path d="M 103.41894727170886 120.7198165907248 l 5.776794414358343 35.009057243518924 a56.48246669533766,56.48246669533766 0 0,0 -0.9606434018333795,0.1500327427369838 l -5.173315148916446 -35.103308293603014" fill="red" stroke="none" /><path d="M 102.34483914955558 120.86867818915974 l 2.495565326854148 22.210116082382406 a43.34987925456194,43.34987925456194 0 0,0 -0.7422477867154043,0.07693701796114955 l -2.1128849435331407 -22.249782468799314" fill="red" stroke="none" /><path d="M 101.98527174616119 120.90594882070398 l 3.799381868684983 40.009476310045535 a61.18946997894084,61.18946997894084 0 0,0 -1.049415967014233,0.09054802534608879 l -3.1101215839292085 -40.06894858767029" fill="red" stroke="none" /><line stroke="#e1ed5e" stroke-width="0.3" x1="102.19456741930631" x2="102.32365962044197" y1="184.97166512339345" y2="189.96999836594603" /><path d="M 102.22038585953345 185.97133177190398 a86.0,86.0 0 0,1 -42.740103519485714,-10.115201625700543" fill="none" id="id19" stroke="none" /><text fill="#e1ed5e" style="font-size:6.75px; font-family:Arial;" text-anchor="middle"><textPath startOffset="22.20632615414155" xlink:href="#id19">July</textPath></text><path d="M 100.54218724476979 120.99299961872073 l 0.7064777429174421 27.354179078848723 a48.36330067588636,48.36330067588636 0 0,0 -0.832402209243167,0.014330558919549326 l -0.23551584378160723 -27.36228711504743" fill="red" stroke="none" /><path d="M 99.81925306533755 120.99922214144158 l -0.3065049791031578 35.60982185211207 a56.61114092024255,56.61114092024255 0 0,0 -0.9743594442734449,-0.016774481458519216 l 0.9194241132692705 -35.59926989337439" fill="red" stroke="none" /><path d="M 99.45781275523022 120.99299961872073 l -0.7339085816488202 28.416276338761065 a49.425752105565294,49.425752105565294 0 0,0 -0.8503103970911857,-0.029286409351974692 l 1.222939330414649 -28.399433130983" fill="red" stroke="none" /><path d="M 98.37488393609728 120.93702456842531 l -1.6884003739610953 21.75234181494009 a42.81776959858141,42.81776959858141 0 0,0 -0.734336334407741,-0.0633616288588491 l 2.062581026110378 -21.720055933802577" fill="red" stroke="none" /><path d="M 97.65516085044442 120.86867818915974 l -4.268029833412549 37.98475520681263 a59.22378456903998,59.22378456903998 0 0,0 -1.0120853421400353,-0.12254944025388052 l 4.921242598603974 -37.9056602378334" fill="red" stroke="none" /><path d="M 96.93821686468263 120.77559828337769 l -3.479978217387081 23.613243095300035 a44.868294825379195,44.868294825379195 0 0,0 -0.763111703460238,-0.11918235389565461 l 3.885925784455836 -23.549842434057272" fill="red" stroke="none" /><path d="M 95.51606077576429 120.51570834832081 l -7.917266138531177 36.224470246210274 a58.079581277664204,58.079581277664204 0 0,0 -0.9748515300988653,-0.2218730344064025 l 8.539637818022905 -36.08282047822618" fill="red" stroke="none" /><path d="M 94.81253420990036 120.34920634021253 l -9.115482280947631 35.75788975410122 a57.90147282806917,57.90147282806917 0 0,0 -0.9636722918429067,-0.254514610956876 l 9.729645015602026 -35.59568379384076" fill="red" stroke="none" /><path d="M 94.46302465271185 120.25689768951611 l -5.78707576920789 21.17188436385886 a42.94855196761655,42.94855196761655 0 0,0 -0.7114506002177645,-0.20106304610950504 l 6.150657537530269 -21.069132524410836" fill="red" stroke="none" /><path d="M 90.10565033884886 118.52300852407294 l -17.15881284889439 32.12266066469955 a57.41826720977838,57.41826720977838 0 0,0 -0.8677737235435476,-0.47317942382894546 l 17.70920938430658 -31.82254058911084" fill="red" stroke="none" /><line stroke="#e1ed5e" stroke-width="0.3" x1="58.666819895761336" x2="56.23545636021788" y1="174.27360380694188" y2="178.64263932499728" /><path d="M 58.180547188652646 175.14741091055294 a86.0,86.0 0 0,1 -31.652253787137756,-30.449443065178592" fill="none" id="id20" stroke="none" /><text fill="#e1ed5e" style="font-size:6.75px; font-family:Arial;" text-anchor="middle"><textPath startOffset="22.20632615414155" xlink:href="#id20">August</textPath></text><path d="M 89.7882731507175 118.34994917583269 l -17.257732712717736 31.01126017591496 a56.48982383841736,56.48982383841736 0 0,0 -0.8456021800004895,-0.4801549866655412 l 17.78898365963943 -30.709602023454785" fill="red" stroke="none" /><path d="M 84.9287848128048 114.62390073753433 l -17.648536781215547 17.124727292759946 a45.59120036454738,45.59120036454738 0 0,0 -0.5416526574154218,-0.567920645801282 l 17.940695990009925 -16.818399530376162" fill="red" stroke="none" /><path d="M 84.19399662182784 113.82643327865904 l -24.320671416072578 21.274710157970624 a53.312665480183284,53.312665480183284 0 0,0 -0.5982632835786936,-0.6959153577551804 l 24.68327720922205 -20.852917701053915" fill="red" stroke="none" /><path d="M 83.95833913139862 113.55231037782056 l -17.831044888294095 15.064017165454581 a44.342467199708544,44.342467199708544 0 0,0 -0.48756443100011243,-0.5873027658762483 l 18.087705319187744 -14.754853142464572" fill="red" stroke="none" /><path d="M 83.28015986056508 112.70617746262583 l -24.294700749125504 18.462663311696613 a51.51397091580556,51.51397091580556 0 0,0 -0.5304436103971439,-0.7106158999829033 l 24.608905626217734 -18.0417345322044" fill="red" stroke="none" /><path d="M 83.06392112726016 112.41649034213515 l -20.363042825110316 14.928929327403619 a46.249286008912975,46.249286008912975 0 0,0 -0.46518018063250055,-0.6460945850901866 l 20.617002798118424 -14.576201136862295" fill="red" stroke="none" /><path d="M 82.85270091963577 112.12312394758628 l -37.82050344056369 26.739059534752567 a67.31811508795163,67.31811508795163 0 0,0 -0.6608045321802579,-0.9519382137365495 l 38.27516887990608 -26.084080058829006" fill="red" stroke="none" /><path d="M 82.6465618267979 111.8261652097733 l -14.552528146894682 9.917377776515634 a38.610521213987056,38.610521213987056 0 0,0 -0.3695521363087864,-0.5524303022893412 l 14.721083388614199 -9.665410560020472" fill="red" stroke="none" /><line stroke="#e1ed5e" stroke-width="0.3" x1="26.63291911575756" x2="22.317208475507996" y1="142.92168965132927" y2="145.44649492493687" /><path d="M 25.769776987707644 143.4266507060508 a86.0,86.0 0 0,1 -11.730757126820373,-40.83630448921669" fill="none" id="id21" stroke="none" /><text fill="#e1ed5e" style="font-size:6.75px; font-family:Arial;" text-anchor="middle"><textPath startOffset="21.46611528233685" xlink:href="#id21">September</textPath></text><path d="M 81.87401531095188 110.60418214915194 l -41.90455130629047 24.515274759052133 a69.54884258860709,69.54884258860709 0 0,0 -0.5956295480701675,-1.0385303228243694 l 42.32033285051302 -23.790324590369455" fill="red" stroke="none" /><path d="M 81.69416730710424 110.29060199501025 l -20.57828110014531 11.568056154321749 a44.60689679365204,44.60689679365204 0 0,0 -0.3704997667606868,-0.6725646956026609 l 20.774357276357513 -11.212120940321265" fill="red" stroke="none" /><path d="M 81.51974371655577 109.97397251340807 l -13.089620450432452 7.064594374728298 a35.874362413758185,35.874362413758185 0 0,0 -0.28861350232551747,-0.5459479795617025 l 13.209286460982856 -6.838231380080469" fill="red" stroke="none" /><path d="M 81.18737489456691 109.33194174019688 l -32.952751885262465 16.34610582250015 a57.784222601164785,57.784222601164785 0 0,0 -0.4343357788878102,-0.8948603505171042 l 33.229240920764994 -15.776456516017761" fill="red" stroke="none" /><path d="M 80.58989483394504 108.01547362559985 l -38.22646473045436 15.785757842400978 a62.357620294784795,62.357620294784795 0 0,0 -0.4011595944264707,-0.9956452145076025 l 38.492526939138216 -15.12541326005057" fill="red" stroke="none" /><path d="M 80.32549172779594 107.34259656027581 l -22.302534636936798 8.323385359620938 a44.80507918652063,44.80507918652063 0 0,0 -0.2634447744416702,-0.7248868742350358 l 22.44250367238369 -7.938250688379783" fill="red" stroke="none" /><path d="M 79.76711848015287 105.62410040840567 l -22.214827313485603 6.175018582690732 a44.057090169068644,44.057090169068644 0 0,0 -0.196813351406867,-0.7324156969487948 l 22.317828741234248 -5.791711952566398" fill="red" stroke="none" /><path d="M 79.67330655649465 105.27499134158121 l -22.950185781981318 5.95581527433881 a44.71039356504875,44.71039356504875 0 0,0 -0.18690793754410961,-0.7466043006118377 l 23.049305033820488 -5.5598831343295805" fill="red" stroke="none" /><path d="M 79.58551787078972 104.9243191809786 l -22.394822539541533 5.402010861117168 a44.03713953426478,44.03713953426478 0 0,0 -0.17140813636037994,-0.7384217652728019 l 22.48449124183247 -5.0157204384957925" fill="red" stroke="none" /><path d="M 79.50377843672027 104.57218783832718 l -27.054313802319847 6.035132092973934 a48.71928416633514,48.71928416633514 0 0,0 -0.17554245090966103,-0.8200758895588751 l 27.15419029195395 -5.568542383998896" fill="red" stroke="none" /><path d="M 79.29508885075956 103.50808413554451 l -45.74850673687203 7.751282270745676 a67.40051988388063,67.40051988388063 0 0,0 -0.1839656930895703,-1.1455545464777401 l 45.875154184322895 -6.962648494574723" fill="red" stroke="none" /><path d="M 79.10278846688536 102.07522291339032 l -23.147805460753684 2.298720870520747 a44.26166406965473,44.26166406965473 0 0,0 -0.06876450760575972,-0.7588106113755674 l 23.18394456463652 -1.899928870596613" fill="red" stroke="none" /><path d="M 79.04373962182676 101.35467743843564 l -32.51626710113554 2.1019520004596917 a53.58413461187248,53.58413461187248 0 0,0 -0.05157766166855532,-0.9209537970054289 l 32.54763111369163 -1.5419264871188252" fill="red" stroke="none" /><path d="M 79.0235259727143 100.99374915477108 l -27.595885659237588 1.3073402142493056 a48.626835572564374,48.626835572564374 0 0,0 -0.032412951629107435,-0.8364342578342578 l 27.614300743717898 -0.832128709401051" fill="red" stroke="none" /><line stroke="#e1ed5e" stroke-width="0.3" x1="15.007084014347285" x2="10.007500721073583" y1="101.09737516637583" y2="101.16192664675087" /><path d="M 14.007167355692545 101.11028546245083 a86.0,86.0 0 0,1 10.666146001902534,-42.60595125391555" fill="none" id="id22" stroke="none" /><text fill="#e1ed5e" style="font-size:6.75px; font-family:Arial;" text-anchor="middle"><textPath startOffset="22.20632615414155" xlink:href="#id22">October</textPath></text><path d="M 79.16333360222342 97.38593545837743 l -22.79209740698868 -2.8593831913138597 a43.97075916125604,43.97075916125604 0 0,0 0.10068047737798075,-0.7501864996652562 l 22.739500930552865 3.251288033043775" fill="red" stroke="none" /><path d="M 79.21141760316559 97.0276538004421 l -22.970306731675656 -3.284288587516778 a44.203912232064596,44.203912232064596 0 0,0 0.11418103454837353,-0.7523103555943784 l 22.91036980368798 3.6791980555032486" fill="red" stroke="none" /><path d="M 79.26566170972629 96.67025291283419 l -27.67811214915267 -4.444854328923613 a49.032741966251244,49.032741966251244 0 0,0 0.14099981009053106,-0.8321888606959456 l 27.597500477541917 4.920628977935387" fill="red" stroke="none" /><path d="M 79.3925641242962 95.95851677861259 l -23.013638291201737 -4.513382139241723 a44.452039692382684,44.452039692382684 0 0,0 0.15372087716549707,-0.7495975899173051 l 22.932538118121244 4.908855385322431" fill="red" stroke="none" /><path d="M 79.46518482838121 95.60439243477599 l -19.050039928349324 -4.0777819974052685 a40.481589444654304,40.481589444654304 0 0,0 0.15172039582730296,-0.6801327851138087 l 18.97702514551998 4.405092952069037" fill="red" stroke="none" /><path d="M 79.54389044137918 95.25157060432595 l -18.02747569011501 -4.184676233348879 a39.5067932104847,39.5067932104847 0 0,0 0.15947048719656398,-0.6611081230448855 l 17.952772402657633 4.494369588053162" fill="red" stroke="none" /><path d="M 79.62865764111835 94.90015583598534 l -19.58545458601516 -4.903101843287013 a41.18985980700477,41.18985980700477 0 0,0 0.17810430286780132,-0.6863085322672455 l 19.49815395127705 5.239506801103122" fill="red" stroke="none" /><path d="M 79.71946130924805 94.55025226153421 l -23.010105500184824 -6.183231733813572 a44.8263994301211,44.8263994301211 0 0,0 0.20665659489106045,-0.7434537252351778 l 22.900262134727402 6.578396762467692" fill="red" stroke="none" /><path d="M 80.02781315780177 93.51064311812611 l -23.000528543895978 -7.4733247476789675 a45.18418690142062,45.18418690142062 0 0,0 0.2467114832780439,-0.7376359329710421 l 22.86847976684616 7.868133783572332" fill="red" stroke="none" /><path d="M 80.2630227832202 92.82701384747504 l -30.63422220254622 -11.133358935299425 a53.59458929235322,53.59458929235322 0 0,0 0.32257667465205947,-0.8643451130350017 l 30.438040939392533 11.659027185363769" fill="red" stroke="none" /><path d="M 80.38941819471856 92.48833698450439 l -34.493808832907085 -13.21255384702268 a57.93771009363754,57.93771009363754 0 0,0 0.3647494752125492,-0.9282476292888154 l 34.26126580781285 13.804350481207258" fill="red" stroke="none" /><path d="M 80.52162464483688 92.15188598940014 l -17.19398198379223 -6.927699484404518 a39.537152872142755,39.537152872142755 0 0,0 0.2597747456486048,-0.6290651517360856 l 17.072185551257427 7.2226392065939145" fill="red" stroke="none" /><path d="M 80.95270993114464 91.15688171328213 l -33.71117364635823 -15.651144864238791 a58.16721087432182,58.16721087432182 0 0,0 0.42944521110202694,-0.9045211367641095 l 33.43677024141445 16.229108416643435" fill="red" stroke="none" /><path d="M 81.10775173730289 90.83032412892265 l -20.965969989124705 -10.176192184739062 a44.305080668507074,44.305080668507074 0 0,0 0.33891274212795136,-0.6832274073940969 l 20.78769723404334 10.53557918063212" fill="red" stroke="none" /><path d="M 81.26839172434947 90.50648371742162 l -29.05576643927772 -14.725985496538888 a53.574410389416585,53.574410389416585 0 0,0 0.42397912527284853,-0.8189927201820002 l 28.797977880844755 15.223950938981224" fill="red" stroke="none" /><line stroke="#e1ed5e" stroke-width="0.3" x1="26.266209847984243" x2="21.928928074336255" y1="57.711370442889674" y2="55.22380399835377" /><path d="M 25.398753493254645 57.213857153982495 a86.0,86.0 0 0,1 29.58750427330803,-30.492523968695096" fill="none" id="id23" stroke="none" /><text fill="#e1ed5e" style="font-size:6.75px; font-family:Arial;" text-anchor="middle"><textPath startOffset="21.46611528233685" xlink:href="#id23">November</textPath></text><path d="M 81.78341655067845 89.55222093294921 l -20.620917766876843 -11.826739826790927 a44.77170638551006,44.77170638551006 0 0,0 0.389173421815716,-0.6652235303012315 l 20.414284670590803 12.17994276944605" fill="red" stroke="none" /><path d="M 82.15384107792192 88.93136811851018 l -20.003038147111788 -12.40638205277156 a44.538051124809414,44.538051124809414 0 0,0 0.4096915425856972,-0.6480336327338116 l 19.786519008280127 12.748863333219589" fill="red" stroke="none" /><path d="M 82.34701348167596 88.62581576622439 l -27.578603311407665 -17.76946437072029 a53.80751780659859,53.80751780659859 0 0,0 0.508361551231799,-0.774269519207339 l 27.268645124817944 18.241551953905294" fill="red" stroke="none" /><path d="M 82.54541684631803 88.32363383020206 l -19.798870364436503 -13.244593588289456 a44.82046445866915,44.82046445866915 0 0,0 0.4344928571975621,-0.637564654334844 l 19.5679530415702 13.583436265894717" fill="red" stroke="none" /><path d="M 82.7489923806493 88.02491185347247 l -18.989613360192468 -13.18197167808917 a44.11643988358816,44.11643988358816 0 0,0 0.43840686966122433,-0.6200954263495754 l 18.759893870727364 13.506893604770532" fill="red" stroke="none" /><path d="M 83.6137871275137 86.86637796730984 l -17.97036965214669 -14.403330692432865 a44.03020018302866,44.03020018302866 0 0,0 0.47909367314287366,-0.5873121945995926 l 17.719777486927427 14.71052705664054" fill="red" stroke="none" /><path d="M 83.84228863543731 86.58626213691792 l -25.222217218896418 -20.938869525916203 a53.781038703197574,53.781038703197574 0 0,0 0.5974545488140091,-0.7071977389303881 l 24.858052056595287 21.369926214475708" fill="red" stroke="none" /><path d="M 84.07557802195018 86.31012108654704 l -18.015040960086676 -15.48713854131896 a44.75696026413328,44.75696026413328 0 0,0 0.507262890685089,-0.5798891733101752 l 17.74578620582374 15.794943270832078" fill="red" stroke="none" /><path d="M 84.31358615837235 86.03803664274999 l -17.748377956663795 -15.797250103395932 a44.76042993975135,44.76042993975135 0 0,0 0.5172096654114592,-0.5711158306177471 l 17.473824650636292 16.100418721283237" fill="red" stroke="none" /><path d="M 84.5562425177563 85.77008943001954 l -29.265710131466104 -26.96548676166024 a60.79471404335344,60.79471404335344 0 0,0 0.7157352363323144,-0.7634964469231331 l 28.797207573163334 27.465252625461424" fill="red" stroke="none" /><path d="M 85.31137513191541 84.99185889309783 l -22.963106663445252 -23.462614652692984 a53.82984242998323,53.82984242998323 0 0,0 0.6677893307958739,-0.6424128071368304 l 22.55583408903695 23.854410546592128" fill="red" stroke="none" /><path d="M 85.57189188830299 84.74124197986013 l -15.927789442893332 -16.844778471531832 a44.18277460297034,44.18277460297034 0 0,0 0.5571071612826382,-0.5177703906804065 l 15.635474397815837 17.116453448286887" fill="red" stroke="none" /><path d="M 87.22198572758235 83.33499621200491 l -14.278274125047743 -18.621633010191672 a44.465598819469065,44.465598819469065 0 0,0 0.6114101278360994,-0.4605014324248852 l 13.955617843453252 18.86465103212241" fill="red" stroke="none" /><path d="M 87.51073957382395 83.11751280151077 l -23.50673070129391 -31.77546680916128 a60.52526633943488,60.52526633943488 0 0,0 0.8428998866620253,-0.6124026145108619 l 22.956285498278103 32.17538865848881" fill="red" stroke="none" /><path d="M 87.80319425747018 82.90503203632743 l -15.972304882686592 -22.38668435321852 a48.50051198789093,48.50051198789093 0 0,0 0.6837853006601853,-0.4790353009522707 l 15.584588442442747 22.658304496934733" fill="red" stroke="none" /><path d="M 88.09926311788651 82.69761687909137 l -13.46859596777661 -19.58188050400875 a44.76663883296261,44.76663883296261 0 0,0 0.6386607067406433,-0.4312265601112529 l 13.129530566629427 19.81081897641867" fill="red" stroke="none" /><line stroke="#e1ed5e" stroke-width="0.3" x1="56.762969772571076" x2="54.21961505331055" y1="26.818313649435495" y2="22.513508569990535" /><path d="M 56.25429882871897 25.957352633546506 a86.0,86.0 0 0,1 42.265352541879196,-11.944610805530505" fill="none" id="id24" stroke="none" /><text fill="#e1ed5e" style="font-size:6.75px; font-family:Arial;" text-anchor="middle"><textPath startOffset="22.20632615414155" xlink:href="#id24">December</textPath></text><path d="M 89.3179101791058 81.91981866633112 l -12.00830503215938 -20.324892987398172 a44.607216369037914,44.607216369037914 0 0,0 0.6644420493267389,-0.3848877217367764 l 11.65666625036732 20.528584866524998" fill="red" stroke="none" /><path d="M 89.94658935756843 81.56283822128135 l -18.837019233539543 -34.54560679853053 a60.34758242488879,60.34758242488879 0 0,0 0.9162916945817703,-0.4894512900546525 l 18.239582492429466 34.86473681508693" fill="red" stroke="none" /></svg>