<?xml version="1.0" encoding="utf-8" ?>
<svg baseProfile="full" height="200mm" version="1.1" viewBox="0,0,200,200" width="200mm" xmlns="http://www.w3.org/2000/svg" xmlns:ev="http://www.w3.org/2001/xml-events" xmlns:xlink="http://www.w3.org/1999/xlink"><defs /><rect fill="#1a1a1a" height="200" width="200" x="0" y="0" /><text alignment-baseline="middle" fill="#e1ed5e" style="dominant-baseline: central; font-size:9.0px; font-family:Arial;" text-anchor="middle" x="100.0" y="100.0">2024</text><line stroke="#e1ed5e" stroke-width="0.3" x1="100.0" x2="100.0" y1="15.0" y2="10.0" /><path d="M 100.0 14.0 a86.0,86.0 0 0,1 42.35913384403234,11.155469271406648" fill="none" id="id1" stroke="none" /><text fill="#e1ed5e" style="font-size:6.75px; font-family:Arial;" text-anchor="middle"><textPath startOffset="22.145653131862478" xlink:href="#id1">January</textPath></text><line stroke="#e1ed5e" stroke-width="0.3" x1="143.13028292997686" x2="145.6673583964461" y1="26.7553504044142" y2="22.446841604673864" /><path d="M 143.63769802327073 25.89364864446614 a86.0,86.0 0 0,1 29.32050498858742,28.57503671076993" fill="none" id="id2" stroke="none" /><text fill="#e1ed5e" style="font-size:6.75px; font-family:Arial;" text-anchor="middle"><textPath startOffset="20.669276256404974" xlink:href="#id2">February</textPath></text><line stroke="#e1ed5e" stroke-width="0.3" x1="172.87174338648825" x2="177.1583165268699" y1="56.24261187166439" y2="53.66864786411523" /><path d="M 173.72905801456457 55.72781907015455 a86.0,86.0 0 0,1 12.242430191666344,42.057860355516425" fill="none" id="id3" stroke="none" /><text fill="#e1ed5e" style="font-size:6.75px; font-family:Arial;" text-anchor="middle"><textPath startOffset="22.145653131862474" xlink:href="#id3">March</textPath></text><line stroke="#e1ed5e" stroke-width="0.3" x1="184.99686870605535" x2="189.99668451229388" y1="99.2704041080226" y2="99.22748670261217" /><path d="M 185.99683186730306 99.26182062694052 a86.0,86.0 0 0,1 -10.086455211305974,41.156179273409016" fill="none" id="id4" stroke="none" /><text fill="#e1ed5e" style="font-size:6.75px; font-family:Arial;" text-anchor="middle"><textPath startOffset="21.40746469413373" xlink:href="#id4">April</textPath></text><line stroke="#e1ed5e" stroke-width="0.3" x1="174.33088141563837" x2="178.70328620479359" y1="141.23008692659167" y2="143.65538615756765" /><path d="M 175.20536237346943 141.71514677278685 a86.0,86.0 0 0,1 -30.301960400862466,31.631185727798858" fill="none" id="id5" stroke="none" /><text fill="#e1ed5e" style="font-size:6.75px; font-family:Arial;" text-anchor="middle"><textPath startOffset="22.145653131862474" xlink:href="#id5">May</textPath></text><line stroke="#e1ed5e" stroke-width="0.3" x1="143.1302829299769" x2="145.66735839644613" y1="173.24464959558577" y2="177.55315839532614" /><path d="M 143.63769802327073 174.10635135553383 a86.0,86.0 0 0,1 -40.68552437913181,11.842963189579606" fill="none" id="id6" stroke="none" /><text fill="#e1ed5e" style="font-size:6.75px; font-family:Arial;" text-anchor="middle"><textPath startOffset="21.407464694133747" xlink:href="#id6">June</textPath></text><line stroke="#e1ed5e" stroke-width="0.3" x1="101.45913802915013" x2="101.54496967792366" y1="184.9874750549273" y2="189.98673829345242" /><path d="M 101.47630435890484 185.9873277026323 a86.0,86.0 0 0,1 -42.54439059252881,-10.42667462771756" fill="none" id="id7" stroke="none" /><text fill="#e1ed5e" style="font-size:6.75px; font-family:Arial;" text-anchor="middle"><textPath startOffset="22.145653131862474" xlink:href="#id7">July</textPath></text><line stroke="#e1ed5e" stroke-width="0.3" x1="58.13341422392154" x2="55.67067388415222" y1="173.97424548756322" y2="178.32567169271397" /><path d="M 57.64086615596768 174.84453072859336 a86.0,86.0 0 0,1 -31.369924170532247,-30.572349798747897" fill="none" id="id8" stroke="none" /><text fill="#e1ed5e" style="font-size:6.75px; font-family:Arial;" text-anchor="middle"><textPath startOffset="22.145653131862474" xlink:href="#id8">August</textPath></text><line stroke="#e1ed5e" stroke-width="0.3" x1="26.387840678322732" x2="22.057713659400548" y1="142.50000000000003" y2="145.00000000000006" /><path d="M 25.521815274538298 143.00000000000003 a86.0,86.0 0 0,1 -11.493303480769221,-40.785679425670985" fill="none" id="id9" stroke="none" /><text fill="#e1ed5e" style="font-size:6.75px; font-family:Arial;" text-anchor="middle"><textPath startOffset="21.40746469413373" xlink:href="#id9">September</textPath></text><line stroke="#e1ed5e" stroke-width="0.3" x1="15.003131293944662" x2="10.003315487706104" y1="100.72959589197737" y2="100.7725132973878" /><path d="M 14.003168132696942 100.73817937305945 a86.0,86.0 0 0,1 10.791469493833604,-42.45332614584628" fill="none" id="id10" stroke="none" /><text fill="#e1ed5e" style="font-size:6.75px; font-family:Arial;" text-anchor="middle"><textPath startOffset="22.145653131862435" xlink:href="#id10">October</textPath></text><line stroke="#e1ed5e" stroke-width="0.3" x1="26.387840678322718" x2="22.05771365940052" y1="57.49999999999999" y2="54.99999999999999" /><path d="M 25.521815274538284 56.99999999999999 a86.0,86.0 0 0,1 29.574782752854787,-30.34633250058573" fill="none" id="id11" stroke="none" /><text fill="#e1ed5e" style="font-size:6.75px; font-family:Arial;" text-anchor="middle"><textPath startOffset="21.40746469413373" xlink:href="#id11">November</textPath></text><path d="M 84.34580500576568 86.00192230759919 l -10.311631606660994 -9.220724567352093 a34.83298622635259,34.83298622635259 0 0,0 0.40240774024079795,-0.4423165979850426 l 10.15182616557833 9.396378740894793" fill="red" stroke="none" /><path d="M 84.58840730492382 85.73525988315684 l -13.940879132462657 -12.903469599766684 a39.99599006890759,39.99599006890759 0 0,0 0.47070360092726315,-0.49987091245520554 l 13.717319697799121 13.1408819721664" fill="red" stroke="none" /><path d="M 85.60350026404147 84.71141617570332 l -12.522477734204406 -13.2984374006607 a39.266386777437305,39.266386777437305 0 0,0 0.49470080616101664,-0.4578876807284345 l 12.292347156729436 13.511442827521499" fill="red" stroke="none" /><path d="M 85.86807049272753 84.46653392183569 l -13.370605688362813 -14.696637836879495 a40.868675350462546,40.868675350462546 0 0,0 0.522992494003336,-0.46766311306953406 l 13.116348167536085 14.923996479832429" fill="red" stroke="none" /><path d="M 86.13680546590413 84.22622945171909 l -12.872022677876451 -14.645998922811291 a40.498570518547126,40.498570518547126 0 0,0 0.5261352894157615,-0.45446313188034837 l 12.618707908697841 14.864806187156349" fill="red" stroke="none" /><path d="M 86.68645165197937 83.75963576809568 l -11.984311931768383 -14.618911934894623 a39.903341467532414,39.903341467532414 0 0,0 0.5334682084410148,-0.4297242264870034 l 11.731592952972123 14.822484455175026" fill="red" stroke="none" /><path d="M 87.54013794807813 83.09580414077388 l -11.537592023009838 -15.652959437919309 a40.445595101579364,40.445595101579364 0 0,0 0.5624229436374667,-0.40715083837288746 l 11.267188068998404 15.848711047665276" fill="red" stroke="none" /><path d="M 88.4268655584334 82.4767994020092 l -16.821162147061816 -25.469383431304333 a51.522794569772685,51.522794569772685 0 0,0 0.7422088392202819,-0.48109080246978864 l 16.38146767558451 25.75438807547803" fill="red" stroke="none" /><path d="M 88.72937992617638 82.28071324371311 l -11.892948598801585 -18.69769056357276 a43.15955457099385,43.15955457099385 0 0,0 0.6285590463461167,-0.39226733294604677 l 11.57022542366577 18.899093693360342" fill="red" stroke="none" /><line stroke="#e1ed5e" stroke-width="0.3" x1="56.869717070023135" x2="54.33264160355391" y1="26.7553504044142" y2="22.446841604673864" /><path d="M 56.362301976729285 25.89364864446614 a86.0,86.0 0 0,1 42.16139366436587,-11.88097634709845" fill="none" id="id12" stroke="none" /><text fill="#e1ed5e" style="font-size:6.75px; font-family:Arial;" text-anchor="middle"><textPath startOffset="22.145653131862474" xlink:href="#id12">December</textPath></text><path d="M 89.65649057296885 81.72400993836675 l -14.550745232608747 -25.709772600540212 a50.54177709610196,50.54177709610196 0 0,0 0.7587423319269011,-0.4208615814106259 l 14.107258712525743 25.955767097383983" fill="red" stroke="none" /><path d="M 89.97174638481275 81.54914285379989 l -12.999966535343766 -23.918474208286256 a48.22301486559695,48.22301486559695 0 0,0 0.730719174605897,-0.3890668025564467 l 12.587458544951307 24.13811147856528" fill="red" stroke="none" /><path d="M 90.93487009805054 81.0573650232925 l -19.166681141310608 -40.05099193302376 a65.40094166559766,65.40094166559766 0 0,0 1.016864075107039,-0.4759437316272252 l 18.476328352332047 40.37411189622153" fill="red" stroke="none" /><path d="M 91.92203290615298 80.6158196554323 l -22.493658997580074 -53.97659306515577 a79.47595483633283,79.47595483633283 0 0,0 1.2638400266773027,-0.5139927363001288 l 21.563764509712332 54.35477305803519" fill="red" stroke="none" /><path d="M 92.592206182469 80.34994680014964 l -11.242544722527745 -29.822185571168905 a52.87095172848265,52.87095172848265 0 0,0 0.852004934632834,-0.31286801349520893 l 10.728950636240784 30.010784433672836" fill="red" stroke="none" /><path d="M 93.27111125876988 80.10723608172694 l -13.206597648013034 -39.042959287734575 a62.21609990501531,62.21609990501531 0 0,0 1.0146475985572876,-0.333534819107903 l 12.534427311807987 39.26391502824451" fill="red" stroke="none" /><path d="M 93.95794788825049 79.88797359093562 l -18.126156335248517 -60.33607922719316 a84.0,84.0 0 0,0 1.3845599504735029,-0.4030252227899176 l 17.08773637239339 60.638348144285594" fill="red" stroke="none" /><path d="M 94.6519064749342 79.69241777938228 l -10.568227037103973 -40.129279429439926 a62.49754800266934,62.49754800266934 0 0,0 1.039824402786929,-0.2643192969867428 l 9.877797341091666 40.304783958261936" fill="red" stroke="none" /></svg>