<?xml version="1.0" encoding="utf-8" ?>
<svg baseProfile="full" height="200mm" version="1.1" viewBox="0,0,200,200" width="200mm" xmlns="http://www.w3.org/2000/svg" xmlns:ev="http://www.w3.org/2001/xml-events" xmlns:xlink="http://www.w3.org/1999/xlink"><defs /><rect fill="#1a1a1a" height="200" width="200" x="0" y="0" /><text alignment-baseline="middle" fill="#e1ed5e" style="dominant-baseline: central; font-size:9.0px; font-family:Arial;" text-anchor="middle" x="100.0" y="100.0">2024</text><line stroke="#e1ed5e" stroke-width="0.3" x1="100.0" x2="100.0" y1="15.0" y2="10.0" /><path d="M 100.0 14.0 a86.0,86.0 0 0,1 42.35913384403234,11.155469271406648" fill="none" id="id1" stroke="none" /><text fill="#e1ed5e" style="font-size:6.75px; font-family:Arial;" text-anchor="middle"><textPath startOffset="22.145653131862478" xlink:href="#id1">January</textPath></text><line stroke="#e1ed5e" stroke-width="0.3" x1="143.13028292997686" x2="145.6673583964461" y1="26.7553504044142" y2="22.446841604673864" /><path d="M 143.63769802327073 25.89364864446614 a86.0,86.0 0 0,1 29.32050498858742,28.57503671076993" fill="none" id="id2" stroke="none" /><text fill="#e1ed5e" style="font-size:6.75px; font-family:Arial;" text-anchor="middle"><textPath startOffset="20.669276256404974" xlink:href="#id2">February</textPath></text><line stroke="#e1ed5e" stroke-width="0.3" x1="172.87174338648825" x2="177.1583165268699" y1="56.24261187166439" y2="53.66864786411523" /><path d="M 173.72905801456457 55.72781907015455 a86.0,86.0 0 0,1 12.242430191666344,42.057860355516425" fill="none" id="id3" stroke="none" /><text fill="#e1ed5e" style="font-size:6.75px; font-family:Arial;" text-anchor="middle"><textPath startOffset="22.145653131862474" xlink:href="#id3">March</textPath></text><line stroke="#e1ed5e" stroke-width="0.3" x1="184.99686870605535" x2="189.99668451229388" y1="99.2704041080226" y2="99.22748670261217" /><path d="M 185.99683186730306 99.26182062694052 a86.0,86.0 0 0,1 -10.086455211305974,41.156179273409016" fill="none" id="id4" stroke="none" /><text fill="#e1ed5e" style="font-size:6.75px; font-family:Arial;" text-anchor="middle"><textPath startOffset="21.40746469413373" xlink:href="#id4">April</textPath></text><line stroke="#e1ed5e" stroke-width="0.3" x1="174.33088141563837" x2="178.70328620479359" y1="141.23008692659167" y2="143.65538615756765" /><path d="M 175.20536237346943 141.71514677278685 a86.0,86.0 0 0,1 -30.301960400862466,31.631185727798858" fill="none" id="id5" stroke="none" /><text fill="#e1ed5e" style="font-size:6.75px; font-family:Arial;" text-anchor="middle"><textPath startOffset="22.145653131862474" xlink:href="#id5">May</textPath></text><line stroke="#e1ed5e" stroke-width="0.3" x1="143.1302829299769" x2="145.66735839644613" y1="173.24464959558577" y2="177.55315839532614" /><path d="M 143.63769802327073 174.10635135553383 a86.0,86.0 0 0,1 -40.68552437913181,11.842963189579606" fill="none" id="id6" stroke="none" /><text fill="#e1ed5e" style="font-size:6.75px; font-family:Arial;" text-anchor="middle"><textPath startOffset="21.407464694133747" xlink:href="#id6">June</textPath></text><line stroke="#e1ed5e" stroke-width="0.3" x1="101.45913802915013" x2="101.54496967792366" y1="184.9874750549273" y2="189.98673829345242" /><path d="M 101.47630435890484 185.9873277026323 a86.0,86.0 0 0,1 -42.54439059252881,-10.42667462771756" fill="none" id="id7" stroke="none" /><text fill="#e1ed5e" style="font-size:6.75px; font-family:Arial;" text-anchor="middle"><textPath startOffset="22.145653131862474" xlink:href="#id7">July</textPath></text><line stroke="#e1ed5e" stroke-width="0.3" x1="58.13341422392154" x2="55.67067388415222" y1="173.97424548756322" y2="178.32567169271397" /><path d="M 57.64086615596768 174.84453072859336 a86.0,86.0 0 0,1 -31.369924170532247,-30.572349798747897" fill="none" id="id8" stroke="none" /><text fill="#e1ed5e" style="font-size:6.75px; font-family:Arial;" text-anchor="middle"><textPath startOffset="22.145653131862474" xlink:href="#id8">August</textPath></text><line stroke="#e1ed5e" stroke-width="0.3" x1="26.387840678322732" x2="22.057713659400548" y1="142.50000000000003" y2="145.00000000000006" /><path d="M 25.521815274538298 143.00000000000003 a86.0,86.0 0 0,1 -11.493303480769221,-40.785679425670985" fill="none" id="id9" stroke="none" /><text fill="#e1ed5e" style="font-size:6.75px; font-family:Arial;" text-anchor="middle"><textPath startOffset="21.40746469413373" xlink:href="#id9">September</textPath></text><line stroke="#e1ed5e" stroke-width="0.3" x1="15.003131293944662" x2="10.003315487706104" y1="100.72959589197737" y2="100.7725132973878" /><path d="M 14.003168132696942 100.73817937305945 a86.0,86.0 0 0,1 10.791469493833604,-42.45332614584628" fill="none" id="id10" stroke="none" /><text fill="#e1ed5e" style="font-size:6.75px; font-family:Arial;" text-anchor="middle"><textPath startOffset="22.145653131862435" xlink:href="#id10">October</textPath></text><line stroke="#e1ed5e" stroke-width="0.3" x1="26.387840678322718" x2="22.05771365940052" y1="57.49999999999999" y2="54.99999999999999" /><path d="M 25.521815274538284 56.99999999999999 a86.0,86.0 0 0,1 29.574782752854787,-30.34633250058573" fill="none" id="id11" stroke="none" /><text fill="#e1ed5e" style="font-size:6.75px; font-family:Arial;" text-anchor="middle"><textPath startOffset="21.40746469413373" xlink:href="#id11">November</textPath></text><path d="M 84.34580500576568 86.00192230759919 l -11.109400317410579 -9.934094267790357 a35.9031877239008,35.9031877239008 0 0,0 0.41477123280592526,-0.4559062420792346 l 10.937231383762787 10.12333808542725" fill="red" stroke="none" /><path d="M 84.58840730492382 85.73525988315684 l -15.01942786232965 -13.901758202333978 a41.46563203099001,41.46563203099001 0 0,0 0.48799947889988454,-0.5182385354919882 l 14.778572549693493 14.157538197770478" fill="red" stroke="none" /><path d="M 85.60350026404147 84.71141617570332 l -13.491290556314276 -14.327283044569851 a40.67958232062138,40.67958232062138 0 0,0 0.5125050665437935,-0.4743670383365589 l 13.24335571845653 14.556767829038776" fill="red" stroke="none" /><path d="M 85.86807049272753 84.46653392183569 l -14.40503469715866 -15.833656522836742 a42.405833399088095,42.405833399088095 0 0,0 0.5426633571921738,-0.48525292022955446 l 14.131106313143095 16.078604972949698" fill="red" stroke="none" /><path d="M 86.13680546590413 84.22622945171909 l -13.86787836087385 -15.779099883356023 a42.00709507192556,42.00709507192556 0 0,0 0.5457332157702005,-0.47139135389580933 l 13.5949656653408 16.014835369716543" fill="red" stroke="none" /><path d="M 86.68645165197937 83.75963576809568 l -12.911489069560213 -15.749917286106836 a41.36581558672718,41.36581558672718 0 0,0 0.5530200409333634,-0.44547379874123644 l 12.639218258271605 15.96923937864147" fill="red" stroke="none" /><path d="M 87.54013794807813 83.09580414077388 l -12.43020827080185 -16.86396480996324 a41.95002116388404,41.95002116388404 0 0,0 0.5833429902413372,-0.4222953388060991 l 12.138884270186546 17.074860920142417" fill="red" stroke="none" /><path d="M 88.4268655584334 82.4767994020092 l -18.12254657886238 -27.43984532895914 a53.88421819323423,53.88421819323423 0 0,0 0.7762261999071768,-0.5031404446809418 l 17.648834746698178 27.74689961534399" fill="red" stroke="none" /><path d="M 88.72937992617638 82.28071324371311 l -12.813057329659287 -20.14425431447912 a44.87394856364456,44.87394856364456 0 0,0 0.6535268168384994,-0.40784906834161516 l 12.465366384031089 20.36123917966227" fill="red" stroke="none" /><line stroke="#e1ed5e" stroke-width="0.3" x1="56.869717070023135" x2="54.33264160355391" y1="26.7553504044142" y2="22.446841604673864" /><path d="M 56.362301976729285 25.89364864446614 a86.0,86.0 0 0,1 42.16139366436587,-11.88097634709845" fill="none" id="id12" stroke="none" /><text fill="#e1ed5e" style="font-size:6.75px; font-family:Arial;" text-anchor="middle"><textPath startOffset="22.145653131862474" xlink:href="#id12">December</textPath></text><path d="M 89.65649057296885 81.72400993836675 l -15.676476805211228 -27.698832423812878 a52.82730341494223,52.82730341494223 0 0,0 0.793053067885786,-0.4398931682714074 l 15.198679549169341 27.963858507517433" fill="red" stroke="none" /><path d="M 89.97174638481275 81.54914285379989 l -14.005720710656778 -25.768948610408582 a50.329148046112735,50.329148046112735 0 0,0 0.7626332285812848,-0.40605923873210165 l 13.56129866628893 26.005578316863257" fill="red" stroke="none" /><path d="M 90.93487009805054 81.0573650232925 l -20.649528772676188 -43.149573168025476 a68.83606069814242,68.83606069814242 0 0,0 1.070273843360401,-0.5009421999870939 l 19.905766215444263 43.49769159958311" fill="red" stroke="none" /><path d="M 91.92203290615298 80.6158196554323 l -24.233901281541083 -58.15254103370309 a84.0,84.0 0 0,0 1.3357821552382365,-0.5432509736828348 l 23.232064665112404 58.55997926396521" fill="red" stroke="none" /><path d="M 92.592206182469 80.34994680014964 l -12.112334368915215 -32.12940594543809 a55.33667675054121,55.33667675054121 0 0,0 0.891739605894857,-0.3274591351651693 l 11.559005611366231 32.33259592961198" fill="red" stroke="none" /></svg>