<?xml version="1.0" encoding="utf-8" ?>
<svg baseProfile="full" height="200mm" version="1.1" viewBox="0,0,200,200" width="200mm" xmlns="http://www.w3.org/2000/svg" xmlns:ev="http://www.w3.org/2001/xml-events" xmlns:xlink="http://www.w3.org/1999/xlink"><defs /><rect fill="#1a1a1a" height="200" width="200" x="0" y="0" /><rect fill="#1a1a1a" height="200" width="180" x="10" y="0" /><text alignment-baseline="middle" fill="#e1ed5e" style="dominant-baseline: central; font-size:9.0px; font-family:Arial;" text-anchor="middle" x="100.0" y="100.0">2026</text><line stroke="#e1ed5e" stroke-width="0.3" x1="100.0" x2="100.0" y1="15.0" y2="10.0" /><path d="M 100.0 14.0 a86.0,86.0 0 0,1 42.46469731375804,11.215312516191453" fill="none" id="id25" stroke="none" /><text fill="#e1ed5e" style="font-size:6.75px; font-family:Arial;" text-anchor="middle"><textPath startOffset="22.20632615414155" xlink:href="#id25">January</textPath></text><path d="M 101.08401301168833 79.027996857942 l 3.202719455754568 -61.961841569229044 a83.0445583638284,83.0445583638284 0 0,0 1.4269346807153862,0.08607659673033659 l -4.268816185309566 61.8975317031184" fill="red" stroke="none" /><path d="M 101.44485096284872 79.0497635885617 l 3.004454054450852 -43.564370545144044 a64.66785001760357,64.66785001760357 0 0,0 1.1098536942470965,0.08614600709895999 l -3.7538979380602893 43.506199275856616" fill="red" stroke="none" /><path d="M 101.80526077348638 79.07773832637324 l 5.277167968891542 -61.16029925560422 a82.3875452091624,82.3875452091624 0 0,0 1.4118670172140038,0.13407378553591728 l -6.3291601131957895 61.06039992555313" fill="red" stroke="none" /><path d="M 102.16513564639614 79.11191278185805 l 4.5181161154922584 -43.58840225053882 a64.8219372459485,64.8219372459485 0 0,0 1.1088665810356095,0.12459408052958376 l -5.2677494000375935 43.504172216538635" fill="red" stroke="none" /><path d="M 102.88285421437855 79.19881850522331 l 8.451335443493061 -60.98045525733732 a82.56330883058968,82.56330883058968 0 0,0 1.4060571579175025,0.2072162752996884 l -9.49976158183922 60.82594449787666" fill="red" stroke="none" /><path d="M 103.59715602781102 79.31037775812273 l 7.48852312131224 -43.071446812885696 a64.7175880978545,64.7175880978545 0 0,0 1.0958995275261854,0.20026863384191657 l -8.228817769941326 42.93616269769304" fill="red" stroke="none" /><path d="M 103.95276090670814 79.375362276772 l 9.845049796004519 -51.36930621458564 a73.3042123203636,73.3042123203636 0 0,0 1.2372131035186027,0.24817330946924845 l -10.727829308990248 51.19222894903919" fill="red" stroke="none" /><path d="M 104.307194497241 79.44645832069477 l 12.536838590596783 -59.82465724814821 a82.12415182810383,82.12415182810383 0 0,0 1.3810829400388198,0.3018512381645216 l -13.56476425478913 59.59999251188783" fill="red" stroke="none" /><path d="M 104.66035177308747 79.52364482259891 l 9.398926315877716 -41.29640055103231 a63.35247943583233,63.35247943583233 0 0,0 1.061233411319983,0.25115966138307605 l -10.108383414160222 41.12849497750837" fill="red" stroke="none" /><path d="M 105.01212808612495 79.60689891045804 l 10.343519924244536 -42.085206884625414 a64.33766309972154,64.33766309972154 0 0,0 1.0731862622195196,0.273579073728663 l -11.06641507514908 41.90092481472788" fill="red" stroke="none" /><path d="M 105.36241919743992 79.69619591428918 l 11.218009214424418 -42.47490786063705 a64.93132741568958,64.93132741568958 0 0,0 1.078175758350347,0.29470616308237574 l -11.947482861998475 42.27551515672839" fill="red" stroke="none" /><path d="M 106.40334571778207 80.00007090966166 l 13.44157949831812 -41.98283970237094 a65.08213797996395,65.08213797996395 0 0,0 1.0639912349386094,0.3507811816761255 l -14.162253555499145 41.74524479643558" fill="red" stroke="none" /><path d="M 106.74666289553966 80.11325718540242 l 19.971498049228718 -58.86881432742462 a83.16428262794594,83.16428262794594 0 0,0 1.3516888704802863,0.4715777058038671 l -20.98186892377228 58.51631576844855" fill="red" stroke="none" /><path d="M 107.08798089147638 80.2323363322302 l 21.07771785080758 -58.78362875666907 a83.44826018072996,83.44826018072996 0 0,0 1.3479583208015302,0.4964644254394284 l -22.086458497381688 58.412101063423314" fill="red" stroke="none" /><path d="M 107.4271985657038 80.35727306442388 l 15.392156069924733 -40.70766601386155 a64.5204841514547,64.5204841514547 0 0,0 1.0354518743529717,0.4017392405389068 l -16.090591109277373 40.4366840694321" fill="red" stroke="none" /><path d="M 107.76421540070413 80.48803036053334 l 16.440051626307174 -41.314900688442876 a65.46567571027728,65.46567571027728 0 0,0 1.0434484594535955,0.4256488260416399 l -17.14878395534916 41.02579097621766" fill="red" stroke="none" /><path d="M 108.76106565485865 80.91482961587045 l 18.49898952267703 -40.29833594258286 a65.34149854370486,65.34149854370486 0 0,0 1.0181505728493248,0.4780353458614438 l -19.189918306825952 39.97393561408141" fill="red" stroke="none" /><path d="M 109.08828744355905 81.06846463323043 l 27.264862330677165 -56.79460610030869 a84.0,84.0 0 0,0 1.2981149319582728,0.6369793594606721 l -28.23844852964587 56.31687158071319" fill="red" stroke="none" /><path d="M 109.41281617654863 81.2277094730956 l 19.84175726246966 -39.57107255779538 a65.26697544035592,65.26697544035592 0 0,0 0.9999507073684181,0.5122135906102908 l -20.51996845742683 39.22366644187259" fill="red" stroke="none" /><path d="M 109.73455568895987 81.39251694778311 l 20.6432329140456 -39.459284929327104 a65.532889332238,65.532889332238 0 0,0 0.9950231608998135,0.5315069127183994 l -21.319401121473724 39.09809929010695" fill="red" stroke="none" /><path d="M 110.05341064243156 81.56283822128135 l 21.143631880877926 -38.7757523732398 a65.16573492227758,65.16573492227758 0 0,0 0.9802040895173678,0.545482514571965 l -21.80796005946733 38.40605446110765" fill="red" stroke="none" /><line stroke="#e1ed5e" stroke-width="0.3" x1="143.23703022742887" x2="145.7803849466894" y1="26.81831364943548" y2="22.513508569990506" /><path d="M 143.74570117128098 25.957352633546492 a86.0,86.0 0 0,1 28.547481713284135,27.462654790039103" fill="none" id="id26" stroke="none" /><text fill="#e1ed5e" style="font-size:6.75px; font-family:Arial;" text-anchor="middle"><textPath startOffset="19.985693538727396" xlink:href="#id26">February</textPath></text><path d="M 110.99172775467656 82.1063720568725 l 23.570953418764034 -38.37157179959319 a66.03295867962574,66.03295867962574 0 0,0 0.9633920881729071,0.6032760372321144 l -24.227964659309205 37.96015142103813" fill="red" stroke="none" /><path d="M 111.2981086023043 82.29822771554956 l 23.844519526668932 -37.35937312614772 a65.32024223575978,65.32024223575978 0 0,0 0.9425803467235032,0.6130804770870709 l -24.484066899176714 36.94339372490113" fill="red" stroke="none" /><line stroke="#e1ed5e" stroke-width="0.3" x1="172.23445277983987" x2="176.4835382374775" y1="55.19839476539836" y2="52.563006222186495" /><path d="M 173.08426987136738 54.67131705675599 a86.0,86.0 0 0,1 12.851231095245387,41.99856678651699" fill="none" id="id27" stroke="none" /><text fill="#e1ed5e" style="font-size:6.75px; font-family:Arial;" text-anchor="middle"><textPath startOffset="22.20632615414155" xlink:href="#id27">March</textPath></text><line stroke="#e1ed5e" stroke-width="0.3" x1="184.98032266829074" x2="189.97916517819016" y1="98.17113171792111" y2="98.06355123074" /><path d="M 185.9800911702706 98.14961562048488 a86.0,86.0 0 0,1 -9.607161424134198,41.387399972396054" fill="none" id="id28" stroke="none" /><text fill="#e1ed5e" style="font-size:6.75px; font-family:Arial;" text-anchor="middle"><textPath startOffset="21.466115282336823" xlink:href="#id28">April</textPath></text><line stroke="#e1ed5e" stroke-width="0.3" x1="174.80103733775053" x2="179.2010983576182" y1="140.37084112569926" y2="142.7455964860345" /><path d="M 175.68104954172406 140.8457921977663 a86.0,86.0 0 0,1 -30.038265399797805,32.042727171017184" fill="none" id="id29" stroke="none" /><text fill="#e1ed5e" style="font-size:6.75px; font-family:Arial;" text-anchor="middle"><textPath startOffset="22.206326154141568" xlink:href="#id29">May</textPath></text><line stroke="#e1ed5e" stroke-width="0.3" x1="143.8653032363475" x2="146.44561519142675" y1="172.8068346515853" y2="177.08958963109032" /><path d="M 144.38136562736335 173.6633856474863 a86.0,86.0 0 0,1 -40.68145358897372,12.25698825130547" fill="none" id="id30" stroke="none" /><text fill="#e1ed5e" style="font-size:6.75px; font-family:Arial;" text-anchor="middle"><textPath startOffset="21.466115282336833" xlink:href="#id30">June</textPath></text><line stroke="#e1ed5e" stroke-width="0.3" x1="102.19456741930631" x2="102.32365962044197" y1="184.97166512339345" y2="189.96999836594603" /><path d="M 102.22038585953345 185.97133177190398 a86.0,86.0 0 0,1 -42.740103519485714,-10.115201625700543" fill="none" id="id31" stroke="none" /><text fill="#e1ed5e" style="font-size:6.75px; font-family:Arial;" text-anchor="middle"><textPath startOffset="22.20632615414155" xlink:href="#id31">July</textPath></text><line stroke="#e1ed5e" stroke-width="0.3" x1="58.666819895761336" x2="56.23545636021788" y1="174.27360380694188" y2="178.64263932499728" /><path d="M 58.180547188652646 175.14741091055294 a86.0,86.0 0 0,1 -31.652253787137756,-30.449443065178592" fill="none" id="id32" stroke="none" /><text fill="#e1ed5e" style="font-size:6.75px; font-family:Arial;" text-anchor="middle"><textPath startOffset="22.20632615414155" xlink:href="#id32">August</textPath></text><line stroke="#e1ed5e" stroke-width="0.3" x1="26.63291911575756" x2="22.317208475507996" y1="142.92168965132927" y2="145.44649492493687" /><path d="M 25.769776987707644 143.4266507060508 a86.0,86.0 0 0,1 -11.730757126820373,-40.83630448921669" fill="none" id="id33" stroke="none" /><text fill="#e1ed5e" style="font-size:6.75px; font-family:Arial;" text-anchor="middle"><textPath startOffset="21.46611528233685" xlink:href="#id33">September</textPath></text><line stroke="#e1ed5e" stroke-width="0.3" x1="15.007084014347285" x2="10.007500721073583" y1="101.09737516637583" y2="101.16192664675087" /><path d="M 14.007167355692545 101.11028546245083 a86.0,86.0 0 0,1 10.666146001902534,-42.60595125391555" fill="none" id="id34" stroke="none" /><text fill="#e1ed5e" style="font-size:6.75px; font-family:Arial;" text-anchor="middle"><textPath startOffset="22.20632615414155" xlink:href="#id34">October</textPath></text><line stroke="#e1ed5e" stroke-width="0.3" x1="26.266209847984243" x2="21.928928074336255" y1="57.711370442889674" y2="55.22380399835377" /><path d="M 25.398753493254645 57.213857153982495 a86.0,86.0 0 0,1 29.58750427330803,-30.492523968695096" fill="none" id="id35" stroke="none" /><text fill="#e1ed5e" style="font-size:6.75px; font-family:Arial;" text-anchor="middle"><textPath startOffset="21.46611528233685" xlink:href="#id35">November</textPath></text><line stroke="#e1ed5e" stroke-width="0.3" x1="56.762969772571076" x2="54.21961505331055" y1="26.818313649435495" y2="22.513508569990535" /><path d="M 56.25429882871897 25.957352633546506 a86.0,86.0 0 0,1 42.265352541879196,-11.944610805530505" fill="none" id="id36" stroke="none" /><text fill="#e1ed5e" style="font-size:6.75px; font-family:Arial;" text-anchor="middle"><textPath startOffset="22.20632615414155" xlink:href="#id36">December</textPath></text></svg>