<?xml version="1.0" encoding="utf-8" ?>
<svg baseProfile="full" height="200mm" version="1.1" viewBox="0,0,200,200" width="200mm" xmlns="http://www.w3.org/2000/svg" xmlns:ev="http://www.w3.org/2001/xml-events" xmlns:xlink="http://www.w3.org/1999/xlink"><defs /><rect fill="#1a1a1a" height="200" width="200" x="0" y="0" /><text alignment-baseline="middle" fill="#e1ed5e" style="dominant-baseline: central; font-size:9.0px; font-family:Arial;" text-anchor="middle" x="100.0" y="100.0">2025</text><line stroke="#e1ed5e" stroke-width="0.3" x1="100.0" x2="100.0" y1="15.0" y2="10.0" /><path d="M 100.0 14.0 a86.0,86.0 0 0,1 42.46469731375804,11.215312516191453" fill="none" id="id13" stroke="none" /><text fill="#e1ed5e" style="font-size:6.75px; font-family:Arial;" text-anchor="middle"><textPath startOffset="22.20632615414155" xlink:href="#id13">January</textPath></text><path d="M 100.36148047927253 79.00311137660856 l 0.46923412557065663 -27.255847100594217 a48.259885946855505,48.259885946855505 0 0,0 0.8304684461774804,0.021448549844191395 l -0.9383292069430047 27.243731758607666" fill="red" stroke="none" /><path d="M 100.72285384407766 79.0124445844662 l 1.5859945456885653 -46.04824154853216 a67.07554588294009,67.07554588294009 0 0,0 1.1535689675292307,0.04967510633859077 l -2.3784043456071275 46.014118715669376" fill="red" stroke="none" /><path d="M 101.80526077348638 79.07773832637324 l 2.1637350030523197 -25.07683687095187 a46.17001185172079,46.17001185172079 0 0,0 0.7912108165419017,0.07513500070287268 l -2.5950709466844657 25.035876325733817" fill="red" stroke="none" /><path d="M 102.52436894288641 79.15227682838746 l 7.008856195825331 -57.88325598441775 a79.30604933050594,79.30604933050594 0 0,0 1.3538119345341224,0.17576364376521145 l -8.0041828588673 57.7540340174884" fill="red" stroke="none" /><path d="M 103.2404852339499 79.25152402106235 l 9.721455701849713 -62.245427936812945 a84.0,84.0 0 0,0 1.4266831754444993,0.23541494824150133 l -10.791468083433088 62.06886672563182" fill="red" stroke="none" /><path d="M 104.66035177308747 79.52364482259891 l 8.349259759457455 -36.68444285478711 a58.62257947160237,58.62257947160237 0 0,0 0.9820016603460351,0.23240806580274734 l -8.979485106766013 36.53528887684349" fill="red" stroke="none" /><path d="M 105.01212808612495 79.60689891045804 l 10.589992922747282 -43.08804414016631 a65.37034480290589,65.37034480290589 0 0,0 1.0904119394310954,0.27797028239559607 l -11.3301137508634 42.899370861601845" fill="red" stroke="none" /><path d="M 105.71112130821622 79.79150937346287 l 16.221213639724482 -57.39787794698652 a80.64599034941699,80.64599034941699 0 0,0 1.3326165501252278,0.3890273137334311 l -17.206820407573137 57.110152304334385" fill="red" stroke="none" /><path d="M 106.40334571778207 80.00007090966166 l 11.968754167034087 -37.38268167774104 a60.25195492877025,60.25195492877025 0 0,0 0.9850252914534509,0.32474735164227914 l -12.610462280729955 37.17112060183952" fill="red" stroke="none" /><path d="M 108.43124777332544 80.76684994638697 l 19.319843621572307 -44.0719406398705 a69.12060171409203,69.12060171409203 0 0,0 1.085581448935394,0.4870687521976106 l -20.075607188974484 43.73285155715636" fill="red" stroke="none" /><line stroke="#e1ed5e" stroke-width="0.3" x1="143.23703022742887" x2="145.7803849466894" y1="26.81831364943548" y2="22.513508569990506" /><path d="M 143.74570117128098 25.957352633546492 a86.0,86.0 0 0,1 28.547481713284135,27.462654790039103" fill="none" id="id14" stroke="none" /><text fill="#e1ed5e" style="font-size:6.75px; font-family:Arial;" text-anchor="middle"><textPath startOffset="19.985693538727396" xlink:href="#id14">February</textPath></text><path d="M 113.34407831869373 83.78471172551755 l 19.342078055686393 -23.503861713785138 a51.43924274637922,51.43924274637922 0 0,0 0.6788570681756854,0.5685232717129995 l -19.743792660821196 23.16743728467832" fill="red" stroke="none" /><path d="M 113.89432698308785 84.25364557470407 l 32.35150593951611 -36.663760636679314 a69.89633197468152,69.89633197468152 0 0,0 0.8953021575491621,0.803811116917897 l -32.97781908466126 36.10145051099212" fill="red" stroke="none" /><path d="M 114.42810811169701 84.74124197986012 l 17.91095828429697 -18.94212160410283 a47.06926154547622,47.06926154547622 0 0,0 0.5839205401612476,0.5617310969954825 l -18.234362068070634 18.631007420345046" fill="red" stroke="none" /><path d="M 115.4437574822437 85.77008943001954 l 17.371159308459802 -16.005822659444828 a44.620828408959056,44.620828408959056 0 0,0 0.5155965606864084,0.569334600090681 l -17.644099509762246 15.704435272084599" fill="red" stroke="none" /><path d="M 115.68641384162765 86.03803664274999 l 38.235554913794495 -34.03221552359138 a72.18739447373707,72.18739447373707 0 0,0 0.8181517729459477,0.9352889083116739 l -38.81569855031829 33.36901105907676" fill="red" stroke="none" /><path d="M 116.15771136456269 86.58626213691792 l 42.200924941622894 -35.034178540164326 a75.84807865288082,75.84807865288082 0 0,0 0.8253047783471623,1.0117260731181803 l -42.797728212046465 34.30256829743804" fill="red" stroke="none" /><line stroke="#e1ed5e" stroke-width="0.3" x1="172.23445277983987" x2="176.4835382374775" y1="55.19839476539836" y2="52.563006222186495" /><path d="M 173.08426987136738 54.67131705675599 a86.0,86.0 0 0,1 12.851231095245387,41.99856678651699" fill="none" id="id15" stroke="none" /><text fill="#e1ed5e" style="font-size:6.75px; font-family:Arial;" text-anchor="middle"><textPath startOffset="22.20632615414155" xlink:href="#id15">March</textPath></text><line stroke="#e1ed5e" stroke-width="0.3" x1="184.98032266829074" x2="189.97916517819016" y1="98.17113171792111" y2="98.06355123074" /><path d="M 185.9800911702706 98.14961562048488 a86.0,86.0 0 0,1 -9.607161424134198,41.387399972396054" fill="none" id="id16" stroke="none" /><text fill="#e1ed5e" style="font-size:6.75px; font-family:Arial;" text-anchor="middle"><textPath startOffset="21.466115282336823" xlink:href="#id16">April</textPath></text><line stroke="#e1ed5e" stroke-width="0.3" x1="174.80103733775053" x2="179.2010983576182" y1="140.37084112569926" y2="142.7455964860345" /><path d="M 175.68104954172406 140.8457921977663 a86.0,86.0 0 0,1 -30.038265399797805,32.042727171017184" fill="none" id="id17" stroke="none" /><text fill="#e1ed5e" style="font-size:6.75px; font-family:Arial;" text-anchor="middle"><textPath startOffset="22.206326154141568" xlink:href="#id17">May</textPath></text><line stroke="#e1ed5e" stroke-width="0.3" x1="143.8653032363475" x2="146.44561519142675" y1="172.8068346515853" y2="177.08958963109032" /><path d="M 144.38136562736335 173.6633856474863 a86.0,86.0 0 0,1 -40.68145358897372,12.25698825130547" fill="none" id="id18" stroke="none" /><text fill="#e1ed5e" style="font-size:6.75px; font-family:Arial;" text-anchor="middle"><textPath startOffset="21.466115282336833" xlink:href="#id18">June</textPath></text><line stroke="#e1ed5e" stroke-width="0.3" x1="102.19456741930631" x2="102.32365962044197" y1="184.97166512339345" y2="189.96999836594603" /><path d="M 102.22038585953345 185.97133177190398 a86.0,86.0 0 0,1 -42.740103519485714,-10.115201625700543" fill="none" id="id19" stroke="none" /><text fill="#e1ed5e" style="font-size:6.75px; font-family:Arial;" text-anchor="middle"><textPath startOffset="22.20632615414155" xlink:href="#id19">July</textPath></text><line stroke="#e1ed5e" stroke-width="0.3" x1="58.666819895761336" x2="56.23545636021788" y1="174.27360380694188" y2="178.64263932499728" /><path d="M 58.180547188652646 175.14741091055294 a86.0,86.0 0 0,1 -31.652253787137756,-30.449443065178592" fill="none" id="id20" stroke="none" /><text fill="#e1ed5e" style="font-size:6.75px; font-family:Arial;" text-anchor="middle"><textPath startOffset="22.20632615414155" xlink:href="#id20">August</textPath></text><line stroke="#e1ed5e" stroke-width="0.3" x1="26.63291911575756" x2="22.317208475507996" y1="142.92168965132927" y2="145.44649492493687" /><path d="M 25.769776987707644 143.4266507060508 a86.0,86.0 0 0,1 -11.730757126820373,-40.83630448921669" fill="none" id="id21" stroke="none" /><text fill="#e1ed5e" style="font-size:6.75px; font-family:Arial;" text-anchor="middle"><textPath startOffset="21.46611528233685" xlink:href="#id21">September</textPath></text><line stroke="#e1ed5e" stroke-width="0.3" x1="15.007084014347285" x2="10.007500721073583" y1="101.09737516637583" y2="101.16192664675087" /><path d="M 14.007167355692545 101.11028546245083 a86.0,86.0 0 0,1 10.666146001902534,-42.60595125391555" fill="none" id="id22" stroke="none" /><text fill="#e1ed5e" style="font-size:6.75px; font-family:Arial;" text-anchor="middle"><textPath startOffset="22.20632615414155" xlink:href="#id22">October</textPath></text><line stroke="#e1ed5e" stroke-width="0.3" x1="26.266209847984243" x2="21.928928074336255" y1="57.711370442889674" y2="55.22380399835377" /><path d="M 25.398753493254645 57.213857153982495 a86.0,86.0 0 0,1 29.58750427330803,-30.492523968695096" fill="none" id="id23" stroke="none" /><text fill="#e1ed5e" style="font-size:6.75px; font-family:Arial;" text-anchor="middle"><textPath startOffset="21.46611528233685" xlink:href="#id23">November</textPath></text><line stroke="#e1ed5e" stroke-width="0.3" x1="56.762969772571076" x2="54.21961505331055" y1="26.818313649435495" y2="22.513508569990535" /><path d="M 56.25429882871897 25.957352633546506 a86.0,86.0 0 0,1 42.265352541879196,-11.944610805530505" fill="none" id="id24" stroke="none" /><text fill="#e1ed5e" style="font-size:6.75px; font-family:Arial;" text-anchor="middle"><textPath startOffset="22.20632615414155" xlink:href="#id24">December</textPath></text></svg>