<?xml version="1.0" encoding="utf-8" ?>
<svg baseProfile="full" height="200mm" version="1.1" viewBox="0,0,200,200" width="200mm" xmlns="http://www.w3.org/2000/svg" xmlns:ev="http://www.w3.org/2001/xml-events" xmlns:xlink="http://www.w3.org/1999/xlink"><defs /><rect fill="#1a1a1a" height="200" width="200" x="0" y="0" /><text alignment-baseline="middle" fill="#e1ed5e" style="dominant-baseline: central; font-size:9.0px; font-family:Arial;" text-anchor="middle" x="100.0" y="100.0">2025</text><line stroke="#e1ed5e" stroke-width="0.3" x1="100.0" x2="100.0" y1="15.0" y2="10.0" /><path d="M 100.0 14.0 a86.0,86.0 0 0,1 42.46469731375804,11.215312516191453" fill="none" id="id13" stroke="none" /><text fill="#e1ed5e" style="font-size:6.75px; font-family:Arial;" text-anchor="middle"><textPath startOffset="22.20632615414155" xlink:href="#id13">January</textPath></text><path d="M 100.36148047927253 79.00311137660856 l 0.46923412557065663 -27.255847100594217 a48.259885946855505,48.259885946855505 0 0,0 0.8304684461774804,0.021448549844191395 l -0.9383292069430047 27.243731758607666" fill="red" stroke="none" /><path d="M 100.72285384407766 79.0124445844662 l 1.5859945456885653 -46.04824154853216 a67.07554588294009,67.07554588294009 0 0,0 1.1535689675292307,0.04967510633859077 l -2.3784043456071275 46.014118715669376" fill="red" stroke="none" /><path d="M 101.80526077348638 79.07773832637324 l 2.1637350030523197 -25.07683687095187 a46.17001185172079,46.17001185172079 0 0,0 0.7912108165419017,0.07513500070287268 l -2.5950709466844657 25.035876325733817" fill="red" stroke="none" /><path d="M 102.52436894288641 79.15227682838746 l 7.008856195825331 -57.88325598441775 a79.30604933050594,79.30604933050594 0 0,0 1.3538119345341224,0.17576364376521145 l -8.0041828588673 57.7540340174884" fill="red" stroke="none" /><path d="M 103.2404852339499 79.25152402106235 l 9.721455701849713 -62.245427936812945 a84.0,84.0 0 0,0 1.4266831754444993,0.23541494824150133 l -10.791468083433088 62.06886672563182" fill="red" stroke="none" /><path d="M 104.66035177308747 79.52364482259891 l 8.349259759457455 -36.68444285478711 a58.62257947160237,58.62257947160237 0 0,0 0.9820016603460351,0.23240806580274734 l -8.979485106766013 36.53528887684349" fill="red" stroke="none" /><path d="M 105.01212808612495 79.60689891045804 l 10.589992922747282 -43.08804414016631 a65.37034480290589,65.37034480290589 0 0,0 1.0904119394310954,0.27797028239559607 l -11.3301137508634 42.899370861601845" fill="red" stroke="none" /><path d="M 105.71112130821622 79.79150937346287 l 16.221213639724482 -57.39787794698652 a80.64599034941699,80.64599034941699 0 0,0 1.3326165501252278,0.3890273137334311 l -17.206820407573137 57.110152304334385" fill="red" stroke="none" /><path d="M 106.40334571778207 80.00007090966166 l 11.968754167034087 -37.38268167774104 a60.25195492877025,60.25195492877025 0 0,0 0.9850252914534509,0.32474735164227914 l -12.610462280729955 37.17112060183952" fill="red" stroke="none" /><path d="M 108.43124777332544 80.76684994638697 l 19.319843621572307 -44.0719406398705 a69.12060171409203,69.12060171409203 0 0,0 1.085581448935394,0.4870687521976106 l -20.075607188974484 43.73285155715636" fill="red" stroke="none" /><line stroke="#e1ed5e" stroke-width="0.3" x1="143.23703022742887" x2="145.7803849466894" y1="26.81831364943548" y2="22.513508569990506" /><path d="M 143.74570117128098 25.957352633546492 a86.0,86.0 0 0,1 28.547481713284135,27.462654790039103" fill="none" id="id14" stroke="none" /><text fill="#e1ed5e" style="font-size:6.75px; font-family:Arial;" text-anchor="middle"><textPath startOffset="19.985693538727396" xlink:href="#id14">February</textPath></text><path d="M 113.34407831869373 83.78471172551755 l 19.342078055686393 -23.503861713785138 a51.43924274637922,51.43924274637922 0 0,0 0.6788570681756854,0.5685232717129995 l -19.743792660821196 23.16743728467832" fill="red" stroke="none" /><path d="M 113.89432698308785 84.25364557470407 l 32.35150593951611 -36.663760636679314 a69.89633197468152,69.89633197468152 0 0,0 0.8953021575491621,0.803811116917897 l -32.97781908466126 36.10145051099212" fill="red" stroke="none" /><path d="M 114.42810811169701 84.74124197986012 l 17.91095828429697 -18.94212160410283 a47.06926154547622,47.06926154547622 0 0,0 0.5839205401612476,0.5617310969954825 l -18.234362068070634 18.631007420345046" fill="red" stroke="none" /><path d="M 115.4437574822437 85.77008943001954 l 17.371159308459802 -16.005822659444828 a44.620828408959056,44.620828408959056 0 0,0 0.5155965606864084,0.569334600090681 l -17.644099509762246 15.704435272084599" fill="red" stroke="none" /><path d="M 115.68641384162765 86.03803664274999 l 38.235554913794495 -34.03221552359138 a72.18739447373707,72.18739447373707 0 0,0 0.8181517729459477,0.9352889083116739 l -38.81569855031829 33.36901105907676" fill="red" stroke="none" /><path d="M 116.15771136456269 86.58626213691792 l 42.200924941622894 -35.034178540164326 a75.84807865288082,75.84807865288082 0 0,0 0.8253047783471623,1.0117260731181803 l -42.797728212046465 34.30256829743804" fill="red" stroke="none" /><path d="M 117.2510076193507 88.02491185347247 l 44.0645902331973 -30.58820469079445 a74.64071567965445,74.64071567965445 0 0,0 0.7235725513025622,1.0617534348732354 l -44.584587250168596 29.82517323265081" fill="red" stroke="none" /><path d="M 117.65298651832404 88.62581576622439 l 40.925131186317 -26.368908253649913 a69.68455283872558,69.68455283872558 0 0,0 0.6410063131610635,1.0139180494217281 l -41.37296509572402 25.660542556513978" fill="red" stroke="none" /><line stroke="#e1ed5e" stroke-width="0.3" x1="172.23445277983987" x2="176.4835382374775" y1="55.19839476539836" y2="52.563006222186495" /><path d="M 173.08426987136738 54.67131705675599 a86.0,86.0 0 0,1 12.851231095245387,41.99856678651699" fill="none" id="id15" stroke="none" /><text fill="#e1ed5e" style="font-size:6.75px; font-family:Arial;" text-anchor="middle"><textPath startOffset="22.20632615414155" xlink:href="#id15">March</textPath></text><path d="M 118.21658344932153 89.55222093294921 l 19.282727605828537 -11.059246010443369 a43.229046453685086,43.229046453685086 0 0,0 0.36465215492784575,0.6486754946357614 l -19.470237402048816 10.725687005872812" fill="red" stroke="none" /><path d="M 118.56541770881063 90.18545643968196 l 20.25853220112259 -10.709602653414317 a43.91514163032688,43.91514163032688 0 0,0 0.3475372514475141,0.6713313509112019 l -20.439878885730224 10.35929858024277" fill="red" stroke="none" /><path d="M 118.89224826269711 90.83032412892265 l 46.57499313988368 -22.60596964701401 a72.77122607841088,72.77122607841088 0 0,0 0.5372658251212722,1.131618847573427 l -46.9572171588467 21.800908383800042" fill="red" stroke="none" /><path d="M 119.61058180528143 92.48833698450437 l 32.024140687521246 -12.26656891641518 a55.293064892997194,55.293064892997194 0 0,0 0.3327995090550818,0.8917372267616093 l -32.23054478507795 11.713508552624237" fill="red" stroke="none" /><path d="M 119.97218684219823 93.5106431181261 l 46.190392862796486 -15.008168417858439 a69.56745321795538,69.56745321795538 0 0,0 0.3602418593173574,1.1420651390013328 l -46.441890205882046 14.210853112430687" fill="red" stroke="none" /><path d="M 120.18372546131832 94.20196356495316 l 32.74435202669272 -9.406239024436474 a55.0686061093319,55.0686061093319 0 0,0 0.2538747427549204,0.9133225259216358 l -32.901413540014 8.841205195095885" fill="red" stroke="none" /><path d="M 120.37134235888165 94.90015583598534 l 46.908848749565145 -11.743350748401483 a69.35645125326673,69.35645125326673 0 0,0 0.2799596265041143,1.1606133928615436 l -47.104041176330085 10.934152123880532" fill="red" stroke="none" /><path d="M 120.53481517161879 95.60439243477599 l 46.549249136014 -9.964162323727932 a68.60375117509437,68.60375117509437 0 0,0 0.23724060539084343,1.1568694461718505 l -46.71386903731983 9.16141722139267" fill="red" stroke="none" /><path d="M 120.67395015179393 96.31383870115 l 46.20639424069853 -8.238591123558871 a67.93511747538341,67.93511747538341 0 0,0 0.19535596579730333,1.1530019686028439 l -46.34136206801605 7.442003366640188" fill="red" stroke="none" /><path d="M 120.78858239683441 97.02765380044208 l 24.538076383131568 -3.5084478917123842 a45.78762592894407,45.78762592894407 0 0,0 0.1048405832527043,0.7811841205116687 l -24.59483296544211 3.085545429136051" fill="red" stroke="none" /><path d="M 120.91429891909075 98.10471618934814 l 48.16009903816656 -4.364337355009734 a69.35744596144781,69.35744596144781 0 0,0 0.09751497109396409,1.1899296437106615 l -48.228088493080016 3.534693794091304" fill="red" stroke="none" /><path d="M 120.96714384426684 98.82574320788733 l 51.91524868737607 -2.907493449664044 a72.99660147001862,72.99660147001862 0 0,0 0.05946230773187932,1.2551553354805205 l -51.957604603341444 2.013427007560524" fill="red" stroke="none" /><line stroke="#e1ed5e" stroke-width="0.3" x1="184.98032266829074" x2="189.97916517819016" y1="98.17113171792111" y2="98.06355123074" /><path d="M 185.9800911702706 98.14961562048488 a86.0,86.0 0 0,1 -9.607161424134198,41.387399972396054" fill="none" id="id16" stroke="none" /><text fill="#e1ed5e" style="font-size:6.75px; font-family:Arial;" text-anchor="middle"><textPath startOffset="21.466115282336823" xlink:href="#id16">April</textPath></text><path d="M 120.99513854157772 99.54816195383933 l 49.06863867621145 -1.0560100750617414 a70.08000059917711,70.08000059917711 0 0,0 0.01557442209461188,1.2062561548430273 l -49.07954610542377 0.21121766215825133" fill="red" stroke="none" /><path d="M 120.99824983174949 100.27111621757518 l 52.49299051832939 0.6777565345956166 a73.49736571941116,73.49736571941116 0 0,0 -0.027221804922983903,1.2648903087425565 l -52.4735466507214 -1.581236659128288" fill="red" stroke="none" /><path d="M 120.92983693683757 101.71520430193887 l 29.230518811284878 2.3954468333567593 a50.32850823871405,50.32850823871405 0 0,0 -0.07818990000288505,0.8628190310725552 l -29.184954315004916 -2.8982472529778853" fill="red" stroke="none" /><path d="M 120.89721153311464 102.0752229133903 l 46.7805711435549 4.645601303540079 a68.01067376658895,68.01067376658895 0 0,0 -0.1257151347134176,1.163966014419314 l -46.69367370734043 -5.4501636398441855" fill="red" stroke="none" /><path d="M 120.81339534386255 102.79330883721812 l 23.077541293798795 3.0971736697560432 a44.28444538544173,44.28444538544173 0 0,0 -0.10789788920712455,0.7546375858103138 l -23.020809353575068 -3.4939567275467662" fill="red" stroke="none" /><path d="M 120.76222939487914 103.15116336523771 l 27.85678863364109 4.227931892379076 a49.17580666220493,49.17580666220493 0 0,0 -0.13422242694028816,0.835803180682486 l -27.779884452339516 -4.7068143027547675" fill="red" stroke="none" /><path d="M 120.70491114924044 103.5080841355445 l 21.793944187634477 3.6926016878071715 a43.10455406649324,43.10455406649324 0 0,0 -0.13024463366198985,0.7304810738224357 l -21.7271531116333 -4.067201512362826" fill="red" stroke="none" /><path d="M 120.49622156327973 104.57218783832717 l 30.038672292726417 6.700866875012543 a51.77699546717402,51.77699546717402 0 0,0 -0.2015343955858636,0.8682049015387264 l -29.918877331210002 -7.216940433899834" fill="red" stroke="none" /><path d="M 120.41448212921028 104.9243191809786 l 47.52683239851154 11.46427770784696 a69.88997301286679,69.88997301286679 0 0,0 -0.2921689940358686,1.167069897184747 l -47.32245209018061 -12.280675444429102" fill="red" stroke="none" /><path d="M 120.23288151984713 105.62410040840565 l 23.949060537020117 6.657080506059542 a45.85707588333777,45.85707588333777 0 0,0 -0.2179463725728565,0.7586999148040393 l -23.83092152756116 -7.068337896368163" fill="red" stroke="none" /><path d="M 119.79798401119884 107.00284435728193 l 23.47524741879919 8.303547665739343 a45.900524998703204,45.900524998703204 0 0,0 -0.2698857735458544,0.7426097374706936 l -23.328837384248107 -8.706405200216167" fill="red" stroke="none" /><path d="M 119.54520255179757 107.68017299344265 l 21.480984992937042 8.440827378385439 a44.07986748442217,44.07986748442217 0 0,0 -0.2835749933821907,0.7038098777586553 l -21.332507385297458 -8.809336623986908" fill="red" stroke="none" /><path d="M 119.26925614724726 108.34839909993367 l 47.09772691084774 20.40507521135489 a72.32799406318,72.32799406318 0 0,0 -0.504776778736314,1.1381383788726114 l -46.73950904738015 -21.21276192672019" fill="red" stroke="none" /><path d="M 118.81262510543309 109.33194174019688 l 43.377216236598464 21.5171275940089 a69.42075658571932,69.42075658571932 0 0,0 -0.5402301136038988,1.0659252657846496 l -43.0004074532083 -22.260607071496246" fill="red" stroke="none" /><line stroke="#e1ed5e" stroke-width="0.3" x1="174.80103733775053" x2="179.2010983576182" y1="140.37084112569926" y2="142.7455964860345" /><path d="M 175.68104954172406 140.8457921977663 a86.0,86.0 0 0,1 -30.038265399797805,32.042727171017184" fill="none" id="id17" stroke="none" /><text fill="#e1ed5e" style="font-size:6.75px; font-family:Arial;" text-anchor="middle"><textPath startOffset="22.206326154141568" xlink:href="#id17">May</textPath></text><path d="M 117.55443506779139 111.5257021239791 l 18.321692041628634 12.029459453613654 a42.91785331674644,42.91785331674644 0 0,0 -0.41077882090972473,0.6140586020577229 l -18.111910115308188 -12.343054969877183" fill="red" stroke="none" /><path d="M 117.35343817320211 111.8261652097733 l 18.75422163061978 12.78078275732768 a43.695136854850894,43.695136854850894 0 0,0 -0.4289178986992987,0.6178882232848555 l -18.531442824758344 -13.101712242799556" fill="red" stroke="none" /><path d="M 117.14729908036423 112.12312394758627 l 39.174649069583964 27.696439191266123 a68.9765137708083,68.9765137708083 0 0,0 -0.69377302666082,0.9635900549282109 l -38.69209625054754 -28.366662851645465" fill="red" stroke="none" /><path d="M 116.27256486870786 113.27417163493432 l 19.503191857489192 15.909521223861157 a46.169174762048144,46.169174762048144 0 0,0 -0.5076498635319514,0.6114969632576527 l -19.226445994063695 -16.24287944423258" fill="red" stroke="none" /><path d="M 115.80600337817218 113.82643327865902 l 19.42826796084703 16.995039432392186 a46.81257370482534,46.81257370482534 0 0,0 -0.5357613245304605,0.6019335276767783 l -19.13284778666823 -17.32694712980983" fill="red" stroke="none" /><path d="M 115.56566222782051 114.09645910891815 l 18.61352095989302 16.85663823638436 a46.11193770215098,46.11193770215098 0 0,0 -0.5378707035437799,0.58375241794266 l -18.320603848353517 -17.174541909128354" fill="red" stroke="none" /><path d="M 114.55890576462653 115.13401014063108 l 6.004579061042857 6.241771316415602 a29.66110148114793,29.66110148114793 0 0,0 -0.3709956415045382,0.35079953542292347 l -5.896247585147512 -6.344205488584447" fill="red" stroke="none" /><path d="M 114.29624159901734 115.38237550388516 l 16.989381696063123 18.280122577505928 a45.95600071852793,45.95600071852793 0 0,0 -0.5840798712607728,0.5335431139966333 l -16.672202275335486 -18.569858458089143" fill="red" stroke="none" /><path d="M 113.75828350139079 115.86535959552629 l 27.18003256021882 31.342644621503364 a62.48632957787913,62.48632957787913 0 0,0 -0.8186736432790158,0.6976914395477678 l -26.63649344036276 -31.80586045127408" fill="red" stroke="none" /><path d="M 112.34349029814194 116.9893568818739 l 21.080199345720587 29.01440525937807 a56.863777227318714,56.863777227318714 0 0,0 -0.796831222537563,0.5685179200994083 l -20.57764079533414 -29.372967441321695" fill="red" stroke="none" /><path d="M 111.7513745106137 117.40417183066458 l 13.960577303483788 20.676073767001302 a45.947900614380885,45.947900614380885 0 0,0 -0.6592983330902147,0.4369469847329185 l -13.60260427165361 -20.91331877282554" fill="red" stroke="none" /><path d="M 111.45004920935366 117.60387380957326 l 21.691754111952914 33.349979123510344 a60.78383219339235,60.78383219339235 0 0,0 -0.8819971338405853,0.562932301067127 l -21.114475176065397 -33.71842585340128" fill="red" stroke="none" /><line stroke="#e1ed5e" stroke-width="0.3" x1="143.8653032363475" x2="146.44561519142675" y1="172.8068346515853" y2="177.08958963109032" /><path d="M 144.38136562736335 173.6633856474863 a86.0,86.0 0 0,1 -40.68145358897372,12.25698825130547" fill="none" id="id18" stroke="none" /><text fill="#e1ed5e" style="font-size:6.75px; font-family:Arial;" text-anchor="middle"><textPath startOffset="21.466115282336833" xlink:href="#id18">June</textPath></text><path d="M 109.89434966115114 118.52300852407294 l 17.519114465442307 32.79717391146283 a58.1829798191593,58.1829798191593 0 0,0 -0.8874541787711445,0.46427408265830195 l -16.951969384144668 -33.09387741306585" fill="red" stroke="none" /><path d="M 109.57404056367764 118.69057910512821 l 10.205361611741468 19.923053096760945 a43.38475933135673,43.38475933135673 0 0,0 -0.6676007354310391,0.3347488679090493 l -9.860906968627667 -20.095769805579298" fill="red" stroke="none" /><path d="M 109.2508944713604 118.85261126421891 l 17.11483095886086 34.87870885557447 a59.851534978457565,59.851534978457565 0 0,0 -0.9288027166771564,0.44588174725317536 l -16.511915574183472 -35.16814487932721" fill="red" stroke="none" /><path d="M 108.2653958097858 119.30500536409082 l 9.37611920979056 21.89925755582811 a44.82202957207253,44.82202957207253 0 0,0 -0.7118774335969043,0.2975648249784753 l -8.997770316696194 -22.057407423826557" fill="red" stroke="none" /><path d="M 107.59598834532513 119.57807347666477 l 17.576153548590383 45.30117872326937 a69.59133633973468,69.59133633973468 0 0,0 -1.1205191996929502,0.4236844823072899 l -16.79376412813716 -45.597011455683294" fill="red" stroke="none" /><path d="M 106.91757812671514 119.82793768551818 l 15.966584435065089 45.76521369616501 a69.47047145611143,69.47047145611143 0 0,0 -1.1324688117403512,0.38419490731866585 l -15.17644589038751 -46.0332715903818" fill="red" stroke="none" /><path d="M 103.41894727170886 120.7198165907248 l 6.136717200747934 37.190294194005006 a58.69319938979176,58.69319938979176 0 0,0 -0.9982431367670516,0.1559050480560192 l -5.4956382003723645 -37.290417549408126" fill="red" stroke="none" /><path d="M 102.34483914955558 120.86867818915974 l 2.6510513562385536 23.593915867006597 a44.74238697420291,44.74238697420291 0 0,0 -0.7660906621895927,0.07940842949168529 l -2.244528097443358 -23.63605366495404" fill="red" stroke="none" /><path d="M 101.98527174616119 120.90594882070398 l 4.0361020997765165 42.50226403323465 a63.69347219553139,63.69347219553139 0 0,0 -1.092360282571036,0.09425344159258571 l -3.303897499463939 -42.5654417271059" fill="red" stroke="none" /><line stroke="#e1ed5e" stroke-width="0.3" x1="102.19456741930631" x2="102.32365962044197" y1="184.97166512339345" y2="189.96999836594603" /><path d="M 102.22038585953345 185.97133177190398 a86.0,86.0 0 0,1 -42.740103519485714,-10.115201625700543" fill="none" id="id19" stroke="none" /><text fill="#e1ed5e" style="font-size:6.75px; font-family:Arial;" text-anchor="middle"><textPath startOffset="22.20632615414155" xlink:href="#id19">July</textPath></text><path d="M 100.54218724476979 120.99299961872073 l 0.7504947910438327 29.05847936154325 a50.06816927906914,50.06816927906914 0 0,0 -0.8617454586063402,0.014835729568089906 l -0.25018964254482445 -29.0670925683905" fill="red" stroke="none" /><path d="M 99.81925306533755 120.99922214144158 l -0.32560175115495427 37.828489401019944 a58.82989065360133,58.82989065360133 0 0,0 -1.012547329591338,-0.017431920536027955 l 0.9767087706389603 -37.81728000320476" fill="red" stroke="none" /><path d="M 99.45781275523022 120.99299961872073 l -0.779634706332386 30.186750519604754 a51.196816673420656,51.196816673420656 0 0,0 -0.8807794249119613,-0.030335824276652185 l 1.2991344829189904 -30.168857896902008" fill="red" stroke="none" /><path d="M 98.37488393609728 120.93702456842531 l -1.7935960453920998 23.107620004704373 a44.1771242619929,44.1771242619929 0 0,0 -0.7576496347045116,-0.06537319850570615 l 2.1910899978381533 -23.073322553920004" fill="red" stroke="none" /><path d="M 97.65516085044442 120.86867818915974 l -4.533949144340005 40.35139281821551 a61.605314888735876,61.605314888735876 0 0,0 -1.0527837194214884,-0.1274774469618299 l 5.227860286812882 -40.26736984252833" fill="red" stroke="none" /><line stroke="#e1ed5e" stroke-width="0.3" x1="58.666819895761336" x2="56.23545636021788" y1="174.27360380694188" y2="178.64263932499728" /><path d="M 58.180547188652646 175.14741091055294 a86.0,86.0 0 0,1 -31.652253787137756,-30.449443065178592" fill="none" id="id20" stroke="none" /><text fill="#e1ed5e" style="font-size:6.75px; font-family:Arial;" text-anchor="middle"><textPath startOffset="22.20632615414155" xlink:href="#id20">August</textPath></text><line stroke="#e1ed5e" stroke-width="0.3" x1="26.63291911575756" x2="22.317208475507996" y1="142.92168965132927" y2="145.44649492493687" /><path d="M 25.769776987707644 143.4266507060508 a86.0,86.0 0 0,1 -11.730757126820373,-40.83630448921669" fill="none" id="id21" stroke="none" /><text fill="#e1ed5e" style="font-size:6.75px; font-family:Arial;" text-anchor="middle"><textPath startOffset="21.46611528233685" xlink:href="#id21">September</textPath></text><line stroke="#e1ed5e" stroke-width="0.3" x1="15.007084014347285" x2="10.007500721073583" y1="101.09737516637583" y2="101.16192664675087" /><path d="M 14.007167355692545 101.11028546245083 a86.0,86.0 0 0,1 10.666146001902534,-42.60595125391555" fill="none" id="id22" stroke="none" /><text fill="#e1ed5e" style="font-size:6.75px; font-family:Arial;" text-anchor="middle"><textPath startOffset="22.20632615414155" xlink:href="#id22">October</textPath></text><line stroke="#e1ed5e" stroke-width="0.3" x1="26.266209847984243" x2="21.928928074336255" y1="57.711370442889674" y2="55.22380399835377" /><path d="M 25.398753493254645 57.213857153982495 a86.0,86.0 0 0,1 29.58750427330803,-30.492523968695096" fill="none" id="id23" stroke="none" /><text fill="#e1ed5e" style="font-size:6.75px; font-family:Arial;" text-anchor="middle"><textPath startOffset="21.46611528233685" xlink:href="#id23">November</textPath></text><line stroke="#e1ed5e" stroke-width="0.3" x1="56.762969772571076" x2="54.21961505331055" y1="26.818313649435495" y2="22.513508569990535" /><path d="M 56.25429882871897 25.957352633546506 a86.0,86.0 0 0,1 42.265352541879196,-11.944610805530505" fill="none" id="id24" stroke="none" /><text fill="#e1ed5e" style="font-size:6.75px; font-family:Arial;" text-anchor="middle"><textPath startOffset="22.20632615414155" xlink:href="#id24">December</textPath></text></svg>