<?xml version="1.0" encoding="utf-8" ?>
<svg baseProfile="full" height="200mm" version="1.1" viewBox="0,0,200,200" width="200mm" xmlns="http://www.w3.org/2000/svg" xmlns:ev="http://www.w3.org/2001/xml-events" xmlns:xlink="http://www.w3.org/1999/xlink"><defs /><rect fill="#1a1a1a" height="200" width="200" x="0" y="0" /><rect fill="#1a1a1a" height="200" width="180" x="10" y="0" /><text alignment-baseline="middle" fill="#e1ed5e" style="dominant-baseline: central; font-size:9.0px; font-family:Arial;" text-anchor="middle" x="100.0" y="100.0">2026</text><line stroke="#e1ed5e" stroke-width="0.3" x1="100.0" x2="100.0" y1="15.0" y2="10.0" /><path d="M 100.0 14.0 a86.0,86.0 0 0,1 42.46469731375804,11.215312516191453" fill="none" id="id25" stroke="none" /><text fill="#e1ed5e" style="font-size:6.75px; font-family:Arial;" text-anchor="middle"><textPath startOffset="22.20632615414155" xlink:href="#id25">January</textPath></text><path d="M 101.08401301168833 79.027996857942 l 2.7838022303064967 -53.85720327279764 a74.92910067138988,74.92910067138988 0 0,0 1.2874887223121325,0.07766483570905809 l -3.710453001458241 53.80130516770828" fill="red" stroke="none" /><path d="M 101.44485096284872 79.0497635885617 l 2.6114700376287394 -37.866130193691305 a58.956074502021586,58.956074502021586 0 0,0 1.0118260784387287,0.07853717745673361 l -3.2628863054298094 37.81556775404611" fill="red" stroke="none" /><path d="M 101.80526077348638 79.07773832637324 l 4.586911892987249 -53.16050307436328 a74.35802514930079,74.35802514930079 0 0,0 1.2742659452583356,0.12100690573352564 l -5.501302965335829 53.07367062411458" fill="red" stroke="none" /><path d="M 102.16513564639614 79.11191278185805 l 3.9271443824066634 -37.88701854061032 a59.09000704773916,59.09000704773916 0 0,0 1.0108141914949003,0.11357675209035566 l -4.578725277411289 37.813805835049365" fill="red" stroke="none" /><path d="M 102.88285421437855 79.19881850522331 l 7.345896754831856 -53.00418275645873 a74.51079880559368,74.51079880559368 0 0,0 1.2689225212342745,0.1870061946012892 l -8.257188256494786 52.869882077696474" fill="red" stroke="none" /><path d="M 103.59715602781102 79.31037775812273 l 6.509020741530819 -37.43768111965011 a58.9993068177603,58.9993068177603 0 0,0 0.9990686359972594,0.18257340734248778 l -7.1524844986309795 37.32009223095688" fill="red" stroke="none" /><path d="M 103.95276090670814 79.375362276772 l 8.557312608306127 -44.65017657182505 a66.46279651507845,66.46279651507845 0 0,0 1.1217451240807184,0.2250115190603611 l -9.32462414185397 44.49626109668748" fill="red" stroke="none" /><path d="M 104.307194497241 79.44645832069477 l 10.8970141505177 -51.99956367563873 a74.12908374754255,74.12908374754255 0 0,0 1.2466297751084339,0.27246498399195546 l -11.790486649779663 51.80428519355091" fill="red" stroke="none" /><path d="M 104.66035177308747 79.52364482259891 l 8.169542291197132 -35.894811751630336 a57.812755016877475,57.812755016877475 0 0,0 0.9684360860179061,0.22919753264540735 l -8.786202064177562 35.74886830684406" fill="red" stroke="none" /><path d="M 105.01212808612495 79.60689891045804 l 8.990582607101196 -36.58044184226811 a58.66907618976964,58.66907618976964 0 0,0 0.9786312332541592,0.2494748914898497 l -9.61892272904038 36.420263954609396" fill="red" stroke="none" /><path d="M 105.36241919743992 79.69619591428918 l 9.750688282922352 -36.91916974558933 a59.185088931340175,59.185088931340175 0 0,0 0.9827602588971766,0.2686255027404511 l -10.38474643104324 36.74585770202258" fill="red" stroke="none" /><path d="M 106.40334571778207 80.00007090966166 l 11.683414517942575 -36.491464336055955 a59.31617340220335,59.31617340220335 0 0,0 0.9697267260868493,0.3197036551708927 l -12.309824066271842 36.28494695662583" fill="red" stroke="none" /><path d="M 106.74666289553966 80.11325718540242 l 17.359216622021002 -51.16874546277529 a75.03316494491635,75.03316494491635 0 0,0 1.2195318803708894,0.42547072692522236 l -18.237430506455166 50.862353882677866" fill="red" stroke="none" /><path d="M 107.08798089147638 80.2323363322302 l 18.320742348325656 -51.094702205120264 a75.2799980989651,75.2799980989651 0 0,0 1.2160145652845622,0.4478684267633708 l -19.197539239382795 50.77177051055057" fill="red" stroke="none" /><path d="M 107.4271985657038 80.35727306442388 l 13.378854747858924 -35.38308397144976 a58.827984161133564,58.827984161133564 0 0,0 0.9440962395921405,0.3662946735466459 l -13.98593415245073 35.14754659401256" fill="red" stroke="none" /><path d="M 107.76421540070413 80.48803036053334 l 14.289685067930911 -35.91089206228383 a59.64954421528988,59.64954421528988 0 0,0 0.9507459343122959,0.3878331384147183 l -14.905714871831593 35.659598037685534" fill="red" stroke="none" /><path d="M 108.76106565485865 80.91482961587045 l 16.07931290988205 -35.027294467842225 a59.54160948106384,59.54160948106384 0 0,0 0.9277767598330726,0.4356036288697814 l -16.67986788101472 34.745325856332435" fill="red" stroke="none" /><path d="M 109.08828744355905 81.06846463323043 l 23.69860539260267 -49.36584465658995 a75.75957008791127,75.75957008791127 0 0,0 1.1707693948792492,0.5744914574715907 l -24.54484605449235 48.95059803898353" fill="red" stroke="none" /><path d="M 109.41281617654863 81.2277094730956 l 17.246445991770308 -34.395157479086 a59.47683403501613,59.47683403501613 0 0,0 0.9112403610566951,0.46677270570088225 l -17.835946840415758 34.09319224807262" fill="red" stroke="none" /><path d="M 109.73455568895987 81.39251694778311 l 17.943088247583443 -34.297991725497596 a59.70796626358544,59.70796626358544 0 0,0 0.9065800383268906,0.4842636596192464 l -18.530813332438644 33.9840493393766" fill="red" stroke="none" /><path d="M 110.05341064243156 81.56283822128135 l 18.378034791967142 -33.703865552284384 a59.38883582477094,59.38883582477094 0 0,0 0.8933096483381371,0.4971258521343383 l -18.955468529377313 33.38252430258987" fill="red" stroke="none" /><line stroke="#e1ed5e" stroke-width="0.3" x1="143.23703022742887" x2="145.7803849466894" y1="26.81831364943548" y2="22.513508569990506" /><path d="M 143.74570117128098 25.957352633546492 a86.0,86.0 0 0,1 28.547481713284135,27.462654790039103" fill="none" id="id26" stroke="none" /><text fill="#e1ed5e" style="font-size:6.75px; font-family:Arial;" text-anchor="middle"><textPath startOffset="19.985693538727396" xlink:href="#id26">February</textPath></text><path d="M 110.99172775467656 82.1063720568725 l 20.48786152021747 -33.35255198957369 a60.142626302904404,60.142626302904404 0 0,0 0.877454705963908,0.5494620563767497 l -21.05893537855364 32.994945591874" fill="red" stroke="none" /><path d="M 111.2981086023043 82.29822771554956 l 20.725645051320573 -32.47274938320182 a59.52313350829036,59.52313350829036 0 0,0 0.8589272467455524,0.5586701738990513 l -21.281539323850403 32.11118028514324" fill="red" stroke="none" /><path d="M 111.60114157652 82.49532879139004 l 21.313087552339177 -32.15878261490256 a59.580241060499276,59.580241060499276 0 0,0 0.8499981203739135,0.5739225251863168 l -21.86349036711963 31.787148177417574" fill="red" stroke="none" /><path d="M 112.19680574252982 82.90503203632743 l 22.54776389690122 -31.602807292889622 a59.82188925776178,59.82188925776178 0 0,0 0.8331043665713052,0.6052857525810172 l -23.088413579826312 31.21000230549193" fill="red" stroke="none" /><path d="M 113.06298171725822 83.55741782278167 l 33.87144873055251 -42.63452948707344 a75.4516128658333,75.4516128658333 0 0,0 1.0099615214006408,0.8166519788567266 l -34.60031365051764 42.04517141095259" fill="red" stroke="none" /><path d="M 113.34407831869373 83.78471172551755 l 24.642092883444136 -29.94426668133753 a59.78004446567009,59.78004446567009 0 0,0 0.7889327982813948,0.660708530068002 l -25.153883218684648 29.51565699387571" fill="red" stroke="none" /><path d="M 113.89432698308785 84.25364557470407 l 41.68298094926353 -47.23906327588782 a84.0,84.0 0 0,0 1.0759560496160399,0.9660039649228103 l -42.48994798647556 46.51456030219571" fill="red" stroke="none" /><path d="M 116.82858285166822 87.43820079747576 l 32.17298382334466 -24.015721709737022 a61.14792369895025,61.14792369895025 0 0,0 0.6223617838871304,0.8489007737978055 l -32.58160821974541 23.45835849226772" fill="red" stroke="none" /><path d="M 117.04232023915458 87.72973835380427 l 31.705912752135756 -22.82786849095489 a60.068868466931264,60.068868466931264 0 0,0 0.5969340377004302,0.8443208631663474 l -32.09415940964007 22.278721127456752" fill="red" stroke="none" /><path d="M 117.2510076193507 88.02491185347247 l 32.208321195243755 -22.357968524231165 a60.20783991431433,60.20783991431433 0 0,0 0.5836591991184715,0.8564478549439475 l -32.58840486003096 21.800242646016812" fill="red" stroke="none" /><path d="M 117.45458315368197 88.32363383020206 l 32.45310820869389 -21.70973499947781 a60.04506148225082,60.04506148225082 0 0,0 0.5672924870580394,0.8640253774898167 l -32.821997331109856 21.14789155801032" fill="red" stroke="none" /><line stroke="#e1ed5e" stroke-width="0.3" x1="172.23445277983987" x2="176.4835382374775" y1="55.19839476539836" y2="52.563006222186495" /><path d="M 173.08426987136738 54.67131705675599 a86.0,86.0 0 0,1 12.851231095245387,41.99856678651699" fill="none" id="id27" stroke="none" /><text fill="#e1ed5e" style="font-size:6.75px; font-family:Arial;" text-anchor="middle"><textPath startOffset="22.20632615414155" xlink:href="#id27">March</textPath></text><line stroke="#e1ed5e" stroke-width="0.3" x1="184.98032266829074" x2="189.97916517819016" y1="98.17113171792111" y2="98.06355123074" /><path d="M 185.9800911702706 98.14961562048488 a86.0,86.0 0 0,1 -9.607161424134198,41.387399972396054" fill="none" id="id28" stroke="none" /><text fill="#e1ed5e" style="font-size:6.75px; font-family:Arial;" text-anchor="middle"><textPath startOffset="21.466115282336823" xlink:href="#id28">April</textPath></text><line stroke="#e1ed5e" stroke-width="0.3" x1="174.80103733775053" x2="179.2010983576182" y1="140.37084112569926" y2="142.7455964860345" /><path d="M 175.68104954172406 140.8457921977663 a86.0,86.0 0 0,1 -30.038265399797805,32.042727171017184" fill="none" id="id29" stroke="none" /><text fill="#e1ed5e" style="font-size:6.75px; font-family:Arial;" text-anchor="middle"><textPath startOffset="22.206326154141568" xlink:href="#id29">May</textPath></text><line stroke="#e1ed5e" stroke-width="0.3" x1="143.8653032363475" x2="146.44561519142675" y1="172.8068346515853" y2="177.08958963109032" /><path d="M 144.38136562736335 173.6633856474863 a86.0,86.0 0 0,1 -40.68145358897372,12.25698825130547" fill="none" id="id30" stroke="none" /><text fill="#e1ed5e" style="font-size:6.75px; font-family:Arial;" text-anchor="middle"><textPath startOffset="21.466115282336833" xlink:href="#id30">June</textPath></text><line stroke="#e1ed5e" stroke-width="0.3" x1="102.19456741930631" x2="102.32365962044197" y1="184.97166512339345" y2="189.96999836594603" /><path d="M 102.22038585953345 185.97133177190398 a86.0,86.0 0 0,1 -42.740103519485714,-10.115201625700543" fill="none" id="id31" stroke="none" /><text fill="#e1ed5e" style="font-size:6.75px; font-family:Arial;" text-anchor="middle"><textPath startOffset="22.20632615414155" xlink:href="#id31">July</textPath></text><line stroke="#e1ed5e" stroke-width="0.3" x1="58.666819895761336" x2="56.23545636021788" y1="174.27360380694188" y2="178.64263932499728" /><path d="M 58.180547188652646 175.14741091055294 a86.0,86.0 0 0,1 -31.652253787137756,-30.449443065178592" fill="none" id="id32" stroke="none" /><text fill="#e1ed5e" style="font-size:6.75px; font-family:Arial;" text-anchor="middle"><textPath startOffset="22.20632615414155" xlink:href="#id32">August</textPath></text><line stroke="#e1ed5e" stroke-width="0.3" x1="26.63291911575756" x2="22.317208475507996" y1="142.92168965132927" y2="145.44649492493687" /><path d="M 25.769776987707644 143.4266507060508 a86.0,86.0 0 0,1 -11.730757126820373,-40.83630448921669" fill="none" id="id33" stroke="none" /><text fill="#e1ed5e" style="font-size:6.75px; font-family:Arial;" text-anchor="middle"><textPath startOffset="21.46611528233685" xlink:href="#id33">September</textPath></text><line stroke="#e1ed5e" stroke-width="0.3" x1="15.007084014347285" x2="10.007500721073583" y1="101.09737516637583" y2="101.16192664675087" /><path d="M 14.007167355692545 101.11028546245083 a86.0,86.0 0 0,1 10.666146001902534,-42.60595125391555" fill="none" id="id34" stroke="none" /><text fill="#e1ed5e" style="font-size:6.75px; font-family:Arial;" text-anchor="middle"><textPath startOffset="22.20632615414155" xlink:href="#id34">October</textPath></text><line stroke="#e1ed5e" stroke-width="0.3" x1="26.266209847984243" x2="21.928928074336255" y1="57.711370442889674" y2="55.22380399835377" /><path d="M 25.398753493254645 57.213857153982495 a86.0,86.0 0 0,1 29.58750427330803,-30.492523968695096" fill="none" id="id35" stroke="none" /><text fill="#e1ed5e" style="font-size:6.75px; font-family:Arial;" text-anchor="middle"><textPath startOffset="21.46611528233685" xlink:href="#id35">November</textPath></text><line stroke="#e1ed5e" stroke-width="0.3" x1="56.762969772571076" x2="54.21961505331055" y1="26.818313649435495" y2="22.513508569990535" /><path d="M 56.25429882871897 25.957352633546506 a86.0,86.0 0 0,1 42.265352541879196,-11.944610805530505" fill="none" id="id36" stroke="none" /><text fill="#e1ed5e" style="font-size:6.75px; font-family:Arial;" text-anchor="middle"><textPath startOffset="22.20632615414155" xlink:href="#id36">December</textPath></text></svg>